<?xml version="1.0" encoding="UTF-8" standalone="no"?>
<svg version="1.1" xmlns="http://www.w3.org/2000/svg" xmlns:xlink="http://www.w3.org/1999/xlink" width="800px" viewBox="0 0 960 210">
    <title>Digital Biquad Filter, Direct Form 1</title>
    
    <!-- Definitions -->
    <defs>
        <symbol id="delay" viewBox="-2 -2 64 64">
            <rect x="0px" y="0px" width="60px" height="60px" fill="white" stroke="black" stroke-width="3px"/>
            <text x="10px" y="40px" font-family="serif" font-style="italic" font-size="24pt">z<tspan font-style="normal" font-size="14pt" dy="-8pt">−1</tspan></text>
        </symbol>
        
        <path id="gain-r" d="m30,0 l-30,15 v-30 z" fill="white" stroke="black" stroke-width="3px"/>
        <path id="gain-l" d="m0,0 l30,-15 v30 z" fill="white" stroke="black" stroke-width="3px"/>
        <path id="sum" d="m-20,0 h40 m-20,-20 v40 m0,10 a30,30 0 0,1 0,-60 30,30 0 0,1 0,60" fill="white" stroke="black" stroke-width="3px"/>
        
        <marker id="triangle" markerWidth="40" markerHeight="30" refX="5" refY="15" markerUnits="userSpaceOnUse" orient="auto">
            <path d="m25,15 l-30,10 v-20 z"/>
        </marker>
        
        <g id="stage">
            <!-- Lines -->
            <g fill="none" stroke="black" stroke-width="3px" marker-end="url(#triangle)">
                <line x1="60px" y1="50px" x2="170px" y2="50px"/>
                <polyline points="250,50 400,50 400,80"/>
                <line x1="400px" y1="160px" x2="400px" y2="220px"/>
                <line x1="400px" y1="190px" x2="270px" y2="190px"/>
                <line x1="220px" y1="160px" x2="220px" y2="100px"/>
                <polyline points="400,300 400,330 220,330 220,240"/>
                <line x1="400px" y1="50px" x2="530px" y2="50px"/>
                <line x1="580px" y1="160px" x2="580px" y2="100px"/>
                <line x1="400px" y1="190px" x2="530px" y2="190px"/>
                <polyline points="400,330 580,330 580,240"/>
                <line x1="610px" y1="50px" x2="640px" y2="50px" marker-end="none"/>
            </g>

            <!-- Coefficients -->
            <g font-size="18pt" font-family="serif">
                <text x="120px" y="30px"><tspan font-style="italic">a</tspan><tspan font-size="10.5pt" dy="2.538pt">0</tspan></text>
                <text x="300px" y="170px"><tspan font-style="italic">a</tspan><tspan font-size="10.5pt" dy="2.538pt">1</tspan></text>
                <text x="300px" y="310px"><tspan font-style="italic">a</tspan><tspan font-size="10.5pt" dy="2.538pt">2</tspan></text>
                <text x="480px" y="30px"><tspan font-style="italic">b</tspan><tspan font-size="10.5pt" dy="2.538pt">0</tspan></text>
                <text x="480px" y="170px"><tspan font-style="italic">b</tspan><tspan font-size="10.5pt" dy="2.538pt">1</tspan></text>
                <text x="480px" y="310px"><tspan font-style="italic">b</tspan><tspan font-size="10.5pt" dy="2.538pt">2</tspan></text>
            </g>

            <!-- Connecting dots -->
            <g fill="black" stroke="none">
                <circle cx="400px" cy="50px" r="7px"/>
                <circle cx="400px" cy="190px" r="7px"/>
                <circle cx="400px" cy="330px" r="7px"/>
            </g>
            
            <!-- Delay blocks -->
            <use xlink:href="#delay" x="368px" y="98px" width="64px" height="64px"/>
            <use xlink:href="#delay" x="368px" y="238px" width="64px" height="64px"/>

            <!-- Summation -->
            <use xlink:href="#sum" x="220px" y="50px"/>
            <use xlink:href="#sum" x="220px" y="190px"/>
            <use xlink:href="#sum" x="580px" y="50px"/>
            <use xlink:href="#sum" x="580px" y="190px"/>

            <!-- Gain triangles -->
            <use xlink:href="#gain-l" x="310px" y="190px"/>
            <use xlink:href="#gain-l" x="310px" y="330px"/>
            <use xlink:href="#gain-r" x="100px" y="50px"/>
            <use xlink:href="#gain-r" x="460px" y="50px"/>
            <use xlink:href="#gain-r" x="460px" y="190px"/>
            <use xlink:href="#gain-r" x="460px" y="330px"/>
        </g>
    </defs>

    <!-- Stage 1 -->
    <g transform="translate(0,0) scale(0.5)">
        <use xlink:href="#stage"/>
        <rect x="80" y="0" width="550" height="410" style="fill:none;stroke:black;stroke-width:2;stroke-dasharray:10,10" />
        <text x="320px" y="380px" font-size="18pt" font-family="serif"><tspan font-style="italic">Stage 1</tspan></text>
        <text x="10px" y="55px" font-size="18pt" font-family="serif"><tspan font-style="italic">x[n]</tspan></text>
    </g>
    
    <!-- Stage 2 -->
    <g transform="translate(290,0) scale(0.5)">
        <use xlink:href="#stage"/>
        <rect x="80" y="0" width="550" height="410" style="fill:none;stroke:black;stroke-width:2;stroke-dasharray:10,10" />
        <text x="320px" y="380px" font-size="18pt" font-family="serif"><tspan font-style="italic">Stage 2</tspan></text>
    </g>
    
    <!-- Stage 3 -->
    <g transform="translate(580,0) scale(0.5)">
        <use xlink:href="#stage"/>
        <rect x="80" y="0" width="550" height="410" style="fill:none;stroke:black;stroke-width:2;stroke-dasharray:10,10" />
        <text x="320px" y="380px" font-size="18pt" font-family="serif"><tspan font-style="italic">Stage 3</tspan></text>
        <line x1="560px" y1="50px" x2="670px" y2="50px" fill="none" stroke="black" stroke-width="3px" marker-end="url(#triangle)"/>
        <text x="700px" y="55px" font-size="18pt" font-family="serif"><tspan font-style="italic">y[n]</tspan></text>
    </g>
</svg>
