G04 Layer_Color=32896*
%FSAX25Y25*%
%MOIN*%
G70*
G01*
G75*
%ADD48C,0.01000*%
%ADD49C,0.00800*%
%ADD52C,0.01500*%
%ADD136C,0.00100*%
G54D48*
X1024362Y0758648D02*
Y0752650D01*
X1027361D01*
X1028361Y0753650D01*
Y0754649D01*
X1027361Y0755649D01*
X1024362D01*
X1027361D01*
X1028361Y0756649D01*
Y0757648D01*
X1027361Y0758648D01*
X1024362D01*
X1031360Y0752650D02*
X1033359D01*
X1034359Y0753650D01*
Y0755649D01*
X1033359Y0756649D01*
X1031360D01*
X1030360Y0755649D01*
Y0753650D01*
X1031360Y0752650D01*
X1037358Y0756649D02*
X1039357D01*
X1040357Y0755649D01*
Y0752650D01*
X1037358D01*
X1036358Y0753650D01*
X1037358Y0754649D01*
X1040357D01*
X1042356Y0756649D02*
Y0752650D01*
Y0754649D01*
X1043356Y0755649D01*
X1044356Y0756649D01*
X1045355D01*
X1052353Y0758648D02*
Y0752650D01*
X1049354D01*
X1048354Y0753650D01*
Y0755649D01*
X1049354Y0756649D01*
X1052353D01*
X1060350Y0758648D02*
Y0752650D01*
X1064349D01*
X1067348Y0756649D02*
X1069347D01*
X1070347Y0755649D01*
Y0752650D01*
X1067348D01*
X1066348Y0753650D01*
X1067348Y0754649D01*
X1070347D01*
X1072346Y0756649D02*
Y0753650D01*
X1073346Y0752650D01*
X1076345D01*
Y0751650D01*
X1075346Y0750651D01*
X1074346D01*
X1076345Y0752650D02*
Y0756649D01*
X1081344Y0752650D02*
X1079344D01*
X1078345Y0753650D01*
Y0755649D01*
X1079344Y0756649D01*
X1081344D01*
X1082343Y0755649D01*
Y0754649D01*
X1078345D01*
X1084343Y0756649D02*
Y0752650D01*
Y0754649D01*
X1085342Y0755649D01*
X1086342Y0756649D01*
X1087342D01*
X1100338Y0757648D02*
X1099338Y0758648D01*
X1097338D01*
X1096339Y0757648D01*
Y0756649D01*
X1097338Y0755649D01*
X1099338D01*
X1100338Y0754649D01*
Y0753650D01*
X1099338Y0752650D01*
X1097338D01*
X1096339Y0753650D01*
X1103337Y0757648D02*
Y0756649D01*
X1102337D01*
X1104336D01*
X1103337D01*
Y0753650D01*
X1104336Y0752650D01*
X1108335Y0756649D02*
X1110334D01*
X1111334Y0755649D01*
Y0752650D01*
X1108335D01*
X1107335Y0753650D01*
X1108335Y0754649D01*
X1111334D01*
X1117332Y0756649D02*
X1114333D01*
X1113333Y0755649D01*
Y0753650D01*
X1114333Y0752650D01*
X1117332D01*
X1119331D02*
Y0758648D01*
Y0754649D02*
X1122330Y0756649D01*
X1119331Y0754649D02*
X1122330Y0752650D01*
X0967376Y0733648D02*
X0968376Y0734648D01*
X0970375D01*
X0971375Y0733648D01*
Y0732649D01*
X0970375Y0731649D01*
X0969375D01*
X0970375D01*
X0971375Y0730649D01*
Y0729650D01*
X0970375Y0728650D01*
X0968376D01*
X0967376Y0729650D01*
X0973374Y0728650D02*
Y0729650D01*
X0974374D01*
Y0728650D01*
X0973374D01*
X0982371Y0734648D02*
X0978372D01*
Y0731649D01*
X0980372Y0732649D01*
X0981371D01*
X0982371Y0731649D01*
Y0729650D01*
X0981371Y0728650D01*
X0979372D01*
X0978372Y0729650D01*
X0970375Y0704650D02*
Y0710648D01*
X0967376Y0707649D01*
X0971375D01*
X0973374Y0704650D02*
Y0705650D01*
X0974374D01*
Y0704650D01*
X0973374D01*
X0982371D02*
X0978372D01*
X0982371Y0708649D01*
Y0709648D01*
X0981371Y0710648D01*
X0979372D01*
X0978372Y0709648D01*
X0970375Y0680650D02*
Y0686648D01*
X0967376Y0683649D01*
X0971375D01*
X0973374Y0680650D02*
Y0681650D01*
X0974374D01*
Y0680650D01*
X0973374D01*
X0982371D02*
X0978372D01*
X0982371Y0684649D01*
Y0685648D01*
X0981371Y0686648D01*
X0979372D01*
X0978372Y0685648D01*
X0970375Y0656650D02*
Y0662648D01*
X0967376Y0659649D01*
X0971375D01*
X0973374Y0656650D02*
Y0657650D01*
X0974374D01*
Y0656650D01*
X0973374D01*
X0982371D02*
X0978372D01*
X0982371Y0660649D01*
Y0661648D01*
X0981371Y0662648D01*
X0979372D01*
X0978372Y0661648D01*
X0967376Y0637648D02*
X0968376Y0638648D01*
X0970375D01*
X0971375Y0637648D01*
Y0636649D01*
X0970375Y0635649D01*
X0969375D01*
X0970375D01*
X0971375Y0634649D01*
Y0633650D01*
X0970375Y0632650D01*
X0968376D01*
X0967376Y0633650D01*
X0973374Y0632650D02*
Y0633650D01*
X0974374D01*
Y0632650D01*
X0973374D01*
X0982371Y0638648D02*
X0978372D01*
Y0635649D01*
X0980372Y0636649D01*
X0981371D01*
X0982371Y0635649D01*
Y0633650D01*
X0981371Y0632650D01*
X0979372D01*
X0978372Y0633650D01*
X0971375Y0757648D02*
X0970375Y0758648D01*
X0968376D01*
X0967376Y0757648D01*
Y0753650D01*
X0968376Y0752650D01*
X0970375D01*
X0971375Y0753650D01*
X0974374Y0752650D02*
X0976373D01*
X0977373Y0753650D01*
Y0755649D01*
X0976373Y0756649D01*
X0974374D01*
X0973374Y0755649D01*
Y0753650D01*
X0974374Y0752650D01*
X0979372D02*
Y0756649D01*
X0982371D01*
X0983371Y0755649D01*
Y0752650D01*
X0985370D02*
X0988369D01*
X0989369Y0753650D01*
X0988369Y0754649D01*
X0986370D01*
X0985370Y0755649D01*
X0986370Y0756649D01*
X0989369D01*
X0992368Y0757648D02*
Y0756649D01*
X0991368D01*
X0993367D01*
X0992368D01*
Y0753650D01*
X0993367Y0752650D01*
X0997366Y0756649D02*
X0999366D01*
X1000365Y0755649D01*
Y0752650D01*
X0997366D01*
X0996367Y0753650D01*
X0997366Y0754649D01*
X1000365D01*
X1002365Y0752650D02*
Y0756649D01*
X1005364D01*
X1006363Y0755649D01*
Y0752650D01*
X1009362Y0757648D02*
Y0756649D01*
X1008363D01*
X1010362D01*
X1009362D01*
Y0753650D01*
X1010362Y0752650D01*
X0902392Y0733648D02*
X0903392Y0734648D01*
X0905392D01*
X0906391Y0733648D01*
Y0729650D01*
X0905392Y0728650D01*
X0903392D01*
X0902392Y0729650D01*
Y0733648D01*
X0908391Y0728650D02*
Y0729650D01*
X0909390D01*
Y0728650D01*
X0908391D01*
X0916388D02*
Y0734648D01*
X0913389Y0731649D01*
X0917388D01*
X0919387Y0733648D02*
X0920387Y0734648D01*
X0922386D01*
X0923386Y0733648D01*
Y0729650D01*
X0922386Y0728650D01*
X0920387D01*
X0919387Y0729650D01*
Y0733648D01*
X0925385Y0728650D02*
Y0732649D01*
X0926385D01*
X0927384Y0731649D01*
Y0728650D01*
Y0731649D01*
X0928384Y0732649D01*
X0929384Y0731649D01*
Y0728650D01*
X0931383D02*
X0933382D01*
X0932383D01*
Y0732649D01*
X0931383D01*
X0936381Y0728650D02*
X0938381D01*
X0937381D01*
Y0734648D01*
X0936381D01*
X0902392Y0716650D02*
X0904392D01*
X0903392D01*
Y0722648D01*
X0902392Y0721648D01*
X0907391Y0716650D02*
Y0717650D01*
X0908391D01*
Y0716650D01*
X0907391D01*
X0915388D02*
Y0722648D01*
X0912389Y0719649D01*
X0916388D01*
X0918387Y0721648D02*
X0919387Y0722648D01*
X0921386D01*
X0922386Y0721648D01*
Y0717650D01*
X0921386Y0716650D01*
X0919387D01*
X0918387Y0717650D01*
Y0721648D01*
X0924385Y0716650D02*
Y0720649D01*
X0925385D01*
X0926385Y0719649D01*
Y0716650D01*
Y0719649D01*
X0927384Y0720649D01*
X0928384Y0719649D01*
Y0716650D01*
X0930383D02*
X0932383D01*
X0931383D01*
Y0720649D01*
X0930383D01*
X0935382Y0716650D02*
X0937381D01*
X0936381D01*
Y0722648D01*
X0935382D01*
X0902392Y0709648D02*
X0903392Y0710648D01*
X0905392D01*
X0906391Y0709648D01*
Y0708649D01*
X0905392Y0707649D01*
X0906391Y0706649D01*
Y0705650D01*
X0905392Y0704650D01*
X0903392D01*
X0902392Y0705650D01*
Y0706649D01*
X0903392Y0707649D01*
X0902392Y0708649D01*
Y0709648D01*
X0903392Y0707649D02*
X0905392D01*
X0908391Y0704650D02*
Y0705650D01*
X0909390D01*
Y0704650D01*
X0908391D01*
X0916388D02*
Y0710648D01*
X0913389Y0707649D01*
X0917388D01*
X0919387Y0709648D02*
X0920387Y0710648D01*
X0922386D01*
X0923386Y0709648D01*
Y0705650D01*
X0922386Y0704650D01*
X0920387D01*
X0919387Y0705650D01*
Y0709648D01*
X0925385Y0704650D02*
Y0708649D01*
X0926385D01*
X0927384Y0707649D01*
Y0704650D01*
Y0707649D01*
X0928384Y0708649D01*
X0929384Y0707649D01*
Y0704650D01*
X0931383D02*
X0933382D01*
X0932383D01*
Y0708649D01*
X0931383D01*
X0936381Y0704650D02*
X0938381D01*
X0937381D01*
Y0710648D01*
X0936381D01*
X0902392Y0692650D02*
X0904392D01*
X0903392D01*
Y0698648D01*
X0902392Y0697648D01*
X0907391Y0692650D02*
Y0693650D01*
X0908391D01*
Y0692650D01*
X0907391D01*
X0915388D02*
Y0698648D01*
X0912389Y0695649D01*
X0916388D01*
X0918387Y0697648D02*
X0919387Y0698648D01*
X0921386D01*
X0922386Y0697648D01*
Y0693650D01*
X0921386Y0692650D01*
X0919387D01*
X0918387Y0693650D01*
Y0697648D01*
X0924385Y0692650D02*
Y0696649D01*
X0925385D01*
X0926385Y0695649D01*
Y0692650D01*
Y0695649D01*
X0927384Y0696649D01*
X0928384Y0695649D01*
Y0692650D01*
X0930383D02*
X0932383D01*
X0931383D01*
Y0696649D01*
X0930383D01*
X0935382Y0692650D02*
X0937381D01*
X0936381D01*
Y0698648D01*
X0935382D01*
X0905392Y0680650D02*
Y0686648D01*
X0902392Y0683649D01*
X0906391D01*
X0908391Y0685648D02*
X0909390Y0686648D01*
X0911390D01*
X0912389Y0685648D01*
Y0681650D01*
X0911390Y0680650D01*
X0909390D01*
X0908391Y0681650D01*
Y0685648D01*
X0914389Y0680650D02*
Y0681650D01*
X0915388D01*
Y0680650D01*
X0914389D01*
X0919387Y0685648D02*
X0920387Y0686648D01*
X0922386D01*
X0923386Y0685648D01*
Y0681650D01*
X0922386Y0680650D01*
X0920387D01*
X0919387Y0681650D01*
Y0685648D01*
X0925385D02*
X0926385Y0686648D01*
X0928384D01*
X0929384Y0685648D01*
Y0681650D01*
X0928384Y0680650D01*
X0926385D01*
X0925385Y0681650D01*
Y0685648D01*
X0931383Y0680650D02*
Y0684649D01*
X0932383D01*
X0933382Y0683649D01*
Y0680650D01*
Y0683649D01*
X0934382Y0684649D01*
X0935382Y0683649D01*
Y0680650D01*
X0937381D02*
X0939380D01*
X0938381D01*
Y0684649D01*
X0937381D01*
X0942379Y0680650D02*
X0944379D01*
X0943379D01*
Y0686648D01*
X0942379D01*
X0902392Y0668650D02*
X0904392D01*
X0903392D01*
Y0674648D01*
X0902392Y0673648D01*
X0907391Y0668650D02*
Y0669650D01*
X0908391D01*
Y0668650D01*
X0907391D01*
X0915388D02*
Y0674648D01*
X0912389Y0671649D01*
X0916388D01*
X0918387Y0673648D02*
X0919387Y0674648D01*
X0921386D01*
X0922386Y0673648D01*
Y0669650D01*
X0921386Y0668650D01*
X0919387D01*
X0918387Y0669650D01*
Y0673648D01*
X0924385Y0668650D02*
Y0672649D01*
X0925385D01*
X0926385Y0671649D01*
Y0668650D01*
Y0671649D01*
X0927384Y0672649D01*
X0928384Y0671649D01*
Y0668650D01*
X0930383D02*
X0932383D01*
X0931383D01*
Y0672649D01*
X0930383D01*
X0935382Y0668650D02*
X0937381D01*
X0936381D01*
Y0674648D01*
X0935382D01*
X0902392Y0661648D02*
X0903392Y0662648D01*
X0905392D01*
X0906391Y0661648D01*
Y0660649D01*
X0905392Y0659649D01*
X0906391Y0658649D01*
Y0657650D01*
X0905392Y0656650D01*
X0903392D01*
X0902392Y0657650D01*
Y0658649D01*
X0903392Y0659649D01*
X0902392Y0660649D01*
Y0661648D01*
X0903392Y0659649D02*
X0905392D01*
X0908391Y0656650D02*
Y0657650D01*
X0909390D01*
Y0656650D01*
X0908391D01*
X0916388D02*
Y0662648D01*
X0913389Y0659649D01*
X0917388D01*
X0919387Y0661648D02*
X0920387Y0662648D01*
X0922386D01*
X0923386Y0661648D01*
Y0657650D01*
X0922386Y0656650D01*
X0920387D01*
X0919387Y0657650D01*
Y0661648D01*
X0925385Y0656650D02*
Y0660649D01*
X0926385D01*
X0927384Y0659649D01*
Y0656650D01*
Y0659649D01*
X0928384Y0660649D01*
X0929384Y0659649D01*
Y0656650D01*
X0931383D02*
X0933382D01*
X0932383D01*
Y0660649D01*
X0931383D01*
X0936381Y0656650D02*
X0938381D01*
X0937381D01*
Y0662648D01*
X0936381D01*
X0902392Y0644650D02*
X0904392D01*
X0903392D01*
Y0650648D01*
X0902392Y0649648D01*
X0907391Y0644650D02*
Y0645650D01*
X0908391D01*
Y0644650D01*
X0907391D01*
X0915388D02*
Y0650648D01*
X0912389Y0647649D01*
X0916388D01*
X0918387Y0649648D02*
X0919387Y0650648D01*
X0921386D01*
X0922386Y0649648D01*
Y0645650D01*
X0921386Y0644650D01*
X0919387D01*
X0918387Y0645650D01*
Y0649648D01*
X0924385Y0644650D02*
Y0648649D01*
X0925385D01*
X0926385Y0647649D01*
Y0644650D01*
Y0647649D01*
X0927384Y0648649D01*
X0928384Y0647649D01*
Y0644650D01*
X0930383D02*
X0932383D01*
X0931383D01*
Y0648649D01*
X0930383D01*
X0935382Y0644650D02*
X0937381D01*
X0936381D01*
Y0650648D01*
X0935382D01*
X0902392Y0637648D02*
X0903392Y0638648D01*
X0905392D01*
X0906391Y0637648D01*
Y0633650D01*
X0905392Y0632650D01*
X0903392D01*
X0902392Y0633650D01*
Y0637648D01*
X0908391Y0632650D02*
Y0633650D01*
X0909390D01*
Y0632650D01*
X0908391D01*
X0916388D02*
Y0638648D01*
X0913389Y0635649D01*
X0917388D01*
X0919387Y0637648D02*
X0920387Y0638648D01*
X0922386D01*
X0923386Y0637648D01*
Y0633650D01*
X0922386Y0632650D01*
X0920387D01*
X0919387Y0633650D01*
Y0637648D01*
X0925385Y0632650D02*
Y0636649D01*
X0926385D01*
X0927384Y0635649D01*
Y0632650D01*
Y0635649D01*
X0928384Y0636649D01*
X0929384Y0635649D01*
Y0632650D01*
X0931383D02*
X0933382D01*
X0932383D01*
Y0636649D01*
X0931383D01*
X0936381Y0632650D02*
X0938381D01*
X0937381D01*
Y0638648D01*
X0936381D01*
X0902392Y0758648D02*
X0906391D01*
X0904392D01*
Y0752650D01*
X0908391Y0758648D02*
Y0752650D01*
Y0755649D01*
X0909390Y0756649D01*
X0911390D01*
X0912389Y0755649D01*
Y0752650D01*
X0914389D02*
X0916388D01*
X0915388D01*
Y0756649D01*
X0914389D01*
X0923386D02*
X0920387D01*
X0919387Y0755649D01*
Y0753650D01*
X0920387Y0752650D01*
X0923386D01*
X0925385D02*
Y0758648D01*
Y0754649D02*
X0928384Y0756649D01*
X0925385Y0754649D02*
X0928384Y0752650D01*
X0931383D02*
Y0756649D01*
X0934382D01*
X0935382Y0755649D01*
Y0752650D01*
X0940380D02*
X0938381D01*
X0937381Y0753650D01*
Y0755649D01*
X0938381Y0756649D01*
X0940380D01*
X0941380Y0755649D01*
Y0754649D01*
X0937381D01*
X0943379Y0752650D02*
X0946378D01*
X0947378Y0753650D01*
X0946378Y0754649D01*
X0944379D01*
X0943379Y0755649D01*
X0944379Y0756649D01*
X0947378D01*
X0949377Y0752650D02*
X0952376D01*
X0953376Y0753650D01*
X0952376Y0754649D01*
X0950377D01*
X0949377Y0755649D01*
X0950377Y0756649D01*
X0953376D01*
X0820414Y0733648D02*
X0819415Y0734648D01*
X0817415D01*
X0816416Y0733648D01*
Y0732649D01*
X0817415Y0731649D01*
X0819415D01*
X0820414Y0730649D01*
Y0729650D01*
X0819415Y0728650D01*
X0817415D01*
X0816416Y0729650D01*
X0823413Y0728650D02*
X0825413D01*
X0826412Y0729650D01*
Y0731649D01*
X0825413Y0732649D01*
X0823413D01*
X0822414Y0731649D01*
Y0729650D01*
X0823413Y0728650D01*
X0828412D02*
X0830411D01*
X0829412D01*
Y0734648D01*
X0828412D01*
X0837409D02*
Y0728650D01*
X0834410D01*
X0833410Y0729650D01*
Y0731649D01*
X0834410Y0732649D01*
X0837409D01*
X0842407Y0728650D02*
X0840408D01*
X0839408Y0729650D01*
Y0731649D01*
X0840408Y0732649D01*
X0842407D01*
X0843407Y0731649D01*
Y0730649D01*
X0839408D01*
X0845406Y0732649D02*
Y0728650D01*
Y0730649D01*
X0846406Y0731649D01*
X0847406Y0732649D01*
X0848405D01*
X0857403Y0728650D02*
Y0734648D01*
X0860402D01*
X0861401Y0733648D01*
Y0731649D01*
X0860402Y0730649D01*
X0857403D01*
X0859402D02*
X0861401Y0728650D01*
X0866400D02*
X0864400D01*
X0863400Y0729650D01*
Y0731649D01*
X0864400Y0732649D01*
X0866400D01*
X0867399Y0731649D01*
Y0730649D01*
X0863400D01*
X0869399Y0728650D02*
X0872398D01*
X0873397Y0729650D01*
X0872398Y0730649D01*
X0870398D01*
X0869399Y0731649D01*
X0870398Y0732649D01*
X0873397D01*
X0875397Y0728650D02*
X0877396D01*
X0876396D01*
Y0732649D01*
X0875397D01*
X0880395Y0728650D02*
X0883394D01*
X0884394Y0729650D01*
X0883394Y0730649D01*
X0881395D01*
X0880395Y0731649D01*
X0881395Y0732649D01*
X0884394D01*
X0887393Y0733648D02*
Y0732649D01*
X0886393D01*
X0888392D01*
X0887393D01*
Y0729650D01*
X0888392Y0728650D01*
X0820414Y0721648D02*
X0819415Y0722648D01*
X0817415D01*
X0816416Y0721648D01*
Y0717650D01*
X0817415Y0716650D01*
X0819415D01*
X0820414Y0717650D01*
X0823413Y0716650D02*
X0825413D01*
X0826412Y0717650D01*
Y0719649D01*
X0825413Y0720649D01*
X0823413D01*
X0822414Y0719649D01*
Y0717650D01*
X0823413Y0716650D01*
X0828412Y0714651D02*
Y0720649D01*
X0831411D01*
X0832411Y0719649D01*
Y0717650D01*
X0831411Y0716650D01*
X0828412D01*
X0834410Y0714651D02*
Y0720649D01*
X0837409D01*
X0838409Y0719649D01*
Y0717650D01*
X0837409Y0716650D01*
X0834410D01*
X0843407D02*
X0841408D01*
X0840408Y0717650D01*
Y0719649D01*
X0841408Y0720649D01*
X0843407D01*
X0844407Y0719649D01*
Y0718649D01*
X0840408D01*
X0846406Y0720649D02*
Y0716650D01*
Y0718649D01*
X0847406Y0719649D01*
X0848405Y0720649D01*
X0849405D01*
X0820414Y0710648D02*
X0816416D01*
Y0707649D01*
X0818415D01*
X0816416D01*
Y0704650D01*
X0822414D02*
Y0710648D01*
X0825413D01*
X0826412Y0709648D01*
Y0707649D01*
X0825413Y0706649D01*
X0822414D01*
X0824413D02*
X0826412Y0704650D01*
X0828412Y0707649D02*
X0832411D01*
X0837409Y0704650D02*
Y0710648D01*
X0834410Y0707649D01*
X0838409D01*
X0820414Y0697648D02*
X0819415Y0698648D01*
X0817415D01*
X0816416Y0697648D01*
Y0693650D01*
X0817415Y0692650D01*
X0819415D01*
X0820414Y0693650D01*
X0823413Y0692650D02*
X0825413D01*
X0826412Y0693650D01*
Y0695649D01*
X0825413Y0696649D01*
X0823413D01*
X0822414Y0695649D01*
Y0693650D01*
X0823413Y0692650D01*
X0828412Y0690651D02*
Y0696649D01*
X0831411D01*
X0832411Y0695649D01*
Y0693650D01*
X0831411Y0692650D01*
X0828412D01*
X0834410Y0690651D02*
Y0696649D01*
X0837409D01*
X0838409Y0695649D01*
Y0693650D01*
X0837409Y0692650D01*
X0834410D01*
X0843407D02*
X0841408D01*
X0840408Y0693650D01*
Y0695649D01*
X0841408Y0696649D01*
X0843407D01*
X0844407Y0695649D01*
Y0694649D01*
X0840408D01*
X0846406Y0696649D02*
Y0692650D01*
Y0694649D01*
X0847406Y0695649D01*
X0848405Y0696649D01*
X0849405D01*
X0820414Y0686648D02*
X0816416D01*
Y0683649D01*
X0818415D01*
X0816416D01*
Y0680650D01*
X0822414D02*
Y0686648D01*
X0825413D01*
X0826412Y0685648D01*
Y0683649D01*
X0825413Y0682649D01*
X0822414D01*
X0824413D02*
X0826412Y0680650D01*
X0828412Y0683649D02*
X0832411D01*
X0837409Y0680650D02*
Y0686648D01*
X0834410Y0683649D01*
X0838409D01*
X0820414Y0673648D02*
X0819415Y0674648D01*
X0817415D01*
X0816416Y0673648D01*
Y0669650D01*
X0817415Y0668650D01*
X0819415D01*
X0820414Y0669650D01*
X0823413Y0668650D02*
X0825413D01*
X0826412Y0669650D01*
Y0671649D01*
X0825413Y0672649D01*
X0823413D01*
X0822414Y0671649D01*
Y0669650D01*
X0823413Y0668650D01*
X0828412Y0666651D02*
Y0672649D01*
X0831411D01*
X0832411Y0671649D01*
Y0669650D01*
X0831411Y0668650D01*
X0828412D01*
X0834410Y0666651D02*
Y0672649D01*
X0837409D01*
X0838409Y0671649D01*
Y0669650D01*
X0837409Y0668650D01*
X0834410D01*
X0843407D02*
X0841408D01*
X0840408Y0669650D01*
Y0671649D01*
X0841408Y0672649D01*
X0843407D01*
X0844407Y0671649D01*
Y0670649D01*
X0840408D01*
X0846406Y0672649D02*
Y0668650D01*
Y0670649D01*
X0847406Y0671649D01*
X0848405Y0672649D01*
X0849405D01*
X0820414Y0662648D02*
X0816416D01*
Y0659649D01*
X0818415D01*
X0816416D01*
Y0656650D01*
X0822414D02*
Y0662648D01*
X0825413D01*
X0826412Y0661648D01*
Y0659649D01*
X0825413Y0658649D01*
X0822414D01*
X0824413D02*
X0826412Y0656650D01*
X0828412Y0659649D02*
X0832411D01*
X0837409Y0656650D02*
Y0662648D01*
X0834410Y0659649D01*
X0838409D01*
X0820414Y0649648D02*
X0819415Y0650648D01*
X0817415D01*
X0816416Y0649648D01*
Y0645650D01*
X0817415Y0644650D01*
X0819415D01*
X0820414Y0645650D01*
X0823413Y0644650D02*
X0825413D01*
X0826412Y0645650D01*
Y0647649D01*
X0825413Y0648649D01*
X0823413D01*
X0822414Y0647649D01*
Y0645650D01*
X0823413Y0644650D01*
X0828412Y0642651D02*
Y0648649D01*
X0831411D01*
X0832411Y0647649D01*
Y0645650D01*
X0831411Y0644650D01*
X0828412D01*
X0834410Y0642651D02*
Y0648649D01*
X0837409D01*
X0838409Y0647649D01*
Y0645650D01*
X0837409Y0644650D01*
X0834410D01*
X0843407D02*
X0841408D01*
X0840408Y0645650D01*
Y0647649D01*
X0841408Y0648649D01*
X0843407D01*
X0844407Y0647649D01*
Y0646649D01*
X0840408D01*
X0846406Y0648649D02*
Y0644650D01*
Y0646649D01*
X0847406Y0647649D01*
X0848405Y0648649D01*
X0849405D01*
X0820414Y0637648D02*
X0819415Y0638648D01*
X0817415D01*
X0816416Y0637648D01*
Y0636649D01*
X0817415Y0635649D01*
X0819415D01*
X0820414Y0634649D01*
Y0633650D01*
X0819415Y0632650D01*
X0817415D01*
X0816416Y0633650D01*
X0823413Y0632650D02*
X0825413D01*
X0826412Y0633650D01*
Y0635649D01*
X0825413Y0636649D01*
X0823413D01*
X0822414Y0635649D01*
Y0633650D01*
X0823413Y0632650D01*
X0828412D02*
X0830411D01*
X0829412D01*
Y0638648D01*
X0828412D01*
X0837409D02*
Y0632650D01*
X0834410D01*
X0833410Y0633650D01*
Y0635649D01*
X0834410Y0636649D01*
X0837409D01*
X0842407Y0632650D02*
X0840408D01*
X0839408Y0633650D01*
Y0635649D01*
X0840408Y0636649D01*
X0842407D01*
X0843407Y0635649D01*
Y0634649D01*
X0839408D01*
X0845406Y0636649D02*
Y0632650D01*
Y0634649D01*
X0846406Y0635649D01*
X0847406Y0636649D01*
X0848405D01*
X0857403Y0632650D02*
Y0638648D01*
X0860402D01*
X0861401Y0637648D01*
Y0635649D01*
X0860402Y0634649D01*
X0857403D01*
X0859402D02*
X0861401Y0632650D01*
X0866400D02*
X0864400D01*
X0863400Y0633650D01*
Y0635649D01*
X0864400Y0636649D01*
X0866400D01*
X0867399Y0635649D01*
Y0634649D01*
X0863400D01*
X0869399Y0632650D02*
X0872398D01*
X0873397Y0633650D01*
X0872398Y0634649D01*
X0870398D01*
X0869399Y0635649D01*
X0870398Y0636649D01*
X0873397D01*
X0875397Y0632650D02*
X0877396D01*
X0876396D01*
Y0636649D01*
X0875397D01*
X0880395Y0632650D02*
X0883394D01*
X0884394Y0633650D01*
X0883394Y0634649D01*
X0881395D01*
X0880395Y0635649D01*
X0881395Y0636649D01*
X0884394D01*
X0887393Y0637648D02*
Y0636649D01*
X0886393D01*
X0888392D01*
X0887393D01*
Y0633650D01*
X0888392Y0632650D01*
X0816416Y0752650D02*
Y0758648D01*
X0818415Y0756649D01*
X0820414Y0758648D01*
Y0752650D01*
X0823413Y0756649D02*
X0825413D01*
X0826412Y0755649D01*
Y0752650D01*
X0823413D01*
X0822414Y0753650D01*
X0823413Y0754649D01*
X0826412D01*
X0829412Y0757648D02*
Y0756649D01*
X0828412D01*
X0830411D01*
X0829412D01*
Y0753650D01*
X0830411Y0752650D01*
X0836409D02*
X0834410D01*
X0833410Y0753650D01*
Y0755649D01*
X0834410Y0756649D01*
X0836409D01*
X0837409Y0755649D01*
Y0754649D01*
X0833410D01*
X0839408Y0756649D02*
Y0752650D01*
Y0754649D01*
X0840408Y0755649D01*
X0841408Y0756649D01*
X0842407D01*
X0845406Y0752650D02*
X0847406D01*
X0846406D01*
Y0756649D01*
X0845406D01*
X0851404D02*
X0853404D01*
X0854403Y0755649D01*
Y0752650D01*
X0851404D01*
X0850405Y0753650D01*
X0851404Y0754649D01*
X0854403D01*
X0856403Y0752650D02*
X0858402D01*
X0857403D01*
Y0758648D01*
X0856403D01*
X0723441Y0746648D02*
X0727440D01*
X0725441D01*
Y0740650D01*
X0730439D02*
X0732438D01*
X0733438Y0741650D01*
Y0743649D01*
X0732438Y0744649D01*
X0730439D01*
X0729439Y0743649D01*
Y0741650D01*
X0730439Y0740650D01*
X0735437Y0738651D02*
Y0744649D01*
X0738436D01*
X0739436Y0743649D01*
Y0741650D01*
X0738436Y0740650D01*
X0735437D01*
X0750432Y0746648D02*
X0748433D01*
X0747434Y0745648D01*
Y0741650D01*
X0748433Y0740650D01*
X0750432D01*
X0751432Y0741650D01*
Y0745648D01*
X0750432Y0746648D01*
X0753432Y0744649D02*
X0755431Y0740650D01*
X0757430Y0744649D01*
X0762429Y0740650D02*
X0760429D01*
X0759430Y0741650D01*
Y0743649D01*
X0760429Y0744649D01*
X0762429D01*
X0763428Y0743649D01*
Y0742649D01*
X0759430D01*
X0765428Y0744649D02*
Y0740650D01*
Y0742649D01*
X0766427Y0743649D01*
X0767427Y0744649D01*
X0768427D01*
X0771426Y0740650D02*
X0773425D01*
X0772425D01*
Y0746648D01*
X0771426D01*
X0777424Y0744649D02*
X0779423D01*
X0780423Y0743649D01*
Y0740650D01*
X0777424D01*
X0776424Y0741650D01*
X0777424Y0742649D01*
X0780423D01*
X0782422Y0744649D02*
Y0741650D01*
X0783422Y0740650D01*
X0786421D01*
Y0739650D01*
X0785421Y0738651D01*
X0784421D01*
X0786421Y0740650D02*
Y0744649D01*
X0723441Y0734648D02*
X0727440D01*
X0725441D01*
Y0728650D01*
X0730439D02*
X0732438D01*
X0733438Y0729650D01*
Y0731649D01*
X0732438Y0732649D01*
X0730439D01*
X0729439Y0731649D01*
Y0729650D01*
X0730439Y0728650D01*
X0735437Y0726651D02*
Y0732649D01*
X0738436D01*
X0739436Y0731649D01*
Y0729650D01*
X0738436Y0728650D01*
X0735437D01*
X0751432Y0733648D02*
X0750432Y0734648D01*
X0748433D01*
X0747434Y0733648D01*
Y0732649D01*
X0748433Y0731649D01*
X0750432D01*
X0751432Y0730649D01*
Y0729650D01*
X0750432Y0728650D01*
X0748433D01*
X0747434Y0729650D01*
X0754431Y0728650D02*
X0756431D01*
X0757430Y0729650D01*
Y0731649D01*
X0756431Y0732649D01*
X0754431D01*
X0753432Y0731649D01*
Y0729650D01*
X0754431Y0728650D01*
X0759430D02*
X0761429D01*
X0760429D01*
Y0734648D01*
X0759430D01*
X0768427D02*
Y0728650D01*
X0765428D01*
X0764428Y0729650D01*
Y0731649D01*
X0765428Y0732649D01*
X0768427D01*
X0773425Y0728650D02*
X0771426D01*
X0770426Y0729650D01*
Y0731649D01*
X0771426Y0732649D01*
X0773425D01*
X0774425Y0731649D01*
Y0730649D01*
X0770426D01*
X0776424Y0732649D02*
Y0728650D01*
Y0730649D01*
X0777424Y0731649D01*
X0778424Y0732649D01*
X0779423D01*
X0723441Y0722648D02*
X0727440D01*
X0725441D01*
Y0716650D01*
X0730439D02*
X0732438D01*
X0733438Y0717650D01*
Y0719649D01*
X0732438Y0720649D01*
X0730439D01*
X0729439Y0719649D01*
Y0717650D01*
X0730439Y0716650D01*
X0735437Y0714651D02*
Y0720649D01*
X0738436D01*
X0739436Y0719649D01*
Y0717650D01*
X0738436Y0716650D01*
X0735437D01*
X0747434Y0722648D02*
Y0716650D01*
X0751432D01*
X0754431Y0720649D02*
X0756431D01*
X0757430Y0719649D01*
Y0716650D01*
X0754431D01*
X0753432Y0717650D01*
X0754431Y0718649D01*
X0757430D01*
X0759430Y0720649D02*
Y0717650D01*
X0760429Y0716650D01*
X0763428D01*
Y0715650D01*
X0762429Y0714651D01*
X0761429D01*
X0763428Y0716650D02*
Y0720649D01*
X0768427Y0716650D02*
X0766427D01*
X0765428Y0717650D01*
Y0719649D01*
X0766427Y0720649D01*
X0768427D01*
X0769426Y0719649D01*
Y0718649D01*
X0765428D01*
X0771426Y0720649D02*
Y0716650D01*
Y0718649D01*
X0772425Y0719649D01*
X0773425Y0720649D01*
X0774425D01*
X0723441Y0710648D02*
Y0704650D01*
X0726440D01*
X0727440Y0705650D01*
Y0709648D01*
X0726440Y0710648D01*
X0723441D01*
X0729439Y0704650D02*
X0731439D01*
X0730439D01*
Y0708649D01*
X0729439D01*
X0737437Y0704650D02*
X0735437D01*
X0734438Y0705650D01*
Y0707649D01*
X0735437Y0708649D01*
X0737437D01*
X0738436Y0707649D01*
Y0706649D01*
X0734438D01*
X0740436Y0704650D02*
X0742435D01*
X0741435D01*
Y0710648D01*
X0740436D01*
X0748433Y0704650D02*
X0746434D01*
X0745434Y0705650D01*
Y0707649D01*
X0746434Y0708649D01*
X0748433D01*
X0749433Y0707649D01*
Y0706649D01*
X0745434D01*
X0755431Y0708649D02*
X0752432D01*
X0751432Y0707649D01*
Y0705650D01*
X0752432Y0704650D01*
X0755431D01*
X0758430Y0709648D02*
Y0708649D01*
X0757430D01*
X0759430D01*
X0758430D01*
Y0705650D01*
X0759430Y0704650D01*
X0762429Y0708649D02*
Y0704650D01*
Y0706649D01*
X0763428Y0707649D01*
X0764428Y0708649D01*
X0765428D01*
X0768427Y0704650D02*
X0770426D01*
X0769426D01*
Y0708649D01*
X0768427D01*
X0777424D02*
X0774425D01*
X0773425Y0707649D01*
Y0705650D01*
X0774425Y0704650D01*
X0777424D01*
X0789420D02*
X0785421D01*
X0789420Y0708649D01*
Y0709648D01*
X0788420Y0710648D01*
X0786421D01*
X0785421Y0709648D01*
X0723441Y0698648D02*
Y0694649D01*
X0725441Y0692650D01*
X0727440Y0694649D01*
Y0698648D01*
X0733438Y0697648D02*
X0732438Y0698648D01*
X0730439D01*
X0729439Y0697648D01*
Y0693650D01*
X0730439Y0692650D01*
X0732438D01*
X0733438Y0693650D01*
X0739436Y0697648D02*
X0738436Y0698648D01*
X0736437D01*
X0735437Y0697648D01*
Y0693650D01*
X0736437Y0692650D01*
X0738436D01*
X0739436Y0693650D01*
X0747434Y0698648D02*
Y0692650D01*
X0751432D01*
X0754431Y0696649D02*
X0756431D01*
X0757430Y0695649D01*
Y0692650D01*
X0754431D01*
X0753432Y0693650D01*
X0754431Y0694649D01*
X0757430D01*
X0759430Y0696649D02*
Y0693650D01*
X0760429Y0692650D01*
X0763428D01*
Y0691650D01*
X0762429Y0690651D01*
X0761429D01*
X0763428Y0692650D02*
Y0696649D01*
X0768427Y0692650D02*
X0766427D01*
X0765428Y0693650D01*
Y0695649D01*
X0766427Y0696649D01*
X0768427D01*
X0769426Y0695649D01*
Y0694649D01*
X0765428D01*
X0771426Y0696649D02*
Y0692650D01*
Y0694649D01*
X0772425Y0695649D01*
X0773425Y0696649D01*
X0774425D01*
X0723441Y0686648D02*
Y0680650D01*
X0726440D01*
X0727440Y0681650D01*
Y0685648D01*
X0726440Y0686648D01*
X0723441D01*
X0729439Y0680650D02*
X0731439D01*
X0730439D01*
Y0684649D01*
X0729439D01*
X0737437Y0680650D02*
X0735437D01*
X0734438Y0681650D01*
Y0683649D01*
X0735437Y0684649D01*
X0737437D01*
X0738436Y0683649D01*
Y0682649D01*
X0734438D01*
X0740436Y0680650D02*
X0742435D01*
X0741435D01*
Y0686648D01*
X0740436D01*
X0748433Y0680650D02*
X0746434D01*
X0745434Y0681650D01*
Y0683649D01*
X0746434Y0684649D01*
X0748433D01*
X0749433Y0683649D01*
Y0682649D01*
X0745434D01*
X0755431Y0684649D02*
X0752432D01*
X0751432Y0683649D01*
Y0681650D01*
X0752432Y0680650D01*
X0755431D01*
X0758430Y0685648D02*
Y0684649D01*
X0757430D01*
X0759430D01*
X0758430D01*
Y0681650D01*
X0759430Y0680650D01*
X0762429Y0684649D02*
Y0680650D01*
Y0682649D01*
X0763428Y0683649D01*
X0764428Y0684649D01*
X0765428D01*
X0768427Y0680650D02*
X0770426D01*
X0769426D01*
Y0684649D01*
X0768427D01*
X0777424D02*
X0774425D01*
X0773425Y0683649D01*
Y0681650D01*
X0774425Y0680650D01*
X0777424D01*
X0779423D02*
X0781423D01*
X0780423D01*
Y0686648D01*
X0779423Y0685648D01*
X0727440Y0673648D02*
X0726440Y0674648D01*
X0724441D01*
X0723441Y0673648D01*
Y0669650D01*
X0724441Y0668650D01*
X0726440D01*
X0727440Y0669650D01*
Y0671649D01*
X0725441D01*
X0729439Y0668650D02*
Y0674648D01*
X0733438Y0668650D01*
Y0674648D01*
X0735437D02*
Y0668650D01*
X0738436D01*
X0739436Y0669650D01*
Y0673648D01*
X0738436Y0674648D01*
X0735437D01*
X0747434D02*
Y0668650D01*
X0751432D01*
X0754431Y0672649D02*
X0756431D01*
X0757430Y0671649D01*
Y0668650D01*
X0754431D01*
X0753432Y0669650D01*
X0754431Y0670649D01*
X0757430D01*
X0759430Y0672649D02*
Y0669650D01*
X0760429Y0668650D01*
X0763428D01*
Y0667650D01*
X0762429Y0666651D01*
X0761429D01*
X0763428Y0668650D02*
Y0672649D01*
X0768427Y0668650D02*
X0766427D01*
X0765428Y0669650D01*
Y0671649D01*
X0766427Y0672649D01*
X0768427D01*
X0769426Y0671649D01*
Y0670649D01*
X0765428D01*
X0771426Y0672649D02*
Y0668650D01*
Y0670649D01*
X0772425Y0671649D01*
X0773425Y0672649D01*
X0774425D01*
X0723441Y0662648D02*
Y0656650D01*
X0726440D01*
X0727440Y0657650D01*
Y0661648D01*
X0726440Y0662648D01*
X0723441D01*
X0729439Y0656650D02*
X0731439D01*
X0730439D01*
Y0660649D01*
X0729439D01*
X0737437Y0656650D02*
X0735437D01*
X0734438Y0657650D01*
Y0659649D01*
X0735437Y0660649D01*
X0737437D01*
X0738436Y0659649D01*
Y0658649D01*
X0734438D01*
X0740436Y0656650D02*
X0742435D01*
X0741435D01*
Y0662648D01*
X0740436D01*
X0748433Y0656650D02*
X0746434D01*
X0745434Y0657650D01*
Y0659649D01*
X0746434Y0660649D01*
X0748433D01*
X0749433Y0659649D01*
Y0658649D01*
X0745434D01*
X0755431Y0660649D02*
X0752432D01*
X0751432Y0659649D01*
Y0657650D01*
X0752432Y0656650D01*
X0755431D01*
X0758430Y0661648D02*
Y0660649D01*
X0757430D01*
X0759430D01*
X0758430D01*
Y0657650D01*
X0759430Y0656650D01*
X0762429Y0660649D02*
Y0656650D01*
Y0658649D01*
X0763428Y0659649D01*
X0764428Y0660649D01*
X0765428D01*
X0768427Y0656650D02*
X0770426D01*
X0769426D01*
Y0660649D01*
X0768427D01*
X0777424D02*
X0774425D01*
X0773425Y0659649D01*
Y0657650D01*
X0774425Y0656650D01*
X0777424D01*
X0785421Y0661648D02*
X0786421Y0662648D01*
X0788420D01*
X0789420Y0661648D01*
Y0660649D01*
X0788420Y0659649D01*
X0787421D01*
X0788420D01*
X0789420Y0658649D01*
Y0657650D01*
X0788420Y0656650D01*
X0786421D01*
X0785421Y0657650D01*
X0723441Y0650648D02*
Y0644650D01*
X0726440D01*
X0727440Y0645650D01*
Y0646649D01*
X0726440Y0647649D01*
X0723441D01*
X0726440D01*
X0727440Y0648649D01*
Y0649648D01*
X0726440Y0650648D01*
X0723441D01*
X0730439Y0644650D02*
X0732438D01*
X0733438Y0645650D01*
Y0647649D01*
X0732438Y0648649D01*
X0730439D01*
X0729439Y0647649D01*
Y0645650D01*
X0730439Y0644650D01*
X0736437Y0649648D02*
Y0648649D01*
X0735437D01*
X0737437D01*
X0736437D01*
Y0645650D01*
X0737437Y0644650D01*
X0741435Y0649648D02*
Y0648649D01*
X0740436D01*
X0742435D01*
X0741435D01*
Y0645650D01*
X0742435Y0644650D01*
X0746434D02*
X0748433D01*
X0749433Y0645650D01*
Y0647649D01*
X0748433Y0648649D01*
X0746434D01*
X0745434Y0647649D01*
Y0645650D01*
X0746434Y0644650D01*
X0751432D02*
Y0648649D01*
X0752432D01*
X0753432Y0647649D01*
Y0644650D01*
Y0647649D01*
X0754431Y0648649D01*
X0755431Y0647649D01*
Y0644650D01*
X0763428Y0650648D02*
Y0644650D01*
X0767427D01*
X0770426Y0648649D02*
X0772425D01*
X0773425Y0647649D01*
Y0644650D01*
X0770426D01*
X0769426Y0645650D01*
X0770426Y0646649D01*
X0773425D01*
X0775424Y0648649D02*
Y0645650D01*
X0776424Y0644650D01*
X0779423D01*
Y0643650D01*
X0778424Y0642651D01*
X0777424D01*
X0779423Y0644650D02*
Y0648649D01*
X0784421Y0644650D02*
X0782422D01*
X0781423Y0645650D01*
Y0647649D01*
X0782422Y0648649D01*
X0784421D01*
X0785421Y0647649D01*
Y0646649D01*
X0781423D01*
X0787421Y0648649D02*
Y0644650D01*
Y0646649D01*
X0788420Y0647649D01*
X0789420Y0648649D01*
X0790420D01*
X0723441Y0638648D02*
Y0632650D01*
X0726440D01*
X0727440Y0633650D01*
Y0634649D01*
X0726440Y0635649D01*
X0723441D01*
X0726440D01*
X0727440Y0636649D01*
Y0637648D01*
X0726440Y0638648D01*
X0723441D01*
X0730439Y0632650D02*
X0732438D01*
X0733438Y0633650D01*
Y0635649D01*
X0732438Y0636649D01*
X0730439D01*
X0729439Y0635649D01*
Y0633650D01*
X0730439Y0632650D01*
X0736437Y0637648D02*
Y0636649D01*
X0735437D01*
X0737437D01*
X0736437D01*
Y0633650D01*
X0737437Y0632650D01*
X0741435Y0637648D02*
Y0636649D01*
X0740436D01*
X0742435D01*
X0741435D01*
Y0633650D01*
X0742435Y0632650D01*
X0746434D02*
X0748433D01*
X0749433Y0633650D01*
Y0635649D01*
X0748433Y0636649D01*
X0746434D01*
X0745434Y0635649D01*
Y0633650D01*
X0746434Y0632650D01*
X0751432D02*
Y0636649D01*
X0752432D01*
X0753432Y0635649D01*
Y0632650D01*
Y0635649D01*
X0754431Y0636649D01*
X0755431Y0635649D01*
Y0632650D01*
X0767427Y0637648D02*
X0766427Y0638648D01*
X0764428D01*
X0763428Y0637648D01*
Y0636649D01*
X0764428Y0635649D01*
X0766427D01*
X0767427Y0634649D01*
Y0633650D01*
X0766427Y0632650D01*
X0764428D01*
X0763428Y0633650D01*
X0770426Y0632650D02*
X0772425D01*
X0773425Y0633650D01*
Y0635649D01*
X0772425Y0636649D01*
X0770426D01*
X0769426Y0635649D01*
Y0633650D01*
X0770426Y0632650D01*
X0775424D02*
X0777424D01*
X0776424D01*
Y0638648D01*
X0775424D01*
X0784421D02*
Y0632650D01*
X0781423D01*
X0780423Y0633650D01*
Y0635649D01*
X0781423Y0636649D01*
X0784421D01*
X0789420Y0632650D02*
X0787421D01*
X0786421Y0633650D01*
Y0635649D01*
X0787421Y0636649D01*
X0789420D01*
X0790420Y0635649D01*
Y0634649D01*
X0786421D01*
X0792419Y0636649D02*
Y0632650D01*
Y0634649D01*
X0793419Y0635649D01*
X0794418Y0636649D01*
X0795418D01*
X0723441Y0626648D02*
Y0620650D01*
X0726440D01*
X0727440Y0621650D01*
Y0622649D01*
X0726440Y0623649D01*
X0723441D01*
X0726440D01*
X0727440Y0624649D01*
Y0625648D01*
X0726440Y0626648D01*
X0723441D01*
X0730439Y0620650D02*
X0732438D01*
X0733438Y0621650D01*
Y0623649D01*
X0732438Y0624649D01*
X0730439D01*
X0729439Y0623649D01*
Y0621650D01*
X0730439Y0620650D01*
X0736437Y0625648D02*
Y0624649D01*
X0735437D01*
X0737437D01*
X0736437D01*
Y0621650D01*
X0737437Y0620650D01*
X0741435Y0625648D02*
Y0624649D01*
X0740436D01*
X0742435D01*
X0741435D01*
Y0621650D01*
X0742435Y0620650D01*
X0746434D02*
X0748433D01*
X0749433Y0621650D01*
Y0623649D01*
X0748433Y0624649D01*
X0746434D01*
X0745434Y0623649D01*
Y0621650D01*
X0746434Y0620650D01*
X0751432D02*
Y0624649D01*
X0752432D01*
X0753432Y0623649D01*
Y0620650D01*
Y0623649D01*
X0754431Y0624649D01*
X0755431Y0623649D01*
Y0620650D01*
X0766427Y0626648D02*
X0764428D01*
X0763428Y0625648D01*
Y0621650D01*
X0764428Y0620650D01*
X0766427D01*
X0767427Y0621650D01*
Y0625648D01*
X0766427Y0626648D01*
X0769426Y0624649D02*
X0771426Y0620650D01*
X0773425Y0624649D01*
X0778424Y0620650D02*
X0776424D01*
X0775424Y0621650D01*
Y0623649D01*
X0776424Y0624649D01*
X0778424D01*
X0779423Y0623649D01*
Y0622649D01*
X0775424D01*
X0781423Y0624649D02*
Y0620650D01*
Y0622649D01*
X0782422Y0623649D01*
X0783422Y0624649D01*
X0784421D01*
X0787421Y0620650D02*
X0789420D01*
X0788420D01*
Y0626648D01*
X0787421D01*
X0793419Y0624649D02*
X0795418D01*
X0796418Y0623649D01*
Y0620650D01*
X0793419D01*
X0792419Y0621650D01*
X0793419Y0622649D01*
X0796418D01*
X0798417Y0624649D02*
Y0621650D01*
X0799417Y0620650D01*
X0802416D01*
Y0619650D01*
X0801416Y0618651D01*
X0800416D01*
X0802416Y0620650D02*
Y0624649D01*
X0723441Y0752650D02*
Y0758648D01*
X0727440Y0752650D01*
Y0758648D01*
X0730439Y0756649D02*
X0732438D01*
X0733438Y0755649D01*
Y0752650D01*
X0730439D01*
X0729439Y0753650D01*
X0730439Y0754649D01*
X0733438D01*
X0735437Y0752650D02*
Y0756649D01*
X0736437D01*
X0737437Y0755649D01*
Y0752650D01*
Y0755649D01*
X0738436Y0756649D01*
X0739436Y0755649D01*
Y0752650D01*
X0744434D02*
X0742435D01*
X0741435Y0753650D01*
Y0755649D01*
X0742435Y0756649D01*
X0744434D01*
X0745434Y0755649D01*
Y0754649D01*
X0741435D01*
X0682450Y0740650D02*
X0684449D01*
X0683450D01*
Y0746648D01*
X0682450Y0745648D01*
X0686449Y0728650D02*
X0682450D01*
X0686449Y0732649D01*
Y0733648D01*
X0685449Y0734648D01*
X0683450D01*
X0682450Y0733648D01*
Y0721648D02*
X0683450Y0722648D01*
X0685449D01*
X0686449Y0721648D01*
Y0720649D01*
X0685449Y0719649D01*
X0684449D01*
X0685449D01*
X0686449Y0718649D01*
Y0717650D01*
X0685449Y0716650D01*
X0683450D01*
X0682450Y0717650D01*
X0685449Y0704650D02*
Y0710648D01*
X0682450Y0707649D01*
X0686449D01*
Y0698648D02*
X0682450D01*
Y0695649D01*
X0684449Y0696649D01*
X0685449D01*
X0686449Y0695649D01*
Y0693650D01*
X0685449Y0692650D01*
X0683450D01*
X0682450Y0693650D01*
X0686449Y0686648D02*
X0684449Y0685648D01*
X0682450Y0683649D01*
Y0681650D01*
X0683450Y0680650D01*
X0685449D01*
X0686449Y0681650D01*
Y0682649D01*
X0685449Y0683649D01*
X0682450D01*
Y0674648D02*
X0686449D01*
Y0673648D01*
X0682450Y0669650D01*
Y0668650D01*
Y0661648D02*
X0683450Y0662648D01*
X0685449D01*
X0686449Y0661648D01*
Y0660649D01*
X0685449Y0659649D01*
X0686449Y0658649D01*
Y0657650D01*
X0685449Y0656650D01*
X0683450D01*
X0682450Y0657650D01*
Y0658649D01*
X0683450Y0659649D01*
X0682450Y0660649D01*
Y0661648D01*
X0683450Y0659649D02*
X0685449D01*
X0682450Y0645650D02*
X0683450Y0644650D01*
X0685449D01*
X0686449Y0645650D01*
Y0649648D01*
X0685449Y0650648D01*
X0683450D01*
X0682450Y0649648D01*
Y0648649D01*
X0683450Y0647649D01*
X0686449D01*
X0682450Y0632650D02*
X0684449D01*
X0683450D01*
Y0638648D01*
X0682450Y0637648D01*
X0687448D02*
X0688448Y0638648D01*
X0690447D01*
X0691447Y0637648D01*
Y0633650D01*
X0690447Y0632650D01*
X0688448D01*
X0687448Y0633650D01*
Y0637648D01*
X0682450Y0620650D02*
X0684449D01*
X0683450D01*
Y0626648D01*
X0682450Y0625648D01*
X0687448Y0620650D02*
X0689448D01*
X0688448D01*
Y0626648D01*
X0687448Y0625648D01*
X0682450Y0758648D02*
Y0752650D01*
X0686449D01*
X0689448Y0756649D02*
X0691447D01*
X0692447Y0755649D01*
Y0752650D01*
X0689448D01*
X0688448Y0753650D01*
X0689448Y0754649D01*
X0692447D01*
X0694446Y0756649D02*
Y0753650D01*
X0695446Y0752650D01*
X0698445D01*
Y0751650D01*
X0697445Y0750651D01*
X0696446D01*
X0698445Y0752650D02*
Y0756649D01*
X0703443Y0752650D02*
X0701444D01*
X0700444Y0753650D01*
Y0755649D01*
X0701444Y0756649D01*
X0703443D01*
X0704443Y0755649D01*
Y0754649D01*
X0700444D01*
X0706442Y0756649D02*
Y0752650D01*
Y0754649D01*
X0707442Y0755649D01*
X0708442Y0756649D01*
X0709441D01*
X0559400Y0039400D02*
Y0059683D01*
X0440500Y0040050D02*
X0700200D01*
Y0101050D01*
X0286500Y0040050D02*
Y0101050D01*
X0040000Y0040050D02*
Y0101050D01*
X0040050Y0040050D02*
X0197600D01*
X0040050D02*
Y0101050D01*
Y0101050D02*
X0700200D01*
X0040000Y0040050D02*
X0440500D01*
X0040000Y0060383D02*
X0700000D01*
X0040000Y0080717D02*
X0700200D01*
X0413200D02*
Y0101050D01*
X0497200Y0080717D02*
Y0101050D01*
G54D49*
X0126900Y0067551D02*
Y0073549D01*
X0128899Y0071549D01*
X0130899Y0073549D01*
Y0067551D01*
X0132898D02*
X0134897D01*
X0133898D01*
Y0073549D01*
X0132898Y0072549D01*
X0141895Y0067551D02*
X0137896D01*
X0141895Y0071549D01*
Y0072549D01*
X0140895Y0073549D01*
X0138896D01*
X0137896Y0072549D01*
X0153891D02*
X0152892Y0073549D01*
X0150892D01*
X0149893Y0072549D01*
Y0071549D01*
X0150892Y0070550D01*
X0152892D01*
X0153891Y0069550D01*
Y0068550D01*
X0152892Y0067551D01*
X0150892D01*
X0149893Y0068550D01*
X0156890Y0072549D02*
Y0071549D01*
X0155891D01*
X0157890D01*
X0156890D01*
Y0068550D01*
X0157890Y0067551D01*
X0161889Y0071549D02*
X0163888D01*
X0164888Y0070550D01*
Y0067551D01*
X0161889D01*
X0160889Y0068550D01*
X0161889Y0069550D01*
X0164888D01*
X0170886Y0071549D02*
X0167887D01*
X0166887Y0070550D01*
Y0068550D01*
X0167887Y0067551D01*
X0170886D01*
X0172885D02*
Y0073549D01*
Y0069550D02*
X0175884Y0071549D01*
X0172885Y0069550D02*
X0175884Y0067551D01*
X0178883Y0071549D02*
Y0068550D01*
X0179883Y0067551D01*
X0182882D01*
Y0071549D01*
X0184881Y0065551D02*
Y0071549D01*
X0187880D01*
X0188880Y0070550D01*
Y0068550D01*
X0187880Y0067551D01*
X0184881D01*
X0348550Y0067500D02*
Y0073498D01*
X0352549Y0067500D01*
Y0073498D01*
X0354548Y0067500D02*
X0358547Y0071499D01*
X0360546Y0067500D02*
Y0071499D01*
X0362545Y0073498D01*
X0364545Y0071499D01*
Y0067500D01*
Y0070499D01*
X0360546D01*
X0294000Y0073498D02*
X0297999D01*
X0295999D01*
Y0067500D01*
X0299998Y0073498D02*
X0301997D01*
X0300998D01*
Y0067500D01*
X0299998D01*
X0301997D01*
X0304996Y0073498D02*
Y0067500D01*
X0307996D01*
X0308995Y0068500D01*
Y0072498D01*
X0307996Y0073498D01*
X0304996D01*
X0317992Y0067500D02*
Y0073498D01*
X0319992D02*
Y0067500D01*
X0316993Y0071499D02*
X0319992D01*
X0320991D01*
X0316993Y0069499D02*
X0320991D01*
X0322991Y0071499D02*
X0323990D01*
Y0070499D01*
X0322991D01*
Y0071499D01*
Y0068500D02*
X0323990D01*
Y0067500D01*
X0322991D01*
Y0068500D01*
X0580500Y0052965D02*
X0584499D01*
X0582499D01*
Y0046966D01*
X0590497Y0052965D02*
X0586498D01*
Y0046966D01*
X0590497D01*
X0586498Y0049966D02*
X0588497D01*
X0592496Y0052965D02*
X0596495Y0046966D01*
Y0052965D02*
X0592496Y0046966D01*
X0598494D02*
Y0050965D01*
X0600493Y0052965D01*
X0602493Y0050965D01*
Y0046966D01*
Y0049966D01*
X0598494D01*
X0608491Y0051965D02*
X0607491Y0052965D01*
X0605492D01*
X0604492Y0051965D01*
Y0050965D01*
X0605492Y0049966D01*
X0607491D01*
X0608491Y0048966D01*
Y0047966D01*
X0607491Y0046966D01*
X0605492D01*
X0604492Y0047966D01*
X0616488Y0052965D02*
X0618488D01*
X0617488D01*
Y0046966D01*
X0616488D01*
X0618488D01*
X0621487D02*
Y0052965D01*
X0625486Y0046966D01*
Y0052965D01*
X0631484Y0051965D02*
X0630484Y0052965D01*
X0628484D01*
X0627485Y0051965D01*
Y0050965D01*
X0628484Y0049966D01*
X0630484D01*
X0631484Y0048966D01*
Y0047966D01*
X0630484Y0046966D01*
X0628484D01*
X0627485Y0047966D01*
X0633483Y0052965D02*
X0637482D01*
X0635482D01*
Y0046966D01*
X0639481D02*
Y0052965D01*
X0642480D01*
X0643480Y0051965D01*
Y0049966D01*
X0642480Y0048966D01*
X0639481D01*
X0641480D02*
X0643480Y0046966D01*
X0645479Y0052965D02*
Y0047966D01*
X0646479Y0046966D01*
X0648478D01*
X0649478Y0047966D01*
Y0052965D01*
X0651477Y0046966D02*
Y0052965D01*
X0653476Y0050965D01*
X0655476Y0052965D01*
Y0046966D01*
X0661474Y0052965D02*
X0657475D01*
Y0046966D01*
X0661474D01*
X0657475Y0049966D02*
X0659474D01*
X0663473Y0046966D02*
Y0052965D01*
X0667472Y0046966D01*
Y0052965D01*
X0669471D02*
X0673470D01*
X0671471D01*
Y0046966D01*
X0679468Y0051965D02*
X0678468Y0052965D01*
X0676469D01*
X0675469Y0051965D01*
Y0050965D01*
X0676469Y0049966D01*
X0678468D01*
X0679468Y0048966D01*
Y0047966D01*
X0678468Y0046966D01*
X0676469D01*
X0675469Y0047966D01*
X0454050Y0046966D02*
X0456049D01*
X0455050D01*
Y0052965D01*
X0454050Y0051965D01*
X0459048D02*
X0460048Y0052965D01*
X0462047D01*
X0463047Y0051965D01*
Y0047966D01*
X0462047Y0046966D01*
X0460048D01*
X0459048Y0047966D01*
Y0051965D01*
X0465046Y0050965D02*
X0466046D01*
Y0049966D01*
X0465046D01*
Y0050965D01*
Y0047966D02*
X0466046D01*
Y0046966D01*
X0465046D01*
Y0047966D01*
X0470045Y0046966D02*
X0472044D01*
X0471044D01*
Y0052965D01*
X0470045Y0051965D01*
X0479042Y0052965D02*
X0477043Y0051965D01*
X0475043Y0049966D01*
Y0047966D01*
X0476043Y0046966D01*
X0478042D01*
X0479042Y0047966D01*
Y0048966D01*
X0478042Y0049966D01*
X0475043D01*
X0481041Y0050965D02*
X0482041D01*
Y0049966D01*
X0481041D01*
Y0050965D01*
Y0047966D02*
X0482041D01*
Y0046966D01*
X0481041D01*
Y0047966D01*
X0486040Y0051965D02*
X0487039Y0052965D01*
X0489039D01*
X0490038Y0051965D01*
Y0050965D01*
X0489039Y0049966D01*
X0488039D01*
X0489039D01*
X0490038Y0048966D01*
Y0047966D01*
X0489039Y0046966D01*
X0487039D01*
X0486040Y0047966D01*
X0496036Y0052965D02*
X0494037Y0051965D01*
X0492038Y0049966D01*
Y0047966D01*
X0493037Y0046966D01*
X0495037D01*
X0496036Y0047966D01*
Y0048966D01*
X0495037Y0049966D01*
X0492038D01*
X0504034Y0046966D02*
Y0050965D01*
X0506033Y0052965D01*
X0508033Y0050965D01*
Y0046966D01*
Y0049966D01*
X0504034D01*
X0510032Y0046966D02*
Y0052965D01*
X0512031Y0050965D01*
X0514031Y0052965D01*
Y0046966D01*
X0046350D02*
Y0052965D01*
X0049349D01*
X0050349Y0051965D01*
Y0049966D01*
X0049349Y0048966D01*
X0046350D01*
X0052348Y0052965D02*
Y0046966D01*
X0056347D01*
X0061345Y0052965D02*
X0059346D01*
X0058346Y0051965D01*
Y0047966D01*
X0059346Y0046966D01*
X0061345D01*
X0062345Y0047966D01*
Y0051965D01*
X0061345Y0052965D01*
X0064344D02*
X0068343D01*
X0066343D01*
Y0046966D01*
X0076340D02*
Y0052965D01*
X0080339Y0046966D01*
Y0052965D01*
X0082338Y0046966D02*
Y0050965D01*
X0084338Y0052965D01*
X0086337Y0050965D01*
Y0046966D01*
Y0049966D01*
X0082338D01*
X0088336Y0046966D02*
Y0052965D01*
X0090336Y0050965D01*
X0092335Y0052965D01*
Y0046966D01*
X0098333Y0052965D02*
X0094335D01*
Y0046966D01*
X0098333D01*
X0094335Y0049966D02*
X0096334D01*
X0106331Y0048966D02*
X0110329D01*
X0106331Y0050965D02*
X0110329D01*
X0046350Y0073549D02*
Y0067551D01*
X0050349D01*
X0052348D02*
Y0071549D01*
X0054347Y0073549D01*
X0056347Y0071549D01*
Y0067551D01*
Y0070550D01*
X0052348D01*
X0058346Y0073549D02*
Y0072549D01*
X0060346Y0070550D01*
X0062345Y0072549D01*
Y0073549D01*
X0060346Y0070550D02*
Y0067551D01*
X0068343Y0073549D02*
X0064344D01*
Y0067551D01*
X0068343D01*
X0064344Y0070550D02*
X0066343D01*
X0070342Y0067551D02*
Y0073549D01*
X0073341D01*
X0074341Y0072549D01*
Y0070550D01*
X0073341Y0069550D01*
X0070342D01*
X0072342D02*
X0074341Y0067551D01*
X0082338D02*
Y0073549D01*
X0086337Y0067551D01*
Y0073549D01*
X0088336Y0067551D02*
Y0071549D01*
X0090336Y0073549D01*
X0092335Y0071549D01*
Y0067551D01*
Y0070550D01*
X0088336D01*
X0094335Y0067551D02*
Y0073549D01*
X0096334Y0071549D01*
X0098333Y0073549D01*
Y0067551D01*
X0104331Y0073549D02*
X0100332D01*
Y0067551D01*
X0104331D01*
X0100332Y0070550D02*
X0102332D01*
X0112329Y0069550D02*
X0116327D01*
X0112329Y0071549D02*
X0116327D01*
X0294000Y0093831D02*
Y0087833D01*
X0296999D01*
X0297999Y0088833D01*
Y0089833D01*
X0296999Y0090832D01*
X0294000D01*
X0296999D01*
X0297999Y0091832D01*
Y0092832D01*
X0296999Y0093831D01*
X0294000D01*
X0302997D02*
X0300998D01*
X0299998Y0092832D01*
Y0088833D01*
X0300998Y0087833D01*
X0302997D01*
X0303997Y0088833D01*
Y0092832D01*
X0302997Y0093831D01*
X0305996Y0087833D02*
Y0091832D01*
X0307996Y0093831D01*
X0309995Y0091832D01*
Y0087833D01*
Y0090832D01*
X0305996D01*
X0311994Y0087833D02*
Y0093831D01*
X0314993D01*
X0315993Y0092832D01*
Y0090832D01*
X0314993Y0089833D01*
X0311994D01*
X0313994D02*
X0315993Y0087833D01*
X0317992Y0093831D02*
Y0087833D01*
X0320991D01*
X0321991Y0088833D01*
Y0092832D01*
X0320991Y0093831D01*
X0317992D01*
X0330988Y0087833D02*
Y0093831D01*
X0332987D02*
Y0087833D01*
X0329988Y0091832D02*
X0332987D01*
X0333987D01*
X0329988Y0089833D02*
X0333987D01*
X0335986Y0091832D02*
X0336986D01*
Y0090832D01*
X0335986D01*
Y0091832D01*
Y0088833D02*
X0336986D01*
Y0087833D01*
X0335986D01*
Y0088833D01*
X0348550Y0087833D02*
Y0093831D01*
X0350549Y0091832D01*
X0352549Y0093831D01*
Y0087833D01*
X0358547Y0092832D02*
X0357547Y0093831D01*
X0355548D01*
X0354548Y0092832D01*
Y0088833D01*
X0355548Y0087833D01*
X0357547D01*
X0358547Y0088833D01*
X0360546Y0093831D02*
Y0088833D01*
X0361546Y0087833D01*
X0363545D01*
X0364545Y0088833D01*
Y0093831D01*
X0366544Y0092832D02*
X0367544Y0093831D01*
X0369543D01*
X0370543Y0092832D01*
Y0088833D01*
X0369543Y0087833D01*
X0367544D01*
X0366544Y0088833D01*
Y0092832D01*
X0372542D02*
X0373542Y0093831D01*
X0375541D01*
X0376541Y0092832D01*
Y0091832D01*
X0375541Y0090832D01*
X0374542D01*
X0375541D01*
X0376541Y0089833D01*
Y0088833D01*
X0375541Y0087833D01*
X0373542D01*
X0372542Y0088833D01*
X0382539Y0093831D02*
X0380540Y0092832D01*
X0378540Y0090832D01*
Y0088833D01*
X0379540Y0087833D01*
X0381539D01*
X0382539Y0088833D01*
Y0089833D01*
X0381539Y0090832D01*
X0378540D01*
X0462150Y0087833D02*
Y0091832D01*
X0464149Y0093831D01*
X0466149Y0091832D01*
Y0087833D01*
Y0090832D01*
X0462150D01*
X0046350Y0087833D02*
Y0091832D01*
X0048349Y0093831D01*
X0050349Y0091832D01*
Y0087833D01*
Y0090832D01*
X0046350D01*
X0052348Y0093831D02*
Y0087833D01*
X0056347D01*
X0058346Y0093831D02*
Y0087833D01*
X0062345D01*
X0070342D02*
Y0091832D01*
X0072342Y0093831D01*
X0074341Y0091832D01*
Y0087833D01*
Y0090832D01*
X0070342D01*
X0076340Y0087833D02*
Y0093831D01*
X0079339D01*
X0080339Y0092832D01*
Y0090832D01*
X0079339Y0089833D01*
X0076340D01*
X0078340D02*
X0080339Y0087833D01*
X0082338Y0093831D02*
X0086337D01*
X0084338D01*
Y0087833D01*
X0088336Y0093831D02*
Y0087833D01*
X0090336Y0089833D01*
X0092335Y0087833D01*
Y0093831D01*
X0097334D02*
X0095334D01*
X0094335Y0092832D01*
Y0088833D01*
X0095334Y0087833D01*
X0097334D01*
X0098333Y0088833D01*
Y0092832D01*
X0097334Y0093831D01*
X0100332Y0087833D02*
Y0093831D01*
X0103332D01*
X0104331Y0092832D01*
Y0090832D01*
X0103332Y0089833D01*
X0100332D01*
X0102332D02*
X0104331Y0087833D01*
X0106331Y0093831D02*
Y0087833D01*
Y0089833D01*
X0110329Y0093831D01*
X0107330Y0090832D01*
X0110329Y0087833D01*
X0118327Y0093831D02*
Y0089833D01*
X0120326Y0087833D01*
X0122325Y0089833D01*
Y0093831D01*
X0124325D02*
X0126324D01*
X0125324D01*
Y0087833D01*
X0124325D01*
X0126324D01*
X0133322Y0093831D02*
X0129323D01*
Y0087833D01*
X0133322D01*
X0129323Y0090832D02*
X0131323D01*
X0135321Y0093831D02*
Y0087833D01*
X0137321Y0089833D01*
X0139320Y0087833D01*
Y0093831D01*
X0145318D02*
X0141319D01*
Y0087833D01*
X0145318D01*
X0141319Y0090832D02*
X0143319D01*
X0147317Y0093831D02*
Y0087833D01*
X0150316D01*
X0151316Y0088833D01*
Y0092832D01*
X0150316Y0093831D01*
X0147317D01*
X0163312D02*
X0159313D01*
Y0090832D01*
X0161313D01*
X0159313D01*
Y0087833D01*
X0165312D02*
Y0093831D01*
X0168310D01*
X0169310Y0092832D01*
Y0090832D01*
X0168310Y0089833D01*
X0165312D01*
X0167311D02*
X0169310Y0087833D01*
X0174309Y0093831D02*
X0172309D01*
X0171310Y0092832D01*
Y0088833D01*
X0172309Y0087833D01*
X0174309D01*
X0175308Y0088833D01*
Y0092832D01*
X0174309Y0093831D01*
X0177308Y0087833D02*
Y0093831D01*
X0179307Y0091832D01*
X0181306Y0093831D01*
Y0087833D01*
X0189304Y0093831D02*
X0193303D01*
X0191303D01*
Y0087833D01*
X0198301Y0093831D02*
X0196301D01*
X0195302Y0092832D01*
Y0088833D01*
X0196301Y0087833D01*
X0198301D01*
X0199301Y0088833D01*
Y0092832D01*
X0198301Y0093831D01*
X0201300Y0087833D02*
Y0093831D01*
X0204299D01*
X0205299Y0092832D01*
Y0090832D01*
X0204299Y0089833D01*
X0201300D01*
X0217295Y0092832D02*
X0216295Y0093831D01*
X0214296D01*
X0213296Y0092832D01*
Y0091832D01*
X0214296Y0090832D01*
X0216295D01*
X0217295Y0089833D01*
Y0088833D01*
X0216295Y0087833D01*
X0214296D01*
X0213296Y0088833D01*
X0219294Y0093831D02*
X0221293D01*
X0220294D01*
Y0087833D01*
X0219294D01*
X0221293D01*
X0224292Y0093831D02*
Y0087833D01*
X0227291D01*
X0228291Y0088833D01*
Y0092832D01*
X0227291Y0093831D01*
X0224292D01*
X0234289D02*
X0230291D01*
Y0087833D01*
X0234289D01*
X0230291Y0090832D02*
X0232290D01*
X0298199Y0051965D02*
X0297199Y0052965D01*
X0295200D01*
X0294200Y0051965D01*
Y0047966D01*
X0295200Y0046966D01*
X0297199D01*
X0298199Y0047966D01*
Y0049966D01*
X0296199D01*
X0304197Y0052965D02*
X0300198D01*
Y0046966D01*
X0304197D01*
X0300198Y0049966D02*
X0302197D01*
X0306196Y0046966D02*
Y0052965D01*
X0310195Y0046966D01*
Y0052965D01*
X0316193D02*
X0312194D01*
Y0046966D01*
X0316193D01*
X0312194Y0049966D02*
X0314194D01*
X0318192Y0046966D02*
Y0052965D01*
X0321191D01*
X0322191Y0051965D01*
Y0049966D01*
X0321191Y0048966D01*
X0318192D01*
X0320192D02*
X0322191Y0046966D01*
X0324190D02*
Y0050965D01*
X0326190Y0052965D01*
X0328189Y0050965D01*
Y0046966D01*
Y0049966D01*
X0324190D01*
X0330188Y0052965D02*
X0334187D01*
X0332188D01*
Y0046966D01*
X0340185Y0052965D02*
X0336186D01*
Y0046966D01*
X0340185D01*
X0336186Y0049966D02*
X0338186D01*
X0342184Y0052965D02*
Y0046966D01*
X0345183D01*
X0346183Y0047966D01*
Y0051965D01*
X0345183Y0052965D01*
X0342184D01*
X0372175Y0050965D02*
X0373175D01*
Y0049966D01*
X0372175D01*
Y0050965D01*
Y0047966D02*
X0373175D01*
Y0046966D01*
X0372175D01*
Y0047966D01*
X0381150Y0051965D02*
X0382150Y0052965D01*
X0384149D01*
X0385149Y0051965D01*
Y0050965D01*
X0384149Y0049966D01*
X0383149D01*
X0384149D01*
X0385149Y0048966D01*
Y0047966D01*
X0384149Y0046966D01*
X0382150D01*
X0381150Y0047966D01*
X0387148Y0046966D02*
X0391147Y0050965D01*
X0397145Y0046966D02*
X0393146D01*
X0397145Y0050965D01*
Y0051965D01*
X0396145Y0052965D01*
X0394146D01*
X0393146Y0051965D01*
X0399144Y0046966D02*
X0403143Y0050965D01*
X0409141Y0046966D02*
X0405142D01*
X0409141Y0050965D01*
Y0051965D01*
X0408141Y0052965D01*
X0406142D01*
X0405142Y0051965D01*
X0411140D02*
X0412140Y0052965D01*
X0414139D01*
X0415139Y0051965D01*
Y0047966D01*
X0414139Y0046966D01*
X0412140D01*
X0411140Y0047966D01*
Y0051965D01*
X0417138Y0046966D02*
X0419138D01*
X0418138D01*
Y0052965D01*
X0417138Y0051965D01*
X0422137D02*
X0423136Y0052965D01*
X0425136D01*
X0426135Y0051965D01*
Y0050965D01*
X0425136Y0049966D01*
X0426135Y0048966D01*
Y0047966D01*
X0425136Y0046966D01*
X0423136D01*
X0422137Y0047966D01*
Y0048966D01*
X0423136Y0049966D01*
X0422137Y0050965D01*
Y0051965D01*
X0423136Y0049966D02*
X0425136D01*
X0126900Y0046966D02*
Y0052965D01*
X0128899Y0050965D01*
X0130899Y0052965D01*
Y0046966D01*
X0136897Y0051965D02*
X0135897Y0052965D01*
X0133898D01*
X0132898Y0051965D01*
Y0047966D01*
X0133898Y0046966D01*
X0135897D01*
X0136897Y0047966D01*
X0138896Y0052965D02*
Y0047966D01*
X0139896Y0046966D01*
X0141895D01*
X0142895Y0047966D01*
Y0052965D01*
X0144894Y0051965D02*
X0145894Y0052965D01*
X0147893D01*
X0148893Y0051965D01*
Y0047966D01*
X0147893Y0046966D01*
X0145894D01*
X0144894Y0047966D01*
Y0051965D01*
X0150892D02*
X0151892Y0052965D01*
X0153891D01*
X0154891Y0051965D01*
Y0050965D01*
X0153891Y0049966D01*
X0152892D01*
X0153891D01*
X0154891Y0048966D01*
Y0047966D01*
X0153891Y0046966D01*
X0151892D01*
X0150892Y0047966D01*
X0160889Y0052965D02*
X0158890Y0051965D01*
X0156890Y0049966D01*
Y0047966D01*
X0157890Y0046966D01*
X0159889D01*
X0160889Y0047966D01*
Y0048966D01*
X0159889Y0049966D01*
X0156890D01*
X0162888Y0046966D02*
Y0050965D01*
X0164888Y0052965D01*
X0166887Y0050965D01*
Y0046966D01*
Y0049966D01*
X0162888D01*
X0168886Y0046966D02*
Y0047966D01*
X0169886D01*
Y0046966D01*
X0168886D01*
X0177884Y0051965D02*
X0176884Y0052965D01*
X0174884D01*
X0173885Y0051965D01*
Y0047966D01*
X0174884Y0046966D01*
X0176884D01*
X0177884Y0047966D01*
Y0049966D01*
X0175884D01*
X0179883Y0046966D02*
Y0052965D01*
X0181882Y0050965D01*
X0183882Y0052965D01*
Y0046966D01*
X0185881D02*
X0187880D01*
X0186881D01*
Y0052965D01*
X0185881Y0051965D01*
X0194878Y0046966D02*
X0190879D01*
X0194878Y0050965D01*
Y0051965D01*
X0193878Y0052965D01*
X0191879D01*
X0190879Y0051965D01*
X0433000Y0087833D02*
Y0093831D01*
X0435999D01*
X0436999Y0092832D01*
Y0090832D01*
X0435999Y0089833D01*
X0433000D01*
X0434999D02*
X0436999Y0087833D01*
X0442997Y0093831D02*
X0438998D01*
Y0087833D01*
X0442997D01*
X0438998Y0090832D02*
X0440997D01*
X0444996Y0093831D02*
Y0089833D01*
X0446995Y0087833D01*
X0448995Y0089833D01*
Y0093831D01*
X0450994Y0091832D02*
X0451994D01*
Y0090832D01*
X0450994D01*
Y0091832D01*
Y0088833D02*
X0451994D01*
Y0087833D01*
X0450994D01*
Y0088833D01*
X0520799Y0092832D02*
X0519799Y0093831D01*
X0517800D01*
X0516800Y0092832D01*
Y0091832D01*
X0517800Y0090832D01*
X0519799D01*
X0520799Y0089833D01*
Y0088833D01*
X0519799Y0087833D01*
X0517800D01*
X0516800Y0088833D01*
X0522798Y0093831D02*
Y0089833D01*
X0524797Y0087833D01*
X0526797Y0089833D01*
Y0093831D01*
X0528796Y0087833D02*
Y0093831D01*
X0532795Y0087833D01*
Y0093831D01*
X0540792Y0087833D02*
Y0093831D01*
X0543791D01*
X0544791Y0092832D01*
Y0090832D01*
X0543791Y0089833D01*
X0540792D01*
X0542792D02*
X0544791Y0087833D01*
X0550789Y0093831D02*
X0546790D01*
Y0087833D01*
X0550789D01*
X0546790Y0090832D02*
X0548790D01*
X0552788Y0093831D02*
Y0089833D01*
X0554788Y0087833D01*
X0556787Y0089833D01*
Y0093831D01*
X0558786Y0091832D02*
X0559786D01*
Y0090832D01*
X0558786D01*
Y0091832D01*
Y0088833D02*
X0559786D01*
Y0087833D01*
X0558786D01*
Y0088833D01*
X0567400Y0087833D02*
Y0093831D01*
X0571399Y0087833D01*
Y0093831D01*
X0574398Y0087833D02*
X0576397D01*
X0577397Y0088833D01*
Y0090832D01*
X0576397Y0091832D01*
X0574398D01*
X0573398Y0090832D01*
Y0088833D01*
X0574398Y0087833D01*
X0580396Y0092832D02*
Y0091832D01*
X0579396D01*
X0581395D01*
X0580396D01*
Y0088833D01*
X0581395Y0087833D01*
X0590393Y0093831D02*
X0592392D01*
X0591392D01*
Y0087833D01*
X0590393D01*
X0592392D01*
X0595391D02*
Y0091832D01*
X0598390D01*
X0599390Y0090832D01*
Y0087833D01*
X0607387Y0093831D02*
Y0089833D01*
X0609386Y0087833D01*
X0611386Y0089833D01*
Y0093831D01*
X0616384Y0087833D02*
X0614385D01*
X0613385Y0088833D01*
Y0090832D01*
X0614385Y0091832D01*
X0616384D01*
X0617384Y0090832D01*
Y0089833D01*
X0613385D01*
X0619383Y0091832D02*
Y0087833D01*
Y0089833D01*
X0620383Y0090832D01*
X0621383Y0091832D01*
X0622382D01*
X0625381Y0087833D02*
X0628380D01*
X0629380Y0088833D01*
X0628380Y0089833D01*
X0626381D01*
X0625381Y0090832D01*
X0626381Y0091832D01*
X0629380D01*
X0631379Y0087833D02*
X0633379D01*
X0632379D01*
Y0091832D01*
X0631379D01*
X0637377Y0087833D02*
X0639377D01*
X0640376Y0088833D01*
Y0090832D01*
X0639377Y0091832D01*
X0637377D01*
X0636378Y0090832D01*
Y0088833D01*
X0637377Y0087833D01*
X0642376D02*
Y0091832D01*
X0645375D01*
X0646374Y0090832D01*
Y0087833D01*
X0652373Y0092832D02*
X0651373Y0093831D01*
X0649373D01*
X0648374Y0092832D01*
Y0088833D01*
X0649373Y0087833D01*
X0651373D01*
X0652373Y0088833D01*
X0655372Y0087833D02*
X0657371D01*
X0658371Y0088833D01*
Y0090832D01*
X0657371Y0091832D01*
X0655372D01*
X0654372Y0090832D01*
Y0088833D01*
X0655372Y0087833D01*
X0660370D02*
Y0091832D01*
X0663369D01*
X0664369Y0090832D01*
Y0087833D01*
X0667368Y0092832D02*
Y0091832D01*
X0666368D01*
X0668367D01*
X0667368D01*
Y0088833D01*
X0668367Y0087833D01*
X0671366Y0091832D02*
Y0087833D01*
Y0089833D01*
X0672366Y0090832D01*
X0673366Y0091832D01*
X0674365D01*
X0678364Y0087833D02*
X0680364D01*
X0681363Y0088833D01*
Y0090832D01*
X0680364Y0091832D01*
X0678364D01*
X0677364Y0090832D01*
Y0088833D01*
X0678364Y0087833D01*
X0683362D02*
X0685362D01*
X0684362D01*
Y0093831D01*
X0683362D01*
G54D52*
X1130330Y0617650D02*
Y0761650D01*
X1018362Y0737650D02*
X1130330D01*
X1018362Y0725650D02*
X1130330D01*
X1018362Y0713650D02*
X1130330D01*
X1018362Y0701650D02*
X1130330D01*
X1018362Y0689650D02*
X1130330D01*
X1018362Y0677650D02*
X1130330D01*
X1018362Y0665650D02*
X1130330D01*
X1018362Y0653650D02*
X1130330D01*
X1018362Y0641650D02*
X1130330D01*
X1018362Y0629650D02*
X1130330D01*
X1018362Y0617650D02*
X1130330D01*
X1018362D02*
Y0761650D01*
X0961376Y0737650D02*
X1018362D01*
X0961376Y0725650D02*
X1018362D01*
X0961376Y0713650D02*
X1018362D01*
X0961376Y0701650D02*
X1018362D01*
X0961376Y0689650D02*
X1018362D01*
X0961376Y0677650D02*
X1018362D01*
X0961376Y0665650D02*
X1018362D01*
X0961376Y0653650D02*
X1018362D01*
X0961376Y0641650D02*
X1018362D01*
X0961376Y0629650D02*
X1018362D01*
X0961376Y0617650D02*
X1018362D01*
X0961376D02*
Y0761650D01*
X0896392Y0737650D02*
X0961376D01*
X0896392Y0725650D02*
X0961376D01*
X0896392Y0713650D02*
X0961376D01*
X0896392Y0701650D02*
X0961376D01*
X0896392Y0689650D02*
X0961376D01*
X0896392Y0677650D02*
X0961376D01*
X0896392Y0665650D02*
X0961376D01*
X0896392Y0653650D02*
X0961376D01*
X0896392Y0641650D02*
X0961376D01*
X0896392Y0629650D02*
X0961376D01*
X0896392Y0617650D02*
X0961376D01*
X0896392D02*
Y0761650D01*
X0810416Y0737650D02*
X0896392D01*
X0810416Y0725650D02*
X0896392D01*
X0810416Y0713650D02*
X0896392D01*
X0810416Y0701650D02*
X0896392D01*
X0810416Y0689650D02*
X0896392D01*
X0810416Y0677650D02*
X0896392D01*
X0810416Y0665650D02*
X0896392D01*
X0810416Y0653650D02*
X0896392D01*
X0810416Y0641650D02*
X0896392D01*
X0810416Y0629650D02*
X0896392D01*
X0810416Y0617650D02*
X0896392D01*
X0810416D02*
Y0761650D01*
X0717441Y0737650D02*
X0810416D01*
X0717441Y0725650D02*
X0810416D01*
X0717441Y0713650D02*
X0810416D01*
X0717441Y0701650D02*
X0810416D01*
X0717441Y0689650D02*
X0810416D01*
X0717441Y0677650D02*
X0810416D01*
X0717441Y0665650D02*
X0810416D01*
X0717441Y0653650D02*
X0810416D01*
X0717441Y0641650D02*
X0810416D01*
X0717441Y0629650D02*
X0810416D01*
X0717441Y0617650D02*
X0810416D01*
X0717441D02*
Y0761650D01*
X0676450Y0737650D02*
X0717441D01*
X0676450Y0725650D02*
X0717441D01*
X0676450Y0713650D02*
X0717441D01*
X0676450Y0701650D02*
X0717441D01*
X0676450Y0689650D02*
X0717441D01*
X0676450Y0677650D02*
X0717441D01*
X0676450Y0665650D02*
X0717441D01*
X0676450Y0653650D02*
X0717441D01*
X0676450Y0641650D02*
X0717441D01*
X0676450Y0629650D02*
X0717441D01*
X0676450Y0617650D02*
X0717441D01*
X0676450D02*
Y0761650D01*
X1130330D01*
X0676450Y0749650D02*
X1130330D01*
G54D136*
X1018362Y0745682D02*
X1022330Y0749650D01*
X1018362Y0739682D02*
X1028330Y0749650D01*
X1022330Y0737650D02*
X1034330Y0749650D01*
X1028330Y0737650D02*
X1040330Y0749650D01*
X1034330Y0737650D02*
X1046330Y0749650D01*
X1040330Y0737650D02*
X1052330Y0749650D01*
X1046330Y0737650D02*
X1058330Y0749650D01*
X1052330Y0737650D02*
X1064330Y0749650D01*
X1058330Y0737650D02*
X1070330Y0749650D01*
X1064330Y0737650D02*
X1076330Y0749650D01*
X1070330Y0737650D02*
X1082330Y0749650D01*
X1076330Y0737650D02*
X1088330Y0749650D01*
X1082330Y0737650D02*
X1094330Y0749650D01*
X1088330Y0737650D02*
X1100330Y0749650D01*
X1094330Y0737650D02*
X1106330Y0749650D01*
X1100330Y0737650D02*
X1112330Y0749650D01*
X1106330Y0737650D02*
X1118330Y0749650D01*
X1112330Y0737650D02*
X1124330Y0749650D01*
X1118330Y0737650D02*
X1130330Y0749650D01*
X1124330Y0737650D02*
X1130330Y0743650D01*
X1018362Y0733682D02*
X1022330Y0737650D01*
X1018362Y0727682D02*
X1028330Y0737650D01*
X1022330Y0725650D02*
X1034330Y0737650D01*
X1028330Y0725650D02*
X1040330Y0737650D01*
X1034330Y0725650D02*
X1046330Y0737650D01*
X1040330Y0725650D02*
X1052330Y0737650D01*
X1046330Y0725650D02*
X1058330Y0737650D01*
X1052330Y0725650D02*
X1064330Y0737650D01*
X1058330Y0725650D02*
X1070330Y0737650D01*
X1064330Y0725650D02*
X1076330Y0737650D01*
X1070330Y0725650D02*
X1082330Y0737650D01*
X1076330Y0725650D02*
X1088330Y0737650D01*
X1082330Y0725650D02*
X1094330Y0737650D01*
X1088330Y0725650D02*
X1100330Y0737650D01*
X1094330Y0725650D02*
X1106330Y0737650D01*
X1100330Y0725650D02*
X1112330Y0737650D01*
X1106330Y0725650D02*
X1118330Y0737650D01*
X1112330Y0725650D02*
X1124330Y0737650D01*
X1118330Y0725650D02*
X1130330Y0737650D01*
X1124330Y0725650D02*
X1130330Y0731650D01*
X1018362Y0721682D02*
X1022330Y0725650D01*
X1018362Y0715682D02*
X1028330Y0725650D01*
X1022330Y0713650D02*
X1034330Y0725650D01*
X1028330Y0713650D02*
X1040330Y0725650D01*
X1034330Y0713650D02*
X1046330Y0725650D01*
X1040330Y0713650D02*
X1052330Y0725650D01*
X1046330Y0713650D02*
X1058330Y0725650D01*
X1052330Y0713650D02*
X1064330Y0725650D01*
X1058330Y0713650D02*
X1070330Y0725650D01*
X1064330Y0713650D02*
X1076330Y0725650D01*
X1070330Y0713650D02*
X1082330Y0725650D01*
X1076330Y0713650D02*
X1088330Y0725650D01*
X1082330Y0713650D02*
X1094330Y0725650D01*
X1088330Y0713650D02*
X1100330Y0725650D01*
X1094330Y0713650D02*
X1106330Y0725650D01*
X1100330Y0713650D02*
X1112330Y0725650D01*
X1106330Y0713650D02*
X1118330Y0725650D01*
X1112330Y0713650D02*
X1124330Y0725650D01*
X1118330Y0713650D02*
X1130330Y0725650D01*
X1124330Y0713650D02*
X1130330Y0719650D01*
X1018362Y0709682D02*
X1022330Y0713650D01*
X1018362Y0703682D02*
X1028330Y0713650D01*
X1022330Y0701650D02*
X1034330Y0713650D01*
X1028330Y0701650D02*
X1040330Y0713650D01*
X1034330Y0701650D02*
X1046330Y0713650D01*
X1040330Y0701650D02*
X1052330Y0713650D01*
X1046330Y0701650D02*
X1058330Y0713650D01*
X1052330Y0701650D02*
X1064330Y0713650D01*
X1058330Y0701650D02*
X1070330Y0713650D01*
X1064330Y0701650D02*
X1076330Y0713650D01*
X1070330Y0701650D02*
X1082330Y0713650D01*
X1076330Y0701650D02*
X1088330Y0713650D01*
X1082330Y0701650D02*
X1094330Y0713650D01*
X1088330Y0701650D02*
X1100330Y0713650D01*
X1094330Y0701650D02*
X1106330Y0713650D01*
X1100330Y0701650D02*
X1112330Y0713650D01*
X1106330Y0701650D02*
X1118330Y0713650D01*
X1112330Y0701650D02*
X1124330Y0713650D01*
X1118330Y0701650D02*
X1130330Y0713650D01*
X1124330Y0701650D02*
X1130330Y0707650D01*
X1018362Y0697682D02*
X1022330Y0701650D01*
X1018362Y0691682D02*
X1028330Y0701650D01*
X1022330Y0689650D02*
X1034330Y0701650D01*
X1028330Y0689650D02*
X1040330Y0701650D01*
X1034330Y0689650D02*
X1046330Y0701650D01*
X1040330Y0689650D02*
X1052330Y0701650D01*
X1046330Y0689650D02*
X1058330Y0701650D01*
X1052330Y0689650D02*
X1064330Y0701650D01*
X1058330Y0689650D02*
X1070330Y0701650D01*
X1064330Y0689650D02*
X1076330Y0701650D01*
X1070330Y0689650D02*
X1082330Y0701650D01*
X1076330Y0689650D02*
X1088330Y0701650D01*
X1082330Y0689650D02*
X1094330Y0701650D01*
X1088330Y0689650D02*
X1100330Y0701650D01*
X1094330Y0689650D02*
X1106330Y0701650D01*
X1100330Y0689650D02*
X1112330Y0701650D01*
X1106330Y0689650D02*
X1118330Y0701650D01*
X1112330Y0689650D02*
X1124330Y0701650D01*
X1118330Y0689650D02*
X1130330Y0701650D01*
X1124330Y0689650D02*
X1130330Y0695650D01*
X1018362Y0685682D02*
X1022330Y0689650D01*
X1018362Y0679682D02*
X1028330Y0689650D01*
X1022330Y0677650D02*
X1034330Y0689650D01*
X1028330Y0677650D02*
X1040330Y0689650D01*
X1034330Y0677650D02*
X1046330Y0689650D01*
X1040330Y0677650D02*
X1052330Y0689650D01*
X1046330Y0677650D02*
X1058330Y0689650D01*
X1052330Y0677650D02*
X1064330Y0689650D01*
X1058330Y0677650D02*
X1070330Y0689650D01*
X1064330Y0677650D02*
X1076330Y0689650D01*
X1070330Y0677650D02*
X1082330Y0689650D01*
X1076330Y0677650D02*
X1088330Y0689650D01*
X1082330Y0677650D02*
X1094330Y0689650D01*
X1088330Y0677650D02*
X1100330Y0689650D01*
X1094330Y0677650D02*
X1106330Y0689650D01*
X1100330Y0677650D02*
X1112330Y0689650D01*
X1106330Y0677650D02*
X1118330Y0689650D01*
X1112330Y0677650D02*
X1124330Y0689650D01*
X1118330Y0677650D02*
X1130330Y0689650D01*
X1124330Y0677650D02*
X1130330Y0683650D01*
X1018362Y0673682D02*
X1022330Y0677650D01*
X1018362Y0667682D02*
X1028330Y0677650D01*
X1022330Y0665650D02*
X1034330Y0677650D01*
X1028330Y0665650D02*
X1040330Y0677650D01*
X1034330Y0665650D02*
X1046330Y0677650D01*
X1040330Y0665650D02*
X1052330Y0677650D01*
X1046330Y0665650D02*
X1058330Y0677650D01*
X1052330Y0665650D02*
X1064330Y0677650D01*
X1058330Y0665650D02*
X1070330Y0677650D01*
X1064330Y0665650D02*
X1076330Y0677650D01*
X1070330Y0665650D02*
X1082330Y0677650D01*
X1076330Y0665650D02*
X1088330Y0677650D01*
X1082330Y0665650D02*
X1094330Y0677650D01*
X1088330Y0665650D02*
X1100330Y0677650D01*
X1094330Y0665650D02*
X1106330Y0677650D01*
X1100330Y0665650D02*
X1112330Y0677650D01*
X1106330Y0665650D02*
X1118330Y0677650D01*
X1112330Y0665650D02*
X1124330Y0677650D01*
X1118330Y0665650D02*
X1130330Y0677650D01*
X1124330Y0665650D02*
X1130330Y0671650D01*
X1018362Y0661682D02*
X1022330Y0665650D01*
X1018362Y0655682D02*
X1028330Y0665650D01*
X1022330Y0653650D02*
X1034330Y0665650D01*
X1028330Y0653650D02*
X1040330Y0665650D01*
X1034330Y0653650D02*
X1046330Y0665650D01*
X1040330Y0653650D02*
X1052330Y0665650D01*
X1046330Y0653650D02*
X1058330Y0665650D01*
X1052330Y0653650D02*
X1064330Y0665650D01*
X1058330Y0653650D02*
X1070330Y0665650D01*
X1064330Y0653650D02*
X1076330Y0665650D01*
X1070330Y0653650D02*
X1082330Y0665650D01*
X1076330Y0653650D02*
X1088330Y0665650D01*
X1082330Y0653650D02*
X1094330Y0665650D01*
X1088330Y0653650D02*
X1100330Y0665650D01*
X1094330Y0653650D02*
X1106330Y0665650D01*
X1100330Y0653650D02*
X1112330Y0665650D01*
X1106330Y0653650D02*
X1118330Y0665650D01*
X1112330Y0653650D02*
X1124330Y0665650D01*
X1118330Y0653650D02*
X1130330Y0665650D01*
X1124330Y0653650D02*
X1130330Y0659650D01*
X1018362Y0649682D02*
X1022330Y0653650D01*
X1018362Y0643682D02*
X1028330Y0653650D01*
X1022330Y0641650D02*
X1034330Y0653650D01*
X1028330Y0641650D02*
X1040330Y0653650D01*
X1034330Y0641650D02*
X1046330Y0653650D01*
X1040330Y0641650D02*
X1052330Y0653650D01*
X1046330Y0641650D02*
X1058330Y0653650D01*
X1052330Y0641650D02*
X1064330Y0653650D01*
X1058330Y0641650D02*
X1070330Y0653650D01*
X1064330Y0641650D02*
X1076330Y0653650D01*
X1070330Y0641650D02*
X1082330Y0653650D01*
X1076330Y0641650D02*
X1088330Y0653650D01*
X1082330Y0641650D02*
X1094330Y0653650D01*
X1088330Y0641650D02*
X1100330Y0653650D01*
X1094330Y0641650D02*
X1106330Y0653650D01*
X1100330Y0641650D02*
X1112330Y0653650D01*
X1106330Y0641650D02*
X1118330Y0653650D01*
X1112330Y0641650D02*
X1124330Y0653650D01*
X1118330Y0641650D02*
X1130330Y0653650D01*
X1124330Y0641650D02*
X1130330Y0647650D01*
X1018362Y0637682D02*
X1022330Y0641650D01*
X1018362Y0631682D02*
X1028330Y0641650D01*
X1022330Y0629650D02*
X1034330Y0641650D01*
X1028330Y0629650D02*
X1040330Y0641650D01*
X1034330Y0629650D02*
X1046330Y0641650D01*
X1040330Y0629650D02*
X1052330Y0641650D01*
X1046330Y0629650D02*
X1058330Y0641650D01*
X1052330Y0629650D02*
X1064330Y0641650D01*
X1058330Y0629650D02*
X1070330Y0641650D01*
X1064330Y0629650D02*
X1076330Y0641650D01*
X1070330Y0629650D02*
X1082330Y0641650D01*
X1076330Y0629650D02*
X1088330Y0641650D01*
X1082330Y0629650D02*
X1094330Y0641650D01*
X1088330Y0629650D02*
X1100330Y0641650D01*
X1094330Y0629650D02*
X1106330Y0641650D01*
X1100330Y0629650D02*
X1112330Y0641650D01*
X1106330Y0629650D02*
X1118330Y0641650D01*
X1112330Y0629650D02*
X1124330Y0641650D01*
X1118330Y0629650D02*
X1130330Y0641650D01*
X1124330Y0629650D02*
X1130330Y0635650D01*
X1018362Y0625682D02*
X1022330Y0629650D01*
X1018362Y0619682D02*
X1028330Y0629650D01*
X1022330Y0617650D02*
X1034330Y0629650D01*
X1028330Y0617650D02*
X1040330Y0629650D01*
X1034330Y0617650D02*
X1046330Y0629650D01*
X1040330Y0617650D02*
X1052330Y0629650D01*
X1046330Y0617650D02*
X1058330Y0629650D01*
X1052330Y0617650D02*
X1064330Y0629650D01*
X1058330Y0617650D02*
X1070330Y0629650D01*
X1064330Y0617650D02*
X1076330Y0629650D01*
X1070330Y0617650D02*
X1082330Y0629650D01*
X1076330Y0617650D02*
X1088330Y0629650D01*
X1082330Y0617650D02*
X1094330Y0629650D01*
X1088330Y0617650D02*
X1100330Y0629650D01*
X1094330Y0617650D02*
X1106330Y0629650D01*
X1100330Y0617650D02*
X1112330Y0629650D01*
X1106330Y0617650D02*
X1118330Y0629650D01*
X1112330Y0617650D02*
X1124330Y0629650D01*
X1118330Y0617650D02*
X1130330Y0629650D01*
X1124330Y0617650D02*
X1130330Y0623650D01*
M02*
