G04 Layer_Physical_Order=4*
G04 Layer_Color=16711680*
%FSAX25Y25*%
%MOIN*%
G70*
G01*
G75*
%ADD47C,0.01200*%
%ADD48C,0.01000*%
%ADD49C,0.00800*%
%ADD50C,0.02500*%
%ADD51C,0.02000*%
%ADD52C,0.01500*%
%ADD55C,0.06102*%
G04:AMPARAMS|DCode=56|XSize=61.02mil|YSize=61.02mil|CornerRadius=15.26mil|HoleSize=0mil|Usage=FLASHONLY|Rotation=0.000|XOffset=0mil|YOffset=0mil|HoleType=Round|Shape=RoundedRectangle|*
%AMROUNDEDRECTD56*
21,1,0.06102,0.03051,0,0,0.0*
21,1,0.03051,0.06102,0,0,0.0*
1,1,0.03051,0.01526,-0.01526*
1,1,0.03051,-0.01526,-0.01526*
1,1,0.03051,-0.01526,0.01526*
1,1,0.03051,0.01526,0.01526*
%
%ADD56ROUNDEDRECTD56*%
%ADD57C,0.06496*%
%ADD58R,0.06496X0.06496*%
G04:AMPARAMS|DCode=59|XSize=64.96mil|YSize=64.96mil|CornerRadius=1.95mil|HoleSize=0mil|Usage=FLASHONLY|Rotation=270.000|XOffset=0mil|YOffset=0mil|HoleType=Round|Shape=RoundedRectangle|*
%AMROUNDEDRECTD59*
21,1,0.06496,0.06106,0,0,270.0*
21,1,0.06106,0.06496,0,0,270.0*
1,1,0.00390,-0.03053,-0.03053*
1,1,0.00390,-0.03053,0.03053*
1,1,0.00390,0.03053,0.03053*
1,1,0.00390,0.03053,-0.03053*
%
%ADD59ROUNDEDRECTD59*%
G04:AMPARAMS|DCode=60|XSize=82.68mil|YSize=55.12mil|CornerRadius=27.56mil|HoleSize=0mil|Usage=FLASHONLY|Rotation=270.000|XOffset=0mil|YOffset=0mil|HoleType=Round|Shape=RoundedRectangle|*
%AMROUNDEDRECTD60*
21,1,0.08268,0.00000,0,0,270.0*
21,1,0.02756,0.05512,0,0,270.0*
1,1,0.05512,0.00000,-0.01378*
1,1,0.05512,0.00000,0.01378*
1,1,0.05512,0.00000,0.01378*
1,1,0.05512,0.00000,-0.01378*
%
%ADD60ROUNDEDRECTD60*%
%ADD61C,0.12000*%
%ADD62C,0.08000*%
G04:AMPARAMS|DCode=63|XSize=61.02mil|YSize=61.02mil|CornerRadius=1.83mil|HoleSize=0mil|Usage=FLASHONLY|Rotation=270.000|XOffset=0mil|YOffset=0mil|HoleType=Round|Shape=RoundedRectangle|*
%AMROUNDEDRECTD63*
21,1,0.06102,0.05736,0,0,270.0*
21,1,0.05736,0.06102,0,0,270.0*
1,1,0.00366,-0.02868,-0.02868*
1,1,0.00366,-0.02868,0.02868*
1,1,0.00366,0.02868,0.02868*
1,1,0.00366,0.02868,-0.02868*
%
%ADD63ROUNDEDRECTD63*%
%ADD64C,0.02800*%
%ADD65C,0.03200*%
%ADD66C,0.03400*%
G36*
X0105046Y0515246D02*
X0105576Y0514893D01*
X0106200Y0514769D01*
X0136873D01*
X0137562Y0514022D01*
X0137541Y0513863D01*
X0137630Y0513185D01*
X0137720Y0512968D01*
X0137573Y0512203D01*
X0137304Y0511909D01*
X0136354Y0511553D01*
X0135824Y0511907D01*
X0135200Y0512031D01*
X0110359D01*
X0109920Y0511944D01*
X0108480D01*
X0108041Y0512031D01*
X0102876D01*
X0093856Y0521051D01*
X0094266Y0522043D01*
X0094445Y0523400D01*
X0094288Y0524591D01*
X0094663Y0524906D01*
X0095190Y0525103D01*
X0105046Y0515246D01*
D02*
G37*
G36*
X0246410Y0554493D02*
X0246051Y0553437D01*
X0246021Y0553433D01*
X0245389Y0553171D01*
X0244846Y0552754D01*
X0244429Y0552211D01*
X0244167Y0551579D01*
X0244078Y0550900D01*
X0244114Y0550621D01*
X0235937Y0542444D01*
X0234640D01*
X0233822Y0543400D01*
X0233733Y0544079D01*
X0233471Y0544711D01*
X0233054Y0545254D01*
X0232919Y0545358D01*
Y0547972D01*
X0232795Y0548596D01*
X0232441Y0549125D01*
X0230925Y0550641D01*
X0230446Y0550961D01*
X0223941Y0557466D01*
X0223412Y0557820D01*
X0222787Y0557944D01*
X0213640D01*
X0212822Y0558900D01*
X0212733Y0559579D01*
X0212471Y0560211D01*
X0212054Y0560754D01*
X0212103Y0561707D01*
X0213440Y0563045D01*
X0217351D01*
X0217365Y0563026D01*
X0217909Y0562609D01*
X0218541Y0562347D01*
X0219220Y0562258D01*
X0219898Y0562347D01*
X0220531Y0562609D01*
X0221074Y0563026D01*
X0221491Y0563569D01*
X0221753Y0564202D01*
X0221842Y0564880D01*
X0221791Y0565269D01*
X0222245Y0566002D01*
X0222541Y0566269D01*
X0234634D01*
X0246410Y0554493D01*
D02*
G37*
G36*
X0302555Y0481400D02*
X0302318Y0479782D01*
X0301620Y0477456D01*
X0300592Y0475256D01*
X0299923Y0474242D01*
X0299913Y0474216D01*
X0299893Y0474195D01*
X0299206Y0473064D01*
X0299177Y0472985D01*
X0299127Y0472917D01*
X0298007Y0470521D01*
X0297980Y0470412D01*
X0297927Y0470313D01*
X0297879Y0470150D01*
X0296774Y0469947D01*
X0296697Y0470047D01*
X0296077Y0470523D01*
X0295354Y0470823D01*
X0294578Y0470925D01*
X0293802Y0470823D01*
X0293079Y0470523D01*
X0292459Y0470047D01*
X0291982Y0469426D01*
X0291683Y0468703D01*
X0291581Y0467928D01*
X0291683Y0467152D01*
X0291982Y0466429D01*
X0292459Y0465808D01*
X0293079Y0465332D01*
X0293802Y0465032D01*
X0294578Y0464930D01*
X0295354Y0465032D01*
X0295762Y0465202D01*
X0296176Y0465092D01*
X0296234Y0465052D01*
X0296461Y0464873D01*
X0296719Y0464564D01*
X0296719Y0462236D01*
X0296461Y0461928D01*
X0296235Y0461748D01*
X0296176Y0461708D01*
X0295762Y0461598D01*
X0295354Y0461768D01*
X0294578Y0461870D01*
X0293802Y0461768D01*
X0293079Y0461468D01*
X0292459Y0460992D01*
X0291982Y0460371D01*
X0291683Y0459648D01*
X0291581Y0458872D01*
X0291683Y0458097D01*
X0291982Y0457374D01*
X0292459Y0456753D01*
X0293079Y0456277D01*
X0293802Y0455977D01*
X0294578Y0455875D01*
X0295354Y0455977D01*
X0296077Y0456277D01*
X0296697Y0456753D01*
X0296774Y0456853D01*
X0297879Y0456650D01*
X0297927Y0456488D01*
X0297980Y0456388D01*
X0298007Y0456280D01*
X0299127Y0453883D01*
X0299177Y0453815D01*
X0299205Y0453736D01*
X0299893Y0452605D01*
X0299913Y0452584D01*
X0299923Y0452558D01*
X0300592Y0451544D01*
X0301620Y0449344D01*
X0302318Y0447018D01*
X0302671Y0444614D01*
Y0443400D01*
Y0303605D01*
X0301671Y0303556D01*
X0301542Y0304860D01*
X0301116Y0306265D01*
X0300424Y0307559D01*
X0299493Y0308693D01*
X0298359Y0309624D01*
X0297065Y0310316D01*
X0295660Y0310742D01*
X0294200Y0310886D01*
X0292740Y0310742D01*
X0291335Y0310316D01*
X0290041Y0309624D01*
X0288907Y0308693D01*
X0287976Y0307559D01*
X0287284Y0306265D01*
X0286858Y0304860D01*
X0286714Y0303400D01*
X0286858Y0301940D01*
X0287284Y0300535D01*
X0287976Y0299241D01*
X0288907Y0298107D01*
X0290041Y0297176D01*
X0291335Y0296484D01*
X0292740Y0296058D01*
X0294044Y0295929D01*
X0293995Y0294929D01*
X0084405D01*
X0084356Y0295929D01*
X0085660Y0296058D01*
X0087065Y0296484D01*
X0088359Y0297176D01*
X0089493Y0298107D01*
X0090424Y0299241D01*
X0091116Y0300535D01*
X0091542Y0301940D01*
X0091686Y0303400D01*
X0091542Y0304860D01*
X0091116Y0306265D01*
X0090424Y0307559D01*
X0089493Y0308693D01*
X0088359Y0309624D01*
X0087065Y0310316D01*
X0085660Y0310742D01*
X0084200Y0310886D01*
X0082740Y0310742D01*
X0081335Y0310316D01*
X0080041Y0309624D01*
X0078907Y0308693D01*
X0077976Y0307559D01*
X0077284Y0306265D01*
X0076858Y0304860D01*
X0076729Y0303556D01*
X0075729Y0303605D01*
Y0443400D01*
Y0444614D01*
X0076082Y0447017D01*
X0076780Y0449344D01*
X0077808Y0451544D01*
X0078477Y0452558D01*
X0078487Y0452584D01*
X0078507Y0452605D01*
X0079194Y0453736D01*
X0079223Y0453815D01*
X0079273Y0453883D01*
X0080393Y0456279D01*
X0080420Y0456388D01*
X0080472Y0456487D01*
X0080521Y0456650D01*
X0081626Y0456853D01*
X0081703Y0456753D01*
X0082323Y0456277D01*
X0083046Y0455977D01*
X0083822Y0455875D01*
X0084598Y0455977D01*
X0085321Y0456277D01*
X0085941Y0456753D01*
X0086418Y0457374D01*
X0086717Y0458097D01*
X0086819Y0458872D01*
X0086717Y0459648D01*
X0086418Y0460371D01*
X0085941Y0460992D01*
X0085321Y0461468D01*
X0084598Y0461768D01*
X0083822Y0461870D01*
X0083046Y0461768D01*
X0082638Y0461598D01*
X0082224Y0461708D01*
X0082165Y0461748D01*
X0081939Y0461928D01*
X0081681Y0462236D01*
X0081681Y0464564D01*
X0081939Y0464873D01*
X0082165Y0465052D01*
X0082224Y0465092D01*
X0082638Y0465202D01*
X0083046Y0465032D01*
X0083822Y0464930D01*
X0084598Y0465032D01*
X0085321Y0465332D01*
X0085941Y0465808D01*
X0086418Y0466429D01*
X0086717Y0467152D01*
X0086819Y0467928D01*
X0086717Y0468703D01*
X0086418Y0469426D01*
X0085941Y0470047D01*
X0085321Y0470523D01*
X0084598Y0470823D01*
X0083822Y0470925D01*
X0083046Y0470823D01*
X0082323Y0470523D01*
X0081703Y0470047D01*
X0081626Y0469947D01*
X0080521Y0470150D01*
X0080473Y0470312D01*
X0080420Y0470412D01*
X0080393Y0470520D01*
X0079273Y0472917D01*
X0079224Y0472985D01*
X0079194Y0473064D01*
X0078507Y0474195D01*
X0078487Y0474216D01*
X0078477Y0474242D01*
X0077808Y0475256D01*
X0076780Y0477456D01*
X0076082Y0479782D01*
X0075845Y0481400D01*
X0076677Y0482400D01*
X0125463D01*
X0125719Y0482025D01*
X0125895Y0481400D01*
X0125315Y0480643D01*
X0124866Y0479561D01*
X0124714Y0478400D01*
X0124866Y0477239D01*
X0125315Y0476157D01*
X0126028Y0475228D01*
X0126957Y0474515D01*
X0128039Y0474066D01*
X0129200Y0473914D01*
X0130361Y0474066D01*
X0131443Y0474515D01*
X0132372Y0475228D01*
X0133085Y0476157D01*
X0133534Y0477239D01*
X0133686Y0478400D01*
X0133534Y0479561D01*
X0133085Y0480643D01*
X0132505Y0481400D01*
X0132681Y0482025D01*
X0132937Y0482400D01*
X0135464D01*
X0135719Y0482025D01*
X0135895Y0481400D01*
X0135315Y0480643D01*
X0134866Y0479561D01*
X0134714Y0478400D01*
X0134866Y0477239D01*
X0135315Y0476157D01*
X0136028Y0475228D01*
X0136957Y0474515D01*
X0138039Y0474066D01*
X0139200Y0473914D01*
X0140361Y0474066D01*
X0141443Y0474515D01*
X0142372Y0475228D01*
X0143085Y0476157D01*
X0143534Y0477239D01*
X0143686Y0478400D01*
X0143534Y0479561D01*
X0143085Y0480643D01*
X0142505Y0481400D01*
X0142681Y0482025D01*
X0142937Y0482400D01*
X0145464D01*
X0145719Y0482025D01*
X0145895Y0481400D01*
X0145315Y0480643D01*
X0144867Y0479561D01*
X0144714Y0478400D01*
X0144867Y0477239D01*
X0145315Y0476157D01*
X0146028Y0475228D01*
X0146957Y0474515D01*
X0148039Y0474066D01*
X0149200Y0473914D01*
X0150361Y0474066D01*
X0151443Y0474515D01*
X0152372Y0475228D01*
X0153085Y0476157D01*
X0153533Y0477239D01*
X0153686Y0478400D01*
X0153533Y0479561D01*
X0153085Y0480643D01*
X0152505Y0481400D01*
X0152681Y0482025D01*
X0152936Y0482400D01*
X0155464D01*
X0155719Y0482025D01*
X0155895Y0481400D01*
X0155315Y0480643D01*
X0154867Y0479561D01*
X0154714Y0478400D01*
X0154867Y0477239D01*
X0155315Y0476157D01*
X0156028Y0475228D01*
X0156957Y0474515D01*
X0158039Y0474066D01*
X0159200Y0473914D01*
X0160361Y0474066D01*
X0161443Y0474515D01*
X0162372Y0475228D01*
X0163085Y0476157D01*
X0163533Y0477239D01*
X0163686Y0478400D01*
X0163533Y0479561D01*
X0163085Y0480643D01*
X0162505Y0481400D01*
X0162681Y0482025D01*
X0162936Y0482400D01*
X0165463D01*
X0165719Y0482025D01*
X0165895Y0481400D01*
X0165315Y0480643D01*
X0164866Y0479561D01*
X0164714Y0478400D01*
X0164866Y0477239D01*
X0165315Y0476157D01*
X0166028Y0475228D01*
X0166957Y0474515D01*
X0168039Y0474066D01*
X0169200Y0473914D01*
X0170361Y0474066D01*
X0171443Y0474515D01*
X0172372Y0475228D01*
X0173085Y0476157D01*
X0173533Y0477239D01*
X0173686Y0478400D01*
X0173533Y0479561D01*
X0173085Y0480643D01*
X0172505Y0481400D01*
X0172681Y0482025D01*
X0172936Y0482400D01*
X0175463D01*
X0175719Y0482025D01*
X0175895Y0481400D01*
X0175315Y0480643D01*
X0174866Y0479561D01*
X0174714Y0478400D01*
X0174866Y0477239D01*
X0175315Y0476157D01*
X0176028Y0475228D01*
X0176957Y0474515D01*
X0177467Y0474303D01*
Y0445347D01*
X0177346Y0445254D01*
X0176929Y0444711D01*
X0176667Y0444079D01*
X0176578Y0443400D01*
X0176667Y0442721D01*
X0176929Y0442089D01*
X0177346Y0441546D01*
X0177889Y0441129D01*
X0178521Y0440867D01*
X0179200Y0440778D01*
X0179879Y0440867D01*
X0180511Y0441129D01*
X0181054Y0441546D01*
X0181471Y0442089D01*
X0181733Y0442721D01*
X0181822Y0443400D01*
X0181733Y0444079D01*
X0181471Y0444711D01*
X0181054Y0445254D01*
X0180933Y0445347D01*
Y0474303D01*
X0181443Y0474515D01*
X0182372Y0475228D01*
X0183085Y0476157D01*
X0183534Y0477239D01*
X0183686Y0478400D01*
X0183534Y0479561D01*
X0183085Y0480643D01*
X0182505Y0481400D01*
X0182681Y0482025D01*
X0182937Y0482400D01*
X0301723D01*
X0302555Y0481400D01*
D02*
G37*
G36*
X0168645Y0522845D02*
X0167200Y0521400D01*
X0163200D01*
X0154200Y0512400D01*
X0165043Y0501557D01*
X0164660Y0500633D01*
X0139655D01*
X0139240Y0501633D01*
X0161376Y0523769D01*
X0168262D01*
X0168645Y0522845D01*
D02*
G37*
G36*
X0241318Y0581518D02*
X0243644Y0580820D01*
X0245844Y0579792D01*
X0246858Y0579123D01*
X0246884Y0579112D01*
X0246905Y0579093D01*
X0248036Y0578406D01*
X0248115Y0578377D01*
X0248183Y0578327D01*
X0250579Y0577207D01*
X0250688Y0577180D01*
X0250787Y0577128D01*
X0250950Y0577079D01*
X0251153Y0575974D01*
X0251053Y0575897D01*
X0250577Y0575277D01*
X0250277Y0574554D01*
X0250175Y0573778D01*
X0250277Y0573002D01*
X0250577Y0572279D01*
X0251053Y0571659D01*
X0251674Y0571182D01*
X0252397Y0570883D01*
X0253172Y0570781D01*
X0253948Y0570883D01*
X0254671Y0571182D01*
X0255292Y0571659D01*
X0255768Y0572279D01*
X0256068Y0573002D01*
X0256170Y0573778D01*
X0256068Y0574554D01*
X0255898Y0574962D01*
X0256008Y0575376D01*
X0256048Y0575434D01*
X0256227Y0575661D01*
X0256536Y0575919D01*
X0258864Y0575919D01*
X0259173Y0575661D01*
X0259352Y0575435D01*
X0259392Y0575376D01*
X0259502Y0574962D01*
X0259332Y0574554D01*
X0259230Y0573778D01*
X0259332Y0573002D01*
X0259340Y0572984D01*
X0259209Y0572553D01*
X0258774Y0571831D01*
X0258389Y0571671D01*
X0257846Y0571254D01*
X0257429Y0570711D01*
X0257167Y0570079D01*
X0257078Y0569400D01*
X0257111Y0569143D01*
X0256762Y0568523D01*
X0256743Y0568508D01*
X0256271Y0568270D01*
X0255879Y0568433D01*
X0255200Y0568522D01*
X0254521Y0568433D01*
X0253889Y0568171D01*
X0253346Y0567754D01*
X0252929Y0567211D01*
X0252667Y0566579D01*
X0252578Y0565900D01*
X0252667Y0565221D01*
X0252801Y0564898D01*
X0252411Y0564099D01*
X0252199Y0563898D01*
X0249735D01*
X0234529Y0579104D01*
X0233718Y0579645D01*
X0232763Y0579835D01*
X0219043D01*
X0218580Y0580145D01*
X0217624Y0580335D01*
X0214776D01*
X0213820Y0580145D01*
X0213356Y0579835D01*
X0202637D01*
X0201681Y0579645D01*
X0200871Y0579104D01*
X0200665Y0578898D01*
X0161700D01*
X0160744Y0578708D01*
X0159934Y0578166D01*
X0152434Y0570666D01*
X0151892Y0569856D01*
X0151702Y0568900D01*
Y0552435D01*
X0145500Y0546233D01*
X0145443Y0546225D01*
X0144738Y0545933D01*
X0144692Y0545898D01*
X0141735D01*
X0140966Y0546666D01*
X0140156Y0547208D01*
X0139200Y0547398D01*
X0131201D01*
X0130862Y0548398D01*
X0131054Y0548546D01*
X0131471Y0549089D01*
X0131733Y0549721D01*
X0131822Y0550400D01*
X0131819Y0550424D01*
X0135457Y0554061D01*
X0136279Y0554509D01*
X0136889Y0554129D01*
X0137521Y0553867D01*
X0138200Y0553778D01*
X0138879Y0553867D01*
X0139511Y0554129D01*
X0140054Y0554546D01*
X0140471Y0555089D01*
X0140733Y0555721D01*
X0140822Y0556400D01*
X0140733Y0557079D01*
X0140471Y0557711D01*
X0140054Y0558254D01*
X0139511Y0558671D01*
X0138879Y0558933D01*
X0138200Y0559022D01*
X0137586Y0558942D01*
X0137502Y0558948D01*
X0136586Y0559628D01*
Y0568792D01*
X0136746Y0568858D01*
X0137573Y0569492D01*
X0138207Y0570318D01*
X0138605Y0571281D01*
X0138741Y0572313D01*
Y0575069D01*
X0138605Y0576102D01*
X0138207Y0577064D01*
X0137573Y0577891D01*
X0136861Y0578437D01*
X0137113Y0578815D01*
X0137229Y0579400D01*
Y0581871D01*
X0238914D01*
X0241318Y0581518D01*
D02*
G37*
G36*
X0217168Y0575030D02*
X0217841Y0574896D01*
X0217947Y0574330D01*
X0217870Y0573870D01*
X0217389Y0573671D01*
X0216846Y0573254D01*
X0216429Y0572711D01*
X0216167Y0572079D01*
X0216078Y0571400D01*
X0216167Y0570721D01*
X0215389Y0570171D01*
X0214846Y0569754D01*
X0214429Y0569211D01*
X0214167Y0568579D01*
X0214078Y0567900D01*
X0214102Y0567716D01*
X0213392Y0566716D01*
X0212680D01*
X0211978Y0566576D01*
X0211383Y0566178D01*
X0208902Y0563698D01*
X0208504Y0563102D01*
X0208365Y0562400D01*
Y0560769D01*
X0208346Y0560754D01*
X0208008Y0560314D01*
X0207794Y0560198D01*
X0206802Y0560105D01*
X0200853Y0566053D01*
X0200324Y0566407D01*
X0199700Y0566531D01*
X0183876D01*
X0183353Y0567054D01*
X0182824Y0567407D01*
X0182820Y0567408D01*
X0182554Y0567754D01*
X0182011Y0568171D01*
X0181379Y0568433D01*
X0180700Y0568522D01*
X0180021Y0568433D01*
X0179389Y0568171D01*
X0178846Y0567754D01*
X0178429Y0567211D01*
X0178167Y0566579D01*
X0177143Y0566464D01*
X0176700Y0566522D01*
X0176021Y0566433D01*
X0175389Y0566171D01*
X0174846Y0565754D01*
X0174429Y0565211D01*
X0174167Y0564579D01*
X0174078Y0563900D01*
X0174126Y0563531D01*
X0173651Y0562775D01*
X0173370Y0562531D01*
X0172376D01*
X0167286Y0567621D01*
X0167322Y0567900D01*
X0167233Y0568579D01*
X0166971Y0569211D01*
X0166901Y0569303D01*
X0166980Y0569438D01*
X0167592Y0570045D01*
X0168021Y0569867D01*
X0168700Y0569778D01*
X0169379Y0569867D01*
X0170011Y0570129D01*
X0170554Y0570546D01*
X0170971Y0571089D01*
X0171233Y0571721D01*
X0171322Y0572400D01*
X0171256Y0572902D01*
X0171459Y0573330D01*
X0171975Y0573902D01*
X0201700D01*
X0202656Y0574092D01*
X0203466Y0574634D01*
X0203672Y0574839D01*
X0214276D01*
X0215232Y0575030D01*
X0215696Y0575339D01*
X0216704D01*
X0217168Y0575030D01*
D02*
G37*
G36*
X0294044Y0580871D02*
X0292740Y0580742D01*
X0291335Y0580316D01*
X0290041Y0579624D01*
X0288907Y0578693D01*
X0287976Y0577559D01*
X0287284Y0576265D01*
X0286858Y0574860D01*
X0286714Y0573400D01*
X0286858Y0571940D01*
X0287284Y0570535D01*
X0287976Y0569241D01*
X0288907Y0568107D01*
X0290041Y0567176D01*
X0291335Y0566484D01*
X0292740Y0566058D01*
X0294200Y0565914D01*
X0295660Y0566058D01*
X0297065Y0566484D01*
X0298359Y0567176D01*
X0299493Y0568107D01*
X0300424Y0569241D01*
X0301116Y0570535D01*
X0301542Y0571940D01*
X0301671Y0573244D01*
X0302671Y0573195D01*
Y0484400D01*
X0183648D01*
Y0488964D01*
X0184648Y0489303D01*
X0184846Y0489046D01*
X0185389Y0488629D01*
X0186021Y0488367D01*
X0186700Y0488278D01*
X0187379Y0488367D01*
X0188011Y0488629D01*
X0188554Y0489046D01*
X0188971Y0489589D01*
X0189233Y0490221D01*
X0189322Y0490900D01*
X0189233Y0491579D01*
X0188971Y0492211D01*
X0188554Y0492754D01*
X0188011Y0493171D01*
X0187379Y0493433D01*
X0186700Y0493522D01*
X0186421Y0493486D01*
X0185354Y0494554D01*
X0184824Y0494907D01*
X0184200Y0495031D01*
X0174200D01*
X0173576Y0494907D01*
X0173132Y0494611D01*
X0172494Y0495387D01*
X0180876Y0503769D01*
X0190245D01*
X0191069Y0502900D01*
Y0497400D01*
X0191193Y0496776D01*
X0191546Y0496246D01*
X0196546Y0491247D01*
X0197076Y0490893D01*
X0197700Y0490769D01*
X0200675D01*
X0200846Y0490546D01*
X0201389Y0490129D01*
X0202021Y0489867D01*
X0202700Y0489778D01*
X0203379Y0489867D01*
X0204011Y0490129D01*
X0204554Y0490546D01*
X0204971Y0491089D01*
X0205233Y0491721D01*
X0205322Y0492400D01*
X0205233Y0493079D01*
X0204971Y0493711D01*
X0204554Y0494254D01*
X0204011Y0494671D01*
X0203379Y0494933D01*
X0202700Y0495022D01*
X0202021Y0494933D01*
X0201389Y0494671D01*
X0200846Y0494254D01*
X0200675Y0494031D01*
X0199375D01*
X0199036Y0495031D01*
X0199054Y0495046D01*
X0199471Y0495589D01*
X0199733Y0496221D01*
X0199822Y0496900D01*
X0199733Y0497579D01*
X0199471Y0498211D01*
X0199054Y0498754D01*
X0198986Y0498807D01*
X0199266Y0499852D01*
X0199379Y0499867D01*
X0200011Y0500129D01*
X0200554Y0500546D01*
X0200971Y0501089D01*
X0201233Y0501721D01*
X0201322Y0502400D01*
X0201286Y0502679D01*
X0206353Y0507747D01*
X0206707Y0508276D01*
X0206831Y0508900D01*
Y0523875D01*
X0207054Y0524046D01*
X0207471Y0524589D01*
X0207733Y0525221D01*
X0207822Y0525900D01*
X0207733Y0526579D01*
X0207471Y0527211D01*
X0207054Y0527754D01*
X0206511Y0528171D01*
X0205879Y0528433D01*
X0205200Y0528522D01*
X0204521Y0528433D01*
X0203889Y0528171D01*
X0203346Y0527754D01*
X0202929Y0527211D01*
X0202667Y0526579D01*
X0202578Y0525900D01*
X0202667Y0525221D01*
X0202929Y0524589D01*
X0203346Y0524046D01*
X0203569Y0523875D01*
Y0509576D01*
X0200331Y0506338D01*
X0199331Y0506753D01*
Y0514400D01*
X0199207Y0515024D01*
X0198854Y0515554D01*
X0187831Y0526576D01*
Y0529400D01*
X0187707Y0530024D01*
X0187354Y0530553D01*
X0176850Y0541057D01*
X0176554Y0542046D01*
X0176971Y0542589D01*
X0177233Y0543221D01*
X0177322Y0543900D01*
X0177667Y0544700D01*
X0178157Y0544838D01*
X0178379Y0544867D01*
X0179011Y0545129D01*
X0179554Y0545546D01*
X0179971Y0546089D01*
X0180233Y0546721D01*
X0180313Y0547329D01*
X0180700Y0547278D01*
X0181379Y0547367D01*
X0182011Y0547629D01*
X0182554Y0548046D01*
X0182971Y0548589D01*
X0183233Y0549221D01*
X0183322Y0549900D01*
X0183233Y0550579D01*
X0182971Y0551211D01*
X0182554Y0551754D01*
X0182011Y0552171D01*
X0181379Y0552433D01*
X0180700Y0552522D01*
X0180021Y0552433D01*
X0179389Y0552171D01*
X0178846Y0551754D01*
X0178742Y0551619D01*
X0173787D01*
X0173163Y0551495D01*
X0172634Y0551141D01*
X0166047Y0544554D01*
X0165693Y0544024D01*
X0165569Y0543400D01*
Y0540253D01*
X0165384Y0540072D01*
X0164569Y0539744D01*
X0164324Y0539907D01*
X0163700Y0540031D01*
X0160920D01*
X0160427Y0541031D01*
X0160471Y0541089D01*
X0160733Y0541721D01*
X0160822Y0542400D01*
X0160733Y0543079D01*
X0160471Y0543711D01*
X0160054Y0544254D01*
X0159511Y0544671D01*
X0158879Y0544933D01*
X0158200Y0545022D01*
X0157521Y0544933D01*
X0156889Y0544671D01*
X0156346Y0544254D01*
X0155929Y0543711D01*
X0155667Y0543079D01*
X0155578Y0542400D01*
X0155667Y0541721D01*
X0155929Y0541089D01*
X0155973Y0541031D01*
X0155480Y0540031D01*
X0149376D01*
X0148872Y0540535D01*
X0148399Y0541159D01*
X0148733Y0541937D01*
X0149025Y0542643D01*
X0149033Y0542700D01*
X0155966Y0549634D01*
X0156508Y0550444D01*
X0156698Y0551400D01*
Y0567865D01*
X0162735Y0573902D01*
X0165426D01*
X0165941Y0573330D01*
X0166144Y0572902D01*
X0166078Y0572400D01*
X0166167Y0571721D01*
X0166429Y0571089D01*
X0166499Y0570997D01*
X0166420Y0570862D01*
X0165808Y0570255D01*
X0165379Y0570433D01*
X0164700Y0570522D01*
X0164021Y0570433D01*
X0163389Y0570171D01*
X0162846Y0569754D01*
X0162429Y0569211D01*
X0162167Y0568579D01*
X0162078Y0567900D01*
X0162167Y0567221D01*
X0162429Y0566589D01*
X0162846Y0566046D01*
X0163389Y0565629D01*
X0164021Y0565367D01*
X0164700Y0565278D01*
X0164979Y0565314D01*
X0170546Y0559747D01*
X0171076Y0559393D01*
X0171700Y0559269D01*
X0189370D01*
X0189651Y0559025D01*
X0190126Y0558269D01*
X0190078Y0557900D01*
X0190167Y0557221D01*
X0190429Y0556589D01*
X0190846Y0556046D01*
X0191389Y0555629D01*
X0192021Y0555367D01*
X0192700Y0555278D01*
X0193379Y0555367D01*
X0193412Y0555381D01*
X0199181Y0549612D01*
X0199167Y0549579D01*
X0199078Y0548900D01*
X0199167Y0548221D01*
X0199429Y0547589D01*
X0199846Y0547046D01*
X0200389Y0546629D01*
X0201021Y0546367D01*
X0201700Y0546278D01*
X0202379Y0546367D01*
X0203011Y0546629D01*
X0203554Y0547046D01*
X0203971Y0547589D01*
X0204233Y0548221D01*
X0204240Y0548272D01*
X0204861Y0548190D01*
X0205539Y0548279D01*
X0206172Y0548541D01*
X0206715Y0548958D01*
X0207132Y0549501D01*
X0207394Y0550134D01*
X0207483Y0550813D01*
X0207883Y0551269D01*
X0210688D01*
X0211102Y0550269D01*
X0201953Y0541119D01*
X0200158D01*
X0200054Y0541254D01*
X0199511Y0541671D01*
X0198879Y0541933D01*
X0198200Y0542022D01*
X0197521Y0541933D01*
X0196889Y0541671D01*
X0196346Y0541254D01*
X0195929Y0540711D01*
X0195667Y0540079D01*
X0195578Y0539400D01*
X0195667Y0538721D01*
X0195929Y0538089D01*
X0196346Y0537546D01*
X0196889Y0537129D01*
X0197521Y0536867D01*
X0198200Y0536778D01*
X0198587Y0536829D01*
X0198667Y0536221D01*
X0198929Y0535589D01*
X0199346Y0535046D01*
X0199889Y0534629D01*
X0200521Y0534367D01*
X0201200Y0534278D01*
X0201879Y0534367D01*
X0202511Y0534629D01*
X0203054Y0535046D01*
X0203225Y0535269D01*
X0203700D01*
X0204324Y0535393D01*
X0204854Y0535746D01*
X0214376Y0545269D01*
X0220674D01*
X0220846Y0545046D01*
X0221389Y0544629D01*
X0222021Y0544367D01*
X0222700Y0544278D01*
X0223087Y0544328D01*
X0223167Y0543721D01*
X0223429Y0543089D01*
X0223846Y0542546D01*
X0224389Y0542129D01*
X0224750Y0541979D01*
X0225667Y0541579D01*
X0225578Y0540900D01*
X0225667Y0540221D01*
X0225929Y0539589D01*
X0226346Y0539046D01*
X0226889Y0538629D01*
X0227521Y0538367D01*
X0228200Y0538278D01*
X0228879Y0538367D01*
X0229511Y0538629D01*
X0230054Y0539046D01*
X0230158Y0539181D01*
X0236613D01*
X0237237Y0539305D01*
X0237766Y0539659D01*
X0246421Y0548314D01*
X0246700Y0548278D01*
X0247069Y0548326D01*
X0247826Y0547851D01*
X0248069Y0547570D01*
Y0535076D01*
X0242479Y0529486D01*
X0242200Y0529522D01*
X0241521Y0529433D01*
X0240889Y0529171D01*
X0240346Y0528754D01*
X0239929Y0528211D01*
X0239667Y0527579D01*
X0239578Y0526900D01*
X0239667Y0526221D01*
X0239929Y0525589D01*
X0240346Y0525046D01*
X0240889Y0524629D01*
X0241521Y0524367D01*
X0241614Y0523437D01*
X0241704Y0522758D01*
X0241966Y0522125D01*
X0242382Y0521582D01*
X0242925Y0521166D01*
X0243558Y0520904D01*
X0244237Y0520814D01*
X0244915Y0520904D01*
X0245548Y0521166D01*
X0246091Y0521582D01*
X0246508Y0522125D01*
X0246770Y0522758D01*
X0246859Y0523437D01*
X0246822Y0523715D01*
X0252716Y0529609D01*
X0253069Y0530138D01*
X0253194Y0530762D01*
Y0554538D01*
X0253069Y0555162D01*
X0252716Y0555691D01*
X0250429Y0557978D01*
X0250812Y0558902D01*
X0254937D01*
X0255021Y0558867D01*
X0255700Y0558778D01*
X0256379Y0558867D01*
X0257011Y0559129D01*
X0257554Y0559546D01*
X0257971Y0560089D01*
X0258233Y0560721D01*
X0258322Y0561400D01*
X0258233Y0562079D01*
X0257971Y0562711D01*
X0258506Y0563657D01*
X0269271D01*
X0286957Y0545971D01*
Y0500829D01*
X0285301Y0499173D01*
X0284798Y0499290D01*
X0284298Y0499585D01*
X0284233Y0500079D01*
X0283971Y0500711D01*
X0283554Y0501254D01*
X0283011Y0501671D01*
X0282379Y0501933D01*
X0281700Y0502022D01*
X0281021Y0501933D01*
X0280389Y0501671D01*
X0279846Y0501254D01*
X0279429Y0500711D01*
X0279167Y0500079D01*
X0279078Y0499400D01*
X0279167Y0498721D01*
X0279429Y0498089D01*
X0279846Y0497546D01*
X0280389Y0497129D01*
X0281021Y0496867D01*
X0281700Y0496778D01*
X0281716Y0496780D01*
X0282580Y0495916D01*
X0282578Y0495900D01*
X0282667Y0495221D01*
X0282929Y0494589D01*
X0283346Y0494046D01*
X0283889Y0493629D01*
X0284521Y0493367D01*
X0285200Y0493278D01*
X0285879Y0493367D01*
X0286511Y0493629D01*
X0287054Y0494046D01*
X0287471Y0494589D01*
X0287733Y0495221D01*
X0287739Y0495267D01*
X0290786Y0498314D01*
X0291272Y0499042D01*
X0291443Y0499900D01*
Y0546900D01*
X0291272Y0547758D01*
X0290786Y0548486D01*
X0273468Y0565804D01*
X0273826Y0566860D01*
X0273879Y0566867D01*
X0274511Y0567129D01*
X0275054Y0567546D01*
X0275471Y0568089D01*
X0275733Y0568721D01*
X0275822Y0569400D01*
X0275733Y0570079D01*
X0275471Y0570711D01*
X0275054Y0571254D01*
X0274511Y0571671D01*
X0273879Y0571933D01*
X0273200Y0572022D01*
X0272521Y0571933D01*
X0271889Y0571671D01*
X0271520Y0571388D01*
X0265400D01*
X0265023Y0571971D01*
X0264868Y0572388D01*
X0265123Y0573002D01*
X0265225Y0573778D01*
X0265123Y0574554D01*
X0264823Y0575277D01*
X0264347Y0575897D01*
X0264247Y0575974D01*
X0264450Y0577079D01*
X0264612Y0577127D01*
X0264712Y0577180D01*
X0264821Y0577207D01*
X0267217Y0578327D01*
X0267285Y0578376D01*
X0267364Y0578406D01*
X0268495Y0579093D01*
X0268515Y0579112D01*
X0268542Y0579123D01*
X0269556Y0579792D01*
X0271756Y0580820D01*
X0274082Y0581518D01*
X0276486Y0581871D01*
X0293995D01*
X0294044Y0580871D01*
D02*
G37*
G36*
X0101171Y0579400D02*
X0101287Y0578815D01*
X0101540Y0578437D01*
X0100827Y0577891D01*
X0100193Y0577064D01*
X0099795Y0576102D01*
X0099659Y0575069D01*
Y0572313D01*
X0099795Y0571281D01*
X0100193Y0570318D01*
X0100827Y0569492D01*
X0101654Y0568858D01*
X0102616Y0568459D01*
X0103649Y0568323D01*
X0104682Y0568459D01*
X0105644Y0568858D01*
X0106470Y0569492D01*
X0107104Y0570318D01*
X0107503Y0571281D01*
X0107537Y0571539D01*
X0108000Y0571871D01*
X0111700D01*
X0112285Y0571987D01*
X0112781Y0572319D01*
X0113113Y0572815D01*
X0113229Y0573400D01*
Y0577871D01*
X0125171D01*
Y0573400D01*
X0125287Y0572815D01*
X0125619Y0572319D01*
X0126115Y0571987D01*
X0126700Y0571871D01*
X0130400D01*
X0130863Y0571539D01*
X0130897Y0571281D01*
X0131296Y0570318D01*
X0131930Y0569492D01*
X0132756Y0568858D01*
X0132916Y0568792D01*
Y0556711D01*
X0129224Y0553019D01*
X0129200Y0553022D01*
X0128521Y0552933D01*
X0127889Y0552671D01*
X0127346Y0552254D01*
X0126929Y0551711D01*
X0126667Y0551079D01*
X0126578Y0550400D01*
X0126667Y0549721D01*
X0126929Y0549089D01*
X0127346Y0548546D01*
X0127538Y0548398D01*
X0127199Y0547398D01*
X0117208D01*
X0117163Y0547433D01*
X0116457Y0547725D01*
X0115743Y0548214D01*
X0115803Y0548754D01*
X0115822Y0548900D01*
X0115733Y0549579D01*
X0115471Y0550211D01*
X0115054Y0550754D01*
X0114978Y0550813D01*
X0114801Y0552050D01*
X0115918Y0553167D01*
X0117253D01*
X0117346Y0553046D01*
X0117889Y0552629D01*
X0118521Y0552367D01*
X0119200Y0552278D01*
X0119879Y0552367D01*
X0120511Y0552629D01*
X0121054Y0553046D01*
X0121471Y0553589D01*
X0121733Y0554221D01*
X0121822Y0554900D01*
X0121733Y0555579D01*
X0121471Y0556211D01*
X0121054Y0556754D01*
X0120511Y0557171D01*
X0119879Y0557433D01*
X0119200Y0557522D01*
X0118521Y0557433D01*
X0117889Y0557171D01*
X0117346Y0556754D01*
X0117253Y0556633D01*
X0115200D01*
X0115200Y0556633D01*
X0114537Y0556501D01*
X0113974Y0556126D01*
X0105351Y0547503D01*
X0105200Y0547522D01*
X0104521Y0547433D01*
X0103889Y0547171D01*
X0103346Y0546754D01*
X0102929Y0546211D01*
X0102667Y0545579D01*
X0102578Y0544900D01*
X0102667Y0544221D01*
X0102929Y0543589D01*
X0103346Y0543046D01*
X0103889Y0542629D01*
X0104521Y0542367D01*
X0105200Y0542278D01*
X0105879Y0542367D01*
X0106511Y0542629D01*
X0107054Y0543046D01*
X0107471Y0543589D01*
X0107733Y0544221D01*
X0107822Y0544900D01*
X0107802Y0545051D01*
X0109043Y0546292D01*
X0109967Y0545909D01*
Y0543900D01*
X0110099Y0543237D01*
X0110474Y0542674D01*
X0113467Y0539682D01*
Y0537847D01*
X0113346Y0537754D01*
X0112929Y0537211D01*
X0112667Y0536579D01*
X0112578Y0535900D01*
X0112667Y0535221D01*
X0112929Y0534589D01*
X0113346Y0534046D01*
X0113889Y0533629D01*
X0114521Y0533367D01*
X0115200Y0533278D01*
X0115879Y0533367D01*
X0116511Y0533629D01*
X0117054Y0534046D01*
X0117471Y0534589D01*
X0117733Y0535221D01*
X0117822Y0535900D01*
X0117733Y0536579D01*
X0117471Y0537211D01*
X0117054Y0537754D01*
X0116933Y0537847D01*
Y0540400D01*
X0116801Y0541063D01*
X0116743Y0541151D01*
X0117034Y0542261D01*
X0117117Y0542348D01*
X0117163Y0542367D01*
X0117208Y0542402D01*
X0131620D01*
X0132075Y0541402D01*
X0131929Y0541211D01*
X0131667Y0540579D01*
X0131578Y0539900D01*
X0131667Y0539221D01*
X0131929Y0538589D01*
X0132346Y0538046D01*
X0132889Y0537629D01*
X0133521Y0537367D01*
X0134200Y0537278D01*
X0134879Y0537367D01*
X0135511Y0537629D01*
X0136054Y0538046D01*
X0136225Y0538269D01*
X0146524D01*
X0147547Y0537247D01*
X0148076Y0536893D01*
X0148700Y0536769D01*
X0163024D01*
X0165114Y0534679D01*
X0165078Y0534400D01*
X0165167Y0533721D01*
X0165429Y0533089D01*
X0165846Y0532546D01*
X0166389Y0532129D01*
X0167021Y0531867D01*
X0167700Y0531778D01*
X0168379Y0531867D01*
X0169011Y0532129D01*
X0169554Y0532546D01*
X0169675Y0532703D01*
X0170880Y0532913D01*
X0172547Y0531247D01*
X0173076Y0530893D01*
X0173700Y0530769D01*
X0174024D01*
X0175995Y0528798D01*
X0175901Y0527806D01*
X0175786Y0527592D01*
X0175346Y0527254D01*
X0175174Y0527031D01*
X0163530D01*
X0163249Y0527275D01*
X0162774Y0528031D01*
X0162822Y0528400D01*
X0162733Y0529079D01*
X0162471Y0529711D01*
X0162054Y0530254D01*
X0161511Y0530671D01*
X0160879Y0530933D01*
X0160272Y0531013D01*
X0160322Y0531400D01*
X0160233Y0532079D01*
X0159971Y0532711D01*
X0159554Y0533254D01*
X0159011Y0533671D01*
X0158379Y0533933D01*
X0157700Y0534022D01*
X0157021Y0533933D01*
X0156389Y0533671D01*
X0155846Y0533254D01*
X0155675Y0533031D01*
X0144200D01*
X0143576Y0532907D01*
X0143046Y0532553D01*
X0142735Y0532242D01*
X0142554Y0532254D01*
X0142011Y0532671D01*
X0141379Y0532933D01*
X0140700Y0533022D01*
X0140021Y0532933D01*
X0139389Y0532671D01*
X0138846Y0532254D01*
X0138429Y0531711D01*
X0138167Y0531079D01*
X0138078Y0530400D01*
X0138167Y0529721D01*
X0138429Y0529089D01*
X0138846Y0528546D01*
X0139389Y0528129D01*
X0139614Y0528035D01*
X0139902Y0527058D01*
X0139877Y0526884D01*
X0137524Y0524531D01*
X0119876D01*
X0118286Y0526121D01*
X0118322Y0526400D01*
X0118233Y0527079D01*
X0117971Y0527711D01*
X0117554Y0528254D01*
X0117011Y0528671D01*
X0116379Y0528933D01*
X0115700Y0529022D01*
X0115021Y0528933D01*
X0114389Y0528671D01*
X0113846Y0528254D01*
X0113429Y0527711D01*
X0113167Y0527079D01*
X0113078Y0526400D01*
X0113167Y0525721D01*
X0113429Y0525089D01*
X0113846Y0524546D01*
X0114389Y0524129D01*
X0115021Y0523867D01*
X0115700Y0523778D01*
X0115979Y0523814D01*
X0118046Y0521746D01*
X0118576Y0521393D01*
X0119200Y0521269D01*
X0138200D01*
X0138824Y0521393D01*
X0139354Y0521746D01*
X0144376Y0526769D01*
X0157434D01*
X0158330Y0525833D01*
X0158318Y0525325D01*
X0141746Y0508753D01*
X0140799Y0509220D01*
X0140822Y0509400D01*
X0140733Y0510079D01*
X0140643Y0510295D01*
X0140790Y0511060D01*
X0141157Y0511460D01*
X0141475Y0511592D01*
X0142018Y0512009D01*
X0142434Y0512552D01*
X0142696Y0513185D01*
X0142717Y0513341D01*
X0143200Y0513278D01*
X0143879Y0513367D01*
X0144511Y0513629D01*
X0145054Y0514046D01*
X0145471Y0514589D01*
X0145733Y0515221D01*
X0145822Y0515900D01*
X0145733Y0516579D01*
X0145471Y0517211D01*
X0145054Y0517754D01*
X0144511Y0518171D01*
X0143879Y0518433D01*
X0143200Y0518522D01*
X0142921Y0518486D01*
X0141853Y0519554D01*
X0141324Y0519907D01*
X0140700Y0520031D01*
X0108876D01*
X0096831Y0532076D01*
Y0537400D01*
X0096707Y0538024D01*
X0096354Y0538553D01*
X0093856Y0541051D01*
X0094266Y0542042D01*
X0094445Y0543400D01*
X0094266Y0544758D01*
X0093742Y0546022D01*
X0092909Y0547109D01*
X0091822Y0547942D01*
X0090557Y0548466D01*
X0089200Y0548645D01*
X0087843Y0548466D01*
X0086578Y0547942D01*
X0085491Y0547109D01*
X0084658Y0546022D01*
X0084134Y0544758D01*
X0083955Y0543400D01*
X0084134Y0542042D01*
X0084658Y0540778D01*
X0085491Y0539691D01*
X0086436Y0538966D01*
X0086514Y0538400D01*
X0086436Y0537834D01*
X0085491Y0537109D01*
X0084658Y0536022D01*
X0084134Y0534758D01*
X0083955Y0533400D01*
X0084134Y0532043D01*
X0084658Y0530778D01*
X0085491Y0529691D01*
X0086436Y0528966D01*
X0086514Y0528400D01*
X0086436Y0527834D01*
X0085491Y0527109D01*
X0084658Y0526022D01*
X0084134Y0524757D01*
X0083955Y0523400D01*
X0084134Y0522043D01*
X0084658Y0520778D01*
X0085491Y0519691D01*
X0086436Y0518966D01*
X0086514Y0518400D01*
X0086436Y0517834D01*
X0085491Y0517109D01*
X0084658Y0516022D01*
X0084134Y0514757D01*
X0083955Y0513400D01*
X0084134Y0512043D01*
X0084658Y0510778D01*
X0085491Y0509691D01*
X0086436Y0508966D01*
X0086514Y0508400D01*
X0086436Y0507834D01*
X0085491Y0507109D01*
X0084658Y0506022D01*
X0084134Y0504757D01*
X0083955Y0503400D01*
X0084134Y0502042D01*
X0084658Y0500778D01*
X0085491Y0499691D01*
X0086436Y0498966D01*
X0086514Y0498400D01*
X0086436Y0497834D01*
X0085491Y0497109D01*
X0084658Y0496022D01*
X0084134Y0494758D01*
X0083955Y0493400D01*
X0084134Y0492042D01*
X0084658Y0490778D01*
X0085491Y0489691D01*
X0086578Y0488858D01*
X0087843Y0488334D01*
X0089200Y0488155D01*
X0090557Y0488334D01*
X0091822Y0488858D01*
X0092909Y0489691D01*
X0093742Y0490778D01*
X0094266Y0492042D01*
X0094445Y0493400D01*
X0094266Y0494758D01*
X0093856Y0495749D01*
X0096876Y0498769D01*
X0121175D01*
X0121346Y0498546D01*
X0121889Y0498129D01*
X0122521Y0497867D01*
X0123200Y0497778D01*
X0123879Y0497867D01*
X0124511Y0498129D01*
X0125054Y0498546D01*
X0125471Y0499089D01*
X0125733Y0499721D01*
X0125822Y0500400D01*
X0125733Y0501079D01*
X0125471Y0501711D01*
X0125054Y0502254D01*
X0124511Y0502671D01*
X0123879Y0502933D01*
X0123200Y0503022D01*
X0122521Y0502933D01*
X0121889Y0502671D01*
X0121346Y0502254D01*
X0121175Y0502031D01*
X0097353D01*
X0096938Y0503031D01*
X0098676Y0504769D01*
X0125872D01*
X0125967Y0504703D01*
X0126496Y0503769D01*
X0126417Y0503579D01*
X0126328Y0502900D01*
X0126417Y0502221D01*
X0126679Y0501589D01*
X0127096Y0501046D01*
X0127639Y0500629D01*
X0128271Y0500367D01*
X0128950Y0500278D01*
X0129101Y0500297D01*
X0131724Y0497674D01*
X0132287Y0497299D01*
X0132950Y0497167D01*
X0154353D01*
X0154736Y0496243D01*
X0150973Y0492480D01*
X0150361Y0492733D01*
X0149200Y0492886D01*
X0148039Y0492733D01*
X0146957Y0492285D01*
X0146028Y0491572D01*
X0145315Y0490643D01*
X0144867Y0489561D01*
X0144714Y0488400D01*
X0144867Y0487239D01*
X0145315Y0486157D01*
X0145895Y0485400D01*
X0145719Y0484775D01*
X0145464Y0484400D01*
X0142937D01*
X0142681Y0484775D01*
X0142505Y0485400D01*
X0143085Y0486157D01*
X0143534Y0487239D01*
X0143686Y0488400D01*
X0143534Y0489561D01*
X0143085Y0490643D01*
X0142372Y0491572D01*
X0141443Y0492285D01*
X0140361Y0492733D01*
X0139200Y0492886D01*
X0138039Y0492733D01*
X0136957Y0492285D01*
X0136028Y0491572D01*
X0135315Y0490643D01*
X0134866Y0489561D01*
X0134714Y0488400D01*
X0134866Y0487239D01*
X0135315Y0486157D01*
X0135895Y0485400D01*
X0135719Y0484775D01*
X0135464Y0484400D01*
X0132937D01*
X0132681Y0484775D01*
X0132505Y0485400D01*
X0133085Y0486157D01*
X0133534Y0487239D01*
X0133686Y0488400D01*
X0133534Y0489561D01*
X0133085Y0490643D01*
X0132372Y0491572D01*
X0131443Y0492285D01*
X0130361Y0492733D01*
X0129200Y0492886D01*
X0128039Y0492733D01*
X0126957Y0492285D01*
X0126028Y0491572D01*
X0125315Y0490643D01*
X0124866Y0489561D01*
X0124714Y0488400D01*
X0124866Y0487239D01*
X0125315Y0486157D01*
X0125895Y0485400D01*
X0125719Y0484775D01*
X0125463Y0484400D01*
X0075729D01*
Y0573195D01*
X0076729Y0573244D01*
X0076858Y0571940D01*
X0077284Y0570535D01*
X0077976Y0569241D01*
X0078907Y0568107D01*
X0080041Y0567176D01*
X0081335Y0566484D01*
X0082740Y0566058D01*
X0084200Y0565914D01*
X0085660Y0566058D01*
X0087065Y0566484D01*
X0088359Y0567176D01*
X0089493Y0568107D01*
X0090424Y0569241D01*
X0091116Y0570535D01*
X0091542Y0571940D01*
X0091686Y0573400D01*
X0091542Y0574860D01*
X0091116Y0576265D01*
X0090424Y0577559D01*
X0089493Y0578693D01*
X0088359Y0579624D01*
X0087065Y0580316D01*
X0085660Y0580742D01*
X0084356Y0580871D01*
X0084405Y0581871D01*
X0101171D01*
Y0579400D01*
D02*
G37*
%LPC*%
G36*
X0109200Y0362688D02*
X0108090Y0362542D01*
X0107056Y0362113D01*
X0106168Y0361432D01*
X0105487Y0360544D01*
X0105058Y0359510D01*
X0104912Y0358400D01*
X0105058Y0357290D01*
X0105487Y0356256D01*
X0106168Y0355368D01*
X0107056Y0354687D01*
X0108090Y0354258D01*
X0109200Y0354112D01*
X0110310Y0354258D01*
X0111344Y0354687D01*
X0112232Y0355368D01*
X0112913Y0356256D01*
X0113342Y0357290D01*
X0113488Y0358400D01*
X0113342Y0359510D01*
X0112913Y0360544D01*
X0112232Y0361432D01*
X0111344Y0362113D01*
X0110310Y0362542D01*
X0109200Y0362688D01*
D02*
G37*
G36*
X0099200D02*
X0098090Y0362542D01*
X0097056Y0362113D01*
X0096168Y0361432D01*
X0095487Y0360544D01*
X0095058Y0359510D01*
X0094912Y0358400D01*
X0095058Y0357290D01*
X0095487Y0356256D01*
X0096168Y0355368D01*
X0097056Y0354687D01*
X0098090Y0354258D01*
X0099200Y0354112D01*
X0100310Y0354258D01*
X0101344Y0354687D01*
X0102232Y0355368D01*
X0102913Y0356256D01*
X0103342Y0357290D01*
X0103488Y0358400D01*
X0103342Y0359510D01*
X0102913Y0360544D01*
X0102232Y0361432D01*
X0101344Y0362113D01*
X0100310Y0362542D01*
X0099200Y0362688D01*
D02*
G37*
G36*
X0109200Y0352688D02*
X0108090Y0352542D01*
X0107056Y0352113D01*
X0106168Y0351432D01*
X0105487Y0350544D01*
X0105058Y0349510D01*
X0104912Y0348400D01*
X0105058Y0347290D01*
X0105487Y0346256D01*
X0106168Y0345368D01*
X0107056Y0344687D01*
X0108090Y0344258D01*
X0109200Y0344112D01*
X0110310Y0344258D01*
X0111344Y0344687D01*
X0112232Y0345368D01*
X0112913Y0346256D01*
X0113342Y0347290D01*
X0113488Y0348400D01*
X0113342Y0349510D01*
X0112913Y0350544D01*
X0112232Y0351432D01*
X0111344Y0352113D01*
X0110310Y0352542D01*
X0109200Y0352688D01*
D02*
G37*
G36*
X0244700Y0411022D02*
X0244021Y0410933D01*
X0243389Y0410671D01*
X0242846Y0410254D01*
X0242429Y0409711D01*
X0242167Y0409079D01*
X0242078Y0408400D01*
X0242167Y0407721D01*
X0242429Y0407089D01*
X0242846Y0406546D01*
X0242967Y0406453D01*
Y0402900D01*
X0243099Y0402237D01*
X0243474Y0401674D01*
X0251185Y0393963D01*
X0251096Y0393403D01*
X0250866Y0392869D01*
X0250389Y0392671D01*
X0249846Y0392254D01*
X0249429Y0391711D01*
X0249167Y0391079D01*
X0249078Y0390400D01*
X0249167Y0389721D01*
X0249429Y0389089D01*
X0249846Y0388546D01*
X0249967Y0388453D01*
Y0377266D01*
X0250099Y0376603D01*
X0250474Y0376041D01*
X0254341Y0372174D01*
X0254903Y0371799D01*
X0255566Y0371667D01*
X0265088D01*
X0265581Y0370667D01*
X0265487Y0370544D01*
X0265058Y0369510D01*
X0264912Y0368400D01*
X0265058Y0367290D01*
X0265487Y0366256D01*
X0265581Y0366133D01*
X0265088Y0365133D01*
X0260647D01*
X0260554Y0365254D01*
X0260011Y0365671D01*
X0259379Y0365933D01*
X0258700Y0366022D01*
X0258021Y0365933D01*
X0257389Y0365671D01*
X0256846Y0365254D01*
X0256054D01*
X0255511Y0365671D01*
X0254879Y0365933D01*
X0254200Y0366022D01*
X0253521Y0365933D01*
X0252889Y0365671D01*
X0252346Y0365254D01*
X0251929Y0364711D01*
X0251667Y0364079D01*
X0251578Y0363400D01*
X0251667Y0362721D01*
X0251929Y0362089D01*
X0252346Y0361546D01*
X0252889Y0361129D01*
X0253521Y0360867D01*
X0254200Y0360778D01*
X0254351Y0360798D01*
X0262974Y0352174D01*
X0263537Y0351799D01*
X0264200Y0351667D01*
X0264200Y0351667D01*
X0265088D01*
X0265581Y0350667D01*
X0265487Y0350544D01*
X0265058Y0349510D01*
X0264912Y0348400D01*
X0265058Y0347290D01*
X0265487Y0346256D01*
X0266168Y0345368D01*
X0267056Y0344687D01*
X0268090Y0344258D01*
X0269200Y0344112D01*
X0270310Y0344258D01*
X0271344Y0344687D01*
X0272232Y0345368D01*
X0272913Y0346256D01*
X0273342Y0347290D01*
X0273488Y0348400D01*
X0273342Y0349510D01*
X0273193Y0349868D01*
X0273785Y0350979D01*
X0274115Y0351034D01*
X0275228Y0349920D01*
X0275058Y0349510D01*
X0274912Y0348400D01*
X0275058Y0347290D01*
X0275487Y0346256D01*
X0276168Y0345368D01*
X0277056Y0344687D01*
X0278090Y0344258D01*
X0279200Y0344112D01*
X0280310Y0344258D01*
X0281344Y0344687D01*
X0282232Y0345368D01*
X0282913Y0346256D01*
X0283342Y0347290D01*
X0283488Y0348400D01*
X0283342Y0349510D01*
X0282913Y0350544D01*
X0282232Y0351432D01*
X0281344Y0352113D01*
X0280310Y0352542D01*
X0279200Y0352688D01*
X0278090Y0352542D01*
X0277680Y0352372D01*
X0275426Y0354626D01*
X0274863Y0355001D01*
X0274200Y0355133D01*
X0273312D01*
X0272819Y0356133D01*
X0272913Y0356256D01*
X0273342Y0357290D01*
X0273488Y0358400D01*
X0273342Y0359510D01*
X0273193Y0359868D01*
X0273785Y0360979D01*
X0274115Y0361034D01*
X0275228Y0359920D01*
X0275058Y0359510D01*
X0274912Y0358400D01*
X0275058Y0357290D01*
X0275487Y0356256D01*
X0276168Y0355368D01*
X0277056Y0354687D01*
X0278090Y0354258D01*
X0279200Y0354112D01*
X0280310Y0354258D01*
X0281344Y0354687D01*
X0282232Y0355368D01*
X0282913Y0356256D01*
X0283342Y0357290D01*
X0283488Y0358400D01*
X0283342Y0359510D01*
X0282913Y0360544D01*
X0282232Y0361432D01*
X0281344Y0362113D01*
X0280310Y0362542D01*
X0279200Y0362688D01*
X0278090Y0362542D01*
X0277680Y0362372D01*
X0275426Y0364626D01*
X0274863Y0365001D01*
X0274200Y0365133D01*
X0273312D01*
X0272819Y0366133D01*
X0272913Y0366256D01*
X0273342Y0367290D01*
X0273488Y0368400D01*
X0273342Y0369510D01*
X0273193Y0369868D01*
X0273785Y0370979D01*
X0274115Y0371034D01*
X0275228Y0369920D01*
X0275058Y0369510D01*
X0274912Y0368400D01*
X0275058Y0367290D01*
X0275487Y0366256D01*
X0276168Y0365368D01*
X0277056Y0364687D01*
X0278090Y0364258D01*
X0279200Y0364112D01*
X0280310Y0364258D01*
X0281344Y0364687D01*
X0282232Y0365368D01*
X0282913Y0366256D01*
X0283342Y0367290D01*
X0283488Y0368400D01*
X0283342Y0369510D01*
X0282913Y0370544D01*
X0282232Y0371432D01*
X0281344Y0372113D01*
X0280310Y0372542D01*
X0279200Y0372688D01*
X0278090Y0372542D01*
X0277680Y0372372D01*
X0275426Y0374626D01*
X0274863Y0375001D01*
X0274200Y0375133D01*
X0273312D01*
X0272819Y0376133D01*
X0272913Y0376256D01*
X0273342Y0377290D01*
X0273488Y0378400D01*
X0273342Y0379510D01*
X0272913Y0380544D01*
X0272232Y0381432D01*
X0271344Y0382113D01*
X0270310Y0382542D01*
X0269200Y0382688D01*
X0268090Y0382542D01*
X0267680Y0382372D01*
X0246433Y0403618D01*
Y0406453D01*
X0246554Y0406546D01*
X0246971Y0407089D01*
X0247233Y0407721D01*
X0247322Y0408400D01*
X0247233Y0409079D01*
X0246971Y0409711D01*
X0246554Y0410254D01*
X0246011Y0410671D01*
X0245379Y0410933D01*
X0244700Y0411022D01*
D02*
G37*
G36*
X0173200Y0379022D02*
X0172521Y0378933D01*
X0171889Y0378671D01*
X0171346Y0378254D01*
X0170929Y0377711D01*
X0170667Y0377079D01*
X0170578Y0376400D01*
X0170598Y0376249D01*
X0169482Y0375133D01*
X0167200D01*
X0166537Y0375001D01*
X0165974Y0374626D01*
X0158351Y0367003D01*
X0158200Y0367022D01*
X0157521Y0366933D01*
X0156889Y0366671D01*
X0156346Y0366254D01*
X0155929Y0365711D01*
X0155667Y0365079D01*
X0155578Y0364400D01*
X0155667Y0363721D01*
X0155929Y0363089D01*
X0156101Y0362864D01*
X0155348Y0362204D01*
X0149302Y0368249D01*
X0149322Y0368400D01*
X0149233Y0369079D01*
X0148971Y0369711D01*
X0148554Y0370254D01*
X0148011Y0370671D01*
X0147379Y0370933D01*
X0146700Y0371022D01*
X0146021Y0370933D01*
X0145389Y0370671D01*
X0144846Y0370254D01*
X0144799Y0370193D01*
X0143602D01*
X0143554Y0370254D01*
X0143011Y0370671D01*
X0142379Y0370933D01*
X0141700Y0371022D01*
X0141021Y0370933D01*
X0140389Y0370671D01*
X0139846Y0370254D01*
X0139429Y0369711D01*
X0139167Y0369079D01*
X0139078Y0368400D01*
X0139167Y0367721D01*
X0139429Y0367089D01*
X0139846Y0366546D01*
X0140389Y0366129D01*
X0141021Y0365867D01*
X0141700Y0365778D01*
X0141724Y0365781D01*
X0166902Y0340602D01*
X0167498Y0340204D01*
X0168200Y0340065D01*
X0176331D01*
X0176346Y0340046D01*
X0176889Y0339629D01*
X0177521Y0339367D01*
X0178200Y0339278D01*
X0178879Y0339367D01*
X0179511Y0339629D01*
X0180054Y0340046D01*
X0180471Y0340589D01*
X0180733Y0341221D01*
X0180822Y0341900D01*
X0180733Y0342579D01*
X0180471Y0343211D01*
X0180054Y0343754D01*
X0179511Y0344171D01*
X0178879Y0344433D01*
X0178200Y0344522D01*
X0177521Y0344433D01*
X0176889Y0344171D01*
X0176346Y0343754D01*
X0176331Y0343735D01*
X0173519D01*
X0172801Y0344735D01*
X0172822Y0344900D01*
X0172733Y0345579D01*
X0172471Y0346211D01*
X0172054Y0346754D01*
X0171511Y0347171D01*
X0170879Y0347433D01*
X0170200Y0347522D01*
X0170049Y0347502D01*
X0156004Y0361548D01*
X0156664Y0362301D01*
X0156889Y0362129D01*
X0157521Y0361867D01*
X0158200Y0361778D01*
X0158879Y0361867D01*
X0159511Y0362129D01*
X0160054Y0362546D01*
X0160471Y0363089D01*
X0160733Y0363721D01*
X0160822Y0364400D01*
X0160802Y0364551D01*
X0167918Y0371667D01*
X0170200D01*
X0170863Y0371799D01*
X0171426Y0372174D01*
X0173049Y0373797D01*
X0173200Y0373778D01*
X0173879Y0373867D01*
X0174511Y0374129D01*
X0175054Y0374546D01*
X0175471Y0375089D01*
X0175733Y0375721D01*
X0175822Y0376400D01*
X0175733Y0377079D01*
X0175471Y0377711D01*
X0175054Y0378254D01*
X0174511Y0378671D01*
X0173879Y0378933D01*
X0173200Y0379022D01*
D02*
G37*
G36*
X0180200Y0399522D02*
X0179521Y0399433D01*
X0178889Y0399171D01*
X0178346Y0398754D01*
X0178253Y0398633D01*
X0157700D01*
X0157037Y0398501D01*
X0156474Y0398126D01*
X0154474Y0396126D01*
X0154099Y0395563D01*
X0153967Y0394900D01*
Y0392847D01*
X0153846Y0392754D01*
X0153429Y0392211D01*
X0153167Y0391579D01*
X0153078Y0390900D01*
X0153167Y0390221D01*
X0153429Y0389589D01*
X0153846Y0389046D01*
X0154389Y0388629D01*
X0155021Y0388367D01*
X0155700Y0388278D01*
X0156379Y0388367D01*
X0157011Y0388629D01*
X0157554Y0389046D01*
X0157971Y0389589D01*
X0158233Y0390221D01*
X0158322Y0390900D01*
X0158700Y0391278D01*
X0159379Y0391367D01*
X0160011Y0391629D01*
X0160554Y0392046D01*
X0160647Y0392167D01*
X0169209D01*
X0169592Y0391243D01*
X0165974Y0387626D01*
X0165599Y0387063D01*
X0165467Y0386400D01*
Y0386347D01*
X0165346Y0386254D01*
X0164929Y0385711D01*
X0164667Y0385079D01*
X0164578Y0384400D01*
X0164667Y0383721D01*
X0164703Y0383633D01*
X0164078Y0382633D01*
X0160147D01*
X0160054Y0382754D01*
X0159511Y0383171D01*
X0158879Y0383433D01*
X0158200Y0383522D01*
X0157521Y0383433D01*
X0156889Y0383171D01*
X0156346Y0382754D01*
X0155929Y0382211D01*
X0155667Y0381579D01*
X0155578Y0380900D01*
X0155667Y0380221D01*
X0155929Y0379589D01*
X0156346Y0379046D01*
X0156889Y0378629D01*
X0157521Y0378367D01*
X0158200Y0378278D01*
X0158879Y0378367D01*
X0159511Y0378629D01*
X0160054Y0379046D01*
X0160147Y0379167D01*
X0167700D01*
X0168363Y0379299D01*
X0168926Y0379674D01*
X0171049Y0381798D01*
X0171200Y0381778D01*
X0171879Y0381867D01*
X0172511Y0382129D01*
X0173054Y0382546D01*
X0173471Y0383089D01*
X0173733Y0383721D01*
X0173822Y0384400D01*
X0173733Y0385079D01*
X0173471Y0385711D01*
X0173054Y0386254D01*
X0172511Y0386671D01*
X0171879Y0386933D01*
X0171631Y0386966D01*
X0171241Y0387990D01*
X0172918Y0389667D01*
X0190982D01*
X0194749Y0385900D01*
X0194334Y0384900D01*
X0191200D01*
Y0375900D01*
X0183700Y0368400D01*
Y0359265D01*
X0182700Y0358851D01*
X0178933Y0362618D01*
Y0367953D01*
X0179054Y0368046D01*
X0179471Y0368589D01*
X0179733Y0369221D01*
X0179822Y0369900D01*
X0179733Y0370579D01*
X0179471Y0371211D01*
X0179054Y0371754D01*
X0178511Y0372171D01*
X0177879Y0372433D01*
X0177200Y0372522D01*
X0176521Y0372433D01*
X0175889Y0372171D01*
X0175346Y0371754D01*
X0174929Y0371211D01*
X0174667Y0370579D01*
X0174578Y0369900D01*
X0174667Y0369221D01*
X0174929Y0368589D01*
X0175346Y0368046D01*
X0175467Y0367953D01*
Y0361900D01*
X0175599Y0361237D01*
X0175974Y0360674D01*
X0182396Y0354252D01*
X0181736Y0353499D01*
X0181511Y0353671D01*
X0180879Y0353933D01*
X0180200Y0354022D01*
X0179521Y0353933D01*
X0178889Y0353671D01*
X0178346Y0353254D01*
X0177929Y0352711D01*
X0177667Y0352079D01*
X0177578Y0351400D01*
X0177667Y0350721D01*
X0177929Y0350089D01*
X0178346Y0349546D01*
X0178889Y0349129D01*
X0179521Y0348867D01*
X0180200Y0348778D01*
X0180879Y0348867D01*
X0181511Y0349129D01*
X0182054Y0349546D01*
X0182471Y0350089D01*
X0182733Y0350721D01*
X0182822Y0351400D01*
X0182733Y0352079D01*
X0182471Y0352711D01*
X0182299Y0352936D01*
X0183052Y0353596D01*
X0185098Y0351551D01*
X0185078Y0351400D01*
X0185167Y0350721D01*
X0185429Y0350089D01*
X0185846Y0349546D01*
X0186389Y0349129D01*
X0187021Y0348867D01*
X0187700Y0348778D01*
X0188379Y0348867D01*
X0189011Y0349129D01*
X0189554Y0349546D01*
X0189971Y0350089D01*
X0190233Y0350721D01*
X0190322Y0351400D01*
X0190233Y0352079D01*
X0189971Y0352711D01*
X0189554Y0353254D01*
X0189365Y0353400D01*
X0189704Y0354400D01*
X0201200D01*
X0204700Y0357900D01*
Y0366548D01*
X0205667Y0366721D01*
X0205929Y0366089D01*
X0206346Y0365546D01*
X0206889Y0365129D01*
X0207521Y0364867D01*
X0208200Y0364778D01*
X0208879Y0364867D01*
X0209511Y0365129D01*
X0210054Y0365546D01*
X0210471Y0366089D01*
X0210733Y0366721D01*
X0210822Y0367400D01*
X0210733Y0368079D01*
X0210471Y0368711D01*
X0210054Y0369254D01*
X0209933Y0369347D01*
Y0379400D01*
X0209801Y0380063D01*
X0209426Y0380626D01*
X0201012Y0389039D01*
Y0391531D01*
X0201133Y0391624D01*
X0201550Y0392167D01*
X0201812Y0392800D01*
X0201901Y0393479D01*
X0201812Y0394158D01*
X0201550Y0394790D01*
X0201133Y0395333D01*
X0200590Y0395750D01*
X0199958Y0396012D01*
X0199279Y0396101D01*
X0198600Y0396012D01*
X0197968Y0395750D01*
X0197424Y0395333D01*
X0197008Y0394790D01*
X0196746Y0394158D01*
X0196656Y0393479D01*
X0196746Y0392800D01*
X0197008Y0392167D01*
X0197424Y0391624D01*
X0197545Y0391531D01*
Y0389420D01*
X0196545Y0389006D01*
X0192926Y0392626D01*
X0192363Y0393001D01*
X0191700Y0393133D01*
X0190508D01*
X0190196Y0393760D01*
X0190122Y0394133D01*
X0190471Y0394589D01*
X0190733Y0395221D01*
X0190822Y0395900D01*
X0190733Y0396579D01*
X0190471Y0397211D01*
X0190054Y0397754D01*
X0189511Y0398171D01*
X0188879Y0398433D01*
X0188200Y0398522D01*
X0187521Y0398433D01*
X0186889Y0398171D01*
X0186346Y0397754D01*
X0185929Y0397211D01*
X0185667Y0396579D01*
X0185578Y0395900D01*
X0184604Y0395633D01*
X0183460D01*
X0182787Y0396633D01*
X0182822Y0396900D01*
X0182733Y0397579D01*
X0182471Y0398211D01*
X0182054Y0398754D01*
X0181511Y0399171D01*
X0180879Y0399433D01*
X0180200Y0399522D01*
D02*
G37*
G36*
X0279200Y0382688D02*
X0278090Y0382542D01*
X0277056Y0382113D01*
X0276168Y0381432D01*
X0275487Y0380544D01*
X0275058Y0379510D01*
X0274912Y0378400D01*
X0275058Y0377290D01*
X0275487Y0376256D01*
X0276168Y0375368D01*
X0277056Y0374687D01*
X0278090Y0374258D01*
X0279200Y0374112D01*
X0280310Y0374258D01*
X0281344Y0374687D01*
X0282232Y0375368D01*
X0282913Y0376256D01*
X0283342Y0377290D01*
X0283488Y0378400D01*
X0283342Y0379510D01*
X0282913Y0380544D01*
X0282232Y0381432D01*
X0281344Y0382113D01*
X0280310Y0382542D01*
X0279200Y0382688D01*
D02*
G37*
G36*
X0099200Y0352688D02*
X0098090Y0352542D01*
X0097056Y0352113D01*
X0096168Y0351432D01*
X0095487Y0350544D01*
X0095058Y0349510D01*
X0094912Y0348400D01*
X0095058Y0347290D01*
X0095487Y0346256D01*
X0096168Y0345368D01*
X0097056Y0344687D01*
X0098090Y0344258D01*
X0099200Y0344112D01*
X0100310Y0344258D01*
X0101344Y0344687D01*
X0102232Y0345368D01*
X0102913Y0346256D01*
X0103342Y0347290D01*
X0103488Y0348400D01*
X0103342Y0349510D01*
X0102913Y0350544D01*
X0102232Y0351432D01*
X0101344Y0352113D01*
X0100310Y0352542D01*
X0099200Y0352688D01*
D02*
G37*
G36*
X0229200Y0332886D02*
X0228039Y0332733D01*
X0226957Y0332285D01*
X0226028Y0331572D01*
X0225315Y0330643D01*
X0224867Y0329561D01*
X0224714Y0328400D01*
X0224867Y0327239D01*
X0225315Y0326157D01*
X0226028Y0325228D01*
X0226957Y0324515D01*
X0228039Y0324066D01*
X0229200Y0323914D01*
X0230361Y0324066D01*
X0231443Y0324515D01*
X0232372Y0325228D01*
X0233085Y0326157D01*
X0233534Y0327239D01*
X0233686Y0328400D01*
X0233534Y0329561D01*
X0233085Y0330643D01*
X0232372Y0331572D01*
X0231443Y0332285D01*
X0230361Y0332733D01*
X0229200Y0332886D01*
D02*
G37*
G36*
X0283648Y0312848D02*
X0274752D01*
Y0303952D01*
X0283648D01*
Y0312848D01*
D02*
G37*
G36*
X0103648D02*
X0094752D01*
Y0303952D01*
X0103648D01*
Y0312848D01*
D02*
G37*
G36*
X0239200Y0332886D02*
X0238039Y0332733D01*
X0236957Y0332285D01*
X0236028Y0331572D01*
X0235315Y0330643D01*
X0234866Y0329561D01*
X0234714Y0328400D01*
X0234866Y0327239D01*
X0235315Y0326157D01*
X0236028Y0325228D01*
X0236957Y0324515D01*
X0238039Y0324066D01*
X0239200Y0323914D01*
X0240361Y0324066D01*
X0241443Y0324515D01*
X0242372Y0325228D01*
X0243085Y0326157D01*
X0243533Y0327239D01*
X0243686Y0328400D01*
X0243533Y0329561D01*
X0243085Y0330643D01*
X0242372Y0331572D01*
X0241443Y0332285D01*
X0240361Y0332733D01*
X0239200Y0332886D01*
D02*
G37*
G36*
X0224200Y0356022D02*
X0223521Y0355933D01*
X0222889Y0355671D01*
X0222346Y0355254D01*
X0221929Y0354711D01*
X0221667Y0354079D01*
X0221578Y0353400D01*
X0221667Y0352721D01*
X0221929Y0352089D01*
X0222346Y0351546D01*
X0222889Y0351129D01*
X0223521Y0350867D01*
X0224200Y0350778D01*
X0224351Y0350798D01*
X0231273Y0343875D01*
X0230859Y0342875D01*
X0227176D01*
X0221802Y0348249D01*
X0221822Y0348400D01*
X0221733Y0349079D01*
X0221471Y0349711D01*
X0221054Y0350254D01*
X0220511Y0350671D01*
X0219879Y0350933D01*
X0219200Y0351022D01*
X0218521Y0350933D01*
X0217889Y0350671D01*
X0217346Y0350254D01*
X0216929Y0349711D01*
X0216667Y0349079D01*
X0216578Y0348400D01*
X0216667Y0347721D01*
X0216929Y0347089D01*
X0217346Y0346546D01*
X0217889Y0346129D01*
X0218521Y0345867D01*
X0219200Y0345778D01*
X0219351Y0345797D01*
X0224725Y0340424D01*
Y0335347D01*
X0224833Y0334803D01*
X0225141Y0334341D01*
X0225603Y0334033D01*
X0226147Y0333925D01*
X0232253D01*
X0232797Y0334033D01*
X0233259Y0334341D01*
X0233567Y0334803D01*
X0233675Y0335347D01*
Y0338910D01*
X0234675Y0339444D01*
X0234725Y0339411D01*
Y0335347D01*
X0234833Y0334803D01*
X0235141Y0334341D01*
X0235603Y0334033D01*
X0236147Y0333925D01*
X0242253D01*
X0242797Y0334033D01*
X0243259Y0334341D01*
X0243567Y0334803D01*
X0243675Y0335347D01*
Y0341453D01*
X0243567Y0341997D01*
X0243259Y0342459D01*
X0242797Y0342767D01*
X0242253Y0342875D01*
X0237176D01*
X0226802Y0353249D01*
X0226822Y0353400D01*
X0226733Y0354079D01*
X0226471Y0354711D01*
X0226054Y0355254D01*
X0225511Y0355671D01*
X0224879Y0355933D01*
X0224200Y0356022D01*
D02*
G37*
G36*
X0162253Y0342875D02*
X0156147D01*
X0155603Y0342767D01*
X0155141Y0342459D01*
X0154833Y0341997D01*
X0154725Y0341453D01*
Y0336020D01*
X0154200Y0335705D01*
X0153912Y0335878D01*
X0153675Y0336182D01*
Y0341453D01*
X0153567Y0341997D01*
X0153259Y0342459D01*
X0152797Y0342767D01*
X0152253Y0342875D01*
X0146147D01*
X0145603Y0342767D01*
X0145141Y0342459D01*
X0144833Y0341997D01*
X0144725Y0341453D01*
Y0337890D01*
X0143725Y0337356D01*
X0143675Y0337389D01*
Y0341453D01*
X0143567Y0341997D01*
X0143259Y0342459D01*
X0142797Y0342767D01*
X0142253Y0342875D01*
X0136147D01*
X0135603Y0342767D01*
X0135141Y0342459D01*
X0134833Y0341997D01*
X0134725Y0341453D01*
Y0335347D01*
X0134833Y0334803D01*
X0135141Y0334341D01*
X0135603Y0334033D01*
X0136147Y0333925D01*
X0141224D01*
X0142130Y0333019D01*
X0141469Y0332266D01*
X0141443Y0332285D01*
X0140361Y0332733D01*
X0139200Y0332886D01*
X0138039Y0332733D01*
X0136957Y0332285D01*
X0136028Y0331572D01*
X0135315Y0330643D01*
X0134866Y0329561D01*
X0134714Y0328400D01*
X0134866Y0327239D01*
X0135315Y0326157D01*
X0136028Y0325228D01*
X0136957Y0324515D01*
X0138039Y0324066D01*
X0139200Y0323914D01*
X0140361Y0324066D01*
X0141443Y0324515D01*
X0142372Y0325228D01*
X0143085Y0326157D01*
X0143534Y0327239D01*
X0143686Y0328400D01*
X0143534Y0329561D01*
X0143085Y0330643D01*
X0142685Y0331165D01*
X0143378Y0331905D01*
X0143537Y0331799D01*
X0144200Y0331667D01*
X0144840D01*
X0145333Y0330667D01*
X0145315Y0330643D01*
X0144867Y0329561D01*
X0144714Y0328400D01*
X0144867Y0327239D01*
X0145315Y0326157D01*
X0146028Y0325228D01*
X0146957Y0324515D01*
X0148039Y0324066D01*
X0149200Y0323914D01*
X0150361Y0324066D01*
X0151443Y0324515D01*
X0152372Y0325228D01*
X0153085Y0326157D01*
X0153533Y0327239D01*
X0153686Y0328400D01*
X0153533Y0329561D01*
X0153085Y0330643D01*
X0153067Y0330667D01*
X0153560Y0331667D01*
X0163797D01*
X0167782Y0327682D01*
Y0320347D01*
X0167661Y0320254D01*
X0167244Y0319711D01*
X0166982Y0319079D01*
X0166893Y0318400D01*
X0166982Y0317721D01*
X0167244Y0317089D01*
X0167661Y0316546D01*
X0168204Y0316129D01*
X0168836Y0315867D01*
X0169515Y0315778D01*
X0170194Y0315867D01*
X0170826Y0316129D01*
X0171369Y0316546D01*
X0171786Y0317089D01*
X0172048Y0317721D01*
X0172137Y0318400D01*
X0172048Y0319079D01*
X0171786Y0319711D01*
X0171369Y0320254D01*
X0171248Y0320347D01*
Y0328400D01*
X0171116Y0329063D01*
X0170741Y0329626D01*
X0165741Y0334626D01*
X0165178Y0335001D01*
X0164647Y0335107D01*
X0163675Y0335347D01*
Y0341453D01*
X0163567Y0341997D01*
X0163259Y0342459D01*
X0162797Y0342767D01*
X0162253Y0342875D01*
D02*
G37*
G36*
X0201011Y0332688D02*
X0199901Y0332542D01*
X0198867Y0332113D01*
X0197979Y0331432D01*
X0197675Y0331036D01*
X0196473D01*
X0196169Y0331432D01*
X0195281Y0332113D01*
X0194247Y0332542D01*
X0193137Y0332688D01*
X0192027Y0332542D01*
X0190993Y0332113D01*
X0190105Y0331432D01*
X0189801Y0331036D01*
X0188599D01*
X0188295Y0331432D01*
X0187407Y0332113D01*
X0186373Y0332542D01*
X0185263Y0332688D01*
X0184153Y0332542D01*
X0183119Y0332113D01*
X0182231Y0331432D01*
X0181550Y0330544D01*
X0181121Y0329510D01*
X0180975Y0328400D01*
X0181121Y0327290D01*
X0181550Y0326256D01*
X0182231Y0325368D01*
X0183119Y0324687D01*
X0184153Y0324258D01*
X0185263Y0324112D01*
X0186373Y0324258D01*
X0187407Y0324687D01*
X0188295Y0325368D01*
X0188599Y0325764D01*
X0189801D01*
X0190105Y0325368D01*
X0190993Y0324687D01*
X0192027Y0324258D01*
X0193137Y0324112D01*
X0194247Y0324258D01*
X0195281Y0324687D01*
X0196169Y0325368D01*
X0196473Y0325764D01*
X0197675D01*
X0197979Y0325368D01*
X0198867Y0324687D01*
X0199901Y0324258D01*
X0201011Y0324112D01*
X0202121Y0324258D01*
X0203155Y0324687D01*
X0204043Y0325368D01*
X0204724Y0326256D01*
X0205153Y0327290D01*
X0205299Y0328400D01*
X0205153Y0329510D01*
X0204724Y0330544D01*
X0204043Y0331432D01*
X0203155Y0332113D01*
X0202121Y0332542D01*
X0201011Y0332688D01*
D02*
G37*
G36*
X0279200Y0392688D02*
X0278090Y0392542D01*
X0277056Y0392113D01*
X0276168Y0391432D01*
X0275487Y0390544D01*
X0275058Y0389510D01*
X0274912Y0388400D01*
X0275058Y0387290D01*
X0275487Y0386256D01*
X0276168Y0385368D01*
X0277056Y0384687D01*
X0278090Y0384258D01*
X0279200Y0384112D01*
X0280310Y0384258D01*
X0281344Y0384687D01*
X0282232Y0385368D01*
X0282913Y0386256D01*
X0283342Y0387290D01*
X0283488Y0388400D01*
X0283342Y0389510D01*
X0282913Y0390544D01*
X0282232Y0391432D01*
X0281344Y0392113D01*
X0280310Y0392542D01*
X0279200Y0392688D01*
D02*
G37*
G36*
X0113200Y0458022D02*
X0112521Y0457933D01*
X0111889Y0457671D01*
X0111346Y0457254D01*
X0111253Y0457133D01*
X0107147D01*
X0107054Y0457254D01*
X0106511Y0457671D01*
X0105879Y0457933D01*
X0105200Y0458022D01*
X0104521Y0457933D01*
X0103889Y0457671D01*
X0103346Y0457254D01*
X0102929Y0456711D01*
X0102667Y0456079D01*
X0102578Y0455400D01*
X0102667Y0454721D01*
X0102929Y0454089D01*
X0103346Y0453546D01*
X0103889Y0453129D01*
X0104521Y0452867D01*
X0105200Y0452778D01*
X0105879Y0452867D01*
X0106511Y0453129D01*
X0107054Y0453546D01*
X0107147Y0453667D01*
X0111253D01*
X0111346Y0453546D01*
X0111889Y0453129D01*
X0112521Y0452867D01*
X0113200Y0452778D01*
X0113879Y0452867D01*
X0114511Y0453129D01*
X0115054Y0453546D01*
X0115471Y0454089D01*
X0115733Y0454721D01*
X0115822Y0455400D01*
X0115733Y0456079D01*
X0115471Y0456711D01*
X0115054Y0457254D01*
X0114511Y0457671D01*
X0113879Y0457933D01*
X0113200Y0458022D01*
D02*
G37*
G36*
X0283700Y0457522D02*
X0283021Y0457433D01*
X0282389Y0457171D01*
X0281846Y0456754D01*
X0281753Y0456633D01*
X0272147D01*
X0272054Y0456754D01*
X0271511Y0457171D01*
X0270879Y0457433D01*
X0270200Y0457522D01*
X0269521Y0457433D01*
X0268889Y0457171D01*
X0268346Y0456754D01*
X0267929Y0456211D01*
X0267667Y0455579D01*
X0267578Y0454900D01*
X0267667Y0454221D01*
X0267929Y0453589D01*
X0268346Y0453046D01*
X0268889Y0452629D01*
X0269521Y0452367D01*
X0270200Y0452278D01*
X0270879Y0452367D01*
X0271511Y0452629D01*
X0272054Y0453046D01*
X0272147Y0453167D01*
X0281753D01*
X0281846Y0453046D01*
X0282389Y0452629D01*
X0283021Y0452367D01*
X0283700Y0452278D01*
X0284379Y0452367D01*
X0285011Y0452629D01*
X0285554Y0453046D01*
X0285971Y0453589D01*
X0286233Y0454221D01*
X0286322Y0454900D01*
X0286233Y0455579D01*
X0285971Y0456211D01*
X0285554Y0456754D01*
X0285011Y0457171D01*
X0284379Y0457433D01*
X0283700Y0457522D01*
D02*
G37*
G36*
X0207700Y0440522D02*
X0207021Y0440433D01*
X0206389Y0440171D01*
X0205846Y0439754D01*
X0205622Y0439463D01*
X0205011Y0438671D01*
X0204379Y0438933D01*
X0203700Y0439022D01*
X0203021Y0438933D01*
X0202389Y0438671D01*
X0201846Y0438254D01*
X0201737Y0438113D01*
X0201353Y0438100D01*
X0200635Y0438316D01*
X0200471Y0438711D01*
X0200054Y0439254D01*
X0199511Y0439671D01*
X0198879Y0439933D01*
X0198200Y0440022D01*
X0197521Y0439933D01*
X0196889Y0439671D01*
X0196346Y0439254D01*
X0195929Y0438711D01*
X0195667Y0438079D01*
X0195578Y0437400D01*
X0195598Y0437249D01*
X0190790Y0432441D01*
X0189766Y0432831D01*
X0189733Y0433079D01*
X0189471Y0433711D01*
X0189054Y0434254D01*
X0188511Y0434671D01*
X0187879Y0434933D01*
X0187200Y0435022D01*
X0186521Y0434933D01*
X0185889Y0434671D01*
X0185346Y0434254D01*
X0184929Y0433711D01*
X0184667Y0433079D01*
X0184578Y0432400D01*
X0184667Y0431721D01*
X0184929Y0431089D01*
X0185346Y0430546D01*
X0185467Y0430453D01*
Y0427400D01*
X0185599Y0426737D01*
X0185974Y0426174D01*
X0193974Y0418174D01*
X0194537Y0417799D01*
X0195200Y0417667D01*
X0197601D01*
X0197790Y0417437D01*
X0198069Y0416721D01*
X0196982Y0415633D01*
X0196200D01*
X0195537Y0415501D01*
X0194974Y0415126D01*
X0194974Y0415126D01*
X0190851Y0411002D01*
X0190700Y0411022D01*
X0190021Y0410933D01*
X0189389Y0410671D01*
X0188846Y0410254D01*
X0187592Y0410158D01*
X0177925Y0419826D01*
X0177363Y0420201D01*
X0176699Y0420333D01*
X0176147D01*
X0176054Y0420454D01*
X0175511Y0420871D01*
X0174879Y0421133D01*
X0174200Y0421222D01*
X0173521Y0421133D01*
X0172889Y0420871D01*
X0172346Y0420454D01*
X0171929Y0419911D01*
X0171667Y0419279D01*
X0171578Y0418600D01*
X0171667Y0417921D01*
X0171929Y0417289D01*
X0172346Y0416746D01*
X0172889Y0416329D01*
X0173521Y0416067D01*
X0174200Y0415978D01*
X0174879Y0416067D01*
X0175511Y0416329D01*
X0176054Y0416746D01*
X0176100Y0416749D01*
X0188824Y0404025D01*
X0188824Y0404025D01*
X0189386Y0403649D01*
X0190049Y0403517D01*
X0190049Y0403517D01*
X0196050D01*
X0196713Y0403649D01*
X0197276Y0404025D01*
X0199918Y0406667D01*
X0211753D01*
X0211846Y0406546D01*
X0212389Y0406129D01*
X0213021Y0405867D01*
X0213700Y0405778D01*
X0214379Y0405867D01*
X0215011Y0406129D01*
X0215554Y0406546D01*
X0215971Y0407089D01*
X0216233Y0407721D01*
X0216322Y0408400D01*
X0216233Y0409079D01*
X0215971Y0409711D01*
X0215554Y0410254D01*
X0215011Y0410671D01*
X0214379Y0410933D01*
X0213700Y0411022D01*
X0213021Y0410933D01*
X0212389Y0410671D01*
X0211846Y0410254D01*
X0211753Y0410133D01*
X0200691D01*
X0200308Y0411057D01*
X0205412Y0416161D01*
X0205788Y0416723D01*
X0205920Y0417386D01*
Y0418168D01*
X0210049Y0422297D01*
X0210200Y0422278D01*
X0210879Y0422367D01*
X0211511Y0422629D01*
X0212054Y0423046D01*
X0212471Y0423589D01*
X0212733Y0424221D01*
X0212822Y0424900D01*
X0212733Y0425579D01*
X0212471Y0426211D01*
X0212054Y0426754D01*
X0211511Y0427171D01*
X0210879Y0427433D01*
X0210200Y0427522D01*
X0210184Y0427520D01*
X0209320Y0428384D01*
X0209322Y0428400D01*
X0209233Y0429079D01*
X0208971Y0429711D01*
X0208554Y0430254D01*
X0208011Y0430671D01*
X0207534Y0430869D01*
X0207304Y0431403D01*
X0207215Y0431963D01*
X0208926Y0433674D01*
X0209301Y0434237D01*
X0209433Y0434900D01*
Y0435953D01*
X0209554Y0436046D01*
X0209971Y0436589D01*
X0210233Y0437221D01*
X0210322Y0437900D01*
X0210233Y0438579D01*
X0209971Y0439211D01*
X0209554Y0439754D01*
X0209011Y0440171D01*
X0208379Y0440433D01*
X0207700Y0440522D01*
D02*
G37*
G36*
X0274200Y0473022D02*
X0273521Y0472933D01*
X0272889Y0472671D01*
X0272346Y0472254D01*
X0271929Y0471711D01*
X0271667Y0471079D01*
X0271578Y0470400D01*
X0271667Y0469721D01*
X0271929Y0469089D01*
X0272346Y0468546D01*
X0272889Y0468129D01*
X0273521Y0467867D01*
X0274200Y0467778D01*
X0274879Y0467867D01*
X0275511Y0468129D01*
X0276054Y0468546D01*
X0276471Y0469089D01*
X0276733Y0469721D01*
X0276822Y0470400D01*
X0276733Y0471079D01*
X0276471Y0471711D01*
X0276054Y0472254D01*
X0275511Y0472671D01*
X0274879Y0472933D01*
X0274200Y0473022D01*
D02*
G37*
G36*
X0102068Y0442678D02*
X0096332D01*
X0095792Y0442571D01*
X0095335Y0442265D01*
X0095029Y0441808D01*
X0094922Y0441268D01*
Y0435532D01*
X0095029Y0434992D01*
X0095335Y0434535D01*
X0095792Y0434229D01*
X0096332Y0434122D01*
X0102068D01*
X0102608Y0434229D01*
X0103065Y0434535D01*
X0103371Y0434992D01*
X0103478Y0435532D01*
Y0441268D01*
X0103371Y0441808D01*
X0103065Y0442265D01*
X0102608Y0442571D01*
X0102068Y0442678D01*
D02*
G37*
G36*
X0269200Y0402688D02*
X0268090Y0402542D01*
X0267056Y0402113D01*
X0266168Y0401432D01*
X0265487Y0400544D01*
X0265058Y0399510D01*
X0264912Y0398400D01*
X0265011Y0397651D01*
X0264054Y0397254D01*
X0263511Y0397671D01*
X0262879Y0397933D01*
X0262200Y0398022D01*
X0261521Y0397933D01*
X0260889Y0397671D01*
X0260346Y0397254D01*
X0259929Y0396711D01*
X0259667Y0396079D01*
X0259578Y0395400D01*
X0259667Y0394721D01*
X0259929Y0394089D01*
X0260346Y0393546D01*
X0260889Y0393129D01*
X0261521Y0392867D01*
X0262200Y0392778D01*
X0262351Y0392797D01*
X0265228Y0389920D01*
X0265058Y0389510D01*
X0264912Y0388400D01*
X0265058Y0387290D01*
X0265487Y0386256D01*
X0266168Y0385368D01*
X0267056Y0384687D01*
X0268090Y0384258D01*
X0269200Y0384112D01*
X0270310Y0384258D01*
X0271344Y0384687D01*
X0272232Y0385368D01*
X0272913Y0386256D01*
X0273342Y0387290D01*
X0273488Y0388400D01*
X0273342Y0389510D01*
X0272913Y0390544D01*
X0272232Y0391432D01*
X0271344Y0392113D01*
X0270310Y0392542D01*
X0269200Y0392688D01*
X0268090Y0392542D01*
X0267680Y0392372D01*
X0265396Y0394655D01*
X0265412Y0394738D01*
X0265529Y0394835D01*
X0266506Y0395109D01*
X0267056Y0394687D01*
X0268090Y0394258D01*
X0269200Y0394112D01*
X0270310Y0394258D01*
X0271344Y0394687D01*
X0272232Y0395368D01*
X0272913Y0396256D01*
X0273342Y0397290D01*
X0273488Y0398400D01*
X0273342Y0399510D01*
X0272913Y0400544D01*
X0272232Y0401432D01*
X0271344Y0402113D01*
X0270310Y0402542D01*
X0269200Y0402688D01*
D02*
G37*
G36*
X0279200D02*
X0278090Y0402542D01*
X0277056Y0402113D01*
X0276168Y0401432D01*
X0275487Y0400544D01*
X0275058Y0399510D01*
X0274912Y0398400D01*
X0275058Y0397290D01*
X0275487Y0396256D01*
X0276168Y0395368D01*
X0277056Y0394687D01*
X0278090Y0394258D01*
X0279200Y0394112D01*
X0280310Y0394258D01*
X0281344Y0394687D01*
X0282232Y0395368D01*
X0282913Y0396256D01*
X0283342Y0397290D01*
X0283488Y0398400D01*
X0283342Y0399510D01*
X0282913Y0400544D01*
X0282232Y0401432D01*
X0281344Y0402113D01*
X0280310Y0402542D01*
X0279200Y0402688D01*
D02*
G37*
G36*
X0099200Y0432688D02*
X0098090Y0432542D01*
X0097056Y0432113D01*
X0096168Y0431432D01*
X0095487Y0430544D01*
X0095058Y0429510D01*
X0094912Y0428400D01*
X0095058Y0427290D01*
X0095487Y0426256D01*
X0095746Y0425918D01*
X0095763Y0425865D01*
X0095538Y0424678D01*
X0095514Y0424652D01*
X0095474Y0424626D01*
X0092974Y0422126D01*
X0092599Y0421563D01*
X0092467Y0420900D01*
Y0403400D01*
X0092599Y0402737D01*
X0092974Y0402174D01*
X0095228Y0399920D01*
X0095058Y0399510D01*
X0094912Y0398400D01*
X0095058Y0397290D01*
X0095487Y0396256D01*
X0096168Y0395368D01*
X0097056Y0394687D01*
X0098090Y0394258D01*
X0099200Y0394112D01*
X0100310Y0394258D01*
X0101344Y0394687D01*
X0101467Y0394781D01*
X0102467Y0394288D01*
Y0392512D01*
X0101467Y0392019D01*
X0101344Y0392113D01*
X0100310Y0392542D01*
X0099200Y0392688D01*
X0098090Y0392542D01*
X0097056Y0392113D01*
X0096168Y0391432D01*
X0095487Y0390544D01*
X0095058Y0389510D01*
X0094912Y0388400D01*
X0095058Y0387290D01*
X0095487Y0386256D01*
X0096168Y0385368D01*
X0097056Y0384687D01*
X0098090Y0384258D01*
X0099200Y0384112D01*
X0100310Y0384258D01*
X0101344Y0384687D01*
X0101467Y0384781D01*
X0102467Y0384288D01*
Y0382512D01*
X0101467Y0382019D01*
X0101344Y0382113D01*
X0100310Y0382542D01*
X0099200Y0382688D01*
X0098090Y0382542D01*
X0097056Y0382113D01*
X0096168Y0381432D01*
X0095487Y0380544D01*
X0095058Y0379510D01*
X0094912Y0378400D01*
X0095058Y0377290D01*
X0095487Y0376256D01*
X0096168Y0375368D01*
X0097056Y0374687D01*
X0098090Y0374258D01*
X0099200Y0374112D01*
X0100310Y0374258D01*
X0100668Y0374407D01*
X0101779Y0373815D01*
X0101834Y0373485D01*
X0100720Y0372372D01*
X0100310Y0372542D01*
X0099200Y0372688D01*
X0098090Y0372542D01*
X0097056Y0372113D01*
X0096168Y0371432D01*
X0095487Y0370544D01*
X0095058Y0369510D01*
X0094912Y0368400D01*
X0095058Y0367290D01*
X0095487Y0366256D01*
X0096168Y0365368D01*
X0097056Y0364687D01*
X0098090Y0364258D01*
X0099200Y0364112D01*
X0100310Y0364258D01*
X0101344Y0364687D01*
X0102232Y0365368D01*
X0102913Y0366256D01*
X0103342Y0367290D01*
X0103488Y0368400D01*
X0103342Y0369510D01*
X0103172Y0369920D01*
X0105426Y0372174D01*
X0105801Y0372737D01*
X0105933Y0373400D01*
Y0374288D01*
X0106933Y0374781D01*
X0107056Y0374687D01*
X0108090Y0374258D01*
X0109200Y0374112D01*
X0110310Y0374258D01*
X0111335Y0374683D01*
X0111369Y0374668D01*
X0112113Y0374119D01*
X0112164Y0374055D01*
X0112078Y0373400D01*
X0112164Y0372745D01*
X0112113Y0372681D01*
X0111369Y0372132D01*
X0111335Y0372117D01*
X0110310Y0372542D01*
X0109200Y0372688D01*
X0108090Y0372542D01*
X0107056Y0372113D01*
X0106168Y0371432D01*
X0105487Y0370544D01*
X0105058Y0369510D01*
X0104912Y0368400D01*
X0105058Y0367290D01*
X0105487Y0366256D01*
X0106168Y0365368D01*
X0107056Y0364687D01*
X0108090Y0364258D01*
X0109200Y0364112D01*
X0110310Y0364258D01*
X0111344Y0364687D01*
X0112232Y0365368D01*
X0112913Y0366256D01*
X0113342Y0367290D01*
X0113488Y0368400D01*
X0113342Y0369510D01*
X0113064Y0370181D01*
X0113809Y0370955D01*
X0114021Y0370867D01*
X0114700Y0370778D01*
X0115379Y0370867D01*
X0116011Y0371129D01*
X0116554Y0371546D01*
X0116971Y0372089D01*
X0117233Y0372721D01*
X0117322Y0373400D01*
X0117233Y0374079D01*
X0116971Y0374711D01*
X0116554Y0375254D01*
X0116433Y0375347D01*
Y0397182D01*
X0123426Y0404174D01*
X0123801Y0404737D01*
X0123933Y0405400D01*
Y0415544D01*
X0124200Y0415778D01*
X0124879Y0415867D01*
X0125511Y0416129D01*
X0126054Y0416546D01*
X0126471Y0417089D01*
X0126733Y0417721D01*
X0126822Y0418400D01*
X0126733Y0419079D01*
X0126471Y0419711D01*
X0126054Y0420254D01*
X0125511Y0420671D01*
X0124879Y0420933D01*
X0124200Y0421022D01*
X0124049Y0421002D01*
X0120426Y0424626D01*
X0119863Y0425001D01*
X0119200Y0425133D01*
X0103312D01*
X0102819Y0426133D01*
X0102913Y0426256D01*
X0103342Y0427290D01*
X0103488Y0428400D01*
X0103342Y0429510D01*
X0102913Y0430544D01*
X0102232Y0431432D01*
X0101344Y0432113D01*
X0100310Y0432542D01*
X0099200Y0432688D01*
D02*
G37*
G36*
X0279200D02*
X0278090Y0432542D01*
X0277056Y0432113D01*
X0276168Y0431432D01*
X0275487Y0430544D01*
X0275058Y0429510D01*
X0274912Y0428400D01*
X0275058Y0427290D01*
X0275487Y0426256D01*
X0276168Y0425368D01*
X0277056Y0424687D01*
X0278090Y0424258D01*
X0279200Y0424112D01*
X0280310Y0424258D01*
X0281344Y0424687D01*
X0282232Y0425368D01*
X0282913Y0426256D01*
X0283342Y0427290D01*
X0283488Y0428400D01*
X0283342Y0429510D01*
X0282913Y0430544D01*
X0282232Y0431432D01*
X0281344Y0432113D01*
X0280310Y0432542D01*
X0279200Y0432688D01*
D02*
G37*
G36*
X0269200Y0442688D02*
X0268090Y0442542D01*
X0267056Y0442113D01*
X0266168Y0441432D01*
X0265487Y0440544D01*
X0265058Y0439510D01*
X0264912Y0438400D01*
X0265058Y0437290D01*
X0265487Y0436256D01*
X0266168Y0435368D01*
X0267056Y0434687D01*
X0268090Y0434258D01*
X0269200Y0434112D01*
X0270310Y0434258D01*
X0271344Y0434687D01*
X0272232Y0435368D01*
X0272913Y0436256D01*
X0273342Y0437290D01*
X0273488Y0438400D01*
X0273342Y0439510D01*
X0272913Y0440544D01*
X0272232Y0441432D01*
X0271344Y0442113D01*
X0270310Y0442542D01*
X0269200Y0442688D01*
D02*
G37*
G36*
X0109200D02*
X0108090Y0442542D01*
X0107056Y0442113D01*
X0106168Y0441432D01*
X0105487Y0440544D01*
X0105058Y0439510D01*
X0104912Y0438400D01*
X0105058Y0437290D01*
X0105487Y0436256D01*
X0106168Y0435368D01*
X0107056Y0434687D01*
X0108090Y0434258D01*
X0109200Y0434112D01*
X0110310Y0434258D01*
X0111344Y0434687D01*
X0112232Y0435368D01*
X0112913Y0436256D01*
X0113342Y0437290D01*
X0113488Y0438400D01*
X0113342Y0439510D01*
X0112913Y0440544D01*
X0112232Y0441432D01*
X0111344Y0442113D01*
X0110310Y0442542D01*
X0109200Y0442688D01*
D02*
G37*
G36*
X0269200Y0432688D02*
X0268090Y0432542D01*
X0267056Y0432113D01*
X0266168Y0431432D01*
X0265487Y0430544D01*
X0265058Y0429510D01*
X0265046Y0429417D01*
X0264524Y0428967D01*
X0263964Y0428856D01*
X0263733Y0429079D01*
X0263471Y0429711D01*
X0263054Y0430254D01*
X0262511Y0430671D01*
X0261879Y0430933D01*
X0261200Y0431022D01*
X0260521Y0430933D01*
X0259889Y0430671D01*
X0259346Y0430254D01*
X0258929Y0429711D01*
X0258667Y0429079D01*
X0258578Y0428400D01*
X0258667Y0427721D01*
X0258929Y0427089D01*
X0258994Y0427004D01*
X0258552Y0425937D01*
X0258521Y0425933D01*
X0257889Y0425671D01*
X0257346Y0425254D01*
X0256929Y0424711D01*
X0256667Y0424079D01*
X0256578Y0423400D01*
X0256667Y0422721D01*
X0256929Y0422089D01*
X0257346Y0421546D01*
X0257889Y0421129D01*
X0258521Y0420867D01*
X0259200Y0420778D01*
X0259351Y0420797D01*
X0262467Y0417682D01*
Y0415400D01*
X0262599Y0414737D01*
X0262974Y0414174D01*
X0264974Y0412174D01*
X0265307Y0411952D01*
X0265616Y0411068D01*
X0265650Y0410756D01*
X0265487Y0410544D01*
X0265058Y0409510D01*
X0264912Y0408400D01*
X0265058Y0407290D01*
X0265487Y0406256D01*
X0266168Y0405368D01*
X0267056Y0404687D01*
X0268090Y0404258D01*
X0269200Y0404112D01*
X0270310Y0404258D01*
X0271344Y0404687D01*
X0272232Y0405368D01*
X0272913Y0406256D01*
X0273342Y0407290D01*
X0273488Y0408400D01*
X0273342Y0409510D01*
X0273193Y0409868D01*
X0273785Y0410979D01*
X0274115Y0411034D01*
X0275228Y0409920D01*
X0275058Y0409510D01*
X0274912Y0408400D01*
X0275058Y0407290D01*
X0275487Y0406256D01*
X0276168Y0405368D01*
X0277056Y0404687D01*
X0278090Y0404258D01*
X0279200Y0404112D01*
X0280310Y0404258D01*
X0281344Y0404687D01*
X0282232Y0405368D01*
X0282913Y0406256D01*
X0283342Y0407290D01*
X0283488Y0408400D01*
X0283342Y0409510D01*
X0282913Y0410544D01*
X0282232Y0411432D01*
X0281344Y0412113D01*
X0280310Y0412542D01*
X0279200Y0412688D01*
X0278090Y0412542D01*
X0277680Y0412372D01*
X0275426Y0414626D01*
X0274863Y0415001D01*
X0274200Y0415133D01*
X0273312D01*
X0272819Y0416133D01*
X0272913Y0416256D01*
X0273342Y0417290D01*
X0273488Y0418400D01*
X0273342Y0419510D01*
X0272992Y0420353D01*
X0273189Y0421018D01*
X0273457Y0421478D01*
X0273632Y0421516D01*
X0275228Y0419920D01*
X0275058Y0419510D01*
X0274912Y0418400D01*
X0275058Y0417290D01*
X0275487Y0416256D01*
X0276168Y0415368D01*
X0277056Y0414687D01*
X0278090Y0414258D01*
X0279200Y0414112D01*
X0280310Y0414258D01*
X0281344Y0414687D01*
X0282232Y0415368D01*
X0282913Y0416256D01*
X0283342Y0417290D01*
X0283488Y0418400D01*
X0283342Y0419510D01*
X0282913Y0420544D01*
X0282232Y0421432D01*
X0281344Y0422113D01*
X0280310Y0422542D01*
X0279200Y0422688D01*
X0278090Y0422542D01*
X0277680Y0422372D01*
X0274926Y0425126D01*
X0274363Y0425501D01*
X0273700Y0425633D01*
X0273597D01*
X0273070Y0426633D01*
X0273342Y0427290D01*
X0273488Y0428400D01*
X0273342Y0429510D01*
X0272913Y0430544D01*
X0272232Y0431432D01*
X0271344Y0432113D01*
X0270310Y0432542D01*
X0269200Y0432688D01*
D02*
G37*
G36*
X0164200Y0558022D02*
X0163521Y0557933D01*
X0162889Y0557671D01*
X0162346Y0557254D01*
X0161929Y0556711D01*
X0161667Y0556079D01*
X0161578Y0555400D01*
X0161667Y0554721D01*
X0161929Y0554089D01*
X0162346Y0553546D01*
X0162889Y0553129D01*
X0163521Y0552867D01*
X0164200Y0552778D01*
X0164879Y0552867D01*
X0165511Y0553129D01*
X0166054Y0553546D01*
X0166471Y0554089D01*
X0166733Y0554721D01*
X0166822Y0555400D01*
X0166733Y0556079D01*
X0166471Y0556711D01*
X0166054Y0557254D01*
X0165511Y0557671D01*
X0164879Y0557933D01*
X0164200Y0558022D01*
D02*
G37*
G36*
X0164700Y0551522D02*
X0164021Y0551433D01*
X0163389Y0551171D01*
X0162846Y0550754D01*
X0162429Y0550211D01*
X0162167Y0549579D01*
X0162078Y0548900D01*
X0162167Y0548221D01*
X0162429Y0547589D01*
X0162846Y0547046D01*
X0163389Y0546629D01*
X0164021Y0546367D01*
X0164700Y0546278D01*
X0165379Y0546367D01*
X0166011Y0546629D01*
X0166554Y0547046D01*
X0166971Y0547589D01*
X0167233Y0548221D01*
X0167322Y0548900D01*
X0167233Y0549579D01*
X0166971Y0550211D01*
X0166554Y0550754D01*
X0166011Y0551171D01*
X0165379Y0551433D01*
X0164700Y0551522D01*
D02*
G37*
G36*
X0218700Y0540522D02*
X0218021Y0540433D01*
X0217389Y0540171D01*
X0216846Y0539754D01*
X0216429Y0539211D01*
X0216167Y0538579D01*
X0216078Y0537900D01*
X0216167Y0537221D01*
X0216429Y0536589D01*
X0216846Y0536046D01*
X0217069Y0535875D01*
Y0534400D01*
X0217193Y0533776D01*
X0217547Y0533247D01*
X0218495Y0532298D01*
X0218402Y0531306D01*
X0218286Y0531092D01*
X0217846Y0530754D01*
X0217429Y0530211D01*
X0217167Y0529579D01*
X0217078Y0528900D01*
X0217167Y0528221D01*
X0217429Y0527589D01*
X0217846Y0527046D01*
X0218389Y0526629D01*
X0219021Y0526367D01*
X0219700Y0526278D01*
X0220379Y0526367D01*
X0221011Y0526629D01*
X0221554Y0527046D01*
X0221971Y0527589D01*
X0222233Y0528221D01*
X0222322Y0528900D01*
X0222646Y0529269D01*
X0224787D01*
X0225230Y0528269D01*
X0224658Y0527522D01*
X0224134Y0526258D01*
X0223955Y0524900D01*
X0224134Y0523542D01*
X0224544Y0522551D01*
X0221547Y0519554D01*
X0221193Y0519024D01*
X0221069Y0518400D01*
Y0513425D01*
X0220846Y0513254D01*
X0220429Y0512711D01*
X0220167Y0512079D01*
X0220078Y0511400D01*
X0220167Y0510721D01*
X0220429Y0510089D01*
X0220846Y0509546D01*
X0221389Y0509129D01*
X0222021Y0508867D01*
X0222700Y0508778D01*
X0223379Y0508867D01*
X0224011Y0509129D01*
X0224554Y0509546D01*
X0224971Y0510089D01*
X0225047Y0510272D01*
X0226053Y0510642D01*
X0226229Y0510625D01*
X0226578Y0510358D01*
X0227842Y0509834D01*
X0229200Y0509655D01*
X0230557Y0509834D01*
X0231822Y0510358D01*
X0232909Y0511191D01*
X0233742Y0512278D01*
X0234266Y0513543D01*
X0234445Y0514900D01*
X0234364Y0515515D01*
X0235311Y0515982D01*
X0237546Y0513747D01*
X0238076Y0513393D01*
X0238700Y0513269D01*
X0242674D01*
X0242846Y0513046D01*
X0243389Y0512629D01*
X0244021Y0512367D01*
X0244700Y0512278D01*
X0244979Y0512314D01*
X0251046Y0506247D01*
X0251576Y0505893D01*
X0252200Y0505769D01*
X0261024D01*
X0268547Y0498246D01*
X0269076Y0497893D01*
X0269670Y0497775D01*
X0269846Y0497546D01*
X0270389Y0497129D01*
X0271021Y0496867D01*
X0271700Y0496778D01*
X0272379Y0496867D01*
X0273011Y0497129D01*
X0273554Y0497546D01*
X0273971Y0498089D01*
X0274233Y0498721D01*
X0274322Y0499400D01*
X0274233Y0500079D01*
X0273971Y0500711D01*
X0273554Y0501254D01*
X0273011Y0501671D01*
X0272379Y0501933D01*
X0271700Y0502022D01*
X0271021Y0501933D01*
X0270389Y0501671D01*
X0270019Y0501388D01*
X0266650Y0504757D01*
X0267032Y0505681D01*
X0268113D01*
X0268737Y0505805D01*
X0269266Y0506159D01*
X0269695Y0506588D01*
X0270346Y0506546D01*
X0270889Y0506129D01*
X0271521Y0505867D01*
X0272200Y0505778D01*
X0272879Y0505867D01*
X0273511Y0506129D01*
X0274054Y0506546D01*
X0274471Y0507089D01*
X0274733Y0507721D01*
X0274822Y0508400D01*
X0274774Y0508769D01*
X0275249Y0509525D01*
X0275530Y0509769D01*
X0278388D01*
X0279091Y0509003D01*
X0279078Y0508900D01*
X0279167Y0508221D01*
X0279429Y0507589D01*
X0279846Y0507046D01*
X0280389Y0506629D01*
X0281021Y0506367D01*
X0281700Y0506278D01*
X0282379Y0506367D01*
X0283011Y0506629D01*
X0283554Y0507046D01*
X0283971Y0507589D01*
X0284233Y0508221D01*
X0284322Y0508900D01*
X0284233Y0509579D01*
X0283971Y0510211D01*
X0283554Y0510754D01*
X0283011Y0511171D01*
X0282379Y0511433D01*
X0281700Y0511522D01*
X0281421Y0511486D01*
X0280353Y0512554D01*
X0279824Y0512907D01*
X0279200Y0513031D01*
X0271200D01*
X0271189Y0513029D01*
X0270315Y0513844D01*
X0270322Y0513900D01*
X0270233Y0514579D01*
X0269971Y0515211D01*
X0269554Y0515754D01*
X0269011Y0516171D01*
X0268379Y0516433D01*
X0267700Y0516522D01*
X0267021Y0516433D01*
X0266389Y0516171D01*
X0266352Y0516143D01*
X0259548D01*
X0259511Y0516171D01*
X0258879Y0516433D01*
X0258200Y0516522D01*
X0257521Y0516433D01*
X0256889Y0516171D01*
X0256346Y0515754D01*
X0255929Y0515211D01*
X0255667Y0514579D01*
X0255578Y0513900D01*
X0255667Y0513221D01*
X0255929Y0512589D01*
X0256011Y0512482D01*
X0255603Y0511408D01*
X0255080Y0511328D01*
X0251786Y0514621D01*
X0251822Y0514900D01*
X0251733Y0515579D01*
X0251471Y0516211D01*
X0251054Y0516754D01*
X0250511Y0517171D01*
X0249879Y0517433D01*
X0249200Y0517522D01*
X0248921Y0517486D01*
X0247354Y0519054D01*
X0246824Y0519407D01*
X0246200Y0519531D01*
X0239238D01*
X0238281Y0520488D01*
Y0528450D01*
X0238157Y0529074D01*
X0237804Y0529603D01*
X0233353Y0534054D01*
X0232824Y0534407D01*
X0232200Y0534531D01*
X0226376D01*
X0224786Y0536121D01*
X0224822Y0536400D01*
X0224733Y0537079D01*
X0224471Y0537711D01*
X0224054Y0538254D01*
X0223511Y0538671D01*
X0222879Y0538933D01*
X0222200Y0539022D01*
X0221521Y0538933D01*
X0221150Y0538779D01*
X0220971Y0539211D01*
X0220554Y0539754D01*
X0220011Y0540171D01*
X0219379Y0540433D01*
X0218700Y0540522D01*
D02*
G37*
%LPD*%
G54D47*
X0168200Y0341900D02*
X0178200D01*
X0141700Y0368400D02*
X0168200Y0341900D01*
X0212680Y0564880D02*
X0219220D01*
X0210200Y0562400D02*
X0212680Y0564880D01*
X0210200Y0558900D02*
Y0562400D01*
X0134751Y0555951D02*
Y0573691D01*
X0129200Y0550400D02*
X0134751Y0555951D01*
G54D48*
X0105200Y0455400D02*
X0113200D01*
X0187200Y0427400D02*
Y0432400D01*
Y0427400D02*
X0195200Y0419400D01*
X0197700D01*
X0199200Y0420900D01*
X0273700Y0423900D02*
X0279200Y0418400D01*
X0265700Y0423900D02*
X0273700D01*
X0261200Y0428400D02*
X0265700Y0423900D01*
X0202200D02*
X0206700Y0428400D01*
X0202200Y0418400D02*
Y0423900D01*
X0197700Y0413900D02*
X0202200Y0418400D01*
X0196200Y0413900D02*
X0197700D01*
X0190700Y0408400D02*
X0196200Y0413900D01*
X0204186Y0418886D02*
X0210200Y0424900D01*
X0204186Y0417386D02*
Y0418886D01*
X0195200Y0408400D02*
X0204186Y0417386D01*
X0274200Y0373400D02*
X0279200Y0368400D01*
X0258700Y0363400D02*
X0274200D01*
X0199279Y0388321D02*
X0208200Y0379400D01*
Y0367400D02*
Y0379400D01*
X0205200Y0370900D02*
Y0377900D01*
X0191700Y0391400D02*
X0205200Y0377900D01*
X0199279Y0388321D02*
Y0393479D01*
X0274200Y0363400D02*
X0279200Y0358400D01*
X0274200Y0353400D02*
X0279200Y0348400D01*
X0264200Y0353400D02*
X0274200D01*
X0172200Y0391400D02*
X0191700D01*
X0167200Y0386400D02*
X0172200Y0391400D01*
X0167200Y0384400D02*
Y0386400D01*
X0144200Y0333400D02*
X0164515D01*
X0139200Y0338400D02*
X0144200Y0333400D01*
X0094200Y0403400D02*
X0099200Y0398400D01*
X0094200Y0403400D02*
Y0420900D01*
X0096700Y0423400D01*
X0119200D01*
X0124200Y0418400D01*
X0106200Y0403400D02*
X0112700D01*
X0099200Y0368400D02*
X0104200Y0373400D01*
Y0401400D01*
X0106200Y0403400D01*
X0112700D02*
X0115700Y0406400D01*
X0119200D01*
X0114700Y0373400D02*
Y0397900D01*
X0122200Y0405400D02*
Y0415900D01*
X0114700Y0397900D02*
X0122200Y0405400D01*
X0155700Y0390900D02*
Y0394900D01*
X0157700Y0396900D01*
X0180200D01*
X0186200Y0393900D02*
X0188200Y0395900D01*
X0158700Y0393900D02*
X0186200D01*
X0146700Y0368400D02*
X0170200Y0344900D01*
X0119700Y0418400D02*
X0122200Y0415900D01*
X0109200Y0418400D02*
X0119700D01*
X0128950Y0502900D02*
X0132950Y0498900D01*
X0167200D01*
X0178700Y0510400D01*
X0189700D01*
X0111700Y0547400D02*
X0113200Y0548900D01*
X0111700Y0543900D02*
Y0547400D01*
Y0543900D02*
X0115200Y0540400D01*
Y0535900D02*
Y0540400D01*
Y0554900D02*
X0119200D01*
X0105200Y0544900D02*
X0115200Y0554900D01*
X0167700Y0380900D02*
X0171200Y0384400D01*
X0158200Y0380900D02*
X0167700D01*
X0104200Y0413400D02*
X0119200D01*
X0099200Y0408400D02*
X0104200Y0413400D01*
X0270200Y0454900D02*
X0283700D01*
X0179200Y0443400D02*
Y0478400D01*
X0262200Y0395400D02*
X0269200Y0388400D01*
X0207700Y0434900D02*
Y0437900D01*
X0196090Y0423290D02*
X0207700Y0434900D01*
X0190200Y0429400D02*
X0198200Y0437400D01*
X0193200Y0425900D02*
X0203700Y0436400D01*
X0259200Y0423400D02*
X0264200Y0418400D01*
Y0415400D02*
Y0418400D01*
Y0415400D02*
X0266200Y0413400D01*
X0274200D01*
X0279200Y0408400D01*
X0224200Y0353400D02*
X0239200Y0338400D01*
X0219200Y0348400D02*
X0229200Y0338400D01*
X0164515Y0333400D02*
X0169515Y0328400D01*
Y0318400D02*
Y0328400D01*
X0158200Y0364400D02*
X0167200Y0373400D01*
X0170200D01*
X0173200Y0376400D01*
X0177200Y0361900D02*
Y0369900D01*
Y0361900D02*
X0187700Y0351400D01*
X0196050Y0405250D02*
X0199200Y0408400D01*
X0190049Y0405250D02*
X0196050D01*
X0199200Y0408400D02*
X0213700D01*
X0176699Y0418600D02*
X0190049Y0405250D01*
X0174200Y0418600D02*
X0176699D01*
X0254200Y0363400D02*
X0264200Y0353400D01*
X0244700Y0402900D02*
X0269200Y0378400D01*
X0244700Y0402900D02*
Y0408400D01*
X0251700Y0377266D02*
Y0390400D01*
Y0377266D02*
X0255566Y0373400D01*
X0274200D01*
X0559400Y0039400D02*
Y0059683D01*
X0440500Y0040050D02*
X0700200D01*
Y0101050D01*
X0286500Y0040050D02*
Y0101050D01*
X0040000Y0040050D02*
Y0101050D01*
X0040050Y0040050D02*
X0197600D01*
X0040050D02*
Y0101050D01*
Y0101050D02*
X0700200D01*
X0040000Y0040050D02*
X0440500D01*
X0040000Y0060383D02*
X0700000D01*
X0040000Y0080717D02*
X0700200D01*
X0413200D02*
Y0101050D01*
X0497200Y0080717D02*
Y0101050D01*
G54D49*
X0098000Y0506400D02*
X0130700D01*
X0089200Y0503400D02*
X0095000D01*
X0130700Y0506400D02*
X0134700Y0502400D01*
X0095000Y0503400D02*
X0098000Y0506400D01*
X0134700Y0502400D02*
X0137700D01*
X0133200Y0508400D02*
X0136200Y0505400D01*
X0089200Y0513400D02*
X0094200Y0508400D01*
X0133200D01*
X0089200Y0523400D02*
X0102200Y0510400D01*
X0136200Y0509400D02*
X0138200D01*
X0102200Y0510400D02*
X0108041D01*
X0108128Y0510313D01*
X0110272D01*
X0110359Y0510400D01*
X0135200D01*
X0136200Y0509400D01*
X0202628Y0539487D02*
X0213041Y0549900D01*
X0198287Y0539487D02*
X0202628D01*
X0198200Y0539400D02*
X0198287Y0539487D01*
X0201200Y0536900D02*
X0203700D01*
X0213700Y0546900D01*
X0218700Y0571400D02*
X0233700D01*
X0234200Y0570900D01*
X0234700Y0571400D01*
X0197700Y0492400D02*
X0202700D01*
X0192700Y0497400D02*
X0197700Y0492400D01*
X0192700Y0497400D02*
Y0502900D01*
X0195700Y0498400D02*
X0197200Y0496900D01*
X0195700Y0498400D02*
Y0503400D01*
X0197700Y0505400D01*
Y0514400D01*
X0186200Y0525900D02*
X0197700Y0514400D01*
X0186200Y0525900D02*
Y0529400D01*
X0174700Y0540900D02*
X0186200Y0529400D01*
X0174700Y0540900D02*
Y0543900D01*
X0192700Y0502900D02*
X0195700Y0505900D01*
Y0513900D01*
X0184200Y0525400D02*
X0195700Y0513900D01*
X0184200Y0525400D02*
Y0528400D01*
X0171700Y0540900D02*
X0184200Y0528400D01*
X0159200Y0488400D02*
X0164200Y0493400D01*
X0168200D01*
X0180200Y0505400D01*
X0192200D01*
X0193881Y0507081D01*
Y0513219D01*
X0182200Y0524900D02*
X0193881Y0513219D01*
X0182200Y0524900D02*
Y0527900D01*
X0175700Y0534400D02*
X0182200Y0527900D01*
X0174200Y0534400D02*
X0175700D01*
X0169113Y0539487D02*
X0174200Y0534400D01*
X0149200Y0488400D02*
X0157525Y0496725D01*
X0168525D01*
X0179062Y0507262D01*
X0191397D01*
X0192287Y0508153D01*
Y0511813D01*
X0180200Y0523900D02*
Y0526900D01*
Y0523900D02*
X0192287Y0511813D01*
X0174700Y0532400D02*
X0180200Y0526900D01*
X0173700Y0532400D02*
X0174700D01*
X0167200Y0538900D02*
X0173700Y0532400D01*
X0167200Y0538900D02*
Y0543400D01*
X0173787Y0549987D01*
X0180613D01*
X0180700Y0549900D01*
X0169113Y0539487D02*
Y0542313D01*
X0174200Y0547400D01*
X0177700D01*
X0137700Y0502400D02*
X0160700Y0525400D01*
X0177200D01*
X0089200Y0493400D02*
X0096200Y0500400D01*
X0123200D01*
X0169200Y0488400D02*
X0174200Y0493400D01*
X0184200D01*
X0186700Y0490900D01*
X0089200Y0543400D02*
X0095200Y0537400D01*
Y0531400D02*
Y0537400D01*
Y0531400D02*
X0108200Y0518400D01*
X0140700D01*
X0143200Y0515900D01*
X0089200Y0533400D02*
X0106200Y0516400D01*
X0137627D01*
X0140163Y0513863D01*
X0192700Y0558400D02*
X0201700Y0549400D01*
X0192700Y0557900D02*
Y0558400D01*
X0201700Y0548900D02*
Y0549400D01*
X0197773Y0557900D02*
X0204861Y0550813D01*
X0197200Y0557900D02*
X0197773D01*
X0244237Y0523437D02*
X0251562Y0530762D01*
X0242200Y0526900D02*
X0249700Y0534400D01*
X0213041Y0549900D02*
X0219700D01*
X0213700Y0546900D02*
X0222700D01*
X0164700Y0567900D02*
X0171700Y0560900D01*
X0198700D01*
X0206700Y0552900D01*
X0221058D01*
X0207613Y0554487D02*
X0221716D01*
X0199200Y0562900D02*
X0207613Y0554487D01*
X0179700Y0562900D02*
X0199200D01*
X0183200Y0564900D02*
X0199700D01*
X0208287Y0556313D01*
X0222787D01*
X0178700Y0563900D02*
X0179700Y0562900D01*
X0176700Y0563900D02*
X0178700D01*
X0182200Y0565900D02*
X0183200Y0564900D01*
X0180700Y0565900D02*
X0182200D01*
X0269700Y0499400D02*
X0271700D01*
X0261700Y0507400D02*
X0269700Y0499400D01*
X0252200Y0507400D02*
X0261700D01*
X0244700Y0514900D02*
X0252200Y0507400D01*
X0249200Y0514900D02*
X0254700Y0509400D01*
X0262700D01*
X0264787Y0507313D01*
X0268113D01*
X0269200Y0508400D01*
Y0509400D01*
X0271200Y0511400D01*
X0279200D01*
X0119200Y0522900D02*
X0138200D01*
X0115700Y0526400D02*
X0119200Y0522900D01*
X0138200D02*
X0143700Y0528400D01*
X0160200D01*
X0143200Y0530400D02*
X0144200Y0531400D01*
X0140700Y0530400D02*
X0143200D01*
X0144200Y0531400D02*
X0157700D01*
X0147200Y0539900D02*
X0148700Y0538400D01*
X0163700D01*
X0134200Y0539900D02*
X0147200D01*
X0163700Y0538400D02*
X0167700Y0534400D01*
X0205200Y0508900D02*
Y0525900D01*
X0198700Y0502400D02*
X0205200Y0508900D01*
X0222700Y0511400D02*
Y0518400D01*
X0229200Y0524900D01*
X0225200Y0544900D02*
X0225700Y0544400D01*
X0238700Y0514900D02*
X0244700D01*
X0234700Y0518900D02*
X0238700Y0514900D01*
X0234700Y0518900D02*
Y0527400D01*
X0231200Y0530900D02*
X0234700Y0527400D01*
X0222200Y0530900D02*
X0231200D01*
X0218700Y0534400D02*
X0222200Y0530900D01*
X0218700Y0534400D02*
Y0537900D01*
X0222200Y0536400D02*
X0225700Y0532900D01*
X0232200D01*
X0236650Y0528450D01*
Y0519812D02*
Y0528450D01*
Y0519812D02*
X0238562Y0517900D01*
X0246200D01*
X0249200Y0514900D01*
X0228200Y0540900D02*
X0228287Y0540813D01*
X0236613D02*
X0246700Y0550900D01*
X0228287Y0540813D02*
X0236613D01*
X0225700Y0544400D02*
Y0548258D01*
X0221058Y0552900D02*
X0225700Y0548258D01*
X0228700Y0546900D02*
Y0547503D01*
X0221716Y0554487D02*
X0228700Y0547503D01*
X0231200Y0543400D02*
X0231287Y0543487D01*
Y0547972D01*
X0229772Y0549487D02*
X0231287Y0547972D01*
X0229613Y0549487D02*
X0229772D01*
X0222787Y0556313D02*
X0229613Y0549487D01*
X0249700Y0534400D02*
Y0553510D01*
X0251562Y0530762D02*
Y0554538D01*
X0234700Y0571400D02*
X0251562Y0554538D01*
X0216700Y0567900D02*
X0235310D01*
X0249700Y0553510D01*
X0279200Y0511400D02*
X0281700Y0508900D01*
X0126900Y0073549D02*
Y0067551D01*
X0129899D01*
X0130899Y0068550D01*
Y0069550D01*
X0129899Y0070550D01*
X0126900D01*
X0129899D01*
X0130899Y0071549D01*
Y0072549D01*
X0129899Y0073549D01*
X0126900D01*
X0133898Y0067551D02*
X0135897D01*
X0136897Y0068550D01*
Y0070550D01*
X0135897Y0071549D01*
X0133898D01*
X0132898Y0070550D01*
Y0068550D01*
X0133898Y0067551D01*
X0139896Y0072549D02*
Y0071549D01*
X0138896D01*
X0140895D01*
X0139896D01*
Y0068550D01*
X0140895Y0067551D01*
X0144894Y0072549D02*
Y0071549D01*
X0143895D01*
X0145894D01*
X0144894D01*
Y0068550D01*
X0145894Y0067551D01*
X0149893D02*
X0151892D01*
X0152892Y0068550D01*
Y0070550D01*
X0151892Y0071549D01*
X0149893D01*
X0148893Y0070550D01*
Y0068550D01*
X0149893Y0067551D01*
X0154891D02*
Y0071549D01*
X0155891D01*
X0156890Y0070550D01*
Y0067551D01*
Y0070550D01*
X0157890Y0071549D01*
X0158890Y0070550D01*
Y0067551D01*
X0166887Y0073549D02*
Y0067551D01*
X0170886D01*
X0173885Y0071549D02*
X0175884D01*
X0176884Y0070550D01*
Y0067551D01*
X0173885D01*
X0172885Y0068550D01*
X0173885Y0069550D01*
X0176884D01*
X0178883Y0071549D02*
Y0068550D01*
X0179883Y0067551D01*
X0182882D01*
Y0066551D01*
X0181882Y0065551D01*
X0180883D01*
X0182882Y0067551D02*
Y0071549D01*
X0187880Y0067551D02*
X0185881D01*
X0184881Y0068550D01*
Y0070550D01*
X0185881Y0071549D01*
X0187880D01*
X0188880Y0070550D01*
Y0069550D01*
X0184881D01*
X0190879Y0071549D02*
Y0067551D01*
Y0069550D01*
X0191879Y0070550D01*
X0192879Y0071549D01*
X0193878D01*
X0348550Y0067500D02*
Y0073498D01*
X0352549Y0067500D01*
Y0073498D01*
X0354548Y0067500D02*
X0358547Y0071499D01*
X0360546Y0067500D02*
Y0071499D01*
X0362545Y0073498D01*
X0364545Y0071499D01*
Y0067500D01*
Y0070499D01*
X0360546D01*
X0294000Y0073498D02*
X0297999D01*
X0295999D01*
Y0067500D01*
X0299998Y0073498D02*
X0301997D01*
X0300998D01*
Y0067500D01*
X0299998D01*
X0301997D01*
X0304996Y0073498D02*
Y0067500D01*
X0307996D01*
X0308995Y0068500D01*
Y0072498D01*
X0307996Y0073498D01*
X0304996D01*
X0317992Y0067500D02*
Y0073498D01*
X0319992D02*
Y0067500D01*
X0316993Y0071499D02*
X0319992D01*
X0320991D01*
X0316993Y0069499D02*
X0320991D01*
X0322991Y0071499D02*
X0323990D01*
Y0070499D01*
X0322991D01*
Y0071499D01*
Y0068500D02*
X0323990D01*
Y0067500D01*
X0322991D01*
Y0068500D01*
X0580500Y0052965D02*
X0584499D01*
X0582499D01*
Y0046966D01*
X0590497Y0052965D02*
X0586498D01*
Y0046966D01*
X0590497D01*
X0586498Y0049966D02*
X0588497D01*
X0592496Y0052965D02*
X0596495Y0046966D01*
Y0052965D02*
X0592496Y0046966D01*
X0598494D02*
Y0050965D01*
X0600493Y0052965D01*
X0602493Y0050965D01*
Y0046966D01*
Y0049966D01*
X0598494D01*
X0608491Y0051965D02*
X0607491Y0052965D01*
X0605492D01*
X0604492Y0051965D01*
Y0050965D01*
X0605492Y0049966D01*
X0607491D01*
X0608491Y0048966D01*
Y0047966D01*
X0607491Y0046966D01*
X0605492D01*
X0604492Y0047966D01*
X0616488Y0052965D02*
X0618488D01*
X0617488D01*
Y0046966D01*
X0616488D01*
X0618488D01*
X0621487D02*
Y0052965D01*
X0625486Y0046966D01*
Y0052965D01*
X0631484Y0051965D02*
X0630484Y0052965D01*
X0628484D01*
X0627485Y0051965D01*
Y0050965D01*
X0628484Y0049966D01*
X0630484D01*
X0631484Y0048966D01*
Y0047966D01*
X0630484Y0046966D01*
X0628484D01*
X0627485Y0047966D01*
X0633483Y0052965D02*
X0637482D01*
X0635482D01*
Y0046966D01*
X0639481D02*
Y0052965D01*
X0642480D01*
X0643480Y0051965D01*
Y0049966D01*
X0642480Y0048966D01*
X0639481D01*
X0641480D02*
X0643480Y0046966D01*
X0645479Y0052965D02*
Y0047966D01*
X0646479Y0046966D01*
X0648478D01*
X0649478Y0047966D01*
Y0052965D01*
X0651477Y0046966D02*
Y0052965D01*
X0653476Y0050965D01*
X0655476Y0052965D01*
Y0046966D01*
X0661474Y0052965D02*
X0657475D01*
Y0046966D01*
X0661474D01*
X0657475Y0049966D02*
X0659474D01*
X0663473Y0046966D02*
Y0052965D01*
X0667472Y0046966D01*
Y0052965D01*
X0669471D02*
X0673470D01*
X0671471D01*
Y0046966D01*
X0679468Y0051965D02*
X0678468Y0052965D01*
X0676469D01*
X0675469Y0051965D01*
Y0050965D01*
X0676469Y0049966D01*
X0678468D01*
X0679468Y0048966D01*
Y0047966D01*
X0678468Y0046966D01*
X0676469D01*
X0675469Y0047966D01*
X0454050Y0046966D02*
X0456049D01*
X0455050D01*
Y0052965D01*
X0454050Y0051965D01*
X0459048D02*
X0460048Y0052965D01*
X0462047D01*
X0463047Y0051965D01*
Y0047966D01*
X0462047Y0046966D01*
X0460048D01*
X0459048Y0047966D01*
Y0051965D01*
X0465046Y0050965D02*
X0466046D01*
Y0049966D01*
X0465046D01*
Y0050965D01*
Y0047966D02*
X0466046D01*
Y0046966D01*
X0465046D01*
Y0047966D01*
X0470045Y0046966D02*
X0472044D01*
X0471044D01*
Y0052965D01*
X0470045Y0051965D01*
X0479042Y0052965D02*
X0477043Y0051965D01*
X0475043Y0049966D01*
Y0047966D01*
X0476043Y0046966D01*
X0478042D01*
X0479042Y0047966D01*
Y0048966D01*
X0478042Y0049966D01*
X0475043D01*
X0481041Y0050965D02*
X0482041D01*
Y0049966D01*
X0481041D01*
Y0050965D01*
Y0047966D02*
X0482041D01*
Y0046966D01*
X0481041D01*
Y0047966D01*
X0486040Y0051965D02*
X0487039Y0052965D01*
X0489039D01*
X0490038Y0051965D01*
Y0050965D01*
X0489039Y0049966D01*
X0488039D01*
X0489039D01*
X0490038Y0048966D01*
Y0047966D01*
X0489039Y0046966D01*
X0487039D01*
X0486040Y0047966D01*
X0492038Y0051965D02*
X0493037Y0052965D01*
X0495037D01*
X0496036Y0051965D01*
Y0050965D01*
X0495037Y0049966D01*
X0494037D01*
X0495037D01*
X0496036Y0048966D01*
Y0047966D01*
X0495037Y0046966D01*
X0493037D01*
X0492038Y0047966D01*
X0504034Y0046966D02*
Y0050965D01*
X0506033Y0052965D01*
X0508033Y0050965D01*
Y0046966D01*
Y0049966D01*
X0504034D01*
X0510032Y0046966D02*
Y0052965D01*
X0512031Y0050965D01*
X0514031Y0052965D01*
Y0046966D01*
X0046350D02*
Y0052965D01*
X0049349D01*
X0050349Y0051965D01*
Y0049966D01*
X0049349Y0048966D01*
X0046350D01*
X0052348Y0052965D02*
Y0046966D01*
X0056347D01*
X0061345Y0052965D02*
X0059346D01*
X0058346Y0051965D01*
Y0047966D01*
X0059346Y0046966D01*
X0061345D01*
X0062345Y0047966D01*
Y0051965D01*
X0061345Y0052965D01*
X0064344D02*
X0068343D01*
X0066343D01*
Y0046966D01*
X0076340D02*
Y0052965D01*
X0080339Y0046966D01*
Y0052965D01*
X0082338Y0046966D02*
Y0050965D01*
X0084338Y0052965D01*
X0086337Y0050965D01*
Y0046966D01*
Y0049966D01*
X0082338D01*
X0088336Y0046966D02*
Y0052965D01*
X0090336Y0050965D01*
X0092335Y0052965D01*
Y0046966D01*
X0098333Y0052965D02*
X0094335D01*
Y0046966D01*
X0098333D01*
X0094335Y0049966D02*
X0096334D01*
X0106331Y0048966D02*
X0110329D01*
X0106331Y0050965D02*
X0110329D01*
X0046350Y0073549D02*
Y0067551D01*
X0050349D01*
X0052348D02*
Y0071549D01*
X0054347Y0073549D01*
X0056347Y0071549D01*
Y0067551D01*
Y0070550D01*
X0052348D01*
X0058346Y0073549D02*
Y0072549D01*
X0060346Y0070550D01*
X0062345Y0072549D01*
Y0073549D01*
X0060346Y0070550D02*
Y0067551D01*
X0068343Y0073549D02*
X0064344D01*
Y0067551D01*
X0068343D01*
X0064344Y0070550D02*
X0066343D01*
X0070342Y0067551D02*
Y0073549D01*
X0073341D01*
X0074341Y0072549D01*
Y0070550D01*
X0073341Y0069550D01*
X0070342D01*
X0072342D02*
X0074341Y0067551D01*
X0082338D02*
Y0073549D01*
X0086337Y0067551D01*
Y0073549D01*
X0088336Y0067551D02*
Y0071549D01*
X0090336Y0073549D01*
X0092335Y0071549D01*
Y0067551D01*
Y0070550D01*
X0088336D01*
X0094335Y0067551D02*
Y0073549D01*
X0096334Y0071549D01*
X0098333Y0073549D01*
Y0067551D01*
X0104331Y0073549D02*
X0100332D01*
Y0067551D01*
X0104331D01*
X0100332Y0070550D02*
X0102332D01*
X0112329Y0069550D02*
X0116327D01*
X0112329Y0071549D02*
X0116327D01*
X0294000Y0093831D02*
Y0087833D01*
X0296999D01*
X0297999Y0088833D01*
Y0089833D01*
X0296999Y0090832D01*
X0294000D01*
X0296999D01*
X0297999Y0091832D01*
Y0092832D01*
X0296999Y0093831D01*
X0294000D01*
X0302997D02*
X0300998D01*
X0299998Y0092832D01*
Y0088833D01*
X0300998Y0087833D01*
X0302997D01*
X0303997Y0088833D01*
Y0092832D01*
X0302997Y0093831D01*
X0305996Y0087833D02*
Y0091832D01*
X0307996Y0093831D01*
X0309995Y0091832D01*
Y0087833D01*
Y0090832D01*
X0305996D01*
X0311994Y0087833D02*
Y0093831D01*
X0314993D01*
X0315993Y0092832D01*
Y0090832D01*
X0314993Y0089833D01*
X0311994D01*
X0313994D02*
X0315993Y0087833D01*
X0317992Y0093831D02*
Y0087833D01*
X0320991D01*
X0321991Y0088833D01*
Y0092832D01*
X0320991Y0093831D01*
X0317992D01*
X0330988Y0087833D02*
Y0093831D01*
X0332987D02*
Y0087833D01*
X0329988Y0091832D02*
X0332987D01*
X0333987D01*
X0329988Y0089833D02*
X0333987D01*
X0335986Y0091832D02*
X0336986D01*
Y0090832D01*
X0335986D01*
Y0091832D01*
Y0088833D02*
X0336986D01*
Y0087833D01*
X0335986D01*
Y0088833D01*
X0348550Y0087833D02*
Y0093831D01*
X0350549Y0091832D01*
X0352549Y0093831D01*
Y0087833D01*
X0358547Y0092832D02*
X0357547Y0093831D01*
X0355548D01*
X0354548Y0092832D01*
Y0088833D01*
X0355548Y0087833D01*
X0357547D01*
X0358547Y0088833D01*
X0360546Y0093831D02*
Y0088833D01*
X0361546Y0087833D01*
X0363545D01*
X0364545Y0088833D01*
Y0093831D01*
X0366544Y0092832D02*
X0367544Y0093831D01*
X0369543D01*
X0370543Y0092832D01*
Y0088833D01*
X0369543Y0087833D01*
X0367544D01*
X0366544Y0088833D01*
Y0092832D01*
X0372542D02*
X0373542Y0093831D01*
X0375541D01*
X0376541Y0092832D01*
Y0091832D01*
X0375541Y0090832D01*
X0374542D01*
X0375541D01*
X0376541Y0089833D01*
Y0088833D01*
X0375541Y0087833D01*
X0373542D01*
X0372542Y0088833D01*
X0382539Y0093831D02*
X0380540Y0092832D01*
X0378540Y0090832D01*
Y0088833D01*
X0379540Y0087833D01*
X0381539D01*
X0382539Y0088833D01*
Y0089833D01*
X0381539Y0090832D01*
X0378540D01*
X0462150Y0087833D02*
Y0091832D01*
X0464149Y0093831D01*
X0466149Y0091832D01*
Y0087833D01*
Y0090832D01*
X0462150D01*
X0046350Y0087833D02*
Y0091832D01*
X0048349Y0093831D01*
X0050349Y0091832D01*
Y0087833D01*
Y0090832D01*
X0046350D01*
X0052348Y0093831D02*
Y0087833D01*
X0056347D01*
X0058346Y0093831D02*
Y0087833D01*
X0062345D01*
X0070342D02*
Y0091832D01*
X0072342Y0093831D01*
X0074341Y0091832D01*
Y0087833D01*
Y0090832D01*
X0070342D01*
X0076340Y0087833D02*
Y0093831D01*
X0079339D01*
X0080339Y0092832D01*
Y0090832D01*
X0079339Y0089833D01*
X0076340D01*
X0078340D02*
X0080339Y0087833D01*
X0082338Y0093831D02*
X0086337D01*
X0084338D01*
Y0087833D01*
X0088336Y0093831D02*
Y0087833D01*
X0090336Y0089833D01*
X0092335Y0087833D01*
Y0093831D01*
X0097334D02*
X0095334D01*
X0094335Y0092832D01*
Y0088833D01*
X0095334Y0087833D01*
X0097334D01*
X0098333Y0088833D01*
Y0092832D01*
X0097334Y0093831D01*
X0100332Y0087833D02*
Y0093831D01*
X0103332D01*
X0104331Y0092832D01*
Y0090832D01*
X0103332Y0089833D01*
X0100332D01*
X0102332D02*
X0104331Y0087833D01*
X0106331Y0093831D02*
Y0087833D01*
Y0089833D01*
X0110329Y0093831D01*
X0107330Y0090832D01*
X0110329Y0087833D01*
X0118327Y0093831D02*
Y0089833D01*
X0120326Y0087833D01*
X0122325Y0089833D01*
Y0093831D01*
X0124325D02*
X0126324D01*
X0125324D01*
Y0087833D01*
X0124325D01*
X0126324D01*
X0133322Y0093831D02*
X0129323D01*
Y0087833D01*
X0133322D01*
X0129323Y0090832D02*
X0131323D01*
X0135321Y0093831D02*
Y0087833D01*
X0137321Y0089833D01*
X0139320Y0087833D01*
Y0093831D01*
X0145318D02*
X0141319D01*
Y0087833D01*
X0145318D01*
X0141319Y0090832D02*
X0143319D01*
X0147317Y0093831D02*
Y0087833D01*
X0150316D01*
X0151316Y0088833D01*
Y0092832D01*
X0150316Y0093831D01*
X0147317D01*
X0163312D02*
X0159313D01*
Y0090832D01*
X0161313D01*
X0159313D01*
Y0087833D01*
X0165312D02*
Y0093831D01*
X0168310D01*
X0169310Y0092832D01*
Y0090832D01*
X0168310Y0089833D01*
X0165312D01*
X0167311D02*
X0169310Y0087833D01*
X0174309Y0093831D02*
X0172309D01*
X0171310Y0092832D01*
Y0088833D01*
X0172309Y0087833D01*
X0174309D01*
X0175308Y0088833D01*
Y0092832D01*
X0174309Y0093831D01*
X0177308Y0087833D02*
Y0093831D01*
X0179307Y0091832D01*
X0181306Y0093831D01*
Y0087833D01*
X0189304Y0093831D02*
X0193303D01*
X0191303D01*
Y0087833D01*
X0198301Y0093831D02*
X0196301D01*
X0195302Y0092832D01*
Y0088833D01*
X0196301Y0087833D01*
X0198301D01*
X0199301Y0088833D01*
Y0092832D01*
X0198301Y0093831D01*
X0201300Y0087833D02*
Y0093831D01*
X0204299D01*
X0205299Y0092832D01*
Y0090832D01*
X0204299Y0089833D01*
X0201300D01*
X0217295Y0092832D02*
X0216295Y0093831D01*
X0214296D01*
X0213296Y0092832D01*
Y0091832D01*
X0214296Y0090832D01*
X0216295D01*
X0217295Y0089833D01*
Y0088833D01*
X0216295Y0087833D01*
X0214296D01*
X0213296Y0088833D01*
X0219294Y0093831D02*
X0221293D01*
X0220294D01*
Y0087833D01*
X0219294D01*
X0221293D01*
X0224292Y0093831D02*
Y0087833D01*
X0227291D01*
X0228291Y0088833D01*
Y0092832D01*
X0227291Y0093831D01*
X0224292D01*
X0234289D02*
X0230291D01*
Y0087833D01*
X0234289D01*
X0230291Y0090832D02*
X0232290D01*
X0298199Y0051965D02*
X0297199Y0052965D01*
X0295200D01*
X0294200Y0051965D01*
Y0047966D01*
X0295200Y0046966D01*
X0297199D01*
X0298199Y0047966D01*
Y0049966D01*
X0296199D01*
X0304197Y0052965D02*
X0300198D01*
Y0046966D01*
X0304197D01*
X0300198Y0049966D02*
X0302197D01*
X0306196Y0046966D02*
Y0052965D01*
X0310195Y0046966D01*
Y0052965D01*
X0316193D02*
X0312194D01*
Y0046966D01*
X0316193D01*
X0312194Y0049966D02*
X0314194D01*
X0318192Y0046966D02*
Y0052965D01*
X0321191D01*
X0322191Y0051965D01*
Y0049966D01*
X0321191Y0048966D01*
X0318192D01*
X0320192D02*
X0322191Y0046966D01*
X0324190D02*
Y0050965D01*
X0326190Y0052965D01*
X0328189Y0050965D01*
Y0046966D01*
Y0049966D01*
X0324190D01*
X0330188Y0052965D02*
X0334187D01*
X0332188D01*
Y0046966D01*
X0340185Y0052965D02*
X0336186D01*
Y0046966D01*
X0340185D01*
X0336186Y0049966D02*
X0338186D01*
X0342184Y0052965D02*
Y0046966D01*
X0345183D01*
X0346183Y0047966D01*
Y0051965D01*
X0345183Y0052965D01*
X0342184D01*
X0372175Y0050965D02*
X0373175D01*
Y0049966D01*
X0372175D01*
Y0050965D01*
Y0047966D02*
X0373175D01*
Y0046966D01*
X0372175D01*
Y0047966D01*
X0381150Y0051965D02*
X0382150Y0052965D01*
X0384149D01*
X0385149Y0051965D01*
Y0050965D01*
X0384149Y0049966D01*
X0383149D01*
X0384149D01*
X0385149Y0048966D01*
Y0047966D01*
X0384149Y0046966D01*
X0382150D01*
X0381150Y0047966D01*
X0387148Y0046966D02*
X0391147Y0050965D01*
X0397145Y0046966D02*
X0393146D01*
X0397145Y0050965D01*
Y0051965D01*
X0396145Y0052965D01*
X0394146D01*
X0393146Y0051965D01*
X0399144Y0046966D02*
X0403143Y0050965D01*
X0409141Y0046966D02*
X0405142D01*
X0409141Y0050965D01*
Y0051965D01*
X0408141Y0052965D01*
X0406142D01*
X0405142Y0051965D01*
X0411140D02*
X0412140Y0052965D01*
X0414139D01*
X0415139Y0051965D01*
Y0047966D01*
X0414139Y0046966D01*
X0412140D01*
X0411140Y0047966D01*
Y0051965D01*
X0417138Y0046966D02*
X0419138D01*
X0418138D01*
Y0052965D01*
X0417138Y0051965D01*
X0422137D02*
X0423136Y0052965D01*
X0425136D01*
X0426135Y0051965D01*
Y0050965D01*
X0425136Y0049966D01*
X0426135Y0048966D01*
Y0047966D01*
X0425136Y0046966D01*
X0423136D01*
X0422137Y0047966D01*
Y0048966D01*
X0423136Y0049966D01*
X0422137Y0050965D01*
Y0051965D01*
X0423136Y0049966D02*
X0425136D01*
X0126900Y0046966D02*
Y0052965D01*
X0128899Y0050965D01*
X0130899Y0052965D01*
Y0046966D01*
X0136897Y0051965D02*
X0135897Y0052965D01*
X0133898D01*
X0132898Y0051965D01*
Y0047966D01*
X0133898Y0046966D01*
X0135897D01*
X0136897Y0047966D01*
X0138896Y0052965D02*
Y0047966D01*
X0139896Y0046966D01*
X0141895D01*
X0142895Y0047966D01*
Y0052965D01*
X0144894Y0051965D02*
X0145894Y0052965D01*
X0147893D01*
X0148893Y0051965D01*
Y0047966D01*
X0147893Y0046966D01*
X0145894D01*
X0144894Y0047966D01*
Y0051965D01*
X0150892D02*
X0151892Y0052965D01*
X0153891D01*
X0154891Y0051965D01*
Y0050965D01*
X0153891Y0049966D01*
X0152892D01*
X0153891D01*
X0154891Y0048966D01*
Y0047966D01*
X0153891Y0046966D01*
X0151892D01*
X0150892Y0047966D01*
X0160889Y0052965D02*
X0158890Y0051965D01*
X0156890Y0049966D01*
Y0047966D01*
X0157890Y0046966D01*
X0159889D01*
X0160889Y0047966D01*
Y0048966D01*
X0159889Y0049966D01*
X0156890D01*
X0162888Y0046966D02*
Y0050965D01*
X0164888Y0052965D01*
X0166887Y0050965D01*
Y0046966D01*
Y0049966D01*
X0162888D01*
X0168886Y0046966D02*
Y0047966D01*
X0169886D01*
Y0046966D01*
X0168886D01*
X0177884Y0051965D02*
X0176884Y0052965D01*
X0174884D01*
X0173885Y0051965D01*
Y0047966D01*
X0174884Y0046966D01*
X0176884D01*
X0177884Y0047966D01*
Y0049966D01*
X0175884D01*
X0179883Y0052965D02*
Y0046966D01*
X0182882D01*
X0183882Y0047966D01*
Y0048966D01*
X0182882Y0049966D01*
X0179883D01*
X0182882D01*
X0183882Y0050965D01*
Y0051965D01*
X0182882Y0052965D01*
X0179883D01*
X0185881D02*
Y0046966D01*
X0189880D01*
X0433000Y0087833D02*
Y0093831D01*
X0435999D01*
X0436999Y0092832D01*
Y0090832D01*
X0435999Y0089833D01*
X0433000D01*
X0434999D02*
X0436999Y0087833D01*
X0442997Y0093831D02*
X0438998D01*
Y0087833D01*
X0442997D01*
X0438998Y0090832D02*
X0440997D01*
X0444996Y0093831D02*
Y0089833D01*
X0446995Y0087833D01*
X0448995Y0089833D01*
Y0093831D01*
X0450994Y0091832D02*
X0451994D01*
Y0090832D01*
X0450994D01*
Y0091832D01*
Y0088833D02*
X0451994D01*
Y0087833D01*
X0450994D01*
Y0088833D01*
X0520799Y0092832D02*
X0519799Y0093831D01*
X0517800D01*
X0516800Y0092832D01*
Y0091832D01*
X0517800Y0090832D01*
X0519799D01*
X0520799Y0089833D01*
Y0088833D01*
X0519799Y0087833D01*
X0517800D01*
X0516800Y0088833D01*
X0522798Y0093831D02*
Y0089833D01*
X0524797Y0087833D01*
X0526797Y0089833D01*
Y0093831D01*
X0528796Y0087833D02*
Y0093831D01*
X0532795Y0087833D01*
Y0093831D01*
X0540792Y0087833D02*
Y0093831D01*
X0543791D01*
X0544791Y0092832D01*
Y0090832D01*
X0543791Y0089833D01*
X0540792D01*
X0542792D02*
X0544791Y0087833D01*
X0550789Y0093831D02*
X0546790D01*
Y0087833D01*
X0550789D01*
X0546790Y0090832D02*
X0548790D01*
X0552788Y0093831D02*
Y0089833D01*
X0554788Y0087833D01*
X0556787Y0089833D01*
Y0093831D01*
X0558786Y0091832D02*
X0559786D01*
Y0090832D01*
X0558786D01*
Y0091832D01*
Y0088833D02*
X0559786D01*
Y0087833D01*
X0558786D01*
Y0088833D01*
X0567400Y0087833D02*
Y0093831D01*
X0571399Y0087833D01*
Y0093831D01*
X0574398Y0087833D02*
X0576397D01*
X0577397Y0088833D01*
Y0090832D01*
X0576397Y0091832D01*
X0574398D01*
X0573398Y0090832D01*
Y0088833D01*
X0574398Y0087833D01*
X0580396Y0092832D02*
Y0091832D01*
X0579396D01*
X0581395D01*
X0580396D01*
Y0088833D01*
X0581395Y0087833D01*
X0590393Y0093831D02*
X0592392D01*
X0591392D01*
Y0087833D01*
X0590393D01*
X0592392D01*
X0595391D02*
Y0091832D01*
X0598390D01*
X0599390Y0090832D01*
Y0087833D01*
X0607387Y0093831D02*
Y0089833D01*
X0609386Y0087833D01*
X0611386Y0089833D01*
Y0093831D01*
X0616384Y0087833D02*
X0614385D01*
X0613385Y0088833D01*
Y0090832D01*
X0614385Y0091832D01*
X0616384D01*
X0617384Y0090832D01*
Y0089833D01*
X0613385D01*
X0619383Y0091832D02*
Y0087833D01*
Y0089833D01*
X0620383Y0090832D01*
X0621383Y0091832D01*
X0622382D01*
X0625381Y0087833D02*
X0628380D01*
X0629380Y0088833D01*
X0628380Y0089833D01*
X0626381D01*
X0625381Y0090832D01*
X0626381Y0091832D01*
X0629380D01*
X0631379Y0087833D02*
X0633379D01*
X0632379D01*
Y0091832D01*
X0631379D01*
X0637377Y0087833D02*
X0639377D01*
X0640376Y0088833D01*
Y0090832D01*
X0639377Y0091832D01*
X0637377D01*
X0636378Y0090832D01*
Y0088833D01*
X0637377Y0087833D01*
X0642376D02*
Y0091832D01*
X0645375D01*
X0646374Y0090832D01*
Y0087833D01*
X0652373Y0092832D02*
X0651373Y0093831D01*
X0649373D01*
X0648374Y0092832D01*
Y0088833D01*
X0649373Y0087833D01*
X0651373D01*
X0652373Y0088833D01*
X0655372Y0087833D02*
X0657371D01*
X0658371Y0088833D01*
Y0090832D01*
X0657371Y0091832D01*
X0655372D01*
X0654372Y0090832D01*
Y0088833D01*
X0655372Y0087833D01*
X0660370D02*
Y0091832D01*
X0663369D01*
X0664369Y0090832D01*
Y0087833D01*
X0667368Y0092832D02*
Y0091832D01*
X0666368D01*
X0668367D01*
X0667368D01*
Y0088833D01*
X0668367Y0087833D01*
X0671366Y0091832D02*
Y0087833D01*
Y0089833D01*
X0672366Y0090832D01*
X0673366Y0091832D01*
X0674365D01*
X0678364Y0087833D02*
X0680364D01*
X0681363Y0088833D01*
Y0090832D01*
X0680364Y0091832D01*
X0678364D01*
X0677364Y0090832D01*
Y0088833D01*
X0678364Y0087833D01*
X0683362D02*
X0685362D01*
X0684362D01*
Y0093831D01*
X0683362D01*
G54D50*
X0115700Y0544900D02*
X0139200D01*
X0140700Y0543400D01*
X0146200D01*
X0248700Y0561400D02*
X0255700D01*
X0154200Y0568900D02*
X0161700Y0576400D01*
X0154200Y0551400D02*
Y0568900D01*
X0146200Y0543400D02*
X0154200Y0551400D01*
X0232763Y0577337D02*
X0248700Y0561400D01*
X0201700Y0576400D02*
X0202637Y0577337D01*
X0161700Y0576400D02*
X0201700D01*
X0202637Y0577337D02*
X0214276D01*
X0214776Y0577837D01*
X0217624D01*
X0218124Y0577337D01*
X0232763D01*
G54D51*
X0258200Y0513900D02*
X0267700D01*
X0255200Y0565900D02*
X0270200D01*
X0289200Y0546900D01*
Y0499900D02*
Y0546900D01*
X0285200Y0495900D02*
X0289200Y0499900D01*
G54D52*
X0259700Y0569400D02*
X0273200D01*
G54D55*
X0201011Y0328400D02*
D03*
X0193137D02*
D03*
X0185263D02*
D03*
X0099200Y0428400D02*
D03*
Y0418400D02*
D03*
Y0408400D02*
D03*
Y0398400D02*
D03*
Y0388400D02*
D03*
Y0378400D02*
D03*
Y0368400D02*
D03*
Y0358400D02*
D03*
Y0348400D02*
D03*
X0109200Y0438400D02*
D03*
Y0428400D02*
D03*
Y0418400D02*
D03*
Y0408400D02*
D03*
Y0398400D02*
D03*
Y0388400D02*
D03*
Y0378400D02*
D03*
Y0368400D02*
D03*
Y0358400D02*
D03*
Y0348400D02*
D03*
X0269200Y0438400D02*
D03*
Y0428400D02*
D03*
Y0418400D02*
D03*
Y0408400D02*
D03*
Y0398400D02*
D03*
Y0388400D02*
D03*
Y0378400D02*
D03*
Y0368400D02*
D03*
Y0358400D02*
D03*
Y0348400D02*
D03*
X0279200Y0438400D02*
D03*
Y0428400D02*
D03*
Y0418400D02*
D03*
Y0408400D02*
D03*
Y0398400D02*
D03*
Y0388400D02*
D03*
Y0378400D02*
D03*
Y0368400D02*
D03*
Y0358400D02*
D03*
Y0348400D02*
D03*
G54D56*
X0177389Y0328400D02*
D03*
G54D57*
X0279200D02*
D03*
Y0318400D02*
D03*
X0099200D02*
D03*
Y0328400D02*
D03*
X0229200D02*
D03*
X0239200D02*
D03*
X0159200D02*
D03*
X0139200D02*
D03*
X0149200D02*
D03*
X0179200Y0478400D02*
D03*
X0169200Y0488400D02*
D03*
Y0478400D02*
D03*
X0159200Y0488400D02*
D03*
Y0478400D02*
D03*
X0149200Y0488400D02*
D03*
Y0478400D02*
D03*
X0139200Y0488400D02*
D03*
Y0478400D02*
D03*
X0129200Y0488400D02*
D03*
Y0478400D02*
D03*
X0119200Y0488400D02*
D03*
Y0478400D02*
D03*
G54D58*
X0279200Y0308400D02*
D03*
X0099200D02*
D03*
X0179200Y0488400D02*
D03*
G54D59*
X0229200Y0338400D02*
D03*
X0239200D02*
D03*
X0159200D02*
D03*
X0139200D02*
D03*
X0149200D02*
D03*
G54D60*
X0103649Y0573691D02*
D03*
X0134751D02*
D03*
G54D61*
X0084200Y0303400D02*
D03*
X0294200D02*
D03*
Y0573400D02*
D03*
X0084200D02*
D03*
G54D62*
X0229200Y0514900D02*
D03*
Y0524900D02*
D03*
X0089200Y0493400D02*
D03*
Y0503400D02*
D03*
Y0513400D02*
D03*
Y0523400D02*
D03*
Y0533400D02*
D03*
Y0543400D02*
D03*
Y0553400D02*
D03*
G54D63*
X0099200Y0438400D02*
D03*
G54D64*
X0193700Y0544400D02*
D03*
X0186200Y0551400D02*
D03*
X0178200Y0341900D02*
D03*
X0170200Y0344900D02*
D03*
X0172700Y0360900D02*
D03*
X0192700Y0341900D02*
D03*
X0183200Y0333900D02*
D03*
X0166700Y0336400D02*
D03*
X0105200Y0455400D02*
D03*
X0113200D02*
D03*
X0187200Y0432400D02*
D03*
X0261200Y0428400D02*
D03*
X0206700D02*
D03*
X0104200Y0478400D02*
D03*
X0086700Y0448400D02*
D03*
X0089200Y0478400D02*
D03*
X0269200Y0468400D02*
D03*
X0264200Y0473400D02*
D03*
X0274200Y0463400D02*
D03*
X0293200Y0445400D02*
D03*
X0284200Y0478400D02*
D03*
X0258700Y0363400D02*
D03*
X0208200Y0367400D02*
D03*
X0205200Y0370900D02*
D03*
X0199279Y0393479D02*
D03*
X0169515Y0318400D02*
D03*
X0124200Y0418400D02*
D03*
X0119200Y0406400D02*
D03*
X0155700Y0390900D02*
D03*
X0180200Y0396900D02*
D03*
X0146700Y0368400D02*
D03*
X0114700Y0373400D02*
D03*
X0141700Y0368400D02*
D03*
X0129200Y0313400D02*
D03*
X0258200Y0513900D02*
D03*
X0267700D02*
D03*
X0254700Y0523900D02*
D03*
X0162450Y0580400D02*
D03*
X0169200D02*
D03*
X0134200Y0493400D02*
D03*
X0128950Y0502900D02*
D03*
X0255200Y0565900D02*
D03*
X0164200Y0555400D02*
D03*
X0219700Y0528900D02*
D03*
X0168700Y0572400D02*
D03*
X0138200Y0556400D02*
D03*
X0128700Y0540900D02*
D03*
X0264700Y0543900D02*
D03*
X0158700Y0503900D02*
D03*
X0146700Y0519400D02*
D03*
X0216700Y0524900D02*
D03*
X0208200Y0517400D02*
D03*
X0198200Y0539400D02*
D03*
X0201200Y0536900D02*
D03*
X0150200Y0578400D02*
D03*
X0142200D02*
D03*
Y0570400D02*
D03*
X0150200Y0569900D02*
D03*
X0138700Y0535900D02*
D03*
X0123200Y0554400D02*
D03*
X0255700Y0561400D02*
D03*
X0218700Y0571400D02*
D03*
X0202700Y0492400D02*
D03*
X0197200Y0496900D02*
D03*
X0174700Y0543900D02*
D03*
X0177200Y0525400D02*
D03*
X0123200Y0500400D02*
D03*
X0186700Y0490900D02*
D03*
X0136200Y0505400D02*
D03*
X0138200Y0509400D02*
D03*
X0140163Y0513863D02*
D03*
X0143200Y0515900D02*
D03*
X0136200Y0513400D02*
D03*
X0128700D02*
D03*
X0192700Y0557900D02*
D03*
X0197200D02*
D03*
X0238700Y0548400D02*
D03*
X0246700Y0541900D02*
D03*
X0242200Y0526900D02*
D03*
X0244237Y0523437D02*
D03*
X0171700Y0540900D02*
D03*
X0180700Y0549900D02*
D03*
X0177700Y0547400D02*
D03*
X0158200Y0542400D02*
D03*
X0164700Y0548900D02*
D03*
X0173700Y0557900D02*
D03*
X0164700Y0567900D02*
D03*
X0284200Y0513900D02*
D03*
X0271700Y0499400D02*
D03*
X0272200Y0508400D02*
D03*
X0281700Y0499400D02*
D03*
X0266700Y0548900D02*
D03*
X0174200Y0528900D02*
D03*
X0126700Y0526400D02*
D03*
X0109700Y0533900D02*
D03*
X0115200Y0535900D02*
D03*
X0134200Y0539900D02*
D03*
X0167700Y0534400D02*
D03*
X0115700Y0526400D02*
D03*
X0160200Y0528400D02*
D03*
X0157700Y0531400D02*
D03*
X0140700Y0530400D02*
D03*
X0149700Y0541400D02*
D03*
X0156700Y0535400D02*
D03*
X0143700Y0556900D02*
D03*
X0176700Y0563900D02*
D03*
X0180700Y0565900D02*
D03*
X0208200Y0549400D02*
D03*
X0201700Y0548900D02*
D03*
X0204861Y0550813D02*
D03*
X0183200Y0502522D02*
D03*
X0189700Y0510400D02*
D03*
X0205200Y0525900D02*
D03*
X0198700Y0502400D02*
D03*
X0222700Y0511400D02*
D03*
Y0546900D02*
D03*
X0225700Y0544400D02*
D03*
X0228700Y0546900D02*
D03*
X0231200Y0543400D02*
D03*
X0238700Y0533900D02*
D03*
X0234200Y0564900D02*
D03*
X0219220Y0564880D02*
D03*
X0210200Y0558900D02*
D03*
X0228200Y0540900D02*
D03*
X0219700Y0549900D02*
D03*
X0214200Y0537400D02*
D03*
X0218700Y0537900D02*
D03*
X0222200Y0536400D02*
D03*
X0244700Y0514900D02*
D03*
X0249200D02*
D03*
X0241200Y0521400D02*
D03*
X0246700Y0550900D02*
D03*
X0216700Y0567900D02*
D03*
X0113200Y0548900D02*
D03*
X0119200Y0554900D02*
D03*
X0105200Y0544900D02*
D03*
X0129200Y0550400D02*
D03*
X0102700Y0565900D02*
D03*
X0095700Y0579400D02*
D03*
X0078700Y0561400D02*
D03*
X0080700Y0528400D02*
D03*
X0096700Y0520900D02*
D03*
X0080700Y0498400D02*
D03*
X0098700Y0496400D02*
D03*
X0109200Y0512900D02*
D03*
X0206200Y0497400D02*
D03*
X0238700Y0506400D02*
D03*
X0258700Y0503900D02*
D03*
X0285200Y0505400D02*
D03*
X0280200Y0550400D02*
D03*
X0259700Y0569400D02*
D03*
X0273200D02*
D03*
X0281700Y0508900D02*
D03*
X0285200Y0495900D02*
D03*
X0167200Y0384400D02*
D03*
X0171200D02*
D03*
X0158200Y0380900D02*
D03*
X0158700Y0393900D02*
D03*
X0119200Y0413400D02*
D03*
X0190200Y0388400D02*
D03*
X0283700Y0454900D02*
D03*
X0270200D02*
D03*
X0179200Y0443400D02*
D03*
X0196090Y0423290D02*
D03*
X0188200Y0395900D02*
D03*
X0177200Y0369900D02*
D03*
X0187700Y0351400D02*
D03*
X0262200Y0395400D02*
D03*
X0207700Y0437900D02*
D03*
X0190200Y0429400D02*
D03*
X0193200Y0425900D02*
D03*
X0198200Y0437400D02*
D03*
X0203700Y0436400D02*
D03*
X0199200Y0420900D02*
D03*
X0195200Y0408400D02*
D03*
X0190700D02*
D03*
X0274200Y0470400D02*
D03*
X0210200Y0424900D02*
D03*
X0259200Y0423400D02*
D03*
X0224200Y0353400D02*
D03*
X0219200Y0348400D02*
D03*
X0158200Y0364400D02*
D03*
X0173200Y0376400D02*
D03*
X0104700Y0460900D02*
D03*
X0092200Y0459900D02*
D03*
X0079200Y0433400D02*
D03*
Y0393400D02*
D03*
Y0353400D02*
D03*
Y0313400D02*
D03*
X0104700Y0341900D02*
D03*
X0109200Y0298400D02*
D03*
X0149200D02*
D03*
X0189200D02*
D03*
X0229200D02*
D03*
X0269200D02*
D03*
X0118200Y0345400D02*
D03*
X0131200Y0336900D02*
D03*
X0142200Y0348900D02*
D03*
X0145200Y0358400D02*
D03*
X0117200Y0358900D02*
D03*
X0121200Y0377900D02*
D03*
X0158200Y0386400D02*
D03*
X0152200Y0370900D02*
D03*
X0130200Y0418400D02*
D03*
X0165700D02*
D03*
X0113200Y0450400D02*
D03*
X0161700Y0451400D02*
D03*
X0179700Y0432400D02*
D03*
X0118200Y0433900D02*
D03*
X0155200Y0431900D02*
D03*
X0118200Y0459400D02*
D03*
X0161700D02*
D03*
X0144200Y0471400D02*
D03*
X0134700D02*
D03*
X0164700Y0471900D02*
D03*
X0195700Y0441900D02*
D03*
X0182700Y0453900D02*
D03*
X0176200Y0459900D02*
D03*
X0182700Y0469400D02*
D03*
X0191700Y0475400D02*
D03*
X0219200Y0455900D02*
D03*
X0226200Y0450900D02*
D03*
X0212700Y0437900D02*
D03*
X0258700Y0438400D02*
D03*
X0266700Y0450900D02*
D03*
Y0458900D02*
D03*
X0274700D02*
D03*
Y0450900D02*
D03*
X0230700Y0475400D02*
D03*
X0213700Y0421400D02*
D03*
Y0412400D02*
D03*
X0254200Y0421400D02*
D03*
X0248800Y0412400D02*
D03*
X0213200Y0367400D02*
D03*
X0248700Y0363900D02*
D03*
X0257700Y0354400D02*
D03*
X0229700Y0354900D02*
D03*
X0218700Y0353900D02*
D03*
X0207200Y0362900D02*
D03*
X0174700Y0350400D02*
D03*
X0206916Y0333715D02*
D03*
X0215200Y0345400D02*
D03*
X0193200Y0347400D02*
D03*
X0130700Y0328900D02*
D03*
X0169700Y0312900D02*
D03*
X0222200Y0333400D02*
D03*
X0199700Y0314900D02*
D03*
X0238700Y0345400D02*
D03*
X0264200Y0344400D02*
D03*
X0234200Y0321400D02*
D03*
X0245700Y0323900D02*
D03*
X0224200Y0323400D02*
D03*
X0299200Y0313400D02*
D03*
Y0353400D02*
D03*
Y0393400D02*
D03*
Y0433400D02*
D03*
X0286700Y0399400D02*
D03*
X0285200Y0373400D02*
D03*
X0100700Y0452400D02*
D03*
X0182700Y0361400D02*
D03*
X0193700Y0398400D02*
D03*
X0199700Y0404400D02*
D03*
X0187200Y0403400D02*
D03*
X0181200Y0406400D02*
D03*
X0180700Y0387900D02*
D03*
X0180200Y0351400D02*
D03*
X0174200Y0418600D02*
D03*
X0244700Y0408400D02*
D03*
X0213700D02*
D03*
X0211700Y0394400D02*
D03*
X0247700D02*
D03*
X0254200Y0363400D02*
D03*
X0251700Y0390400D02*
D03*
X0234200Y0312400D02*
D03*
X0216200Y0574400D02*
D03*
G54D65*
X0244200Y0571400D02*
D03*
G54D66*
X0146200Y0543400D02*
D03*
X0115700Y0544900D02*
D03*
M02*
