%FSLAX25Y25*%
%MOIN*%
G70*
G01*
G75*
G04 Layer_Color=8388736*
G04:AMPARAMS|DCode=10|XSize=88.58mil|YSize=76.77mil|CornerRadius=0mil|HoleSize=0mil|Usage=FLASHONLY|Rotation=225.000|XOffset=0mil|YOffset=0mil|HoleType=Round|Shape=Rectangle|*
%AMROTATEDRECTD10*
4,1,4,0.00418,0.05846,0.05846,0.00418,-0.00418,-0.05846,-0.05846,-0.00418,0.00418,0.05846,0.0*
%
%ADD10ROTATEDRECTD10*%

%ADD11O,0.06693X0.01378*%
%ADD12R,0.03937X0.03740*%
%ADD13R,0.03740X0.03937*%
%ADD14R,0.04921X0.07087*%
%ADD15O,0.00984X0.03740*%
%ADD16O,0.03740X0.00984*%
%ADD17R,0.06535X0.06535*%
%ADD18R,0.07441X0.06181*%
%ADD19O,0.01772X0.07874*%
%ADD20R,0.04331X0.02559*%
%ADD21C,0.03937*%
%ADD22R,0.03543X0.01575*%
%ADD23R,0.11024X0.07874*%
%ADD24R,0.11024X0.11024*%
%ADD25R,0.11024X0.08661*%
%ADD26C,0.01000*%
%ADD27C,0.01500*%
%ADD28C,0.01200*%
%ADD29C,0.01800*%
%ADD30C,0.06000*%
%ADD31R,0.06000X0.06000*%
%ADD32C,0.07874*%
%ADD33C,0.02953*%
%ADD34C,0.05118*%
%ADD35R,0.06496X0.06496*%
%ADD36C,0.06496*%
%ADD37C,0.02000*%
%ADD38C,0.00600*%
%ADD39C,0.00984*%
%ADD40C,0.00700*%
%ADD41C,0.00050*%
%ADD42C,0.00787*%
G04:AMPARAMS|DCode=43|XSize=94.58mil|YSize=82.77mil|CornerRadius=0mil|HoleSize=0mil|Usage=FLASHONLY|Rotation=225.000|XOffset=0mil|YOffset=0mil|HoleType=Round|Shape=Rectangle|*
%AMROTATEDRECTD43*
4,1,4,0.00418,0.06270,0.06270,0.00418,-0.00418,-0.06270,-0.06270,-0.00418,0.00418,0.06270,0.0*
%
%ADD43ROTATEDRECTD43*%

%ADD44O,0.07293X0.01978*%
%ADD45R,0.04537X0.04340*%
%ADD46R,0.04340X0.04537*%
%ADD47R,0.05521X0.07687*%
%ADD48O,0.01584X0.04340*%
%ADD49O,0.04340X0.01584*%
%ADD50R,0.07135X0.07135*%
%ADD51R,0.08041X0.06781*%
%ADD52O,0.02372X0.08474*%
%ADD53R,0.04931X0.03159*%
%ADD54C,0.07874*%
%ADD55R,0.04143X0.02175*%
%ADD56R,0.11624X0.08474*%
%ADD57R,0.11624X0.11624*%
%ADD58R,0.11624X0.09261*%
%ADD59C,0.06600*%
%ADD60R,0.06600X0.06600*%
%ADD61C,0.08474*%
%ADD62C,0.03553*%
%ADD63C,0.05718*%
%ADD64C,0.00600*%
%ADD65R,0.07096X0.07096*%
%ADD66C,0.07096*%
%ADD67C,0.00800*%
%ADD68C,0.00200*%
%ADD69R,0.37500X0.12500*%
%ADD70R,0.12500X0.12500*%
D26*
X-23000Y300000D02*
X-1500D01*
X-23000Y0D02*
X0D01*
X-22000Y176991D02*
Y300000D01*
Y0D02*
Y119809D01*
X-24000Y294000D02*
X-22000Y300000D01*
X-20000Y294000D01*
X-22000Y0D02*
X-20000Y6000D01*
X-24000D02*
X-22000Y0D01*
X230000Y-10500D02*
Y-1500D01*
X0Y-10500D02*
Y0D01*
X141991Y-9500D02*
X230000D01*
X0D02*
X84809D01*
X224000Y-7500D02*
X230000Y-9500D01*
X224000Y-11500D02*
X230000Y-9500D01*
X0D02*
X6000Y-11500D01*
X0Y-9500D02*
X6000Y-7500D01*
X100000Y-47000D02*
Y-41350D01*
X0Y-47000D02*
Y-41350D01*
X76491Y-46000D02*
X100000D01*
X0D02*
X20309D01*
X94000Y-44000D02*
X100000Y-46000D01*
X94000Y-48000D02*
X100000Y-46000D01*
X0D02*
X6000Y-48000D01*
X0Y-46000D02*
X6000Y-44000D01*
D38*
X-23399Y121409D02*
X-24399Y122408D01*
Y124408D01*
X-23399Y125407D01*
X-22400D01*
X-21400Y124408D01*
Y123408D01*
Y124408D01*
X-20400Y125407D01*
X-19401D01*
X-18401Y124408D01*
Y122408D01*
X-19401Y121409D01*
X-23399Y127407D02*
X-24399Y128407D01*
Y130406D01*
X-23399Y131405D01*
X-19401D01*
X-18401Y130406D01*
Y128407D01*
X-19401Y127407D01*
X-23399D01*
Y133405D02*
X-24399Y134405D01*
Y136404D01*
X-23399Y137404D01*
X-19401D01*
X-18401Y136404D01*
Y134405D01*
X-19401Y133405D01*
X-23399D01*
Y139403D02*
X-24399Y140403D01*
Y142402D01*
X-23399Y143402D01*
X-19401D01*
X-18401Y142402D01*
Y140403D01*
X-19401Y139403D01*
X-23399D01*
X-18401Y145401D02*
X-19401D01*
Y146401D01*
X-18401D01*
Y145401D01*
X-23399Y150399D02*
X-24399Y151399D01*
Y153398D01*
X-23399Y154398D01*
X-19401D01*
X-18401Y153398D01*
Y151399D01*
X-19401Y150399D01*
X-23399D01*
Y156397D02*
X-24399Y157397D01*
Y159396D01*
X-23399Y160396D01*
X-19401D01*
X-18401Y159396D01*
Y157397D01*
X-19401Y156397D01*
X-23399D01*
X-18401Y162396D02*
X-22400D01*
Y163395D01*
X-21400Y164395D01*
X-18401D01*
X-21400D01*
X-22400Y165394D01*
X-21400Y166394D01*
X-18401D01*
Y168394D02*
Y170393D01*
Y169393D01*
X-22400D01*
Y168394D01*
X-18401Y173392D02*
Y175391D01*
Y174392D01*
X-24399D01*
Y173392D01*
X90407Y-13099D02*
X86409D01*
X90407Y-9100D01*
Y-8101D01*
X89408Y-7101D01*
X87408D01*
X86409Y-8101D01*
X92407D02*
X93406Y-7101D01*
X95406D01*
X96406Y-8101D01*
Y-9100D01*
X95406Y-10100D01*
X94406D01*
X95406D01*
X96406Y-11100D01*
Y-12099D01*
X95406Y-13099D01*
X93406D01*
X92407Y-12099D01*
X98405Y-8101D02*
X99405Y-7101D01*
X101404D01*
X102404Y-8101D01*
Y-12099D01*
X101404Y-13099D01*
X99405D01*
X98405Y-12099D01*
Y-8101D01*
X104403D02*
X105403Y-7101D01*
X107402D01*
X108402Y-8101D01*
Y-12099D01*
X107402Y-13099D01*
X105403D01*
X104403Y-12099D01*
Y-8101D01*
X110401Y-13099D02*
Y-12099D01*
X111401D01*
Y-13099D01*
X110401D01*
X115399Y-8101D02*
X116399Y-7101D01*
X118398D01*
X119398Y-8101D01*
Y-12099D01*
X118398Y-13099D01*
X116399D01*
X115399Y-12099D01*
Y-8101D01*
X121397D02*
X122397Y-7101D01*
X124396D01*
X125396Y-8101D01*
Y-12099D01*
X124396Y-13099D01*
X122397D01*
X121397Y-12099D01*
Y-8101D01*
X127395Y-13099D02*
Y-9100D01*
X128395D01*
X129395Y-10100D01*
Y-13099D01*
Y-10100D01*
X130394Y-9100D01*
X131394Y-10100D01*
Y-13099D01*
X133394D02*
X135393D01*
X134393D01*
Y-9100D01*
X133394D01*
X138392Y-13099D02*
X140391D01*
X139392D01*
Y-7101D01*
X138392D01*
X21909Y-49599D02*
X23908D01*
X22908D01*
Y-43601D01*
X21909Y-44601D01*
X26907D02*
X27907Y-43601D01*
X29906D01*
X30906Y-44601D01*
Y-48599D01*
X29906Y-49599D01*
X27907D01*
X26907Y-48599D01*
Y-44601D01*
X32905D02*
X33905Y-43601D01*
X35904D01*
X36904Y-44601D01*
Y-48599D01*
X35904Y-49599D01*
X33905D01*
X32905Y-48599D01*
Y-44601D01*
X38903D02*
X39903Y-43601D01*
X41902D01*
X42902Y-44601D01*
Y-48599D01*
X41902Y-49599D01*
X39903D01*
X38903Y-48599D01*
Y-44601D01*
X44901Y-49599D02*
Y-48599D01*
X45901D01*
Y-49599D01*
X44901D01*
X49900Y-44601D02*
X50899Y-43601D01*
X52899D01*
X53898Y-44601D01*
Y-48599D01*
X52899Y-49599D01*
X50899D01*
X49900Y-48599D01*
Y-44601D01*
X55898D02*
X56897Y-43601D01*
X58897D01*
X59896Y-44601D01*
Y-48599D01*
X58897Y-49599D01*
X56897D01*
X55898Y-48599D01*
Y-44601D01*
X61896Y-49599D02*
Y-45600D01*
X62895D01*
X63895Y-46600D01*
Y-49599D01*
Y-46600D01*
X64895Y-45600D01*
X65894Y-46600D01*
Y-49599D01*
X67894D02*
X69893D01*
X68893D01*
Y-45600D01*
X67894D01*
X72892Y-49599D02*
X74891D01*
X73892D01*
Y-43601D01*
X72892D01*
D40*
X100000Y-40000D02*
Y-15000D01*
X75000Y-40000D02*
Y-15000D01*
X50000Y-40000D02*
Y-15000D01*
X25000Y-40000D02*
Y-15000D01*
X12500Y-40000D02*
Y-15000D01*
X0Y-40000D02*
Y-15000D01*
Y-27500D02*
X100000D01*
X0Y-40000D02*
X100000D01*
X0Y-15000D02*
X100000D01*
D67*
X57700Y-85849D02*
Y-79851D01*
X59699Y-81851D01*
X61699Y-79851D01*
Y-85849D01*
X67697D02*
X63698D01*
X67697Y-81851D01*
Y-80851D01*
X66697Y-79851D01*
X64698D01*
X63698Y-80851D01*
X75694Y-79851D02*
Y-85849D01*
X78693D01*
X79693Y-84850D01*
Y-83850D01*
X78693Y-82850D01*
X75694D01*
X78693D01*
X79693Y-81851D01*
Y-80851D01*
X78693Y-79851D01*
X75694D01*
X82692Y-85849D02*
X84691D01*
X85691Y-84850D01*
Y-82850D01*
X84691Y-81851D01*
X82692D01*
X81692Y-82850D01*
Y-84850D01*
X82692Y-85849D01*
X88690Y-81851D02*
X90689D01*
X91689Y-82850D01*
Y-85849D01*
X88690D01*
X87690Y-84850D01*
X88690Y-83850D01*
X91689D01*
X93688Y-81851D02*
Y-85849D01*
Y-83850D01*
X94688Y-82850D01*
X95688Y-81851D01*
X96687D01*
X103685Y-79851D02*
Y-85849D01*
X100686D01*
X99686Y-84850D01*
Y-82850D01*
X100686Y-81851D01*
X103685D01*
X111682Y-79851D02*
Y-85849D01*
X114682D01*
X115681Y-84850D01*
Y-80851D01*
X114682Y-79851D01*
X111682D01*
X117681Y-85849D02*
X119680D01*
X118680D01*
Y-81851D01*
X117681D01*
X122679Y-85849D02*
Y-81851D01*
X123679D01*
X124678Y-82850D01*
Y-85849D01*
Y-82850D01*
X125678Y-81851D01*
X126678Y-82850D01*
Y-85849D01*
X131676D02*
X129677D01*
X128677Y-84850D01*
Y-82850D01*
X129677Y-81851D01*
X131676D01*
X132676Y-82850D01*
Y-83850D01*
X128677D01*
X134675Y-85849D02*
Y-81851D01*
X137674D01*
X138674Y-82850D01*
Y-85849D01*
X140673D02*
X143672D01*
X144672Y-84850D01*
X143672Y-83850D01*
X141673D01*
X140673Y-82850D01*
X141673Y-81851D01*
X144672D01*
X146671Y-85849D02*
X148671D01*
X147671D01*
Y-81851D01*
X146671D01*
X152669Y-85849D02*
X154669D01*
X155668Y-84850D01*
Y-82850D01*
X154669Y-81851D01*
X152669D01*
X151670Y-82850D01*
Y-84850D01*
X152669Y-85849D01*
X157668D02*
Y-81851D01*
X160667D01*
X161666Y-82850D01*
Y-85849D01*
X163666D02*
X166665D01*
X167664Y-84850D01*
X166665Y-83850D01*
X164665D01*
X163666Y-82850D01*
X164665Y-81851D01*
X167664D01*
D69*
X31250Y-33750D02*
D03*
D70*
X6250Y-21250D02*
D03*
M02*
