%FSLAX25Y25*%
%MOIN*%
G70*
G01*
G75*
G04 Layer_Color=11296232*
G04:AMPARAMS|DCode=10|XSize=88.58mil|YSize=76.77mil|CornerRadius=0mil|HoleSize=0mil|Usage=FLASHONLY|Rotation=225.000|XOffset=0mil|YOffset=0mil|HoleType=Round|Shape=Rectangle|*
%AMROTATEDRECTD10*
4,1,4,0.00418,0.05846,0.05846,0.00418,-0.00418,-0.05846,-0.05846,-0.00418,0.00418,0.05846,0.0*
%
%ADD10ROTATEDRECTD10*%

%ADD11O,0.06693X0.01378*%
%ADD12R,0.03937X0.03740*%
%ADD13R,0.03740X0.03937*%
%ADD14R,0.04921X0.07087*%
%ADD15O,0.00984X0.03740*%
%ADD16O,0.03740X0.00984*%
%ADD17R,0.06535X0.06535*%
%ADD18R,0.07441X0.06181*%
%ADD19O,0.01772X0.07874*%
%ADD20R,0.04331X0.02559*%
%ADD21C,0.03937*%
%ADD22R,0.03543X0.01575*%
%ADD23R,0.11024X0.07874*%
%ADD24R,0.11024X0.11024*%
%ADD25R,0.11024X0.08661*%
%ADD26C,0.01000*%
%ADD27C,0.01500*%
%ADD28C,0.01200*%
%ADD29C,0.01800*%
%ADD30C,0.06000*%
%ADD31R,0.06000X0.06000*%
%ADD32C,0.07874*%
%ADD33C,0.02953*%
%ADD34C,0.05118*%
%ADD35R,0.06496X0.06496*%
%ADD36C,0.06496*%
%ADD37C,0.02000*%
%ADD38C,0.00600*%
%ADD39C,0.00984*%
%ADD40C,0.00700*%
%ADD41C,0.00050*%
%ADD42C,0.00787*%
G04:AMPARAMS|DCode=43|XSize=94.58mil|YSize=82.77mil|CornerRadius=0mil|HoleSize=0mil|Usage=FLASHONLY|Rotation=225.000|XOffset=0mil|YOffset=0mil|HoleType=Round|Shape=Rectangle|*
%AMROTATEDRECTD43*
4,1,4,0.00418,0.06270,0.06270,0.00418,-0.00418,-0.06270,-0.06270,-0.00418,0.00418,0.06270,0.0*
%
%ADD43ROTATEDRECTD43*%

%ADD44O,0.07293X0.01978*%
%ADD45R,0.04537X0.04340*%
%ADD46R,0.04340X0.04537*%
%ADD47R,0.05521X0.07687*%
%ADD48O,0.01584X0.04340*%
%ADD49O,0.04340X0.01584*%
%ADD50R,0.07135X0.07135*%
%ADD51R,0.08041X0.06781*%
%ADD52O,0.02372X0.08474*%
%ADD53R,0.04931X0.03159*%
%ADD54C,0.07874*%
%ADD55R,0.04143X0.02175*%
%ADD56R,0.11624X0.08474*%
%ADD57R,0.11624X0.11624*%
%ADD58R,0.11624X0.09261*%
%ADD59C,0.06600*%
%ADD60R,0.06600X0.06600*%
%ADD61C,0.08474*%
%ADD62C,0.03553*%
%ADD63C,0.05718*%
%ADD64C,0.00600*%
%ADD65R,0.07096X0.07096*%
%ADD66C,0.07096*%
%ADD67C,0.00800*%
%ADD68C,0.00200*%
D26*
X0Y0D02*
X230000D01*
Y300000D01*
X0D02*
X230000D01*
X0Y0D02*
Y300000D01*
D67*
X57700Y-85849D02*
Y-79851D01*
X59699Y-81851D01*
X61699Y-79851D01*
Y-85849D01*
X63698D02*
X65697D01*
X64698D01*
Y-79851D01*
X63698Y-80851D01*
X74695Y-79851D02*
Y-85849D01*
X77693D01*
X78693Y-84850D01*
Y-83850D01*
X77693Y-82850D01*
X74695D01*
X77693D01*
X78693Y-81851D01*
Y-80851D01*
X77693Y-79851D01*
X74695D01*
X81692Y-85849D02*
X83692D01*
X84691Y-84850D01*
Y-82850D01*
X83692Y-81851D01*
X81692D01*
X80693Y-82850D01*
Y-84850D01*
X81692Y-85849D01*
X87690Y-81851D02*
X89690D01*
X90689Y-82850D01*
Y-85849D01*
X87690D01*
X86691Y-84850D01*
X87690Y-83850D01*
X90689D01*
X92689Y-81851D02*
Y-85849D01*
Y-83850D01*
X93688Y-82850D01*
X94688Y-81851D01*
X95688D01*
X102685Y-79851D02*
Y-85849D01*
X99686D01*
X98687Y-84850D01*
Y-82850D01*
X99686Y-81851D01*
X102685D01*
X113682Y-79851D02*
X111682D01*
X110683Y-80851D01*
Y-84850D01*
X111682Y-85849D01*
X113682D01*
X114682Y-84850D01*
Y-80851D01*
X113682Y-79851D01*
X116681Y-81851D02*
Y-84850D01*
X117681Y-85849D01*
X120680D01*
Y-81851D01*
X123679Y-80851D02*
Y-81851D01*
X122679D01*
X124678D01*
X123679D01*
Y-84850D01*
X124678Y-85849D01*
X127677D02*
X129677D01*
X128677D01*
Y-79851D01*
X127677D01*
X132676Y-85849D02*
X134675D01*
X133675D01*
Y-81851D01*
X132676D01*
X137674Y-85849D02*
Y-81851D01*
X140673D01*
X141673Y-82850D01*
Y-85849D01*
X146671D02*
X144672D01*
X143672Y-84850D01*
Y-82850D01*
X144672Y-81851D01*
X146671D01*
X147671Y-82850D01*
Y-83850D01*
X143672D01*
M02*
