%FSLAX25Y25*%
%MOIN*%
G70*
G01*
G75*
G04 Layer_Color=16711935*
G04:AMPARAMS|DCode=10|XSize=88.58mil|YSize=76.77mil|CornerRadius=0mil|HoleSize=0mil|Usage=FLASHONLY|Rotation=225.000|XOffset=0mil|YOffset=0mil|HoleType=Round|Shape=Rectangle|*
%AMROTATEDRECTD10*
4,1,4,0.00418,0.05846,0.05846,0.00418,-0.00418,-0.05846,-0.05846,-0.00418,0.00418,0.05846,0.0*
%
%ADD10ROTATEDRECTD10*%

%ADD11O,0.06693X0.01378*%
%ADD12R,0.03937X0.03740*%
%ADD13R,0.03740X0.03937*%
%ADD14R,0.04921X0.07087*%
%ADD15O,0.00984X0.03740*%
%ADD16O,0.03740X0.00984*%
%ADD17R,0.06535X0.06535*%
%ADD18R,0.07441X0.06181*%
%ADD19O,0.01772X0.07874*%
%ADD20R,0.04331X0.02559*%
%ADD21C,0.03937*%
%ADD22R,0.03543X0.01575*%
%ADD23R,0.11024X0.07874*%
%ADD24R,0.11024X0.11024*%
%ADD25R,0.11024X0.08661*%
%ADD26C,0.01000*%
%ADD27C,0.01500*%
%ADD28C,0.01200*%
%ADD29C,0.01800*%
%ADD30C,0.06000*%
%ADD31R,0.06000X0.06000*%
%ADD32C,0.07874*%
%ADD33C,0.02953*%
%ADD34C,0.05118*%
%ADD35R,0.06496X0.06496*%
%ADD36C,0.06496*%
%ADD37C,0.02000*%
%ADD38C,0.00600*%
%ADD39C,0.00984*%
%ADD40C,0.00700*%
%ADD41C,0.00050*%
%ADD42C,0.00787*%
G04:AMPARAMS|DCode=43|XSize=94.58mil|YSize=82.77mil|CornerRadius=0mil|HoleSize=0mil|Usage=FLASHONLY|Rotation=225.000|XOffset=0mil|YOffset=0mil|HoleType=Round|Shape=Rectangle|*
%AMROTATEDRECTD43*
4,1,4,0.00418,0.06270,0.06270,0.00418,-0.00418,-0.06270,-0.06270,-0.00418,0.00418,0.06270,0.0*
%
%ADD43ROTATEDRECTD43*%

%ADD44O,0.07293X0.01978*%
%ADD45R,0.04537X0.04340*%
%ADD46R,0.04340X0.04537*%
%ADD47R,0.05521X0.07687*%
%ADD48O,0.01584X0.04340*%
%ADD49O,0.04340X0.01584*%
%ADD50R,0.07135X0.07135*%
%ADD51R,0.08041X0.06781*%
%ADD52O,0.02372X0.08474*%
%ADD53R,0.04931X0.03159*%
%ADD54C,0.07874*%
%ADD55R,0.04143X0.02175*%
%ADD56R,0.11624X0.08474*%
%ADD57R,0.11624X0.11624*%
%ADD58R,0.11624X0.09261*%
%ADD59C,0.06600*%
%ADD60R,0.06600X0.06600*%
%ADD61C,0.08474*%
%ADD62C,0.03553*%
%ADD63C,0.05718*%
%ADD64C,0.00600*%
%ADD65R,0.07096X0.07096*%
%ADD66C,0.07096*%
D59*
X205000Y105000D02*
D03*
Y95000D02*
D03*
Y85000D02*
D03*
Y75000D02*
D03*
Y65000D02*
D03*
Y55000D02*
D03*
Y45000D02*
D03*
Y35000D02*
D03*
Y25000D02*
D03*
Y15000D02*
D03*
X25000D02*
D03*
Y25000D02*
D03*
Y35000D02*
D03*
Y45000D02*
D03*
Y55000D02*
D03*
Y65000D02*
D03*
Y75000D02*
D03*
Y85000D02*
D03*
Y95000D02*
D03*
X35000Y105000D02*
D03*
Y95000D02*
D03*
Y85000D02*
D03*
Y75000D02*
D03*
Y65000D02*
D03*
Y55000D02*
D03*
Y45000D02*
D03*
Y35000D02*
D03*
Y25000D02*
D03*
Y15000D02*
D03*
X195000D02*
D03*
Y25000D02*
D03*
Y35000D02*
D03*
Y45000D02*
D03*
Y55000D02*
D03*
Y65000D02*
D03*
Y75000D02*
D03*
Y85000D02*
D03*
Y95000D02*
D03*
Y105000D02*
D03*
X47000Y133252D02*
D03*
Y164748D02*
D03*
Y149000D02*
D03*
X100130Y163315D02*
D03*
X80445D02*
D03*
D60*
X25000Y105000D02*
D03*
D61*
X7630Y168685D02*
D03*
Y129315D02*
D03*
D62*
X105220Y131296D02*
D03*
X122500Y112500D02*
D03*
D63*
X103240Y36000D02*
D03*
X95760D02*
D03*
D64*
X50917Y291268D02*
D03*
X129657Y192843D02*
D03*
D65*
X118500Y71000D02*
D03*
D66*
X128500D02*
D03*
X118500Y61000D02*
D03*
X128500D02*
D03*
X118500Y51000D02*
D03*
X128500D02*
D03*
M02*
