%FSAX25Y25*%
%MOIN*%
G70*
G01*
G75*
G04 Layer_Physical_Order=1*
G04 Layer_Color=255*
%ADD10R,0.02362X0.03150*%
%ADD11O,0.08661X0.02362*%
%ADD12O,0.07480X0.02362*%
%ADD13O,0.07677X0.01575*%
%ADD14C,0.01000*%
%ADD15C,0.02000*%
%ADD16C,0.01500*%
%ADD17C,0.00800*%
%ADD18C,0.05906*%
%ADD19R,0.05906X0.05906*%
%ADD20C,0.03400*%
G36*
X0274108Y0299650D02*
X0276074D01*
X0276208Y0299623D01*
X0279259D01*
Y0298676D01*
X0276208D01*
X0276074Y0298650D01*
X0274485D01*
X0274524Y0298453D01*
X0274773Y0298080D01*
X0274381Y0297493D01*
X0274108Y0297501D01*
X0273881Y0297576D01*
Y0297837D01*
X0272200D01*
Y0295262D01*
X0271700D01*
Y0294762D01*
X0269519D01*
Y0293313D01*
X0269319D01*
Y0292388D01*
X0268330D01*
X0268268Y0292468D01*
X0267663Y0292933D01*
X0266957Y0293225D01*
X0266200Y0293325D01*
X0265443Y0293225D01*
X0264738Y0292933D01*
X0264132Y0292468D01*
X0263667Y0291863D01*
X0263375Y0291157D01*
X0263275Y0290400D01*
X0263375Y0289643D01*
X0263667Y0288937D01*
X0264132Y0288332D01*
X0264738Y0287867D01*
X0265443Y0287575D01*
X0266200Y0287475D01*
X0266957Y0287575D01*
X0267663Y0287867D01*
X0268268Y0288332D01*
X0268330Y0288412D01*
X0269319D01*
Y0287763D01*
X0269736D01*
X0269983Y0287263D01*
X0269704Y0286899D01*
X0269432Y0286243D01*
X0269405Y0286038D01*
X0274720D01*
X0274693Y0286243D01*
X0274421Y0286899D01*
X0274127Y0287282D01*
X0274081Y0287763D01*
X0274081Y0287763D01*
X0274081Y0287763D01*
Y0288412D01*
X0276200D01*
X0276961Y0288563D01*
X0277606Y0288994D01*
X0280606Y0291994D01*
X0281037Y0292639D01*
X0281188Y0293400D01*
Y0294624D01*
X0282310D01*
X0282700Y0294701D01*
X0283200Y0294299D01*
Y0287880D01*
X0282814Y0287563D01*
X0282507Y0287624D01*
X0280448D01*
Y0285400D01*
X0279948D01*
Y0284900D01*
X0275265D01*
X0275334Y0284549D01*
X0275816Y0283827D01*
X0276538Y0283345D01*
X0276983Y0283257D01*
Y0282747D01*
X0276460Y0282643D01*
X0275697Y0282133D01*
X0267918D01*
X0257939Y0292113D01*
X0258117Y0292641D01*
X0258663Y0292867D01*
X0259268Y0293332D01*
X0259733Y0293937D01*
X0260025Y0294643D01*
X0260125Y0295400D01*
X0260025Y0296157D01*
X0259733Y0296863D01*
X0259464Y0297213D01*
X0261918Y0299667D01*
X0274094D01*
X0274108Y0299650D01*
D02*
G37*
G36*
X0319330Y0295819D02*
X0319275Y0295400D01*
X0319375Y0294643D01*
X0319667Y0293937D01*
X0320132Y0293332D01*
X0320738Y0292867D01*
X0321443Y0292575D01*
X0321685Y0292543D01*
X0321864Y0292015D01*
X0311982Y0282133D01*
X0302703D01*
X0301940Y0282643D01*
X0301417Y0282747D01*
Y0283257D01*
X0301862Y0283345D01*
X0302584Y0283827D01*
X0303066Y0284549D01*
X0303135Y0284900D01*
X0298452D01*
Y0285400D01*
X0297952D01*
Y0287624D01*
X0295893D01*
X0295430Y0287532D01*
X0294931Y0287936D01*
Y0294479D01*
X0295430Y0294755D01*
X0296090Y0294624D01*
X0297153D01*
Y0293459D01*
X0297304Y0292698D01*
X0297735Y0292053D01*
X0300656Y0289132D01*
X0301301Y0288701D01*
X0302062Y0288550D01*
X0304965D01*
X0305281Y0288234D01*
X0305265Y0287719D01*
X0304946Y0287457D01*
X0304774Y0287326D01*
X0304342Y0286762D01*
X0304069Y0286105D01*
X0304043Y0285900D01*
X0309358D01*
X0309331Y0286105D01*
X0309058Y0286762D01*
X0308674Y0287263D01*
X0308733Y0287512D01*
X0308877Y0287763D01*
X0310081D01*
Y0288098D01*
X0310375Y0288250D01*
X0310581Y0288294D01*
X0311138Y0287867D01*
X0311843Y0287575D01*
X0312600Y0287475D01*
X0313357Y0287575D01*
X0314062Y0287867D01*
X0314668Y0288332D01*
X0315133Y0288937D01*
X0315425Y0289643D01*
X0315525Y0290400D01*
X0315425Y0291157D01*
X0315133Y0291863D01*
X0314668Y0292468D01*
X0314062Y0292933D01*
X0313357Y0293225D01*
X0312600Y0293325D01*
X0311843Y0293225D01*
X0311138Y0292933D01*
X0310607Y0292526D01*
X0310081D01*
Y0293313D01*
X0309881D01*
Y0294762D01*
X0305519D01*
Y0293313D01*
X0305319D01*
Y0292526D01*
X0302886D01*
X0301288Y0294124D01*
X0301495Y0294624D01*
X0302192D01*
X0302968Y0294778D01*
X0303625Y0295217D01*
X0304064Y0295875D01*
X0304219Y0296650D01*
X0304064Y0297426D01*
X0303627Y0298080D01*
X0303876Y0298453D01*
X0303915Y0298650D01*
X0302326D01*
X0302192Y0298676D01*
X0299141D01*
Y0299623D01*
X0302192D01*
X0302326Y0299650D01*
X0304153D01*
X0304372Y0299917D01*
X0315232D01*
X0319330Y0295819D01*
D02*
G37*
G36*
X0283200Y0343073D02*
X0282901Y0342828D01*
X0276602D01*
X0275673Y0342643D01*
X0275291Y0342388D01*
X0273581D01*
Y0343113D01*
X0273381D01*
Y0344562D01*
X0269019D01*
Y0343113D01*
X0268819D01*
Y0342388D01*
X0268112D01*
X0267663Y0342733D01*
X0266957Y0343025D01*
X0266200Y0343125D01*
X0265443Y0343025D01*
X0264738Y0342733D01*
X0264630Y0342650D01*
X0264181Y0342871D01*
Y0343037D01*
X0259419D01*
Y0337487D01*
Y0332763D01*
X0260074D01*
X0260199Y0332137D01*
X0260574Y0331574D01*
X0261249Y0330900D01*
X0257974Y0327626D01*
X0257599Y0327063D01*
X0257467Y0326400D01*
Y0321118D01*
X0253763Y0317414D01*
X0253290Y0317648D01*
X0253389Y0318400D01*
X0253246Y0319484D01*
X0252827Y0320494D01*
X0252162Y0321362D01*
X0251294Y0322027D01*
X0250284Y0322446D01*
X0249200Y0322589D01*
X0248116Y0322446D01*
X0247106Y0322027D01*
X0246238Y0321362D01*
X0245573Y0320494D01*
X0245154Y0319484D01*
X0245011Y0318400D01*
X0245154Y0317316D01*
X0245573Y0316306D01*
X0246089Y0315633D01*
X0245843Y0315133D01*
X0244200D01*
X0243537Y0315001D01*
X0242974Y0314626D01*
X0240645Y0312296D01*
X0240284Y0312446D01*
X0239200Y0312589D01*
X0238116Y0312446D01*
X0237106Y0312027D01*
X0236238Y0311362D01*
X0235573Y0310494D01*
X0235154Y0309484D01*
X0235011Y0308400D01*
X0235154Y0307316D01*
X0235573Y0306306D01*
X0236238Y0305438D01*
X0237106Y0304773D01*
X0238116Y0304354D01*
X0239200Y0304211D01*
X0240284Y0304354D01*
X0241294Y0304773D01*
X0242162Y0305438D01*
X0242827Y0306306D01*
X0243246Y0307316D01*
X0243389Y0308400D01*
X0243246Y0309484D01*
X0243096Y0309845D01*
X0244918Y0311667D01*
X0245843D01*
X0246089Y0311167D01*
X0245573Y0310494D01*
X0245154Y0309484D01*
X0245011Y0308400D01*
X0245154Y0307316D01*
X0245573Y0306306D01*
X0246089Y0305633D01*
X0245843Y0305133D01*
X0244200D01*
X0243537Y0305001D01*
X0242974Y0304626D01*
X0240645Y0302296D01*
X0240284Y0302446D01*
X0239200Y0302589D01*
X0238116Y0302446D01*
X0237106Y0302027D01*
X0236238Y0301362D01*
X0235573Y0300494D01*
X0235154Y0299484D01*
X0235011Y0298400D01*
X0235154Y0297316D01*
X0235573Y0296306D01*
X0236238Y0295438D01*
X0237106Y0294773D01*
X0238116Y0294354D01*
X0239200Y0294211D01*
X0240284Y0294354D01*
X0241294Y0294773D01*
X0242162Y0295438D01*
X0242827Y0296306D01*
X0243246Y0297316D01*
X0243389Y0298400D01*
X0243246Y0299484D01*
X0243096Y0299845D01*
X0244918Y0301667D01*
X0245843D01*
X0246089Y0301167D01*
X0245573Y0300494D01*
X0245154Y0299484D01*
X0245011Y0298400D01*
X0245154Y0297316D01*
X0245573Y0296306D01*
X0246089Y0295633D01*
X0245843Y0295133D01*
X0244200D01*
X0243537Y0295001D01*
X0242974Y0294626D01*
X0240645Y0292296D01*
X0240284Y0292446D01*
X0239200Y0292589D01*
X0238116Y0292446D01*
X0237106Y0292027D01*
X0236238Y0291362D01*
X0235573Y0290494D01*
X0235154Y0289484D01*
X0235011Y0288400D01*
X0235154Y0287316D01*
X0235573Y0286306D01*
X0236238Y0285438D01*
X0237106Y0284773D01*
X0238116Y0284354D01*
X0239200Y0284211D01*
X0240284Y0284354D01*
X0241294Y0284773D01*
X0242162Y0285438D01*
X0242827Y0286306D01*
X0243246Y0287316D01*
X0243389Y0288400D01*
X0243246Y0289484D01*
X0243096Y0289845D01*
X0244918Y0291667D01*
X0245843D01*
X0246089Y0291167D01*
X0245573Y0290494D01*
X0245154Y0289484D01*
X0245011Y0288400D01*
X0245154Y0287316D01*
X0245573Y0286306D01*
X0246238Y0285438D01*
X0247106Y0284773D01*
X0248116Y0284354D01*
X0249200Y0284211D01*
X0250284Y0284354D01*
X0250999Y0284650D01*
X0261474Y0274174D01*
X0262037Y0273799D01*
X0262700Y0273667D01*
X0262700Y0273667D01*
X0265724D01*
X0265757Y0273167D01*
X0265443Y0273125D01*
X0264738Y0272833D01*
X0264132Y0272368D01*
X0263667Y0271762D01*
X0263375Y0271057D01*
X0263275Y0270300D01*
X0263375Y0269543D01*
X0263667Y0268837D01*
X0264132Y0268232D01*
X0264738Y0267767D01*
X0265443Y0267475D01*
X0266200Y0267375D01*
X0266957Y0267475D01*
X0267663Y0267767D01*
X0268268Y0268232D01*
X0268330Y0268312D01*
X0269619D01*
Y0267387D01*
X0269819D01*
Y0265938D01*
X0274181D01*
Y0267387D01*
X0274381D01*
Y0268312D01*
X0276228D01*
X0276460Y0268157D01*
X0277389Y0267972D01*
X0282507D01*
X0282814Y0268033D01*
X0283200Y0267716D01*
Y0256302D01*
X0282846Y0255949D01*
X0221749Y0255949D01*
Y0370851D01*
X0283200D01*
Y0343073D01*
D02*
G37*
G36*
X0307467Y0327037D02*
X0306819D01*
Y0321487D01*
Y0316763D01*
X0307467D01*
Y0313233D01*
X0304285D01*
X0303991Y0313650D01*
X0302326D01*
X0302192Y0313677D01*
X0299141D01*
Y0314150D01*
X0298641D01*
Y0315972D01*
X0296090D01*
X0295430Y0315841D01*
X0295315Y0315850D01*
X0294931Y0316055D01*
Y0322895D01*
X0295317Y0323212D01*
X0295499Y0323176D01*
X0298149D01*
Y0325400D01*
X0298649D01*
Y0325900D01*
X0303923D01*
X0303853Y0326251D01*
X0303371Y0326973D01*
X0302649Y0327455D01*
X0302204Y0327543D01*
Y0328053D01*
X0302728Y0328157D01*
X0303490Y0328667D01*
X0307467D01*
Y0327037D01*
D02*
G37*
G36*
X0275673Y0328157D02*
X0276196Y0328053D01*
Y0327543D01*
X0275751Y0327455D01*
X0275029Y0326973D01*
X0274547Y0326251D01*
X0274477Y0325900D01*
X0279751D01*
Y0325400D01*
X0280251D01*
Y0323176D01*
X0282901D01*
X0283200Y0322931D01*
Y0316261D01*
X0282700Y0315895D01*
X0282310Y0315972D01*
X0279759D01*
Y0314150D01*
X0279259D01*
Y0313677D01*
X0276208D01*
X0276074Y0313650D01*
X0274247D01*
X0274028Y0313383D01*
X0268334D01*
X0268268Y0313468D01*
X0267663Y0313933D01*
X0266957Y0314225D01*
X0266200Y0314325D01*
X0265443Y0314225D01*
X0264738Y0313933D01*
X0264132Y0313468D01*
X0263667Y0312862D01*
X0263375Y0312157D01*
X0263275Y0311400D01*
X0263375Y0310643D01*
X0263667Y0309938D01*
X0264132Y0309332D01*
X0264716Y0308883D01*
X0264720Y0308833D01*
X0264548Y0308383D01*
X0257450D01*
X0256787Y0308251D01*
X0256224Y0307876D01*
X0253482Y0305133D01*
X0252557D01*
X0252311Y0305633D01*
X0252827Y0306306D01*
X0253246Y0307316D01*
X0253389Y0308400D01*
X0253303Y0309051D01*
X0262426Y0318174D01*
X0262801Y0318737D01*
X0262933Y0319400D01*
Y0324682D01*
X0266918Y0328667D01*
X0274910D01*
X0275673Y0328157D01*
D02*
G37*
G36*
X0366651Y0256302D02*
X0366298Y0255949D01*
X0294931Y0255949D01*
Y0267654D01*
X0295430Y0268064D01*
X0295893Y0267972D01*
X0301011D01*
X0301940Y0268157D01*
X0302321Y0268412D01*
X0304319D01*
Y0267487D01*
X0304519D01*
Y0266038D01*
X0308881D01*
Y0267487D01*
X0309081D01*
Y0268412D01*
X0310570D01*
X0310632Y0268332D01*
X0311238Y0267867D01*
X0311943Y0267575D01*
X0312700Y0267475D01*
X0313457Y0267575D01*
X0314162Y0267867D01*
X0314768Y0268332D01*
X0315233Y0268937D01*
X0315525Y0269643D01*
X0315625Y0270400D01*
X0315525Y0271157D01*
X0315233Y0271863D01*
X0314768Y0272468D01*
X0314162Y0272933D01*
X0313599Y0273167D01*
X0313698Y0273667D01*
X0316200D01*
X0316863Y0273799D01*
X0317426Y0274174D01*
X0327755Y0284504D01*
X0328116Y0284354D01*
X0329200Y0284211D01*
X0330284Y0284354D01*
X0331294Y0284773D01*
X0332162Y0285438D01*
X0332827Y0286306D01*
X0333246Y0287316D01*
X0333389Y0288400D01*
X0333246Y0289484D01*
X0332827Y0290494D01*
X0332312Y0291167D01*
X0332558Y0291667D01*
X0333482D01*
X0335304Y0289845D01*
X0335154Y0289484D01*
X0335011Y0288400D01*
X0335154Y0287316D01*
X0335573Y0286306D01*
X0336238Y0285438D01*
X0337106Y0284773D01*
X0338116Y0284354D01*
X0339200Y0284211D01*
X0340284Y0284354D01*
X0341294Y0284773D01*
X0342162Y0285438D01*
X0342827Y0286306D01*
X0343246Y0287316D01*
X0343389Y0288400D01*
X0343246Y0289484D01*
X0342827Y0290494D01*
X0342162Y0291362D01*
X0341294Y0292027D01*
X0340284Y0292446D01*
X0339200Y0292589D01*
X0338116Y0292446D01*
X0337755Y0292296D01*
X0335426Y0294626D01*
X0334863Y0295001D01*
X0334200Y0295133D01*
X0332558D01*
X0332312Y0295633D01*
X0332827Y0296306D01*
X0333246Y0297316D01*
X0333389Y0298400D01*
X0333246Y0299484D01*
X0332827Y0300494D01*
X0332312Y0301167D01*
X0332558Y0301667D01*
X0333482D01*
X0335304Y0299845D01*
X0335154Y0299484D01*
X0335011Y0298400D01*
X0335154Y0297316D01*
X0335573Y0296306D01*
X0336238Y0295438D01*
X0337106Y0294773D01*
X0338116Y0294354D01*
X0339200Y0294211D01*
X0340284Y0294354D01*
X0341294Y0294773D01*
X0342162Y0295438D01*
X0342827Y0296306D01*
X0343246Y0297316D01*
X0343389Y0298400D01*
X0343246Y0299484D01*
X0342827Y0300494D01*
X0342162Y0301362D01*
X0341294Y0302027D01*
X0340284Y0302446D01*
X0339200Y0302589D01*
X0338116Y0302446D01*
X0337755Y0302296D01*
X0335426Y0304626D01*
X0334863Y0305001D01*
X0334200Y0305133D01*
X0332558D01*
X0332312Y0305633D01*
X0332827Y0306306D01*
X0333246Y0307316D01*
X0333389Y0308400D01*
X0333246Y0309484D01*
X0332827Y0310494D01*
X0332312Y0311167D01*
X0332558Y0311667D01*
X0333482D01*
X0335304Y0309845D01*
X0335154Y0309484D01*
X0335011Y0308400D01*
X0335154Y0307316D01*
X0335573Y0306306D01*
X0336238Y0305438D01*
X0337106Y0304773D01*
X0338116Y0304354D01*
X0339200Y0304211D01*
X0340284Y0304354D01*
X0341294Y0304773D01*
X0342162Y0305438D01*
X0342827Y0306306D01*
X0343246Y0307316D01*
X0343389Y0308400D01*
X0343246Y0309484D01*
X0342827Y0310494D01*
X0342162Y0311362D01*
X0341294Y0312027D01*
X0340284Y0312446D01*
X0339200Y0312589D01*
X0338116Y0312446D01*
X0337755Y0312296D01*
X0335426Y0314626D01*
X0334863Y0315001D01*
X0334200Y0315133D01*
X0332558D01*
X0332312Y0315633D01*
X0332827Y0316306D01*
X0333246Y0317316D01*
X0333389Y0318400D01*
X0333246Y0319484D01*
X0332827Y0320494D01*
X0332162Y0321362D01*
X0331294Y0322027D01*
X0330284Y0322446D01*
X0329200Y0322589D01*
X0328116Y0322446D01*
X0327106Y0322027D01*
X0326238Y0321362D01*
X0325573Y0320494D01*
X0325154Y0319484D01*
X0325011Y0318400D01*
X0325110Y0317648D01*
X0324637Y0317414D01*
X0320933Y0321118D01*
Y0326900D01*
X0320801Y0327563D01*
X0320426Y0328126D01*
X0317901Y0330650D01*
X0318426Y0331174D01*
X0318801Y0331737D01*
X0318933Y0332400D01*
Y0332763D01*
X0319581D01*
Y0337487D01*
Y0343037D01*
X0314819D01*
X0314819Y0343037D01*
Y0343037D01*
X0314319Y0342813D01*
X0314162Y0342933D01*
X0313457Y0343225D01*
X0312700Y0343325D01*
X0311943Y0343225D01*
X0311238Y0342933D01*
X0310707Y0342526D01*
X0310081D01*
Y0343313D01*
X0309881D01*
Y0344762D01*
X0305519D01*
Y0343313D01*
X0305319D01*
Y0342526D01*
X0302903D01*
X0302728Y0342643D01*
X0301798Y0342828D01*
X0295499D01*
X0295317Y0342792D01*
X0294931Y0343109D01*
Y0370851D01*
X0366651D01*
X0366651Y0256302D01*
D02*
G37*
%LPC*%
G36*
X0309881Y0297837D02*
X0308200D01*
Y0295762D01*
X0309881D01*
Y0297837D01*
D02*
G37*
G36*
X0307200D02*
X0305519D01*
Y0295762D01*
X0307200D01*
Y0297837D01*
D02*
G37*
G36*
X0308881Y0265038D02*
X0307200D01*
Y0262963D01*
X0308881D01*
Y0265038D01*
D02*
G37*
G36*
X0239200Y0322589D02*
X0238116Y0322446D01*
X0237106Y0322027D01*
X0236238Y0321362D01*
X0235573Y0320494D01*
X0235154Y0319484D01*
X0235011Y0318400D01*
X0235154Y0317316D01*
X0235573Y0316306D01*
X0236238Y0315438D01*
X0237106Y0314773D01*
X0238116Y0314354D01*
X0239200Y0314211D01*
X0240284Y0314354D01*
X0241294Y0314773D01*
X0242162Y0315438D01*
X0242827Y0316306D01*
X0243246Y0317316D01*
X0243389Y0318400D01*
X0243246Y0319484D01*
X0242827Y0320494D01*
X0242162Y0321362D01*
X0241294Y0322027D01*
X0240284Y0322446D01*
X0239200Y0322589D01*
D02*
G37*
G36*
X0306200Y0265038D02*
X0304519D01*
Y0262963D01*
X0306200D01*
Y0265038D01*
D02*
G37*
G36*
X0279448Y0287624D02*
X0277389D01*
X0276538Y0287455D01*
X0275816Y0286972D01*
X0275334Y0286251D01*
X0275265Y0285900D01*
X0279448D01*
Y0287624D01*
D02*
G37*
G36*
X0274720Y0285038D02*
X0272562D01*
Y0282880D01*
X0272767Y0282907D01*
X0273424Y0283179D01*
X0273988Y0283612D01*
X0274421Y0284176D01*
X0274693Y0284833D01*
X0274720Y0285038D01*
D02*
G37*
G36*
X0301011Y0287624D02*
X0298952D01*
Y0285900D01*
X0303135D01*
X0303066Y0286251D01*
X0302584Y0286972D01*
X0301862Y0287455D01*
X0301011Y0287624D01*
D02*
G37*
G36*
X0271200Y0297837D02*
X0269519D01*
Y0295762D01*
X0271200D01*
Y0297837D01*
D02*
G37*
G36*
X0338700Y0267900D02*
X0335247D01*
Y0264447D01*
X0338700D01*
Y0267900D01*
D02*
G37*
G36*
X0339200Y0322589D02*
X0338116Y0322446D01*
X0337106Y0322027D01*
X0336238Y0321362D01*
X0335573Y0320494D01*
X0335154Y0319484D01*
X0335011Y0318400D01*
X0335154Y0317316D01*
X0335573Y0316306D01*
X0336238Y0315438D01*
X0337106Y0314773D01*
X0338116Y0314354D01*
X0339200Y0314211D01*
X0340284Y0314354D01*
X0341294Y0314773D01*
X0342162Y0315438D01*
X0342827Y0316306D01*
X0343246Y0317316D01*
X0343389Y0318400D01*
X0343246Y0319484D01*
X0342827Y0320494D01*
X0342162Y0321362D01*
X0341294Y0322027D01*
X0340284Y0322446D01*
X0339200Y0322589D01*
D02*
G37*
G36*
X0302857Y0318900D02*
X0300700D01*
Y0316742D01*
X0300905Y0316770D01*
X0301562Y0317042D01*
X0302126Y0317474D01*
X0302558Y0318038D01*
X0302831Y0318695D01*
X0302857Y0318900D01*
D02*
G37*
G36*
X0299700D02*
X0297543D01*
X0297569Y0318695D01*
X0297842Y0318038D01*
X0298274Y0317474D01*
X0298838Y0317042D01*
X0299495Y0316770D01*
X0299700Y0316742D01*
Y0318900D01*
D02*
G37*
G36*
X0271500Y0264938D02*
X0269819D01*
Y0262863D01*
X0271500D01*
Y0264938D01*
D02*
G37*
G36*
X0276200Y0322058D02*
Y0319900D01*
X0278358D01*
X0278330Y0320105D01*
X0278058Y0320762D01*
X0277626Y0321326D01*
X0277062Y0321758D01*
X0276405Y0322030D01*
X0276200Y0322058D01*
D02*
G37*
G36*
X0275200D02*
X0274995Y0322030D01*
X0274338Y0321758D01*
X0273774Y0321326D01*
X0273342Y0320762D01*
X0273070Y0320105D01*
X0273042Y0319900D01*
X0275200D01*
Y0322058D01*
D02*
G37*
G36*
X0302192Y0315972D02*
X0299641D01*
Y0314650D01*
X0303915D01*
X0303876Y0314847D01*
X0303481Y0315439D01*
X0302889Y0315834D01*
X0302192Y0315972D01*
D02*
G37*
G36*
X0278759D02*
X0276208D01*
X0275511Y0315834D01*
X0274919Y0315439D01*
X0274524Y0314847D01*
X0274485Y0314650D01*
X0278759D01*
Y0315972D01*
D02*
G37*
G36*
X0274181Y0264938D02*
X0272500D01*
Y0262863D01*
X0274181D01*
Y0264938D01*
D02*
G37*
G36*
X0278358Y0318900D02*
X0276200D01*
Y0316742D01*
X0276405Y0316770D01*
X0277062Y0317042D01*
X0277626Y0317474D01*
X0278058Y0318038D01*
X0278330Y0318695D01*
X0278358Y0318900D01*
D02*
G37*
G36*
X0275200D02*
X0273042D01*
X0273070Y0318695D01*
X0273342Y0318038D01*
X0273774Y0317474D01*
X0274338Y0317042D01*
X0274995Y0316770D01*
X0275200Y0316742D01*
Y0318900D01*
D02*
G37*
G36*
X0271562Y0285038D02*
X0269405D01*
X0269432Y0284833D01*
X0269704Y0284176D01*
X0270136Y0283612D01*
X0270701Y0283179D01*
X0271357Y0282907D01*
X0271562Y0282880D01*
Y0285038D01*
D02*
G37*
G36*
X0238700Y0272321D02*
X0238168Y0272251D01*
X0237207Y0271853D01*
X0236381Y0271219D01*
X0235747Y0270393D01*
X0235349Y0269432D01*
X0235279Y0268900D01*
X0238700D01*
Y0272321D01*
D02*
G37*
G36*
X0333121Y0267900D02*
X0329700D01*
Y0264479D01*
X0330232Y0264549D01*
X0331193Y0264947D01*
X0332019Y0265581D01*
X0332653Y0266407D01*
X0333051Y0267368D01*
X0333121Y0267900D01*
D02*
G37*
G36*
X0239700Y0272321D02*
Y0268900D01*
X0243121D01*
X0243051Y0269432D01*
X0242653Y0270393D01*
X0242019Y0271219D01*
X0241193Y0271853D01*
X0240232Y0272251D01*
X0239700Y0272321D01*
D02*
G37*
G36*
X0249700D02*
Y0268900D01*
X0253121D01*
X0253051Y0269432D01*
X0252653Y0270393D01*
X0252019Y0271219D01*
X0251193Y0271853D01*
X0250232Y0272251D01*
X0249700Y0272321D01*
D02*
G37*
G36*
X0248700D02*
X0248168Y0272251D01*
X0247207Y0271853D01*
X0246381Y0271219D01*
X0245747Y0270393D01*
X0245349Y0269432D01*
X0245279Y0268900D01*
X0248700D01*
Y0272321D01*
D02*
G37*
G36*
X0243121Y0267900D02*
X0239700D01*
Y0264479D01*
X0240232Y0264549D01*
X0241193Y0264947D01*
X0242019Y0265581D01*
X0242653Y0266407D01*
X0243051Y0267368D01*
X0243121Y0267900D01*
D02*
G37*
G36*
X0238700D02*
X0235279D01*
X0235349Y0267368D01*
X0235747Y0266407D01*
X0236381Y0265581D01*
X0237207Y0264947D01*
X0238168Y0264549D01*
X0238700Y0264479D01*
Y0267900D01*
D02*
G37*
G36*
X0248700D02*
X0245279D01*
X0245349Y0267368D01*
X0245747Y0266407D01*
X0246381Y0265581D01*
X0247207Y0264947D01*
X0248168Y0264549D01*
X0248700Y0264479D01*
Y0267900D01*
D02*
G37*
G36*
X0328700D02*
X0325279D01*
X0325349Y0267368D01*
X0325747Y0266407D01*
X0326381Y0265581D01*
X0327207Y0264947D01*
X0328168Y0264549D01*
X0328700Y0264479D01*
Y0267900D01*
D02*
G37*
G36*
X0253121D02*
X0249700D01*
Y0264479D01*
X0250232Y0264549D01*
X0251193Y0264947D01*
X0252019Y0265581D01*
X0252653Y0266407D01*
X0253051Y0267368D01*
X0253121Y0267900D01*
D02*
G37*
G36*
X0328700Y0272321D02*
X0328168Y0272251D01*
X0327207Y0271853D01*
X0326381Y0271219D01*
X0325747Y0270393D01*
X0325349Y0269432D01*
X0325279Y0268900D01*
X0328700D01*
Y0272321D01*
D02*
G37*
G36*
X0339200Y0282589D02*
X0338116Y0282446D01*
X0337106Y0282027D01*
X0336238Y0281362D01*
X0335573Y0280494D01*
X0335154Y0279484D01*
X0335011Y0278400D01*
X0335154Y0277316D01*
X0335573Y0276306D01*
X0336238Y0275438D01*
X0337106Y0274773D01*
X0338116Y0274354D01*
X0339200Y0274211D01*
X0340284Y0274354D01*
X0341294Y0274773D01*
X0342162Y0275438D01*
X0342827Y0276306D01*
X0343246Y0277316D01*
X0343389Y0278400D01*
X0343246Y0279484D01*
X0342827Y0280494D01*
X0342162Y0281362D01*
X0341294Y0282027D01*
X0340284Y0282446D01*
X0339200Y0282589D01*
D02*
G37*
G36*
X0329200D02*
X0328116Y0282446D01*
X0327106Y0282027D01*
X0326238Y0281362D01*
X0325573Y0280494D01*
X0325154Y0279484D01*
X0325011Y0278400D01*
X0325154Y0277316D01*
X0325573Y0276306D01*
X0326238Y0275438D01*
X0327106Y0274773D01*
X0328116Y0274354D01*
X0329200Y0274211D01*
X0330284Y0274354D01*
X0331294Y0274773D01*
X0332162Y0275438D01*
X0332827Y0276306D01*
X0333246Y0277316D01*
X0333389Y0278400D01*
X0333246Y0279484D01*
X0332827Y0280494D01*
X0332162Y0281362D01*
X0331294Y0282027D01*
X0330284Y0282446D01*
X0329200Y0282589D01*
D02*
G37*
G36*
X0343153Y0267900D02*
X0339700D01*
Y0264447D01*
X0343153D01*
Y0267900D01*
D02*
G37*
G36*
X0309358Y0284900D02*
X0307200D01*
Y0282743D01*
X0307405Y0282769D01*
X0308062Y0283042D01*
X0308626Y0283474D01*
X0309058Y0284038D01*
X0309331Y0284695D01*
X0309358Y0284900D01*
D02*
G37*
G36*
X0306200D02*
X0304043D01*
X0304069Y0284695D01*
X0304342Y0284038D01*
X0304774Y0283474D01*
X0305338Y0283042D01*
X0305995Y0282769D01*
X0306200Y0282743D01*
Y0284900D01*
D02*
G37*
G36*
X0338700Y0272353D02*
X0335247D01*
Y0268900D01*
X0338700D01*
Y0272353D01*
D02*
G37*
G36*
X0329700Y0272321D02*
Y0268900D01*
X0333121D01*
X0333051Y0269432D01*
X0332653Y0270393D01*
X0332019Y0271219D01*
X0331193Y0271853D01*
X0330232Y0272251D01*
X0329700Y0272321D01*
D02*
G37*
G36*
X0343153Y0272353D02*
X0339700D01*
Y0268900D01*
X0343153D01*
Y0272353D01*
D02*
G37*
G36*
X0249200Y0282589D02*
X0248116Y0282446D01*
X0247106Y0282027D01*
X0246238Y0281362D01*
X0245573Y0280494D01*
X0245154Y0279484D01*
X0245011Y0278400D01*
X0245154Y0277316D01*
X0245573Y0276306D01*
X0246238Y0275438D01*
X0247106Y0274773D01*
X0248116Y0274354D01*
X0249200Y0274211D01*
X0250284Y0274354D01*
X0251294Y0274773D01*
X0252162Y0275438D01*
X0252827Y0276306D01*
X0253246Y0277316D01*
X0253389Y0278400D01*
X0253246Y0279484D01*
X0252827Y0280494D01*
X0252162Y0281362D01*
X0251294Y0282027D01*
X0250284Y0282446D01*
X0249200Y0282589D01*
D02*
G37*
G36*
X0239200D02*
X0238116Y0282446D01*
X0237106Y0282027D01*
X0236238Y0281362D01*
X0235573Y0280494D01*
X0235154Y0279484D01*
X0235011Y0278400D01*
X0235154Y0277316D01*
X0235573Y0276306D01*
X0236238Y0275438D01*
X0237106Y0274773D01*
X0238116Y0274354D01*
X0239200Y0274211D01*
X0240284Y0274354D01*
X0241294Y0274773D01*
X0242162Y0275438D01*
X0242827Y0276306D01*
X0243246Y0277316D01*
X0243389Y0278400D01*
X0243246Y0279484D01*
X0242827Y0280494D01*
X0242162Y0281362D01*
X0241294Y0282027D01*
X0240284Y0282446D01*
X0239200Y0282589D01*
D02*
G37*
G36*
X0299700Y0322058D02*
X0299495Y0322030D01*
X0298838Y0321758D01*
X0298274Y0321326D01*
X0297842Y0320762D01*
X0297569Y0320105D01*
X0297543Y0319900D01*
X0299700D01*
Y0322058D01*
D02*
G37*
G36*
X0238700Y0357900D02*
X0235247D01*
Y0354447D01*
X0238700D01*
Y0357900D01*
D02*
G37*
G36*
X0309881Y0347837D02*
X0308200D01*
Y0345762D01*
X0309881D01*
Y0347837D01*
D02*
G37*
G36*
X0243153Y0357900D02*
X0239700D01*
Y0354447D01*
X0243153D01*
Y0357900D01*
D02*
G37*
G36*
X0253121D02*
X0249700D01*
Y0354479D01*
X0250232Y0354549D01*
X0251193Y0354947D01*
X0252019Y0355581D01*
X0252653Y0356407D01*
X0253051Y0357368D01*
X0253121Y0357900D01*
D02*
G37*
G36*
X0248700D02*
X0245279D01*
X0245349Y0357368D01*
X0245747Y0356407D01*
X0246381Y0355581D01*
X0247207Y0354947D01*
X0248168Y0354549D01*
X0248700Y0354479D01*
Y0357900D01*
D02*
G37*
G36*
X0307200Y0347837D02*
X0305519D01*
Y0345762D01*
X0307200D01*
Y0347837D01*
D02*
G37*
G36*
X0329200Y0352589D02*
X0328116Y0352446D01*
X0327106Y0352027D01*
X0326238Y0351362D01*
X0325573Y0350494D01*
X0325154Y0349484D01*
X0325011Y0348400D01*
X0325154Y0347316D01*
X0325573Y0346306D01*
X0326238Y0345438D01*
X0327106Y0344773D01*
X0328116Y0344354D01*
X0329200Y0344211D01*
X0330284Y0344354D01*
X0331294Y0344773D01*
X0332162Y0345438D01*
X0332827Y0346306D01*
X0333246Y0347316D01*
X0333389Y0348400D01*
X0333246Y0349484D01*
X0332827Y0350494D01*
X0332162Y0351362D01*
X0331294Y0352027D01*
X0330284Y0352446D01*
X0329200Y0352589D01*
D02*
G37*
G36*
X0249200D02*
X0248116Y0352446D01*
X0247106Y0352027D01*
X0246238Y0351362D01*
X0245573Y0350494D01*
X0245154Y0349484D01*
X0245011Y0348400D01*
X0245154Y0347316D01*
X0245573Y0346306D01*
X0246238Y0345438D01*
X0247106Y0344773D01*
X0248116Y0344354D01*
X0249200Y0344211D01*
X0250284Y0344354D01*
X0251294Y0344773D01*
X0252162Y0345438D01*
X0252827Y0346306D01*
X0253246Y0347316D01*
X0253389Y0348400D01*
X0253246Y0349484D01*
X0252827Y0350494D01*
X0252162Y0351362D01*
X0251294Y0352027D01*
X0250284Y0352446D01*
X0249200Y0352589D01*
D02*
G37*
G36*
X0339200D02*
X0338116Y0352446D01*
X0337106Y0352027D01*
X0336238Y0351362D01*
X0335573Y0350494D01*
X0335154Y0349484D01*
X0335011Y0348400D01*
X0335154Y0347316D01*
X0335573Y0346306D01*
X0336238Y0345438D01*
X0337106Y0344773D01*
X0338116Y0344354D01*
X0339200Y0344211D01*
X0340284Y0344354D01*
X0341294Y0344773D01*
X0342162Y0345438D01*
X0342827Y0346306D01*
X0343246Y0347316D01*
X0343389Y0348400D01*
X0343246Y0349484D01*
X0342827Y0350494D01*
X0342162Y0351362D01*
X0341294Y0352027D01*
X0340284Y0352446D01*
X0339200Y0352589D01*
D02*
G37*
G36*
X0273381Y0347637D02*
X0271700D01*
Y0345562D01*
X0273381D01*
Y0347637D01*
D02*
G37*
G36*
X0270700D02*
X0269019D01*
Y0345562D01*
X0270700D01*
Y0347637D01*
D02*
G37*
G36*
X0328700Y0357900D02*
X0325279D01*
X0325349Y0357368D01*
X0325747Y0356407D01*
X0326381Y0355581D01*
X0327207Y0354947D01*
X0328168Y0354549D01*
X0328700Y0354479D01*
Y0357900D01*
D02*
G37*
G36*
Y0362321D02*
X0328168Y0362251D01*
X0327207Y0361853D01*
X0326381Y0361219D01*
X0325747Y0360393D01*
X0325349Y0359432D01*
X0325279Y0358900D01*
X0328700D01*
Y0362321D01*
D02*
G37*
G36*
X0249700D02*
Y0358900D01*
X0253121D01*
X0253051Y0359432D01*
X0252653Y0360393D01*
X0252019Y0361219D01*
X0251193Y0361853D01*
X0250232Y0362251D01*
X0249700Y0362321D01*
D02*
G37*
G36*
X0329700D02*
Y0358900D01*
X0333121D01*
X0333051Y0359432D01*
X0332653Y0360393D01*
X0332019Y0361219D01*
X0331193Y0361853D01*
X0330232Y0362251D01*
X0329700Y0362321D01*
D02*
G37*
G36*
X0339700D02*
Y0358900D01*
X0343121D01*
X0343051Y0359432D01*
X0342653Y0360393D01*
X0342019Y0361219D01*
X0341193Y0361853D01*
X0340232Y0362251D01*
X0339700Y0362321D01*
D02*
G37*
G36*
X0338700D02*
X0338168Y0362251D01*
X0337207Y0361853D01*
X0336381Y0361219D01*
X0335747Y0360393D01*
X0335349Y0359432D01*
X0335279Y0358900D01*
X0338700D01*
Y0362321D01*
D02*
G37*
G36*
X0248700D02*
X0248168Y0362251D01*
X0247207Y0361853D01*
X0246381Y0361219D01*
X0245747Y0360393D01*
X0245349Y0359432D01*
X0245279Y0358900D01*
X0248700D01*
Y0362321D01*
D02*
G37*
G36*
X0338700Y0357900D02*
X0335279D01*
X0335349Y0357368D01*
X0335747Y0356407D01*
X0336381Y0355581D01*
X0337207Y0354947D01*
X0338168Y0354549D01*
X0338700Y0354479D01*
Y0357900D01*
D02*
G37*
G36*
X0333121D02*
X0329700D01*
Y0354479D01*
X0330232Y0354549D01*
X0331193Y0354947D01*
X0332019Y0355581D01*
X0332653Y0356407D01*
X0333051Y0357368D01*
X0333121Y0357900D01*
D02*
G37*
G36*
X0343121D02*
X0339700D01*
Y0354479D01*
X0340232Y0354549D01*
X0341193Y0354947D01*
X0342019Y0355581D01*
X0342653Y0356407D01*
X0343051Y0357368D01*
X0343121Y0357900D01*
D02*
G37*
G36*
X0243153Y0362353D02*
X0239700D01*
Y0358900D01*
X0243153D01*
Y0362353D01*
D02*
G37*
G36*
X0238700D02*
X0235247D01*
Y0358900D01*
X0238700D01*
Y0362353D01*
D02*
G37*
G36*
X0239200Y0352589D02*
X0238116Y0352446D01*
X0237106Y0352027D01*
X0236238Y0351362D01*
X0235573Y0350494D01*
X0235154Y0349484D01*
X0235011Y0348400D01*
X0235154Y0347316D01*
X0235573Y0346306D01*
X0236238Y0345438D01*
X0237106Y0344773D01*
X0238116Y0344354D01*
X0239200Y0344211D01*
X0240284Y0344354D01*
X0241294Y0344773D01*
X0242162Y0345438D01*
X0242827Y0346306D01*
X0243246Y0347316D01*
X0243389Y0348400D01*
X0243246Y0349484D01*
X0242827Y0350494D01*
X0242162Y0351362D01*
X0241294Y0352027D01*
X0240284Y0352446D01*
X0239200Y0352589D01*
D02*
G37*
G36*
X0328700Y0327900D02*
X0325279D01*
X0325349Y0327368D01*
X0325747Y0326407D01*
X0326381Y0325581D01*
X0327207Y0324947D01*
X0328168Y0324549D01*
X0328700Y0324479D01*
Y0327900D01*
D02*
G37*
G36*
X0253121D02*
X0249700D01*
Y0324479D01*
X0250232Y0324549D01*
X0251193Y0324947D01*
X0252019Y0325581D01*
X0252653Y0326407D01*
X0253051Y0327368D01*
X0253121Y0327900D01*
D02*
G37*
G36*
X0333121D02*
X0329700D01*
Y0324479D01*
X0330232Y0324549D01*
X0331193Y0324947D01*
X0332019Y0325581D01*
X0332653Y0326407D01*
X0333051Y0327368D01*
X0333121Y0327900D01*
D02*
G37*
G36*
X0343121D02*
X0339700D01*
Y0324479D01*
X0340232Y0324549D01*
X0341193Y0324947D01*
X0342019Y0325581D01*
X0342653Y0326407D01*
X0343051Y0327368D01*
X0343121Y0327900D01*
D02*
G37*
G36*
X0338700D02*
X0335279D01*
X0335349Y0327368D01*
X0335747Y0326407D01*
X0336381Y0325581D01*
X0337207Y0324947D01*
X0338168Y0324549D01*
X0338700Y0324479D01*
Y0327900D01*
D02*
G37*
G36*
X0248700D02*
X0245279D01*
X0245349Y0327368D01*
X0245747Y0326407D01*
X0246381Y0325581D01*
X0247207Y0324947D01*
X0248168Y0324549D01*
X0248700Y0324479D01*
Y0327900D01*
D02*
G37*
G36*
X0279251Y0324900D02*
X0274477D01*
X0274547Y0324549D01*
X0275029Y0323828D01*
X0275751Y0323345D01*
X0276602Y0323176D01*
X0279251D01*
Y0324900D01*
D02*
G37*
G36*
X0300700Y0322058D02*
Y0319900D01*
X0302857D01*
X0302831Y0320105D01*
X0302558Y0320762D01*
X0302126Y0321326D01*
X0301562Y0321758D01*
X0300905Y0322030D01*
X0300700Y0322058D01*
D02*
G37*
G36*
X0303923Y0324900D02*
X0299149D01*
Y0323176D01*
X0301798D01*
X0302649Y0323345D01*
X0303371Y0323828D01*
X0303853Y0324549D01*
X0303923Y0324900D01*
D02*
G37*
G36*
X0243121Y0327900D02*
X0239700D01*
Y0324479D01*
X0240232Y0324549D01*
X0241193Y0324947D01*
X0242019Y0325581D01*
X0242653Y0326407D01*
X0243051Y0327368D01*
X0243121Y0327900D01*
D02*
G37*
G36*
X0238700D02*
X0235279D01*
X0235349Y0327368D01*
X0235747Y0326407D01*
X0236381Y0325581D01*
X0237207Y0324947D01*
X0238168Y0324549D01*
X0238700Y0324479D01*
Y0327900D01*
D02*
G37*
G36*
Y0332321D02*
X0238168Y0332251D01*
X0237207Y0331853D01*
X0236381Y0331219D01*
X0235747Y0330393D01*
X0235349Y0329432D01*
X0235279Y0328900D01*
X0238700D01*
Y0332321D01*
D02*
G37*
G36*
X0239200Y0342589D02*
X0238116Y0342446D01*
X0237106Y0342027D01*
X0236238Y0341362D01*
X0235573Y0340494D01*
X0235154Y0339484D01*
X0235011Y0338400D01*
X0235154Y0337316D01*
X0235573Y0336306D01*
X0236238Y0335438D01*
X0237106Y0334773D01*
X0238116Y0334354D01*
X0239200Y0334211D01*
X0240284Y0334354D01*
X0241294Y0334773D01*
X0242162Y0335438D01*
X0242827Y0336306D01*
X0243246Y0337316D01*
X0243389Y0338400D01*
X0243246Y0339484D01*
X0242827Y0340494D01*
X0242162Y0341362D01*
X0241294Y0342027D01*
X0240284Y0342446D01*
X0239200Y0342589D01*
D02*
G37*
G36*
X0339700Y0332321D02*
Y0328900D01*
X0343121D01*
X0343051Y0329432D01*
X0342653Y0330393D01*
X0342019Y0331219D01*
X0341193Y0331853D01*
X0340232Y0332251D01*
X0339700Y0332321D01*
D02*
G37*
G36*
X0249200Y0342589D02*
X0248116Y0342446D01*
X0247106Y0342027D01*
X0246238Y0341362D01*
X0245573Y0340494D01*
X0245154Y0339484D01*
X0245011Y0338400D01*
X0245154Y0337316D01*
X0245573Y0336306D01*
X0246238Y0335438D01*
X0247106Y0334773D01*
X0248116Y0334354D01*
X0249200Y0334211D01*
X0250284Y0334354D01*
X0251294Y0334773D01*
X0252162Y0335438D01*
X0252827Y0336306D01*
X0253246Y0337316D01*
X0253389Y0338400D01*
X0253246Y0339484D01*
X0252827Y0340494D01*
X0252162Y0341362D01*
X0251294Y0342027D01*
X0250284Y0342446D01*
X0249200Y0342589D01*
D02*
G37*
G36*
X0339200D02*
X0338116Y0342446D01*
X0337106Y0342027D01*
X0336238Y0341362D01*
X0335573Y0340494D01*
X0335154Y0339484D01*
X0335011Y0338400D01*
X0335154Y0337316D01*
X0335573Y0336306D01*
X0336238Y0335438D01*
X0337106Y0334773D01*
X0338116Y0334354D01*
X0339200Y0334211D01*
X0340284Y0334354D01*
X0341294Y0334773D01*
X0342162Y0335438D01*
X0342827Y0336306D01*
X0343246Y0337316D01*
X0343389Y0338400D01*
X0343246Y0339484D01*
X0342827Y0340494D01*
X0342162Y0341362D01*
X0341294Y0342027D01*
X0340284Y0342446D01*
X0339200Y0342589D01*
D02*
G37*
G36*
X0329200D02*
X0328116Y0342446D01*
X0327106Y0342027D01*
X0326238Y0341362D01*
X0325573Y0340494D01*
X0325154Y0339484D01*
X0325011Y0338400D01*
X0325154Y0337316D01*
X0325573Y0336306D01*
X0326238Y0335438D01*
X0327106Y0334773D01*
X0328116Y0334354D01*
X0329200Y0334211D01*
X0330284Y0334354D01*
X0331294Y0334773D01*
X0332162Y0335438D01*
X0332827Y0336306D01*
X0333246Y0337316D01*
X0333389Y0338400D01*
X0333246Y0339484D01*
X0332827Y0340494D01*
X0332162Y0341362D01*
X0331294Y0342027D01*
X0330284Y0342446D01*
X0329200Y0342589D01*
D02*
G37*
G36*
X0338700Y0332321D02*
X0338168Y0332251D01*
X0337207Y0331853D01*
X0336381Y0331219D01*
X0335747Y0330393D01*
X0335349Y0329432D01*
X0335279Y0328900D01*
X0338700D01*
Y0332321D01*
D02*
G37*
G36*
X0248700D02*
X0248168Y0332251D01*
X0247207Y0331853D01*
X0246381Y0331219D01*
X0245747Y0330393D01*
X0245349Y0329432D01*
X0245279Y0328900D01*
X0248700D01*
Y0332321D01*
D02*
G37*
G36*
X0239700D02*
Y0328900D01*
X0243121D01*
X0243051Y0329432D01*
X0242653Y0330393D01*
X0242019Y0331219D01*
X0241193Y0331853D01*
X0240232Y0332251D01*
X0239700Y0332321D01*
D02*
G37*
G36*
X0249700D02*
Y0328900D01*
X0253121D01*
X0253051Y0329432D01*
X0252653Y0330393D01*
X0252019Y0331219D01*
X0251193Y0331853D01*
X0250232Y0332251D01*
X0249700Y0332321D01*
D02*
G37*
G36*
X0329700D02*
Y0328900D01*
X0333121D01*
X0333051Y0329432D01*
X0332653Y0330393D01*
X0332019Y0331219D01*
X0331193Y0331853D01*
X0330232Y0332251D01*
X0329700Y0332321D01*
D02*
G37*
G36*
X0328700D02*
X0328168Y0332251D01*
X0327207Y0331853D01*
X0326381Y0331219D01*
X0325747Y0330393D01*
X0325349Y0329432D01*
X0325279Y0328900D01*
X0328700D01*
Y0332321D01*
D02*
G37*
%LPD*%
G54D10*
X0317200Y0340262D02*
D03*
Y0335538D02*
D03*
X0309200Y0319538D02*
D03*
Y0324262D02*
D03*
X0307700Y0345262D02*
D03*
Y0340538D02*
D03*
X0261800Y0340262D02*
D03*
Y0335538D02*
D03*
X0271200Y0340338D02*
D03*
Y0345062D02*
D03*
X0307700Y0290538D02*
D03*
Y0295262D02*
D03*
X0271700Y0290538D02*
D03*
Y0295262D02*
D03*
X0272000Y0270162D02*
D03*
Y0265438D02*
D03*
X0306700Y0265538D02*
D03*
Y0270262D02*
D03*
G54D11*
X0279751Y0340400D02*
D03*
Y0335400D02*
D03*
Y0330400D02*
D03*
Y0325400D02*
D03*
X0298649Y0340400D02*
D03*
Y0335400D02*
D03*
Y0330400D02*
D03*
Y0325400D02*
D03*
G54D12*
X0279948Y0285400D02*
D03*
Y0280400D02*
D03*
Y0275400D02*
D03*
Y0270400D02*
D03*
X0298452Y0285400D02*
D03*
Y0280400D02*
D03*
Y0275400D02*
D03*
Y0270400D02*
D03*
G54D13*
X0279259Y0314150D02*
D03*
Y0311650D02*
D03*
Y0309150D02*
D03*
Y0306650D02*
D03*
Y0304150D02*
D03*
Y0301650D02*
D03*
Y0299150D02*
D03*
Y0296650D02*
D03*
X0299141Y0314150D02*
D03*
Y0311650D02*
D03*
Y0309150D02*
D03*
Y0306650D02*
D03*
Y0304150D02*
D03*
Y0301650D02*
D03*
Y0299150D02*
D03*
Y0296650D02*
D03*
G54D14*
X0239200Y0308400D02*
X0244200Y0313400D01*
X0334200D02*
X0339200Y0308400D01*
X0334200Y0303400D02*
X0339200Y0298400D01*
X0239200D02*
X0244200Y0303400D01*
X0249200Y0298400D02*
Y0298428D01*
X0244200Y0293400D02*
X0254200D01*
X0334200D02*
X0339200Y0288400D01*
X0249200D02*
X0249700D01*
X0239200D02*
X0244200Y0293400D01*
X0279009Y0301400D02*
X0279259Y0301650D01*
X0244200Y0303400D02*
X0254200D01*
X0249700Y0288400D02*
X0262700Y0275400D01*
X0279948D01*
X0267200Y0280400D02*
X0279948D01*
X0298452D02*
X0312700D01*
X0325700Y0293400D02*
X0334200D01*
X0298452Y0275400D02*
X0316200D01*
X0329200Y0288400D01*
X0249200Y0298400D02*
X0254200D01*
X0261200Y0301400D02*
X0279009D01*
X0254200Y0298400D02*
X0259950Y0304150D01*
X0279259D01*
X0254200Y0303400D02*
X0257450Y0306650D01*
X0279259D01*
X0299141Y0311650D02*
X0299291Y0311500D01*
X0309200D01*
X0326200Y0313400D02*
X0334200D01*
X0319200Y0320400D02*
X0326200Y0313400D01*
X0317200Y0318900D02*
X0327700Y0308400D01*
X0329200D01*
X0312200Y0330400D02*
X0317200Y0325400D01*
Y0318900D02*
Y0325400D01*
X0298649Y0335400D02*
X0310700D01*
X0319200Y0320400D02*
Y0326900D01*
X0312838Y0340262D02*
X0317200D01*
X0312700Y0340400D02*
X0312838Y0340262D01*
X0317062Y0335400D02*
X0317200Y0335538D01*
Y0332400D02*
Y0335538D01*
X0315700Y0330900D02*
X0317200Y0332400D01*
X0315200Y0330900D02*
X0315700D01*
X0310700Y0335400D02*
X0315200Y0330900D01*
X0319200Y0326900D01*
X0309200Y0311500D02*
Y0319538D01*
Y0311500D02*
X0312600D01*
X0309200Y0324262D02*
Y0330400D01*
X0298649D02*
X0309200D01*
X0312200D01*
X0268200Y0335400D02*
X0279751D01*
X0244200Y0313400D02*
X0252200D01*
X0259200Y0320400D01*
Y0326400D01*
X0249200Y0308400D02*
X0250200D01*
X0266200Y0330400D02*
X0279751D01*
X0250200Y0308400D02*
X0261200Y0319400D01*
Y0325400D01*
X0266200Y0330400D01*
X0261800Y0332800D02*
Y0335538D01*
Y0332800D02*
X0263700Y0330900D01*
X0259200Y0326400D02*
X0263700Y0330900D01*
X0268200Y0335400D01*
X0261862Y0340200D02*
X0266200D01*
X0266450Y0311650D02*
X0279259D01*
X0266200Y0311400D02*
X0266450Y0311650D01*
X0257200Y0295400D02*
Y0297400D01*
X0261200Y0301400D01*
X0271700Y0295262D02*
Y0297900D01*
X0272950Y0299150D01*
X0279259D01*
X0299141Y0304150D02*
X0318450D01*
X0324200Y0298400D01*
X0329200D01*
X0299141Y0306650D02*
X0319950D01*
X0323200Y0303400D01*
X0334200D01*
X0299141Y0301650D02*
X0315950D01*
X0322200Y0295400D01*
X0299141Y0299150D02*
X0306371D01*
X0307700Y0297821D01*
Y0295262D02*
Y0297821D01*
X0312700Y0280400D02*
X0325700Y0293400D01*
X0254200D02*
X0267200Y0280400D01*
X0559400Y0039400D02*
Y0059683D01*
X0440500Y0040050D02*
X0700200D01*
Y0101050D01*
X0286500Y0040050D02*
Y0101050D01*
X0040000Y0040050D02*
Y0101050D01*
X0040050Y0040050D02*
X0197600D01*
X0040050D02*
Y0101050D01*
Y0101050D02*
X0700200D01*
X0040000Y0040050D02*
X0440500D01*
X0040000Y0060383D02*
X0700000D01*
X0040000Y0080717D02*
X0700200D01*
X0413200D02*
Y0101050D01*
X0497200Y0080717D02*
Y0101050D01*
G54D15*
X0312562Y0340538D02*
X0312700Y0340400D01*
X0298649D02*
X0298787Y0340538D01*
G54D16*
X0307700D01*
X0312562D01*
X0279748Y0285200D02*
X0279948Y0285400D01*
X0279848Y0270300D02*
X0279948Y0270400D01*
X0266200Y0270300D02*
X0279848D01*
X0261800Y0340262D02*
X0261862Y0340200D01*
X0266400Y0340400D02*
X0279751D01*
X0276200Y0290400D02*
X0279200Y0293400D01*
Y0296591D01*
X0279259Y0296650D01*
X0262338Y0295262D02*
X0271700D01*
X0298452Y0270400D02*
X0312700D01*
X0299141Y0293459D02*
Y0296650D01*
Y0293459D02*
X0302062Y0290538D01*
X0307700D01*
X0312462D01*
X0312600Y0290400D01*
X0306700Y0285400D02*
Y0285900D01*
X0266200Y0290400D02*
X0276200D01*
X0262200Y0295400D02*
X0262338Y0295262D01*
G54D17*
X0126900Y0073549D02*
X0130899D01*
X0128899D01*
Y0067551D01*
X0133898D02*
X0135897D01*
X0136897Y0068550D01*
Y0070550D01*
X0135897Y0071549D01*
X0133898D01*
X0132898Y0070550D01*
Y0068550D01*
X0133898Y0067551D01*
X0138896Y0065551D02*
Y0071549D01*
X0141895D01*
X0142895Y0070550D01*
Y0068550D01*
X0141895Y0067551D01*
X0138896D01*
X0150892Y0073549D02*
Y0067551D01*
X0154891D01*
X0157890Y0071549D02*
X0159889D01*
X0160889Y0070550D01*
Y0067551D01*
X0157890D01*
X0156890Y0068550D01*
X0157890Y0069550D01*
X0160889D01*
X0162888Y0071549D02*
Y0068550D01*
X0163888Y0067551D01*
X0166887D01*
Y0066551D01*
X0165887Y0065551D01*
X0164888D01*
X0166887Y0067551D02*
Y0071549D01*
X0171885Y0067551D02*
X0169886D01*
X0168886Y0068550D01*
Y0070550D01*
X0169886Y0071549D01*
X0171885D01*
X0172885Y0070550D01*
Y0069550D01*
X0168886D01*
X0174884Y0071549D02*
Y0067551D01*
Y0069550D01*
X0175884Y0070550D01*
X0176884Y0071549D01*
X0177884D01*
X0580500Y0052965D02*
X0584499D01*
X0582499D01*
Y0046966D01*
X0590497Y0052965D02*
X0586498D01*
Y0046966D01*
X0590497D01*
X0586498Y0049966D02*
X0588497D01*
X0592496Y0052965D02*
X0596495Y0046966D01*
Y0052965D02*
X0592496Y0046966D01*
X0598494D02*
Y0050965D01*
X0600493Y0052965D01*
X0602493Y0050965D01*
Y0046966D01*
Y0049966D01*
X0598494D01*
X0608491Y0051965D02*
X0607491Y0052965D01*
X0605492D01*
X0604492Y0051965D01*
Y0050965D01*
X0605492Y0049966D01*
X0607491D01*
X0608491Y0048966D01*
Y0047966D01*
X0607491Y0046966D01*
X0605492D01*
X0604492Y0047966D01*
X0616488Y0052965D02*
X0618488D01*
X0617488D01*
Y0046966D01*
X0616488D01*
X0618488D01*
X0621487D02*
Y0052965D01*
X0625486Y0046966D01*
Y0052965D01*
X0631484Y0051965D02*
X0630484Y0052965D01*
X0628484D01*
X0627485Y0051965D01*
Y0050965D01*
X0628484Y0049966D01*
X0630484D01*
X0631484Y0048966D01*
Y0047966D01*
X0630484Y0046966D01*
X0628484D01*
X0627485Y0047966D01*
X0633483Y0052965D02*
X0637482D01*
X0635482D01*
Y0046966D01*
X0639481D02*
Y0052965D01*
X0642480D01*
X0643480Y0051965D01*
Y0049966D01*
X0642480Y0048966D01*
X0639481D01*
X0641480D02*
X0643480Y0046966D01*
X0645479Y0052965D02*
Y0047966D01*
X0646479Y0046966D01*
X0648478D01*
X0649478Y0047966D01*
Y0052965D01*
X0651477Y0046966D02*
Y0052965D01*
X0653476Y0050965D01*
X0655476Y0052965D01*
Y0046966D01*
X0661474Y0052965D02*
X0657475D01*
Y0046966D01*
X0661474D01*
X0657475Y0049966D02*
X0659474D01*
X0663473Y0046966D02*
Y0052965D01*
X0667472Y0046966D01*
Y0052965D01*
X0669471D02*
X0673470D01*
X0671471D01*
Y0046966D01*
X0679468Y0051965D02*
X0678468Y0052965D01*
X0676469D01*
X0675469Y0051965D01*
Y0050965D01*
X0676469Y0049966D01*
X0678468D01*
X0679468Y0048966D01*
Y0047966D01*
X0678468Y0046966D01*
X0676469D01*
X0675469Y0047966D01*
X0454050Y0051965D02*
X0455050Y0052965D01*
X0457049D01*
X0458049Y0051965D01*
Y0050965D01*
X0457049Y0049966D01*
X0456049D01*
X0457049D01*
X0458049Y0048966D01*
Y0047966D01*
X0457049Y0046966D01*
X0455050D01*
X0454050Y0047966D01*
X0460048Y0050965D02*
X0461048D01*
Y0049966D01*
X0460048D01*
Y0050965D01*
Y0047966D02*
X0461048D01*
Y0046966D01*
X0460048D01*
Y0047966D01*
X0468046Y0046966D02*
Y0052965D01*
X0465046Y0049966D01*
X0469045D01*
X0471044Y0047966D02*
X0472044Y0046966D01*
X0474044D01*
X0475043Y0047966D01*
Y0051965D01*
X0474044Y0052965D01*
X0472044D01*
X0471044Y0051965D01*
Y0050965D01*
X0472044Y0049966D01*
X0475043D01*
X0477043Y0050965D02*
X0478042D01*
Y0049966D01*
X0477043D01*
Y0050965D01*
Y0047966D02*
X0478042D01*
Y0046966D01*
X0477043D01*
Y0047966D01*
X0482041Y0051965D02*
X0483041Y0052965D01*
X0485040D01*
X0486040Y0051965D01*
Y0047966D01*
X0485040Y0046966D01*
X0483041D01*
X0482041Y0047966D01*
Y0051965D01*
X0488039D02*
X0489039Y0052965D01*
X0491038D01*
X0492038Y0051965D01*
Y0047966D01*
X0491038Y0046966D01*
X0489039D01*
X0488039Y0047966D01*
Y0051965D01*
X0500035Y0046966D02*
Y0052965D01*
X0503034D01*
X0504034Y0051965D01*
Y0049966D01*
X0503034Y0048966D01*
X0500035D01*
X0506033Y0046966D02*
Y0052965D01*
X0508033Y0050965D01*
X0510032Y0052965D01*
Y0046966D01*
X0046350D02*
Y0052965D01*
X0049349D01*
X0050349Y0051965D01*
Y0049966D01*
X0049349Y0048966D01*
X0046350D01*
X0052348Y0052965D02*
Y0046966D01*
X0056347D01*
X0061345Y0052965D02*
X0059346D01*
X0058346Y0051965D01*
Y0047966D01*
X0059346Y0046966D01*
X0061345D01*
X0062345Y0047966D01*
Y0051965D01*
X0061345Y0052965D01*
X0064344D02*
X0068343D01*
X0066343D01*
Y0046966D01*
X0076340D02*
Y0052965D01*
X0080339Y0046966D01*
Y0052965D01*
X0082338Y0046966D02*
Y0050965D01*
X0084338Y0052965D01*
X0086337Y0050965D01*
Y0046966D01*
Y0049966D01*
X0082338D01*
X0088336Y0046966D02*
Y0052965D01*
X0090336Y0050965D01*
X0092335Y0052965D01*
Y0046966D01*
X0098333Y0052965D02*
X0094335D01*
Y0046966D01*
X0098333D01*
X0094335Y0049966D02*
X0096334D01*
X0106331Y0048966D02*
X0110329D01*
X0106331Y0050965D02*
X0110329D01*
X0046350Y0073549D02*
Y0067551D01*
X0050349D01*
X0052348D02*
Y0071549D01*
X0054347Y0073549D01*
X0056347Y0071549D01*
Y0067551D01*
Y0070550D01*
X0052348D01*
X0058346Y0073549D02*
Y0072549D01*
X0060346Y0070550D01*
X0062345Y0072549D01*
Y0073549D01*
X0060346Y0070550D02*
Y0067551D01*
X0068343Y0073549D02*
X0064344D01*
Y0067551D01*
X0068343D01*
X0064344Y0070550D02*
X0066343D01*
X0070342Y0067551D02*
Y0073549D01*
X0073341D01*
X0074341Y0072549D01*
Y0070550D01*
X0073341Y0069550D01*
X0070342D01*
X0072342D02*
X0074341Y0067551D01*
X0082338D02*
Y0073549D01*
X0086337Y0067551D01*
Y0073549D01*
X0088336Y0067551D02*
Y0071549D01*
X0090336Y0073549D01*
X0092335Y0071549D01*
Y0067551D01*
Y0070550D01*
X0088336D01*
X0094335Y0067551D02*
Y0073549D01*
X0096334Y0071549D01*
X0098333Y0073549D01*
Y0067551D01*
X0104331Y0073549D02*
X0100332D01*
Y0067551D01*
X0104331D01*
X0100332Y0070550D02*
X0102332D01*
X0112329Y0069550D02*
X0116327D01*
X0112329Y0071549D02*
X0116327D01*
X0294000Y0093831D02*
Y0087833D01*
X0296999D01*
X0297999Y0088833D01*
Y0089833D01*
X0296999Y0090832D01*
X0294000D01*
X0296999D01*
X0297999Y0091832D01*
Y0092832D01*
X0296999Y0093831D01*
X0294000D01*
X0302997D02*
X0300998D01*
X0299998Y0092832D01*
Y0088833D01*
X0300998Y0087833D01*
X0302997D01*
X0303997Y0088833D01*
Y0092832D01*
X0302997Y0093831D01*
X0305996Y0087833D02*
Y0091832D01*
X0307996Y0093831D01*
X0309995Y0091832D01*
Y0087833D01*
Y0090832D01*
X0305996D01*
X0311994Y0087833D02*
Y0093831D01*
X0314993D01*
X0315993Y0092832D01*
Y0090832D01*
X0314993Y0089833D01*
X0311994D01*
X0313994D02*
X0315993Y0087833D01*
X0317992Y0093831D02*
Y0087833D01*
X0320991D01*
X0321991Y0088833D01*
Y0092832D01*
X0320991Y0093831D01*
X0317992D01*
X0330988Y0087833D02*
Y0093831D01*
X0332987D02*
Y0087833D01*
X0329988Y0091832D02*
X0332987D01*
X0333987D01*
X0329988Y0089833D02*
X0333987D01*
X0335986Y0091832D02*
X0336986D01*
Y0090832D01*
X0335986D01*
Y0091832D01*
Y0088833D02*
X0336986D01*
Y0087833D01*
X0335986D01*
Y0088833D01*
X0352549Y0092832D02*
X0351549Y0093831D01*
X0349550D01*
X0348550Y0092832D01*
Y0088833D01*
X0349550Y0087833D01*
X0351549D01*
X0352549Y0088833D01*
X0354548Y0087833D02*
Y0091832D01*
X0356547Y0093831D01*
X0358547Y0091832D01*
Y0087833D01*
Y0090832D01*
X0354548D01*
X0360546Y0087833D02*
Y0093831D01*
X0363545D01*
X0364545Y0092832D01*
Y0090832D01*
X0363545Y0089833D01*
X0360546D01*
X0366544Y0093831D02*
X0370543D01*
X0368544D01*
Y0087833D01*
X0372542Y0093831D02*
X0374542D01*
X0373542D01*
Y0087833D01*
X0372542D01*
X0374542D01*
X0377541Y0093831D02*
Y0089833D01*
X0379540Y0087833D01*
X0381539Y0089833D01*
Y0093831D01*
X0383539Y0087833D02*
Y0091832D01*
X0385538Y0093831D01*
X0387537Y0091832D01*
Y0087833D01*
Y0090832D01*
X0383539D01*
X0389537Y0093831D02*
X0393535D01*
X0391536D01*
Y0087833D01*
X0399534Y0093831D02*
X0395535D01*
Y0087833D01*
X0399534D01*
X0395535Y0090832D02*
X0397534D01*
X0401533D02*
X0405532D01*
X0407531Y0093831D02*
X0409530D01*
X0408531D01*
Y0087833D01*
X0407531D01*
X0409530D01*
X0416528Y0092832D02*
X0415528Y0093831D01*
X0413529D01*
X0412529Y0092832D01*
Y0091832D01*
X0413529Y0090832D01*
X0415528D01*
X0416528Y0089833D01*
Y0088833D01*
X0415528Y0087833D01*
X0413529D01*
X0412529Y0088833D01*
X0421526Y0093831D02*
X0419527D01*
X0418527Y0092832D01*
Y0088833D01*
X0419527Y0087833D01*
X0421526D01*
X0422526Y0088833D01*
Y0092832D01*
X0421526Y0093831D01*
X0462150D02*
Y0087833D01*
X0465149D01*
X0466149Y0088833D01*
Y0089833D01*
X0465149Y0090832D01*
X0462150D01*
X0465149D01*
X0466149Y0091832D01*
Y0092832D01*
X0465149Y0093831D01*
X0462150D01*
X0046350Y0087833D02*
Y0091832D01*
X0048349Y0093831D01*
X0050349Y0091832D01*
Y0087833D01*
Y0090832D01*
X0046350D01*
X0052348Y0093831D02*
Y0087833D01*
X0056347D01*
X0058346Y0093831D02*
Y0087833D01*
X0062345D01*
X0070342D02*
Y0091832D01*
X0072342Y0093831D01*
X0074341Y0091832D01*
Y0087833D01*
Y0090832D01*
X0070342D01*
X0076340Y0087833D02*
Y0093831D01*
X0079339D01*
X0080339Y0092832D01*
Y0090832D01*
X0079339Y0089833D01*
X0076340D01*
X0078340D02*
X0080339Y0087833D01*
X0082338Y0093831D02*
X0086337D01*
X0084338D01*
Y0087833D01*
X0088336Y0093831D02*
Y0087833D01*
X0090336Y0089833D01*
X0092335Y0087833D01*
Y0093831D01*
X0097334D02*
X0095334D01*
X0094335Y0092832D01*
Y0088833D01*
X0095334Y0087833D01*
X0097334D01*
X0098333Y0088833D01*
Y0092832D01*
X0097334Y0093831D01*
X0100332Y0087833D02*
Y0093831D01*
X0103332D01*
X0104331Y0092832D01*
Y0090832D01*
X0103332Y0089833D01*
X0100332D01*
X0102332D02*
X0104331Y0087833D01*
X0106331Y0093831D02*
Y0087833D01*
Y0089833D01*
X0110329Y0093831D01*
X0107330Y0090832D01*
X0110329Y0087833D01*
X0118327Y0093831D02*
Y0089833D01*
X0120326Y0087833D01*
X0122325Y0089833D01*
Y0093831D01*
X0124325D02*
X0126324D01*
X0125324D01*
Y0087833D01*
X0124325D01*
X0126324D01*
X0133322Y0093831D02*
X0129323D01*
Y0087833D01*
X0133322D01*
X0129323Y0090832D02*
X0131323D01*
X0135321Y0093831D02*
Y0087833D01*
X0137321Y0089833D01*
X0139320Y0087833D01*
Y0093831D01*
X0145318D02*
X0141319D01*
Y0087833D01*
X0145318D01*
X0141319Y0090832D02*
X0143319D01*
X0147317Y0093831D02*
Y0087833D01*
X0150316D01*
X0151316Y0088833D01*
Y0092832D01*
X0150316Y0093831D01*
X0147317D01*
X0163312D02*
X0159313D01*
Y0090832D01*
X0161313D01*
X0159313D01*
Y0087833D01*
X0165312D02*
Y0093831D01*
X0168310D01*
X0169310Y0092832D01*
Y0090832D01*
X0168310Y0089833D01*
X0165312D01*
X0167311D02*
X0169310Y0087833D01*
X0174309Y0093831D02*
X0172309D01*
X0171310Y0092832D01*
Y0088833D01*
X0172309Y0087833D01*
X0174309D01*
X0175308Y0088833D01*
Y0092832D01*
X0174309Y0093831D01*
X0177308Y0087833D02*
Y0093831D01*
X0179307Y0091832D01*
X0181306Y0093831D01*
Y0087833D01*
X0189304Y0093831D02*
X0193303D01*
X0191303D01*
Y0087833D01*
X0198301Y0093831D02*
X0196301D01*
X0195302Y0092832D01*
Y0088833D01*
X0196301Y0087833D01*
X0198301D01*
X0199301Y0088833D01*
Y0092832D01*
X0198301Y0093831D01*
X0201300Y0087833D02*
Y0093831D01*
X0204299D01*
X0205299Y0092832D01*
Y0090832D01*
X0204299Y0089833D01*
X0201300D01*
X0217295Y0092832D02*
X0216295Y0093831D01*
X0214296D01*
X0213296Y0092832D01*
Y0091832D01*
X0214296Y0090832D01*
X0216295D01*
X0217295Y0089833D01*
Y0088833D01*
X0216295Y0087833D01*
X0214296D01*
X0213296Y0088833D01*
X0219294Y0093831D02*
X0221293D01*
X0220294D01*
Y0087833D01*
X0219294D01*
X0221293D01*
X0224292Y0093831D02*
Y0087833D01*
X0227291D01*
X0228291Y0088833D01*
Y0092832D01*
X0227291Y0093831D01*
X0224292D01*
X0234289D02*
X0230291D01*
Y0087833D01*
X0234289D01*
X0230291Y0090832D02*
X0232290D01*
X0298199Y0051965D02*
X0297199Y0052965D01*
X0295200D01*
X0294200Y0051965D01*
Y0047966D01*
X0295200Y0046966D01*
X0297199D01*
X0298199Y0047966D01*
Y0049966D01*
X0296199D01*
X0304197Y0052965D02*
X0300198D01*
Y0046966D01*
X0304197D01*
X0300198Y0049966D02*
X0302197D01*
X0306196Y0046966D02*
Y0052965D01*
X0310195Y0046966D01*
Y0052965D01*
X0316193D02*
X0312194D01*
Y0046966D01*
X0316193D01*
X0312194Y0049966D02*
X0314194D01*
X0318192Y0046966D02*
Y0052965D01*
X0321191D01*
X0322191Y0051965D01*
Y0049966D01*
X0321191Y0048966D01*
X0318192D01*
X0320192D02*
X0322191Y0046966D01*
X0324190D02*
Y0050965D01*
X0326190Y0052965D01*
X0328189Y0050965D01*
Y0046966D01*
Y0049966D01*
X0324190D01*
X0330188Y0052965D02*
X0334187D01*
X0332188D01*
Y0046966D01*
X0340185Y0052965D02*
X0336186D01*
Y0046966D01*
X0340185D01*
X0336186Y0049966D02*
X0338186D01*
X0342184Y0052965D02*
Y0046966D01*
X0345183D01*
X0346183Y0047966D01*
Y0051965D01*
X0345183Y0052965D01*
X0342184D01*
X0372175Y0050965D02*
X0373175D01*
Y0049966D01*
X0372175D01*
Y0050965D01*
Y0047966D02*
X0373175D01*
Y0046966D01*
X0372175D01*
Y0047966D01*
X0381150Y0052965D02*
X0385149D01*
Y0051965D01*
X0381150Y0047966D01*
Y0046966D01*
X0387148D02*
X0391147Y0050965D01*
X0397145Y0046966D02*
X0393146D01*
X0397145Y0050965D01*
Y0051965D01*
X0396145Y0052965D01*
X0394146D01*
X0393146Y0051965D01*
X0399144Y0047966D02*
X0400144Y0046966D01*
X0402143D01*
X0403143Y0047966D01*
Y0051965D01*
X0402143Y0052965D01*
X0400144D01*
X0399144Y0051965D01*
Y0050965D01*
X0400144Y0049966D01*
X0403143D01*
X0405142Y0046966D02*
X0409141Y0050965D01*
X0415139Y0046966D02*
X0411140D01*
X0415139Y0050965D01*
Y0051965D01*
X0414139Y0052965D01*
X0412140D01*
X0411140Y0051965D01*
X0417138D02*
X0418138Y0052965D01*
X0420137D01*
X0421137Y0051965D01*
Y0047966D01*
X0420137Y0046966D01*
X0418138D01*
X0417138Y0047966D01*
Y0051965D01*
X0423136Y0046966D02*
X0425136D01*
X0424136D01*
Y0052965D01*
X0423136Y0051965D01*
X0432133Y0052965D02*
X0428135D01*
Y0049966D01*
X0430134Y0050965D01*
X0431134D01*
X0432133Y0049966D01*
Y0047966D01*
X0431134Y0046966D01*
X0429135D01*
X0428135Y0047966D01*
X0130899Y0051965D02*
X0129899Y0052965D01*
X0127900D01*
X0126900Y0051965D01*
Y0047966D01*
X0127900Y0046966D01*
X0129899D01*
X0130899Y0047966D01*
X0132898Y0046966D02*
Y0050965D01*
X0134897Y0052965D01*
X0136897Y0050965D01*
Y0046966D01*
Y0049966D01*
X0132898D01*
X0138896Y0046966D02*
Y0052965D01*
X0141895D01*
X0142895Y0051965D01*
Y0049966D01*
X0141895Y0048966D01*
X0138896D01*
X0144894Y0052965D02*
X0148893D01*
X0146894D01*
Y0046966D01*
X0150892Y0052965D02*
X0152892D01*
X0151892D01*
Y0046966D01*
X0150892D01*
X0152892D01*
X0155891Y0052965D02*
Y0048966D01*
X0157890Y0046966D01*
X0159889Y0048966D01*
Y0052965D01*
X0161889Y0046966D02*
Y0050965D01*
X0163888Y0052965D01*
X0165887Y0050965D01*
Y0046966D01*
Y0049966D01*
X0161889D01*
X0167887Y0052965D02*
X0171885D01*
X0169886D01*
Y0046966D01*
X0177884Y0052965D02*
X0173885D01*
Y0046966D01*
X0177884D01*
X0173885Y0049966D02*
X0175884D01*
X0179883D02*
X0183882D01*
X0185881Y0052965D02*
X0187880D01*
X0186881D01*
Y0046966D01*
X0185881D01*
X0187880D01*
X0194878Y0051965D02*
X0193878Y0052965D01*
X0191879D01*
X0190879Y0051965D01*
Y0050965D01*
X0191879Y0049966D01*
X0193878D01*
X0194878Y0048966D01*
Y0047966D01*
X0193878Y0046966D01*
X0191879D01*
X0190879Y0047966D01*
X0199876Y0052965D02*
X0197877D01*
X0196877Y0051965D01*
Y0047966D01*
X0197877Y0046966D01*
X0199876D01*
X0200876Y0047966D01*
Y0051965D01*
X0199876Y0052965D01*
X0202875Y0045967D02*
X0206874D01*
X0208874Y0046966D02*
Y0052965D01*
X0211873D01*
X0212872Y0051965D01*
Y0049966D01*
X0211873Y0048966D01*
X0208874D01*
X0210873D02*
X0212872Y0046966D01*
X0218870Y0052965D02*
X0214872D01*
Y0046966D01*
X0218870D01*
X0214872Y0049966D02*
X0216871D01*
X0220870Y0052965D02*
Y0048966D01*
X0222869Y0046966D01*
X0224868Y0048966D01*
Y0052965D01*
X0226868Y0045967D02*
X0230866D01*
X0232866Y0052965D02*
Y0046966D01*
X0235865D01*
X0236864Y0047966D01*
Y0048966D01*
X0235865Y0049966D01*
X0232866D01*
X0235865D01*
X0236864Y0050965D01*
Y0051965D01*
X0235865Y0052965D01*
X0232866D01*
X0238864Y0046966D02*
Y0047966D01*
X0239863D01*
Y0046966D01*
X0238864D01*
X0247861Y0051965D02*
X0246861Y0052965D01*
X0244862D01*
X0243862Y0051965D01*
Y0047966D01*
X0244862Y0046966D01*
X0246861D01*
X0247861Y0047966D01*
Y0049966D01*
X0245862D01*
X0249860Y0052965D02*
X0253859D01*
X0251860D01*
Y0046966D01*
X0255858Y0052965D02*
Y0046966D01*
X0259857D01*
X0433000Y0087833D02*
Y0093831D01*
X0435999D01*
X0436999Y0092832D01*
Y0090832D01*
X0435999Y0089833D01*
X0433000D01*
X0434999D02*
X0436999Y0087833D01*
X0442997Y0093831D02*
X0438998D01*
Y0087833D01*
X0442997D01*
X0438998Y0090832D02*
X0440997D01*
X0444996Y0093831D02*
Y0089833D01*
X0446995Y0087833D01*
X0448995Y0089833D01*
Y0093831D01*
X0450994Y0091832D02*
X0451994D01*
Y0090832D01*
X0450994D01*
Y0091832D01*
Y0088833D02*
X0451994D01*
Y0087833D01*
X0450994D01*
Y0088833D01*
X0520799Y0092832D02*
X0519799Y0093831D01*
X0517800D01*
X0516800Y0092832D01*
Y0091832D01*
X0517800Y0090832D01*
X0519799D01*
X0520799Y0089833D01*
Y0088833D01*
X0519799Y0087833D01*
X0517800D01*
X0516800Y0088833D01*
X0522798Y0093831D02*
Y0089833D01*
X0524797Y0087833D01*
X0526797Y0089833D01*
Y0093831D01*
X0528796Y0087833D02*
Y0093831D01*
X0532795Y0087833D01*
Y0093831D01*
X0540792Y0087833D02*
Y0093831D01*
X0543791D01*
X0544791Y0092832D01*
Y0090832D01*
X0543791Y0089833D01*
X0540792D01*
X0542792D02*
X0544791Y0087833D01*
X0550789Y0093831D02*
X0546790D01*
Y0087833D01*
X0550789D01*
X0546790Y0090832D02*
X0548790D01*
X0552788Y0093831D02*
Y0089833D01*
X0554788Y0087833D01*
X0556787Y0089833D01*
Y0093831D01*
X0558786Y0091832D02*
X0559786D01*
Y0090832D01*
X0558786D01*
Y0091832D01*
Y0088833D02*
X0559786D01*
Y0087833D01*
X0558786D01*
Y0088833D01*
X0567400Y0087833D02*
Y0093831D01*
X0571399Y0087833D01*
Y0093831D01*
X0574398Y0087833D02*
X0576397D01*
X0577397Y0088833D01*
Y0090832D01*
X0576397Y0091832D01*
X0574398D01*
X0573398Y0090832D01*
Y0088833D01*
X0574398Y0087833D01*
X0580396Y0092832D02*
Y0091832D01*
X0579396D01*
X0581395D01*
X0580396D01*
Y0088833D01*
X0581395Y0087833D01*
X0590393Y0093831D02*
X0592392D01*
X0591392D01*
Y0087833D01*
X0590393D01*
X0592392D01*
X0595391D02*
Y0091832D01*
X0598390D01*
X0599390Y0090832D01*
Y0087833D01*
X0607387Y0093831D02*
Y0089833D01*
X0609386Y0087833D01*
X0611386Y0089833D01*
Y0093831D01*
X0616384Y0087833D02*
X0614385D01*
X0613385Y0088833D01*
Y0090832D01*
X0614385Y0091832D01*
X0616384D01*
X0617384Y0090832D01*
Y0089833D01*
X0613385D01*
X0619383Y0091832D02*
Y0087833D01*
Y0089833D01*
X0620383Y0090832D01*
X0621383Y0091832D01*
X0622382D01*
X0625381Y0087833D02*
X0628380D01*
X0629380Y0088833D01*
X0628380Y0089833D01*
X0626381D01*
X0625381Y0090832D01*
X0626381Y0091832D01*
X0629380D01*
X0631379Y0087833D02*
X0633379D01*
X0632379D01*
Y0091832D01*
X0631379D01*
X0637377Y0087833D02*
X0639377D01*
X0640376Y0088833D01*
Y0090832D01*
X0639377Y0091832D01*
X0637377D01*
X0636378Y0090832D01*
Y0088833D01*
X0637377Y0087833D01*
X0642376D02*
Y0091832D01*
X0645375D01*
X0646374Y0090832D01*
Y0087833D01*
X0652373Y0092832D02*
X0651373Y0093831D01*
X0649373D01*
X0648374Y0092832D01*
Y0088833D01*
X0649373Y0087833D01*
X0651373D01*
X0652373Y0088833D01*
X0655372Y0087833D02*
X0657371D01*
X0658371Y0088833D01*
Y0090832D01*
X0657371Y0091832D01*
X0655372D01*
X0654372Y0090832D01*
Y0088833D01*
X0655372Y0087833D01*
X0660370D02*
Y0091832D01*
X0663369D01*
X0664369Y0090832D01*
Y0087833D01*
X0667368Y0092832D02*
Y0091832D01*
X0666368D01*
X0668367D01*
X0667368D01*
Y0088833D01*
X0668367Y0087833D01*
X0671366Y0091832D02*
Y0087833D01*
Y0089833D01*
X0672366Y0090832D01*
X0673366Y0091832D01*
X0674365D01*
X0678364Y0087833D02*
X0680364D01*
X0681363Y0088833D01*
Y0090832D01*
X0680364Y0091832D01*
X0678364D01*
X0677364Y0090832D01*
Y0088833D01*
X0678364Y0087833D01*
X0683362D02*
X0685362D01*
X0684362D01*
Y0093831D01*
X0683362D01*
G54D18*
X0249200Y0268400D02*
D03*
X0239200D02*
D03*
X0249200Y0278400D02*
D03*
X0239200D02*
D03*
X0249200Y0288400D02*
D03*
X0239200D02*
D03*
X0249200Y0298400D02*
D03*
X0239200D02*
D03*
X0249200Y0308400D02*
D03*
X0239200D02*
D03*
X0249200Y0318400D02*
D03*
X0239200D02*
D03*
X0249200Y0328400D02*
D03*
X0239200D02*
D03*
X0249200Y0338400D02*
D03*
X0239200D02*
D03*
X0249200Y0348400D02*
D03*
X0239200D02*
D03*
X0249200Y0358400D02*
D03*
X0329200Y0268400D02*
D03*
X0339200Y0278400D02*
D03*
X0329200D02*
D03*
X0339200Y0288400D02*
D03*
X0329200D02*
D03*
X0339200Y0298400D02*
D03*
X0329200D02*
D03*
X0339200Y0308400D02*
D03*
X0329200D02*
D03*
X0339200Y0318400D02*
D03*
X0329200D02*
D03*
X0339200Y0328400D02*
D03*
X0329200D02*
D03*
X0339200Y0338400D02*
D03*
X0329200D02*
D03*
X0339200Y0348400D02*
D03*
X0329200D02*
D03*
X0339200Y0358400D02*
D03*
X0329200D02*
D03*
G54D19*
X0239200D02*
D03*
X0339200Y0268400D02*
D03*
G54D20*
X0300200Y0319400D02*
D03*
X0257200Y0295400D02*
D03*
X0266200Y0270300D02*
D03*
X0312700Y0340400D02*
D03*
X0312600Y0311500D02*
D03*
X0312700Y0270400D02*
D03*
X0266200Y0340200D02*
D03*
X0275700Y0319400D02*
D03*
X0266200Y0311400D02*
D03*
X0322200Y0295400D02*
D03*
X0312600Y0290400D02*
D03*
X0306700Y0285400D02*
D03*
X0266200Y0290400D02*
D03*
X0272062Y0285538D02*
D03*
M02*
