M48
;Layer_Color=9474304
;FILE_FORMAT=2:5
INCH
;TYPE=PLATED
T1F00S00C0.01600
T2F00S00C0.03543
%
T01
X0312700Y0270400
X0312600Y0290400
X0322200Y0295400
X0312600Y0311500
X0306700Y0285400
X0272062Y0285538
X0266200Y0290400
X0257200Y0295400
X0266200Y0311400
Y0270300
X0275700Y0319400
X0300200
X0266200Y0340200
X0312700Y0340400
T02
X0329200Y0268400
X0339200
Y0278400
X0329200
Y0288400
X0339200
Y0298400
X0329200
Y0308400
X0339200
X0249200
Y0298400
Y0288400
Y0278400
Y0268400
X0239200
Y0278400
Y0288400
Y0298400
Y0308400
Y0318400
X0249200
Y0328400
X0239200
Y0338400
X0249200
Y0348400
X0239200
Y0358400
X0249200
X0329200
Y0348400
Y0338400
Y0328400
Y0318400
X0339200
Y0328400
Y0338400
Y0348400
Y0358400
M30
