%FSAX25Y25*%
%MOIN*%
G70*
G01*
G75*
G04 Layer_Physical_Order=1*
G04 Layer_Color=255*
%ADD10C,0.00800*%
%ADD11C,0.00600*%
%ADD12C,0.03937*%
%ADD13R,0.02362X0.03150*%
%ADD14R,0.03937X0.03740*%
%ADD15R,0.03150X0.02362*%
%ADD16R,0.03150X0.03150*%
%ADD17R,0.03740X0.03937*%
%ADD18O,0.02362X0.00945*%
%ADD19O,0.00945X0.02362*%
%ADD20R,0.13583X0.13583*%
%ADD21R,0.03937X0.07087*%
%ADD22C,0.02000*%
%ADD23C,0.01000*%
%ADD24C,0.03000*%
%ADD25C,0.01200*%
%ADD26C,0.00787*%
%ADD27C,0.01500*%
%ADD28C,0.05000*%
%ADD29C,0.06000*%
%ADD30C,0.06496*%
%ADD31R,0.06496X0.06496*%
%ADD32C,0.08000*%
%ADD33R,0.05906X0.05906*%
%ADD34C,0.05906*%
%ADD35C,0.18110*%
%ADD36C,0.06299*%
%ADD37R,0.06496X0.06496*%
%ADD38R,0.06000X0.06000*%
%ADD39C,0.05000*%
%ADD40C,0.03400*%
%ADD41C,0.01969*%
G36*
X0279200Y0388767D02*
X0278318Y0388296D01*
X0278200Y0388375D01*
Y0413900D01*
X0274700Y0417400D01*
X0273700Y0417400D01*
X0261200D01*
X0257700Y0417400D01*
X0254200Y0413900D01*
Y0383400D01*
X0263114D01*
X0263287Y0383366D01*
X0272529D01*
X0278258Y0377636D01*
X0278213Y0377406D01*
X0278100Y0377294D01*
X0277106Y0376967D01*
X0276676Y0377255D01*
X0275700Y0377449D01*
X0272381D01*
Y0378113D01*
X0266019D01*
Y0377311D01*
X0264070D01*
Y0378719D01*
X0256330D01*
Y0378423D01*
X0255330Y0377929D01*
X0255066Y0378132D01*
X0254166Y0378505D01*
X0253200Y0378632D01*
X0252234Y0378505D01*
X0252054Y0378430D01*
X0227162D01*
X0223696Y0381896D01*
X0204696Y0400896D01*
X0203965Y0401457D01*
X0203114Y0401810D01*
X0202200Y0401930D01*
X0201912D01*
X0201753Y0402152D01*
X0202267Y0403152D01*
X0202448D01*
Y0413648D01*
X0191952D01*
Y0411426D01*
X0174205D01*
X0173421Y0411323D01*
X0172692Y0411021D01*
X0172065Y0410540D01*
X0172065Y0410540D01*
X0169086Y0407560D01*
X0168406Y0407896D01*
X0160279D01*
X0160349Y0407364D01*
X0160747Y0406402D01*
X0161381Y0405576D01*
X0162207Y0404943D01*
X0163168Y0404544D01*
X0163594Y0404488D01*
X0163623Y0404468D01*
X0164039Y0403421D01*
X0163992Y0403364D01*
X0162907Y0403221D01*
X0161702Y0402722D01*
X0160668Y0401928D01*
X0159874Y0400893D01*
X0159741Y0400573D01*
X0158659D01*
X0158526Y0400893D01*
X0157732Y0401928D01*
X0156698Y0402722D01*
X0155493Y0403221D01*
X0154200Y0403391D01*
X0152907Y0403221D01*
X0151702Y0402722D01*
X0151226Y0402356D01*
X0150226Y0402849D01*
Y0403452D01*
X0150247Y0404443D01*
X0153700D01*
Y0408395D01*
Y0412348D01*
X0151734D01*
X0151351Y0413272D01*
X0170953Y0432874D01*
X0182881D01*
X0183295Y0431874D01*
X0174329Y0422909D01*
X0174100Y0422939D01*
X0172925Y0422784D01*
X0171831Y0422331D01*
X0170891Y0421609D01*
X0170169Y0420669D01*
X0169716Y0419575D01*
X0169561Y0418400D01*
X0169716Y0417225D01*
X0170169Y0416131D01*
X0170891Y0415191D01*
X0171831Y0414469D01*
X0172925Y0414016D01*
X0174100Y0413861D01*
X0175275Y0414016D01*
X0176369Y0414469D01*
X0177309Y0415191D01*
X0178031Y0416131D01*
X0178484Y0417225D01*
X0178639Y0418400D01*
X0178609Y0418629D01*
X0187353Y0427374D01*
X0201952D01*
Y0418152D01*
X0212448D01*
Y0419329D01*
X0213448Y0419669D01*
X0213457Y0419657D01*
X0214553Y0418816D01*
X0215830Y0418287D01*
X0217200Y0418107D01*
X0218570Y0418287D01*
X0219847Y0418816D01*
X0220943Y0419657D01*
X0221784Y0420753D01*
X0222313Y0422030D01*
X0222493Y0423400D01*
X0222313Y0424770D01*
X0221784Y0426047D01*
X0221533Y0426374D01*
X0222026Y0427374D01*
X0244661D01*
X0245444Y0427477D01*
X0245960Y0427691D01*
X0246174Y0427779D01*
X0246800Y0428260D01*
X0270414Y0451874D01*
X0279200D01*
Y0388767D01*
D02*
G37*
G36*
X0214347Y0381261D02*
X0213964Y0380337D01*
X0212519D01*
Y0379337D01*
X0211200D01*
Y0376762D01*
X0210700D01*
Y0376262D01*
X0208519D01*
Y0375613D01*
X0207519D01*
Y0370745D01*
X0174098D01*
X0173161Y0370558D01*
X0172367Y0370028D01*
X0170124Y0367784D01*
X0169176Y0368251D01*
X0169195Y0368395D01*
X0169025Y0369688D01*
X0168526Y0370893D01*
X0167732Y0371928D01*
X0166698Y0372722D01*
X0165493Y0373221D01*
X0164200Y0373391D01*
X0162907Y0373221D01*
X0161702Y0372722D01*
X0160668Y0371928D01*
X0159874Y0370893D01*
X0159741Y0370573D01*
X0158659D01*
X0158526Y0370893D01*
X0157732Y0371928D01*
X0156698Y0372722D01*
X0155493Y0373221D01*
X0154200Y0373391D01*
X0152907Y0373221D01*
X0151702Y0372722D01*
X0151226Y0372356D01*
X0150226Y0372849D01*
Y0375439D01*
X0151226Y0375778D01*
X0151381Y0375576D01*
X0152207Y0374943D01*
X0153168Y0374545D01*
X0153700Y0374475D01*
Y0378396D01*
Y0382316D01*
X0153168Y0382246D01*
X0152207Y0381848D01*
X0151381Y0381215D01*
X0151226Y0381013D01*
X0150226Y0381352D01*
Y0383942D01*
X0151226Y0384435D01*
X0151702Y0384069D01*
X0152907Y0383570D01*
X0154200Y0383400D01*
X0155493Y0383570D01*
X0156698Y0384069D01*
X0157732Y0384863D01*
X0158526Y0385898D01*
X0158659Y0386218D01*
X0159741D01*
X0159874Y0385898D01*
X0160668Y0384863D01*
X0161702Y0384069D01*
X0162907Y0383570D01*
X0164200Y0383400D01*
X0165493Y0383570D01*
X0166698Y0384069D01*
X0167732Y0384863D01*
X0168124Y0385374D01*
X0192907D01*
X0193457Y0384657D01*
X0194553Y0383816D01*
X0195830Y0383287D01*
X0197200Y0383107D01*
X0198570Y0383287D01*
X0199847Y0383816D01*
X0200943Y0384657D01*
X0201784Y0385753D01*
X0202313Y0387030D01*
X0202493Y0388400D01*
X0202313Y0389770D01*
X0201784Y0391047D01*
X0200943Y0392143D01*
X0200059Y0392821D01*
X0199967Y0393251D01*
Y0393549D01*
X0200059Y0393979D01*
X0200943Y0394657D01*
X0200950Y0394657D01*
X0214347Y0381261D01*
D02*
G37*
G36*
X0169527Y0319607D02*
X0170321Y0319077D01*
X0170477Y0319046D01*
X0171258Y0318891D01*
X0176019D01*
Y0317763D01*
X0182381D01*
Y0318891D01*
X0192559D01*
X0192616Y0318753D01*
X0193457Y0317657D01*
X0194341Y0316979D01*
X0194433Y0316549D01*
Y0316251D01*
X0194341Y0315821D01*
X0193457Y0315143D01*
X0192616Y0314047D01*
X0192533Y0313847D01*
X0166161D01*
X0165962Y0314847D01*
X0166193Y0314943D01*
X0167019Y0315576D01*
X0167653Y0316402D01*
X0168051Y0317364D01*
X0168121Y0317896D01*
X0164200D01*
Y0318896D01*
X0168121D01*
X0168051Y0319427D01*
X0167880Y0319841D01*
X0168727Y0320407D01*
X0169527Y0319607D01*
D02*
G37*
G36*
X0191952Y0403152D02*
X0193129D01*
X0193469Y0402152D01*
X0193457Y0402143D01*
X0192616Y0401047D01*
X0192087Y0399770D01*
X0191907Y0398400D01*
X0192087Y0397030D01*
X0192616Y0395753D01*
X0193457Y0394657D01*
X0194341Y0393979D01*
X0194433Y0393549D01*
Y0393251D01*
X0194341Y0392821D01*
X0193457Y0392143D01*
X0192907Y0391426D01*
X0168117D01*
X0167732Y0391928D01*
X0166698Y0392722D01*
X0166378Y0392854D01*
Y0393937D01*
X0166698Y0394069D01*
X0167732Y0394863D01*
X0168526Y0395898D01*
X0169025Y0397103D01*
X0169195Y0398395D01*
X0169112Y0399028D01*
X0175458Y0405374D01*
X0191952D01*
Y0403152D01*
D02*
G37*
G36*
X0277200Y0413400D02*
Y0389167D01*
X0276276Y0388785D01*
X0275930Y0389130D01*
X0275136Y0389661D01*
X0275090Y0389670D01*
Y0398943D01*
X0274381D01*
Y0404613D01*
X0268019D01*
Y0398943D01*
X0267153D01*
Y0388260D01*
X0265247D01*
Y0398943D01*
X0264381D01*
Y0404613D01*
X0258019D01*
Y0398943D01*
X0257310D01*
Y0387857D01*
X0258832D01*
Y0387821D01*
X0258987Y0387040D01*
X0259018Y0386885D01*
X0259548Y0386091D01*
X0260315Y0385324D01*
X0259933Y0384400D01*
X0255200D01*
Y0413400D01*
X0258200Y0416400D01*
X0274200D01*
X0277200Y0413400D01*
D02*
G37*
G36*
X0279200Y0462426D02*
X0265200D01*
X0264417Y0462323D01*
X0263901Y0462109D01*
X0263687Y0462020D01*
X0263060Y0461540D01*
X0242827Y0441306D01*
X0241979Y0441873D01*
X0242071Y0442095D01*
X0242243Y0443400D01*
X0242071Y0444705D01*
X0241567Y0445922D01*
X0240766Y0446966D01*
X0239722Y0447767D01*
X0239501Y0447859D01*
Y0448941D01*
X0239722Y0449032D01*
X0240766Y0449834D01*
X0241567Y0450878D01*
X0242071Y0452095D01*
X0242243Y0453400D01*
X0242071Y0454705D01*
X0241567Y0455922D01*
X0240766Y0456966D01*
X0239722Y0457767D01*
X0238505Y0458271D01*
X0237200Y0458443D01*
X0235895Y0458271D01*
X0234678Y0457767D01*
X0233634Y0456966D01*
X0232833Y0455922D01*
X0232741Y0455701D01*
X0231659D01*
X0231568Y0455922D01*
X0230766Y0456966D01*
X0229722Y0457767D01*
X0228505Y0458271D01*
X0227200Y0458443D01*
X0225895Y0458271D01*
X0224678Y0457767D01*
X0223634Y0456966D01*
X0222832Y0455922D01*
X0222741Y0455701D01*
X0221659D01*
X0221568Y0455922D01*
X0220766Y0456966D01*
X0219722Y0457767D01*
X0218505Y0458271D01*
X0217200Y0458443D01*
X0215895Y0458271D01*
X0214678Y0457767D01*
X0213634Y0456966D01*
X0212832Y0455922D01*
X0212741Y0455701D01*
X0211659D01*
X0211567Y0455922D01*
X0210766Y0456966D01*
X0209722Y0457767D01*
X0208505Y0458271D01*
X0207200Y0458443D01*
X0205895Y0458271D01*
X0204678Y0457767D01*
X0203634Y0456966D01*
X0202833Y0455922D01*
X0202741Y0455701D01*
X0201659D01*
X0201568Y0455922D01*
X0200766Y0456966D01*
X0199722Y0457767D01*
X0198505Y0458271D01*
X0197200Y0458443D01*
X0195895Y0458271D01*
X0194678Y0457767D01*
X0193634Y0456966D01*
X0192833Y0455922D01*
X0192741Y0455701D01*
X0191659D01*
X0191568Y0455922D01*
X0190766Y0456966D01*
X0189722Y0457767D01*
X0188505Y0458271D01*
X0187200Y0458443D01*
X0185895Y0458271D01*
X0184678Y0457767D01*
X0183634Y0456966D01*
X0182833Y0455922D01*
X0182741Y0455701D01*
X0181659D01*
X0181568Y0455922D01*
X0180766Y0456966D01*
X0179722Y0457767D01*
X0178505Y0458271D01*
X0177200Y0458443D01*
X0175895Y0458271D01*
X0174678Y0457767D01*
X0173634Y0456966D01*
X0172833Y0455922D01*
X0172741Y0455701D01*
X0171659D01*
X0171567Y0455922D01*
X0170766Y0456966D01*
X0169722Y0457767D01*
X0168505Y0458271D01*
X0167200Y0458443D01*
X0165895Y0458271D01*
X0164678Y0457767D01*
X0163634Y0456966D01*
X0162832Y0455922D01*
X0162741Y0455701D01*
X0161659D01*
X0161567Y0455922D01*
X0160766Y0456966D01*
X0159722Y0457767D01*
X0158505Y0458271D01*
X0157200Y0458443D01*
X0155895Y0458271D01*
X0154678Y0457767D01*
X0153634Y0456966D01*
X0152832Y0455922D01*
X0152329Y0454705D01*
X0152157Y0453400D01*
X0152329Y0452095D01*
X0152832Y0450878D01*
X0153634Y0449834D01*
X0154678Y0449032D01*
X0154899Y0448941D01*
Y0447859D01*
X0154678Y0447767D01*
X0153634Y0446966D01*
X0152832Y0445922D01*
X0152741Y0445701D01*
X0151659D01*
X0151567Y0445922D01*
X0150766Y0446966D01*
X0149722Y0447767D01*
X0148505Y0448271D01*
X0147200Y0448443D01*
X0145895Y0448271D01*
X0144678Y0447767D01*
X0143634Y0446966D01*
X0142833Y0445922D01*
X0142329Y0444705D01*
X0142157Y0443400D01*
X0142329Y0442095D01*
X0142833Y0440878D01*
X0143634Y0439834D01*
X0144678Y0439033D01*
X0145895Y0438529D01*
X0147200Y0438357D01*
X0148505Y0438529D01*
X0149722Y0439033D01*
X0150766Y0439834D01*
X0151567Y0440878D01*
X0151659Y0441099D01*
X0152741D01*
X0152832Y0440878D01*
X0153634Y0439834D01*
X0154678Y0439033D01*
X0155895Y0438529D01*
X0157200Y0438357D01*
X0158505Y0438529D01*
X0159722Y0439033D01*
X0160766Y0439834D01*
X0161567Y0440878D01*
X0161659Y0441099D01*
X0162741D01*
X0162832Y0440878D01*
X0163634Y0439834D01*
X0164678Y0439033D01*
X0165895Y0438529D01*
X0166549Y0438443D01*
X0166908Y0437387D01*
X0145060Y0415540D01*
X0144580Y0414913D01*
X0144491Y0414699D01*
X0144277Y0414183D01*
X0144174Y0413400D01*
Y0287381D01*
X0143634Y0286966D01*
X0142833Y0285922D01*
X0142329Y0284705D01*
X0142157Y0283400D01*
X0142329Y0282095D01*
X0142833Y0280878D01*
X0143634Y0279834D01*
X0144200Y0279400D01*
X0143860Y0278400D01*
X0142200D01*
Y0268400D01*
X0152200D01*
Y0270060D01*
X0153200Y0270399D01*
X0153634Y0269834D01*
X0154678Y0269033D01*
X0155895Y0268529D01*
X0157200Y0268357D01*
X0158505Y0268529D01*
X0159722Y0269033D01*
X0160766Y0269834D01*
X0161567Y0270878D01*
X0161659Y0271099D01*
X0162741D01*
X0162832Y0270878D01*
X0163634Y0269834D01*
X0164678Y0269033D01*
X0165895Y0268529D01*
X0167200Y0268357D01*
X0168505Y0268529D01*
X0169722Y0269033D01*
X0170766Y0269834D01*
X0171567Y0270878D01*
X0171659Y0271099D01*
X0172741D01*
X0172833Y0270878D01*
X0173634Y0269834D01*
X0174678Y0269033D01*
X0175895Y0268529D01*
X0177200Y0268357D01*
X0178505Y0268529D01*
X0179722Y0269033D01*
X0180766Y0269834D01*
X0181568Y0270878D01*
X0181659Y0271099D01*
X0182741D01*
X0182833Y0270878D01*
X0183634Y0269834D01*
X0184678Y0269033D01*
X0185895Y0268529D01*
X0187200Y0268357D01*
X0188505Y0268529D01*
X0189722Y0269033D01*
X0190766Y0269834D01*
X0191568Y0270878D01*
X0191659Y0271099D01*
X0192741D01*
X0192833Y0270878D01*
X0193634Y0269834D01*
X0194678Y0269033D01*
X0195895Y0268529D01*
X0197200Y0268357D01*
X0198505Y0268529D01*
X0199722Y0269033D01*
X0200766Y0269834D01*
X0201568Y0270878D01*
X0201659Y0271099D01*
X0202741D01*
X0202833Y0270878D01*
X0203634Y0269834D01*
X0204678Y0269033D01*
X0205895Y0268529D01*
X0207200Y0268357D01*
X0208505Y0268529D01*
X0209722Y0269033D01*
X0210766Y0269834D01*
X0211567Y0270878D01*
X0211659Y0271099D01*
X0212741D01*
X0212832Y0270878D01*
X0213634Y0269834D01*
X0214678Y0269033D01*
X0215895Y0268529D01*
X0217200Y0268357D01*
X0218505Y0268529D01*
X0219722Y0269033D01*
X0220766Y0269834D01*
X0221568Y0270878D01*
X0221659Y0271099D01*
X0222741D01*
X0222832Y0270878D01*
X0223634Y0269834D01*
X0224678Y0269033D01*
X0225895Y0268529D01*
X0227200Y0268357D01*
X0228505Y0268529D01*
X0229722Y0269033D01*
X0230766Y0269834D01*
X0231568Y0270878D01*
X0231659Y0271099D01*
X0232741D01*
X0232833Y0270878D01*
X0233634Y0269834D01*
X0234678Y0269033D01*
X0235895Y0268529D01*
X0237200Y0268357D01*
X0238505Y0268529D01*
X0239722Y0269033D01*
X0240766Y0269834D01*
X0241567Y0270878D01*
X0242071Y0272095D01*
X0242243Y0273400D01*
X0242071Y0274705D01*
X0241567Y0275922D01*
X0240766Y0276966D01*
X0239722Y0277767D01*
X0239501Y0277859D01*
Y0278941D01*
X0239722Y0279032D01*
X0240766Y0279834D01*
X0241567Y0280878D01*
X0242071Y0282095D01*
X0242243Y0283400D01*
X0242071Y0284705D01*
X0241567Y0285922D01*
X0240766Y0286966D01*
X0239722Y0287768D01*
X0238505Y0288271D01*
X0237200Y0288443D01*
X0235895Y0288271D01*
X0234678Y0287768D01*
X0233634Y0286966D01*
X0232833Y0285922D01*
X0232741Y0285701D01*
X0231659D01*
X0231568Y0285922D01*
X0230766Y0286966D01*
X0229722Y0287768D01*
X0228505Y0288271D01*
X0227200Y0288443D01*
X0225895Y0288271D01*
X0224678Y0287768D01*
X0223634Y0286966D01*
X0222832Y0285922D01*
X0222741Y0285701D01*
X0221659D01*
X0221568Y0285922D01*
X0220766Y0286966D01*
X0219722Y0287768D01*
X0218505Y0288271D01*
X0217200Y0288443D01*
X0215895Y0288271D01*
X0214678Y0287768D01*
X0213634Y0286966D01*
X0212832Y0285922D01*
X0212741Y0285701D01*
X0211659D01*
X0211567Y0285922D01*
X0210766Y0286966D01*
X0209722Y0287768D01*
X0208505Y0288271D01*
X0207200Y0288443D01*
X0205895Y0288271D01*
X0204678Y0287768D01*
X0203634Y0286966D01*
X0202833Y0285922D01*
X0202741Y0285701D01*
X0201659D01*
X0201568Y0285922D01*
X0200766Y0286966D01*
X0199722Y0287768D01*
X0198505Y0288271D01*
X0197200Y0288443D01*
X0195895Y0288271D01*
X0194678Y0287768D01*
X0193634Y0286966D01*
X0192833Y0285922D01*
X0192741Y0285701D01*
X0191659D01*
X0191568Y0285922D01*
X0190766Y0286966D01*
X0189722Y0287768D01*
X0188505Y0288271D01*
X0187200Y0288443D01*
X0185895Y0288271D01*
X0184678Y0287768D01*
X0183634Y0286966D01*
X0182833Y0285922D01*
X0182741Y0285701D01*
X0181659D01*
X0181568Y0285922D01*
X0180766Y0286966D01*
X0179722Y0287768D01*
X0178505Y0288271D01*
X0177200Y0288443D01*
X0175895Y0288271D01*
X0174678Y0287768D01*
X0173634Y0286966D01*
X0172833Y0285922D01*
X0172741Y0285701D01*
X0171659D01*
X0171567Y0285922D01*
X0170766Y0286966D01*
X0169722Y0287768D01*
X0168505Y0288271D01*
X0167200Y0288443D01*
X0165895Y0288271D01*
X0164678Y0287768D01*
X0163634Y0286966D01*
X0162832Y0285922D01*
X0162329Y0284705D01*
X0162157Y0283400D01*
X0162329Y0282095D01*
X0162832Y0280878D01*
X0163634Y0279834D01*
X0164678Y0279032D01*
X0164899Y0278941D01*
Y0277859D01*
X0164678Y0277767D01*
X0163634Y0276966D01*
X0162832Y0275922D01*
X0162741Y0275701D01*
X0161659D01*
X0161567Y0275922D01*
X0160766Y0276966D01*
X0159722Y0277767D01*
X0158505Y0278271D01*
X0157200Y0278443D01*
X0155895Y0278271D01*
X0154678Y0277767D01*
X0153634Y0276966D01*
X0153200Y0276400D01*
X0152200Y0276740D01*
Y0278400D01*
X0150540D01*
X0150200Y0279400D01*
X0150766Y0279834D01*
X0151567Y0280878D01*
X0152071Y0282095D01*
X0152243Y0283400D01*
X0152071Y0284705D01*
X0151567Y0285922D01*
X0150766Y0286966D01*
X0150226Y0287381D01*
Y0315439D01*
X0151226Y0315778D01*
X0151381Y0315576D01*
X0152207Y0314943D01*
X0153168Y0314545D01*
X0153700Y0314475D01*
Y0318395D01*
X0154700D01*
Y0314475D01*
X0155232Y0314545D01*
X0155852Y0314802D01*
X0156377Y0314711D01*
X0156703Y0314567D01*
X0157032Y0314325D01*
X0157470Y0313670D01*
X0161470Y0309670D01*
X0162000Y0309315D01*
X0162264Y0309139D01*
X0163200Y0308953D01*
X0192533D01*
X0192616Y0308753D01*
X0193457Y0307657D01*
X0194553Y0306816D01*
X0195830Y0306287D01*
X0197200Y0306107D01*
X0198570Y0306287D01*
X0199847Y0306816D01*
X0200943Y0307657D01*
X0201621Y0308541D01*
X0202051Y0308633D01*
X0202349D01*
X0202779Y0308541D01*
X0203457Y0307657D01*
X0204553Y0306816D01*
X0205830Y0306287D01*
X0207200Y0306107D01*
X0208570Y0306287D01*
X0209847Y0306816D01*
X0210943Y0307657D01*
X0211784Y0308753D01*
X0212313Y0310030D01*
X0212493Y0311400D01*
X0212313Y0312770D01*
X0212230Y0312970D01*
X0215930Y0316670D01*
X0216285Y0317200D01*
X0216461Y0317464D01*
X0216647Y0318400D01*
Y0333386D01*
X0218714Y0335453D01*
X0241200D01*
X0241981Y0335608D01*
X0242136Y0335639D01*
X0242930Y0336170D01*
X0246214Y0339453D01*
X0274700D01*
X0275481Y0339608D01*
X0275636Y0339639D01*
X0276430Y0340170D01*
X0278276Y0342016D01*
X0279200Y0341633D01*
X0279200Y0241174D01*
X0136974D01*
X0136974Y0484919D01*
X0137681Y0485626D01*
X0279200D01*
Y0462426D01*
D02*
G37*
%LPC*%
G36*
X0168121Y0377895D02*
X0164700D01*
Y0374475D01*
X0165232Y0374545D01*
X0166193Y0374943D01*
X0167019Y0375576D01*
X0167653Y0376402D01*
X0168051Y0377364D01*
X0168121Y0377895D01*
D02*
G37*
G36*
X0163700D02*
X0160279D01*
X0160349Y0377364D01*
X0160747Y0376402D01*
X0161381Y0375576D01*
X0162207Y0374943D01*
X0163168Y0374545D01*
X0163700Y0374475D01*
Y0377895D01*
D02*
G37*
G36*
X0158121D02*
X0154700D01*
Y0374475D01*
X0155232Y0374545D01*
X0156193Y0374943D01*
X0157019Y0375576D01*
X0157653Y0376402D01*
X0158051Y0377364D01*
X0158121Y0377895D01*
D02*
G37*
G36*
X0254700Y0252447D02*
X0252625D01*
Y0250372D01*
X0254700D01*
Y0252447D01*
D02*
G37*
G36*
X0270775Y0252447D02*
X0268700D01*
Y0250372D01*
X0270775D01*
Y0252447D01*
D02*
G37*
G36*
X0267700D02*
X0265625D01*
Y0250372D01*
X0267700D01*
Y0252447D01*
D02*
G37*
G36*
X0255200Y0299193D02*
X0253830Y0299013D01*
X0252553Y0298484D01*
X0251457Y0297643D01*
X0250616Y0296547D01*
X0250087Y0295270D01*
X0249907Y0293900D01*
X0250087Y0292530D01*
X0250616Y0291253D01*
X0251457Y0290157D01*
X0251469Y0290148D01*
X0251129Y0289148D01*
X0249952D01*
Y0278652D01*
X0252753D01*
Y0273836D01*
X0252018D01*
Y0266687D01*
Y0262427D01*
X0251625D01*
Y0255278D01*
X0252625D01*
Y0253447D01*
X0257774D01*
Y0255278D01*
X0258774D01*
Y0262427D01*
X0258380D01*
Y0266687D01*
Y0273836D01*
X0257647D01*
Y0278652D01*
X0260448D01*
Y0289148D01*
X0259271D01*
X0258931Y0290148D01*
X0258943Y0290157D01*
X0259784Y0291253D01*
X0260313Y0292530D01*
X0260493Y0293900D01*
X0260313Y0295270D01*
X0259784Y0296547D01*
X0258943Y0297643D01*
X0257847Y0298484D01*
X0256570Y0299013D01*
X0255200Y0299193D01*
D02*
G37*
G36*
X0268200D02*
X0266830Y0299013D01*
X0265553Y0298484D01*
X0264457Y0297643D01*
X0263616Y0296547D01*
X0263087Y0295270D01*
X0262907Y0293900D01*
X0263087Y0292530D01*
X0263616Y0291253D01*
X0264457Y0290157D01*
X0264469Y0290148D01*
X0264129Y0289148D01*
X0262952D01*
Y0278652D01*
X0265753D01*
Y0273837D01*
X0265019D01*
Y0266687D01*
Y0262427D01*
X0264625D01*
Y0255278D01*
X0265625D01*
Y0253447D01*
X0270775D01*
Y0255278D01*
X0271775D01*
Y0262427D01*
X0271381D01*
Y0266687D01*
Y0273837D01*
X0270647D01*
Y0278652D01*
X0273448D01*
Y0289148D01*
X0272271D01*
X0271931Y0290148D01*
X0271943Y0290157D01*
X0272784Y0291253D01*
X0273313Y0292530D01*
X0273493Y0293900D01*
X0273313Y0295270D01*
X0272784Y0296547D01*
X0271943Y0297643D01*
X0270847Y0298484D01*
X0269570Y0299013D01*
X0268200Y0299193D01*
D02*
G37*
G36*
X0257774Y0252447D02*
X0255700D01*
Y0250372D01*
X0257774D01*
Y0252447D01*
D02*
G37*
G36*
X0163700Y0412317D02*
X0163168Y0412247D01*
X0162207Y0411848D01*
X0161381Y0411215D01*
X0160747Y0410389D01*
X0160349Y0409427D01*
X0160279Y0408895D01*
X0163700D01*
Y0412317D01*
D02*
G37*
G36*
X0158153Y0412348D02*
X0154700D01*
Y0408895D01*
X0158153D01*
Y0412348D01*
D02*
G37*
G36*
X0164700Y0412317D02*
Y0408895D01*
X0168121D01*
X0168051Y0409427D01*
X0167653Y0410389D01*
X0167019Y0411215D01*
X0166193Y0411848D01*
X0165232Y0412247D01*
X0164700Y0412317D01*
D02*
G37*
G36*
X0202200Y0477929D02*
X0201024Y0477813D01*
X0199893Y0477470D01*
X0198851Y0476913D01*
X0197937Y0476163D01*
X0197187Y0475249D01*
X0196630Y0474207D01*
X0196287Y0473076D01*
X0196171Y0471900D01*
X0196287Y0470724D01*
X0196630Y0469593D01*
X0197187Y0468550D01*
X0197937Y0467637D01*
X0198851Y0466887D01*
X0199893Y0466330D01*
X0201024Y0465987D01*
X0202200Y0465871D01*
X0203376Y0465987D01*
X0204507Y0466330D01*
X0205550Y0466887D01*
X0206463Y0467637D01*
X0207213Y0468550D01*
X0207770Y0469593D01*
X0208113Y0470724D01*
X0208229Y0471900D01*
X0208113Y0473076D01*
X0207770Y0474207D01*
X0207213Y0475249D01*
X0206463Y0476163D01*
X0205550Y0476913D01*
X0204507Y0477470D01*
X0203376Y0477813D01*
X0202200Y0477929D01*
D02*
G37*
G36*
X0255857Y0471094D02*
X0254513Y0470917D01*
X0253260Y0470398D01*
X0252185Y0469573D01*
X0251359Y0468497D01*
X0250840Y0467244D01*
X0250663Y0465900D01*
X0250840Y0464556D01*
X0251359Y0463303D01*
X0252185Y0462227D01*
X0253260Y0461402D01*
X0254513Y0460883D01*
X0255857Y0460706D01*
X0257202Y0460883D01*
X0258454Y0461402D01*
X0259530Y0462227D01*
X0260356Y0463303D01*
X0260875Y0464556D01*
X0261052Y0465900D01*
X0260875Y0467244D01*
X0260356Y0468497D01*
X0259530Y0469573D01*
X0258454Y0470398D01*
X0257202Y0470917D01*
X0255857Y0471094D01*
D02*
G37*
G36*
X0154700Y0382316D02*
Y0378895D01*
X0158121D01*
X0158051Y0379427D01*
X0157653Y0380389D01*
X0157019Y0381215D01*
X0156193Y0381848D01*
X0155232Y0382246D01*
X0154700Y0382316D01*
D02*
G37*
G36*
X0210200Y0379337D02*
X0208519D01*
Y0377262D01*
X0210200D01*
Y0379337D01*
D02*
G37*
G36*
X0163700Y0382316D02*
X0163168Y0382246D01*
X0162207Y0381848D01*
X0161381Y0381215D01*
X0160747Y0380389D01*
X0160349Y0379427D01*
X0160279Y0378895D01*
X0163700D01*
Y0382316D01*
D02*
G37*
G36*
X0158153Y0407896D02*
X0154700D01*
Y0404443D01*
X0158153D01*
Y0407896D01*
D02*
G37*
G36*
X0164700Y0382316D02*
Y0378895D01*
X0168121D01*
X0168051Y0379427D01*
X0167653Y0380389D01*
X0167019Y0381215D01*
X0166193Y0381848D01*
X0165232Y0382246D01*
X0164700Y0382316D01*
D02*
G37*
%LPD*%
G54D10*
X0369295Y0485250D02*
G03*
X0381050Y0473495I0004905J-0006850D01*
G01*
X0373939Y0446969D02*
G03*
X0381050Y0450058I-0000740J0011431D01*
G01*
Y0466743D02*
G03*
X0361769Y0459139I-0007850J-0008343D01*
G01*
X0376600Y0442900D02*
G03*
X0375604Y0445304I-0003400J0000000D01*
G01*
X0376600Y0442900D02*
G03*
X0375600Y0445308I-0003400J0000000D01*
G01*
X0359104Y0461804D02*
G03*
X0356700Y0462800I-0002404J-0002404D01*
G01*
X0359108Y0461800D02*
G03*
X0356700Y0462800I-0002408J-0002400D01*
G01*
X0358200Y0431027D02*
G03*
X0347780Y0429989I-0005000J-0002627D01*
G01*
X0338740Y0436500D02*
G03*
X0348048Y0438400I0004460J0001900D01*
G01*
X0375604Y0425996D02*
G03*
X0376600Y0428400I-0002404J0002404D01*
G01*
X0375600Y0425992D02*
G03*
X0376600Y0428400I-0002400J0002408D01*
G01*
X0368848Y0418400D02*
G03*
X0368793Y0419185I-0005648J0000000D01*
G01*
X0365827Y0413400D02*
G03*
X0368848Y0418400I-0002627J0005000D01*
G01*
Y0408400D02*
G03*
X0365827Y0413400I-0005648J0000000D01*
G01*
X0368848Y0398400D02*
G03*
X0365827Y0403400I-0005648J0000000D01*
G01*
D02*
G03*
X0368848Y0408400I-0002627J0005000D01*
G01*
Y0388400D02*
G03*
X0365827Y0393400I-0005648J0000000D01*
G01*
D02*
G03*
X0368848Y0398400I-0002627J0005000D01*
G01*
X0363985Y0433993D02*
G03*
X0358200Y0431027I-0000785J-0005593D01*
G01*
Y0425773D02*
G03*
X0360573Y0423400I0005000J0002627D01*
G01*
D02*
G03*
X0360573Y0413400I0002627J-0005000D01*
G01*
D02*
G03*
X0360573Y0403400I0002627J-0005000D01*
G01*
X0347780Y0426811D02*
G03*
X0358200Y0425773I0005420J0001589D01*
G01*
X0360573Y0403400D02*
G03*
X0360573Y0393400I0002627J-0005000D01*
G01*
D02*
G03*
X0368848Y0388400I0002627J-0005000D01*
G01*
X0348048Y0398400D02*
G03*
X0338740Y0400300I-0004848J0000000D01*
G01*
Y0376500D02*
G03*
X0348048Y0378400I0004460J0001900D01*
G01*
Y0438400D02*
G03*
X0338740Y0440300I-0004848J0000000D01*
G01*
X0347780Y0429989D02*
G03*
X0338740Y0430300I-0004580J-0001589D01*
G01*
Y0426500D02*
G03*
X0347780Y0426811I0004460J0001900D01*
G01*
X0348048Y0418400D02*
G03*
X0338740Y0420300I-0004848J0000000D01*
G01*
Y0416500D02*
G03*
X0348048Y0418400I0004460J0001900D01*
G01*
Y0408400D02*
G03*
X0338740Y0410300I-0004848J0000000D01*
G01*
X0329200Y0440300D02*
G03*
X0327856Y0439744I0000000J-0001900D01*
G01*
X0329200Y0440300D02*
G03*
X0327854Y0439741I0000000J-0001900D01*
G01*
X0325700Y0430300D02*
G03*
X0324357Y0429743I0000000J-0001900D01*
G01*
X0325700Y0430300D02*
G03*
X0324354Y0429741I0000000J-0001900D01*
G01*
X0322200Y0420300D02*
G03*
X0320854Y0419741I0000000J-0001900D01*
G01*
X0322200Y0420300D02*
G03*
X0320856Y0419743I0000000J-0001900D01*
G01*
X0338740Y0406500D02*
G03*
X0348048Y0408400I0004460J0001900D01*
G01*
X0338740Y0396500D02*
G03*
X0348048Y0398400I0004460J0001900D01*
G01*
Y0388400D02*
G03*
X0338740Y0390300I-0004848J0000000D01*
G01*
Y0386500D02*
G03*
X0348048Y0388400I0004460J0001900D01*
G01*
Y0378400D02*
G03*
X0338740Y0380300I-0004848J0000000D01*
G01*
X0319279Y0410300D02*
G03*
X0317935Y0409743I0000000J-0001900D01*
G01*
X0324700Y0400300D02*
G03*
X0323357Y0399744I0000000J-0001900D01*
G01*
X0324700Y0400300D02*
G03*
X0323354Y0399741I0000000J-0001900D01*
G01*
X0326700Y0390300D02*
G03*
X0325357Y0389743I0000000J-0001900D01*
G01*
X0326700Y0390300D02*
G03*
X0325354Y0389741I0000000J-0001900D01*
G01*
X0324200Y0380300D02*
G03*
X0322856Y0379744I0000000J-0001900D01*
G01*
X0324200Y0380300D02*
G03*
X0322854Y0379741I0000000J-0001900D01*
G01*
X0365827Y0323400D02*
G03*
X0368848Y0328400I-0002627J0005000D01*
G01*
D02*
G03*
X0360573Y0323400I-0005648J0000000D01*
G01*
X0368848Y0318400D02*
G03*
X0365827Y0323400I-0005648J0000000D01*
G01*
Y0313400D02*
G03*
X0368848Y0318400I-0002627J0005000D01*
G01*
X0360573Y0323400D02*
G03*
X0360573Y0313400I0002627J-0005000D01*
G01*
X0348048Y0358400D02*
G03*
X0338740Y0360300I-0004848J0000000D01*
G01*
Y0366500D02*
G03*
X0348048Y0368400I0004460J0001900D01*
G01*
X0338740Y0356500D02*
G03*
X0348048Y0358400I0004460J0001900D01*
G01*
Y0368400D02*
G03*
X0338740Y0370300I-0004848J0000000D01*
G01*
X0338784Y0346400D02*
G03*
X0348048Y0348400I0004416J0002000D01*
G01*
Y0338400D02*
G03*
X0338784Y0340400I-0004848J0000000D01*
G01*
X0348048Y0348400D02*
G03*
X0338784Y0350400I-0004848J0000000D01*
G01*
X0348048Y0328400D02*
G03*
X0338802Y0330440I-0004848J0000000D01*
G01*
X0338784Y0336400D02*
G03*
X0348048Y0338400I0004416J0002000D01*
G01*
Y0318400D02*
G03*
X0338740Y0320300I-0004848J0000000D01*
G01*
Y0316500D02*
G03*
X0348048Y0318400I0004460J0001900D01*
G01*
X0338683Y0326640D02*
G03*
X0348048Y0328400I0004517J0001760D01*
G01*
X0365827Y0303400D02*
G03*
X0368848Y0308400I-0002627J0005000D01*
G01*
D02*
G03*
X0365827Y0313400I-0005648J0000000D01*
G01*
X0360573D02*
G03*
X0360573Y0303400I0002627J-0005000D01*
G01*
X0368848Y0298400D02*
G03*
X0365827Y0303400I-0005648J0000000D01*
G01*
X0360573D02*
G03*
X0368848Y0298400I0002627J-0005000D01*
G01*
X0381050Y0276743D02*
G03*
X0381050Y0260057I-0007850J-0008343D01*
G01*
Y0253431D02*
G03*
X0369169Y0241550I-0006850J-0005031D01*
G01*
X0338740Y0306500D02*
G03*
X0348048Y0308400I0004460J0001900D01*
G01*
Y0298400D02*
G03*
X0338740Y0300300I-0004848J0000000D01*
G01*
X0348048Y0308400D02*
G03*
X0338740Y0310300I-0004848J0000000D01*
G01*
X0348048Y0288400D02*
G03*
X0338740Y0290300I-0004848J0000000D01*
G01*
Y0286500D02*
G03*
X0348048Y0288400I0004460J0001900D01*
G01*
X0338740Y0296500D02*
G03*
X0348048Y0298400I0004460J0001900D01*
G01*
X0322700Y0360300D02*
G03*
X0321357Y0359743I0000000J-0001900D01*
G01*
X0322700Y0360300D02*
G03*
X0321354Y0359741I0000000J-0001900D01*
G01*
X0321700Y0370300D02*
G03*
X0320356Y0369743I0000000J-0001900D01*
G01*
X0321700Y0370300D02*
G03*
X0320354Y0369741I0000000J-0001900D01*
G01*
X0319700Y0364500D02*
G03*
X0321046Y0365059I0000000J0001900D01*
G01*
X0319700Y0364500D02*
G03*
X0321043Y0365056I0000000J0001900D01*
G01*
X0318700Y0352500D02*
G03*
X0320043Y0353057I0000000J0001900D01*
G01*
X0318700Y0352500D02*
G03*
X0320046Y0353059I0000000J0001900D01*
G01*
X0321286Y0336986D02*
G03*
X0322700Y0336400I0001414J0001414D01*
G01*
X0321283Y0336989D02*
G03*
X0322700Y0336400I0001417J0001411D01*
G01*
X0319279Y0410300D02*
G03*
X0317933Y0409741I0000000J-0001900D01*
G01*
X0314700Y0374500D02*
G03*
X0316046Y0375059I0000000J0001900D01*
G01*
X0314700Y0374500D02*
G03*
X0316043Y0375057I0000000J0001900D01*
G01*
X0317200Y0369500D02*
G03*
X0318546Y0370059I0000000J0001900D01*
G01*
X0317200Y0369500D02*
G03*
X0318544Y0370057I0000000J0001900D01*
G01*
X0309859Y0386246D02*
G03*
X0309302Y0384981I0001341J-0001346D01*
G01*
X0293859Y0392746D02*
G03*
X0293300Y0391400I0001341J-0001346D01*
G01*
X0293857Y0392743D02*
G03*
X0293300Y0391400I0001343J-0001343D01*
G01*
X0288859Y0394246D02*
G03*
X0288300Y0392900I0001341J-0001346D01*
G01*
X0283857Y0395743D02*
G03*
X0283300Y0394400I0001343J-0001343D01*
G01*
X0288857Y0394244D02*
G03*
X0288300Y0392900I0001343J-0001343D01*
G01*
X0283859Y0395746D02*
G03*
X0283300Y0394400I0001341J-0001346D01*
G01*
X0298859Y0390668D02*
G03*
X0298403Y0389937I0001341J-0001346D01*
G01*
X0298856Y0390665D02*
G03*
X0298403Y0389937I0001343J-0001343D01*
G01*
X0309857Y0386244D02*
G03*
X0309302Y0384981I0001343J-0001343D01*
G01*
X0290108Y0367313D02*
G03*
X0290108Y0365345I0002699J-0000984D01*
G01*
X0288003Y0367449D02*
G03*
X0289972Y0367449I0000984J0002699D01*
G01*
X0290108Y0365345D02*
G03*
X0290108Y0363376I0002699J-0000984D01*
G01*
Y0361408D02*
G03*
X0290108Y0359439I0002699J-0000984D01*
G01*
D02*
G03*
X0290108Y0357471I0002699J-0000984D01*
G01*
Y0363376D02*
G03*
X0290108Y0361408I0002699J-0000984D01*
G01*
X0284066Y0367449D02*
G03*
X0286035Y0367449I0000984J0002699D01*
G01*
D02*
G03*
X0288003Y0367449I0000984J0002699D01*
G01*
X0279200Y0368006D02*
G03*
X0282098Y0367449I0001913J0002142D01*
G01*
D02*
G03*
X0284066Y0367449I0000984J0002699D01*
G01*
X0319114Y0350814D02*
G03*
X0317700Y0351400I-0001414J-0001414D01*
G01*
X0319117Y0350811D02*
G03*
X0317700Y0351400I-0001417J-0001411D01*
G01*
X0317283Y0346989D02*
G03*
X0318700Y0346400I0001417J0001411D01*
G01*
X0317286Y0346986D02*
G03*
X0318700Y0346400I0001414J0001414D01*
G01*
X0318117Y0345811D02*
G03*
X0316700Y0346400I-0001417J-0001411D01*
G01*
X0318114Y0345814D02*
G03*
X0316700Y0346400I-0001414J-0001414D01*
G01*
X0316714Y0327199D02*
G03*
X0318060Y0326640I0001346J0001341D01*
G01*
X0316717Y0327196D02*
G03*
X0318060Y0326640I0001343J0001343D01*
G01*
X0309162Y0335538D02*
G03*
X0309719Y0334194I0001900J0000000D01*
G01*
X0309162Y0335538D02*
G03*
X0309721Y0334191I0001900J0000000D01*
G01*
X0309857Y0317056D02*
G03*
X0311200Y0316500I0001343J0001343D01*
G01*
X0309854Y0317059D02*
G03*
X0311200Y0316500I0001346J0001341D01*
G01*
X0311857Y0307056D02*
G03*
X0313200Y0306500I0001343J0001343D01*
G01*
X0311854Y0307059D02*
G03*
X0313200Y0306500I0001346J0001341D01*
G01*
X0317854Y0287059D02*
G03*
X0319200Y0286500I0001346J0001341D01*
G01*
X0314354Y0297059D02*
G03*
X0315700Y0296500I0001346J0001341D01*
G01*
X0317857Y0287056D02*
G03*
X0319200Y0286500I0001343J0001343D01*
G01*
X0314356Y0297057D02*
G03*
X0315700Y0296500I0001343J0001343D01*
G01*
X0301781Y0337330D02*
G03*
X0302363Y0336958I0001734J0002070D01*
G01*
X0301781Y0337330D02*
G03*
X0302363Y0336958I0001734J0002070D01*
G01*
X0290108Y0357471D02*
G03*
X0290108Y0355502I0002699J-0000984D01*
G01*
X0296377Y0330863D02*
G03*
X0296856Y0330057I0001822J0000537D01*
G01*
X0296377Y0330863D02*
G03*
X0296859Y0330054I0001822J0000537D01*
G01*
X0289972Y0355366D02*
G03*
X0288003Y0355366I-0000984J-0002699D01*
G01*
X0286035D02*
G03*
X0284066Y0355366I-0000984J-0002699D01*
G01*
X0288003D02*
G03*
X0286035Y0355366I-0000984J-0002699D01*
G01*
X0284066D02*
G03*
X0282098Y0355366I-0000984J-0002699D01*
G01*
D02*
G03*
X0280129Y0355366I-0000984J-0002699D01*
G01*
X0280129D02*
G03*
X0279200Y0355540I-0000984J-0002699D01*
G01*
X0291300Y0328400D02*
G03*
X0291857Y0327057I0001900J0000000D01*
G01*
X0291300Y0328400D02*
G03*
X0291859Y0327054I0001900J0000000D01*
G01*
X0286300Y0325900D02*
G03*
X0286857Y0324556I0001900J0000000D01*
G01*
X0286300Y0325900D02*
G03*
X0286859Y0324554I0001900J0000000D01*
G01*
X0281300Y0324400D02*
G03*
X0281856Y0323057I0001900J0000000D01*
G01*
X0281300Y0324400D02*
G03*
X0281859Y0323054I0001900J0000000D01*
G01*
X0379184Y0471607D02*
X0381050Y0469741D01*
Y0466743D02*
Y0473495D01*
X0380673Y0467082D02*
X0381050Y0467458D01*
X0376357Y0469412D02*
X0377666Y0470721D01*
X0369559Y0469261D02*
X0370933Y0470635D01*
X0365541Y0485250D02*
X0367407Y0483384D01*
X0360603Y0460305D02*
X0362339Y0462041D01*
X0373939Y0446969D02*
X0375600Y0445308D01*
X0359108Y0461800D02*
X0361769Y0459139D01*
X0376708Y0447495D02*
X0381050Y0443153D01*
X0376600Y0440957D02*
X0381050Y0436507D01*
X0376596Y0443064D02*
X0381050Y0447518D01*
X0376600Y0434310D02*
X0381050Y0429860D01*
X0376600Y0429774D02*
X0381050Y0434224D01*
X0376600Y0436421D02*
X0381050Y0440871D01*
X0376600Y0428400D02*
Y0442900D01*
X0365800Y0435808D02*
Y0440992D01*
X0363985Y0433993D02*
X0365800Y0435808D01*
X0359780Y0432895D02*
X0365800Y0438915D01*
X0358894Y0485250D02*
X0365775Y0478369D01*
X0352247Y0485250D02*
X0368604Y0468893D01*
X0345600Y0485250D02*
X0364734Y0466117D01*
X0349804Y0462800D02*
X0365784Y0478779D01*
X0356451Y0462800D02*
X0367266Y0473615D01*
X0343158Y0462800D02*
X0365608Y0485250D01*
X0336511Y0462800D02*
X0358961Y0485250D01*
X0338953D02*
X0362295Y0461908D01*
X0332307Y0485250D02*
X0354757Y0462800D01*
X0329864D02*
X0352314Y0485250D01*
X0325660D02*
X0348110Y0462800D01*
X0355292Y0451500D02*
X0365800Y0440992D01*
X0352763Y0451500D02*
X0365800Y0438463D01*
X0346116Y0451500D02*
X0363581Y0434035D01*
X0354198Y0433959D02*
X0363515Y0443277D01*
X0345970Y0432379D02*
X0360192Y0446600D01*
X0343534Y0443236D02*
X0351798Y0451500D01*
X0347528Y0440584D02*
X0356868Y0449923D01*
X0339470Y0451500D02*
X0358904Y0432066D01*
X0347708Y0436615D02*
X0350807Y0433516D01*
X0376533Y0427730D02*
X0381050Y0423213D01*
X0366474Y0413002D02*
X0381050Y0427578D01*
X0373612Y0424004D02*
X0381050Y0416566D01*
X0370289Y0420681D02*
X0381050Y0409920D01*
X0368839Y0408720D02*
X0381050Y0420931D01*
X0368793Y0419185D02*
X0375600Y0425992D01*
X0359442Y0412616D02*
X0360350Y0413524D01*
X0368316Y0416007D02*
X0381050Y0403273D01*
X0368830Y0408846D02*
X0381050Y0396626D01*
X0368054Y0401288D02*
X0381050Y0414284D01*
X0366898Y0404131D02*
X0381050Y0389979D01*
X0368335Y0396047D02*
X0381050Y0383332D01*
X0366440Y0393027D02*
X0381050Y0407637D01*
X0368835Y0388776D02*
X0381050Y0400990D01*
X0368825Y0388911D02*
X0381050Y0376686D01*
X0358098Y0431213D02*
X0358705Y0431820D01*
X0346331Y0424698D02*
X0358931Y0412098D01*
X0347508Y0420623D02*
X0350387Y0423502D01*
X0345935Y0412403D02*
X0358623Y0425091D01*
X0354717Y0422959D02*
X0357759Y0419917D01*
X0348015Y0407836D02*
X0357632Y0417453D01*
X0347724Y0416658D02*
X0357880Y0406502D01*
X0347488Y0400662D02*
X0358984Y0412158D01*
X0346363Y0404726D02*
X0358959Y0392130D01*
X0345899Y0392427D02*
X0358598Y0405126D01*
X0347467Y0380701D02*
X0360312Y0393546D01*
X0347798Y0409938D02*
X0357772Y0399963D01*
X0348023Y0387903D02*
X0357624Y0397504D01*
X0347741Y0396701D02*
X0357849Y0386593D01*
X0345864Y0372451D02*
X0358573Y0385160D01*
X0333951Y0440300D02*
X0345151Y0451500D01*
X0332823D02*
X0341415Y0442907D01*
X0344049Y0433627D02*
X0344650Y0433026D01*
X0329987Y0436500D02*
X0338740D01*
X0334529D02*
X0339498Y0431531D01*
X0329200Y0440300D02*
X0338740D01*
X0330598Y0430300D02*
X0336798Y0436500D01*
X0337245Y0430300D02*
X0341016Y0434072D01*
X0328935Y0435448D02*
X0334082Y0430300D01*
X0343478Y0423240D02*
X0343832Y0423593D01*
X0337882Y0426500D02*
X0341458Y0422924D01*
X0344099Y0413636D02*
X0344738Y0412998D01*
X0333892Y0420300D02*
X0339221Y0425630D01*
X0334589Y0416500D02*
X0339526Y0411563D01*
X0331236Y0426500D02*
X0337436Y0420300D01*
X0330538Y0410300D02*
X0336738Y0416500D01*
X0337185Y0410300D02*
X0340977Y0414092D01*
X0327942Y0416500D02*
X0334142Y0410300D01*
X0323217Y0462800D02*
X0345667Y0485250D01*
X0319529Y0451500D02*
X0330729Y0440300D01*
X0319013Y0485250D02*
X0341463Y0462800D01*
X0326176Y0451500D02*
X0337376Y0440300D01*
X0326487Y0426500D02*
X0338740D01*
X0325700Y0430300D02*
X0338740D01*
X0325611Y0432124D02*
X0327435Y0430300D01*
X0322288Y0428801D02*
X0322851Y0428238D01*
X0325538Y0425551D02*
X0330789Y0420300D01*
X0327245D02*
X0333445Y0426500D01*
X0322200Y0420300D02*
X0338740D01*
X0322987Y0416500D02*
X0338740D01*
X0323892Y0410300D02*
X0330092Y0416500D01*
X0322141Y0415654D02*
X0327495Y0410300D01*
X0322215Y0422227D02*
X0324142Y0420300D01*
X0318965Y0425478D02*
X0319528Y0424915D01*
X0318891Y0418904D02*
X0319454Y0418341D01*
X0318818Y0412331D02*
X0320848Y0410300D01*
X0343422Y0403243D02*
X0343764Y0403585D01*
X0337942Y0406500D02*
X0341501Y0402941D01*
X0344149Y0393646D02*
X0344829Y0392966D01*
X0333832Y0400300D02*
X0339197Y0405665D01*
X0334648Y0396500D02*
X0339553Y0391595D01*
X0331295Y0406500D02*
X0337495Y0400300D01*
X0330479Y0390300D02*
X0336679Y0396500D01*
X0337126Y0390300D02*
X0340938Y0394112D01*
X0328001Y0396500D02*
X0334202Y0390300D01*
X0343365Y0383245D02*
X0343697Y0383577D01*
X0338001Y0386500D02*
X0341545Y0382957D01*
X0344199Y0373656D02*
X0344923Y0372931D01*
X0337066Y0370300D02*
X0340899Y0374133D01*
X0331355Y0386500D02*
X0337555Y0380300D01*
X0333772D02*
X0339173Y0385701D01*
X0327487Y0386500D02*
X0338740D01*
X0334708Y0376500D02*
X0339581Y0371626D01*
X0330419Y0370300D02*
X0336619Y0376500D01*
X0328061D02*
X0334261Y0370300D01*
X0320066Y0406500D02*
X0338740D01*
X0327185Y0400300D02*
X0333385Y0406500D01*
X0319279Y0410300D02*
X0338740D01*
X0325487Y0396500D02*
X0338740D01*
X0326700Y0390300D02*
X0338740D01*
X0324700Y0400300D02*
X0338740D01*
X0324648Y0406500D02*
X0330848Y0400300D01*
X0319034Y0405468D02*
X0324254Y0400247D01*
X0323421Y0394434D02*
X0327555Y0390300D01*
X0326097Y0385110D02*
X0330908Y0380300D01*
X0327126D02*
X0333326Y0386500D01*
X0324200Y0380300D02*
X0338740D01*
X0324987Y0376500D02*
X0338740D01*
X0321700Y0370300D02*
X0338740D01*
X0322774Y0381787D02*
X0324261Y0380300D01*
X0320097Y0391110D02*
X0323411Y0387797D01*
X0319451Y0378464D02*
X0320514Y0377401D01*
X0366930Y0384159D02*
X0381050Y0370039D01*
X0361393Y0383049D02*
X0381050Y0363392D01*
X0347766Y0390029D02*
X0381050Y0356745D01*
X0348034Y0348034D02*
X0381050Y0381050D01*
X0347757Y0376745D02*
X0381050Y0343451D01*
X0347731Y0370123D02*
X0381050Y0336805D01*
X0348029Y0367969D02*
X0362824Y0382765D01*
X0348039Y0328098D02*
X0381050Y0361110D01*
X0347772Y0356789D02*
X0381050Y0323511D01*
X0366333Y0333099D02*
X0381050Y0347816D01*
X0368822Y0328941D02*
X0381050Y0341169D01*
X0347788Y0336833D02*
X0357768Y0326853D01*
X0367963Y0321435D02*
X0381050Y0334522D01*
Y0276743D02*
Y0450058D01*
X0367963Y0321435D02*
X0381050Y0334522D01*
X0368803Y0329111D02*
X0381050Y0316864D01*
X0368817Y0308995D02*
X0381050Y0321229D01*
X0366297Y0313123D02*
X0381050Y0327876D01*
X0367024Y0324243D02*
X0381050Y0310217D01*
X0347446Y0360740D02*
X0381050Y0394344D01*
X0346395Y0384753D02*
X0381050Y0350098D01*
X0345828Y0352474D02*
X0381050Y0387697D01*
X0347425Y0340778D02*
X0381050Y0374403D01*
X0347693Y0350221D02*
X0363911Y0334003D01*
X0346426Y0364781D02*
X0381050Y0330158D01*
X0347403Y0320816D02*
X0381050Y0354463D01*
X0345791Y0332498D02*
X0381050Y0367756D01*
X0346458Y0344810D02*
X0359044Y0332224D01*
X0346489Y0324838D02*
X0359072Y0312255D01*
X0345755Y0312520D02*
X0358501Y0325267D01*
X0347650Y0330324D02*
X0357828Y0320146D01*
X0368408Y0316213D02*
X0381050Y0303571D01*
X0368794Y0309180D02*
X0381050Y0296924D01*
X0367940Y0301472D02*
X0381050Y0314582D01*
X0367055Y0304272D02*
X0381050Y0290277D01*
X0368425Y0296255D02*
X0381050Y0283630D01*
X0348042Y0308161D02*
X0357594Y0317713D01*
X0348045Y0288224D02*
X0357588Y0297766D01*
X0372907Y0279851D02*
X0381050Y0287995D01*
Y0253431D02*
Y0260057D01*
X0379355Y0258739D02*
X0381050Y0257043D01*
X0380449Y0254160D02*
X0381050Y0254761D01*
X0378340Y0278637D02*
X0381050Y0281348D01*
X0376282Y0256640D02*
X0377375Y0257733D01*
X0364990Y0293043D02*
X0381050Y0276983D01*
X0361192Y0241550D02*
X0365960Y0246318D01*
X0367839Y0241550D02*
X0368440Y0242151D01*
X0354546Y0241550D02*
X0370311Y0257315D01*
X0347803Y0316878D02*
X0357745Y0306935D01*
X0347381Y0300854D02*
X0360165Y0313637D01*
X0347381Y0300854D02*
X0360165Y0313637D01*
X0347602Y0310432D02*
X0357843Y0300190D01*
X0346520Y0304867D02*
X0371638Y0279748D01*
X0345718Y0292543D02*
X0358477Y0305303D01*
X0347817Y0296922D02*
X0366824Y0277916D01*
X0327958Y0241550D02*
X0381050Y0294642D01*
X0321312Y0241550D02*
X0381050Y0301288D01*
X0340236Y0284564D02*
X0369391Y0255408D01*
X0331653Y0286500D02*
X0366393Y0251760D01*
X0331653Y0286500D02*
X0366393Y0251760D01*
X0347547Y0290546D02*
X0363539Y0274554D01*
X0346550Y0284896D02*
X0361812Y0269635D01*
X0325006Y0286500D02*
X0366341Y0245165D01*
X0341252Y0241550D02*
X0362963Y0263261D01*
X0347899Y0241550D02*
X0365912Y0259563D01*
X0334605Y0241550D02*
X0361749Y0268693D01*
X0338061Y0366500D02*
X0341589Y0362972D01*
X0333713Y0360300D02*
X0339149Y0365736D01*
X0322487Y0366500D02*
X0338740D01*
X0343306Y0363247D02*
X0343631Y0363571D01*
X0344248Y0353667D02*
X0345022Y0352893D01*
X0323487Y0356500D02*
X0338740D01*
X0323772Y0370300D02*
X0329972Y0376500D01*
X0331414Y0366500D02*
X0337614Y0360300D01*
X0323201Y0374714D02*
X0327614Y0370300D01*
X0324767Y0366500D02*
X0330967Y0360300D01*
X0327066D02*
X0333266Y0366500D01*
X0322700Y0360300D02*
X0338740D01*
X0337106Y0350400D02*
X0340860Y0354154D01*
X0338221Y0346400D02*
X0341633Y0342988D01*
X0334768Y0356500D02*
X0339610Y0351658D01*
X0343248Y0343248D02*
X0343566Y0343566D01*
X0333753Y0340400D02*
X0339126Y0345773D01*
X0323528Y0340400D02*
X0338784D01*
X0328121Y0356500D02*
X0334221Y0350400D01*
X0330460D02*
X0336560Y0356500D01*
X0323813Y0350400D02*
X0329913Y0356500D01*
X0327106Y0340400D02*
X0333106Y0346400D01*
X0331574D02*
X0337574Y0340400D01*
X0324927Y0346400D02*
X0330927Y0340400D01*
X0321046Y0365059D02*
X0322487Y0366500D01*
X0320082Y0364539D02*
X0324321Y0360300D01*
X0318546Y0370059D02*
X0324987Y0376500D01*
X0320046Y0353059D02*
X0323487Y0356500D01*
X0319877Y0371390D02*
X0321074Y0370194D01*
X0318913Y0368300D02*
X0320354Y0369741D01*
X0319528Y0350400D02*
X0338784D01*
X0322481Y0355493D02*
X0327574Y0350400D01*
X0318222Y0346458D02*
X0324280Y0340400D01*
X0318700Y0346400D02*
X0338784D01*
X0321994Y0341934D02*
X0326460Y0346400D01*
X0318117Y0345811D02*
X0323528Y0340400D01*
X0318121Y0351355D02*
X0319399Y0352633D01*
X0318823Y0352504D02*
X0320927Y0350400D01*
X0319117Y0350811D02*
X0319528Y0350400D01*
X0318671Y0345258D02*
X0319813Y0346400D01*
X0344296Y0333678D02*
X0345124Y0332850D01*
X0338040Y0326640D02*
X0341678Y0323003D01*
X0337087Y0330440D02*
X0340822Y0334175D01*
X0343189Y0323248D02*
X0343502Y0323561D01*
X0344344Y0313689D02*
X0345232Y0312802D01*
X0336887Y0310300D02*
X0340784Y0314197D01*
X0334927Y0336400D02*
X0339638Y0331689D01*
X0330440Y0330440D02*
X0336400Y0336400D01*
X0328280D02*
X0334241Y0330440D01*
X0333594Y0320300D02*
X0339103Y0325809D01*
X0334887Y0316500D02*
X0339667Y0311720D01*
X0331394Y0326640D02*
X0337734Y0320300D01*
X0343128Y0303247D02*
X0343439Y0303558D01*
X0338240Y0306500D02*
X0341722Y0303017D01*
X0334946Y0296500D02*
X0339696Y0291750D01*
X0344392Y0293701D02*
X0345346Y0292747D01*
X0336828Y0290300D02*
X0340746Y0294219D01*
X0336828Y0290300D02*
X0340746Y0294219D01*
X0331593Y0306500D02*
X0337793Y0300300D01*
X0333534D02*
X0339080Y0305845D01*
X0330240Y0310300D02*
X0336440Y0316500D01*
X0330181Y0290300D02*
X0336381Y0296500D01*
X0338299Y0286500D02*
X0339364Y0285436D01*
X0328299Y0296500D02*
X0334500Y0290300D01*
X0322700Y0336400D02*
X0338784D01*
X0318847Y0330440D02*
X0338802D01*
X0318060Y0326640D02*
X0338683D01*
X0324747D02*
X0331087Y0320300D01*
X0326947D02*
X0333287Y0326640D01*
X0323594Y0310300D02*
X0329794Y0316500D01*
X0323793Y0330440D02*
X0329753Y0336400D01*
X0318100Y0326640D02*
X0324440Y0320300D01*
X0320300D02*
X0326640Y0326640D01*
X0317997Y0331290D02*
X0323106Y0336400D01*
X0328240Y0316500D02*
X0334440Y0310300D01*
X0326887Y0300300D02*
X0333087Y0306500D01*
X0324946D02*
X0331146Y0300300D01*
X0319987Y0290300D02*
X0338740D01*
X0323534D02*
X0329734Y0296500D01*
X0319200Y0286500D02*
X0338740D01*
X0321593Y0316500D02*
X0327793Y0310300D01*
X0320240Y0300300D02*
X0326440Y0306500D01*
X0318300D02*
X0324500Y0300300D01*
X0321653Y0296500D02*
X0327853Y0290300D01*
X0321653Y0296500D02*
X0327853Y0290300D01*
X0318437Y0291850D02*
X0323087Y0296500D01*
X0312366Y0485250D02*
X0334816Y0462800D01*
X0316570D02*
X0339020Y0485250D01*
X0309924Y0462800D02*
X0332374Y0485250D01*
X0305719D02*
X0328169Y0462800D01*
X0312882Y0451500D02*
X0326248Y0438135D01*
X0303277Y0462800D02*
X0325727Y0485250D01*
X0306236Y0451500D02*
X0322924Y0434811D01*
X0315641Y0422154D02*
X0316204Y0421591D01*
X0299589Y0451500D02*
X0319601Y0431488D01*
X0312318Y0418831D02*
X0312881Y0418268D01*
X0315568Y0415581D02*
X0316131Y0415018D01*
X0312244Y0412257D02*
X0312807Y0411694D01*
X0315710Y0402144D02*
X0320734Y0397121D01*
X0305220Y0384981D02*
X0326738Y0406500D01*
X0302981Y0389389D02*
X0320092Y0406500D01*
X0313168Y0384181D02*
X0325487Y0396500D01*
X0314237Y0380705D02*
X0330032Y0396500D01*
X0309859Y0386246D02*
X0323354Y0399741D01*
X0315494Y0409007D02*
X0316347Y0408155D01*
X0302981Y0389415D02*
X0320066Y0406500D01*
X0312171Y0405684D02*
X0313023Y0404832D01*
X0312387Y0398821D02*
X0317410Y0393797D01*
X0309063Y0395498D02*
X0314087Y0390474D01*
X0296630Y0462800D02*
X0319080Y0485250D01*
X0299073D02*
X0321523Y0462800D01*
X0279200Y0485250D02*
X0369295D01*
X0279200Y0451500D02*
X0355292D01*
X0279200Y0405489D02*
X0325211Y0451500D01*
X0279200Y0462800D02*
X0356700D01*
X0292426Y0485250D02*
X0314876Y0462800D01*
X0292942Y0451500D02*
X0316278Y0428164D01*
X0289983Y0462800D02*
X0312433Y0485250D01*
X0286295Y0451500D02*
X0312954Y0424841D01*
X0279200Y0412136D02*
X0318564Y0451500D01*
X0279200Y0418783D02*
X0311917Y0451500D01*
X0283859Y0395746D02*
X0327854Y0439741D01*
X0279200Y0392196D02*
X0338504Y0451500D01*
X0279200Y0398842D02*
X0331858Y0451500D01*
X0287100Y0393613D02*
X0329987Y0436500D01*
X0292100Y0391802D02*
X0326798Y0426500D01*
X0287100Y0393449D02*
X0330151Y0436500D01*
X0293859Y0392746D02*
X0320854Y0419741D01*
X0292100Y0392113D02*
X0326487Y0426500D01*
X0288859Y0394246D02*
X0324354Y0429741D01*
X0298859Y0390668D02*
X0317933Y0409741D01*
X0297100Y0390613D02*
X0322987Y0416500D01*
X0297100Y0390155D02*
X0323445Y0416500D01*
X0316774Y0387787D02*
X0320087Y0384474D01*
X0316046Y0375059D02*
X0327487Y0386500D01*
X0314237Y0378624D02*
X0325354Y0389741D01*
X0316127Y0375140D02*
X0317190Y0374077D01*
X0314237Y0383677D02*
X0316764Y0381151D01*
X0314237Y0378624D02*
Y0379181D01*
Y0378624D02*
Y0379181D01*
Y0384181D01*
Y0374500D02*
X0314700D01*
X0314237Y0374181D02*
Y0374500D01*
X0316413Y0373300D02*
X0322854Y0379741D01*
X0314237Y0373300D02*
X0316413D01*
X0317913Y0356300D02*
X0321354Y0359741D01*
X0315126Y0368300D02*
X0316326Y0369500D01*
X0314237Y0373619D02*
Y0374181D01*
Y0373619D02*
Y0374181D01*
Y0374058D02*
X0314679Y0374500D01*
X0314237Y0373300D02*
Y0373619D01*
X0315121Y0369500D02*
X0316321Y0368300D01*
X0314237Y0357090D02*
X0315027Y0356300D01*
X0313733Y0384181D02*
X0314237Y0383677D01*
Y0369500D02*
X0317200D01*
X0313168Y0384181D02*
X0314237D01*
Y0368300D02*
X0318913D01*
X0314237Y0364500D02*
X0319700D01*
X0314237Y0368300D02*
Y0368619D01*
X0313451Y0384464D02*
X0313733Y0384181D01*
X0305740Y0392174D02*
X0310764Y0387151D01*
X0314237Y0368619D02*
Y0369181D01*
Y0368619D02*
Y0369181D01*
Y0369500D01*
Y0363619D02*
Y0364500D01*
Y0363737D02*
X0319794Y0358180D01*
X0310653Y0357181D02*
X0317972Y0364500D01*
X0310313Y0357181D02*
X0314237D01*
Y0356300D02*
Y0357181D01*
X0310313Y0363619D02*
X0314237D01*
X0309645Y0362819D02*
X0310313Y0363487D01*
Y0362819D02*
Y0363619D01*
X0309285Y0362819D02*
X0310313D01*
X0309285Y0362042D02*
X0314146Y0357181D01*
X0310313D02*
Y0357981D01*
X0309285D02*
X0310313D01*
X0308994Y0415507D02*
X0309557Y0414944D01*
X0305671Y0412184D02*
X0306234Y0411621D01*
X0285779Y0485250D02*
X0308229Y0462800D01*
X0308921Y0408934D02*
X0309484Y0408371D01*
X0308847Y0402360D02*
X0309700Y0401508D01*
X0305597Y0405611D02*
X0306160Y0405048D01*
X0302347Y0408860D02*
X0302910Y0408297D01*
X0299024Y0405537D02*
X0299587Y0404974D01*
X0283336Y0462800D02*
X0305786Y0485250D01*
X0302274Y0402287D02*
X0302837Y0401724D01*
X0298951Y0398964D02*
X0299514Y0398401D01*
X0295701Y0402214D02*
X0296264Y0401651D01*
X0305524Y0399037D02*
X0306376Y0398185D01*
X0302201Y0395714D02*
X0303053Y0394861D01*
X0292377Y0398890D02*
X0292940Y0398327D01*
X0295627Y0395640D02*
X0296190Y0395077D01*
X0289054Y0395567D02*
X0289617Y0395004D01*
X0288300Y0389937D02*
Y0392900D01*
X0287100Y0389937D02*
Y0393613D01*
X0279200Y0471957D02*
X0292493Y0485250D01*
X0279200Y0485182D02*
X0301582Y0462800D01*
X0279200Y0465310D02*
X0299140Y0485250D01*
X0279200Y0432076D02*
X0298624Y0451500D01*
X0279200Y0425430D02*
X0305270Y0451500D01*
X0279200Y0478536D02*
X0294935Y0462800D01*
X0279200D02*
Y0485250D01*
Y0471889D02*
X0288289Y0462800D01*
X0279200Y0478604D02*
X0285846Y0485250D01*
X0279200Y0445370D02*
X0285330Y0451500D01*
X0279200Y0438723D02*
X0291977Y0451500D01*
X0279200Y0465242D02*
X0281642Y0462800D01*
X0279648Y0451500D02*
X0309631Y0421518D01*
X0279200Y0445301D02*
X0306307Y0418194D01*
X0279200Y0438655D02*
X0302984Y0414871D01*
X0279200Y0425361D02*
X0296337Y0408224D01*
X0279200Y0418714D02*
X0293014Y0404901D01*
X0279200Y0432008D02*
X0299660Y0411548D01*
X0279200Y0412068D02*
X0289690Y0401577D01*
X0279200Y0405421D02*
X0286367Y0398254D01*
X0279200Y0386360D02*
Y0451500D01*
X0283300Y0389937D02*
Y0394400D01*
X0279200Y0398774D02*
X0283317Y0394656D01*
X0298877Y0392390D02*
X0299730Y0391538D01*
X0297419Y0389937D02*
X0297981D01*
X0298403D01*
X0297419D02*
X0297981D01*
X0292304Y0392317D02*
X0293300Y0391321D01*
X0297100Y0389937D02*
Y0390613D01*
X0292100Y0389937D02*
Y0392113D01*
X0292419Y0389937D02*
X0292981D01*
X0297100D02*
X0297419D01*
X0292100D02*
X0292419D01*
X0302981Y0388286D02*
X0306286Y0384981D01*
X0302981Y0386013D02*
X0303781D01*
X0309285Y0362459D02*
X0309645Y0362819D01*
X0309285Y0357981D02*
Y0362819D01*
X0303781Y0384981D02*
X0309302D01*
X0292981Y0389937D02*
X0293300D01*
Y0391400D01*
X0292419Y0389937D02*
X0292981D01*
X0302981Y0386013D02*
Y0389415D01*
X0303781Y0384981D02*
Y0386013D01*
X0287419Y0389937D02*
X0287981D01*
X0288300D01*
X0287100Y0390874D02*
X0288037Y0389937D01*
X0287100D02*
X0287419D01*
X0287981D01*
X0282419D02*
X0283300D01*
X0282419Y0386013D02*
Y0389937D01*
X0279606Y0385954D02*
X0282419Y0388768D01*
X0279200Y0392127D02*
X0282419Y0388908D01*
X0281619Y0386013D02*
X0282419D01*
X0281619Y0383941D02*
Y0386013D01*
X0279200Y0386360D02*
X0281619Y0383941D01*
X0283970Y0367416D02*
X0290075Y0361312D01*
X0279200Y0358962D02*
X0287567Y0367328D01*
X0279200Y0365608D02*
X0280877Y0367285D01*
X0314237Y0356300D02*
X0317913D01*
X0316419D02*
X0326619Y0366500D01*
X0314237Y0352500D02*
X0318700D01*
X0314237Y0351400D02*
X0317700D01*
X0314237Y0351619D02*
Y0352181D01*
Y0351619D02*
Y0352181D01*
Y0352500D01*
Y0347400D02*
X0316872D01*
X0317283Y0346989D01*
X0314237Y0346619D02*
Y0347181D01*
X0315872Y0342400D02*
X0321283Y0336989D01*
X0315634Y0342400D02*
X0327594Y0330440D01*
X0314673Y0334614D02*
X0319166Y0339106D01*
X0314237Y0346400D02*
X0316700D01*
X0314237Y0340824D02*
X0315813Y0342400D01*
X0314237D02*
X0315872D01*
X0314237Y0341619D02*
Y0342181D01*
Y0341619D02*
Y0342181D01*
Y0346619D02*
Y0347181D01*
Y0336619D02*
Y0341619D01*
Y0337150D02*
X0320947Y0330440D01*
X0312962Y0336325D02*
X0318847Y0330440D01*
X0312962Y0336619D02*
X0314237D01*
X0308921Y0335819D02*
X0309162Y0335578D01*
X0302363Y0335819D02*
X0309162D01*
X0302850Y0329437D02*
X0309162Y0335749D01*
X0309721Y0334191D02*
X0316714Y0327199D01*
X0309497Y0322790D02*
X0315310Y0328603D01*
X0301781Y0336312D02*
X0317793Y0320300D01*
X0290100Y0328053D02*
X0317853Y0300300D01*
X0290100Y0326687D02*
X0316487Y0300300D01*
X0290100Y0328053D02*
X0317853Y0300300D01*
X0306173Y0326114D02*
X0311986Y0331927D01*
X0300981Y0331306D02*
X0311987Y0320300D01*
X0296859Y0330054D02*
X0309854Y0317059D01*
X0295100Y0329187D02*
X0313987Y0310300D01*
X0295100Y0329699D02*
X0314499Y0310300D01*
X0291859Y0327054D02*
X0311854Y0307059D01*
X0311987Y0320300D02*
X0338740D01*
X0314946Y0316500D02*
X0321146Y0310300D01*
X0311200Y0316500D02*
X0338740D01*
X0313987Y0310300D02*
X0338740D01*
X0316947D02*
X0323147Y0316500D01*
X0313200Y0306500D02*
X0338740D01*
X0313653Y0320300D02*
X0319993Y0326640D01*
X0312143Y0312143D02*
X0316500Y0316500D01*
X0315040Y0301747D02*
X0319794Y0306500D01*
X0316487Y0300300D02*
X0338740D01*
X0314665Y0241550D02*
X0381050Y0307935D01*
X0315700Y0296500D02*
X0338740D01*
X0314753Y0296753D02*
X0321206Y0290300D01*
X0311790Y0298497D02*
X0312353Y0299060D01*
X0311717Y0305070D02*
X0313148Y0306501D01*
X0315114Y0295173D02*
X0316440Y0296500D01*
X0288078Y0241550D02*
X0333028Y0286500D01*
X0308018Y0241550D02*
X0360128Y0293660D01*
X0285100Y0325187D02*
X0319987Y0290300D01*
X0288078Y0241550D02*
X0333028Y0286500D01*
X0301371Y0241550D02*
X0343376Y0283555D01*
X0279200Y0245966D02*
X0319734Y0286500D01*
X0308820Y0315467D02*
X0310162Y0316809D01*
X0286859Y0324554D02*
X0314354Y0297059D01*
X0281859Y0323054D02*
X0317854Y0287059D01*
X0308394Y0308394D02*
X0309456Y0309456D01*
X0279200Y0259260D02*
X0312427Y0292486D01*
X0279200Y0252613D02*
X0315750Y0289163D01*
X0279200Y0319012D02*
X0356662Y0241550D01*
X0279200Y0312366D02*
X0350015Y0241550D01*
X0279200Y0325659D02*
X0363309Y0241550D01*
X0279200Y0305719D02*
X0343369Y0241550D01*
X0294724D02*
X0339057Y0285882D01*
X0279200Y0241550D02*
X0369169D01*
X0279200Y0292425D02*
X0330075Y0241550D01*
X0281431D02*
X0326381Y0286500D01*
X0279200Y0299072D02*
X0336722Y0241550D01*
X0279200Y0279132D02*
X0316781Y0241550D01*
X0279200Y0272485D02*
X0310135Y0241550D01*
X0279200Y0285778D02*
X0323428Y0241550D01*
X0301781Y0334787D02*
Y0337330D01*
X0302363Y0335819D02*
Y0336958D01*
X0301781Y0335015D02*
X0302585Y0335819D01*
X0300981Y0334787D02*
X0301781D01*
X0301553D02*
X0301781Y0335015D01*
X0289071Y0355539D02*
X0289935Y0356403D01*
X0300981Y0334215D02*
X0301553Y0334787D01*
X0300981Y0331306D02*
Y0334787D01*
X0295981Y0330863D02*
X0296377D01*
X0295100D02*
X0295419D01*
X0295981D01*
X0295100Y0329187D02*
Y0330863D01*
X0295419D02*
X0295981D01*
X0290419D02*
X0290981D01*
X0290419D02*
X0290981D01*
X0290100D02*
X0290419D01*
X0290981D02*
X0291300D01*
Y0328400D02*
Y0330863D01*
X0290100Y0329981D02*
X0290982Y0330863D01*
X0282324Y0355438D02*
X0290036Y0363151D01*
X0279200Y0365540D02*
X0289208Y0355532D01*
X0279200Y0358893D02*
X0282595Y0355499D01*
X0279200Y0355540D02*
Y0368006D01*
X0279619Y0342737D02*
X0280382D01*
Y0343622D01*
X0279619Y0334787D02*
X0280419D01*
Y0330863D02*
Y0334787D01*
X0279200Y0332374D02*
X0280419Y0333593D01*
Y0331087D02*
X0280643Y0330863D01*
X0285419D02*
X0285981D01*
X0279200Y0332306D02*
X0280419Y0331087D01*
X0279200Y0342440D02*
X0280382Y0343622D01*
X0279619Y0334787D02*
Y0342737D01*
X0279200Y0241550D02*
Y0342440D01*
Y0338953D02*
X0279619Y0338534D01*
X0279200Y0338953D02*
X0279619Y0338534D01*
X0279200Y0339021D02*
X0279619Y0339440D01*
X0295527Y0328761D02*
X0296840Y0330074D01*
X0298850Y0325437D02*
X0300163Y0326750D01*
X0302173Y0322114D02*
X0303486Y0323427D01*
X0291776Y0325010D02*
X0292840Y0326074D01*
X0285981Y0330863D02*
X0286300D01*
X0290100Y0326687D02*
Y0330863D01*
X0285419D02*
X0285981D01*
X0286300Y0325900D02*
Y0330863D01*
X0305497Y0318790D02*
X0306810Y0320103D01*
X0305070Y0311717D02*
X0306133Y0312780D01*
X0301747Y0315040D02*
X0302810Y0316103D01*
X0305143Y0305143D02*
X0305707Y0305707D01*
X0308467Y0301820D02*
X0309030Y0302383D01*
X0301820Y0308467D02*
X0302383Y0309030D01*
X0295100Y0321687D02*
X0296163Y0322750D01*
X0298423Y0318364D02*
X0299486Y0319427D01*
X0288527Y0321761D02*
X0289089Y0322323D01*
X0295173Y0315114D02*
X0295736Y0315677D01*
X0298497Y0311790D02*
X0299060Y0312353D01*
X0291850Y0318437D02*
X0292413Y0319000D01*
X0285100Y0325187D02*
Y0330863D01*
Y0326406D02*
X0286553Y0324953D01*
X0285100Y0330863D02*
X0285419D01*
X0285203Y0325084D02*
X0286300Y0326181D01*
X0279200Y0319081D02*
X0282516Y0322397D01*
X0279200Y0312434D02*
X0285840Y0319074D01*
X0280643Y0330863D02*
X0281300Y0330206D01*
Y0324400D02*
Y0330863D01*
X0280419D02*
X0281300D01*
X0279200Y0325728D02*
X0281300Y0327828D01*
X0279200Y0279200D02*
X0302456Y0302456D01*
X0279200Y0272553D02*
X0305780Y0299133D01*
X0279200Y0285847D02*
X0299133Y0305780D01*
X0279200Y0265838D02*
X0303488Y0241550D01*
X0279200Y0259191D02*
X0296841Y0241550D01*
X0279200Y0265906D02*
X0309103Y0295810D01*
X0279200Y0299140D02*
X0292486Y0312427D01*
X0279200Y0292494D02*
X0295810Y0309103D01*
X0279200Y0305787D02*
X0289163Y0315750D01*
X0279200Y0245898D02*
X0283547Y0241550D01*
X0279200Y0252544D02*
X0290194Y0241550D01*
X0241200Y0368298D02*
X0274617D01*
X0215700D02*
X0241200D01*
Y0370900D01*
X0255062Y0269900D02*
X0255199Y0269762D01*
X0232700Y0360400D02*
X0262200D01*
X0231200Y0358900D02*
X0232700Y0360400D01*
X0227200Y0355400D02*
X0236200D01*
X0218562Y0376762D02*
X0221200Y0379400D01*
X0215700Y0376762D02*
X0218562D01*
X0174098Y0368298D02*
X0215700D01*
Y0372038D01*
X0274700Y0341900D02*
X0281113Y0348313D01*
X0245200Y0341900D02*
X0274700D01*
X0241200Y0337900D02*
X0245200Y0341900D01*
X0217700Y0337900D02*
X0241200D01*
X0214200Y0334400D02*
X0217700Y0337900D01*
X0239200Y0340400D02*
X0243700Y0344900D01*
X0216200Y0340400D02*
X0239200D01*
X0243700Y0344900D02*
X0247200D01*
X0274645D02*
X0279145Y0349400D01*
X0247200Y0344900D02*
X0274645D01*
X0210200Y0343400D02*
X0238700D01*
X0275200Y0348400D02*
X0277200Y0350400D01*
X0236200Y0355400D02*
X0239255Y0358455D01*
X0274617D01*
X0242200Y0356400D02*
X0274531D01*
X0236367Y0350567D02*
X0242200Y0356400D01*
X0223367Y0350567D02*
X0236367D01*
X0223200Y0350400D02*
X0223367Y0350567D01*
X0207200Y0331400D02*
X0216200Y0340400D01*
X0214200Y0318400D02*
Y0334400D01*
X0207200Y0311400D02*
X0214200Y0318400D01*
X0268200Y0258852D02*
Y0265538D01*
X0207200Y0341400D02*
X0208200D01*
X0210200Y0343400D01*
X0274609Y0362400D02*
X0274617Y0362392D01*
X0279145Y0349400D02*
Y0351959D01*
Y0368321D02*
X0284066Y0363400D01*
X0184200Y0366400D02*
X0274617Y0366329D01*
X0271200Y0405762D02*
Y0412400D01*
X0261200Y0405762D02*
Y0412400D01*
X0226199Y0362399D02*
X0274617Y0362392D01*
X0277176Y0351959D02*
X0277200Y0351935D01*
Y0350400D02*
Y0351935D01*
X0281113Y0348313D02*
Y0351959D01*
X0274531Y0356400D02*
X0274617Y0356487D01*
X0281113Y0370857D02*
X0281200Y0370943D01*
X0311062Y0349400D02*
X0317700D01*
X0318700Y0348400D01*
X0343200D01*
X0311062Y0344400D02*
X0316700D01*
X0322700Y0338400D01*
X0343200D01*
X0210700Y0372038D02*
X0215700D01*
X0283082Y0370857D02*
Y0378518D01*
X0274200Y0387400D02*
X0283082Y0378518D01*
X0281200Y0370943D02*
Y0378155D01*
X0273542Y0385813D02*
X0281200Y0378155D01*
X0263287Y0385813D02*
X0273542D01*
X0164200Y0358396D02*
Y0358400D01*
X0154200Y0327400D02*
Y0328396D01*
X0159200Y0323395D01*
Y0315400D02*
Y0323395D01*
X0154200Y0338396D02*
X0154204D01*
X0159200Y0333400D01*
X0171200D01*
X0154200Y0348395D02*
X0159195Y0343400D01*
X0169200Y0363400D02*
X0174098Y0368298D01*
X0159200Y0363400D02*
X0169200D01*
X0154200Y0358400D02*
X0159200Y0363400D01*
X0154200Y0358396D02*
Y0358400D01*
X0164200Y0358396D02*
X0170195D01*
X0178200Y0366400D01*
X0184200D01*
X0236200Y0273400D02*
X0237200D01*
X0262200Y0360400D02*
X0274617Y0360424D01*
X0207200Y0351400D02*
X0218199Y0362399D01*
X0226199D01*
X0207200Y0361400D02*
X0210161Y0364361D01*
X0159195Y0343400D02*
X0170200D01*
X0178200Y0351400D01*
X0197200D01*
X0164200Y0348395D02*
X0171204Y0355400D01*
X0191200D01*
X0197200Y0361400D01*
X0197062Y0331262D02*
X0197200Y0331400D01*
X0171200Y0333400D02*
X0173338Y0331262D01*
X0164200Y0338396D02*
X0170195D01*
X0196338Y0342262D02*
X0197200Y0341400D01*
X0179200Y0341262D02*
X0197062D01*
X0197200Y0341400D01*
X0185562Y0331400D02*
X0197200D01*
X0185424Y0331262D02*
X0185562Y0331400D01*
X0173338Y0331262D02*
X0185424D01*
X0173062Y0341262D02*
X0179200D01*
X0170195Y0338396D02*
X0173062Y0341262D01*
X0179200Y0321338D02*
X0197138D01*
X0197200Y0321400D01*
X0171258Y0321338D02*
X0179200D01*
X0164200Y0328396D02*
X0171258Y0321338D01*
X0210161Y0364361D02*
X0274617D01*
X0163200Y0311400D02*
X0197200D01*
X0159200Y0315400D02*
X0163200Y0311400D01*
X0255199Y0258352D02*
Y0265537D01*
X0261279Y0387821D02*
X0263287Y0385813D01*
X0261279Y0387821D02*
Y0393400D01*
X0271121Y0388479D02*
Y0393400D01*
Y0388479D02*
X0272200Y0387400D01*
X0274200D01*
X0261279Y0393400D02*
Y0400959D01*
X0261200Y0401038D02*
X0261279Y0400959D01*
X0271121Y0393400D02*
Y0400959D01*
X0271200Y0401038D01*
X0253700Y0405762D02*
X0261200D01*
X0255062Y0269900D02*
X0255200Y0270038D01*
Y0283900D01*
X0268200Y0270262D02*
Y0283900D01*
X0268200Y0270262D02*
X0268200Y0270262D01*
X0126900Y0073549D02*
X0130899D01*
X0128899D01*
Y0067551D01*
X0133898D02*
X0135897D01*
X0136897Y0068550D01*
Y0070550D01*
X0135897Y0071549D01*
X0133898D01*
X0132898Y0070550D01*
Y0068550D01*
X0133898Y0067551D01*
X0138896Y0065551D02*
Y0071549D01*
X0141895D01*
X0142895Y0070550D01*
Y0068550D01*
X0141895Y0067551D01*
X0138896D01*
X0150892Y0073549D02*
Y0067551D01*
X0154891D01*
X0157890Y0071549D02*
X0159889D01*
X0160889Y0070550D01*
Y0067551D01*
X0157890D01*
X0156890Y0068550D01*
X0157890Y0069550D01*
X0160889D01*
X0162888Y0071549D02*
Y0068550D01*
X0163888Y0067551D01*
X0166887D01*
Y0066551D01*
X0165887Y0065551D01*
X0164888D01*
X0166887Y0067551D02*
Y0071549D01*
X0171885Y0067551D02*
X0169886D01*
X0168886Y0068550D01*
Y0070550D01*
X0169886Y0071549D01*
X0171885D01*
X0172885Y0070550D01*
Y0069550D01*
X0168886D01*
X0174884Y0071549D02*
Y0067551D01*
Y0069550D01*
X0175884Y0070550D01*
X0176884Y0071549D01*
X0177884D01*
X0580500Y0052965D02*
X0584499D01*
X0582499D01*
Y0046966D01*
X0590497Y0052965D02*
X0586498D01*
Y0046966D01*
X0590497D01*
X0586498Y0049966D02*
X0588497D01*
X0592496Y0052965D02*
X0596495Y0046966D01*
Y0052965D02*
X0592496Y0046966D01*
X0598494D02*
Y0050965D01*
X0600493Y0052965D01*
X0602493Y0050965D01*
Y0046966D01*
Y0049966D01*
X0598494D01*
X0608491Y0051965D02*
X0607491Y0052965D01*
X0605492D01*
X0604492Y0051965D01*
Y0050965D01*
X0605492Y0049966D01*
X0607491D01*
X0608491Y0048966D01*
Y0047966D01*
X0607491Y0046966D01*
X0605492D01*
X0604492Y0047966D01*
X0616488Y0052965D02*
X0618488D01*
X0617488D01*
Y0046966D01*
X0616488D01*
X0618488D01*
X0621487D02*
Y0052965D01*
X0625486Y0046966D01*
Y0052965D01*
X0631484Y0051965D02*
X0630484Y0052965D01*
X0628484D01*
X0627485Y0051965D01*
Y0050965D01*
X0628484Y0049966D01*
X0630484D01*
X0631484Y0048966D01*
Y0047966D01*
X0630484Y0046966D01*
X0628484D01*
X0627485Y0047966D01*
X0633483Y0052965D02*
X0637482D01*
X0635482D01*
Y0046966D01*
X0639481D02*
Y0052965D01*
X0642480D01*
X0643480Y0051965D01*
Y0049966D01*
X0642480Y0048966D01*
X0639481D01*
X0641480D02*
X0643480Y0046966D01*
X0645479Y0052965D02*
Y0047966D01*
X0646479Y0046966D01*
X0648478D01*
X0649478Y0047966D01*
Y0052965D01*
X0651477Y0046966D02*
Y0052965D01*
X0653476Y0050965D01*
X0655476Y0052965D01*
Y0046966D01*
X0661474Y0052965D02*
X0657475D01*
Y0046966D01*
X0661474D01*
X0657475Y0049966D02*
X0659474D01*
X0663473Y0046966D02*
Y0052965D01*
X0667472Y0046966D01*
Y0052965D01*
X0669471D02*
X0673470D01*
X0671471D01*
Y0046966D01*
X0679468Y0051965D02*
X0678468Y0052965D01*
X0676469D01*
X0675469Y0051965D01*
Y0050965D01*
X0676469Y0049966D01*
X0678468D01*
X0679468Y0048966D01*
Y0047966D01*
X0678468Y0046966D01*
X0676469D01*
X0675469Y0047966D01*
X0458049Y0052965D02*
X0454050D01*
Y0049966D01*
X0456049Y0050965D01*
X0457049D01*
X0458049Y0049966D01*
Y0047966D01*
X0457049Y0046966D01*
X0455050D01*
X0454050Y0047966D01*
X0460048Y0050965D02*
X0461048D01*
Y0049966D01*
X0460048D01*
Y0050965D01*
Y0047966D02*
X0461048D01*
Y0046966D01*
X0460048D01*
Y0047966D01*
X0469045Y0046966D02*
X0465046D01*
X0469045Y0050965D01*
Y0051965D01*
X0468046Y0052965D01*
X0466046D01*
X0465046Y0051965D01*
X0474044Y0046966D02*
Y0052965D01*
X0471044Y0049966D01*
X0475043D01*
X0477043Y0050965D02*
X0478042D01*
Y0049966D01*
X0477043D01*
Y0050965D01*
Y0047966D02*
X0478042D01*
Y0046966D01*
X0477043D01*
Y0047966D01*
X0482041Y0046966D02*
X0484040D01*
X0483041D01*
Y0052965D01*
X0482041Y0051965D01*
X0490038Y0046966D02*
Y0052965D01*
X0487039Y0049966D01*
X0491038D01*
X0499035Y0046966D02*
Y0052965D01*
X0502035D01*
X0503034Y0051965D01*
Y0049966D01*
X0502035Y0048966D01*
X0499035D01*
X0505033Y0046966D02*
Y0052965D01*
X0507033Y0050965D01*
X0509032Y0052965D01*
Y0046966D01*
X0046350D02*
Y0052965D01*
X0049349D01*
X0050349Y0051965D01*
Y0049966D01*
X0049349Y0048966D01*
X0046350D01*
X0052348Y0052965D02*
Y0046966D01*
X0056347D01*
X0061345Y0052965D02*
X0059346D01*
X0058346Y0051965D01*
Y0047966D01*
X0059346Y0046966D01*
X0061345D01*
X0062345Y0047966D01*
Y0051965D01*
X0061345Y0052965D01*
X0064344D02*
X0068343D01*
X0066343D01*
Y0046966D01*
X0076340D02*
Y0052965D01*
X0080339Y0046966D01*
Y0052965D01*
X0082338Y0046966D02*
Y0050965D01*
X0084338Y0052965D01*
X0086337Y0050965D01*
Y0046966D01*
Y0049966D01*
X0082338D01*
X0088336Y0046966D02*
Y0052965D01*
X0090336Y0050965D01*
X0092335Y0052965D01*
Y0046966D01*
X0098333Y0052965D02*
X0094335D01*
Y0046966D01*
X0098333D01*
X0094335Y0049966D02*
X0096334D01*
X0106331Y0048966D02*
X0110329D01*
X0106331Y0050965D02*
X0110329D01*
X0046350Y0073549D02*
Y0067551D01*
X0050349D01*
X0052348D02*
Y0071549D01*
X0054347Y0073549D01*
X0056347Y0071549D01*
Y0067551D01*
Y0070550D01*
X0052348D01*
X0058346Y0073549D02*
Y0072549D01*
X0060346Y0070550D01*
X0062345Y0072549D01*
Y0073549D01*
X0060346Y0070550D02*
Y0067551D01*
X0068343Y0073549D02*
X0064344D01*
Y0067551D01*
X0068343D01*
X0064344Y0070550D02*
X0066343D01*
X0070342Y0067551D02*
Y0073549D01*
X0073341D01*
X0074341Y0072549D01*
Y0070550D01*
X0073341Y0069550D01*
X0070342D01*
X0072342D02*
X0074341Y0067551D01*
X0082338D02*
Y0073549D01*
X0086337Y0067551D01*
Y0073549D01*
X0088336Y0067551D02*
Y0071549D01*
X0090336Y0073549D01*
X0092335Y0071549D01*
Y0067551D01*
Y0070550D01*
X0088336D01*
X0094335Y0067551D02*
Y0073549D01*
X0096334Y0071549D01*
X0098333Y0073549D01*
Y0067551D01*
X0104331Y0073549D02*
X0100332D01*
Y0067551D01*
X0104331D01*
X0100332Y0070550D02*
X0102332D01*
X0112329Y0069550D02*
X0116327D01*
X0112329Y0071549D02*
X0116327D01*
X0294000Y0093831D02*
Y0087833D01*
X0296999D01*
X0297999Y0088833D01*
Y0089833D01*
X0296999Y0090832D01*
X0294000D01*
X0296999D01*
X0297999Y0091832D01*
Y0092832D01*
X0296999Y0093831D01*
X0294000D01*
X0302997D02*
X0300998D01*
X0299998Y0092832D01*
Y0088833D01*
X0300998Y0087833D01*
X0302997D01*
X0303997Y0088833D01*
Y0092832D01*
X0302997Y0093831D01*
X0305996Y0087833D02*
Y0091832D01*
X0307996Y0093831D01*
X0309995Y0091832D01*
Y0087833D01*
Y0090832D01*
X0305996D01*
X0311994Y0087833D02*
Y0093831D01*
X0314993D01*
X0315993Y0092832D01*
Y0090832D01*
X0314993Y0089833D01*
X0311994D01*
X0313994D02*
X0315993Y0087833D01*
X0317992Y0093831D02*
Y0087833D01*
X0320991D01*
X0321991Y0088833D01*
Y0092832D01*
X0320991Y0093831D01*
X0317992D01*
X0330988Y0087833D02*
Y0093831D01*
X0332987D02*
Y0087833D01*
X0329988Y0091832D02*
X0332987D01*
X0333987D01*
X0329988Y0089833D02*
X0333987D01*
X0335986Y0091832D02*
X0336986D01*
Y0090832D01*
X0335986D01*
Y0091832D01*
Y0088833D02*
X0336986D01*
Y0087833D01*
X0335986D01*
Y0088833D01*
X0352549Y0092832D02*
X0351549Y0093831D01*
X0349550D01*
X0348550Y0092832D01*
Y0088833D01*
X0349550Y0087833D01*
X0351549D01*
X0352549Y0088833D01*
X0354548Y0087833D02*
Y0091832D01*
X0356547Y0093831D01*
X0358547Y0091832D01*
Y0087833D01*
Y0090832D01*
X0354548D01*
X0360546Y0087833D02*
Y0093831D01*
X0363545D01*
X0364545Y0092832D01*
Y0090832D01*
X0363545Y0089833D01*
X0360546D01*
X0366544Y0093831D02*
X0370543D01*
X0368544D01*
Y0087833D01*
X0372542Y0093831D02*
X0374542D01*
X0373542D01*
Y0087833D01*
X0372542D01*
X0374542D01*
X0377541Y0093831D02*
Y0089833D01*
X0379540Y0087833D01*
X0381539Y0089833D01*
Y0093831D01*
X0383539Y0087833D02*
Y0091832D01*
X0385538Y0093831D01*
X0387537Y0091832D01*
Y0087833D01*
Y0090832D01*
X0383539D01*
X0389537Y0093831D02*
X0393535D01*
X0391536D01*
Y0087833D01*
X0399534Y0093831D02*
X0395535D01*
Y0087833D01*
X0399534D01*
X0395535Y0090832D02*
X0397534D01*
X0401533D02*
X0405532D01*
X0411530Y0093831D02*
X0407531D01*
Y0090832D01*
X0409530D01*
X0407531D01*
Y0087833D01*
X0413529D02*
Y0093831D01*
X0416528D01*
X0417528Y0092832D01*
Y0090832D01*
X0416528Y0089833D01*
X0413529D01*
X0415528D02*
X0417528Y0087833D01*
X0423526D02*
X0419527D01*
X0423526Y0091832D01*
Y0092832D01*
X0422526Y0093831D01*
X0420527D01*
X0419527Y0092832D01*
X0429524Y0093831D02*
X0427524Y0092832D01*
X0425525Y0090832D01*
Y0088833D01*
X0426525Y0087833D01*
X0428524D01*
X0429524Y0088833D01*
Y0089833D01*
X0428524Y0090832D01*
X0425525D01*
X0431523Y0092832D02*
X0432523Y0093831D01*
X0434522D01*
X0435522Y0092832D01*
Y0091832D01*
X0434522Y0090832D01*
X0433523D01*
X0434522D01*
X0435522Y0089833D01*
Y0088833D01*
X0434522Y0087833D01*
X0432523D01*
X0431523Y0088833D01*
X0437521Y0092832D02*
X0438521Y0093831D01*
X0440520D01*
X0441520Y0092832D01*
Y0091832D01*
X0440520Y0090832D01*
X0439521D01*
X0440520D01*
X0441520Y0089833D01*
Y0088833D01*
X0440520Y0087833D01*
X0438521D01*
X0437521Y0088833D01*
X0466149Y0092832D02*
X0465149Y0093831D01*
X0463150D01*
X0462150Y0092832D01*
Y0088833D01*
X0463150Y0087833D01*
X0465149D01*
X0466149Y0088833D01*
X0046350Y0087833D02*
Y0091832D01*
X0048349Y0093831D01*
X0050349Y0091832D01*
Y0087833D01*
Y0090832D01*
X0046350D01*
X0052348Y0093831D02*
Y0087833D01*
X0056347D01*
X0058346Y0093831D02*
Y0087833D01*
X0062345D01*
X0070342D02*
Y0091832D01*
X0072342Y0093831D01*
X0074341Y0091832D01*
Y0087833D01*
Y0090832D01*
X0070342D01*
X0076340Y0087833D02*
Y0093831D01*
X0079339D01*
X0080339Y0092832D01*
Y0090832D01*
X0079339Y0089833D01*
X0076340D01*
X0078340D02*
X0080339Y0087833D01*
X0082338Y0093831D02*
X0086337D01*
X0084338D01*
Y0087833D01*
X0088336Y0093831D02*
Y0087833D01*
X0090336Y0089833D01*
X0092335Y0087833D01*
Y0093831D01*
X0097334D02*
X0095334D01*
X0094335Y0092832D01*
Y0088833D01*
X0095334Y0087833D01*
X0097334D01*
X0098333Y0088833D01*
Y0092832D01*
X0097334Y0093831D01*
X0100332Y0087833D02*
Y0093831D01*
X0103332D01*
X0104331Y0092832D01*
Y0090832D01*
X0103332Y0089833D01*
X0100332D01*
X0102332D02*
X0104331Y0087833D01*
X0106331Y0093831D02*
Y0087833D01*
Y0089833D01*
X0110329Y0093831D01*
X0107330Y0090832D01*
X0110329Y0087833D01*
X0118327Y0093831D02*
Y0089833D01*
X0120326Y0087833D01*
X0122325Y0089833D01*
Y0093831D01*
X0124325D02*
X0126324D01*
X0125324D01*
Y0087833D01*
X0124325D01*
X0126324D01*
X0133322Y0093831D02*
X0129323D01*
Y0087833D01*
X0133322D01*
X0129323Y0090832D02*
X0131323D01*
X0135321Y0093831D02*
Y0087833D01*
X0137321Y0089833D01*
X0139320Y0087833D01*
Y0093831D01*
X0145318D02*
X0141319D01*
Y0087833D01*
X0145318D01*
X0141319Y0090832D02*
X0143319D01*
X0147317Y0093831D02*
Y0087833D01*
X0150316D01*
X0151316Y0088833D01*
Y0092832D01*
X0150316Y0093831D01*
X0147317D01*
X0163312D02*
X0159313D01*
Y0090832D01*
X0161313D01*
X0159313D01*
Y0087833D01*
X0165312D02*
Y0093831D01*
X0168310D01*
X0169310Y0092832D01*
Y0090832D01*
X0168310Y0089833D01*
X0165312D01*
X0167311D02*
X0169310Y0087833D01*
X0174309Y0093831D02*
X0172309D01*
X0171310Y0092832D01*
Y0088833D01*
X0172309Y0087833D01*
X0174309D01*
X0175308Y0088833D01*
Y0092832D01*
X0174309Y0093831D01*
X0177308Y0087833D02*
Y0093831D01*
X0179307Y0091832D01*
X0181306Y0093831D01*
Y0087833D01*
X0189304Y0093831D02*
X0193303D01*
X0191303D01*
Y0087833D01*
X0198301Y0093831D02*
X0196301D01*
X0195302Y0092832D01*
Y0088833D01*
X0196301Y0087833D01*
X0198301D01*
X0199301Y0088833D01*
Y0092832D01*
X0198301Y0093831D01*
X0201300Y0087833D02*
Y0093831D01*
X0204299D01*
X0205299Y0092832D01*
Y0090832D01*
X0204299Y0089833D01*
X0201300D01*
X0217295Y0092832D02*
X0216295Y0093831D01*
X0214296D01*
X0213296Y0092832D01*
Y0091832D01*
X0214296Y0090832D01*
X0216295D01*
X0217295Y0089833D01*
Y0088833D01*
X0216295Y0087833D01*
X0214296D01*
X0213296Y0088833D01*
X0219294Y0093831D02*
X0221293D01*
X0220294D01*
Y0087833D01*
X0219294D01*
X0221293D01*
X0224292Y0093831D02*
Y0087833D01*
X0227291D01*
X0228291Y0088833D01*
Y0092832D01*
X0227291Y0093831D01*
X0224292D01*
X0234289D02*
X0230291D01*
Y0087833D01*
X0234289D01*
X0230291Y0090832D02*
X0232290D01*
X0298199Y0051965D02*
X0297199Y0052965D01*
X0295200D01*
X0294200Y0051965D01*
Y0047966D01*
X0295200Y0046966D01*
X0297199D01*
X0298199Y0047966D01*
Y0049966D01*
X0296199D01*
X0304197Y0052965D02*
X0300198D01*
Y0046966D01*
X0304197D01*
X0300198Y0049966D02*
X0302197D01*
X0306196Y0046966D02*
Y0052965D01*
X0310195Y0046966D01*
Y0052965D01*
X0316193D02*
X0312194D01*
Y0046966D01*
X0316193D01*
X0312194Y0049966D02*
X0314194D01*
X0318192Y0046966D02*
Y0052965D01*
X0321191D01*
X0322191Y0051965D01*
Y0049966D01*
X0321191Y0048966D01*
X0318192D01*
X0320192D02*
X0322191Y0046966D01*
X0324190D02*
Y0050965D01*
X0326190Y0052965D01*
X0328189Y0050965D01*
Y0046966D01*
Y0049966D01*
X0324190D01*
X0330188Y0052965D02*
X0334187D01*
X0332188D01*
Y0046966D01*
X0340185Y0052965D02*
X0336186D01*
Y0046966D01*
X0340185D01*
X0336186Y0049966D02*
X0338186D01*
X0342184Y0052965D02*
Y0046966D01*
X0345183D01*
X0346183Y0047966D01*
Y0051965D01*
X0345183Y0052965D01*
X0342184D01*
X0372175Y0050965D02*
X0373175D01*
Y0049966D01*
X0372175D01*
Y0050965D01*
Y0047966D02*
X0373175D01*
Y0046966D01*
X0372175D01*
Y0047966D01*
X0381150D02*
X0382150Y0046966D01*
X0384149D01*
X0385149Y0047966D01*
Y0051965D01*
X0384149Y0052965D01*
X0382150D01*
X0381150Y0051965D01*
Y0050965D01*
X0382150Y0049966D01*
X0385149D01*
X0387148Y0046966D02*
X0391147Y0050965D01*
X0393146Y0046966D02*
X0395146D01*
X0394146D01*
Y0052965D01*
X0393146Y0051965D01*
X0398145Y0052965D02*
X0402143D01*
Y0051965D01*
X0398145Y0047966D01*
Y0046966D01*
X0404143D02*
X0408141Y0050965D01*
X0414139Y0046966D02*
X0410141D01*
X0414139Y0050965D01*
Y0051965D01*
X0413140Y0052965D01*
X0411140D01*
X0410141Y0051965D01*
X0416139D02*
X0417138Y0052965D01*
X0419138D01*
X0420137Y0051965D01*
Y0047966D01*
X0419138Y0046966D01*
X0417138D01*
X0416139Y0047966D01*
Y0051965D01*
X0422137Y0046966D02*
X0424136D01*
X0423136D01*
Y0052965D01*
X0422137Y0051965D01*
X0431134Y0052965D02*
X0427135D01*
Y0049966D01*
X0429135Y0050965D01*
X0430134D01*
X0431134Y0049966D01*
Y0047966D01*
X0430134Y0046966D01*
X0428135D01*
X0427135Y0047966D01*
X0130899Y0051965D02*
X0129899Y0052965D01*
X0127900D01*
X0126900Y0051965D01*
Y0047966D01*
X0127900Y0046966D01*
X0129899D01*
X0130899Y0047966D01*
X0132898Y0046966D02*
Y0050965D01*
X0134897Y0052965D01*
X0136897Y0050965D01*
Y0046966D01*
Y0049966D01*
X0132898D01*
X0138896Y0046966D02*
Y0052965D01*
X0141895D01*
X0142895Y0051965D01*
Y0049966D01*
X0141895Y0048966D01*
X0138896D01*
X0144894Y0052965D02*
X0148893D01*
X0146894D01*
Y0046966D01*
X0150892Y0052965D02*
X0152892D01*
X0151892D01*
Y0046966D01*
X0150892D01*
X0152892D01*
X0155891Y0052965D02*
Y0048966D01*
X0157890Y0046966D01*
X0159889Y0048966D01*
Y0052965D01*
X0161889Y0046966D02*
Y0050965D01*
X0163888Y0052965D01*
X0165887Y0050965D01*
Y0046966D01*
Y0049966D01*
X0161889D01*
X0167887Y0052965D02*
X0171885D01*
X0169886D01*
Y0046966D01*
X0177884Y0052965D02*
X0173885D01*
Y0046966D01*
X0177884D01*
X0173885Y0049966D02*
X0175884D01*
X0179883D02*
X0183882D01*
X0189880Y0052965D02*
X0185881D01*
Y0049966D01*
X0187880D01*
X0185881D01*
Y0046966D01*
X0191879D02*
Y0052965D01*
X0194878D01*
X0195878Y0051965D01*
Y0049966D01*
X0194878Y0048966D01*
X0191879D01*
X0193878D02*
X0195878Y0046966D01*
X0201876D02*
X0197877D01*
X0201876Y0050965D01*
Y0051965D01*
X0200876Y0052965D01*
X0198877D01*
X0197877Y0051965D01*
X0207874Y0052965D02*
X0205874Y0051965D01*
X0203875Y0049966D01*
Y0047966D01*
X0204875Y0046966D01*
X0206874D01*
X0207874Y0047966D01*
Y0048966D01*
X0206874Y0049966D01*
X0203875D01*
X0209873Y0051965D02*
X0210873Y0052965D01*
X0212872D01*
X0213872Y0051965D01*
Y0050965D01*
X0212872Y0049966D01*
X0211873D01*
X0212872D01*
X0213872Y0048966D01*
Y0047966D01*
X0212872Y0046966D01*
X0210873D01*
X0209873Y0047966D01*
X0215871Y0051965D02*
X0216871Y0052965D01*
X0218870D01*
X0219870Y0051965D01*
Y0050965D01*
X0218870Y0049966D01*
X0217871D01*
X0218870D01*
X0219870Y0048966D01*
Y0047966D01*
X0218870Y0046966D01*
X0216871D01*
X0215871Y0047966D01*
X0221869Y0045967D02*
X0225868D01*
X0227867Y0046966D02*
Y0052965D01*
X0230866D01*
X0231866Y0051965D01*
Y0049966D01*
X0230866Y0048966D01*
X0227867D01*
X0229867D02*
X0231866Y0046966D01*
X0237864Y0052965D02*
X0233865D01*
Y0046966D01*
X0237864D01*
X0233865Y0049966D02*
X0235865D01*
X0239863Y0052965D02*
Y0048966D01*
X0241863Y0046966D01*
X0243862Y0048966D01*
Y0052965D01*
X0245862Y0045967D02*
X0249860D01*
X0255858Y0051965D02*
X0254859Y0052965D01*
X0252859D01*
X0251860Y0051965D01*
Y0047966D01*
X0252859Y0046966D01*
X0254859D01*
X0255858Y0047966D01*
X0257858Y0046966D02*
Y0047966D01*
X0258857D01*
Y0046966D01*
X0257858D01*
X0266855Y0051965D02*
X0265855Y0052965D01*
X0263856D01*
X0262856Y0051965D01*
Y0047966D01*
X0263856Y0046966D01*
X0265855D01*
X0266855Y0047966D01*
Y0049966D01*
X0264855D01*
X0268854Y0052965D02*
X0272853D01*
X0270853D01*
Y0046966D01*
X0274852Y0052965D02*
Y0046966D01*
X0278851D01*
X0433000Y0087833D02*
Y0093831D01*
X0435999D01*
X0436999Y0092832D01*
Y0090832D01*
X0435999Y0089833D01*
X0433000D01*
X0434999D02*
X0436999Y0087833D01*
X0442997Y0093831D02*
X0438998D01*
Y0087833D01*
X0442997D01*
X0438998Y0090832D02*
X0440997D01*
X0444996Y0093831D02*
Y0089833D01*
X0446995Y0087833D01*
X0448995Y0089833D01*
Y0093831D01*
X0450994Y0091832D02*
X0451994D01*
Y0090832D01*
X0450994D01*
Y0091832D01*
Y0088833D02*
X0451994D01*
Y0087833D01*
X0450994D01*
Y0088833D01*
X0520799Y0092832D02*
X0519799Y0093831D01*
X0517800D01*
X0516800Y0092832D01*
Y0091832D01*
X0517800Y0090832D01*
X0519799D01*
X0520799Y0089833D01*
Y0088833D01*
X0519799Y0087833D01*
X0517800D01*
X0516800Y0088833D01*
X0522798Y0093831D02*
Y0089833D01*
X0524797Y0087833D01*
X0526797Y0089833D01*
Y0093831D01*
X0528796Y0087833D02*
Y0093831D01*
X0532795Y0087833D01*
Y0093831D01*
X0540792Y0087833D02*
Y0093831D01*
X0543791D01*
X0544791Y0092832D01*
Y0090832D01*
X0543791Y0089833D01*
X0540792D01*
X0542792D02*
X0544791Y0087833D01*
X0550789Y0093831D02*
X0546790D01*
Y0087833D01*
X0550789D01*
X0546790Y0090832D02*
X0548790D01*
X0552788Y0093831D02*
Y0089833D01*
X0554788Y0087833D01*
X0556787Y0089833D01*
Y0093831D01*
X0558786Y0091832D02*
X0559786D01*
Y0090832D01*
X0558786D01*
Y0091832D01*
Y0088833D02*
X0559786D01*
Y0087833D01*
X0558786D01*
Y0088833D01*
X0567400Y0087833D02*
Y0093831D01*
X0571399Y0087833D01*
Y0093831D01*
X0574398Y0087833D02*
X0576397D01*
X0577397Y0088833D01*
Y0090832D01*
X0576397Y0091832D01*
X0574398D01*
X0573398Y0090832D01*
Y0088833D01*
X0574398Y0087833D01*
X0580396Y0092832D02*
Y0091832D01*
X0579396D01*
X0581395D01*
X0580396D01*
Y0088833D01*
X0581395Y0087833D01*
X0590393Y0093831D02*
X0592392D01*
X0591392D01*
Y0087833D01*
X0590393D01*
X0592392D01*
X0595391D02*
Y0091832D01*
X0598390D01*
X0599390Y0090832D01*
Y0087833D01*
X0607387Y0093831D02*
Y0089833D01*
X0609386Y0087833D01*
X0611386Y0089833D01*
Y0093831D01*
X0616384Y0087833D02*
X0614385D01*
X0613385Y0088833D01*
Y0090832D01*
X0614385Y0091832D01*
X0616384D01*
X0617384Y0090832D01*
Y0089833D01*
X0613385D01*
X0619383Y0091832D02*
Y0087833D01*
Y0089833D01*
X0620383Y0090832D01*
X0621383Y0091832D01*
X0622382D01*
X0625381Y0087833D02*
X0628380D01*
X0629380Y0088833D01*
X0628380Y0089833D01*
X0626381D01*
X0625381Y0090832D01*
X0626381Y0091832D01*
X0629380D01*
X0631379Y0087833D02*
X0633379D01*
X0632379D01*
Y0091832D01*
X0631379D01*
X0637377Y0087833D02*
X0639377D01*
X0640376Y0088833D01*
Y0090832D01*
X0639377Y0091832D01*
X0637377D01*
X0636378Y0090832D01*
Y0088833D01*
X0637377Y0087833D01*
X0642376D02*
Y0091832D01*
X0645375D01*
X0646374Y0090832D01*
Y0087833D01*
X0652373Y0092832D02*
X0651373Y0093831D01*
X0649373D01*
X0648374Y0092832D01*
Y0088833D01*
X0649373Y0087833D01*
X0651373D01*
X0652373Y0088833D01*
X0655372Y0087833D02*
X0657371D01*
X0658371Y0088833D01*
Y0090832D01*
X0657371Y0091832D01*
X0655372D01*
X0654372Y0090832D01*
Y0088833D01*
X0655372Y0087833D01*
X0660370D02*
Y0091832D01*
X0663369D01*
X0664369Y0090832D01*
Y0087833D01*
X0667368Y0092832D02*
Y0091832D01*
X0666368D01*
X0668367D01*
X0667368D01*
Y0088833D01*
X0668367Y0087833D01*
X0671366Y0091832D02*
Y0087833D01*
Y0089833D01*
X0672366Y0090832D01*
X0673366Y0091832D01*
X0674365D01*
X0678364Y0087833D02*
X0680364D01*
X0681363Y0088833D01*
Y0090832D01*
X0680364Y0091832D01*
X0678364D01*
X0677364Y0090832D01*
Y0088833D01*
X0678364Y0087833D01*
X0683362D02*
X0685362D01*
X0684362D01*
Y0093831D01*
X0683362D01*
G54D11*
X0343200Y0328400D02*
G03*
X0342862Y0328540I-0000338J-0000338D01*
G01*
X0285050Y0370857D02*
Y0381888D01*
X0285200Y0382038D01*
X0293515Y0368298D02*
X0293700Y0368483D01*
Y0368762D01*
X0306338Y0381400D01*
X0293515Y0366329D02*
X0294629D01*
X0304700Y0376400D01*
X0306338D01*
X0293515Y0364361D02*
X0296161D01*
X0303200Y0371400D01*
X0306338D01*
X0293515Y0362392D02*
X0297692D01*
X0301700Y0366400D01*
X0306338D01*
X0293515Y0356487D02*
X0295113D01*
X0302200Y0349400D01*
X0306338D01*
X0293515Y0358455D02*
X0297645D01*
X0301700Y0354400D01*
X0306338D01*
X0290956Y0351959D02*
X0291015Y0351900D01*
X0290956Y0351959D02*
X0303515Y0339400D01*
X0306338D01*
X0293515Y0353585D02*
Y0354518D01*
Y0353585D02*
X0302700Y0344400D01*
X0306338D01*
X0290956Y0370857D02*
X0300200Y0380101D01*
Y0382038D01*
X0287019Y0370857D02*
Y0375719D01*
X0290200Y0378900D01*
Y0382038D01*
X0288987Y0370857D02*
Y0373687D01*
X0295200Y0379900D01*
Y0382038D01*
X0300200Y0386762D02*
Y0389321D01*
X0319279Y0408400D01*
X0343200D01*
X0295200Y0386762D02*
Y0391400D01*
X0322200Y0418400D01*
X0343200D01*
X0290200Y0386762D02*
Y0392900D01*
X0325700Y0428400D01*
X0343200D01*
X0285200Y0386762D02*
Y0394400D01*
X0329200Y0438400D01*
X0343200D01*
X0311062Y0381400D02*
X0311200Y0381538D01*
Y0384900D01*
X0324700Y0398400D01*
X0343200D01*
X0311062Y0376400D02*
X0314700D01*
X0326700Y0388400D01*
X0343200D01*
X0311062Y0371400D02*
X0317200D01*
X0324200Y0378400D01*
X0343200D01*
X0311062Y0366400D02*
X0319700D01*
X0321700Y0368400D01*
X0343200D01*
X0311062Y0354400D02*
X0318700D01*
X0322700Y0358400D01*
X0343200D01*
X0311062Y0335538D02*
Y0339400D01*
Y0335538D02*
X0318060Y0328540D01*
X0342862D01*
X0311200Y0318400D02*
X0343200D01*
X0313200Y0308400D02*
X0343200D01*
X0315700Y0298400D02*
X0343200D01*
X0319200Y0288400D02*
X0343200D01*
X0283082Y0338880D02*
Y0351959D01*
Y0338880D02*
X0283200Y0338762D01*
X0285050Y0345550D02*
Y0351959D01*
Y0345550D02*
X0288200Y0342400D01*
Y0338762D02*
Y0342400D01*
X0287019Y0347581D02*
Y0351959D01*
Y0347581D02*
X0293200Y0341400D01*
Y0338762D02*
Y0341400D01*
X0288987Y0349613D02*
Y0351959D01*
Y0349613D02*
X0298200Y0340400D01*
Y0338762D02*
Y0340400D01*
X0283200Y0324400D02*
X0319200Y0288400D01*
X0283200Y0324400D02*
Y0334038D01*
X0288200Y0325900D02*
X0315700Y0298400D01*
X0288200Y0325900D02*
Y0334038D01*
X0293200Y0328400D02*
X0313200Y0308400D01*
X0293200Y0328400D02*
Y0334038D01*
X0298200Y0331400D02*
X0311200Y0318400D01*
X0298200Y0331400D02*
Y0334038D01*
G54D12*
X0374200Y0248400D02*
D03*
Y0478400D02*
D03*
G54D13*
X0185200Y0331038D02*
D03*
Y0335762D02*
D03*
X0179200Y0341262D02*
D03*
Y0336538D02*
D03*
X0271200Y0405762D02*
D03*
Y0401038D02*
D03*
X0261200Y0405762D02*
D03*
Y0401038D02*
D03*
X0285200Y0382038D02*
D03*
Y0386762D02*
D03*
X0290200Y0382038D02*
D03*
Y0386762D02*
D03*
X0295200Y0382038D02*
D03*
Y0386762D02*
D03*
X0300200Y0382038D02*
D03*
Y0386762D02*
D03*
X0298200Y0338762D02*
D03*
Y0334038D02*
D03*
X0293200Y0338762D02*
D03*
Y0334038D02*
D03*
X0288200Y0338762D02*
D03*
Y0334038D02*
D03*
X0283200Y0338762D02*
D03*
Y0334038D02*
D03*
X0255199Y0270262D02*
D03*
Y0265537D02*
D03*
X0268200Y0270262D02*
D03*
Y0265538D02*
D03*
X0269200Y0374538D02*
D03*
Y0379262D02*
D03*
X0210700Y0372038D02*
D03*
Y0376762D02*
D03*
X0179200Y0321338D02*
D03*
Y0326062D02*
D03*
X0215700Y0372038D02*
D03*
Y0376762D02*
D03*
G54D14*
X0311216Y0360400D02*
D03*
X0304917D02*
D03*
G54D15*
X0306338Y0381400D02*
D03*
X0311062D02*
D03*
X0306338Y0376400D02*
D03*
X0311062D02*
D03*
X0306338Y0371400D02*
D03*
X0311062D02*
D03*
X0306338Y0366400D02*
D03*
X0311062D02*
D03*
X0306338Y0354400D02*
D03*
X0311062D02*
D03*
X0306338Y0349400D02*
D03*
X0311062D02*
D03*
X0306338Y0344400D02*
D03*
X0311062D02*
D03*
X0306338Y0339400D02*
D03*
X0311062D02*
D03*
G54D16*
X0255200Y0258853D02*
D03*
Y0252947D02*
D03*
X0268200Y0258852D02*
D03*
Y0252947D02*
D03*
G54D17*
X0260200Y0374750D02*
D03*
Y0381050D02*
D03*
G54D18*
X0274617Y0368298D02*
D03*
Y0366329D02*
D03*
Y0364361D02*
D03*
Y0362392D02*
D03*
Y0360424D02*
D03*
Y0358455D02*
D03*
Y0356487D02*
D03*
Y0354518D02*
D03*
X0293515D02*
D03*
Y0356487D02*
D03*
Y0358455D02*
D03*
Y0360424D02*
D03*
Y0362392D02*
D03*
Y0364361D02*
D03*
Y0366329D02*
D03*
Y0368298D02*
D03*
G54D19*
X0277176Y0351959D02*
D03*
X0279145D02*
D03*
X0281113D02*
D03*
X0283082D02*
D03*
X0285050D02*
D03*
X0287019D02*
D03*
X0288987D02*
D03*
X0290956D02*
D03*
Y0370857D02*
D03*
X0288987D02*
D03*
X0287019D02*
D03*
X0285050D02*
D03*
X0283082D02*
D03*
X0281113D02*
D03*
X0279145D02*
D03*
X0277176D02*
D03*
G54D20*
X0284066Y0361408D02*
D03*
G54D21*
X0261279Y0393400D02*
D03*
X0271121D02*
D03*
G54D22*
X0186100Y0430400D02*
X0244661D01*
X0174100Y0418400D02*
X0186100Y0430400D01*
X0154200Y0388396D02*
X0164200Y0398395D01*
X0147204D02*
X0154200D01*
X0164200D02*
X0174205Y0408400D01*
X0197200D01*
X0356700Y0459400D02*
X0373200Y0442900D01*
X0363200Y0428400D02*
X0369200Y0434400D01*
Y0442400D01*
X0363200Y0418400D02*
X0373200Y0428400D01*
Y0442900D01*
X0269161Y0454900D02*
X0356700D01*
X0369200Y0442400D01*
X0154200Y0398395D02*
Y0398400D01*
X0164205Y0388400D02*
X0197200D01*
X0164200Y0388396D02*
X0164205Y0388400D01*
X0147200Y0283400D02*
Y0413400D01*
X0265200Y0459400D02*
X0356700D01*
X0147200Y0413400D02*
X0169700Y0435900D01*
X0241700D01*
X0265200Y0459400D01*
X0244661Y0430400D02*
X0269161Y0454900D01*
G54D23*
X0178938Y0325800D02*
X0179200Y0326062D01*
X0174200Y0325800D02*
X0178938D01*
X0275700Y0374900D02*
X0277176Y0373424D01*
X0270062Y0374900D02*
X0275700D01*
X0269200Y0374038D02*
X0270062Y0374900D01*
X0293515Y0360424D02*
X0305261Y0360400D01*
X0277176Y0370857D02*
Y0373424D01*
X0179200Y0336538D02*
X0184424D01*
X0174200Y0336400D02*
X0179062D01*
X0559400Y0039400D02*
Y0059683D01*
X0440500Y0040050D02*
X0700200D01*
Y0101050D01*
X0286500Y0040050D02*
Y0101050D01*
X0040000Y0040050D02*
Y0101050D01*
X0040050Y0040050D02*
X0197600D01*
X0040050D02*
Y0101050D01*
Y0101050D02*
X0700200D01*
X0040000Y0040050D02*
X0440500D01*
X0040000Y0060383D02*
X0700000D01*
X0040000Y0080717D02*
X0700200D01*
X0413200D02*
Y0101050D01*
X0497200Y0080717D02*
Y0101050D01*
G54D24*
X0221200Y0379400D02*
X0225700Y0374900D01*
X0202200Y0398400D02*
X0221200Y0379400D01*
X0225700Y0374900D02*
X0253200D01*
X0197200Y0398400D02*
X0202200D01*
G54D25*
X0275200Y0379400D02*
X0279145Y0375455D01*
X0269062Y0379400D02*
X0275200D01*
X0267413Y0381050D02*
X0269062Y0379400D01*
X0279145Y0368321D02*
Y0370857D01*
Y0375455D01*
X0260200Y0381050D02*
X0267413D01*
G54D26*
X0204200Y0346400D02*
X0238200D01*
X0202200Y0344400D02*
X0204200Y0346400D01*
X0202200Y0326400D02*
Y0344400D01*
X0238700Y0343400D02*
X0243700Y0348400D01*
X0250200D01*
X0275200D01*
X0244200Y0352400D02*
X0246318Y0354518D01*
X0238200Y0346400D02*
X0244200Y0352400D01*
X0246318Y0354518D02*
X0274617D01*
X0202200Y0326400D02*
X0207200Y0321400D01*
G54D27*
X0311216Y0360400D02*
X0317066D01*
X0260444Y0374538D02*
X0269200D01*
X0260200Y0374782D02*
X0260444Y0374538D01*
X0253318Y0374782D02*
X0260200D01*
X0184424Y0336538D02*
X0185200Y0335762D01*
X0179062Y0336400D02*
X0179200Y0336538D01*
G54D28*
X0273700Y0449400D02*
X0354863D01*
X0363200Y0441063D01*
G54D29*
X0359200Y0248400D02*
D03*
X0205200Y0296400D02*
D03*
X0147200Y0443400D02*
D03*
X0157200D02*
D03*
X0167200D02*
D03*
X0177200D02*
D03*
X0187200D02*
D03*
X0197200D02*
D03*
X0207200D02*
D03*
X0217200D02*
D03*
X0227200D02*
D03*
X0237200D02*
D03*
Y0283400D02*
D03*
X0227200D02*
D03*
X0217200D02*
D03*
X0207200D02*
D03*
X0197200D02*
D03*
X0187200D02*
D03*
X0177200D02*
D03*
X0167200D02*
D03*
X0157200D02*
D03*
X0147200D02*
D03*
X0157200Y0273400D02*
D03*
X0167200D02*
D03*
X0177200D02*
D03*
X0187200D02*
D03*
X0197200D02*
D03*
X0207200D02*
D03*
X0217200D02*
D03*
X0227200D02*
D03*
X0237200D02*
D03*
Y0453400D02*
D03*
X0227200D02*
D03*
X0217200D02*
D03*
X0207200D02*
D03*
X0197200D02*
D03*
X0187200D02*
D03*
X0177200D02*
D03*
X0167200D02*
D03*
X0157200D02*
D03*
X0147200D02*
D03*
G54D30*
X0197200Y0388400D02*
D03*
Y0398400D02*
D03*
X0207200Y0311400D02*
D03*
X0197200D02*
D03*
X0207200Y0321400D02*
D03*
X0197200D02*
D03*
X0207200Y0331400D02*
D03*
X0197200D02*
D03*
X0207200Y0341400D02*
D03*
X0197200D02*
D03*
X0207200Y0351400D02*
D03*
X0197200D02*
D03*
X0207200Y0361400D02*
D03*
X0363200Y0338400D02*
D03*
Y0368400D02*
D03*
Y0398400D02*
D03*
Y0428400D02*
D03*
Y0318400D02*
D03*
Y0308400D02*
D03*
Y0298400D02*
D03*
Y0288400D02*
D03*
X0353200Y0318400D02*
D03*
Y0308400D02*
D03*
Y0298400D02*
D03*
Y0288400D02*
D03*
X0343200Y0318400D02*
D03*
Y0308400D02*
D03*
Y0298400D02*
D03*
Y0288400D02*
D03*
X0363200Y0328400D02*
D03*
Y0348400D02*
D03*
Y0358400D02*
D03*
Y0378400D02*
D03*
Y0388400D02*
D03*
Y0408400D02*
D03*
Y0418400D02*
D03*
X0343200Y0328400D02*
D03*
Y0348400D02*
D03*
Y0358400D02*
D03*
Y0378400D02*
D03*
Y0388400D02*
D03*
Y0408400D02*
D03*
Y0418400D02*
D03*
Y0438400D02*
D03*
X0353200Y0338400D02*
D03*
Y0368400D02*
D03*
Y0398400D02*
D03*
Y0428400D02*
D03*
Y0328400D02*
D03*
Y0348400D02*
D03*
Y0358400D02*
D03*
Y0378400D02*
D03*
Y0388400D02*
D03*
Y0408400D02*
D03*
Y0418400D02*
D03*
Y0438400D02*
D03*
X0343200Y0338400D02*
D03*
Y0368400D02*
D03*
Y0398400D02*
D03*
Y0428400D02*
D03*
X0217200Y0423400D02*
D03*
X0268200Y0293900D02*
D03*
X0255200D02*
D03*
G54D31*
X0197200Y0408400D02*
D03*
Y0361400D02*
D03*
X0363200Y0438400D02*
D03*
X0268200Y0283900D02*
D03*
X0255200D02*
D03*
G54D32*
X0187200Y0471900D02*
D03*
X0202200D02*
D03*
G54D33*
X0154200Y0408395D02*
D03*
G54D34*
X0164200D02*
D03*
X0154200Y0398395D02*
D03*
X0164200D02*
D03*
X0154200Y0388396D02*
D03*
X0164200D02*
D03*
X0154200Y0378396D02*
D03*
X0164200D02*
D03*
X0154200Y0368395D02*
D03*
X0164200D02*
D03*
X0154200Y0358396D02*
D03*
X0164200D02*
D03*
X0154200Y0348395D02*
D03*
X0164200D02*
D03*
X0154200Y0338396D02*
D03*
X0164200D02*
D03*
X0154200Y0328396D02*
D03*
X0164200D02*
D03*
X0154200Y0318395D02*
D03*
X0164200D02*
D03*
G54D35*
X0373200Y0458400D02*
D03*
Y0268400D02*
D03*
G54D36*
X0255857Y0465900D02*
D03*
X0275542D02*
D03*
G54D37*
X0207200Y0423400D02*
D03*
G54D38*
X0147200Y0273400D02*
D03*
G54D39*
X0174100Y0418400D02*
D03*
G54D40*
X0174200Y0325800D02*
D03*
X0202200Y0259400D02*
D03*
X0362051Y0468400D02*
D03*
X0239700Y0323400D02*
D03*
X0236200Y0399400D02*
D03*
X0375700Y0328861D02*
D03*
X0319015Y0245900D02*
D03*
X0144200D02*
D03*
Y0481400D02*
D03*
X0231200Y0358900D02*
D03*
X0247200Y0344900D02*
D03*
X0250200Y0348400D02*
D03*
X0244200Y0352400D02*
D03*
X0227200Y0355400D02*
D03*
X0223200Y0350400D02*
D03*
X0317066Y0360400D02*
D03*
X0271200Y0412400D02*
D03*
X0261200Y0412400D02*
D03*
X0332200Y0432300D02*
D03*
X0329100Y0422500D02*
D03*
X0332500Y0412300D02*
D03*
X0329200Y0402315D02*
D03*
X0332300Y0392400D02*
D03*
X0329000Y0382500D02*
D03*
X0332500Y0372600D02*
D03*
X0332400Y0352600D02*
D03*
X0329000Y0342800D02*
D03*
X0332400Y0332600D02*
D03*
Y0312700D02*
D03*
X0329100Y0302700D02*
D03*
X0332200Y0292700D02*
D03*
X0328900Y0322600D02*
D03*
X0253200Y0374900D02*
D03*
X0375606Y0388900D02*
D03*
X0299257Y0432193D02*
D03*
X0184200Y0378400D02*
D03*
X0241200Y0370900D02*
D03*
X0255200Y0380900D02*
D03*
X0266200D02*
D03*
X0144000Y0432300D02*
D03*
X0305583Y0478400D02*
D03*
X0174200Y0336400D02*
D03*
X0272700Y0432400D02*
D03*
Y0323400D02*
D03*
X0184200Y0398400D02*
D03*
X0295700Y0295700D02*
D03*
X0275200Y0250900D02*
D03*
G54D41*
X0284066Y0367215D02*
D03*
X0278259Y0361408D02*
D03*
X0284066D02*
D03*
X0289873D02*
D03*
X0284066Y0355601D02*
D03*
M02*
