M48
;Layer_Color=9474304
;FILE_FORMAT=2:5
INCH
;TYPE=PLATED
T1F00S00C0.00787
T2F00S00C0.01600
T3F00S00C0.02800
T4F00S00C0.03543
T5F00S00C0.03799
T6F00S00C0.03937
T7F00S00C0.04000
T8F00S00C0.11024
%
T01
X0284066Y0355601
Y0361408
Y0367215
X0278259Y0361408
X0289873
T02
X0319015Y0245900
X0332200Y0292700
X0329100Y0302700
X0295700Y0295700
X0275200Y0250900
X0202200Y0259400
X0144200Y0245900
X0144000Y0432300
X0184200Y0398400
Y0378400
X0174200Y0336400
Y0325800
X0239700Y0323400
X0247200Y0344900
X0250200Y0348400
X0244200Y0352400
X0231200Y0358900
X0227200Y0355400
X0223200Y0350400
X0241200Y0370900
X0253200Y0374900
X0255200Y0380900
X0266200
X0261200Y0412400
X0271200Y0412400
X0272700Y0432400
X0299257Y0432193
X0236200Y0399400
X0272700Y0323400
X0328900Y0322600
X0332400Y0312700
Y0332600
X0329000Y0342800
X0332400Y0352600
X0332500Y0372600
X0329000Y0382500
X0332300Y0392400
X0329200Y0402315
X0332500Y0412300
X0329100Y0422500
X0332200Y0432300
X0362051Y0468400
X0375606Y0388900
X0375700Y0328861
X0317066Y0360400
X0305583Y0478400
X0144200Y0481400
T03
X0174100Y0418400
T04
X0154200Y0318395
Y0328396
Y0338396
Y0348395
Y0358396
Y0368395
Y0378396
Y0388396
Y0398395
Y0408395
X0164200
Y0398395
Y0388396
Y0378396
Y0368395
Y0358396
Y0348395
Y0338396
Y0328396
Y0318395
T05
X0187200Y0471900
X0202200
T06
X0343200Y0288400
X0353200
X0363200
Y0298400
Y0308400
X0353200
Y0298400
X0343200
Y0308400
X0275542Y0465900
X0255857
X0343200Y0438400
X0353200
X0363200
Y0428400
Y0418400
Y0408400
Y0398400
Y0388400
Y0378400
Y0368400
Y0358400
Y0348400
Y0338400
Y0328400
Y0318400
X0353200
X0343200
Y0328400
X0353200
Y0338400
Y0348400
X0343200
Y0358400
X0353200
Y0368400
Y0378400
X0343200
Y0388400
X0353200
Y0398400
Y0408400
X0343200
Y0418400
X0353200
Y0428400
X0343200
Y0398400
Y0368400
Y0338400
T07
X0359200Y0248400
X0268200Y0283900
Y0293900
X0255200
Y0283900
X0237200Y0283400
X0227200
X0217200
X0207200
X0197200
X0187200
X0177200
X0167200
X0157200
Y0273400
X0167200
X0177200
X0187200
X0197200
X0207200
X0217200
X0227200
X0237200
X0205200Y0296400
X0207200Y0311400
X0197200
X0147200Y0283400
Y0273400
Y0443400
Y0453400
X0157200
Y0443400
X0167200
X0177200
X0187200
X0197200
X0207200
X0217200
X0227200
X0237200
Y0453400
X0227200
X0217200
X0207200
X0197200
X0187200
X0177200
X0167200
X0207200Y0423400
X0217200
X0197200Y0408400
Y0398400
Y0388400
Y0361400
Y0351400
Y0341400
Y0331400
Y0321400
X0207200
Y0331400
Y0341400
Y0351400
Y0361400
T08
X0373200Y0268400
Y0458400
M30
