<?xml version="1.0" standalone="yes"?>

<svg version="1.1" viewBox="0.0 0.0 325.37007874015745 265.1076115485564" fill="none" stroke="none" stroke-linecap="square" stroke-miterlimit="10" xmlns="http://www.w3.org/2000/svg" xmlns:xlink="http://www.w3.org/1999/xlink"><clipPath id="p.0"><path d="m0 0l325.3701 0l0 265.1076l-325.3701 0l0 -265.1076z" clip-rule="nonzero"></path></clipPath><g clip-path="url(#p.0)"><path fill="#000000" fill-opacity="0.0" d="m0 0l325.3701 0l0 265.1076l-325.3701 0z" fill-rule="nonzero"></path><path fill="#ffffff" d="m2.1922288 1.6246719l319.55905 0l0 261.85828l-319.55905 0z" fill-rule="nonzero"></path><path stroke="#000000" stroke-width="1.0" stroke-linejoin="round" stroke-linecap="butt" d="m2.1922288 1.6246719l319.55905 0l0 261.85828l-319.55905 0z" fill-rule="nonzero"></path><path fill="#000000" fill-opacity="0.0" d="m143.31139 156.6162l0.03149414 105.25984" fill-rule="nonzero"></path><path stroke="#000000" stroke-width="1.0" stroke-linejoin="round" stroke-linecap="butt" d="m143.31139 156.6162l0.03149414 105.25984" fill-rule="nonzero"></path><path fill="#cfe2f3" d="m30.679121 187.92337l136.56671 13.818329l-0.15258789 1.2980804l-136.56671 -13.818329z" fill-rule="nonzero"></path><path fill="#a5b4c2" d="m167.24583 201.7417l123.91063 -99.48087l-0.15258789 1.2980804l-123.91063 99.48087z" fill-rule="nonzero"></path><path fill="#d8e7f5" d="m30.679121 187.92337l123.91063 -99.480865l136.56671 13.818321l-123.91063 99.48087z" fill-rule="nonzero"></path><path fill="#000000" fill-opacity="0.0" d="m30.679121 187.92337l123.91063 -99.480865l136.56671 13.818321l-0.15258789 1.2980804l-123.91063 99.48087l-136.56671 -13.818329zm0 0l136.56671 13.818329l123.91063 -99.48087m-123.91063 99.48087l-0.15258789 1.2980804" fill-rule="nonzero"></path><path stroke="#000000" stroke-width="1.0" stroke-linejoin="round" stroke-linecap="butt" d="m30.679121 187.92337l123.91063 -99.480865l136.56671 13.818321l-0.15258789 1.2980804l-123.91063 99.48087l-136.56671 -13.818329zm0 0l136.56671 13.818329l123.91063 -99.48087m-123.91063 99.48087l-0.15258789 1.2980804" fill-rule="nonzero"></path><path fill="#000000" d="m160.39088 175.381l11.160889 0.9483185l-0.7370453 7.472412l-11.160889 -0.9483032z" fill-rule="nonzero"></path><path fill="#000000" d="m171.55177 176.32932l24.794983 -20.625504l-0.7370453 7.4724274l-24.794983 20.625488z" fill-rule="nonzero"></path><path fill="#333333" d="m160.39088 175.381l24.794983 -20.625488l11.160889 0.9483032l-24.794983 20.625504z" fill-rule="nonzero"></path><path fill="#000000" fill-opacity="0.0" d="m160.39088 175.381l24.794983 -20.625488l11.160889 0.9483032l-0.7370453 7.4724274l-24.794983 20.625488l-11.160889 -0.9483032zm0 0l11.160889 0.9483185l24.794983 -20.625504m-24.794983 20.625504l-0.7370453 7.472412" fill-rule="nonzero"></path><path stroke="#000000" stroke-width="1.0" stroke-linejoin="round" stroke-linecap="butt" d="m160.39088 175.381l24.794983 -20.625488l11.160889 0.9483032l-0.7370453 7.4724274l-24.794983 20.625488l-11.160889 -0.9483032zm0 0l11.160889 0.9483185l24.794983 -20.625504m-24.794983 20.625504l-0.7370453 7.472412" fill-rule="nonzero"></path><path fill="#000000" d="m57.788563 165.22737l11.1608925 0.9483185l-0.7370529 7.472412l-11.160889 -0.9483032z" fill-rule="nonzero"></path><path fill="#000000" d="m68.949455 166.17569l24.794975 -20.625504l-0.7370529 7.4724274l-24.794975 20.625488z" fill-rule="nonzero"></path><path fill="#333333" d="m57.788563 165.22737l24.794971 -20.625488l11.160896 0.9483032l-24.794975 20.625504z" fill-rule="nonzero"></path><path fill="#000000" fill-opacity="0.0" d="m57.788563 165.22737l24.794971 -20.625488l11.160896 0.9483032l-0.7370529 7.4724274l-24.794975 20.625488l-11.160889 -0.9483032zm0 0l11.1608925 0.9483185l24.794975 -20.625504m-24.794975 20.625504l-0.7370529 7.472412" fill-rule="nonzero"></path><path stroke="#000000" stroke-width="1.0" stroke-linejoin="round" stroke-linecap="butt" d="m57.788563 165.22737l24.794971 -20.625488l11.160896 0.9483032l-0.7370529 7.4724274l-24.794975 20.625488l-11.160889 -0.9483032zm0 0l11.1608925 0.9483185l24.794975 -20.625504m-24.794975 20.625504l-0.7370529 7.472412" fill-rule="nonzero"></path><path fill="#cc0000" d="m42.60747 166.79652l126.76285 12.8168335l-0.3801422 3.2162933l-126.76285 -12.8168335z" fill-rule="nonzero"></path><path fill="#a30000" d="m169.37032 179.61336l45.64441 -36.62416l-0.3801422 3.2162933l-45.64441 36.62416z" fill-rule="nonzero"></path><path fill="#d63333" d="m42.60747 166.79652l45.644413 -36.624176l126.76284 12.816849l-45.64441 36.62416z" fill-rule="nonzero"></path><path fill="#000000" fill-opacity="0.0" d="m42.60747 166.79652l45.644413 -36.624176l126.76284 12.816849l-0.3801422 3.2162933l-45.64441 36.62416l-126.76285 -12.8168335zm0 0l126.76285 12.8168335l45.64441 -36.62416m-45.64441 36.62416l-0.3801422 3.2162933" fill-rule="nonzero"></path><path stroke="#000000" stroke-width="1.0" stroke-linejoin="round" stroke-linecap="butt" d="m42.60747 166.79652l45.644413 -36.624176l126.76284 12.816849l-0.3801422 3.2162933l-45.64441 36.62416l-126.76285 -12.8168335zm0 0l126.76285 12.8168335l45.64441 -36.62416m-45.64441 36.62416l-0.3801422 3.2162933" fill-rule="nonzero"></path><path fill="#efefef" d="m80.73675 143.36432l0 0c0 -0.8300171 1.1813202 -1.5028839 2.6385574 -1.5028839l0 0c1.4572372 0 2.6385574 0.6728668 2.6385574 1.5028839l0 0c0 0.83000183 -1.1813202 1.5028687 -2.6385574 1.5028687l0 0c-1.4572372 0 -2.6385574 -0.6728668 -2.6385574 -1.5028687z" fill-rule="nonzero"></path><path fill="#f1c232" d="m84.59413 132.5313l0 0c0 0.44612122 -0.5456848 0.8077545 -1.2188263 0.8077545c-0.6731415 0 -1.2188263 -0.3616333 -1.2188263 -0.8077545l0 10.034897c0 0.44612122 0.5456848 0.8077545 1.2188263 0.8077545c0.6731415 0 1.2188263 -0.3616333 1.2188263 -0.8077545z" fill-rule="nonzero"></path><path fill="#f6da84" d="m84.59413 132.5313l0 0c0 -0.44610596 -0.5456848 -0.8077545 -1.2188263 -0.8077545c-0.6731415 0 -1.2188263 0.36164856 -1.2188263 0.8077545l0 0c0 0.44612122 0.5456848 0.8077545 1.2188263 0.8077545c0.6731415 0 1.2188263 -0.3616333 1.2188263 -0.8077545z" fill-rule="nonzero"></path><path fill="#000000" fill-opacity="0.0" d="m82.15648 132.5313l0 0c0 0.44612122 0.5456848 0.8077545 1.2188263 0.8077545c0.6731415 0 1.2188263 -0.3616333 1.2188263 -0.8077545l0 0c0 -0.44610596 -0.5456848 -0.8077545 -1.2188263 -0.8077545c-0.6731415 0 -1.2188263 0.36164856 -1.2188263 0.8077545l0 10.034897c0 0.44612122 0.5456848 0.8077545 1.2188263 0.8077545c0.6731415 0 1.2188263 -0.3616333 1.2188263 -0.8077545l0 -10.034897" fill-rule="nonzero"></path><path stroke="#000000" stroke-width="1.0" stroke-linejoin="round" stroke-linecap="butt" d="m82.15648 132.5313l0 0c0 0.44612122 0.5456848 0.8077545 1.2188263 0.8077545c0.6731415 0 1.2188263 -0.3616333 1.2188263 -0.8077545l0 0c0 -0.44610596 -0.5456848 -0.8077545 -1.2188263 -0.8077545c-0.6731415 0 -1.2188263 0.36164856 -1.2188263 0.8077545l0 10.034897c0 0.44612122 0.5456848 0.8077545 1.2188263 0.8077545c0.6731415 0 1.2188263 -0.3616333 1.2188263 -0.8077545l0 -10.034897" fill-rule="nonzero"></path><path fill="#efefef" d="m84.518196 144.0249l0 0c0 -0.8300171 1.1813202 -1.5028687 2.6385574 -1.5028687l0 0c1.4572372 0 2.6385574 0.67285156 2.6385574 1.5028687l0 0c0 0.8300171 -1.1813202 1.5028839 -2.6385574 1.5028839l0 0c-1.4572372 0 -2.6385574 -0.6728668 -2.6385574 -1.5028839z" fill-rule="nonzero"></path><path fill="#f1c232" d="m88.37558 133.1919l0 0c0 0.44610596 -0.5456848 0.8077545 -1.2188263 0.8077545c-0.6731415 0 -1.2188263 -0.36164856 -1.2188263 -0.8077545l0 10.034897c0 0.44610596 0.5456848 0.8077545 1.2188263 0.8077545c0.6731415 0 1.2188263 -0.36164856 1.2188263 -0.8077545z" fill-rule="nonzero"></path><path fill="#f6da84" d="m88.37558 133.1919l0 0c0 -0.44610596 -0.5456848 -0.8077545 -1.2188263 -0.8077545c-0.6731415 0 -1.2188263 0.36164856 -1.2188263 0.8077545l0 0c0 0.44610596 0.5456848 0.8077545 1.2188263 0.8077545c0.6731415 0 1.2188263 -0.36164856 1.2188263 -0.8077545z" fill-rule="nonzero"></path><path fill="#000000" fill-opacity="0.0" d="m85.93793 133.1919l0 0c0 0.44610596 0.5456848 0.8077545 1.2188263 0.8077545c0.6731415 0 1.2188263 -0.36164856 1.2188263 -0.8077545l0 0c0 -0.44610596 -0.5456848 -0.8077545 -1.2188263 -0.8077545c-0.6731415 0 -1.2188263 0.36164856 -1.2188263 0.8077545l0 10.034897c0 0.44610596 0.5456848 0.8077545 1.2188263 0.8077545c0.6731415 0 1.2188263 -0.36164856 1.2188263 -0.8077545l0 -10.034897" fill-rule="nonzero"></path><path stroke="#000000" stroke-width="1.0" stroke-linejoin="round" stroke-linecap="butt" d="m85.93793 133.1919l0 0c0 0.44610596 0.5456848 0.8077545 1.2188263 0.8077545c0.6731415 0 1.2188263 -0.36164856 1.2188263 -0.8077545l0 0c0 -0.44610596 -0.5456848 -0.8077545 -1.2188263 -0.8077545c-0.6731415 0 -1.2188263 0.36164856 -1.2188263 0.8077545l0 10.034897c0 0.44610596 0.5456848 0.8077545 1.2188263 0.8077545c0.6731415 0 1.2188263 -0.36164856 1.2188263 -0.8077545l0 -10.034897" fill-rule="nonzero"></path><path fill="#efefef" d="m78.291 145.43375l0 0c0 -0.8300171 1.1813202 -1.5028839 2.6385574 -1.5028839l0 0c1.4572372 0 2.6385574 0.6728668 2.6385574 1.5028839l0 0c0 0.8300171 -1.1813202 1.5028687 -2.6385574 1.5028687l0 0c-1.4572372 0 -2.6385574 -0.67285156 -2.6385574 -1.5028687z" fill-rule="nonzero"></path><path fill="#f1c232" d="m82.148384 134.60074l0 0c0 0.44610596 -0.5456848 0.80773926 -1.2188263 0.80773926c-0.67313385 0 -1.2188263 -0.3616333 -1.2188263 -0.80773926l0 10.034897c0 0.44610596 0.54569244 0.80773926 1.2188263 0.80773926c0.6731415 0 1.2188263 -0.3616333 1.2188263 -0.80773926z" fill-rule="nonzero"></path><path fill="#f6da84" d="m82.148384 134.60074l0 0c0 -0.44612122 -0.5456848 -0.8077545 -1.2188263 -0.8077545c-0.67313385 0 -1.2188263 0.3616333 -1.2188263 0.8077545l0 0c0 0.44610596 0.54569244 0.80773926 1.2188263 0.80773926c0.6731415 0 1.2188263 -0.3616333 1.2188263 -0.80773926z" fill-rule="nonzero"></path><path fill="#000000" fill-opacity="0.0" d="m79.71073 134.60074l0 0c0 0.44610596 0.54569244 0.80773926 1.2188263 0.80773926c0.6731415 0 1.2188263 -0.3616333 1.2188263 -0.80773926l0 0c0 -0.44612122 -0.5456848 -0.8077545 -1.2188263 -0.8077545c-0.67313385 0 -1.2188263 0.3616333 -1.2188263 0.8077545l0 10.034897c0 0.44610596 0.54569244 0.80773926 1.2188263 0.80773926c0.6731415 0 1.2188263 -0.3616333 1.2188263 -0.80773926l0 -10.034897" fill-rule="nonzero"></path><path stroke="#000000" stroke-width="1.0" stroke-linejoin="round" stroke-linecap="butt" d="m79.71073 134.60074l0 0c0 0.44610596 0.54569244 0.80773926 1.2188263 0.80773926c0.6731415 0 1.2188263 -0.3616333 1.2188263 -0.80773926l0 0c0 -0.44612122 -0.5456848 -0.8077545 -1.2188263 -0.8077545c-0.67313385 0 -1.2188263 0.3616333 -1.2188263 0.8077545l0 10.034897c0 0.44610596 0.54569244 0.80773926 1.2188263 0.80773926c0.6731415 0 1.2188263 -0.3616333 1.2188263 -0.80773926l0 -10.034897" fill-rule="nonzero"></path><path fill="#efefef" d="m82.07245 146.09435l0 0c0 -0.8300171 1.1813202 -1.5028839 2.6385574 -1.5028839l0 0c1.4572372 0 2.6385574 0.6728668 2.6385574 1.5028839l0 0c0 0.83000183 -1.1813202 1.5028687 -2.6385574 1.5028687l0 0c-1.4572372 0 -2.6385574 -0.6728668 -2.6385574 -1.5028687z" fill-rule="nonzero"></path><path fill="#f1c232" d="m85.92983 135.26132l0 0c0 0.44612122 -0.5456848 0.8077545 -1.2188263 0.8077545c-0.67313385 0 -1.2188263 -0.3616333 -1.2188263 -0.8077545l0 10.034897c0 0.44612122 0.54569244 0.8077545 1.2188263 0.8077545c0.6731415 0 1.2188263 -0.3616333 1.2188263 -0.8077545z" fill-rule="nonzero"></path><path fill="#f6da84" d="m85.92983 135.26132l0 0c0 -0.44610596 -0.5456848 -0.8077545 -1.2188263 -0.8077545c-0.67313385 0 -1.2188263 0.36164856 -1.2188263 0.8077545l0 0c0 0.44612122 0.54569244 0.8077545 1.2188263 0.8077545c0.6731415 0 1.2188263 -0.3616333 1.2188263 -0.8077545z" fill-rule="nonzero"></path><path fill="#000000" fill-opacity="0.0" d="m83.49218 135.26132l0 0c0 0.44612122 0.54569244 0.8077545 1.2188263 0.8077545c0.6731415 0 1.2188263 -0.3616333 1.2188263 -0.8077545l0 0c0 -0.44610596 -0.5456848 -0.8077545 -1.2188263 -0.8077545c-0.67313385 0 -1.2188263 0.36164856 -1.2188263 0.8077545l0 10.034897c0 0.44612122 0.54569244 0.8077545 1.2188263 0.8077545c0.6731415 0 1.2188263 -0.3616333 1.2188263 -0.8077545l0 -10.034897" fill-rule="nonzero"></path><path stroke="#000000" stroke-width="1.0" stroke-linejoin="round" stroke-linecap="butt" d="m83.49218 135.26132l0 0c0 0.44612122 0.54569244 0.8077545 1.2188263 0.8077545c0.6731415 0 1.2188263 -0.3616333 1.2188263 -0.8077545l0 0c0 -0.44610596 -0.5456848 -0.8077545 -1.2188263 -0.8077545c-0.67313385 0 -1.2188263 0.36164856 -1.2188263 0.8077545l0 10.034897c0 0.44612122 0.54569244 0.8077545 1.2188263 0.8077545c0.6731415 0 1.2188263 -0.3616333 1.2188263 -0.8077545l0 -10.034897" fill-rule="nonzero"></path><path fill="#efefef" d="m75.84581 147.35542l0 0c0 -0.8300171 1.1813278 -1.5028839 2.638565 -1.5028839l0 0c1.4572296 0 2.6385574 0.6728668 2.6385574 1.5028839l0 0c0 0.8300171 -1.1813278 1.5028839 -2.6385574 1.5028839l0 0c-1.4572372 0 -2.638565 -0.6728668 -2.638565 -1.5028839z" fill-rule="nonzero"></path><path fill="#f1c232" d="m79.7032 136.52242l0 0c0 0.44610596 -0.54569244 0.8077545 -1.2188263 0.8077545c-0.6731415 0 -1.2188263 -0.36164856 -1.2188263 -0.8077545l0 10.034897c0 0.44610596 0.5456848 0.8077545 1.2188263 0.8077545c0.67313385 0 1.2188263 -0.36164856 1.2188263 -0.8077545z" fill-rule="nonzero"></path><path fill="#f6da84" d="m79.7032 136.52242l0 0c0 -0.44610596 -0.54569244 -0.8077545 -1.2188263 -0.8077545c-0.6731415 0 -1.2188263 0.36164856 -1.2188263 0.8077545l0 0c0 0.44610596 0.5456848 0.8077545 1.2188263 0.8077545c0.67313385 0 1.2188263 -0.36164856 1.2188263 -0.8077545z" fill-rule="nonzero"></path><path fill="#000000" fill-opacity="0.0" d="m77.26555 136.52242l0 0c0 0.44610596 0.5456848 0.8077545 1.2188263 0.8077545c0.67313385 0 1.2188263 -0.36164856 1.2188263 -0.8077545l0 0c0 -0.44610596 -0.54569244 -0.8077545 -1.2188263 -0.8077545c-0.6731415 0 -1.2188263 0.36164856 -1.2188263 0.8077545l0 10.034897c0 0.44610596 0.5456848 0.8077545 1.2188263 0.8077545c0.67313385 0 1.2188263 -0.36164856 1.2188263 -0.8077545l0 -10.034897" fill-rule="nonzero"></path><path stroke="#000000" stroke-width="1.0" stroke-linejoin="round" stroke-linecap="butt" d="m77.26555 136.52242l0 0c0 0.44610596 0.5456848 0.8077545 1.2188263 0.8077545c0.67313385 0 1.2188263 -0.36164856 1.2188263 -0.8077545l0 0c0 -0.44610596 -0.54569244 -0.8077545 -1.2188263 -0.8077545c-0.6731415 0 -1.2188263 0.36164856 -1.2188263 0.8077545l0 10.034897c0 0.44610596 0.5456848 0.8077545 1.2188263 0.8077545c0.67313385 0 1.2188263 -0.36164856 1.2188263 -0.8077545l0 -10.034897" fill-rule="nonzero"></path><path fill="#efefef" d="m79.62726 148.01602l0 0c0 -0.8300171 1.1813278 -1.5028839 2.638565 -1.5028839l0 0c1.4572296 0 2.6385574 0.6728668 2.6385574 1.5028839l0 0c0 0.8300171 -1.1813278 1.5028687 -2.6385574 1.5028687l0 0c-1.4572372 0 -2.638565 -0.67285156 -2.638565 -1.5028687z" fill-rule="nonzero"></path><path fill="#f1c232" d="m83.48465 137.18301l0 0c0 0.44610596 -0.54569244 0.80773926 -1.2188263 0.80773926c-0.6731415 0 -1.2188263 -0.3616333 -1.2188263 -0.80773926l0 10.034897c0 0.44610596 0.5456848 0.80773926 1.2188263 0.80773926c0.67313385 0 1.2188263 -0.3616333 1.2188263 -0.80773926z" fill-rule="nonzero"></path><path fill="#f6da84" d="m83.48465 137.18301l0 0c0 -0.44612122 -0.54569244 -0.8077545 -1.2188263 -0.8077545c-0.6731415 0 -1.2188263 0.3616333 -1.2188263 0.8077545l0 0c0 0.44610596 0.5456848 0.80773926 1.2188263 0.80773926c0.67313385 0 1.2188263 -0.3616333 1.2188263 -0.80773926z" fill-rule="nonzero"></path><path fill="#000000" fill-opacity="0.0" d="m81.047 137.18301l0 0c0 0.44610596 0.5456848 0.80773926 1.2188263 0.80773926c0.67313385 0 1.2188263 -0.3616333 1.2188263 -0.80773926l0 0c0 -0.44612122 -0.54569244 -0.8077545 -1.2188263 -0.8077545c-0.6731415 0 -1.2188263 0.3616333 -1.2188263 0.8077545l0 10.034897c0 0.44610596 0.5456848 0.80773926 1.2188263 0.80773926c0.67313385 0 1.2188263 -0.3616333 1.2188263 -0.80773926l0 -10.034897" fill-rule="nonzero"></path><path stroke="#000000" stroke-width="1.0" stroke-linejoin="round" stroke-linecap="butt" d="m81.047 137.18301l0 0c0 0.44610596 0.5456848 0.80773926 1.2188263 0.80773926c0.67313385 0 1.2188263 -0.3616333 1.2188263 -0.80773926l0 0c0 -0.44612122 -0.54569244 -0.8077545 -1.2188263 -0.8077545c-0.6731415 0 -1.2188263 0.3616333 -1.2188263 0.8077545l0 10.034897c0 0.44610596 0.5456848 0.80773926 1.2188263 0.80773926c0.67313385 0 1.2188263 -0.3616333 1.2188263 -0.80773926l0 -10.034897" fill-rule="nonzero"></path><path fill="#efefef" d="m73.40007 149.42485l0 0c0 -0.8300171 1.1813202 -1.5028687 2.6385574 -1.5028687l0 0c1.4572372 0 2.6385574 0.67285156 2.6385574 1.5028687l0 0c0 0.8300171 -1.1813202 1.5028839 -2.6385574 1.5028839l0 0c-1.4572372 0 -2.6385574 -0.6728668 -2.6385574 -1.5028839z" fill-rule="nonzero"></path><path fill="#f1c232" d="m77.2043 138.29608l0 0c0 0.44610596 -0.54569244 0.8077545 -1.2188263 0.8077545c-0.6731415 0 -1.2188263 -0.36164856 -1.2188263 -0.8077545l0 10.034897c0 0.44610596 0.5456848 0.8077545 1.2188263 0.8077545c0.67313385 0 1.2188263 -0.36164856 1.2188263 -0.8077545z" fill-rule="nonzero"></path><path fill="#f6da84" d="m77.2043 138.29608l0 0c0 -0.44610596 -0.54569244 -0.8077545 -1.2188263 -0.8077545c-0.6731415 0 -1.2188263 0.36164856 -1.2188263 0.8077545l0 0c0 0.44610596 0.5456848 0.8077545 1.2188263 0.8077545c0.67313385 0 1.2188263 -0.36164856 1.2188263 -0.8077545z" fill-rule="nonzero"></path><path fill="#000000" fill-opacity="0.0" d="m74.76665 138.29608l0 0c0 0.44610596 0.5456848 0.8077545 1.2188263 0.8077545c0.67313385 0 1.2188263 -0.36164856 1.2188263 -0.8077545l0 0c0 -0.44610596 -0.54569244 -0.8077545 -1.2188263 -0.8077545c-0.6731415 0 -1.2188263 0.36164856 -1.2188263 0.8077545l0 10.034897c0 0.44610596 0.5456848 0.8077545 1.2188263 0.8077545c0.67313385 0 1.2188263 -0.36164856 1.2188263 -0.8077545l0 -10.034897" fill-rule="nonzero"></path><path stroke="#000000" stroke-width="1.0" stroke-linejoin="round" stroke-linecap="butt" d="m74.76665 138.29608l0 0c0 0.44610596 0.5456848 0.8077545 1.2188263 0.8077545c0.67313385 0 1.2188263 -0.36164856 1.2188263 -0.8077545l0 0c0 -0.44610596 -0.54569244 -0.8077545 -1.2188263 -0.8077545c-0.6731415 0 -1.2188263 0.36164856 -1.2188263 0.8077545l0 10.034897c0 0.44610596 0.5456848 0.8077545 1.2188263 0.8077545c0.67313385 0 1.2188263 -0.36164856 1.2188263 -0.8077545l0 -10.034897" fill-rule="nonzero"></path><path fill="#efefef" d="m77.18152 150.08545l0 0c0 -0.8300171 1.1813202 -1.5028839 2.6385574 -1.5028839l0 0c1.4572372 0 2.6385574 0.6728668 2.6385574 1.5028839l0 0c0 0.8300171 -1.1813202 1.5028839 -2.6385574 1.5028839l0 0c-1.4572372 0 -2.6385574 -0.6728668 -2.6385574 -1.5028839z" fill-rule="nonzero"></path><path fill="#f1c232" d="m81.0389 139.25244l0 0c0 0.44610596 -0.5456848 0.8077545 -1.2188263 0.8077545c-0.6731415 0 -1.2188263 -0.36164856 -1.2188263 -0.8077545l0 10.034897c0 0.44610596 0.5456848 0.8077545 1.2188263 0.8077545c0.6731415 0 1.2188263 -0.36164856 1.2188263 -0.8077545z" fill-rule="nonzero"></path><path fill="#f6da84" d="m81.0389 139.25244l0 0c0 -0.44610596 -0.5456848 -0.8077545 -1.2188263 -0.8077545c-0.6731415 0 -1.2188263 0.36164856 -1.2188263 0.8077545l0 0c0 0.44610596 0.5456848 0.8077545 1.2188263 0.8077545c0.6731415 0 1.2188263 -0.36164856 1.2188263 -0.8077545z" fill-rule="nonzero"></path><path fill="#000000" fill-opacity="0.0" d="m78.60125 139.25244l0 0c0 0.44610596 0.5456848 0.8077545 1.2188263 0.8077545c0.6731415 0 1.2188263 -0.36164856 1.2188263 -0.8077545l0 0c0 -0.44610596 -0.5456848 -0.8077545 -1.2188263 -0.8077545c-0.6731415 0 -1.2188263 0.36164856 -1.2188263 0.8077545l0 10.034897c0 0.44610596 0.5456848 0.8077545 1.2188263 0.8077545c0.6731415 0 1.2188263 -0.36164856 1.2188263 -0.8077545l0 -10.034897" fill-rule="nonzero"></path><path stroke="#000000" stroke-width="1.0" stroke-linejoin="round" stroke-linecap="butt" d="m78.60125 139.25244l0 0c0 0.44610596 0.5456848 0.8077545 1.2188263 0.8077545c0.6731415 0 1.2188263 -0.36164856 1.2188263 -0.8077545l0 0c0 -0.44610596 -0.5456848 -0.8077545 -1.2188263 -0.8077545c-0.6731415 0 -1.2188263 0.36164856 -1.2188263 0.8077545l0 10.034897c0 0.44610596 0.5456848 0.8077545 1.2188263 0.8077545c0.6731415 0 1.2188263 -0.36164856 1.2188263 -0.8077545l0 -10.034897" fill-rule="nonzero"></path><path fill="#efefef" d="m70.691055 151.34317l0 0c0 -0.8300171 1.1813202 -1.5028839 2.6385574 -1.5028839l0 0c1.4572372 0 2.6385574 0.6728668 2.6385574 1.5028839l0 0c0 0.8300171 -1.1813202 1.5028839 -2.6385574 1.5028839l0 0c-1.4572372 0 -2.6385574 -0.6728668 -2.6385574 -1.5028839z" fill-rule="nonzero"></path><path fill="#f1c232" d="m74.54844 140.51016l0 0c0 0.44610596 -0.5456848 0.8077545 -1.2188263 0.8077545c-0.6731415 0 -1.2188263 -0.36164856 -1.2188263 -0.8077545l0 10.034897c0 0.44610596 0.5456848 0.8077545 1.2188263 0.8077545c0.6731415 0 1.2188263 -0.36164856 1.2188263 -0.8077545z" fill-rule="nonzero"></path><path fill="#f6da84" d="m74.54844 140.51016l0 0c0 -0.44610596 -0.5456848 -0.8077545 -1.2188263 -0.8077545c-0.6731415 0 -1.2188263 0.36164856 -1.2188263 0.8077545l0 0c0 0.44610596 0.5456848 0.8077545 1.2188263 0.8077545c0.6731415 0 1.2188263 -0.36164856 1.2188263 -0.8077545z" fill-rule="nonzero"></path><path fill="#000000" fill-opacity="0.0" d="m72.11079 140.51016l0 0c0 0.44610596 0.5456848 0.8077545 1.2188263 0.8077545c0.6731415 0 1.2188263 -0.36164856 1.2188263 -0.8077545l0 0c0 -0.44610596 -0.5456848 -0.8077545 -1.2188263 -0.8077545c-0.6731415 0 -1.2188263 0.36164856 -1.2188263 0.8077545l0 10.034897c0 0.44610596 0.5456848 0.8077545 1.2188263 0.8077545c0.6731415 0 1.2188263 -0.36164856 1.2188263 -0.8077545l0 -10.034897" fill-rule="nonzero"></path><path stroke="#000000" stroke-width="1.0" stroke-linejoin="round" stroke-linecap="butt" d="m72.11079 140.51016l0 0c0 0.44610596 0.5456848 0.8077545 1.2188263 0.8077545c0.6731415 0 1.2188263 -0.36164856 1.2188263 -0.8077545l0 0c0 -0.44610596 -0.5456848 -0.8077545 -1.2188263 -0.8077545c-0.6731415 0 -1.2188263 0.36164856 -1.2188263 0.8077545l0 10.034897c0 0.44610596 0.5456848 0.8077545 1.2188263 0.8077545c0.6731415 0 1.2188263 -0.36164856 1.2188263 -0.8077545l0 -10.034897" fill-rule="nonzero"></path><path fill="#efefef" d="m74.4725 152.00377l0 0c0 -0.8300171 1.1813202 -1.5028839 2.6385574 -1.5028839l0 0c1.4572372 0 2.6385574 0.6728668 2.6385574 1.5028839l0 0c0 0.8300171 -1.1813202 1.5028687 -2.6385574 1.5028687l0 0c-1.4572372 0 -2.6385574 -0.67285156 -2.6385574 -1.5028687z" fill-rule="nonzero"></path><path fill="#f1c232" d="m78.32989 141.17076l0 0c0 0.44610596 -0.5456848 0.8077545 -1.2188263 0.8077545c-0.6731415 0 -1.2188263 -0.36164856 -1.2188263 -0.8077545l0 10.034897c0 0.44610596 0.5456848 0.8077545 1.2188263 0.8077545c0.6731415 0 1.2188263 -0.36164856 1.2188263 -0.8077545z" fill-rule="nonzero"></path><path fill="#f6da84" d="m78.32989 141.17076l0 0c0 -0.44612122 -0.5456848 -0.8077545 -1.2188263 -0.8077545c-0.6731415 0 -1.2188263 0.3616333 -1.2188263 0.8077545l0 0c0 0.44610596 0.5456848 0.8077545 1.2188263 0.8077545c0.6731415 0 1.2188263 -0.36164856 1.2188263 -0.8077545z" fill-rule="nonzero"></path><path fill="#000000" fill-opacity="0.0" d="m75.892235 141.17076l0 0c0 0.44610596 0.5456848 0.8077545 1.2188263 0.8077545c0.6731415 0 1.2188263 -0.36164856 1.2188263 -0.8077545l0 0c0 -0.44612122 -0.5456848 -0.8077545 -1.2188263 -0.8077545c-0.6731415 0 -1.2188263 0.3616333 -1.2188263 0.8077545l0 10.034897c0 0.44610596 0.5456848 0.8077545 1.2188263 0.8077545c0.6731415 0 1.2188263 -0.36164856 1.2188263 -0.8077545l0 -10.034897" fill-rule="nonzero"></path><path stroke="#000000" stroke-width="1.0" stroke-linejoin="round" stroke-linecap="butt" d="m75.892235 141.17076l0 0c0 0.44610596 0.5456848 0.8077545 1.2188263 0.8077545c0.6731415 0 1.2188263 -0.36164856 1.2188263 -0.8077545l0 0c0 -0.44612122 -0.5456848 -0.8077545 -1.2188263 -0.8077545c-0.6731415 0 -1.2188263 0.3616333 -1.2188263 0.8077545l0 10.034897c0 0.44610596 0.5456848 0.8077545 1.2188263 0.8077545c0.6731415 0 1.2188263 -0.36164856 1.2188263 -0.8077545l0 -10.034897" fill-rule="nonzero"></path><path fill="#efefef" d="m68.24531 153.4126l0 0c0 -0.8300171 1.1813202 -1.5028687 2.6385574 -1.5028687l0 0c1.4572372 0 2.6385574 0.67285156 2.6385574 1.5028687l0 0c0 0.8300171 -1.1813202 1.5028839 -2.6385574 1.5028839l0 0c-1.4572372 0 -2.6385574 -0.6728668 -2.6385574 -1.5028839z" fill-rule="nonzero"></path><path fill="#f1c232" d="m72.10269 142.57959l0 0c0 0.44610596 -0.5456848 0.8077545 -1.2188263 0.8077545c-0.6731415 0 -1.2188263 -0.36164856 -1.2188263 -0.8077545l0 10.034897c0 0.44610596 0.5456848 0.8077545 1.2188263 0.8077545c0.6731415 0 1.2188263 -0.36164856 1.2188263 -0.8077545z" fill-rule="nonzero"></path><path fill="#f6da84" d="m72.10269 142.57959l0 0c0 -0.44610596 -0.5456848 -0.8077545 -1.2188263 -0.8077545c-0.6731415 0 -1.2188263 0.36164856 -1.2188263 0.8077545l0 0c0 0.44610596 0.5456848 0.8077545 1.2188263 0.8077545c0.6731415 0 1.2188263 -0.36164856 1.2188263 -0.8077545z" fill-rule="nonzero"></path><path fill="#000000" fill-opacity="0.0" d="m69.66504 142.57959l0 0c0 0.44610596 0.5456848 0.8077545 1.2188263 0.8077545c0.6731415 0 1.2188263 -0.36164856 1.2188263 -0.8077545l0 0c0 -0.44610596 -0.5456848 -0.8077545 -1.2188263 -0.8077545c-0.6731415 0 -1.2188263 0.36164856 -1.2188263 0.8077545l0 10.034897c0 0.44610596 0.5456848 0.8077545 1.2188263 0.8077545c0.6731415 0 1.2188263 -0.36164856 1.2188263 -0.8077545l0 -10.034897" fill-rule="nonzero"></path><path stroke="#000000" stroke-width="1.0" stroke-linejoin="round" stroke-linecap="butt" d="m69.66504 142.57959l0 0c0 0.44610596 0.5456848 0.8077545 1.2188263 0.8077545c0.6731415 0 1.2188263 -0.36164856 1.2188263 -0.8077545l0 0c0 -0.44610596 -0.5456848 -0.8077545 -1.2188263 -0.8077545c-0.6731415 0 -1.2188263 0.36164856 -1.2188263 0.8077545l0 10.034897c0 0.44610596 0.5456848 0.8077545 1.2188263 0.8077545c0.6731415 0 1.2188263 -0.36164856 1.2188263 -0.8077545l0 -10.034897" fill-rule="nonzero"></path><path fill="#efefef" d="m72.02676 154.0732l0 0c0 -0.8300171 1.1813202 -1.5028687 2.6385574 -1.5028687l0 0c1.4572372 0 2.6385574 0.67285156 2.6385574 1.5028687l0 0c0 0.8300171 -1.1813202 1.5028839 -2.6385574 1.5028839l0 0c-1.4572372 0 -2.6385574 -0.6728668 -2.6385574 -1.5028839z" fill-rule="nonzero"></path><path fill="#f1c232" d="m75.88414 143.24019l0 0c0 0.44610596 -0.5456848 0.8077545 -1.2188263 0.8077545c-0.6731415 0 -1.2188263 -0.36164856 -1.2188263 -0.8077545l0 10.034897c0 0.44610596 0.5456848 0.8077545 1.2188263 0.8077545c0.6731415 0 1.2188263 -0.36164856 1.2188263 -0.8077545z" fill-rule="nonzero"></path><path fill="#f6da84" d="m75.88414 143.24019l0 0c0 -0.44610596 -0.5456848 -0.8077545 -1.2188263 -0.8077545c-0.6731415 0 -1.2188263 0.36164856 -1.2188263 0.8077545l0 0c0 0.44610596 0.5456848 0.8077545 1.2188263 0.8077545c0.6731415 0 1.2188263 -0.36164856 1.2188263 -0.8077545z" fill-rule="nonzero"></path><path fill="#000000" fill-opacity="0.0" d="m73.44649 143.24019l0 0c0 0.44610596 0.5456848 0.8077545 1.2188263 0.8077545c0.6731415 0 1.2188263 -0.36164856 1.2188263 -0.8077545l0 0c0 -0.44610596 -0.5456848 -0.8077545 -1.2188263 -0.8077545c-0.6731415 0 -1.2188263 0.36164856 -1.2188263 0.8077545l0 10.034897c0 0.44610596 0.5456848 0.8077545 1.2188263 0.8077545c0.6731415 0 1.2188263 -0.36164856 1.2188263 -0.8077545l0 -10.034897" fill-rule="nonzero"></path><path stroke="#000000" stroke-width="1.0" stroke-linejoin="round" stroke-linecap="butt" d="m73.44649 143.24019l0 0c0 0.44610596 0.5456848 0.8077545 1.2188263 0.8077545c0.6731415 0 1.2188263 -0.36164856 1.2188263 -0.8077545l0 0c0 -0.44610596 -0.5456848 -0.8077545 -1.2188263 -0.8077545c-0.6731415 0 -1.2188263 0.36164856 -1.2188263 0.8077545l0 10.034897c0 0.44610596 0.5456848 0.8077545 1.2188263 0.8077545c0.6731415 0 1.2188263 -0.36164856 1.2188263 -0.8077545l0 -10.034897" fill-rule="nonzero"></path><path fill="#efefef" d="m69.31579 155.99487l0 0c0 -0.8300171 1.1813202 -1.5028687 2.6385574 -1.5028687l0 0c1.4572372 0 2.6385574 0.67285156 2.6385574 1.5028687l0 0c0 0.8300171 -1.1813202 1.5028839 -2.6385574 1.5028839l0 0c-1.4572372 0 -2.6385574 -0.6728668 -2.6385574 -1.5028839z" fill-rule="nonzero"></path><path fill="#f1c232" d="m73.17317 145.16187l0 0c0 0.44610596 -0.5456848 0.8077545 -1.2188263 0.8077545c-0.6731415 0 -1.2188263 -0.36164856 -1.2188263 -0.8077545l0 10.034897c0 0.44610596 0.5456848 0.8077545 1.2188263 0.8077545c0.6731415 0 1.2188263 -0.36164856 1.2188263 -0.8077545z" fill-rule="nonzero"></path><path fill="#f6da84" d="m73.17317 145.16187l0 0c0 -0.44610596 -0.5456848 -0.8077545 -1.2188263 -0.8077545c-0.6731415 0 -1.2188263 0.36164856 -1.2188263 0.8077545l0 0c0 0.44610596 0.5456848 0.8077545 1.2188263 0.8077545c0.6731415 0 1.2188263 -0.36164856 1.2188263 -0.8077545z" fill-rule="nonzero"></path><path fill="#000000" fill-opacity="0.0" d="m70.73552 145.16187l0 0c0 0.44610596 0.5456848 0.8077545 1.2188263 0.8077545c0.6731415 0 1.2188263 -0.36164856 1.2188263 -0.8077545l0 0c0 -0.44610596 -0.5456848 -0.8077545 -1.2188263 -0.8077545c-0.6731415 0 -1.2188263 0.36164856 -1.2188263 0.8077545l0 10.034897c0 0.44610596 0.5456848 0.8077545 1.2188263 0.8077545c0.6731415 0 1.2188263 -0.36164856 1.2188263 -0.8077545l0 -10.034897" fill-rule="nonzero"></path><path stroke="#000000" stroke-width="1.0" stroke-linejoin="round" stroke-linecap="butt" d="m70.73552 145.16187l0 0c0 0.44610596 0.5456848 0.8077545 1.2188263 0.8077545c0.6731415 0 1.2188263 -0.36164856 1.2188263 -0.8077545l0 0c0 -0.44610596 -0.5456848 -0.8077545 -1.2188263 -0.8077545c-0.6731415 0 -1.2188263 0.36164856 -1.2188263 0.8077545l0 10.034897c0 0.44610596 0.5456848 0.8077545 1.2188263 0.8077545c0.6731415 0 1.2188263 -0.36164856 1.2188263 -0.8077545l0 -10.034897" fill-rule="nonzero"></path><path fill="#efefef" d="m65.53434 155.28499l0 0c0 -0.8300171 1.1813202 -1.5028839 2.6385574 -1.5028839l0 0c1.4572372 0 2.6385574 0.6728668 2.6385574 1.5028839l0 0c0 0.8300171 -1.1813202 1.5028839 -2.6385574 1.5028839l0 0c-1.4572372 0 -2.6385574 -0.6728668 -2.6385574 -1.5028839z" fill-rule="nonzero"></path><path fill="#f1c232" d="m69.39172 144.45198l0 0c0 0.44610596 -0.5456848 0.8077545 -1.2188263 0.8077545c-0.6731415 0 -1.2188263 -0.36164856 -1.2188263 -0.8077545l0 10.034897c0 0.44610596 0.5456848 0.8077545 1.2188263 0.8077545c0.6731415 0 1.2188263 -0.36164856 1.2188263 -0.8077545z" fill-rule="nonzero"></path><path fill="#f6da84" d="m69.39172 144.45198l0 0c0 -0.44610596 -0.5456848 -0.8077545 -1.2188263 -0.8077545c-0.6731415 0 -1.2188263 0.36164856 -1.2188263 0.8077545l0 0c0 0.44610596 0.5456848 0.8077545 1.2188263 0.8077545c0.6731415 0 1.2188263 -0.36164856 1.2188263 -0.8077545z" fill-rule="nonzero"></path><path fill="#000000" fill-opacity="0.0" d="m66.95407 144.45198l0 0c0 0.44610596 0.5456848 0.8077545 1.2188263 0.8077545c0.6731415 0 1.2188263 -0.36164856 1.2188263 -0.8077545l0 0c0 -0.44610596 -0.5456848 -0.8077545 -1.2188263 -0.8077545c-0.6731415 0 -1.2188263 0.36164856 -1.2188263 0.8077545l0 10.034897c0 0.44610596 0.5456848 0.8077545 1.2188263 0.8077545c0.6731415 0 1.2188263 -0.36164856 1.2188263 -0.8077545l0 -10.034897" fill-rule="nonzero"></path><path stroke="#000000" stroke-width="1.0" stroke-linejoin="round" stroke-linecap="butt" d="m66.95407 144.45198l0 0c0 0.44610596 0.5456848 0.8077545 1.2188263 0.8077545c0.6731415 0 1.2188263 -0.36164856 1.2188263 -0.8077545l0 0c0 -0.44610596 -0.5456848 -0.8077545 -1.2188263 -0.8077545c-0.6731415 0 -1.2188263 0.36164856 -1.2188263 0.8077545l0 10.034897c0 0.44610596 0.5456848 0.8077545 1.2188263 0.8077545c0.6731415 0 1.2188263 -0.36164856 1.2188263 -0.8077545l0 -10.034897" fill-rule="nonzero"></path><path fill="#efefef" d="m63.088593 157.35442l0 0c0 -0.8300171 1.1813202 -1.5028687 2.6385574 -1.5028687l0 0c1.4572372 0 2.6385574 0.67285156 2.6385574 1.5028687l0 0c0 0.8300171 -1.1813202 1.5028839 -2.6385574 1.5028839l0 0c-1.4572372 0 -2.6385574 -0.6728668 -2.6385574 -1.5028839z" fill-rule="nonzero"></path><path fill="#f1c232" d="m66.94598 146.52141l0 0c0 0.44610596 -0.5456848 0.8077545 -1.2188263 0.8077545c-0.6731415 0 -1.2188263 -0.36164856 -1.2188263 -0.8077545l0 10.034897c0 0.44610596 0.5456848 0.8077545 1.2188263 0.8077545c0.6731415 0 1.2188263 -0.36164856 1.2188263 -0.8077545z" fill-rule="nonzero"></path><path fill="#f6da84" d="m66.94598 146.52141l0 0c0 -0.44610596 -0.5456848 -0.8077545 -1.2188263 -0.8077545c-0.6731415 0 -1.2188263 0.36164856 -1.2188263 0.8077545l0 0c0 0.44610596 0.5456848 0.8077545 1.2188263 0.8077545c0.6731415 0 1.2188263 -0.36164856 1.2188263 -0.8077545z" fill-rule="nonzero"></path><path fill="#000000" fill-opacity="0.0" d="m64.50832 146.52141l0 0c0 0.44610596 0.5456848 0.8077545 1.2188263 0.8077545c0.6731415 0 1.2188263 -0.36164856 1.2188263 -0.8077545l0 0c0 -0.44610596 -0.5456848 -0.8077545 -1.2188263 -0.8077545c-0.6731415 0 -1.2188263 0.36164856 -1.2188263 0.8077545l0 10.034897c0 0.44610596 0.5456848 0.8077545 1.2188263 0.8077545c0.6731415 0 1.2188263 -0.36164856 1.2188263 -0.8077545l0 -10.034897" fill-rule="nonzero"></path><path stroke="#000000" stroke-width="1.0" stroke-linejoin="round" stroke-linecap="butt" d="m64.50832 146.52141l0 0c0 0.44610596 0.5456848 0.8077545 1.2188263 0.8077545c0.6731415 0 1.2188263 -0.36164856 1.2188263 -0.8077545l0 0c0 -0.44610596 -0.5456848 -0.8077545 -1.2188263 -0.8077545c-0.6731415 0 -1.2188263 0.36164856 -1.2188263 0.8077545l0 10.034897c0 0.44610596 0.5456848 0.8077545 1.2188263 0.8077545c0.6731415 0 1.2188263 -0.36164856 1.2188263 -0.8077545l0 -10.034897" fill-rule="nonzero"></path><path fill="#efefef" d="m66.87004 158.01501l0 0c0 -0.8300171 1.1813202 -1.5028839 2.6385574 -1.5028839l0 0c1.4572372 0 2.6385574 0.6728668 2.6385574 1.5028839l0 0c0 0.8300171 -1.1813202 1.5028839 -2.6385574 1.5028839l0 0c-1.4572372 0 -2.6385574 -0.6728668 -2.6385574 -1.5028839z" fill-rule="nonzero"></path><path fill="#f1c232" d="m70.727425 147.182l0 0c0 0.44610596 -0.5456848 0.8077545 -1.2188263 0.8077545c-0.67313385 0 -1.2188263 -0.36164856 -1.2188263 -0.8077545l0 10.034897c0 0.44610596 0.54569244 0.8077545 1.2188263 0.8077545c0.6731415 0 1.2188263 -0.36164856 1.2188263 -0.8077545z" fill-rule="nonzero"></path><path fill="#f6da84" d="m70.727425 147.182l0 0c0 -0.44610596 -0.5456848 -0.8077545 -1.2188263 -0.8077545c-0.67313385 0 -1.2188263 0.36164856 -1.2188263 0.8077545l0 0c0 0.44610596 0.54569244 0.8077545 1.2188263 0.8077545c0.6731415 0 1.2188263 -0.36164856 1.2188263 -0.8077545z" fill-rule="nonzero"></path><path fill="#000000" fill-opacity="0.0" d="m68.28977 147.182l0 0c0 0.44610596 0.54569244 0.8077545 1.2188263 0.8077545c0.6731415 0 1.2188263 -0.36164856 1.2188263 -0.8077545l0 0c0 -0.44610596 -0.5456848 -0.8077545 -1.2188263 -0.8077545c-0.67313385 0 -1.2188263 0.36164856 -1.2188263 0.8077545l0 10.034897c0 0.44610596 0.54569244 0.8077545 1.2188263 0.8077545c0.6731415 0 1.2188263 -0.36164856 1.2188263 -0.8077545l0 -10.034897" fill-rule="nonzero"></path><path stroke="#000000" stroke-width="1.0" stroke-linejoin="round" stroke-linecap="butt" d="m68.28977 147.182l0 0c0 0.44610596 0.54569244 0.8077545 1.2188263 0.8077545c0.6731415 0 1.2188263 -0.36164856 1.2188263 -0.8077545l0 0c0 -0.44610596 -0.5456848 -0.8077545 -1.2188263 -0.8077545c-0.67313385 0 -1.2188263 0.36164856 -1.2188263 0.8077545l0 10.034897c0 0.44610596 0.54569244 0.8077545 1.2188263 0.8077545c0.6731415 0 1.2188263 -0.36164856 1.2188263 -0.8077545l0 -10.034897" fill-rule="nonzero"></path><path fill="#efefef" d="m60.559975 159.1885l0 0c0 -0.8300171 1.1813202 -1.5028687 2.6385574 -1.5028687l0 0c1.4572372 0 2.6385574 0.67285156 2.6385574 1.5028687l0 0c0 0.8300171 -1.1813202 1.5028839 -2.6385574 1.5028839l0 0c-1.4572372 0 -2.6385574 -0.6728668 -2.6385574 -1.5028839z" fill-rule="nonzero"></path><path fill="#f1c232" d="m64.41736 148.3555l0 0c0 0.44610596 -0.5456848 0.8077545 -1.2188263 0.8077545c-0.67313766 0 -1.2188263 -0.36164856 -1.2188263 -0.8077545l0 10.034897c0 0.44610596 0.5456886 0.8077545 1.2188263 0.8077545c0.6731415 0 1.2188263 -0.36164856 1.2188263 -0.8077545z" fill-rule="nonzero"></path><path fill="#f6da84" d="m64.41736 148.3555l0 0c0 -0.44610596 -0.5456848 -0.8077545 -1.2188263 -0.8077545c-0.67313766 0 -1.2188263 0.36164856 -1.2188263 0.8077545l0 0c0 0.44610596 0.5456886 0.8077545 1.2188263 0.8077545c0.6731415 0 1.2188263 -0.36164856 1.2188263 -0.8077545z" fill-rule="nonzero"></path><path fill="#000000" fill-opacity="0.0" d="m61.979706 148.3555l0 0c0 0.44610596 0.5456886 0.8077545 1.2188263 0.8077545c0.6731415 0 1.2188263 -0.36164856 1.2188263 -0.8077545l0 0c0 -0.44610596 -0.5456848 -0.8077545 -1.2188263 -0.8077545c-0.67313766 0 -1.2188263 0.36164856 -1.2188263 0.8077545l0 10.034897c0 0.44610596 0.5456886 0.8077545 1.2188263 0.8077545c0.6731415 0 1.2188263 -0.36164856 1.2188263 -0.8077545l0 -10.034897" fill-rule="nonzero"></path><path stroke="#000000" stroke-width="1.0" stroke-linejoin="round" stroke-linecap="butt" d="m61.979706 148.3555l0 0c0 0.44610596 0.5456886 0.8077545 1.2188263 0.8077545c0.6731415 0 1.2188263 -0.36164856 1.2188263 -0.8077545l0 0c0 -0.44610596 -0.5456848 -0.8077545 -1.2188263 -0.8077545c-0.67313766 0 -1.2188263 0.36164856 -1.2188263 0.8077545l0 10.034897c0 0.44610596 0.5456886 0.8077545 1.2188263 0.8077545c0.6731415 0 1.2188263 -0.36164856 1.2188263 -0.8077545l0 -10.034897" fill-rule="nonzero"></path><path fill="#efefef" d="m64.34142 159.8491l0 0c0 -0.8300171 1.1813202 -1.5028839 2.6385574 -1.5028839l0 0c1.4572372 0 2.6385574 0.6728668 2.6385574 1.5028839l0 0c0 0.8300171 -1.1813202 1.5028839 -2.6385574 1.5028839l0 0c-1.4572372 0 -2.6385574 -0.6728668 -2.6385574 -1.5028839z" fill-rule="nonzero"></path><path fill="#f1c232" d="m68.19881 149.0161l0 0c0 0.44610596 -0.5456848 0.8077545 -1.2188263 0.8077545c-0.6731415 0 -1.2188263 -0.36164856 -1.2188263 -0.8077545l0 10.034897c0 0.44610596 0.5456848 0.8077545 1.2188263 0.8077545c0.6731415 0 1.2188263 -0.36164856 1.2188263 -0.8077545z" fill-rule="nonzero"></path><path fill="#f6da84" d="m68.19881 149.0161l0 0c0 -0.44610596 -0.5456848 -0.8077545 -1.2188263 -0.8077545c-0.6731415 0 -1.2188263 0.36164856 -1.2188263 0.8077545l0 0c0 0.44610596 0.5456848 0.8077545 1.2188263 0.8077545c0.6731415 0 1.2188263 -0.36164856 1.2188263 -0.8077545z" fill-rule="nonzero"></path><path fill="#000000" fill-opacity="0.0" d="m65.761154 149.0161l0 0c0 0.44610596 0.5456848 0.8077545 1.2188263 0.8077545c0.6731415 0 1.2188263 -0.36164856 1.2188263 -0.8077545l0 0c0 -0.44610596 -0.5456848 -0.8077545 -1.2188263 -0.8077545c-0.6731415 0 -1.2188263 0.36164856 -1.2188263 0.8077545l0 10.034897c0 0.44610596 0.5456848 0.8077545 1.2188263 0.8077545c0.6731415 0 1.2188263 -0.36164856 1.2188263 -0.8077545l0 -10.034897" fill-rule="nonzero"></path><path stroke="#000000" stroke-width="1.0" stroke-linejoin="round" stroke-linecap="butt" d="m65.761154 149.0161l0 0c0 0.44610596 0.5456848 0.8077545 1.2188263 0.8077545c0.6731415 0 1.2188263 -0.36164856 1.2188263 -0.8077545l0 0c0 -0.44610596 -0.5456848 -0.8077545 -1.2188263 -0.8077545c-0.6731415 0 -1.2188263 0.36164856 -1.2188263 0.8077545l0 10.034897c0 0.44610596 0.5456848 0.8077545 1.2188263 0.8077545c0.6731415 0 1.2188263 -0.36164856 1.2188263 -0.8077545l0 -10.034897" fill-rule="nonzero"></path><path fill="#efefef" d="m182.5868 153.90042l0 0c0 -0.8300171 1.1813202 -1.5028839 2.638565 -1.5028839l0 0c1.4572296 0 2.638565 0.6728668 2.638565 1.5028839l0 0c0 0.8300171 -1.1813354 1.5028839 -2.638565 1.5028839l0 0c-1.4572449 0 -2.638565 -0.6728668 -2.638565 -1.5028839z" fill-rule="nonzero"></path><path fill="#f1c232" d="m186.4442 143.06741l0 0c0 0.44610596 -0.5456848 0.8077545 -1.2188263 0.8077545c-0.6731415 0 -1.2188263 -0.36164856 -1.2188263 -0.8077545l0 10.034897c0 0.44610596 0.5456848 0.8077545 1.2188263 0.8077545c0.6731415 0 1.2188263 -0.36164856 1.2188263 -0.8077545z" fill-rule="nonzero"></path><path fill="#f6da84" d="m186.4442 143.06741l0 0c0 -0.44610596 -0.5456848 -0.8077545 -1.2188263 -0.8077545c-0.6731415 0 -1.2188263 0.36164856 -1.2188263 0.8077545l0 0c0 0.44610596 0.5456848 0.8077545 1.2188263 0.8077545c0.6731415 0 1.2188263 -0.36164856 1.2188263 -0.8077545z" fill-rule="nonzero"></path><path fill="#000000" fill-opacity="0.0" d="m184.00655 143.06741l0 0c0 0.44610596 0.5456848 0.8077545 1.2188263 0.8077545c0.6731415 0 1.2188263 -0.36164856 1.2188263 -0.8077545l0 0c0 -0.44610596 -0.5456848 -0.8077545 -1.2188263 -0.8077545c-0.6731415 0 -1.2188263 0.36164856 -1.2188263 0.8077545l0 10.034897c0 0.44610596 0.5456848 0.8077545 1.2188263 0.8077545c0.6731415 0 1.2188263 -0.36164856 1.2188263 -0.8077545l0 -10.034897" fill-rule="nonzero"></path><path stroke="#000000" stroke-width="1.0" stroke-linejoin="round" stroke-linecap="butt" d="m184.00655 143.06741l0 0c0 0.44610596 0.5456848 0.8077545 1.2188263 0.8077545c0.6731415 0 1.2188263 -0.36164856 1.2188263 -0.8077545l0 0c0 -0.44610596 -0.5456848 -0.8077545 -1.2188263 -0.8077545c-0.6731415 0 -1.2188263 0.36164856 -1.2188263 0.8077545l0 10.034897c0 0.44610596 0.5456848 0.8077545 1.2188263 0.8077545c0.6731415 0 1.2188263 -0.36164856 1.2188263 -0.8077545l0 -10.034897" fill-rule="nonzero"></path><path fill="#efefef" d="m186.36826 154.56102l0 0c0 -0.8300171 1.1813202 -1.5028839 2.638565 -1.5028839l0 0c1.4572296 0 2.638565 0.6728668 2.638565 1.5028839l0 0c0 0.8300171 -1.1813354 1.5028687 -2.638565 1.5028687l0 0c-1.4572449 0 -2.638565 -0.67285156 -2.638565 -1.5028687z" fill-rule="nonzero"></path><path fill="#f1c232" d="m190.22565 143.72801l0 0c0 0.44610596 -0.5456848 0.80773926 -1.2188263 0.80773926c-0.6731415 0 -1.2188263 -0.3616333 -1.2188263 -0.80773926l0 10.034897c0 0.44610596 0.5456848 0.80773926 1.2188263 0.80773926c0.6731415 0 1.2188263 -0.3616333 1.2188263 -0.80773926z" fill-rule="nonzero"></path><path fill="#f6da84" d="m190.22565 143.72801l0 0c0 -0.44612122 -0.5456848 -0.8077545 -1.2188263 -0.8077545c-0.6731415 0 -1.2188263 0.3616333 -1.2188263 0.8077545l0 0c0 0.44610596 0.5456848 0.80773926 1.2188263 0.80773926c0.6731415 0 1.2188263 -0.3616333 1.2188263 -0.80773926z" fill-rule="nonzero"></path><path fill="#000000" fill-opacity="0.0" d="m187.788 143.72801l0 0c0 0.44610596 0.5456848 0.80773926 1.2188263 0.80773926c0.6731415 0 1.2188263 -0.3616333 1.2188263 -0.80773926l0 0c0 -0.44612122 -0.5456848 -0.8077545 -1.2188263 -0.8077545c-0.6731415 0 -1.2188263 0.3616333 -1.2188263 0.8077545l0 10.034897c0 0.44610596 0.5456848 0.80773926 1.2188263 0.80773926c0.6731415 0 1.2188263 -0.3616333 1.2188263 -0.80773926l0 -10.034897" fill-rule="nonzero"></path><path stroke="#000000" stroke-width="1.0" stroke-linejoin="round" stroke-linecap="butt" d="m187.788 143.72801l0 0c0 0.44610596 0.5456848 0.80773926 1.2188263 0.80773926c0.6731415 0 1.2188263 -0.3616333 1.2188263 -0.80773926l0 0c0 -0.44612122 -0.5456848 -0.8077545 -1.2188263 -0.8077545c-0.6731415 0 -1.2188263 0.3616333 -1.2188263 0.8077545l0 10.034897c0 0.44610596 0.5456848 0.80773926 1.2188263 0.80773926c0.6731415 0 1.2188263 -0.3616333 1.2188263 -0.80773926l0 -10.034897" fill-rule="nonzero"></path><path fill="#efefef" d="m180.14107 155.96985l0 0c0 -0.8300171 1.1813202 -1.5028687 2.638565 -1.5028687l0 0c1.4572296 0 2.6385498 0.67285156 2.6385498 1.5028687l0 0c0 0.8300171 -1.1813202 1.5028839 -2.6385498 1.5028839l0 0c-1.4572449 0 -2.638565 -0.6728668 -2.638565 -1.5028839z" fill-rule="nonzero"></path><path fill="#f1c232" d="m183.99846 145.13684l0 0c0 0.44610596 -0.5457001 0.8077545 -1.2188263 0.8077545c-0.6731415 0 -1.2188416 -0.36164856 -1.2188416 -0.8077545l0 10.034897c0 0.44610596 0.5457001 0.8077545 1.2188416 0.8077545c0.6731262 0 1.2188263 -0.36164856 1.2188263 -0.8077545z" fill-rule="nonzero"></path><path fill="#f6da84" d="m183.99846 145.13684l0 0c0 -0.44610596 -0.5457001 -0.8077545 -1.2188263 -0.8077545c-0.6731415 0 -1.2188416 0.36164856 -1.2188416 0.8077545l0 0c0 0.44610596 0.5457001 0.8077545 1.2188416 0.8077545c0.6731262 0 1.2188263 -0.36164856 1.2188263 -0.8077545z" fill-rule="nonzero"></path><path fill="#000000" fill-opacity="0.0" d="m181.56079 145.13684l0 0c0 0.44610596 0.5457001 0.8077545 1.2188416 0.8077545c0.6731262 0 1.2188263 -0.36164856 1.2188263 -0.8077545l0 0c0 -0.44610596 -0.5457001 -0.8077545 -1.2188263 -0.8077545c-0.6731415 0 -1.2188416 0.36164856 -1.2188416 0.8077545l0 10.034897c0 0.44610596 0.5457001 0.8077545 1.2188416 0.8077545c0.6731262 0 1.2188263 -0.36164856 1.2188263 -0.8077545l0 -10.034897" fill-rule="nonzero"></path><path stroke="#000000" stroke-width="1.0" stroke-linejoin="round" stroke-linecap="butt" d="m181.56079 145.13684l0 0c0 0.44610596 0.5457001 0.8077545 1.2188416 0.8077545c0.6731262 0 1.2188263 -0.36164856 1.2188263 -0.8077545l0 0c0 -0.44610596 -0.5457001 -0.8077545 -1.2188263 -0.8077545c-0.6731415 0 -1.2188416 0.36164856 -1.2188416 0.8077545l0 10.034897c0 0.44610596 0.5457001 0.8077545 1.2188416 0.8077545c0.6731262 0 1.2188263 -0.36164856 1.2188263 -0.8077545l0 -10.034897" fill-rule="nonzero"></path><path fill="#efefef" d="m183.92252 156.63045l0 0c0 -0.8300171 1.1813202 -1.5028839 2.638565 -1.5028839l0 0c1.4572296 0 2.6385498 0.6728668 2.6385498 1.5028839l0 0c0 0.8300171 -1.1813202 1.5028839 -2.6385498 1.5028839l0 0c-1.4572449 0 -2.638565 -0.6728668 -2.638565 -1.5028839z" fill-rule="nonzero"></path><path fill="#f1c232" d="m187.7799 145.79744l0 0c0 0.44610596 -0.5457001 0.8077545 -1.2188263 0.8077545c-0.6731415 0 -1.2188416 -0.36164856 -1.2188416 -0.8077545l0 10.034897c0 0.44610596 0.5457001 0.8077545 1.2188416 0.8077545c0.6731262 0 1.2188263 -0.36164856 1.2188263 -0.8077545z" fill-rule="nonzero"></path><path fill="#f6da84" d="m187.7799 145.79744l0 0c0 -0.44610596 -0.5457001 -0.8077545 -1.2188263 -0.8077545c-0.6731415 0 -1.2188416 0.36164856 -1.2188416 0.8077545l0 0c0 0.44610596 0.5457001 0.8077545 1.2188416 0.8077545c0.6731262 0 1.2188263 -0.36164856 1.2188263 -0.8077545z" fill-rule="nonzero"></path><path fill="#000000" fill-opacity="0.0" d="m185.34224 145.79744l0 0c0 0.44610596 0.5457001 0.8077545 1.2188416 0.8077545c0.6731262 0 1.2188263 -0.36164856 1.2188263 -0.8077545l0 0c0 -0.44610596 -0.5457001 -0.8077545 -1.2188263 -0.8077545c-0.6731415 0 -1.2188416 0.36164856 -1.2188416 0.8077545l0 10.034897c0 0.44610596 0.5457001 0.8077545 1.2188416 0.8077545c0.6731262 0 1.2188263 -0.36164856 1.2188263 -0.8077545l0 -10.034897" fill-rule="nonzero"></path><path stroke="#000000" stroke-width="1.0" stroke-linejoin="round" stroke-linecap="butt" d="m185.34224 145.79744l0 0c0 0.44610596 0.5457001 0.8077545 1.2188416 0.8077545c0.6731262 0 1.2188263 -0.36164856 1.2188263 -0.8077545l0 0c0 -0.44610596 -0.5457001 -0.8077545 -1.2188263 -0.8077545c-0.6731415 0 -1.2188416 0.36164856 -1.2188416 0.8077545l0 10.034897c0 0.44610596 0.5457001 0.8077545 1.2188416 0.8077545c0.6731262 0 1.2188263 -0.36164856 1.2188263 -0.8077545l0 -10.034897" fill-rule="nonzero"></path><path fill="#efefef" d="m177.69588 157.89153l0 0c0 -0.83000183 1.1813202 -1.5028687 2.638565 -1.5028687l0 0c1.4572296 0 2.6385498 0.6728668 2.6385498 1.5028687l0 0c0 0.8300171 -1.1813202 1.5028839 -2.6385498 1.5028839l0 0c-1.4572449 0 -2.638565 -0.6728668 -2.638565 -1.5028839z" fill-rule="nonzero"></path><path fill="#f1c232" d="m181.55327 147.05852l0 0c0 0.44612122 -0.5456848 0.8077545 -1.2188263 0.8077545c-0.6731415 0 -1.2188263 -0.3616333 -1.2188263 -0.8077545l0 10.034897c0 0.44612122 0.5456848 0.8077545 1.2188263 0.8077545c0.6731415 0 1.2188263 -0.3616333 1.2188263 -0.8077545z" fill-rule="nonzero"></path><path fill="#f6da84" d="m181.55327 147.05852l0 0c0 -0.44610596 -0.5456848 -0.8077545 -1.2188263 -0.8077545c-0.6731415 0 -1.2188263 0.36164856 -1.2188263 0.8077545l0 0c0 0.44612122 0.5456848 0.8077545 1.2188263 0.8077545c0.6731415 0 1.2188263 -0.3616333 1.2188263 -0.8077545z" fill-rule="nonzero"></path><path fill="#000000" fill-opacity="0.0" d="m179.11562 147.05852l0 0c0 0.44612122 0.5456848 0.8077545 1.2188263 0.8077545c0.6731415 0 1.2188263 -0.3616333 1.2188263 -0.8077545l0 0c0 -0.44610596 -0.5456848 -0.8077545 -1.2188263 -0.8077545c-0.6731415 0 -1.2188263 0.36164856 -1.2188263 0.8077545l0 10.034897c0 0.44612122 0.5456848 0.8077545 1.2188263 0.8077545c0.6731415 0 1.2188263 -0.3616333 1.2188263 -0.8077545l0 -10.034897" fill-rule="nonzero"></path><path stroke="#000000" stroke-width="1.0" stroke-linejoin="round" stroke-linecap="butt" d="m179.11562 147.05852l0 0c0 0.44612122 0.5456848 0.8077545 1.2188263 0.8077545c0.6731415 0 1.2188263 -0.3616333 1.2188263 -0.8077545l0 0c0 -0.44610596 -0.5456848 -0.8077545 -1.2188263 -0.8077545c-0.6731415 0 -1.2188263 0.36164856 -1.2188263 0.8077545l0 10.034897c0 0.44612122 0.5456848 0.8077545 1.2188263 0.8077545c0.6731415 0 1.2188263 -0.3616333 1.2188263 -0.8077545l0 -10.034897" fill-rule="nonzero"></path><path fill="#efefef" d="m181.47733 158.55212l0 0c0 -0.8300171 1.1813202 -1.5028687 2.638565 -1.5028687l0 0c1.4572296 0 2.6385498 0.67285156 2.6385498 1.5028687l0 0c0 0.8300171 -1.1813202 1.5028839 -2.6385498 1.5028839l0 0c-1.4572449 0 -2.638565 -0.6728668 -2.638565 -1.5028839z" fill-rule="nonzero"></path><path fill="#f1c232" d="m185.33472 147.71912l0 0c0 0.44610596 -0.5456848 0.8077545 -1.2188263 0.8077545c-0.6731415 0 -1.2188263 -0.36164856 -1.2188263 -0.8077545l0 10.034897c0 0.44610596 0.5456848 0.8077545 1.2188263 0.8077545c0.6731415 0 1.2188263 -0.36164856 1.2188263 -0.8077545z" fill-rule="nonzero"></path><path fill="#f6da84" d="m185.33472 147.71912l0 0c0 -0.44610596 -0.5456848 -0.8077545 -1.2188263 -0.8077545c-0.6731415 0 -1.2188263 0.36164856 -1.2188263 0.8077545l0 0c0 0.44610596 0.5456848 0.8077545 1.2188263 0.8077545c0.6731415 0 1.2188263 -0.36164856 1.2188263 -0.8077545z" fill-rule="nonzero"></path><path fill="#000000" fill-opacity="0.0" d="m182.89706 147.71912l0 0c0 0.44610596 0.5456848 0.8077545 1.2188263 0.8077545c0.6731415 0 1.2188263 -0.36164856 1.2188263 -0.8077545l0 0c0 -0.44610596 -0.5456848 -0.8077545 -1.2188263 -0.8077545c-0.6731415 0 -1.2188263 0.36164856 -1.2188263 0.8077545l0 10.034897c0 0.44610596 0.5456848 0.8077545 1.2188263 0.8077545c0.6731415 0 1.2188263 -0.36164856 1.2188263 -0.8077545l0 -10.034897" fill-rule="nonzero"></path><path stroke="#000000" stroke-width="1.0" stroke-linejoin="round" stroke-linecap="butt" d="m182.89706 147.71912l0 0c0 0.44610596 0.5456848 0.8077545 1.2188263 0.8077545c0.6731415 0 1.2188263 -0.36164856 1.2188263 -0.8077545l0 0c0 -0.44610596 -0.5456848 -0.8077545 -1.2188263 -0.8077545c-0.6731415 0 -1.2188263 0.36164856 -1.2188263 0.8077545l0 10.034897c0 0.44610596 0.5456848 0.8077545 1.2188263 0.8077545c0.6731415 0 1.2188263 -0.36164856 1.2188263 -0.8077545l0 -10.034897" fill-rule="nonzero"></path><path fill="#efefef" d="m175.25014 159.96097l0 0c0 -0.8300171 1.1813202 -1.5028839 2.6385498 -1.5028839l0 0c1.4572449 0 2.638565 0.6728668 2.638565 1.5028839l0 0c0 0.8300171 -1.1813202 1.5028687 -2.638565 1.5028687l0 0c-1.4572296 0 -2.6385498 -0.67285156 -2.6385498 -1.5028687z" fill-rule="nonzero"></path><path fill="#f1c232" d="m179.05437 148.83218l0 0c0 0.44612122 -0.5456848 0.8077545 -1.2188263 0.8077545c-0.6731415 0 -1.2188263 -0.3616333 -1.2188263 -0.8077545l0 10.034897c0 0.44612122 0.5456848 0.8077545 1.2188263 0.8077545c0.6731415 0 1.2188263 -0.3616333 1.2188263 -0.8077545z" fill-rule="nonzero"></path><path fill="#f6da84" d="m179.05437 148.83218l0 0c0 -0.44610596 -0.5456848 -0.80773926 -1.2188263 -0.80773926c-0.6731415 0 -1.2188263 0.3616333 -1.2188263 0.80773926l0 0c0 0.44612122 0.5456848 0.8077545 1.2188263 0.8077545c0.6731415 0 1.2188263 -0.3616333 1.2188263 -0.8077545z" fill-rule="nonzero"></path><path fill="#000000" fill-opacity="0.0" d="m176.61671 148.83218l0 0c0 0.44612122 0.5456848 0.8077545 1.2188263 0.8077545c0.6731415 0 1.2188263 -0.3616333 1.2188263 -0.8077545l0 0c0 -0.44610596 -0.5456848 -0.80773926 -1.2188263 -0.80773926c-0.6731415 0 -1.2188263 0.3616333 -1.2188263 0.80773926l0 10.034897c0 0.44612122 0.5456848 0.8077545 1.2188263 0.8077545c0.6731415 0 1.2188263 -0.3616333 1.2188263 -0.8077545l0 -10.034897" fill-rule="nonzero"></path><path stroke="#000000" stroke-width="1.0" stroke-linejoin="round" stroke-linecap="butt" d="m176.61671 148.83218l0 0c0 0.44612122 0.5456848 0.8077545 1.2188263 0.8077545c0.6731415 0 1.2188263 -0.3616333 1.2188263 -0.8077545l0 0c0 -0.44610596 -0.5456848 -0.80773926 -1.2188263 -0.80773926c-0.6731415 0 -1.2188263 0.3616333 -1.2188263 0.80773926l0 10.034897c0 0.44612122 0.5456848 0.8077545 1.2188263 0.8077545c0.6731415 0 1.2188263 -0.3616333 1.2188263 -0.8077545l0 -10.034897" fill-rule="nonzero"></path><path fill="#efefef" d="m179.03159 160.62157l0 0c0 -0.8300171 1.1813202 -1.5028839 2.6385498 -1.5028839l0 0c1.4572449 0 2.638565 0.6728668 2.638565 1.5028839l0 0c0 0.83000183 -1.1813202 1.5028687 -2.638565 1.5028687l0 0c-1.4572296 0 -2.6385498 -0.6728668 -2.6385498 -1.5028687z" fill-rule="nonzero"></path><path fill="#f1c232" d="m182.88896 149.78854l0 0c0 0.44612122 -0.5456848 0.8077545 -1.2188263 0.8077545c-0.6731415 0 -1.2188263 -0.3616333 -1.2188263 -0.8077545l0 10.034897c0 0.44612122 0.5456848 0.8077545 1.2188263 0.8077545c0.6731415 0 1.2188263 -0.3616333 1.2188263 -0.8077545z" fill-rule="nonzero"></path><path fill="#f6da84" d="m182.88896 149.78854l0 0c0 -0.44610596 -0.5456848 -0.8077545 -1.2188263 -0.8077545c-0.6731415 0 -1.2188263 0.36164856 -1.2188263 0.8077545l0 0c0 0.44612122 0.5456848 0.8077545 1.2188263 0.8077545c0.6731415 0 1.2188263 -0.3616333 1.2188263 -0.8077545z" fill-rule="nonzero"></path><path fill="#000000" fill-opacity="0.0" d="m180.45131 149.78854l0 0c0 0.44612122 0.5456848 0.8077545 1.2188263 0.8077545c0.6731415 0 1.2188263 -0.3616333 1.2188263 -0.8077545l0 0c0 -0.44610596 -0.5456848 -0.8077545 -1.2188263 -0.8077545c-0.6731415 0 -1.2188263 0.36164856 -1.2188263 0.8077545l0 10.034897c0 0.44612122 0.5456848 0.8077545 1.2188263 0.8077545c0.6731415 0 1.2188263 -0.3616333 1.2188263 -0.8077545l0 -10.034897" fill-rule="nonzero"></path><path stroke="#000000" stroke-width="1.0" stroke-linejoin="round" stroke-linecap="butt" d="m180.45131 149.78854l0 0c0 0.44612122 0.5456848 0.8077545 1.2188263 0.8077545c0.6731415 0 1.2188263 -0.3616333 1.2188263 -0.8077545l0 0c0 -0.44610596 -0.5456848 -0.8077545 -1.2188263 -0.8077545c-0.6731415 0 -1.2188263 0.36164856 -1.2188263 0.8077545l0 10.034897c0 0.44612122 0.5456848 0.8077545 1.2188263 0.8077545c0.6731415 0 1.2188263 -0.3616333 1.2188263 -0.8077545l0 -10.034897" fill-rule="nonzero"></path><path fill="#efefef" d="m172.54112 161.87929l0 0c0 -0.8300171 1.1813202 -1.5028839 2.6385498 -1.5028839l0 0c1.4572449 0 2.638565 0.6728668 2.638565 1.5028839l0 0c0 0.83000183 -1.1813202 1.5028687 -2.638565 1.5028687l0 0c-1.4572296 0 -2.6385498 -0.6728668 -2.6385498 -1.5028687z" fill-rule="nonzero"></path><path fill="#f1c232" d="m176.3985 151.04626l0 0c0 0.44612122 -0.5456848 0.8077545 -1.2188263 0.8077545c-0.6731415 0 -1.2188263 -0.3616333 -1.2188263 -0.8077545l0 10.034897c0 0.44612122 0.5456848 0.8077545 1.2188263 0.8077545c0.6731415 0 1.2188263 -0.3616333 1.2188263 -0.8077545z" fill-rule="nonzero"></path><path fill="#f6da84" d="m176.3985 151.04626l0 0c0 -0.44610596 -0.5456848 -0.8077545 -1.2188263 -0.8077545c-0.6731415 0 -1.2188263 0.36164856 -1.2188263 0.8077545l0 0c0 0.44612122 0.5456848 0.8077545 1.2188263 0.8077545c0.6731415 0 1.2188263 -0.3616333 1.2188263 -0.8077545z" fill-rule="nonzero"></path><path fill="#000000" fill-opacity="0.0" d="m173.96085 151.04626l0 0c0 0.44612122 0.5456848 0.8077545 1.2188263 0.8077545c0.6731415 0 1.2188263 -0.3616333 1.2188263 -0.8077545l0 0c0 -0.44610596 -0.5456848 -0.8077545 -1.2188263 -0.8077545c-0.6731415 0 -1.2188263 0.36164856 -1.2188263 0.8077545l0 10.034897c0 0.44612122 0.5456848 0.8077545 1.2188263 0.8077545c0.6731415 0 1.2188263 -0.3616333 1.2188263 -0.8077545l0 -10.034897" fill-rule="nonzero"></path><path stroke="#000000" stroke-width="1.0" stroke-linejoin="round" stroke-linecap="butt" d="m173.96085 151.04626l0 0c0 0.44612122 0.5456848 0.8077545 1.2188263 0.8077545c0.6731415 0 1.2188263 -0.3616333 1.2188263 -0.8077545l0 0c0 -0.44610596 -0.5456848 -0.8077545 -1.2188263 -0.8077545c-0.6731415 0 -1.2188263 0.36164856 -1.2188263 0.8077545l0 10.034897c0 0.44612122 0.5456848 0.8077545 1.2188263 0.8077545c0.6731415 0 1.2188263 -0.3616333 1.2188263 -0.8077545l0 -10.034897" fill-rule="nonzero"></path><path fill="#efefef" d="m176.32257 162.53987l0 0c0 -0.8300171 1.1813202 -1.5028687 2.6385498 -1.5028687l0 0c1.4572449 0 2.638565 0.67285156 2.638565 1.5028687l0 0c0 0.8300171 -1.1813202 1.5028839 -2.638565 1.5028839l0 0c-1.4572296 0 -2.6385498 -0.6728668 -2.6385498 -1.5028839z" fill-rule="nonzero"></path><path fill="#f1c232" d="m180.17995 151.70686l0 0c0 0.44610596 -0.5456848 0.8077545 -1.2188263 0.8077545c-0.6731415 0 -1.2188263 -0.36164856 -1.2188263 -0.8077545l0 10.034897c0 0.44610596 0.5456848 0.8077545 1.2188263 0.8077545c0.6731415 0 1.2188263 -0.36164856 1.2188263 -0.8077545z" fill-rule="nonzero"></path><path fill="#f6da84" d="m180.17995 151.70686l0 0c0 -0.44610596 -0.5456848 -0.8077545 -1.2188263 -0.8077545c-0.6731415 0 -1.2188263 0.36164856 -1.2188263 0.8077545l0 0c0 0.44610596 0.5456848 0.8077545 1.2188263 0.8077545c0.6731415 0 1.2188263 -0.36164856 1.2188263 -0.8077545z" fill-rule="nonzero"></path><path fill="#000000" fill-opacity="0.0" d="m177.7423 151.70686l0 0c0 0.44610596 0.5456848 0.8077545 1.2188263 0.8077545c0.6731415 0 1.2188263 -0.36164856 1.2188263 -0.8077545l0 0c0 -0.44610596 -0.5456848 -0.8077545 -1.2188263 -0.8077545c-0.6731415 0 -1.2188263 0.36164856 -1.2188263 0.8077545l0 10.034897c0 0.44610596 0.5456848 0.8077545 1.2188263 0.8077545c0.6731415 0 1.2188263 -0.36164856 1.2188263 -0.8077545l0 -10.034897" fill-rule="nonzero"></path><path stroke="#000000" stroke-width="1.0" stroke-linejoin="round" stroke-linecap="butt" d="m177.7423 151.70686l0 0c0 0.44610596 0.5456848 0.8077545 1.2188263 0.8077545c0.6731415 0 1.2188263 -0.36164856 1.2188263 -0.8077545l0 0c0 -0.44610596 -0.5456848 -0.8077545 -1.2188263 -0.8077545c-0.6731415 0 -1.2188263 0.36164856 -1.2188263 0.8077545l0 10.034897c0 0.44610596 0.5456848 0.8077545 1.2188263 0.8077545c0.6731415 0 1.2188263 -0.36164856 1.2188263 -0.8077545l0 -10.034897" fill-rule="nonzero"></path><path fill="#efefef" d="m170.09537 163.94872l0 0c0 -0.8300171 1.1813354 -1.5028839 2.638565 -1.5028839l0 0c1.4572296 0 2.638565 0.6728668 2.638565 1.5028839l0 0c0 0.8300171 -1.1813354 1.5028687 -2.638565 1.5028687l0 0c-1.4572296 0 -2.638565 -0.67285156 -2.638565 -1.5028687z" fill-rule="nonzero"></path><path fill="#f1c232" d="m173.95276 153.1157l0 0c0 0.44610596 -0.5456848 0.8077545 -1.2188263 0.8077545c-0.6731415 0 -1.2188263 -0.36164856 -1.2188263 -0.8077545l0 10.034897c0 0.44610596 0.5456848 0.8077545 1.2188263 0.8077545c0.6731415 0 1.2188263 -0.36164856 1.2188263 -0.8077545z" fill-rule="nonzero"></path><path fill="#f6da84" d="m173.95276 153.1157l0 0c0 -0.44612122 -0.5456848 -0.8077545 -1.2188263 -0.8077545c-0.6731415 0 -1.2188263 0.3616333 -1.2188263 0.8077545l0 0c0 0.44610596 0.5456848 0.8077545 1.2188263 0.8077545c0.6731415 0 1.2188263 -0.36164856 1.2188263 -0.8077545z" fill-rule="nonzero"></path><path fill="#000000" fill-opacity="0.0" d="m171.5151 153.1157l0 0c0 0.44610596 0.5456848 0.8077545 1.2188263 0.8077545c0.6731415 0 1.2188263 -0.36164856 1.2188263 -0.8077545l0 0c0 -0.44612122 -0.5456848 -0.8077545 -1.2188263 -0.8077545c-0.6731415 0 -1.2188263 0.3616333 -1.2188263 0.8077545l0 10.034897c0 0.44610596 0.5456848 0.8077545 1.2188263 0.8077545c0.6731415 0 1.2188263 -0.36164856 1.2188263 -0.8077545l0 -10.034897" fill-rule="nonzero"></path><path stroke="#000000" stroke-width="1.0" stroke-linejoin="round" stroke-linecap="butt" d="m171.5151 153.1157l0 0c0 0.44610596 0.5456848 0.8077545 1.2188263 0.8077545c0.6731415 0 1.2188263 -0.36164856 1.2188263 -0.8077545l0 0c0 -0.44612122 -0.5456848 -0.8077545 -1.2188263 -0.8077545c-0.6731415 0 -1.2188263 0.3616333 -1.2188263 0.8077545l0 10.034897c0 0.44610596 0.5456848 0.8077545 1.2188263 0.8077545c0.6731415 0 1.2188263 -0.36164856 1.2188263 -0.8077545l0 -10.034897" fill-rule="nonzero"></path><path fill="#efefef" d="m173.87682 164.60931l0 0c0 -0.8300171 1.1813354 -1.5028839 2.638565 -1.5028839l0 0c1.4572296 0 2.638565 0.6728668 2.638565 1.5028839l0 0c0 0.8300171 -1.1813354 1.5028687 -2.638565 1.5028687l0 0c-1.4572296 0 -2.638565 -0.67285156 -2.638565 -1.5028687z" fill-rule="nonzero"></path><path fill="#f1c232" d="m177.52158 153.38194l0 0c0 0.44610596 -0.5456848 0.8077545 -1.2188263 0.8077545c-0.6731415 0 -1.2188263 -0.36164856 -1.2188263 -0.8077545l0 10.034897c0 0.44610596 0.5456848 0.8077545 1.2188263 0.8077545c0.6731415 0 1.2188263 -0.36164856 1.2188263 -0.8077545z" fill-rule="nonzero"></path><path fill="#f6da84" d="m177.52158 153.38194l0 0c0 -0.44610596 -0.5456848 -0.8077545 -1.2188263 -0.8077545c-0.6731415 0 -1.2188263 0.36164856 -1.2188263 0.8077545l0 0c0 0.44610596 0.5456848 0.8077545 1.2188263 0.8077545c0.6731415 0 1.2188263 -0.36164856 1.2188263 -0.8077545z" fill-rule="nonzero"></path><path fill="#000000" fill-opacity="0.0" d="m175.08392 153.38194l0 0c0 0.44610596 0.5456848 0.8077545 1.2188263 0.8077545c0.6731415 0 1.2188263 -0.36164856 1.2188263 -0.8077545l0 0c0 -0.44610596 -0.5456848 -0.8077545 -1.2188263 -0.8077545c-0.6731415 0 -1.2188263 0.36164856 -1.2188263 0.8077545l0 10.034897c0 0.44610596 0.5456848 0.8077545 1.2188263 0.8077545c0.6731415 0 1.2188263 -0.36164856 1.2188263 -0.8077545l0 -10.034897" fill-rule="nonzero"></path><path stroke="#000000" stroke-width="1.0" stroke-linejoin="round" stroke-linecap="butt" d="m175.08392 153.38194l0 0c0 0.44610596 0.5456848 0.8077545 1.2188263 0.8077545c0.6731415 0 1.2188263 -0.36164856 1.2188263 -0.8077545l0 0c0 -0.44610596 -0.5456848 -0.8077545 -1.2188263 -0.8077545c-0.6731415 0 -1.2188263 0.36164856 -1.2188263 0.8077545l0 10.034897c0 0.44610596 0.5456848 0.8077545 1.2188263 0.8077545c0.6731415 0 1.2188263 -0.36164856 1.2188263 -0.8077545l0 -10.034897" fill-rule="nonzero"></path><path fill="#efefef" d="m171.16585 166.53099l0 0c0 -0.8300171 1.1813354 -1.5028839 2.638565 -1.5028839l0 0c1.4572296 0 2.638565 0.6728668 2.638565 1.5028839l0 0c0 0.8300171 -1.1813354 1.5028687 -2.638565 1.5028687l0 0c-1.4572296 0 -2.638565 -0.67285156 -2.638565 -1.5028687z" fill-rule="nonzero"></path><path fill="#f1c232" d="m175.02324 155.69798l0 0c0 0.44610596 -0.5456848 0.80773926 -1.2188263 0.80773926c-0.6731415 0 -1.2188263 -0.3616333 -1.2188263 -0.80773926l0 10.034897c0 0.44610596 0.5456848 0.80773926 1.2188263 0.80773926c0.6731415 0 1.2188263 -0.3616333 1.2188263 -0.80773926z" fill-rule="nonzero"></path><path fill="#f6da84" d="m175.02324 155.69798l0 0c0 -0.44612122 -0.5456848 -0.8077545 -1.2188263 -0.8077545c-0.6731415 0 -1.2188263 0.3616333 -1.2188263 0.8077545l0 0c0 0.44610596 0.5456848 0.80773926 1.2188263 0.80773926c0.6731415 0 1.2188263 -0.3616333 1.2188263 -0.80773926z" fill-rule="nonzero"></path><path fill="#000000" fill-opacity="0.0" d="m172.58559 155.69798l0 0c0 0.44610596 0.5456848 0.80773926 1.2188263 0.80773926c0.6731415 0 1.2188263 -0.3616333 1.2188263 -0.80773926l0 0c0 -0.44612122 -0.5456848 -0.8077545 -1.2188263 -0.8077545c-0.6731415 0 -1.2188263 0.3616333 -1.2188263 0.8077545l0 10.034897c0 0.44610596 0.5456848 0.80773926 1.2188263 0.80773926c0.6731415 0 1.2188263 -0.3616333 1.2188263 -0.80773926l0 -10.034897" fill-rule="nonzero"></path><path stroke="#000000" stroke-width="1.0" stroke-linejoin="round" stroke-linecap="butt" d="m172.58559 155.69798l0 0c0 0.44610596 0.5456848 0.80773926 1.2188263 0.80773926c0.6731415 0 1.2188263 -0.3616333 1.2188263 -0.80773926l0 0c0 -0.44612122 -0.5456848 -0.8077545 -1.2188263 -0.8077545c-0.6731415 0 -1.2188263 0.3616333 -1.2188263 0.8077545l0 10.034897c0 0.44610596 0.5456848 0.80773926 1.2188263 0.80773926c0.6731415 0 1.2188263 -0.3616333 1.2188263 -0.80773926l0 -10.034897" fill-rule="nonzero"></path><path fill="#efefef" d="m167.3844 165.8211l0 0c0 -0.8300171 1.1813202 -1.5028839 2.638565 -1.5028839l0 0c1.4572296 0 2.6385498 0.6728668 2.6385498 1.5028839l0 0c0 0.83000183 -1.1813202 1.5028687 -2.6385498 1.5028687l0 0c-1.4572449 0 -2.638565 -0.6728668 -2.638565 -1.5028687z" fill-rule="nonzero"></path><path fill="#f1c232" d="m171.24179 154.98808l0 0c0 0.44612122 -0.5456848 0.8077545 -1.2188263 0.8077545c-0.6731415 0 -1.2188263 -0.3616333 -1.2188263 -0.8077545l0 10.034897c0 0.44612122 0.5456848 0.8077545 1.2188263 0.8077545c0.6731415 0 1.2188263 -0.3616333 1.2188263 -0.8077545z" fill-rule="nonzero"></path><path fill="#f6da84" d="m171.24179 154.98808l0 0c0 -0.44610596 -0.5456848 -0.8077545 -1.2188263 -0.8077545c-0.6731415 0 -1.2188263 0.36164856 -1.2188263 0.8077545l0 0c0 0.44612122 0.5456848 0.8077545 1.2188263 0.8077545c0.6731415 0 1.2188263 -0.3616333 1.2188263 -0.8077545z" fill-rule="nonzero"></path><path fill="#000000" fill-opacity="0.0" d="m168.80414 154.98808l0 0c0 0.44612122 0.5456848 0.8077545 1.2188263 0.8077545c0.6731415 0 1.2188263 -0.3616333 1.2188263 -0.8077545l0 0c0 -0.44610596 -0.5456848 -0.8077545 -1.2188263 -0.8077545c-0.6731415 0 -1.2188263 0.36164856 -1.2188263 0.8077545l0 10.034897c0 0.44612122 0.5456848 0.8077545 1.2188263 0.8077545c0.6731415 0 1.2188263 -0.3616333 1.2188263 -0.8077545l0 -10.034897" fill-rule="nonzero"></path><path stroke="#000000" stroke-width="1.0" stroke-linejoin="round" stroke-linecap="butt" d="m168.80414 154.98808l0 0c0 0.44612122 0.5456848 0.8077545 1.2188263 0.8077545c0.6731415 0 1.2188263 -0.3616333 1.2188263 -0.8077545l0 0c0 -0.44610596 -0.5456848 -0.8077545 -1.2188263 -0.8077545c-0.6731415 0 -1.2188263 0.36164856 -1.2188263 0.8077545l0 10.034897c0 0.44612122 0.5456848 0.8077545 1.2188263 0.8077545c0.6731415 0 1.2188263 -0.3616333 1.2188263 -0.8077545l0 -10.034897" fill-rule="nonzero"></path><path fill="#efefef" d="m164.93866 167.89053l0 0c0 -0.8300171 1.1813202 -1.5028839 2.638565 -1.5028839l0 0c1.4572296 0 2.6385498 0.6728668 2.6385498 1.5028839l0 0c0 0.8300171 -1.1813202 1.5028687 -2.6385498 1.5028687l0 0c-1.4572449 0 -2.638565 -0.67285156 -2.638565 -1.5028687z" fill-rule="nonzero"></path><path fill="#f1c232" d="m168.79605 157.05753l0 0c0 0.44610596 -0.5457001 0.80773926 -1.2188263 0.80773926c-0.6731415 0 -1.2188416 -0.3616333 -1.2188416 -0.80773926l0 10.034897c0 0.44610596 0.5457001 0.80773926 1.2188416 0.80773926c0.6731262 0 1.2188263 -0.3616333 1.2188263 -0.80773926z" fill-rule="nonzero"></path><path fill="#f6da84" d="m168.79605 157.05753l0 0c0 -0.44612122 -0.5457001 -0.8077545 -1.2188263 -0.8077545c-0.6731415 0 -1.2188416 0.3616333 -1.2188416 0.8077545l0 0c0 0.44610596 0.5457001 0.80773926 1.2188416 0.80773926c0.6731262 0 1.2188263 -0.3616333 1.2188263 -0.80773926z" fill-rule="nonzero"></path><path fill="#000000" fill-opacity="0.0" d="m166.35838 157.05753l0 0c0 0.44610596 0.5457001 0.80773926 1.2188416 0.80773926c0.6731262 0 1.2188263 -0.3616333 1.2188263 -0.80773926l0 0c0 -0.44612122 -0.5457001 -0.8077545 -1.2188263 -0.8077545c-0.6731415 0 -1.2188416 0.3616333 -1.2188416 0.8077545l0 10.034897c0 0.44610596 0.5457001 0.80773926 1.2188416 0.80773926c0.6731262 0 1.2188263 -0.3616333 1.2188263 -0.80773926l0 -10.034897" fill-rule="nonzero"></path><path stroke="#000000" stroke-width="1.0" stroke-linejoin="round" stroke-linecap="butt" d="m166.35838 157.05753l0 0c0 0.44610596 0.5457001 0.80773926 1.2188416 0.80773926c0.6731262 0 1.2188263 -0.3616333 1.2188263 -0.80773926l0 0c0 -0.44612122 -0.5457001 -0.8077545 -1.2188263 -0.8077545c-0.6731415 0 -1.2188416 0.3616333 -1.2188416 0.8077545l0 10.034897c0 0.44610596 0.5457001 0.80773926 1.2188416 0.80773926c0.6731262 0 1.2188263 -0.3616333 1.2188263 -0.80773926l0 -10.034897" fill-rule="nonzero"></path><path fill="#efefef" d="m168.72011 168.55113l0 0c0 -0.8300171 1.1813202 -1.5028839 2.638565 -1.5028839l0 0c1.4572296 0 2.6385498 0.6728668 2.6385498 1.5028839l0 0c0 0.83000183 -1.1813202 1.5028687 -2.6385498 1.5028687l0 0c-1.4572449 0 -2.638565 -0.6728668 -2.638565 -1.5028687z" fill-rule="nonzero"></path><path fill="#f1c232" d="m172.5775 157.71811l0 0c0 0.44612122 -0.5457001 0.8077545 -1.2188263 0.8077545c-0.6731415 0 -1.2188263 -0.3616333 -1.2188263 -0.8077545l0 10.034897c0 0.44612122 0.5456848 0.8077545 1.2188263 0.8077545c0.6731262 0 1.2188263 -0.3616333 1.2188263 -0.8077545z" fill-rule="nonzero"></path><path fill="#f6da84" d="m172.5775 157.71811l0 0c0 -0.44610596 -0.5457001 -0.8077545 -1.2188263 -0.8077545c-0.6731415 0 -1.2188263 0.36164856 -1.2188263 0.8077545l0 0c0 0.44612122 0.5456848 0.8077545 1.2188263 0.8077545c0.6731262 0 1.2188263 -0.3616333 1.2188263 -0.8077545z" fill-rule="nonzero"></path><path fill="#000000" fill-opacity="0.0" d="m170.13985 157.71811l0 0c0 0.44612122 0.5456848 0.8077545 1.2188263 0.8077545c0.6731262 0 1.2188263 -0.3616333 1.2188263 -0.8077545l0 0c0 -0.44610596 -0.5457001 -0.8077545 -1.2188263 -0.8077545c-0.6731415 0 -1.2188263 0.36164856 -1.2188263 0.8077545l0 10.034897c0 0.44612122 0.5456848 0.8077545 1.2188263 0.8077545c0.6731262 0 1.2188263 -0.3616333 1.2188263 -0.8077545l0 -10.034897" fill-rule="nonzero"></path><path stroke="#000000" stroke-width="1.0" stroke-linejoin="round" stroke-linecap="butt" d="m170.13985 157.71811l0 0c0 0.44612122 0.5456848 0.8077545 1.2188263 0.8077545c0.6731262 0 1.2188263 -0.3616333 1.2188263 -0.8077545l0 0c0 -0.44610596 -0.5457001 -0.8077545 -1.2188263 -0.8077545c-0.6731415 0 -1.2188263 0.36164856 -1.2188263 0.8077545l0 10.034897c0 0.44612122 0.5456848 0.8077545 1.2188263 0.8077545c0.6731262 0 1.2188263 -0.3616333 1.2188263 -0.8077545l0 -10.034897" fill-rule="nonzero"></path><path fill="#efefef" d="m162.41003 169.72462l0 0c0 -0.8300171 1.1813354 -1.5028839 2.638565 -1.5028839l0 0c1.4572296 0 2.638565 0.6728668 2.638565 1.5028839l0 0c0 0.8300171 -1.1813354 1.5028687 -2.638565 1.5028687l0 0c-1.4572296 0 -2.638565 -0.67285156 -2.638565 -1.5028687z" fill-rule="nonzero"></path><path fill="#f1c232" d="m166.26743 158.8916l0 0c0 0.44612122 -0.5456848 0.8077545 -1.2188263 0.8077545c-0.6731415 0 -1.2188263 -0.3616333 -1.2188263 -0.8077545l0 10.034897c0 0.44612122 0.5456848 0.8077545 1.2188263 0.8077545c0.6731415 0 1.2188263 -0.3616333 1.2188263 -0.8077545z" fill-rule="nonzero"></path><path fill="#f6da84" d="m166.26743 158.8916l0 0c0 -0.44610596 -0.5456848 -0.80773926 -1.2188263 -0.80773926c-0.6731415 0 -1.2188263 0.3616333 -1.2188263 0.80773926l0 0c0 0.44612122 0.5456848 0.8077545 1.2188263 0.8077545c0.6731415 0 1.2188263 -0.3616333 1.2188263 -0.8077545z" fill-rule="nonzero"></path><path fill="#000000" fill-opacity="0.0" d="m163.82977 158.8916l0 0c0 0.44612122 0.5456848 0.8077545 1.2188263 0.8077545c0.6731415 0 1.2188263 -0.3616333 1.2188263 -0.8077545l0 0c0 -0.44610596 -0.5456848 -0.80773926 -1.2188263 -0.80773926c-0.6731415 0 -1.2188263 0.3616333 -1.2188263 0.80773926l0 10.034897c0 0.44612122 0.5456848 0.8077545 1.2188263 0.8077545c0.6731415 0 1.2188263 -0.3616333 1.2188263 -0.8077545l0 -10.034897" fill-rule="nonzero"></path><path stroke="#000000" stroke-width="1.0" stroke-linejoin="round" stroke-linecap="butt" d="m163.82977 158.8916l0 0c0 0.44612122 0.5456848 0.8077545 1.2188263 0.8077545c0.6731415 0 1.2188263 -0.3616333 1.2188263 -0.8077545l0 0c0 -0.44610596 -0.5456848 -0.80773926 -1.2188263 -0.80773926c-0.6731415 0 -1.2188263 0.3616333 -1.2188263 0.80773926l0 10.034897c0 0.44612122 0.5456848 0.8077545 1.2188263 0.8077545c0.6731415 0 1.2188263 -0.3616333 1.2188263 -0.8077545l0 -10.034897" fill-rule="nonzero"></path><path fill="#efefef" d="m166.19148 170.38522l0 0c0 -0.8300171 1.1813354 -1.5028839 2.638565 -1.5028839l0 0c1.4572296 0 2.638565 0.6728668 2.638565 1.5028839l0 0c0 0.83000183 -1.1813354 1.5028687 -2.638565 1.5028687l0 0c-1.4572296 0 -2.638565 -0.6728668 -2.638565 -1.5028687z" fill-rule="nonzero"></path><path fill="#f1c232" d="m170.04887 159.5522l0 0c0 0.44612122 -0.5456848 0.8077545 -1.2188263 0.8077545c-0.6731415 0 -1.2188263 -0.3616333 -1.2188263 -0.8077545l0 10.034897c0 0.44612122 0.5456848 0.8077545 1.2188263 0.8077545c0.6731415 0 1.2188263 -0.3616333 1.2188263 -0.8077545z" fill-rule="nonzero"></path><path fill="#f6da84" d="m170.04887 159.5522l0 0c0 -0.44610596 -0.5456848 -0.8077545 -1.2188263 -0.8077545c-0.6731415 0 -1.2188263 0.36164856 -1.2188263 0.8077545l0 0c0 0.44612122 0.5456848 0.8077545 1.2188263 0.8077545c0.6731415 0 1.2188263 -0.3616333 1.2188263 -0.8077545z" fill-rule="nonzero"></path><path fill="#000000" fill-opacity="0.0" d="m167.61122 159.5522l0 0c0 0.44612122 0.5456848 0.8077545 1.2188263 0.8077545c0.6731415 0 1.2188263 -0.3616333 1.2188263 -0.8077545l0 0c0 -0.44610596 -0.5456848 -0.8077545 -1.2188263 -0.8077545c-0.6731415 0 -1.2188263 0.36164856 -1.2188263 0.8077545l0 10.034897c0 0.44612122 0.5456848 0.8077545 1.2188263 0.8077545c0.6731415 0 1.2188263 -0.3616333 1.2188263 -0.8077545l0 -10.034897" fill-rule="nonzero"></path><path stroke="#000000" stroke-width="1.0" stroke-linejoin="round" stroke-linecap="butt" d="m167.61122 159.5522l0 0c0 0.44612122 0.5456848 0.8077545 1.2188263 0.8077545c0.6731415 0 1.2188263 -0.3616333 1.2188263 -0.8077545l0 0c0 -0.44610596 -0.5456848 -0.8077545 -1.2188263 -0.8077545c-0.6731415 0 -1.2188263 0.36164856 -1.2188263 0.8077545l0 10.034897c0 0.44612122 0.5456848 0.8077545 1.2188263 0.8077545c0.6731415 0 1.2188263 -0.3616333 1.2188263 -0.8077545l0 -10.034897" fill-rule="nonzero"></path><path fill="#000000" fill-opacity="0.0" d="m3.840523 141.5355l294.4252 31.275589" fill-rule="nonzero"></path><path stroke="#000000" stroke-width="1.0" stroke-linejoin="round" stroke-linecap="butt" d="m3.840523 141.5355l294.4252 31.275589" fill-rule="nonzero"></path><path fill="#000000" fill-opacity="0.0" d="m40.35022 240.15143l226.96063 -185.07086" fill-rule="nonzero"></path><path stroke="#000000" stroke-width="1.0" stroke-linejoin="round" stroke-linecap="butt" d="m40.35022 240.15143l226.96063 -185.07086" fill-rule="nonzero"></path><path fill="#434343" d="m135.05461 157.78067l9.413666 0.97239685l-0.11454773 0.9213257l-9.413666 -0.97239685z" fill-rule="nonzero"></path><path fill="#353535" d="m144.46828 158.75307l5.5269012 -4.397522l-0.11454773 0.9213257l-5.5269012 4.397522z" fill-rule="nonzero"></path><path fill="#686868" d="m135.05461 157.78067l5.5269012 -4.397537l9.413666 0.9724121l-5.5269012 4.397522z" fill-rule="nonzero"></path><path fill="#000000" fill-opacity="0.0" d="m135.05461 157.78067l5.5269012 -4.397537l9.413666 0.9724121l-0.11454773 0.9213257l-5.5269012 4.397522l-9.413666 -0.97239685zm0 0l9.413666 0.97239685l5.5269012 -4.397522m-5.5269012 4.397522l-0.11454773 0.9213257" fill-rule="nonzero"></path><path stroke="#000000" stroke-width="1.0" stroke-linejoin="round" stroke-linecap="butt" d="m135.05461 157.78067l5.5269012 -4.397537l9.413666 0.9724121l-0.11454773 0.9213257l-5.5269012 4.397522l-9.413666 -0.97239685zm0 0l9.413666 0.97239685l5.5269012 -4.397522m-5.5269012 4.397522l-0.11454773 0.9213257" fill-rule="nonzero"></path><path fill="#000000" fill-opacity="0.0" d="m142.82335 156.03717l0.03149414 -112.7874" fill-rule="nonzero"></path><path stroke="#000000" stroke-width="1.0" stroke-linejoin="round" stroke-linecap="butt" d="m142.82335 156.03717l0.03149414 -112.7874" fill-rule="nonzero"></path><path fill="#000000" fill-opacity="0.0" d="m115.977005 1.6246719l204.7874 0l0 31.653545l-204.7874 0z" fill-rule="nonzero"></path><path fill="#000000" d="m167.93042 22.144672l0 -8.59375l1.15625 0l4.515625 6.75l0 -6.75l1.09375 0l0 8.59375l-1.171875 0l-4.515625 -6.75l0 6.75l-1.078125 0zm12.791016 -2.0l1.09375 0.125q-0.25 0.953125 -0.953125 1.484375q-0.703125 0.53125 -1.78125 0.53125q-1.359375 0 -2.171875 -0.84375q-0.796875 -0.84375 -0.796875 -2.359375q0 -1.5625 0.8125 -2.421875q0.8125 -0.875 2.09375 -0.875q1.25 0 2.03125 0.84375q0.796875 0.84375 0.796875 2.390625q0 0.09375 0 0.28125l-4.640625 0q0.0625 1.03125 0.578125 1.578125q0.515625 0.53125 1.296875 0.53125q0.578125 0 0.984375 -0.296875q0.421875 -0.3125 0.65625 -0.96875zm-3.453125 -1.703125l3.46875 0q-0.0625 -0.796875 -0.390625 -1.1875q-0.515625 -0.609375 -1.3125 -0.609375q-0.734375 0 -1.234375 0.484375q-0.484375 0.484375 -0.53125 1.3125zm5.673828 4.21875l1.03125 0.15625q0.0625 0.46875 0.359375 0.6875q0.390625 0.296875 1.0625 0.296875q0.734375 0 1.125 -0.296875q0.40625 -0.296875 0.546875 -0.8125q0.09375 -0.328125 0.078125 -1.359375q-0.6875 0.8125 -1.71875 0.8125q-1.28125 0 -1.984375 -0.921875q-0.703125 -0.9375 -0.703125 -2.21875q0 -0.890625 0.3125 -1.640625q0.328125 -0.765625 0.9375 -1.171875q0.609375 -0.40625 1.4375 -0.40625q1.109375 0 1.828125 0.890625l0 -0.75l0.96875 0l0 5.375q0 1.453125 -0.296875 2.0625q-0.296875 0.609375 -0.9375 0.953125q-0.640625 0.359375 -1.578125 0.359375q-1.109375 0 -1.796875 -0.5q-0.6875 -0.5 -0.671875 -1.515625zm0.875 -3.734375q0 1.21875 0.484375 1.78125q0.484375 0.5625 1.21875 0.5625q0.734375 0 1.21875 -0.5625q0.5 -0.5625 0.5 -1.75q0 -1.140625 -0.515625 -1.71875q-0.5 -0.578125 -1.21875 -0.578125q-0.703125 0 -1.203125 0.578125q-0.484375 0.5625 -0.484375 1.6875zm10.064453 2.453125q-0.59375 0.5 -1.140625 0.703125q-0.53125 0.203125 -1.15625 0.203125q-1.03125 0 -1.578125 -0.5q-0.546875 -0.5 -0.546875 -1.28125q0 -0.453125 0.203125 -0.828125q0.203125 -0.390625 0.546875 -0.609375q0.34375 -0.234375 0.765625 -0.34375q0.296875 -0.09375 0.9375 -0.171875q1.265625 -0.140625 1.875 -0.359375q0 -0.21875 0 -0.265625q0 -0.65625 -0.296875 -0.921875q-0.40625 -0.34375 -1.203125 -0.34375q-0.734375 0 -1.09375 0.265625q-0.359375 0.25 -0.53125 0.90625l-1.03125 -0.140625q0.140625 -0.65625 0.46875 -1.0625q0.328125 -0.40625 0.9375 -0.625q0.609375 -0.21875 1.40625 -0.21875q0.796875 0 1.296875 0.1875q0.5 0.1875 0.734375 0.46875q0.234375 0.28125 0.328125 0.71875q0.046875 0.265625 0.046875 0.96875l0 1.40625q0 1.46875 0.0625 1.859375q0.078125 0.390625 0.28125 0.75l-1.109375 0q-0.15625 -0.328125 -0.203125 -0.765625zm-0.09375 -2.359375q-0.578125 0.234375 -1.71875 0.40625q-0.65625 0.09375 -0.921875 0.21875q-0.265625 0.109375 -0.421875 0.328125q-0.140625 0.21875 -0.140625 0.5q0 0.421875 0.3125 0.703125q0.328125 0.28125 0.9375 0.28125q0.609375 0 1.078125 -0.265625q0.484375 -0.265625 0.703125 -0.734375q0.171875 -0.359375 0.171875 -1.046875l0 -0.390625zm5.001953 2.1875l0.15625 0.921875q-0.453125 0.09375 -0.796875 0.09375q-0.578125 0 -0.890625 -0.171875q-0.3125 -0.1875 -0.453125 -0.484375q-0.125 -0.296875 -0.125 -1.25l0 -3.578125l-0.765625 0l0 -0.8125l0.765625 0l0 -1.546875l1.046875 -0.625l0 2.171875l1.0625 0l0 0.8125l-1.0625 0l0 3.640625q0 0.453125 0.046875 0.578125q0.0625 0.125 0.1875 0.203125q0.125 0.078125 0.359375 0.078125q0.1875 0 0.46875 -0.03125zm1.0371094 -6.4375l0 -1.21875l1.0625 0l0 1.21875l-1.0625 0zm0 7.375l0 -6.21875l1.0625 0l0 6.21875l-1.0625 0zm4.3847656 0l-2.359375 -6.21875l1.109375 0l1.34375 3.71875q0.203125 0.609375 0.390625 1.25q0.140625 -0.484375 0.390625 -1.171875l1.390625 -3.796875l1.078125 0l-2.359375 6.21875l-0.984375 0zm8.53125 -2.0l1.09375 0.125q-0.25 0.953125 -0.953125 1.484375q-0.703125 0.53125 -1.78125 0.53125q-1.359375 0 -2.171875 -0.84375q-0.796875 -0.84375 -0.796875 -2.359375q0 -1.5625 0.8125 -2.421875q0.8125 -0.875 2.09375 -0.875q1.25 0 2.03125 0.84375q0.796875 0.84375 0.796875 2.390625q0 0.09375 0 0.28125l-4.640625 0q0.0625 1.03125 0.578125 1.578125q0.515625 0.53125 1.296875 0.53125q0.578125 0 0.984375 -0.296875q0.421875 -0.3125 0.65625 -0.96875zm-3.453125 -1.703125l3.46875 0q-0.0625 -0.796875 -0.390625 -1.1875q-0.515625 -0.609375 -1.3125 -0.609375q-0.734375 0 -1.234375 0.484375q-0.484375 0.484375 -0.53125 1.3125zm9.3515625 3.703125l0 -8.59375l3.8125 0q1.15625 0 1.75 0.234375q0.59375 0.234375 0.953125 0.828125q0.359375 0.578125 0.359375 1.28125q0 0.921875 -0.59375 1.546875q-0.59375 0.625 -1.828125 0.796875q0.453125 0.21875 0.6875 0.421875q0.5 0.453125 0.9375 1.140625l1.5 2.34375l-1.4375 0l-1.125 -1.78125q-0.5 -0.78125 -0.828125 -1.1875q-0.3125 -0.40625 -0.578125 -0.5625q-0.25 -0.171875 -0.515625 -0.25q-0.1875 -0.03125 -0.625 -0.03125l-1.328125 0l0 3.8125l-1.140625 0zm1.140625 -4.796875l2.453125 0q0.765625 0 1.203125 -0.15625q0.453125 -0.171875 0.671875 -0.515625q0.234375 -0.359375 0.234375 -0.78125q0 -0.609375 -0.453125 -1.0q-0.4375 -0.390625 -1.390625 -0.390625l-2.71875 0l0 2.84375zm6.9941406 1.6875q0 -1.734375 0.953125 -2.5625q0.796875 -0.6875 1.953125 -0.6875q1.28125 0 2.09375 0.84375q0.828125 0.828125 0.828125 2.3125q0 1.203125 -0.359375 1.890625q-0.359375 0.6875 -1.0625 1.078125q-0.6875 0.375 -1.5 0.375q-1.296875 0 -2.109375 -0.828125q-0.796875 -0.84375 -0.796875 -2.421875zm1.078125 0q0 1.1875 0.515625 1.78125q0.53125 0.59375 1.3125 0.59375q0.796875 0 1.3125 -0.59375q0.515625 -0.59375 0.515625 -1.8125q0 -1.15625 -0.53125 -1.75q-0.515625 -0.59375 -1.296875 -0.59375q-0.78125 0 -1.3125 0.59375q-0.515625 0.578125 -0.515625 1.78125zm8.283203 2.171875l0.15625 0.921875q-0.453125 0.09375 -0.796875 0.09375q-0.578125 0 -0.890625 -0.171875q-0.3125 -0.1875 -0.453125 -0.484375q-0.125 -0.296875 -0.125 -1.25l0 -3.578125l-0.765625 0l0 -0.8125l0.765625 0l0 -1.546875l1.046875 -0.625l0 2.171875l1.0625 0l0 0.8125l-1.0625 0l0 3.640625q0 0.453125 0.046875 0.578125q0.0625 0.125 0.1875 0.203125q0.125 0.078125 0.359375 0.078125q0.1875 0 0.46875 -0.03125zm5.0996094 0.171875q-0.59375 0.5 -1.140625 0.703125q-0.53125 0.203125 -1.15625 0.203125q-1.03125 0 -1.578125 -0.5q-0.546875 -0.5 -0.546875 -1.28125q0 -0.453125 0.203125 -0.828125q0.203125 -0.390625 0.546875 -0.609375q0.34375 -0.234375 0.765625 -0.34375q0.296875 -0.09375 0.9375 -0.171875q1.265625 -0.140625 1.875 -0.359375q0 -0.21875 0 -0.265625q0 -0.65625 -0.296875 -0.921875q-0.40625 -0.34375 -1.203125 -0.34375q-0.734375 0 -1.09375 0.265625q-0.359375 0.25 -0.53125 0.90625l-1.03125 -0.140625q0.140625 -0.65625 0.46875 -1.0625q0.328125 -0.40625 0.9375 -0.625q0.609375 -0.21875 1.40625 -0.21875q0.796875 0 1.296875 0.1875q0.5 0.1875 0.734375 0.46875q0.234375 0.28125 0.328125 0.71875q0.046875 0.265625 0.046875 0.96875l0 1.40625q0 1.46875 0.0625 1.859375q0.078125 0.390625 0.28125 0.75l-1.109375 0q-0.15625 -0.328125 -0.203125 -0.765625zm-0.09375 -2.359375q-0.578125 0.234375 -1.71875 0.40625q-0.65625 0.09375 -0.921875 0.21875q-0.265625 0.109375 -0.421875 0.328125q-0.140625 0.21875 -0.140625 0.5q0 0.421875 0.3125 0.703125q0.328125 0.28125 0.9375 0.28125q0.609375 0 1.078125 -0.265625q0.484375 -0.265625 0.703125 -0.734375q0.171875 -0.359375 0.171875 -1.046875l0 -0.390625zm5.001953 2.1875l0.15625 0.921875q-0.453125 0.09375 -0.796875 0.09375q-0.578125 0 -0.890625 -0.171875q-0.3125 -0.1875 -0.453125 -0.484375q-0.125 -0.296875 -0.125 -1.25l0 -3.578125l-0.765625 0l0 -0.8125l0.765625 0l0 -1.546875l1.046875 -0.625l0 2.171875l1.0625 0l0 0.8125l-1.0625 0l0 3.640625q0 0.453125 0.046875 0.578125q0.0625 0.125 0.1875 0.203125q0.125 0.078125 0.359375 0.078125q0.1875 0 0.46875 -0.03125zm1.0371094 -6.4375l0 -1.21875l1.0625 0l0 1.21875l-1.0625 0zm0 7.375l0 -6.21875l1.0625 0l0 6.21875l-1.0625 0zm2.2753906 -3.109375q0 -1.734375 0.953125 -2.5625q0.796875 -0.6875 1.953125 -0.6875q1.28125 0 2.09375 0.84375q0.828125 0.828125 0.828125 2.3125q0 1.203125 -0.359375 1.890625q-0.359375 0.6875 -1.0625 1.078125q-0.6875 0.375 -1.5 0.375q-1.296875 0 -2.109375 -0.828125q-0.796875 -0.84375 -0.796875 -2.421875zm1.078125 0q0 1.1875 0.515625 1.78125q0.53125 0.59375 1.3125 0.59375q0.796875 0 1.3125 -0.59375q0.515625 -0.59375 0.515625 -1.8125q0 -1.15625 -0.53125 -1.75q-0.515625 -0.59375 -1.296875 -0.59375q-0.78125 0 -1.3125 0.59375q-0.515625 0.578125 -0.515625 1.78125zm5.986328 3.109375l0 -6.21875l0.9375 0l0 0.875q0.6875 -1.015625 1.984375 -1.015625q0.5625 0 1.03125 0.203125q0.484375 0.203125 0.71875 0.53125q0.234375 0.328125 0.328125 0.765625q0.046875 0.296875 0.046875 1.03125l0 3.828125l-1.046875 0l0 -3.78125q0 -0.65625 -0.125 -0.96875q-0.125 -0.3125 -0.4375 -0.5q-0.3125 -0.203125 -0.734375 -0.203125q-0.671875 0 -1.171875 0.4375q-0.484375 0.421875 -0.484375 1.609375l0 3.40625l-1.046875 0zm9.1953125 0l3.296875 -8.59375l1.21875 0l3.515625 8.59375l-1.28125 0l-1.015625 -2.609375l-3.578125 0l-0.953125 2.609375l-1.203125 0zm2.484375 -3.53125l2.90625 0l-0.890625 -2.375q-0.421875 -1.078125 -0.609375 -1.78125q-0.171875 0.828125 -0.46875 1.640625l-0.9375 2.515625zm7.3007812 3.53125l-0.984375 0l0 -8.59375l1.0625 0l0 3.0625q0.671875 -0.828125 1.703125 -0.828125q0.578125 0 1.078125 0.234375q0.515625 0.21875 0.84375 0.640625q0.34375 0.421875 0.53125 1.015625q0.1875 0.59375 0.1875 1.265625q0 1.59375 -0.796875 2.46875q-0.796875 0.875 -1.890625 0.875q-1.109375 0 -1.734375 -0.921875l0 0.78125zm-0.015625 -3.15625q0 1.109375 0.3125 1.609375q0.5 0.8125 1.34375 0.8125q0.6875 0 1.1875 -0.59375q0.515625 -0.59375 0.515625 -1.796875q0 -1.21875 -0.484375 -1.796875q-0.484375 -0.578125 -1.171875 -0.578125q-0.6875 0 -1.203125 0.609375q-0.5 0.59375 -0.5 1.734375zm5.330078 0.046875q0 -1.734375 0.953125 -2.5625q0.796875 -0.6875 1.953125 -0.6875q1.28125 0 2.09375 0.84375q0.828125 0.828125 0.828125 2.3125q0 1.203125 -0.359375 1.890625q-0.359375 0.6875 -1.0625 1.078125q-0.6875 0.375 -1.5 0.375q-1.296875 0 -2.109375 -0.828125q-0.796875 -0.84375 -0.796875 -2.421875zm1.078125 0q0 1.1875 0.515625 1.78125q0.53125 0.59375 1.3125 0.59375q0.796875 0 1.3125 -0.59375q0.515625 -0.59375 0.515625 -1.8125q0 -1.15625 -0.53125 -1.75q-0.515625 -0.59375 -1.296875 -0.59375q-0.78125 0 -1.3125 0.59375q-0.515625 0.578125 -0.515625 1.78125zm10.064453 3.109375l0 -0.921875q-0.734375 1.0625 -1.984375 1.0625q-0.546875 0 -1.03125 -0.203125q-0.46875 -0.21875 -0.703125 -0.53125q-0.234375 -0.328125 -0.328125 -0.796875q-0.0625 -0.296875 -0.0625 -0.984375l0 -3.84375l1.0625 0l0 3.453125q0 0.8125 0.0625 1.109375q0.09375 0.40625 0.40625 0.65625q0.328125 0.234375 0.8125 0.234375q0.46875 0 0.875 -0.234375q0.421875 -0.25 0.59375 -0.671875q0.1875 -0.421875 0.1875 -1.21875l0 -3.328125l1.046875 0l0 6.21875l-0.9375 0zm4.892578 -0.9375l0.15625 0.921875q-0.453125 0.09375 -0.796875 0.09375q-0.578125 0 -0.890625 -0.171875q-0.3125 -0.1875 -0.453125 -0.484375q-0.125 -0.296875 -0.125 -1.25l0 -3.578125l-0.765625 0l0 -0.8125l0.765625 0l0 -1.546875l1.046875 -0.625l0 2.171875l1.0625 0l0 0.8125l-1.0625 0l0 3.640625q0 0.453125 0.046875 0.578125q0.0625 0.125 0.1875 0.203125q0.125 0.078125 0.359375 0.078125q0.1875 0 0.46875 -0.03125zm3.6210938 0.9375l3.328125 -4.484375l-2.921875 -4.109375l1.34375 0l1.5625 2.203125q0.484375 0.6875 0.6875 1.0625q0.296875 -0.46875 0.6875 -0.984375l1.71875 -2.28125l1.234375 0l-3.015625 4.046875l3.25 4.546875l-1.40625 0l-2.15625 -3.0625q-0.1875 -0.265625 -0.375 -0.578125q-0.28125 0.46875 -0.40625 0.640625l-2.15625 3.0l-1.375 0zm9.316406 -2.140625l-0.328125 -4.546875l0 -1.90625l1.3125 0l0 1.90625l-0.3125 4.546875l-0.671875 0zm-0.28125 2.140625l0 -1.203125l1.21875 0l0 1.203125l-1.21875 0z" fill-rule="nonzero"></path><path fill="#000000" fill-opacity="0.0" d="m253.6568 168.06781l44.75592 5.1338654" fill-rule="nonzero"></path><path stroke="#000000" stroke-width="1.0" stroke-linejoin="round" stroke-linecap="butt" d="m253.6568 168.06781l44.75592 5.1338654" fill-rule="nonzero"></path><path fill="#000000" fill-opacity="0.0" d="m252.2072 173.19252l23.685043 0l0 23.937012l-23.685043 0z" fill-rule="nonzero"></path><path fill="#000000" d="m261.28534 200.11252l5.265625 -7.09375l-4.640625 -6.5l2.140625 0l2.46875 3.484375q0.78125 1.078125 1.09375 1.671875q0.453125 -0.75 1.078125 -1.546875l2.734375 -3.609375l1.96875 0l-4.78125 6.40625l5.140625 7.1875l-2.21875 0l-3.421875 -4.859375q-0.296875 -0.40625 -0.59375 -0.90625q-0.453125 0.75 -0.65625 1.03125l-3.40625 4.734375l-2.171875 0z" fill-rule="nonzero"></path><path fill="#000000" fill-opacity="0.0" d="m142.8212 43.249424l0.1574707 33.669292" fill-rule="nonzero"></path><path stroke="#000000" stroke-width="1.0" stroke-linejoin="round" stroke-linecap="butt" d="m142.8212 43.249424l0.1574707 33.669292" fill-rule="nonzero"></path><path fill="#000000" fill-opacity="0.0" d="m40.478317 240.14961l23.244095 -18.803162" fill-rule="nonzero"></path><path stroke="#000000" stroke-width="1.0" stroke-linejoin="round" stroke-linecap="butt" d="m40.478317 240.14961l23.244095 -18.803162" fill-rule="nonzero"></path><path fill="#00bbcc" d="m279.23227 221.67415l0 0c-13.9479065 0 -26.129364 -22.725616 -29.616333 -55.25197l13.635803 0l-23.81575 -18.417313l-21.8732 18.417313l13.6358185 0l0 0c3.4869843 32.526352 15.6684265 55.25197 29.616333 55.25197z" fill-rule="nonzero"></path><path fill="#0095a3" d="m291.40253 148.00487l0 0c0 32.1425 -8.652466 60.57466 -21.378937 70.25145c9.294037 7.066864 19.430023 3.0433655 27.290863 -10.833191c7.8608093 -13.876556 12.505402 -35.944855 12.505402 -59.41826z" fill-rule="nonzero"></path><path fill="#000000" fill-opacity="0.0" d="m279.23227 221.67415l0 0c-13.9479065 0 -26.129364 -22.725616 -29.616333 -55.25197l13.635803 0l-23.81575 -18.417313l-21.8732 18.417313l13.6358185 0l0 0c3.4869843 32.526352 15.6684265 55.25197 29.616333 55.25197l18.417328 0l0 0c16.893066 0 30.587585 -32.982864 30.587585 -73.66928l-18.417328 0l0 0c0 32.1425 -8.652466 60.57466 -21.378937 70.25145" fill-rule="nonzero"></path><path stroke="#000000" stroke-width="1.0" stroke-linejoin="round" stroke-linecap="butt" d="m279.23227 221.67415l0 0c-13.9479065 0 -26.129364 -22.725616 -29.616333 -55.25197l13.635803 0l-23.81575 -18.417313l-21.8732 18.417313l13.6358185 0l0 0c3.4869843 32.526352 15.6684265 55.25197 29.616333 55.25197l18.417328 0l0 0c16.893066 0 30.587585 -32.982864 30.587585 -73.66928l-18.417328 0l0 0c0 32.1425 -8.652466 60.57466 -21.378937 70.25145" fill-rule="nonzero"></path></g></svg>

