<?xml version="1.0" standalone="yes"?>

<svg version="1.1" viewBox="0.0 0.0 325.37007874015745 265.1076115485564" fill="none" stroke="none" stroke-linecap="square" stroke-miterlimit="10" xmlns="http://www.w3.org/2000/svg" xmlns:xlink="http://www.w3.org/1999/xlink"><clipPath id="p.0"><path d="m0 0l325.3701 0l0 265.1076l-325.3701 0l0 -265.1076z" clip-rule="nonzero"></path></clipPath><g clip-path="url(#p.0)"><path fill="#000000" fill-opacity="0.0" d="m0 0l325.3701 0l0 265.1076l-325.3701 0z" fill-rule="nonzero"></path><path fill="#ffffff" d="m1.3464566 1.304462l319.55905 0l0 261.85825l-319.55905 0z" fill-rule="nonzero"></path><path stroke="#000000" stroke-width="1.0" stroke-linejoin="round" stroke-linecap="butt" d="m1.3464566 1.304462l319.55905 0l0 261.85825l-319.55905 0z" fill-rule="nonzero"></path><path fill="#ff0000" d="m133.62215 198.99501l-0.022613525 45.118103l-8.874008 0l17.739136 17.748032l17.756927 -17.748032l-8.874023 0l0.022613525 -45.118103z" fill-rule="nonzero"></path><path stroke="#000000" stroke-width="1.0" stroke-linejoin="round" stroke-linecap="butt" d="m133.62215 198.99501l-0.022613525 45.118103l-8.874008 0l17.739136 17.748032l17.756927 -17.748032l-8.874023 0l0.022613525 -45.118103z" fill-rule="nonzero"></path><path fill="#000000" fill-opacity="0.0" d="m142.4656 156.29599l0.0315094 105.25983" fill-rule="nonzero"></path><path stroke="#000000" stroke-width="1.0" stroke-linejoin="round" stroke-linecap="butt" d="m142.4656 156.29599l0.0315094 105.25983" fill-rule="nonzero"></path><path fill="#cfe2f3" d="m29.833351 187.60316l136.56671 13.818314l-0.15258789 1.2980804l-136.56671 -13.818314z" fill-rule="nonzero"></path><path fill="#a5b4c2" d="m166.40007 201.42148l123.91063 -99.480865l-0.15258789 1.2980804l-123.91063 99.480865z" fill-rule="nonzero"></path><path fill="#d8e7f5" d="m29.833351 187.60316l123.91062 -99.480865l136.56673 13.818314l-123.91063 99.480865z" fill-rule="nonzero"></path><path fill="#000000" fill-opacity="0.0" d="m29.833351 187.60316l123.91062 -99.480865l136.56673 13.818314l-0.15258789 1.2980804l-123.91063 99.480865l-136.56671 -13.818314zm0 0l136.56671 13.818314l123.91063 -99.480865m-123.91063 99.480865l-0.15258789 1.2980804" fill-rule="nonzero"></path><path stroke="#000000" stroke-width="1.0" stroke-linejoin="round" stroke-linecap="butt" d="m29.833351 187.60316l123.91062 -99.480865l136.56673 13.818314l-0.15258789 1.2980804l-123.91063 99.480865l-136.56671 -13.818314zm0 0l136.56671 13.818314l123.91063 -99.480865m-123.91063 99.480865l-0.15258789 1.2980804" fill-rule="nonzero"></path><path fill="#000000" d="m159.54512 175.06079l11.160889 0.9483032l-0.7370453 7.4724274l-11.160889 -0.9483185z" fill-rule="nonzero"></path><path fill="#000000" d="m170.70601 176.0091l24.794983 -20.625488l-0.73706055 7.472412l-24.794968 20.625504z" fill-rule="nonzero"></path><path fill="#333333" d="m159.54512 175.06079l24.794968 -20.625504l11.160904 0.9483185l-24.794983 20.625488z" fill-rule="nonzero"></path><path fill="#000000" fill-opacity="0.0" d="m159.54512 175.06079l24.794968 -20.625504l11.160904 0.9483185l-0.73706055 7.472412l-24.794968 20.625504l-11.160889 -0.9483185zm0 0l11.160889 0.9483032l24.794983 -20.625488m-24.794983 20.625488l-0.7370453 7.4724274" fill-rule="nonzero"></path><path stroke="#000000" stroke-width="1.0" stroke-linejoin="round" stroke-linecap="butt" d="m159.54512 175.06079l24.794968 -20.625504l11.160904 0.9483185l-0.73706055 7.472412l-24.794968 20.625504l-11.160889 -0.9483185zm0 0l11.160889 0.9483032l24.794983 -20.625488m-24.794983 20.625488l-0.7370453 7.4724274" fill-rule="nonzero"></path><path fill="#000000" d="m56.942795 164.90717l11.160889 0.9483032l-0.7370453 7.4724274l-11.1608925 -0.9483185z" fill-rule="nonzero"></path><path fill="#000000" d="m68.10368 165.85547l24.794975 -20.625488l-0.7370453 7.472412l-24.794975 20.625504z" fill-rule="nonzero"></path><path fill="#333333" d="m56.942795 164.90717l24.794975 -20.625504l11.160889 0.9483185l-24.794975 20.625488z" fill-rule="nonzero"></path><path fill="#000000" fill-opacity="0.0" d="m56.942795 164.90717l24.794975 -20.625504l11.160889 0.9483185l-0.7370453 7.472412l-24.794975 20.625504l-11.1608925 -0.9483185zm0 0l11.160889 0.9483032l24.794975 -20.625488m-24.794975 20.625488l-0.7370453 7.4724274" fill-rule="nonzero"></path><path stroke="#000000" stroke-width="1.0" stroke-linejoin="round" stroke-linecap="butt" d="m56.942795 164.90717l24.794975 -20.625504l11.160889 0.9483185l-0.7370453 7.472412l-24.794975 20.625504l-11.1608925 -0.9483185zm0 0l11.160889 0.9483032l24.794975 -20.625488m-24.794975 20.625488l-0.7370453 7.4724274" fill-rule="nonzero"></path><path fill="#cc0000" d="m41.7617 166.4763l126.76285 12.816849l-0.38015747 3.2162933l-126.76285 -12.816849z" fill-rule="nonzero"></path><path fill="#a30000" d="m168.52455 179.29315l45.64441 -36.62416l-0.38015747 3.2162933l-45.64441 36.62416z" fill-rule="nonzero"></path><path fill="#d63333" d="m41.7617 166.4763l45.644413 -36.62416l126.76285 12.816849l-45.64441 36.62416z" fill-rule="nonzero"></path><path fill="#000000" fill-opacity="0.0" d="m41.7617 166.4763l45.644413 -36.62416l126.76285 12.816849l-0.38015747 3.2162933l-45.64441 36.62416l-126.76285 -12.816849zm0 0l126.76285 12.816849l45.64441 -36.62416m-45.64441 36.62416l-0.38015747 3.2162933" fill-rule="nonzero"></path><path stroke="#000000" stroke-width="1.0" stroke-linejoin="round" stroke-linecap="butt" d="m41.7617 166.4763l45.644413 -36.62416l126.76285 12.816849l-0.38015747 3.2162933l-45.64441 36.62416l-126.76285 -12.816849zm0 0l126.76285 12.816849l45.64441 -36.62416m-45.64441 36.62416l-0.38015747 3.2162933" fill-rule="nonzero"></path><path fill="#efefef" d="m79.89097 143.0441l0 0c0 -0.8300171 1.1813202 -1.5028687 2.6385574 -1.5028687l0 0c1.4572372 0 2.6385574 0.67285156 2.6385574 1.5028687l0 0c0 0.8300171 -1.1813202 1.5028839 -2.6385574 1.5028839l0 0c-1.4572372 0 -2.6385574 -0.6728668 -2.6385574 -1.5028839z" fill-rule="nonzero"></path><path fill="#f1c232" d="m83.74835 132.21109l0 0c0 0.44610596 -0.5456848 0.8077545 -1.2188263 0.8077545c-0.6731415 0 -1.2188263 -0.36164856 -1.2188263 -0.8077545l0 10.034897c0 0.44610596 0.5456848 0.8077545 1.2188263 0.8077545c0.6731415 0 1.2188263 -0.36164856 1.2188263 -0.8077545z" fill-rule="nonzero"></path><path fill="#f6da84" d="m83.74835 132.21109l0 0c0 -0.44610596 -0.5456848 -0.8077545 -1.2188263 -0.8077545c-0.6731415 0 -1.2188263 0.36164856 -1.2188263 0.8077545l0 0c0 0.44610596 0.5456848 0.8077545 1.2188263 0.8077545c0.6731415 0 1.2188263 -0.36164856 1.2188263 -0.8077545z" fill-rule="nonzero"></path><path fill="#000000" fill-opacity="0.0" d="m81.3107 132.21109l0 0c0 0.44610596 0.5456848 0.8077545 1.2188263 0.8077545c0.6731415 0 1.2188263 -0.36164856 1.2188263 -0.8077545l0 0c0 -0.44610596 -0.5456848 -0.8077545 -1.2188263 -0.8077545c-0.6731415 0 -1.2188263 0.36164856 -1.2188263 0.8077545l0 10.034897c0 0.44610596 0.5456848 0.8077545 1.2188263 0.8077545c0.6731415 0 1.2188263 -0.36164856 1.2188263 -0.8077545l0 -10.034897" fill-rule="nonzero"></path><path stroke="#000000" stroke-width="1.0" stroke-linejoin="round" stroke-linecap="butt" d="m81.3107 132.21109l0 0c0 0.44610596 0.5456848 0.8077545 1.2188263 0.8077545c0.6731415 0 1.2188263 -0.36164856 1.2188263 -0.8077545l0 0c0 -0.44610596 -0.5456848 -0.8077545 -1.2188263 -0.8077545c-0.6731415 0 -1.2188263 0.36164856 -1.2188263 0.8077545l0 10.034897c0 0.44610596 0.5456848 0.8077545 1.2188263 0.8077545c0.6731415 0 1.2188263 -0.36164856 1.2188263 -0.8077545l0 -10.034897" fill-rule="nonzero"></path><path fill="#efefef" d="m83.67242 143.7047l0 0c0 -0.8300171 1.1813202 -1.5028839 2.6385574 -1.5028839l0 0c1.4572372 0 2.6385574 0.6728668 2.6385574 1.5028839l0 0c0 0.8300171 -1.1813202 1.5028839 -2.6385574 1.5028839l0 0c-1.4572372 0 -2.6385574 -0.6728668 -2.6385574 -1.5028839z" fill-rule="nonzero"></path><path fill="#f1c232" d="m87.5298 132.87169l0 0c0 0.44610596 -0.5456848 0.8077545 -1.2188263 0.8077545c-0.6731415 0 -1.2188263 -0.36164856 -1.2188263 -0.8077545l0 10.034897c0 0.44610596 0.5456848 0.8077545 1.2188263 0.8077545c0.6731415 0 1.2188263 -0.36164856 1.2188263 -0.8077545z" fill-rule="nonzero"></path><path fill="#f6da84" d="m87.5298 132.87169l0 0c0 -0.44610596 -0.5456848 -0.8077545 -1.2188263 -0.8077545c-0.6731415 0 -1.2188263 0.36164856 -1.2188263 0.8077545l0 0c0 0.44610596 0.5456848 0.8077545 1.2188263 0.8077545c0.6731415 0 1.2188263 -0.36164856 1.2188263 -0.8077545z" fill-rule="nonzero"></path><path fill="#000000" fill-opacity="0.0" d="m85.09215 132.87169l0 0c0 0.44610596 0.5456848 0.8077545 1.2188263 0.8077545c0.6731415 0 1.2188263 -0.36164856 1.2188263 -0.8077545l0 0c0 -0.44610596 -0.5456848 -0.8077545 -1.2188263 -0.8077545c-0.6731415 0 -1.2188263 0.36164856 -1.2188263 0.8077545l0 10.034897c0 0.44610596 0.5456848 0.8077545 1.2188263 0.8077545c0.6731415 0 1.2188263 -0.36164856 1.2188263 -0.8077545l0 -10.034897" fill-rule="nonzero"></path><path stroke="#000000" stroke-width="1.0" stroke-linejoin="round" stroke-linecap="butt" d="m85.09215 132.87169l0 0c0 0.44610596 0.5456848 0.8077545 1.2188263 0.8077545c0.6731415 0 1.2188263 -0.36164856 1.2188263 -0.8077545l0 0c0 -0.44610596 -0.5456848 -0.8077545 -1.2188263 -0.8077545c-0.6731415 0 -1.2188263 0.36164856 -1.2188263 0.8077545l0 10.034897c0 0.44610596 0.5456848 0.8077545 1.2188263 0.8077545c0.6731415 0 1.2188263 -0.36164856 1.2188263 -0.8077545l0 -10.034897" fill-rule="nonzero"></path><path fill="#efefef" d="m77.44522 145.11354l0 0c0 -0.8300171 1.1813202 -1.5028839 2.6385574 -1.5028839l0 0c1.4572372 0 2.6385574 0.6728668 2.6385574 1.5028839l0 0c0 0.83000183 -1.1813202 1.5028687 -2.6385574 1.5028687l0 0c-1.4572372 0 -2.6385574 -0.6728668 -2.6385574 -1.5028687z" fill-rule="nonzero"></path><path fill="#f1c232" d="m81.302605 134.28052l0 0c0 0.44612122 -0.5456848 0.8077545 -1.2188263 0.8077545c-0.6731415 0 -1.2188263 -0.3616333 -1.2188263 -0.8077545l0 10.034897c0 0.44612122 0.5456848 0.8077545 1.2188263 0.8077545c0.6731415 0 1.2188263 -0.3616333 1.2188263 -0.8077545z" fill-rule="nonzero"></path><path fill="#f6da84" d="m81.302605 134.28052l0 0c0 -0.44610596 -0.5456848 -0.8077545 -1.2188263 -0.8077545c-0.6731415 0 -1.2188263 0.36164856 -1.2188263 0.8077545l0 0c0 0.44612122 0.5456848 0.8077545 1.2188263 0.8077545c0.6731415 0 1.2188263 -0.3616333 1.2188263 -0.8077545z" fill-rule="nonzero"></path><path fill="#000000" fill-opacity="0.0" d="m78.86495 134.28052l0 0c0 0.44612122 0.5456848 0.8077545 1.2188263 0.8077545c0.6731415 0 1.2188263 -0.3616333 1.2188263 -0.8077545l0 0c0 -0.44610596 -0.5456848 -0.8077545 -1.2188263 -0.8077545c-0.6731415 0 -1.2188263 0.36164856 -1.2188263 0.8077545l0 10.034897c0 0.44612122 0.5456848 0.8077545 1.2188263 0.8077545c0.6731415 0 1.2188263 -0.3616333 1.2188263 -0.8077545l0 -10.034897" fill-rule="nonzero"></path><path stroke="#000000" stroke-width="1.0" stroke-linejoin="round" stroke-linecap="butt" d="m78.86495 134.28052l0 0c0 0.44612122 0.5456848 0.8077545 1.2188263 0.8077545c0.6731415 0 1.2188263 -0.3616333 1.2188263 -0.8077545l0 0c0 -0.44610596 -0.5456848 -0.8077545 -1.2188263 -0.8077545c-0.6731415 0 -1.2188263 0.36164856 -1.2188263 0.8077545l0 10.034897c0 0.44612122 0.5456848 0.8077545 1.2188263 0.8077545c0.6731415 0 1.2188263 -0.3616333 1.2188263 -0.8077545l0 -10.034897" fill-rule="nonzero"></path><path fill="#efefef" d="m81.22667 145.77412l0 0c0 -0.8300171 1.1813202 -1.5028687 2.6385574 -1.5028687l0 0c1.4572372 0 2.6385574 0.67285156 2.6385574 1.5028687l0 0c0 0.8300171 -1.1813202 1.5028839 -2.6385574 1.5028839l0 0c-1.4572372 0 -2.6385574 -0.6728668 -2.6385574 -1.5028839z" fill-rule="nonzero"></path><path fill="#f1c232" d="m85.08405 134.94112l0 0c0 0.44610596 -0.5456848 0.8077545 -1.2188263 0.8077545c-0.6731415 0 -1.2188263 -0.36164856 -1.2188263 -0.8077545l0 10.034897c0 0.44610596 0.5456848 0.8077545 1.2188263 0.8077545c0.6731415 0 1.2188263 -0.36164856 1.2188263 -0.8077545z" fill-rule="nonzero"></path><path fill="#f6da84" d="m85.08405 134.94112l0 0c0 -0.44610596 -0.5456848 -0.8077545 -1.2188263 -0.8077545c-0.6731415 0 -1.2188263 0.36164856 -1.2188263 0.8077545l0 0c0 0.44610596 0.5456848 0.8077545 1.2188263 0.8077545c0.6731415 0 1.2188263 -0.36164856 1.2188263 -0.8077545z" fill-rule="nonzero"></path><path fill="#000000" fill-opacity="0.0" d="m82.6464 134.94112l0 0c0 0.44610596 0.5456848 0.8077545 1.2188263 0.8077545c0.6731415 0 1.2188263 -0.36164856 1.2188263 -0.8077545l0 0c0 -0.44610596 -0.5456848 -0.8077545 -1.2188263 -0.8077545c-0.6731415 0 -1.2188263 0.36164856 -1.2188263 0.8077545l0 10.034897c0 0.44610596 0.5456848 0.8077545 1.2188263 0.8077545c0.6731415 0 1.2188263 -0.36164856 1.2188263 -0.8077545l0 -10.034897" fill-rule="nonzero"></path><path stroke="#000000" stroke-width="1.0" stroke-linejoin="round" stroke-linecap="butt" d="m82.6464 134.94112l0 0c0 0.44610596 0.5456848 0.8077545 1.2188263 0.8077545c0.6731415 0 1.2188263 -0.36164856 1.2188263 -0.8077545l0 0c0 -0.44610596 -0.5456848 -0.8077545 -1.2188263 -0.8077545c-0.6731415 0 -1.2188263 0.36164856 -1.2188263 0.8077545l0 10.034897c0 0.44610596 0.5456848 0.8077545 1.2188263 0.8077545c0.6731415 0 1.2188263 -0.36164856 1.2188263 -0.8077545l0 -10.034897" fill-rule="nonzero"></path><path fill="#efefef" d="m75.00003 147.03522l0 0c0 -0.8300171 1.1813278 -1.5028839 2.638565 -1.5028839l0 0c1.4572296 0 2.6385574 0.6728668 2.6385574 1.5028839l0 0c0 0.8300171 -1.1813278 1.5028687 -2.6385574 1.5028687l0 0c-1.4572372 0 -2.638565 -0.67285156 -2.638565 -1.5028687z" fill-rule="nonzero"></path><path fill="#f1c232" d="m78.85742 136.20221l0 0c0 0.44610596 -0.54569244 0.80773926 -1.2188263 0.80773926c-0.6731415 0 -1.2188339 -0.3616333 -1.2188339 -0.80773926l0 10.034897c0 0.44610596 0.54569244 0.80773926 1.2188339 0.80773926c0.67313385 0 1.2188263 -0.3616333 1.2188263 -0.80773926z" fill-rule="nonzero"></path><path fill="#f6da84" d="m78.85742 136.20221l0 0c0 -0.44612122 -0.54569244 -0.8077545 -1.2188263 -0.8077545c-0.6731415 0 -1.2188339 0.3616333 -1.2188339 0.8077545l0 0c0 0.44610596 0.54569244 0.80773926 1.2188339 0.80773926c0.67313385 0 1.2188263 -0.3616333 1.2188263 -0.80773926z" fill-rule="nonzero"></path><path fill="#000000" fill-opacity="0.0" d="m76.41976 136.20221l0 0c0 0.44610596 0.54569244 0.80773926 1.2188339 0.80773926c0.67313385 0 1.2188263 -0.3616333 1.2188263 -0.80773926l0 0c0 -0.44612122 -0.54569244 -0.8077545 -1.2188263 -0.8077545c-0.6731415 0 -1.2188339 0.3616333 -1.2188339 0.8077545l0 10.034897c0 0.44610596 0.54569244 0.80773926 1.2188339 0.80773926c0.67313385 0 1.2188263 -0.3616333 1.2188263 -0.80773926l0 -10.034897" fill-rule="nonzero"></path><path stroke="#000000" stroke-width="1.0" stroke-linejoin="round" stroke-linecap="butt" d="m76.41976 136.20221l0 0c0 0.44610596 0.54569244 0.80773926 1.2188339 0.80773926c0.67313385 0 1.2188263 -0.3616333 1.2188263 -0.80773926l0 0c0 -0.44612122 -0.54569244 -0.8077545 -1.2188263 -0.8077545c-0.6731415 0 -1.2188339 0.3616333 -1.2188339 0.8077545l0 10.034897c0 0.44610596 0.54569244 0.80773926 1.2188339 0.80773926c0.67313385 0 1.2188263 -0.3616333 1.2188263 -0.80773926l0 -10.034897" fill-rule="nonzero"></path><path fill="#efefef" d="m78.78148 147.6958l0 0c0 -0.83000183 1.1813278 -1.5028687 2.638565 -1.5028687l0 0c1.4572296 0 2.6385574 0.6728668 2.6385574 1.5028687l0 0c0 0.8300171 -1.1813278 1.5028839 -2.6385574 1.5028839l0 0c-1.4572372 0 -2.638565 -0.6728668 -2.638565 -1.5028839z" fill-rule="nonzero"></path><path fill="#f1c232" d="m82.63887 136.8628l0 0c0 0.44612122 -0.54569244 0.8077545 -1.2188263 0.8077545c-0.6731415 0 -1.2188263 -0.3616333 -1.2188263 -0.8077545l0 10.034897c0 0.44612122 0.5456848 0.8077545 1.2188263 0.8077545c0.67313385 0 1.2188263 -0.3616333 1.2188263 -0.8077545z" fill-rule="nonzero"></path><path fill="#f6da84" d="m82.63887 136.8628l0 0c0 -0.44610596 -0.54569244 -0.8077545 -1.2188263 -0.8077545c-0.6731415 0 -1.2188263 0.36164856 -1.2188263 0.8077545l0 0c0 0.44612122 0.5456848 0.8077545 1.2188263 0.8077545c0.67313385 0 1.2188263 -0.3616333 1.2188263 -0.8077545z" fill-rule="nonzero"></path><path fill="#000000" fill-opacity="0.0" d="m80.20122 136.8628l0 0c0 0.44612122 0.5456848 0.8077545 1.2188263 0.8077545c0.67313385 0 1.2188263 -0.3616333 1.2188263 -0.8077545l0 0c0 -0.44610596 -0.54569244 -0.8077545 -1.2188263 -0.8077545c-0.6731415 0 -1.2188263 0.36164856 -1.2188263 0.8077545l0 10.034897c0 0.44612122 0.5456848 0.8077545 1.2188263 0.8077545c0.67313385 0 1.2188263 -0.3616333 1.2188263 -0.8077545l0 -10.034897" fill-rule="nonzero"></path><path stroke="#000000" stroke-width="1.0" stroke-linejoin="round" stroke-linecap="butt" d="m80.20122 136.8628l0 0c0 0.44612122 0.5456848 0.8077545 1.2188263 0.8077545c0.67313385 0 1.2188263 -0.3616333 1.2188263 -0.8077545l0 0c0 -0.44610596 -0.54569244 -0.8077545 -1.2188263 -0.8077545c-0.6731415 0 -1.2188263 0.36164856 -1.2188263 0.8077545l0 10.034897c0 0.44612122 0.5456848 0.8077545 1.2188263 0.8077545c0.67313385 0 1.2188263 -0.3616333 1.2188263 -0.8077545l0 -10.034897" fill-rule="nonzero"></path><path fill="#efefef" d="m72.55429 149.10464l0 0c0 -0.8300171 1.1813202 -1.5028839 2.6385574 -1.5028839l0 0c1.4572372 0 2.6385574 0.6728668 2.6385574 1.5028839l0 0c0 0.8300171 -1.1813202 1.5028839 -2.6385574 1.5028839l0 0c-1.4572372 0 -2.6385574 -0.6728668 -2.6385574 -1.5028839z" fill-rule="nonzero"></path><path fill="#f1c232" d="m76.35852 137.97588l0 0c0 0.44610596 -0.54569244 0.8077545 -1.2188263 0.8077545c-0.6731415 0 -1.2188339 -0.36164856 -1.2188339 -0.8077545l0 10.034897c0 0.44610596 0.54569244 0.8077545 1.2188339 0.8077545c0.67313385 0 1.2188263 -0.36164856 1.2188263 -0.8077545z" fill-rule="nonzero"></path><path fill="#f6da84" d="m76.35852 137.97588l0 0c0 -0.44612122 -0.54569244 -0.8077545 -1.2188263 -0.8077545c-0.6731415 0 -1.2188339 0.3616333 -1.2188339 0.8077545l0 0c0 0.44610596 0.54569244 0.8077545 1.2188339 0.8077545c0.67313385 0 1.2188263 -0.36164856 1.2188263 -0.8077545z" fill-rule="nonzero"></path><path fill="#000000" fill-opacity="0.0" d="m73.92086 137.97588l0 0c0 0.44610596 0.54569244 0.8077545 1.2188339 0.8077545c0.67313385 0 1.2188263 -0.36164856 1.2188263 -0.8077545l0 0c0 -0.44612122 -0.54569244 -0.8077545 -1.2188263 -0.8077545c-0.6731415 0 -1.2188339 0.3616333 -1.2188339 0.8077545l0 10.034897c0 0.44610596 0.54569244 0.8077545 1.2188339 0.8077545c0.67313385 0 1.2188263 -0.36164856 1.2188263 -0.8077545l0 -10.034897" fill-rule="nonzero"></path><path stroke="#000000" stroke-width="1.0" stroke-linejoin="round" stroke-linecap="butt" d="m73.92086 137.97588l0 0c0 0.44610596 0.54569244 0.8077545 1.2188339 0.8077545c0.67313385 0 1.2188263 -0.36164856 1.2188263 -0.8077545l0 0c0 -0.44612122 -0.54569244 -0.8077545 -1.2188263 -0.8077545c-0.6731415 0 -1.2188339 0.3616333 -1.2188339 0.8077545l0 10.034897c0 0.44610596 0.54569244 0.8077545 1.2188339 0.8077545c0.67313385 0 1.2188263 -0.36164856 1.2188263 -0.8077545l0 -10.034897" fill-rule="nonzero"></path><path fill="#efefef" d="m76.33574 149.76524l0 0c0 -0.8300171 1.1813202 -1.5028839 2.6385574 -1.5028839l0 0c1.4572372 0 2.6385574 0.6728668 2.6385574 1.5028839l0 0c0 0.8300171 -1.1813202 1.5028687 -2.6385574 1.5028687l0 0c-1.4572372 0 -2.6385574 -0.67285156 -2.6385574 -1.5028687z" fill-rule="nonzero"></path><path fill="#f1c232" d="m80.19312 138.93224l0 0c0 0.44610596 -0.5456848 0.80773926 -1.2188263 0.80773926c-0.6731415 0 -1.2188263 -0.3616333 -1.2188263 -0.80773926l0 10.034897c0 0.44610596 0.5456848 0.80773926 1.2188263 0.80773926c0.6731415 0 1.2188263 -0.3616333 1.2188263 -0.80773926z" fill-rule="nonzero"></path><path fill="#f6da84" d="m80.19312 138.93224l0 0c0 -0.44612122 -0.5456848 -0.8077545 -1.2188263 -0.8077545c-0.6731415 0 -1.2188263 0.3616333 -1.2188263 0.8077545l0 0c0 0.44610596 0.5456848 0.80773926 1.2188263 0.80773926c0.6731415 0 1.2188263 -0.3616333 1.2188263 -0.80773926z" fill-rule="nonzero"></path><path fill="#000000" fill-opacity="0.0" d="m77.75547 138.93224l0 0c0 0.44610596 0.5456848 0.80773926 1.2188263 0.80773926c0.6731415 0 1.2188263 -0.3616333 1.2188263 -0.80773926l0 0c0 -0.44612122 -0.5456848 -0.8077545 -1.2188263 -0.8077545c-0.6731415 0 -1.2188263 0.3616333 -1.2188263 0.8077545l0 10.034897c0 0.44610596 0.5456848 0.80773926 1.2188263 0.80773926c0.6731415 0 1.2188263 -0.3616333 1.2188263 -0.80773926l0 -10.034897" fill-rule="nonzero"></path><path stroke="#000000" stroke-width="1.0" stroke-linejoin="round" stroke-linecap="butt" d="m77.75547 138.93224l0 0c0 0.44610596 0.5456848 0.80773926 1.2188263 0.80773926c0.6731415 0 1.2188263 -0.3616333 1.2188263 -0.80773926l0 0c0 -0.44612122 -0.5456848 -0.8077545 -1.2188263 -0.8077545c-0.6731415 0 -1.2188263 0.3616333 -1.2188263 0.8077545l0 10.034897c0 0.44610596 0.5456848 0.80773926 1.2188263 0.80773926c0.6731415 0 1.2188263 -0.3616333 1.2188263 -0.80773926l0 -10.034897" fill-rule="nonzero"></path><path fill="#efefef" d="m69.845276 151.02296l0 0c0 -0.8300171 1.1813202 -1.5028839 2.6385574 -1.5028839l0 0c1.4572372 0 2.6385574 0.6728668 2.6385574 1.5028839l0 0c0 0.8300171 -1.1813202 1.5028687 -2.6385574 1.5028687l0 0c-1.4572372 0 -2.6385574 -0.67285156 -2.6385574 -1.5028687z" fill-rule="nonzero"></path><path fill="#f1c232" d="m73.70266 140.18996l0 0c0 0.44610596 -0.54569244 0.80773926 -1.2188263 0.80773926c-0.6731415 0 -1.2188263 -0.3616333 -1.2188263 -0.80773926l0 10.034897c0 0.44610596 0.5456848 0.80773926 1.2188263 0.80773926c0.67313385 0 1.2188263 -0.3616333 1.2188263 -0.80773926z" fill-rule="nonzero"></path><path fill="#f6da84" d="m73.70266 140.18996l0 0c0 -0.44612122 -0.54569244 -0.8077545 -1.2188263 -0.8077545c-0.6731415 0 -1.2188263 0.3616333 -1.2188263 0.8077545l0 0c0 0.44610596 0.5456848 0.80773926 1.2188263 0.80773926c0.67313385 0 1.2188263 -0.3616333 1.2188263 -0.80773926z" fill-rule="nonzero"></path><path fill="#000000" fill-opacity="0.0" d="m71.26501 140.18996l0 0c0 0.44610596 0.5456848 0.80773926 1.2188263 0.80773926c0.67313385 0 1.2188263 -0.3616333 1.2188263 -0.80773926l0 0c0 -0.44612122 -0.54569244 -0.8077545 -1.2188263 -0.8077545c-0.6731415 0 -1.2188263 0.3616333 -1.2188263 0.8077545l0 10.034897c0 0.44610596 0.5456848 0.80773926 1.2188263 0.80773926c0.67313385 0 1.2188263 -0.3616333 1.2188263 -0.80773926l0 -10.034897" fill-rule="nonzero"></path><path stroke="#000000" stroke-width="1.0" stroke-linejoin="round" stroke-linecap="butt" d="m71.26501 140.18996l0 0c0 0.44610596 0.5456848 0.80773926 1.2188263 0.80773926c0.67313385 0 1.2188263 -0.3616333 1.2188263 -0.80773926l0 0c0 -0.44612122 -0.54569244 -0.8077545 -1.2188263 -0.8077545c-0.6731415 0 -1.2188263 0.3616333 -1.2188263 0.8077545l0 10.034897c0 0.44610596 0.5456848 0.80773926 1.2188263 0.80773926c0.67313385 0 1.2188263 -0.3616333 1.2188263 -0.80773926l0 -10.034897" fill-rule="nonzero"></path><path fill="#efefef" d="m73.626724 151.68356l0 0c0 -0.8300171 1.1813202 -1.5028839 2.6385574 -1.5028839l0 0c1.4572372 0 2.6385574 0.6728668 2.6385574 1.5028839l0 0c0 0.83000183 -1.1813202 1.5028687 -2.6385574 1.5028687l0 0c-1.4572372 0 -2.6385574 -0.6728668 -2.6385574 -1.5028687z" fill-rule="nonzero"></path><path fill="#f1c232" d="m77.48411 140.85054l0 0c0 0.44612122 -0.54569244 0.8077545 -1.2188263 0.8077545c-0.6731415 0 -1.2188263 -0.3616333 -1.2188263 -0.8077545l0 10.034897c0 0.44612122 0.5456848 0.8077545 1.2188263 0.8077545c0.67313385 0 1.2188263 -0.3616333 1.2188263 -0.8077545z" fill-rule="nonzero"></path><path fill="#f6da84" d="m77.48411 140.85054l0 0c0 -0.44610596 -0.54569244 -0.8077545 -1.2188263 -0.8077545c-0.6731415 0 -1.2188263 0.36164856 -1.2188263 0.8077545l0 0c0 0.44612122 0.5456848 0.8077545 1.2188263 0.8077545c0.67313385 0 1.2188263 -0.3616333 1.2188263 -0.8077545z" fill-rule="nonzero"></path><path fill="#000000" fill-opacity="0.0" d="m75.046455 140.85054l0 0c0 0.44612122 0.5456848 0.8077545 1.2188263 0.8077545c0.67313385 0 1.2188263 -0.3616333 1.2188263 -0.8077545l0 0c0 -0.44610596 -0.54569244 -0.8077545 -1.2188263 -0.8077545c-0.6731415 0 -1.2188263 0.36164856 -1.2188263 0.8077545l0 10.034897c0 0.44612122 0.5456848 0.8077545 1.2188263 0.8077545c0.67313385 0 1.2188263 -0.3616333 1.2188263 -0.8077545l0 -10.034897" fill-rule="nonzero"></path><path stroke="#000000" stroke-width="1.0" stroke-linejoin="round" stroke-linecap="butt" d="m75.046455 140.85054l0 0c0 0.44612122 0.5456848 0.8077545 1.2188263 0.8077545c0.67313385 0 1.2188263 -0.3616333 1.2188263 -0.8077545l0 0c0 -0.44610596 -0.54569244 -0.8077545 -1.2188263 -0.8077545c-0.6731415 0 -1.2188263 0.36164856 -1.2188263 0.8077545l0 10.034897c0 0.44612122 0.5456848 0.8077545 1.2188263 0.8077545c0.67313385 0 1.2188263 -0.3616333 1.2188263 -0.8077545l0 -10.034897" fill-rule="nonzero"></path><path fill="#efefef" d="m67.39953 153.09239l0 0c0 -0.8300171 1.1813202 -1.5028839 2.6385574 -1.5028839l0 0c1.4572372 0 2.6385574 0.6728668 2.6385574 1.5028839l0 0c0 0.8300171 -1.1813202 1.5028839 -2.6385574 1.5028839l0 0c-1.4572372 0 -2.6385574 -0.6728668 -2.6385574 -1.5028839z" fill-rule="nonzero"></path><path fill="#f1c232" d="m71.25691 142.25938l0 0c0 0.44610596 -0.5456848 0.8077545 -1.2188263 0.8077545c-0.6731415 0 -1.2188263 -0.36164856 -1.2188263 -0.8077545l0 10.034897c0 0.44610596 0.5456848 0.8077545 1.2188263 0.8077545c0.6731415 0 1.2188263 -0.36164856 1.2188263 -0.8077545z" fill-rule="nonzero"></path><path fill="#f6da84" d="m71.25691 142.25938l0 0c0 -0.44610596 -0.5456848 -0.8077545 -1.2188263 -0.8077545c-0.6731415 0 -1.2188263 0.36164856 -1.2188263 0.8077545l0 0c0 0.44610596 0.5456848 0.8077545 1.2188263 0.8077545c0.6731415 0 1.2188263 -0.36164856 1.2188263 -0.8077545z" fill-rule="nonzero"></path><path fill="#000000" fill-opacity="0.0" d="m68.81926 142.25938l0 0c0 0.44610596 0.5456848 0.8077545 1.2188263 0.8077545c0.6731415 0 1.2188263 -0.36164856 1.2188263 -0.8077545l0 0c0 -0.44610596 -0.5456848 -0.8077545 -1.2188263 -0.8077545c-0.6731415 0 -1.2188263 0.36164856 -1.2188263 0.8077545l0 10.034897c0 0.44610596 0.5456848 0.8077545 1.2188263 0.8077545c0.6731415 0 1.2188263 -0.36164856 1.2188263 -0.8077545l0 -10.034897" fill-rule="nonzero"></path><path stroke="#000000" stroke-width="1.0" stroke-linejoin="round" stroke-linecap="butt" d="m68.81926 142.25938l0 0c0 0.44610596 0.5456848 0.8077545 1.2188263 0.8077545c0.6731415 0 1.2188263 -0.36164856 1.2188263 -0.8077545l0 0c0 -0.44610596 -0.5456848 -0.8077545 -1.2188263 -0.8077545c-0.6731415 0 -1.2188263 0.36164856 -1.2188263 0.8077545l0 10.034897c0 0.44610596 0.5456848 0.8077545 1.2188263 0.8077545c0.6731415 0 1.2188263 -0.36164856 1.2188263 -0.8077545l0 -10.034897" fill-rule="nonzero"></path><path fill="#efefef" d="m71.18098 153.75299l0 0c0 -0.8300171 1.1813202 -1.5028839 2.6385574 -1.5028839l0 0c1.4572372 0 2.6385574 0.6728668 2.6385574 1.5028839l0 0c0 0.8300171 -1.1813202 1.5028687 -2.6385574 1.5028687l0 0c-1.4572372 0 -2.6385574 -0.67285156 -2.6385574 -1.5028687z" fill-rule="nonzero"></path><path fill="#f1c232" d="m75.03836 142.91998l0 0c0 0.44610596 -0.5456848 0.80773926 -1.2188263 0.80773926c-0.6731415 0 -1.2188263 -0.3616333 -1.2188263 -0.80773926l0 10.034897c0 0.44610596 0.5456848 0.80773926 1.2188263 0.80773926c0.6731415 0 1.2188263 -0.3616333 1.2188263 -0.80773926z" fill-rule="nonzero"></path><path fill="#f6da84" d="m75.03836 142.91998l0 0c0 -0.44612122 -0.5456848 -0.8077545 -1.2188263 -0.8077545c-0.6731415 0 -1.2188263 0.3616333 -1.2188263 0.8077545l0 0c0 0.44610596 0.5456848 0.80773926 1.2188263 0.80773926c0.6731415 0 1.2188263 -0.3616333 1.2188263 -0.80773926z" fill-rule="nonzero"></path><path fill="#000000" fill-opacity="0.0" d="m72.60071 142.91998l0 0c0 0.44610596 0.5456848 0.80773926 1.2188263 0.80773926c0.6731415 0 1.2188263 -0.3616333 1.2188263 -0.80773926l0 0c0 -0.44612122 -0.5456848 -0.8077545 -1.2188263 -0.8077545c-0.6731415 0 -1.2188263 0.3616333 -1.2188263 0.8077545l0 10.034897c0 0.44610596 0.5456848 0.80773926 1.2188263 0.80773926c0.6731415 0 1.2188263 -0.3616333 1.2188263 -0.80773926l0 -10.034897" fill-rule="nonzero"></path><path stroke="#000000" stroke-width="1.0" stroke-linejoin="round" stroke-linecap="butt" d="m72.60071 142.91998l0 0c0 0.44610596 0.5456848 0.80773926 1.2188263 0.80773926c0.6731415 0 1.2188263 -0.3616333 1.2188263 -0.80773926l0 0c0 -0.44612122 -0.5456848 -0.8077545 -1.2188263 -0.8077545c-0.6731415 0 -1.2188263 0.3616333 -1.2188263 0.8077545l0 10.034897c0 0.44610596 0.5456848 0.80773926 1.2188263 0.80773926c0.6731415 0 1.2188263 -0.3616333 1.2188263 -0.80773926l0 -10.034897" fill-rule="nonzero"></path><path fill="#efefef" d="m68.47001 155.67467l0 0c0 -0.8300171 1.1813202 -1.5028839 2.6385574 -1.5028839l0 0c1.4572372 0 2.6385574 0.6728668 2.6385574 1.5028839l0 0c0 0.8300171 -1.1813202 1.5028839 -2.6385574 1.5028839l0 0c-1.4572372 0 -2.6385574 -0.6728668 -2.6385574 -1.5028839z" fill-rule="nonzero"></path><path fill="#f1c232" d="m72.32739 144.84166l0 0c0 0.44610596 -0.5456848 0.8077545 -1.2188263 0.8077545c-0.6731415 0 -1.2188263 -0.36164856 -1.2188263 -0.8077545l0 10.034897c0 0.44610596 0.5456848 0.8077545 1.2188263 0.8077545c0.6731415 0 1.2188263 -0.36164856 1.2188263 -0.8077545z" fill-rule="nonzero"></path><path fill="#f6da84" d="m72.32739 144.84166l0 0c0 -0.44610596 -0.5456848 -0.8077545 -1.2188263 -0.8077545c-0.6731415 0 -1.2188263 0.36164856 -1.2188263 0.8077545l0 0c0 0.44610596 0.5456848 0.8077545 1.2188263 0.8077545c0.6731415 0 1.2188263 -0.36164856 1.2188263 -0.8077545z" fill-rule="nonzero"></path><path fill="#000000" fill-opacity="0.0" d="m69.88974 144.84166l0 0c0 0.44610596 0.5456848 0.8077545 1.2188263 0.8077545c0.6731415 0 1.2188263 -0.36164856 1.2188263 -0.8077545l0 0c0 -0.44610596 -0.5456848 -0.8077545 -1.2188263 -0.8077545c-0.6731415 0 -1.2188263 0.36164856 -1.2188263 0.8077545l0 10.034897c0 0.44610596 0.5456848 0.8077545 1.2188263 0.8077545c0.6731415 0 1.2188263 -0.36164856 1.2188263 -0.8077545l0 -10.034897" fill-rule="nonzero"></path><path stroke="#000000" stroke-width="1.0" stroke-linejoin="round" stroke-linecap="butt" d="m69.88974 144.84166l0 0c0 0.44610596 0.5456848 0.8077545 1.2188263 0.8077545c0.6731415 0 1.2188263 -0.36164856 1.2188263 -0.8077545l0 0c0 -0.44610596 -0.5456848 -0.8077545 -1.2188263 -0.8077545c-0.6731415 0 -1.2188263 0.36164856 -1.2188263 0.8077545l0 10.034897c0 0.44610596 0.5456848 0.8077545 1.2188263 0.8077545c0.6731415 0 1.2188263 -0.36164856 1.2188263 -0.8077545l0 -10.034897" fill-rule="nonzero"></path><path fill="#efefef" d="m64.68856 154.96478l0 0c0 -0.8300171 1.1813202 -1.5028839 2.6385574 -1.5028839l0 0c1.4572372 0 2.6385574 0.6728668 2.6385574 1.5028839l0 0c0 0.8300171 -1.1813202 1.5028687 -2.6385574 1.5028687l0 0c-1.4572372 0 -2.6385574 -0.67285156 -2.6385574 -1.5028687z" fill-rule="nonzero"></path><path fill="#f1c232" d="m68.545944 144.13177l0 0c0 0.44610596 -0.5456848 0.80773926 -1.2188263 0.80773926c-0.6731415 0 -1.2188263 -0.3616333 -1.2188263 -0.80773926l0 10.034897c0 0.44610596 0.5456848 0.80773926 1.2188263 0.80773926c0.6731415 0 1.2188263 -0.3616333 1.2188263 -0.80773926z" fill-rule="nonzero"></path><path fill="#f6da84" d="m68.545944 144.13177l0 0c0 -0.44612122 -0.5456848 -0.8077545 -1.2188263 -0.8077545c-0.6731415 0 -1.2188263 0.3616333 -1.2188263 0.8077545l0 0c0 0.44610596 0.5456848 0.80773926 1.2188263 0.80773926c0.6731415 0 1.2188263 -0.3616333 1.2188263 -0.80773926z" fill-rule="nonzero"></path><path fill="#000000" fill-opacity="0.0" d="m66.10829 144.13177l0 0c0 0.44610596 0.5456848 0.80773926 1.2188263 0.80773926c0.6731415 0 1.2188263 -0.3616333 1.2188263 -0.80773926l0 0c0 -0.44612122 -0.5456848 -0.8077545 -1.2188263 -0.8077545c-0.6731415 0 -1.2188263 0.3616333 -1.2188263 0.8077545l0 10.034897c0 0.44610596 0.5456848 0.80773926 1.2188263 0.80773926c0.6731415 0 1.2188263 -0.3616333 1.2188263 -0.80773926l0 -10.034897" fill-rule="nonzero"></path><path stroke="#000000" stroke-width="1.0" stroke-linejoin="round" stroke-linecap="butt" d="m66.10829 144.13177l0 0c0 0.44610596 0.5456848 0.80773926 1.2188263 0.80773926c0.6731415 0 1.2188263 -0.3616333 1.2188263 -0.80773926l0 0c0 -0.44612122 -0.5456848 -0.8077545 -1.2188263 -0.8077545c-0.6731415 0 -1.2188263 0.3616333 -1.2188263 0.8077545l0 10.034897c0 0.44610596 0.5456848 0.80773926 1.2188263 0.80773926c0.6731415 0 1.2188263 -0.3616333 1.2188263 -0.80773926l0 -10.034897" fill-rule="nonzero"></path><path fill="#efefef" d="m62.242813 157.03421l0 0c0 -0.8300171 1.181324 -1.5028839 2.6385574 -1.5028839l0 0c1.4572372 0 2.6385574 0.6728668 2.6385574 1.5028839l0 0c0 0.8300171 -1.1813202 1.5028839 -2.6385574 1.5028839l0 0c-1.4572334 0 -2.6385574 -0.6728668 -2.6385574 -1.5028839z" fill-rule="nonzero"></path><path fill="#f1c232" d="m66.1002 146.2012l0 0c0 0.44610596 -0.5456848 0.8077545 -1.2188263 0.8077545c-0.6731415 0 -1.2188263 -0.36164856 -1.2188263 -0.8077545l0 10.034897c0 0.44610596 0.5456848 0.8077545 1.2188263 0.8077545c0.6731415 0 1.2188263 -0.36164856 1.2188263 -0.8077545z" fill-rule="nonzero"></path><path fill="#f6da84" d="m66.1002 146.2012l0 0c0 -0.44610596 -0.5456848 -0.8077545 -1.2188263 -0.8077545c-0.6731415 0 -1.2188263 0.36164856 -1.2188263 0.8077545l0 0c0 0.44610596 0.5456848 0.8077545 1.2188263 0.8077545c0.6731415 0 1.2188263 -0.36164856 1.2188263 -0.8077545z" fill-rule="nonzero"></path><path fill="#000000" fill-opacity="0.0" d="m63.662544 146.2012l0 0c0 0.44610596 0.5456848 0.8077545 1.2188263 0.8077545c0.6731415 0 1.2188263 -0.36164856 1.2188263 -0.8077545l0 0c0 -0.44610596 -0.5456848 -0.8077545 -1.2188263 -0.8077545c-0.6731415 0 -1.2188263 0.36164856 -1.2188263 0.8077545l0 10.034897c0 0.44610596 0.5456848 0.8077545 1.2188263 0.8077545c0.6731415 0 1.2188263 -0.36164856 1.2188263 -0.8077545l0 -10.034897" fill-rule="nonzero"></path><path stroke="#000000" stroke-width="1.0" stroke-linejoin="round" stroke-linecap="butt" d="m63.662544 146.2012l0 0c0 0.44610596 0.5456848 0.8077545 1.2188263 0.8077545c0.6731415 0 1.2188263 -0.36164856 1.2188263 -0.8077545l0 0c0 -0.44610596 -0.5456848 -0.8077545 -1.2188263 -0.8077545c-0.6731415 0 -1.2188263 0.36164856 -1.2188263 0.8077545l0 10.034897c0 0.44610596 0.5456848 0.8077545 1.2188263 0.8077545c0.6731415 0 1.2188263 -0.36164856 1.2188263 -0.8077545l0 -10.034897" fill-rule="nonzero"></path><path fill="#efefef" d="m66.02426 157.69481l0 0c0 -0.8300171 1.1813202 -1.5028839 2.6385574 -1.5028839l0 0c1.4572372 0 2.6385574 0.6728668 2.6385574 1.5028839l0 0c0 0.8300171 -1.1813202 1.5028687 -2.6385574 1.5028687l0 0c-1.4572372 0 -2.6385574 -0.67285156 -2.6385574 -1.5028687z" fill-rule="nonzero"></path><path fill="#f1c232" d="m69.881645 146.8618l0 0c0 0.44610596 -0.5456848 0.80773926 -1.2188263 0.80773926c-0.6731415 0 -1.2188263 -0.3616333 -1.2188263 -0.80773926l0 10.034897c0 0.44610596 0.5456848 0.80773926 1.2188263 0.80773926c0.6731415 0 1.2188263 -0.3616333 1.2188263 -0.80773926z" fill-rule="nonzero"></path><path fill="#f6da84" d="m69.881645 146.8618l0 0c0 -0.44612122 -0.5456848 -0.8077545 -1.2188263 -0.8077545c-0.6731415 0 -1.2188263 0.3616333 -1.2188263 0.8077545l0 0c0 0.44610596 0.5456848 0.80773926 1.2188263 0.80773926c0.6731415 0 1.2188263 -0.3616333 1.2188263 -0.80773926z" fill-rule="nonzero"></path><path fill="#000000" fill-opacity="0.0" d="m67.44399 146.8618l0 0c0 0.44610596 0.5456848 0.80773926 1.2188263 0.80773926c0.6731415 0 1.2188263 -0.3616333 1.2188263 -0.80773926l0 0c0 -0.44612122 -0.5456848 -0.8077545 -1.2188263 -0.8077545c-0.6731415 0 -1.2188263 0.3616333 -1.2188263 0.8077545l0 10.034897c0 0.44610596 0.5456848 0.80773926 1.2188263 0.80773926c0.6731415 0 1.2188263 -0.3616333 1.2188263 -0.80773926l0 -10.034897" fill-rule="nonzero"></path><path stroke="#000000" stroke-width="1.0" stroke-linejoin="round" stroke-linecap="butt" d="m67.44399 146.8618l0 0c0 0.44610596 0.5456848 0.80773926 1.2188263 0.80773926c0.6731415 0 1.2188263 -0.3616333 1.2188263 -0.80773926l0 0c0 -0.44612122 -0.5456848 -0.8077545 -1.2188263 -0.8077545c-0.6731415 0 -1.2188263 0.3616333 -1.2188263 0.8077545l0 10.034897c0 0.44610596 0.5456848 0.80773926 1.2188263 0.80773926c0.6731415 0 1.2188263 -0.3616333 1.2188263 -0.80773926l0 -10.034897" fill-rule="nonzero"></path><path fill="#efefef" d="m59.714195 158.8683l0 0c0 -0.8300171 1.1813202 -1.5028839 2.6385574 -1.5028839l0 0c1.4572372 0 2.6385574 0.6728668 2.6385574 1.5028839l0 0c0 0.8300171 -1.1813202 1.5028687 -2.6385574 1.5028687l0 0c-1.4572372 0 -2.6385574 -0.67285156 -2.6385574 -1.5028687z" fill-rule="nonzero"></path><path fill="#f1c232" d="m63.57158 148.0353l0 0c0 0.44610596 -0.5456886 0.8077545 -1.2188263 0.8077545c-0.6731415 0 -1.2188263 -0.36164856 -1.2188263 -0.8077545l0 10.034897c0 0.44610596 0.5456848 0.8077545 1.2188263 0.8077545c0.67313766 0 1.2188263 -0.36164856 1.2188263 -0.8077545z" fill-rule="nonzero"></path><path fill="#f6da84" d="m63.57158 148.0353l0 0c0 -0.44612122 -0.5456886 -0.8077545 -1.2188263 -0.8077545c-0.6731415 0 -1.2188263 0.3616333 -1.2188263 0.8077545l0 0c0 0.44610596 0.5456848 0.8077545 1.2188263 0.8077545c0.67313766 0 1.2188263 -0.36164856 1.2188263 -0.8077545z" fill-rule="nonzero"></path><path fill="#000000" fill-opacity="0.0" d="m61.133926 148.0353l0 0c0 0.44610596 0.5456848 0.8077545 1.2188263 0.8077545c0.67313766 0 1.2188263 -0.36164856 1.2188263 -0.8077545l0 0c0 -0.44612122 -0.5456886 -0.8077545 -1.2188263 -0.8077545c-0.6731415 0 -1.2188263 0.3616333 -1.2188263 0.8077545l0 10.034897c0 0.44610596 0.5456848 0.8077545 1.2188263 0.8077545c0.67313766 0 1.2188263 -0.36164856 1.2188263 -0.8077545l0 -10.034897" fill-rule="nonzero"></path><path stroke="#000000" stroke-width="1.0" stroke-linejoin="round" stroke-linecap="butt" d="m61.133926 148.0353l0 0c0 0.44610596 0.5456848 0.8077545 1.2188263 0.8077545c0.67313766 0 1.2188263 -0.36164856 1.2188263 -0.8077545l0 0c0 -0.44612122 -0.5456886 -0.8077545 -1.2188263 -0.8077545c-0.6731415 0 -1.2188263 0.3616333 -1.2188263 0.8077545l0 10.034897c0 0.44610596 0.5456848 0.8077545 1.2188263 0.8077545c0.67313766 0 1.2188263 -0.36164856 1.2188263 -0.8077545l0 -10.034897" fill-rule="nonzero"></path><path fill="#efefef" d="m63.495644 159.5289l0 0c0 -0.8300171 1.1813202 -1.5028839 2.6385574 -1.5028839l0 0c1.4572372 0 2.6385574 0.6728668 2.6385574 1.5028839l0 0c0 0.8300171 -1.1813202 1.5028687 -2.6385574 1.5028687l0 0c-1.4572372 0 -2.6385574 -0.67285156 -2.6385574 -1.5028687z" fill-rule="nonzero"></path><path fill="#f1c232" d="m67.35303 148.69589l0 0c0 0.44610596 -0.5456848 0.80773926 -1.2188263 0.80773926c-0.6731415 0 -1.2188263 -0.3616333 -1.2188263 -0.80773926l0 10.034897c0 0.44610596 0.5456848 0.80773926 1.2188263 0.80773926c0.6731415 0 1.2188263 -0.3616333 1.2188263 -0.80773926z" fill-rule="nonzero"></path><path fill="#f6da84" d="m67.35303 148.69589l0 0c0 -0.44612122 -0.5456848 -0.8077545 -1.2188263 -0.8077545c-0.6731415 0 -1.2188263 0.3616333 -1.2188263 0.8077545l0 0c0 0.44610596 0.5456848 0.80773926 1.2188263 0.80773926c0.6731415 0 1.2188263 -0.3616333 1.2188263 -0.80773926z" fill-rule="nonzero"></path><path fill="#000000" fill-opacity="0.0" d="m64.915375 148.69589l0 0c0 0.44610596 0.5456848 0.80773926 1.2188263 0.80773926c0.6731415 0 1.2188263 -0.3616333 1.2188263 -0.80773926l0 0c0 -0.44612122 -0.5456848 -0.8077545 -1.2188263 -0.8077545c-0.6731415 0 -1.2188263 0.3616333 -1.2188263 0.8077545l0 10.034897c0 0.44610596 0.5456848 0.80773926 1.2188263 0.80773926c0.6731415 0 1.2188263 -0.3616333 1.2188263 -0.80773926l0 -10.034897" fill-rule="nonzero"></path><path stroke="#000000" stroke-width="1.0" stroke-linejoin="round" stroke-linecap="butt" d="m64.915375 148.69589l0 0c0 0.44610596 0.5456848 0.80773926 1.2188263 0.80773926c0.6731415 0 1.2188263 -0.3616333 1.2188263 -0.80773926l0 0c0 -0.44612122 -0.5456848 -0.8077545 -1.2188263 -0.8077545c-0.6731415 0 -1.2188263 0.3616333 -1.2188263 0.8077545l0 10.034897c0 0.44610596 0.5456848 0.80773926 1.2188263 0.80773926c0.6731415 0 1.2188263 -0.3616333 1.2188263 -0.80773926l0 -10.034897" fill-rule="nonzero"></path><path fill="#efefef" d="m181.74103 153.58022l0 0c0 -0.8300171 1.1813202 -1.5028839 2.638565 -1.5028839l0 0c1.4572296 0 2.6385498 0.6728668 2.6385498 1.5028839l0 0c0 0.8300171 -1.1813202 1.5028687 -2.6385498 1.5028687l0 0c-1.4572449 0 -2.638565 -0.67285156 -2.638565 -1.5028687z" fill-rule="nonzero"></path><path fill="#f1c232" d="m185.59842 142.74721l0 0c0 0.44610596 -0.5456848 0.80773926 -1.2188263 0.80773926c-0.6731415 0 -1.2188263 -0.3616333 -1.2188263 -0.80773926l0 10.034897c0 0.44610596 0.5456848 0.80773926 1.2188263 0.80773926c0.6731415 0 1.2188263 -0.3616333 1.2188263 -0.80773926z" fill-rule="nonzero"></path><path fill="#f6da84" d="m185.59842 142.74721l0 0c0 -0.44612122 -0.5456848 -0.8077545 -1.2188263 -0.8077545c-0.6731415 0 -1.2188263 0.3616333 -1.2188263 0.8077545l0 0c0 0.44610596 0.5456848 0.80773926 1.2188263 0.80773926c0.6731415 0 1.2188263 -0.3616333 1.2188263 -0.80773926z" fill-rule="nonzero"></path><path fill="#000000" fill-opacity="0.0" d="m183.16077 142.74721l0 0c0 0.44610596 0.5456848 0.80773926 1.2188263 0.80773926c0.6731415 0 1.2188263 -0.3616333 1.2188263 -0.80773926l0 0c0 -0.44612122 -0.5456848 -0.8077545 -1.2188263 -0.8077545c-0.6731415 0 -1.2188263 0.3616333 -1.2188263 0.8077545l0 10.034897c0 0.44610596 0.5456848 0.80773926 1.2188263 0.80773926c0.6731415 0 1.2188263 -0.3616333 1.2188263 -0.80773926l0 -10.034897" fill-rule="nonzero"></path><path stroke="#000000" stroke-width="1.0" stroke-linejoin="round" stroke-linecap="butt" d="m183.16077 142.74721l0 0c0 0.44610596 0.5456848 0.80773926 1.2188263 0.80773926c0.6731415 0 1.2188263 -0.3616333 1.2188263 -0.80773926l0 0c0 -0.44612122 -0.5456848 -0.8077545 -1.2188263 -0.8077545c-0.6731415 0 -1.2188263 0.3616333 -1.2188263 0.8077545l0 10.034897c0 0.44610596 0.5456848 0.80773926 1.2188263 0.80773926c0.6731415 0 1.2188263 -0.3616333 1.2188263 -0.80773926l0 -10.034897" fill-rule="nonzero"></path><path fill="#efefef" d="m185.52248 154.2408l0 0c0 -0.83000183 1.1813202 -1.5028687 2.638565 -1.5028687l0 0c1.4572296 0 2.6385498 0.6728668 2.6385498 1.5028687l0 0c0 0.8300171 -1.1813202 1.5028839 -2.6385498 1.5028839l0 0c-1.4572449 0 -2.638565 -0.6728668 -2.638565 -1.5028839z" fill-rule="nonzero"></path><path fill="#f1c232" d="m189.37987 143.40779l0 0c0 0.44612122 -0.5456848 0.8077545 -1.2188263 0.8077545c-0.6731415 0 -1.2188263 -0.3616333 -1.2188263 -0.8077545l0 10.034897c0 0.44612122 0.5456848 0.8077545 1.2188263 0.8077545c0.6731415 0 1.2188263 -0.3616333 1.2188263 -0.8077545z" fill-rule="nonzero"></path><path fill="#f6da84" d="m189.37987 143.40779l0 0c0 -0.44610596 -0.5456848 -0.8077545 -1.2188263 -0.8077545c-0.6731415 0 -1.2188263 0.36164856 -1.2188263 0.8077545l0 0c0 0.44612122 0.5456848 0.8077545 1.2188263 0.8077545c0.6731415 0 1.2188263 -0.3616333 1.2188263 -0.8077545z" fill-rule="nonzero"></path><path fill="#000000" fill-opacity="0.0" d="m186.94221 143.40779l0 0c0 0.44612122 0.5456848 0.8077545 1.2188263 0.8077545c0.6731415 0 1.2188263 -0.3616333 1.2188263 -0.8077545l0 0c0 -0.44610596 -0.5456848 -0.8077545 -1.2188263 -0.8077545c-0.6731415 0 -1.2188263 0.36164856 -1.2188263 0.8077545l0 10.034897c0 0.44612122 0.5456848 0.8077545 1.2188263 0.8077545c0.6731415 0 1.2188263 -0.3616333 1.2188263 -0.8077545l0 -10.034897" fill-rule="nonzero"></path><path stroke="#000000" stroke-width="1.0" stroke-linejoin="round" stroke-linecap="butt" d="m186.94221 143.40779l0 0c0 0.44612122 0.5456848 0.8077545 1.2188263 0.8077545c0.6731415 0 1.2188263 -0.3616333 1.2188263 -0.8077545l0 0c0 -0.44610596 -0.5456848 -0.8077545 -1.2188263 -0.8077545c-0.6731415 0 -1.2188263 0.36164856 -1.2188263 0.8077545l0 10.034897c0 0.44612122 0.5456848 0.8077545 1.2188263 0.8077545c0.6731415 0 1.2188263 -0.3616333 1.2188263 -0.8077545l0 -10.034897" fill-rule="nonzero"></path><path fill="#efefef" d="m179.29529 155.64964l0 0c0 -0.8300171 1.1813202 -1.5028839 2.6385498 -1.5028839l0 0c1.4572449 0 2.638565 0.6728668 2.638565 1.5028839l0 0c0 0.8300171 -1.1813202 1.5028839 -2.638565 1.5028839l0 0c-1.4572296 0 -2.6385498 -0.6728668 -2.6385498 -1.5028839z" fill-rule="nonzero"></path><path fill="#f1c232" d="m183.15268 144.81664l0 0c0 0.44610596 -0.5457001 0.8077545 -1.2188416 0.8077545c-0.6731262 0 -1.2188263 -0.36164856 -1.2188263 -0.8077545l0 10.034897c0 0.44610596 0.5457001 0.8077545 1.2188263 0.8077545c0.6731415 0 1.2188416 -0.36164856 1.2188416 -0.8077545z" fill-rule="nonzero"></path><path fill="#f6da84" d="m183.15268 144.81664l0 0c0 -0.44610596 -0.5457001 -0.8077545 -1.2188416 -0.8077545c-0.6731262 0 -1.2188263 0.36164856 -1.2188263 0.8077545l0 0c0 0.44610596 0.5457001 0.8077545 1.2188263 0.8077545c0.6731415 0 1.2188416 -0.36164856 1.2188416 -0.8077545z" fill-rule="nonzero"></path><path fill="#000000" fill-opacity="0.0" d="m180.71501 144.81664l0 0c0 0.44610596 0.5457001 0.8077545 1.2188263 0.8077545c0.6731415 0 1.2188416 -0.36164856 1.2188416 -0.8077545l0 0c0 -0.44610596 -0.5457001 -0.8077545 -1.2188416 -0.8077545c-0.6731262 0 -1.2188263 0.36164856 -1.2188263 0.8077545l0 10.034897c0 0.44610596 0.5457001 0.8077545 1.2188263 0.8077545c0.6731415 0 1.2188416 -0.36164856 1.2188416 -0.8077545l0 -10.034897" fill-rule="nonzero"></path><path stroke="#000000" stroke-width="1.0" stroke-linejoin="round" stroke-linecap="butt" d="m180.71501 144.81664l0 0c0 0.44610596 0.5457001 0.8077545 1.2188263 0.8077545c0.6731415 0 1.2188416 -0.36164856 1.2188416 -0.8077545l0 0c0 -0.44610596 -0.5457001 -0.8077545 -1.2188416 -0.8077545c-0.6731262 0 -1.2188263 0.36164856 -1.2188263 0.8077545l0 10.034897c0 0.44610596 0.5457001 0.8077545 1.2188263 0.8077545c0.6731415 0 1.2188416 -0.36164856 1.2188416 -0.8077545l0 -10.034897" fill-rule="nonzero"></path><path fill="#efefef" d="m183.07674 156.31024l0 0c0 -0.8300171 1.1813202 -1.5028839 2.6385498 -1.5028839l0 0c1.4572449 0 2.638565 0.6728668 2.638565 1.5028839l0 0c0 0.8300171 -1.1813202 1.5028687 -2.638565 1.5028687l0 0c-1.4572296 0 -2.6385498 -0.67285156 -2.6385498 -1.5028687z" fill-rule="nonzero"></path><path fill="#f1c232" d="m186.93413 145.47723l0 0c0 0.44610596 -0.5457001 0.80773926 -1.2188416 0.80773926c-0.6731262 0 -1.2188263 -0.3616333 -1.2188263 -0.80773926l0 10.034897c0 0.44610596 0.5457001 0.80773926 1.2188263 0.80773926c0.6731415 0 1.2188416 -0.3616333 1.2188416 -0.80773926z" fill-rule="nonzero"></path><path fill="#f6da84" d="m186.93413 145.47723l0 0c0 -0.44612122 -0.5457001 -0.8077545 -1.2188416 -0.8077545c-0.6731262 0 -1.2188263 0.3616333 -1.2188263 0.8077545l0 0c0 0.44610596 0.5457001 0.80773926 1.2188263 0.80773926c0.6731415 0 1.2188416 -0.3616333 1.2188416 -0.80773926z" fill-rule="nonzero"></path><path fill="#000000" fill-opacity="0.0" d="m184.49646 145.47723l0 0c0 0.44610596 0.5457001 0.80773926 1.2188263 0.80773926c0.6731415 0 1.2188416 -0.3616333 1.2188416 -0.80773926l0 0c0 -0.44612122 -0.5457001 -0.8077545 -1.2188416 -0.8077545c-0.6731262 0 -1.2188263 0.3616333 -1.2188263 0.8077545l0 10.034897c0 0.44610596 0.5457001 0.80773926 1.2188263 0.80773926c0.6731415 0 1.2188416 -0.3616333 1.2188416 -0.80773926l0 -10.034897" fill-rule="nonzero"></path><path stroke="#000000" stroke-width="1.0" stroke-linejoin="round" stroke-linecap="butt" d="m184.49646 145.47723l0 0c0 0.44610596 0.5457001 0.80773926 1.2188263 0.80773926c0.6731415 0 1.2188416 -0.3616333 1.2188416 -0.80773926l0 0c0 -0.44612122 -0.5457001 -0.8077545 -1.2188416 -0.8077545c-0.6731262 0 -1.2188263 0.3616333 -1.2188263 0.8077545l0 10.034897c0 0.44610596 0.5457001 0.80773926 1.2188263 0.80773926c0.6731415 0 1.2188416 -0.3616333 1.2188416 -0.80773926l0 -10.034897" fill-rule="nonzero"></path><path fill="#efefef" d="m176.8501 157.57132l0 0c0 -0.8300171 1.1813202 -1.5028687 2.638565 -1.5028687l0 0c1.4572296 0 2.6385498 0.67285156 2.6385498 1.5028687l0 0c0 0.8300171 -1.1813202 1.5028839 -2.6385498 1.5028839l0 0c-1.4572449 0 -2.638565 -0.6728668 -2.638565 -1.5028839z" fill-rule="nonzero"></path><path fill="#f1c232" d="m180.70749 146.73831l0 0c0 0.44610596 -0.5456848 0.8077545 -1.2188263 0.8077545c-0.6731415 0 -1.2188263 -0.36164856 -1.2188263 -0.8077545l0 10.034897c0 0.44610596 0.5456848 0.8077545 1.2188263 0.8077545c0.6731415 0 1.2188263 -0.36164856 1.2188263 -0.8077545z" fill-rule="nonzero"></path><path fill="#f6da84" d="m180.70749 146.73831l0 0c0 -0.44610596 -0.5456848 -0.8077545 -1.2188263 -0.8077545c-0.6731415 0 -1.2188263 0.36164856 -1.2188263 0.8077545l0 0c0 0.44610596 0.5456848 0.8077545 1.2188263 0.8077545c0.6731415 0 1.2188263 -0.36164856 1.2188263 -0.8077545z" fill-rule="nonzero"></path><path fill="#000000" fill-opacity="0.0" d="m178.26984 146.73831l0 0c0 0.44610596 0.5456848 0.8077545 1.2188263 0.8077545c0.6731415 0 1.2188263 -0.36164856 1.2188263 -0.8077545l0 0c0 -0.44610596 -0.5456848 -0.8077545 -1.2188263 -0.8077545c-0.6731415 0 -1.2188263 0.36164856 -1.2188263 0.8077545l0 10.034897c0 0.44610596 0.5456848 0.8077545 1.2188263 0.8077545c0.6731415 0 1.2188263 -0.36164856 1.2188263 -0.8077545l0 -10.034897" fill-rule="nonzero"></path><path stroke="#000000" stroke-width="1.0" stroke-linejoin="round" stroke-linecap="butt" d="m178.26984 146.73831l0 0c0 0.44610596 0.5456848 0.8077545 1.2188263 0.8077545c0.6731415 0 1.2188263 -0.36164856 1.2188263 -0.8077545l0 0c0 -0.44610596 -0.5456848 -0.8077545 -1.2188263 -0.8077545c-0.6731415 0 -1.2188263 0.36164856 -1.2188263 0.8077545l0 10.034897c0 0.44610596 0.5456848 0.8077545 1.2188263 0.8077545c0.6731415 0 1.2188263 -0.36164856 1.2188263 -0.8077545l0 -10.034897" fill-rule="nonzero"></path><path fill="#efefef" d="m180.63155 158.23192l0 0c0 -0.8300171 1.1813202 -1.5028839 2.638565 -1.5028839l0 0c1.4572296 0 2.6385498 0.6728668 2.6385498 1.5028839l0 0c0 0.8300171 -1.1813202 1.5028839 -2.6385498 1.5028839l0 0c-1.4572449 0 -2.638565 -0.6728668 -2.638565 -1.5028839z" fill-rule="nonzero"></path><path fill="#f1c232" d="m184.48894 147.39891l0 0c0 0.44610596 -0.5456848 0.8077545 -1.2188263 0.8077545c-0.6731415 0 -1.2188263 -0.36164856 -1.2188263 -0.8077545l0 10.034897c0 0.44610596 0.5456848 0.8077545 1.2188263 0.8077545c0.6731415 0 1.2188263 -0.36164856 1.2188263 -0.8077545z" fill-rule="nonzero"></path><path fill="#f6da84" d="m184.48894 147.39891l0 0c0 -0.44610596 -0.5456848 -0.8077545 -1.2188263 -0.8077545c-0.6731415 0 -1.2188263 0.36164856 -1.2188263 0.8077545l0 0c0 0.44610596 0.5456848 0.8077545 1.2188263 0.8077545c0.6731415 0 1.2188263 -0.36164856 1.2188263 -0.8077545z" fill-rule="nonzero"></path><path fill="#000000" fill-opacity="0.0" d="m182.05128 147.39891l0 0c0 0.44610596 0.5456848 0.8077545 1.2188263 0.8077545c0.6731415 0 1.2188263 -0.36164856 1.2188263 -0.8077545l0 0c0 -0.44610596 -0.5456848 -0.8077545 -1.2188263 -0.8077545c-0.6731415 0 -1.2188263 0.36164856 -1.2188263 0.8077545l0 10.034897c0 0.44610596 0.5456848 0.8077545 1.2188263 0.8077545c0.6731415 0 1.2188263 -0.36164856 1.2188263 -0.8077545l0 -10.034897" fill-rule="nonzero"></path><path stroke="#000000" stroke-width="1.0" stroke-linejoin="round" stroke-linecap="butt" d="m182.05128 147.39891l0 0c0 0.44610596 0.5456848 0.8077545 1.2188263 0.8077545c0.6731415 0 1.2188263 -0.36164856 1.2188263 -0.8077545l0 0c0 -0.44610596 -0.5456848 -0.8077545 -1.2188263 -0.8077545c-0.6731415 0 -1.2188263 0.36164856 -1.2188263 0.8077545l0 10.034897c0 0.44610596 0.5456848 0.8077545 1.2188263 0.8077545c0.6731415 0 1.2188263 -0.36164856 1.2188263 -0.8077545l0 -10.034897" fill-rule="nonzero"></path><path fill="#efefef" d="m174.40436 159.64075l0 0c0 -0.83000183 1.1813202 -1.5028687 2.6385498 -1.5028687l0 0c1.4572449 0 2.638565 0.6728668 2.638565 1.5028687l0 0c0 0.8300171 -1.1813202 1.5028839 -2.638565 1.5028839l0 0c-1.4572296 0 -2.6385498 -0.6728668 -2.6385498 -1.5028839z" fill-rule="nonzero"></path><path fill="#f1c232" d="m178.20859 148.51198l0 0c0 0.44610596 -0.5456848 0.8077545 -1.2188263 0.8077545c-0.6731415 0 -1.2188263 -0.36164856 -1.2188263 -0.8077545l0 10.034897c0 0.44610596 0.5456848 0.8077545 1.2188263 0.8077545c0.6731415 0 1.2188263 -0.36164856 1.2188263 -0.8077545z" fill-rule="nonzero"></path><path fill="#f6da84" d="m178.20859 148.51198l0 0c0 -0.44610596 -0.5456848 -0.8077545 -1.2188263 -0.8077545c-0.6731415 0 -1.2188263 0.36164856 -1.2188263 0.8077545l0 0c0 0.44610596 0.5456848 0.8077545 1.2188263 0.8077545c0.6731415 0 1.2188263 -0.36164856 1.2188263 -0.8077545z" fill-rule="nonzero"></path><path fill="#000000" fill-opacity="0.0" d="m175.77094 148.51198l0 0c0 0.44610596 0.5456848 0.8077545 1.2188263 0.8077545c0.6731415 0 1.2188263 -0.36164856 1.2188263 -0.8077545l0 0c0 -0.44610596 -0.5456848 -0.8077545 -1.2188263 -0.8077545c-0.6731415 0 -1.2188263 0.36164856 -1.2188263 0.8077545l0 10.034897c0 0.44610596 0.5456848 0.8077545 1.2188263 0.8077545c0.6731415 0 1.2188263 -0.36164856 1.2188263 -0.8077545l0 -10.034897" fill-rule="nonzero"></path><path stroke="#000000" stroke-width="1.0" stroke-linejoin="round" stroke-linecap="butt" d="m175.77094 148.51198l0 0c0 0.44610596 0.5456848 0.8077545 1.2188263 0.8077545c0.6731415 0 1.2188263 -0.36164856 1.2188263 -0.8077545l0 0c0 -0.44610596 -0.5456848 -0.8077545 -1.2188263 -0.8077545c-0.6731415 0 -1.2188263 0.36164856 -1.2188263 0.8077545l0 10.034897c0 0.44610596 0.5456848 0.8077545 1.2188263 0.8077545c0.6731415 0 1.2188263 -0.36164856 1.2188263 -0.8077545l0 -10.034897" fill-rule="nonzero"></path><path fill="#efefef" d="m178.1858 160.30135l0 0c0 -0.8300171 1.1813202 -1.5028687 2.6385498 -1.5028687l0 0c1.4572449 0 2.638565 0.67285156 2.638565 1.5028687l0 0c0 0.8300171 -1.1813202 1.5028839 -2.638565 1.5028839l0 0c-1.4572296 0 -2.6385498 -0.6728668 -2.6385498 -1.5028839z" fill-rule="nonzero"></path><path fill="#f1c232" d="m182.04318 149.46834l0 0c0 0.44610596 -0.5456848 0.8077545 -1.2188263 0.8077545c-0.6731415 0 -1.2188263 -0.36164856 -1.2188263 -0.8077545l0 10.034897c0 0.44610596 0.5456848 0.8077545 1.2188263 0.8077545c0.6731415 0 1.2188263 -0.36164856 1.2188263 -0.8077545z" fill-rule="nonzero"></path><path fill="#f6da84" d="m182.04318 149.46834l0 0c0 -0.44610596 -0.5456848 -0.8077545 -1.2188263 -0.8077545c-0.6731415 0 -1.2188263 0.36164856 -1.2188263 0.8077545l0 0c0 0.44610596 0.5456848 0.8077545 1.2188263 0.8077545c0.6731415 0 1.2188263 -0.36164856 1.2188263 -0.8077545z" fill-rule="nonzero"></path><path fill="#000000" fill-opacity="0.0" d="m179.60553 149.46834l0 0c0 0.44610596 0.5456848 0.8077545 1.2188263 0.8077545c0.6731415 0 1.2188263 -0.36164856 1.2188263 -0.8077545l0 0c0 -0.44610596 -0.5456848 -0.8077545 -1.2188263 -0.8077545c-0.6731415 0 -1.2188263 0.36164856 -1.2188263 0.8077545l0 10.034897c0 0.44610596 0.5456848 0.8077545 1.2188263 0.8077545c0.6731415 0 1.2188263 -0.36164856 1.2188263 -0.8077545l0 -10.034897" fill-rule="nonzero"></path><path stroke="#000000" stroke-width="1.0" stroke-linejoin="round" stroke-linecap="butt" d="m179.60553 149.46834l0 0c0 0.44610596 0.5456848 0.8077545 1.2188263 0.8077545c0.6731415 0 1.2188263 -0.36164856 1.2188263 -0.8077545l0 0c0 -0.44610596 -0.5456848 -0.8077545 -1.2188263 -0.8077545c-0.6731415 0 -1.2188263 0.36164856 -1.2188263 0.8077545l0 10.034897c0 0.44610596 0.5456848 0.8077545 1.2188263 0.8077545c0.6731415 0 1.2188263 -0.36164856 1.2188263 -0.8077545l0 -10.034897" fill-rule="nonzero"></path><path fill="#efefef" d="m171.69534 161.55907l0 0c0 -0.8300171 1.1813202 -1.5028687 2.6385498 -1.5028687l0 0c1.4572449 0 2.638565 0.67285156 2.638565 1.5028687l0 0c0 0.8300171 -1.1813202 1.5028839 -2.638565 1.5028839l0 0c-1.4572296 0 -2.6385498 -0.6728668 -2.6385498 -1.5028839z" fill-rule="nonzero"></path><path fill="#f1c232" d="m175.55272 150.72606l0 0c0 0.44610596 -0.5456848 0.8077545 -1.2188263 0.8077545c-0.6731415 0 -1.2188263 -0.36164856 -1.2188263 -0.8077545l0 10.034897c0 0.44610596 0.5456848 0.8077545 1.2188263 0.8077545c0.6731415 0 1.2188263 -0.36164856 1.2188263 -0.8077545z" fill-rule="nonzero"></path><path fill="#f6da84" d="m175.55272 150.72606l0 0c0 -0.44610596 -0.5456848 -0.8077545 -1.2188263 -0.8077545c-0.6731415 0 -1.2188263 0.36164856 -1.2188263 0.8077545l0 0c0 0.44610596 0.5456848 0.8077545 1.2188263 0.8077545c0.6731415 0 1.2188263 -0.36164856 1.2188263 -0.8077545z" fill-rule="nonzero"></path><path fill="#000000" fill-opacity="0.0" d="m173.11507 150.72606l0 0c0 0.44610596 0.5456848 0.8077545 1.2188263 0.8077545c0.6731415 0 1.2188263 -0.36164856 1.2188263 -0.8077545l0 0c0 -0.44610596 -0.5456848 -0.8077545 -1.2188263 -0.8077545c-0.6731415 0 -1.2188263 0.36164856 -1.2188263 0.8077545l0 10.034897c0 0.44610596 0.5456848 0.8077545 1.2188263 0.8077545c0.6731415 0 1.2188263 -0.36164856 1.2188263 -0.8077545l0 -10.034897" fill-rule="nonzero"></path><path stroke="#000000" stroke-width="1.0" stroke-linejoin="round" stroke-linecap="butt" d="m173.11507 150.72606l0 0c0 0.44610596 0.5456848 0.8077545 1.2188263 0.8077545c0.6731415 0 1.2188263 -0.36164856 1.2188263 -0.8077545l0 0c0 -0.44610596 -0.5456848 -0.8077545 -1.2188263 -0.8077545c-0.6731415 0 -1.2188263 0.36164856 -1.2188263 0.8077545l0 10.034897c0 0.44610596 0.5456848 0.8077545 1.2188263 0.8077545c0.6731415 0 1.2188263 -0.36164856 1.2188263 -0.8077545l0 -10.034897" fill-rule="nonzero"></path><path fill="#efefef" d="m175.47679 162.21967l0 0c0 -0.8300171 1.1813202 -1.5028839 2.6385498 -1.5028839l0 0c1.4572449 0 2.638565 0.6728668 2.638565 1.5028839l0 0c0 0.8300171 -1.1813202 1.5028839 -2.638565 1.5028839l0 0c-1.4572296 0 -2.6385498 -0.6728668 -2.6385498 -1.5028839z" fill-rule="nonzero"></path><path fill="#f1c232" d="m179.33417 151.38666l0 0c0 0.44610596 -0.5456848 0.8077545 -1.2188263 0.8077545c-0.6731415 0 -1.2188263 -0.36164856 -1.2188263 -0.8077545l0 10.034897c0 0.44610596 0.5456848 0.8077545 1.2188263 0.8077545c0.6731415 0 1.2188263 -0.36164856 1.2188263 -0.8077545z" fill-rule="nonzero"></path><path fill="#f6da84" d="m179.33417 151.38666l0 0c0 -0.44610596 -0.5456848 -0.8077545 -1.2188263 -0.8077545c-0.6731415 0 -1.2188263 0.36164856 -1.2188263 0.8077545l0 0c0 0.44610596 0.5456848 0.8077545 1.2188263 0.8077545c0.6731415 0 1.2188263 -0.36164856 1.2188263 -0.8077545z" fill-rule="nonzero"></path><path fill="#000000" fill-opacity="0.0" d="m176.89651 151.38666l0 0c0 0.44610596 0.5456848 0.8077545 1.2188263 0.8077545c0.6731415 0 1.2188263 -0.36164856 1.2188263 -0.8077545l0 0c0 -0.44610596 -0.5456848 -0.8077545 -1.2188263 -0.8077545c-0.6731415 0 -1.2188263 0.36164856 -1.2188263 0.8077545l0 10.034897c0 0.44610596 0.5456848 0.8077545 1.2188263 0.8077545c0.6731415 0 1.2188263 -0.36164856 1.2188263 -0.8077545l0 -10.034897" fill-rule="nonzero"></path><path stroke="#000000" stroke-width="1.0" stroke-linejoin="round" stroke-linecap="butt" d="m176.89651 151.38666l0 0c0 0.44610596 0.5456848 0.8077545 1.2188263 0.8077545c0.6731415 0 1.2188263 -0.36164856 1.2188263 -0.8077545l0 0c0 -0.44610596 -0.5456848 -0.8077545 -1.2188263 -0.8077545c-0.6731415 0 -1.2188263 0.36164856 -1.2188263 0.8077545l0 10.034897c0 0.44610596 0.5456848 0.8077545 1.2188263 0.8077545c0.6731415 0 1.2188263 -0.36164856 1.2188263 -0.8077545l0 -10.034897" fill-rule="nonzero"></path><path fill="#efefef" d="m169.24959 163.62851l0 0c0 -0.8300171 1.1813202 -1.5028839 2.638565 -1.5028839l0 0c1.4572296 0 2.6385498 0.6728668 2.6385498 1.5028839l0 0c0 0.83000183 -1.1813202 1.5028687 -2.6385498 1.5028687l0 0c-1.4572449 0 -2.638565 -0.6728668 -2.638565 -1.5028687z" fill-rule="nonzero"></path><path fill="#f1c232" d="m173.10698 152.79549l0 0c0 0.44612122 -0.5456848 0.8077545 -1.2188263 0.8077545c-0.6731415 0 -1.2188263 -0.3616333 -1.2188263 -0.8077545l0 10.034897c0 0.44612122 0.5456848 0.8077545 1.2188263 0.8077545c0.6731415 0 1.2188263 -0.3616333 1.2188263 -0.8077545z" fill-rule="nonzero"></path><path fill="#f6da84" d="m173.10698 152.79549l0 0c0 -0.44610596 -0.5456848 -0.8077545 -1.2188263 -0.8077545c-0.6731415 0 -1.2188263 0.36164856 -1.2188263 0.8077545l0 0c0 0.44612122 0.5456848 0.8077545 1.2188263 0.8077545c0.6731415 0 1.2188263 -0.3616333 1.2188263 -0.8077545z" fill-rule="nonzero"></path><path fill="#000000" fill-opacity="0.0" d="m170.66933 152.79549l0 0c0 0.44612122 0.5456848 0.8077545 1.2188263 0.8077545c0.6731415 0 1.2188263 -0.3616333 1.2188263 -0.8077545l0 0c0 -0.44610596 -0.5456848 -0.8077545 -1.2188263 -0.8077545c-0.6731415 0 -1.2188263 0.36164856 -1.2188263 0.8077545l0 10.034897c0 0.44612122 0.5456848 0.8077545 1.2188263 0.8077545c0.6731415 0 1.2188263 -0.3616333 1.2188263 -0.8077545l0 -10.034897" fill-rule="nonzero"></path><path stroke="#000000" stroke-width="1.0" stroke-linejoin="round" stroke-linecap="butt" d="m170.66933 152.79549l0 0c0 0.44612122 0.5456848 0.8077545 1.2188263 0.8077545c0.6731415 0 1.2188263 -0.3616333 1.2188263 -0.8077545l0 0c0 -0.44610596 -0.5456848 -0.8077545 -1.2188263 -0.8077545c-0.6731415 0 -1.2188263 0.36164856 -1.2188263 0.8077545l0 10.034897c0 0.44612122 0.5456848 0.8077545 1.2188263 0.8077545c0.6731415 0 1.2188263 -0.3616333 1.2188263 -0.8077545l0 -10.034897" fill-rule="nonzero"></path><path fill="#efefef" d="m173.03104 164.2891l0 0c0 -0.8300171 1.1813202 -1.5028687 2.638565 -1.5028687l0 0c1.4572296 0 2.6385498 0.67285156 2.6385498 1.5028687l0 0c0 0.8300171 -1.1813202 1.5028839 -2.6385498 1.5028839l0 0c-1.4572449 0 -2.638565 -0.6728668 -2.638565 -1.5028839z" fill-rule="nonzero"></path><path fill="#f1c232" d="m176.6758 153.06174l0 0c0 0.44610596 -0.5456848 0.8077545 -1.2188263 0.8077545c-0.6731415 0 -1.2188263 -0.36164856 -1.2188263 -0.8077545l0 10.034897c0 0.44610596 0.5456848 0.8077545 1.2188263 0.8077545c0.6731415 0 1.2188263 -0.36164856 1.2188263 -0.8077545z" fill-rule="nonzero"></path><path fill="#f6da84" d="m176.6758 153.06174l0 0c0 -0.44610596 -0.5456848 -0.8077545 -1.2188263 -0.8077545c-0.6731415 0 -1.2188263 0.36164856 -1.2188263 0.8077545l0 0c0 0.44610596 0.5456848 0.8077545 1.2188263 0.8077545c0.6731415 0 1.2188263 -0.36164856 1.2188263 -0.8077545z" fill-rule="nonzero"></path><path fill="#000000" fill-opacity="0.0" d="m174.23814 153.06174l0 0c0 0.44610596 0.5456848 0.8077545 1.2188263 0.8077545c0.6731415 0 1.2188263 -0.36164856 1.2188263 -0.8077545l0 0c0 -0.44610596 -0.5456848 -0.8077545 -1.2188263 -0.8077545c-0.6731415 0 -1.2188263 0.36164856 -1.2188263 0.8077545l0 10.034897c0 0.44610596 0.5456848 0.8077545 1.2188263 0.8077545c0.6731415 0 1.2188263 -0.36164856 1.2188263 -0.8077545l0 -10.034897" fill-rule="nonzero"></path><path stroke="#000000" stroke-width="1.0" stroke-linejoin="round" stroke-linecap="butt" d="m174.23814 153.06174l0 0c0 0.44610596 0.5456848 0.8077545 1.2188263 0.8077545c0.6731415 0 1.2188263 -0.36164856 1.2188263 -0.8077545l0 0c0 -0.44610596 -0.5456848 -0.8077545 -1.2188263 -0.8077545c-0.6731415 0 -1.2188263 0.36164856 -1.2188263 0.8077545l0 10.034897c0 0.44610596 0.5456848 0.8077545 1.2188263 0.8077545c0.6731415 0 1.2188263 -0.36164856 1.2188263 -0.8077545l0 -10.034897" fill-rule="nonzero"></path><path fill="#efefef" d="m170.32007 166.21078l0 0c0 -0.8300171 1.1813202 -1.5028839 2.638565 -1.5028839l0 0c1.4572296 0 2.6385498 0.6728668 2.6385498 1.5028839l0 0c0 0.83000183 -1.1813202 1.5028687 -2.6385498 1.5028687l0 0c-1.4572449 0 -2.638565 -0.6728668 -2.638565 -1.5028687z" fill-rule="nonzero"></path><path fill="#f1c232" d="m174.17746 155.37776l0 0c0 0.44612122 -0.5456848 0.8077545 -1.2188263 0.8077545c-0.6731415 0 -1.2188263 -0.3616333 -1.2188263 -0.8077545l0 10.034897c0 0.44612122 0.5456848 0.8077545 1.2188263 0.8077545c0.6731415 0 1.2188263 -0.3616333 1.2188263 -0.8077545z" fill-rule="nonzero"></path><path fill="#f6da84" d="m174.17746 155.37776l0 0c0 -0.44610596 -0.5456848 -0.8077545 -1.2188263 -0.8077545c-0.6731415 0 -1.2188263 0.36164856 -1.2188263 0.8077545l0 0c0 0.44612122 0.5456848 0.8077545 1.2188263 0.8077545c0.6731415 0 1.2188263 -0.3616333 1.2188263 -0.8077545z" fill-rule="nonzero"></path><path fill="#000000" fill-opacity="0.0" d="m171.7398 155.37776l0 0c0 0.44612122 0.5456848 0.8077545 1.2188263 0.8077545c0.6731415 0 1.2188263 -0.3616333 1.2188263 -0.8077545l0 0c0 -0.44610596 -0.5456848 -0.8077545 -1.2188263 -0.8077545c-0.6731415 0 -1.2188263 0.36164856 -1.2188263 0.8077545l0 10.034897c0 0.44612122 0.5456848 0.8077545 1.2188263 0.8077545c0.6731415 0 1.2188263 -0.3616333 1.2188263 -0.8077545l0 -10.034897" fill-rule="nonzero"></path><path stroke="#000000" stroke-width="1.0" stroke-linejoin="round" stroke-linecap="butt" d="m171.7398 155.37776l0 0c0 0.44612122 0.5456848 0.8077545 1.2188263 0.8077545c0.6731415 0 1.2188263 -0.3616333 1.2188263 -0.8077545l0 0c0 -0.44610596 -0.5456848 -0.8077545 -1.2188263 -0.8077545c-0.6731415 0 -1.2188263 0.36164856 -1.2188263 0.8077545l0 10.034897c0 0.44612122 0.5456848 0.8077545 1.2188263 0.8077545c0.6731415 0 1.2188263 -0.3616333 1.2188263 -0.8077545l0 -10.034897" fill-rule="nonzero"></path><path fill="#efefef" d="m166.53862 165.50089l0 0c0 -0.8300171 1.1813202 -1.5028687 2.638565 -1.5028687l0 0c1.4572296 0 2.6385498 0.67285156 2.6385498 1.5028687l0 0c0 0.8300171 -1.1813202 1.5028839 -2.6385498 1.5028839l0 0c-1.4572449 0 -2.638565 -0.6728668 -2.638565 -1.5028839z" fill-rule="nonzero"></path><path fill="#f1c232" d="m170.39601 154.66788l0 0c0 0.44610596 -0.5456848 0.8077545 -1.2188263 0.8077545c-0.6731415 0 -1.2188263 -0.36164856 -1.2188263 -0.8077545l0 10.034897c0 0.44610596 0.5456848 0.8077545 1.2188263 0.8077545c0.6731415 0 1.2188263 -0.36164856 1.2188263 -0.8077545z" fill-rule="nonzero"></path><path fill="#f6da84" d="m170.39601 154.66788l0 0c0 -0.44610596 -0.5456848 -0.8077545 -1.2188263 -0.8077545c-0.6731415 0 -1.2188263 0.36164856 -1.2188263 0.8077545l0 0c0 0.44610596 0.5456848 0.8077545 1.2188263 0.8077545c0.6731415 0 1.2188263 -0.36164856 1.2188263 -0.8077545z" fill-rule="nonzero"></path><path fill="#000000" fill-opacity="0.0" d="m167.95836 154.66788l0 0c0 0.44610596 0.5456848 0.8077545 1.2188263 0.8077545c0.6731415 0 1.2188263 -0.36164856 1.2188263 -0.8077545l0 0c0 -0.44610596 -0.5456848 -0.8077545 -1.2188263 -0.8077545c-0.6731415 0 -1.2188263 0.36164856 -1.2188263 0.8077545l0 10.034897c0 0.44610596 0.5456848 0.8077545 1.2188263 0.8077545c0.6731415 0 1.2188263 -0.36164856 1.2188263 -0.8077545l0 -10.034897" fill-rule="nonzero"></path><path stroke="#000000" stroke-width="1.0" stroke-linejoin="round" stroke-linecap="butt" d="m167.95836 154.66788l0 0c0 0.44610596 0.5456848 0.8077545 1.2188263 0.8077545c0.6731415 0 1.2188263 -0.36164856 1.2188263 -0.8077545l0 0c0 -0.44610596 -0.5456848 -0.8077545 -1.2188263 -0.8077545c-0.6731415 0 -1.2188263 0.36164856 -1.2188263 0.8077545l0 10.034897c0 0.44610596 0.5456848 0.8077545 1.2188263 0.8077545c0.6731415 0 1.2188263 -0.36164856 1.2188263 -0.8077545l0 -10.034897" fill-rule="nonzero"></path><path fill="#efefef" d="m164.09288 167.57033l0 0c0 -0.8300171 1.1813202 -1.5028839 2.6385498 -1.5028839l0 0c1.4572449 0 2.638565 0.6728668 2.638565 1.5028839l0 0c0 0.83000183 -1.1813202 1.5028687 -2.638565 1.5028687l0 0c-1.4572296 0 -2.6385498 -0.6728668 -2.6385498 -1.5028687z" fill-rule="nonzero"></path><path fill="#f1c232" d="m167.95026 156.7373l0 0c0 0.44612122 -0.5456848 0.8077545 -1.2188263 0.8077545c-0.6731262 0 -1.2188263 -0.3616333 -1.2188263 -0.8077545l0 10.034897c0 0.44612122 0.5457001 0.8077545 1.2188263 0.8077545c0.6731415 0 1.2188263 -0.3616333 1.2188263 -0.8077545z" fill-rule="nonzero"></path><path fill="#f6da84" d="m167.95026 156.7373l0 0c0 -0.44610596 -0.5456848 -0.8077545 -1.2188263 -0.8077545c-0.6731262 0 -1.2188263 0.36164856 -1.2188263 0.8077545l0 0c0 0.44612122 0.5457001 0.8077545 1.2188263 0.8077545c0.6731415 0 1.2188263 -0.3616333 1.2188263 -0.8077545z" fill-rule="nonzero"></path><path fill="#000000" fill-opacity="0.0" d="m165.5126 156.7373l0 0c0 0.44612122 0.5457001 0.8077545 1.2188263 0.8077545c0.6731415 0 1.2188263 -0.3616333 1.2188263 -0.8077545l0 0c0 -0.44610596 -0.5456848 -0.8077545 -1.2188263 -0.8077545c-0.6731262 0 -1.2188263 0.36164856 -1.2188263 0.8077545l0 10.034897c0 0.44612122 0.5457001 0.8077545 1.2188263 0.8077545c0.6731415 0 1.2188263 -0.3616333 1.2188263 -0.8077545l0 -10.034897" fill-rule="nonzero"></path><path stroke="#000000" stroke-width="1.0" stroke-linejoin="round" stroke-linecap="butt" d="m165.5126 156.7373l0 0c0 0.44612122 0.5457001 0.8077545 1.2188263 0.8077545c0.6731415 0 1.2188263 -0.3616333 1.2188263 -0.8077545l0 0c0 -0.44610596 -0.5456848 -0.8077545 -1.2188263 -0.8077545c-0.6731262 0 -1.2188263 0.36164856 -1.2188263 0.8077545l0 10.034897c0 0.44612122 0.5457001 0.8077545 1.2188263 0.8077545c0.6731415 0 1.2188263 -0.3616333 1.2188263 -0.8077545l0 -10.034897" fill-rule="nonzero"></path><path fill="#efefef" d="m167.87433 168.23091l0 0c0 -0.8300171 1.1813202 -1.5028687 2.638565 -1.5028687l0 0c1.4572296 0 2.6385498 0.67285156 2.6385498 1.5028687l0 0c0 0.8300171 -1.1813202 1.5028839 -2.6385498 1.5028839l0 0c-1.4572449 0 -2.638565 -0.6728668 -2.638565 -1.5028839z" fill-rule="nonzero"></path><path fill="#f1c232" d="m171.73172 157.3979l0 0c0 0.44610596 -0.5457001 0.8077545 -1.2188416 0.8077545c-0.6731262 0 -1.2188263 -0.36164856 -1.2188263 -0.8077545l0 10.034897c0 0.44610596 0.5457001 0.8077545 1.2188263 0.8077545c0.6731415 0 1.2188416 -0.36164856 1.2188416 -0.8077545z" fill-rule="nonzero"></path><path fill="#f6da84" d="m171.73172 157.3979l0 0c0 -0.44610596 -0.5457001 -0.8077545 -1.2188416 -0.8077545c-0.6731262 0 -1.2188263 0.36164856 -1.2188263 0.8077545l0 0c0 0.44610596 0.5457001 0.8077545 1.2188263 0.8077545c0.6731415 0 1.2188416 -0.36164856 1.2188416 -0.8077545z" fill-rule="nonzero"></path><path fill="#000000" fill-opacity="0.0" d="m169.29405 157.3979l0 0c0 0.44610596 0.5457001 0.8077545 1.2188263 0.8077545c0.6731415 0 1.2188416 -0.36164856 1.2188416 -0.8077545l0 0c0 -0.44610596 -0.5457001 -0.8077545 -1.2188416 -0.8077545c-0.6731262 0 -1.2188263 0.36164856 -1.2188263 0.8077545l0 10.034897c0 0.44610596 0.5457001 0.8077545 1.2188263 0.8077545c0.6731415 0 1.2188416 -0.36164856 1.2188416 -0.8077545l0 -10.034897" fill-rule="nonzero"></path><path stroke="#000000" stroke-width="1.0" stroke-linejoin="round" stroke-linecap="butt" d="m169.29405 157.3979l0 0c0 0.44610596 0.5457001 0.8077545 1.2188263 0.8077545c0.6731415 0 1.2188416 -0.36164856 1.2188416 -0.8077545l0 0c0 -0.44610596 -0.5457001 -0.8077545 -1.2188416 -0.8077545c-0.6731262 0 -1.2188263 0.36164856 -1.2188263 0.8077545l0 10.034897c0 0.44610596 0.5457001 0.8077545 1.2188263 0.8077545c0.6731415 0 1.2188416 -0.36164856 1.2188416 -0.8077545l0 -10.034897" fill-rule="nonzero"></path><path fill="#efefef" d="m161.56425 169.4044l0 0c0 -0.8300171 1.1813202 -1.5028687 2.638565 -1.5028687l0 0c1.4572296 0 2.6385498 0.67285156 2.6385498 1.5028687l0 0c0 0.8300171 -1.1813202 1.5028839 -2.6385498 1.5028839l0 0c-1.4572449 0 -2.638565 -0.6728668 -2.638565 -1.5028839z" fill-rule="nonzero"></path><path fill="#f1c232" d="m165.42165 158.5714l0 0c0 0.44610596 -0.5456848 0.8077545 -1.2188263 0.8077545c-0.6731415 0 -1.2188263 -0.36164856 -1.2188263 -0.8077545l0 10.034897c0 0.44610596 0.5456848 0.8077545 1.2188263 0.8077545c0.6731415 0 1.2188263 -0.36164856 1.2188263 -0.8077545z" fill-rule="nonzero"></path><path fill="#f6da84" d="m165.42165 158.5714l0 0c0 -0.44610596 -0.5456848 -0.8077545 -1.2188263 -0.8077545c-0.6731415 0 -1.2188263 0.36164856 -1.2188263 0.8077545l0 0c0 0.44610596 0.5456848 0.8077545 1.2188263 0.8077545c0.6731415 0 1.2188263 -0.36164856 1.2188263 -0.8077545z" fill-rule="nonzero"></path><path fill="#000000" fill-opacity="0.0" d="m162.984 158.5714l0 0c0 0.44610596 0.5456848 0.8077545 1.2188263 0.8077545c0.6731415 0 1.2188263 -0.36164856 1.2188263 -0.8077545l0 0c0 -0.44610596 -0.5456848 -0.8077545 -1.2188263 -0.8077545c-0.6731415 0 -1.2188263 0.36164856 -1.2188263 0.8077545l0 10.034897c0 0.44610596 0.5456848 0.8077545 1.2188263 0.8077545c0.6731415 0 1.2188263 -0.36164856 1.2188263 -0.8077545l0 -10.034897" fill-rule="nonzero"></path><path stroke="#000000" stroke-width="1.0" stroke-linejoin="round" stroke-linecap="butt" d="m162.984 158.5714l0 0c0 0.44610596 0.5456848 0.8077545 1.2188263 0.8077545c0.6731415 0 1.2188263 -0.36164856 1.2188263 -0.8077545l0 0c0 -0.44610596 -0.5456848 -0.8077545 -1.2188263 -0.8077545c-0.6731415 0 -1.2188263 0.36164856 -1.2188263 0.8077545l0 10.034897c0 0.44610596 0.5456848 0.8077545 1.2188263 0.8077545c0.6731415 0 1.2188263 -0.36164856 1.2188263 -0.8077545l0 -10.034897" fill-rule="nonzero"></path><path fill="#efefef" d="m165.3457 170.065l0 0c0 -0.8300171 1.1813202 -1.5028687 2.638565 -1.5028687l0 0c1.4572296 0 2.6385498 0.67285156 2.6385498 1.5028687l0 0c0 0.8300171 -1.1813202 1.5028839 -2.6385498 1.5028839l0 0c-1.4572449 0 -2.638565 -0.6728668 -2.638565 -1.5028839z" fill-rule="nonzero"></path><path fill="#f1c232" d="m169.2031 159.232l0 0c0 0.44610596 -0.5456848 0.8077545 -1.2188263 0.8077545c-0.6731415 0 -1.2188263 -0.36164856 -1.2188263 -0.8077545l0 10.034897c0 0.44610596 0.5456848 0.8077545 1.2188263 0.8077545c0.6731415 0 1.2188263 -0.36164856 1.2188263 -0.8077545z" fill-rule="nonzero"></path><path fill="#f6da84" d="m169.2031 159.232l0 0c0 -0.44610596 -0.5456848 -0.8077545 -1.2188263 -0.8077545c-0.6731415 0 -1.2188263 0.36164856 -1.2188263 0.8077545l0 0c0 0.44610596 0.5456848 0.8077545 1.2188263 0.8077545c0.6731415 0 1.2188263 -0.36164856 1.2188263 -0.8077545z" fill-rule="nonzero"></path><path fill="#000000" fill-opacity="0.0" d="m166.76544 159.232l0 0c0 0.44610596 0.5456848 0.8077545 1.2188263 0.8077545c0.6731415 0 1.2188263 -0.36164856 1.2188263 -0.8077545l0 0c0 -0.44610596 -0.5456848 -0.8077545 -1.2188263 -0.8077545c-0.6731415 0 -1.2188263 0.36164856 -1.2188263 0.8077545l0 10.034897c0 0.44610596 0.5456848 0.8077545 1.2188263 0.8077545c0.6731415 0 1.2188263 -0.36164856 1.2188263 -0.8077545l0 -10.034897" fill-rule="nonzero"></path><path stroke="#000000" stroke-width="1.0" stroke-linejoin="round" stroke-linecap="butt" d="m166.76544 159.232l0 0c0 0.44610596 0.5456848 0.8077545 1.2188263 0.8077545c0.6731415 0 1.2188263 -0.36164856 1.2188263 -0.8077545l0 0c0 -0.44610596 -0.5456848 -0.8077545 -1.2188263 -0.8077545c-0.6731415 0 -1.2188263 0.36164856 -1.2188263 0.8077545l0 10.034897c0 0.44610596 0.5456848 0.8077545 1.2188263 0.8077545c0.6731415 0 1.2188263 -0.36164856 1.2188263 -0.8077545l0 -10.034897" fill-rule="nonzero"></path><path fill="#000000" fill-opacity="0.0" d="m2.9947507 141.2153l294.4252 31.275589" fill-rule="nonzero"></path><path stroke="#000000" stroke-width="1.0" stroke-linejoin="round" stroke-linecap="butt" d="m2.9947507 141.2153l294.4252 31.275589" fill-rule="nonzero"></path><path fill="#000000" fill-opacity="0.0" d="m39.504448 239.83122l226.96063 -185.07086" fill-rule="nonzero"></path><path stroke="#000000" stroke-width="1.0" stroke-linejoin="round" stroke-linecap="butt" d="m39.504448 239.83122l226.96063 -185.07086" fill-rule="nonzero"></path><path fill="#434343" d="m134.20883 157.46046l9.413666 0.97239685l-0.11454773 0.9213257l-9.4136505 -0.97239685z" fill-rule="nonzero"></path><path fill="#353535" d="m143.6225 158.43286l5.5269165 -4.397537l-0.11454773 0.92134094l-5.5269165 4.397522z" fill-rule="nonzero"></path><path fill="#686868" d="m134.20883 157.46046l5.5269165 -4.397537l9.413666 0.97239685l-5.5269165 4.397537z" fill-rule="nonzero"></path><path fill="#000000" fill-opacity="0.0" d="m134.20883 157.46046l5.5269165 -4.397537l9.413666 0.97239685l-0.11454773 0.92134094l-5.5269165 4.397522l-9.4136505 -0.97239685zm0 0l9.413666 0.97239685l5.5269165 -4.397537m-5.5269165 4.397537l-0.11454773 0.9213257" fill-rule="nonzero"></path><path stroke="#000000" stroke-width="1.0" stroke-linejoin="round" stroke-linecap="butt" d="m134.20883 157.46046l5.5269165 -4.397537l9.413666 0.97239685l-0.11454773 0.92134094l-5.5269165 4.397522l-9.4136505 -0.97239685zm0 0l9.413666 0.97239685l5.5269165 -4.397537m-5.5269165 4.397537l-0.11454773 0.9213257" fill-rule="nonzero"></path><path fill="#000000" fill-opacity="0.0" d="m141.97758 155.71696l0.03149414 -112.7874" fill-rule="nonzero"></path><path stroke="#000000" stroke-width="1.0" stroke-linejoin="round" stroke-linecap="butt" d="m141.97758 155.71696l0.03149414 -112.7874" fill-rule="nonzero"></path><path fill="#000000" fill-opacity="0.0" d="m115.13123 1.304462l204.78741 0l0 31.653545l-204.78741 0z" fill-rule="nonzero"></path><path fill="#000000" d="m167.75848 21.824463l0 -8.593751l1.15625 0l4.515625 6.750001l0 -6.750001l1.09375 0l0 8.593751l-1.171875 0l-4.515625 -6.750001l0 6.750001l-1.078125 0zm12.791016 -2.0l1.09375 0.125q-0.25 0.953125 -0.953125 1.484375q-0.703125 0.53125 -1.78125 0.53125q-1.359375 0 -2.171875 -0.84375q-0.796875 -0.84375 -0.796875 -2.359375q0 -1.5625 0.8125 -2.421875q0.8125 -0.87500095 2.09375 -0.87500095q1.25 0 2.03125 0.84375095q0.796875 0.84375 0.796875 2.390625q0 0.09375 0 0.28125l-4.640625 0q0.0625 1.03125 0.578125 1.578125q0.515625 0.53125 1.296875 0.53125q0.578125 0 0.984375 -0.296875q0.421875 -0.3125 0.65625 -0.96875zm-3.453125 -1.703125l3.46875 0q-0.0625 -0.796875 -0.390625 -1.1875q-0.515625 -0.609375 -1.3125 -0.609375q-0.734375 0 -1.234375 0.484375q-0.484375 0.484375 -0.53125 1.3125zm5.673828 4.21875l1.03125 0.15625q0.0625 0.46875 0.359375 0.6875q0.390625 0.296875 1.0625 0.296875q0.734375 0 1.125 -0.296875q0.40625 -0.296875 0.546875 -0.8125q0.09375 -0.328125 0.078125 -1.359375q-0.6875 0.8125 -1.71875 0.8125q-1.28125 0 -1.984375 -0.921875q-0.703125 -0.9375 -0.703125 -2.21875q0 -0.890625 0.3125 -1.640625q0.328125 -0.765625 0.9375 -1.171876q0.609375 -0.40625 1.4375 -0.40625q1.109375 0 1.828125 0.89062595l0 -0.75000095l0.96875 0l0 5.375001q0 1.453125 -0.296875 2.0625q-0.296875 0.609375 -0.9375 0.953125q-0.640625 0.359375 -1.578125 0.359375q-1.109375 0 -1.796875 -0.5q-0.6875 -0.5 -0.671875 -1.515625zm0.875 -3.734375q0 1.21875 0.484375 1.78125q0.484375 0.5625 1.21875 0.5625q0.734375 0 1.21875 -0.5625q0.5 -0.5625 0.5 -1.75q0 -1.140625 -0.515625 -1.71875q-0.5 -0.578125 -1.21875 -0.578125q-0.703125 0 -1.203125 0.578125q-0.484375 0.5625 -0.484375 1.6875zm10.064453 2.453125q-0.59375 0.5 -1.140625 0.703125q-0.53125 0.203125 -1.15625 0.203125q-1.03125 0 -1.578125 -0.5q-0.546875 -0.5 -0.546875 -1.28125q0 -0.453125 0.203125 -0.828125q0.203125 -0.390625 0.546875 -0.609375q0.34375 -0.234375 0.765625 -0.34375q0.296875 -0.09375 0.9375 -0.171875q1.265625 -0.140625 1.875 -0.359375q0 -0.21875 0 -0.265625q0 -0.65625 -0.296875 -0.921875q-0.40625 -0.34375 -1.203125 -0.34375q-0.734375 0 -1.09375 0.265625q-0.359375 0.25 -0.53125 0.90625l-1.03125 -0.140625q0.140625 -0.65625 0.46875 -1.0625q0.328125 -0.40625095 0.9375 -0.62500095q0.609375 -0.21875 1.40625 -0.21875q0.796875 0 1.296875 0.1875q0.5 0.1875 0.734375 0.46875095q0.234375 0.28125 0.328125 0.71875q0.046875 0.265625 0.046875 0.96875l0 1.40625q0 1.46875 0.0625 1.859375q0.078125 0.390625 0.28125 0.75l-1.109375 0q-0.15625 -0.328125 -0.203125 -0.765625zm-0.09375 -2.359375q-0.578125 0.234375 -1.71875 0.40625q-0.65625 0.09375 -0.921875 0.21875q-0.265625 0.109375 -0.421875 0.328125q-0.140625 0.21875 -0.140625 0.5q0 0.421875 0.3125 0.703125q0.328125 0.28125 0.9375 0.28125q0.609375 0 1.078125 -0.265625q0.484375 -0.265625 0.703125 -0.734375q0.171875 -0.359375 0.171875 -1.046875l0 -0.390625zm5.001953 2.1875l0.15625 0.921875q-0.453125 0.09375 -0.796875 0.09375q-0.578125 0 -0.890625 -0.171875q-0.3125 -0.1875 -0.453125 -0.484375q-0.125 -0.296875 -0.125 -1.25l0 -3.578125l-0.765625 0l0 -0.81250095l0.765625 0l0 -1.546875l1.046875 -0.625l0 2.171875l1.0625 0l0 0.81250095l-1.0625 0l0 3.640625q0 0.453125 0.046875 0.578125q0.0625 0.125 0.1875 0.203125q0.125 0.078125 0.359375 0.078125q0.1875 0 0.46875 -0.03125zm1.0371094 -6.437501l0 -1.21875l1.0625 0l0 1.21875l-1.0625 0zm0 7.375001l0 -6.218751l1.0625 0l0 6.218751l-1.0625 0zm4.3847656 0l-2.359375 -6.218751l1.109375 0l1.34375 3.718751q0.203125 0.609375 0.390625 1.25q0.140625 -0.484375 0.390625 -1.171875l1.390625 -3.796876l1.078125 0l-2.359375 6.218751l-0.984375 0zm8.53125 -2.0l1.09375 0.125q-0.25 0.953125 -0.953125 1.484375q-0.703125 0.53125 -1.78125 0.53125q-1.359375 0 -2.171875 -0.84375q-0.796875 -0.84375 -0.796875 -2.359375q0 -1.5625 0.8125 -2.421875q0.8125 -0.87500095 2.09375 -0.87500095q1.25 0 2.03125 0.84375095q0.796875 0.84375 0.796875 2.390625q0 0.09375 0 0.28125l-4.640625 0q0.0625 1.03125 0.578125 1.578125q0.515625 0.53125 1.296875 0.53125q0.578125 0 0.984375 -0.296875q0.421875 -0.3125 0.65625 -0.96875zm-3.453125 -1.703125l3.46875 0q-0.0625 -0.796875 -0.390625 -1.1875q-0.515625 -0.609375 -1.3125 -0.609375q-0.734375 0 -1.234375 0.484375q-0.484375 0.484375 -0.53125 1.3125zm9.3515625 3.703125l0 -8.593751l3.8125 0q1.15625 0 1.75 0.234375q0.59375 0.234375 0.953125 0.828125q0.359375 0.578125 0.359375 1.28125q0 0.92187595 -0.59375 1.546876q-0.59375 0.625 -1.828125 0.796875q0.453125 0.21875 0.6875 0.421875q0.5 0.453125 0.9375 1.140625l1.5 2.34375l-1.4375 0l-1.125 -1.78125q-0.5 -0.78125 -0.828125 -1.1875q-0.3125 -0.40625 -0.578125 -0.5625q-0.25 -0.171875 -0.515625 -0.25q-0.1875 -0.03125 -0.625 -0.03125l-1.328125 0l0 3.8125l-1.140625 0zm1.140625 -4.796875l2.453125 0q0.765625 0 1.203125 -0.15625q0.453125 -0.171875 0.671875 -0.515625q0.234375 -0.35937595 0.234375 -0.78125095q0 -0.609375 -0.453125 -1.0q-0.4375 -0.390625 -1.390625 -0.390625l-2.71875 0l0 2.843751zm6.9941406 1.6875q0 -1.734375 0.953125 -2.5625q0.796875 -0.68750095 1.953125 -0.68750095q1.28125 0 2.09375 0.84375095q0.828125 0.828125 0.828125 2.3125q0 1.203125 -0.359375 1.890625q-0.359375 0.6875 -1.0625 1.078125q-0.6875 0.375 -1.5 0.375q-1.296875 0 -2.109375 -0.828125q-0.796875 -0.84375 -0.796875 -2.421875zm1.078125 0q0 1.1875 0.515625 1.78125q0.53125 0.59375 1.3125 0.59375q0.796875 0 1.3125 -0.59375q0.515625 -0.59375 0.515625 -1.8125q0 -1.15625 -0.53125 -1.75q-0.515625 -0.59375 -1.296875 -0.59375q-0.78125 0 -1.3125 0.59375q-0.515625 0.578125 -0.515625 1.78125zm8.283203 2.171875l0.15625 0.921875q-0.453125 0.09375 -0.796875 0.09375q-0.578125 0 -0.890625 -0.171875q-0.3125 -0.1875 -0.453125 -0.484375q-0.125 -0.296875 -0.125 -1.25l0 -3.578125l-0.765625 0l0 -0.81250095l0.765625 0l0 -1.546875l1.046875 -0.625l0 2.171875l1.0625 0l0 0.81250095l-1.0625 0l0 3.640625q0 0.453125 0.046875 0.578125q0.0625 0.125 0.1875 0.203125q0.125 0.078125 0.359375 0.078125q0.1875 0 0.46875 -0.03125zm5.0996094 0.171875q-0.59375 0.5 -1.140625 0.703125q-0.53125 0.203125 -1.15625 0.203125q-1.03125 0 -1.578125 -0.5q-0.546875 -0.5 -0.546875 -1.28125q0 -0.453125 0.203125 -0.828125q0.203125 -0.390625 0.546875 -0.609375q0.34375 -0.234375 0.765625 -0.34375q0.296875 -0.09375 0.9375 -0.171875q1.265625 -0.140625 1.875 -0.359375q0 -0.21875 0 -0.265625q0 -0.65625 -0.296875 -0.921875q-0.40625 -0.34375 -1.203125 -0.34375q-0.734375 0 -1.09375 0.265625q-0.359375 0.25 -0.53125 0.90625l-1.03125 -0.140625q0.140625 -0.65625 0.46875 -1.0625q0.328125 -0.40625095 0.9375 -0.62500095q0.609375 -0.21875 1.40625 -0.21875q0.796875 0 1.296875 0.1875q0.5 0.1875 0.734375 0.46875095q0.234375 0.28125 0.328125 0.71875q0.046875 0.265625 0.046875 0.96875l0 1.40625q0 1.46875 0.0625 1.859375q0.078125 0.390625 0.28125 0.75l-1.109375 0q-0.15625 -0.328125 -0.203125 -0.765625zm-0.09375 -2.359375q-0.578125 0.234375 -1.71875 0.40625q-0.65625 0.09375 -0.921875 0.21875q-0.265625 0.109375 -0.421875 0.328125q-0.140625 0.21875 -0.140625 0.5q0 0.421875 0.3125 0.703125q0.328125 0.28125 0.9375 0.28125q0.609375 0 1.078125 -0.265625q0.484375 -0.265625 0.703125 -0.734375q0.171875 -0.359375 0.171875 -1.046875l0 -0.390625zm5.001953 2.1875l0.15625 0.921875q-0.453125 0.09375 -0.796875 0.09375q-0.578125 0 -0.890625 -0.171875q-0.3125 -0.1875 -0.453125 -0.484375q-0.125 -0.296875 -0.125 -1.25l0 -3.578125l-0.765625 0l0 -0.81250095l0.765625 0l0 -1.546875l1.046875 -0.625l0 2.171875l1.0625 0l0 0.81250095l-1.0625 0l0 3.640625q0 0.453125 0.046875 0.578125q0.0625 0.125 0.1875 0.203125q0.125 0.078125 0.359375 0.078125q0.1875 0 0.46875 -0.03125zm1.0371094 -6.437501l0 -1.21875l1.0625 0l0 1.21875l-1.0625 0zm0 7.375001l0 -6.218751l1.0625 0l0 6.218751l-1.0625 0zm2.2753906 -3.109375q0 -1.734375 0.953125 -2.5625q0.796875 -0.68750095 1.953125 -0.68750095q1.28125 0 2.09375 0.84375095q0.828125 0.828125 0.828125 2.3125q0 1.203125 -0.359375 1.890625q-0.359375 0.6875 -1.0625 1.078125q-0.6875 0.375 -1.5 0.375q-1.296875 0 -2.109375 -0.828125q-0.796875 -0.84375 -0.796875 -2.421875zm1.078125 0q0 1.1875 0.515625 1.78125q0.53125 0.59375 1.3125 0.59375q0.796875 0 1.3125 -0.59375q0.515625 -0.59375 0.515625 -1.8125q0 -1.15625 -0.53125 -1.75q-0.515625 -0.59375 -1.296875 -0.59375q-0.78125 0 -1.3125 0.59375q-0.515625 0.578125 -0.515625 1.78125zm5.986328 3.109375l0 -6.218751l0.9375 0l0 0.87500095q0.6875 -1.015626 1.984375 -1.015626q0.5625 0 1.03125 0.203125q0.484375 0.203125 0.71875 0.53125095q0.234375 0.328125 0.328125 0.765625q0.046875 0.296875 0.046875 1.03125l0 3.828125l-1.046875 0l0 -3.78125q0 -0.65625 -0.125 -0.96875q-0.125 -0.3125 -0.4375 -0.5q-0.3125 -0.203125 -0.734375 -0.203125q-0.671875 0 -1.171875 0.4375q-0.484375 0.421875 -0.484375 1.609375l0 3.40625l-1.046875 0zm9.1953125 0l3.296875 -8.593751l1.21875 0l3.515625 8.593751l-1.28125 0l-1.015625 -2.609375l-3.578125 0l-0.953125 2.609375l-1.203125 0zm2.484375 -3.53125l2.90625 0l-0.890625 -2.375001q-0.421875 -1.078125 -0.609375 -1.78125q-0.171875 0.828125 -0.46875 1.640625l-0.9375 2.515626zm7.3007812 3.53125l-0.984375 0l0 -8.593751l1.0625 0l0 3.062501q0.671875 -0.82812595 1.703125 -0.82812595q0.578125 0 1.078125 0.234375q0.515625 0.21875 0.84375 0.64062595q0.34375 0.421875 0.53125 1.015625q0.1875 0.59375 0.1875 1.265625q0 1.59375 -0.796875 2.46875q-0.796875 0.875 -1.890625 0.875q-1.109375 0 -1.734375 -0.921875l0 0.78125zm-0.015625 -3.15625q0 1.109375 0.3125 1.609375q0.5 0.8125 1.34375 0.8125q0.6875 0 1.1875 -0.59375q0.515625 -0.59375 0.515625 -1.796875q0 -1.21875 -0.484375 -1.796875q-0.484375 -0.578125 -1.171875 -0.578125q-0.6875 0 -1.203125 0.609375q-0.5 0.59375 -0.5 1.734375zm5.330078 0.046875q0 -1.734375 0.953125 -2.5625q0.796875 -0.68750095 1.953125 -0.68750095q1.28125 0 2.09375 0.84375095q0.828125 0.828125 0.828125 2.3125q0 1.203125 -0.359375 1.890625q-0.359375 0.6875 -1.0625 1.078125q-0.6875 0.375 -1.5 0.375q-1.296875 0 -2.109375 -0.828125q-0.796875 -0.84375 -0.796875 -2.421875zm1.078125 0q0 1.1875 0.515625 1.78125q0.53125 0.59375 1.3125 0.59375q0.796875 0 1.3125 -0.59375q0.515625 -0.59375 0.515625 -1.8125q0 -1.15625 -0.53125 -1.75q-0.515625 -0.59375 -1.296875 -0.59375q-0.78125 0 -1.3125 0.59375q-0.515625 0.578125 -0.515625 1.78125zm10.064453 3.109375l0 -0.921875q-0.734375 1.0625 -1.984375 1.0625q-0.546875 0 -1.03125 -0.203125q-0.46875 -0.21875 -0.703125 -0.53125q-0.234375 -0.328125 -0.328125 -0.796875q-0.0625 -0.296875 -0.0625 -0.984375l0 -3.843751l1.0625 0l0 3.453126q0 0.8125 0.0625 1.109375q0.09375 0.40625 0.40625 0.65625q0.328125 0.234375 0.8125 0.234375q0.46875 0 0.875 -0.234375q0.421875 -0.25 0.59375 -0.671875q0.1875 -0.421875 0.1875 -1.21875l0 -3.328126l1.046875 0l0 6.218751l-0.9375 0zm4.892578 -0.9375l0.15625 0.921875q-0.453125 0.09375 -0.796875 0.09375q-0.578125 0 -0.890625 -0.171875q-0.3125 -0.1875 -0.453125 -0.484375q-0.125 -0.296875 -0.125 -1.25l0 -3.578125l-0.765625 0l0 -0.81250095l0.765625 0l0 -1.546875l1.046875 -0.625l0 2.171875l1.0625 0l0 0.81250095l-1.0625 0l0 3.640625q0 0.453125 0.046875 0.578125q0.0625 0.125 0.1875 0.203125q0.125 0.078125 0.359375 0.078125q0.1875 0 0.46875 -0.03125zm3.8085938 0.9375l0 -1.0625l4.40625 -5.500001q0.46875 -0.578125 0.890625 -1.015625l-4.796875 0l0 -1.015625l6.15625 0l0 1.015625l-4.828125 5.953126l-0.515625 0.609375l5.484375 0l0 1.015625l-6.796875 0zm8.455078 -2.140625l-0.328125 -4.546876l0 -1.90625l1.3125 0l0 1.90625l-0.3125 4.546876l-0.671875 0zm-0.28125 2.140625l0 -1.203125l1.21875 0l0 1.203125l-1.21875 0z" fill-rule="nonzero"></path><path fill="#000000" fill-opacity="0.0" d="m252.81102 167.7476l44.755905 5.13385" fill-rule="nonzero"></path><path stroke="#000000" stroke-width="1.0" stroke-linejoin="round" stroke-linecap="butt" d="m252.81102 167.7476l44.755905 5.13385" fill-rule="nonzero"></path><path fill="#000000" fill-opacity="0.0" d="m78.54438 55.8051l23.685036 0l0 23.937004l-23.685036 0z" fill-rule="nonzero"></path><path fill="#000000" d="m87.91938 82.7251l0 -1.671875l6.96875 -8.703125q0.75 -0.9375 1.421875 -1.625l-7.59375 0l0 -1.59375l9.734375 0l0 1.59375l-7.625 9.4375l-0.828125 0.953125l8.6875 0l0 1.609375l-10.765625 0z" fill-rule="nonzero"></path><path fill="#000000" fill-opacity="0.0" d="m141.97542 42.929214l0.15748596 33.669296" fill-rule="nonzero"></path><path stroke="#000000" stroke-width="1.0" stroke-linejoin="round" stroke-linecap="butt" d="m141.97542 42.929214l0.15748596 33.669296" fill-rule="nonzero"></path><path fill="#000000" fill-opacity="0.0" d="m39.632545 239.82939l23.244095 -18.803146" fill-rule="nonzero"></path><path stroke="#000000" stroke-width="1.0" stroke-linejoin="round" stroke-linecap="butt" d="m39.632545 239.82939l23.244095 -18.803146" fill-rule="nonzero"></path></g></svg>

