%FSAX25Y25*%
%MOIN*%
G70*
G01*
G75*
G04 Layer_Physical_Order=4*
G04 Layer_Color=16711680*
%ADD10R,0.01575X0.10236*%
%ADD11R,0.03150X0.02362*%
%ADD12R,0.03150X0.03150*%
%ADD13R,0.03937X0.03740*%
%ADD14R,0.01969X0.01181*%
%ADD15R,0.01181X0.01969*%
%ADD16R,0.02362X0.03150*%
%ADD17R,0.10236X0.01575*%
G04:AMPARAMS|DCode=18|XSize=23.62mil|YSize=39.37mil|CornerRadius=5.91mil|HoleSize=0mil|Usage=FLASHONLY|Rotation=0.000|XOffset=0mil|YOffset=0mil|HoleType=Round|Shape=RoundedRectangle|*
%AMROUNDEDRECTD18*
21,1,0.02362,0.02756,0,0,0.0*
21,1,0.01181,0.03937,0,0,0.0*
1,1,0.01181,0.00591,-0.01378*
1,1,0.01181,-0.00591,-0.01378*
1,1,0.01181,-0.00591,0.01378*
1,1,0.01181,0.00591,0.01378*
%
%ADD18ROUNDEDRECTD18*%
%ADD19R,0.05000X0.06300*%
%ADD20R,0.03740X0.03937*%
%ADD21R,0.04921X0.07087*%
%ADD22R,0.07087X0.04921*%
%ADD23C,0.03937*%
%ADD24O,0.00945X0.02362*%
%ADD25O,0.02362X0.00945*%
%ADD26R,0.16732X0.16732*%
%ADD27R,0.13583X0.13583*%
%ADD28R,0.06890X0.05906*%
%ADD29O,0.01181X0.02362*%
%ADD30R,0.01181X0.02362*%
%ADD31R,0.02165X0.00984*%
%ADD32R,0.02165X0.00787*%
%ADD33R,0.05512X0.03740*%
%ADD34R,0.08268X0.08268*%
%ADD35R,0.06299X0.07480*%
%ADD36R,0.04724X0.07480*%
%ADD37R,0.01575X0.05315*%
%ADD38O,0.02362X0.01181*%
%ADD39R,0.10630X0.10630*%
%ADD40C,0.00800*%
%ADD41C,0.00900*%
%ADD42C,0.01000*%
%ADD43C,0.02000*%
%ADD44C,0.01500*%
%ADD45C,0.01200*%
%ADD46R,0.17200X0.17200*%
%ADD47C,0.06000*%
%ADD48C,0.05906*%
%ADD49R,0.05906X0.05906*%
%ADD50R,0.03937X0.03937*%
%ADD51C,0.09843*%
%ADD52C,0.03000*%
%ADD53C,0.01969*%
%ADD54C,0.04000*%
%ADD55C,0.00100*%
%ADD56C,0.07543*%
%ADD57C,0.06756*%
%ADD58C,0.10693*%
%ADD59C,0.08000*%
%ADD60C,0.05600*%
%ADD61C,0.04787*%
G36*
X0527671Y0561871D02*
X0527671Y0345637D01*
X0526964Y0344929D01*
X0310729D01*
Y0561164D01*
X0311437Y0561871D01*
X0527671Y0561871D01*
D02*
G37*
%LPC*%
G36*
X0452700Y0454623D02*
X0451995Y0454530D01*
X0451338Y0454258D01*
X0450774Y0453826D01*
X0450342Y0453262D01*
X0450070Y0452605D01*
X0449977Y0451900D01*
X0450070Y0451195D01*
X0450342Y0450538D01*
X0450774Y0449974D01*
X0451338Y0449542D01*
X0451995Y0449269D01*
X0452627Y0449186D01*
X0452738Y0449140D01*
X0453480Y0448422D01*
X0453362Y0447782D01*
X0453338Y0447758D01*
Y0447758D01*
Y0447758D01*
X0452774Y0447326D01*
X0452608Y0447108D01*
X0452342Y0446762D01*
X0452070Y0446105D01*
X0451977Y0445400D01*
X0452070Y0444695D01*
X0452342Y0444038D01*
X0452774Y0443474D01*
X0453338Y0443042D01*
X0453995Y0442769D01*
X0454700Y0442677D01*
X0455405Y0442769D01*
X0456062Y0443042D01*
X0456626Y0443474D01*
X0457058Y0444038D01*
X0457331Y0444695D01*
X0457423Y0445400D01*
X0457367Y0445829D01*
X0458062Y0446542D01*
Y0446542D01*
Y0446542D01*
X0458626Y0446974D01*
X0458792Y0447192D01*
X0459058Y0447538D01*
X0459331Y0448195D01*
X0459423Y0448900D01*
X0459331Y0449605D01*
X0459058Y0450262D01*
X0458626Y0450826D01*
X0458062Y0451258D01*
X0457405Y0451531D01*
X0456700Y0451623D01*
X0456390Y0451582D01*
X0455808Y0451774D01*
X0455364Y0452351D01*
X0455331Y0452605D01*
X0455058Y0453262D01*
X0454626Y0453826D01*
X0454062Y0454258D01*
X0453405Y0454530D01*
X0452700Y0454623D01*
D02*
G37*
G36*
X0430668Y0462655D02*
X0429964Y0462562D01*
X0429307Y0462290D01*
X0428743Y0461857D01*
X0428310Y0461293D01*
X0428038Y0460636D01*
X0427949Y0459961D01*
X0418036Y0450048D01*
X0417605Y0449403D01*
X0417454Y0448642D01*
Y0414834D01*
X0416868Y0414456D01*
X0416454Y0414303D01*
X0415905Y0414531D01*
X0415200Y0414623D01*
X0414495Y0414531D01*
X0413838Y0414258D01*
X0413274Y0413826D01*
X0412842Y0413262D01*
X0412570Y0412605D01*
X0412477Y0411900D01*
X0412570Y0411195D01*
X0412842Y0410538D01*
X0413274Y0409974D01*
X0413569Y0409749D01*
Y0404076D01*
X0412068Y0402575D01*
X0411700Y0402623D01*
X0410995Y0402530D01*
X0410338Y0402258D01*
X0409774Y0401826D01*
X0409342Y0401262D01*
X0409069Y0400605D01*
X0408977Y0399900D01*
X0408985Y0399841D01*
X0408248Y0399031D01*
X0383852D01*
X0383626Y0399326D01*
X0383062Y0399758D01*
X0382405Y0400031D01*
X0381700Y0400123D01*
X0380995Y0400031D01*
X0380338Y0399758D01*
X0379774Y0399326D01*
X0379342Y0398762D01*
X0379069Y0398105D01*
X0378977Y0397400D01*
X0379069Y0396695D01*
X0379342Y0396038D01*
X0379774Y0395474D01*
X0380338Y0395042D01*
X0380995Y0394770D01*
X0381700Y0394677D01*
X0382405Y0394770D01*
X0383062Y0395042D01*
X0383626Y0395474D01*
X0383852Y0395769D01*
X0408097D01*
X0408977Y0394900D01*
X0409069Y0394195D01*
X0409342Y0393538D01*
X0409774Y0392974D01*
X0410338Y0392542D01*
X0410995Y0392269D01*
X0411700Y0392177D01*
X0412405Y0392269D01*
X0413062Y0392542D01*
X0413626Y0392974D01*
X0414058Y0393538D01*
X0414330Y0394195D01*
X0414410Y0394798D01*
X0420848Y0401236D01*
X0421279Y0401881D01*
X0421430Y0402642D01*
Y0412643D01*
X0422430Y0413296D01*
X0422495Y0413270D01*
X0423200Y0413177D01*
X0423905Y0413270D01*
X0424562Y0413542D01*
X0425126Y0413974D01*
X0425558Y0414538D01*
X0425831Y0415195D01*
X0425923Y0415900D01*
X0425831Y0416605D01*
X0425558Y0417262D01*
X0425126Y0417826D01*
X0424562Y0418258D01*
X0423905Y0418531D01*
X0423200Y0418623D01*
X0422495Y0418531D01*
X0422430Y0418504D01*
X0421430Y0419157D01*
Y0431931D01*
X0421846Y0432199D01*
X0422430Y0432355D01*
X0422838Y0432042D01*
X0423495Y0431770D01*
X0424200Y0431677D01*
X0424905Y0431770D01*
X0425562Y0432042D01*
X0426126Y0432474D01*
X0426558Y0433038D01*
X0426830Y0433695D01*
X0426923Y0434400D01*
X0426830Y0435105D01*
X0426558Y0435762D01*
X0426126Y0436326D01*
X0425562Y0436758D01*
X0424905Y0437031D01*
X0424200Y0437123D01*
X0423495Y0437031D01*
X0422838Y0436758D01*
X0422430Y0436445D01*
X0421846Y0436601D01*
X0421430Y0436868D01*
Y0440643D01*
X0422025Y0440901D01*
X0422430Y0440922D01*
X0422774Y0440474D01*
X0423338Y0440042D01*
X0423995Y0439770D01*
X0424700Y0439677D01*
X0425405Y0439770D01*
X0426062Y0440042D01*
X0426626Y0440474D01*
X0427058Y0441038D01*
X0427330Y0441695D01*
X0427333Y0441716D01*
X0427624Y0442477D01*
X0428384Y0442767D01*
X0428405Y0442769D01*
X0429062Y0443042D01*
X0429626Y0443474D01*
X0430058Y0444038D01*
X0430331Y0444695D01*
X0430423Y0445400D01*
X0430331Y0446105D01*
X0430058Y0446762D01*
X0429626Y0447326D01*
X0429062Y0447758D01*
X0428405Y0448031D01*
X0427700Y0448123D01*
X0426995Y0448031D01*
X0426338Y0447758D01*
X0425774Y0447326D01*
X0425342Y0446762D01*
X0425070Y0446105D01*
X0425067Y0446084D01*
X0424777Y0445324D01*
X0424016Y0445033D01*
X0423995Y0445030D01*
X0423338Y0444758D01*
X0422774Y0444326D01*
X0422430Y0443878D01*
X0422025Y0443899D01*
X0421430Y0444157D01*
Y0447819D01*
X0430843Y0457231D01*
X0431373Y0457301D01*
X0432030Y0457573D01*
X0432594Y0458006D01*
X0433027Y0458570D01*
X0433299Y0459227D01*
X0433392Y0459932D01*
X0433299Y0460636D01*
X0433027Y0461293D01*
X0432594Y0461857D01*
X0432030Y0462290D01*
X0431373Y0462562D01*
X0430668Y0462655D01*
D02*
G37*
G36*
X0489200Y0452589D02*
X0488116Y0452446D01*
X0487106Y0452027D01*
X0486238Y0451362D01*
X0485573Y0450494D01*
X0485154Y0449484D01*
X0485011Y0448400D01*
X0485154Y0447316D01*
X0485573Y0446306D01*
X0486238Y0445438D01*
X0487106Y0444773D01*
X0488116Y0444354D01*
X0489200Y0444211D01*
X0490284Y0444354D01*
X0491294Y0444773D01*
X0492162Y0445438D01*
X0492827Y0446306D01*
X0493246Y0447316D01*
X0493389Y0448400D01*
X0493246Y0449484D01*
X0492827Y0450494D01*
X0492162Y0451362D01*
X0491294Y0452027D01*
X0490284Y0452446D01*
X0489200Y0452589D01*
D02*
G37*
G36*
X0466200Y0456623D02*
X0465495Y0456531D01*
X0464838Y0456258D01*
X0464274Y0455826D01*
X0463842Y0455262D01*
X0463569Y0454605D01*
X0463477Y0453900D01*
X0463569Y0453195D01*
X0463842Y0452538D01*
X0464274Y0451974D01*
X0464838Y0451542D01*
X0465495Y0451269D01*
X0466200Y0451177D01*
X0466905Y0451269D01*
X0467562Y0451542D01*
X0468126Y0451974D01*
X0468558Y0452538D01*
X0468830Y0453195D01*
X0468923Y0453900D01*
X0468830Y0454605D01*
X0468558Y0455262D01*
X0468126Y0455826D01*
X0467562Y0456258D01*
X0466905Y0456531D01*
X0466200Y0456623D01*
D02*
G37*
G36*
X0499200Y0452589D02*
X0498116Y0452446D01*
X0497106Y0452027D01*
X0496238Y0451362D01*
X0495573Y0450494D01*
X0495154Y0449484D01*
X0495011Y0448400D01*
X0495154Y0447316D01*
X0495573Y0446306D01*
X0496238Y0445438D01*
X0497106Y0444773D01*
X0498116Y0444354D01*
X0499200Y0444211D01*
X0500284Y0444354D01*
X0501294Y0444773D01*
X0502162Y0445438D01*
X0502827Y0446306D01*
X0503246Y0447316D01*
X0503389Y0448400D01*
X0503246Y0449484D01*
X0502827Y0450494D01*
X0502162Y0451362D01*
X0501294Y0452027D01*
X0500284Y0452446D01*
X0499200Y0452589D01*
D02*
G37*
G36*
Y0432589D02*
X0498116Y0432446D01*
X0497106Y0432027D01*
X0496238Y0431362D01*
X0495573Y0430494D01*
X0495154Y0429484D01*
X0495011Y0428400D01*
X0495154Y0427316D01*
X0495573Y0426306D01*
X0496238Y0425438D01*
X0497106Y0424773D01*
X0498116Y0424354D01*
X0499200Y0424211D01*
X0500284Y0424354D01*
X0501294Y0424773D01*
X0502162Y0425438D01*
X0502827Y0426306D01*
X0503246Y0427316D01*
X0503389Y0428400D01*
X0503246Y0429484D01*
X0502827Y0430494D01*
X0502162Y0431362D01*
X0501294Y0432027D01*
X0500284Y0432446D01*
X0499200Y0432589D01*
D02*
G37*
G36*
X0489200D02*
X0488116Y0432446D01*
X0487106Y0432027D01*
X0486238Y0431362D01*
X0485573Y0430494D01*
X0485154Y0429484D01*
X0485011Y0428400D01*
X0485154Y0427316D01*
X0485573Y0426306D01*
X0486238Y0425438D01*
X0487106Y0424773D01*
X0488116Y0424354D01*
X0489200Y0424211D01*
X0490284Y0424354D01*
X0491294Y0424773D01*
X0492162Y0425438D01*
X0492827Y0426306D01*
X0493246Y0427316D01*
X0493389Y0428400D01*
X0493246Y0429484D01*
X0492827Y0430494D01*
X0492162Y0431362D01*
X0491294Y0432027D01*
X0490284Y0432446D01*
X0489200Y0432589D01*
D02*
G37*
G36*
X0443700Y0454623D02*
X0442995Y0454530D01*
X0442338Y0454258D01*
X0441774Y0453826D01*
X0441342Y0453262D01*
X0441070Y0452605D01*
X0440977Y0451900D01*
X0441070Y0451195D01*
X0441342Y0450538D01*
X0441774Y0449974D01*
X0441792Y0449961D01*
X0441845Y0448852D01*
X0437046Y0444054D01*
X0436693Y0443524D01*
X0436569Y0442900D01*
Y0439576D01*
X0430068Y0433075D01*
X0429700Y0433123D01*
X0428995Y0433031D01*
X0428338Y0432758D01*
X0427774Y0432326D01*
X0427342Y0431762D01*
X0427070Y0431105D01*
X0426977Y0430400D01*
X0427070Y0429695D01*
X0427342Y0429038D01*
X0427774Y0428474D01*
X0428338Y0428042D01*
X0428995Y0427770D01*
X0429700Y0427677D01*
X0430405Y0427770D01*
X0431062Y0428042D01*
X0431626Y0428474D01*
X0432058Y0429038D01*
X0432331Y0429695D01*
X0432423Y0430400D01*
X0432375Y0430768D01*
X0439354Y0437746D01*
X0439707Y0438276D01*
X0439831Y0438900D01*
X0439831Y0438900D01*
Y0442224D01*
X0444853Y0447247D01*
X0445207Y0447776D01*
X0445331Y0448400D01*
Y0449749D01*
X0445626Y0449974D01*
X0446058Y0450538D01*
X0446330Y0451195D01*
X0446423Y0451900D01*
X0446330Y0452605D01*
X0446058Y0453262D01*
X0445626Y0453826D01*
X0445062Y0454258D01*
X0444405Y0454530D01*
X0443700Y0454623D01*
D02*
G37*
G36*
X0499200Y0442589D02*
X0498116Y0442446D01*
X0497106Y0442027D01*
X0496238Y0441362D01*
X0495573Y0440494D01*
X0495154Y0439484D01*
X0495011Y0438400D01*
X0495154Y0437316D01*
X0495573Y0436306D01*
X0496238Y0435438D01*
X0497106Y0434773D01*
X0498116Y0434354D01*
X0499200Y0434211D01*
X0500284Y0434354D01*
X0501294Y0434773D01*
X0502162Y0435438D01*
X0502827Y0436306D01*
X0503246Y0437316D01*
X0503389Y0438400D01*
X0503246Y0439484D01*
X0502827Y0440494D01*
X0502162Y0441362D01*
X0501294Y0442027D01*
X0500284Y0442446D01*
X0499200Y0442589D01*
D02*
G37*
G36*
X0489200D02*
X0488116Y0442446D01*
X0487106Y0442027D01*
X0486238Y0441362D01*
X0485573Y0440494D01*
X0485154Y0439484D01*
X0485011Y0438400D01*
X0485154Y0437316D01*
X0485573Y0436306D01*
X0486238Y0435438D01*
X0487106Y0434773D01*
X0488116Y0434354D01*
X0489200Y0434211D01*
X0490284Y0434354D01*
X0491294Y0434773D01*
X0492162Y0435438D01*
X0492827Y0436306D01*
X0493246Y0437316D01*
X0493389Y0438400D01*
X0493246Y0439484D01*
X0492827Y0440494D01*
X0492162Y0441362D01*
X0491294Y0442027D01*
X0490284Y0442446D01*
X0489200Y0442589D01*
D02*
G37*
G36*
X0493121Y0467900D02*
X0489700D01*
Y0464479D01*
X0490232Y0464549D01*
X0491193Y0464947D01*
X0492019Y0465581D01*
X0492653Y0466407D01*
X0493051Y0467368D01*
X0493121Y0467900D01*
D02*
G37*
G36*
X0488700D02*
X0485279D01*
X0485349Y0467368D01*
X0485747Y0466407D01*
X0486381Y0465581D01*
X0487207Y0464947D01*
X0488168Y0464549D01*
X0488700Y0464479D01*
Y0467900D01*
D02*
G37*
G36*
X0498700D02*
X0495279D01*
X0495349Y0467368D01*
X0495747Y0466407D01*
X0496381Y0465581D01*
X0497207Y0464947D01*
X0498168Y0464549D01*
X0498700Y0464479D01*
Y0467900D01*
D02*
G37*
G36*
X0478700Y0472369D02*
X0478156Y0472297D01*
X0477183Y0471894D01*
X0476347Y0471253D01*
X0475706Y0470417D01*
X0475303Y0469444D01*
X0475231Y0468900D01*
X0478700D01*
Y0472369D01*
D02*
G37*
G36*
X0503121Y0467900D02*
X0499700D01*
Y0464479D01*
X0500232Y0464549D01*
X0501193Y0464947D01*
X0502019Y0465581D01*
X0502653Y0466407D01*
X0503051Y0467368D01*
X0503121Y0467900D01*
D02*
G37*
G36*
X0499200Y0462589D02*
X0498116Y0462446D01*
X0497106Y0462027D01*
X0496238Y0461362D01*
X0495573Y0460494D01*
X0495154Y0459484D01*
X0495011Y0458400D01*
X0495154Y0457316D01*
X0495573Y0456306D01*
X0496238Y0455438D01*
X0497106Y0454773D01*
X0498116Y0454354D01*
X0499200Y0454211D01*
X0500284Y0454354D01*
X0501294Y0454773D01*
X0502162Y0455438D01*
X0502827Y0456306D01*
X0503246Y0457316D01*
X0503389Y0458400D01*
X0503246Y0459484D01*
X0502827Y0460494D01*
X0502162Y0461362D01*
X0501294Y0462027D01*
X0500284Y0462446D01*
X0499200Y0462589D01*
D02*
G37*
G36*
X0489200D02*
X0488116Y0462446D01*
X0487106Y0462027D01*
X0486238Y0461362D01*
X0485573Y0460494D01*
X0485154Y0459484D01*
X0485011Y0458400D01*
X0485154Y0457316D01*
X0485573Y0456306D01*
X0486238Y0455438D01*
X0487106Y0454773D01*
X0488116Y0454354D01*
X0489200Y0454211D01*
X0490284Y0454354D01*
X0491294Y0454773D01*
X0492162Y0455438D01*
X0492827Y0456306D01*
X0493246Y0457316D01*
X0493389Y0458400D01*
X0493246Y0459484D01*
X0492827Y0460494D01*
X0492162Y0461362D01*
X0491294Y0462027D01*
X0490284Y0462446D01*
X0489200Y0462589D01*
D02*
G37*
G36*
X0416200Y0458123D02*
X0415495Y0458031D01*
X0414838Y0457758D01*
X0414274Y0457326D01*
X0413947Y0456898D01*
X0413734Y0456750D01*
X0412711Y0456644D01*
X0412562Y0456758D01*
X0411905Y0457030D01*
X0411200Y0457123D01*
X0410495Y0457030D01*
X0409838Y0456758D01*
X0409274Y0456326D01*
X0408842Y0455762D01*
X0408569Y0455105D01*
X0408477Y0454400D01*
X0408569Y0453695D01*
X0408842Y0453038D01*
X0409274Y0452474D01*
X0409838Y0452042D01*
X0410495Y0451769D01*
X0411200Y0451677D01*
X0411905Y0451769D01*
X0412562Y0452042D01*
X0413126Y0452474D01*
X0413453Y0452902D01*
X0413665Y0453050D01*
X0414689Y0453156D01*
X0414838Y0453042D01*
X0415495Y0452770D01*
X0416200Y0452677D01*
X0416905Y0452770D01*
X0417562Y0453042D01*
X0418126Y0453474D01*
X0418558Y0454038D01*
X0418830Y0454695D01*
X0418923Y0455400D01*
X0418830Y0456105D01*
X0418558Y0456762D01*
X0418126Y0457326D01*
X0417562Y0457758D01*
X0416905Y0458031D01*
X0416200Y0458123D01*
D02*
G37*
G36*
X0483169Y0467900D02*
X0479700D01*
Y0464431D01*
X0480244Y0464503D01*
X0481217Y0464906D01*
X0482053Y0465547D01*
X0482694Y0466383D01*
X0483097Y0467356D01*
X0483169Y0467900D01*
D02*
G37*
G36*
X0478700D02*
X0475231D01*
X0475303Y0467356D01*
X0475706Y0466383D01*
X0476347Y0465547D01*
X0477183Y0464906D01*
X0478156Y0464503D01*
X0478700Y0464431D01*
Y0467900D01*
D02*
G37*
G36*
X0514200Y0392051D02*
X0513000Y0391933D01*
X0511846Y0391583D01*
X0510783Y0391014D01*
X0509851Y0390249D01*
X0509086Y0389317D01*
X0508517Y0388254D01*
X0508167Y0387100D01*
X0508049Y0385900D01*
X0508167Y0384700D01*
X0508517Y0383546D01*
X0509086Y0382483D01*
X0509851Y0381551D01*
X0510783Y0380786D01*
X0511846Y0380217D01*
X0513000Y0379867D01*
X0514200Y0379749D01*
X0515400Y0379867D01*
X0516554Y0380217D01*
X0517617Y0380786D01*
X0518549Y0381551D01*
X0519314Y0382483D01*
X0519883Y0383546D01*
X0520233Y0384700D01*
X0520351Y0385900D01*
X0520233Y0387100D01*
X0519883Y0388254D01*
X0519314Y0389317D01*
X0518549Y0390249D01*
X0517617Y0391014D01*
X0516554Y0391583D01*
X0515400Y0391933D01*
X0514200Y0392051D01*
D02*
G37*
G36*
X0386200Y0365623D02*
X0385495Y0365530D01*
X0384838Y0365258D01*
X0384274Y0364826D01*
X0383842Y0364262D01*
X0383570Y0363605D01*
X0383477Y0362900D01*
X0383570Y0362195D01*
X0383842Y0361538D01*
X0384274Y0360974D01*
X0384838Y0360542D01*
X0385495Y0360269D01*
X0386200Y0360177D01*
X0386905Y0360269D01*
X0387562Y0360542D01*
X0388126Y0360974D01*
X0388558Y0361538D01*
X0388830Y0362195D01*
X0388923Y0362900D01*
X0388830Y0363605D01*
X0388558Y0364262D01*
X0388126Y0364826D01*
X0387562Y0365258D01*
X0386905Y0365530D01*
X0386200Y0365623D01*
D02*
G37*
G36*
X0349200Y0393623D02*
X0348495Y0393531D01*
X0347838Y0393258D01*
X0347274Y0392826D01*
X0346842Y0392262D01*
X0346569Y0391605D01*
X0346477Y0390900D01*
X0346569Y0390195D01*
X0346842Y0389538D01*
X0347274Y0388974D01*
X0347838Y0388542D01*
X0348495Y0388269D01*
X0349200Y0388177D01*
X0349905Y0388269D01*
X0350562Y0388542D01*
X0351126Y0388974D01*
X0351558Y0389538D01*
X0351831Y0390195D01*
X0351923Y0390900D01*
X0351831Y0391605D01*
X0351558Y0392262D01*
X0351126Y0392826D01*
X0350562Y0393258D01*
X0349905Y0393531D01*
X0349200Y0393623D01*
D02*
G37*
G36*
X0498700Y0407900D02*
X0495247D01*
Y0404447D01*
X0498700D01*
Y0407900D01*
D02*
G37*
G36*
X0461700Y0403623D02*
X0460995Y0403531D01*
X0460338Y0403258D01*
X0459774Y0402826D01*
X0459342Y0402262D01*
X0459069Y0401605D01*
X0458977Y0400900D01*
X0459069Y0400195D01*
X0459342Y0399538D01*
X0459774Y0398974D01*
X0460338Y0398542D01*
X0460995Y0398270D01*
X0461700Y0398177D01*
X0462405Y0398270D01*
X0463062Y0398542D01*
X0463626Y0398974D01*
X0464058Y0399538D01*
X0464330Y0400195D01*
X0464423Y0400900D01*
X0464330Y0401605D01*
X0464058Y0402262D01*
X0463626Y0402826D01*
X0463062Y0403258D01*
X0462405Y0403531D01*
X0461700Y0403623D01*
D02*
G37*
G36*
X0421700Y0357623D02*
X0420995Y0357530D01*
X0420338Y0357258D01*
X0419774Y0356826D01*
X0419342Y0356262D01*
X0419069Y0355605D01*
X0418977Y0354900D01*
X0419069Y0354195D01*
X0419342Y0353538D01*
X0419774Y0352974D01*
X0420338Y0352541D01*
X0420995Y0352270D01*
X0421700Y0352177D01*
X0422405Y0352270D01*
X0423062Y0352541D01*
X0423626Y0352974D01*
X0424058Y0353538D01*
X0424331Y0354195D01*
X0424423Y0354900D01*
X0424331Y0355605D01*
X0424058Y0356262D01*
X0423626Y0356826D01*
X0423062Y0357258D01*
X0422405Y0357530D01*
X0421700Y0357623D01*
D02*
G37*
G36*
X0319200Y0359931D02*
X0317926Y0359806D01*
X0316701Y0359434D01*
X0315571Y0358831D01*
X0314582Y0358018D01*
X0313769Y0357029D01*
X0313166Y0355900D01*
X0312794Y0354674D01*
X0312669Y0353400D01*
X0312794Y0352126D01*
X0313166Y0350901D01*
X0313769Y0349771D01*
X0314582Y0348782D01*
X0315571Y0347969D01*
X0316701Y0347366D01*
X0317926Y0346994D01*
X0319200Y0346869D01*
X0320474Y0346994D01*
X0321700Y0347366D01*
X0322829Y0347969D01*
X0323818Y0348782D01*
X0324631Y0349771D01*
X0325234Y0350901D01*
X0325606Y0352126D01*
X0325731Y0353400D01*
X0325606Y0354674D01*
X0325234Y0355900D01*
X0324631Y0357029D01*
X0323818Y0358018D01*
X0322829Y0358831D01*
X0321700Y0359434D01*
X0320474Y0359806D01*
X0319200Y0359931D01*
D02*
G37*
G36*
X0381200Y0355400D02*
X0378772D01*
X0378808Y0355125D01*
X0379107Y0354403D01*
X0379583Y0353783D01*
X0380203Y0353307D01*
X0380925Y0353008D01*
X0381200Y0352972D01*
Y0355400D01*
D02*
G37*
G36*
X0411200Y0378623D02*
X0410495Y0378531D01*
X0409838Y0378258D01*
X0409274Y0377826D01*
X0408842Y0377262D01*
X0408569Y0376605D01*
X0408477Y0375900D01*
X0408569Y0375195D01*
X0408842Y0374538D01*
X0409274Y0373974D01*
X0409569Y0373748D01*
Y0365576D01*
X0405547Y0361554D01*
X0405193Y0361024D01*
X0405069Y0360400D01*
Y0358642D01*
X0404931Y0358537D01*
X0403960Y0358160D01*
X0403298Y0358668D01*
X0402527Y0358987D01*
X0401700Y0359096D01*
X0400873Y0358987D01*
X0400102Y0358668D01*
X0399440Y0358160D01*
X0398960D01*
X0398298Y0358668D01*
X0397527Y0358987D01*
X0396700Y0359096D01*
X0395873Y0358987D01*
X0395102Y0358668D01*
X0394440Y0358160D01*
X0393960D01*
X0393298Y0358668D01*
X0392527Y0358987D01*
X0391700Y0359096D01*
X0390873Y0358987D01*
X0390102Y0358668D01*
X0389440Y0358160D01*
X0388960D01*
X0388298Y0358668D01*
X0387527Y0358987D01*
X0386700Y0359096D01*
X0385873Y0358987D01*
X0385102Y0358668D01*
X0384772Y0358415D01*
X0383817Y0358017D01*
X0383197Y0358493D01*
X0382475Y0358792D01*
X0382200Y0358828D01*
Y0355900D01*
Y0352972D01*
X0382475Y0353008D01*
X0383197Y0353307D01*
X0383817Y0353783D01*
X0384772Y0353385D01*
X0385102Y0353132D01*
X0385873Y0352813D01*
X0386700Y0352704D01*
X0387527Y0352813D01*
X0388298Y0353132D01*
X0388960Y0353640D01*
X0389440D01*
X0390102Y0353132D01*
X0390873Y0352813D01*
X0391700Y0352704D01*
X0392527Y0352813D01*
X0393298Y0353132D01*
X0393960Y0353640D01*
X0394440D01*
X0395102Y0353132D01*
X0395873Y0352813D01*
X0396700Y0352704D01*
X0397527Y0352813D01*
X0398298Y0353132D01*
X0398960Y0353640D01*
X0399440D01*
X0400102Y0353132D01*
X0400873Y0352813D01*
X0401700Y0352704D01*
X0402527Y0352813D01*
X0403298Y0353132D01*
X0403960Y0353640D01*
X0404440D01*
X0405102Y0353132D01*
X0405873Y0352813D01*
X0406700Y0352704D01*
X0407527Y0352813D01*
X0407531Y0352815D01*
X0408532Y0352731D01*
X0408532Y0352731D01*
X0408532Y0352731D01*
X0414868D01*
Y0359068D01*
X0413331D01*
Y0360724D01*
X0415854Y0363246D01*
X0416207Y0363776D01*
X0416331Y0364400D01*
Y0371249D01*
X0416626Y0371474D01*
X0417058Y0372038D01*
X0417331Y0372695D01*
X0417423Y0373400D01*
X0417331Y0374105D01*
X0417058Y0374762D01*
X0416626Y0375326D01*
X0416062Y0375758D01*
X0415405Y0376030D01*
X0414700Y0376123D01*
X0413831Y0376605D01*
X0413558Y0377262D01*
X0413126Y0377826D01*
X0412562Y0378258D01*
X0411905Y0378531D01*
X0411200Y0378623D01*
D02*
G37*
G36*
X0381200Y0358828D02*
X0380925Y0358792D01*
X0380203Y0358493D01*
X0379583Y0358017D01*
X0379107Y0357397D01*
X0378808Y0356675D01*
X0378772Y0356400D01*
X0381200D01*
Y0358828D01*
D02*
G37*
G36*
X0503153Y0412353D02*
X0499700D01*
Y0408900D01*
X0503153D01*
Y0412353D01*
D02*
G37*
G36*
X0498700D02*
X0495247D01*
Y0408900D01*
X0498700D01*
Y0412353D01*
D02*
G37*
G36*
X0456700Y0419623D02*
X0455995Y0419530D01*
X0455338Y0419258D01*
X0454774Y0418826D01*
X0454342Y0418262D01*
X0454070Y0417605D01*
X0453977Y0416900D01*
X0454025Y0416532D01*
X0451068Y0413575D01*
X0450700Y0413623D01*
X0449995Y0413530D01*
X0449338Y0413258D01*
X0448774Y0412826D01*
X0448342Y0412262D01*
X0448069Y0411605D01*
X0447977Y0410900D01*
X0448069Y0410195D01*
X0448342Y0409538D01*
X0448774Y0408974D01*
X0449338Y0408542D01*
X0449995Y0408270D01*
X0450700Y0408177D01*
X0451405Y0408270D01*
X0452062Y0408542D01*
X0452626Y0408974D01*
X0453058Y0409538D01*
X0453331Y0410195D01*
X0453423Y0410900D01*
X0453375Y0411268D01*
X0456332Y0414225D01*
X0456700Y0414177D01*
X0457405Y0414269D01*
X0458062Y0414542D01*
X0458626Y0414974D01*
X0459058Y0415538D01*
X0459331Y0416195D01*
X0459423Y0416900D01*
X0459331Y0417605D01*
X0459058Y0418262D01*
X0458626Y0418826D01*
X0458062Y0419258D01*
X0457405Y0419530D01*
X0456700Y0419623D01*
D02*
G37*
G36*
X0499200Y0422589D02*
X0498116Y0422446D01*
X0497106Y0422027D01*
X0496238Y0421362D01*
X0495573Y0420494D01*
X0495154Y0419484D01*
X0495011Y0418400D01*
X0495154Y0417316D01*
X0495573Y0416306D01*
X0496238Y0415438D01*
X0497106Y0414773D01*
X0498116Y0414354D01*
X0499200Y0414211D01*
X0500284Y0414354D01*
X0501294Y0414773D01*
X0502162Y0415438D01*
X0502827Y0416306D01*
X0503246Y0417316D01*
X0503389Y0418400D01*
X0503246Y0419484D01*
X0502827Y0420494D01*
X0502162Y0421362D01*
X0501294Y0422027D01*
X0500284Y0422446D01*
X0499200Y0422589D01*
D02*
G37*
G36*
X0489200D02*
X0488116Y0422446D01*
X0487106Y0422027D01*
X0486238Y0421362D01*
X0485573Y0420494D01*
X0485154Y0419484D01*
X0485011Y0418400D01*
X0485154Y0417316D01*
X0485573Y0416306D01*
X0486238Y0415438D01*
X0487106Y0414773D01*
X0488116Y0414354D01*
X0489200Y0414211D01*
X0490284Y0414354D01*
X0491294Y0414773D01*
X0492162Y0415438D01*
X0492827Y0416306D01*
X0493246Y0417316D01*
X0493389Y0418400D01*
X0493246Y0419484D01*
X0492827Y0420494D01*
X0492162Y0421362D01*
X0491294Y0422027D01*
X0490284Y0422446D01*
X0489200Y0422589D01*
D02*
G37*
G36*
X0488700Y0407900D02*
X0485279D01*
X0485349Y0407368D01*
X0485747Y0406407D01*
X0486381Y0405581D01*
X0487207Y0404947D01*
X0488168Y0404549D01*
X0488700Y0404479D01*
Y0407900D01*
D02*
G37*
G36*
X0503153D02*
X0499700D01*
Y0404447D01*
X0503153D01*
Y0407900D01*
D02*
G37*
G36*
X0493121D02*
X0489700D01*
Y0404479D01*
X0490232Y0404549D01*
X0491193Y0404947D01*
X0492019Y0405581D01*
X0492653Y0406407D01*
X0493051Y0407368D01*
X0493121Y0407900D01*
D02*
G37*
G36*
X0489700Y0412321D02*
Y0408900D01*
X0493121D01*
X0493051Y0409432D01*
X0492653Y0410393D01*
X0492019Y0411219D01*
X0491193Y0411853D01*
X0490232Y0412251D01*
X0489700Y0412321D01*
D02*
G37*
G36*
X0488700D02*
X0488168Y0412251D01*
X0487207Y0411853D01*
X0486381Y0411219D01*
X0485747Y0410393D01*
X0485349Y0409432D01*
X0485279Y0408900D01*
X0488700D01*
Y0412321D01*
D02*
G37*
G36*
X0514200Y0527051D02*
X0513000Y0526933D01*
X0511846Y0526583D01*
X0510783Y0526014D01*
X0509851Y0525249D01*
X0509086Y0524317D01*
X0508517Y0523254D01*
X0508167Y0522100D01*
X0508049Y0520900D01*
X0508167Y0519700D01*
X0508517Y0518546D01*
X0509086Y0517483D01*
X0509851Y0516551D01*
X0510783Y0515786D01*
X0511846Y0515217D01*
X0513000Y0514867D01*
X0514200Y0514749D01*
X0515400Y0514867D01*
X0516554Y0515217D01*
X0517617Y0515786D01*
X0518549Y0516551D01*
X0519314Y0517483D01*
X0519883Y0518546D01*
X0520233Y0519700D01*
X0520351Y0520900D01*
X0520233Y0522100D01*
X0519883Y0523254D01*
X0519314Y0524317D01*
X0518549Y0525249D01*
X0517617Y0526014D01*
X0516554Y0526583D01*
X0515400Y0526933D01*
X0514200Y0527051D01*
D02*
G37*
G36*
X0494700Y0516869D02*
Y0513400D01*
X0498169D01*
X0498097Y0513944D01*
X0497694Y0514917D01*
X0497053Y0515753D01*
X0496217Y0516394D01*
X0495244Y0516797D01*
X0494700Y0516869D01*
D02*
G37*
G36*
X0384200Y0522123D02*
X0383495Y0522030D01*
X0382838Y0521758D01*
X0382274Y0521326D01*
X0381842Y0520762D01*
X0381570Y0520105D01*
X0381477Y0519400D01*
X0381570Y0518695D01*
X0381842Y0518038D01*
X0382274Y0517474D01*
X0382838Y0517042D01*
X0383495Y0516770D01*
X0384200Y0516677D01*
X0384905Y0516770D01*
X0385562Y0517042D01*
X0386126Y0517474D01*
X0386558Y0518038D01*
X0386830Y0518695D01*
X0386923Y0519400D01*
X0386830Y0520105D01*
X0386558Y0520762D01*
X0386126Y0521326D01*
X0385562Y0521758D01*
X0384905Y0522030D01*
X0384200Y0522123D01*
D02*
G37*
G36*
X0515200Y0535123D02*
X0514495Y0535031D01*
X0513838Y0534758D01*
X0513274Y0534326D01*
X0512842Y0533762D01*
X0512570Y0533105D01*
X0512477Y0532400D01*
X0512570Y0531695D01*
X0512842Y0531038D01*
X0513274Y0530474D01*
X0513838Y0530042D01*
X0514495Y0529770D01*
X0515200Y0529677D01*
X0515905Y0529770D01*
X0516562Y0530042D01*
X0517126Y0530474D01*
X0517558Y0531038D01*
X0517831Y0531695D01*
X0517923Y0532400D01*
X0517831Y0533105D01*
X0517558Y0533762D01*
X0517126Y0534326D01*
X0516562Y0534758D01*
X0515905Y0535031D01*
X0515200Y0535123D01*
D02*
G37*
G36*
X0449200Y0532123D02*
X0448495Y0532030D01*
X0447838Y0531758D01*
X0447274Y0531326D01*
X0446842Y0530762D01*
X0446569Y0530105D01*
X0446477Y0529400D01*
X0446569Y0528695D01*
X0446842Y0528038D01*
X0447274Y0527474D01*
X0447838Y0527042D01*
X0448495Y0526769D01*
X0449200Y0526677D01*
X0449905Y0526769D01*
X0450562Y0527042D01*
X0451126Y0527474D01*
X0451558Y0528038D01*
X0451830Y0528695D01*
X0451923Y0529400D01*
X0451830Y0530105D01*
X0451558Y0530762D01*
X0451126Y0531326D01*
X0450562Y0531758D01*
X0449905Y0532030D01*
X0449200Y0532123D01*
D02*
G37*
G36*
X0371200Y0511123D02*
X0370495Y0511030D01*
X0369838Y0510758D01*
X0369274Y0510326D01*
X0368842Y0509762D01*
X0368569Y0509105D01*
X0368477Y0508400D01*
X0368569Y0507695D01*
X0368842Y0507038D01*
X0369274Y0506474D01*
X0369838Y0506042D01*
X0370495Y0505769D01*
X0371200Y0505677D01*
X0371905Y0505769D01*
X0372562Y0506042D01*
X0373126Y0506474D01*
X0373558Y0507038D01*
X0373831Y0507695D01*
X0373923Y0508400D01*
X0373831Y0509105D01*
X0373558Y0509762D01*
X0373126Y0510326D01*
X0372562Y0510758D01*
X0371905Y0511030D01*
X0371200Y0511123D01*
D02*
G37*
G36*
X0328700Y0508123D02*
X0327995Y0508031D01*
X0327339Y0507758D01*
X0326774Y0507326D01*
X0326342Y0506762D01*
X0326070Y0506105D01*
X0325977Y0505400D01*
X0326070Y0504695D01*
X0326342Y0504038D01*
X0326774Y0503474D01*
X0327339Y0503042D01*
X0327995Y0502770D01*
X0328700Y0502677D01*
X0329405Y0502770D01*
X0330062Y0503042D01*
X0330626Y0503474D01*
X0331059Y0504038D01*
X0331331Y0504695D01*
X0331423Y0505400D01*
X0331331Y0506105D01*
X0331059Y0506762D01*
X0330626Y0507326D01*
X0330062Y0507758D01*
X0329405Y0508031D01*
X0328700Y0508123D01*
D02*
G37*
G36*
X0493700Y0512400D02*
X0490231D01*
X0490303Y0511856D01*
X0490706Y0510883D01*
X0491347Y0510047D01*
X0492183Y0509406D01*
X0493156Y0509003D01*
X0493700Y0508931D01*
Y0512400D01*
D02*
G37*
G36*
Y0516869D02*
X0493156Y0516797D01*
X0492183Y0516394D01*
X0491347Y0515753D01*
X0490706Y0514917D01*
X0490303Y0513944D01*
X0490231Y0513400D01*
X0493700D01*
Y0516869D01*
D02*
G37*
G36*
X0498169Y0512400D02*
X0494700D01*
Y0508931D01*
X0495244Y0509003D01*
X0496217Y0509406D01*
X0497053Y0510047D01*
X0497694Y0510883D01*
X0498097Y0511856D01*
X0498169Y0512400D01*
D02*
G37*
G36*
X0329507Y0560655D02*
X0328802Y0560562D01*
X0328145Y0560290D01*
X0327581Y0559857D01*
X0327149Y0559293D01*
X0326877Y0558636D01*
X0326784Y0557932D01*
X0326877Y0557227D01*
X0327149Y0556570D01*
X0327581Y0556006D01*
X0328145Y0555573D01*
X0328802Y0555301D01*
X0329507Y0555208D01*
X0330212Y0555301D01*
X0330869Y0555573D01*
X0331433Y0556006D01*
X0331866Y0556570D01*
X0332138Y0557227D01*
X0332230Y0557932D01*
X0332138Y0558636D01*
X0331866Y0559293D01*
X0331433Y0559857D01*
X0330869Y0560290D01*
X0330212Y0560562D01*
X0329507Y0560655D01*
D02*
G37*
G36*
X0384200Y0554623D02*
X0383495Y0554530D01*
X0382838Y0554258D01*
X0382274Y0553826D01*
X0381842Y0553262D01*
X0381570Y0552605D01*
X0381477Y0551900D01*
X0381570Y0551195D01*
X0381842Y0550538D01*
X0382274Y0549974D01*
X0382838Y0549542D01*
X0383495Y0549269D01*
X0384200Y0549177D01*
X0384905Y0549269D01*
X0385562Y0549542D01*
X0386126Y0549974D01*
X0386558Y0550538D01*
X0386830Y0551195D01*
X0386923Y0551900D01*
X0386830Y0552605D01*
X0386558Y0553262D01*
X0386126Y0553826D01*
X0385562Y0554258D01*
X0384905Y0554530D01*
X0384200Y0554623D01*
D02*
G37*
G36*
X0341810Y0560655D02*
X0341105Y0560562D01*
X0340449Y0560290D01*
X0339885Y0559857D01*
X0339452Y0559293D01*
X0339180Y0558636D01*
X0339087Y0557932D01*
X0339180Y0557227D01*
X0339452Y0556570D01*
X0339885Y0556006D01*
X0340449Y0555573D01*
X0341105Y0555301D01*
X0341810Y0555208D01*
X0342515Y0555301D01*
X0343172Y0555573D01*
X0343736Y0556006D01*
X0344169Y0556570D01*
X0344441Y0557227D01*
X0344534Y0557932D01*
X0344441Y0558636D01*
X0344169Y0559293D01*
X0343736Y0559857D01*
X0343172Y0560290D01*
X0342515Y0560562D01*
X0341810Y0560655D01*
D02*
G37*
G36*
X0361003D02*
X0360298Y0560562D01*
X0359642Y0560290D01*
X0359078Y0559857D01*
X0358645Y0559293D01*
X0358373Y0558636D01*
X0358280Y0557932D01*
X0358373Y0557227D01*
X0358645Y0556570D01*
X0359078Y0556006D01*
X0359642Y0555573D01*
X0360298Y0555301D01*
X0361003Y0555208D01*
X0361708Y0555301D01*
X0362365Y0555573D01*
X0362929Y0556006D01*
X0363362Y0556570D01*
X0363634Y0557227D01*
X0363727Y0557932D01*
X0363634Y0558636D01*
X0363362Y0559293D01*
X0362929Y0559857D01*
X0362365Y0560290D01*
X0361708Y0560562D01*
X0361003Y0560655D01*
D02*
G37*
G36*
X0348700D02*
X0347995Y0560562D01*
X0347338Y0560290D01*
X0346774Y0559857D01*
X0346342Y0559293D01*
X0346070Y0558636D01*
X0345977Y0557932D01*
X0346070Y0557227D01*
X0346342Y0556570D01*
X0346774Y0556006D01*
X0347338Y0555573D01*
X0347995Y0555301D01*
X0348700Y0555208D01*
X0349405Y0555301D01*
X0350062Y0555573D01*
X0350626Y0556006D01*
X0351059Y0556570D01*
X0351331Y0557227D01*
X0351423Y0557932D01*
X0351331Y0558636D01*
X0351059Y0559293D01*
X0350626Y0559857D01*
X0350062Y0560290D01*
X0349405Y0560562D01*
X0348700Y0560655D01*
D02*
G37*
G36*
X0333050Y0550615D02*
X0332346Y0550523D01*
X0331689Y0550251D01*
X0331125Y0549818D01*
X0330692Y0549254D01*
X0330420Y0548597D01*
X0330327Y0547892D01*
X0330420Y0547187D01*
X0330692Y0546530D01*
X0331125Y0545966D01*
X0331689Y0545534D01*
X0332346Y0545262D01*
X0333050Y0545169D01*
X0333755Y0545262D01*
X0334412Y0545534D01*
X0334976Y0545966D01*
X0335409Y0546530D01*
X0335681Y0547187D01*
X0335774Y0547892D01*
X0335681Y0548597D01*
X0335409Y0549254D01*
X0334976Y0549818D01*
X0334412Y0550251D01*
X0333755Y0550523D01*
X0333050Y0550615D01*
D02*
G37*
G36*
X0334700Y0541123D02*
X0333995Y0541031D01*
X0333338Y0540758D01*
X0332774Y0540326D01*
X0332342Y0539762D01*
X0332069Y0539105D01*
X0331977Y0538400D01*
X0332069Y0537695D01*
X0332342Y0537038D01*
X0332774Y0536474D01*
X0333338Y0536042D01*
X0333995Y0535770D01*
X0334700Y0535677D01*
X0335405Y0535770D01*
X0336062Y0536042D01*
X0336626Y0536474D01*
X0337058Y0537038D01*
X0337331Y0537695D01*
X0337423Y0538400D01*
X0337331Y0539105D01*
X0337058Y0539762D01*
X0336626Y0540326D01*
X0336062Y0540758D01*
X0335405Y0541031D01*
X0334700Y0541123D01*
D02*
G37*
G36*
X0357460Y0550615D02*
X0356755Y0550523D01*
X0356098Y0550251D01*
X0355534Y0549818D01*
X0355101Y0549254D01*
X0354829Y0548597D01*
X0354737Y0547892D01*
X0354829Y0547187D01*
X0355101Y0546530D01*
X0355534Y0545966D01*
X0356098Y0545534D01*
X0356755Y0545262D01*
X0357460Y0545169D01*
X0358165Y0545262D01*
X0358822Y0545534D01*
X0359385Y0545966D01*
X0359818Y0546530D01*
X0360090Y0547187D01*
X0360183Y0547892D01*
X0360090Y0548597D01*
X0359818Y0549254D01*
X0359385Y0549818D01*
X0358822Y0550251D01*
X0358165Y0550523D01*
X0357460Y0550615D01*
D02*
G37*
G36*
X0319200Y0559932D02*
X0317926Y0559806D01*
X0316701Y0559434D01*
X0315571Y0558831D01*
X0314582Y0558018D01*
X0313769Y0557029D01*
X0313166Y0555899D01*
X0312794Y0554674D01*
X0312669Y0553400D01*
X0312794Y0552126D01*
X0313166Y0550901D01*
X0313769Y0549771D01*
X0314582Y0548782D01*
X0315571Y0547969D01*
X0316701Y0547366D01*
X0317926Y0546994D01*
X0319200Y0546869D01*
X0320474Y0546994D01*
X0321700Y0547366D01*
X0322829Y0547969D01*
X0323818Y0548782D01*
X0324631Y0549771D01*
X0325234Y0550901D01*
X0325606Y0552126D01*
X0325731Y0553400D01*
X0325606Y0554674D01*
X0325234Y0555899D01*
X0324631Y0557029D01*
X0323818Y0558018D01*
X0322829Y0558831D01*
X0321700Y0559434D01*
X0320474Y0559806D01*
X0319200Y0559932D01*
D02*
G37*
G36*
X0409450Y0553623D02*
X0408745Y0553531D01*
X0408088Y0553259D01*
X0407524Y0552826D01*
X0407299Y0552531D01*
X0398535D01*
X0397910Y0552407D01*
X0397381Y0552054D01*
X0391047Y0545719D01*
X0390693Y0545190D01*
X0390569Y0544565D01*
Y0518838D01*
X0390354Y0518577D01*
X0389569Y0518075D01*
X0389200Y0518123D01*
X0388495Y0518031D01*
X0387838Y0517758D01*
X0387274Y0517326D01*
X0386842Y0516762D01*
X0386569Y0516105D01*
X0386477Y0515400D01*
X0386569Y0514695D01*
X0386842Y0514038D01*
X0387274Y0513474D01*
X0387838Y0513042D01*
X0388495Y0512770D01*
X0389200Y0512677D01*
X0389569Y0512725D01*
X0390354Y0512223D01*
X0390569Y0511962D01*
Y0508338D01*
X0390354Y0508077D01*
X0389569Y0507575D01*
X0389200Y0507623D01*
X0388495Y0507530D01*
X0387838Y0507258D01*
X0387274Y0506826D01*
X0386842Y0506262D01*
X0386569Y0505605D01*
X0386477Y0504900D01*
X0386569Y0504195D01*
X0386842Y0503538D01*
X0387274Y0502974D01*
X0387838Y0502542D01*
X0388495Y0502270D01*
X0389200Y0502177D01*
X0389569Y0502225D01*
X0390354Y0501723D01*
X0390569Y0501462D01*
Y0467338D01*
X0390354Y0467077D01*
X0389569Y0466575D01*
X0389200Y0466623D01*
X0388495Y0466531D01*
X0387838Y0466258D01*
X0387274Y0465826D01*
X0386842Y0465262D01*
X0386569Y0464605D01*
X0386477Y0463900D01*
X0386569Y0463195D01*
X0386842Y0462538D01*
X0387274Y0461974D01*
X0387838Y0461542D01*
X0388495Y0461270D01*
X0389200Y0461177D01*
X0389569Y0461225D01*
X0390354Y0460723D01*
X0390569Y0460462D01*
Y0445900D01*
X0390693Y0445276D01*
X0391047Y0444746D01*
X0393025Y0442768D01*
X0392977Y0442400D01*
X0393070Y0441695D01*
X0393342Y0441038D01*
X0393774Y0440474D01*
X0394338Y0440042D01*
X0394995Y0439770D01*
X0395700Y0439677D01*
X0396405Y0439770D01*
X0397062Y0440042D01*
X0397626Y0440474D01*
X0398058Y0441038D01*
X0398330Y0441695D01*
X0398423Y0442400D01*
X0398375Y0442769D01*
X0398457Y0442897D01*
X0398578Y0442983D01*
X0399622Y0443208D01*
X0399838Y0443042D01*
X0400495Y0442769D01*
X0401200Y0442677D01*
X0401905Y0442769D01*
X0402562Y0443042D01*
X0403126Y0443474D01*
X0403558Y0444038D01*
X0403830Y0444695D01*
X0403923Y0445400D01*
X0403830Y0446105D01*
X0403558Y0446762D01*
X0403126Y0447326D01*
X0402562Y0447758D01*
X0401905Y0448031D01*
X0401200Y0448123D01*
X0400495Y0448031D01*
X0399838Y0447758D01*
X0399274Y0447326D01*
X0399048Y0447031D01*
X0397876D01*
X0395831Y0449076D01*
Y0535552D01*
X0396831Y0536087D01*
X0397069Y0535928D01*
Y0505900D01*
X0397193Y0505276D01*
X0397547Y0504746D01*
X0404046Y0498246D01*
X0404576Y0497893D01*
X0405200Y0497769D01*
X0418748D01*
X0419485Y0496959D01*
X0419477Y0496900D01*
X0419569Y0496195D01*
X0419842Y0495538D01*
X0420274Y0494974D01*
X0420838Y0494542D01*
X0421495Y0494270D01*
X0421749Y0494236D01*
X0422326Y0493792D01*
X0422517Y0493210D01*
X0422477Y0492900D01*
X0422570Y0492195D01*
X0422842Y0491538D01*
X0423274Y0490974D01*
X0423838Y0490542D01*
X0424495Y0490270D01*
X0424646Y0490250D01*
X0425205Y0490162D01*
X0425502Y0489208D01*
X0425569Y0488695D01*
X0425842Y0488038D01*
X0425847Y0488031D01*
X0425354Y0487031D01*
X0409700D01*
X0409076Y0486907D01*
X0408546Y0486553D01*
X0403546Y0481554D01*
X0403193Y0481024D01*
X0403069Y0480400D01*
Y0467552D01*
X0402774Y0467326D01*
X0402342Y0466762D01*
X0402070Y0466105D01*
X0401977Y0465400D01*
X0402070Y0464695D01*
X0402342Y0464038D01*
X0402774Y0463474D01*
X0403338Y0463042D01*
X0403995Y0462770D01*
X0404477Y0461900D01*
X0404569Y0461195D01*
X0404842Y0460538D01*
X0405274Y0459974D01*
X0405838Y0459542D01*
X0406495Y0459270D01*
X0407200Y0459177D01*
X0407905Y0459270D01*
X0408562Y0459542D01*
X0409126Y0459974D01*
X0409558Y0460538D01*
X0409831Y0461195D01*
X0409923Y0461900D01*
X0409831Y0462605D01*
X0409558Y0463262D01*
X0409259Y0463652D01*
X0409353Y0463747D01*
X0409707Y0464276D01*
X0409831Y0464900D01*
Y0479724D01*
X0411376Y0481269D01*
X0432455D01*
X0432838Y0480345D01*
X0431068Y0478575D01*
X0430700Y0478623D01*
X0429995Y0478531D01*
X0429338Y0478258D01*
X0428774Y0477826D01*
X0428342Y0477262D01*
X0428069Y0476605D01*
X0427977Y0475900D01*
X0428041Y0475414D01*
X0428069Y0475195D01*
X0428341Y0474538D01*
X0428341D01*
X0428341Y0474538D01*
D01*
X0428507Y0473900D01*
X0428341Y0473262D01*
Y0473262D01*
X0428341D01*
X0428341Y0473262D01*
X0428069Y0472605D01*
X0428041Y0472386D01*
X0427977Y0471900D01*
X0428069Y0471195D01*
X0428342Y0470538D01*
X0428774Y0469974D01*
X0429338Y0469542D01*
X0429995Y0469270D01*
X0430700Y0469177D01*
X0431068Y0469225D01*
X0431546Y0468747D01*
X0432076Y0468393D01*
X0432700Y0468269D01*
X0440325D01*
X0440949Y0468393D01*
X0441478Y0468747D01*
X0444501Y0471769D01*
X0465230D01*
X0465724Y0470769D01*
X0465531Y0470518D01*
X0465108Y0469496D01*
X0464964Y0468400D01*
X0465108Y0467304D01*
X0465531Y0466282D01*
X0466205Y0465405D01*
X0467082Y0464731D01*
X0468104Y0464308D01*
X0469200Y0464164D01*
X0470296Y0464308D01*
X0471318Y0464731D01*
X0472195Y0465405D01*
X0472869Y0466282D01*
X0473292Y0467304D01*
X0473436Y0468400D01*
X0473292Y0469496D01*
X0472869Y0470518D01*
X0472677Y0470769D01*
X0473170Y0471769D01*
X0474200D01*
X0474824Y0471893D01*
X0475353Y0472247D01*
X0477617Y0474510D01*
X0478104Y0474308D01*
X0479200Y0474164D01*
X0480296Y0474308D01*
X0481318Y0474731D01*
X0482196Y0475405D01*
X0482869Y0476282D01*
X0483292Y0477304D01*
X0483436Y0478400D01*
X0483292Y0479496D01*
X0482869Y0480518D01*
X0483662Y0481126D01*
X0485198Y0479590D01*
X0485154Y0479484D01*
X0485011Y0478400D01*
X0485154Y0477316D01*
X0485573Y0476306D01*
X0486238Y0475438D01*
X0487106Y0474773D01*
X0488116Y0474354D01*
X0489200Y0474211D01*
X0490284Y0474354D01*
X0491294Y0474773D01*
X0492162Y0475438D01*
X0492827Y0476306D01*
X0493246Y0477316D01*
X0493389Y0478400D01*
X0493246Y0479484D01*
X0492827Y0480494D01*
X0492162Y0481362D01*
X0491294Y0482027D01*
X0490284Y0482446D01*
X0489200Y0482589D01*
X0488116Y0482446D01*
X0488010Y0482402D01*
X0486730Y0483682D01*
X0486740Y0483766D01*
X0486772Y0483848D01*
X0488043Y0484384D01*
X0488116Y0484354D01*
X0489200Y0484211D01*
X0490284Y0484354D01*
X0491294Y0484773D01*
X0492162Y0485438D01*
X0492827Y0486306D01*
X0493246Y0487316D01*
X0493389Y0488400D01*
X0493246Y0489484D01*
X0492827Y0490494D01*
X0492162Y0491362D01*
X0491294Y0492027D01*
X0490284Y0492446D01*
X0489200Y0492589D01*
X0488116Y0492446D01*
X0487188Y0492062D01*
X0486854Y0492180D01*
X0486188Y0492584D01*
Y0494468D01*
X0487188Y0494961D01*
X0487207Y0494947D01*
X0488168Y0494549D01*
X0488700Y0494479D01*
Y0498400D01*
Y0502321D01*
X0488168Y0502251D01*
X0487207Y0501853D01*
X0487188Y0501839D01*
X0486188Y0502332D01*
Y0502400D01*
X0486037Y0503161D01*
X0485606Y0503806D01*
X0480606Y0508806D01*
X0480146Y0509113D01*
X0480037Y0509293D01*
X0479902Y0509829D01*
X0479858Y0510277D01*
X0480058Y0510538D01*
X0480331Y0511195D01*
X0480423Y0511900D01*
X0480331Y0512605D01*
X0480058Y0513262D01*
X0479626Y0513826D01*
X0479062Y0514258D01*
X0478405Y0514531D01*
X0477700Y0514623D01*
X0476995Y0514531D01*
X0476338Y0514258D01*
X0475774Y0513826D01*
X0475549Y0513531D01*
X0469014D01*
X0466491Y0516053D01*
X0465962Y0516407D01*
X0465338Y0516531D01*
X0457546D01*
X0457053Y0517531D01*
X0457058Y0517538D01*
X0457331Y0518195D01*
X0457423Y0518900D01*
X0457331Y0519605D01*
X0457102Y0520157D01*
X0457156Y0520304D01*
X0457277Y0520435D01*
X0458162Y0520908D01*
X0458495Y0520770D01*
X0459200Y0520677D01*
X0459905Y0520770D01*
X0460562Y0521042D01*
X0460712Y0521157D01*
X0494771D01*
X0502957Y0512971D01*
Y0501640D01*
X0502234Y0501316D01*
X0501957Y0501267D01*
X0501193Y0501853D01*
X0500232Y0502251D01*
X0499700Y0502321D01*
Y0498400D01*
Y0494479D01*
X0500232Y0494549D01*
X0501193Y0494947D01*
X0501774Y0494146D01*
X0500098Y0492470D01*
X0499200Y0492589D01*
X0498116Y0492446D01*
X0497106Y0492027D01*
X0496238Y0491362D01*
X0495573Y0490494D01*
X0495154Y0489484D01*
X0495011Y0488400D01*
X0495154Y0487316D01*
X0495573Y0486306D01*
X0496238Y0485438D01*
X0497106Y0484773D01*
X0498116Y0484354D01*
X0499200Y0484211D01*
X0500284Y0484354D01*
X0501294Y0484773D01*
X0502162Y0485438D01*
X0502827Y0486306D01*
X0503246Y0487316D01*
X0503389Y0488400D01*
X0503270Y0489298D01*
X0506786Y0492814D01*
X0507272Y0493542D01*
X0507443Y0494400D01*
Y0513900D01*
X0507272Y0514758D01*
X0506786Y0515486D01*
X0497286Y0524986D01*
X0496558Y0525472D01*
X0495700Y0525643D01*
X0460712D01*
X0460562Y0525758D01*
X0459905Y0526030D01*
X0459200Y0526123D01*
X0458495Y0526030D01*
X0457838Y0525758D01*
X0457688Y0525643D01*
X0448200D01*
X0447342Y0525472D01*
X0446614Y0524986D01*
X0442614Y0520986D01*
X0442128Y0520258D01*
X0441957Y0519400D01*
Y0513648D01*
X0440452Y0512143D01*
X0439712D01*
X0439562Y0512258D01*
X0438905Y0512531D01*
X0438200Y0512623D01*
X0437495Y0512531D01*
X0436838Y0512258D01*
X0436274Y0511826D01*
X0435842Y0511262D01*
X0435569Y0510605D01*
X0435477Y0509900D01*
X0435541Y0509414D01*
X0435569Y0509195D01*
X0435842Y0508538D01*
X0435842D01*
X0435842Y0508538D01*
D01*
X0436007Y0507900D01*
X0435842Y0507262D01*
Y0507262D01*
X0435842D01*
X0435842Y0507262D01*
X0435569Y0506605D01*
X0435541Y0506386D01*
X0435477Y0505900D01*
X0435569Y0505195D01*
X0435842Y0504538D01*
X0436274Y0503974D01*
X0436838Y0503542D01*
X0437495Y0503269D01*
X0438200Y0503177D01*
X0438905Y0503269D01*
X0439562Y0503542D01*
X0440126Y0503974D01*
X0440351Y0504269D01*
X0447069D01*
Y0493576D01*
X0440524Y0487031D01*
X0431046D01*
X0430553Y0488031D01*
X0430558Y0488038D01*
X0430830Y0488695D01*
X0430923Y0489400D01*
X0430830Y0490105D01*
X0430558Y0490762D01*
X0430126Y0491326D01*
X0429831Y0491551D01*
Y0512242D01*
X0430831Y0512837D01*
X0430995Y0512770D01*
X0431700Y0512677D01*
X0432405Y0512770D01*
X0433062Y0513042D01*
X0433626Y0513474D01*
X0434058Y0514038D01*
X0434331Y0514695D01*
X0434423Y0515400D01*
X0434331Y0516105D01*
X0434058Y0516762D01*
X0433626Y0517326D01*
X0433062Y0517758D01*
X0432405Y0518031D01*
X0431700Y0518123D01*
X0430995Y0518031D01*
X0430831Y0517963D01*
X0429831Y0518558D01*
Y0536554D01*
X0430831Y0537047D01*
X0430838Y0537042D01*
X0431495Y0536769D01*
X0432200Y0536677D01*
X0432905Y0536769D01*
X0433562Y0537042D01*
X0434126Y0537474D01*
X0434558Y0538038D01*
X0434831Y0538695D01*
X0434923Y0539400D01*
X0434831Y0540105D01*
X0434558Y0540762D01*
X0434126Y0541326D01*
X0433562Y0541758D01*
X0432905Y0542030D01*
X0432200Y0542123D01*
X0431495Y0542030D01*
X0430838Y0541758D01*
X0430831Y0541753D01*
X0429831Y0542246D01*
Y0543249D01*
X0430126Y0543474D01*
X0430558Y0544038D01*
X0430830Y0544695D01*
X0430923Y0545400D01*
X0430917Y0545449D01*
X0431518Y0545817D01*
X0431866Y0545904D01*
X0432338Y0545542D01*
X0432995Y0545269D01*
X0433700Y0545177D01*
X0434405Y0545269D01*
X0435062Y0545542D01*
X0435626Y0545974D01*
X0436058Y0546538D01*
X0436331Y0547195D01*
X0436423Y0547900D01*
X0436331Y0548605D01*
X0436058Y0549262D01*
X0435626Y0549826D01*
X0435062Y0550258D01*
X0434405Y0550530D01*
X0433700Y0550623D01*
X0432995Y0550530D01*
X0432338Y0550258D01*
X0431774Y0549826D01*
X0431342Y0549262D01*
X0431070Y0548605D01*
X0430977Y0547900D01*
X0430983Y0547851D01*
X0430382Y0547483D01*
X0430034Y0547396D01*
X0429562Y0547758D01*
X0428905Y0548031D01*
X0428200Y0548123D01*
X0427495Y0548031D01*
X0426838Y0547758D01*
X0426552Y0547539D01*
X0425839Y0548252D01*
X0426058Y0548538D01*
X0426331Y0549195D01*
X0426423Y0549900D01*
X0426331Y0550605D01*
X0426058Y0551262D01*
X0425626Y0551826D01*
X0425062Y0552258D01*
X0424405Y0552530D01*
X0423700Y0552623D01*
X0422995Y0552530D01*
X0422338Y0552258D01*
X0421774Y0551826D01*
X0421342Y0551262D01*
X0421069Y0550605D01*
X0420977Y0549900D01*
X0421069Y0549195D01*
X0421342Y0548538D01*
X0421774Y0547974D01*
X0422069Y0547749D01*
Y0504701D01*
X0422193Y0504076D01*
X0422322Y0503884D01*
X0422380Y0503588D01*
X0422734Y0503059D01*
X0423569Y0502224D01*
Y0500338D01*
X0423354Y0500077D01*
X0422569Y0499575D01*
X0422200Y0499623D01*
X0421832Y0499575D01*
X0420854Y0500554D01*
X0420324Y0500907D01*
X0419700Y0501031D01*
X0419138D01*
X0418877Y0501246D01*
X0418375Y0502031D01*
X0418423Y0502400D01*
X0418330Y0503105D01*
X0418058Y0503762D01*
X0417626Y0504326D01*
X0417062Y0504758D01*
X0416405Y0505030D01*
X0415700Y0505123D01*
X0414995Y0505030D01*
X0414338Y0504758D01*
X0413774Y0504326D01*
X0413549Y0504031D01*
X0405876D01*
X0403831Y0506076D01*
Y0525864D01*
X0404831Y0526063D01*
X0404842Y0526038D01*
X0405274Y0525474D01*
X0405838Y0525042D01*
X0406495Y0524769D01*
X0407200Y0524677D01*
X0407905Y0524769D01*
X0408562Y0525042D01*
X0409126Y0525474D01*
X0409558Y0526038D01*
X0409831Y0526695D01*
X0409923Y0527400D01*
X0409831Y0528105D01*
X0409558Y0528762D01*
X0409126Y0529326D01*
X0408562Y0529758D01*
X0407905Y0530030D01*
X0407200Y0530123D01*
X0406495Y0530030D01*
X0405838Y0529758D01*
X0405274Y0529326D01*
X0404842Y0528762D01*
X0404831Y0528737D01*
X0403831Y0528936D01*
Y0537748D01*
X0404126Y0537974D01*
X0404558Y0538538D01*
X0404831Y0539195D01*
X0404923Y0539900D01*
X0404831Y0540605D01*
X0404558Y0541262D01*
X0404126Y0541826D01*
X0403562Y0542258D01*
X0402905Y0542530D01*
X0402200Y0542623D01*
X0401495Y0542530D01*
X0400882Y0542277D01*
X0400832Y0542261D01*
X0400029Y0542536D01*
X0399786Y0542712D01*
X0399558Y0543262D01*
X0399169Y0543769D01*
X0399213Y0544025D01*
X0399539Y0544769D01*
X0403049D01*
X0403274Y0544474D01*
X0403838Y0544042D01*
X0404495Y0543770D01*
X0405200Y0543677D01*
X0405905Y0543770D01*
X0406562Y0544042D01*
X0407126Y0544474D01*
X0407558Y0545038D01*
X0407830Y0545695D01*
X0407923Y0546400D01*
X0407830Y0547105D01*
X0407575Y0547723D01*
X0407682Y0547901D01*
X0408282Y0548461D01*
X0408745Y0548270D01*
X0409450Y0548177D01*
X0410155Y0548270D01*
X0410812Y0548542D01*
X0411376Y0548974D01*
X0411808Y0549538D01*
X0412080Y0550195D01*
X0412173Y0550900D01*
X0412080Y0551605D01*
X0411808Y0552262D01*
X0411376Y0552826D01*
X0410812Y0553259D01*
X0410155Y0553531D01*
X0409450Y0553623D01*
D02*
G37*
G36*
X0367200Y0498123D02*
X0366495Y0498031D01*
X0365838Y0497758D01*
X0365274Y0497326D01*
X0364842Y0496762D01*
X0364569Y0496105D01*
X0364477Y0495400D01*
X0364569Y0494695D01*
X0364842Y0494038D01*
X0365274Y0493474D01*
X0365569Y0493249D01*
Y0487551D01*
X0365274Y0487326D01*
X0364842Y0486762D01*
X0364569Y0486105D01*
X0364477Y0485400D01*
X0364569Y0484695D01*
X0364842Y0484038D01*
X0365274Y0483474D01*
X0365569Y0483249D01*
Y0481076D01*
X0362524Y0478031D01*
X0358351D01*
X0358126Y0478326D01*
X0357562Y0478758D01*
X0356905Y0479031D01*
X0356200Y0479123D01*
X0355495Y0479031D01*
X0354838Y0478758D01*
X0354274Y0478326D01*
X0354048Y0478031D01*
X0348352D01*
X0348126Y0478326D01*
X0347562Y0478758D01*
X0346905Y0479031D01*
X0346200Y0479123D01*
X0345495Y0479031D01*
X0344838Y0478758D01*
X0344274Y0478326D01*
X0344049Y0478031D01*
X0341352D01*
X0341180Y0478255D01*
X0341126Y0478369D01*
Y0479474D01*
X0341558Y0480038D01*
X0341830Y0480695D01*
X0341923Y0481400D01*
X0341830Y0482105D01*
X0341558Y0482762D01*
X0341126Y0483326D01*
X0340562Y0483758D01*
X0339905Y0484030D01*
X0339200Y0484123D01*
X0338495Y0484030D01*
X0337838Y0483758D01*
X0337274Y0483326D01*
X0336842Y0482762D01*
X0336569Y0482105D01*
X0336477Y0481400D01*
X0336569Y0480695D01*
X0336842Y0480038D01*
X0337274Y0479474D01*
Y0478326D01*
X0336842Y0477762D01*
X0336569Y0477105D01*
X0336477Y0476400D01*
X0336569Y0475695D01*
X0336842Y0475038D01*
X0337274Y0474474D01*
X0337838Y0474042D01*
X0338495Y0473770D01*
X0339200Y0473677D01*
X0339754Y0473750D01*
X0340198Y0473398D01*
X0340550Y0472954D01*
X0340477Y0472400D01*
X0340569Y0471695D01*
X0340842Y0471038D01*
X0341274Y0470474D01*
X0341838Y0470042D01*
X0342495Y0469769D01*
X0343200Y0469677D01*
X0343905Y0469769D01*
X0344562Y0470042D01*
X0345126Y0470474D01*
X0345352Y0470769D01*
X0352048D01*
X0352274Y0470474D01*
X0352838Y0470042D01*
X0353495Y0469769D01*
X0354200Y0469677D01*
X0354905Y0469769D01*
X0355562Y0470042D01*
X0356126Y0470474D01*
X0356351Y0470769D01*
X0364200D01*
X0364824Y0470893D01*
X0365353Y0471246D01*
X0372354Y0478246D01*
X0372707Y0478776D01*
X0372831Y0479400D01*
Y0480248D01*
X0373126Y0480474D01*
X0373558Y0481038D01*
X0373831Y0481695D01*
X0373923Y0482400D01*
X0373831Y0483105D01*
X0373558Y0483762D01*
X0373126Y0484326D01*
X0372831Y0484551D01*
Y0491249D01*
X0373126Y0491474D01*
X0373558Y0492038D01*
X0373831Y0492695D01*
X0373923Y0493400D01*
X0373831Y0494105D01*
X0373558Y0494762D01*
X0373126Y0495326D01*
X0372562Y0495758D01*
X0371905Y0496031D01*
X0371200Y0496123D01*
X0370843Y0496076D01*
X0370419Y0496088D01*
X0369571Y0496730D01*
X0369558Y0496762D01*
X0369126Y0497326D01*
X0368562Y0497758D01*
X0367905Y0498031D01*
X0367200Y0498123D01*
D02*
G37*
G36*
X0499200Y0482589D02*
X0498116Y0482446D01*
X0497106Y0482027D01*
X0496238Y0481362D01*
X0495573Y0480494D01*
X0495154Y0479484D01*
X0495011Y0478400D01*
X0495154Y0477316D01*
X0495573Y0476306D01*
X0496238Y0475438D01*
X0497106Y0474773D01*
X0498116Y0474354D01*
X0499200Y0474211D01*
X0500284Y0474354D01*
X0501294Y0474773D01*
X0502162Y0475438D01*
X0502827Y0476306D01*
X0503246Y0477316D01*
X0503389Y0478400D01*
X0503246Y0479484D01*
X0502827Y0480494D01*
X0502162Y0481362D01*
X0501294Y0482027D01*
X0500284Y0482446D01*
X0499200Y0482589D01*
D02*
G37*
G36*
X0352200Y0487820D02*
X0351348Y0487650D01*
X0350625Y0487168D01*
X0350143Y0486445D01*
X0349973Y0485593D01*
X0350143Y0484741D01*
X0350625Y0484018D01*
X0351348Y0483535D01*
X0352200Y0483366D01*
X0353052Y0483535D01*
X0353775Y0484018D01*
X0354257Y0484741D01*
X0354427Y0485593D01*
X0354257Y0486445D01*
X0353775Y0487168D01*
X0353052Y0487650D01*
X0352200Y0487820D01*
D02*
G37*
G36*
X0406700Y0493623D02*
X0405995Y0493531D01*
X0405338Y0493258D01*
X0404774Y0492826D01*
X0404342Y0492262D01*
X0404070Y0491605D01*
X0403977Y0490900D01*
X0404070Y0490195D01*
X0404342Y0489538D01*
X0404774Y0488974D01*
X0405338Y0488542D01*
X0405995Y0488270D01*
X0406700Y0488177D01*
X0407405Y0488270D01*
X0408062Y0488542D01*
X0408626Y0488974D01*
X0409058Y0489538D01*
X0409331Y0490195D01*
X0409423Y0490900D01*
X0409331Y0491605D01*
X0409058Y0492262D01*
X0408626Y0492826D01*
X0408062Y0493258D01*
X0407405Y0493531D01*
X0406700Y0493623D01*
D02*
G37*
G36*
X0337700Y0492123D02*
X0336995Y0492030D01*
X0336338Y0491758D01*
X0335774Y0491326D01*
X0335342Y0490762D01*
X0335069Y0490105D01*
X0334977Y0489400D01*
X0335069Y0488695D01*
X0335342Y0488038D01*
X0335774Y0487474D01*
X0336338Y0487042D01*
X0336995Y0486769D01*
X0337700Y0486677D01*
X0338405Y0486769D01*
X0339062Y0487042D01*
X0339626Y0487474D01*
X0340058Y0488038D01*
X0340331Y0488695D01*
X0340423Y0489400D01*
X0340331Y0490105D01*
X0340058Y0490762D01*
X0339626Y0491326D01*
X0339062Y0491758D01*
X0338405Y0492030D01*
X0337700Y0492123D01*
D02*
G37*
G36*
X0488700Y0472321D02*
X0488168Y0472251D01*
X0487207Y0471853D01*
X0486381Y0471219D01*
X0485747Y0470393D01*
X0485349Y0469432D01*
X0485279Y0468900D01*
X0488700D01*
Y0472321D01*
D02*
G37*
G36*
X0479700Y0472369D02*
Y0468900D01*
X0483169D01*
X0483097Y0469444D01*
X0482694Y0470417D01*
X0482053Y0471253D01*
X0481217Y0471894D01*
X0480244Y0472297D01*
X0479700Y0472369D01*
D02*
G37*
G36*
X0489700Y0472321D02*
Y0468900D01*
X0493121D01*
X0493051Y0469432D01*
X0492653Y0470393D01*
X0492019Y0471219D01*
X0491193Y0471853D01*
X0490232Y0472251D01*
X0489700Y0472321D01*
D02*
G37*
G36*
X0499700D02*
Y0468900D01*
X0503121D01*
X0503051Y0469432D01*
X0502653Y0470393D01*
X0502019Y0471219D01*
X0501193Y0471853D01*
X0500232Y0472251D01*
X0499700Y0472321D01*
D02*
G37*
G36*
X0498700D02*
X0498168Y0472251D01*
X0497207Y0471853D01*
X0496381Y0471219D01*
X0495747Y0470393D01*
X0495349Y0469432D01*
X0495279Y0468900D01*
X0498700D01*
Y0472321D01*
D02*
G37*
G36*
X0346393Y0493627D02*
X0345541Y0493458D01*
X0344818Y0492975D01*
X0344335Y0492252D01*
X0344166Y0491400D01*
X0344335Y0490548D01*
X0344818Y0489825D01*
X0345541Y0489342D01*
X0346393Y0489173D01*
X0347245Y0489342D01*
X0347968Y0489825D01*
X0348450Y0490548D01*
X0348620Y0491400D01*
X0348450Y0492252D01*
X0347968Y0492975D01*
X0347245Y0493458D01*
X0346393Y0493627D01*
D02*
G37*
G36*
X0320700Y0501623D02*
X0319995Y0501531D01*
X0319338Y0501258D01*
X0318774Y0500826D01*
X0318342Y0500262D01*
X0318070Y0499605D01*
X0317977Y0498900D01*
X0318070Y0498195D01*
X0318342Y0497538D01*
X0318774Y0496974D01*
X0319338Y0496542D01*
X0319995Y0496270D01*
X0320700Y0496177D01*
X0321405Y0496270D01*
X0322062Y0496542D01*
X0322626Y0496974D01*
X0323058Y0497538D01*
X0323330Y0498195D01*
X0323423Y0498900D01*
X0323330Y0499605D01*
X0323058Y0500262D01*
X0322626Y0500826D01*
X0322062Y0501258D01*
X0321405Y0501531D01*
X0320700Y0501623D01*
D02*
G37*
G36*
X0352200Y0499434D02*
X0351348Y0499265D01*
X0350625Y0498782D01*
X0350143Y0498059D01*
X0349973Y0497207D01*
X0350143Y0496355D01*
X0350625Y0495632D01*
X0351348Y0495150D01*
X0352200Y0494980D01*
X0353052Y0495150D01*
X0353775Y0495632D01*
X0354257Y0496355D01*
X0354427Y0497207D01*
X0354257Y0498059D01*
X0353775Y0498782D01*
X0353052Y0499265D01*
X0352200Y0499434D01*
D02*
G37*
G36*
X0498700Y0502321D02*
X0498168Y0502251D01*
X0497207Y0501853D01*
X0496381Y0501219D01*
X0495747Y0500393D01*
X0495349Y0499432D01*
X0495279Y0498900D01*
X0498700D01*
Y0502321D01*
D02*
G37*
G36*
X0489700D02*
Y0498900D01*
X0493121D01*
X0493051Y0499432D01*
X0492653Y0500393D01*
X0492019Y0501219D01*
X0491193Y0501853D01*
X0490232Y0502251D01*
X0489700Y0502321D01*
D02*
G37*
G36*
X0498700Y0497900D02*
X0495279D01*
X0495349Y0497368D01*
X0495747Y0496407D01*
X0496381Y0495581D01*
X0497207Y0494947D01*
X0498168Y0494549D01*
X0498700Y0494479D01*
Y0497900D01*
D02*
G37*
G36*
X0352200Y0493627D02*
X0351348Y0493458D01*
X0350625Y0492975D01*
X0350143Y0492252D01*
X0349973Y0491400D01*
X0350143Y0490548D01*
X0350625Y0489825D01*
X0351348Y0489342D01*
X0352200Y0489173D01*
X0353052Y0489342D01*
X0353775Y0489825D01*
X0354257Y0490548D01*
X0354427Y0491400D01*
X0354257Y0492252D01*
X0353775Y0492975D01*
X0353052Y0493458D01*
X0352200Y0493627D01*
D02*
G37*
G36*
X0358007D02*
X0357155Y0493458D01*
X0356432Y0492975D01*
X0355950Y0492252D01*
X0355780Y0491400D01*
X0355950Y0490548D01*
X0356432Y0489825D01*
X0357155Y0489342D01*
X0358007Y0489173D01*
X0358859Y0489342D01*
X0359582Y0489825D01*
X0360065Y0490548D01*
X0360234Y0491400D01*
X0360065Y0492252D01*
X0359582Y0492975D01*
X0358859Y0493458D01*
X0358007Y0493627D01*
D02*
G37*
G36*
X0493121Y0497900D02*
X0489700D01*
Y0494479D01*
X0490232Y0494549D01*
X0491193Y0494947D01*
X0492019Y0495581D01*
X0492653Y0496407D01*
X0493051Y0497368D01*
X0493121Y0497900D01*
D02*
G37*
%LPD*%
G36*
X0467184Y0510746D02*
X0467713Y0510393D01*
X0467737Y0510388D01*
X0467638Y0509388D01*
X0462544D01*
X0462062Y0509758D01*
X0461405Y0510031D01*
X0460700Y0510123D01*
X0459995Y0510031D01*
X0459338Y0509758D01*
X0458774Y0509326D01*
X0458342Y0508762D01*
X0458070Y0508105D01*
X0457977Y0507400D01*
X0458070Y0506695D01*
X0458342Y0506038D01*
X0458774Y0505474D01*
X0459338Y0505042D01*
X0459995Y0504770D01*
X0460700Y0504677D01*
X0461405Y0504770D01*
X0462062Y0505042D01*
X0462544Y0505412D01*
X0478376D01*
X0480286Y0503502D01*
X0479819Y0502555D01*
X0479200Y0502636D01*
X0478104Y0502492D01*
X0477082Y0502069D01*
X0476204Y0501396D01*
X0475531Y0500518D01*
X0475108Y0499496D01*
X0474964Y0498400D01*
X0475108Y0497304D01*
X0475531Y0496282D01*
X0476204Y0495404D01*
X0477082Y0494731D01*
X0478104Y0494308D01*
X0479200Y0494164D01*
X0480296Y0494308D01*
X0481212Y0494687D01*
X0481622Y0494536D01*
X0482212Y0494157D01*
Y0492643D01*
X0481622Y0492264D01*
X0481212Y0492113D01*
X0480296Y0492492D01*
X0479200Y0492636D01*
X0478104Y0492492D01*
X0477082Y0492069D01*
X0476204Y0491396D01*
X0475531Y0490518D01*
X0475108Y0489496D01*
X0474964Y0488400D01*
X0475108Y0487304D01*
X0475310Y0486817D01*
X0474033Y0485541D01*
X0473614Y0485610D01*
X0473470Y0485740D01*
X0473049Y0486717D01*
X0473292Y0487304D01*
X0473436Y0488400D01*
X0473292Y0489496D01*
X0472869Y0490518D01*
X0472195Y0491396D01*
X0471318Y0492069D01*
X0470296Y0492492D01*
X0469200Y0492636D01*
X0468104Y0492492D01*
X0467082Y0492069D01*
X0466205Y0491396D01*
X0465531Y0490518D01*
X0465108Y0489496D01*
X0464964Y0488400D01*
X0465108Y0487304D01*
X0465531Y0486282D01*
X0465724Y0486031D01*
X0465230Y0485031D01*
X0465200D01*
X0464576Y0484907D01*
X0464046Y0484553D01*
X0462024Y0482531D01*
X0446445D01*
X0446062Y0483455D01*
X0452853Y0490246D01*
X0453207Y0490776D01*
X0453331Y0491400D01*
X0453331Y0491400D01*
Y0500962D01*
X0453546Y0501223D01*
X0454331Y0501725D01*
X0454700Y0501677D01*
X0455405Y0501769D01*
X0456062Y0502042D01*
X0456626Y0502474D01*
X0457058Y0503038D01*
X0457331Y0503695D01*
X0457423Y0504400D01*
X0457331Y0505105D01*
X0457058Y0505762D01*
X0456626Y0506326D01*
X0456062Y0506758D01*
X0455405Y0507030D01*
X0454700Y0507123D01*
X0454331Y0507075D01*
X0453546Y0507577D01*
X0453331Y0507838D01*
Y0511275D01*
X0455325Y0513269D01*
X0464662D01*
X0467184Y0510746D01*
D02*
G37*
%LPC*%
G36*
X0469200Y0502636D02*
X0468104Y0502492D01*
X0467082Y0502069D01*
X0466205Y0501396D01*
X0465531Y0500518D01*
X0465108Y0499496D01*
X0464964Y0498400D01*
X0465108Y0497304D01*
X0465531Y0496282D01*
X0466205Y0495404D01*
X0467082Y0494731D01*
X0468104Y0494308D01*
X0469200Y0494164D01*
X0470296Y0494308D01*
X0471318Y0494731D01*
X0472195Y0495404D01*
X0472869Y0496282D01*
X0473292Y0497304D01*
X0473436Y0498400D01*
X0473292Y0499496D01*
X0472869Y0500518D01*
X0472195Y0501396D01*
X0471318Y0502069D01*
X0470296Y0502492D01*
X0469200Y0502636D01*
D02*
G37*
%LPD*%
G54D23*
X0391700Y0355900D02*
D03*
X0386700D02*
D03*
X0396700D02*
D03*
X0401700D02*
D03*
X0406700D02*
D03*
X0381700D02*
D03*
G54D40*
X0432700Y0469900D02*
X0440325D01*
X0443825Y0473400D01*
X0466700D01*
X0430700Y0471900D02*
X0432700Y0469900D01*
X0439700Y0473900D02*
X0444200Y0478400D01*
X0469200D01*
X0466700Y0473400D02*
X0474200D01*
X0479200Y0478400D01*
X0435700Y0480900D02*
X0462700D01*
X0465200Y0483400D01*
X0474200D01*
X0479200Y0488400D01*
X0443700Y0448400D02*
Y0451900D01*
X0450700Y0410900D02*
X0456700Y0416900D01*
X0441200Y0485400D02*
X0448700Y0492900D01*
Y0507400D01*
X0409700Y0485400D02*
X0441200D01*
X0404700Y0480400D02*
X0409700Y0485400D01*
X0410700Y0482900D02*
X0443200D01*
X0408200Y0480400D02*
X0410700Y0482900D01*
X0408200Y0464900D02*
Y0480400D01*
X0407200Y0463900D02*
X0408200Y0464900D01*
X0407200Y0461900D02*
Y0463900D01*
X0404700Y0465400D02*
Y0480400D01*
X0397200Y0445400D02*
X0401200D01*
X0397200Y0546400D02*
X0405200D01*
X0371200Y0482400D02*
Y0493400D01*
X0346200Y0476400D02*
X0356200D01*
X0343200Y0472400D02*
X0354200D01*
X0342200D02*
X0343200D01*
X0430700Y0475900D02*
X0435700Y0480900D01*
X0339200Y0476400D02*
X0346200D01*
X0367200Y0480400D02*
Y0495400D01*
X0363200Y0476400D02*
X0367200Y0480400D01*
X0356200Y0476400D02*
X0363200D01*
X0371200Y0479400D02*
Y0482400D01*
X0364200Y0472400D02*
X0371200Y0479400D01*
X0354200Y0472400D02*
X0364200D01*
X0443200Y0482900D02*
X0451700Y0491400D01*
Y0511849D01*
X0451649Y0511900D02*
X0451700Y0511849D01*
X0451649Y0511900D02*
X0454649Y0514900D01*
X0465338D01*
X0468338Y0511900D01*
X0477700D01*
X0423887Y0504213D02*
X0425200Y0502900D01*
X0423887Y0504213D02*
Y0504513D01*
X0423700Y0504701D02*
X0423887Y0504513D01*
X0423700Y0504701D02*
Y0549900D01*
X0397200Y0538851D02*
Y0541900D01*
Y0538851D02*
X0398700Y0537351D01*
X0381700Y0397400D02*
X0409200D01*
X0411700Y0399900D01*
X0415200Y0403400D01*
Y0411900D01*
X0394200Y0448400D02*
X0397200Y0445400D01*
X0394200Y0448400D02*
Y0543400D01*
X0397200Y0546400D01*
X0392200Y0445900D02*
X0395700Y0442400D01*
X0392200Y0445900D02*
Y0544565D01*
X0398535Y0550900D01*
X0409450D01*
X0428200Y0489400D02*
Y0545400D01*
X0425200Y0492900D02*
Y0502900D01*
X0419700Y0499400D02*
X0422200Y0496900D01*
X0398700Y0505900D02*
Y0537351D01*
X0405200Y0499400D02*
X0419700D01*
X0398700Y0505900D02*
X0405200Y0499400D01*
X0402200Y0505400D02*
Y0539900D01*
Y0505400D02*
X0405200Y0502400D01*
X0415700D01*
X0438200Y0505900D02*
X0447200D01*
X0448700Y0507400D01*
X0429700Y0430400D02*
X0438200Y0438900D01*
Y0442900D01*
X0443700Y0448400D01*
X0406700Y0360400D02*
X0411200Y0364900D01*
X0406700Y0355900D02*
Y0360400D01*
Y0354400D02*
Y0355900D01*
X0411200Y0364900D02*
Y0375900D01*
X0411700Y0361400D02*
X0414700Y0364400D01*
X0411700Y0355900D02*
Y0361400D01*
Y0354400D02*
Y0355900D01*
X0414700Y0364400D02*
Y0373400D01*
X0126900Y0073549D02*
Y0067551D01*
X0129899D01*
X0130899Y0068550D01*
Y0069550D01*
X0129899Y0070550D01*
X0126900D01*
X0129899D01*
X0130899Y0071549D01*
Y0072549D01*
X0129899Y0073549D01*
X0126900D01*
X0133898Y0067551D02*
X0135897D01*
X0136897Y0068550D01*
Y0070550D01*
X0135897Y0071549D01*
X0133898D01*
X0132898Y0070550D01*
Y0068550D01*
X0133898Y0067551D01*
X0139896Y0072549D02*
Y0071549D01*
X0138896D01*
X0140895D01*
X0139896D01*
Y0068550D01*
X0140895Y0067551D01*
X0144894Y0072549D02*
Y0071549D01*
X0143895D01*
X0145894D01*
X0144894D01*
Y0068550D01*
X0145894Y0067551D01*
X0149893D02*
X0151892D01*
X0152892Y0068550D01*
Y0070550D01*
X0151892Y0071549D01*
X0149893D01*
X0148893Y0070550D01*
Y0068550D01*
X0149893Y0067551D01*
X0154891D02*
Y0071549D01*
X0155891D01*
X0156890Y0070550D01*
Y0067551D01*
Y0070550D01*
X0157890Y0071549D01*
X0158890Y0070550D01*
Y0067551D01*
X0166887Y0073549D02*
Y0067551D01*
X0170886D01*
X0173885Y0071549D02*
X0175884D01*
X0176884Y0070550D01*
Y0067551D01*
X0173885D01*
X0172885Y0068550D01*
X0173885Y0069550D01*
X0176884D01*
X0178883Y0071549D02*
Y0068550D01*
X0179883Y0067551D01*
X0182882D01*
Y0066551D01*
X0181882Y0065551D01*
X0180883D01*
X0182882Y0067551D02*
Y0071549D01*
X0187880Y0067551D02*
X0185881D01*
X0184881Y0068550D01*
Y0070550D01*
X0185881Y0071549D01*
X0187880D01*
X0188880Y0070550D01*
Y0069550D01*
X0184881D01*
X0190879Y0071549D02*
Y0067551D01*
Y0069550D01*
X0191879Y0070550D01*
X0192879Y0071549D01*
X0193878D01*
X0567400Y0087833D02*
Y0093831D01*
X0571399Y0087833D01*
Y0093831D01*
X0574398Y0087833D02*
X0576397D01*
X0577397Y0088833D01*
Y0090832D01*
X0576397Y0091832D01*
X0574398D01*
X0573398Y0090832D01*
Y0088833D01*
X0574398Y0087833D01*
X0580396Y0092832D02*
Y0091832D01*
X0579396D01*
X0581395D01*
X0580396D01*
Y0088833D01*
X0581395Y0087833D01*
X0590393Y0093831D02*
X0592392D01*
X0591392D01*
Y0087833D01*
X0590393D01*
X0592392D01*
X0595391D02*
Y0091832D01*
X0598390D01*
X0599390Y0090832D01*
Y0087833D01*
X0607387Y0093831D02*
Y0089833D01*
X0609386Y0087833D01*
X0611386Y0089833D01*
Y0093831D01*
X0616384Y0087833D02*
X0614385D01*
X0613385Y0088833D01*
Y0090832D01*
X0614385Y0091832D01*
X0616384D01*
X0617384Y0090832D01*
Y0089833D01*
X0613385D01*
X0619383Y0091832D02*
Y0087833D01*
Y0089833D01*
X0620383Y0090832D01*
X0621383Y0091832D01*
X0622382D01*
X0625381Y0087833D02*
X0628380D01*
X0629380Y0088833D01*
X0628380Y0089833D01*
X0626381D01*
X0625381Y0090832D01*
X0626381Y0091832D01*
X0629380D01*
X0631379Y0087833D02*
X0633379D01*
X0632379D01*
Y0091832D01*
X0631379D01*
X0637377Y0087833D02*
X0639377D01*
X0640376Y0088833D01*
Y0090832D01*
X0639377Y0091832D01*
X0637377D01*
X0636378Y0090832D01*
Y0088833D01*
X0637377Y0087833D01*
X0642376D02*
Y0091832D01*
X0645375D01*
X0646374Y0090832D01*
Y0087833D01*
X0652373Y0092832D02*
X0651373Y0093831D01*
X0649373D01*
X0648374Y0092832D01*
Y0088833D01*
X0649373Y0087833D01*
X0651373D01*
X0652373Y0088833D01*
X0655372Y0087833D02*
X0657371D01*
X0658371Y0088833D01*
Y0090832D01*
X0657371Y0091832D01*
X0655372D01*
X0654372Y0090832D01*
Y0088833D01*
X0655372Y0087833D01*
X0660370D02*
Y0091832D01*
X0663369D01*
X0664369Y0090832D01*
Y0087833D01*
X0667368Y0092832D02*
Y0091832D01*
X0666368D01*
X0668367D01*
X0667368D01*
Y0088833D01*
X0668367Y0087833D01*
X0671366Y0091832D02*
Y0087833D01*
Y0089833D01*
X0672366Y0090832D01*
X0673366Y0091832D01*
X0674365D01*
X0678364Y0087833D02*
X0680364D01*
X0681363Y0088833D01*
Y0090832D01*
X0680364Y0091832D01*
X0678364D01*
X0677364Y0090832D01*
Y0088833D01*
X0678364Y0087833D01*
X0683362D02*
X0685362D01*
X0684362D01*
Y0093831D01*
X0683362D01*
X0520799Y0092832D02*
X0519799Y0093831D01*
X0517800D01*
X0516800Y0092832D01*
Y0091832D01*
X0517800Y0090832D01*
X0519799D01*
X0520799Y0089833D01*
Y0088833D01*
X0519799Y0087833D01*
X0517800D01*
X0516800Y0088833D01*
X0522798Y0093831D02*
Y0089833D01*
X0524797Y0087833D01*
X0526797Y0089833D01*
Y0093831D01*
X0528796Y0087833D02*
Y0093831D01*
X0532795Y0087833D01*
Y0093831D01*
X0540792Y0087833D02*
Y0093831D01*
X0543791D01*
X0544791Y0092832D01*
Y0090832D01*
X0543791Y0089833D01*
X0540792D01*
X0542792D02*
X0544791Y0087833D01*
X0550789Y0093831D02*
X0546790D01*
Y0087833D01*
X0550789D01*
X0546790Y0090832D02*
X0548790D01*
X0552788Y0093831D02*
Y0089833D01*
X0554788Y0087833D01*
X0556787Y0089833D01*
Y0093831D01*
X0558786Y0091832D02*
X0559786D01*
Y0090832D01*
X0558786D01*
Y0091832D01*
Y0088833D02*
X0559786D01*
Y0087833D01*
X0558786D01*
Y0088833D01*
X0433000Y0087833D02*
Y0093831D01*
X0435999D01*
X0436999Y0092832D01*
Y0090832D01*
X0435999Y0089833D01*
X0433000D01*
X0434999D02*
X0436999Y0087833D01*
X0442997Y0093831D02*
X0438998D01*
Y0087833D01*
X0442997D01*
X0438998Y0090832D02*
X0440997D01*
X0444996Y0093831D02*
Y0089833D01*
X0446995Y0087833D01*
X0448995Y0089833D01*
Y0093831D01*
X0450994Y0091832D02*
X0451994D01*
Y0090832D01*
X0450994D01*
Y0091832D01*
Y0088833D02*
X0451994D01*
Y0087833D01*
X0450994D01*
Y0088833D01*
X0130899Y0051965D02*
X0129899Y0052965D01*
X0127900D01*
X0126900Y0051965D01*
Y0047966D01*
X0127900Y0046966D01*
X0129899D01*
X0130899Y0047966D01*
X0132898Y0046966D02*
Y0050965D01*
X0134897Y0052965D01*
X0136897Y0050965D01*
Y0046966D01*
Y0049966D01*
X0132898D01*
X0138896Y0046966D02*
Y0052965D01*
X0141895D01*
X0142895Y0051965D01*
Y0049966D01*
X0141895Y0048966D01*
X0138896D01*
X0144894Y0052965D02*
X0148893D01*
X0146894D01*
Y0046966D01*
X0150892Y0052965D02*
X0152892D01*
X0151892D01*
Y0046966D01*
X0150892D01*
X0152892D01*
X0155891Y0052965D02*
Y0048966D01*
X0157890Y0046966D01*
X0159889Y0048966D01*
Y0052965D01*
X0161889Y0046966D02*
Y0050965D01*
X0163888Y0052965D01*
X0165887Y0050965D01*
Y0046966D01*
Y0049966D01*
X0161889D01*
X0167887Y0052965D02*
X0171885D01*
X0169886D01*
Y0046966D01*
X0177884Y0052965D02*
X0173885D01*
Y0046966D01*
X0177884D01*
X0173885Y0049966D02*
X0175884D01*
X0179883D02*
X0183882D01*
X0185881Y0046966D02*
Y0052965D01*
X0188880D01*
X0189880Y0051965D01*
Y0049966D01*
X0188880Y0048966D01*
X0185881D01*
X0195878Y0051965D02*
X0194878Y0052965D01*
X0192879D01*
X0191879Y0051965D01*
Y0047966D01*
X0192879Y0046966D01*
X0194878D01*
X0195878Y0047966D01*
Y0049966D01*
X0193878D01*
X0197877Y0046966D02*
Y0052965D01*
X0199876Y0050965D01*
X0201876Y0052965D01*
Y0046966D01*
X0203875D02*
Y0052965D01*
X0206874D01*
X0207874Y0051965D01*
Y0049966D01*
X0206874Y0048966D01*
X0203875D01*
X0205874D02*
X0207874Y0046966D01*
X0209873Y0045967D02*
X0213872D01*
X0215871Y0046966D02*
Y0052965D01*
X0218870D01*
X0219870Y0051965D01*
Y0049966D01*
X0218870Y0048966D01*
X0215871D01*
X0217871D02*
X0219870Y0046966D01*
X0225868Y0052965D02*
X0221869D01*
Y0046966D01*
X0225868D01*
X0221869Y0049966D02*
X0223869D01*
X0227867Y0052965D02*
Y0048966D01*
X0229867Y0046966D01*
X0231866Y0048966D01*
Y0052965D01*
X0233865Y0045967D02*
X0237864D01*
X0243862Y0051965D02*
X0242863Y0052965D01*
X0240863D01*
X0239863Y0051965D01*
Y0047966D01*
X0240863Y0046966D01*
X0242863D01*
X0243862Y0047966D01*
X0245862Y0046966D02*
Y0047966D01*
X0246861D01*
Y0046966D01*
X0245862D01*
X0254859Y0051965D02*
X0253859Y0052965D01*
X0251860D01*
X0250860Y0051965D01*
Y0047966D01*
X0251860Y0046966D01*
X0253859D01*
X0254859Y0047966D01*
Y0049966D01*
X0252859D01*
X0256858Y0052965D02*
Y0046966D01*
X0259857D01*
X0260857Y0047966D01*
Y0048966D01*
X0259857Y0049966D01*
X0256858D01*
X0259857D01*
X0260857Y0050965D01*
Y0051965D01*
X0259857Y0052965D01*
X0256858D01*
X0262856D02*
Y0046966D01*
X0266855D01*
X0381150Y0052965D02*
X0385149D01*
Y0051965D01*
X0381150Y0047966D01*
Y0046966D01*
X0387148D02*
X0391147Y0050965D01*
X0397145Y0046966D02*
X0393146D01*
X0397145Y0050965D01*
Y0051965D01*
X0396145Y0052965D01*
X0394146D01*
X0393146Y0051965D01*
X0399144Y0047966D02*
X0400144Y0046966D01*
X0402143D01*
X0403143Y0047966D01*
Y0051965D01*
X0402143Y0052965D01*
X0400144D01*
X0399144Y0051965D01*
Y0050965D01*
X0400144Y0049966D01*
X0403143D01*
X0405142Y0046966D02*
X0409141Y0050965D01*
X0415139Y0046966D02*
X0411140D01*
X0415139Y0050965D01*
Y0051965D01*
X0414139Y0052965D01*
X0412140D01*
X0411140Y0051965D01*
X0417138D02*
X0418138Y0052965D01*
X0420137D01*
X0421137Y0051965D01*
Y0047966D01*
X0420137Y0046966D01*
X0418138D01*
X0417138Y0047966D01*
Y0051965D01*
X0423136Y0046966D02*
X0425136D01*
X0424136D01*
Y0052965D01*
X0423136Y0051965D01*
X0432133Y0052965D02*
X0428135D01*
Y0049966D01*
X0430134Y0050965D01*
X0431134D01*
X0432133Y0049966D01*
Y0047966D01*
X0431134Y0046966D01*
X0429135D01*
X0428135Y0047966D01*
X0298199Y0051965D02*
X0297199Y0052965D01*
X0295200D01*
X0294200Y0051965D01*
Y0047966D01*
X0295200Y0046966D01*
X0297199D01*
X0298199Y0047966D01*
Y0049966D01*
X0296199D01*
X0304197Y0052965D02*
X0300198D01*
Y0046966D01*
X0304197D01*
X0300198Y0049966D02*
X0302197D01*
X0306196Y0046966D02*
Y0052965D01*
X0310195Y0046966D01*
Y0052965D01*
X0316193D02*
X0312194D01*
Y0046966D01*
X0316193D01*
X0312194Y0049966D02*
X0314194D01*
X0318192Y0046966D02*
Y0052965D01*
X0321191D01*
X0322191Y0051965D01*
Y0049966D01*
X0321191Y0048966D01*
X0318192D01*
X0320192D02*
X0322191Y0046966D01*
X0324190D02*
Y0050965D01*
X0326190Y0052965D01*
X0328189Y0050965D01*
Y0046966D01*
Y0049966D01*
X0324190D01*
X0330188Y0052965D02*
X0334187D01*
X0332188D01*
Y0046966D01*
X0340185Y0052965D02*
X0336186D01*
Y0046966D01*
X0340185D01*
X0336186Y0049966D02*
X0338186D01*
X0342184Y0052965D02*
Y0046966D01*
X0345183D01*
X0346183Y0047966D01*
Y0051965D01*
X0345183Y0052965D01*
X0342184D01*
X0372175Y0050965D02*
X0373175D01*
Y0049966D01*
X0372175D01*
Y0050965D01*
Y0047966D02*
X0373175D01*
Y0046966D01*
X0372175D01*
Y0047966D01*
X0046350Y0087833D02*
Y0091832D01*
X0048349Y0093831D01*
X0050349Y0091832D01*
Y0087833D01*
Y0090832D01*
X0046350D01*
X0052348Y0093831D02*
Y0087833D01*
X0056347D01*
X0058346Y0093831D02*
Y0087833D01*
X0062345D01*
X0070342D02*
Y0091832D01*
X0072342Y0093831D01*
X0074341Y0091832D01*
Y0087833D01*
Y0090832D01*
X0070342D01*
X0076340Y0087833D02*
Y0093831D01*
X0079339D01*
X0080339Y0092832D01*
Y0090832D01*
X0079339Y0089833D01*
X0076340D01*
X0078340D02*
X0080339Y0087833D01*
X0082338Y0093831D02*
X0086337D01*
X0084338D01*
Y0087833D01*
X0088336Y0093831D02*
Y0087833D01*
X0090336Y0089833D01*
X0092335Y0087833D01*
Y0093831D01*
X0097334D02*
X0095334D01*
X0094335Y0092832D01*
Y0088833D01*
X0095334Y0087833D01*
X0097334D01*
X0098333Y0088833D01*
Y0092832D01*
X0097334Y0093831D01*
X0100332Y0087833D02*
Y0093831D01*
X0103332D01*
X0104331Y0092832D01*
Y0090832D01*
X0103332Y0089833D01*
X0100332D01*
X0102332D02*
X0104331Y0087833D01*
X0106331Y0093831D02*
Y0087833D01*
Y0089833D01*
X0110329Y0093831D01*
X0107330Y0090832D01*
X0110329Y0087833D01*
X0118327Y0093831D02*
Y0089833D01*
X0120326Y0087833D01*
X0122325Y0089833D01*
Y0093831D01*
X0124325D02*
X0126324D01*
X0125324D01*
Y0087833D01*
X0124325D01*
X0126324D01*
X0133322Y0093831D02*
X0129323D01*
Y0087833D01*
X0133322D01*
X0129323Y0090832D02*
X0131323D01*
X0135321Y0093831D02*
Y0087833D01*
X0137321Y0089833D01*
X0139320Y0087833D01*
Y0093831D01*
X0145318D02*
X0141319D01*
Y0087833D01*
X0145318D01*
X0141319Y0090832D02*
X0143319D01*
X0147317Y0093831D02*
Y0087833D01*
X0150316D01*
X0151316Y0088833D01*
Y0092832D01*
X0150316Y0093831D01*
X0147317D01*
X0163312D02*
X0159313D01*
Y0090832D01*
X0161313D01*
X0159313D01*
Y0087833D01*
X0165312D02*
Y0093831D01*
X0168310D01*
X0169310Y0092832D01*
Y0090832D01*
X0168310Y0089833D01*
X0165312D01*
X0167311D02*
X0169310Y0087833D01*
X0174309Y0093831D02*
X0172309D01*
X0171310Y0092832D01*
Y0088833D01*
X0172309Y0087833D01*
X0174309D01*
X0175308Y0088833D01*
Y0092832D01*
X0174309Y0093831D01*
X0177308Y0087833D02*
Y0093831D01*
X0179307Y0091832D01*
X0181306Y0093831D01*
Y0087833D01*
X0189304Y0093831D02*
X0193303D01*
X0191303D01*
Y0087833D01*
X0198301Y0093831D02*
X0196301D01*
X0195302Y0092832D01*
Y0088833D01*
X0196301Y0087833D01*
X0198301D01*
X0199301Y0088833D01*
Y0092832D01*
X0198301Y0093831D01*
X0201300Y0087833D02*
Y0093831D01*
X0204299D01*
X0205299Y0092832D01*
Y0090832D01*
X0204299Y0089833D01*
X0201300D01*
X0217295Y0092832D02*
X0216295Y0093831D01*
X0214296D01*
X0213296Y0092832D01*
Y0091832D01*
X0214296Y0090832D01*
X0216295D01*
X0217295Y0089833D01*
Y0088833D01*
X0216295Y0087833D01*
X0214296D01*
X0213296Y0088833D01*
X0219294Y0093831D02*
X0221293D01*
X0220294D01*
Y0087833D01*
X0219294D01*
X0221293D01*
X0224292Y0093831D02*
Y0087833D01*
X0227291D01*
X0228291Y0088833D01*
Y0092832D01*
X0227291Y0093831D01*
X0224292D01*
X0234289D02*
X0230291D01*
Y0087833D01*
X0234289D01*
X0230291Y0090832D02*
X0232290D01*
X0466149Y0092832D02*
X0465149Y0093831D01*
X0463150D01*
X0462150Y0092832D01*
Y0088833D01*
X0463150Y0087833D01*
X0465149D01*
X0466149Y0088833D01*
X0352549Y0092832D02*
X0351549Y0093831D01*
X0349550D01*
X0348550Y0092832D01*
Y0088833D01*
X0349550Y0087833D01*
X0351549D01*
X0352549Y0088833D01*
X0354548Y0087833D02*
Y0091832D01*
X0356547Y0093831D01*
X0358547Y0091832D01*
Y0087833D01*
Y0090832D01*
X0354548D01*
X0360546Y0087833D02*
Y0093831D01*
X0363545D01*
X0364545Y0092832D01*
Y0090832D01*
X0363545Y0089833D01*
X0360546D01*
X0366544Y0093831D02*
X0370543D01*
X0368544D01*
Y0087833D01*
X0372542Y0093831D02*
X0374542D01*
X0373542D01*
Y0087833D01*
X0372542D01*
X0374542D01*
X0377541Y0093831D02*
Y0089833D01*
X0379540Y0087833D01*
X0381539Y0089833D01*
Y0093831D01*
X0383539Y0087833D02*
Y0091832D01*
X0385538Y0093831D01*
X0387537Y0091832D01*
Y0087833D01*
Y0090832D01*
X0383539D01*
X0389537Y0093831D02*
X0393535D01*
X0391536D01*
Y0087833D01*
X0399534Y0093831D02*
X0395535D01*
Y0087833D01*
X0399534D01*
X0395535Y0090832D02*
X0397534D01*
X0401533D02*
X0405532D01*
X0407531Y0087833D02*
Y0093831D01*
X0410530D01*
X0411530Y0092832D01*
Y0090832D01*
X0410530Y0089833D01*
X0407531D01*
X0417528Y0092832D02*
X0416528Y0093831D01*
X0414529D01*
X0413529Y0092832D01*
Y0088833D01*
X0414529Y0087833D01*
X0416528D01*
X0417528Y0088833D01*
Y0090832D01*
X0415528D01*
X0419527Y0087833D02*
Y0093831D01*
X0421526Y0091832D01*
X0423526Y0093831D01*
Y0087833D01*
X0425525D02*
Y0093831D01*
X0428524D01*
X0429524Y0092832D01*
Y0090832D01*
X0428524Y0089833D01*
X0425525D01*
X0427524D02*
X0429524Y0087833D01*
X0294000Y0093831D02*
Y0087833D01*
X0296999D01*
X0297999Y0088833D01*
Y0089833D01*
X0296999Y0090832D01*
X0294000D01*
X0296999D01*
X0297999Y0091832D01*
Y0092832D01*
X0296999Y0093831D01*
X0294000D01*
X0302997D02*
X0300998D01*
X0299998Y0092832D01*
Y0088833D01*
X0300998Y0087833D01*
X0302997D01*
X0303997Y0088833D01*
Y0092832D01*
X0302997Y0093831D01*
X0305996Y0087833D02*
Y0091832D01*
X0307996Y0093831D01*
X0309995Y0091832D01*
Y0087833D01*
Y0090832D01*
X0305996D01*
X0311994Y0087833D02*
Y0093831D01*
X0314993D01*
X0315993Y0092832D01*
Y0090832D01*
X0314993Y0089833D01*
X0311994D01*
X0313994D02*
X0315993Y0087833D01*
X0317992Y0093831D02*
Y0087833D01*
X0320991D01*
X0321991Y0088833D01*
Y0092832D01*
X0320991Y0093831D01*
X0317992D01*
X0330988Y0087833D02*
Y0093831D01*
X0332987D02*
Y0087833D01*
X0329988Y0091832D02*
X0332987D01*
X0333987D01*
X0329988Y0089833D02*
X0333987D01*
X0335986Y0091832D02*
X0336986D01*
Y0090832D01*
X0335986D01*
Y0091832D01*
Y0088833D02*
X0336986D01*
Y0087833D01*
X0335986D01*
Y0088833D01*
X0046350Y0073549D02*
Y0067551D01*
X0050349D01*
X0052348D02*
Y0071549D01*
X0054347Y0073549D01*
X0056347Y0071549D01*
Y0067551D01*
Y0070550D01*
X0052348D01*
X0058346Y0073549D02*
Y0072549D01*
X0060346Y0070550D01*
X0062345Y0072549D01*
Y0073549D01*
X0060346Y0070550D02*
Y0067551D01*
X0068343Y0073549D02*
X0064344D01*
Y0067551D01*
X0068343D01*
X0064344Y0070550D02*
X0066343D01*
X0070342Y0067551D02*
Y0073549D01*
X0073341D01*
X0074341Y0072549D01*
Y0070550D01*
X0073341Y0069550D01*
X0070342D01*
X0072342D02*
X0074341Y0067551D01*
X0082338D02*
Y0073549D01*
X0086337Y0067551D01*
Y0073549D01*
X0088336Y0067551D02*
Y0071549D01*
X0090336Y0073549D01*
X0092335Y0071549D01*
Y0067551D01*
Y0070550D01*
X0088336D01*
X0094335Y0067551D02*
Y0073549D01*
X0096334Y0071549D01*
X0098333Y0073549D01*
Y0067551D01*
X0104331Y0073549D02*
X0100332D01*
Y0067551D01*
X0104331D01*
X0100332Y0070550D02*
X0102332D01*
X0112329Y0069550D02*
X0116327D01*
X0112329Y0071549D02*
X0116327D01*
X0046350Y0046966D02*
Y0052965D01*
X0049349D01*
X0050349Y0051965D01*
Y0049966D01*
X0049349Y0048966D01*
X0046350D01*
X0052348Y0052965D02*
Y0046966D01*
X0056347D01*
X0061345Y0052965D02*
X0059346D01*
X0058346Y0051965D01*
Y0047966D01*
X0059346Y0046966D01*
X0061345D01*
X0062345Y0047966D01*
Y0051965D01*
X0061345Y0052965D01*
X0064344D02*
X0068343D01*
X0066343D01*
Y0046966D01*
X0076340D02*
Y0052965D01*
X0080339Y0046966D01*
Y0052965D01*
X0082338Y0046966D02*
Y0050965D01*
X0084338Y0052965D01*
X0086337Y0050965D01*
Y0046966D01*
Y0049966D01*
X0082338D01*
X0088336Y0046966D02*
Y0052965D01*
X0090336Y0050965D01*
X0092335Y0052965D01*
Y0046966D01*
X0098333Y0052965D02*
X0094335D01*
Y0046966D01*
X0098333D01*
X0094335Y0049966D02*
X0096334D01*
X0106331Y0048966D02*
X0110329D01*
X0106331Y0050965D02*
X0110329D01*
X0457049Y0046966D02*
Y0052965D01*
X0454050Y0049966D01*
X0458049D01*
X0460048Y0050965D02*
X0461048D01*
Y0049966D01*
X0460048D01*
Y0050965D01*
Y0047966D02*
X0461048D01*
Y0046966D01*
X0460048D01*
Y0047966D01*
X0468046Y0046966D02*
Y0052965D01*
X0465046Y0049966D01*
X0469045D01*
X0475043Y0046966D02*
X0471044D01*
X0475043Y0050965D01*
Y0051965D01*
X0474044Y0052965D01*
X0472044D01*
X0471044Y0051965D01*
X0477043Y0050965D02*
X0478042D01*
Y0049966D01*
X0477043D01*
Y0050965D01*
Y0047966D02*
X0478042D01*
Y0046966D01*
X0477043D01*
Y0047966D01*
X0486040Y0052965D02*
X0482041D01*
Y0049966D01*
X0484040Y0050965D01*
X0485040D01*
X0486040Y0049966D01*
Y0047966D01*
X0485040Y0046966D01*
X0483041D01*
X0482041Y0047966D01*
X0488039Y0051965D02*
X0489039Y0052965D01*
X0491038D01*
X0492038Y0051965D01*
Y0050965D01*
X0491038Y0049966D01*
X0490038D01*
X0491038D01*
X0492038Y0048966D01*
Y0047966D01*
X0491038Y0046966D01*
X0489039D01*
X0488039Y0047966D01*
X0500035Y0046966D02*
Y0052965D01*
X0503034D01*
X0504034Y0051965D01*
Y0049966D01*
X0503034Y0048966D01*
X0500035D01*
X0506033Y0046966D02*
Y0052965D01*
X0508033Y0050965D01*
X0510032Y0052965D01*
Y0046966D01*
X0580500Y0052965D02*
X0584499D01*
X0582499D01*
Y0046966D01*
X0590497Y0052965D02*
X0586498D01*
Y0046966D01*
X0590497D01*
X0586498Y0049966D02*
X0588497D01*
X0592496Y0052965D02*
X0596495Y0046966D01*
Y0052965D02*
X0592496Y0046966D01*
X0598494D02*
Y0050965D01*
X0600493Y0052965D01*
X0602493Y0050965D01*
Y0046966D01*
Y0049966D01*
X0598494D01*
X0608491Y0051965D02*
X0607491Y0052965D01*
X0605492D01*
X0604492Y0051965D01*
Y0050965D01*
X0605492Y0049966D01*
X0607491D01*
X0608491Y0048966D01*
Y0047966D01*
X0607491Y0046966D01*
X0605492D01*
X0604492Y0047966D01*
X0616488Y0052965D02*
X0618488D01*
X0617488D01*
Y0046966D01*
X0616488D01*
X0618488D01*
X0621487D02*
Y0052965D01*
X0625486Y0046966D01*
Y0052965D01*
X0631484Y0051965D02*
X0630484Y0052965D01*
X0628484D01*
X0627485Y0051965D01*
Y0050965D01*
X0628484Y0049966D01*
X0630484D01*
X0631484Y0048966D01*
Y0047966D01*
X0630484Y0046966D01*
X0628484D01*
X0627485Y0047966D01*
X0633483Y0052965D02*
X0637482D01*
X0635482D01*
Y0046966D01*
X0639481D02*
Y0052965D01*
X0642480D01*
X0643480Y0051965D01*
Y0049966D01*
X0642480Y0048966D01*
X0639481D01*
X0641480D02*
X0643480Y0046966D01*
X0645479Y0052965D02*
Y0047966D01*
X0646479Y0046966D01*
X0648478D01*
X0649478Y0047966D01*
Y0052965D01*
X0651477Y0046966D02*
Y0052965D01*
X0653476Y0050965D01*
X0655476Y0052965D01*
Y0046966D01*
X0661474Y0052965D02*
X0657475D01*
Y0046966D01*
X0661474D01*
X0657475Y0049966D02*
X0659474D01*
X0663473Y0046966D02*
Y0052965D01*
X0667472Y0046966D01*
Y0052965D01*
X0669471D02*
X0673470D01*
X0671471D01*
Y0046966D01*
X0679468Y0051965D02*
X0678468Y0052965D01*
X0676469D01*
X0675469Y0051965D01*
Y0050965D01*
X0676469Y0049966D01*
X0678468D01*
X0679468Y0048966D01*
Y0047966D01*
X0678468Y0046966D01*
X0676469D01*
X0675469Y0047966D01*
G54D42*
X0497200Y0080717D02*
Y0101050D01*
X0413200Y0080717D02*
Y0101050D01*
X0040000Y0080717D02*
X0700200D01*
X0040000Y0060383D02*
X0700000D01*
X0040000Y0040050D02*
X0440500D01*
X0040050Y0101050D02*
X0700200D01*
X0040050Y0040050D02*
Y0101050D01*
Y0040050D02*
X0197600D01*
X0040000D02*
Y0101050D01*
X0286500Y0040050D02*
Y0101050D01*
X0700200Y0040050D02*
Y0101050D01*
X0440500Y0040050D02*
X0700200D01*
X0559400Y0039400D02*
Y0059683D01*
G54D43*
X0505200Y0494400D02*
Y0513900D01*
X0495700Y0523400D02*
X0505200Y0513900D01*
X0459200Y0523400D02*
X0495700D01*
X0499200Y0488400D02*
X0505200Y0494400D01*
X0448200Y0523400D02*
X0459200D01*
X0444200Y0519400D02*
X0448200Y0523400D01*
X0444200Y0512719D02*
Y0519400D01*
X0441381Y0509900D02*
X0444200Y0512719D01*
X0438200Y0509900D02*
X0441381D01*
G54D44*
X0484200Y0483400D02*
Y0502400D01*
X0479200Y0507400D02*
X0484200Y0502400D01*
X0460700Y0507400D02*
X0479200D01*
X0484200Y0483400D02*
X0489200Y0478400D01*
X0430668Y0459868D02*
Y0459932D01*
X0419442Y0448642D02*
X0430668Y0459868D01*
X0419442Y0402642D02*
Y0448642D01*
X0411700Y0394900D02*
X0419442Y0402642D01*
G54D47*
X0494200Y0512900D02*
D03*
X0479200Y0488400D02*
D03*
Y0498400D02*
D03*
X0469200D02*
D03*
Y0488400D02*
D03*
X0479200Y0478400D02*
D03*
X0469200D02*
D03*
X0479200Y0468400D02*
D03*
X0469200D02*
D03*
G54D48*
X0489200Y0498400D02*
D03*
X0499200D02*
D03*
X0489200Y0488400D02*
D03*
X0499200D02*
D03*
X0489200Y0478400D02*
D03*
X0499200D02*
D03*
X0489200Y0468400D02*
D03*
X0499200D02*
D03*
X0489200Y0458400D02*
D03*
X0499200D02*
D03*
X0489200Y0448400D02*
D03*
X0499200D02*
D03*
X0489200Y0438400D02*
D03*
X0499200D02*
D03*
X0489200Y0428400D02*
D03*
X0499200D02*
D03*
X0489200Y0418400D02*
D03*
X0499200D02*
D03*
X0489200Y0408400D02*
D03*
G54D49*
X0499200D02*
D03*
G54D50*
X0411700Y0355900D02*
D03*
G54D51*
X0514200Y0520900D02*
D03*
Y0385900D02*
D03*
G54D52*
X0384200Y0551900D02*
D03*
X0334700Y0538400D02*
D03*
X0384200Y0519400D02*
D03*
X0437200Y0430400D02*
D03*
X0428200Y0415900D02*
D03*
X0440200Y0354900D02*
D03*
X0421700D02*
D03*
X0406700Y0490900D02*
D03*
X0454700Y0504400D02*
D03*
X0459200Y0531400D02*
D03*
Y0523400D02*
D03*
X0515200Y0532400D02*
D03*
X0454700Y0518900D02*
D03*
X0448700Y0507400D02*
D03*
X0449200Y0529400D02*
D03*
X0460700Y0507400D02*
D03*
X0449200Y0516400D02*
D03*
X0389200Y0463900D02*
D03*
X0452700Y0451900D02*
D03*
X0466200Y0453900D02*
D03*
X0424700Y0442400D02*
D03*
X0456700Y0448900D02*
D03*
X0454700Y0445400D02*
D03*
X0438200Y0448400D02*
D03*
X0427700Y0445400D02*
D03*
X0416200Y0455400D02*
D03*
X0411200Y0454400D02*
D03*
X0407200Y0461900D02*
D03*
X0404700Y0465400D02*
D03*
X0423700Y0549900D02*
D03*
X0428200Y0545400D02*
D03*
X0397200Y0541900D02*
D03*
X0402200Y0539900D02*
D03*
X0401200Y0445400D02*
D03*
X0409450Y0550900D02*
D03*
X0405200Y0546400D02*
D03*
X0462700Y0511900D02*
D03*
X0337700Y0489400D02*
D03*
X0367200Y0495400D02*
D03*
X0371200Y0493400D02*
D03*
Y0482400D02*
D03*
X0367200Y0485400D02*
D03*
X0354200Y0472400D02*
D03*
X0356200Y0476400D02*
D03*
X0346200D02*
D03*
X0343200Y0472400D02*
D03*
X0430700Y0465900D02*
D03*
X0443700Y0451900D02*
D03*
X0406200Y0434400D02*
D03*
X0430700Y0471900D02*
D03*
Y0475900D02*
D03*
X0439700Y0473900D02*
D03*
X0456700Y0416900D02*
D03*
X0450700Y0410900D02*
D03*
X0424200Y0434400D02*
D03*
X0423200Y0415900D02*
D03*
X0402200Y0403400D02*
D03*
X0415200Y0411900D02*
D03*
X0350342Y0541432D02*
D03*
X0339200Y0481400D02*
D03*
X0342200Y0504900D02*
D03*
X0328700Y0505400D02*
D03*
X0339200Y0476400D02*
D03*
X0374200Y0474400D02*
D03*
X0405200Y0515400D02*
D03*
X0431700D02*
D03*
X0438200Y0514400D02*
D03*
Y0509900D02*
D03*
X0414700Y0373400D02*
D03*
X0411200Y0375900D02*
D03*
X0381700Y0397400D02*
D03*
X0375700Y0376400D02*
D03*
X0349200Y0384900D02*
D03*
Y0390900D02*
D03*
X0386200Y0362900D02*
D03*
X0329507Y0557932D02*
D03*
X0333050Y0547892D02*
D03*
X0357460D02*
D03*
X0361003Y0557932D02*
D03*
X0348700D02*
D03*
X0341810D02*
D03*
X0320700Y0483400D02*
D03*
Y0498900D02*
D03*
X0342200Y0531900D02*
D03*
X0430668Y0459932D02*
D03*
X0502700Y0552400D02*
D03*
X0477700Y0511900D02*
D03*
X0415700Y0502400D02*
D03*
X0422200Y0496900D02*
D03*
X0389200Y0515400D02*
D03*
X0411700Y0399900D02*
D03*
Y0394900D02*
D03*
X0407200Y0527400D02*
D03*
X0395700Y0442400D02*
D03*
X0389200Y0504900D02*
D03*
X0438200Y0505900D02*
D03*
X0428200Y0489400D02*
D03*
X0425200Y0492900D02*
D03*
X0461700Y0400900D02*
D03*
X0371200Y0508400D02*
D03*
X0433700Y0547900D02*
D03*
X0429700Y0430400D02*
D03*
X0465200Y0439900D02*
D03*
X0461700Y0406400D02*
D03*
X0448700Y0542900D02*
D03*
X0432200Y0539400D02*
D03*
X0362700Y0535900D02*
D03*
G54D53*
X0416318Y0379018D02*
D03*
Y0386400D02*
D03*
Y0393782D02*
D03*
X0420009Y0386400D02*
D03*
X0423700Y0379018D02*
D03*
Y0382709D02*
D03*
Y0386400D02*
D03*
Y0390091D02*
D03*
Y0393782D02*
D03*
X0427391Y0386400D02*
D03*
X0431082Y0379018D02*
D03*
Y0386400D02*
D03*
Y0393782D02*
D03*
X0425582Y0474282D02*
D03*
Y0466900D02*
D03*
Y0459518D02*
D03*
X0421891Y0466900D02*
D03*
X0418200Y0474282D02*
D03*
Y0470591D02*
D03*
Y0466900D02*
D03*
Y0463209D02*
D03*
Y0459518D02*
D03*
X0414509Y0466900D02*
D03*
X0410818Y0474282D02*
D03*
Y0466900D02*
D03*
Y0459518D02*
D03*
X0352200Y0497207D02*
D03*
X0346393Y0491400D02*
D03*
X0352200D02*
D03*
X0358007D02*
D03*
X0352200Y0485593D02*
D03*
X0369731Y0533931D02*
D03*
Y0537868D02*
D03*
X0373669D02*
D03*
Y0533931D02*
D03*
X0416700Y0534569D02*
D03*
X0421031Y0538900D02*
D03*
X0416700D02*
D03*
X0412369D02*
D03*
X0416700Y0543231D02*
D03*
M02*
