G04 Layer_Color=8388736*
%FSAX25Y25*%
%MOIN*%
G70*
G01*
G75*
%ADD48C,0.01000*%
%ADD49C,0.00800*%
%ADD60C,0.06496*%
%ADD87R,0.04331X0.04134*%
%ADD88R,0.04134X0.04331*%
G04:AMPARAMS|DCode=89|XSize=22.44mil|YSize=27.56mil|CornerRadius=3.91mil|HoleSize=0mil|Usage=FLASHONLY|Rotation=270.000|XOffset=0mil|YOffset=0mil|HoleType=Round|Shape=RoundedRectangle|*
%AMROUNDEDRECTD89*
21,1,0.02244,0.01974,0,0,270.0*
21,1,0.01462,0.02756,0,0,270.0*
1,1,0.00782,-0.00987,-0.00731*
1,1,0.00782,-0.00987,0.00731*
1,1,0.00782,0.00987,0.00731*
1,1,0.00782,0.00987,-0.00731*
%
%ADD89ROUNDEDRECTD89*%
%ADD90R,0.03543X0.02756*%
%ADD91R,0.02756X0.03543*%
G04:AMPARAMS|DCode=92|XSize=27.56mil|YSize=35.43mil|CornerRadius=0mil|HoleSize=0mil|Usage=FLASHONLY|Rotation=315.000|XOffset=0mil|YOffset=0mil|HoleType=Round|Shape=Rectangle|*
%AMROTATEDRECTD92*
4,1,4,-0.02227,-0.00278,0.00278,0.02227,0.02227,0.00278,-0.00278,-0.02227,-0.02227,-0.00278,0.0*
%
%ADD92ROTATEDRECTD92*%

G04:AMPARAMS|DCode=93|XSize=27.56mil|YSize=35.43mil|CornerRadius=0mil|HoleSize=0mil|Usage=FLASHONLY|Rotation=225.000|XOffset=0mil|YOffset=0mil|HoleType=Round|Shape=Rectangle|*
%AMROTATEDRECTD93*
4,1,4,-0.00278,0.02227,0.02227,-0.00278,0.00278,-0.02227,-0.02227,0.00278,-0.00278,0.02227,0.0*
%
%ADD93ROTATEDRECTD93*%

G04:AMPARAMS|DCode=94|XSize=74.8mil|YSize=59.06mil|CornerRadius=3.9mil|HoleSize=0mil|Usage=FLASHONLY|Rotation=90.000|XOffset=0mil|YOffset=0mil|HoleType=Round|Shape=RoundedRectangle|*
%AMROUNDEDRECTD94*
21,1,0.07480,0.05126,0,0,90.0*
21,1,0.06701,0.05906,0,0,90.0*
1,1,0.00780,0.02563,0.03350*
1,1,0.00780,0.02563,-0.03350*
1,1,0.00780,-0.02563,-0.03350*
1,1,0.00780,-0.02563,0.03350*
%
%ADD94ROUNDEDRECTD94*%
G04:AMPARAMS|DCode=95|XSize=74.8mil|YSize=59.06mil|CornerRadius=3.9mil|HoleSize=0mil|Usage=FLASHONLY|Rotation=0.000|XOffset=0mil|YOffset=0mil|HoleType=Round|Shape=RoundedRectangle|*
%AMROUNDEDRECTD95*
21,1,0.07480,0.05126,0,0,0.0*
21,1,0.06701,0.05906,0,0,0.0*
1,1,0.00780,0.03350,-0.02563*
1,1,0.00780,-0.03350,-0.02563*
1,1,0.00780,-0.03350,0.02563*
1,1,0.00780,0.03350,0.02563*
%
%ADD95ROUNDEDRECTD95*%
%ADD96R,0.03543X0.03543*%
G04:AMPARAMS|DCode=97|XSize=39.37mil|YSize=55.12mil|CornerRadius=3.92mil|HoleSize=0mil|Usage=FLASHONLY|Rotation=270.000|XOffset=0mil|YOffset=0mil|HoleType=Round|Shape=RoundedRectangle|*
%AMROUNDEDRECTD97*
21,1,0.03937,0.04728,0,0,270.0*
21,1,0.03154,0.05512,0,0,270.0*
1,1,0.00784,-0.02364,-0.01577*
1,1,0.00784,-0.02364,0.01577*
1,1,0.00784,0.02364,0.01577*
1,1,0.00784,0.02364,-0.01577*
%
%ADD97ROUNDEDRECTD97*%
G04:AMPARAMS|DCode=98|XSize=61.02mil|YSize=43.31mil|CornerRadius=3.94mil|HoleSize=0mil|Usage=FLASHONLY|Rotation=270.000|XOffset=0mil|YOffset=0mil|HoleType=Round|Shape=RoundedRectangle|*
%AMROUNDEDRECTD98*
21,1,0.06102,0.03543,0,0,270.0*
21,1,0.05315,0.04331,0,0,270.0*
1,1,0.00787,-0.01772,-0.02658*
1,1,0.00787,-0.01772,0.02658*
1,1,0.00787,0.01772,0.02658*
1,1,0.00787,0.01772,-0.02658*
%
%ADD98ROUNDEDRECTD98*%
G04:AMPARAMS|DCode=99|XSize=39.37mil|YSize=55.12mil|CornerRadius=3.92mil|HoleSize=0mil|Usage=FLASHONLY|Rotation=0.000|XOffset=0mil|YOffset=0mil|HoleType=Round|Shape=RoundedRectangle|*
%AMROUNDEDRECTD99*
21,1,0.03937,0.04728,0,0,0.0*
21,1,0.03154,0.05512,0,0,0.0*
1,1,0.00784,0.01577,-0.02364*
1,1,0.00784,-0.01577,-0.02364*
1,1,0.00784,-0.01577,0.02364*
1,1,0.00784,0.01577,0.02364*
%
%ADD99ROUNDEDRECTD99*%
G04:AMPARAMS|DCode=100|XSize=61.02mil|YSize=43.31mil|CornerRadius=3.94mil|HoleSize=0mil|Usage=FLASHONLY|Rotation=0.000|XOffset=0mil|YOffset=0mil|HoleType=Round|Shape=RoundedRectangle|*
%AMROUNDEDRECTD100*
21,1,0.06102,0.03543,0,0,0.0*
21,1,0.05315,0.04331,0,0,0.0*
1,1,0.00787,0.02658,-0.01772*
1,1,0.00787,-0.02658,-0.01772*
1,1,0.00787,-0.02658,0.01772*
1,1,0.00787,0.02658,0.01772*
%
%ADD100ROUNDEDRECTD100*%
%ADD101R,0.07677X0.05512*%
%ADD102R,0.02756X0.08268*%
%ADD103R,0.01772X0.01181*%
%ADD104R,0.01575X0.01181*%
%ADD105R,0.01378X0.03150*%
%ADD106R,0.01378X0.02992*%
%ADD107R,0.04331X0.07480*%
G04:AMPARAMS|DCode=108|XSize=62.01mil|YSize=86.61mil|CornerRadius=4mil|HoleSize=0mil|Usage=FLASHONLY|Rotation=0.000|XOffset=0mil|YOffset=0mil|HoleType=Round|Shape=RoundedRectangle|*
%AMROUNDEDRECTD108*
21,1,0.06201,0.07861,0,0,0.0*
21,1,0.05401,0.08661,0,0,0.0*
1,1,0.00800,0.02700,-0.03931*
1,1,0.00800,-0.02700,-0.03931*
1,1,0.00800,-0.02700,0.03931*
1,1,0.00800,0.02700,0.03931*
%
%ADD108ROUNDEDRECTD108*%
G04:AMPARAMS|DCode=109|XSize=58.07mil|YSize=78.74mil|CornerRadius=3.86mil|HoleSize=0mil|Usage=FLASHONLY|Rotation=0.000|XOffset=0mil|YOffset=0mil|HoleType=Round|Shape=RoundedRectangle|*
%AMROUNDEDRECTD109*
21,1,0.05807,0.07101,0,0,0.0*
21,1,0.05034,0.07874,0,0,0.0*
1,1,0.00773,0.02517,-0.03551*
1,1,0.00773,-0.02517,-0.03551*
1,1,0.00773,-0.02517,0.03551*
1,1,0.00773,0.02517,0.03551*
%
%ADD109ROUNDEDRECTD109*%
G04:AMPARAMS|DCode=110|XSize=21.65mil|YSize=58.27mil|CornerRadius=3.92mil|HoleSize=0mil|Usage=FLASHONLY|Rotation=0.000|XOffset=0mil|YOffset=0mil|HoleType=Round|Shape=RoundedRectangle|*
%AMROUNDEDRECTD110*
21,1,0.02165,0.05043,0,0,0.0*
21,1,0.01382,0.05827,0,0,0.0*
1,1,0.00784,0.00691,-0.02522*
1,1,0.00784,-0.00691,-0.02522*
1,1,0.00784,-0.00691,0.02522*
1,1,0.00784,0.00691,0.02522*
%
%ADD110ROUNDEDRECTD110*%
G04:AMPARAMS|DCode=111|XSize=106.36mil|YSize=19.75mil|CornerRadius=0mil|HoleSize=0mil|Usage=FLASHONLY|Rotation=45.000|XOffset=0mil|YOffset=0mil|HoleType=Round|Shape=Rectangle|*
%AMROTATEDRECTD111*
4,1,4,-0.03062,-0.04459,-0.04459,-0.03062,0.03062,0.04459,0.04459,0.03062,-0.03062,-0.04459,0.0*
%
%ADD111ROTATEDRECTD111*%

G04:AMPARAMS|DCode=112|XSize=171.26mil|YSize=171.26mil|CornerRadius=3.64mil|HoleSize=0mil|Usage=FLASHONLY|Rotation=135.000|XOffset=0mil|YOffset=0mil|HoleType=Round|Shape=RoundedRectangle|*
%AMROUNDEDRECTD112*
21,1,0.17126,0.16398,0,0,135.0*
21,1,0.16398,0.17126,0,0,135.0*
1,1,0.00728,0.00000,0.11595*
1,1,0.00728,0.11595,0.00000*
1,1,0.00728,0.00000,-0.11595*
1,1,0.00728,-0.11595,0.00000*
%
%ADD112ROUNDEDRECTD112*%
G04:AMPARAMS|DCode=113|XSize=14.96mil|YSize=29.13mil|CornerRadius=4.74mil|HoleSize=0mil|Usage=FLASHONLY|Rotation=315.000|XOffset=0mil|YOffset=0mil|HoleType=Round|Shape=RoundedRectangle|*
%AMROUNDEDRECTD113*
21,1,0.01496,0.01965,0,0,315.0*
21,1,0.00548,0.02913,0,0,315.0*
1,1,0.00948,-0.00501,-0.00889*
1,1,0.00948,-0.00889,-0.00501*
1,1,0.00948,0.00501,0.00889*
1,1,0.00948,0.00889,0.00501*
%
%ADD113ROUNDEDRECTD113*%
G04:AMPARAMS|DCode=114|XSize=14.96mil|YSize=29.13mil|CornerRadius=4.74mil|HoleSize=0mil|Usage=FLASHONLY|Rotation=45.000|XOffset=0mil|YOffset=0mil|HoleType=Round|Shape=RoundedRectangle|*
%AMROUNDEDRECTD114*
21,1,0.01496,0.01965,0,0,45.0*
21,1,0.00548,0.02913,0,0,45.0*
1,1,0.00948,0.00889,-0.00501*
1,1,0.00948,0.00501,-0.00889*
1,1,0.00948,-0.00889,0.00501*
1,1,0.00948,-0.00501,0.00889*
%
%ADD114ROUNDEDRECTD114*%
G04:AMPARAMS|DCode=115|XSize=13.39mil|YSize=27.56mil|CornerRadius=3.95mil|HoleSize=0mil|Usage=FLASHONLY|Rotation=90.000|XOffset=0mil|YOffset=0mil|HoleType=Round|Shape=RoundedRectangle|*
%AMROUNDEDRECTD115*
21,1,0.01339,0.01965,0,0,90.0*
21,1,0.00548,0.02756,0,0,90.0*
1,1,0.00791,0.00983,0.00274*
1,1,0.00791,0.00983,-0.00274*
1,1,0.00791,-0.00983,-0.00274*
1,1,0.00791,-0.00983,0.00274*
%
%ADD115ROUNDEDRECTD115*%
G04:AMPARAMS|DCode=116|XSize=13.39mil|YSize=27.56mil|CornerRadius=3.95mil|HoleSize=0mil|Usage=FLASHONLY|Rotation=0.000|XOffset=0mil|YOffset=0mil|HoleType=Round|Shape=RoundedRectangle|*
%AMROUNDEDRECTD116*
21,1,0.01339,0.01965,0,0,0.0*
21,1,0.00548,0.02756,0,0,0.0*
1,1,0.00791,0.00274,-0.00983*
1,1,0.00791,-0.00274,-0.00983*
1,1,0.00791,-0.00274,0.00983*
1,1,0.00791,0.00274,0.00983*
%
%ADD116ROUNDEDRECTD116*%
G04:AMPARAMS|DCode=117|XSize=110.24mil|YSize=110.24mil|CornerRadius=4.1mil|HoleSize=0mil|Usage=FLASHONLY|Rotation=0.000|XOffset=0mil|YOffset=0mil|HoleType=Round|Shape=RoundedRectangle|*
%AMROUNDEDRECTD117*
21,1,0.11024,0.10205,0,0,0.0*
21,1,0.10205,0.11024,0,0,0.0*
1,1,0.00819,0.05102,-0.05102*
1,1,0.00819,-0.05102,-0.05102*
1,1,0.00819,-0.05102,0.05102*
1,1,0.00819,0.05102,0.05102*
%
%ADD117ROUNDEDRECTD117*%
%ADD118O,0.02756X0.01575*%
%ADD119O,0.01575X0.02756*%
%ADD120R,0.11024X0.11024*%
G04:AMPARAMS|DCode=121|XSize=13.78mil|YSize=25.59mil|CornerRadius=3.94mil|HoleSize=0mil|Usage=FLASHONLY|Rotation=90.000|XOffset=0mil|YOffset=0mil|HoleType=Round|Shape=RoundedRectangle|*
%AMROUNDEDRECTD121*
21,1,0.01378,0.01772,0,0,90.0*
21,1,0.00591,0.02559,0,0,90.0*
1,1,0.00787,0.00886,0.00295*
1,1,0.00787,0.00886,-0.00295*
1,1,0.00787,-0.00886,-0.00295*
1,1,0.00787,-0.00886,0.00295*
%
%ADD121ROUNDEDRECTD121*%
G04:AMPARAMS|DCode=122|XSize=11.81mil|YSize=25.59mil|CornerRadius=3.94mil|HoleSize=0mil|Usage=FLASHONLY|Rotation=90.000|XOffset=0mil|YOffset=0mil|HoleType=Round|Shape=RoundedRectangle|*
%AMROUNDEDRECTD122*
21,1,0.01181,0.01772,0,0,90.0*
21,1,0.00394,0.02559,0,0,90.0*
1,1,0.00787,0.00886,0.00197*
1,1,0.00787,0.00886,-0.00197*
1,1,0.00787,-0.00886,-0.00197*
1,1,0.00787,-0.00886,0.00197*
%
%ADD122ROUNDEDRECTD122*%
G04:AMPARAMS|DCode=123|XSize=15.75mil|YSize=27.56mil|CornerRadius=3.92mil|HoleSize=0mil|Usage=FLASHONLY|Rotation=0.000|XOffset=0mil|YOffset=0mil|HoleType=Round|Shape=RoundedRectangle|*
%AMROUNDEDRECTD123*
21,1,0.01575,0.01972,0,0,0.0*
21,1,0.00791,0.02756,0,0,0.0*
1,1,0.00784,0.00396,-0.00986*
1,1,0.00784,-0.00396,-0.00986*
1,1,0.00784,-0.00396,0.00986*
1,1,0.00784,0.00396,0.00986*
%
%ADD123ROUNDEDRECTD123*%
G04:AMPARAMS|DCode=124|XSize=43.31mil|YSize=66.93mil|CornerRadius=11.81mil|HoleSize=0mil|Usage=FLASHONLY|Rotation=90.000|XOffset=0mil|YOffset=0mil|HoleType=Round|Shape=RoundedRectangle|*
%AMROUNDEDRECTD124*
21,1,0.04331,0.04331,0,0,90.0*
21,1,0.01969,0.06693,0,0,90.0*
1,1,0.02362,0.02165,0.00984*
1,1,0.02362,0.02165,-0.00984*
1,1,0.02362,-0.02165,-0.00984*
1,1,0.02362,-0.02165,0.00984*
%
%ADD124ROUNDEDRECTD124*%
%ADD125O,0.06693X0.04331*%
%ADD126C,0.15000*%
%ADD127C,0.08394*%
G04:AMPARAMS|DCode=128|XSize=68.9mil|YSize=68.9mil|CornerRadius=3.92mil|HoleSize=0mil|Usage=FLASHONLY|Rotation=270.000|XOffset=0mil|YOffset=0mil|HoleType=Round|Shape=RoundedRectangle|*
%AMROUNDEDRECTD128*
21,1,0.06890,0.06106,0,0,270.0*
21,1,0.06106,0.06890,0,0,270.0*
1,1,0.00784,-0.03053,-0.03053*
1,1,0.00784,-0.03053,0.03053*
1,1,0.00784,0.03053,0.03053*
1,1,0.00784,0.03053,-0.03053*
%
%ADD128ROUNDEDRECTD128*%
%ADD129C,0.06890*%
G04:AMPARAMS|DCode=130|XSize=64.96mil|YSize=64.96mil|CornerRadius=3.8mil|HoleSize=0mil|Usage=FLASHONLY|Rotation=270.000|XOffset=0mil|YOffset=0mil|HoleType=Round|Shape=RoundedRectangle|*
%AMROUNDEDRECTD130*
21,1,0.06496,0.05736,0,0,270.0*
21,1,0.05736,0.06496,0,0,270.0*
1,1,0.00760,-0.02868,-0.02868*
1,1,0.00760,-0.02868,0.02868*
1,1,0.00760,0.02868,0.02868*
1,1,0.00760,0.02868,-0.02868*
%
%ADD130ROUNDEDRECTD130*%
%ADD131R,0.06299X0.06299*%
%ADD132C,0.06299*%
G04:AMPARAMS|DCode=133|XSize=86.61mil|YSize=59.06mil|CornerRadius=29.53mil|HoleSize=0mil|Usage=FLASHONLY|Rotation=270.000|XOffset=0mil|YOffset=0mil|HoleType=Round|Shape=RoundedRectangle|*
%AMROUNDEDRECTD133*
21,1,0.08661,0.00000,0,0,270.0*
21,1,0.02756,0.05906,0,0,270.0*
1,1,0.05906,0.00000,-0.01378*
1,1,0.05906,0.00000,0.01378*
1,1,0.05906,0.00000,0.01378*
1,1,0.05906,0.00000,-0.01378*
%
%ADD133ROUNDEDRECTD133*%
%ADD134R,0.06890X0.06890*%
G36*
X0171420Y0511151D02*
X0171457Y0511139D01*
X0171491Y0511121D01*
X0171521Y0511097D01*
X0173748Y0508870D01*
X0173773Y0508840D01*
X0173791Y0508805D01*
X0173802Y0508768D01*
X0173806Y0508730D01*
X0173802Y0508691D01*
X0173791Y0508654D01*
X0173773Y0508620D01*
X0173748Y0508590D01*
X0172356Y0507198D01*
X0172326Y0507173D01*
X0172292Y0507155D01*
X0172255Y0507144D01*
X0172216Y0507140D01*
X0172178Y0507144D01*
X0172141Y0507155D01*
X0172107Y0507173D01*
X0172077Y0507198D01*
X0169850Y0509425D01*
X0169825Y0509455D01*
X0169807Y0509489D01*
X0169795Y0509526D01*
X0169792Y0509565D01*
X0169795Y0509603D01*
X0169807Y0509641D01*
X0169825Y0509675D01*
X0169850Y0509705D01*
X0171241Y0511097D01*
X0171271Y0511121D01*
X0171306Y0511139D01*
X0171343Y0511151D01*
X0171381Y0511155D01*
X0171420Y0511151D01*
D02*
G37*
G36*
X0161259Y0509341D02*
X0161296Y0509330D01*
X0161330Y0509312D01*
X0161360Y0509287D01*
X0163587Y0507060D01*
X0163612Y0507030D01*
X0163630Y0506996D01*
X0163641Y0506959D01*
X0163645Y0506920D01*
X0163641Y0506882D01*
X0163630Y0506844D01*
X0163612Y0506810D01*
X0163587Y0506780D01*
X0162195Y0505388D01*
X0162165Y0505364D01*
X0162131Y0505345D01*
X0162094Y0505334D01*
X0162055Y0505330D01*
X0162017Y0505334D01*
X0161980Y0505345D01*
X0161945Y0505364D01*
X0161915Y0505388D01*
X0159688Y0507615D01*
X0159664Y0507645D01*
X0159645Y0507680D01*
X0159634Y0507717D01*
X0159630Y0507755D01*
X0159634Y0507794D01*
X0159645Y0507831D01*
X0159664Y0507865D01*
X0159688Y0507895D01*
X0161080Y0509287D01*
X0161110Y0509312D01*
X0161144Y0509330D01*
X0161181Y0509341D01*
X0161220Y0509345D01*
X0161259Y0509341D01*
D02*
G37*
G36*
X0165435Y0505165D02*
X0165472Y0505154D01*
X0165506Y0505136D01*
X0165536Y0505111D01*
X0167763Y0502884D01*
X0167763Y0502884D01*
X0167788Y0502854D01*
X0167806Y0502820D01*
X0167809Y0502809D01*
X0167817Y0502783D01*
X0167821Y0502744D01*
X0167817Y0502706D01*
X0167806Y0502669D01*
X0167788Y0502634D01*
X0167763Y0502604D01*
X0166371Y0501213D01*
X0166341Y0501188D01*
X0166307Y0501170D01*
X0166270Y0501158D01*
X0166231Y0501155D01*
X0166192Y0501158D01*
X0166155Y0501170D01*
X0166121Y0501188D01*
X0166091Y0501213D01*
X0163864Y0503440D01*
X0163864Y0503440D01*
X0163840Y0503470D01*
X0163821Y0503504D01*
X0163818Y0503515D01*
X0163810Y0503541D01*
X0163806Y0503580D01*
X0163810Y0503618D01*
X0163821Y0503655D01*
X0163840Y0503689D01*
X0163864Y0503719D01*
X0165256Y0505111D01*
X0165286Y0505136D01*
X0165320Y0505154D01*
X0165357Y0505165D01*
X0165396Y0505169D01*
X0165435Y0505165D01*
D02*
G37*
G36*
X0157083Y0513517D02*
X0157120Y0513506D01*
X0157154Y0513487D01*
X0157184Y0513463D01*
X0159411Y0511236D01*
X0159411Y0511236D01*
X0159436Y0511206D01*
X0159454Y0511172D01*
X0159458Y0511160D01*
X0159465Y0511135D01*
X0159469Y0511096D01*
X0159465Y0511057D01*
X0159454Y0511020D01*
X0159436Y0510986D01*
X0159411Y0510956D01*
X0158019Y0509564D01*
X0157989Y0509540D01*
X0157955Y0509521D01*
X0157918Y0509510D01*
X0157879Y0509506D01*
X0157841Y0509510D01*
X0157804Y0509521D01*
X0157770Y0509540D01*
X0157740Y0509564D01*
X0155513Y0511791D01*
X0155512Y0511791D01*
X0155488Y0511821D01*
X0155470Y0511855D01*
X0155466Y0511867D01*
X0155458Y0511893D01*
X0155455Y0511931D01*
X0155458Y0511970D01*
X0155470Y0512007D01*
X0155488Y0512041D01*
X0155512Y0512071D01*
X0156904Y0513463D01*
X0156934Y0513487D01*
X0156969Y0513506D01*
X0157006Y0513517D01*
X0157044Y0513521D01*
X0157083Y0513517D01*
D02*
G37*
G36*
X0149699Y0534775D02*
X0149736Y0534764D01*
X0149770Y0534746D01*
X0149801Y0534721D01*
X0149825Y0534691D01*
X0149843Y0534657D01*
X0149855Y0534620D01*
X0149858Y0534581D01*
Y0534384D01*
X0149858Y0534384D01*
X0149856Y0534365D01*
X0149855Y0534346D01*
X0149846Y0534317D01*
X0149843Y0534309D01*
X0149825Y0534274D01*
X0149801Y0534244D01*
X0149407Y0533851D01*
X0149407Y0533851D01*
X0149393Y0533840D01*
X0149377Y0533826D01*
X0149343Y0533808D01*
X0149305Y0533797D01*
X0149302Y0533796D01*
X0149267Y0533793D01*
X0149267Y0533793D01*
X0148676D01*
X0148638Y0533797D01*
X0148601Y0533808D01*
X0148566Y0533826D01*
X0148537Y0533851D01*
X0148512Y0533881D01*
X0148494Y0533915D01*
X0148482Y0533952D01*
X0148479Y0533990D01*
Y0534581D01*
X0148482Y0534620D01*
X0148494Y0534657D01*
X0148512Y0534691D01*
X0148537Y0534721D01*
X0148566Y0534746D01*
X0148601Y0534764D01*
X0148638Y0534775D01*
X0148676Y0534779D01*
X0149661D01*
X0149699Y0534775D01*
D02*
G37*
G36*
X0163068Y0519502D02*
X0163105Y0519491D01*
X0163140Y0519473D01*
X0163170Y0519448D01*
X0165397Y0517221D01*
X0165421Y0517191D01*
X0165439Y0517157D01*
X0165451Y0517120D01*
X0165455Y0517081D01*
X0165451Y0517043D01*
X0165439Y0517006D01*
X0165421Y0516971D01*
X0165397Y0516941D01*
X0164005Y0515550D01*
X0163975Y0515525D01*
X0163941Y0515507D01*
X0163903Y0515495D01*
X0163865Y0515492D01*
X0163826Y0515495D01*
X0163789Y0515507D01*
X0163755Y0515525D01*
X0163725Y0515550D01*
X0161498Y0517777D01*
X0161473Y0517807D01*
X0161455Y0517841D01*
X0161444Y0517878D01*
X0161440Y0517916D01*
X0161444Y0517955D01*
X0161455Y0517992D01*
X0161473Y0518026D01*
X0161498Y0518056D01*
X0162890Y0519448D01*
X0162920Y0519473D01*
X0162954Y0519491D01*
X0162991Y0519502D01*
X0163030Y0519506D01*
X0163068Y0519502D01*
D02*
G37*
G36*
X0167244Y0515327D02*
X0167270Y0515319D01*
X0167281Y0515315D01*
X0167315Y0515297D01*
X0167345Y0515273D01*
X0167345Y0515272D01*
X0169572Y0513045D01*
X0169597Y0513015D01*
X0169615Y0512981D01*
X0169627Y0512944D01*
X0169630Y0512906D01*
X0169627Y0512867D01*
X0169615Y0512830D01*
X0169597Y0512796D01*
X0169572Y0512766D01*
X0168181Y0511374D01*
X0168150Y0511349D01*
X0168116Y0511331D01*
X0168079Y0511320D01*
X0168041Y0511316D01*
X0168002Y0511320D01*
X0167976Y0511327D01*
X0167965Y0511331D01*
X0167931Y0511349D01*
X0167901Y0511374D01*
X0167901Y0511374D01*
X0165674Y0513601D01*
X0165649Y0513631D01*
X0165631Y0513665D01*
X0165620Y0513702D01*
X0165616Y0513741D01*
X0165620Y0513779D01*
X0165631Y0513816D01*
X0165649Y0513851D01*
X0165674Y0513880D01*
X0167066Y0515273D01*
X0167096Y0515297D01*
X0167130Y0515315D01*
X0167167Y0515327D01*
X0167206Y0515330D01*
X0167244Y0515327D01*
D02*
G37*
G54D48*
X0559400Y0039400D02*
Y0059683D01*
X0440500Y0040050D02*
X0700200D01*
Y0101050D01*
X0286500Y0040050D02*
Y0101050D01*
X0040000Y0040050D02*
Y0101050D01*
X0040050Y0040050D02*
X0197600D01*
X0040050D02*
Y0101050D01*
Y0101050D02*
X0700200D01*
X0040000Y0040050D02*
X0440500D01*
X0040000Y0060383D02*
X0700000D01*
X0040000Y0080717D02*
X0700200D01*
X0413200D02*
Y0101050D01*
X0497200Y0080717D02*
Y0101050D01*
G54D49*
X0126900Y0073549D02*
X0130899D01*
X0128899D01*
Y0067551D01*
X0133898D02*
X0135897D01*
X0136897Y0068550D01*
Y0070550D01*
X0135897Y0071549D01*
X0133898D01*
X0132898Y0070550D01*
Y0068550D01*
X0133898Y0067551D01*
X0138896Y0065551D02*
Y0071549D01*
X0141895D01*
X0142895Y0070550D01*
Y0068550D01*
X0141895Y0067551D01*
X0138896D01*
X0154891Y0072549D02*
X0153891Y0073549D01*
X0151892D01*
X0150892Y0072549D01*
Y0071549D01*
X0151892Y0070550D01*
X0153891D01*
X0154891Y0069550D01*
Y0068550D01*
X0153891Y0067551D01*
X0151892D01*
X0150892Y0068550D01*
X0157890Y0067551D02*
X0159889D01*
X0160889Y0068550D01*
Y0070550D01*
X0159889Y0071549D01*
X0157890D01*
X0156890Y0070550D01*
Y0068550D01*
X0157890Y0067551D01*
X0162888D02*
X0164888D01*
X0163888D01*
Y0073549D01*
X0162888D01*
X0171885D02*
Y0067551D01*
X0168886D01*
X0167887Y0068550D01*
Y0070550D01*
X0168886Y0071549D01*
X0171885D01*
X0176884Y0067551D02*
X0174884D01*
X0173885Y0068550D01*
Y0070550D01*
X0174884Y0071549D01*
X0176884D01*
X0177884Y0070550D01*
Y0069550D01*
X0173885D01*
X0179883Y0071549D02*
Y0067551D01*
Y0069550D01*
X0180883Y0070550D01*
X0181882Y0071549D01*
X0182882D01*
X0126900Y0073549D02*
X0130899D01*
X0128899D01*
Y0067551D01*
X0133898D02*
X0135897D01*
X0136897Y0068550D01*
Y0070550D01*
X0135897Y0071549D01*
X0133898D01*
X0132898Y0070550D01*
Y0068550D01*
X0133898Y0067551D01*
X0138896Y0065551D02*
Y0071549D01*
X0141895D01*
X0142895Y0070550D01*
Y0068550D01*
X0141895Y0067551D01*
X0138896D01*
X0154891Y0072549D02*
X0153891Y0073549D01*
X0151892D01*
X0150892Y0072549D01*
Y0071549D01*
X0151892Y0070550D01*
X0153891D01*
X0154891Y0069550D01*
Y0068550D01*
X0153891Y0067551D01*
X0151892D01*
X0150892Y0068550D01*
X0157890Y0067551D02*
X0159889D01*
X0160889Y0068550D01*
Y0070550D01*
X0159889Y0071549D01*
X0157890D01*
X0156890Y0070550D01*
Y0068550D01*
X0157890Y0067551D01*
X0162888D02*
X0164888D01*
X0163888D01*
Y0073549D01*
X0162888D01*
X0171885D02*
Y0067551D01*
X0168886D01*
X0167887Y0068550D01*
Y0070550D01*
X0168886Y0071549D01*
X0171885D01*
X0176884Y0067551D02*
X0174884D01*
X0173885Y0068550D01*
Y0070550D01*
X0174884Y0071549D01*
X0176884D01*
X0177884Y0070550D01*
Y0069550D01*
X0173885D01*
X0179883Y0071549D02*
Y0067551D01*
Y0069550D01*
X0180883Y0070550D01*
X0181882Y0071549D01*
X0182882D01*
X0348550Y0067500D02*
Y0073498D01*
X0352549Y0067500D01*
Y0073498D01*
X0354548Y0067500D02*
X0358547Y0071499D01*
X0360546Y0067500D02*
Y0071499D01*
X0362545Y0073498D01*
X0364545Y0071499D01*
Y0067500D01*
Y0070499D01*
X0360546D01*
X0294000Y0073498D02*
X0297999D01*
X0295999D01*
Y0067500D01*
X0299998Y0073498D02*
X0301997D01*
X0300998D01*
Y0067500D01*
X0299998D01*
X0301997D01*
X0304996Y0073498D02*
Y0067500D01*
X0307996D01*
X0308995Y0068500D01*
Y0072498D01*
X0307996Y0073498D01*
X0304996D01*
X0317992Y0067500D02*
Y0073498D01*
X0319992D02*
Y0067500D01*
X0316993Y0071499D02*
X0319992D01*
X0320991D01*
X0316993Y0069499D02*
X0320991D01*
X0322991Y0071499D02*
X0323990D01*
Y0070499D01*
X0322991D01*
Y0071499D01*
Y0068500D02*
X0323990D01*
Y0067500D01*
X0322991D01*
Y0068500D01*
X0580500Y0052965D02*
X0584499D01*
X0582499D01*
Y0046966D01*
X0590497Y0052965D02*
X0586498D01*
Y0046966D01*
X0590497D01*
X0586498Y0049966D02*
X0588497D01*
X0592496Y0052965D02*
X0596495Y0046966D01*
Y0052965D02*
X0592496Y0046966D01*
X0598494D02*
Y0050965D01*
X0600493Y0052965D01*
X0602493Y0050965D01*
Y0046966D01*
Y0049966D01*
X0598494D01*
X0608491Y0051965D02*
X0607491Y0052965D01*
X0605492D01*
X0604492Y0051965D01*
Y0050965D01*
X0605492Y0049966D01*
X0607491D01*
X0608491Y0048966D01*
Y0047966D01*
X0607491Y0046966D01*
X0605492D01*
X0604492Y0047966D01*
X0616488Y0052965D02*
X0618488D01*
X0617488D01*
Y0046966D01*
X0616488D01*
X0618488D01*
X0621487D02*
Y0052965D01*
X0625486Y0046966D01*
Y0052965D01*
X0631484Y0051965D02*
X0630484Y0052965D01*
X0628484D01*
X0627485Y0051965D01*
Y0050965D01*
X0628484Y0049966D01*
X0630484D01*
X0631484Y0048966D01*
Y0047966D01*
X0630484Y0046966D01*
X0628484D01*
X0627485Y0047966D01*
X0633483Y0052965D02*
X0637482D01*
X0635482D01*
Y0046966D01*
X0639481D02*
Y0052965D01*
X0642480D01*
X0643480Y0051965D01*
Y0049966D01*
X0642480Y0048966D01*
X0639481D01*
X0641480D02*
X0643480Y0046966D01*
X0645479Y0052965D02*
Y0047966D01*
X0646479Y0046966D01*
X0648478D01*
X0649478Y0047966D01*
Y0052965D01*
X0651477Y0046966D02*
Y0052965D01*
X0653476Y0050965D01*
X0655476Y0052965D01*
Y0046966D01*
X0661474Y0052965D02*
X0657475D01*
Y0046966D01*
X0661474D01*
X0657475Y0049966D02*
X0659474D01*
X0663473Y0046966D02*
Y0052965D01*
X0667472Y0046966D01*
Y0052965D01*
X0669471D02*
X0673470D01*
X0671471D01*
Y0046966D01*
X0679468Y0051965D02*
X0678468Y0052965D01*
X0676469D01*
X0675469Y0051965D01*
Y0050965D01*
X0676469Y0049966D01*
X0678468D01*
X0679468Y0048966D01*
Y0047966D01*
X0678468Y0046966D01*
X0676469D01*
X0675469Y0047966D01*
X0457049Y0046966D02*
Y0052965D01*
X0454050Y0049966D01*
X0458049D01*
X0460048Y0050965D02*
X0461048D01*
Y0049966D01*
X0460048D01*
Y0050965D01*
Y0047966D02*
X0461048D01*
Y0046966D01*
X0460048D01*
Y0047966D01*
X0465046Y0051965D02*
X0466046Y0052965D01*
X0468046D01*
X0469045Y0051965D01*
Y0050965D01*
X0468046Y0049966D01*
X0467046D01*
X0468046D01*
X0469045Y0048966D01*
Y0047966D01*
X0468046Y0046966D01*
X0466046D01*
X0465046Y0047966D01*
X0471044Y0051965D02*
X0472044Y0052965D01*
X0474044D01*
X0475043Y0051965D01*
Y0047966D01*
X0474044Y0046966D01*
X0472044D01*
X0471044Y0047966D01*
Y0051965D01*
X0477043Y0050965D02*
X0478042D01*
Y0049966D01*
X0477043D01*
Y0050965D01*
Y0047966D02*
X0478042D01*
Y0046966D01*
X0477043D01*
Y0047966D01*
X0485040Y0046966D02*
Y0052965D01*
X0482041Y0049966D01*
X0486040D01*
X0492038Y0052965D02*
X0488039D01*
Y0049966D01*
X0490038Y0050965D01*
X0491038D01*
X0492038Y0049966D01*
Y0047966D01*
X0491038Y0046966D01*
X0489039D01*
X0488039Y0047966D01*
X0500035Y0046966D02*
Y0052965D01*
X0503034D01*
X0504034Y0051965D01*
Y0049966D01*
X0503034Y0048966D01*
X0500035D01*
X0506033Y0046966D02*
Y0052965D01*
X0508033Y0050965D01*
X0510032Y0052965D01*
Y0046966D01*
X0046350D02*
Y0052965D01*
X0049349D01*
X0050349Y0051965D01*
Y0049966D01*
X0049349Y0048966D01*
X0046350D01*
X0052348Y0052965D02*
Y0046966D01*
X0056347D01*
X0061345Y0052965D02*
X0059346D01*
X0058346Y0051965D01*
Y0047966D01*
X0059346Y0046966D01*
X0061345D01*
X0062345Y0047966D01*
Y0051965D01*
X0061345Y0052965D01*
X0064344D02*
X0068343D01*
X0066343D01*
Y0046966D01*
X0076340D02*
Y0052965D01*
X0080339Y0046966D01*
Y0052965D01*
X0082338Y0046966D02*
Y0050965D01*
X0084338Y0052965D01*
X0086337Y0050965D01*
Y0046966D01*
Y0049966D01*
X0082338D01*
X0088336Y0046966D02*
Y0052965D01*
X0090336Y0050965D01*
X0092335Y0052965D01*
Y0046966D01*
X0098333Y0052965D02*
X0094335D01*
Y0046966D01*
X0098333D01*
X0094335Y0049966D02*
X0096334D01*
X0106331Y0048966D02*
X0110329D01*
X0106331Y0050965D02*
X0110329D01*
X0046350Y0073549D02*
Y0067551D01*
X0050349D01*
X0052348D02*
Y0071549D01*
X0054347Y0073549D01*
X0056347Y0071549D01*
Y0067551D01*
Y0070550D01*
X0052348D01*
X0058346Y0073549D02*
Y0072549D01*
X0060346Y0070550D01*
X0062345Y0072549D01*
Y0073549D01*
X0060346Y0070550D02*
Y0067551D01*
X0068343Y0073549D02*
X0064344D01*
Y0067551D01*
X0068343D01*
X0064344Y0070550D02*
X0066343D01*
X0070342Y0067551D02*
Y0073549D01*
X0073341D01*
X0074341Y0072549D01*
Y0070550D01*
X0073341Y0069550D01*
X0070342D01*
X0072342D02*
X0074341Y0067551D01*
X0082338D02*
Y0073549D01*
X0086337Y0067551D01*
Y0073549D01*
X0088336Y0067551D02*
Y0071549D01*
X0090336Y0073549D01*
X0092335Y0071549D01*
Y0067551D01*
Y0070550D01*
X0088336D01*
X0094335Y0067551D02*
Y0073549D01*
X0096334Y0071549D01*
X0098333Y0073549D01*
Y0067551D01*
X0104331Y0073549D02*
X0100332D01*
Y0067551D01*
X0104331D01*
X0100332Y0070550D02*
X0102332D01*
X0112329Y0069550D02*
X0116327D01*
X0112329Y0071549D02*
X0116327D01*
X0294000Y0093831D02*
Y0087833D01*
X0296999D01*
X0297999Y0088833D01*
Y0089833D01*
X0296999Y0090832D01*
X0294000D01*
X0296999D01*
X0297999Y0091832D01*
Y0092832D01*
X0296999Y0093831D01*
X0294000D01*
X0302997D02*
X0300998D01*
X0299998Y0092832D01*
Y0088833D01*
X0300998Y0087833D01*
X0302997D01*
X0303997Y0088833D01*
Y0092832D01*
X0302997Y0093831D01*
X0305996Y0087833D02*
Y0091832D01*
X0307996Y0093831D01*
X0309995Y0091832D01*
Y0087833D01*
Y0090832D01*
X0305996D01*
X0311994Y0087833D02*
Y0093831D01*
X0314993D01*
X0315993Y0092832D01*
Y0090832D01*
X0314993Y0089833D01*
X0311994D01*
X0313994D02*
X0315993Y0087833D01*
X0317992Y0093831D02*
Y0087833D01*
X0320991D01*
X0321991Y0088833D01*
Y0092832D01*
X0320991Y0093831D01*
X0317992D01*
X0330988Y0087833D02*
Y0093831D01*
X0332987D02*
Y0087833D01*
X0329988Y0091832D02*
X0332987D01*
X0333987D01*
X0329988Y0089833D02*
X0333987D01*
X0335986Y0091832D02*
X0336986D01*
Y0090832D01*
X0335986D01*
Y0091832D01*
Y0088833D02*
X0336986D01*
Y0087833D01*
X0335986D01*
Y0088833D01*
X0348550Y0087833D02*
Y0093831D01*
X0350549Y0091832D01*
X0352549Y0093831D01*
Y0087833D01*
X0358547Y0092832D02*
X0357547Y0093831D01*
X0355548D01*
X0354548Y0092832D01*
Y0088833D01*
X0355548Y0087833D01*
X0357547D01*
X0358547Y0088833D01*
X0360546Y0093831D02*
Y0088833D01*
X0361546Y0087833D01*
X0363545D01*
X0364545Y0088833D01*
Y0093831D01*
X0366544Y0092832D02*
X0367544Y0093831D01*
X0369543D01*
X0370543Y0092832D01*
Y0088833D01*
X0369543Y0087833D01*
X0367544D01*
X0366544Y0088833D01*
Y0092832D01*
X0376541Y0087833D02*
X0372542D01*
X0376541Y0091832D01*
Y0092832D01*
X0375541Y0093831D01*
X0373542D01*
X0372542Y0092832D01*
X0381539Y0087833D02*
Y0093831D01*
X0378540Y0090832D01*
X0382539D01*
X0462150Y0087833D02*
X0464149D01*
X0463150D01*
Y0093831D01*
X0462150Y0092832D01*
X0467148Y0087833D02*
Y0088833D01*
X0468148D01*
Y0087833D01*
X0467148D01*
X0472147Y0092832D02*
X0473146Y0093831D01*
X0475146D01*
X0476146Y0092832D01*
Y0088833D01*
X0475146Y0087833D01*
X0473146D01*
X0472147Y0088833D01*
Y0092832D01*
X0046350Y0087833D02*
Y0091832D01*
X0048349Y0093831D01*
X0050349Y0091832D01*
Y0087833D01*
Y0090832D01*
X0046350D01*
X0052348Y0093831D02*
Y0087833D01*
X0056347D01*
X0058346Y0093831D02*
Y0087833D01*
X0062345D01*
X0070342D02*
Y0091832D01*
X0072342Y0093831D01*
X0074341Y0091832D01*
Y0087833D01*
Y0090832D01*
X0070342D01*
X0076340Y0087833D02*
Y0093831D01*
X0079339D01*
X0080339Y0092832D01*
Y0090832D01*
X0079339Y0089833D01*
X0076340D01*
X0078340D02*
X0080339Y0087833D01*
X0082338Y0093831D02*
X0086337D01*
X0084338D01*
Y0087833D01*
X0088336Y0093831D02*
Y0087833D01*
X0090336Y0089833D01*
X0092335Y0087833D01*
Y0093831D01*
X0097334D02*
X0095334D01*
X0094335Y0092832D01*
Y0088833D01*
X0095334Y0087833D01*
X0097334D01*
X0098333Y0088833D01*
Y0092832D01*
X0097334Y0093831D01*
X0100332Y0087833D02*
Y0093831D01*
X0103332D01*
X0104331Y0092832D01*
Y0090832D01*
X0103332Y0089833D01*
X0100332D01*
X0102332D02*
X0104331Y0087833D01*
X0106331Y0093831D02*
Y0087833D01*
Y0089833D01*
X0110329Y0093831D01*
X0107330Y0090832D01*
X0110329Y0087833D01*
X0118327Y0093831D02*
Y0089833D01*
X0120326Y0087833D01*
X0122325Y0089833D01*
Y0093831D01*
X0124325D02*
X0126324D01*
X0125324D01*
Y0087833D01*
X0124325D01*
X0126324D01*
X0133322Y0093831D02*
X0129323D01*
Y0087833D01*
X0133322D01*
X0129323Y0090832D02*
X0131323D01*
X0135321Y0093831D02*
Y0087833D01*
X0137321Y0089833D01*
X0139320Y0087833D01*
Y0093831D01*
X0145318D02*
X0141319D01*
Y0087833D01*
X0145318D01*
X0141319Y0090832D02*
X0143319D01*
X0147317Y0093831D02*
Y0087833D01*
X0150316D01*
X0151316Y0088833D01*
Y0092832D01*
X0150316Y0093831D01*
X0147317D01*
X0163312D02*
X0159313D01*
Y0090832D01*
X0161313D01*
X0159313D01*
Y0087833D01*
X0165312D02*
Y0093831D01*
X0168310D01*
X0169310Y0092832D01*
Y0090832D01*
X0168310Y0089833D01*
X0165312D01*
X0167311D02*
X0169310Y0087833D01*
X0174309Y0093831D02*
X0172309D01*
X0171310Y0092832D01*
Y0088833D01*
X0172309Y0087833D01*
X0174309D01*
X0175308Y0088833D01*
Y0092832D01*
X0174309Y0093831D01*
X0177308Y0087833D02*
Y0093831D01*
X0179307Y0091832D01*
X0181306Y0093831D01*
Y0087833D01*
X0189304Y0093831D02*
X0193303D01*
X0191303D01*
Y0087833D01*
X0198301Y0093831D02*
X0196301D01*
X0195302Y0092832D01*
Y0088833D01*
X0196301Y0087833D01*
X0198301D01*
X0199301Y0088833D01*
Y0092832D01*
X0198301Y0093831D01*
X0201300Y0087833D02*
Y0093831D01*
X0204299D01*
X0205299Y0092832D01*
Y0090832D01*
X0204299Y0089833D01*
X0201300D01*
X0217295Y0092832D02*
X0216295Y0093831D01*
X0214296D01*
X0213296Y0092832D01*
Y0091832D01*
X0214296Y0090832D01*
X0216295D01*
X0217295Y0089833D01*
Y0088833D01*
X0216295Y0087833D01*
X0214296D01*
X0213296Y0088833D01*
X0219294Y0093831D02*
X0221293D01*
X0220294D01*
Y0087833D01*
X0219294D01*
X0221293D01*
X0224292Y0093831D02*
Y0087833D01*
X0227291D01*
X0228291Y0088833D01*
Y0092832D01*
X0227291Y0093831D01*
X0224292D01*
X0234289D02*
X0230291D01*
Y0087833D01*
X0234289D01*
X0230291Y0090832D02*
X0232290D01*
X0298199Y0051965D02*
X0297199Y0052965D01*
X0295200D01*
X0294200Y0051965D01*
Y0047966D01*
X0295200Y0046966D01*
X0297199D01*
X0298199Y0047966D01*
Y0049966D01*
X0296199D01*
X0304197Y0052965D02*
X0300198D01*
Y0046966D01*
X0304197D01*
X0300198Y0049966D02*
X0302197D01*
X0306196Y0046966D02*
Y0052965D01*
X0310195Y0046966D01*
Y0052965D01*
X0316193D02*
X0312194D01*
Y0046966D01*
X0316193D01*
X0312194Y0049966D02*
X0314194D01*
X0318192Y0046966D02*
Y0052965D01*
X0321191D01*
X0322191Y0051965D01*
Y0049966D01*
X0321191Y0048966D01*
X0318192D01*
X0320192D02*
X0322191Y0046966D01*
X0324190D02*
Y0050965D01*
X0326190Y0052965D01*
X0328189Y0050965D01*
Y0046966D01*
Y0049966D01*
X0324190D01*
X0330188Y0052965D02*
X0334187D01*
X0332188D01*
Y0046966D01*
X0340185Y0052965D02*
X0336186D01*
Y0046966D01*
X0340185D01*
X0336186Y0049966D02*
X0338186D01*
X0342184Y0052965D02*
Y0046966D01*
X0345183D01*
X0346183Y0047966D01*
Y0051965D01*
X0345183Y0052965D01*
X0342184D01*
X0372175Y0050965D02*
X0373175D01*
Y0049966D01*
X0372175D01*
Y0050965D01*
Y0047966D02*
X0373175D01*
Y0046966D01*
X0372175D01*
Y0047966D01*
X0381150Y0052965D02*
X0385149D01*
Y0051965D01*
X0381150Y0047966D01*
Y0046966D01*
X0387148D02*
X0391147Y0050965D01*
X0393146Y0046966D02*
X0395146D01*
X0394146D01*
Y0052965D01*
X0393146Y0051965D01*
X0401144Y0046966D02*
Y0052965D01*
X0398145Y0049966D01*
X0402143D01*
X0404143Y0046966D02*
X0408141Y0050965D01*
X0414139Y0046966D02*
X0410141D01*
X0414139Y0050965D01*
Y0051965D01*
X0413140Y0052965D01*
X0411140D01*
X0410141Y0051965D01*
X0416139D02*
X0417138Y0052965D01*
X0419138D01*
X0420137Y0051965D01*
Y0047966D01*
X0419138Y0046966D01*
X0417138D01*
X0416139Y0047966D01*
Y0051965D01*
X0422137Y0046966D02*
X0424136D01*
X0423136D01*
Y0052965D01*
X0422137Y0051965D01*
X0427135Y0052965D02*
X0431134D01*
Y0051965D01*
X0427135Y0047966D01*
Y0046966D01*
X0126900D02*
Y0052965D01*
X0128899Y0050965D01*
X0130899Y0052965D01*
Y0046966D01*
X0136897Y0051965D02*
X0135897Y0052965D01*
X0133898D01*
X0132898Y0051965D01*
Y0047966D01*
X0133898Y0046966D01*
X0135897D01*
X0136897Y0047966D01*
X0138896Y0052965D02*
Y0047966D01*
X0139896Y0046966D01*
X0141895D01*
X0142895Y0047966D01*
Y0052965D01*
X0144894Y0051965D02*
X0145894Y0052965D01*
X0147893D01*
X0148893Y0051965D01*
Y0047966D01*
X0147893Y0046966D01*
X0145894D01*
X0144894Y0047966D01*
Y0051965D01*
X0154891Y0046966D02*
X0150892D01*
X0154891Y0050965D01*
Y0051965D01*
X0153891Y0052965D01*
X0151892D01*
X0150892Y0051965D01*
X0159889Y0046966D02*
Y0052965D01*
X0156890Y0049966D01*
X0160889D01*
X0162888Y0046966D02*
X0164888D01*
X0163888D01*
Y0052965D01*
X0162888Y0051965D01*
X0167887Y0046966D02*
Y0047966D01*
X0168886D01*
Y0046966D01*
X0167887D01*
X0172885Y0051965D02*
X0173885Y0052965D01*
X0175884D01*
X0176884Y0051965D01*
Y0047966D01*
X0175884Y0046966D01*
X0173885D01*
X0172885Y0047966D01*
Y0051965D01*
X0178883Y0046966D02*
Y0047966D01*
X0179883D01*
Y0046966D01*
X0178883D01*
X0187880Y0051965D02*
X0186881Y0052965D01*
X0184881D01*
X0183882Y0051965D01*
Y0047966D01*
X0184881Y0046966D01*
X0186881D01*
X0187880Y0047966D01*
Y0049966D01*
X0185881D01*
X0189880Y0052965D02*
X0193878D01*
X0191879D01*
Y0046966D01*
X0199876Y0051965D02*
X0198877Y0052965D01*
X0196877D01*
X0195878Y0051965D01*
Y0050965D01*
X0196877Y0049966D01*
X0198877D01*
X0199876Y0048966D01*
Y0047966D01*
X0198877Y0046966D01*
X0196877D01*
X0195878Y0047966D01*
X0433000Y0087833D02*
Y0093831D01*
X0435999D01*
X0436999Y0092832D01*
Y0090832D01*
X0435999Y0089833D01*
X0433000D01*
X0434999D02*
X0436999Y0087833D01*
X0442997Y0093831D02*
X0438998D01*
Y0087833D01*
X0442997D01*
X0438998Y0090832D02*
X0440997D01*
X0444996Y0093831D02*
Y0089833D01*
X0446995Y0087833D01*
X0448995Y0089833D01*
Y0093831D01*
X0450994Y0091832D02*
X0451994D01*
Y0090832D01*
X0450994D01*
Y0091832D01*
Y0088833D02*
X0451994D01*
Y0087833D01*
X0450994D01*
Y0088833D01*
X0520799Y0092832D02*
X0519799Y0093831D01*
X0517800D01*
X0516800Y0092832D01*
Y0091832D01*
X0517800Y0090832D01*
X0519799D01*
X0520799Y0089833D01*
Y0088833D01*
X0519799Y0087833D01*
X0517800D01*
X0516800Y0088833D01*
X0522798Y0093831D02*
Y0089833D01*
X0524797Y0087833D01*
X0526797Y0089833D01*
Y0093831D01*
X0528796Y0087833D02*
Y0093831D01*
X0532795Y0087833D01*
Y0093831D01*
X0540792Y0087833D02*
Y0093831D01*
X0543791D01*
X0544791Y0092832D01*
Y0090832D01*
X0543791Y0089833D01*
X0540792D01*
X0542792D02*
X0544791Y0087833D01*
X0550789Y0093831D02*
X0546790D01*
Y0087833D01*
X0550789D01*
X0546790Y0090832D02*
X0548790D01*
X0552788Y0093831D02*
Y0089833D01*
X0554788Y0087833D01*
X0556787Y0089833D01*
Y0093831D01*
X0558786Y0091832D02*
X0559786D01*
Y0090832D01*
X0558786D01*
Y0091832D01*
Y0088833D02*
X0559786D01*
Y0087833D01*
X0558786D01*
Y0088833D01*
X0567400Y0087833D02*
Y0093831D01*
X0571399Y0087833D01*
Y0093831D01*
X0574398Y0087833D02*
X0576397D01*
X0577397Y0088833D01*
Y0090832D01*
X0576397Y0091832D01*
X0574398D01*
X0573398Y0090832D01*
Y0088833D01*
X0574398Y0087833D01*
X0580396Y0092832D02*
Y0091832D01*
X0579396D01*
X0581395D01*
X0580396D01*
Y0088833D01*
X0581395Y0087833D01*
X0590393Y0093831D02*
X0592392D01*
X0591392D01*
Y0087833D01*
X0590393D01*
X0592392D01*
X0595391D02*
Y0091832D01*
X0598390D01*
X0599390Y0090832D01*
Y0087833D01*
X0607387Y0093831D02*
Y0089833D01*
X0609386Y0087833D01*
X0611386Y0089833D01*
Y0093831D01*
X0616384Y0087833D02*
X0614385D01*
X0613385Y0088833D01*
Y0090832D01*
X0614385Y0091832D01*
X0616384D01*
X0617384Y0090832D01*
Y0089833D01*
X0613385D01*
X0619383Y0091832D02*
Y0087833D01*
Y0089833D01*
X0620383Y0090832D01*
X0621383Y0091832D01*
X0622382D01*
X0625381Y0087833D02*
X0628380D01*
X0629380Y0088833D01*
X0628380Y0089833D01*
X0626381D01*
X0625381Y0090832D01*
X0626381Y0091832D01*
X0629380D01*
X0631379Y0087833D02*
X0633379D01*
X0632379D01*
Y0091832D01*
X0631379D01*
X0637377Y0087833D02*
X0639377D01*
X0640376Y0088833D01*
Y0090832D01*
X0639377Y0091832D01*
X0637377D01*
X0636378Y0090832D01*
Y0088833D01*
X0637377Y0087833D01*
X0642376D02*
Y0091832D01*
X0645375D01*
X0646374Y0090832D01*
Y0087833D01*
X0652373Y0092832D02*
X0651373Y0093831D01*
X0649373D01*
X0648374Y0092832D01*
Y0088833D01*
X0649373Y0087833D01*
X0651373D01*
X0652373Y0088833D01*
X0655372Y0087833D02*
X0657371D01*
X0658371Y0088833D01*
Y0090832D01*
X0657371Y0091832D01*
X0655372D01*
X0654372Y0090832D01*
Y0088833D01*
X0655372Y0087833D01*
X0660370D02*
Y0091832D01*
X0663369D01*
X0664369Y0090832D01*
Y0087833D01*
X0667368Y0092832D02*
Y0091832D01*
X0666368D01*
X0668367D01*
X0667368D01*
Y0088833D01*
X0668367Y0087833D01*
X0671366Y0091832D02*
Y0087833D01*
Y0089833D01*
X0672366Y0090832D01*
X0673366Y0091832D01*
X0674365D01*
X0678364Y0087833D02*
X0680364D01*
X0681363Y0088833D01*
Y0090832D01*
X0680364Y0091832D01*
X0678364D01*
X0677364Y0090832D01*
Y0088833D01*
X0678364Y0087833D01*
X0683362D02*
X0685362D01*
X0684362D01*
Y0093831D01*
X0683362D01*
G54D60*
X0099200Y0348400D02*
D03*
Y0358400D02*
D03*
Y0368400D02*
D03*
Y0378400D02*
D03*
Y0388400D02*
D03*
Y0398400D02*
D03*
Y0408400D02*
D03*
Y0418400D02*
D03*
Y0428400D02*
D03*
X0279200Y0348400D02*
D03*
Y0358400D02*
D03*
Y0368400D02*
D03*
Y0378400D02*
D03*
Y0388400D02*
D03*
Y0398400D02*
D03*
Y0408400D02*
D03*
Y0418400D02*
D03*
Y0428400D02*
D03*
Y0438400D02*
D03*
X0109200D02*
D03*
Y0428400D02*
D03*
G54D87*
X0147350Y0564900D02*
D03*
X0141050D02*
D03*
X0272550Y0513900D02*
D03*
X0278850D02*
D03*
X0275350Y0543900D02*
D03*
X0269050D02*
D03*
X0101050Y0555400D02*
D03*
X0107350D02*
D03*
G54D88*
X0148700Y0547750D02*
D03*
Y0554050D02*
D03*
X0151700Y0523050D02*
D03*
Y0516750D02*
D03*
Y0510050D02*
D03*
Y0503750D02*
D03*
X0165700Y0411050D02*
D03*
Y0404750D02*
D03*
X0192700Y0416550D02*
D03*
Y0410250D02*
D03*
X0185700Y0416550D02*
D03*
Y0410250D02*
D03*
X0199200Y0416550D02*
D03*
Y0410250D02*
D03*
X0179200Y0416550D02*
D03*
Y0410250D02*
D03*
G54D89*
X0271960Y0536459D02*
D03*
Y0531341D02*
D03*
X0279440Y0533900D02*
D03*
X0257960Y0526959D02*
D03*
Y0521841D02*
D03*
X0265440Y0524400D02*
D03*
X0257960Y0554959D02*
D03*
Y0549841D02*
D03*
X0265440Y0552400D02*
D03*
X0257960Y0540459D02*
D03*
Y0535341D02*
D03*
X0265440Y0537900D02*
D03*
G54D90*
X0196562Y0488400D02*
D03*
X0191838D02*
D03*
X0251562Y0526900D02*
D03*
X0246838D02*
D03*
X0246838Y0520400D02*
D03*
X0251562D02*
D03*
X0246838Y0531900D02*
D03*
X0251562D02*
D03*
X0119838Y0544900D02*
D03*
X0124562D02*
D03*
X0270838Y0553400D02*
D03*
X0275562D02*
D03*
X0246838Y0536900D02*
D03*
X0251562D02*
D03*
X0251562Y0555400D02*
D03*
X0246838D02*
D03*
X0129338Y0530900D02*
D03*
X0134062D02*
D03*
X0134062Y0535900D02*
D03*
X0129338D02*
D03*
X0119838Y0521400D02*
D03*
X0124562D02*
D03*
X0119838Y0535900D02*
D03*
X0124562D02*
D03*
X0198062Y0570900D02*
D03*
X0193338D02*
D03*
X0198062Y0566400D02*
D03*
X0193338D02*
D03*
X0119838Y0549900D02*
D03*
X0124562D02*
D03*
X0263838Y0503900D02*
D03*
X0268562D02*
D03*
X0223338Y0569400D02*
D03*
X0228062D02*
D03*
X0270838Y0548900D02*
D03*
X0275562D02*
D03*
X0134062Y0521400D02*
D03*
X0129338D02*
D03*
X0119838Y0530900D02*
D03*
X0124562D02*
D03*
X0132338Y0497400D02*
D03*
X0137062D02*
D03*
X0197062Y0426400D02*
D03*
X0192338D02*
D03*
X0181338D02*
D03*
X0186062D02*
D03*
X0144062Y0317914D02*
D03*
X0139338D02*
D03*
X0234338Y0317900D02*
D03*
X0239062D02*
D03*
X0196562Y0493400D02*
D03*
X0191838D02*
D03*
G54D91*
X0125700Y0505038D02*
D03*
Y0509762D02*
D03*
X0119200Y0509762D02*
D03*
Y0505038D02*
D03*
X0209200Y0507262D02*
D03*
Y0502538D02*
D03*
X0214700Y0502538D02*
D03*
Y0507262D02*
D03*
X0176700Y0574762D02*
D03*
Y0570038D02*
D03*
X0180700Y0574762D02*
D03*
Y0570038D02*
D03*
X0160200Y0572038D02*
D03*
Y0576762D02*
D03*
X0155700Y0572038D02*
D03*
Y0576762D02*
D03*
X0238700Y0525538D02*
D03*
Y0530262D02*
D03*
Y0513038D02*
D03*
Y0517762D02*
D03*
X0192700Y0502538D02*
D03*
Y0507262D02*
D03*
X0249200Y0506538D02*
D03*
Y0511262D02*
D03*
X0244200Y0506538D02*
D03*
Y0511262D02*
D03*
X0132200Y0509762D02*
D03*
Y0505038D02*
D03*
X0203700Y0502538D02*
D03*
Y0507262D02*
D03*
X0254200Y0506538D02*
D03*
Y0511262D02*
D03*
X0164700Y0576762D02*
D03*
Y0572038D02*
D03*
X0238700Y0542762D02*
D03*
Y0538038D02*
D03*
X0186700Y0502538D02*
D03*
Y0507262D02*
D03*
X0142200Y0552762D02*
D03*
Y0548038D02*
D03*
X0169700Y0558262D02*
D03*
Y0553538D02*
D03*
X0269200Y0474538D02*
D03*
Y0479262D02*
D03*
X0172700Y0409762D02*
D03*
Y0405038D02*
D03*
X0274200Y0474538D02*
D03*
Y0479262D02*
D03*
G54D92*
X0203870Y0520570D02*
D03*
X0200530Y0517230D02*
D03*
X0216870Y0534070D02*
D03*
X0213530Y0530730D02*
D03*
G54D93*
X0212870Y0523730D02*
D03*
X0209530Y0527070D02*
D03*
X0208530Y0545070D02*
D03*
X0211870Y0541730D02*
D03*
G54D94*
X0226082Y0576400D02*
D03*
X0236318D02*
D03*
X0269582Y0560400D02*
D03*
X0279818D02*
D03*
G54D95*
X0158700Y0561018D02*
D03*
Y0550782D02*
D03*
G54D96*
X0144653Y0311414D02*
D03*
X0138747D02*
D03*
X0239653Y0311400D02*
D03*
X0233747D02*
D03*
X0210153Y0573400D02*
D03*
X0204247D02*
D03*
Y0566400D02*
D03*
X0210153D02*
D03*
G54D97*
X0290444Y0471668D02*
D03*
Y0455132D02*
D03*
X0087956Y0455132D02*
D03*
Y0471668D02*
D03*
G54D98*
X0297531Y0476687D02*
D03*
X0297531Y0450113D02*
D03*
X0080869Y0450113D02*
D03*
X0080869Y0476687D02*
D03*
G54D99*
X0249432Y0569644D02*
D03*
X0265968D02*
D03*
G54D100*
X0244413Y0576731D02*
D03*
X0270987Y0576731D02*
D03*
G54D101*
X0219200Y0319191D02*
D03*
Y0330609D02*
D03*
G54D102*
X0273566Y0521900D02*
D03*
X0281834D02*
D03*
G54D103*
X0108117Y0541868D02*
D03*
G54D104*
X0108019Y0539900D02*
D03*
Y0537931D02*
D03*
X0110381D02*
D03*
Y0539900D02*
D03*
Y0541868D02*
D03*
G54D105*
X0149169Y0531038D02*
D03*
X0147200D02*
D03*
X0145231D02*
D03*
Y0535762D02*
D03*
X0147200D02*
D03*
G54D106*
X0149169Y0535841D02*
D03*
G54D107*
X0194121Y0432900D02*
D03*
X0184279D02*
D03*
G54D108*
X0109505Y0564636D02*
D03*
X0128895D02*
D03*
G54D109*
X0115509Y0573691D02*
D03*
X0122891D02*
D03*
G54D110*
X0114082Y0563219D02*
D03*
X0116641Y0563219D02*
D03*
X0119200Y0563219D02*
D03*
X0121759Y0563219D02*
D03*
X0124318Y0563219D02*
D03*
G54D111*
X0164700Y0510400D02*
D03*
X0160524Y0514576D02*
D03*
X0168876Y0506224D02*
D03*
G54D112*
X0184700Y0535900D02*
D03*
G54D113*
X0182893Y0513209D02*
D03*
X0181501Y0514601D02*
D03*
X0180108Y0515993D02*
D03*
X0178716Y0517386D02*
D03*
X0177324Y0518778D02*
D03*
X0175932Y0520170D02*
D03*
X0174539Y0521562D02*
D03*
X0173147Y0522955D02*
D03*
X0171755Y0524347D02*
D03*
X0170362Y0525739D02*
D03*
X0168970Y0527132D02*
D03*
X0167578Y0528524D02*
D03*
X0166186Y0529916D02*
D03*
X0164793Y0531309D02*
D03*
X0163401Y0532701D02*
D03*
X0162009Y0534093D02*
D03*
X0186507Y0558591D02*
D03*
X0187899Y0557199D02*
D03*
X0189292Y0555807D02*
D03*
X0190684Y0554414D02*
D03*
X0192076Y0553022D02*
D03*
X0193468Y0551630D02*
D03*
X0194861Y0550238D02*
D03*
X0196253Y0548845D02*
D03*
X0197645Y0547453D02*
D03*
X0199038Y0546061D02*
D03*
X0200430Y0544668D02*
D03*
X0201822Y0543276D02*
D03*
X0203214Y0541884D02*
D03*
X0204607Y0540491D02*
D03*
X0205999Y0539099D02*
D03*
X0207391Y0537707D02*
D03*
G54D114*
X0162011Y0537710D02*
D03*
X0163403Y0539102D02*
D03*
X0164795Y0540493D02*
D03*
X0166187Y0541885D02*
D03*
X0167579Y0543277D02*
D03*
X0168971Y0544669D02*
D03*
X0170363Y0546061D02*
D03*
X0171755Y0547453D02*
D03*
X0173147Y0548845D02*
D03*
X0174539Y0550237D02*
D03*
X0175931Y0551629D02*
D03*
X0177323Y0553021D02*
D03*
X0178715Y0554413D02*
D03*
X0180107Y0555805D02*
D03*
X0181499Y0557197D02*
D03*
X0182890Y0558589D02*
D03*
X0207389Y0534091D02*
D03*
X0205997Y0532698D02*
D03*
X0204605Y0531307D02*
D03*
X0203213Y0529915D02*
D03*
X0201821Y0528523D02*
D03*
X0200429Y0527131D02*
D03*
X0199037Y0525739D02*
D03*
X0197645Y0524347D02*
D03*
X0196253Y0522955D02*
D03*
X0194861Y0521563D02*
D03*
X0193469Y0520171D02*
D03*
X0192077Y0518779D02*
D03*
X0190685Y0517387D02*
D03*
X0189293Y0515995D02*
D03*
X0187901Y0514603D02*
D03*
X0186510Y0513211D02*
D03*
G54D115*
X0181720Y0398321D02*
D03*
Y0396353D02*
D03*
Y0394384D02*
D03*
Y0392416D02*
D03*
Y0390447D02*
D03*
Y0388479D02*
D03*
X0196680D02*
D03*
Y0390447D02*
D03*
Y0392416D02*
D03*
Y0394384D02*
D03*
Y0396353D02*
D03*
Y0398321D02*
D03*
G54D116*
X0184279Y0385920D02*
D03*
X0186247D02*
D03*
X0188216D02*
D03*
X0190184D02*
D03*
X0192153D02*
D03*
X0194121D02*
D03*
Y0400880D02*
D03*
X0192153D02*
D03*
X0190184D02*
D03*
X0188216D02*
D03*
X0186247D02*
D03*
X0184279D02*
D03*
G54D117*
X0189200Y0393400D02*
D03*
G54D118*
X0219220Y0561239D02*
D03*
Y0558679D02*
D03*
Y0556120D02*
D03*
Y0553561D02*
D03*
X0234180D02*
D03*
Y0556120D02*
D03*
Y0558679D02*
D03*
Y0561239D02*
D03*
G54D119*
X0222861Y0549920D02*
D03*
X0225420D02*
D03*
X0227979D02*
D03*
X0230539D02*
D03*
Y0564880D02*
D03*
X0227979D02*
D03*
X0225420D02*
D03*
X0222861D02*
D03*
G54D120*
X0226700Y0557400D02*
D03*
G54D121*
X0279857Y0505868D02*
D03*
Y0501931D02*
D03*
X0274542D02*
D03*
Y0505868D02*
D03*
G54D122*
X0279857Y0503900D02*
D03*
X0274542D02*
D03*
G54D123*
X0277200Y0501341D02*
D03*
Y0506459D02*
D03*
G54D124*
X0189200Y0321215D02*
D03*
G54D125*
Y0360585D02*
D03*
G54D126*
X0294200Y0303400D02*
D03*
Y0573400D02*
D03*
X0084200D02*
D03*
Y0303400D02*
D03*
G54D127*
X0229200Y0524900D02*
D03*
X0089200Y0493400D02*
D03*
Y0503400D02*
D03*
Y0513400D02*
D03*
Y0523400D02*
D03*
Y0533400D02*
D03*
Y0543400D02*
D03*
Y0553400D02*
D03*
X0229200Y0514900D02*
D03*
G54D128*
X0234200Y0339900D02*
D03*
X0144200Y0339914D02*
D03*
G54D129*
X0234200Y0329900D02*
D03*
X0279200Y0318400D02*
D03*
Y0328400D02*
D03*
X0099200D02*
D03*
Y0318400D02*
D03*
X0179200Y0478400D02*
D03*
X0169200Y0488400D02*
D03*
Y0478400D02*
D03*
X0159200Y0488400D02*
D03*
Y0478400D02*
D03*
X0149200Y0488400D02*
D03*
Y0478400D02*
D03*
X0139200Y0488400D02*
D03*
Y0478400D02*
D03*
X0129200Y0488400D02*
D03*
Y0478400D02*
D03*
X0119200Y0488400D02*
D03*
Y0478400D02*
D03*
X0144200Y0329914D02*
D03*
G54D130*
X0099200Y0438400D02*
D03*
G54D131*
X0179200Y0309900D02*
D03*
G54D132*
X0189200D02*
D03*
X0199200D02*
D03*
G54D133*
X0103649Y0573691D02*
D03*
X0134751D02*
D03*
G54D134*
X0279200Y0308400D02*
D03*
X0099200D02*
D03*
X0179200Y0488400D02*
D03*
M02*
