G04 Layer_Color=32896*
%FSAX25Y25*%
%MOIN*%
G70*
G01*
G75*
%ADD48C,0.01000*%
%ADD49C,0.00800*%
%ADD52C,0.01500*%
%ADD140C,0.00100*%
G54D48*
X1390146Y0942398D02*
Y0936400D01*
X1393145D01*
X1394145Y0937400D01*
Y0938399D01*
X1393145Y0939399D01*
X1390146D01*
X1393145D01*
X1394145Y0940399D01*
Y0941398D01*
X1393145Y0942398D01*
X1390146D01*
X1397144Y0936400D02*
X1399143D01*
X1400143Y0937400D01*
Y0939399D01*
X1399143Y0940399D01*
X1397144D01*
X1396144Y0939399D01*
Y0937400D01*
X1397144Y0936400D01*
X1403142Y0940399D02*
X1405142D01*
X1406141Y0939399D01*
Y0936400D01*
X1403142D01*
X1402142Y0937400D01*
X1403142Y0938399D01*
X1406141D01*
X1408140Y0940399D02*
Y0936400D01*
Y0938399D01*
X1409140Y0939399D01*
X1410140Y0940399D01*
X1411139D01*
X1418137Y0942398D02*
Y0936400D01*
X1415138D01*
X1414139Y0937400D01*
Y0939399D01*
X1415138Y0940399D01*
X1418137D01*
X1426135Y0942398D02*
Y0936400D01*
X1430133D01*
X1433132Y0940399D02*
X1435132D01*
X1436131Y0939399D01*
Y0936400D01*
X1433132D01*
X1432133Y0937400D01*
X1433132Y0938399D01*
X1436131D01*
X1438131Y0940399D02*
Y0937400D01*
X1439130Y0936400D01*
X1442130D01*
Y0935400D01*
X1441130Y0934401D01*
X1440130D01*
X1442130Y0936400D02*
Y0940399D01*
X1447128Y0936400D02*
X1445129D01*
X1444129Y0937400D01*
Y0939399D01*
X1445129Y0940399D01*
X1447128D01*
X1448128Y0939399D01*
Y0938399D01*
X1444129D01*
X1450127Y0940399D02*
Y0936400D01*
Y0938399D01*
X1451127Y0939399D01*
X1452126Y0940399D01*
X1453126D01*
X1466122Y0941398D02*
X1465122Y0942398D01*
X1463123D01*
X1462123Y0941398D01*
Y0940399D01*
X1463123Y0939399D01*
X1465122D01*
X1466122Y0938399D01*
Y0937400D01*
X1465122Y0936400D01*
X1463123D01*
X1462123Y0937400D01*
X1469121Y0941398D02*
Y0940399D01*
X1468121D01*
X1470120D01*
X1469121D01*
Y0937400D01*
X1470120Y0936400D01*
X1474119Y0940399D02*
X1476118D01*
X1477118Y0939399D01*
Y0936400D01*
X1474119D01*
X1473120Y0937400D01*
X1474119Y0938399D01*
X1477118D01*
X1483116Y0940399D02*
X1480117D01*
X1479117Y0939399D01*
Y0937400D01*
X1480117Y0936400D01*
X1483116D01*
X1485116D02*
Y0942398D01*
Y0938399D02*
X1488115Y0940399D01*
X1485116Y0938399D02*
X1488115Y0936400D01*
X1333160Y0917398D02*
X1334160Y0918398D01*
X1336159D01*
X1337159Y0917398D01*
Y0916399D01*
X1336159Y0915399D01*
X1335160D01*
X1336159D01*
X1337159Y0914399D01*
Y0913400D01*
X1336159Y0912400D01*
X1334160D01*
X1333160Y0913400D01*
X1339158Y0912400D02*
Y0913400D01*
X1340158D01*
Y0912400D01*
X1339158D01*
X1348155Y0918398D02*
X1344157D01*
Y0915399D01*
X1346156Y0916399D01*
X1347156D01*
X1348155Y0915399D01*
Y0913400D01*
X1347156Y0912400D01*
X1345156D01*
X1344157Y0913400D01*
X1336159Y0888400D02*
Y0894398D01*
X1333160Y0891399D01*
X1337159D01*
X1339158Y0888400D02*
Y0889400D01*
X1340158D01*
Y0888400D01*
X1339158D01*
X1344157Y0893398D02*
X1345156Y0894398D01*
X1347156D01*
X1348155Y0893398D01*
Y0892399D01*
X1347156Y0891399D01*
X1348155Y0890399D01*
Y0889400D01*
X1347156Y0888400D01*
X1345156D01*
X1344157Y0889400D01*
Y0890399D01*
X1345156Y0891399D01*
X1344157Y0892399D01*
Y0893398D01*
X1345156Y0891399D02*
X1347156D01*
X1333160Y0869398D02*
X1334160Y0870398D01*
X1336159D01*
X1337159Y0869398D01*
Y0868399D01*
X1336159Y0867399D01*
X1335160D01*
X1336159D01*
X1337159Y0866399D01*
Y0865400D01*
X1336159Y0864400D01*
X1334160D01*
X1333160Y0865400D01*
X1339158Y0864400D02*
Y0865400D01*
X1340158D01*
Y0864400D01*
X1339158D01*
X1348155Y0870398D02*
X1344157D01*
Y0867399D01*
X1346156Y0868399D01*
X1347156D01*
X1348155Y0867399D01*
Y0865400D01*
X1347156Y0864400D01*
X1345156D01*
X1344157Y0865400D01*
X1337159Y0941398D02*
X1336159Y0942398D01*
X1334160D01*
X1333160Y0941398D01*
Y0937400D01*
X1334160Y0936400D01*
X1336159D01*
X1337159Y0937400D01*
X1340158Y0936400D02*
X1342157D01*
X1343157Y0937400D01*
Y0939399D01*
X1342157Y0940399D01*
X1340158D01*
X1339158Y0939399D01*
Y0937400D01*
X1340158Y0936400D01*
X1345156D02*
Y0940399D01*
X1348155D01*
X1349155Y0939399D01*
Y0936400D01*
X1351154D02*
X1354153D01*
X1355153Y0937400D01*
X1354153Y0938399D01*
X1352154D01*
X1351154Y0939399D01*
X1352154Y0940399D01*
X1355153D01*
X1358152Y0941398D02*
Y0940399D01*
X1357152D01*
X1359152D01*
X1358152D01*
Y0937400D01*
X1359152Y0936400D01*
X1363151Y0940399D02*
X1365150D01*
X1366150Y0939399D01*
Y0936400D01*
X1363151D01*
X1362151Y0937400D01*
X1363151Y0938399D01*
X1366150D01*
X1368149Y0936400D02*
Y0940399D01*
X1371148D01*
X1372148Y0939399D01*
Y0936400D01*
X1375147Y0941398D02*
Y0940399D01*
X1374147D01*
X1376146D01*
X1375147D01*
Y0937400D01*
X1376146Y0936400D01*
X1268177Y0917398D02*
X1269176Y0918398D01*
X1271176D01*
X1272175Y0917398D01*
Y0913400D01*
X1271176Y0912400D01*
X1269176D01*
X1268177Y0913400D01*
Y0917398D01*
X1274175Y0912400D02*
Y0913400D01*
X1275175D01*
Y0912400D01*
X1274175D01*
X1282172D02*
Y0918398D01*
X1279173Y0915399D01*
X1283172D01*
X1285171Y0917398D02*
X1286171Y0918398D01*
X1288170D01*
X1289170Y0917398D01*
Y0913400D01*
X1288170Y0912400D01*
X1286171D01*
X1285171Y0913400D01*
Y0917398D01*
X1291169Y0912400D02*
Y0916399D01*
X1292169D01*
X1293169Y0915399D01*
Y0912400D01*
Y0915399D01*
X1294168Y0916399D01*
X1295168Y0915399D01*
Y0912400D01*
X1297167D02*
X1299167D01*
X1298167D01*
Y0916399D01*
X1297167D01*
X1302166Y0912400D02*
X1304165D01*
X1303165D01*
Y0918398D01*
X1302166D01*
X1268177Y0900400D02*
X1270176D01*
X1269176D01*
Y0906398D01*
X1268177Y0905398D01*
X1273175Y0900400D02*
Y0901400D01*
X1274175D01*
Y0900400D01*
X1273175D01*
X1281172D02*
Y0906398D01*
X1278174Y0903399D01*
X1282172D01*
X1284171Y0905398D02*
X1285171Y0906398D01*
X1287171D01*
X1288170Y0905398D01*
Y0901400D01*
X1287171Y0900400D01*
X1285171D01*
X1284171Y0901400D01*
Y0905398D01*
X1290170Y0900400D02*
Y0904399D01*
X1291169D01*
X1292169Y0903399D01*
Y0900400D01*
Y0903399D01*
X1293169Y0904399D01*
X1294168Y0903399D01*
Y0900400D01*
X1296168D02*
X1298167D01*
X1297167D01*
Y0904399D01*
X1296168D01*
X1301166Y0900400D02*
X1303165D01*
X1302166D01*
Y0906398D01*
X1301166D01*
X1272175Y0894398D02*
X1268177D01*
Y0891399D01*
X1270176Y0892399D01*
X1271176D01*
X1272175Y0891399D01*
Y0889400D01*
X1271176Y0888400D01*
X1269176D01*
X1268177Y0889400D01*
X1274175D02*
X1275175Y0888400D01*
X1277174D01*
X1278174Y0889400D01*
Y0893398D01*
X1277174Y0894398D01*
X1275175D01*
X1274175Y0893398D01*
Y0892399D01*
X1275175Y0891399D01*
X1278174D01*
X1280173Y0888400D02*
Y0889400D01*
X1281172D01*
Y0888400D01*
X1280173D01*
X1289170D02*
X1285171D01*
X1289170Y0892399D01*
Y0893398D01*
X1288170Y0894398D01*
X1286171D01*
X1285171Y0893398D01*
X1291169D02*
X1292169Y0894398D01*
X1294168D01*
X1295168Y0893398D01*
Y0889400D01*
X1294168Y0888400D01*
X1292169D01*
X1291169Y0889400D01*
Y0893398D01*
X1297167Y0888400D02*
Y0892399D01*
X1298167D01*
X1299167Y0891399D01*
Y0888400D01*
Y0891399D01*
X1300166Y0892399D01*
X1301166Y0891399D01*
Y0888400D01*
X1303165D02*
X1305165D01*
X1304165D01*
Y0892399D01*
X1303165D01*
X1308164Y0888400D02*
X1310163D01*
X1309163D01*
Y0894398D01*
X1308164D01*
X1268177Y0876400D02*
X1270176D01*
X1269176D01*
Y0882398D01*
X1268177Y0881398D01*
X1273175Y0876400D02*
Y0877400D01*
X1274175D01*
Y0876400D01*
X1273175D01*
X1281172D02*
Y0882398D01*
X1278174Y0879399D01*
X1282172D01*
X1284171Y0881398D02*
X1285171Y0882398D01*
X1287171D01*
X1288170Y0881398D01*
Y0877400D01*
X1287171Y0876400D01*
X1285171D01*
X1284171Y0877400D01*
Y0881398D01*
X1290170Y0876400D02*
Y0880399D01*
X1291169D01*
X1292169Y0879399D01*
Y0876400D01*
Y0879399D01*
X1293169Y0880399D01*
X1294168Y0879399D01*
Y0876400D01*
X1296168D02*
X1298167D01*
X1297167D01*
Y0880399D01*
X1296168D01*
X1301166Y0876400D02*
X1303165D01*
X1302166D01*
Y0882398D01*
X1301166D01*
X1268177Y0869398D02*
X1269176Y0870398D01*
X1271176D01*
X1272175Y0869398D01*
Y0865400D01*
X1271176Y0864400D01*
X1269176D01*
X1268177Y0865400D01*
Y0869398D01*
X1274175Y0864400D02*
Y0865400D01*
X1275175D01*
Y0864400D01*
X1274175D01*
X1282172D02*
Y0870398D01*
X1279173Y0867399D01*
X1283172D01*
X1285171Y0869398D02*
X1286171Y0870398D01*
X1288170D01*
X1289170Y0869398D01*
Y0865400D01*
X1288170Y0864400D01*
X1286171D01*
X1285171Y0865400D01*
Y0869398D01*
X1291169Y0864400D02*
Y0868399D01*
X1292169D01*
X1293169Y0867399D01*
Y0864400D01*
Y0867399D01*
X1294168Y0868399D01*
X1295168Y0867399D01*
Y0864400D01*
X1297167D02*
X1299167D01*
X1298167D01*
Y0868399D01*
X1297167D01*
X1302166Y0864400D02*
X1304165D01*
X1303165D01*
Y0870398D01*
X1302166D01*
X1268177Y0942398D02*
X1272175D01*
X1270176D01*
Y0936400D01*
X1274175Y0942398D02*
Y0936400D01*
Y0939399D01*
X1275175Y0940399D01*
X1277174D01*
X1278174Y0939399D01*
Y0936400D01*
X1280173D02*
X1282172D01*
X1281172D01*
Y0940399D01*
X1280173D01*
X1289170D02*
X1286171D01*
X1285171Y0939399D01*
Y0937400D01*
X1286171Y0936400D01*
X1289170D01*
X1291169D02*
Y0942398D01*
Y0938399D02*
X1294168Y0940399D01*
X1291169Y0938399D02*
X1294168Y0936400D01*
X1297167D02*
Y0940399D01*
X1300166D01*
X1301166Y0939399D01*
Y0936400D01*
X1306164D02*
X1304165D01*
X1303165Y0937400D01*
Y0939399D01*
X1304165Y0940399D01*
X1306164D01*
X1307164Y0939399D01*
Y0938399D01*
X1303165D01*
X1309163Y0936400D02*
X1312162D01*
X1313162Y0937400D01*
X1312162Y0938399D01*
X1310163D01*
X1309163Y0939399D01*
X1310163Y0940399D01*
X1313162D01*
X1315162Y0936400D02*
X1318161D01*
X1319160Y0937400D01*
X1318161Y0938399D01*
X1316161D01*
X1315162Y0939399D01*
X1316161Y0940399D01*
X1319160D01*
X1186199Y0917398D02*
X1185199Y0918398D01*
X1183200D01*
X1182200Y0917398D01*
Y0916399D01*
X1183200Y0915399D01*
X1185199D01*
X1186199Y0914399D01*
Y0913400D01*
X1185199Y0912400D01*
X1183200D01*
X1182200Y0913400D01*
X1189198Y0912400D02*
X1191197D01*
X1192197Y0913400D01*
Y0915399D01*
X1191197Y0916399D01*
X1189198D01*
X1188198Y0915399D01*
Y0913400D01*
X1189198Y0912400D01*
X1194196D02*
X1196196D01*
X1195196D01*
Y0918398D01*
X1194196D01*
X1203193D02*
Y0912400D01*
X1200194D01*
X1199195Y0913400D01*
Y0915399D01*
X1200194Y0916399D01*
X1203193D01*
X1208192Y0912400D02*
X1206192D01*
X1205193Y0913400D01*
Y0915399D01*
X1206192Y0916399D01*
X1208192D01*
X1209191Y0915399D01*
Y0914399D01*
X1205193D01*
X1211191Y0916399D02*
Y0912400D01*
Y0914399D01*
X1212190Y0915399D01*
X1213190Y0916399D01*
X1214190D01*
X1223187Y0912400D02*
Y0918398D01*
X1226186D01*
X1227185Y0917398D01*
Y0915399D01*
X1226186Y0914399D01*
X1223187D01*
X1225186D02*
X1227185Y0912400D01*
X1232184D02*
X1230184D01*
X1229185Y0913400D01*
Y0915399D01*
X1230184Y0916399D01*
X1232184D01*
X1233183Y0915399D01*
Y0914399D01*
X1229185D01*
X1235183Y0912400D02*
X1238182D01*
X1239182Y0913400D01*
X1238182Y0914399D01*
X1236182D01*
X1235183Y0915399D01*
X1236182Y0916399D01*
X1239182D01*
X1241181Y0912400D02*
X1243180D01*
X1242181D01*
Y0916399D01*
X1241181D01*
X1246179Y0912400D02*
X1249178D01*
X1250178Y0913400D01*
X1249178Y0914399D01*
X1247179D01*
X1246179Y0915399D01*
X1247179Y0916399D01*
X1250178D01*
X1253177Y0917398D02*
Y0916399D01*
X1252177D01*
X1254177D01*
X1253177D01*
Y0913400D01*
X1254177Y0912400D01*
X1186199Y0905398D02*
X1185199Y0906398D01*
X1183200D01*
X1182200Y0905398D01*
Y0901400D01*
X1183200Y0900400D01*
X1185199D01*
X1186199Y0901400D01*
X1189198Y0900400D02*
X1191197D01*
X1192197Y0901400D01*
Y0903399D01*
X1191197Y0904399D01*
X1189198D01*
X1188198Y0903399D01*
Y0901400D01*
X1189198Y0900400D01*
X1194196Y0898401D02*
Y0904399D01*
X1197195D01*
X1198195Y0903399D01*
Y0901400D01*
X1197195Y0900400D01*
X1194196D01*
X1200194Y0898401D02*
Y0904399D01*
X1203193D01*
X1204193Y0903399D01*
Y0901400D01*
X1203193Y0900400D01*
X1200194D01*
X1209191D02*
X1207192D01*
X1206192Y0901400D01*
Y0903399D01*
X1207192Y0904399D01*
X1209191D01*
X1210191Y0903399D01*
Y0902399D01*
X1206192D01*
X1212190Y0904399D02*
Y0900400D01*
Y0902399D01*
X1213190Y0903399D01*
X1214190Y0904399D01*
X1215189D01*
X1186199Y0894398D02*
X1182200D01*
Y0891399D01*
X1184199D01*
X1182200D01*
Y0888400D01*
X1188198D02*
Y0894398D01*
X1191197D01*
X1192197Y0893398D01*
Y0891399D01*
X1191197Y0890399D01*
X1188198D01*
X1190197D02*
X1192197Y0888400D01*
X1194196Y0891399D02*
X1198195D01*
X1203193Y0888400D02*
Y0894398D01*
X1200194Y0891399D01*
X1204193D01*
X1186199Y0881398D02*
X1185199Y0882398D01*
X1183200D01*
X1182200Y0881398D01*
Y0877400D01*
X1183200Y0876400D01*
X1185199D01*
X1186199Y0877400D01*
X1189198Y0876400D02*
X1191197D01*
X1192197Y0877400D01*
Y0879399D01*
X1191197Y0880399D01*
X1189198D01*
X1188198Y0879399D01*
Y0877400D01*
X1189198Y0876400D01*
X1194196Y0874401D02*
Y0880399D01*
X1197195D01*
X1198195Y0879399D01*
Y0877400D01*
X1197195Y0876400D01*
X1194196D01*
X1200194Y0874401D02*
Y0880399D01*
X1203193D01*
X1204193Y0879399D01*
Y0877400D01*
X1203193Y0876400D01*
X1200194D01*
X1209191D02*
X1207192D01*
X1206192Y0877400D01*
Y0879399D01*
X1207192Y0880399D01*
X1209191D01*
X1210191Y0879399D01*
Y0878399D01*
X1206192D01*
X1212190Y0880399D02*
Y0876400D01*
Y0878399D01*
X1213190Y0879399D01*
X1214190Y0880399D01*
X1215189D01*
X1186199Y0869398D02*
X1185199Y0870398D01*
X1183200D01*
X1182200Y0869398D01*
Y0868399D01*
X1183200Y0867399D01*
X1185199D01*
X1186199Y0866399D01*
Y0865400D01*
X1185199Y0864400D01*
X1183200D01*
X1182200Y0865400D01*
X1189198Y0864400D02*
X1191197D01*
X1192197Y0865400D01*
Y0867399D01*
X1191197Y0868399D01*
X1189198D01*
X1188198Y0867399D01*
Y0865400D01*
X1189198Y0864400D01*
X1194196D02*
X1196196D01*
X1195196D01*
Y0870398D01*
X1194196D01*
X1203193D02*
Y0864400D01*
X1200194D01*
X1199195Y0865400D01*
Y0867399D01*
X1200194Y0868399D01*
X1203193D01*
X1208192Y0864400D02*
X1206192D01*
X1205193Y0865400D01*
Y0867399D01*
X1206192Y0868399D01*
X1208192D01*
X1209191Y0867399D01*
Y0866399D01*
X1205193D01*
X1211191Y0868399D02*
Y0864400D01*
Y0866399D01*
X1212190Y0867399D01*
X1213190Y0868399D01*
X1214190D01*
X1223187Y0864400D02*
Y0870398D01*
X1226186D01*
X1227185Y0869398D01*
Y0867399D01*
X1226186Y0866399D01*
X1223187D01*
X1225186D02*
X1227185Y0864400D01*
X1232184D02*
X1230184D01*
X1229185Y0865400D01*
Y0867399D01*
X1230184Y0868399D01*
X1232184D01*
X1233183Y0867399D01*
Y0866399D01*
X1229185D01*
X1235183Y0864400D02*
X1238182D01*
X1239182Y0865400D01*
X1238182Y0866399D01*
X1236182D01*
X1235183Y0867399D01*
X1236182Y0868399D01*
X1239182D01*
X1241181Y0864400D02*
X1243180D01*
X1242181D01*
Y0868399D01*
X1241181D01*
X1246179Y0864400D02*
X1249178D01*
X1250178Y0865400D01*
X1249178Y0866399D01*
X1247179D01*
X1246179Y0867399D01*
X1247179Y0868399D01*
X1250178D01*
X1253177Y0869398D02*
Y0868399D01*
X1252177D01*
X1254177D01*
X1253177D01*
Y0865400D01*
X1254177Y0864400D01*
X1182200Y0936400D02*
Y0942398D01*
X1184199Y0940399D01*
X1186199Y0942398D01*
Y0936400D01*
X1189198Y0940399D02*
X1191197D01*
X1192197Y0939399D01*
Y0936400D01*
X1189198D01*
X1188198Y0937400D01*
X1189198Y0938399D01*
X1192197D01*
X1195196Y0941398D02*
Y0940399D01*
X1194196D01*
X1196196D01*
X1195196D01*
Y0937400D01*
X1196196Y0936400D01*
X1202194D02*
X1200194D01*
X1199195Y0937400D01*
Y0939399D01*
X1200194Y0940399D01*
X1202194D01*
X1203193Y0939399D01*
Y0938399D01*
X1199195D01*
X1205193Y0940399D02*
Y0936400D01*
Y0938399D01*
X1206192Y0939399D01*
X1207192Y0940399D01*
X1208192D01*
X1211191Y0936400D02*
X1213190D01*
X1212190D01*
Y0940399D01*
X1211191D01*
X1217189D02*
X1219188D01*
X1220188Y0939399D01*
Y0936400D01*
X1217189D01*
X1216189Y0937400D01*
X1217189Y0938399D01*
X1220188D01*
X1222187Y0936400D02*
X1224186D01*
X1223187D01*
Y0942398D01*
X1222187D01*
X1089225Y0930398D02*
X1093224D01*
X1091225D01*
Y0924400D01*
X1096223D02*
X1098223D01*
X1099222Y0925400D01*
Y0927399D01*
X1098223Y0928399D01*
X1096223D01*
X1095224Y0927399D01*
Y0925400D01*
X1096223Y0924400D01*
X1101222Y0922401D02*
Y0928399D01*
X1104221D01*
X1105220Y0927399D01*
Y0925400D01*
X1104221Y0924400D01*
X1101222D01*
X1116217Y0930398D02*
X1114217D01*
X1113218Y0929398D01*
Y0925400D01*
X1114217Y0924400D01*
X1116217D01*
X1117216Y0925400D01*
Y0929398D01*
X1116217Y0930398D01*
X1119216Y0928399D02*
X1121215Y0924400D01*
X1123215Y0928399D01*
X1128213Y0924400D02*
X1126214D01*
X1125214Y0925400D01*
Y0927399D01*
X1126214Y0928399D01*
X1128213D01*
X1129213Y0927399D01*
Y0926399D01*
X1125214D01*
X1131212Y0928399D02*
Y0924400D01*
Y0926399D01*
X1132212Y0927399D01*
X1133211Y0928399D01*
X1134211D01*
X1137210Y0924400D02*
X1139209D01*
X1138210D01*
Y0930398D01*
X1137210D01*
X1143208Y0928399D02*
X1145207D01*
X1146207Y0927399D01*
Y0924400D01*
X1143208D01*
X1142208Y0925400D01*
X1143208Y0926399D01*
X1146207D01*
X1148207Y0928399D02*
Y0925400D01*
X1149206Y0924400D01*
X1152205D01*
Y0923400D01*
X1151206Y0922401D01*
X1150206D01*
X1152205Y0924400D02*
Y0928399D01*
X1089225Y0918398D02*
X1093224D01*
X1091225D01*
Y0912400D01*
X1096223D02*
X1098223D01*
X1099222Y0913400D01*
Y0915399D01*
X1098223Y0916399D01*
X1096223D01*
X1095224Y0915399D01*
Y0913400D01*
X1096223Y0912400D01*
X1101222Y0910401D02*
Y0916399D01*
X1104221D01*
X1105220Y0915399D01*
Y0913400D01*
X1104221Y0912400D01*
X1101222D01*
X1117216Y0917398D02*
X1116217Y0918398D01*
X1114217D01*
X1113218Y0917398D01*
Y0916399D01*
X1114217Y0915399D01*
X1116217D01*
X1117216Y0914399D01*
Y0913400D01*
X1116217Y0912400D01*
X1114217D01*
X1113218Y0913400D01*
X1120216Y0912400D02*
X1122215D01*
X1123215Y0913400D01*
Y0915399D01*
X1122215Y0916399D01*
X1120216D01*
X1119216Y0915399D01*
Y0913400D01*
X1120216Y0912400D01*
X1125214D02*
X1127213D01*
X1126214D01*
Y0918398D01*
X1125214D01*
X1134211D02*
Y0912400D01*
X1131212D01*
X1130212Y0913400D01*
Y0915399D01*
X1131212Y0916399D01*
X1134211D01*
X1139209Y0912400D02*
X1137210D01*
X1136210Y0913400D01*
Y0915399D01*
X1137210Y0916399D01*
X1139209D01*
X1140209Y0915399D01*
Y0914399D01*
X1136210D01*
X1142208Y0916399D02*
Y0912400D01*
Y0914399D01*
X1143208Y0915399D01*
X1144208Y0916399D01*
X1145207D01*
X1089225Y0906398D02*
X1093224D01*
X1091225D01*
Y0900400D01*
X1096223D02*
X1098223D01*
X1099222Y0901400D01*
Y0903399D01*
X1098223Y0904399D01*
X1096223D01*
X1095224Y0903399D01*
Y0901400D01*
X1096223Y0900400D01*
X1101222Y0898401D02*
Y0904399D01*
X1104221D01*
X1105220Y0903399D01*
Y0901400D01*
X1104221Y0900400D01*
X1101222D01*
X1113218Y0906398D02*
Y0900400D01*
X1117216D01*
X1120216Y0904399D02*
X1122215D01*
X1123215Y0903399D01*
Y0900400D01*
X1120216D01*
X1119216Y0901400D01*
X1120216Y0902399D01*
X1123215D01*
X1125214Y0904399D02*
Y0901400D01*
X1126214Y0900400D01*
X1129213D01*
Y0899400D01*
X1128213Y0898401D01*
X1127213D01*
X1129213Y0900400D02*
Y0904399D01*
X1134211Y0900400D02*
X1132212D01*
X1131212Y0901400D01*
Y0903399D01*
X1132212Y0904399D01*
X1134211D01*
X1135211Y0903399D01*
Y0902399D01*
X1131212D01*
X1137210Y0904399D02*
Y0900400D01*
Y0902399D01*
X1138210Y0903399D01*
X1139209Y0904399D01*
X1140209D01*
X1089225Y0894398D02*
Y0888400D01*
X1092225D01*
X1093224Y0889400D01*
Y0893398D01*
X1092225Y0894398D01*
X1089225D01*
X1095224Y0888400D02*
X1097223D01*
X1096223D01*
Y0892399D01*
X1095224D01*
X1103221Y0888400D02*
X1101222D01*
X1100222Y0889400D01*
Y0891399D01*
X1101222Y0892399D01*
X1103221D01*
X1104221Y0891399D01*
Y0890399D01*
X1100222D01*
X1106220Y0888400D02*
X1108219D01*
X1107220D01*
Y0894398D01*
X1106220D01*
X1114217Y0888400D02*
X1112218D01*
X1111218Y0889400D01*
Y0891399D01*
X1112218Y0892399D01*
X1114217D01*
X1115217Y0891399D01*
Y0890399D01*
X1111218D01*
X1121215Y0892399D02*
X1118216D01*
X1117216Y0891399D01*
Y0889400D01*
X1118216Y0888400D01*
X1121215D01*
X1124214Y0893398D02*
Y0892399D01*
X1123215D01*
X1125214D01*
X1124214D01*
Y0889400D01*
X1125214Y0888400D01*
X1128213Y0892399D02*
Y0888400D01*
Y0890399D01*
X1129213Y0891399D01*
X1130212Y0892399D01*
X1131212D01*
X1134211Y0888400D02*
X1136210D01*
X1135211D01*
Y0892399D01*
X1134211D01*
X1143208D02*
X1140209D01*
X1139209Y0891399D01*
Y0889400D01*
X1140209Y0888400D01*
X1143208D01*
X1145207D02*
X1147207D01*
X1146207D01*
Y0894398D01*
X1145207Y0893398D01*
X1089225Y0882398D02*
Y0876400D01*
X1092225D01*
X1093224Y0877400D01*
Y0878399D01*
X1092225Y0879399D01*
X1089225D01*
X1092225D01*
X1093224Y0880399D01*
Y0881398D01*
X1092225Y0882398D01*
X1089225D01*
X1096223Y0876400D02*
X1098223D01*
X1099222Y0877400D01*
Y0879399D01*
X1098223Y0880399D01*
X1096223D01*
X1095224Y0879399D01*
Y0877400D01*
X1096223Y0876400D01*
X1102221Y0881398D02*
Y0880399D01*
X1101222D01*
X1103221D01*
X1102221D01*
Y0877400D01*
X1103221Y0876400D01*
X1107220Y0881398D02*
Y0880399D01*
X1106220D01*
X1108219D01*
X1107220D01*
Y0877400D01*
X1108219Y0876400D01*
X1112218D02*
X1114217D01*
X1115217Y0877400D01*
Y0879399D01*
X1114217Y0880399D01*
X1112218D01*
X1111218Y0879399D01*
Y0877400D01*
X1112218Y0876400D01*
X1117216D02*
Y0880399D01*
X1118216D01*
X1119216Y0879399D01*
Y0876400D01*
Y0879399D01*
X1120216Y0880399D01*
X1121215Y0879399D01*
Y0876400D01*
X1129213Y0882398D02*
Y0876400D01*
X1133211D01*
X1136210Y0880399D02*
X1138210D01*
X1139209Y0879399D01*
Y0876400D01*
X1136210D01*
X1135211Y0877400D01*
X1136210Y0878399D01*
X1139209D01*
X1141209Y0880399D02*
Y0877400D01*
X1142208Y0876400D01*
X1145207D01*
Y0875400D01*
X1144208Y0874401D01*
X1143208D01*
X1145207Y0876400D02*
Y0880399D01*
X1150206Y0876400D02*
X1148207D01*
X1147207Y0877400D01*
Y0879399D01*
X1148207Y0880399D01*
X1150206D01*
X1151206Y0879399D01*
Y0878399D01*
X1147207D01*
X1153205Y0880399D02*
Y0876400D01*
Y0878399D01*
X1154204Y0879399D01*
X1155204Y0880399D01*
X1156204D01*
X1089225Y0870398D02*
Y0864400D01*
X1092225D01*
X1093224Y0865400D01*
Y0866399D01*
X1092225Y0867399D01*
X1089225D01*
X1092225D01*
X1093224Y0868399D01*
Y0869398D01*
X1092225Y0870398D01*
X1089225D01*
X1096223Y0864400D02*
X1098223D01*
X1099222Y0865400D01*
Y0867399D01*
X1098223Y0868399D01*
X1096223D01*
X1095224Y0867399D01*
Y0865400D01*
X1096223Y0864400D01*
X1102221Y0869398D02*
Y0868399D01*
X1101222D01*
X1103221D01*
X1102221D01*
Y0865400D01*
X1103221Y0864400D01*
X1107220Y0869398D02*
Y0868399D01*
X1106220D01*
X1108219D01*
X1107220D01*
Y0865400D01*
X1108219Y0864400D01*
X1112218D02*
X1114217D01*
X1115217Y0865400D01*
Y0867399D01*
X1114217Y0868399D01*
X1112218D01*
X1111218Y0867399D01*
Y0865400D01*
X1112218Y0864400D01*
X1117216D02*
Y0868399D01*
X1118216D01*
X1119216Y0867399D01*
Y0864400D01*
Y0867399D01*
X1120216Y0868399D01*
X1121215Y0867399D01*
Y0864400D01*
X1133211Y0869398D02*
X1132212Y0870398D01*
X1130212D01*
X1129213Y0869398D01*
Y0868399D01*
X1130212Y0867399D01*
X1132212D01*
X1133211Y0866399D01*
Y0865400D01*
X1132212Y0864400D01*
X1130212D01*
X1129213Y0865400D01*
X1136210Y0864400D02*
X1138210D01*
X1139209Y0865400D01*
Y0867399D01*
X1138210Y0868399D01*
X1136210D01*
X1135211Y0867399D01*
Y0865400D01*
X1136210Y0864400D01*
X1141209D02*
X1143208D01*
X1142208D01*
Y0870398D01*
X1141209D01*
X1150206D02*
Y0864400D01*
X1147207D01*
X1146207Y0865400D01*
Y0867399D01*
X1147207Y0868399D01*
X1150206D01*
X1155204Y0864400D02*
X1153205D01*
X1152205Y0865400D01*
Y0867399D01*
X1153205Y0868399D01*
X1155204D01*
X1156204Y0867399D01*
Y0866399D01*
X1152205D01*
X1158203Y0868399D02*
Y0864400D01*
Y0866399D01*
X1159203Y0867399D01*
X1160203Y0868399D01*
X1161202D01*
X1089225Y0858398D02*
Y0852400D01*
X1092225D01*
X1093224Y0853400D01*
Y0854399D01*
X1092225Y0855399D01*
X1089225D01*
X1092225D01*
X1093224Y0856399D01*
Y0857398D01*
X1092225Y0858398D01*
X1089225D01*
X1096223Y0852400D02*
X1098223D01*
X1099222Y0853400D01*
Y0855399D01*
X1098223Y0856399D01*
X1096223D01*
X1095224Y0855399D01*
Y0853400D01*
X1096223Y0852400D01*
X1102221Y0857398D02*
Y0856399D01*
X1101222D01*
X1103221D01*
X1102221D01*
Y0853400D01*
X1103221Y0852400D01*
X1107220Y0857398D02*
Y0856399D01*
X1106220D01*
X1108219D01*
X1107220D01*
Y0853400D01*
X1108219Y0852400D01*
X1112218D02*
X1114217D01*
X1115217Y0853400D01*
Y0855399D01*
X1114217Y0856399D01*
X1112218D01*
X1111218Y0855399D01*
Y0853400D01*
X1112218Y0852400D01*
X1117216D02*
Y0856399D01*
X1118216D01*
X1119216Y0855399D01*
Y0852400D01*
Y0855399D01*
X1120216Y0856399D01*
X1121215Y0855399D01*
Y0852400D01*
X1132212Y0858398D02*
X1130212D01*
X1129213Y0857398D01*
Y0853400D01*
X1130212Y0852400D01*
X1132212D01*
X1133211Y0853400D01*
Y0857398D01*
X1132212Y0858398D01*
X1135211Y0856399D02*
X1137210Y0852400D01*
X1139209Y0856399D01*
X1144208Y0852400D02*
X1142208D01*
X1141209Y0853400D01*
Y0855399D01*
X1142208Y0856399D01*
X1144208D01*
X1145207Y0855399D01*
Y0854399D01*
X1141209D01*
X1147207Y0856399D02*
Y0852400D01*
Y0854399D01*
X1148207Y0855399D01*
X1149206Y0856399D01*
X1150206D01*
X1153205Y0852400D02*
X1155204D01*
X1154204D01*
Y0858398D01*
X1153205D01*
X1159203Y0856399D02*
X1161202D01*
X1162202Y0855399D01*
Y0852400D01*
X1159203D01*
X1158203Y0853400D01*
X1159203Y0854399D01*
X1162202D01*
X1164201Y0856399D02*
Y0853400D01*
X1165201Y0852400D01*
X1168200D01*
Y0851400D01*
X1167200Y0850401D01*
X1166201D01*
X1168200Y0852400D02*
Y0856399D01*
X1089225Y0936400D02*
Y0942398D01*
X1093224Y0936400D01*
Y0942398D01*
X1096223Y0940399D02*
X1098223D01*
X1099222Y0939399D01*
Y0936400D01*
X1096223D01*
X1095224Y0937400D01*
X1096223Y0938399D01*
X1099222D01*
X1101222Y0936400D02*
Y0940399D01*
X1102221D01*
X1103221Y0939399D01*
Y0936400D01*
Y0939399D01*
X1104221Y0940399D01*
X1105220Y0939399D01*
Y0936400D01*
X1110219D02*
X1108219D01*
X1107220Y0937400D01*
Y0939399D01*
X1108219Y0940399D01*
X1110219D01*
X1111218Y0939399D01*
Y0938399D01*
X1107220D01*
X1048234Y0924400D02*
X1050234D01*
X1049234D01*
Y0930398D01*
X1048234Y0929398D01*
X1052233Y0912400D02*
X1048234D01*
X1052233Y0916399D01*
Y0917398D01*
X1051233Y0918398D01*
X1049234D01*
X1048234Y0917398D01*
Y0905398D02*
X1049234Y0906398D01*
X1051233D01*
X1052233Y0905398D01*
Y0904399D01*
X1051233Y0903399D01*
X1050234D01*
X1051233D01*
X1052233Y0902399D01*
Y0901400D01*
X1051233Y0900400D01*
X1049234D01*
X1048234Y0901400D01*
X1051233Y0888400D02*
Y0894398D01*
X1048234Y0891399D01*
X1052233D01*
Y0882398D02*
X1048234D01*
Y0879399D01*
X1050234Y0880399D01*
X1051233D01*
X1052233Y0879399D01*
Y0877400D01*
X1051233Y0876400D01*
X1049234D01*
X1048234Y0877400D01*
X1052233Y0870398D02*
X1050234Y0869398D01*
X1048234Y0867399D01*
Y0865400D01*
X1049234Y0864400D01*
X1051233D01*
X1052233Y0865400D01*
Y0866399D01*
X1051233Y0867399D01*
X1048234D01*
Y0858398D02*
X1052233D01*
Y0857398D01*
X1048234Y0853400D01*
Y0852400D01*
Y0942398D02*
Y0936400D01*
X1052233D01*
X1055232Y0940399D02*
X1057231D01*
X1058231Y0939399D01*
Y0936400D01*
X1055232D01*
X1054232Y0937400D01*
X1055232Y0938399D01*
X1058231D01*
X1060230Y0940399D02*
Y0937400D01*
X1061230Y0936400D01*
X1064229D01*
Y0935400D01*
X1063229Y0934401D01*
X1062230D01*
X1064229Y0936400D02*
Y0940399D01*
X1069228Y0936400D02*
X1067228D01*
X1066228Y0937400D01*
Y0939399D01*
X1067228Y0940399D01*
X1069228D01*
X1070227Y0939399D01*
Y0938399D01*
X1066228D01*
X1072227Y0940399D02*
Y0936400D01*
Y0938399D01*
X1073226Y0939399D01*
X1074226Y0940399D01*
X1075226D01*
X0559400Y0039400D02*
Y0059683D01*
X0440500Y0040050D02*
X0700200D01*
Y0101050D01*
X0286500Y0040050D02*
Y0101050D01*
X0040000Y0040050D02*
Y0101050D01*
X0040050Y0040050D02*
X0197600D01*
X0040050D02*
Y0101050D01*
Y0101050D02*
X0700200D01*
X0040000Y0040050D02*
X0440500D01*
X0040000Y0060383D02*
X0700000D01*
X0040000Y0080717D02*
X0700200D01*
X0413200D02*
Y0101050D01*
X0497200Y0080717D02*
Y0101050D01*
G54D49*
X0126900Y0067551D02*
Y0073549D01*
X0128899Y0071549D01*
X0130899Y0073549D01*
Y0067551D01*
X0132898D02*
X0134897D01*
X0133898D01*
Y0073549D01*
X0132898Y0072549D01*
X0141895Y0067551D02*
X0137896D01*
X0141895Y0071549D01*
Y0072549D01*
X0140895Y0073549D01*
X0138896D01*
X0137896Y0072549D01*
X0153891D02*
X0152892Y0073549D01*
X0150892D01*
X0149893Y0072549D01*
Y0071549D01*
X0150892Y0070550D01*
X0152892D01*
X0153891Y0069550D01*
Y0068550D01*
X0152892Y0067551D01*
X0150892D01*
X0149893Y0068550D01*
X0156890Y0072549D02*
Y0071549D01*
X0155891D01*
X0157890D01*
X0156890D01*
Y0068550D01*
X0157890Y0067551D01*
X0161889Y0071549D02*
X0163888D01*
X0164888Y0070550D01*
Y0067551D01*
X0161889D01*
X0160889Y0068550D01*
X0161889Y0069550D01*
X0164888D01*
X0170886Y0071549D02*
X0167887D01*
X0166887Y0070550D01*
Y0068550D01*
X0167887Y0067551D01*
X0170886D01*
X0172885D02*
Y0073549D01*
Y0069550D02*
X0175884Y0071549D01*
X0172885Y0069550D02*
X0175884Y0067551D01*
X0178883Y0071549D02*
Y0068550D01*
X0179883Y0067551D01*
X0182882D01*
Y0071549D01*
X0184881Y0065551D02*
Y0071549D01*
X0187880D01*
X0188880Y0070550D01*
Y0068550D01*
X0187880Y0067551D01*
X0184881D01*
X0348550Y0067500D02*
Y0073498D01*
X0352549Y0067500D01*
Y0073498D01*
X0354548Y0067500D02*
X0358547Y0071499D01*
X0360546Y0067500D02*
Y0071499D01*
X0362545Y0073498D01*
X0364545Y0071499D01*
Y0067500D01*
Y0070499D01*
X0360546D01*
X0294000Y0073498D02*
X0297999D01*
X0295999D01*
Y0067500D01*
X0299998Y0073498D02*
X0301997D01*
X0300998D01*
Y0067500D01*
X0299998D01*
X0301997D01*
X0304996Y0073498D02*
Y0067500D01*
X0307996D01*
X0308995Y0068500D01*
Y0072498D01*
X0307996Y0073498D01*
X0304996D01*
X0317992Y0067500D02*
Y0073498D01*
X0319992D02*
Y0067500D01*
X0316993Y0071499D02*
X0319992D01*
X0320991D01*
X0316993Y0069499D02*
X0320991D01*
X0322991Y0071499D02*
X0323990D01*
Y0070499D01*
X0322991D01*
Y0071499D01*
Y0068500D02*
X0323990D01*
Y0067500D01*
X0322991D01*
Y0068500D01*
X0580500Y0052965D02*
X0584499D01*
X0582499D01*
Y0046966D01*
X0590497Y0052965D02*
X0586498D01*
Y0046966D01*
X0590497D01*
X0586498Y0049966D02*
X0588497D01*
X0592496Y0052965D02*
X0596495Y0046966D01*
Y0052965D02*
X0592496Y0046966D01*
X0598494D02*
Y0050965D01*
X0600493Y0052965D01*
X0602493Y0050965D01*
Y0046966D01*
Y0049966D01*
X0598494D01*
X0608491Y0051965D02*
X0607491Y0052965D01*
X0605492D01*
X0604492Y0051965D01*
Y0050965D01*
X0605492Y0049966D01*
X0607491D01*
X0608491Y0048966D01*
Y0047966D01*
X0607491Y0046966D01*
X0605492D01*
X0604492Y0047966D01*
X0616488Y0052965D02*
X0618488D01*
X0617488D01*
Y0046966D01*
X0616488D01*
X0618488D01*
X0621487D02*
Y0052965D01*
X0625486Y0046966D01*
Y0052965D01*
X0631484Y0051965D02*
X0630484Y0052965D01*
X0628484D01*
X0627485Y0051965D01*
Y0050965D01*
X0628484Y0049966D01*
X0630484D01*
X0631484Y0048966D01*
Y0047966D01*
X0630484Y0046966D01*
X0628484D01*
X0627485Y0047966D01*
X0633483Y0052965D02*
X0637482D01*
X0635482D01*
Y0046966D01*
X0639481D02*
Y0052965D01*
X0642480D01*
X0643480Y0051965D01*
Y0049966D01*
X0642480Y0048966D01*
X0639481D01*
X0641480D02*
X0643480Y0046966D01*
X0645479Y0052965D02*
Y0047966D01*
X0646479Y0046966D01*
X0648478D01*
X0649478Y0047966D01*
Y0052965D01*
X0651477Y0046966D02*
Y0052965D01*
X0653476Y0050965D01*
X0655476Y0052965D01*
Y0046966D01*
X0661474Y0052965D02*
X0657475D01*
Y0046966D01*
X0661474D01*
X0657475Y0049966D02*
X0659474D01*
X0663473Y0046966D02*
Y0052965D01*
X0667472Y0046966D01*
Y0052965D01*
X0669471D02*
X0673470D01*
X0671471D01*
Y0046966D01*
X0679468Y0051965D02*
X0678468Y0052965D01*
X0676469D01*
X0675469Y0051965D01*
Y0050965D01*
X0676469Y0049966D01*
X0678468D01*
X0679468Y0048966D01*
Y0047966D01*
X0678468Y0046966D01*
X0676469D01*
X0675469Y0047966D01*
X0457049Y0046966D02*
Y0052965D01*
X0454050Y0049966D01*
X0458049D01*
X0460048Y0050965D02*
X0461048D01*
Y0049966D01*
X0460048D01*
Y0050965D01*
Y0047966D02*
X0461048D01*
Y0046966D01*
X0460048D01*
Y0047966D01*
X0465046Y0051965D02*
X0466046Y0052965D01*
X0468046D01*
X0469045Y0051965D01*
Y0050965D01*
X0468046Y0049966D01*
X0467046D01*
X0468046D01*
X0469045Y0048966D01*
Y0047966D01*
X0468046Y0046966D01*
X0466046D01*
X0465046Y0047966D01*
X0471044Y0051965D02*
X0472044Y0052965D01*
X0474044D01*
X0475043Y0051965D01*
Y0047966D01*
X0474044Y0046966D01*
X0472044D01*
X0471044Y0047966D01*
Y0051965D01*
X0477043Y0050965D02*
X0478042D01*
Y0049966D01*
X0477043D01*
Y0050965D01*
Y0047966D02*
X0478042D01*
Y0046966D01*
X0477043D01*
Y0047966D01*
X0485040Y0046966D02*
Y0052965D01*
X0482041Y0049966D01*
X0486040D01*
X0492038Y0052965D02*
X0490038Y0051965D01*
X0488039Y0049966D01*
Y0047966D01*
X0489039Y0046966D01*
X0491038D01*
X0492038Y0047966D01*
Y0048966D01*
X0491038Y0049966D01*
X0488039D01*
X0500035Y0046966D02*
Y0052965D01*
X0503034D01*
X0504034Y0051965D01*
Y0049966D01*
X0503034Y0048966D01*
X0500035D01*
X0506033Y0046966D02*
Y0052965D01*
X0508033Y0050965D01*
X0510032Y0052965D01*
Y0046966D01*
X0046350D02*
Y0052965D01*
X0049349D01*
X0050349Y0051965D01*
Y0049966D01*
X0049349Y0048966D01*
X0046350D01*
X0052348Y0052965D02*
Y0046966D01*
X0056347D01*
X0061345Y0052965D02*
X0059346D01*
X0058346Y0051965D01*
Y0047966D01*
X0059346Y0046966D01*
X0061345D01*
X0062345Y0047966D01*
Y0051965D01*
X0061345Y0052965D01*
X0064344D02*
X0068343D01*
X0066343D01*
Y0046966D01*
X0076340D02*
Y0052965D01*
X0080339Y0046966D01*
Y0052965D01*
X0082338Y0046966D02*
Y0050965D01*
X0084338Y0052965D01*
X0086337Y0050965D01*
Y0046966D01*
Y0049966D01*
X0082338D01*
X0088336Y0046966D02*
Y0052965D01*
X0090336Y0050965D01*
X0092335Y0052965D01*
Y0046966D01*
X0098333Y0052965D02*
X0094335D01*
Y0046966D01*
X0098333D01*
X0094335Y0049966D02*
X0096334D01*
X0106331Y0048966D02*
X0110329D01*
X0106331Y0050965D02*
X0110329D01*
X0046350Y0073549D02*
Y0067551D01*
X0050349D01*
X0052348D02*
Y0071549D01*
X0054347Y0073549D01*
X0056347Y0071549D01*
Y0067551D01*
Y0070550D01*
X0052348D01*
X0058346Y0073549D02*
Y0072549D01*
X0060346Y0070550D01*
X0062345Y0072549D01*
Y0073549D01*
X0060346Y0070550D02*
Y0067551D01*
X0068343Y0073549D02*
X0064344D01*
Y0067551D01*
X0068343D01*
X0064344Y0070550D02*
X0066343D01*
X0070342Y0067551D02*
Y0073549D01*
X0073341D01*
X0074341Y0072549D01*
Y0070550D01*
X0073341Y0069550D01*
X0070342D01*
X0072342D02*
X0074341Y0067551D01*
X0082338D02*
Y0073549D01*
X0086337Y0067551D01*
Y0073549D01*
X0088336Y0067551D02*
Y0071549D01*
X0090336Y0073549D01*
X0092335Y0071549D01*
Y0067551D01*
Y0070550D01*
X0088336D01*
X0094335Y0067551D02*
Y0073549D01*
X0096334Y0071549D01*
X0098333Y0073549D01*
Y0067551D01*
X0104331Y0073549D02*
X0100332D01*
Y0067551D01*
X0104331D01*
X0100332Y0070550D02*
X0102332D01*
X0112329Y0069550D02*
X0116327D01*
X0112329Y0071549D02*
X0116327D01*
X0294000Y0093831D02*
Y0087833D01*
X0296999D01*
X0297999Y0088833D01*
Y0089833D01*
X0296999Y0090832D01*
X0294000D01*
X0296999D01*
X0297999Y0091832D01*
Y0092832D01*
X0296999Y0093831D01*
X0294000D01*
X0302997D02*
X0300998D01*
X0299998Y0092832D01*
Y0088833D01*
X0300998Y0087833D01*
X0302997D01*
X0303997Y0088833D01*
Y0092832D01*
X0302997Y0093831D01*
X0305996Y0087833D02*
Y0091832D01*
X0307996Y0093831D01*
X0309995Y0091832D01*
Y0087833D01*
Y0090832D01*
X0305996D01*
X0311994Y0087833D02*
Y0093831D01*
X0314993D01*
X0315993Y0092832D01*
Y0090832D01*
X0314993Y0089833D01*
X0311994D01*
X0313994D02*
X0315993Y0087833D01*
X0317992Y0093831D02*
Y0087833D01*
X0320991D01*
X0321991Y0088833D01*
Y0092832D01*
X0320991Y0093831D01*
X0317992D01*
X0330988Y0087833D02*
Y0093831D01*
X0332987D02*
Y0087833D01*
X0329988Y0091832D02*
X0332987D01*
X0333987D01*
X0329988Y0089833D02*
X0333987D01*
X0335986Y0091832D02*
X0336986D01*
Y0090832D01*
X0335986D01*
Y0091832D01*
Y0088833D02*
X0336986D01*
Y0087833D01*
X0335986D01*
Y0088833D01*
X0348550Y0087833D02*
Y0093831D01*
X0350549Y0091832D01*
X0352549Y0093831D01*
Y0087833D01*
X0358547Y0092832D02*
X0357547Y0093831D01*
X0355548D01*
X0354548Y0092832D01*
Y0088833D01*
X0355548Y0087833D01*
X0357547D01*
X0358547Y0088833D01*
X0360546Y0093831D02*
Y0088833D01*
X0361546Y0087833D01*
X0363545D01*
X0364545Y0088833D01*
Y0093831D01*
X0366544Y0092832D02*
X0367544Y0093831D01*
X0369543D01*
X0370543Y0092832D01*
Y0088833D01*
X0369543Y0087833D01*
X0367544D01*
X0366544Y0088833D01*
Y0092832D01*
X0376541Y0087833D02*
X0372542D01*
X0376541Y0091832D01*
Y0092832D01*
X0375541Y0093831D01*
X0373542D01*
X0372542Y0092832D01*
X0381539Y0087833D02*
Y0093831D01*
X0378540Y0090832D01*
X0382539D01*
X0462150Y0087833D02*
X0464149D01*
X0463150D01*
Y0093831D01*
X0462150Y0092832D01*
X0467148Y0087833D02*
Y0088833D01*
X0468148D01*
Y0087833D01*
X0467148D01*
X0472147Y0092832D02*
X0473146Y0093831D01*
X0475146D01*
X0476146Y0092832D01*
Y0088833D01*
X0475146Y0087833D01*
X0473146D01*
X0472147Y0088833D01*
Y0092832D01*
X0046350Y0087833D02*
Y0091832D01*
X0048349Y0093831D01*
X0050349Y0091832D01*
Y0087833D01*
Y0090832D01*
X0046350D01*
X0052348Y0093831D02*
Y0087833D01*
X0056347D01*
X0058346Y0093831D02*
Y0087833D01*
X0062345D01*
X0070342D02*
Y0091832D01*
X0072342Y0093831D01*
X0074341Y0091832D01*
Y0087833D01*
Y0090832D01*
X0070342D01*
X0076340Y0087833D02*
Y0093831D01*
X0079339D01*
X0080339Y0092832D01*
Y0090832D01*
X0079339Y0089833D01*
X0076340D01*
X0078340D02*
X0080339Y0087833D01*
X0082338Y0093831D02*
X0086337D01*
X0084338D01*
Y0087833D01*
X0088336Y0093831D02*
Y0087833D01*
X0090336Y0089833D01*
X0092335Y0087833D01*
Y0093831D01*
X0097334D02*
X0095334D01*
X0094335Y0092832D01*
Y0088833D01*
X0095334Y0087833D01*
X0097334D01*
X0098333Y0088833D01*
Y0092832D01*
X0097334Y0093831D01*
X0100332Y0087833D02*
Y0093831D01*
X0103332D01*
X0104331Y0092832D01*
Y0090832D01*
X0103332Y0089833D01*
X0100332D01*
X0102332D02*
X0104331Y0087833D01*
X0106331Y0093831D02*
Y0087833D01*
Y0089833D01*
X0110329Y0093831D01*
X0107330Y0090832D01*
X0110329Y0087833D01*
X0118327Y0093831D02*
Y0089833D01*
X0120326Y0087833D01*
X0122325Y0089833D01*
Y0093831D01*
X0124325D02*
X0126324D01*
X0125324D01*
Y0087833D01*
X0124325D01*
X0126324D01*
X0133322Y0093831D02*
X0129323D01*
Y0087833D01*
X0133322D01*
X0129323Y0090832D02*
X0131323D01*
X0135321Y0093831D02*
Y0087833D01*
X0137321Y0089833D01*
X0139320Y0087833D01*
Y0093831D01*
X0145318D02*
X0141319D01*
Y0087833D01*
X0145318D01*
X0141319Y0090832D02*
X0143319D01*
X0147317Y0093831D02*
Y0087833D01*
X0150316D01*
X0151316Y0088833D01*
Y0092832D01*
X0150316Y0093831D01*
X0147317D01*
X0163312D02*
X0159313D01*
Y0090832D01*
X0161313D01*
X0159313D01*
Y0087833D01*
X0165312D02*
Y0093831D01*
X0168310D01*
X0169310Y0092832D01*
Y0090832D01*
X0168310Y0089833D01*
X0165312D01*
X0167311D02*
X0169310Y0087833D01*
X0174309Y0093831D02*
X0172309D01*
X0171310Y0092832D01*
Y0088833D01*
X0172309Y0087833D01*
X0174309D01*
X0175308Y0088833D01*
Y0092832D01*
X0174309Y0093831D01*
X0177308Y0087833D02*
Y0093831D01*
X0179307Y0091832D01*
X0181306Y0093831D01*
Y0087833D01*
X0189304Y0093831D02*
X0193303D01*
X0191303D01*
Y0087833D01*
X0198301Y0093831D02*
X0196301D01*
X0195302Y0092832D01*
Y0088833D01*
X0196301Y0087833D01*
X0198301D01*
X0199301Y0088833D01*
Y0092832D01*
X0198301Y0093831D01*
X0201300Y0087833D02*
Y0093831D01*
X0204299D01*
X0205299Y0092832D01*
Y0090832D01*
X0204299Y0089833D01*
X0201300D01*
X0217295Y0092832D02*
X0216295Y0093831D01*
X0214296D01*
X0213296Y0092832D01*
Y0091832D01*
X0214296Y0090832D01*
X0216295D01*
X0217295Y0089833D01*
Y0088833D01*
X0216295Y0087833D01*
X0214296D01*
X0213296Y0088833D01*
X0219294Y0093831D02*
X0221293D01*
X0220294D01*
Y0087833D01*
X0219294D01*
X0221293D01*
X0224292Y0093831D02*
Y0087833D01*
X0227291D01*
X0228291Y0088833D01*
Y0092832D01*
X0227291Y0093831D01*
X0224292D01*
X0234289D02*
X0230291D01*
Y0087833D01*
X0234289D01*
X0230291Y0090832D02*
X0232290D01*
X0298199Y0051965D02*
X0297199Y0052965D01*
X0295200D01*
X0294200Y0051965D01*
Y0047966D01*
X0295200Y0046966D01*
X0297199D01*
X0298199Y0047966D01*
Y0049966D01*
X0296199D01*
X0304197Y0052965D02*
X0300198D01*
Y0046966D01*
X0304197D01*
X0300198Y0049966D02*
X0302197D01*
X0306196Y0046966D02*
Y0052965D01*
X0310195Y0046966D01*
Y0052965D01*
X0316193D02*
X0312194D01*
Y0046966D01*
X0316193D01*
X0312194Y0049966D02*
X0314194D01*
X0318192Y0046966D02*
Y0052965D01*
X0321191D01*
X0322191Y0051965D01*
Y0049966D01*
X0321191Y0048966D01*
X0318192D01*
X0320192D02*
X0322191Y0046966D01*
X0324190D02*
Y0050965D01*
X0326190Y0052965D01*
X0328189Y0050965D01*
Y0046966D01*
Y0049966D01*
X0324190D01*
X0330188Y0052965D02*
X0334187D01*
X0332188D01*
Y0046966D01*
X0340185Y0052965D02*
X0336186D01*
Y0046966D01*
X0340185D01*
X0336186Y0049966D02*
X0338186D01*
X0342184Y0052965D02*
Y0046966D01*
X0345183D01*
X0346183Y0047966D01*
Y0051965D01*
X0345183Y0052965D01*
X0342184D01*
X0372175Y0050965D02*
X0373175D01*
Y0049966D01*
X0372175D01*
Y0050965D01*
Y0047966D02*
X0373175D01*
Y0046966D01*
X0372175D01*
Y0047966D01*
X0381150Y0052965D02*
X0385149D01*
Y0051965D01*
X0381150Y0047966D01*
Y0046966D01*
X0387148D02*
X0391147Y0050965D01*
X0393146Y0046966D02*
X0395146D01*
X0394146D01*
Y0052965D01*
X0393146Y0051965D01*
X0401144Y0046966D02*
Y0052965D01*
X0398145Y0049966D01*
X0402143D01*
X0404143Y0046966D02*
X0408141Y0050965D01*
X0414139Y0046966D02*
X0410141D01*
X0414139Y0050965D01*
Y0051965D01*
X0413140Y0052965D01*
X0411140D01*
X0410141Y0051965D01*
X0416139D02*
X0417138Y0052965D01*
X0419138D01*
X0420137Y0051965D01*
Y0047966D01*
X0419138Y0046966D01*
X0417138D01*
X0416139Y0047966D01*
Y0051965D01*
X0422137Y0046966D02*
X0424136D01*
X0423136D01*
Y0052965D01*
X0422137Y0051965D01*
X0427135Y0052965D02*
X0431134D01*
Y0051965D01*
X0427135Y0047966D01*
Y0046966D01*
X0126900D02*
Y0052965D01*
X0128899Y0050965D01*
X0130899Y0052965D01*
Y0046966D01*
X0136897Y0051965D02*
X0135897Y0052965D01*
X0133898D01*
X0132898Y0051965D01*
Y0047966D01*
X0133898Y0046966D01*
X0135897D01*
X0136897Y0047966D01*
X0138896Y0052965D02*
Y0047966D01*
X0139896Y0046966D01*
X0141895D01*
X0142895Y0047966D01*
Y0052965D01*
X0144894Y0051965D02*
X0145894Y0052965D01*
X0147893D01*
X0148893Y0051965D01*
Y0047966D01*
X0147893Y0046966D01*
X0145894D01*
X0144894Y0047966D01*
Y0051965D01*
X0154891Y0046966D02*
X0150892D01*
X0154891Y0050965D01*
Y0051965D01*
X0153891Y0052965D01*
X0151892D01*
X0150892Y0051965D01*
X0159889Y0046966D02*
Y0052965D01*
X0156890Y0049966D01*
X0160889D01*
X0162888Y0046966D02*
X0164888D01*
X0163888D01*
Y0052965D01*
X0162888Y0051965D01*
X0167887Y0046966D02*
Y0047966D01*
X0168886D01*
Y0046966D01*
X0167887D01*
X0172885Y0051965D02*
X0173885Y0052965D01*
X0175884D01*
X0176884Y0051965D01*
Y0047966D01*
X0175884Y0046966D01*
X0173885D01*
X0172885Y0047966D01*
Y0051965D01*
X0178883Y0046966D02*
Y0047966D01*
X0179883D01*
Y0046966D01*
X0178883D01*
X0187880Y0051965D02*
X0186881Y0052965D01*
X0184881D01*
X0183882Y0051965D01*
Y0047966D01*
X0184881Y0046966D01*
X0186881D01*
X0187880Y0047966D01*
Y0049966D01*
X0185881D01*
X0189880Y0046966D02*
Y0052965D01*
X0191879Y0050965D01*
X0193878Y0052965D01*
Y0046966D01*
X0195878D02*
X0197877D01*
X0196877D01*
Y0052965D01*
X0195878Y0051965D01*
X0204875Y0046966D02*
X0200876D01*
X0204875Y0050965D01*
Y0051965D01*
X0203875Y0052965D01*
X0201876D01*
X0200876Y0051965D01*
X0433000Y0087833D02*
Y0093831D01*
X0435999D01*
X0436999Y0092832D01*
Y0090832D01*
X0435999Y0089833D01*
X0433000D01*
X0434999D02*
X0436999Y0087833D01*
X0442997Y0093831D02*
X0438998D01*
Y0087833D01*
X0442997D01*
X0438998Y0090832D02*
X0440997D01*
X0444996Y0093831D02*
Y0089833D01*
X0446995Y0087833D01*
X0448995Y0089833D01*
Y0093831D01*
X0450994Y0091832D02*
X0451994D01*
Y0090832D01*
X0450994D01*
Y0091832D01*
Y0088833D02*
X0451994D01*
Y0087833D01*
X0450994D01*
Y0088833D01*
X0520799Y0092832D02*
X0519799Y0093831D01*
X0517800D01*
X0516800Y0092832D01*
Y0091832D01*
X0517800Y0090832D01*
X0519799D01*
X0520799Y0089833D01*
Y0088833D01*
X0519799Y0087833D01*
X0517800D01*
X0516800Y0088833D01*
X0522798Y0093831D02*
Y0089833D01*
X0524797Y0087833D01*
X0526797Y0089833D01*
Y0093831D01*
X0528796Y0087833D02*
Y0093831D01*
X0532795Y0087833D01*
Y0093831D01*
X0540792Y0087833D02*
Y0093831D01*
X0543791D01*
X0544791Y0092832D01*
Y0090832D01*
X0543791Y0089833D01*
X0540792D01*
X0542792D02*
X0544791Y0087833D01*
X0550789Y0093831D02*
X0546790D01*
Y0087833D01*
X0550789D01*
X0546790Y0090832D02*
X0548790D01*
X0552788Y0093831D02*
Y0089833D01*
X0554788Y0087833D01*
X0556787Y0089833D01*
Y0093831D01*
X0558786Y0091832D02*
X0559786D01*
Y0090832D01*
X0558786D01*
Y0091832D01*
Y0088833D02*
X0559786D01*
Y0087833D01*
X0558786D01*
Y0088833D01*
X0567400Y0087833D02*
Y0093831D01*
X0571399Y0087833D01*
Y0093831D01*
X0574398Y0087833D02*
X0576397D01*
X0577397Y0088833D01*
Y0090832D01*
X0576397Y0091832D01*
X0574398D01*
X0573398Y0090832D01*
Y0088833D01*
X0574398Y0087833D01*
X0580396Y0092832D02*
Y0091832D01*
X0579396D01*
X0581395D01*
X0580396D01*
Y0088833D01*
X0581395Y0087833D01*
X0590393Y0093831D02*
X0592392D01*
X0591392D01*
Y0087833D01*
X0590393D01*
X0592392D01*
X0595391D02*
Y0091832D01*
X0598390D01*
X0599390Y0090832D01*
Y0087833D01*
X0607387Y0093831D02*
Y0089833D01*
X0609386Y0087833D01*
X0611386Y0089833D01*
Y0093831D01*
X0616384Y0087833D02*
X0614385D01*
X0613385Y0088833D01*
Y0090832D01*
X0614385Y0091832D01*
X0616384D01*
X0617384Y0090832D01*
Y0089833D01*
X0613385D01*
X0619383Y0091832D02*
Y0087833D01*
Y0089833D01*
X0620383Y0090832D01*
X0621383Y0091832D01*
X0622382D01*
X0625381Y0087833D02*
X0628380D01*
X0629380Y0088833D01*
X0628380Y0089833D01*
X0626381D01*
X0625381Y0090832D01*
X0626381Y0091832D01*
X0629380D01*
X0631379Y0087833D02*
X0633379D01*
X0632379D01*
Y0091832D01*
X0631379D01*
X0637377Y0087833D02*
X0639377D01*
X0640376Y0088833D01*
Y0090832D01*
X0639377Y0091832D01*
X0637377D01*
X0636378Y0090832D01*
Y0088833D01*
X0637377Y0087833D01*
X0642376D02*
Y0091832D01*
X0645375D01*
X0646374Y0090832D01*
Y0087833D01*
X0652373Y0092832D02*
X0651373Y0093831D01*
X0649373D01*
X0648374Y0092832D01*
Y0088833D01*
X0649373Y0087833D01*
X0651373D01*
X0652373Y0088833D01*
X0655372Y0087833D02*
X0657371D01*
X0658371Y0088833D01*
Y0090832D01*
X0657371Y0091832D01*
X0655372D01*
X0654372Y0090832D01*
Y0088833D01*
X0655372Y0087833D01*
X0660370D02*
Y0091832D01*
X0663369D01*
X0664369Y0090832D01*
Y0087833D01*
X0667368Y0092832D02*
Y0091832D01*
X0666368D01*
X0668367D01*
X0667368D01*
Y0088833D01*
X0668367Y0087833D01*
X0671366Y0091832D02*
Y0087833D01*
Y0089833D01*
X0672366Y0090832D01*
X0673366Y0091832D01*
X0674365D01*
X0678364Y0087833D02*
X0680364D01*
X0681363Y0088833D01*
Y0090832D01*
X0680364Y0091832D01*
X0678364D01*
X0677364Y0090832D01*
Y0088833D01*
X0678364Y0087833D01*
X0683362D02*
X0685362D01*
X0684362D01*
Y0093831D01*
X0683362D01*
G54D52*
X1496115Y0849400D02*
Y0945400D01*
X1384146Y0921400D02*
X1496115D01*
X1384146Y0909400D02*
X1496115D01*
X1384146Y0897400D02*
X1496115D01*
X1384146Y0885400D02*
X1496115D01*
X1384146Y0873400D02*
X1496115D01*
X1384146Y0861400D02*
X1496115D01*
X1384146Y0849400D02*
X1496115D01*
X1384146D02*
Y0945400D01*
X1327160Y0921400D02*
X1384146D01*
X1327160Y0909400D02*
X1384146D01*
X1327160Y0897400D02*
X1384146D01*
X1327160Y0885400D02*
X1384146D01*
X1327160Y0873400D02*
X1384146D01*
X1327160Y0861400D02*
X1384146D01*
X1327160Y0849400D02*
X1384146D01*
X1327160D02*
Y0945400D01*
X1262177Y0921400D02*
X1327160D01*
X1262177Y0909400D02*
X1327160D01*
X1262177Y0897400D02*
X1327160D01*
X1262177Y0885400D02*
X1327160D01*
X1262177Y0873400D02*
X1327160D01*
X1262177Y0861400D02*
X1327160D01*
X1262177Y0849400D02*
X1327160D01*
X1262177D02*
Y0945400D01*
X1176200Y0921400D02*
X1262177D01*
X1176200Y0909400D02*
X1262177D01*
X1176200Y0897400D02*
X1262177D01*
X1176200Y0885400D02*
X1262177D01*
X1176200Y0873400D02*
X1262177D01*
X1176200Y0861400D02*
X1262177D01*
X1176200Y0849400D02*
X1262177D01*
X1176200D02*
Y0945400D01*
X1083226Y0921400D02*
X1176200D01*
X1083226Y0909400D02*
X1176200D01*
X1083226Y0897400D02*
X1176200D01*
X1083226Y0885400D02*
X1176200D01*
X1083226Y0873400D02*
X1176200D01*
X1083226Y0861400D02*
X1176200D01*
X1083226Y0849400D02*
X1176200D01*
X1083226D02*
Y0945400D01*
X1042234Y0921400D02*
X1083226D01*
X1042234Y0909400D02*
X1083226D01*
X1042234Y0897400D02*
X1083226D01*
X1042234Y0885400D02*
X1083226D01*
X1042234Y0873400D02*
X1083226D01*
X1042234Y0861400D02*
X1083226D01*
X1042234Y0849400D02*
X1083226D01*
X1042234D02*
Y0945400D01*
X1496115D01*
X1042234Y0933400D02*
X1496115D01*
G54D140*
X1384146Y0929432D02*
X1388115Y0933400D01*
X1384146Y0923432D02*
X1394115Y0933400D01*
X1388115Y0921400D02*
X1400115Y0933400D01*
X1394115Y0921400D02*
X1406115Y0933400D01*
X1400115Y0921400D02*
X1412115Y0933400D01*
X1406115Y0921400D02*
X1418115Y0933400D01*
X1412115Y0921400D02*
X1424115Y0933400D01*
X1418115Y0921400D02*
X1430115Y0933400D01*
X1424115Y0921400D02*
X1436115Y0933400D01*
X1430115Y0921400D02*
X1442115Y0933400D01*
X1436115Y0921400D02*
X1448115Y0933400D01*
X1442115Y0921400D02*
X1454115Y0933400D01*
X1448115Y0921400D02*
X1460115Y0933400D01*
X1454115Y0921400D02*
X1466115Y0933400D01*
X1460115Y0921400D02*
X1472115Y0933400D01*
X1466115Y0921400D02*
X1478115Y0933400D01*
X1472115Y0921400D02*
X1484115Y0933400D01*
X1478115Y0921400D02*
X1490115Y0933400D01*
X1484115Y0921400D02*
X1496115Y0933400D01*
X1490115Y0921400D02*
X1496115Y0927400D01*
X1384146Y0917432D02*
X1388115Y0921400D01*
X1384146Y0911432D02*
X1394115Y0921400D01*
X1388115Y0909400D02*
X1400115Y0921400D01*
X1394115Y0909400D02*
X1406115Y0921400D01*
X1400115Y0909400D02*
X1412115Y0921400D01*
X1406115Y0909400D02*
X1418115Y0921400D01*
X1412115Y0909400D02*
X1424115Y0921400D01*
X1418115Y0909400D02*
X1430115Y0921400D01*
X1424115Y0909400D02*
X1436115Y0921400D01*
X1430115Y0909400D02*
X1442115Y0921400D01*
X1436115Y0909400D02*
X1448115Y0921400D01*
X1442115Y0909400D02*
X1454115Y0921400D01*
X1448115Y0909400D02*
X1460115Y0921400D01*
X1454115Y0909400D02*
X1466115Y0921400D01*
X1460115Y0909400D02*
X1472115Y0921400D01*
X1466115Y0909400D02*
X1478115Y0921400D01*
X1472115Y0909400D02*
X1484115Y0921400D01*
X1478115Y0909400D02*
X1490115Y0921400D01*
X1484115Y0909400D02*
X1496115Y0921400D01*
X1490115Y0909400D02*
X1496115Y0915400D01*
X1384146Y0905432D02*
X1388115Y0909400D01*
X1384146Y0899432D02*
X1394115Y0909400D01*
X1388115Y0897400D02*
X1400115Y0909400D01*
X1394115Y0897400D02*
X1406115Y0909400D01*
X1400115Y0897400D02*
X1412115Y0909400D01*
X1406115Y0897400D02*
X1418115Y0909400D01*
X1412115Y0897400D02*
X1424115Y0909400D01*
X1418115Y0897400D02*
X1430115Y0909400D01*
X1424115Y0897400D02*
X1436115Y0909400D01*
X1430115Y0897400D02*
X1442115Y0909400D01*
X1436115Y0897400D02*
X1448115Y0909400D01*
X1442115Y0897400D02*
X1454115Y0909400D01*
X1448115Y0897400D02*
X1460115Y0909400D01*
X1454115Y0897400D02*
X1466115Y0909400D01*
X1460115Y0897400D02*
X1472115Y0909400D01*
X1466115Y0897400D02*
X1478115Y0909400D01*
X1472115Y0897400D02*
X1484115Y0909400D01*
X1478115Y0897400D02*
X1490115Y0909400D01*
X1484115Y0897400D02*
X1496115Y0909400D01*
X1490115Y0897400D02*
X1496115Y0903400D01*
X1384146Y0893432D02*
X1388115Y0897400D01*
X1384146Y0887432D02*
X1394115Y0897400D01*
X1388115Y0885400D02*
X1400115Y0897400D01*
X1394115Y0885400D02*
X1406115Y0897400D01*
X1400115Y0885400D02*
X1412115Y0897400D01*
X1406115Y0885400D02*
X1418115Y0897400D01*
X1412115Y0885400D02*
X1424115Y0897400D01*
X1418115Y0885400D02*
X1430115Y0897400D01*
X1424115Y0885400D02*
X1436115Y0897400D01*
X1430115Y0885400D02*
X1442115Y0897400D01*
X1436115Y0885400D02*
X1448115Y0897400D01*
X1442115Y0885400D02*
X1454115Y0897400D01*
X1448115Y0885400D02*
X1460115Y0897400D01*
X1454115Y0885400D02*
X1466115Y0897400D01*
X1460115Y0885400D02*
X1472115Y0897400D01*
X1466115Y0885400D02*
X1478115Y0897400D01*
X1472115Y0885400D02*
X1484115Y0897400D01*
X1478115Y0885400D02*
X1490115Y0897400D01*
X1484115Y0885400D02*
X1496115Y0897400D01*
X1490115Y0885400D02*
X1496115Y0891400D01*
X1384146Y0881432D02*
X1388115Y0885400D01*
X1384146Y0875432D02*
X1394115Y0885400D01*
X1388115Y0873400D02*
X1400115Y0885400D01*
X1394115Y0873400D02*
X1406115Y0885400D01*
X1400115Y0873400D02*
X1412115Y0885400D01*
X1406115Y0873400D02*
X1418115Y0885400D01*
X1412115Y0873400D02*
X1424115Y0885400D01*
X1418115Y0873400D02*
X1430115Y0885400D01*
X1424115Y0873400D02*
X1436115Y0885400D01*
X1430115Y0873400D02*
X1442115Y0885400D01*
X1436115Y0873400D02*
X1448115Y0885400D01*
X1442115Y0873400D02*
X1454115Y0885400D01*
X1448115Y0873400D02*
X1460115Y0885400D01*
X1454115Y0873400D02*
X1466115Y0885400D01*
X1460115Y0873400D02*
X1472115Y0885400D01*
X1466115Y0873400D02*
X1478115Y0885400D01*
X1472115Y0873400D02*
X1484115Y0885400D01*
X1478115Y0873400D02*
X1490115Y0885400D01*
X1484115Y0873400D02*
X1496115Y0885400D01*
X1490115Y0873400D02*
X1496115Y0879400D01*
X1384146Y0869432D02*
X1388115Y0873400D01*
X1384146Y0863432D02*
X1394115Y0873400D01*
X1388115Y0861400D02*
X1400115Y0873400D01*
X1394115Y0861400D02*
X1406115Y0873400D01*
X1400115Y0861400D02*
X1412115Y0873400D01*
X1406115Y0861400D02*
X1418115Y0873400D01*
X1412115Y0861400D02*
X1424115Y0873400D01*
X1418115Y0861400D02*
X1430115Y0873400D01*
X1424115Y0861400D02*
X1436115Y0873400D01*
X1430115Y0861400D02*
X1442115Y0873400D01*
X1436115Y0861400D02*
X1448115Y0873400D01*
X1442115Y0861400D02*
X1454115Y0873400D01*
X1448115Y0861400D02*
X1460115Y0873400D01*
X1454115Y0861400D02*
X1466115Y0873400D01*
X1460115Y0861400D02*
X1472115Y0873400D01*
X1466115Y0861400D02*
X1478115Y0873400D01*
X1472115Y0861400D02*
X1484115Y0873400D01*
X1478115Y0861400D02*
X1490115Y0873400D01*
X1484115Y0861400D02*
X1496115Y0873400D01*
X1490115Y0861400D02*
X1496115Y0867400D01*
X1384146Y0857432D02*
X1388115Y0861400D01*
X1384146Y0851432D02*
X1394115Y0861400D01*
X1388115Y0849400D02*
X1400115Y0861400D01*
X1394115Y0849400D02*
X1406115Y0861400D01*
X1400115Y0849400D02*
X1412115Y0861400D01*
X1406115Y0849400D02*
X1418115Y0861400D01*
X1412115Y0849400D02*
X1424115Y0861400D01*
X1418115Y0849400D02*
X1430115Y0861400D01*
X1424115Y0849400D02*
X1436115Y0861400D01*
X1430115Y0849400D02*
X1442115Y0861400D01*
X1436115Y0849400D02*
X1448115Y0861400D01*
X1442115Y0849400D02*
X1454115Y0861400D01*
X1448115Y0849400D02*
X1460115Y0861400D01*
X1454115Y0849400D02*
X1466115Y0861400D01*
X1460115Y0849400D02*
X1472115Y0861400D01*
X1466115Y0849400D02*
X1478115Y0861400D01*
X1472115Y0849400D02*
X1484115Y0861400D01*
X1478115Y0849400D02*
X1490115Y0861400D01*
X1484115Y0849400D02*
X1496115Y0861400D01*
X1490115Y0849400D02*
X1496115Y0855400D01*
M02*
