%FSAX25Y25*%
%MOIN*%
G70*
G01*
G75*
G04 Layer_Color=32896*
%ADD10C,0.00787*%
%ADD11C,0.03937*%
%ADD12C,0.02362*%
%ADD13C,0.10000*%
%ADD14C,0.00800*%
%ADD15C,0.03937*%
%ADD16C,0.00600*%
%ADD17C,0.05000*%
%ADD18C,0.01200*%
%ADD19C,0.02000*%
%ADD20C,0.06496*%
%ADD21R,0.06496X0.06496*%
%ADD22C,0.18110*%
%ADD23C,0.03600*%
%ADD24O,0.00984X0.05709*%
%ADD25R,0.03937X0.03740*%
G04:AMPARAMS|DCode=26|XSize=78.74mil|YSize=78.74mil|CornerRadius=19.69mil|HoleSize=0mil|Usage=FLASHONLY|Rotation=0.000|XOffset=0mil|YOffset=0mil|HoleType=Round|Shape=RoundedRectangle|*
%AMROUNDEDRECTD26*
21,1,0.07874,0.03937,0,0,0.0*
21,1,0.03937,0.07874,0,0,0.0*
1,1,0.03937,0.01969,-0.01969*
1,1,0.03937,-0.01969,-0.01969*
1,1,0.03937,-0.01969,0.01969*
1,1,0.03937,0.01969,0.01969*
%
%ADD26ROUNDEDRECTD26*%
%ADD27C,0.01000*%
%ADD28C,0.02500*%
%ADD29C,0.07874*%
%ADD30C,0.07096*%
%ADD31R,0.07096X0.07096*%
%ADD32C,0.18710*%
%ADD33O,0.01584X0.06309*%
%ADD34R,0.04537X0.04340*%
G04:AMPARAMS|DCode=35|XSize=84.74mil|YSize=84.74mil|CornerRadius=22.69mil|HoleSize=0mil|Usage=FLASHONLY|Rotation=0.000|XOffset=0mil|YOffset=0mil|HoleType=Round|Shape=RoundedRectangle|*
%AMROUNDEDRECTD35*
21,1,0.08474,0.03937,0,0,0.0*
21,1,0.03937,0.08474,0,0,0.0*
1,1,0.04537,0.01969,-0.01969*
1,1,0.04537,-0.01969,-0.01969*
1,1,0.04537,-0.01969,0.01969*
1,1,0.04537,0.01969,0.01969*
%
%ADD35ROUNDEDRECTD35*%
%ADD36C,0.00700*%
%ADD37C,0.01181*%
%ADD38C,0.00394*%
%ADD39C,0.00197*%
%ADD40R,0.12500X0.12500*%
%ADD41R,0.37500X0.12500*%
%ADD42C,0.00500*%
%ADD43C,0.00400*%
G54D16*
X1466200Y0921500D02*
G03*
X1462800Y0924900I-0003400J0000000D01*
G01*
X1202600D02*
G03*
X1199200Y0921500I0000000J-0003400D01*
G01*
Y0850900D02*
G03*
X1202600Y0847500I0003400J0000000D01*
G01*
X1462800D02*
G03*
X1466200Y0850900I0000000J0003400D01*
G01*
X1205200Y0899400D02*
X1460200D01*
X1205200Y0909840D02*
X1460200D01*
X1466200Y0850900D02*
Y0921500D01*
X1199200Y0850900D02*
Y0921500D01*
X1202600Y0847500D02*
X1462800D01*
X1202600Y0924900D02*
X1462800D01*
X1351133Y0872494D02*
X1352266D01*
X1351700D01*
Y0875893D01*
X1351133Y0875326D01*
X1353966Y0872494D02*
Y0873060D01*
X1354532D01*
Y0872494D01*
X1353966D01*
X1358498D02*
Y0875893D01*
X1356798Y0874193D01*
X1359064D01*
X1360197Y0872494D02*
Y0874760D01*
X1360763D01*
X1361330Y0874193D01*
Y0872494D01*
Y0874193D01*
X1361897Y0874760D01*
X1362463Y0874193D01*
Y0872494D01*
X1363596D02*
X1364729D01*
X1364162D01*
Y0874760D01*
X1363596D01*
X1366428Y0872494D02*
X1367561D01*
X1366995D01*
Y0875893D01*
X1366428D01*
X1295914Y0872494D02*
X1294781Y0873627D01*
Y0874760D01*
X1295914Y0875893D01*
X1297614Y0872494D02*
Y0873060D01*
X1298180D01*
Y0872494D01*
X1297614D01*
X1302712Y0875326D02*
X1302146Y0875893D01*
X1301013D01*
X1300446Y0875326D01*
Y0873060D01*
X1301013Y0872494D01*
X1302146D01*
X1302712Y0873060D01*
Y0874193D01*
X1301579D01*
X1303845Y0875893D02*
Y0872494D01*
X1305544D01*
X1306111Y0873060D01*
Y0873627D01*
X1305544Y0874193D01*
X1303845D01*
X1305544D01*
X1306111Y0874760D01*
Y0875326D01*
X1305544Y0875893D01*
X1303845D01*
X1307244D02*
Y0872494D01*
X1309510D01*
X1310643D02*
X1311776Y0873627D01*
Y0874760D01*
X1310643Y0875893D01*
X1205200D02*
Y0872494D01*
X1206900D01*
X1207466Y0873060D01*
Y0873627D01*
X1206900Y0874193D01*
X1205200D01*
X1206900D01*
X1207466Y0874760D01*
Y0875326D01*
X1206900Y0875893D01*
X1205200D01*
X1209165Y0872494D02*
X1210298D01*
X1210865Y0873060D01*
Y0874193D01*
X1210298Y0874760D01*
X1209165D01*
X1208599Y0874193D01*
Y0873060D01*
X1209165Y0872494D01*
X1212564Y0875326D02*
Y0874760D01*
X1211998D01*
X1213131D01*
X1212564D01*
Y0873060D01*
X1213131Y0872494D01*
X1215397Y0875326D02*
Y0874760D01*
X1214830D01*
X1215963D01*
X1215397D01*
Y0873060D01*
X1215963Y0872494D01*
X1218229D02*
X1219362D01*
X1219929Y0873060D01*
Y0874193D01*
X1219362Y0874760D01*
X1218229D01*
X1217663Y0874193D01*
Y0873060D01*
X1218229Y0872494D01*
X1221062D02*
Y0874760D01*
X1221628D01*
X1222194Y0874193D01*
Y0872494D01*
Y0874193D01*
X1222761Y0874760D01*
X1223328Y0874193D01*
Y0872494D01*
X1227859Y0875893D02*
Y0872494D01*
X1230125D01*
X1231825Y0874760D02*
X1232958D01*
X1233524Y0874193D01*
Y0872494D01*
X1231825D01*
X1231258Y0873060D01*
X1231825Y0873627D01*
X1233524D01*
X1234657Y0874760D02*
Y0873060D01*
X1235224Y0872494D01*
X1236923D01*
Y0871927D01*
X1236357Y0871361D01*
X1235790D01*
X1236923Y0872494D02*
Y0874760D01*
X1239756Y0872494D02*
X1238622D01*
X1238056Y0873060D01*
Y0874193D01*
X1238622Y0874760D01*
X1239756D01*
X1240322Y0874193D01*
Y0873627D01*
X1238056D01*
X1241455Y0874760D02*
Y0872494D01*
Y0873627D01*
X1242021Y0874193D01*
X1242588Y0874760D01*
X1243154D01*
X1413670Y0880730D02*
X1411404D01*
Y0879031D01*
X1412537D01*
X1411404D01*
Y0877331D01*
X1414803D02*
Y0880730D01*
X1416502D01*
X1417069Y0880164D01*
Y0879031D01*
X1416502Y0878464D01*
X1414803D01*
X1415936D02*
X1417069Y0877331D01*
X1418202Y0879031D02*
X1420468D01*
X1423300Y0877331D02*
Y0880730D01*
X1421601Y0879031D01*
X1423867D01*
X1351133Y0882169D02*
X1352266D01*
X1351700D01*
Y0885568D01*
X1351133Y0885001D01*
X1353966Y0882169D02*
Y0882735D01*
X1354532D01*
Y0882169D01*
X1353966D01*
X1358498D02*
Y0885568D01*
X1356798Y0883868D01*
X1359064D01*
X1360197Y0882169D02*
Y0884435D01*
X1360763D01*
X1361330Y0883868D01*
Y0882169D01*
Y0883868D01*
X1361897Y0884435D01*
X1362463Y0883868D01*
Y0882169D01*
X1363596D02*
X1364729D01*
X1364162D01*
Y0884435D01*
X1363596D01*
X1366428Y0882169D02*
X1367561D01*
X1366995D01*
Y0885568D01*
X1366428D01*
X1295914Y0882169D02*
X1294781Y0883302D01*
Y0884435D01*
X1295914Y0885568D01*
X1297614Y0882169D02*
Y0882735D01*
X1298180D01*
Y0882169D01*
X1297614D01*
X1302712Y0885001D02*
X1302146Y0885568D01*
X1301013D01*
X1300446Y0885001D01*
Y0882735D01*
X1301013Y0882169D01*
X1302146D01*
X1302712Y0882735D01*
Y0883868D01*
X1301579D01*
X1303845Y0885568D02*
X1306111D01*
X1304978D01*
Y0882169D01*
X1307244Y0885568D02*
Y0882169D01*
X1309510D01*
X1310643D02*
X1311776Y0883302D01*
Y0884435D01*
X1310643Y0885568D01*
X1205200D02*
X1207466D01*
X1206333D01*
Y0882169D01*
X1209165D02*
X1210298D01*
X1210865Y0882735D01*
Y0883868D01*
X1210298Y0884435D01*
X1209165D01*
X1208599Y0883868D01*
Y0882735D01*
X1209165Y0882169D01*
X1211998Y0881036D02*
Y0884435D01*
X1213697D01*
X1214264Y0883868D01*
Y0882735D01*
X1213697Y0882169D01*
X1211998D01*
X1218796Y0885568D02*
Y0882169D01*
X1221062D01*
X1222761Y0884435D02*
X1223894D01*
X1224460Y0883868D01*
Y0882169D01*
X1222761D01*
X1222194Y0882735D01*
X1222761Y0883302D01*
X1224460D01*
X1225593Y0884435D02*
Y0882735D01*
X1226160Y0882169D01*
X1227859D01*
Y0881602D01*
X1227293Y0881036D01*
X1226726D01*
X1227859Y0882169D02*
Y0884435D01*
X1230692Y0882169D02*
X1229559D01*
X1228992Y0882735D01*
Y0883868D01*
X1229559Y0884435D01*
X1230692D01*
X1231258Y0883868D01*
Y0883302D01*
X1228992D01*
X1232391Y0884435D02*
Y0882169D01*
Y0883302D01*
X1232958Y0883868D01*
X1233524Y0884435D01*
X1234091D01*
X1413670Y0865651D02*
X1413103Y0866218D01*
X1411971D01*
X1411404Y0865651D01*
Y0865085D01*
X1411971Y0864518D01*
X1413103D01*
X1413670Y0863952D01*
Y0863385D01*
X1413103Y0862819D01*
X1411971D01*
X1411404Y0863385D01*
X1415369Y0862819D02*
X1416502D01*
X1417069Y0863385D01*
Y0864518D01*
X1416502Y0865085D01*
X1415369D01*
X1414803Y0864518D01*
Y0863385D01*
X1415369Y0862819D01*
X1418202D02*
X1419335D01*
X1418768D01*
Y0866218D01*
X1418202D01*
X1423300D02*
Y0862819D01*
X1421601D01*
X1421034Y0863385D01*
Y0864518D01*
X1421601Y0865085D01*
X1423300D01*
X1426133Y0862819D02*
X1425000D01*
X1424433Y0863385D01*
Y0864518D01*
X1425000Y0865085D01*
X1426133D01*
X1426699Y0864518D01*
Y0863952D01*
X1424433D01*
X1427832Y0865085D02*
Y0862819D01*
Y0863952D01*
X1428399Y0864518D01*
X1428965Y0865085D01*
X1429531D01*
X1434630Y0862819D02*
Y0866218D01*
X1436329D01*
X1436896Y0865651D01*
Y0864518D01*
X1436329Y0863952D01*
X1434630D01*
X1435763D02*
X1436896Y0862819D01*
X1439728D02*
X1438595D01*
X1438029Y0863385D01*
Y0864518D01*
X1438595Y0865085D01*
X1439728D01*
X1440295Y0864518D01*
Y0863952D01*
X1438029D01*
X1441428Y0862819D02*
X1443127D01*
X1443694Y0863385D01*
X1443127Y0863952D01*
X1441994D01*
X1441428Y0864518D01*
X1441994Y0865085D01*
X1443694D01*
X1444827Y0862819D02*
X1445959D01*
X1445393D01*
Y0865085D01*
X1444827D01*
X1447659Y0862819D02*
X1449358D01*
X1449925Y0863385D01*
X1449358Y0863952D01*
X1448225D01*
X1447659Y0864518D01*
X1448225Y0865085D01*
X1449925D01*
X1451624Y0865651D02*
Y0865085D01*
X1451058D01*
X1452191D01*
X1451624D01*
Y0863385D01*
X1452191Y0862819D01*
X1295914D02*
X1294781Y0863952D01*
Y0865085D01*
X1295914Y0866218D01*
X1297614Y0862819D02*
Y0863385D01*
X1298180D01*
Y0862819D01*
X1297614D01*
X1302712Y0865651D02*
X1302146Y0866218D01*
X1301013D01*
X1300446Y0865651D01*
Y0863385D01*
X1301013Y0862819D01*
X1302146D01*
X1302712Y0863385D01*
Y0864518D01*
X1301579D01*
X1303845Y0866218D02*
Y0862819D01*
X1305544D01*
X1306111Y0863385D01*
Y0863952D01*
X1305544Y0864518D01*
X1303845D01*
X1305544D01*
X1306111Y0865085D01*
Y0865651D01*
X1305544Y0866218D01*
X1303845D01*
X1309510Y0865651D02*
X1308943Y0866218D01*
X1307810D01*
X1307244Y0865651D01*
Y0865085D01*
X1307810Y0864518D01*
X1308943D01*
X1309510Y0863952D01*
Y0863385D01*
X1308943Y0862819D01*
X1307810D01*
X1307244Y0863385D01*
X1310643Y0862819D02*
X1311776Y0863952D01*
Y0865085D01*
X1310643Y0866218D01*
X1205200D02*
Y0862819D01*
X1206900D01*
X1207466Y0863385D01*
Y0863952D01*
X1206900Y0864518D01*
X1205200D01*
X1206900D01*
X1207466Y0865085D01*
Y0865651D01*
X1206900Y0866218D01*
X1205200D01*
X1209165Y0862819D02*
X1210298D01*
X1210865Y0863385D01*
Y0864518D01*
X1210298Y0865085D01*
X1209165D01*
X1208599Y0864518D01*
Y0863385D01*
X1209165Y0862819D01*
X1212564Y0865651D02*
Y0865085D01*
X1211998D01*
X1213131D01*
X1212564D01*
Y0863385D01*
X1213131Y0862819D01*
X1215397Y0865651D02*
Y0865085D01*
X1214830D01*
X1215963D01*
X1215397D01*
Y0863385D01*
X1215963Y0862819D01*
X1218229D02*
X1219362D01*
X1219929Y0863385D01*
Y0864518D01*
X1219362Y0865085D01*
X1218229D01*
X1217663Y0864518D01*
Y0863385D01*
X1218229Y0862819D01*
X1221062D02*
Y0865085D01*
X1221628D01*
X1222194Y0864518D01*
Y0862819D01*
Y0864518D01*
X1222761Y0865085D01*
X1223328Y0864518D01*
Y0862819D01*
X1230125Y0865651D02*
X1229559Y0866218D01*
X1228426D01*
X1227859Y0865651D01*
Y0865085D01*
X1228426Y0864518D01*
X1229559D01*
X1230125Y0863952D01*
Y0863385D01*
X1229559Y0862819D01*
X1228426D01*
X1227859Y0863385D01*
X1231825Y0862819D02*
X1232958D01*
X1233524Y0863385D01*
Y0864518D01*
X1232958Y0865085D01*
X1231825D01*
X1231258Y0864518D01*
Y0863385D01*
X1231825Y0862819D01*
X1234657D02*
X1235790D01*
X1235224D01*
Y0866218D01*
X1234657D01*
X1239756D02*
Y0862819D01*
X1238056D01*
X1237490Y0863385D01*
Y0864518D01*
X1238056Y0865085D01*
X1239756D01*
X1242588Y0862819D02*
X1241455D01*
X1240889Y0863385D01*
Y0864518D01*
X1241455Y0865085D01*
X1242588D01*
X1243154Y0864518D01*
Y0863952D01*
X1240889D01*
X1244287Y0865085D02*
Y0862819D01*
Y0863952D01*
X1244854Y0864518D01*
X1245420Y0865085D01*
X1245987D01*
X1251085Y0862819D02*
Y0866218D01*
X1252218Y0865085D01*
X1253351Y0866218D01*
Y0862819D01*
X1255050Y0865085D02*
X1256184D01*
X1256750Y0864518D01*
Y0862819D01*
X1255050D01*
X1254484Y0863385D01*
X1255050Y0863952D01*
X1256750D01*
X1257883Y0862819D02*
X1259582D01*
X1260149Y0863385D01*
X1259582Y0863952D01*
X1258449D01*
X1257883Y0864518D01*
X1258449Y0865085D01*
X1260149D01*
X1261282Y0862819D02*
Y0866218D01*
Y0863952D02*
X1262981Y0865085D01*
X1261282Y0863952D02*
X1262981Y0862819D01*
X1413670Y0894676D02*
X1413103Y0895243D01*
X1411971D01*
X1411404Y0894676D01*
Y0894110D01*
X1411971Y0893543D01*
X1413103D01*
X1413670Y0892977D01*
Y0892410D01*
X1413103Y0891844D01*
X1411971D01*
X1411404Y0892410D01*
X1415369Y0891844D02*
X1416502D01*
X1417069Y0892410D01*
Y0893543D01*
X1416502Y0894110D01*
X1415369D01*
X1414803Y0893543D01*
Y0892410D01*
X1415369Y0891844D01*
X1418202D02*
X1419335D01*
X1418768D01*
Y0895243D01*
X1418202D01*
X1423300D02*
Y0891844D01*
X1421601D01*
X1421034Y0892410D01*
Y0893543D01*
X1421601Y0894110D01*
X1423300D01*
X1426133Y0891844D02*
X1425000D01*
X1424433Y0892410D01*
Y0893543D01*
X1425000Y0894110D01*
X1426133D01*
X1426699Y0893543D01*
Y0892977D01*
X1424433D01*
X1427832Y0894110D02*
Y0891844D01*
Y0892977D01*
X1428399Y0893543D01*
X1428965Y0894110D01*
X1429531D01*
X1434630Y0891844D02*
Y0895243D01*
X1436329D01*
X1436896Y0894676D01*
Y0893543D01*
X1436329Y0892977D01*
X1434630D01*
X1435763D02*
X1436896Y0891844D01*
X1439728D02*
X1438595D01*
X1438029Y0892410D01*
Y0893543D01*
X1438595Y0894110D01*
X1439728D01*
X1440295Y0893543D01*
Y0892977D01*
X1438029D01*
X1441428Y0891844D02*
X1443127D01*
X1443694Y0892410D01*
X1443127Y0892977D01*
X1441994D01*
X1441428Y0893543D01*
X1441994Y0894110D01*
X1443694D01*
X1444827Y0891844D02*
X1445959D01*
X1445393D01*
Y0894110D01*
X1444827D01*
X1447659Y0891844D02*
X1449358D01*
X1449925Y0892410D01*
X1449358Y0892977D01*
X1448225D01*
X1447659Y0893543D01*
X1448225Y0894110D01*
X1449925D01*
X1451624Y0894676D02*
Y0894110D01*
X1451058D01*
X1452191D01*
X1451624D01*
Y0892410D01*
X1452191Y0891844D01*
X1295914D02*
X1294781Y0892977D01*
Y0894110D01*
X1295914Y0895243D01*
X1297614Y0891844D02*
Y0892410D01*
X1298180D01*
Y0891844D01*
X1297614D01*
X1302712Y0894676D02*
X1302146Y0895243D01*
X1301013D01*
X1300446Y0894676D01*
Y0892410D01*
X1301013Y0891844D01*
X1302146D01*
X1302712Y0892410D01*
Y0893543D01*
X1301579D01*
X1303845Y0895243D02*
X1306111D01*
X1304978D01*
Y0891844D01*
X1309510Y0894676D02*
X1308943Y0895243D01*
X1307810D01*
X1307244Y0894676D01*
Y0894110D01*
X1307810Y0893543D01*
X1308943D01*
X1309510Y0892977D01*
Y0892410D01*
X1308943Y0891844D01*
X1307810D01*
X1307244Y0892410D01*
X1310643Y0891844D02*
X1311776Y0892977D01*
Y0894110D01*
X1310643Y0895243D01*
X1205200D02*
X1207466D01*
X1206333D01*
Y0891844D01*
X1209165D02*
X1210298D01*
X1210865Y0892410D01*
Y0893543D01*
X1210298Y0894110D01*
X1209165D01*
X1208599Y0893543D01*
Y0892410D01*
X1209165Y0891844D01*
X1211998Y0890711D02*
Y0894110D01*
X1213697D01*
X1214264Y0893543D01*
Y0892410D01*
X1213697Y0891844D01*
X1211998D01*
X1221062Y0894676D02*
X1220495Y0895243D01*
X1219362D01*
X1218796Y0894676D01*
Y0894110D01*
X1219362Y0893543D01*
X1220495D01*
X1221062Y0892977D01*
Y0892410D01*
X1220495Y0891844D01*
X1219362D01*
X1218796Y0892410D01*
X1222761Y0891844D02*
X1223894D01*
X1224460Y0892410D01*
Y0893543D01*
X1223894Y0894110D01*
X1222761D01*
X1222194Y0893543D01*
Y0892410D01*
X1222761Y0891844D01*
X1225593D02*
X1226726D01*
X1226160D01*
Y0895243D01*
X1225593D01*
X1230692D02*
Y0891844D01*
X1228992D01*
X1228426Y0892410D01*
Y0893543D01*
X1228992Y0894110D01*
X1230692D01*
X1233524Y0891844D02*
X1232391D01*
X1231825Y0892410D01*
Y0893543D01*
X1232391Y0894110D01*
X1233524D01*
X1234091Y0893543D01*
Y0892977D01*
X1231825D01*
X1235224Y0894110D02*
Y0891844D01*
Y0892977D01*
X1235790Y0893543D01*
X1236357Y0894110D01*
X1236923D01*
X1242021Y0891844D02*
Y0895243D01*
X1243154Y0894110D01*
X1244287Y0895243D01*
Y0891844D01*
X1245987Y0894110D02*
X1247120D01*
X1247686Y0893543D01*
Y0891844D01*
X1245987D01*
X1245420Y0892410D01*
X1245987Y0892977D01*
X1247686D01*
X1248819Y0891844D02*
X1250519D01*
X1251085Y0892410D01*
X1250519Y0892977D01*
X1249386D01*
X1248819Y0893543D01*
X1249386Y0894110D01*
X1251085D01*
X1252218Y0891844D02*
Y0895243D01*
Y0892977D02*
X1253918Y0894110D01*
X1252218Y0892977D02*
X1253918Y0891844D01*
G54D27*
X1205200Y0918808D02*
Y0913110D01*
X1208999D01*
X1211848Y0916909D02*
X1213747D01*
X1214697Y0915959D01*
Y0913110D01*
X1211848D01*
X1210898Y0914060D01*
X1211848Y0915009D01*
X1214697D01*
X1216596Y0916909D02*
Y0914060D01*
X1217546Y0913110D01*
X1220395D01*
Y0912160D01*
X1219445Y0911211D01*
X1218496D01*
X1220395Y0913110D02*
Y0916909D01*
X1225144Y0913110D02*
X1223244D01*
X1222295Y0914060D01*
Y0915959D01*
X1223244Y0916909D01*
X1225144D01*
X1226093Y0915959D01*
Y0915009D01*
X1222295D01*
X1227993Y0916909D02*
Y0913110D01*
Y0915009D01*
X1228942Y0915959D01*
X1229892Y0916909D01*
X1230842D01*
X1243188Y0917859D02*
X1242238Y0918808D01*
X1240339D01*
X1239389Y0917859D01*
Y0916909D01*
X1240339Y0915959D01*
X1242238D01*
X1243188Y0915009D01*
Y0914060D01*
X1242238Y0913110D01*
X1240339D01*
X1239389Y0914060D01*
X1246037Y0917859D02*
Y0916909D01*
X1245087D01*
X1246986D01*
X1246037D01*
Y0914060D01*
X1246986Y0913110D01*
X1250785Y0916909D02*
X1252685D01*
X1253634Y0915959D01*
Y0913110D01*
X1250785D01*
X1249836Y0914060D01*
X1250785Y0915009D01*
X1253634D01*
X1259332Y0916909D02*
X1256483D01*
X1255534Y0915959D01*
Y0914060D01*
X1256483Y0913110D01*
X1259332D01*
X1261232D02*
Y0918808D01*
Y0915009D02*
X1264081Y0916909D01*
X1261232Y0915009D02*
X1264081Y0913110D01*
X1272628Y0918808D02*
Y0914060D01*
X1273578Y0913110D01*
X1275477D01*
X1276427Y0914060D01*
Y0918808D01*
X1278326Y0911211D02*
Y0916909D01*
X1281176D01*
X1282125Y0915959D01*
Y0914060D01*
X1281176Y0913110D01*
X1278326D01*
X1289723Y0918808D02*
Y0913110D01*
X1292572D01*
X1293521Y0914060D01*
Y0917859D01*
X1292572Y0918808D01*
X1289723D01*
X1298270Y0913110D02*
X1296371D01*
X1295421Y0914060D01*
Y0915959D01*
X1296371Y0916909D01*
X1298270D01*
X1299220Y0915959D01*
Y0915009D01*
X1295421D01*
X1302069Y0917859D02*
Y0916909D01*
X1301119D01*
X1303018D01*
X1302069D01*
Y0914060D01*
X1303018Y0913110D01*
X1306817Y0916909D02*
X1308717D01*
X1309666Y0915959D01*
Y0913110D01*
X1306817D01*
X1305867Y0914060D01*
X1306817Y0915009D01*
X1309666D01*
X1311566Y0913110D02*
X1313465D01*
X1312515D01*
Y0916909D01*
X1311566D01*
X1316314Y0913110D02*
X1318213D01*
X1317264D01*
Y0918808D01*
X1316314D01*
X1327710Y0913110D02*
Y0917859D01*
Y0915959D01*
X1326761D01*
X1328660D01*
X1327710D01*
Y0917859D01*
X1328660Y0918808D01*
X1332459Y0913110D02*
X1334358D01*
X1335308Y0914060D01*
Y0915959D01*
X1334358Y0916909D01*
X1332459D01*
X1331509Y0915959D01*
Y0914060D01*
X1332459Y0913110D01*
X1337207Y0916909D02*
Y0913110D01*
Y0915009D01*
X1338157Y0915959D01*
X1339107Y0916909D01*
X1340056D01*
X1342906D02*
X1343855D01*
Y0915959D01*
X1342906D01*
Y0916909D01*
Y0914060D02*
X1343855D01*
Y0913110D01*
X1342906D01*
Y0914060D01*
X1353352Y0913110D02*
Y0918808D01*
X1356201D01*
X1357151Y0917859D01*
Y0915959D01*
X1356201Y0915009D01*
X1353352D01*
X1355252D02*
X1357151Y0913110D01*
X1361899D02*
X1360000D01*
X1359050Y0914060D01*
Y0915959D01*
X1360000Y0916909D01*
X1361899D01*
X1362849Y0915959D01*
Y0915009D01*
X1359050D01*
X1365698Y0913110D02*
Y0917859D01*
Y0915959D01*
X1364748D01*
X1366648D01*
X1365698D01*
Y0917859D01*
X1366648Y0918808D01*
X1369497Y0912160D02*
X1373296D01*
X1375195Y0918808D02*
Y0913110D01*
X1378044D01*
X1378994Y0914060D01*
Y0917859D01*
X1378044Y0918808D01*
X1375195D01*
X1383742Y0913110D02*
X1381843D01*
X1380893Y0914060D01*
Y0915959D01*
X1381843Y0916909D01*
X1383742D01*
X1384692Y0915959D01*
Y0915009D01*
X1380893D01*
X1386591Y0913110D02*
X1389441D01*
X1390390Y0914060D01*
X1389441Y0915009D01*
X1387541D01*
X1386591Y0915959D01*
X1387541Y0916909D01*
X1390390D01*
X1392290Y0913110D02*
X1394189D01*
X1393239D01*
Y0916909D01*
X1392290D01*
X1398937Y0911211D02*
X1399887D01*
X1400837Y0912160D01*
Y0916909D01*
X1397988D01*
X1397038Y0915959D01*
Y0914060D01*
X1397988Y0913110D01*
X1400837D01*
X1402736D02*
Y0916909D01*
X1405585D01*
X1406535Y0915959D01*
Y0913110D01*
X1408434D02*
Y0914060D01*
X1409384D01*
Y0913110D01*
X1408434D01*
X1413183D02*
Y0918808D01*
X1416032D01*
X1416982Y0917859D01*
Y0915959D01*
X1416032Y0915009D01*
X1413183D01*
X1422680Y0916909D02*
X1419831D01*
X1418881Y0915959D01*
Y0914060D01*
X1419831Y0913110D01*
X1422680D01*
X1424579Y0918808D02*
Y0913110D01*
X1427428D01*
X1428378Y0914060D01*
Y0915009D01*
Y0915959D01*
X1427428Y0916909D01*
X1424579D01*
X1430277Y0918808D02*
Y0913110D01*
X1433126D01*
X1434076Y0914060D01*
Y0917859D01*
X1433126Y0918808D01*
X1430277D01*
X1436925Y0913110D02*
X1438824D01*
X1439774Y0914060D01*
Y0915959D01*
X1438824Y0916909D01*
X1436925D01*
X1435975Y0915959D01*
Y0914060D01*
X1436925Y0913110D01*
X1445472Y0916909D02*
X1442623D01*
X1441674Y0915959D01*
Y0914060D01*
X1442623Y0913110D01*
X1445472D01*
X1229750Y0946848D02*
X1233749D01*
X1231749D01*
Y0940850D01*
X1235748Y0946848D02*
Y0940850D01*
Y0943849D01*
X1236748Y0944849D01*
X1238747D01*
X1239747Y0943849D01*
Y0940850D01*
X1244745D02*
X1242746D01*
X1241746Y0941850D01*
Y0943849D01*
X1242746Y0944849D01*
X1244745D01*
X1245745Y0943849D01*
Y0942849D01*
X1241746D01*
X1257741Y0945848D02*
X1256741Y0946848D01*
X1254742D01*
X1253742Y0945848D01*
Y0944849D01*
X1254742Y0943849D01*
X1256741D01*
X1257741Y0942849D01*
Y0941850D01*
X1256741Y0940850D01*
X1254742D01*
X1253742Y0941850D01*
X1260740Y0945848D02*
Y0944849D01*
X1259740D01*
X1261740D01*
X1260740D01*
Y0941850D01*
X1261740Y0940850D01*
X1265738Y0944849D02*
X1267738D01*
X1268737Y0943849D01*
Y0940850D01*
X1265738D01*
X1264739Y0941850D01*
X1265738Y0942849D01*
X1268737D01*
X1274735Y0944849D02*
X1271736D01*
X1270737Y0943849D01*
Y0941850D01*
X1271736Y0940850D01*
X1274735D01*
X1276735D02*
Y0946848D01*
Y0942849D02*
X1279734Y0944849D01*
X1276735Y0942849D02*
X1279734Y0940850D01*
X1282733Y0944849D02*
Y0941850D01*
X1283733Y0940850D01*
X1286732D01*
Y0944849D01*
X1288731Y0938851D02*
Y0944849D01*
X1291730D01*
X1292730Y0943849D01*
Y0941850D01*
X1291730Y0940850D01*
X1288731D01*
X1300727Y0946848D02*
Y0940850D01*
X1304726D01*
X1309724D02*
X1307725D01*
X1306725Y0941850D01*
Y0943849D01*
X1307725Y0944849D01*
X1309724D01*
X1310724Y0943849D01*
Y0942849D01*
X1306725D01*
X1314723Y0938851D02*
X1315722D01*
X1316722Y0939850D01*
Y0944849D01*
X1313723D01*
X1312723Y0943849D01*
Y0941850D01*
X1313723Y0940850D01*
X1316722D01*
X1321720D02*
X1319721D01*
X1318721Y0941850D01*
Y0943849D01*
X1319721Y0944849D01*
X1321720D01*
X1322720Y0943849D01*
Y0942849D01*
X1318721D01*
X1324719Y0940850D02*
Y0944849D01*
X1327718D01*
X1328718Y0943849D01*
Y0940850D01*
X1334716Y0946848D02*
Y0940850D01*
X1331717D01*
X1330717Y0941850D01*
Y0943849D01*
X1331717Y0944849D01*
X1334716D01*
X1342714Y0946848D02*
Y0940850D01*
X1345712D01*
X1346712Y0941850D01*
Y0942849D01*
Y0943849D01*
X1345712Y0944849D01*
X1342714D01*
X1351711Y0940850D02*
X1349711D01*
X1348711Y0941850D01*
Y0943849D01*
X1349711Y0944849D01*
X1351711D01*
X1352710Y0943849D01*
Y0942849D01*
X1348711D01*
X1354710Y0940850D02*
X1356709D01*
X1355709D01*
Y0946848D01*
X1354710D01*
X1360708Y0940850D02*
X1362707D01*
X1363707Y0941850D01*
Y0943849D01*
X1362707Y0944849D01*
X1360708D01*
X1359708Y0943849D01*
Y0941850D01*
X1360708Y0940850D01*
X1365706Y0944849D02*
Y0941850D01*
X1366706Y0940850D01*
X1367705Y0941850D01*
X1368705Y0940850D01*
X1369705Y0941850D01*
Y0944849D01*
X1378702Y0945848D02*
Y0944849D01*
X1377702D01*
X1379702D01*
X1378702D01*
Y0941850D01*
X1379702Y0940850D01*
X1382701Y0946848D02*
Y0940850D01*
Y0943849D01*
X1383700Y0944849D01*
X1385700D01*
X1386699Y0943849D01*
Y0940850D01*
X1388699D02*
X1390698D01*
X1389698D01*
Y0944849D01*
X1388699D01*
X1393697Y0940850D02*
X1396696D01*
X1397696Y0941850D01*
X1396696Y0942849D01*
X1394697D01*
X1393697Y0943849D01*
X1394697Y0944849D01*
X1397696D01*
X1405693Y0940850D02*
X1407692D01*
X1406693D01*
Y0944849D01*
X1405693D01*
X1410692Y0940850D02*
X1413690D01*
X1414690Y0941850D01*
X1413690Y0942849D01*
X1411691D01*
X1410692Y0943849D01*
X1411691Y0944849D01*
X1414690D01*
X1422688Y0940850D02*
X1425687D01*
X1426686Y0941850D01*
X1425687Y0942849D01*
X1423687D01*
X1422688Y0943849D01*
X1423687Y0944849D01*
X1426686D01*
X1429685Y0945848D02*
Y0944849D01*
X1428686D01*
X1430685D01*
X1429685D01*
Y0941850D01*
X1430685Y0940850D01*
X1434684Y0944849D02*
X1436683D01*
X1437683Y0943849D01*
Y0940850D01*
X1434684D01*
X1433684Y0941850D01*
X1434684Y0942849D01*
X1437683D01*
X1440682Y0945848D02*
Y0944849D01*
X1439682D01*
X1441681D01*
X1440682D01*
Y0941850D01*
X1441681Y0940850D01*
X1444681D02*
X1446680D01*
X1445680D01*
Y0944849D01*
X1444681D01*
X1453677D02*
X1450679D01*
X1449679Y0943849D01*
Y0941850D01*
X1450679Y0940850D01*
X1453677D01*
X1455677D02*
Y0941850D01*
X1456677D01*
Y0940850D01*
X1455677D01*
X1230750Y0937848D02*
X1232749D01*
X1231750D01*
Y0931850D01*
X1230750D01*
X1232749D01*
X1236748D02*
Y0936848D01*
Y0934849D01*
X1235748D01*
X1237748D01*
X1236748D01*
Y0936848D01*
X1237748Y0937848D01*
X1246745Y0935849D02*
Y0932850D01*
X1247744Y0931850D01*
X1250743D01*
Y0930850D01*
X1249744Y0929851D01*
X1248744D01*
X1250743Y0931850D02*
Y0935849D01*
X1253743Y0931850D02*
X1255742D01*
X1256742Y0932850D01*
Y0934849D01*
X1255742Y0935849D01*
X1253743D01*
X1252743Y0934849D01*
Y0932850D01*
X1253743Y0931850D01*
X1258741Y0935849D02*
Y0932850D01*
X1259741Y0931850D01*
X1262740D01*
Y0935849D01*
X1274736D02*
X1271737D01*
X1270737Y0934849D01*
Y0932850D01*
X1271737Y0931850D01*
X1274736D01*
X1276735Y0937848D02*
Y0931850D01*
Y0934849D01*
X1277735Y0935849D01*
X1279734D01*
X1280734Y0934849D01*
Y0931850D01*
X1283733Y0935849D02*
X1285732D01*
X1286732Y0934849D01*
Y0931850D01*
X1283733D01*
X1282733Y0932850D01*
X1283733Y0933849D01*
X1286732D01*
X1288731Y0931850D02*
Y0935849D01*
X1291730D01*
X1292730Y0934849D01*
Y0931850D01*
X1296729Y0929851D02*
X1297728D01*
X1298728Y0930850D01*
Y0935849D01*
X1295729D01*
X1294729Y0934849D01*
Y0932850D01*
X1295729Y0931850D01*
X1298728D01*
X1303726D02*
X1301727D01*
X1300727Y0932850D01*
Y0934849D01*
X1301727Y0935849D01*
X1303726D01*
X1304726Y0934849D01*
Y0933849D01*
X1300727D01*
X1313723Y0936848D02*
Y0935849D01*
X1312724D01*
X1314723D01*
X1313723D01*
Y0932850D01*
X1314723Y0931850D01*
X1317722Y0937848D02*
Y0931850D01*
Y0934849D01*
X1318721Y0935849D01*
X1320721D01*
X1321721Y0934849D01*
Y0931850D01*
X1326719D02*
X1324720D01*
X1323720Y0932850D01*
Y0934849D01*
X1324720Y0935849D01*
X1326719D01*
X1327719Y0934849D01*
Y0933849D01*
X1323720D01*
X1335716Y0931850D02*
X1338715D01*
X1339715Y0932850D01*
X1338715Y0933849D01*
X1336716D01*
X1335716Y0934849D01*
X1336716Y0935849D01*
X1339715D01*
X1342714Y0936848D02*
Y0935849D01*
X1341714D01*
X1343713D01*
X1342714D01*
Y0932850D01*
X1343713Y0931850D01*
X1347712Y0935849D02*
X1349712D01*
X1350711Y0934849D01*
Y0931850D01*
X1347712D01*
X1346712Y0932850D01*
X1347712Y0933849D01*
X1350711D01*
X1356709Y0935849D02*
X1353710D01*
X1352711Y0934849D01*
Y0932850D01*
X1353710Y0931850D01*
X1356709D01*
X1358709D02*
Y0937848D01*
Y0933849D02*
X1361708Y0935849D01*
X1358709Y0933849D02*
X1361708Y0931850D01*
X1364707Y0935849D02*
Y0932850D01*
X1365706Y0931850D01*
X1368705D01*
Y0935849D01*
X1370705Y0929851D02*
Y0935849D01*
X1373704D01*
X1374703Y0934849D01*
Y0932850D01*
X1373704Y0931850D01*
X1370705D01*
X1377703Y0930850D02*
X1378702Y0931850D01*
Y0932850D01*
X1377703D01*
Y0931850D01*
X1378702D01*
X1377703Y0930850D01*
X1376703Y0929851D01*
X1388699Y0935849D02*
Y0932850D01*
X1389699Y0931850D01*
X1392698D01*
Y0935849D01*
X1394697Y0929851D02*
Y0935849D01*
X1397696D01*
X1398696Y0934849D01*
Y0932850D01*
X1397696Y0931850D01*
X1394697D01*
X1404694Y0937848D02*
Y0931850D01*
X1401695D01*
X1400695Y0932850D01*
Y0934849D01*
X1401695Y0935849D01*
X1404694D01*
X1407693D02*
X1409692D01*
X1410692Y0934849D01*
Y0931850D01*
X1407693D01*
X1406693Y0932850D01*
X1407693Y0933849D01*
X1410692D01*
X1413691Y0936848D02*
Y0935849D01*
X1412691D01*
X1414690D01*
X1413691D01*
Y0932850D01*
X1414690Y0931850D01*
X1420689D02*
X1418689D01*
X1417690Y0932850D01*
Y0934849D01*
X1418689Y0935849D01*
X1420689D01*
X1421688Y0934849D01*
Y0933849D01*
X1417690D01*
X1430685Y0936848D02*
Y0935849D01*
X1429686D01*
X1431685D01*
X1430685D01*
Y0932850D01*
X1431685Y0931850D01*
X1434684Y0937848D02*
Y0931850D01*
Y0934849D01*
X1435684Y0935849D01*
X1437683D01*
X1438683Y0934849D01*
Y0931850D01*
X1443681D02*
X1441682D01*
X1440682Y0932850D01*
Y0934849D01*
X1441682Y0935849D01*
X1443681D01*
X1444681Y0934849D01*
Y0933849D01*
X1440682D01*
X1452678Y0937848D02*
Y0931850D01*
X1456677D01*
X1461675D02*
X1459676D01*
X1458676Y0932850D01*
Y0934849D01*
X1459676Y0935849D01*
X1461675D01*
X1462675Y0934849D01*
Y0933849D01*
X1458676D01*
X1466674Y0929851D02*
X1467673D01*
X1468673Y0930850D01*
Y0935849D01*
X1465674D01*
X1464674Y0934849D01*
Y0932850D01*
X1465674Y0931850D01*
X1468673D01*
X1473671D02*
X1471672D01*
X1470672Y0932850D01*
Y0934849D01*
X1471672Y0935849D01*
X1473671D01*
X1474671Y0934849D01*
Y0933849D01*
X1470672D01*
X1476670Y0931850D02*
Y0935849D01*
X1479669D01*
X1480669Y0934849D01*
Y0931850D01*
X1486667Y0937848D02*
Y0931850D01*
X1483668D01*
X1482668Y0932850D01*
Y0934849D01*
X1483668Y0935849D01*
X1486667D01*
X1488667Y0931850D02*
Y0932850D01*
X1489666D01*
Y0931850D01*
X1488667D01*
G54D43*
X1411404Y0901140D02*
Y0903539D01*
X1412204Y0902740D01*
X1413004Y0903539D01*
Y0901140D01*
X1414203Y0902740D02*
X1415003D01*
X1415403Y0902340D01*
Y0901140D01*
X1414203D01*
X1413803Y0901540D01*
X1414203Y0901940D01*
X1415403D01*
X1416602Y0903139D02*
Y0902740D01*
X1416203D01*
X1417002D01*
X1416602D01*
Y0901540D01*
X1417002Y0901140D01*
X1419401D02*
X1418602D01*
X1418202Y0901540D01*
Y0902340D01*
X1418602Y0902740D01*
X1419401D01*
X1419801Y0902340D01*
Y0901940D01*
X1418202D01*
X1420601Y0902740D02*
Y0901140D01*
Y0901940D01*
X1421001Y0902340D01*
X1421401Y0902740D01*
X1421801D01*
X1423000Y0901140D02*
X1423800D01*
X1423400D01*
Y0902740D01*
X1423000D01*
X1425399D02*
X1426199D01*
X1426599Y0902340D01*
Y0901140D01*
X1425399D01*
X1425000Y0901540D01*
X1425399Y0901940D01*
X1426599D01*
X1427399Y0901140D02*
X1428199D01*
X1427799D01*
Y0903539D01*
X1427399D01*
X1351133D02*
X1352733D01*
X1351933D01*
Y0901140D01*
X1353533Y0903539D02*
Y0901140D01*
Y0902340D01*
X1353932Y0902740D01*
X1354732D01*
X1355132Y0902340D01*
Y0901140D01*
X1355932D02*
X1356732D01*
X1356332D01*
Y0902740D01*
X1355932D01*
X1359531D02*
X1358331D01*
X1357931Y0902340D01*
Y0901540D01*
X1358331Y0901140D01*
X1359531D01*
X1360330D02*
Y0903539D01*
Y0901940D02*
X1361530Y0902740D01*
X1360330Y0901940D02*
X1361530Y0901140D01*
X1362729D02*
Y0902740D01*
X1363929D01*
X1364329Y0902340D01*
Y0901140D01*
X1366328D02*
X1365529D01*
X1365129Y0901540D01*
Y0902340D01*
X1365529Y0902740D01*
X1366328D01*
X1366728Y0902340D01*
Y0901940D01*
X1365129D01*
X1367528Y0901140D02*
X1368728D01*
X1369127Y0901540D01*
X1368728Y0901940D01*
X1367928D01*
X1367528Y0902340D01*
X1367928Y0902740D01*
X1369127D01*
X1369927Y0901140D02*
X1371127D01*
X1371527Y0901540D01*
X1371127Y0901940D01*
X1370327D01*
X1369927Y0902340D01*
X1370327Y0902740D01*
X1371527D01*
X1294781Y0903539D02*
Y0901140D01*
X1295981D01*
X1296381Y0901540D01*
Y0903139D01*
X1295981Y0903539D01*
X1294781D01*
X1297580Y0901140D02*
X1298380D01*
X1298780Y0901540D01*
Y0902340D01*
X1298380Y0902740D01*
X1297580D01*
X1297180Y0902340D01*
Y0901540D01*
X1297580Y0901140D01*
X1301179Y0902740D02*
X1299980D01*
X1299580Y0902340D01*
Y0901540D01*
X1299980Y0901140D01*
X1301179D01*
X1301979Y0902740D02*
Y0901540D01*
X1302379Y0901140D01*
X1303578D01*
Y0902740D01*
X1304378Y0901140D02*
Y0902740D01*
X1304778D01*
X1305178Y0902340D01*
Y0901140D01*
Y0902340D01*
X1305578Y0902740D01*
X1305978Y0902340D01*
Y0901140D01*
X1307977D02*
X1307177D01*
X1306777Y0901540D01*
Y0902340D01*
X1307177Y0902740D01*
X1307977D01*
X1308377Y0902340D01*
Y0901940D01*
X1306777D01*
X1309177Y0901140D02*
Y0902740D01*
X1310376D01*
X1310776Y0902340D01*
Y0901140D01*
X1311976Y0903139D02*
Y0902740D01*
X1311576D01*
X1312376D01*
X1311976D01*
Y0901540D01*
X1312376Y0901140D01*
X1205200D02*
Y0903539D01*
X1206800Y0901140D01*
Y0903539D01*
X1207999Y0902740D02*
X1208799D01*
X1209199Y0902340D01*
Y0901140D01*
X1207999D01*
X1207599Y0901540D01*
X1207999Y0901940D01*
X1209199D01*
X1209998Y0901140D02*
Y0902740D01*
X1210398D01*
X1210798Y0902340D01*
Y0901140D01*
Y0902340D01*
X1211198Y0902740D01*
X1211598Y0902340D01*
Y0901140D01*
X1213597D02*
X1212798D01*
X1212398Y0901540D01*
Y0902340D01*
X1212798Y0902740D01*
X1213597D01*
X1213997Y0902340D01*
Y0901940D01*
X1212398D01*
X1411404Y0908339D02*
Y0905940D01*
X1412604D01*
X1413004Y0906340D01*
Y0907939D01*
X1412604Y0908339D01*
X1411404D01*
X1413803Y0905940D02*
X1414603D01*
X1414203D01*
Y0907539D01*
X1413803D01*
X1417002Y0905940D02*
X1416203D01*
X1415803Y0906340D01*
Y0907140D01*
X1416203Y0907539D01*
X1417002D01*
X1417402Y0907140D01*
Y0906740D01*
X1415803D01*
X1418202Y0905940D02*
X1419001D01*
X1418602D01*
Y0908339D01*
X1418202D01*
X1421401Y0905940D02*
X1420601D01*
X1420201Y0906340D01*
Y0907140D01*
X1420601Y0907539D01*
X1421401D01*
X1421801Y0907140D01*
Y0906740D01*
X1420201D01*
X1424200Y0907539D02*
X1423000D01*
X1422600Y0907140D01*
Y0906340D01*
X1423000Y0905940D01*
X1424200D01*
X1425399Y0907939D02*
Y0907539D01*
X1425000D01*
X1425799D01*
X1425399D01*
Y0906340D01*
X1425799Y0905940D01*
X1426999Y0907539D02*
Y0905940D01*
Y0906740D01*
X1427399Y0907140D01*
X1427799Y0907539D01*
X1428199D01*
X1429398Y0905940D02*
X1430198D01*
X1429798D01*
Y0907539D01*
X1429398D01*
X1432997D02*
X1431797D01*
X1431398Y0907140D01*
Y0906340D01*
X1431797Y0905940D01*
X1432997D01*
X1352733Y0907939D02*
X1352333Y0908339D01*
X1351533D01*
X1351133Y0907939D01*
Y0906340D01*
X1351533Y0905940D01*
X1352333D01*
X1352733Y0906340D01*
X1353932Y0905940D02*
X1354732D01*
X1355132Y0906340D01*
Y0907140D01*
X1354732Y0907539D01*
X1353932D01*
X1353533Y0907140D01*
Y0906340D01*
X1353932Y0905940D01*
X1355932Y0905140D02*
Y0907539D01*
X1357131D01*
X1357531Y0907140D01*
Y0906340D01*
X1357131Y0905940D01*
X1355932D01*
X1358331Y0905140D02*
Y0907539D01*
X1359531D01*
X1359930Y0907140D01*
Y0906340D01*
X1359531Y0905940D01*
X1358331D01*
X1361930D02*
X1361130D01*
X1360730Y0906340D01*
Y0907140D01*
X1361130Y0907539D01*
X1361930D01*
X1362330Y0907140D01*
Y0906740D01*
X1360730D01*
X1363129Y0907539D02*
Y0905940D01*
Y0906740D01*
X1363529Y0907140D01*
X1363929Y0907539D01*
X1364329D01*
X1296381Y0907939D02*
X1295981Y0908339D01*
X1295181D01*
X1294781Y0907939D01*
Y0906340D01*
X1295181Y0905940D01*
X1295981D01*
X1296381Y0906340D01*
Y0907140D01*
X1295581D01*
X1298380Y0905940D02*
X1297580D01*
X1297180Y0906340D01*
Y0907140D01*
X1297580Y0907539D01*
X1298380D01*
X1298780Y0907140D01*
Y0906740D01*
X1297180D01*
X1299580Y0907539D02*
Y0905940D01*
Y0906740D01*
X1299980Y0907140D01*
X1300379Y0907539D01*
X1300779D01*
X1301979Y0908339D02*
Y0905940D01*
X1303179D01*
X1303578Y0906340D01*
Y0906740D01*
Y0907140D01*
X1303179Y0907539D01*
X1301979D01*
X1305578Y0905940D02*
X1304778D01*
X1304378Y0906340D01*
Y0907140D01*
X1304778Y0907539D01*
X1305578D01*
X1305978Y0907140D01*
Y0906740D01*
X1304378D01*
X1306777Y0907539D02*
Y0905940D01*
Y0906740D01*
X1307177Y0907140D01*
X1307577Y0907539D01*
X1307977D01*
X1205200Y0908339D02*
Y0905940D01*
X1206800D01*
X1207999Y0907539D02*
X1208799D01*
X1209199Y0907140D01*
Y0905940D01*
X1207999D01*
X1207599Y0906340D01*
X1207999Y0906740D01*
X1209199D01*
X1209998Y0907539D02*
Y0906340D01*
X1210398Y0905940D01*
X1211598D01*
Y0905540D01*
X1211198Y0905140D01*
X1210798D01*
X1211598Y0905940D02*
Y0907539D01*
X1213597Y0905940D02*
X1212798D01*
X1212398Y0906340D01*
Y0907140D01*
X1212798Y0907539D01*
X1213597D01*
X1213997Y0907140D01*
Y0906740D01*
X1212398D01*
X1214797Y0907539D02*
Y0905940D01*
Y0906740D01*
X1215197Y0907140D01*
X1215597Y0907539D01*
X1215996D01*
M02*
