%FSAX25Y25*%
%MOIN*%
G70*
G01*
G75*
G04 Layer_Physical_Order=1*
G04 Layer_Color=255*
%ADD10C,0.00787*%
%ADD11C,0.03937*%
%ADD12C,0.02362*%
%ADD13C,0.10000*%
%ADD14C,0.00800*%
%ADD15C,0.03937*%
%ADD16C,0.00600*%
%ADD17C,0.05000*%
%ADD18C,0.01200*%
%ADD19C,0.02000*%
%ADD20C,0.06496*%
%ADD21R,0.06496X0.06496*%
%ADD22C,0.18110*%
%ADD23C,0.03600*%
G36*
X0639200Y0513400D02*
X0597823D01*
X0601234Y0510890D01*
X0605891Y0507009D01*
X0610304Y0502854D01*
X0614459Y0498441D01*
X0618340Y0493785D01*
X0621932Y0488902D01*
X0625223Y0483812D01*
X0628201Y0478533D01*
X0630854Y0473083D01*
X0633174Y0467483D01*
X0635151Y0461753D01*
X0636779Y0455914D01*
X0638051Y0449988D01*
X0638963Y0443995D01*
X0639512Y0437959D01*
X0639695Y0431900D01*
X0639512Y0425841D01*
X0638963Y0419805D01*
X0638051Y0413812D01*
X0636779Y0407886D01*
X0635151Y0402047D01*
X0633174Y0396317D01*
X0630854Y0390717D01*
X0628201Y0385267D01*
X0625223Y0379988D01*
X0621932Y0374898D01*
X0618340Y0370016D01*
X0614459Y0365359D01*
X0610304Y0360946D01*
X0609384Y0360079D01*
X0608665Y0359402D01*
X0608661Y0359399D01*
X0607949Y0358730D01*
X0607933Y0358715D01*
X0607598Y0358401D01*
X0607600Y0358400D01*
Y0358400D01*
X0608070Y0358401D01*
X0609055Y0358402D01*
X0609061Y0358402D01*
X0609061Y0358402D01*
Y0358402D01*
D01*
Y0358402D01*
X0738926Y0358443D01*
X0739702Y0357651D01*
X0739743Y0173174D01*
X0738951Y0172398D01*
X0089474Y0172357D01*
X0088699Y0172900D01*
X0088657Y0512626D01*
X0089200Y0513402D01*
X0164200Y0513413D01*
Y0608400D01*
X0639200D01*
Y0513400D01*
D02*
G37*
%LPC*%
G36*
X0334200Y0498400D02*
X0264200D01*
Y0428400D01*
X0334200D01*
Y0498400D01*
D02*
G37*
G36*
X0254200D02*
X0184200D01*
Y0428400D01*
X0254200D01*
Y0498400D01*
D02*
G37*
G36*
X0174200D02*
X0104200D01*
Y0428400D01*
X0174200D01*
Y0498400D01*
D02*
G37*
G36*
X0694200Y0258400D02*
X0624200D01*
Y0188400D01*
X0694200D01*
Y0258400D01*
D02*
G37*
G36*
X0534200D02*
X0464200D01*
Y0188400D01*
X0534200D01*
Y0258400D01*
D02*
G37*
G36*
X0614200D02*
X0544200D01*
Y0188400D01*
X0614200D01*
Y0258400D01*
D02*
G37*
G36*
X0454200D02*
X0384200D01*
Y0188400D01*
X0454200D01*
Y0258400D01*
D02*
G37*
G36*
X0174200Y0338400D02*
X0104200D01*
Y0268400D01*
X0174200D01*
Y0338400D01*
D02*
G37*
G36*
X0334200Y0418400D02*
X0264200D01*
Y0348400D01*
X0334200D01*
Y0418400D01*
D02*
G37*
G36*
X0480877Y0513400D02*
X0348968D01*
X0349701Y0512651D01*
Y0358401D01*
X0471100Y0358400D01*
X0468396Y0360946D01*
X0464241Y0365359D01*
X0460360Y0370016D01*
X0456768Y0374898D01*
X0453477Y0379988D01*
X0450499Y0385267D01*
X0447846Y0390717D01*
X0445526Y0396317D01*
X0443549Y0402047D01*
X0441921Y0407886D01*
X0440649Y0413812D01*
X0439737Y0419805D01*
X0439188Y0425841D01*
X0439005Y0431900D01*
X0439188Y0437959D01*
X0439737Y0443995D01*
X0440649Y0449988D01*
X0441921Y0455914D01*
X0443549Y0461753D01*
X0445526Y0467483D01*
X0447846Y0473083D01*
X0450499Y0478533D01*
X0453477Y0483812D01*
X0456768Y0488902D01*
X0460360Y0493785D01*
X0464241Y0498441D01*
X0468396Y0502854D01*
X0472809Y0507009D01*
X0477465Y0510890D01*
X0480877Y0513400D01*
D02*
G37*
G36*
X0174200Y0418400D02*
X0104200D01*
Y0348400D01*
X0174200D01*
Y0418400D01*
D02*
G37*
G36*
X0254200D02*
X0184200D01*
Y0348400D01*
X0254200D01*
Y0418400D01*
D02*
G37*
G36*
X0334200Y0338400D02*
X0264200D01*
Y0268400D01*
X0334200D01*
Y0338400D01*
D02*
G37*
G36*
X0254200D02*
X0184200D01*
Y0268400D01*
X0254200D01*
Y0338400D01*
D02*
G37*
G36*
X0539350Y0517849D02*
X0533778Y0517666D01*
X0528229Y0517120D01*
X0522728Y0516212D01*
X0517299Y0514946D01*
X0512203Y0513400D01*
X0511964Y0513327D01*
X0506746Y0511364D01*
X0501667Y0509063D01*
X0496750Y0506434D01*
X0492016Y0503490D01*
X0487484Y0500243D01*
X0483174Y0496706D01*
X0479105Y0492895D01*
X0475294Y0488826D01*
X0471757Y0484516D01*
X0468510Y0479984D01*
X0465566Y0475249D01*
X0462937Y0470332D01*
X0460637Y0465254D01*
X0458673Y0460036D01*
X0457054Y0454701D01*
X0455788Y0449271D01*
X0454880Y0443771D01*
X0454333Y0438222D01*
X0454151Y0432650D01*
X0454333Y0427078D01*
X0454880Y0421529D01*
X0455788Y0416028D01*
X0457054Y0410599D01*
X0458673Y0405264D01*
X0460637Y0400046D01*
X0462937Y0394968D01*
X0465566Y0390051D01*
X0468510Y0385316D01*
X0471757Y0380784D01*
X0475294Y0376474D01*
X0479105Y0372405D01*
X0483174Y0368594D01*
X0487484Y0365057D01*
X0492016Y0361810D01*
X0496750Y0358866D01*
X0501667Y0356237D01*
X0506746Y0353937D01*
X0511964Y0351973D01*
X0517299Y0350354D01*
X0522728Y0349088D01*
X0528229Y0348180D01*
X0533778Y0347634D01*
X0539350Y0347451D01*
X0544922Y0347634D01*
X0550471Y0348180D01*
X0555971Y0349088D01*
X0561401Y0350354D01*
X0566736Y0351973D01*
X0571954Y0353937D01*
X0577033Y0356237D01*
X0581950Y0358866D01*
X0586684Y0361810D01*
X0591216Y0365057D01*
X0595526Y0368594D01*
X0599595Y0372405D01*
X0603406Y0376474D01*
X0606943Y0380784D01*
X0610190Y0385316D01*
X0613134Y0390051D01*
X0615763Y0394968D01*
X0618063Y0400046D01*
X0620027Y0405264D01*
X0621646Y0410599D01*
X0622912Y0416028D01*
X0623820Y0421529D01*
X0624367Y0427078D01*
X0624549Y0432650D01*
X0624367Y0438222D01*
X0623820Y0443771D01*
X0622912Y0449271D01*
X0621646Y0454701D01*
X0620027Y0460036D01*
X0618063Y0465254D01*
X0615763Y0470332D01*
X0613134Y0475249D01*
X0610190Y0479984D01*
X0606943Y0484516D01*
X0603406Y0488826D01*
X0599595Y0492895D01*
X0595526Y0496706D01*
X0591216Y0500243D01*
X0586684Y0503490D01*
X0581950Y0506434D01*
X0577033Y0509063D01*
X0571954Y0511364D01*
X0566736Y0513327D01*
X0566497Y0513400D01*
X0561401Y0514946D01*
X0555971Y0516212D01*
X0550471Y0517120D01*
X0544922Y0517666D01*
X0539350Y0517849D01*
D02*
G37*
G36*
X0729200Y0343400D02*
X0349200D01*
Y0268400D01*
X0729200D01*
Y0343400D01*
D02*
G37*
G36*
X0174200Y0258400D02*
X0104200D01*
Y0188400D01*
X0174200D01*
Y0258400D01*
D02*
G37*
G36*
X0629200Y0598400D02*
X0174200D01*
Y0528400D01*
X0629200D01*
Y0598400D01*
D02*
G37*
G36*
X0334200Y0258400D02*
X0264200D01*
Y0188400D01*
X0334200D01*
Y0258400D01*
D02*
G37*
G36*
X0254200D02*
X0184200D01*
Y0188400D01*
X0254200D01*
Y0258400D01*
D02*
G37*
%LPD*%
G36*
X0539200Y0291400D02*
X0461700Y0315400D01*
X0616700D01*
X0539200Y0291400D01*
D02*
G37*
G36*
X0704200D02*
X0549200D01*
X0626700Y0315400D01*
X0704200Y0291400D01*
D02*
G37*
G36*
X0364200D02*
Y0315400D01*
X0441700D01*
X0364200Y0291400D01*
D02*
G37*
G36*
X0528700D02*
X0374200D01*
X0451700Y0315400D01*
X0528700Y0291400D01*
D02*
G37*
G36*
X0544050Y0504082D02*
X0549083Y0503541D01*
X0554064Y0502642D01*
X0558969Y0501390D01*
X0563772Y0499791D01*
X0568448Y0497854D01*
X0572975Y0495588D01*
X0577328Y0493005D01*
X0581487Y0490118D01*
X0585428Y0486942D01*
X0589133Y0483493D01*
X0592582Y0479788D01*
X0595758Y0475846D01*
X0598645Y0471689D01*
X0601228Y0467335D01*
X0603494Y0462809D01*
X0605431Y0458132D01*
X0607030Y0453329D01*
X0608282Y0448424D01*
X0609180Y0443443D01*
X0609722Y0438410D01*
X0609902Y0433351D01*
X0609722Y0428292D01*
X0609180Y0423259D01*
X0608282Y0418278D01*
X0607030Y0413373D01*
X0605431Y0408570D01*
X0603494Y0403893D01*
X0601228Y0399367D01*
X0598645Y0395013D01*
X0595758Y0390855D01*
X0592582Y0386914D01*
X0589133Y0383209D01*
X0585428Y0379760D01*
X0581487Y0376583D01*
X0577328Y0373696D01*
X0572975Y0371113D01*
X0568448Y0368848D01*
X0563772Y0366911D01*
X0558969Y0365312D01*
X0554064Y0364060D01*
X0549083Y0363161D01*
X0544050Y0362620D01*
X0538991Y0362440D01*
X0533932Y0362620D01*
X0528899Y0363161D01*
X0523918Y0364060D01*
X0519013Y0365312D01*
X0514210Y0366911D01*
X0509533Y0368848D01*
X0505007Y0371113D01*
X0500653Y0373696D01*
X0496495Y0376583D01*
X0492554Y0379760D01*
X0488849Y0383209D01*
X0485400Y0386914D01*
X0482223Y0390855D01*
X0479337Y0395013D01*
X0476754Y0399367D01*
X0474488Y0403893D01*
X0472550Y0408570D01*
X0470952Y0413373D01*
X0469700Y0418278D01*
X0468801Y0423259D01*
X0468260Y0428292D01*
X0468080Y0433351D01*
X0468260Y0438410D01*
X0468801Y0443443D01*
X0469700Y0448424D01*
X0470952Y0453329D01*
X0472550Y0458132D01*
X0474488Y0462809D01*
X0476754Y0467335D01*
X0479337Y0471689D01*
X0482223Y0475846D01*
X0485400Y0479788D01*
X0488849Y0483493D01*
X0492554Y0486942D01*
X0496495Y0490118D01*
X0500653Y0493005D01*
X0505007Y0495588D01*
X0509533Y0497854D01*
X0514210Y0499791D01*
X0519013Y0501390D01*
X0523918Y0502642D01*
X0528899Y0503541D01*
X0533932Y0504082D01*
X0538991Y0504262D01*
X0544050Y0504082D01*
D02*
G37*
G36*
X0604200Y0578900D02*
X0194200D01*
Y0583400D01*
X0604200D01*
Y0578900D01*
D02*
G37*
G36*
X0714200Y0291400D02*
X0636700Y0315400D01*
X0714200D01*
Y0291400D01*
D02*
G37*
G36*
Y0318900D02*
X0364200D01*
Y0323400D01*
X0714200D01*
Y0318900D01*
D02*
G37*
G36*
X0399200Y0551400D02*
X0306700Y0575400D01*
X0491700D01*
X0399200Y0551400D01*
D02*
G37*
G36*
X0389200D02*
X0204300Y0551426D01*
X0227200Y0554400D01*
X0227300Y0554426D01*
D01*
X0204300Y0551426D01*
X0296700Y0575400D01*
X0389200Y0551400D01*
D02*
G37*
G36*
X0194200D02*
Y0575400D01*
X0286700D01*
X0194200Y0551400D01*
D02*
G37*
G36*
X0594200D02*
X0409200D01*
X0501700Y0575400D01*
X0594200Y0551400D01*
D02*
G37*
G36*
X0714200Y0283400D02*
X0364200D01*
Y0287900D01*
X0714200D01*
Y0283400D01*
D02*
G37*
G36*
X0604200Y0543400D02*
X0194200D01*
Y0547900D01*
X0604200D01*
Y0543400D01*
D02*
G37*
G36*
Y0551400D02*
X0511700Y0575400D01*
X0604200D01*
Y0551400D01*
D02*
G37*
%LPC*%
G36*
X0538991Y0501899D02*
X0534101Y0501724D01*
X0529236Y0501201D01*
X0524420Y0500332D01*
X0519679Y0499122D01*
X0515036Y0497577D01*
X0510515Y0495704D01*
X0506140Y0493514D01*
X0501931Y0491017D01*
X0497912Y0488226D01*
X0494102Y0485156D01*
X0490520Y0481821D01*
X0487186Y0478240D01*
X0484116Y0474430D01*
X0481325Y0470411D01*
X0478828Y0466202D01*
X0476638Y0461827D01*
X0474765Y0457306D01*
X0473220Y0452663D01*
X0472010Y0447922D01*
X0471141Y0443106D01*
X0470618Y0438241D01*
X0470443Y0433351D01*
X0470618Y0428461D01*
X0471141Y0423596D01*
X0472010Y0418780D01*
X0473220Y0414039D01*
X0474765Y0409396D01*
X0476638Y0404875D01*
X0478828Y0400499D01*
X0481325Y0396291D01*
X0484116Y0392272D01*
X0487186Y0388462D01*
X0490520Y0384880D01*
X0494102Y0381546D01*
X0497912Y0378476D01*
X0501931Y0375685D01*
X0506140Y0373188D01*
X0510515Y0370998D01*
X0515036Y0369125D01*
X0519679Y0367580D01*
X0524420Y0366370D01*
X0529236Y0365501D01*
X0534101Y0364978D01*
X0538991Y0364803D01*
X0543881Y0364978D01*
X0548746Y0365501D01*
X0553562Y0366370D01*
X0558303Y0367580D01*
X0562946Y0369125D01*
X0567467Y0370998D01*
X0571842Y0373188D01*
X0576051Y0375685D01*
X0580070Y0378476D01*
X0583880Y0381546D01*
X0587461Y0384880D01*
X0590796Y0388462D01*
X0593866Y0392272D01*
X0596657Y0396291D01*
X0599154Y0400499D01*
X0601344Y0404875D01*
X0603217Y0409396D01*
X0604762Y0414039D01*
X0605972Y0418780D01*
X0606841Y0423596D01*
X0607364Y0428461D01*
X0607539Y0433351D01*
X0607364Y0438241D01*
X0606841Y0443106D01*
X0605972Y0447922D01*
X0604762Y0452663D01*
X0603217Y0457306D01*
X0601344Y0461827D01*
X0599154Y0466202D01*
X0596657Y0470411D01*
X0593866Y0474430D01*
X0590796Y0478240D01*
X0587461Y0481821D01*
X0583880Y0485156D01*
X0580070Y0488226D01*
X0576051Y0491017D01*
X0571842Y0493514D01*
X0567467Y0495704D01*
X0562946Y0497577D01*
X0558303Y0499122D01*
X0553562Y0500332D01*
X0548746Y0501201D01*
X0543881Y0501724D01*
X0538991Y0501899D01*
D02*
G37*
G36*
X0601200Y0572400D02*
X0534700D01*
X0601200Y0555400D01*
Y0572400D01*
D02*
G37*
G36*
X0263700Y0572414D02*
X0197200Y0572400D01*
Y0555400D01*
X0263700Y0572414D01*
D02*
G37*
G36*
X0501700Y0572400D02*
X0432200Y0554400D01*
X0571200D01*
X0501700Y0572400D01*
D02*
G37*
G36*
X0468700D02*
X0329700D01*
X0399200Y0554400D01*
X0468700Y0572400D01*
D02*
G37*
G36*
X0597700Y0312400D02*
X0480700D01*
X0539200Y0294400D01*
X0597700Y0312400D01*
D02*
G37*
G36*
X0451700D02*
X0393200Y0294400D01*
X0510200D01*
X0451700Y0312400D01*
D02*
G37*
G36*
X0296700Y0572400D02*
X0227300Y0554426D01*
X0366200Y0554400D01*
X0296700Y0572400D01*
D02*
G37*
G36*
X0711200Y0312400D02*
X0655700D01*
X0711200Y0295400D01*
Y0312400D01*
D02*
G37*
G36*
X0422700D02*
X0367200D01*
Y0295400D01*
X0422700Y0312400D01*
D02*
G37*
G36*
X0626700D02*
X0568200Y0294400D01*
X0685200D01*
X0626700Y0312400D01*
D02*
G37*
%LPD*%
G36*
X0479039Y0407308D02*
X0478657Y0408137D01*
X0478341Y0408993D01*
X0479039Y0407308D01*
D02*
G37*
G36*
X0478341Y0408993D02*
X0477718Y0410497D01*
X0477090Y0412385D01*
X0478341Y0408993D01*
D02*
G37*
G36*
X0585768Y0407254D02*
X0585763Y0407257D01*
X0585763Y0407256D01*
X0585749Y0407264D01*
X0585763Y0407257D01*
X0585855Y0407422D01*
X0585768Y0407254D01*
D02*
G37*
G36*
X0588372Y0403931D02*
X0588372Y0403931D01*
X0588390Y0403921D01*
X0588059Y0403330D01*
X0587915Y0403115D01*
X0588372Y0403931D01*
X0588372Y0403932D01*
X0588372Y0403931D01*
D02*
G37*
G36*
X0480170Y0404855D02*
X0479505Y0406184D01*
X0479039Y0407308D01*
X0480170Y0404855D01*
D02*
G37*
G36*
X0543999Y0498558D02*
X0545322Y0498401D01*
X0543788Y0498566D01*
X0543999Y0498558D01*
D02*
G37*
G36*
X0541133Y0498670D02*
X0543656Y0498580D01*
X0543788Y0498566D01*
X0541133Y0498670D01*
X0539788Y0498719D01*
X0539788Y0498723D01*
X0541133Y0498670D01*
D02*
G37*
G36*
X0548298Y0498081D02*
X0548818Y0497988D01*
X0545322Y0498401D01*
X0548298Y0498081D01*
D02*
G37*
G36*
X0477090Y0412385D02*
X0476922Y0412839D01*
X0476831Y0413162D01*
X0477090Y0412385D01*
D02*
G37*
G36*
X0538203Y0498701D02*
X0538203Y0497148D01*
X0538991Y0497179D01*
X0543875Y0496987D01*
X0548729Y0496412D01*
X0553523Y0495459D01*
X0558228Y0494132D01*
X0562813Y0492440D01*
X0567252Y0490394D01*
X0571517Y0488005D01*
X0575581Y0485290D01*
X0579420Y0482264D01*
X0583009Y0478946D01*
X0586327Y0475356D01*
X0589353Y0471518D01*
X0592069Y0467453D01*
X0594457Y0463189D01*
X0596503Y0458750D01*
X0598195Y0454164D01*
X0599522Y0449460D01*
X0600476Y0444666D01*
X0601050Y0439812D01*
X0601242Y0434927D01*
X0601050Y0430043D01*
X0600476Y0425189D01*
X0599522Y0420395D01*
X0598195Y0415691D01*
X0596503Y0411105D01*
X0594457Y0406666D01*
X0592583Y0403319D01*
X0592569Y0403327D01*
X0593716Y0405374D01*
X0595685Y0409645D01*
X0597312Y0414056D01*
X0598589Y0418582D01*
X0599506Y0423194D01*
X0600059Y0427864D01*
X0600243Y0432563D01*
X0600059Y0437261D01*
X0599506Y0441931D01*
X0598589Y0446543D01*
X0597312Y0451069D01*
X0595685Y0455480D01*
X0593716Y0459751D01*
X0591418Y0463854D01*
X0588806Y0467763D01*
X0585895Y0471456D01*
X0582703Y0474909D01*
X0579250Y0478101D01*
X0575557Y0481012D01*
X0571647Y0483625D01*
X0567544Y0485922D01*
X0563274Y0487891D01*
X0558862Y0489519D01*
X0554337Y0490795D01*
X0549725Y0491712D01*
X0545055Y0492265D01*
X0540356Y0492450D01*
X0538203Y0492365D01*
X0538203Y0492365D01*
X0538203Y0489268D01*
X0538991Y0489298D01*
X0543257Y0489131D01*
X0547496Y0488629D01*
X0551684Y0487796D01*
X0555792Y0486637D01*
X0559798Y0485160D01*
X0563675Y0483372D01*
X0567400Y0481286D01*
X0570949Y0478915D01*
X0574302Y0476272D01*
X0577437Y0473374D01*
X0580335Y0470239D01*
X0582978Y0466886D01*
X0585350Y0463336D01*
X0587436Y0459612D01*
X0589223Y0455734D01*
X0590701Y0451729D01*
X0591859Y0447620D01*
X0592692Y0443433D01*
X0593194Y0439193D01*
X0593362Y0434928D01*
X0593194Y0430662D01*
X0592692Y0426422D01*
X0591859Y0422235D01*
X0590701Y0418126D01*
X0589223Y0414121D01*
X0587436Y0410244D01*
X0585855Y0407422D01*
X0587499Y0410579D01*
X0589236Y0414772D01*
X0590600Y0419100D01*
X0591582Y0423530D01*
X0592175Y0428029D01*
X0592373Y0432562D01*
X0592175Y0437096D01*
X0591582Y0441595D01*
X0590600Y0446025D01*
X0589236Y0450353D01*
X0587499Y0454545D01*
X0585404Y0458571D01*
X0582966Y0462398D01*
X0580203Y0465998D01*
X0577138Y0469344D01*
X0573792Y0472409D01*
X0570192Y0475172D01*
X0566365Y0477610D01*
X0562339Y0479705D01*
X0558147Y0481442D01*
X0553819Y0482806D01*
X0549389Y0483788D01*
X0544890Y0484381D01*
X0540356Y0484579D01*
X0538203Y0484485D01*
Y0484484D01*
X0538203Y0482970D01*
X0534663Y0482816D01*
X0530369Y0482250D01*
X0526140Y0481313D01*
X0522008Y0480010D01*
X0518006Y0478352D01*
X0514164Y0476352D01*
X0510511Y0474025D01*
X0507074Y0471388D01*
X0503881Y0468461D01*
X0500954Y0465268D01*
X0498317Y0461831D01*
X0495990Y0458178D01*
X0493990Y0454335D01*
X0492332Y0450333D01*
X0491029Y0446202D01*
X0490092Y0441973D01*
X0489526Y0437678D01*
X0489337Y0433351D01*
X0489526Y0429023D01*
X0490092Y0424729D01*
X0491029Y0420500D01*
X0492332Y0416368D01*
X0493990Y0412366D01*
X0495625Y0409224D01*
X0495620Y0409220D01*
X0495309Y0409708D01*
X0493277Y0413611D01*
X0491593Y0417676D01*
X0490270Y0421873D01*
X0489317Y0426169D01*
X0488743Y0430532D01*
X0488551Y0434928D01*
X0488743Y0439324D01*
X0489317Y0443687D01*
X0490270Y0447983D01*
X0491593Y0452179D01*
X0493277Y0456245D01*
X0495309Y0460148D01*
X0497673Y0463859D01*
X0500352Y0467350D01*
X0503325Y0470594D01*
X0506569Y0473567D01*
X0510060Y0476246D01*
X0513771Y0478610D01*
X0517674Y0480642D01*
X0521739Y0482326D01*
X0525936Y0483649D01*
X0530232Y0484601D01*
X0534595Y0485176D01*
X0538991Y0485368D01*
X0539778Y0485333D01*
Y0488425D01*
X0537625Y0488510D01*
X0533236Y0488337D01*
X0528873Y0487821D01*
X0524565Y0486964D01*
X0520337Y0485771D01*
X0516216Y0484251D01*
X0512226Y0482412D01*
X0508393Y0480265D01*
X0504741Y0477825D01*
X0501291Y0475105D01*
X0498065Y0472123D01*
X0495083Y0468897D01*
X0492363Y0465447D01*
X0489923Y0461795D01*
X0487776Y0457962D01*
X0485937Y0453972D01*
X0484417Y0449851D01*
X0483224Y0445623D01*
X0482367Y0441315D01*
X0481851Y0436952D01*
X0481678Y0432563D01*
X0481851Y0428173D01*
X0482367Y0423810D01*
X0483224Y0419502D01*
X0484417Y0415274D01*
X0485937Y0411153D01*
X0487776Y0407163D01*
X0488822Y0405295D01*
X0488822Y0405295D01*
X0488809Y0405288D01*
X0487035Y0408455D01*
X0485118Y0412613D01*
X0483534Y0416908D01*
X0482291Y0421315D01*
X0481398Y0425806D01*
X0480860Y0430352D01*
X0480680Y0434928D01*
X0480860Y0439502D01*
X0481398Y0444049D01*
X0482291Y0448540D01*
X0483534Y0452947D01*
X0485118Y0457242D01*
X0487035Y0461400D01*
X0489272Y0465395D01*
X0491816Y0469202D01*
X0494651Y0472797D01*
X0497759Y0476160D01*
X0501121Y0479268D01*
X0504716Y0482102D01*
X0508523Y0484646D01*
X0512518Y0486883D01*
X0516676Y0488800D01*
X0520972Y0490385D01*
X0525378Y0491627D01*
X0529869Y0492521D01*
X0534416Y0493059D01*
X0538991Y0493239D01*
X0539778Y0493208D01*
Y0496304D01*
X0539778Y0496305D01*
X0537626Y0496390D01*
X0532618Y0496193D01*
X0527641Y0495604D01*
X0522725Y0494626D01*
X0517902Y0493266D01*
X0513200Y0491531D01*
X0508649Y0489433D01*
X0504276Y0486984D01*
X0500109Y0484200D01*
X0496173Y0481097D01*
X0492493Y0477695D01*
X0489091Y0474015D01*
X0485988Y0470079D01*
X0483204Y0465912D01*
X0480755Y0461540D01*
X0478657Y0456988D01*
X0476922Y0452286D01*
X0475562Y0447463D01*
X0474584Y0442548D01*
X0473995Y0437570D01*
X0473798Y0432563D01*
X0473995Y0427555D01*
X0474584Y0422578D01*
X0475562Y0417662D01*
X0476831Y0413162D01*
X0476244Y0414927D01*
X0475089Y0419450D01*
X0474261Y0424044D01*
X0473762Y0428686D01*
X0473595Y0433351D01*
X0473762Y0438016D01*
X0474261Y0442658D01*
X0475089Y0447252D01*
X0476244Y0451775D01*
X0477718Y0456205D01*
X0479505Y0460517D01*
X0481594Y0464692D01*
X0483976Y0468707D01*
X0486639Y0472541D01*
X0489568Y0476176D01*
X0492749Y0479593D01*
X0496166Y0482774D01*
X0499800Y0485703D01*
X0503635Y0488366D01*
X0507650Y0490748D01*
X0511824Y0492837D01*
X0516137Y0494624D01*
X0520567Y0496098D01*
X0525090Y0497253D01*
X0529684Y0498081D01*
X0534326Y0498580D01*
X0538203Y0498719D01*
X0538203Y0498701D01*
D02*
G37*
G36*
X0594005Y0397995D02*
X0592903Y0396407D01*
X0591994Y0395046D01*
X0591695Y0394668D01*
X0592903Y0396407D01*
X0594335Y0398550D01*
X0594005Y0397995D01*
D02*
G37*
G36*
X0595205Y0399976D02*
X0594778Y0399213D01*
X0594335Y0398550D01*
X0595187Y0399986D01*
X0595205Y0399976D01*
D02*
G37*
G36*
X0591343Y0394161D02*
X0589149Y0391438D01*
X0591695Y0394668D01*
X0591343Y0394161D01*
D02*
G37*
G36*
X0543044Y0479675D02*
X0547066Y0479145D01*
X0551026Y0478267D01*
X0554895Y0477047D01*
X0558643Y0475495D01*
X0562241Y0473622D01*
X0565663Y0471442D01*
X0568881Y0468973D01*
X0571872Y0466232D01*
X0574613Y0463241D01*
X0577082Y0460023D01*
X0579262Y0456601D01*
X0581135Y0453003D01*
X0582688Y0449255D01*
X0583907Y0445386D01*
X0584785Y0441426D01*
X0585315Y0437404D01*
X0585492Y0433351D01*
X0585315Y0429298D01*
X0584785Y0425276D01*
X0583907Y0421316D01*
X0582688Y0417447D01*
X0581135Y0413699D01*
X0579262Y0410100D01*
X0577082Y0406679D01*
X0574613Y0403461D01*
X0571872Y0400470D01*
X0568881Y0397729D01*
X0565663Y0395259D01*
X0562241Y0393080D01*
X0558643Y0391207D01*
X0554895Y0389654D01*
X0551026Y0388434D01*
X0547066Y0387556D01*
X0543044Y0387027D01*
X0538991Y0386850D01*
X0534938Y0387027D01*
X0530916Y0387556D01*
X0526956Y0388434D01*
X0523087Y0389654D01*
X0519339Y0391207D01*
X0515740Y0393080D01*
X0512319Y0395259D01*
X0509101Y0397729D01*
X0506110Y0400470D01*
X0503369Y0403461D01*
X0500900Y0406679D01*
X0498720Y0410100D01*
X0496847Y0413699D01*
X0495294Y0417447D01*
X0494074Y0421316D01*
X0493196Y0425276D01*
X0492667Y0429298D01*
X0492490Y0433351D01*
X0492667Y0437404D01*
X0493196Y0441426D01*
X0494074Y0445386D01*
X0495294Y0449255D01*
X0496847Y0453003D01*
X0498720Y0456601D01*
X0500900Y0460023D01*
X0503369Y0463241D01*
X0506110Y0466232D01*
X0509101Y0468973D01*
X0512319Y0471442D01*
X0515740Y0473622D01*
X0519339Y0475495D01*
X0523087Y0477047D01*
X0526956Y0478267D01*
X0530916Y0479145D01*
X0534938Y0479675D01*
X0538991Y0479852D01*
X0543044Y0479675D01*
D02*
G37*
G36*
X0538204Y0494791D02*
X0538203Y0494784D01*
X0534292Y0494630D01*
X0529623Y0494077D01*
X0525010Y0493160D01*
X0520485Y0491884D01*
X0516073Y0490256D01*
X0511803Y0488287D01*
X0507700Y0485990D01*
X0503790Y0483377D01*
X0500097Y0480466D01*
X0496644Y0477274D01*
X0493452Y0473821D01*
X0490541Y0470128D01*
X0487929Y0466218D01*
X0485631Y0462116D01*
X0483662Y0457845D01*
X0482035Y0453434D01*
X0480758Y0448908D01*
X0479841Y0444296D01*
X0479288Y0439626D01*
X0479104Y0434928D01*
X0479288Y0430229D01*
X0479841Y0425559D01*
X0480758Y0420947D01*
X0482035Y0416421D01*
X0483662Y0412010D01*
X0485631Y0407739D01*
X0487929Y0403637D01*
X0488255Y0403148D01*
X0488277Y0403162D01*
X0490956Y0404708D01*
X0489181Y0407879D01*
X0487393Y0411756D01*
X0485916Y0415761D01*
X0484757Y0419870D01*
X0483924Y0424057D01*
X0483422Y0428297D01*
X0483254Y0432563D01*
X0483422Y0436828D01*
X0483924Y0441068D01*
X0484757Y0445255D01*
X0485916Y0449364D01*
X0487393Y0453369D01*
X0489181Y0457246D01*
X0491267Y0460971D01*
X0493638Y0464521D01*
X0496281Y0467874D01*
X0499179Y0471009D01*
X0502314Y0473907D01*
X0505667Y0476549D01*
X0509217Y0478921D01*
X0512942Y0481007D01*
X0516819Y0482795D01*
X0520824Y0484272D01*
X0524933Y0485431D01*
X0529120Y0486264D01*
X0533359Y0486766D01*
X0537625Y0486934D01*
X0538203Y0486911D01*
X0538203Y0486910D01*
X0534457Y0486746D01*
X0529958Y0486154D01*
X0525528Y0485172D01*
X0521200Y0483807D01*
X0517008Y0482070D01*
X0512983Y0479975D01*
X0509156Y0477537D01*
X0505556Y0474775D01*
X0502210Y0471709D01*
X0499144Y0468363D01*
X0496382Y0464763D01*
X0493944Y0460936D01*
X0491848Y0456911D01*
X0490112Y0452718D01*
X0488747Y0448391D01*
X0487765Y0443960D01*
X0487173Y0439461D01*
X0486975Y0434928D01*
X0487173Y0430394D01*
X0487765Y0425895D01*
X0488747Y0421465D01*
X0490112Y0417137D01*
X0491848Y0412945D01*
X0493944Y0408920D01*
X0495101Y0407102D01*
X0495102Y0407102D01*
X0495102D01*
X0496413Y0407859D01*
X0498317Y0404871D01*
X0500954Y0401434D01*
X0503881Y0398240D01*
X0507074Y0395314D01*
X0510511Y0392677D01*
X0514164Y0390350D01*
X0518006Y0388350D01*
X0522008Y0386692D01*
X0526140Y0385389D01*
X0530369Y0384452D01*
X0534663Y0383886D01*
X0538991Y0383697D01*
X0543319Y0383886D01*
X0547613Y0384452D01*
X0551842Y0385389D01*
X0555973Y0386692D01*
X0559975Y0388350D01*
X0563818Y0390350D01*
X0567471Y0392677D01*
X0570908Y0395314D01*
X0574101Y0398240D01*
X0577028Y0401434D01*
X0579665Y0404871D01*
X0581568Y0407859D01*
X0581575Y0407856D01*
X0581308Y0407343D01*
X0578943Y0403631D01*
X0576264Y0400140D01*
X0573292Y0396896D01*
X0570047Y0393923D01*
X0566556Y0391245D01*
X0562845Y0388880D01*
X0558942Y0386848D01*
X0554877Y0385164D01*
X0550680Y0383841D01*
X0546384Y0382889D01*
X0542021Y0382315D01*
X0537625Y0382123D01*
X0533229Y0382315D01*
X0528866Y0382889D01*
X0524571Y0383841D01*
X0520374Y0385164D01*
X0516308Y0386848D01*
X0512405Y0388880D01*
X0508694Y0391245D01*
X0505203Y0393923D01*
X0501959Y0396896D01*
X0498986Y0400140D01*
X0496307Y0403631D01*
X0493943Y0407343D01*
X0493579Y0408042D01*
X0490886Y0406487D01*
X0492654Y0403330D01*
X0495094Y0399678D01*
X0497814Y0396228D01*
X0500796Y0393002D01*
X0504022Y0390020D01*
X0507472Y0387301D01*
X0511124Y0384860D01*
X0514957Y0382714D01*
X0518946Y0380874D01*
X0523068Y0379354D01*
X0527296Y0378162D01*
X0531604Y0377304D01*
X0535967Y0376788D01*
X0540356Y0376616D01*
X0544746Y0376788D01*
X0549108Y0377304D01*
X0553417Y0378162D01*
X0557645Y0379354D01*
X0561766Y0380874D01*
X0565756Y0382714D01*
X0569589Y0384860D01*
X0573241Y0387301D01*
X0576691Y0390020D01*
X0579917Y0393002D01*
X0582899Y0396228D01*
X0585618Y0399678D01*
X0587915Y0403115D01*
X0587344Y0402095D01*
X0584800Y0398288D01*
X0581966Y0394693D01*
X0578858Y0391331D01*
X0575496Y0388223D01*
X0571900Y0385388D01*
X0568093Y0382844D01*
X0564098Y0380607D01*
X0559940Y0378690D01*
X0555645Y0377105D01*
X0551238Y0375863D01*
X0546747Y0374970D01*
X0542201Y0374431D01*
X0537626Y0374252D01*
X0533050Y0374431D01*
X0528504Y0374970D01*
X0524013Y0375863D01*
X0519606Y0377105D01*
X0515311Y0378690D01*
X0511153Y0380607D01*
X0507158Y0382844D01*
X0503351Y0385388D01*
X0499755Y0388223D01*
X0496393Y0391331D01*
X0493286Y0394693D01*
X0490451Y0398288D01*
X0487907Y0402095D01*
X0486776Y0404114D01*
X0486776Y0404114D01*
X0486776D01*
X0484066Y0402550D01*
X0485934Y0399213D01*
X0488719Y0395046D01*
X0491821Y0391110D01*
X0495224Y0387430D01*
X0498904Y0384028D01*
X0502839Y0380925D01*
X0507007Y0378141D01*
X0511379Y0375692D01*
X0515931Y0373594D01*
X0520632Y0371859D01*
X0525456Y0370499D01*
X0530371Y0369521D01*
X0535348Y0368932D01*
X0540356Y0368735D01*
X0545364Y0368932D01*
X0550341Y0369521D01*
X0555256Y0370499D01*
X0560080Y0371859D01*
X0564782Y0373594D01*
X0569333Y0375692D01*
X0573706Y0378141D01*
X0577873Y0380925D01*
X0581809Y0384028D01*
X0585489Y0387430D01*
X0588846Y0391062D01*
X0589149Y0391438D01*
X0588891Y0391110D01*
X0588846Y0391062D01*
X0588414Y0390526D01*
X0585233Y0387109D01*
X0581816Y0383928D01*
X0578181Y0380999D01*
X0574347Y0378336D01*
X0570332Y0375954D01*
X0566157Y0373865D01*
X0561844Y0372078D01*
X0557415Y0370604D01*
X0552892Y0369449D01*
X0548298Y0368620D01*
X0543656Y0368122D01*
X0538991Y0367955D01*
X0534326Y0368122D01*
X0529684Y0368620D01*
X0525090Y0369449D01*
X0520567Y0370604D01*
X0516137Y0372078D01*
X0511824Y0373865D01*
X0507650Y0375954D01*
X0503635Y0378336D01*
X0499800Y0380999D01*
X0496166Y0383928D01*
X0492749Y0387109D01*
X0489568Y0390526D01*
X0486639Y0394161D01*
X0483976Y0397995D01*
X0482790Y0399994D01*
X0482790D01*
X0484136Y0400771D01*
X0482159Y0404301D01*
X0480113Y0408740D01*
X0478421Y0413326D01*
X0477094Y0418030D01*
X0476141Y0422824D01*
X0475566Y0427678D01*
X0475374Y0432563D01*
X0475566Y0437447D01*
X0476141Y0442301D01*
X0477094Y0447095D01*
X0478421Y0451799D01*
X0480113Y0456385D01*
X0482159Y0460824D01*
X0484548Y0465089D01*
X0487263Y0469153D01*
X0490289Y0472992D01*
X0493607Y0476581D01*
X0497197Y0479899D01*
X0501035Y0482925D01*
X0505099Y0485641D01*
X0509364Y0488029D01*
X0513803Y0490075D01*
X0518389Y0491767D01*
X0523093Y0493094D01*
X0527887Y0494047D01*
X0532741Y0494622D01*
X0537626Y0494814D01*
X0538204Y0494791D01*
D02*
G37*
G36*
X0482003Y0401358D02*
X0481986Y0401349D01*
X0481594Y0402010D01*
X0481228Y0402741D01*
X0482003Y0401358D01*
D02*
G37*
G36*
X0481228Y0402741D02*
X0480755Y0403586D01*
X0480170Y0404855D01*
X0481228Y0402741D01*
D02*
G37*
G36*
X0486706Y0401058D02*
X0486563Y0401272D01*
X0486182Y0401952D01*
X0486200Y0401963D01*
X0486706Y0401058D01*
D02*
G37*
G36*
X0548976Y0497969D02*
X0549505Y0497863D01*
X0552892Y0497253D01*
X0557415Y0496098D01*
X0561844Y0494624D01*
X0566157Y0492837D01*
X0570332Y0490748D01*
X0574347Y0488366D01*
X0578181Y0485703D01*
X0581816Y0482774D01*
X0585233Y0479593D01*
X0588414Y0476176D01*
X0591343Y0472541D01*
X0594005Y0468707D01*
X0596388Y0464692D01*
X0598477Y0460517D01*
X0600264Y0456205D01*
X0601738Y0451775D01*
X0602892Y0447252D01*
X0603721Y0442658D01*
X0604220Y0438016D01*
X0604387Y0433351D01*
X0604220Y0428686D01*
X0603721Y0424044D01*
X0602892Y0419450D01*
X0601738Y0414927D01*
X0600264Y0410497D01*
X0598477Y0406184D01*
X0596388Y0402010D01*
X0595995Y0401349D01*
X0594615Y0402145D01*
X0594615Y0402145D01*
X0593434Y0400036D01*
X0590718Y0395972D01*
X0587692Y0392134D01*
X0584374Y0388544D01*
X0580785Y0385226D01*
X0576946Y0382200D01*
X0572882Y0379485D01*
X0568618Y0377097D01*
X0564179Y0375050D01*
X0559593Y0373358D01*
X0554888Y0372031D01*
X0550094Y0371078D01*
X0545240Y0370503D01*
X0540356Y0370311D01*
X0535472Y0370503D01*
X0530618Y0371078D01*
X0525824Y0372031D01*
X0521119Y0373358D01*
X0516534Y0375050D01*
X0512095Y0377097D01*
X0507830Y0379485D01*
X0503766Y0382200D01*
X0499927Y0385226D01*
X0496338Y0388544D01*
X0493020Y0392134D01*
X0489994Y0395972D01*
X0487278Y0400036D01*
X0486706Y0401058D01*
X0489176Y0397362D01*
X0492087Y0393669D01*
X0495279Y0390216D01*
X0498732Y0387024D01*
X0502425Y0384113D01*
X0506335Y0381501D01*
X0510437Y0379203D01*
X0514708Y0377234D01*
X0519119Y0375607D01*
X0523645Y0374330D01*
X0528257Y0373413D01*
X0532927Y0372860D01*
X0537626Y0372676D01*
X0542324Y0372860D01*
X0546994Y0373413D01*
X0551606Y0374330D01*
X0556132Y0375607D01*
X0560543Y0377234D01*
X0564814Y0379203D01*
X0568916Y0381501D01*
X0572826Y0384113D01*
X0576519Y0387024D01*
X0579972Y0390216D01*
X0583164Y0393669D01*
X0586075Y0397362D01*
X0588688Y0401272D01*
X0590506Y0404519D01*
X0587795Y0406083D01*
Y0406083D01*
X0587795Y0406083D01*
X0586715Y0404154D01*
X0584343Y0400604D01*
X0581700Y0397252D01*
X0578802Y0394116D01*
X0575667Y0391219D01*
X0572315Y0388576D01*
X0568765Y0386204D01*
X0565040Y0384118D01*
X0561163Y0382330D01*
X0557158Y0380853D01*
X0553049Y0379694D01*
X0548862Y0378861D01*
X0544622Y0378359D01*
X0540356Y0378192D01*
X0536091Y0378359D01*
X0531851Y0378861D01*
X0527664Y0379694D01*
X0523555Y0380853D01*
X0519550Y0382330D01*
X0515672Y0384118D01*
X0511948Y0386204D01*
X0508398Y0388576D01*
X0505045Y0391219D01*
X0501910Y0394116D01*
X0499012Y0397252D01*
X0496369Y0400604D01*
X0493998Y0404154D01*
X0493200Y0405578D01*
X0493002Y0405889D01*
X0493020Y0405900D01*
X0493200Y0405578D01*
X0495016Y0402727D01*
X0497779Y0399127D01*
X0500844Y0395781D01*
X0504190Y0392716D01*
X0507790Y0389953D01*
X0511617Y0387515D01*
X0515642Y0385420D01*
X0519835Y0383683D01*
X0524162Y0382319D01*
X0528593Y0381337D01*
X0533092Y0380744D01*
X0537625Y0380546D01*
X0542159Y0380744D01*
X0546658Y0381337D01*
X0551088Y0382319D01*
X0555416Y0383683D01*
X0559608Y0385420D01*
X0563633Y0387515D01*
X0567460Y0389953D01*
X0571061Y0392716D01*
X0574406Y0395781D01*
X0577472Y0399127D01*
X0580234Y0402727D01*
X0582673Y0406554D01*
X0583668Y0408466D01*
X0583668Y0408466D01*
X0582339Y0409233D01*
X0582356Y0409224D01*
X0583992Y0412366D01*
X0585650Y0416368D01*
X0586953Y0420500D01*
X0587890Y0424729D01*
X0588455Y0429023D01*
X0588645Y0433351D01*
X0588455Y0437678D01*
X0587890Y0441973D01*
X0586953Y0446202D01*
X0585650Y0450333D01*
X0583992Y0454335D01*
X0581992Y0458178D01*
X0579665Y0461831D01*
X0577028Y0465268D01*
X0574101Y0468461D01*
X0570908Y0471388D01*
X0567471Y0474025D01*
X0563818Y0476352D01*
X0559975Y0478352D01*
X0555973Y0480010D01*
X0551842Y0481313D01*
X0547613Y0482250D01*
X0543319Y0482816D01*
X0539779Y0482970D01*
X0539778Y0482977D01*
X0540356Y0483002D01*
X0544753Y0482810D01*
X0549115Y0482236D01*
X0553411Y0481284D01*
X0557608Y0479960D01*
X0561673Y0478276D01*
X0565576Y0476245D01*
X0569288Y0473880D01*
X0572779Y0471202D01*
X0576023Y0468229D01*
X0578996Y0464985D01*
X0581674Y0461494D01*
X0584039Y0457782D01*
X0586070Y0453879D01*
X0587754Y0449814D01*
X0589078Y0445617D01*
X0590030Y0441321D01*
X0590604Y0436959D01*
X0590796Y0432562D01*
X0590604Y0428166D01*
X0590030Y0423804D01*
X0589078Y0419508D01*
X0587754Y0415311D01*
X0586070Y0411246D01*
X0584039Y0407343D01*
X0583615Y0406678D01*
X0586293Y0405132D01*
X0586310Y0405121D01*
X0586693Y0405695D01*
X0588840Y0409528D01*
X0590679Y0413518D01*
X0592200Y0417639D01*
X0593392Y0421867D01*
X0594249Y0426176D01*
X0594765Y0430538D01*
X0594938Y0434928D01*
X0594765Y0439317D01*
X0594249Y0443680D01*
X0593392Y0447988D01*
X0592200Y0452216D01*
X0590679Y0456338D01*
X0588840Y0460327D01*
X0586693Y0464160D01*
X0584253Y0467812D01*
X0581533Y0471262D01*
X0578551Y0474488D01*
X0575325Y0477470D01*
X0571876Y0480190D01*
X0568223Y0482630D01*
X0564390Y0484777D01*
X0560401Y0486616D01*
X0556279Y0488136D01*
X0552051Y0489329D01*
X0547743Y0490186D01*
X0543380Y0490702D01*
X0539779Y0490844D01*
X0539778Y0490826D01*
X0539778Y0490851D01*
X0540356Y0490874D01*
X0544931Y0490694D01*
X0549478Y0490156D01*
X0553969Y0489263D01*
X0558375Y0488020D01*
X0562671Y0486435D01*
X0566829Y0484518D01*
X0570824Y0482281D01*
X0574631Y0479737D01*
X0578226Y0476903D01*
X0581588Y0473795D01*
X0584696Y0470433D01*
X0587531Y0466837D01*
X0590075Y0463030D01*
X0592312Y0459035D01*
X0594229Y0454877D01*
X0595813Y0450582D01*
X0597056Y0446175D01*
X0597949Y0441684D01*
X0598488Y0437138D01*
X0598667Y0432563D01*
X0598488Y0427988D01*
X0597949Y0423441D01*
X0597056Y0418950D01*
X0595813Y0414543D01*
X0594229Y0410248D01*
X0592312Y0406090D01*
X0590436Y0402740D01*
X0593117Y0401192D01*
X0593144Y0401175D01*
X0593413Y0401578D01*
X0595861Y0405950D01*
X0597960Y0410502D01*
X0599694Y0415204D01*
X0601055Y0420027D01*
X0602032Y0424943D01*
X0602621Y0429919D01*
X0602818Y0434927D01*
X0602621Y0439935D01*
X0602032Y0444912D01*
X0601055Y0449827D01*
X0599694Y0454651D01*
X0597960Y0459353D01*
X0595861Y0463904D01*
X0593413Y0468277D01*
X0590628Y0472444D01*
X0587526Y0476380D01*
X0584124Y0480060D01*
X0580443Y0483462D01*
X0576508Y0486565D01*
X0572340Y0489349D01*
X0567968Y0491798D01*
X0563416Y0493896D01*
X0558715Y0495631D01*
X0553891Y0496991D01*
X0549505Y0497863D01*
X0548818Y0497988D01*
X0548976Y0497969D01*
D02*
G37*
%LPC*%
G36*
X0538991Y0477487D02*
X0535144Y0477319D01*
X0531327Y0476817D01*
X0527567Y0475983D01*
X0523895Y0474826D01*
X0520338Y0473352D01*
X0516923Y0471574D01*
X0513675Y0469505D01*
X0510620Y0467162D01*
X0507782Y0464560D01*
X0505180Y0461721D01*
X0502836Y0458667D01*
X0500768Y0455419D01*
X0498990Y0452004D01*
X0497516Y0448447D01*
X0496358Y0444774D01*
X0495525Y0441015D01*
X0495022Y0437198D01*
X0494854Y0433351D01*
X0495022Y0429504D01*
X0495525Y0425687D01*
X0496358Y0421927D01*
X0497516Y0418255D01*
X0498990Y0414698D01*
X0500768Y0411283D01*
X0502836Y0408035D01*
X0505180Y0404981D01*
X0507782Y0402142D01*
X0510620Y0399540D01*
X0513675Y0397196D01*
X0516923Y0395128D01*
X0520338Y0393350D01*
X0523895Y0391876D01*
X0527567Y0390718D01*
X0531327Y0389885D01*
X0535144Y0389382D01*
X0538991Y0389214D01*
X0542838Y0389382D01*
X0546655Y0389885D01*
X0550414Y0390718D01*
X0554086Y0391876D01*
X0557644Y0393350D01*
X0561059Y0395128D01*
X0564307Y0397196D01*
X0567361Y0399540D01*
X0570200Y0402142D01*
X0572801Y0404981D01*
X0575145Y0408035D01*
X0577214Y0411283D01*
X0578992Y0414698D01*
X0580466Y0418255D01*
X0581624Y0421927D01*
X0582457Y0425687D01*
X0582960Y0429504D01*
X0583127Y0433351D01*
X0582960Y0437198D01*
X0582457Y0441015D01*
X0581624Y0444774D01*
X0580466Y0448447D01*
X0578992Y0452004D01*
X0577214Y0455419D01*
X0575145Y0458667D01*
X0572801Y0461721D01*
X0570200Y0464560D01*
X0567361Y0467162D01*
X0564307Y0469505D01*
X0561059Y0471574D01*
X0557644Y0473352D01*
X0554086Y0474826D01*
X0550414Y0475983D01*
X0546655Y0476817D01*
X0542838Y0477319D01*
X0538991Y0477487D01*
D02*
G37*
G36*
X0539778Y0493208D02*
Y0493189D01*
X0539779Y0493208D01*
X0539778Y0493208D01*
D02*
G37*
G36*
Y0485314D02*
X0539778Y0485314D01*
X0539778D01*
Y0485314D01*
D02*
G37*
G36*
X0493596Y0408051D02*
X0493579Y0408042D01*
X0493579Y0408042D01*
X0493596Y0408051D01*
D02*
G37*
G36*
X0539778Y0493189D02*
X0539778Y0493188D01*
X0539778D01*
Y0493189D01*
D02*
G37*
G36*
Y0485333D02*
Y0485314D01*
X0539779Y0485333D01*
X0539778Y0485333D01*
D02*
G37*
%LPD*%
G54D10*
X0493020Y0405900D02*
G03*
X0587795Y0406083I0047337J0026662D01*
G01*
X0486200Y0401963D02*
G03*
X0590492Y0404526I0051425J0030600D01*
G01*
X0486200Y0401963D02*
G03*
X0594615Y0402145I0054156J0030600D01*
G01*
X0538991Y0362485D02*
G03*
X0589550Y0483007I0000000J0070866D01*
G01*
X0538991Y0364847D02*
G03*
X0538991Y0501855I0000000J0068504D01*
G01*
X0583598Y0406688D02*
G03*
X0539779Y0482951I-0043242J0025875D01*
G01*
X0582339Y0409233D02*
G03*
X0539779Y0482951I-0043349J0024118D01*
G01*
X0585749Y0407264D02*
G03*
X0538203Y0489251I-0046759J0027663D01*
G01*
X0585749Y0407264D02*
G03*
X0538203Y0484484I-0045393J0025298D01*
G01*
X0592569Y0403327D02*
G03*
X0538203Y0497126I-0053578J0031601D01*
G01*
X0592569Y0403327D02*
G03*
X0538203Y0492365I-0052213J0029236D01*
G01*
X0583085Y0433351D02*
G03*
X0583085Y0433351I-0044094J0000000D01*
G01*
X0585448D02*
G03*
X0585448Y0433351I-0046457J0000000D01*
G01*
X0493020Y0405900D02*
G03*
X0583668Y0408466I0044605J0026662D01*
G01*
X0538991Y0504217D02*
G03*
X0538991Y0362485I0000000J-0070866D01*
G01*
Y0501855D02*
G03*
X0538991Y0364847I0000000J-0068504D01*
G01*
X0589550Y0483007D02*
G03*
X0538991Y0504217I-0050559J-0049657D01*
G01*
X0586293Y0405132D02*
G03*
X0539778Y0490826I-0047302J0029796D01*
G01*
X0590418Y0402750D02*
G03*
X0539778Y0490826I-0050062J0029812D01*
G01*
X0593117Y0401192D02*
G03*
X0539787Y0498700I-0054126J0033735D01*
G01*
X0595979Y0401358D02*
G03*
X0539787Y0498700I-0056988J0031993D01*
G01*
X0539778Y0496304D02*
G03*
X0482003Y0401358I-0002153J-0063742D01*
G01*
X0538203Y0498701D02*
G03*
X0482003Y0401358I0000787J-0065350D01*
G01*
X0539778Y0485314D02*
G03*
X0495642Y0409233I-0000787J-0050386D01*
G01*
X0539778Y0493188D02*
G03*
X0488822Y0405295I-0000787J-0058261D01*
G01*
X0539778Y0488425D02*
G03*
X0488822Y0405295I-0002153J-0055862D01*
G01*
X0538203Y0482951D02*
G03*
X0495642Y0409233I0000787J-0049600D01*
G01*
X0484078Y0402556D02*
G03*
X0595187Y0399986I0056278J0030007D01*
G01*
X0482790Y0399994D02*
G03*
X0595187Y0399986I0056201J0033357D01*
G01*
X0490902Y0406496D02*
G03*
X0588372Y0403932I0049455J0026067D01*
G01*
X0486776Y0404114D02*
G03*
X0588372Y0403932I0050849J0028449D01*
G01*
X0496430Y0407869D02*
G03*
X0581552Y0407869I0042561J0025482D01*
G01*
X0493596Y0408051D02*
G03*
X0581552Y0407869I0044029J0024511D01*
G01*
X0538203Y0486889D02*
G03*
X0495102Y0407102I0000788J-0051961D01*
G01*
X0538203Y0486889D02*
G03*
X0490974Y0404719I-0000578J-0054326D01*
G01*
X0538203Y0494763D02*
G03*
X0484154Y0400782I-0000578J-0062200D01*
G01*
X0538203Y0494763D02*
G03*
X0488277Y0403162I0000788J-0059836D01*
G01*
X0539778Y0493188D02*
Y0496304D01*
X0495102Y0407102D02*
X0496430Y0407869D01*
X0490902Y0406496D02*
X0493596Y0408051D01*
X0488277Y0403162D02*
X0490974Y0404719D01*
X0484078Y0402556D02*
X0486776Y0404114D01*
X0482790Y0399994D02*
X0484154Y0400782D01*
X0539778Y0485314D02*
Y0488425D01*
X0538203Y0482951D02*
Y0484484D01*
X0582339Y0409233D02*
X0583668Y0408466D01*
X0583598Y0406688D02*
X0586293Y0405132D01*
X0594615Y0402145D02*
X0595979Y0401358D01*
X0590418Y0402750D02*
X0593117Y0401192D01*
X0587795Y0406083D02*
X0590492Y0404526D01*
X0538991Y0362485D02*
Y0364847D01*
Y0501855D02*
Y0504217D01*
X0538203Y0489251D02*
Y0492365D01*
Y0497126D02*
Y0498701D01*
G54D11*
X0558676Y0433351D02*
G03*
X0558676Y0433351I-0019685J0000000D01*
G01*
G54D12*
X0551590Y0433345D02*
G03*
X0551590Y0433345I-0012598J0000000D01*
G01*
G54D13*
X0571683D02*
G03*
X0571683Y0433345I-0032677J0000000D01*
G01*
G54D14*
X0608700Y0576400D02*
G03*
X0604200Y0580900I-0004500J0000000D01*
G01*
Y0545400D02*
G03*
X0608700Y0549900I0000000J0004500D01*
G01*
X0194200Y0581150D02*
G03*
X0188700Y0575650I0000000J-0005500D01*
G01*
Y0551150D02*
G03*
X0194200Y0545650I0005500J0000000D01*
G01*
X0714200Y0285650D02*
G03*
X0719200Y0290650I0000000J0005000D01*
G01*
Y0316150D02*
G03*
X0714200Y0321150I-0005000J0000000D01*
G01*
X0359200Y0290650D02*
G03*
X0364200Y0285650I0005000J0000000D01*
G01*
Y0321150D02*
G03*
X0359200Y0316150I0000000J-0005000D01*
G01*
X0341200Y0638118D02*
G03*
X0344048Y0642534I-0002000J0004416D01*
G01*
D02*
G03*
X0337200Y0638118I-0004848J0000000D01*
G01*
X0354048Y0642534D02*
G03*
X0354048Y0642534I-0004848J0000000D01*
G01*
X0364048D02*
G03*
X0364048Y0642534I-0004848J0000000D01*
G01*
X0374048D02*
G03*
X0374048Y0642534I-0004848J0000000D01*
G01*
X0384048D02*
G03*
X0377200Y0638118I-0004848J0000000D01*
G01*
X0394048Y0642534D02*
G03*
X0394048Y0642534I-0004848J0000000D01*
G01*
X0414048D02*
G03*
X0414048Y0642534I-0004848J0000000D01*
G01*
X0404048D02*
G03*
X0404048Y0642534I-0004848J0000000D01*
G01*
X0424048D02*
G03*
X0417200Y0638118I-0004848J0000000D01*
G01*
X0434048Y0642534D02*
G03*
X0434048Y0642534I-0004848J0000000D01*
G01*
X0421200Y0638118D02*
G03*
X0424048Y0642534I-0002000J0004416D01*
G01*
X0381200Y0638118D02*
G03*
X0384048Y0642534I-0002000J0004416D01*
G01*
X0344048Y0652534D02*
G03*
X0344048Y0652534I-0004848J0000000D01*
G01*
X0354048D02*
G03*
X0354048Y0652534I-0004848J0000000D01*
G01*
X0364048D02*
G03*
X0364048Y0652534I-0004848J0000000D01*
G01*
X0374048D02*
G03*
X0374048Y0652534I-0004848J0000000D01*
G01*
Y0662534D02*
G03*
X0373747Y0664215I-0004848J0000000D01*
G01*
X0089687Y0668400D02*
G03*
X0089687Y0668400I-0005487J0000000D01*
G01*
X0310305Y0678400D02*
G03*
X0329855Y0672534I0008895J-0005866D01*
G01*
D02*
G03*
X0328095Y0678400I-0010655J0000000D01*
G01*
X0354048Y0662534D02*
G03*
X0354048Y0662534I-0004848J0000000D01*
G01*
X0364048D02*
G03*
X0364048Y0662534I-0004848J0000000D01*
G01*
X0370936Y0667060D02*
G03*
X0374048Y0662534I-0001736J-0004526D01*
G01*
X0380200Y0675400D02*
G03*
X0378792Y0674820I0000000J-0002000D01*
G01*
X0380200Y0675400D02*
G03*
X0378795Y0674823I0000000J-0002000D01*
G01*
X0384048Y0652534D02*
G03*
X0384048Y0652534I-0004848J0000000D01*
G01*
X0394048D02*
G03*
X0394048Y0652534I-0004848J0000000D01*
G01*
X0404048D02*
G03*
X0404048Y0652534I-0004848J0000000D01*
G01*
X0414048D02*
G03*
X0414048Y0652534I-0004848J0000000D01*
G01*
X0424048D02*
G03*
X0424048Y0652534I-0004848J0000000D01*
G01*
X0434048D02*
G03*
X0434048Y0652534I-0004848J0000000D01*
G01*
X0384048Y0662534D02*
G03*
X0384048Y0662534I-0004848J0000000D01*
G01*
X0394048D02*
G03*
X0394048Y0662534I-0004848J0000000D01*
G01*
X0404048D02*
G03*
X0404048Y0662534I-0004848J0000000D01*
G01*
X0414048D02*
G03*
X0414048Y0662534I-0004848J0000000D01*
G01*
X0424048D02*
G03*
X0424048Y0662534I-0004848J0000000D01*
G01*
X0434048D02*
G03*
X0434048Y0662534I-0004848J0000000D01*
G01*
X0461200Y0638118D02*
G03*
X0464048Y0642534I-0002000J0004416D01*
G01*
X0491800Y0638442D02*
G03*
X0494048Y0642534I-0002600J0004092D01*
G01*
X0444048D02*
G03*
X0444048Y0642534I-0004848J0000000D01*
G01*
X0454048D02*
G03*
X0454048Y0642534I-0004848J0000000D01*
G01*
X0465343Y0645471D02*
G03*
X0474048Y0642534I0003857J-0002937D01*
G01*
X0464048D02*
G03*
X0457200Y0638118I-0004848J0000000D01*
G01*
X0464452Y0645989D02*
G03*
X0465343Y0645471I0001417J0001411D01*
G01*
X0464455Y0645986D02*
G03*
X0465343Y0645471I0001414J0001414D01*
G01*
X0475290Y0645400D02*
G03*
X0484048Y0642534I0003910J-0002866D01*
G01*
X0474048D02*
G03*
X0473110Y0645400I-0004848J0000000D01*
G01*
X0484048Y0642534D02*
G03*
X0483110Y0645400I-0004848J0000000D01*
G01*
X0485290D02*
G03*
X0486600Y0638442I0003910J-0002866D01*
G01*
X0494048Y0642534D02*
G03*
X0493110Y0645400I-0004848J0000000D01*
G01*
X0546842Y0644930D02*
G03*
X0553600Y0644400I0003358J-0000530D01*
G01*
D02*
G03*
X0549670Y0647758I-0003400J0000000D01*
G01*
X0555116Y0647150D02*
G03*
X0560516Y0644400I0002000J-0002750D01*
G01*
D02*
G03*
X0559116Y0647150I-0003400J0000000D01*
G01*
X0444048Y0652534D02*
G03*
X0444048Y0652534I-0004848J0000000D01*
G01*
X0454048D02*
G03*
X0454048Y0652534I-0004848J0000000D01*
G01*
X0444048Y0662534D02*
G03*
X0444048Y0662534I-0004848J0000000D01*
G01*
X0450909Y0667071D02*
G03*
X0454048Y0662534I-0001709J-0004537D01*
G01*
X0454566Y0669900D02*
G03*
X0453149Y0669311I0000000J-0002000D01*
G01*
X0455711Y0665900D02*
G03*
X0461504Y0658268I0003489J-0003366D01*
G01*
X0462226Y0648746D02*
G03*
X0462789Y0647652I0001974J0000323D01*
G01*
X0462226Y0648746D02*
G03*
X0462786Y0647655I0001974J0000323D01*
G01*
X0462200Y0656342D02*
G03*
X0462226Y0648746I-0003000J-0003808D01*
G01*
X0482899Y0659400D02*
G03*
X0484048Y0662534I-0003699J0003134D01*
G01*
X0454048D02*
G03*
X0453737Y0664242I-0004848J0000000D01*
G01*
X0484048Y0662534D02*
G03*
X0476200Y0666342I-0004848J0000000D01*
G01*
Y0666400D02*
G03*
X0475614Y0667814I-0002000J0000000D01*
G01*
X0476200Y0666400D02*
G03*
X0475611Y0667817I-0002000J0000000D01*
G01*
X0454566Y0669900D02*
G03*
X0453152Y0669314I0000000J-0002000D01*
G01*
X0474114D02*
G03*
X0472700Y0669900I-0001414J-0001414D01*
G01*
X0474117Y0669311D02*
G03*
X0472700Y0669900I-0001417J-0001411D01*
G01*
X0489614Y0674814D02*
G03*
X0488200Y0675400I-0001414J-0001414D01*
G01*
X0504286Y0654486D02*
G03*
X0505700Y0653900I0001414J0001414D01*
G01*
X0504283Y0654489D02*
G03*
X0505700Y0653900I0001417J0001411D01*
G01*
X0496614Y0658814D02*
G03*
X0495200Y0659400I-0001414J-0001414D01*
G01*
X0496617Y0658811D02*
G03*
X0495200Y0659400I-0001417J-0001411D01*
G01*
X0549310Y0648119D02*
G03*
X0553600Y0651400I0000890J0003281D01*
G01*
D02*
G03*
X0553481Y0652290I-0003400J0000000D01*
G01*
X0559116Y0651484D02*
G03*
X0558530Y0652898I-0002000J0000000D01*
G01*
X0559116Y0651484D02*
G03*
X0558527Y0652901I-0002000J0000000D01*
G01*
X0547896Y0653900D02*
G03*
X0547450Y0653400I0002304J-0002500D01*
G01*
X0554117Y0657311D02*
G03*
X0552700Y0657900I-0001417J-0001411D01*
G01*
X0554114Y0657314D02*
G03*
X0552700Y0657900I-0001414J-0001414D01*
G01*
X0500305Y0678400D02*
G03*
X0519855Y0672534I0008895J-0005866D01*
G01*
X0489617Y0674811D02*
G03*
X0488200Y0675400I-0001417J-0001411D01*
G01*
X0519855Y0672534D02*
G03*
X0518095Y0678400I-0010655J0000000D01*
G01*
X0749687Y0668400D02*
G03*
X0749687Y0668400I-0005487J0000000D01*
G01*
X0419200Y0642534D02*
Y0644400D01*
X0379200Y0642534D02*
Y0644400D01*
X0459200Y0662534D02*
X0460066D01*
X0449200Y0661400D02*
Y0662534D01*
X0608700Y0549900D02*
Y0576400D01*
X0188700Y0551150D02*
Y0575650D01*
X0339200Y0612400D02*
Y0642534D01*
X0379200Y0612400D02*
Y0642534D01*
X0419200Y0612400D02*
Y0642534D01*
X0459200Y0612400D02*
Y0642534D01*
X0369200Y0662534D02*
X0380200Y0673400D01*
X0488200D01*
X0505700Y0655900D01*
X0552700D01*
X0557116Y0651484D01*
Y0644400D02*
Y0651484D01*
X0719200Y0290650D02*
Y0316150D01*
X0359200Y0290650D02*
Y0316150D01*
X0464200Y0649069D02*
Y0658400D01*
Y0649069D02*
X0465869Y0647400D01*
X0547200D01*
X0550200Y0644400D01*
X0460066Y0662534D02*
X0464200Y0658400D01*
X0449200Y0662534D02*
X0454566Y0667900D01*
X0472700D01*
X0474200Y0666400D01*
Y0658900D02*
Y0666400D01*
Y0658900D02*
X0475700Y0657400D01*
X0495200D01*
X0501200Y0651400D01*
X0550200D01*
X0074200Y0631775D02*
X0082575Y0623400D01*
X0074200Y0624987D02*
X0075787Y0623400D01*
X0074200D02*
Y0678400D01*
Y0638564D02*
X0089364Y0623400D01*
X0074200Y0652140D02*
X0102940Y0623400D01*
X0074200Y0645352D02*
X0096152Y0623400D01*
X0074200Y0658928D02*
X0109728Y0623400D01*
X0093919D02*
X0148918Y0678400D01*
X0074200Y0665717D02*
X0116517Y0623400D01*
X0074200Y0637623D02*
X0114977Y0678400D01*
X0083775Y0662929D02*
X0123305Y0623400D01*
X0074200Y0630834D02*
X0121765Y0678400D01*
X0074200Y0624046D02*
X0128554Y0678400D01*
X0074200Y0644411D02*
X0108189Y0678400D01*
X0088501Y0664992D02*
X0130093Y0623400D01*
X0088591Y0671690D02*
X0136881Y0623400D01*
X0074200Y0624046D02*
X0128554Y0678400D01*
X0100707Y0623400D02*
X0155707Y0678400D01*
X0095458D02*
X0150458Y0623400D01*
X0114283D02*
X0169283Y0678400D01*
X0115822D02*
X0170822Y0623400D01*
X0102246Y0678400D02*
X0157246Y0623400D01*
X0109034Y0678400D02*
X0164034Y0623400D01*
X0107495D02*
X0162495Y0678400D01*
X0129399D02*
X0184399Y0623400D01*
X0134648D02*
X0189648Y0678400D01*
X0121071Y0623400D02*
X0176071Y0678400D01*
X0127860Y0623400D02*
X0182860Y0678400D01*
X0122611D02*
X0177611Y0623400D01*
X0256836D02*
X0308979Y0675542D01*
X0263624Y0623400D02*
X0309168Y0668944D01*
X0136187Y0678400D02*
X0191187Y0623400D01*
X0142975Y0678400D02*
X0197975Y0623400D01*
X0141436D02*
X0196436Y0678400D01*
X0277201Y0623400D02*
X0316131Y0662330D01*
X0304354Y0623400D02*
X0334448Y0653495D01*
X0270412Y0623400D02*
X0311841Y0664828D01*
X0283989Y0623400D02*
X0323280Y0662691D01*
X0314565Y0662940D02*
X0334387Y0643117D01*
X0176917Y0678400D02*
X0231916Y0623400D01*
X0182166D02*
X0237165Y0678400D01*
X0170128D02*
X0225128Y0623400D01*
X0175377D02*
X0230377Y0678400D01*
X0195742Y0623400D02*
X0250742Y0678400D01*
X0197281D02*
X0252281Y0623400D01*
X0183705Y0678400D02*
X0238705Y0623400D01*
X0190493Y0678400D02*
X0245493Y0623400D01*
X0188954D02*
X0243954Y0678400D01*
X0148224Y0623400D02*
X0203224Y0678400D01*
X0149764D02*
X0204764Y0623400D01*
X0080342D02*
X0135342Y0678400D01*
X0088670D02*
X0143669Y0623400D01*
X0087130D02*
X0142130Y0678400D01*
X0163340D02*
X0218340Y0623400D01*
X0168589D02*
X0223589Y0678400D01*
X0155013Y0623400D02*
X0210013Y0678400D01*
X0161801Y0623400D02*
X0216801Y0678400D01*
X0156552D02*
X0211552Y0623400D01*
X0244799Y0678400D02*
X0299799Y0623400D01*
X0250048D02*
X0305048Y0678400D01*
X0236471Y0623400D02*
X0291471Y0678400D01*
X0243260Y0623400D02*
X0298259Y0678400D01*
X0238011D02*
X0293011Y0623400D01*
X0271952Y0678400D02*
X0326952Y0623400D01*
X0278740Y0678400D02*
X0333740Y0623400D01*
X0251587Y0678400D02*
X0306587Y0623400D01*
X0265163Y0678400D02*
X0320163Y0623400D01*
X0258375Y0678400D02*
X0313375Y0623400D01*
X0210858Y0678400D02*
X0265858Y0623400D01*
X0216107D02*
X0271107Y0678400D01*
X0202530Y0623400D02*
X0257530Y0678400D01*
X0209318Y0623400D02*
X0264318Y0678400D01*
X0204069D02*
X0259069Y0623400D01*
X0229683D02*
X0284683Y0678400D01*
X0231222D02*
X0286222Y0623400D01*
X0217646Y0678400D02*
X0272646Y0623400D01*
X0224434Y0678400D02*
X0279434Y0623400D01*
X0222895D02*
X0277895Y0678400D01*
X0074200Y0623400D02*
X0337200D01*
X0331506D02*
X0337200Y0629094D01*
X0324718Y0623400D02*
X0337200Y0635882D01*
Y0623400D02*
Y0638118D01*
X0341200Y0629516D02*
X0347316Y0623400D01*
X0341200D02*
X0377200D01*
X0341200Y0636305D02*
X0354105Y0623400D01*
X0345083D02*
X0359372Y0637689D01*
X0341200Y0623400D02*
Y0638118D01*
X0360099Y0637770D02*
X0374469Y0623400D01*
X0365448D02*
X0377200Y0635152D01*
X0341200Y0633094D02*
X0346569Y0638462D01*
X0352286Y0638795D02*
X0367681Y0623400D01*
X0351871D02*
X0366795Y0638324D01*
X0372236Y0623400D02*
X0377200Y0628364D01*
X0381200Y0623400D02*
X0417200D01*
X0372481Y0638965D02*
X0377200Y0634246D01*
Y0623400D02*
Y0638118D01*
X0381200Y0632364D02*
X0387033Y0638197D01*
X0381200Y0637034D02*
X0394834Y0623400D01*
X0381200Y0630246D02*
X0388046Y0623400D01*
X0381200D02*
Y0638118D01*
X0386544Y0638478D02*
X0401622Y0623400D01*
X0385812D02*
X0400203Y0637791D01*
X0406177Y0623400D02*
X0417200Y0634423D01*
X0412965Y0623400D02*
X0417200Y0627635D01*
X0392601Y0623400D02*
X0407282Y0638081D01*
X0400681Y0637918D02*
X0415199Y0623400D01*
X0392666Y0639144D02*
X0408411Y0623400D01*
X0421200Y0631635D02*
X0427543Y0637978D01*
X0421200Y0624187D02*
X0421987Y0623400D01*
X0407323Y0638064D02*
X0417200Y0628187D01*
X0421200Y0623400D02*
Y0638118D01*
X0417200Y0623400D02*
Y0638118D01*
X0421200Y0630975D02*
X0428775Y0623400D01*
X0421200D02*
X0457200D01*
X0421200Y0637763D02*
X0435563Y0623400D01*
X0427884Y0637868D02*
X0442352Y0623400D01*
X0426542D02*
X0441312Y0638170D01*
X0311142Y0623400D02*
X0336352Y0648610D01*
X0317930Y0623400D02*
X0334875Y0640344D01*
X0285528Y0678400D02*
X0337200Y0626728D01*
X0290777Y0623400D02*
X0345777Y0678400D01*
X0292316D02*
X0337200Y0633516D01*
X0341200Y0626305D02*
X0355003Y0640108D01*
X0358659Y0623400D02*
X0375142Y0639882D01*
X0297565Y0623400D02*
X0352565Y0678400D01*
X0343660Y0640633D02*
X0360893Y0623400D01*
X0363763Y0640895D02*
X0377200Y0627458D01*
X0344044Y0642726D02*
X0344381Y0643063D01*
X0353798Y0644072D02*
X0354436Y0643433D01*
X0364045Y0642362D02*
X0364354Y0642671D01*
X0373540Y0644694D02*
X0374502Y0643732D01*
X0381200Y0625576D02*
X0395291Y0639667D01*
X0399389Y0623400D02*
X0415450Y0639461D01*
X0412842Y0639333D02*
X0417200Y0634975D01*
X0421200Y0624847D02*
X0435619Y0639266D01*
X0383852Y0641170D02*
X0385144Y0639878D01*
X0403943Y0641531D02*
X0404385Y0641972D01*
X0384015Y0641967D02*
X0384357Y0642310D01*
X0390681Y0647918D02*
X0394584Y0644015D01*
X0403928Y0641459D02*
X0404730Y0640657D01*
X0423810Y0641033D02*
X0424432Y0641655D01*
X0410951Y0648013D02*
X0414679Y0644284D01*
X0423987Y0641765D02*
X0424534Y0641218D01*
X0413653Y0644452D02*
X0417282Y0648081D01*
X0341389Y0646859D02*
X0344875Y0650345D01*
X0342286Y0648795D02*
X0345461Y0645620D01*
X0322031Y0662262D02*
X0337299Y0646994D01*
X0348671Y0647353D02*
X0349008Y0647690D01*
X0350099Y0647770D02*
X0350738Y0647131D01*
X0353272Y0645165D02*
X0356569Y0648462D01*
X0353763Y0650895D02*
X0357561Y0647096D01*
X0343124Y0655382D02*
X0346352Y0658610D01*
X0343798Y0654072D02*
X0344436Y0653433D01*
X0074200Y0651199D02*
X0086355Y0663354D01*
X0338239Y0657286D02*
X0344448Y0663494D01*
X0074200Y0657987D02*
X0080532Y0664319D01*
X0354044Y0652726D02*
X0354381Y0653063D01*
X0351389Y0656859D02*
X0354874Y0660345D01*
X0352481Y0658965D02*
X0355631Y0655815D01*
X0358671Y0657353D02*
X0359008Y0657690D01*
X0369063Y0647380D02*
X0369372Y0647689D01*
X0370398Y0647836D02*
X0371360Y0646874D01*
X0361626Y0646731D02*
X0365003Y0650108D01*
X0362481Y0648965D02*
X0365631Y0645815D01*
X0363540Y0654694D02*
X0364502Y0653732D01*
X0373410Y0644939D02*
X0376795Y0648324D01*
X0376544Y0648478D02*
X0377836Y0647186D01*
X0373852Y0651170D02*
X0375144Y0649878D01*
X0374045Y0652362D02*
X0374354Y0652671D01*
X0360398Y0657836D02*
X0361360Y0656874D01*
X0363272Y0655165D02*
X0366569Y0658462D01*
X0363852Y0661170D02*
X0365144Y0659878D01*
X0366544Y0658478D02*
X0367836Y0657186D01*
X0364044Y0662726D02*
X0364381Y0663063D01*
X0372666Y0659144D02*
X0375810Y0656000D01*
X0379063Y0657380D02*
X0379372Y0657689D01*
X0371626Y0656731D02*
X0375003Y0660108D01*
X0374068Y0664531D02*
X0374584Y0664015D01*
X0074200Y0672505D02*
X0078729Y0667975D01*
X0074200Y0664776D02*
X0078800Y0669376D01*
X0089246Y0666245D02*
X0101401Y0678400D01*
X0326401Y0664680D02*
X0335461Y0655620D01*
X0329149Y0668720D02*
X0340738Y0657131D01*
X0299105Y0678400D02*
X0309606Y0667899D01*
X0329536Y0675121D02*
X0347561Y0657096D01*
X0083224Y0673800D02*
X0087824Y0678400D01*
X0088281Y0672068D02*
X0094613Y0678400D01*
X0074200Y0671564D02*
X0081036Y0678400D01*
X0075093D02*
X0080792Y0672701D01*
X0081881Y0678400D02*
X0087490Y0672791D01*
X0329043Y0668454D02*
X0338989Y0678400D01*
X0329404Y0675603D02*
X0332201Y0678400D01*
X0074200D02*
X0310305D01*
X0305893D02*
X0308928Y0675365D01*
X0353540Y0664694D02*
X0354502Y0663732D01*
X0333046Y0678400D02*
X0345631Y0665815D01*
X0339834Y0678400D02*
X0351360Y0666874D01*
X0373747Y0664215D02*
X0381021Y0671400D01*
X0353123Y0665382D02*
X0366142Y0678400D01*
X0353411D02*
X0365810Y0666000D01*
X0361389Y0666859D02*
X0372930Y0678400D01*
X0366987D02*
X0374654Y0670733D01*
X0373775Y0678400D02*
X0378069Y0674106D01*
X0346622Y0678400D02*
X0357836Y0667186D01*
X0348239Y0667286D02*
X0359354Y0678400D01*
X0360199D02*
X0371239Y0667359D01*
X0370936Y0667060D02*
X0378792Y0674820D01*
X0377483Y0667904D02*
X0378126Y0667261D01*
X0368671Y0667353D02*
X0379718Y0678400D01*
X0382666Y0649144D02*
X0385810Y0646000D01*
X0389424Y0647377D02*
X0389767Y0647719D01*
X0381852Y0646592D02*
X0385141Y0649882D01*
X0393537Y0644701D02*
X0397033Y0648197D01*
X0397323Y0648064D02*
X0398126Y0647261D01*
X0402067Y0646443D02*
X0405291Y0649667D01*
X0380681Y0657918D02*
X0384584Y0654015D01*
X0394015Y0651967D02*
X0394357Y0652310D01*
X0383410Y0654939D02*
X0386795Y0658324D01*
X0387323Y0658064D02*
X0388126Y0657261D01*
X0383927Y0661459D02*
X0384730Y0660657D01*
X0393928Y0651459D02*
X0394730Y0650657D01*
X0399424Y0657377D02*
X0399767Y0657719D01*
X0391852Y0656592D02*
X0395142Y0659882D01*
X0400950Y0658013D02*
X0404679Y0654284D01*
X0392842Y0659334D02*
X0396000Y0656176D01*
X0402842Y0649333D02*
X0406000Y0646175D01*
X0409762Y0647349D02*
X0410203Y0647791D01*
X0413987Y0651765D02*
X0414534Y0651218D01*
X0413943Y0651531D02*
X0414385Y0651972D01*
X0417884Y0647868D02*
X0418431Y0647321D01*
X0422273Y0646284D02*
X0425450Y0649461D01*
X0423007Y0649533D02*
X0426199Y0646341D01*
X0403537Y0654701D02*
X0407033Y0658197D01*
X0407884Y0657868D02*
X0408431Y0657320D01*
X0403987Y0661765D02*
X0404534Y0661217D01*
X0413007Y0659532D02*
X0416199Y0656341D01*
X0412067Y0656443D02*
X0415291Y0659667D01*
X0419762Y0657349D02*
X0420203Y0657791D01*
X0423653Y0654452D02*
X0427282Y0658081D01*
X0421207Y0658121D02*
X0424787Y0654541D01*
X0423943Y0661531D02*
X0424385Y0661972D01*
X0424027Y0662089D02*
X0424426Y0661690D01*
X0384045Y0662362D02*
X0384354Y0662671D01*
X0380897Y0671278D02*
X0386000Y0666176D01*
X0381626Y0666731D02*
X0386295Y0671400D01*
X0389063Y0667380D02*
X0393083Y0671400D01*
X0387563D02*
X0394679Y0664284D01*
X0393410Y0664938D02*
X0399871Y0671400D01*
X0394352D02*
X0398431Y0667320D01*
X0390295Y0675400D02*
X0393295Y0678400D01*
X0394140D02*
X0397140Y0675400D01*
X0380563Y0678400D02*
X0383563Y0675400D01*
X0387352Y0678400D02*
X0390352Y0675400D01*
X0383506D02*
X0386507Y0678400D01*
X0380200Y0675400D02*
X0488200D01*
X0381021Y0671400D02*
X0487372D01*
X0328095Y0678400D02*
X0500305D01*
X0400928D02*
X0403928Y0675400D01*
X0397083D02*
X0400083Y0678400D01*
X0404015Y0661967D02*
X0404357Y0662310D01*
X0401140Y0671400D02*
X0406199Y0666341D01*
X0407928Y0671400D02*
X0414787Y0664541D01*
X0401852Y0666592D02*
X0406659Y0671400D01*
X0413537Y0664701D02*
X0420236Y0671400D01*
X0422067Y0666443D02*
X0427024Y0671400D01*
X0421504D02*
X0426408Y0666497D01*
X0407716Y0678400D02*
X0410716Y0675400D01*
X0409424Y0667377D02*
X0413448Y0671400D01*
X0403871Y0675400D02*
X0406871Y0678400D01*
X0414504D02*
X0417505Y0675400D01*
X0410659D02*
X0413659Y0678400D01*
X0414716Y0671400D02*
X0418755Y0667361D01*
X0417448Y0675400D02*
X0420448Y0678400D01*
X0421293D02*
X0424293Y0675400D01*
X0428081Y0678400D02*
X0431081Y0675400D01*
X0424236D02*
X0427236Y0678400D01*
X0433330Y0623400D02*
X0447817Y0637887D01*
X0441207Y0638121D02*
X0455928Y0623400D01*
X0433007Y0639533D02*
X0449140Y0623400D01*
X0440118D02*
X0455798Y0639080D01*
X0453695Y0623400D02*
X0457200Y0626905D01*
X0461200Y0631705D02*
X0469504Y0623400D01*
X0446906D02*
X0457200Y0633694D01*
X0461200Y0623400D02*
Y0638118D01*
X0457200Y0623400D02*
Y0638118D01*
X0448356Y0637760D02*
X0457200Y0628916D01*
X0453163Y0639742D02*
X0457200Y0635705D01*
X0443564Y0640422D02*
X0444497Y0641356D01*
X0444028Y0642089D02*
X0444426Y0641690D01*
X0453847Y0643917D02*
X0455193Y0645263D01*
X0461200Y0630905D02*
X0468106Y0637811D01*
X0461200Y0624916D02*
X0462716Y0623400D01*
X0461200Y0624117D02*
X0475987Y0638904D01*
X0461200Y0637694D02*
X0462387Y0638881D01*
X0468777Y0637704D02*
X0483081Y0623400D01*
X0474059D02*
X0486600Y0635941D01*
X0461452Y0638241D02*
X0476293Y0623400D01*
X0486600D02*
Y0638442D01*
X0467271Y0623400D02*
X0484672Y0640801D01*
X0461200Y0623400D02*
X0486600D01*
X0480848D02*
X0486600Y0629152D01*
X0493444Y0640190D02*
X0510234Y0623400D01*
X0508001D02*
X0530000Y0645400D01*
X0501212Y0623400D02*
X0523212Y0645400D01*
X0462853Y0639347D02*
X0464578Y0641071D01*
X0481686Y0638372D02*
X0486600Y0633457D01*
X0464047Y0642434D02*
X0464370Y0642110D01*
X0484040Y0642805D02*
X0484352Y0642493D01*
X0473923Y0643628D02*
X0474748Y0644454D01*
X0491800Y0635046D02*
X0503446Y0623400D01*
X0491800Y0628257D02*
X0496657Y0623400D01*
X0473309Y0639960D02*
X0486600Y0626669D01*
X0491800Y0623400D02*
Y0638442D01*
X0431207Y0648121D02*
X0434787Y0644541D01*
X0433756Y0644191D02*
X0437543Y0647978D01*
X0473110Y0645400D02*
X0475290D01*
X0451452Y0648241D02*
X0454907Y0644786D01*
X0430079Y0647302D02*
X0430701Y0647924D01*
X0438356Y0647760D02*
X0438755Y0647361D01*
X0442468Y0646115D02*
X0445619Y0649266D01*
X0443163Y0649742D02*
X0446408Y0646497D01*
X0450378Y0647236D02*
X0451312Y0648170D01*
X0462654Y0645936D02*
X0463579Y0646861D01*
X0456470Y0646540D02*
X0457817Y0647887D01*
X0462789Y0647652D02*
X0464452Y0645989D01*
X0458777Y0647704D02*
X0459100Y0647381D01*
X0495022Y0645400D02*
X0517022Y0623400D01*
X0501810Y0645400D02*
X0523810Y0623400D01*
X0491800Y0634352D02*
X0502848Y0645400D01*
X0494424Y0623400D02*
X0516424Y0645400D01*
X0491800Y0627564D02*
X0509636Y0645400D01*
X0521577Y0623400D02*
X0543577Y0645400D01*
X0522175D02*
X0544175Y0623400D01*
X0508599Y0645400D02*
X0530599Y0623400D01*
X0515387Y0645400D02*
X0537387Y0623400D01*
X0514789D02*
X0536789Y0645400D01*
X0483110D02*
X0485290D01*
X0474657D02*
X0475038Y0645020D01*
X0493110Y0645400D02*
X0546372D01*
X0546842Y0644930D01*
X0493983Y0643324D02*
X0496059Y0645400D01*
X0528365Y0623400D02*
X0547415Y0642450D01*
X0535153Y0623400D02*
X0554279Y0642526D01*
X0535751Y0645400D02*
X0557752Y0623400D01*
X0542540Y0645400D02*
X0564540Y0623400D01*
X0491800D02*
X0754200D01*
X0559116Y0649188D02*
X0584904Y0623400D01*
X0536693Y0678400D02*
X0591693Y0623400D01*
X0543481Y0678400D02*
X0598481Y0623400D01*
X0541942D02*
X0596942Y0678400D01*
X0528963Y0645400D02*
X0550963Y0623400D01*
X0552562Y0648954D02*
X0554712Y0646804D01*
X0555116Y0647150D02*
Y0650656D01*
X0552667Y0642061D02*
X0571328Y0623400D01*
X0552150Y0647185D02*
X0555116Y0650151D01*
X0559116Y0647150D02*
Y0651484D01*
X0704859Y0623400D02*
X0744375Y0662916D01*
X0718436Y0623400D02*
X0754200Y0659164D01*
X0590999Y0678400D02*
X0645998Y0623400D01*
X0711647D02*
X0754200Y0665953D01*
X0698071Y0623400D02*
X0739797Y0665126D01*
X0745588Y0623400D02*
X0754200Y0632012D01*
X0752377Y0623400D02*
X0754200Y0625223D01*
X0725224Y0623400D02*
X0754200Y0652376D01*
X0738800Y0623400D02*
X0754200Y0638800D01*
X0732012Y0623400D02*
X0754200Y0645588D01*
X0559116Y0647363D02*
X0590153Y0678400D01*
X0559520Y0641996D02*
X0578116Y0623400D01*
X0563846Y0678400D02*
X0618846Y0623400D01*
X0570634Y0678400D02*
X0625634Y0623400D01*
X0569095D02*
X0624095Y0678400D01*
X0584210D02*
X0639210Y0623400D01*
X0589459D02*
X0644459Y0678400D01*
X0575883Y0623400D02*
X0630883Y0678400D01*
X0582671Y0623400D02*
X0637671Y0678400D01*
X0577422D02*
X0632422Y0623400D01*
X0623400D02*
X0678400Y0678400D01*
X0624940D02*
X0679940Y0623400D01*
X0611363Y0678400D02*
X0666363Y0623400D01*
X0618151Y0678400D02*
X0673151Y0623400D01*
X0616612D02*
X0671612Y0678400D01*
X0638516D02*
X0693516Y0623400D01*
X0643765D02*
X0698765Y0678400D01*
X0630189Y0623400D02*
X0685189Y0678400D01*
X0636977Y0623400D02*
X0691977Y0678400D01*
X0631728D02*
X0686728Y0623400D01*
X0557057Y0678400D02*
X0612057Y0623400D01*
X0562306D02*
X0617306Y0678400D01*
X0548730Y0623400D02*
X0603730Y0678400D01*
X0555518Y0623400D02*
X0610518Y0678400D01*
X0550269D02*
X0605269Y0623400D01*
X0604575Y0678400D02*
X0659575Y0623400D01*
X0609824D02*
X0664824Y0678400D01*
X0596247Y0623400D02*
X0651248Y0678400D01*
X0603036Y0623400D02*
X0658036Y0678400D01*
X0597787D02*
X0652787Y0623400D01*
X0657342D02*
X0712342Y0678400D01*
X0658881D02*
X0713881Y0623400D01*
X0645304Y0678400D02*
X0700304Y0623400D01*
X0652093Y0678400D02*
X0707093Y0623400D01*
X0650553D02*
X0705553Y0678400D01*
X0672457D02*
X0727457Y0623400D01*
X0677706D02*
X0732706Y0678400D01*
X0664130Y0623400D02*
X0719130Y0678400D01*
X0670918Y0623400D02*
X0725918Y0678400D01*
X0665669D02*
X0720669Y0623400D01*
X0691283D02*
X0746283Y0678400D01*
X0692822D02*
X0747822Y0623400D01*
X0679246Y0678400D02*
X0734245Y0623400D01*
X0686034Y0678400D02*
X0741034Y0623400D01*
X0684494D02*
X0739495Y0678400D01*
X0706398D02*
X0754200Y0630598D01*
X0713186Y0678400D02*
X0754200Y0637386D01*
X0699610Y0678400D02*
X0754200Y0623810D01*
Y0623400D02*
Y0678400D01*
X0719974D02*
X0754200Y0644174D01*
X0433810Y0651033D02*
X0434432Y0651655D01*
X0434027Y0652089D02*
X0434426Y0651690D01*
X0432273Y0656284D02*
X0435450Y0659461D01*
X0433163Y0659741D02*
X0436408Y0656497D01*
X0441452Y0658241D02*
X0444907Y0654786D01*
X0443756Y0654191D02*
X0447543Y0657978D01*
X0452468Y0656115D02*
X0455619Y0659266D01*
X0428357Y0657760D02*
X0428755Y0657361D01*
X0440079Y0657302D02*
X0440701Y0657924D01*
X0443810Y0661033D02*
X0444432Y0661655D01*
X0444047Y0662434D02*
X0444371Y0662111D01*
X0448777Y0657704D02*
X0449100Y0657381D01*
X0453309Y0659961D02*
X0456627Y0656643D01*
X0450909Y0667071D02*
X0453149Y0669311D01*
X0453564Y0650422D02*
X0454497Y0651356D01*
X0454047Y0652434D02*
X0454370Y0652110D01*
X0462200Y0656342D02*
Y0657572D01*
X0460378Y0657236D02*
X0461312Y0658170D01*
X0461504Y0658268D02*
X0462200Y0657572D01*
X0454776Y0665281D02*
X0455038Y0665020D01*
X0453737Y0664242D02*
X0455395Y0665900D01*
X0453756Y0664191D02*
X0455465Y0665900D01*
X0455395D02*
X0455711D01*
X0484001Y0663210D02*
X0487810Y0659400D01*
X0474117Y0669311D02*
X0475611Y0667817D01*
X0433652Y0664452D02*
X0440601Y0671400D01*
X0435081D02*
X0439100Y0667381D01*
X0428293Y0671400D02*
X0434907Y0664786D01*
X0429762Y0667349D02*
X0433812Y0671400D01*
X0450079Y0667302D02*
X0454177Y0671400D01*
X0441869D02*
X0446627Y0666643D01*
X0442273Y0666284D02*
X0447389Y0671400D01*
X0448657D02*
X0451948Y0668110D01*
X0441657Y0678400D02*
X0444657Y0675400D01*
X0444601D02*
X0447601Y0678400D01*
X0431024Y0675400D02*
X0434024Y0678400D01*
X0437812Y0675400D02*
X0440812Y0678400D01*
X0434869D02*
X0437869Y0675400D01*
X0454566Y0669900D02*
X0472700D01*
X0455446Y0671400D02*
X0456946Y0669900D01*
X0448446Y0678400D02*
X0451446Y0675400D01*
X0455234Y0678400D02*
X0458234Y0675400D01*
X0451389D02*
X0454389Y0678400D01*
X0469022Y0671400D02*
X0470522Y0669900D01*
X0459465D02*
X0460965Y0671400D01*
X0466254Y0669900D02*
X0467754Y0671400D01*
X0462234D02*
X0463734Y0669900D01*
X0482654Y0665936D02*
X0487745Y0671027D01*
X0473017Y0669875D02*
X0474542Y0671400D01*
X0476470Y0666540D02*
X0481330Y0671400D01*
X0475810D02*
X0479876Y0667335D01*
X0468810Y0678400D02*
X0471810Y0675400D01*
X0471754D02*
X0474754Y0678400D01*
X0458177Y0675400D02*
X0461177Y0678400D01*
X0464965Y0675400D02*
X0467965Y0678400D01*
X0462022D02*
X0465022Y0675400D01*
X0485330D02*
X0488330Y0678400D01*
X0475599D02*
X0478599Y0675400D01*
X0482387Y0678400D02*
X0485387Y0675400D01*
X0478542D02*
X0481542Y0678400D01*
X0504059Y0653400D02*
X0504782Y0654123D01*
X0496617Y0658811D02*
X0502028Y0653400D01*
X0547450D01*
X0510848D02*
X0511348Y0653900D01*
X0505700D02*
X0547896D01*
X0513675D02*
X0514175Y0653400D01*
X0506887Y0653900D02*
X0507387Y0653400D01*
X0499650Y0655779D02*
X0501321Y0657450D01*
X0482899Y0659400D02*
X0495200D01*
X0496209Y0659127D02*
X0497927Y0660844D01*
X0506528Y0657900D02*
X0552700D01*
X0512086Y0662277D02*
X0516463Y0657900D01*
X0504150Y0660279D02*
X0506185Y0662314D01*
X0508559Y0657900D02*
X0513401Y0662742D01*
X0504699Y0662876D02*
X0509675Y0657900D01*
X0549310Y0648119D02*
X0549670Y0647758D01*
X0527251Y0653900D02*
X0527751Y0653400D01*
X0534040Y0653900D02*
X0534540Y0653400D01*
X0553481Y0652290D02*
X0555116Y0650656D01*
X0554117Y0657311D02*
X0558527Y0652901D01*
X0741588Y0663575D02*
X0754200Y0650963D01*
X0531212Y0653400D02*
X0531712Y0653900D01*
X0538000Y0653400D02*
X0538500Y0653900D01*
X0517636Y0653400D02*
X0518136Y0653900D01*
X0524424Y0653400D02*
X0524924Y0653900D01*
X0520463D02*
X0520963Y0653400D01*
X0540828Y0653900D02*
X0541328Y0653400D01*
X0544789D02*
X0545289Y0653900D01*
X0489695Y0659400D02*
X0494533Y0664239D01*
X0500756Y0663673D02*
X0501877Y0664794D01*
X0482599Y0671400D02*
X0494599Y0659400D01*
X0487372Y0671400D02*
X0504283Y0654489D01*
X0482906Y0659400D02*
X0491139Y0667633D01*
X0516437Y0664714D02*
X0523251Y0657900D01*
X0519169Y0668771D02*
X0530040Y0657900D01*
X0489617Y0674811D02*
X0506528Y0657900D01*
X0515348D02*
X0535848Y0678400D01*
X0497362Y0667067D02*
X0499187Y0668892D01*
X0490573Y0673855D02*
X0495118Y0678400D01*
X0493967Y0670461D02*
X0498950Y0675443D01*
X0495963Y0678400D02*
X0498943Y0675420D01*
X0518095Y0678400D02*
X0754200D01*
X0518992Y0668332D02*
X0529059Y0678400D01*
X0489175D02*
X0499542Y0668033D01*
X0519420Y0675549D02*
X0522271Y0678400D01*
X0519512Y0675216D02*
X0536828Y0657900D01*
X0522136D02*
X0542636Y0678400D01*
X0523116D02*
X0543616Y0657900D01*
X0535712D02*
X0556212Y0678400D01*
X0529904D02*
X0550404Y0657900D01*
X0558197Y0653232D02*
X0583365Y0678400D01*
X0747742Y0664209D02*
X0754200Y0657751D01*
X0542500Y0657900D02*
X0563000Y0678400D01*
X0554803Y0656626D02*
X0576577Y0678400D01*
X0549289Y0657900D02*
X0569789Y0678400D01*
X0740339D02*
X0744897Y0673843D01*
X0528924Y0657900D02*
X0549424Y0678400D01*
X0726763D02*
X0739374Y0665788D01*
X0733551Y0678400D02*
X0740009Y0671942D01*
X0749643Y0669097D02*
X0754200Y0664539D01*
X0749684Y0668225D02*
X0754200Y0672741D01*
X0747127Y0678400D02*
X0754200Y0671327D01*
X0747474Y0672803D02*
X0753071Y0678400D01*
X0753916D02*
X0754200Y0678116D01*
G54D15*
X0078200Y0162400D02*
D03*
X0744200Y0668400D02*
D03*
X0084200D02*
D03*
G54D16*
X0647161Y0312160D02*
X0714200Y0291400D01*
X0636700Y0315400D02*
X0647161Y0312160D01*
X0499565Y0300577D02*
X0519651Y0294357D01*
X0418800Y0311206D02*
X0422700Y0312400D01*
X0558749Y0294357D02*
X0626276Y0315269D01*
X0549200Y0291400D02*
X0558749Y0294357D01*
X0519651D02*
X0529200Y0291400D01*
X0461700Y0315400D02*
X0616700D01*
X0539200Y0291400D02*
X0579656Y0303928D01*
X0461700Y0315400D02*
X0539200Y0291400D01*
X0627124Y0315269D02*
X0704200Y0291400D01*
X0626700Y0315400D02*
X0627124Y0315269D01*
X0626276D02*
X0626700Y0315400D01*
X0364200D02*
X0441700D01*
X0549200Y0291400D02*
X0704200D01*
X0579656Y0303928D02*
X0616700Y0315400D01*
X0578832Y0306595D02*
X0597700Y0312400D01*
X0539200Y0294400D02*
X0578832Y0306595D01*
X0367200Y0312400D02*
X0422700D01*
X0329700Y0572400D02*
X0468700D01*
X0227200Y0554400D02*
X0366200D01*
X0432200D02*
X0571200D01*
X0194200Y0581150D02*
Y0583400D01*
X0655700Y0312400D02*
X0711200Y0295400D01*
X0655700Y0312400D02*
X0711200D01*
Y0295400D02*
Y0312400D01*
X0636700Y0315400D02*
X0714200D01*
Y0291400D02*
Y0315400D01*
X0626700Y0312400D02*
X0685200Y0294400D01*
X0568200D02*
X0626700Y0312400D01*
X0568200Y0294400D02*
X0685200D01*
X0480700Y0312400D02*
X0597700D01*
X0480700D02*
X0539200Y0294400D01*
X0374200Y0291400D02*
X0529200D01*
X0367200Y0295400D02*
Y0312400D01*
X0364200Y0291400D02*
Y0315400D01*
X0194200Y0551400D02*
Y0575400D01*
X0204200Y0551400D02*
X0296700Y0575400D01*
X0501700D02*
X0594200Y0551400D01*
X0197200Y0555400D02*
Y0572400D01*
X0263700Y0572414D01*
X0197200Y0555400D02*
X0263700Y0572400D01*
X0227200Y0554400D02*
X0296700Y0572400D01*
X0366200Y0554400D01*
X0399200D02*
X0468700Y0572400D01*
X0432200Y0554400D02*
X0501700Y0572400D01*
X0571200Y0554400D01*
X0604200Y0578900D02*
Y0583400D01*
X0194200Y0578900D02*
Y0581150D01*
Y0583400D02*
X0604200D01*
X0194200Y0578900D02*
X0604200D01*
X0194200Y0543400D02*
X0604200D01*
X0194200Y0545650D02*
Y0547900D01*
X0604200D01*
X0194200Y0543400D02*
Y0545650D01*
X0604200Y0543400D02*
Y0547900D01*
X0409200Y0551400D02*
X0594200D01*
X0194200D02*
X0274624Y0572267D01*
X0399200Y0551400D02*
X0480092Y0572388D01*
X0204200Y0551400D02*
X0389200D01*
X0329700Y0572400D02*
X0399200Y0554400D01*
X0604200Y0551400D02*
Y0575400D01*
X0534700Y0572400D02*
X0601200D01*
Y0555400D02*
Y0572400D01*
X0534700D02*
X0601200Y0555400D01*
X0601718Y0552044D02*
X0604200Y0551400D01*
X0393200Y0294400D02*
X0451700Y0312400D01*
X0393200Y0294400D02*
X0510200D01*
X0451700Y0315400D02*
X0452124Y0315269D01*
X0451276D02*
X0451700Y0315400D01*
X0374200Y0291400D02*
X0451276Y0315269D01*
X0498746Y0297924D02*
X0510200Y0294400D01*
X0452124Y0315269D02*
X0499565Y0300577D01*
X0498746Y0297924D02*
X0498746D01*
X0451700Y0312400D02*
X0498746Y0297924D01*
X0480092Y0572388D02*
X0491700Y0575400D01*
X0306700D02*
X0399200Y0551400D01*
X0306700Y0575400D02*
X0491700D01*
X0377592Y0554412D02*
X0389200Y0551400D01*
X0296700Y0575400D02*
X0377592Y0554412D01*
X0409200Y0551400D02*
X0420339Y0554290D01*
X0501700Y0575400D01*
X0511700D02*
X0604200D01*
X0511700D02*
X0523776Y0572267D01*
X0601718Y0552044D01*
X0274624Y0572267D02*
X0286700Y0575400D01*
X0194200D02*
X0286700D01*
X0367200Y0295400D02*
X0418800Y0311206D01*
X0364200Y0291400D02*
X0419615Y0308561D01*
X0441700Y0315400D01*
G54D17*
X0659200Y0230900D02*
X0666700D01*
X0651700D02*
X0659200D01*
X0579200D02*
X0586700D01*
X0571700D02*
X0579200D01*
X0499200D02*
X0506700D01*
X0306700Y0223400D02*
Y0230900D01*
Y0215900D02*
Y0223400D01*
X0131700Y0375900D02*
Y0383400D01*
Y0303400D02*
Y0310900D01*
Y0295900D02*
Y0303400D01*
Y0223400D02*
Y0230900D01*
Y0215900D02*
Y0223400D01*
X0139200Y0480900D02*
X0156700D01*
X0121700D02*
X0139200D01*
X0641700Y0223400D02*
Y0240900D01*
Y0205900D02*
Y0223400D01*
X0596700Y0205900D02*
Y0240900D01*
X0561700Y0223400D02*
Y0240900D01*
Y0205900D02*
Y0223400D01*
X0516700Y0205900D02*
Y0240900D01*
X0481700Y0223400D02*
Y0240900D01*
Y0205900D02*
Y0223400D01*
X0436700Y0205900D02*
Y0240900D01*
X0236700Y0445900D02*
Y0480900D01*
X0201700Y0445900D02*
X0236700D01*
X0201700D02*
Y0480900D01*
X0219200D01*
X0316700Y0365900D02*
Y0400900D01*
X0281700Y0365900D02*
X0316700D01*
X0281700D02*
Y0400900D01*
X0316700D01*
X0219200Y0480900D02*
X0236700D01*
X0281700Y0445900D02*
Y0480900D01*
Y0445900D02*
X0316700D01*
X0281700Y0480900D02*
X0299200D01*
X0316700Y0445900D02*
Y0480900D01*
X0299200D02*
X0316700D01*
X0676700Y0205900D02*
Y0240900D01*
X0201700Y0285900D02*
Y0320900D01*
X0236700D01*
X0201700Y0240900D02*
X0236700D01*
Y0205900D02*
Y0240900D01*
X0281700Y0320900D02*
X0316700D01*
X0281700Y0285900D02*
X0316700D01*
X0281700Y0240900D02*
X0316700D01*
X0201700Y0365900D02*
X0236700D01*
X0201700Y0400900D02*
X0236700D01*
X0291700Y0303400D02*
Y0310900D01*
Y0295900D02*
Y0303400D01*
X0226700Y0295900D02*
Y0310900D01*
X0211700Y0303400D02*
Y0310900D01*
Y0295900D02*
Y0303400D01*
X0146700Y0295900D02*
Y0310900D01*
X0201700Y0365900D02*
Y0400900D01*
X0236700Y0365900D02*
Y0400900D01*
X0131700Y0295900D02*
X0146700D01*
X0131700Y0310900D02*
X0146700D01*
X0121700Y0285900D02*
Y0320900D01*
X0156700Y0285900D02*
Y0320900D01*
X0211700Y0295900D02*
X0226700D01*
X0211700Y0310900D02*
X0226700D01*
X0291700Y0295900D02*
X0306700D01*
X0291700Y0310900D02*
X0306700D01*
X0281700Y0285900D02*
Y0320900D01*
X0316700Y0285900D02*
Y0320900D01*
X0131700Y0215900D02*
X0146700D01*
X0131700Y0230900D02*
X0146700D01*
X0121700Y0205900D02*
Y0240900D01*
X0156700Y0205900D02*
Y0240900D01*
X0121700Y0205900D02*
X0156700D01*
X0211700Y0215900D02*
X0226700D01*
X0211700Y0230900D02*
X0226700D01*
X0201700Y0205900D02*
Y0240900D01*
Y0205900D02*
X0236700D01*
X0291700Y0230900D02*
X0306700D01*
X0281700Y0205900D02*
Y0240900D01*
X0316700Y0205900D02*
Y0240900D01*
X0281700Y0205900D02*
X0316700D01*
X0401700D02*
X0436700D01*
X0401700Y0240900D02*
X0436700D01*
X0401700Y0205900D02*
Y0240900D01*
X0481700Y0205900D02*
X0516700D01*
X0481700Y0240900D02*
X0516700D01*
X0506700Y0215900D02*
Y0230900D01*
X0561700Y0205900D02*
X0596700D01*
X0561700Y0240900D02*
X0596700D01*
X0571700Y0215900D02*
Y0230900D01*
Y0215900D02*
X0586700D01*
Y0230900D01*
X0641700Y0205900D02*
X0676700D01*
X0641700Y0240900D02*
X0676700D01*
X0651700Y0215900D02*
Y0230900D01*
Y0215900D02*
X0666700D01*
Y0230900D01*
X0146700Y0215900D02*
Y0230900D01*
X0211700Y0215900D02*
Y0223400D01*
Y0230900D01*
X0226700Y0215900D02*
Y0230900D01*
X0291700Y0215900D02*
Y0223400D01*
Y0230900D01*
X0156700Y0365900D02*
Y0400900D01*
X0121700Y0365900D02*
Y0400900D01*
X0156700Y0445900D02*
Y0480900D01*
X0121700Y0445900D02*
Y0480900D01*
Y0400900D02*
X0156700D01*
X0121700Y0445900D02*
X0156700D01*
X0121700Y0320900D02*
X0156700D01*
X0121700Y0365900D02*
X0156700D01*
X0121700Y0240900D02*
X0156700D01*
X0121700Y0285900D02*
X0156700D01*
X0201700D02*
X0236700D01*
Y0320900D01*
X0131700Y0375900D02*
X0146700D01*
Y0390900D01*
X0211700Y0375900D02*
Y0390900D01*
X0226700D01*
Y0375900D02*
Y0390900D01*
X0291700Y0375900D02*
Y0390900D01*
X0306700D01*
Y0383400D02*
Y0390900D01*
X0291700Y0215900D02*
X0306700D01*
X0499200D02*
X0506700D01*
X0306700Y0295900D02*
Y0303400D01*
Y0310900D01*
X0491700Y0215900D02*
Y0230900D01*
X0499200D01*
X0491700Y0215900D02*
X0499200D01*
X0306700Y0375900D02*
Y0383400D01*
X0291700Y0375900D02*
X0306700D01*
X0211700D02*
X0226700D01*
X0131700Y0390900D02*
X0146700D01*
X0131700Y0383400D02*
Y0390900D01*
X0411700Y0230900D02*
X0419200D01*
X0426700D01*
Y0215900D02*
Y0230900D01*
X0411700Y0215900D02*
Y0230900D01*
Y0215900D02*
X0426700D01*
X0306700Y0455900D02*
Y0463400D01*
Y0470900D01*
X0291700D02*
X0306700D01*
X0291700Y0455900D02*
X0306700D01*
X0291700D02*
Y0470900D01*
X0226700Y0455900D02*
Y0470900D01*
X0211700D02*
X0226700D01*
X0211700Y0455900D02*
X0226700D01*
X0211700D02*
Y0470900D01*
X0131700Y0455900D02*
X0146700D01*
Y0470900D01*
X0131700D02*
X0146700D01*
X0131700Y0463400D02*
Y0470900D01*
Y0455900D02*
Y0463400D01*
G54D18*
X0339200Y0662534D02*
X0341334D01*
G54D19*
X0489200Y0608400D02*
Y0642534D01*
G54D20*
X0439200Y0662534D02*
D03*
X0409200D02*
D03*
X0379200D02*
D03*
X0349200D02*
D03*
X0459200D02*
D03*
X0469200D02*
D03*
X0479200D02*
D03*
X0489200D02*
D03*
X0459200Y0652534D02*
D03*
X0469200D02*
D03*
X0479200D02*
D03*
X0489200D02*
D03*
X0459200Y0642534D02*
D03*
X0469200D02*
D03*
X0479200D02*
D03*
X0489200D02*
D03*
X0449200Y0662534D02*
D03*
X0429200D02*
D03*
X0419200D02*
D03*
X0399200D02*
D03*
X0389200D02*
D03*
X0369200D02*
D03*
X0359200D02*
D03*
X0449200Y0642534D02*
D03*
X0429200D02*
D03*
X0419200D02*
D03*
X0399200D02*
D03*
X0389200D02*
D03*
X0369200D02*
D03*
X0359200D02*
D03*
X0339200D02*
D03*
X0439200Y0652534D02*
D03*
X0409200D02*
D03*
X0379200D02*
D03*
X0349200D02*
D03*
X0449200D02*
D03*
X0429200D02*
D03*
X0419200D02*
D03*
X0399200D02*
D03*
X0389200D02*
D03*
X0369200D02*
D03*
X0359200D02*
D03*
X0339200D02*
D03*
X0439200Y0642534D02*
D03*
X0409200D02*
D03*
X0379200D02*
D03*
X0349200D02*
D03*
G54D21*
X0339200Y0662534D02*
D03*
G54D22*
X0319200Y0672534D02*
D03*
X0509200D02*
D03*
G54D23*
X0499200Y0299400D02*
D03*
X0559200Y0292900D02*
D03*
X0539200Y0313900D02*
D03*
X0579200Y0215900D02*
D03*
X0659200D02*
D03*
X0306700Y0223400D02*
D03*
X0274200Y0573900D02*
D03*
X0550200Y0644400D02*
D03*
Y0651400D02*
D03*
X0419200Y0309900D02*
D03*
X0689200Y0321400D02*
D03*
X0647700Y0313900D02*
D03*
X0659200Y0292900D02*
D03*
X0579200Y0305400D02*
D03*
X0499200Y0292900D02*
D03*
X0641700Y0223400D02*
D03*
X0596700D02*
D03*
X0561700D02*
D03*
X0516700D02*
D03*
X0481700D02*
D03*
X0436700D02*
D03*
X0677200D02*
D03*
X0499200Y0475300D02*
D03*
X0595200Y0446400D02*
D03*
X0539200Y0420900D02*
D03*
X0499200Y0230900D02*
D03*
X0659200D02*
D03*
X0579200D02*
D03*
X0219200Y0240900D02*
D03*
X0299200D02*
D03*
Y0285900D02*
D03*
X0219200D02*
D03*
X0299200Y0320900D02*
D03*
X0219200D02*
D03*
X0299200Y0445900D02*
D03*
Y0365900D02*
D03*
Y0400900D02*
D03*
X0219200Y0365900D02*
D03*
Y0400900D02*
D03*
Y0445900D02*
D03*
X0139200D02*
D03*
Y0400900D02*
D03*
Y0240900D02*
D03*
Y0285900D02*
D03*
Y0320900D02*
D03*
Y0365900D02*
D03*
X0219200Y0480900D02*
D03*
X0299200D02*
D03*
X0139200D02*
D03*
X0306700Y0303400D02*
D03*
X0291700D02*
D03*
X0226700D02*
D03*
X0211700D02*
D03*
X0146700D02*
D03*
X0291700Y0223400D02*
D03*
X0226700D02*
D03*
X0211700D02*
D03*
X0146700D02*
D03*
X0516700Y0460900D02*
D03*
X0569200Y0379400D02*
D03*
X0558676Y0433351D02*
D03*
X0584200Y0433400D02*
D03*
X0521200Y0378400D02*
D03*
X0608700Y0433400D02*
D03*
X0377200Y0552900D02*
D03*
X0479700Y0573900D02*
D03*
X0539200Y0552900D02*
D03*
X0602200Y0553900D02*
D03*
X0200200Y0581400D02*
D03*
X0146700Y0383400D02*
D03*
X0211700D02*
D03*
X0226700D02*
D03*
X0291700D02*
D03*
X0306700D02*
D03*
X0499200Y0215900D02*
D03*
X0539200Y0445900D02*
D03*
X0561700Y0460900D02*
D03*
Y0405900D02*
D03*
X0516700D02*
D03*
X0339200Y0573900D02*
D03*
Y0612400D02*
D03*
X0379200D02*
D03*
X0419200D02*
D03*
X0459200D02*
D03*
X0419200Y0230900D02*
D03*
Y0215900D02*
D03*
X0306700Y0463400D02*
D03*
X0291700D02*
D03*
X0226700D02*
D03*
X0211700D02*
D03*
X0146700D02*
D03*
X0420700Y0552900D02*
D03*
X0524200Y0573900D02*
D03*
X0131700Y0223400D02*
D03*
Y0303400D02*
D03*
Y0383400D02*
D03*
Y0463400D02*
D03*
X0139200Y0205900D02*
D03*
X0219200D02*
D03*
X0299200D02*
D03*
X0401700Y0223400D02*
D03*
X0557116Y0644400D02*
D03*
M02*
