%FSLAX24Y24*%
%MOIN*%
G70*
G01*
G75*
G04 Layer_Color=16711935*
%ADD10C,0.0394*%
%ADD11C,0.0098*%
%ADD12C,0.0118*%
%ADD13C,0.0197*%
%ADD14R,0.0906X0.0795*%
%ADD15C,0.0591*%
%ADD16R,0.0591X0.0591*%
%ADD17R,0.0709X0.0709*%
%ADD18C,0.0217*%
%ADD19C,0.0236*%
%ADD20R,0.1772X0.0591*%
%ADD21O,0.0433X0.0394*%
%ADD22R,0.0433X0.0394*%
%ADD23R,0.0394X0.0433*%
%ADD24O,0.1772X0.0591*%
%ADD25R,0.0787X0.0591*%
%ADD26R,0.0591X0.0787*%
%ADD27R,0.1063X0.0630*%
%ADD28R,0.0984X0.1299*%
%ADD29R,0.1575X0.1181*%
%ADD30R,0.0157X0.0472*%
%ADD31R,0.0098X0.0709*%
%ADD32R,0.0630X0.1181*%
%ADD33R,0.0630X0.0709*%
%ADD34C,0.0157*%
%ADD35C,0.0079*%
%ADD36R,0.1651X0.0909*%
%ADD37C,0.0671*%
%ADD38R,0.0671X0.0671*%
%ADD39R,0.0789X0.0789*%
%ADD40R,0.1852X0.0671*%
%ADD41O,0.0513X0.0474*%
%ADD42R,0.0513X0.0474*%
%ADD43R,0.0474X0.0513*%
%ADD44O,0.1852X0.0671*%
%ADD45R,0.0867X0.0671*%
%ADD46R,0.0671X0.0867*%
%ADD47R,0.1143X0.0710*%
%ADD48R,0.1064X0.1379*%
%ADD49R,0.1655X0.1261*%
%ADD50R,0.0237X0.0552*%
%ADD51R,0.0178X0.0789*%
%ADD52R,0.0710X0.1261*%
%ADD53R,0.0710X0.0789*%
%ADD54C,0.0007*%
%ADD55C,0.0007*%
%ADD56C,0.0010*%
%ADD57C,0.0050*%
%ADD58C,0.0100*%
%ADD59C,0.0059*%
%ADD60C,0.0039*%
D59*
X-4587Y-12579D02*
X-4488Y-12480D01*
Y-12284D01*
X-4587Y-12185D01*
X-4685D01*
X-4784Y-12284D01*
Y-12382D01*
Y-12284D01*
X-4882Y-12185D01*
X-4980D01*
X-5079Y-12284D01*
Y-12480D01*
X-4980Y-12579D01*
X-5079Y-11693D02*
X-4488D01*
X-4784Y-11988D01*
Y-11595D01*
X-5079Y-11398D02*
X-4980D01*
Y-11300D01*
X-5079D01*
Y-11398D01*
Y-10512D02*
Y-10906D01*
X-4685Y-10512D01*
X-4587D01*
X-4488Y-10611D01*
Y-10808D01*
X-4587Y-10906D01*
X-4488Y-9922D02*
X-4587Y-10119D01*
X-4784Y-10316D01*
X-4980D01*
X-5079Y-10217D01*
Y-10021D01*
X-4980Y-9922D01*
X-4882D01*
X-4784Y-10021D01*
Y-10316D01*
X-5079Y-8938D02*
X-4882Y-9135D01*
X-4685D01*
X-4488Y-8938D01*
X-5079Y-8643D02*
X-4685D01*
Y-8545D01*
X-4784Y-8446D01*
X-5079D01*
X-4784D01*
X-4685Y-8348D01*
X-4784Y-8249D01*
X-5079D01*
Y-8053D02*
X-4685D01*
Y-7954D01*
X-4784Y-7856D01*
X-5079D01*
X-4784D01*
X-4685Y-7757D01*
X-4784Y-7659D01*
X-5079D01*
Y-7462D02*
X-4882Y-7265D01*
X-4685D01*
X-4488Y-7462D01*
X14468Y10807D02*
X14075D01*
Y10709D01*
X14468Y10315D01*
Y10217D01*
X13485Y10807D02*
X13681Y10709D01*
X13878Y10512D01*
Y10315D01*
X13780Y10217D01*
X13583D01*
X13485Y10315D01*
Y10413D01*
X13583Y10512D01*
X13878D01*
X13288Y10217D02*
Y10315D01*
X13189D01*
Y10217D01*
X13288D01*
X12796Y10315D02*
X12697Y10217D01*
X12501D01*
X12402Y10315D01*
Y10709D01*
X12501Y10807D01*
X12697D01*
X12796Y10709D01*
Y10610D01*
X12697Y10512D01*
X12402D01*
X12205Y10709D02*
X12107Y10807D01*
X11910D01*
X11812Y10709D01*
Y10315D01*
X11910Y10217D01*
X12107D01*
X12205Y10315D01*
Y10709D01*
X10828Y10217D02*
X11025Y10413D01*
Y10610D01*
X10828Y10807D01*
X10533Y10217D02*
Y10610D01*
X10434D01*
X10336Y10512D01*
Y10217D01*
Y10512D01*
X10238Y10610D01*
X10139Y10512D01*
Y10217D01*
X9942D02*
Y10610D01*
X9844D01*
X9746Y10512D01*
Y10217D01*
Y10512D01*
X9647Y10610D01*
X9549Y10512D01*
Y10217D01*
X9352D02*
X9155Y10413D01*
Y10610D01*
X9352Y10807D01*
X28878Y-6319D02*
X28779Y-6516D01*
X28583Y-6713D01*
X28386D01*
X28287Y-6614D01*
Y-6417D01*
X28386Y-6319D01*
X28484D01*
X28583Y-6417D01*
Y-6713D01*
X28779Y-6122D02*
X28878Y-6024D01*
Y-5827D01*
X28779Y-5729D01*
X28681D01*
X28583Y-5827D01*
Y-5925D01*
Y-5827D01*
X28484Y-5729D01*
X28386D01*
X28287Y-5827D01*
Y-6024D01*
X28386Y-6122D01*
X28287Y-5532D02*
X28386D01*
Y-5433D01*
X28287D01*
Y-5532D01*
X28386Y-5040D02*
X28287Y-4942D01*
Y-4745D01*
X28386Y-4646D01*
X28779D01*
X28878Y-4745D01*
Y-4942D01*
X28779Y-5040D01*
X28681D01*
X28583Y-4942D01*
Y-4646D01*
X28779Y-4450D02*
X28878Y-4351D01*
Y-4154D01*
X28779Y-4056D01*
X28386D01*
X28287Y-4154D01*
Y-4351D01*
X28386Y-4450D01*
X28779D01*
X28287Y-3072D02*
X28484Y-3269D01*
X28681D01*
X28878Y-3072D01*
X28287Y-2777D02*
X28681D01*
Y-2678D01*
X28583Y-2580D01*
X28287D01*
X28583D01*
X28681Y-2482D01*
X28583Y-2383D01*
X28287D01*
Y-2186D02*
X28681D01*
Y-2088D01*
X28583Y-1990D01*
X28287D01*
X28583D01*
X28681Y-1891D01*
X28583Y-1793D01*
X28287D01*
Y-1596D02*
X28484Y-1399D01*
X28681D01*
X28878Y-1596D01*
D60*
X-4883Y-16488D02*
X-3248D01*
X-4883Y-3000D02*
X1187D01*
X-4783Y-16488D02*
Y-12719D01*
Y-7087D02*
Y-3000D01*
Y-16488D02*
X-4583Y-15888D01*
X-4983D02*
X-4783Y-16488D01*
X-4983Y-3600D02*
X-4783Y-3000D01*
X-4583Y-3600D01*
X27138Y8779D02*
Y10612D01*
X-3138Y8779D02*
Y10612D01*
X14657Y10512D02*
X27138D01*
X-3138D02*
X9025D01*
X26538Y10712D02*
X27138Y10512D01*
X26538Y10312D02*
X27138Y10512D01*
X-3138D02*
X-2538Y10312D01*
X-3138Y10512D02*
X-2538Y10712D01*
X27248Y8669D02*
X28635D01*
X27248Y-16488D02*
X28635D01*
X28535Y-1253D02*
Y8669D01*
Y-16488D02*
Y-6884D01*
X28335Y8069D02*
X28535Y8669D01*
X28735Y8069D01*
X28535Y-16488D02*
X28735Y-15888D01*
X28335D02*
X28535Y-16488D01*
M02*
