%FSLAX24Y24*%
%MOIN*%
G70*
G01*
G75*
G04 Layer_Color=16711935*
%ADD10C,0.0394*%
%ADD11C,0.0098*%
%ADD12C,0.0118*%
%ADD13C,0.0197*%
%ADD14R,0.0906X0.0795*%
%ADD15C,0.0591*%
%ADD16R,0.0591X0.0591*%
%ADD17R,0.0709X0.0709*%
%ADD18C,0.0217*%
%ADD19C,0.0236*%
%ADD20R,0.1772X0.0591*%
%ADD21O,0.0433X0.0394*%
%ADD22R,0.0433X0.0394*%
%ADD23R,0.0394X0.0433*%
%ADD24O,0.1772X0.0591*%
%ADD25R,0.0787X0.0591*%
%ADD26R,0.0591X0.0787*%
%ADD27R,0.1063X0.0630*%
%ADD28R,0.0984X0.1299*%
%ADD29R,0.1575X0.1181*%
%ADD30R,0.0157X0.0472*%
%ADD31R,0.0098X0.0709*%
%ADD32R,0.0630X0.1181*%
%ADD33R,0.0630X0.0709*%
%ADD34C,0.0157*%
%ADD35C,0.0079*%
%ADD36R,0.1651X0.0909*%
%ADD37C,0.0671*%
%ADD38R,0.0671X0.0671*%
%ADD39R,0.0789X0.0789*%
%ADD40R,0.1852X0.0671*%
%ADD41O,0.0513X0.0474*%
%ADD42R,0.0513X0.0474*%
%ADD43R,0.0474X0.0513*%
%ADD44O,0.1852X0.0671*%
%ADD45R,0.0867X0.0671*%
%ADD46R,0.0671X0.0867*%
%ADD47R,0.1143X0.0710*%
%ADD48R,0.1064X0.1379*%
%ADD49R,0.1655X0.1261*%
%ADD50R,0.0237X0.0552*%
%ADD51R,0.0178X0.0789*%
%ADD52R,0.0710X0.1261*%
%ADD53R,0.0710X0.0789*%
D37*
X21000Y-3000D02*
D03*
X20000Y-4000D02*
D03*
X21000D02*
D03*
X20000Y-5000D02*
D03*
X21000D02*
D03*
X20000Y-6000D02*
D03*
X21000D02*
D03*
X20000Y-7000D02*
D03*
X21000D02*
D03*
X20000Y-8000D02*
D03*
X21000D02*
D03*
X20000Y-9000D02*
D03*
X21000D02*
D03*
X20000Y-10000D02*
D03*
X21000D02*
D03*
X20000Y-11000D02*
D03*
X21000D02*
D03*
X20000Y-12000D02*
D03*
X21000D02*
D03*
X3000Y-3000D02*
D03*
X4000Y-4000D02*
D03*
X3000D02*
D03*
X4000Y-5000D02*
D03*
X3000D02*
D03*
X4000Y-6000D02*
D03*
X3000D02*
D03*
X4000Y-7000D02*
D03*
X3000D02*
D03*
X4000Y-8000D02*
D03*
X3000D02*
D03*
X4000Y-9000D02*
D03*
X3000D02*
D03*
X4000Y-10000D02*
D03*
X3000D02*
D03*
X4000Y-11000D02*
D03*
X3000D02*
D03*
X4000Y-12000D02*
D03*
X3000D02*
D03*
D38*
X20000Y-3000D02*
D03*
X4000D02*
D03*
D39*
X22335Y-1032D02*
D03*
X23319D02*
D03*
D40*
X21787Y-3000D02*
D03*
X4787D02*
D03*
X19213D02*
D03*
X2213D02*
D03*
D41*
X19087Y1398D02*
D03*
D42*
X19756Y835D02*
D03*
X19087D02*
D03*
X19752Y244D02*
D03*
X19083D02*
D03*
X19756Y-346D02*
D03*
X19087D02*
D03*
X19756Y-937D02*
D03*
X19087D02*
D03*
X21547Y4146D02*
D03*
X20878D02*
D03*
X20878Y3555D02*
D03*
X21547D02*
D03*
X23004Y740D02*
D03*
X22335D02*
D03*
X23004Y1350D02*
D03*
X22335D02*
D03*
X3512Y157D02*
D03*
X2843D02*
D03*
X3516Y-654D02*
D03*
X2846D02*
D03*
X3516Y980D02*
D03*
X2846D02*
D03*
X2846Y3110D02*
D03*
X3516D02*
D03*
X453Y1787D02*
D03*
X1122D02*
D03*
X3516Y1787D02*
D03*
X2846D02*
D03*
X19756Y-1528D02*
D03*
X20425D02*
D03*
X19756D02*
D03*
X19087D02*
D03*
X1791Y3110D02*
D03*
X1122D02*
D03*
X453D02*
D03*
X1122D02*
D03*
Y-654D02*
D03*
X453D02*
D03*
Y157D02*
D03*
X1122D02*
D03*
X453Y980D02*
D03*
X1122D02*
D03*
D43*
X20957Y2709D02*
D03*
Y2039D02*
D03*
X21547Y2709D02*
D03*
Y2039D02*
D03*
X21555Y736D02*
D03*
Y1406D02*
D03*
D44*
X21787Y-4000D02*
D03*
Y-6000D02*
D03*
Y-7000D02*
D03*
Y-8000D02*
D03*
Y-9000D02*
D03*
Y-10000D02*
D03*
Y-11000D02*
D03*
Y-12000D02*
D03*
Y-5000D02*
D03*
X4787Y-4000D02*
D03*
Y-5000D02*
D03*
Y-6000D02*
D03*
Y-7000D02*
D03*
Y-8000D02*
D03*
Y-9000D02*
D03*
Y-10000D02*
D03*
Y-11000D02*
D03*
Y-12000D02*
D03*
X19213Y-4000D02*
D03*
Y-5000D02*
D03*
Y-6000D02*
D03*
Y-7000D02*
D03*
Y-8000D02*
D03*
Y-9000D02*
D03*
Y-10000D02*
D03*
Y-11000D02*
D03*
Y-12000D02*
D03*
X2213D02*
D03*
Y-11000D02*
D03*
Y-10000D02*
D03*
Y-9000D02*
D03*
Y-8000D02*
D03*
Y-7000D02*
D03*
Y-6000D02*
D03*
Y-5000D02*
D03*
Y-4000D02*
D03*
D45*
X24421Y-28D02*
D03*
Y1311D02*
D03*
D46*
X23516Y-30D02*
D03*
X22177D02*
D03*
D47*
X25602Y1232D02*
D03*
Y130D02*
D03*
D48*
X21666Y5147D02*
D03*
X23634D02*
D03*
D49*
X25425Y2728D02*
D03*
Y4697D02*
D03*
D50*
X23379Y3557D02*
D03*
X23005D02*
D03*
X22631Y2612D02*
D03*
X23379D02*
D03*
X22631Y3557D02*
D03*
X23005Y2612D02*
D03*
D51*
X15845Y7287D02*
D03*
X15648D02*
D03*
X15451D02*
D03*
X14467D02*
D03*
X14270D02*
D03*
X12892D02*
D03*
X12695D02*
D03*
X11317D02*
D03*
X11121D02*
D03*
X6987D02*
D03*
X6790D02*
D03*
X8365D02*
D03*
X9940D02*
D03*
X10136D02*
D03*
X10530D02*
D03*
X11908D02*
D03*
X14073D02*
D03*
X17617D02*
D03*
X17814D02*
D03*
X17420D02*
D03*
X17026D02*
D03*
X16239D02*
D03*
X16042D02*
D03*
X15254D02*
D03*
X15058D02*
D03*
X14861D02*
D03*
X14664D02*
D03*
X16436D02*
D03*
X17223D02*
D03*
X16632D02*
D03*
X7971D02*
D03*
X8168D02*
D03*
X8955D02*
D03*
X9152D02*
D03*
X9349D02*
D03*
X9546D02*
D03*
X9743D02*
D03*
X6593D02*
D03*
X6396D02*
D03*
X6199D02*
D03*
X13877D02*
D03*
X13680D02*
D03*
X13483D02*
D03*
X13286D02*
D03*
X13089D02*
D03*
X11514D02*
D03*
X10924D02*
D03*
X11711D02*
D03*
X12105D02*
D03*
X12302D02*
D03*
X12499D02*
D03*
X10727D02*
D03*
X10333D02*
D03*
X16829D02*
D03*
X8758D02*
D03*
X8562D02*
D03*
X7774D02*
D03*
X7577D02*
D03*
X7380D02*
D03*
X7184D02*
D03*
D52*
X18916Y6017D02*
D03*
X5097D02*
D03*
D53*
X25445Y-1965D02*
D03*
X24343D02*
D03*
M02*
