M48
;Layer_Color=9474304
;FILE_FORMAT=2:5
INCH,LZ
;TYPE=PLATED
T1F00S00C0.01000
T2F00S00C0.01772
T3F00S00C0.03000
T4F00S00C0.03150
T5F00S00C0.03937
T6F00S00C0.04000
T7F00S00C0.05512
;TYPE=NON_PLATED
T8F00S00C0.06693
T9F00S00C0.08661
%
T01
X0135Y00125
X014Y0051
X0107Y0054
X0099Y00655
Y0074
X0093Y0075
Y00855
X0098Y0086
X0103126Y00855
X0111Y0088
X01155
Y00995
Y0111
X0132Y0102
X0138Y0105
X0156Y01085
X0155Y012
X0175
X0185
X0195Y013
Y0145
Y0155
X0225
Y012
Y0085
Y0045
Y001
X0185Y0055
Y007
Y00765
X0178Y008
Y01005
X016Y0091
X01565Y00785
X0147Y0083
X0132472Y0085
X01305Y00805
X01235
X0117Y0078
X0093Y0061
X00925Y0114
X00935Y01235
X0096Y01345
X01155Y0137
X0125Y01315
X0132
X0136Y014
X0152Y0141
X0162Y0139
X0165Y0154
X0151
X0143Y0157
X0175Y0145
X0081Y01455
X00745Y01445
X007Y0146
X00745Y0138
X0079Y0137
X0084Y01345
X00865Y01235
X0087Y01185
X00815Y0114
X0076Y0117
X0066Y01105
X0059Y0088
X00505Y0085
X0045Y007
X00645
X00695Y00665
X0073Y007
X00741Y0061
X0072Y0049
X0078
X00795Y00422
X00695
X0065Y00515
X0045Y005
X005Y002
X0057
X0065Y0026
X0077Y0021
X00695Y0079
X0081Y00835
X0054Y0131
X0034Y014
X0005Y0085
Y006
Y002
Y0185
Y0225
Y026
Y029
X0025
Y0205
X0034Y0174
X0055Y0177
X0054Y0166
X00695Y01615
X008Y0177
X009Y0165
X0105Y0175
X01225
X0134
X01385Y01685
X0143Y0168
X0146Y0175
X01535Y0174
Y01795
X0159Y0184
X01635Y0181
X0164631Y01665
X0165Y0161
X01745
X0185Y016
X01925Y0161
X0187453Y0169047
X01875Y01805
X0183
X018Y0187
X01925Y01836
X0198Y0192
Y022
X016
X015
Y021
Y0238
Y025
X016
Y0255
X01605Y02625
X015Y027
Y029
X01605Y0282
X0178Y02655
X01975
X0211Y0271
Y029
X017Y023
X016
X0138Y01605
X0225Y0185
T02
X01225Y01125
X010522Y0131296
T03
X0080445Y0163315
X010013
T04
X009576Y0036
X010324
T05
X0047Y0133252
Y0149
Y0164748
T06
X01185Y0051
Y0061
Y0071
X01285
Y0061
Y0051
X0195Y0055
X0205
Y0065
Y0075
Y0085
Y0095
Y0105
X0195
Y0095
Y0085
Y0075
Y0065
Y0045
X0205
Y0035
Y0025
Y0015
X0195
Y0025
Y0035
X0035
X0025
Y0025
Y0015
X0035
Y0025
Y0045
X0025
Y0055
Y0065
Y0075
Y0085
Y0095
Y0105
X0035
Y0095
Y0085
Y0075
Y0065
Y0055
T07
X000763Y0129315
Y0168685
T08
X01835Y025022
Y027778
T09
X0050917Y0291268
X0129657Y0192843
M30
