<?xml version="1.0" encoding="UTF-8" standalone="no"?>
<!-- Generator: Adobe Illustrator 15.1.0, SVG Export Plug-In . SVG Version: 6.00 Build 0)  -->

<svg
   xmlns:dc="http://purl.org/dc/elements/1.1/"
   xmlns:cc="http://creativecommons.org/ns#"
   xmlns:rdf="http://www.w3.org/1999/02/22-rdf-syntax-ns#"
   xmlns:svg="http://www.w3.org/2000/svg"
   xmlns="http://www.w3.org/2000/svg"
   xmlns:sodipodi="http://sodipodi.sourceforge.net/DTD/sodipodi-0.dtd"
   xmlns:inkscape="http://www.inkscape.org/namespaces/inkscape"
   version="1.1"
   width="250"
   height="250"
   viewBox="0 0 250 250"
   id="svg2"
   inkscape:version="0.48.5 r10040"
   sodipodi:docname="keil.svg"
   inkscape:export-filename="C:\Users\a0273326\Projects\msp430ware\TIRex\~TIRex\MSPWare\assets\photos\originals\keil.png"
   inkscape:export-xdpi="90"
   inkscape:export-ydpi="90">
  <metadata
     id="metadata16">
    <rdf:RDF>
      <cc:Work
         rdf:about="">
        <dc:format>image/svg+xml</dc:format>
        <dc:type
           rdf:resource="http://purl.org/dc/dcmitype/StillImage" />
        <dc:title></dc:title>
      </cc:Work>
    </rdf:RDF>
  </metadata>
  <defs
     id="defs14" />
  <sodipodi:namedview
     pagecolor="#ffffff"
     bordercolor="#666666"
     borderopacity="1"
     objecttolerance="10"
     gridtolerance="10"
     guidetolerance="10"
     inkscape:pageopacity="0"
     inkscape:pageshadow="2"
     inkscape:window-width="1920"
     inkscape:window-height="1018"
     id="namedview12"
     showgrid="true"
     fit-margin-right="0"
     inkscape:zoom="2.288"
     inkscape:cx="225.70792"
     inkscape:cy="134.11758"
     inkscape:window-x="-8"
     inkscape:window-y="333"
     inkscape:window-maximized="1"
     inkscape:current-layer="svg2">
    <inkscape:grid
       type="xygrid"
       id="grid2993"
       empspacing="5"
       visible="true"
       enabled="true"
       snapvisiblegridlinesonly="true" />
  </sodipodi:namedview>
  <path
     d="m 136.124,128.481 h -16.663 l -17.317,-21.209 v 21.209 H 88.501 V 83.175 h 13.643 v 20.313 l 16.402,-20.313 h 14.833 l -16.858,21.215 19.603,24.091 z m 40.087,-9.16 h -20.483 v -9.559 h 19.017 V 100.6 h -19.017 v -8.363 h 19.932 v -9.062 h -33.575 v 45.306 h 34.127 v -9.16 z m 22.906,-36.146 h -13.645 v 45.306 h 13.645 V 83.175 z m 45.807,34.451 H 224.175 V 83.175 h -13.641 v 45.306 h 34.39 v -10.855 z"
     id="path4"
     inkscape:connector-curvature="0"
     style="fill:#0083ab" />
  <path
     d="M 5.01,83.415 V 153.79 L 41.986,119 5.01,83.415 z m 3.974,10.006 26.64,25.646 -26.64,25.246 V 93.421 z m 3.448,-10.27 37.241,35.916 -37.241,34.457 H 76.445 V 83.151 H 12.432 z m 59.903,66.266 H 23.032 l 32.736,-30.351 -33,-31.675 h 49.566 v 62.026 z"
     id="path6"
     inkscape:connector-curvature="0"
     style="fill:#0083ab" />
  <path
     d="m 232.913,84.304 h -2.464 v -1.127 h 6.209 v 1.127 h -2.481 v 6.479 h -1.264 v -6.479 z m 4.607,-1.127 h 1.873 l 1.892,6.077 h 0.039 l 1.834,-6.077 h 1.834 v 7.606 h -1.166 V 84.4 h -0.037 l -1.911,6.383 h -1.147 l -2.007,-6.479 h -0.037 v 6.479 h -1.166 v -7.606 z"
     id="path8"
     inkscape:connector-curvature="0"
     style="fill:#0083ab" />
  <path
     d="m 88.535,135 h 15.448 v 2.356 h -6.447 v 16.163 h -2.66 V 137.356 H 88.535 V 135 z m 20.029,6.315 c -1.871,0 -3.427,0.592 -4.667,1.78 -1.239,1.188 -1.858,2.672 -1.858,4.454 0,1.766 0.614,3.237 1.84,4.414 1.226,1.18 2.753,1.767 4.579,1.767 1.889,0 3.455,-0.58 4.699,-1.741 1.244,-1.16 1.865,-2.618 1.865,-4.374 0,-1.809 -0.613,-3.311 -1.839,-4.506 -1.226,-1.197 -2.766,-1.794 -4.619,-1.794 m 2.833,3.309 c 0.785,0.759 1.178,1.716 1.178,2.872 0,1.164 -0.378,2.121 -1.133,2.866 -0.754,0.745 -1.721,1.118 -2.904,1.118 -1.192,0 -2.167,-0.369 -2.926,-1.105 -0.759,-0.738 -1.139,-1.688 -1.139,-2.853 0,-1.173 0.37,-2.14 1.112,-2.899 0.741,-0.759 1.689,-1.139 2.847,-1.139 1.191,0.001 2.18,0.381 2.965,1.14 z m 12.774,-3.309 c -1.871,0 -3.427,0.592 -4.665,1.78 -1.241,1.188 -1.86,2.672 -1.86,4.454 0,1.766 0.614,3.237 1.84,4.414 1.226,1.18 2.753,1.767 4.581,1.767 1.887,0 3.453,-0.58 4.699,-1.741 1.242,-1.16 1.865,-2.618 1.863,-4.374 0,-1.809 -0.611,-3.311 -1.838,-4.506 -1.228,-1.197 -2.768,-1.794 -4.62,-1.794 m 2.833,3.309 c 0.787,0.759 1.18,1.716 1.18,2.872 0,1.164 -0.378,2.121 -1.133,2.866 -0.756,0.745 -1.723,1.118 -2.906,1.118 -1.19,0 -2.165,-0.369 -2.924,-1.105 -0.761,-0.738 -1.141,-1.688 -1.141,-2.853 0,-1.173 0.372,-2.14 1.112,-2.899 0.742,-0.759 1.691,-1.139 2.847,-1.139 1.19,0.001 2.18,0.381 2.965,1.14 z m 7.001,8.895 h 2.411 v -18.492 h -2.411 v 18.492 z m 5.945,-0.875 c 0.857,0.415 1.566,0.701 2.13,0.854 0.567,0.155 1.211,0.231 1.935,0.231 1.226,0 2.23,-0.32 3.012,-0.959 0.781,-0.638 1.172,-1.457 1.172,-2.454 0,-1.395 -1.016,-2.665 -3.047,-3.811 l -0.861,-0.491 c -0.651,-0.361 -1.108,-0.669 -1.367,-0.925 -0.261,-0.257 -0.389,-0.526 -0.389,-0.808 0,-0.328 0.143,-0.592 0.43,-0.789 0.286,-0.199 0.662,-0.299 1.129,-0.299 0.909,0 2.078,0.433 3.508,1.297 v -2.383 c -1.253,-0.67 -2.474,-1.006 -3.668,-1.006 -1.144,0 -2.083,0.296 -2.811,0.888 -0.728,0.59 -1.092,1.354 -1.092,2.29 0,0.723 0.24,1.392 0.722,2.005 0.479,0.613 1.495,1.352 3.051,2.217 0.777,0.441 1.281,0.778 1.516,1.013 0.234,0.233 0.35,0.526 0.35,0.88 0,0.344 -0.18,0.64 -0.541,0.886 -0.362,0.248 -0.794,0.37 -1.299,0.37 -0.485,0 -1.082,-0.147 -1.793,-0.442 -0.71,-0.296 -1.406,-0.683 -2.085,-1.159 v 2.595 m 19.751,0.2 c 0.512,0.256 1.203,0.469 2.072,0.635 0.868,0.167 1.696,0.251 2.479,0.251 1.958,0 3.524,-0.58 4.694,-1.741 1.17,-1.16 1.753,-2.719 1.753,-4.677 0,-1.828 -0.489,-3.324 -1.47,-4.489 -0.979,-1.165 -2.24,-1.747 -3.783,-1.747 -1.186,0 -2.296,0.379 -3.338,1.138 v -7.188 h -2.408 v 17.818 z m 5.151,-9.518 c 1.014,0 1.836,0.379 2.469,1.139 0.628,0.759 0.944,1.742 0.944,2.951 0,1.19 -0.337,2.165 -1.012,2.925 -0.677,0.759 -1.546,1.139 -2.615,1.139 -0.863,0 -1.706,-0.124 -2.528,-0.37 v -6.591 c 0.926,-0.796 1.839,-1.193 2.742,-1.193 z m 13.223,4.894 -3.291,-6.879 h -2.743 l 4.702,9.562 -4.133,8.823 h 2.688 l 8.629,-18.385 h -2.702 l -3.15,6.879 z m 11.957,5.299 h 2.72 l 2.31,-5.481 h 7.889 l 2.467,5.481 h 2.708 l -8.292,-18.598 h -1.86 l -7.942,18.598 z m 6.08,-7.837 2.765,-6.696 2.985,6.696 h -5.75 z m 17.417,7.837 v -8.048 h 0.688 c 0.863,0 1.481,0.1 1.85,0.297 0.366,0.198 0.777,0.522 1.231,0.971 0.455,0.45 0.956,1.054 1.501,1.814 l 0.887,1.443 0.82,1.35 0.516,0.729 c 0.078,0.106 0.132,0.182 0.156,0.226 l 0.81,1.218 h 3.147 l -0.977,-1.324 c -0.391,-0.529 -0.906,-1.319 -1.55,-2.37 -1.025,-1.667 -1.819,-2.836 -2.383,-3.507 -0.565,-0.669 -1.145,-1.199 -1.733,-1.587 1.004,-0.389 1.776,-0.975 2.315,-1.762 0.538,-0.785 0.808,-1.715 0.808,-2.792 0,-1.58 -0.549,-2.833 -1.648,-3.759 -1.099,-0.926 -2.584,-1.39 -4.455,-1.39 h -4.632 v 18.492 h 2.649 z m 3.578,-15.951 c 0.561,0.194 0.996,0.528 1.303,0.999 0.311,0.474 0.465,1 0.465,1.582 0,0.591 -0.14,1.119 -0.419,1.582 -0.274,0.463 -0.665,0.809 -1.164,1.039 -0.498,0.229 -1.417,0.345 -2.759,0.345 h -1.004 v -5.838 h 0.792 c 1.299,0 2.225,0.098 2.786,0.291 z m 19.317,5.054 -6.146,-7.595 h -2.504 v 18.492 h 2.647 v -14.388 l 5.751,7.147 h 0.489 l 5.687,-7.147 v 14.388 h 2.66 v -18.492 h -2.476 l -6.108,7.595 z"
     id="path10"
     inkscape:connector-curvature="0" />
</svg>
