%FSLAX25Y25*%
%MOIN*%
G70*
G01*
G75*
G04 Layer_Physical_Order=1*
G04 Layer_Color=255*
%ADD10R,0.04803X0.03602*%
%ADD11R,0.03740X0.03937*%
%ADD12R,0.03937X0.03740*%
%ADD13O,0.02362X0.05500*%
%ADD14O,0.02362X0.05709*%
%ADD15R,0.04331X0.02559*%
%ADD16R,0.02559X0.04331*%
%ADD17R,0.03800X0.04400*%
%ADD18R,0.03150X0.02362*%
%ADD19C,0.01000*%
%ADD20C,0.02000*%
%ADD21C,0.00800*%
%ADD22C,0.05906*%
%ADD23R,0.05906X0.05906*%
%ADD24C,0.03400*%
D10*
X179200Y81247D02*
D03*
Y68353D02*
D03*
X159000Y81247D02*
D03*
Y68353D02*
D03*
D11*
X108700Y87449D02*
D03*
Y81150D02*
D03*
X49000Y87149D02*
D03*
Y80850D02*
D03*
X150200Y76351D02*
D03*
Y82650D02*
D03*
X158300Y8651D02*
D03*
Y14950D02*
D03*
X114300Y67150D02*
D03*
Y60851D02*
D03*
D12*
X76750Y61800D02*
D03*
X70450D02*
D03*
X115750Y38900D02*
D03*
X109450D02*
D03*
X72350Y39100D02*
D03*
X78650D02*
D03*
D13*
X100400Y60250D02*
D03*
X95400D02*
D03*
X90400D02*
D03*
X85400D02*
D03*
X100400Y38550D02*
D03*
X95400D02*
D03*
X90400D02*
D03*
X85400D02*
D03*
D14*
X138100Y60128D02*
D03*
X133100D02*
D03*
X128100D02*
D03*
X123100D02*
D03*
X138100Y38672D02*
D03*
X133100D02*
D03*
X128100D02*
D03*
X123100D02*
D03*
D15*
X115076Y80060D02*
D03*
Y87540D02*
D03*
X124525Y80060D02*
D03*
Y87540D02*
D03*
Y83800D02*
D03*
X55676Y80060D02*
D03*
Y87540D02*
D03*
X65125Y80060D02*
D03*
Y87540D02*
D03*
Y83800D02*
D03*
D16*
X172840Y18025D02*
D03*
Y8576D02*
D03*
X169100Y18025D02*
D03*
X165360D02*
D03*
Y8576D02*
D03*
D17*
X179200Y61800D02*
D03*
X169200D02*
D03*
X179200Y25800D02*
D03*
X169200D02*
D03*
X159200Y61800D02*
D03*
Y25800D02*
D03*
D18*
X133638Y67100D02*
D03*
X138362D02*
D03*
X127362Y31800D02*
D03*
X122638D02*
D03*
X139262D02*
D03*
X134538D02*
D03*
X127362Y67100D02*
D03*
X122638D02*
D03*
D19*
X130000Y22800D02*
X134538Y27338D01*
Y31800D01*
X120000Y22800D02*
X127362Y30162D01*
Y31800D01*
X138100Y32962D02*
Y38672D01*
Y32962D02*
X139262Y31800D01*
X165360Y8576D02*
X172840D01*
X152976D02*
X165360D01*
X100400Y38550D02*
X100750Y38900D01*
X97626Y22800D02*
X100000D01*
X159200Y61800D02*
Y68153D01*
X159000Y68353D02*
X159200Y68153D01*
X179200Y61800D02*
Y68353D01*
X169200Y61800D02*
Y67700D01*
X159000Y81247D02*
X179200D01*
X150200Y82650D02*
X153150D01*
X154553Y81247D01*
X159000D01*
X150200Y71400D02*
Y76351D01*
X138100Y60128D02*
X142728D01*
X133100D02*
Y66562D01*
X128100Y60128D02*
Y66362D01*
X127362Y67100D02*
X128100Y66362D01*
X133100Y66562D02*
X133638Y67100D01*
X124525Y87540D02*
X145310D01*
X150200Y82650D01*
X121572Y87540D02*
X124525D01*
X119800Y85768D02*
X121572Y87540D01*
Y80060D02*
X124525D01*
X119800Y81831D02*
X121572Y80060D01*
X119800Y81831D02*
Y85768D01*
X121560Y87540D02*
X121572D01*
X117800Y91300D02*
X121560Y87540D01*
X66900Y91300D02*
X117800D01*
X62172Y87540D02*
X65125D01*
X60400Y85768D02*
X62172Y87540D01*
X60400Y81600D02*
Y85768D01*
Y81600D02*
X61940Y80060D01*
X65125D01*
Y83800D02*
X69500D01*
X124138Y76600D02*
X133638Y67100D01*
X74300Y76600D02*
X74500Y76400D01*
X37646Y82336D02*
X43582Y76400D01*
X30130Y82336D02*
X37646D01*
X25890Y78095D02*
X30130Y82336D01*
X81200Y76600D02*
X81400D01*
X124138D01*
X43582Y76400D02*
X74500D01*
X81500Y70600D02*
Y71300D01*
Y70600D02*
X81500Y70600D01*
X85600Y73600D02*
X120862D01*
X127362Y67100D01*
X54000Y67400D02*
X70700D01*
X39200Y52600D02*
X54000Y67400D01*
X30395Y52600D02*
X39200D01*
X25890Y48095D02*
X30395Y52600D01*
X74113Y70413D02*
X74300Y70600D01*
X47313Y70413D02*
X74113D01*
X39700Y62800D02*
X47313Y70413D01*
X30595Y62800D02*
X39700D01*
X25890Y58095D02*
X30595Y62800D01*
X44149Y87149D02*
X49000D01*
X106637Y89513D02*
X108700Y87449D01*
X102800Y88300D02*
X104013Y89513D01*
X106637D01*
X110000Y22800D02*
Y26105D01*
X107404Y28700D02*
X110000Y26105D01*
X101787Y28700D02*
X103000D01*
X91900D02*
X97000D01*
X90400Y30200D02*
X91900Y28700D01*
X90400Y30200D02*
Y38550D01*
X103000Y28700D02*
X107404D01*
X100000Y22800D02*
Y29936D01*
X95400Y34536D02*
X100000Y29936D01*
X95400Y34536D02*
Y38550D01*
X128100Y34450D02*
Y38672D01*
X127362Y33712D02*
X128100Y34450D01*
X127362Y31800D02*
Y33712D01*
X133100Y35150D02*
Y38672D01*
Y35150D02*
X134538Y33712D01*
Y31800D02*
Y33712D01*
X19862Y15510D02*
X30660Y4713D01*
X91913D02*
X100000Y12800D01*
X30660Y4713D02*
X91913D01*
X32795Y58095D02*
X35890D01*
X27700Y53000D02*
X32795Y58095D01*
X22600Y53000D02*
X27700D01*
X32995Y68095D02*
X35890D01*
X28200Y63300D02*
X32995Y68095D01*
X18075Y48475D02*
X22600Y53000D01*
X18075Y7025D02*
Y48475D01*
X22500Y63300D02*
X28200D01*
X34800Y73400D02*
X70400D01*
X29495Y68095D02*
X34800Y73400D01*
X25890Y68095D02*
X29495D01*
X35395Y78095D02*
X35890D01*
X29943Y72643D02*
X35395Y78095D01*
X19543Y72643D02*
X29943D01*
X14500Y67600D02*
X19543Y72643D01*
X15000Y10900D02*
Y13517D01*
X16287Y14804D01*
Y57087D01*
X22500Y63300D01*
X14500Y18200D02*
Y67600D01*
X11900Y15600D02*
X14500Y18200D01*
X11900Y8100D02*
Y15600D01*
X124525Y83800D02*
X128700D01*
X67900Y39100D02*
X72350D01*
X27091Y43300D02*
X31886Y48095D01*
X35890D01*
X139262Y31800D02*
X143800D01*
X146000Y29600D01*
X21900Y43300D02*
X27091D01*
X19862Y41262D02*
X21900Y43300D01*
X19862Y15510D02*
Y41262D01*
X11900Y8100D02*
X17075Y2925D01*
X120125D01*
X130000Y12800D01*
X104500Y38900D02*
X109450D01*
X100750D02*
X104500D01*
X172840Y18025D02*
X174975D01*
X179200Y22249D01*
Y25800D01*
X163325Y18025D02*
X165360D01*
X159200Y22149D02*
X163325Y18025D01*
X159200Y22149D02*
Y25800D01*
X92546Y67400D02*
X95400Y64546D01*
Y60250D02*
Y64546D01*
X90400Y60250D02*
Y60310D01*
X86422Y64287D02*
X90400Y60310D01*
X86363Y64287D02*
X86422D01*
X86237Y64413D02*
X86363Y64287D01*
X83263Y64413D02*
X86237D01*
X81513Y66163D02*
X83263Y64413D01*
X81513Y66163D02*
Y70587D01*
X84500Y67400D02*
X92546D01*
X62900Y61800D02*
X70450D01*
X100400Y60250D02*
X106050D01*
X106200Y60400D02*
X107550D01*
X114300Y67150D01*
X65125Y87540D02*
Y89525D01*
X66900Y91300D01*
D20*
X123100Y32262D02*
Y38672D01*
X122638Y31800D02*
X123100Y32262D01*
X169100Y15269D02*
Y18025D01*
X167903Y14072D02*
X169100Y15269D01*
Y18025D02*
Y25700D01*
X169200Y25800D01*
X138200Y17800D02*
X141928Y14072D01*
X167903D01*
X115750Y38900D02*
X122872D01*
X123100Y38672D01*
X78650Y39100D02*
X84850D01*
X85400Y38550D01*
X78650Y34150D02*
X90000Y22800D01*
X78650Y34150D02*
Y39100D01*
X122638Y67100D02*
X123100Y66638D01*
X114300Y60851D02*
X122378D01*
X123100Y60128D02*
Y66638D01*
X111900Y17800D02*
X115260Y21160D01*
Y38900D01*
X90000Y22800D02*
X95000Y17800D01*
X111900D01*
X49791Y80060D02*
X55676D01*
X43850Y80850D02*
X49000D01*
X35890Y18095D02*
X41185Y12800D01*
X70000D01*
X25890Y28095D02*
X26395D01*
X31500Y33200D01*
X38621D01*
X40630Y49630D02*
X43600Y52600D01*
X40630Y35209D02*
Y49630D01*
X38621Y33200D02*
X40630Y35209D01*
X44200Y47800D02*
X47800Y51400D01*
Y56200D01*
X35890Y28095D02*
X46185Y17800D01*
X75000D01*
X80000Y12800D01*
X30895Y12405D02*
X36300Y7000D01*
X84200D01*
X90000Y12800D01*
X30895Y12405D02*
Y24395D01*
X119500Y70238D02*
X122638Y67100D01*
X138362Y67862D02*
X140738Y70238D01*
X138362Y67100D02*
Y67862D01*
X47800Y56200D02*
X49643Y58043D01*
X77850Y62784D02*
Y80350D01*
X49643Y58043D02*
X73109D01*
X76699Y61633D01*
X83850Y61800D02*
X85400Y60250D01*
X76750Y61800D02*
X83850D01*
X85400Y59483D02*
Y60250D01*
Y59483D02*
X89170Y55713D01*
X109284D01*
X114300Y60729D01*
Y60851D01*
X81800Y84300D02*
X84600D01*
X77850Y80350D02*
X81800Y84300D01*
X94600D02*
X98840Y80060D01*
X115076D01*
D21*
X-443410Y-348755D02*
X-439411D01*
X-441410D01*
Y-354753D01*
X-436412D02*
X-434413D01*
X-433413Y-353754D01*
Y-351754D01*
X-434413Y-350755D01*
X-436412D01*
X-437412Y-351754D01*
Y-353754D01*
X-436412Y-354753D01*
X-431414Y-356753D02*
Y-350755D01*
X-428415D01*
X-427415Y-351754D01*
Y-353754D01*
X-428415Y-354753D01*
X-431414D01*
X-419418Y-348755D02*
Y-354753D01*
X-415419D01*
X-412420Y-350755D02*
X-410421D01*
X-409421Y-351754D01*
Y-354753D01*
X-412420D01*
X-413419Y-353754D01*
X-412420Y-352754D01*
X-409421D01*
X-407421Y-350755D02*
Y-353754D01*
X-406422Y-354753D01*
X-403423D01*
Y-355753D01*
X-404422Y-356753D01*
X-405422D01*
X-403423Y-354753D02*
Y-350755D01*
X-398424Y-354753D02*
X-400424D01*
X-401423Y-353754D01*
Y-351754D01*
X-400424Y-350755D01*
X-398424D01*
X-397425Y-351754D01*
Y-352754D01*
X-401423D01*
X-395425Y-350755D02*
Y-354753D01*
Y-352754D01*
X-394426Y-351754D01*
X-393426Y-350755D01*
X-392426D01*
D22*
X130000Y22800D02*
D03*
Y12800D02*
D03*
X120000Y22800D02*
D03*
Y12800D02*
D03*
X110000Y22800D02*
D03*
Y12800D02*
D03*
X100000Y22800D02*
D03*
Y12800D02*
D03*
X90000Y22800D02*
D03*
Y12800D02*
D03*
X80000Y22800D02*
D03*
Y12800D02*
D03*
X70000Y22800D02*
D03*
Y12800D02*
D03*
X84600Y84300D02*
D03*
X94600D02*
D03*
X35890Y78095D02*
D03*
X25890Y68095D02*
D03*
X35890D02*
D03*
X25890Y58095D02*
D03*
X35890D02*
D03*
X25890Y48095D02*
D03*
X35890D02*
D03*
X25890Y38095D02*
D03*
X35890D02*
D03*
X25890Y28095D02*
D03*
X35890D02*
D03*
X25890Y18095D02*
D03*
X35890D02*
D03*
D23*
X25890Y78095D02*
D03*
D24*
X152976Y8576D02*
D03*
X138200Y17800D02*
D03*
X169200Y67700D02*
D03*
X150200Y71400D02*
D03*
X142728Y60128D02*
D03*
X69500Y83800D02*
D03*
X84500Y67400D02*
D03*
X70700Y67400D02*
D03*
X44149Y87149D02*
D03*
X102800Y88300D02*
D03*
X103000Y28700D02*
D03*
X97000D02*
D03*
X43850Y80850D02*
D03*
X43600Y52600D02*
D03*
X128700Y83800D02*
D03*
X67900Y39100D02*
D03*
X44200Y47800D02*
D03*
X146000Y29600D02*
D03*
X30895Y24395D02*
D03*
X18075Y7025D02*
D03*
X15000Y10900D02*
D03*
X104500Y38900D02*
D03*
X119500Y70238D02*
D03*
X140738D02*
D03*
X81500Y70600D02*
D03*
X85600Y73600D02*
D03*
X81400Y76600D02*
D03*
X74300D02*
D03*
X70400Y73400D02*
D03*
X74300Y70600D02*
D03*
X62900Y61800D02*
D03*
X106200Y60400D02*
D03*
M02*
