%FSLAX25Y25*%
%MOIN*%
G70*
G01*
G75*
G04 Layer_Physical_Order=2*
G04 Layer_Color=16711680*
%ADD10R,0.04803X0.03602*%
%ADD11R,0.03740X0.03937*%
%ADD12R,0.03937X0.03740*%
%ADD13O,0.02362X0.05500*%
%ADD14O,0.02362X0.05709*%
%ADD15R,0.04331X0.02559*%
%ADD16R,0.02559X0.04331*%
%ADD17R,0.03800X0.04400*%
%ADD18R,0.03150X0.02362*%
%ADD19C,0.01000*%
%ADD20C,0.02000*%
%ADD21C,0.00800*%
%ADD22C,0.05906*%
%ADD23R,0.05906X0.05906*%
%ADD24C,0.03400*%
G36*
X187400Y92486D02*
X187400Y56700D01*
X50000Y56700D01*
X50000Y8226D01*
X22124D01*
X21744Y9143D01*
X21070Y10021D01*
X20193Y10694D01*
X19210Y11101D01*
X19092Y11997D01*
X18669Y13018D01*
X17996Y13895D01*
X17118Y14569D01*
X16096Y14992D01*
X15000Y15136D01*
X13904Y14992D01*
X12882Y14569D01*
X12005Y13895D01*
X11331Y13018D01*
X10908Y11997D01*
X10764Y10900D01*
X10908Y9804D01*
X11331Y8782D01*
X12005Y7905D01*
X12062Y7861D01*
Y5788D01*
X12165Y5005D01*
X12378Y4489D01*
X12467Y4275D01*
X12948Y3648D01*
X15323Y1273D01*
X15679Y1000D01*
X15339Y0D01*
X0D01*
X0Y87855D01*
X0Y92800D01*
X59900D01*
X187400Y92486D01*
D02*
G37*
G36*
X147941Y33600D02*
X158200Y33600D01*
X177154Y33600D01*
X187506D01*
Y9463D01*
X187506Y0D01*
X112736Y0D01*
X112397Y1000D01*
X112752Y1273D01*
X118921Y7442D01*
X120000Y7300D01*
X121423Y7488D01*
X122750Y8037D01*
X123889Y8911D01*
X124401Y9579D01*
X124410Y9584D01*
X125590D01*
X125599Y9579D01*
X126111Y8911D01*
X127250Y8037D01*
X128577Y7488D01*
X130000Y7300D01*
X131423Y7488D01*
X132750Y8037D01*
X133889Y8911D01*
X134763Y10050D01*
X135312Y11377D01*
X135500Y12800D01*
X135438Y13270D01*
X135559Y13530D01*
X135647Y13632D01*
X136348Y14021D01*
X137104Y13708D01*
X138200Y13564D01*
X139296Y13708D01*
X140318Y14131D01*
X141195Y14805D01*
X141869Y15682D01*
X142292Y16704D01*
X142436Y17800D01*
X142292Y18896D01*
X141869Y19918D01*
X141195Y20796D01*
X140318Y21469D01*
X139296Y21892D01*
X138200Y22036D01*
X137104Y21892D01*
X136348Y21579D01*
X135647Y21968D01*
X135559Y22070D01*
X135438Y22330D01*
X135500Y22800D01*
X135312Y24224D01*
X134763Y25550D01*
X133889Y26689D01*
X132750Y27563D01*
X131423Y28112D01*
X130000Y28300D01*
X128577Y28112D01*
X127250Y27563D01*
X126111Y26689D01*
X125599Y26021D01*
X125590Y26016D01*
X124410D01*
X124401Y26021D01*
X123889Y26689D01*
X122750Y27563D01*
X121423Y28112D01*
X120000Y28300D01*
X118577Y28112D01*
X117250Y27563D01*
X116111Y26689D01*
X115598Y26021D01*
X115589Y26016D01*
X114410D01*
X114401Y26021D01*
X113889Y26689D01*
X112750Y27563D01*
X111424Y28112D01*
X110000Y28300D01*
X108577Y28112D01*
X108144Y27933D01*
X107228Y28636D01*
X107236Y28700D01*
X107092Y29796D01*
X106669Y30818D01*
X105996Y31696D01*
X105118Y32369D01*
X104096Y32792D01*
X103000Y32936D01*
X101904Y32792D01*
X100882Y32369D01*
X100044Y31726D01*
X99956D01*
X99118Y32369D01*
X98097Y32792D01*
X97000Y32936D01*
X95904Y32792D01*
X94882Y32369D01*
X94005Y31696D01*
X93331Y30818D01*
X92908Y29796D01*
X92764Y28700D01*
X92772Y28636D01*
X91856Y27933D01*
X91423Y28112D01*
X90000Y28300D01*
X88577Y28112D01*
X87250Y27563D01*
X86111Y26689D01*
X85598Y26021D01*
X85589Y26016D01*
X84411D01*
X84402Y26021D01*
X83889Y26689D01*
X82750Y27563D01*
X81423Y28112D01*
X80000Y28300D01*
X78577Y28112D01*
X77250Y27563D01*
X76111Y26689D01*
X75237Y25550D01*
X74688Y24224D01*
X74500Y22800D01*
X74688Y21377D01*
X75237Y20050D01*
X76111Y18911D01*
X76779Y18398D01*
X76784Y18390D01*
Y17211D01*
X76779Y17202D01*
X76111Y16689D01*
X75599Y16021D01*
X75590Y16016D01*
X74411D01*
X74401Y16021D01*
X73889Y16689D01*
X72750Y17563D01*
X71424Y18112D01*
X70000Y18300D01*
X68577Y18112D01*
X67250Y17563D01*
X66111Y16689D01*
X65237Y15550D01*
X64688Y14223D01*
X64500Y12800D01*
X64688Y11377D01*
X65237Y10050D01*
X65869Y9226D01*
X65450Y8226D01*
X63707D01*
X63000Y8933D01*
X63000Y42500D01*
X140240Y42500D01*
X147941Y33600D01*
D02*
G37*
%LPC*%
G36*
X140738Y74474D02*
X139641Y74330D01*
X138620Y73906D01*
X138439Y73768D01*
X121799D01*
X121618Y73906D01*
X120597Y74330D01*
X119500Y74474D01*
X118404Y74330D01*
X117382Y73906D01*
X116505Y73233D01*
X115831Y72356D01*
X115408Y71334D01*
X115264Y70238D01*
X115408Y69141D01*
X115831Y68120D01*
X116505Y67242D01*
X117382Y66569D01*
X118404Y66146D01*
X119500Y66002D01*
X120597Y66146D01*
X121618Y66569D01*
X121799Y66708D01*
X138439D01*
X138620Y66569D01*
X139641Y66146D01*
X140738Y66002D01*
X141834Y66146D01*
X142856Y66569D01*
X143733Y67242D01*
X144406Y68120D01*
X144830Y69141D01*
X144974Y70238D01*
X144830Y71334D01*
X144406Y72356D01*
X143733Y73233D01*
X142856Y73906D01*
X141834Y74330D01*
X140738Y74474D01*
D02*
G37*
G36*
X94600Y89800D02*
X93176Y89613D01*
X91850Y89063D01*
X90711Y88189D01*
X90198Y87521D01*
X90189Y87516D01*
X89010D01*
X89001Y87521D01*
X88489Y88189D01*
X87350Y89063D01*
X86023Y89613D01*
X84600Y89800D01*
X83176Y89613D01*
X81850Y89063D01*
X80711Y88189D01*
X79837Y87050D01*
X79287Y85724D01*
X79100Y84300D01*
X79287Y82877D01*
X79837Y81550D01*
X79493Y80356D01*
X79282Y80269D01*
X78444Y79626D01*
X77256D01*
X76418Y80269D01*
X75397Y80692D01*
X74300Y80836D01*
X73204Y80692D01*
X72182Y80269D01*
X71305Y79596D01*
X70631Y78718D01*
X70208Y77697D01*
X70197Y77609D01*
X69304Y77492D01*
X68282Y77069D01*
X67405Y76395D01*
X66731Y75518D01*
X66308Y74497D01*
X66164Y73400D01*
X66308Y72304D01*
X66731Y71282D01*
X67405Y70405D01*
X67598Y70256D01*
X67031Y69518D01*
X66608Y68497D01*
X66464Y67400D01*
X66608Y66304D01*
X67031Y65282D01*
X67705Y64405D01*
X68582Y63731D01*
X69604Y63308D01*
X70700Y63164D01*
X71797Y63308D01*
X72818Y63731D01*
X73656Y64374D01*
X81544Y64374D01*
X82382Y63731D01*
X83404Y63308D01*
X84500Y63164D01*
X85596Y63308D01*
X86618Y63731D01*
X87495Y64404D01*
X88169Y65282D01*
X88592Y66304D01*
X88736Y67400D01*
X88592Y68496D01*
X88169Y69518D01*
X88280Y70362D01*
X88595Y70605D01*
X89269Y71482D01*
X89692Y72504D01*
X89836Y73600D01*
X89692Y74696D01*
X89269Y75718D01*
X88595Y76595D01*
X87718Y77269D01*
X86696Y77692D01*
X86458Y77723D01*
X86285Y78070D01*
X86763Y79294D01*
X87350Y79537D01*
X88489Y80411D01*
X89001Y81079D01*
X89010Y81084D01*
X90189D01*
X90198Y81079D01*
X90711Y80411D01*
X91850Y79537D01*
X93176Y78988D01*
X94600Y78800D01*
X96023Y78988D01*
X97350Y79537D01*
X98489Y80411D01*
X99363Y81550D01*
X99912Y82877D01*
X100100Y84300D01*
X99912Y85724D01*
X99363Y87050D01*
X98489Y88189D01*
X97350Y89063D01*
X96023Y89613D01*
X94600Y89800D01*
D02*
G37*
G36*
X43850Y85087D02*
X42753Y84942D01*
X41732Y84519D01*
X40854Y83846D01*
X40181Y82968D01*
X40089Y82746D01*
X39123Y82487D01*
X38640Y82858D01*
X37313Y83408D01*
X35890Y83595D01*
X34466Y83408D01*
X33140Y82858D01*
X32343Y82247D01*
X31343Y82692D01*
Y83548D01*
X20437D01*
Y72643D01*
X21293D01*
X21739Y71643D01*
X21127Y70845D01*
X20577Y69519D01*
X20390Y68095D01*
X20577Y66672D01*
X21127Y65346D01*
X22001Y64206D01*
X22669Y63694D01*
X22674Y63685D01*
Y62506D01*
X22669Y62497D01*
X22001Y61984D01*
X21127Y60845D01*
X20577Y59519D01*
X20390Y58095D01*
X20577Y56672D01*
X21127Y55345D01*
X22001Y54206D01*
X22669Y53694D01*
X22674Y53685D01*
Y52506D01*
X22669Y52497D01*
X22001Y51984D01*
X21127Y50845D01*
X20577Y49519D01*
X20390Y48095D01*
X20577Y46672D01*
X21127Y45346D01*
X22001Y44206D01*
X22669Y43694D01*
X22674Y43685D01*
Y42506D01*
X22669Y42497D01*
X22001Y41984D01*
X21127Y40845D01*
X20577Y39519D01*
X20390Y38095D01*
X20577Y36672D01*
X21127Y35346D01*
X22001Y34206D01*
X22669Y33694D01*
X22674Y33685D01*
Y32506D01*
X22669Y32497D01*
X22001Y31984D01*
X21127Y30845D01*
X20577Y29519D01*
X20390Y28095D01*
X20577Y26672D01*
X21127Y25346D01*
X22001Y24206D01*
X23140Y23332D01*
X24466Y22783D01*
X25890Y22596D01*
X27031Y22746D01*
X27226Y22276D01*
X27899Y21399D01*
X28776Y20726D01*
X29798Y20303D01*
X30152Y20256D01*
X30577Y19519D01*
X30390Y18095D01*
X30577Y16672D01*
X31127Y15346D01*
X32001Y14206D01*
X33140Y13332D01*
X34466Y12783D01*
X35890Y12596D01*
X37313Y12783D01*
X38640Y13332D01*
X39779Y14206D01*
X40653Y15346D01*
X41202Y16672D01*
X41390Y18095D01*
X41202Y19519D01*
X40653Y20845D01*
X39779Y21984D01*
X39111Y22497D01*
X39106Y22506D01*
Y23685D01*
X39111Y23694D01*
X39779Y24206D01*
X40653Y25346D01*
X41202Y26672D01*
X41390Y28095D01*
X41202Y29519D01*
X40653Y30845D01*
X39779Y31984D01*
X39111Y32497D01*
X39106Y32506D01*
Y33685D01*
X39111Y33694D01*
X39779Y34206D01*
X40653Y35346D01*
X41202Y36672D01*
X41390Y38095D01*
X41202Y39519D01*
X41043Y39903D01*
X41696Y40404D01*
X44956Y43663D01*
X45296Y43708D01*
X46318Y44131D01*
X47196Y44805D01*
X47869Y45682D01*
X48292Y46704D01*
X48436Y47800D01*
X48292Y48897D01*
X47869Y49918D01*
X47327Y50624D01*
X47692Y51504D01*
X47836Y52600D01*
X47692Y53697D01*
X47269Y54718D01*
X46595Y55595D01*
X45718Y56269D01*
X44697Y56692D01*
X44471Y56722D01*
X44430Y56762D01*
Y76438D01*
X44721Y76729D01*
X44946Y76758D01*
X45968Y77182D01*
X46845Y77855D01*
X47519Y78732D01*
X47942Y79754D01*
X48086Y80850D01*
X47942Y81947D01*
X47519Y82968D01*
X46845Y83846D01*
X45968Y84519D01*
X44946Y84942D01*
X43850Y85087D01*
D02*
G37*
%LPD*%
D19*
X74300Y76600D02*
X81400D01*
X74300Y70600D02*
X81500D01*
X70400Y73400D02*
X70587Y73588D01*
X85588D01*
X102400Y88700D02*
X102800Y88300D01*
X97000Y28700D02*
X103000D01*
X102400Y5200D02*
X110000Y12800D01*
X110613Y3413D02*
X120000Y12800D01*
X18075Y7025D02*
X19900Y5200D01*
X102400D01*
X15000Y10900D02*
X15088Y10813D01*
Y5788D02*
Y10813D01*
Y5788D02*
X17463Y3413D01*
X110613D01*
X70700Y67400D02*
X84500Y67400D01*
D20*
X80000Y22800D02*
X80500D01*
X80000D02*
X85000Y17800D01*
X138200D01*
X40900Y77900D02*
X43850Y80850D01*
X40900Y55300D02*
Y77900D01*
Y55300D02*
X43600Y52600D01*
X43600D01*
X25890Y38095D02*
X30695Y42900D01*
X39200D01*
X44100Y47800D01*
X44200D01*
X30895Y33100D02*
X35890Y38095D01*
X30895Y24395D02*
Y33100D01*
X119500Y70238D02*
X140738D01*
D21*
X-443410Y-348755D02*
Y-354753D01*
X-440411D01*
X-439411Y-353754D01*
Y-352754D01*
X-440411Y-351754D01*
X-443410D01*
X-440411D01*
X-439411Y-350755D01*
Y-349755D01*
X-440411Y-348755D01*
X-443410D01*
X-436412Y-354753D02*
X-434413D01*
X-433413Y-353754D01*
Y-351754D01*
X-434413Y-350755D01*
X-436412D01*
X-437412Y-351754D01*
Y-353754D01*
X-436412Y-354753D01*
X-430414Y-349755D02*
Y-350755D01*
X-431414D01*
X-429414D01*
X-430414D01*
Y-353754D01*
X-429414Y-354753D01*
X-425416Y-349755D02*
Y-350755D01*
X-426415D01*
X-424416D01*
X-425416D01*
Y-353754D01*
X-424416Y-354753D01*
X-420417D02*
X-418418D01*
X-417418Y-353754D01*
Y-351754D01*
X-418418Y-350755D01*
X-420417D01*
X-421417Y-351754D01*
Y-353754D01*
X-420417Y-354753D01*
X-415419D02*
Y-350755D01*
X-414419D01*
X-413419Y-351754D01*
Y-354753D01*
Y-351754D01*
X-412420Y-350755D01*
X-411420Y-351754D01*
Y-354753D01*
X-403423Y-348755D02*
Y-354753D01*
X-399424D01*
X-396425Y-350755D02*
X-394426D01*
X-393426Y-351754D01*
Y-354753D01*
X-396425D01*
X-397425Y-353754D01*
X-396425Y-352754D01*
X-393426D01*
X-391427Y-350755D02*
Y-353754D01*
X-390427Y-354753D01*
X-387428D01*
Y-355753D01*
X-388428Y-356753D01*
X-389427D01*
X-387428Y-354753D02*
Y-350755D01*
X-382430Y-354753D02*
X-384429D01*
X-385429Y-353754D01*
Y-351754D01*
X-384429Y-350755D01*
X-382430D01*
X-381430Y-351754D01*
Y-352754D01*
X-385429D01*
X-379431Y-350755D02*
Y-354753D01*
Y-352754D01*
X-378431Y-351754D01*
X-377431Y-350755D01*
X-376431D01*
D22*
X130000Y22800D02*
D03*
Y12800D02*
D03*
X120000Y22800D02*
D03*
Y12800D02*
D03*
X110000Y22800D02*
D03*
Y12800D02*
D03*
X100000Y22800D02*
D03*
Y12800D02*
D03*
X90000Y22800D02*
D03*
Y12800D02*
D03*
X80000Y22800D02*
D03*
Y12800D02*
D03*
X70000Y22800D02*
D03*
Y12800D02*
D03*
X84600Y84300D02*
D03*
X94600D02*
D03*
X35890Y78095D02*
D03*
X25890Y68095D02*
D03*
X35890D02*
D03*
X25890Y58095D02*
D03*
X35890D02*
D03*
X25890Y48095D02*
D03*
X35890D02*
D03*
X25890Y38095D02*
D03*
X35890D02*
D03*
X25890Y28095D02*
D03*
X35890D02*
D03*
X25890Y18095D02*
D03*
X35890D02*
D03*
D23*
X25890Y78095D02*
D03*
D24*
X152976Y8576D02*
D03*
X138200Y17800D02*
D03*
X169200Y67700D02*
D03*
X150200Y71400D02*
D03*
X142728Y60128D02*
D03*
X69500Y83800D02*
D03*
X84500Y67400D02*
D03*
X70700Y67400D02*
D03*
X44149Y87149D02*
D03*
X102800Y88300D02*
D03*
X103000Y28700D02*
D03*
X97000D02*
D03*
X43850Y80850D02*
D03*
X43600Y52600D02*
D03*
X128700Y83800D02*
D03*
X67900Y39100D02*
D03*
X44200Y47800D02*
D03*
X146000Y29600D02*
D03*
X30895Y24395D02*
D03*
X18075Y7025D02*
D03*
X15000Y10900D02*
D03*
X104500Y38900D02*
D03*
X119500Y70238D02*
D03*
X140738D02*
D03*
X81500Y70600D02*
D03*
X85600Y73600D02*
D03*
X81400Y76600D02*
D03*
X74300D02*
D03*
X70400Y73400D02*
D03*
X74300Y70600D02*
D03*
X62900Y61800D02*
D03*
X106200Y60400D02*
D03*
M02*
