%FSLAX25Y25*%
%MOIN*%
G70*
G01*
G75*
G04 Layer_Color=16711935*
%ADD10R,0.04803X0.03602*%
%ADD11R,0.03740X0.03937*%
%ADD12R,0.03937X0.03740*%
%ADD13O,0.02362X0.05500*%
%ADD14O,0.02362X0.05709*%
%ADD15R,0.04331X0.02559*%
%ADD16R,0.02559X0.04331*%
%ADD17R,0.03800X0.04400*%
%ADD18R,0.03150X0.02362*%
%ADD19C,0.01000*%
%ADD20C,0.02000*%
%ADD21C,0.00800*%
%ADD22C,0.05906*%
%ADD23R,0.05906X0.05906*%
%ADD24C,0.03400*%
%ADD25C,0.00787*%
%ADD26C,0.00700*%
%ADD27C,0.00200*%
%ADD28C,0.00050*%
%ADD29C,0.00500*%
%ADD30R,0.09200X0.02000*%
%ADD31R,0.05203X0.04002*%
%ADD32R,0.04140X0.04337*%
%ADD33R,0.04337X0.04140*%
%ADD34O,0.02762X0.05900*%
%ADD35O,0.02762X0.06109*%
%ADD36R,0.04731X0.02959*%
%ADD37R,0.02959X0.04731*%
%ADD38R,0.04200X0.04800*%
%ADD39R,0.03550X0.02762*%
%ADD40C,0.06906*%
%ADD41R,0.06906X0.06906*%
D21*
X-443410Y-348755D02*
Y-354753D01*
X-440411D01*
X-439411Y-353754D01*
Y-352754D01*
X-440411Y-351754D01*
X-443410D01*
X-440411D01*
X-439411Y-350755D01*
Y-349755D01*
X-440411Y-348755D01*
X-443410D01*
X-436412Y-354753D02*
X-434413D01*
X-433413Y-353754D01*
Y-351754D01*
X-434413Y-350755D01*
X-436412D01*
X-437412Y-351754D01*
Y-353754D01*
X-436412Y-354753D01*
X-430414Y-349755D02*
Y-350755D01*
X-431414D01*
X-429414D01*
X-430414D01*
Y-353754D01*
X-429414Y-354753D01*
X-425416Y-349755D02*
Y-350755D01*
X-426415D01*
X-424416D01*
X-425416D01*
Y-353754D01*
X-424416Y-354753D01*
X-420417D02*
X-418418D01*
X-417418Y-353754D01*
Y-351754D01*
X-418418Y-350755D01*
X-420417D01*
X-421417Y-351754D01*
Y-353754D01*
X-420417Y-354753D01*
X-415419D02*
Y-350755D01*
X-414419D01*
X-413419Y-351754D01*
Y-354753D01*
Y-351754D01*
X-412420Y-350755D01*
X-411420Y-351754D01*
Y-354753D01*
X-399424Y-349755D02*
X-400424Y-348755D01*
X-402423D01*
X-403423Y-349755D01*
Y-350755D01*
X-402423Y-351754D01*
X-400424D01*
X-399424Y-352754D01*
Y-353754D01*
X-400424Y-354753D01*
X-402423D01*
X-403423Y-353754D01*
X-396425Y-354753D02*
X-394426D01*
X-393426Y-353754D01*
Y-351754D01*
X-394426Y-350755D01*
X-396425D01*
X-397425Y-351754D01*
Y-353754D01*
X-396425Y-354753D01*
X-391427D02*
X-389427D01*
X-390427D01*
Y-348755D01*
X-391427D01*
X-382430D02*
Y-354753D01*
X-385429D01*
X-386428Y-353754D01*
Y-351754D01*
X-385429Y-350755D01*
X-382430D01*
X-377431Y-354753D02*
X-379431D01*
X-380430Y-353754D01*
Y-351754D01*
X-379431Y-350755D01*
X-377431D01*
X-376431Y-351754D01*
Y-352754D01*
X-380430D01*
X-374432Y-350755D02*
Y-354753D01*
Y-352754D01*
X-373432Y-351754D01*
X-372433Y-350755D01*
X-371433D01*
D40*
X130000Y22800D02*
D03*
Y12800D02*
D03*
X120000Y22800D02*
D03*
Y12800D02*
D03*
X110000Y22800D02*
D03*
Y12800D02*
D03*
X100000Y22800D02*
D03*
Y12800D02*
D03*
X90000Y22800D02*
D03*
Y12800D02*
D03*
X80000Y22800D02*
D03*
Y12800D02*
D03*
X70000Y22800D02*
D03*
Y12800D02*
D03*
X84600Y84300D02*
D03*
X94600D02*
D03*
X35890Y78095D02*
D03*
X25890Y68095D02*
D03*
X35890D02*
D03*
X25890Y58095D02*
D03*
X35890D02*
D03*
X25890Y48095D02*
D03*
X35890D02*
D03*
X25890Y38095D02*
D03*
X35890D02*
D03*
X25890Y28095D02*
D03*
X35890D02*
D03*
X25890Y18095D02*
D03*
X35890D02*
D03*
D41*
X25890Y78095D02*
D03*
M02*
