G75*
%MOIN*%
%OFA0B0*%
%FSLAX24Y24*%
%IPPOS*%
%LPD*%
%AMOC8*
5,1,8,0,0,1.08239X$1,22.5*
%
%ADD10R,0.0475X0.0436*%
%ADD11R,0.0436X0.0475*%
%ADD12R,0.0751X0.0928*%
%ADD13R,0.0928X0.0751*%
%ADD14R,0.0554X0.0593*%
%ADD15R,0.0479X0.0280*%
%ADD16R,0.0632X0.0790*%
%ADD17R,0.0593X0.0554*%
%ADD18R,0.2129X0.2129*%
%ADD19C,0.0270*%
%ADD20OC8,0.0760*%
%ADD21R,0.1144X0.1144*%
%ADD22C,0.0298*%
%ADD23R,0.0760X0.0760*%
%ADD24C,0.0760*%
%ADD25R,0.0554X0.0632*%
%ADD26R,0.0720X0.0720*%
%ADD27C,0.0720*%
%ADD28R,0.0325X0.0790*%
%ADD29R,0.0987X0.0987*%
%ADD30R,0.0751X0.0947*%
%ADD31R,0.0611X0.0927*%
%ADD32R,0.0377X0.0396*%
%ADD33R,0.1184X0.0475*%
%ADD34R,0.0388X0.0258*%
%ADD35R,0.0258X0.0388*%
%ADD36R,0.0258X0.0475*%
%ADD37C,0.1410*%
%ADD38R,0.0820X0.0270*%
%ADD39R,0.0270X0.0820*%
%ADD40R,0.0660X0.0410*%
%ADD41R,0.1160X0.0660*%
%ADD42R,0.0900X0.0900*%
%ADD43C,0.0900*%
%ADD44OC8,0.0720*%
%ADD45OC8,0.0820*%
D10*
X004544Y000650D03*
X005016Y000650D03*
X005026Y001300D03*
X004554Y001300D03*
X006084Y001300D03*
X006064Y000620D03*
X006536Y000620D03*
X006556Y001300D03*
X012764Y005000D03*
X013236Y005000D03*
X019364Y001500D03*
X019836Y001500D03*
X019836Y000850D03*
X019364Y000850D03*
X020774Y000850D03*
X021246Y000850D03*
X021226Y001500D03*
X020754Y001500D03*
X011736Y017950D03*
X011264Y017950D03*
X011264Y019350D03*
X011736Y019350D03*
X011906Y019840D03*
X011434Y019840D03*
X010836Y019840D03*
X010364Y019840D03*
X009266Y024520D03*
X008794Y024520D03*
G36*
X014433Y036375D02*
X014099Y036041D01*
X013791Y036349D01*
X014125Y036683D01*
X014433Y036375D01*
G37*
G36*
X014767Y036709D02*
X014433Y036375D01*
X014125Y036683D01*
X014459Y037017D01*
X014767Y036709D01*
G37*
G36*
X015280Y036662D02*
X014946Y036996D01*
X015254Y037304D01*
X015588Y036970D01*
X015280Y036662D01*
G37*
G36*
X014946Y036996D02*
X014612Y037330D01*
X014920Y037638D01*
X015254Y037304D01*
X014946Y036996D01*
G37*
G36*
X015640Y037598D02*
X015306Y037264D01*
X014998Y037572D01*
X015332Y037906D01*
X015640Y037598D01*
G37*
G36*
X015974Y037932D02*
X015640Y037598D01*
X015332Y037906D01*
X015666Y038240D01*
X015974Y037932D01*
G37*
G36*
X015231Y039189D02*
X015565Y038855D01*
X015257Y038547D01*
X014923Y038881D01*
X015231Y039189D01*
G37*
G36*
X014897Y039523D02*
X015231Y039189D01*
X014923Y038881D01*
X014589Y039215D01*
X014897Y039523D01*
G37*
X013886Y041300D03*
X013886Y041744D03*
X013414Y041744D03*
X013414Y041300D03*
X018721Y040175D03*
X019194Y040175D03*
X019244Y038335D03*
X019236Y037850D03*
X019236Y037380D03*
X018764Y037380D03*
X018764Y037850D03*
X018771Y038335D03*
X018764Y036680D03*
X019236Y036680D03*
X020464Y035050D03*
X020936Y035050D03*
X021141Y039565D03*
X021139Y039985D03*
X021611Y039985D03*
X021614Y039565D03*
X019636Y042250D03*
X019164Y042250D03*
X017596Y027930D03*
X017596Y027420D03*
X017124Y027420D03*
X017124Y027930D03*
X007486Y036825D03*
X007486Y037575D03*
X007014Y037575D03*
X006536Y037600D03*
X006536Y036825D03*
X007014Y036825D03*
X006064Y036825D03*
X006064Y037600D03*
X006064Y038287D03*
X006064Y039025D03*
X006536Y039025D03*
X006536Y038287D03*
X007014Y038275D03*
X007486Y038275D03*
D11*
X008300Y039464D03*
X008300Y039936D03*
X008950Y040714D03*
X008950Y041186D03*
X010100Y041864D03*
X010550Y041864D03*
X010550Y042336D03*
X010100Y042336D03*
X011050Y040506D03*
X011050Y040034D03*
X011736Y041668D03*
X011736Y042140D03*
X012144Y042142D03*
X012144Y041670D03*
X009250Y036876D03*
X009250Y036404D03*
X008750Y035586D03*
X008750Y035114D03*
X007300Y035174D03*
X007300Y035646D03*
X006650Y035646D03*
X006650Y035174D03*
X006000Y035174D03*
X006000Y035646D03*
X012744Y035425D03*
X012744Y034953D03*
X013355Y034953D03*
X013355Y035425D03*
X014434Y035425D03*
X014434Y034953D03*
X015000Y034954D03*
X015000Y035426D03*
X015575Y035426D03*
X015575Y034954D03*
X017963Y035964D03*
X017963Y036436D03*
X017951Y037204D03*
X017951Y037676D03*
X017950Y038414D03*
X017950Y038886D03*
X018527Y035777D03*
X018527Y035305D03*
X019010Y035304D03*
X019462Y035301D03*
X019462Y035774D03*
X019010Y035776D03*
X015870Y027816D03*
X015870Y027344D03*
X015870Y019906D03*
X015870Y019434D03*
X016960Y004136D03*
X016960Y003664D03*
X009100Y003764D03*
X009100Y004236D03*
D12*
X009938Y039729D03*
X009938Y040811D03*
X021613Y040769D03*
X021613Y041851D03*
D13*
X020391Y041338D03*
X019309Y041338D03*
X018031Y028530D03*
X016949Y028530D03*
D14*
X008950Y039425D03*
X008950Y040095D03*
D15*
X005196Y038850D03*
X005196Y038653D03*
X005196Y038456D03*
X004723Y038456D03*
X004723Y038653D03*
X004723Y038850D03*
D16*
X021267Y036898D03*
X022448Y036898D03*
D17*
X021966Y036045D03*
X021296Y036045D03*
X020972Y039052D03*
X021641Y039052D03*
X017785Y020510D03*
X017775Y019850D03*
X017775Y019240D03*
X017775Y018640D03*
X017785Y018000D03*
X017115Y018000D03*
X017105Y018640D03*
X017105Y019240D03*
X017105Y019850D03*
X017115Y020510D03*
D18*
G36*
X012550Y039754D02*
X014054Y038250D01*
X012550Y036746D01*
X011046Y038250D01*
X012550Y039754D01*
G37*
D19*
X012923Y040154D02*
X013073Y040304D01*
X013212Y040165D02*
X013062Y040015D01*
X013202Y039876D02*
X013352Y040026D01*
X013491Y039887D02*
X013341Y039737D01*
X013480Y039598D02*
X013630Y039748D01*
X013769Y039608D02*
X013619Y039458D01*
X013758Y039319D02*
X013908Y039469D01*
X014048Y039330D02*
X013898Y039180D01*
X014037Y039041D02*
X014187Y039191D01*
X014326Y039052D02*
X014176Y038902D01*
X014315Y038762D02*
X014465Y038912D01*
X014604Y038773D02*
X014454Y038623D01*
X014594Y038484D02*
X014744Y038634D01*
X014883Y038495D02*
X014733Y038345D01*
X014733Y038155D02*
X014883Y038005D01*
X014744Y037866D02*
X014594Y038016D01*
X014454Y037877D02*
X014604Y037727D01*
X014465Y037588D02*
X014315Y037738D01*
X014176Y037598D02*
X014326Y037448D01*
X014187Y037309D02*
X014037Y037459D01*
X013898Y037320D02*
X014048Y037170D01*
X013908Y037031D02*
X013758Y037181D01*
X013619Y037042D02*
X013769Y036892D01*
X013630Y036753D02*
X013480Y036903D01*
X013341Y036763D02*
X013491Y036613D01*
X013352Y036474D02*
X013202Y036624D01*
X013062Y036485D02*
X013212Y036335D01*
X013073Y036196D02*
X012923Y036346D01*
X012784Y036207D02*
X012934Y036057D01*
X012795Y035917D02*
X012645Y036067D01*
X012455Y036067D02*
X012305Y035917D01*
X012166Y036057D02*
X012316Y036207D01*
X012177Y036346D02*
X012027Y036196D01*
X011888Y036335D02*
X012038Y036485D01*
X011898Y036624D02*
X011748Y036474D01*
X011609Y036613D02*
X011759Y036763D01*
X011620Y036903D02*
X011470Y036753D01*
X011331Y036892D02*
X011481Y037042D01*
X011342Y037181D02*
X011192Y037031D01*
X011053Y037170D02*
X011203Y037320D01*
X011063Y037459D02*
X010913Y037309D01*
X010774Y037448D02*
X010924Y037598D01*
X010785Y037738D02*
X010635Y037588D01*
X010496Y037727D02*
X010646Y037877D01*
X010507Y038016D02*
X010357Y037866D01*
X010217Y038005D02*
X010367Y038155D01*
X010367Y038345D02*
X010217Y038495D01*
X010357Y038634D02*
X010507Y038484D01*
X010646Y038623D02*
X010496Y038773D01*
X010635Y038912D02*
X010785Y038762D01*
X010924Y038902D02*
X010774Y039052D01*
X010913Y039191D02*
X011063Y039041D01*
X011203Y039180D02*
X011053Y039330D01*
X011192Y039469D02*
X011342Y039319D01*
X011481Y039458D02*
X011331Y039608D01*
X011470Y039748D02*
X011620Y039598D01*
X011759Y039737D02*
X011609Y039887D01*
X011748Y040026D02*
X011898Y039876D01*
X012038Y040015D02*
X011888Y040165D01*
X012027Y040304D02*
X012177Y040154D01*
X012316Y040294D02*
X012166Y040444D01*
X012305Y040583D02*
X012455Y040433D01*
X012645Y040433D02*
X012795Y040583D01*
X012934Y040444D02*
X012784Y040294D01*
D20*
X013000Y034000D03*
X013000Y033000D03*
X013000Y032000D03*
X014000Y032000D03*
X014000Y033000D03*
X014000Y034000D03*
X015000Y034000D03*
X015000Y033000D03*
X015000Y032000D03*
X016000Y032000D03*
X016000Y033000D03*
X017000Y033000D03*
X017000Y032000D03*
X018000Y032000D03*
X018000Y033000D03*
X019000Y033000D03*
X019000Y032000D03*
X020000Y032000D03*
X020000Y033000D03*
X021000Y033000D03*
X021000Y032000D03*
X022000Y032000D03*
X022000Y033000D03*
X017000Y036150D03*
X017000Y037150D03*
X012000Y034000D03*
X011000Y034000D03*
X010000Y034000D03*
X009000Y034000D03*
D21*
X016750Y040400D03*
D22*
X016622Y039741D02*
X016622Y039603D01*
X016366Y039603D02*
X016366Y039741D01*
X016091Y040016D02*
X015953Y040016D01*
X015953Y040272D02*
X016091Y040272D01*
X016091Y040528D02*
X015953Y040528D01*
X015953Y040784D02*
X016091Y040784D01*
X016366Y041059D02*
X016366Y041197D01*
X016622Y041197D02*
X016622Y041059D01*
X016878Y041059D02*
X016878Y041197D01*
X017134Y041197D02*
X017134Y041059D01*
X017409Y040784D02*
X017547Y040784D01*
X017547Y040528D02*
X017409Y040528D01*
X017409Y040272D02*
X017547Y040272D01*
X017547Y040016D02*
X017409Y040016D01*
X017134Y039741D02*
X017134Y039603D01*
X016878Y039603D02*
X016878Y039741D01*
D23*
X003500Y006600D03*
X004000Y003000D03*
X022000Y003000D03*
D24*
X022000Y004000D03*
X022000Y005000D03*
X021500Y006600D03*
X020500Y006600D03*
X019500Y006600D03*
X018500Y006600D03*
X017500Y006600D03*
X016500Y006600D03*
X015500Y006600D03*
X014500Y006600D03*
X013500Y006600D03*
X012500Y006600D03*
X011500Y006600D03*
X010500Y006600D03*
X009500Y006600D03*
X008500Y006600D03*
X007500Y006600D03*
X006500Y006600D03*
X005500Y006600D03*
X004500Y006600D03*
X004000Y005000D03*
X004000Y004000D03*
X004500Y016600D03*
X005500Y016600D03*
X006500Y016600D03*
X007500Y016600D03*
X008500Y016600D03*
X009500Y016600D03*
X010500Y016600D03*
X011500Y016600D03*
X012500Y016600D03*
X013500Y016600D03*
X014500Y016600D03*
X015500Y016600D03*
X016500Y016600D03*
X017500Y016600D03*
X018500Y016600D03*
X019500Y016600D03*
X020500Y016600D03*
X021500Y016600D03*
X022500Y006600D03*
D25*
X016114Y003240D03*
X015366Y003240D03*
X010634Y003160D03*
X009886Y003160D03*
X014386Y041260D03*
X014386Y041960D03*
X015134Y041960D03*
X015134Y041260D03*
D26*
X015000Y005000D03*
X011000Y005000D03*
D27*
X010000Y005000D03*
X016000Y005000D03*
D28*
X006212Y041088D03*
X005956Y041088D03*
X005700Y041088D03*
X005444Y041088D03*
X005188Y041088D03*
D29*
X004420Y041344D03*
X006980Y041344D03*
D30*
X007491Y042368D03*
X003909Y042368D03*
D31*
X005300Y042380D03*
X006100Y042360D03*
D32*
X019925Y040356D03*
X019925Y039844D03*
X020654Y040100D03*
X019925Y038706D03*
X019925Y038194D03*
X020654Y038450D03*
X019925Y037356D03*
X019925Y036844D03*
X020654Y037100D03*
X021325Y037794D03*
X021325Y038306D03*
X022054Y038050D03*
D33*
G36*
X011580Y035519D02*
X010743Y034682D01*
X010408Y035017D01*
X011245Y035854D01*
X011580Y035519D01*
G37*
G36*
X011163Y035936D02*
X010326Y035099D01*
X009991Y035434D01*
X010828Y036271D01*
X011163Y035936D01*
G37*
G36*
X010745Y036354D02*
X009908Y035517D01*
X009573Y035852D01*
X010410Y036689D01*
X010745Y036354D01*
G37*
D34*
X021544Y035247D03*
X021544Y035050D03*
X021544Y034853D03*
X022056Y034853D03*
X022056Y035050D03*
X022056Y035247D03*
D35*
X021800Y035267D03*
X021800Y034833D03*
D36*
X009000Y037797D03*
X008803Y037797D03*
X008606Y037797D03*
X008606Y038250D03*
X008803Y038250D03*
X009000Y038250D03*
D37*
X002500Y001000D03*
X023500Y001000D03*
X023500Y042000D03*
X002500Y042000D03*
D38*
X010500Y026010D03*
X010500Y025820D03*
X010500Y025620D03*
X010500Y025420D03*
X010500Y025220D03*
X010500Y025030D03*
X010500Y024830D03*
X010500Y024630D03*
X010500Y024440D03*
X010500Y024240D03*
X010500Y024040D03*
X010500Y023850D03*
X010500Y023650D03*
X010500Y023450D03*
X010500Y023260D03*
X010500Y023060D03*
X010500Y022860D03*
X010500Y022670D03*
X010500Y022470D03*
X010500Y022270D03*
X010500Y022080D03*
X010500Y021880D03*
X010500Y021680D03*
X010500Y021480D03*
X010500Y021290D03*
X016500Y021290D03*
X016500Y021480D03*
X016500Y021680D03*
X016500Y021880D03*
X016500Y022080D03*
X016500Y022270D03*
X016500Y022470D03*
X016500Y022670D03*
X016500Y022860D03*
X016500Y023060D03*
X016500Y023260D03*
X016500Y023450D03*
X016500Y023650D03*
X016500Y023850D03*
X016500Y024040D03*
X016500Y024240D03*
X016500Y024440D03*
X016500Y024630D03*
X016500Y024830D03*
X016500Y025030D03*
X016500Y025220D03*
X016500Y025420D03*
X016500Y025620D03*
X016500Y025820D03*
X016500Y026010D03*
D39*
X015860Y026650D03*
X015670Y026650D03*
X015470Y026650D03*
X015270Y026650D03*
X015070Y026650D03*
X014880Y026650D03*
X014680Y026650D03*
X014480Y026650D03*
X014290Y026650D03*
X014090Y026650D03*
X013890Y026650D03*
X013700Y026650D03*
X013500Y026650D03*
X013300Y026650D03*
X013110Y026650D03*
X012910Y026650D03*
X012710Y026650D03*
X012520Y026650D03*
X012320Y026650D03*
X012120Y026650D03*
X011930Y026650D03*
X011730Y026650D03*
X011530Y026650D03*
X011330Y026650D03*
X011140Y026650D03*
X011140Y020650D03*
X011330Y020650D03*
X011530Y020650D03*
X011730Y020650D03*
X011930Y020650D03*
X012120Y020650D03*
X012320Y020650D03*
X012520Y020650D03*
X012710Y020650D03*
X012910Y020650D03*
X013110Y020650D03*
X013300Y020650D03*
X013500Y020650D03*
X013700Y020650D03*
X013890Y020650D03*
X014090Y020650D03*
X014290Y020650D03*
X014480Y020650D03*
X014680Y020650D03*
X014880Y020650D03*
X015070Y020650D03*
X015270Y020650D03*
X015470Y020650D03*
X015670Y020650D03*
X015860Y020650D03*
D40*
X012094Y018835D03*
X012094Y018465D03*
D41*
X009838Y018650D03*
D42*
X005000Y028000D03*
X004000Y028000D03*
X021000Y028000D03*
X022000Y028000D03*
D43*
X022000Y027000D03*
X022000Y026000D03*
X022000Y025000D03*
X022000Y024000D03*
X022000Y023000D03*
X022000Y022000D03*
X022000Y021000D03*
X022000Y020000D03*
X022000Y019000D03*
X021000Y019000D03*
X021000Y020000D03*
X021000Y021000D03*
X021000Y022000D03*
X021000Y023000D03*
X021000Y024000D03*
X021000Y025000D03*
X021000Y026000D03*
X021000Y027000D03*
X005000Y027000D03*
X005000Y026000D03*
X005000Y025000D03*
X005000Y024000D03*
X005000Y023000D03*
X005000Y022000D03*
X005000Y021000D03*
X005000Y020000D03*
X005000Y019000D03*
X004000Y019000D03*
X004000Y020000D03*
X004000Y021000D03*
X004000Y022000D03*
X004000Y023000D03*
X004000Y024000D03*
X004000Y025000D03*
X004000Y026000D03*
X004000Y027000D03*
D44*
X009500Y002000D03*
X009500Y001000D03*
X010500Y001000D03*
X010500Y002000D03*
X011500Y002000D03*
X011500Y001000D03*
X012500Y001000D03*
X012500Y002000D03*
X013500Y002000D03*
X013500Y001000D03*
X014500Y001000D03*
X014500Y002000D03*
X015500Y002000D03*
X015500Y001000D03*
X016500Y001000D03*
X016500Y002000D03*
D45*
X018030Y004000D03*
X019999Y004000D03*
X007969Y004000D03*
X006000Y004000D03*
X005000Y031000D03*
X003031Y031000D03*
M02*
