G75*
%MOIN*%
%OFA0B0*%
%FSLAX24Y24*%
%IPPOS*%
%LPD*%
%AMOC8*
5,1,8,0,0,1.08239X$1,22.5*
%
%ADD10C,0.0100*%
%ADD11C,0.0000*%
D10*
X001500Y000000D02*
X001500Y043000D01*
X024500Y043000D01*
X024500Y000000D01*
X001500Y000000D01*
D11*
X001875Y001000D02*
X001877Y001050D01*
X001883Y001099D01*
X001893Y001148D01*
X001906Y001195D01*
X001924Y001242D01*
X001945Y001287D01*
X001969Y001330D01*
X001997Y001371D01*
X002028Y001410D01*
X002062Y001446D01*
X002099Y001480D01*
X002139Y001510D01*
X002180Y001537D01*
X002224Y001561D01*
X002269Y001581D01*
X002316Y001597D01*
X002364Y001610D01*
X002413Y001619D01*
X002463Y001624D01*
X002512Y001625D01*
X002562Y001622D01*
X002611Y001615D01*
X002660Y001604D01*
X002707Y001590D01*
X002753Y001571D01*
X002798Y001549D01*
X002841Y001524D01*
X002881Y001495D01*
X002919Y001463D01*
X002955Y001429D01*
X002988Y001391D01*
X003017Y001351D01*
X003043Y001309D01*
X003066Y001265D01*
X003085Y001219D01*
X003101Y001172D01*
X003113Y001123D01*
X003121Y001074D01*
X003125Y001025D01*
X003125Y000975D01*
X003121Y000926D01*
X003113Y000877D01*
X003101Y000828D01*
X003085Y000781D01*
X003066Y000735D01*
X003043Y000691D01*
X003017Y000649D01*
X002988Y000609D01*
X002955Y000571D01*
X002919Y000537D01*
X002881Y000505D01*
X002841Y000476D01*
X002798Y000451D01*
X002753Y000429D01*
X002707Y000410D01*
X002660Y000396D01*
X002611Y000385D01*
X002562Y000378D01*
X002512Y000375D01*
X002463Y000376D01*
X002413Y000381D01*
X002364Y000390D01*
X002316Y000403D01*
X002269Y000419D01*
X002224Y000439D01*
X002180Y000463D01*
X002139Y000490D01*
X002099Y000520D01*
X002062Y000554D01*
X002028Y000590D01*
X001997Y000629D01*
X001969Y000670D01*
X001945Y000713D01*
X001924Y000758D01*
X001906Y000805D01*
X001893Y000852D01*
X001883Y000901D01*
X001877Y000950D01*
X001875Y001000D01*
X022875Y001000D02*
X022877Y001050D01*
X022883Y001099D01*
X022893Y001148D01*
X022906Y001195D01*
X022924Y001242D01*
X022945Y001287D01*
X022969Y001330D01*
X022997Y001371D01*
X023028Y001410D01*
X023062Y001446D01*
X023099Y001480D01*
X023139Y001510D01*
X023180Y001537D01*
X023224Y001561D01*
X023269Y001581D01*
X023316Y001597D01*
X023364Y001610D01*
X023413Y001619D01*
X023463Y001624D01*
X023512Y001625D01*
X023562Y001622D01*
X023611Y001615D01*
X023660Y001604D01*
X023707Y001590D01*
X023753Y001571D01*
X023798Y001549D01*
X023841Y001524D01*
X023881Y001495D01*
X023919Y001463D01*
X023955Y001429D01*
X023988Y001391D01*
X024017Y001351D01*
X024043Y001309D01*
X024066Y001265D01*
X024085Y001219D01*
X024101Y001172D01*
X024113Y001123D01*
X024121Y001074D01*
X024125Y001025D01*
X024125Y000975D01*
X024121Y000926D01*
X024113Y000877D01*
X024101Y000828D01*
X024085Y000781D01*
X024066Y000735D01*
X024043Y000691D01*
X024017Y000649D01*
X023988Y000609D01*
X023955Y000571D01*
X023919Y000537D01*
X023881Y000505D01*
X023841Y000476D01*
X023798Y000451D01*
X023753Y000429D01*
X023707Y000410D01*
X023660Y000396D01*
X023611Y000385D01*
X023562Y000378D01*
X023512Y000375D01*
X023463Y000376D01*
X023413Y000381D01*
X023364Y000390D01*
X023316Y000403D01*
X023269Y000419D01*
X023224Y000439D01*
X023180Y000463D01*
X023139Y000490D01*
X023099Y000520D01*
X023062Y000554D01*
X023028Y000590D01*
X022997Y000629D01*
X022969Y000670D01*
X022945Y000713D01*
X022924Y000758D01*
X022906Y000805D01*
X022893Y000852D01*
X022883Y000901D01*
X022877Y000950D01*
X022875Y001000D01*
X022875Y042000D02*
X022877Y042050D01*
X022883Y042099D01*
X022893Y042148D01*
X022906Y042195D01*
X022924Y042242D01*
X022945Y042287D01*
X022969Y042330D01*
X022997Y042371D01*
X023028Y042410D01*
X023062Y042446D01*
X023099Y042480D01*
X023139Y042510D01*
X023180Y042537D01*
X023224Y042561D01*
X023269Y042581D01*
X023316Y042597D01*
X023364Y042610D01*
X023413Y042619D01*
X023463Y042624D01*
X023512Y042625D01*
X023562Y042622D01*
X023611Y042615D01*
X023660Y042604D01*
X023707Y042590D01*
X023753Y042571D01*
X023798Y042549D01*
X023841Y042524D01*
X023881Y042495D01*
X023919Y042463D01*
X023955Y042429D01*
X023988Y042391D01*
X024017Y042351D01*
X024043Y042309D01*
X024066Y042265D01*
X024085Y042219D01*
X024101Y042172D01*
X024113Y042123D01*
X024121Y042074D01*
X024125Y042025D01*
X024125Y041975D01*
X024121Y041926D01*
X024113Y041877D01*
X024101Y041828D01*
X024085Y041781D01*
X024066Y041735D01*
X024043Y041691D01*
X024017Y041649D01*
X023988Y041609D01*
X023955Y041571D01*
X023919Y041537D01*
X023881Y041505D01*
X023841Y041476D01*
X023798Y041451D01*
X023753Y041429D01*
X023707Y041410D01*
X023660Y041396D01*
X023611Y041385D01*
X023562Y041378D01*
X023512Y041375D01*
X023463Y041376D01*
X023413Y041381D01*
X023364Y041390D01*
X023316Y041403D01*
X023269Y041419D01*
X023224Y041439D01*
X023180Y041463D01*
X023139Y041490D01*
X023099Y041520D01*
X023062Y041554D01*
X023028Y041590D01*
X022997Y041629D01*
X022969Y041670D01*
X022945Y041713D01*
X022924Y041758D01*
X022906Y041805D01*
X022893Y041852D01*
X022883Y041901D01*
X022877Y041950D01*
X022875Y042000D01*
X001875Y042000D02*
X001877Y042050D01*
X001883Y042099D01*
X001893Y042148D01*
X001906Y042195D01*
X001924Y042242D01*
X001945Y042287D01*
X001969Y042330D01*
X001997Y042371D01*
X002028Y042410D01*
X002062Y042446D01*
X002099Y042480D01*
X002139Y042510D01*
X002180Y042537D01*
X002224Y042561D01*
X002269Y042581D01*
X002316Y042597D01*
X002364Y042610D01*
X002413Y042619D01*
X002463Y042624D01*
X002512Y042625D01*
X002562Y042622D01*
X002611Y042615D01*
X002660Y042604D01*
X002707Y042590D01*
X002753Y042571D01*
X002798Y042549D01*
X002841Y042524D01*
X002881Y042495D01*
X002919Y042463D01*
X002955Y042429D01*
X002988Y042391D01*
X003017Y042351D01*
X003043Y042309D01*
X003066Y042265D01*
X003085Y042219D01*
X003101Y042172D01*
X003113Y042123D01*
X003121Y042074D01*
X003125Y042025D01*
X003125Y041975D01*
X003121Y041926D01*
X003113Y041877D01*
X003101Y041828D01*
X003085Y041781D01*
X003066Y041735D01*
X003043Y041691D01*
X003017Y041649D01*
X002988Y041609D01*
X002955Y041571D01*
X002919Y041537D01*
X002881Y041505D01*
X002841Y041476D01*
X002798Y041451D01*
X002753Y041429D01*
X002707Y041410D01*
X002660Y041396D01*
X002611Y041385D01*
X002562Y041378D01*
X002512Y041375D01*
X002463Y041376D01*
X002413Y041381D01*
X002364Y041390D01*
X002316Y041403D01*
X002269Y041419D01*
X002224Y041439D01*
X002180Y041463D01*
X002139Y041490D01*
X002099Y041520D01*
X002062Y041554D01*
X002028Y041590D01*
X001997Y041629D01*
X001969Y041670D01*
X001945Y041713D01*
X001924Y041758D01*
X001906Y041805D01*
X001893Y041852D01*
X001883Y041901D01*
X001877Y041950D01*
X001875Y042000D01*
M02*
