G75*
%MOIN*%
%OFA0B0*%
%FSLAX24Y24*%
%IPPOS*%
%LPD*%
%AMOC8*
5,1,8,0,0,1.08239X$1,22.5*
%
%ADD10C,0.0030*%
%ADD11C,0.0040*%
%ADD12R,0.1415X0.0005*%
%ADD13R,0.1420X0.0005*%
%ADD14R,0.1425X0.0005*%
%ADD15R,0.1430X0.0005*%
%ADD16R,0.1435X0.0005*%
%ADD17R,0.1440X0.0005*%
%ADD18R,0.1445X0.0005*%
%ADD19R,0.1450X0.0005*%
%ADD20R,0.1455X0.0005*%
%ADD21R,0.1460X0.0005*%
%ADD22R,0.1465X0.0005*%
%ADD23R,0.1470X0.0005*%
%ADD24R,0.1475X0.0005*%
%ADD25R,0.1480X0.0005*%
%ADD26R,0.1485X0.0005*%
%ADD27R,0.1490X0.0005*%
%ADD28R,0.1495X0.0005*%
%ADD29R,0.1500X0.0005*%
%ADD30R,0.1505X0.0005*%
%ADD31R,0.1510X0.0005*%
%ADD32R,0.1515X0.0005*%
%ADD33R,0.1520X0.0005*%
%ADD34R,0.1525X0.0005*%
%ADD35R,0.1530X0.0005*%
%ADD36R,0.1535X0.0005*%
%ADD37R,0.1540X0.0005*%
%ADD38R,0.1545X0.0005*%
%ADD39R,0.1550X0.0005*%
%ADD40R,0.1555X0.0005*%
%ADD41R,0.1560X0.0005*%
%ADD42R,0.1565X0.0005*%
%ADD43R,0.1570X0.0005*%
%ADD44R,0.1575X0.0005*%
%ADD45R,0.1580X0.0005*%
%ADD46R,0.1585X0.0005*%
%ADD47R,0.1590X0.0005*%
%ADD48R,0.1595X0.0005*%
%ADD49R,0.1600X0.0005*%
%ADD50R,0.1605X0.0005*%
%ADD51R,0.1610X0.0005*%
%ADD52R,0.1615X0.0005*%
%ADD53R,0.1620X0.0005*%
%ADD54R,0.1625X0.0005*%
%ADD55R,0.0435X0.0005*%
%ADD56R,0.0730X0.0005*%
%ADD57R,0.0395X0.0005*%
%ADD58R,0.0405X0.0005*%
%ADD59R,0.0670X0.0005*%
%ADD60R,0.0360X0.0005*%
%ADD61R,0.0255X0.0005*%
%ADD62R,0.0260X0.0005*%
%ADD63R,0.0345X0.0005*%
%ADD64R,0.0390X0.0005*%
%ADD65R,0.0245X0.0005*%
%ADD66R,0.0330X0.0005*%
%ADD67R,0.0380X0.0005*%
%ADD68R,0.0235X0.0005*%
%ADD69R,0.0320X0.0005*%
%ADD70R,0.0220X0.0005*%
%ADD71R,0.0225X0.0005*%
%ADD72R,0.0315X0.0005*%
%ADD73R,0.0375X0.0005*%
%ADD74R,0.0210X0.0005*%
%ADD75R,0.0305X0.0005*%
%ADD76R,0.0205X0.0005*%
%ADD77R,0.0300X0.0005*%
%ADD78R,0.0195X0.0005*%
%ADD79R,0.0200X0.0005*%
%ADD80R,0.0290X0.0005*%
%ADD81R,0.0185X0.0005*%
%ADD82R,0.0190X0.0005*%
%ADD83R,0.0285X0.0005*%
%ADD84R,0.0180X0.0005*%
%ADD85R,0.0280X0.0005*%
%ADD86R,0.0175X0.0005*%
%ADD87R,0.0275X0.0005*%
%ADD88R,0.0170X0.0005*%
%ADD89R,0.0165X0.0005*%
%ADD90R,0.0270X0.0005*%
%ADD91R,0.0155X0.0005*%
%ADD92R,0.0265X0.0005*%
%ADD93R,0.0010X0.0005*%
%ADD94R,0.0005X0.0005*%
%ADD95R,0.0385X0.0005*%
%ADD96R,0.0060X0.0005*%
%ADD97R,0.0150X0.0005*%
%ADD98R,0.0055X0.0005*%
%ADD99R,0.0080X0.0005*%
%ADD100R,0.0145X0.0005*%
%ADD101R,0.0095X0.0005*%
%ADD102R,0.0140X0.0005*%
%ADD103R,0.0105X0.0005*%
%ADD104R,0.0115X0.0005*%
%ADD105R,0.0130X0.0005*%
%ADD106R,0.0250X0.0005*%
%ADD107R,0.0400X0.0005*%
%ADD108R,0.0125X0.0005*%
%ADD109R,0.0135X0.0005*%
%ADD110R,0.0410X0.0005*%
%ADD111R,0.0120X0.0005*%
%ADD112R,0.0415X0.0005*%
%ADD113R,0.0420X0.0005*%
%ADD114R,0.0425X0.0005*%
%ADD115R,0.0430X0.0005*%
%ADD116R,0.0110X0.0005*%
%ADD117R,0.0440X0.0005*%
%ADD118R,0.0445X0.0005*%
%ADD119R,0.0690X0.0005*%
%ADD120R,0.0020X0.0005*%
%ADD121R,0.0695X0.0005*%
%ADD122R,0.0340X0.0005*%
%ADD123R,0.0700X0.0005*%
%ADD124R,0.0335X0.0005*%
%ADD125R,0.0030X0.0005*%
%ADD126R,0.0325X0.0005*%
%ADD127R,0.0040X0.0005*%
%ADD128R,0.0310X0.0005*%
%ADD129R,0.0680X0.0005*%
%ADD130R,0.0635X0.0005*%
%ADD131R,0.0045X0.0005*%
%ADD132R,0.0640X0.0005*%
%ADD133R,0.0050X0.0005*%
%ADD134R,0.0645X0.0005*%
%ADD135R,0.0650X0.0005*%
%ADD136R,0.0215X0.0005*%
%ADD137R,0.0295X0.0005*%
%ADD138R,0.0065X0.0005*%
%ADD139R,0.0070X0.0005*%
%ADD140R,0.0630X0.0005*%
%ADD141R,0.0625X0.0005*%
%ADD142R,0.0075X0.0005*%
%ADD143R,0.0620X0.0005*%
%ADD144R,0.0615X0.0005*%
%ADD145R,0.0610X0.0005*%
%ADD146R,0.0085X0.0005*%
%ADD147R,0.0090X0.0005*%
%ADD148R,0.0665X0.0005*%
%ADD149R,0.0100X0.0005*%
%ADD150R,0.0160X0.0005*%
%ADD151R,0.0355X0.0005*%
%ADD152R,0.1410X0.0005*%
%ADD153R,0.0230X0.0005*%
%ADD154R,0.0350X0.0005*%
%ADD155R,0.1630X0.0005*%
%ADD156R,0.0570X0.0005*%
%ADD157R,0.1030X0.0005*%
%ADD158R,0.0535X0.0005*%
%ADD159R,0.1005X0.0005*%
%ADD160R,0.0520X0.0005*%
%ADD161R,0.0505X0.0005*%
%ADD162R,0.0495X0.0005*%
%ADD163R,0.0240X0.0005*%
%ADD164R,0.0485X0.0005*%
%ADD165R,0.0480X0.0005*%
%ADD166R,0.0470X0.0005*%
%ADD167R,0.0465X0.0005*%
%ADD168R,0.0460X0.0005*%
%ADD169R,0.0455X0.0005*%
%ADD170R,0.0450X0.0005*%
%ADD171R,0.0655X0.0005*%
%ADD172R,0.0660X0.0005*%
%ADD173R,0.0675X0.0005*%
%ADD174R,0.0685X0.0005*%
%ADD175R,0.0705X0.0005*%
%ADD176R,0.0710X0.0005*%
%ADD177R,0.0715X0.0005*%
%ADD178R,0.0720X0.0005*%
%ADD179R,0.0725X0.0005*%
%ADD180R,0.0735X0.0005*%
%ADD181R,0.0740X0.0005*%
%ADD182R,0.0745X0.0005*%
%ADD183R,0.0750X0.0005*%
%ADD184R,0.0755X0.0005*%
%ADD185R,0.0760X0.0005*%
%ADD186R,0.0765X0.0005*%
%ADD187R,0.0770X0.0005*%
%ADD188R,0.0035X0.0005*%
%ADD189R,0.0015X0.0005*%
%ADD190R,0.0600X0.0005*%
%ADD191R,0.0595X0.0005*%
%ADD192R,0.0590X0.0005*%
%ADD193R,0.0580X0.0005*%
%ADD194R,0.0575X0.0005*%
%ADD195R,0.0560X0.0005*%
%ADD196R,0.0555X0.0005*%
%ADD197R,0.0550X0.0005*%
%ADD198R,0.0540X0.0005*%
%ADD199R,0.0530X0.0005*%
%ADD200R,0.0515X0.0005*%
%ADD201R,0.0510X0.0005*%
%ADD202R,0.0475X0.0005*%
%ADD203R,0.0500X0.0005*%
%ADD204R,0.0490X0.0005*%
%ADD205R,0.1635X0.0005*%
%ADD206R,0.0060X0.0007*%
%ADD207R,0.0067X0.0007*%
%ADD208R,0.0047X0.0007*%
%ADD209R,0.0106X0.0007*%
%ADD210R,0.0053X0.0007*%
%ADD211R,0.0100X0.0007*%
%ADD212R,0.0113X0.0007*%
%ADD213R,0.0093X0.0007*%
%ADD214R,0.0140X0.0007*%
%ADD215R,0.0133X0.0007*%
%ADD216R,0.0126X0.0007*%
%ADD217R,0.0166X0.0007*%
%ADD218R,0.0160X0.0007*%
%ADD219R,0.0146X0.0007*%
%ADD220R,0.0180X0.0007*%
%ADD221R,0.0080X0.0007*%
%ADD222R,0.0200X0.0007*%
%ADD223R,0.0193X0.0007*%
%ADD224R,0.0086X0.0007*%
%ADD225R,0.0073X0.0007*%
%ADD226R,0.0013X0.0007*%
%ADD227R,0.0060X0.0007*%
%ADD228R,0.0040X0.0007*%
%ADD229R,0.0027X0.0007*%
%ADD230R,0.0033X0.0007*%
%ADD231R,0.0279X0.0007*%
%ADD232R,0.0273X0.0007*%
%ADD233R,0.0086X0.0007*%
%ADD234R,0.0186X0.0007*%
%ADD235R,0.0173X0.0007*%
%ADD236R,0.0120X0.0007*%
%ADD237R,0.0113X0.0007*%
%ADD238R,0.0027X0.0007*%
%ADD239R,0.0126X0.0007*%
%ADD240R,0.0120X0.0007*%
%ADD241R,0.0100X0.0007*%
%ADD242R,0.0266X0.0007*%
%ADD243R,0.0333X0.0007*%
%ADD244R,0.0386X0.0007*%
%ADD245R,0.0432X0.0007*%
%ADD246R,0.0466X0.0007*%
%ADD247R,0.0506X0.0007*%
%ADD248R,0.0546X0.0007*%
%ADD249R,0.0572X0.0007*%
%ADD250R,0.0599X0.0007*%
%ADD251R,0.0625X0.0007*%
%ADD252R,0.0306X0.0007*%
%ADD253R,0.0253X0.0007*%
%ADD254R,0.0246X0.0007*%
%ADD255R,0.0220X0.0007*%
%ADD256R,0.0206X0.0007*%
%ADD257R,0.0153X0.0007*%
%ADD258R,0.0007X0.0007*%
%ADD259R,0.0240X0.0007*%
%ADD260R,0.0293X0.0007*%
%ADD261R,0.0319X0.0007*%
%ADD262R,0.0532X0.0007*%
%ADD263R,0.0359X0.0007*%
%ADD264R,0.0366X0.0007*%
%ADD265R,0.0346X0.0007*%
%ADD266R,0.0559X0.0007*%
%ADD267R,0.0406X0.0007*%
%ADD268R,0.0373X0.0007*%
%ADD269R,0.0586X0.0007*%
%ADD270R,0.0413X0.0007*%
%ADD271R,0.0399X0.0007*%
%ADD272R,0.0459X0.0007*%
%ADD273R,0.0426X0.0007*%
%ADD274R,0.0619X0.0007*%
%ADD275R,0.0452X0.0007*%
%ADD276R,0.0479X0.0007*%
%ADD277R,0.0446X0.0007*%
%ADD278R,0.0632X0.0007*%
%ADD279R,0.0472X0.0007*%
%ADD280R,0.0499X0.0007*%
%ADD281R,0.0645X0.0007*%
%ADD282R,0.0492X0.0007*%
%ADD283R,0.0526X0.0007*%
%ADD284R,0.0486X0.0007*%
%ADD285R,0.0652X0.0007*%
%ADD286R,0.0512X0.0007*%
%ADD287R,0.0665X0.0007*%
%ADD288R,0.0672X0.0007*%
%ADD289R,0.0539X0.0007*%
%ADD290R,0.0679X0.0007*%
%ADD291R,0.0552X0.0007*%
%ADD292R,0.0592X0.0007*%
%ADD293R,0.0692X0.0007*%
%ADD294R,0.0579X0.0007*%
%ADD295R,0.0612X0.0007*%
%ADD296R,0.0699X0.0007*%
%ADD297R,0.0592X0.0007*%
%ADD298R,0.0705X0.0007*%
%ADD299R,0.0605X0.0007*%
%ADD300R,0.0639X0.0007*%
%ADD301R,0.0712X0.0007*%
%ADD302R,0.0719X0.0007*%
%ADD303R,0.0659X0.0007*%
%ADD304R,0.0725X0.0007*%
%ADD305R,0.0685X0.0007*%
%ADD306R,0.0732X0.0007*%
%ADD307R,0.0739X0.0007*%
%ADD308R,0.0745X0.0007*%
%ADD309R,0.0752X0.0007*%
%ADD310R,0.0759X0.0007*%
%ADD311R,0.0313X0.0007*%
%ADD312R,0.0286X0.0007*%
%ADD313R,0.0765X0.0007*%
%ADD314R,0.0353X0.0007*%
%ADD315R,0.0233X0.0007*%
%ADD316R,0.0259X0.0007*%
%ADD317R,0.0339X0.0007*%
%ADD318R,0.0326X0.0007*%
%ADD319R,0.0319X0.0007*%
%ADD320R,0.0299X0.0007*%
%ADD321R,0.0246X0.0007*%
%ADD322R,0.0266X0.0007*%
%ADD323R,0.0239X0.0007*%
%ADD324R,0.0020X0.0007*%
%ADD325R,0.0253X0.0007*%
%ADD326R,0.0785X0.0007*%
%ADD327R,0.0419X0.0007*%
%ADD328R,0.0439X0.0007*%
%ADD329R,0.0526X0.0007*%
%ADD330R,0.0459X0.0007*%
%ADD331R,0.0379X0.0007*%
%ADD332R,0.0273X0.0007*%
%ADD333R,0.0033X0.0007*%
%ADD334R,0.0579X0.0007*%
%ADD335R,0.0566X0.0007*%
%ADD336R,0.0519X0.0007*%
%ADD337R,0.0393X0.0007*%
%ADD338R,0.0213X0.0007*%
%ADD339R,0.0120X0.0007*%
%ADD340R,0.0226X0.0007*%
%ADD341R,0.8044X0.0007*%
%ADD342R,0.0858X0.0007*%
%ADD343R,0.1630X0.0007*%
%ADD344R,0.0852X0.0007*%
%ADD345R,0.1557X0.0007*%
%ADD346R,0.1151X0.0007*%
%ADD347R,0.1371X0.0007*%
%ADD348R,0.1271X0.0007*%
%ADD349R,0.1164X0.0007*%
%ADD350R,0.1357X0.0007*%
%ADD351R,0.1031X0.0007*%
%ADD352R,0.1337X0.0007*%
%ADD353R,0.0872X0.0007*%
%ADD354R,0.1311X0.0007*%
%ADD355R,0.1291X0.0007*%
%ADD356R,0.0772X0.0007*%
%ADD357R,0.1258X0.0007*%
%ADD358R,0.0838X0.0007*%
%ADD359R,0.1238X0.0007*%
%ADD360R,0.0878X0.0007*%
%ADD361R,0.1204X0.0007*%
%ADD362R,0.0825X0.0007*%
%ADD363R,0.1184X0.0007*%
%ADD364R,0.0925X0.0007*%
%ADD365R,0.2249X0.0007*%
%ADD366R,0.2169X0.0007*%
%ADD367R,0.2083X0.0007*%
%ADD368R,0.2003X0.0007*%
%ADD369R,0.1923X0.0007*%
%ADD370R,0.1823X0.0007*%
%ADD371R,0.1737X0.0007*%
%ADD372R,0.1524X0.0007*%
%ADD373R,0.1411X0.0007*%
%ADD374R,0.1364X0.0007*%
%ADD375R,0.1244X0.0007*%
%ADD376R,0.0965X0.0007*%
%ADD377R,0.0812X0.0007*%
%ADD378R,0.1510X0.0007*%
%ADD379R,0.1424X0.0007*%
%ADD380R,0.1331X0.0007*%
%ADD381R,0.1231X0.0007*%
%ADD382R,0.1111X0.0007*%
%ADD383R,0.0985X0.0007*%
%ADD384R,0.0832X0.0007*%
%ADD385R,0.1171X0.0007*%
%ADD386R,0.1124X0.0007*%
%ADD387R,0.1085X0.0007*%
%ADD388R,0.1065X0.0007*%
%ADD389R,0.1011X0.0007*%
%ADD390R,0.0918X0.0007*%
%ADD391R,0.0040X0.0007*%
%ADD392R,0.0106X0.0007*%
%ADD393R,0.0047X0.0007*%
%ADD394R,0.0053X0.0007*%
%ADD395R,0.0140X0.0007*%
%ADD396R,0.0060X0.0007*%
%ADD397C,0.0100*%
%ADD398C,0.0060*%
%ADD399C,0.0050*%
D10*
X007530Y009897D02*
X007653Y009897D01*
X007715Y009958D01*
X007468Y010205D01*
X007468Y009958D01*
X007530Y009897D01*
X007715Y009958D02*
X007715Y010205D01*
X007653Y010267D01*
X007530Y010267D01*
X007468Y010205D01*
X007837Y009958D02*
X007837Y009897D01*
X007899Y009897D01*
X007899Y009958D01*
X007837Y009958D01*
X008020Y009897D02*
X008267Y009897D01*
X008144Y009897D02*
X008144Y010267D01*
X008267Y010143D01*
X008757Y010143D02*
X008880Y009897D01*
X009004Y010143D01*
X009125Y010082D02*
X009125Y010020D01*
X009372Y010020D01*
X009372Y009958D02*
X009372Y010082D01*
X009310Y010143D01*
X009187Y010143D01*
X009125Y010082D01*
X009310Y009897D02*
X009372Y009958D01*
X009310Y009897D02*
X009187Y009897D01*
X009494Y009897D02*
X009617Y010020D01*
X009555Y010020D02*
X009740Y010020D01*
X009740Y009897D02*
X009740Y010267D01*
X009555Y010267D01*
X009494Y010205D01*
X009494Y010082D01*
X009555Y010020D01*
X010230Y010020D02*
X010230Y009958D01*
X010292Y009897D01*
X010415Y009897D01*
X010477Y009958D01*
X010598Y009897D02*
X010722Y010020D01*
X010660Y010020D02*
X010845Y010020D01*
X010845Y009897D02*
X010845Y010267D01*
X010660Y010267D01*
X010598Y010205D01*
X010598Y010082D01*
X010660Y010020D01*
X010477Y010143D02*
X010415Y010082D01*
X010292Y010082D01*
X010230Y010020D01*
X010477Y010143D02*
X010477Y010205D01*
X010415Y010267D01*
X010292Y010267D01*
X010230Y010205D01*
X010967Y010205D02*
X010967Y009958D01*
X011029Y009897D01*
X011152Y009897D01*
X011214Y009958D01*
X011214Y010205D01*
X011152Y010267D01*
X011029Y010267D01*
X010967Y010205D01*
X011335Y010205D02*
X011397Y010267D01*
X011520Y010267D01*
X011582Y010205D01*
X011582Y010143D01*
X011520Y010082D01*
X011397Y010082D01*
X011335Y010020D01*
X011335Y009958D01*
X011397Y009897D01*
X011520Y009897D01*
X011582Y009958D01*
X011703Y009897D02*
X011703Y010267D01*
X011950Y010267D02*
X011703Y009897D01*
X011950Y009897D02*
X011950Y010267D01*
X012072Y010267D02*
X012319Y010267D01*
X012319Y009897D01*
X012072Y009897D01*
X012195Y010082D02*
X012319Y010082D01*
X012440Y010020D02*
X012440Y009958D01*
X012502Y009897D01*
X012625Y009897D01*
X012687Y009958D01*
X012625Y010082D02*
X012502Y010082D01*
X012440Y010020D01*
X012625Y010082D02*
X012687Y010143D01*
X012687Y010205D01*
X012625Y010267D01*
X012502Y010267D01*
X012440Y010205D01*
X012808Y010082D02*
X013055Y010082D01*
X013177Y009897D02*
X013424Y009897D01*
X013424Y010267D01*
X013545Y010267D02*
X013792Y009897D01*
X014037Y009897D02*
X014037Y010267D01*
X014160Y010267D02*
X013913Y010267D01*
X013792Y010267D02*
X013545Y009897D01*
X014282Y009958D02*
X014343Y009897D01*
X014467Y009897D01*
X014529Y009958D01*
X014650Y009958D02*
X014712Y009897D01*
X014835Y009897D01*
X014897Y009958D01*
X014897Y010205D01*
X014835Y010267D01*
X014712Y010267D01*
X014650Y010205D01*
X014650Y009958D01*
X014467Y010082D02*
X014343Y010082D01*
X014282Y010020D01*
X014282Y009958D01*
X014467Y010082D02*
X014529Y010143D01*
X014529Y010205D01*
X014467Y010267D01*
X014343Y010267D01*
X014282Y010205D01*
X015018Y010205D02*
X015018Y009958D01*
X015080Y009897D01*
X015203Y009897D01*
X015265Y009958D01*
X015265Y010205D01*
X015203Y010267D01*
X015080Y010267D01*
X015018Y010205D01*
X015387Y010205D02*
X015387Y010143D01*
X015448Y010082D01*
X015633Y010082D01*
X015448Y010082D02*
X015387Y010020D01*
X015387Y009958D01*
X015448Y009897D01*
X015633Y009897D01*
X015633Y010267D01*
X015448Y010267D01*
X015387Y010205D01*
D11*
X001137Y001762D02*
X001137Y001602D01*
X001137Y001722D02*
X001297Y001722D01*
X001297Y001762D02*
X001297Y001602D01*
X001395Y001642D02*
X001395Y001803D01*
X001435Y001843D01*
X001555Y001843D01*
X001555Y001602D01*
X001435Y001602D01*
X001395Y001642D01*
X001297Y001762D02*
X001217Y001843D01*
X001137Y001762D01*
X001653Y001803D02*
X001693Y001843D01*
X001773Y001843D01*
X001813Y001803D01*
X001813Y001762D01*
X001773Y001722D01*
X001693Y001722D01*
X001653Y001682D01*
X001653Y001642D01*
X001693Y001602D01*
X001773Y001602D01*
X001813Y001642D01*
X001756Y002590D02*
X001796Y002630D01*
X001756Y002590D02*
X001676Y002590D01*
X001636Y002630D01*
X001636Y002670D01*
X001676Y002710D01*
X001756Y002710D01*
X001796Y002750D01*
X001796Y002790D01*
X001756Y002830D01*
X001676Y002830D01*
X001636Y002790D01*
X001539Y002790D02*
X001539Y002630D01*
X001499Y002590D01*
X001418Y002590D01*
X001378Y002630D01*
X001281Y002590D02*
X001121Y002590D01*
X001281Y002590D02*
X001281Y002830D01*
X001378Y002790D02*
X001418Y002830D01*
X001499Y002830D01*
X001539Y002790D01*
X001581Y003590D02*
X001581Y003750D01*
X001661Y003830D01*
X001741Y003750D01*
X001741Y003590D01*
X001839Y003590D02*
X001839Y003830D01*
X001919Y003750D01*
X001999Y003830D01*
X001999Y003590D01*
X001741Y003710D02*
X001581Y003710D01*
X001483Y003630D02*
X001443Y003590D01*
X001363Y003590D01*
X001323Y003630D01*
X001323Y003710D01*
X001403Y003710D01*
X001483Y003790D02*
X001483Y003630D01*
X001225Y003550D02*
X001065Y003550D01*
X000968Y003590D02*
X000887Y003590D01*
X000927Y003590D02*
X000927Y003830D01*
X000887Y003830D02*
X000968Y003830D01*
X000796Y003830D02*
X000636Y003590D01*
X000636Y003830D01*
X000538Y003830D02*
X000378Y003830D01*
X000458Y003830D02*
X000458Y003590D01*
X000796Y003590D02*
X000796Y003830D01*
X001323Y003790D02*
X001363Y003830D01*
X001443Y003830D01*
X001483Y003790D01*
X001481Y006603D02*
X001481Y006843D01*
X001383Y006843D02*
X001223Y006843D01*
X001303Y006843D02*
X001303Y006603D01*
X001481Y006603D02*
X001641Y006843D01*
X001641Y006603D01*
X001733Y006603D02*
X001813Y006603D01*
X001773Y006603D02*
X001773Y006843D01*
X001813Y006843D02*
X001733Y006843D01*
X001125Y006763D02*
X001045Y006843D01*
X001045Y006603D01*
X001125Y006603D02*
X000965Y006603D01*
X021414Y002710D02*
X021574Y002710D01*
X021494Y002710D02*
X021494Y002470D01*
X021672Y002470D02*
X021672Y002710D01*
X021832Y002710D02*
X021672Y002470D01*
X021832Y002470D02*
X021832Y002710D01*
X021924Y002710D02*
X022004Y002710D01*
X021964Y002710D02*
X021964Y002470D01*
X022004Y002470D02*
X021924Y002470D01*
X022101Y002430D02*
X022262Y002430D01*
X022399Y002550D02*
X022519Y002550D01*
X022519Y002470D02*
X022519Y002710D01*
X022399Y002710D01*
X022359Y002670D01*
X022359Y002590D01*
X022399Y002550D01*
X022617Y002470D02*
X022617Y002710D01*
X022697Y002630D01*
X022777Y002710D01*
X022777Y002470D01*
X022955Y002470D02*
X022955Y002710D01*
X023035Y002710D02*
X022875Y002710D01*
X022435Y003470D02*
X022355Y003470D01*
X022395Y003470D02*
X022395Y003710D01*
X022435Y003710D02*
X022355Y003710D01*
X022263Y003710D02*
X022103Y003470D01*
X022103Y003710D01*
X022006Y003710D02*
X021846Y003710D01*
X021926Y003710D02*
X021926Y003470D01*
X021748Y003470D02*
X021588Y003630D01*
X021588Y003670D01*
X021628Y003710D01*
X021708Y003710D01*
X021748Y003670D01*
X021748Y003470D02*
X021588Y003470D01*
X022263Y003470D02*
X022263Y003710D01*
X022359Y001710D02*
X022519Y001710D01*
X022439Y001710D02*
X022439Y001470D01*
X022261Y001430D02*
X022101Y001430D01*
X022003Y001470D02*
X021923Y001470D01*
X021963Y001470D02*
X021963Y001710D01*
X022003Y001710D02*
X021923Y001710D01*
X021831Y001710D02*
X021671Y001470D01*
X021671Y001710D01*
X021574Y001710D02*
X021413Y001710D01*
X021494Y001710D02*
X021494Y001470D01*
X021831Y001470D02*
X021831Y001710D01*
X022617Y001670D02*
X022617Y001590D01*
X022657Y001550D01*
X022777Y001550D01*
X022777Y001470D02*
X022777Y001710D01*
X022657Y001710D01*
X022617Y001670D01*
X022874Y001670D02*
X022914Y001710D01*
X022995Y001710D01*
X023035Y001670D01*
X023035Y001510D01*
X022995Y001470D01*
X022914Y001470D01*
X022874Y001510D01*
X022874Y001670D01*
D12*
X022541Y010150D03*
X022541Y011050D03*
X005541Y011053D03*
X005541Y010050D03*
X005541Y009150D03*
X000966Y010153D03*
D13*
X000968Y010158D03*
X000968Y011048D03*
X005538Y010153D03*
X005538Y010045D03*
X005538Y009155D03*
X022539Y010155D03*
X022539Y011045D03*
D14*
X022536Y011040D03*
X022536Y010160D03*
X005536Y010158D03*
X005536Y010040D03*
X005536Y009160D03*
X005536Y011048D03*
X000971Y011043D03*
X000971Y010163D03*
D15*
X000973Y010168D03*
X000973Y011038D03*
X005533Y011043D03*
X005533Y010163D03*
X005533Y010035D03*
X005533Y009165D03*
X022534Y010165D03*
X022534Y011035D03*
D16*
X022531Y011030D03*
X022531Y010170D03*
X005531Y010168D03*
X005531Y010030D03*
X005531Y009170D03*
X005531Y011038D03*
X000976Y011033D03*
X000976Y010173D03*
D17*
X000978Y010178D03*
X000978Y011028D03*
X005528Y011033D03*
X005528Y010173D03*
X005528Y010025D03*
X005528Y009175D03*
X022529Y010175D03*
X022529Y011025D03*
D18*
X022526Y011020D03*
X022526Y010180D03*
X005526Y010178D03*
X005526Y010020D03*
X005526Y009180D03*
X005526Y011028D03*
X000981Y011023D03*
X000981Y010183D03*
D19*
X000983Y010188D03*
X000983Y011018D03*
X005523Y011023D03*
X005523Y010183D03*
X005523Y010015D03*
X005523Y009185D03*
X022524Y010185D03*
X022524Y011015D03*
D20*
X022521Y011010D03*
X022521Y010190D03*
X005521Y010188D03*
X005521Y010010D03*
X005521Y009190D03*
X005521Y011018D03*
X000986Y011013D03*
X000986Y010193D03*
D21*
X000988Y010198D03*
X000988Y011008D03*
X005518Y011013D03*
X005518Y010193D03*
X005518Y010005D03*
X005518Y009195D03*
X022519Y010195D03*
X022519Y011005D03*
D22*
X022516Y011000D03*
X022516Y010200D03*
X005516Y010198D03*
X005516Y010000D03*
X005516Y009200D03*
X005516Y011008D03*
X000991Y011003D03*
X000991Y010203D03*
D23*
X000993Y010208D03*
X000993Y010998D03*
X005513Y011003D03*
X005513Y010203D03*
X005513Y009995D03*
X005513Y009205D03*
X022514Y010205D03*
X022514Y010995D03*
D24*
X022511Y010990D03*
X022511Y010210D03*
X005511Y010208D03*
X005511Y009990D03*
X005511Y009210D03*
X005511Y010998D03*
X000996Y010993D03*
X000996Y010213D03*
D25*
X000998Y010218D03*
X000998Y010988D03*
X005508Y010993D03*
X005508Y010213D03*
X005508Y009985D03*
X005508Y009215D03*
X022509Y010215D03*
X022509Y010985D03*
D26*
X022506Y010980D03*
X022506Y010220D03*
X005506Y010218D03*
X005506Y009980D03*
X005506Y009220D03*
X005506Y010988D03*
X001001Y010983D03*
X001001Y010223D03*
D27*
X001003Y010228D03*
X001003Y010978D03*
X005503Y010983D03*
X005503Y010223D03*
D28*
X005501Y010228D03*
X005501Y010978D03*
X001006Y010973D03*
X001006Y010233D03*
D29*
X001008Y010238D03*
X001008Y010968D03*
X005498Y010973D03*
X005498Y010233D03*
D30*
X005496Y010238D03*
X005496Y010968D03*
X001011Y010963D03*
X001011Y010243D03*
D31*
X001013Y010248D03*
X001013Y010958D03*
X005493Y010963D03*
X005493Y010243D03*
D32*
X005491Y010248D03*
X005491Y010958D03*
X001016Y010953D03*
X001016Y010253D03*
D33*
X001018Y010258D03*
X001018Y010948D03*
X005488Y010953D03*
X005488Y010253D03*
D34*
X005486Y010258D03*
X005486Y010948D03*
X001021Y010943D03*
X001021Y010263D03*
D35*
X001023Y010268D03*
X001023Y010938D03*
X005483Y010943D03*
X005483Y010263D03*
D36*
X005481Y010268D03*
X005481Y010938D03*
X001026Y010933D03*
X001026Y010273D03*
D37*
X001028Y010278D03*
X001028Y010928D03*
X005478Y010933D03*
X005478Y010273D03*
D38*
X005476Y010278D03*
X005476Y010928D03*
X001031Y010923D03*
X001031Y010283D03*
D39*
X001033Y010288D03*
X001033Y010918D03*
X005473Y010923D03*
X005473Y010283D03*
D40*
X005471Y010288D03*
X005471Y010918D03*
X001036Y010913D03*
X001036Y010293D03*
D41*
X001038Y010298D03*
X001038Y010908D03*
X005468Y010913D03*
X005468Y010293D03*
D42*
X005466Y010298D03*
X005466Y010908D03*
X001041Y010903D03*
X001041Y010303D03*
D43*
X001043Y010308D03*
X001043Y010898D03*
X005463Y010903D03*
X005463Y010303D03*
D44*
X005461Y010308D03*
X005461Y010898D03*
X001046Y010893D03*
X001046Y010313D03*
D45*
X001048Y010318D03*
X001048Y010888D03*
X005458Y010893D03*
X005458Y010313D03*
D46*
X005456Y010318D03*
X005456Y010888D03*
X001051Y010883D03*
X001051Y010323D03*
D47*
X001053Y010328D03*
X001053Y010878D03*
X005453Y010883D03*
X005453Y010323D03*
D48*
X005451Y010328D03*
X005451Y010878D03*
X001056Y010873D03*
X001056Y010333D03*
D49*
X001058Y010338D03*
X001058Y010868D03*
X005448Y010873D03*
X005448Y010333D03*
D50*
X005446Y010338D03*
X005446Y010868D03*
X001061Y010863D03*
X001061Y010343D03*
D51*
X001063Y010348D03*
X001063Y010858D03*
X005443Y010863D03*
X005443Y010343D03*
D52*
X005441Y010348D03*
X005441Y010858D03*
X001066Y010853D03*
X001066Y010353D03*
D53*
X001068Y010358D03*
X001068Y010848D03*
X005438Y010853D03*
X005438Y010353D03*
D54*
X005436Y010358D03*
X005436Y010848D03*
X001071Y010843D03*
X001071Y010838D03*
X001071Y010363D03*
D55*
X001671Y010368D03*
X001821Y010518D03*
X001811Y010693D03*
X001806Y010698D03*
X006031Y010603D03*
X006031Y010598D03*
X006031Y010593D03*
X006031Y010588D03*
X006031Y010583D03*
X006031Y010448D03*
X006031Y010443D03*
D56*
X004803Y010543D03*
X004798Y010548D03*
X004773Y010633D03*
X001053Y010368D03*
D57*
X000456Y010368D03*
X001701Y010378D03*
X001791Y010468D03*
X001776Y010748D03*
X001771Y010753D03*
X001701Y010823D03*
D58*
X001786Y010733D03*
X001801Y010483D03*
X001691Y010373D03*
D59*
X001728Y010658D03*
X001723Y010663D03*
X001718Y010668D03*
X001713Y010673D03*
X001053Y010373D03*
X004788Y010678D03*
X004858Y010458D03*
X004863Y010453D03*
D60*
X000438Y010373D03*
D61*
X000386Y010453D03*
X000386Y010458D03*
X000386Y010463D03*
X000386Y010563D03*
X000386Y010568D03*
X000781Y010648D03*
X001241Y010378D03*
X005581Y010728D03*
X005581Y010733D03*
X005581Y010738D03*
X005886Y009425D03*
X022886Y010425D03*
D62*
X022874Y010780D03*
X022034Y010395D03*
X005873Y009780D03*
X005033Y009395D03*
X005468Y010378D03*
X005578Y010723D03*
X000868Y010378D03*
X000388Y010448D03*
X000388Y010573D03*
X000388Y010578D03*
X000388Y010693D03*
X000388Y010698D03*
X000388Y010703D03*
X000388Y010708D03*
X000388Y010713D03*
X000388Y010718D03*
X000388Y010723D03*
X000388Y010728D03*
X000388Y010733D03*
D63*
X000771Y010538D03*
X000771Y010533D03*
X000431Y010378D03*
X004991Y009740D03*
X004991Y009735D03*
X004991Y009460D03*
X005856Y009445D03*
X005856Y009440D03*
X021991Y010460D03*
X021991Y010735D03*
X021991Y010740D03*
X022856Y010445D03*
X022856Y010440D03*
D64*
X001788Y010463D03*
X001783Y010458D03*
X001708Y010383D03*
X001768Y010758D03*
X001763Y010763D03*
X001708Y010818D03*
D65*
X001236Y010383D03*
X000871Y010383D03*
X000381Y010483D03*
X000381Y010488D03*
X000381Y010493D03*
X000381Y010498D03*
X000381Y010503D03*
X000381Y010508D03*
X000381Y010513D03*
X000381Y010518D03*
X000381Y010523D03*
X000381Y010528D03*
X000381Y010533D03*
X000381Y010538D03*
X000381Y010543D03*
X005041Y009390D03*
X005886Y009420D03*
X022041Y010390D03*
X022886Y010420D03*
D66*
X021999Y010440D03*
X021999Y010755D03*
X004998Y009755D03*
X004998Y009440D03*
X000773Y010553D03*
X000423Y010383D03*
X000423Y010818D03*
D67*
X001723Y010808D03*
X001728Y010803D03*
X001733Y010798D03*
X001738Y010793D03*
X001743Y010788D03*
X001748Y010783D03*
X001773Y010443D03*
X001768Y010438D03*
X001723Y010393D03*
X001718Y010388D03*
D68*
X001231Y010388D03*
X000876Y010388D03*
D69*
X000418Y010388D03*
X000418Y010618D03*
X000418Y010813D03*
X005003Y009765D03*
X005003Y009430D03*
X005873Y009745D03*
X022004Y010430D03*
X022004Y010765D03*
X022874Y010745D03*
D70*
X022874Y010795D03*
X022884Y010410D03*
X022054Y010385D03*
X005873Y009795D03*
X005883Y009410D03*
X005053Y009385D03*
X005453Y010398D03*
X001228Y010393D03*
X000813Y010593D03*
X000813Y010598D03*
X000813Y010603D03*
D71*
X000816Y010588D03*
X000816Y010583D03*
X000881Y010393D03*
X005456Y010393D03*
D72*
X005876Y009750D03*
X005006Y009770D03*
X005006Y009425D03*
X000776Y010563D03*
X000416Y010623D03*
X000416Y010808D03*
X000416Y010393D03*
X022006Y010425D03*
X022006Y010770D03*
X022876Y010750D03*
D73*
X001766Y010433D03*
X001761Y010428D03*
X001756Y010423D03*
X001751Y010418D03*
X001746Y010413D03*
X001741Y010408D03*
X001736Y010403D03*
X001731Y010398D03*
X000446Y010833D03*
D74*
X000808Y010633D03*
X000808Y010628D03*
X000808Y010623D03*
X000883Y010398D03*
X001223Y010398D03*
X005448Y010403D03*
X005883Y009405D03*
X022884Y010405D03*
D75*
X022876Y010755D03*
X022011Y010780D03*
X022011Y010420D03*
X005876Y009755D03*
X005011Y009780D03*
X005011Y009420D03*
X000411Y010398D03*
X000411Y010613D03*
X000411Y010628D03*
X000411Y010803D03*
D76*
X000806Y010643D03*
X000806Y010638D03*
X000886Y010403D03*
X001221Y010403D03*
X001051Y010833D03*
X005276Y010833D03*
D77*
X005873Y009760D03*
X005013Y009415D03*
X000783Y010573D03*
X000408Y010403D03*
X000408Y010798D03*
X022014Y010415D03*
X022874Y010760D03*
D78*
X022881Y010400D03*
X005881Y009400D03*
X005446Y010413D03*
X001221Y010408D03*
X001051Y010818D03*
D79*
X001053Y010823D03*
X001053Y010828D03*
X000888Y010408D03*
X005278Y010818D03*
X005278Y010823D03*
X005278Y010828D03*
X005448Y010408D03*
X005873Y009800D03*
X022874Y010800D03*
D80*
X022874Y010765D03*
X022019Y010790D03*
X005873Y009765D03*
X005018Y009790D03*
X000403Y010408D03*
X000403Y010638D03*
X000403Y010788D03*
D81*
X000891Y010418D03*
X001216Y010413D03*
X001051Y010803D03*
X005336Y009525D03*
X022336Y010525D03*
D82*
X005443Y010418D03*
X005278Y010803D03*
X005278Y010808D03*
X005278Y010813D03*
X001053Y010813D03*
X001053Y010808D03*
X000888Y010413D03*
D83*
X000756Y010673D03*
X000756Y010678D03*
X000401Y010643D03*
X000401Y010603D03*
X000401Y010783D03*
X000401Y010413D03*
X005021Y009405D03*
X022021Y010405D03*
D84*
X022334Y010520D03*
X022514Y010670D03*
X022774Y010615D03*
X022774Y010610D03*
X022774Y010605D03*
X022774Y010600D03*
X022774Y010595D03*
X022774Y010590D03*
X022774Y010585D03*
X022774Y010580D03*
X022774Y010575D03*
X022774Y010570D03*
X022774Y010565D03*
X022774Y010560D03*
X022774Y010555D03*
X022774Y010550D03*
X022874Y010805D03*
X005873Y009805D03*
X005773Y009615D03*
X005773Y009610D03*
X005773Y009605D03*
X005773Y009600D03*
X005773Y009595D03*
X005773Y009590D03*
X005773Y009585D03*
X005773Y009580D03*
X005773Y009575D03*
X005773Y009570D03*
X005773Y009565D03*
X005773Y009560D03*
X005773Y009555D03*
X005773Y009550D03*
X005513Y009670D03*
X005333Y009520D03*
X005443Y010423D03*
X005528Y010683D03*
X005278Y010788D03*
X005278Y010793D03*
X005278Y010798D03*
X001213Y010418D03*
X000893Y010423D03*
X001053Y010793D03*
X001053Y010798D03*
D85*
X000763Y010663D03*
X000758Y010668D03*
X000398Y010648D03*
X000398Y010598D03*
X000398Y010773D03*
X000398Y010778D03*
X000398Y010418D03*
X005578Y010688D03*
X005873Y009770D03*
X022874Y010770D03*
D86*
X022516Y010680D03*
X022516Y010675D03*
X022331Y010515D03*
X022331Y010510D03*
X022881Y010395D03*
X005881Y009395D03*
X005516Y009675D03*
X005516Y009680D03*
X005331Y009515D03*
X005331Y009510D03*
X005441Y010428D03*
X005441Y010433D03*
X001216Y010423D03*
X001051Y010788D03*
D87*
X000766Y010658D03*
X000791Y010578D03*
X000396Y010593D03*
X000396Y010653D03*
X000396Y010658D03*
X000396Y010763D03*
X000396Y010768D03*
X000396Y010428D03*
X000396Y010423D03*
X005026Y009795D03*
X005026Y009400D03*
X005576Y010693D03*
X022026Y010795D03*
X022026Y010400D03*
D88*
X022329Y010505D03*
X022519Y010685D03*
X022519Y010690D03*
X005518Y009690D03*
X005518Y009685D03*
X005328Y009505D03*
X005278Y010773D03*
X005278Y010778D03*
X005278Y010783D03*
X001213Y010428D03*
X000893Y010428D03*
X000893Y010433D03*
X001053Y010773D03*
X001053Y010778D03*
X001053Y010783D03*
D89*
X001051Y010768D03*
X000896Y010438D03*
X001211Y010433D03*
X005326Y009500D03*
X005326Y009495D03*
X005521Y009695D03*
X005441Y010438D03*
X022326Y010495D03*
X022326Y010500D03*
X022521Y010695D03*
D90*
X022874Y010775D03*
X005873Y009775D03*
X005578Y010698D03*
X005578Y010703D03*
X005578Y010708D03*
X000393Y010668D03*
X000393Y010663D03*
X000393Y010588D03*
X000393Y010753D03*
X000393Y010758D03*
X000393Y010433D03*
D91*
X000896Y010443D03*
X000896Y010448D03*
X001211Y010443D03*
X001211Y010438D03*
X001266Y010618D03*
X001051Y010753D03*
X005321Y009480D03*
X005526Y009710D03*
X005871Y009810D03*
X022321Y010480D03*
X022526Y010710D03*
X022871Y010810D03*
D92*
X022031Y010800D03*
X005581Y010718D03*
X005581Y010713D03*
X005031Y009800D03*
X000771Y010653D03*
X000391Y010673D03*
X000391Y010678D03*
X000391Y010683D03*
X000391Y010688D03*
X000391Y010738D03*
X000391Y010743D03*
X000391Y010748D03*
X000391Y010583D03*
X000391Y010443D03*
X000391Y010438D03*
D93*
X001053Y010523D03*
X001053Y010528D03*
X001053Y010533D03*
X001438Y010443D03*
X005278Y010523D03*
X005278Y010528D03*
X005278Y010533D03*
X005663Y010443D03*
X005718Y010658D03*
D94*
X005721Y010653D03*
X000671Y010443D03*
D95*
X001776Y010448D03*
X001781Y010453D03*
X001761Y010768D03*
X001756Y010773D03*
X001751Y010778D03*
X001716Y010813D03*
D96*
X001268Y010768D03*
X001268Y010763D03*
X001263Y010758D03*
X001263Y010753D03*
X001258Y010743D03*
X001258Y010738D03*
X001258Y010733D03*
X001253Y010728D03*
X001253Y010723D03*
X001253Y010718D03*
X001053Y010608D03*
X001053Y010603D03*
X000853Y010713D03*
X000853Y010718D03*
X000848Y010728D03*
X000848Y010733D03*
X000843Y010743D03*
X000843Y010748D03*
X000838Y010758D03*
X001438Y010448D03*
X005278Y010598D03*
X005278Y010603D03*
X005278Y010608D03*
X005488Y010753D03*
X005713Y009395D03*
X005713Y009390D03*
X005713Y009385D03*
X005873Y009375D03*
X022714Y010385D03*
X022714Y010390D03*
X022714Y010395D03*
X022874Y010375D03*
D97*
X022319Y010470D03*
X022319Y010475D03*
X022529Y010715D03*
X022529Y010720D03*
X005663Y010508D03*
X005663Y010503D03*
X005438Y010453D03*
X005278Y010743D03*
X005278Y010748D03*
X005278Y010753D03*
X005528Y009720D03*
X005528Y009715D03*
X005318Y009475D03*
X005318Y009470D03*
X001438Y010503D03*
X001438Y010508D03*
X001438Y010513D03*
X001438Y010518D03*
X001438Y010523D03*
X001438Y010528D03*
X001208Y010448D03*
X000898Y010453D03*
X000673Y010508D03*
X000673Y010513D03*
X000673Y010518D03*
X000673Y010523D03*
X000673Y010528D03*
X001053Y010743D03*
X001053Y010748D03*
D98*
X001051Y010598D03*
X001261Y010748D03*
X000671Y010448D03*
X005491Y010758D03*
X005491Y010763D03*
X005491Y010768D03*
X005491Y010773D03*
X005666Y010448D03*
D99*
X005278Y010633D03*
X005278Y010638D03*
X005278Y010643D03*
X001438Y010453D03*
X001248Y010678D03*
X001248Y010683D03*
X001288Y010803D03*
X001053Y010638D03*
X001053Y010633D03*
X000818Y010798D03*
X000813Y010803D03*
X000673Y010453D03*
D100*
X000671Y010493D03*
X000671Y010498D03*
X000671Y010503D03*
X000896Y010458D03*
X001211Y010453D03*
X001266Y010623D03*
X001436Y010498D03*
X001051Y010738D03*
X004886Y009730D03*
X005316Y009465D03*
X005531Y009725D03*
X005531Y009730D03*
X005436Y010458D03*
X005436Y010463D03*
X005506Y010673D03*
X005661Y010498D03*
X005276Y010738D03*
X021886Y010730D03*
X022316Y010465D03*
X022531Y010725D03*
X022531Y010730D03*
D101*
X022556Y010805D03*
X022556Y010810D03*
X022466Y010665D03*
X022461Y010655D03*
X022456Y010650D03*
X022451Y010640D03*
X022441Y010625D03*
X022436Y010615D03*
X022426Y010600D03*
X022421Y010590D03*
X022416Y010585D03*
X022411Y010575D03*
X022401Y010560D03*
X022396Y010550D03*
X022391Y010545D03*
X022386Y010535D03*
X022291Y010385D03*
X022116Y010465D03*
X022116Y010470D03*
X022116Y010475D03*
X022116Y010480D03*
X022116Y010485D03*
X022116Y010490D03*
X022116Y010495D03*
X022116Y010500D03*
X022116Y010505D03*
X022116Y010510D03*
X022116Y010515D03*
X022116Y010520D03*
X022116Y010525D03*
X022116Y010530D03*
X022116Y010535D03*
X022116Y010540D03*
X022116Y010545D03*
X022116Y010550D03*
X022116Y010555D03*
X022116Y010560D03*
X022116Y010565D03*
X022116Y010570D03*
X022116Y010575D03*
X022116Y010580D03*
X022116Y010585D03*
X022116Y010590D03*
X022116Y010595D03*
X022116Y010600D03*
X022116Y010605D03*
X022116Y010610D03*
X022116Y010615D03*
X022116Y010620D03*
X022116Y010625D03*
X022116Y010630D03*
X022116Y010635D03*
X022116Y010640D03*
X022116Y010645D03*
X022116Y010650D03*
X022116Y010655D03*
X022116Y010660D03*
X022116Y010665D03*
X022116Y010670D03*
X022116Y010675D03*
X022116Y010680D03*
X022116Y010685D03*
X022116Y010690D03*
X022116Y010695D03*
X022116Y010700D03*
X022116Y010705D03*
X022116Y010710D03*
X022116Y010715D03*
X022116Y010720D03*
X022116Y010725D03*
X022116Y010730D03*
X021836Y010660D03*
X021836Y010655D03*
X021831Y010640D03*
X021831Y010635D03*
X021831Y010630D03*
X021831Y010625D03*
X021831Y010620D03*
X021831Y010615D03*
X021831Y010610D03*
X021831Y010605D03*
X021831Y010600D03*
X021831Y010595D03*
X021831Y010590D03*
X021831Y010585D03*
X021831Y010580D03*
X021831Y010575D03*
X021831Y010570D03*
X021831Y010565D03*
X021831Y010560D03*
X021831Y010555D03*
X021836Y010545D03*
X021836Y010540D03*
X021836Y010535D03*
X021836Y010530D03*
X021841Y010525D03*
X021841Y010520D03*
X022731Y010505D03*
X022731Y010500D03*
X022736Y010680D03*
X022741Y010695D03*
X022741Y010700D03*
X023021Y010675D03*
X023026Y010665D03*
X023026Y010660D03*
X023026Y010655D03*
X023026Y010650D03*
X023031Y010645D03*
X023031Y010640D03*
X023031Y010635D03*
X023031Y010630D03*
X023031Y010625D03*
X023031Y010620D03*
X023031Y010615D03*
X023031Y010580D03*
X023031Y010575D03*
X023031Y010570D03*
X023031Y010565D03*
X023031Y010560D03*
X023031Y010555D03*
X023031Y010550D03*
X023026Y010545D03*
X023026Y010540D03*
X023026Y010535D03*
X023026Y010530D03*
X023021Y010520D03*
X006031Y009645D03*
X006031Y009640D03*
X006031Y009635D03*
X006031Y009630D03*
X006031Y009625D03*
X006031Y009620D03*
X006031Y009615D03*
X006031Y009580D03*
X006031Y009575D03*
X006031Y009570D03*
X006031Y009565D03*
X006031Y009560D03*
X006031Y009555D03*
X006031Y009550D03*
X006026Y009545D03*
X006026Y009540D03*
X006026Y009535D03*
X006026Y009530D03*
X006021Y009520D03*
X006026Y009650D03*
X006026Y009655D03*
X006026Y009660D03*
X006026Y009665D03*
X006021Y009675D03*
X005741Y009695D03*
X005741Y009700D03*
X005736Y009680D03*
X005731Y009505D03*
X005731Y009500D03*
X005461Y009655D03*
X005456Y009650D03*
X005451Y009640D03*
X005441Y009625D03*
X005436Y009615D03*
X005426Y009600D03*
X005421Y009590D03*
X005416Y009585D03*
X005411Y009575D03*
X005401Y009560D03*
X005396Y009550D03*
X005391Y009545D03*
X005386Y009535D03*
X005466Y009665D03*
X005556Y009805D03*
X005556Y009810D03*
X005116Y009730D03*
X005116Y009725D03*
X005116Y009720D03*
X005116Y009715D03*
X005116Y009710D03*
X005116Y009705D03*
X005116Y009700D03*
X005116Y009695D03*
X005116Y009690D03*
X005116Y009685D03*
X005116Y009680D03*
X005116Y009675D03*
X005116Y009670D03*
X005116Y009665D03*
X005116Y009660D03*
X005116Y009655D03*
X005116Y009650D03*
X005116Y009645D03*
X005116Y009640D03*
X005116Y009635D03*
X005116Y009630D03*
X005116Y009625D03*
X005116Y009620D03*
X005116Y009615D03*
X005116Y009610D03*
X005116Y009605D03*
X005116Y009600D03*
X005116Y009595D03*
X005116Y009590D03*
X005116Y009585D03*
X005116Y009580D03*
X005116Y009575D03*
X005116Y009570D03*
X005116Y009565D03*
X005116Y009560D03*
X005116Y009555D03*
X005116Y009550D03*
X005116Y009545D03*
X005116Y009540D03*
X005116Y009535D03*
X005116Y009530D03*
X005116Y009525D03*
X005116Y009520D03*
X005116Y009515D03*
X005116Y009510D03*
X005116Y009505D03*
X005116Y009500D03*
X005116Y009495D03*
X005116Y009490D03*
X005116Y009485D03*
X005116Y009480D03*
X005116Y009475D03*
X005116Y009470D03*
X005116Y009465D03*
X005291Y009385D03*
X004841Y009520D03*
X004841Y009525D03*
X004836Y009530D03*
X004836Y009535D03*
X004836Y009540D03*
X004836Y009545D03*
X004831Y009555D03*
X004831Y009560D03*
X004831Y009565D03*
X004831Y009570D03*
X004831Y009575D03*
X004831Y009580D03*
X004831Y009585D03*
X004831Y009590D03*
X004831Y009595D03*
X004831Y009600D03*
X004831Y009605D03*
X004831Y009610D03*
X004831Y009615D03*
X004831Y009620D03*
X004831Y009625D03*
X004831Y009630D03*
X004831Y009635D03*
X004831Y009640D03*
X004836Y009655D03*
X004836Y009660D03*
X005446Y010558D03*
X005451Y010578D03*
X005456Y010593D03*
X005461Y010608D03*
X001436Y010743D03*
X001251Y010658D03*
X001436Y010458D03*
X000806Y010813D03*
X000671Y010743D03*
X000671Y010458D03*
D102*
X000898Y010463D03*
X000898Y010468D03*
X001053Y010728D03*
X001053Y010733D03*
X001258Y010613D03*
X001208Y010463D03*
X001208Y010458D03*
X001438Y010488D03*
X001438Y010493D03*
X001328Y010833D03*
X004888Y009465D03*
X005313Y009460D03*
X005313Y009455D03*
X005533Y009735D03*
X005753Y009460D03*
X005968Y009455D03*
X005663Y010488D03*
X005663Y010493D03*
X005438Y010468D03*
X005278Y010728D03*
X005278Y010733D03*
X021889Y010465D03*
X022314Y010460D03*
X022314Y010455D03*
X022534Y010735D03*
X022754Y010460D03*
X022969Y010455D03*
D103*
X023006Y010490D03*
X022876Y010380D03*
X022736Y010485D03*
X022736Y010490D03*
X022296Y010400D03*
X021856Y010490D03*
X021851Y010500D03*
X021846Y010685D03*
X021846Y010690D03*
X021851Y010695D03*
X021661Y010825D03*
X021656Y010820D03*
X021651Y010815D03*
X021646Y010810D03*
X021641Y010805D03*
X021636Y010800D03*
X021631Y010795D03*
X021626Y010790D03*
X021621Y010785D03*
X021616Y010780D03*
X021611Y010775D03*
X021606Y010770D03*
X021601Y010765D03*
X021596Y010760D03*
X021591Y010755D03*
X021586Y010750D03*
X021581Y010745D03*
X021576Y010740D03*
X021571Y010735D03*
X021566Y010730D03*
X021561Y010725D03*
X021556Y010720D03*
X021551Y010715D03*
X021546Y010710D03*
X021541Y010705D03*
X021536Y010700D03*
X021531Y010695D03*
X021526Y010690D03*
X021521Y010685D03*
X021516Y010680D03*
X021511Y010675D03*
X021506Y010670D03*
X021501Y010665D03*
X021496Y010660D03*
X021491Y010655D03*
X021486Y010650D03*
X021481Y010645D03*
X021476Y010640D03*
X021471Y010635D03*
X021466Y010630D03*
X021461Y010625D03*
X021456Y010620D03*
X021451Y010615D03*
X021446Y010610D03*
X021441Y010605D03*
X021436Y010600D03*
X021441Y010595D03*
X021446Y010590D03*
X021451Y010585D03*
X021456Y010580D03*
X021461Y010575D03*
X021466Y010570D03*
X021471Y010565D03*
X021476Y010560D03*
X021481Y010555D03*
X021486Y010550D03*
X021491Y010545D03*
X021496Y010540D03*
X021501Y010535D03*
X021506Y010530D03*
X021511Y010525D03*
X021516Y010520D03*
X021521Y010515D03*
X021526Y010510D03*
X021531Y010505D03*
X021536Y010500D03*
X021541Y010495D03*
X021546Y010490D03*
X021551Y010485D03*
X021556Y010480D03*
X021561Y010475D03*
X021566Y010470D03*
X021571Y010465D03*
X021576Y010460D03*
X021581Y010455D03*
X021586Y010450D03*
X021591Y010445D03*
X021596Y010440D03*
X021601Y010435D03*
X021606Y010430D03*
X021611Y010425D03*
X021616Y010420D03*
X021621Y010415D03*
X021626Y010410D03*
X021631Y010405D03*
X021636Y010400D03*
X021641Y010395D03*
X021646Y010390D03*
X021651Y010385D03*
X021656Y010380D03*
X021661Y010375D03*
X021666Y010370D03*
X021671Y010365D03*
X021676Y010360D03*
X021681Y010355D03*
X021686Y010350D03*
X021691Y010345D03*
X021696Y010340D03*
X021701Y010335D03*
X021706Y010330D03*
X021711Y010325D03*
X021716Y010320D03*
X021721Y010315D03*
X021726Y010310D03*
X021731Y010305D03*
X021736Y010300D03*
X021741Y010295D03*
X021746Y010290D03*
X021751Y010285D03*
X021756Y010280D03*
X021761Y010275D03*
X021766Y010270D03*
X021771Y010265D03*
X021776Y010260D03*
X021781Y010255D03*
X021786Y010250D03*
X021791Y010245D03*
X021796Y010240D03*
X021801Y010235D03*
X021806Y010230D03*
X021811Y010225D03*
X022551Y010790D03*
X022551Y010795D03*
X022756Y010725D03*
X023001Y010715D03*
X023006Y010710D03*
X023006Y010705D03*
X021811Y010975D03*
X021806Y010970D03*
X021801Y010965D03*
X021796Y010960D03*
X021791Y010955D03*
X021786Y010950D03*
X021781Y010945D03*
X021776Y010940D03*
X021771Y010935D03*
X021766Y010930D03*
X021761Y010925D03*
X021756Y010920D03*
X021751Y010915D03*
X021746Y010910D03*
X021741Y010905D03*
X021736Y010900D03*
X021731Y010895D03*
X021726Y010890D03*
X021721Y010885D03*
X021716Y010880D03*
X021711Y010875D03*
X021706Y010870D03*
X021701Y010865D03*
X021696Y010860D03*
X021691Y010855D03*
X021686Y010850D03*
X021681Y010845D03*
X021676Y010840D03*
X021671Y010835D03*
X021666Y010830D03*
X006006Y009710D03*
X006006Y009705D03*
X006001Y009715D03*
X005756Y009725D03*
X005551Y009790D03*
X005551Y009795D03*
X005736Y009490D03*
X005736Y009485D03*
X005876Y009380D03*
X006006Y009490D03*
X005296Y009400D03*
X004856Y009490D03*
X004851Y009500D03*
X004846Y009685D03*
X004846Y009690D03*
X004851Y009695D03*
X004691Y009855D03*
X004696Y009860D03*
X004701Y009865D03*
X004706Y009870D03*
X004711Y009875D03*
X004716Y009880D03*
X004721Y009885D03*
X004726Y009890D03*
X004731Y009895D03*
X004736Y009900D03*
X004741Y009905D03*
X004746Y009910D03*
X004751Y009915D03*
X004756Y009920D03*
X004761Y009925D03*
X004766Y009930D03*
X004771Y009935D03*
X004776Y009940D03*
X004781Y009945D03*
X004786Y009950D03*
X004791Y009955D03*
X004796Y009960D03*
X004801Y009965D03*
X004806Y009970D03*
X004811Y009975D03*
X004686Y009850D03*
X004681Y009845D03*
X004676Y009840D03*
X004671Y009835D03*
X004666Y009830D03*
X004661Y009825D03*
X004656Y009820D03*
X004651Y009815D03*
X004646Y009810D03*
X004641Y009805D03*
X004636Y009800D03*
X004631Y009795D03*
X004626Y009790D03*
X004621Y009785D03*
X004616Y009780D03*
X004611Y009775D03*
X004606Y009770D03*
X004601Y009765D03*
X004596Y009760D03*
X004591Y009755D03*
X004586Y009750D03*
X004581Y009745D03*
X004576Y009740D03*
X004571Y009735D03*
X004566Y009730D03*
X004561Y009725D03*
X004556Y009720D03*
X004551Y009715D03*
X004546Y009710D03*
X004541Y009705D03*
X004536Y009700D03*
X004531Y009695D03*
X004526Y009690D03*
X004521Y009685D03*
X004516Y009680D03*
X004511Y009675D03*
X004506Y009670D03*
X004501Y009665D03*
X004496Y009660D03*
X004491Y009655D03*
X004486Y009650D03*
X004481Y009645D03*
X004476Y009640D03*
X004471Y009635D03*
X004466Y009630D03*
X004461Y009625D03*
X004456Y009620D03*
X004451Y009615D03*
X004446Y009610D03*
X004441Y009605D03*
X004436Y009600D03*
X004441Y009595D03*
X004446Y009590D03*
X004451Y009585D03*
X004456Y009580D03*
X004461Y009575D03*
X004466Y009570D03*
X004471Y009565D03*
X004476Y009560D03*
X004481Y009555D03*
X004486Y009550D03*
X004491Y009545D03*
X004496Y009540D03*
X004501Y009535D03*
X004506Y009530D03*
X004511Y009525D03*
X004516Y009520D03*
X004521Y009515D03*
X004526Y009510D03*
X004531Y009505D03*
X004536Y009500D03*
X004541Y009495D03*
X004546Y009490D03*
X004551Y009485D03*
X004556Y009480D03*
X004561Y009475D03*
X004566Y009470D03*
X004571Y009465D03*
X004576Y009460D03*
X004581Y009455D03*
X004586Y009450D03*
X004591Y009445D03*
X004596Y009440D03*
X004601Y009435D03*
X004606Y009430D03*
X004611Y009425D03*
X004616Y009420D03*
X004621Y009415D03*
X004626Y009410D03*
X004631Y009405D03*
X004636Y009400D03*
X004641Y009395D03*
X004646Y009390D03*
X004651Y009385D03*
X004656Y009380D03*
X004661Y009375D03*
X004666Y009370D03*
X004671Y009365D03*
X004676Y009360D03*
X004681Y009355D03*
X004686Y009350D03*
X004691Y009345D03*
X004696Y009340D03*
X004701Y009335D03*
X004706Y009330D03*
X004711Y009325D03*
X004716Y009320D03*
X004721Y009315D03*
X004726Y009310D03*
X004731Y009305D03*
X004736Y009300D03*
X004741Y009295D03*
X004746Y009290D03*
X004751Y009285D03*
X004756Y009280D03*
X004761Y009275D03*
X004766Y009270D03*
X004771Y009265D03*
X004776Y009260D03*
X004781Y009255D03*
X004786Y009250D03*
X004791Y009245D03*
X004796Y009240D03*
X004801Y009235D03*
X004806Y009230D03*
X004811Y009225D03*
X005441Y010528D03*
X005441Y010533D03*
X005441Y010538D03*
X005471Y010628D03*
X005471Y010633D03*
X005476Y010638D03*
X001436Y010738D03*
X001311Y010823D03*
X001251Y010648D03*
X001226Y010568D03*
X001226Y010563D03*
X001221Y010558D03*
X001221Y010553D03*
X001221Y010548D03*
X001216Y010538D03*
X001216Y010533D03*
X001436Y010463D03*
X000671Y010463D03*
X000671Y010738D03*
D104*
X000671Y010728D03*
X000671Y010468D03*
X000896Y010508D03*
X000896Y010513D03*
X001051Y010693D03*
X001256Y010638D03*
X001241Y010593D03*
X001236Y010588D03*
X001211Y010513D03*
X001211Y010508D03*
X001211Y010503D03*
X001436Y010468D03*
X001436Y010728D03*
X001436Y010733D03*
X004861Y009710D03*
X004861Y009485D03*
X004866Y009480D03*
X005301Y009415D03*
X005741Y009475D03*
X005991Y009470D03*
X005996Y009475D03*
X005991Y009725D03*
X005986Y009730D03*
X005761Y009730D03*
X005546Y009775D03*
X005436Y010508D03*
X005481Y010648D03*
X005486Y010653D03*
X021861Y010710D03*
X021861Y010485D03*
X021866Y010480D03*
X022301Y010415D03*
X022741Y010475D03*
X022991Y010470D03*
X022996Y010475D03*
X022991Y010725D03*
X022986Y010730D03*
X022761Y010730D03*
X022546Y010775D03*
D105*
X022539Y010755D03*
X022539Y010750D03*
X022749Y010465D03*
X022979Y010460D03*
X022309Y010440D03*
X021879Y010470D03*
X021879Y010725D03*
X005978Y009460D03*
X005748Y009465D03*
X005538Y009750D03*
X005538Y009755D03*
X005308Y009440D03*
X004878Y009470D03*
X004878Y009725D03*
X005663Y010478D03*
X005663Y010483D03*
X005663Y010583D03*
X005493Y010663D03*
X005278Y010708D03*
X005278Y010713D03*
X005278Y010718D03*
X001438Y010708D03*
X001438Y010703D03*
X001438Y010698D03*
X001438Y010693D03*
X001438Y010688D03*
X001438Y010683D03*
X001253Y010608D03*
X001248Y010603D03*
X001208Y010483D03*
X001208Y010478D03*
X001208Y010473D03*
X001208Y010468D03*
X001438Y010478D03*
X001053Y010713D03*
X001053Y010718D03*
X000898Y010483D03*
X000898Y010478D03*
X000673Y010683D03*
X000673Y010688D03*
X000673Y010693D03*
X000673Y010698D03*
X000673Y010708D03*
D106*
X000383Y010558D03*
X000383Y010553D03*
X000383Y010548D03*
X000383Y010478D03*
X000383Y010473D03*
X000383Y010468D03*
X005038Y009805D03*
X005873Y009785D03*
X005463Y010383D03*
X005583Y010743D03*
X005583Y010748D03*
X022039Y010805D03*
X022874Y010785D03*
D107*
X001798Y010478D03*
X001793Y010473D03*
X001783Y010738D03*
X001778Y010743D03*
X001693Y010828D03*
D108*
X001436Y010723D03*
X001436Y010718D03*
X001436Y010713D03*
X001256Y010633D03*
X001051Y010708D03*
X000896Y010498D03*
X000896Y010493D03*
X000896Y010488D03*
X000671Y010478D03*
X000671Y010473D03*
X000671Y010713D03*
X000671Y010718D03*
X000671Y010723D03*
X001436Y010473D03*
X004871Y009720D03*
X004871Y009475D03*
X005306Y009435D03*
X005306Y009430D03*
X005746Y009470D03*
X005776Y009740D03*
X005871Y009815D03*
X005981Y009735D03*
X005541Y009760D03*
X005436Y010483D03*
X005436Y010488D03*
X005436Y010493D03*
X005491Y010658D03*
X021871Y010720D03*
X021871Y010475D03*
X022306Y010435D03*
X022306Y010430D03*
X022746Y010470D03*
X022776Y010740D03*
X022871Y010815D03*
X022981Y010735D03*
X022541Y010760D03*
D109*
X022536Y010745D03*
X022536Y010740D03*
X022971Y010740D03*
X022311Y010450D03*
X022311Y010445D03*
X022876Y010385D03*
X005971Y009740D03*
X005536Y009740D03*
X005536Y009745D03*
X005311Y009450D03*
X005311Y009445D03*
X005876Y009385D03*
X005436Y010473D03*
X005436Y010478D03*
X005501Y010668D03*
X005276Y010723D03*
X001436Y010483D03*
X001261Y010628D03*
X001051Y010723D03*
X000776Y010833D03*
X000671Y010703D03*
X000671Y010488D03*
X000671Y010483D03*
X000896Y010473D03*
D110*
X001803Y010488D03*
X001793Y010723D03*
X001788Y010728D03*
D111*
X001318Y010828D03*
X001053Y010703D03*
X001053Y010698D03*
X001243Y010598D03*
X001208Y010498D03*
X001208Y010493D03*
X001208Y010488D03*
X000893Y010503D03*
X000788Y010828D03*
X004863Y009715D03*
X005303Y009425D03*
X005303Y009420D03*
X005543Y009765D03*
X005543Y009770D03*
X005768Y009735D03*
X005983Y009465D03*
X005663Y010473D03*
X005663Y010588D03*
X005438Y010503D03*
X005438Y010498D03*
X005278Y010693D03*
X005278Y010698D03*
X005278Y010703D03*
X021864Y010715D03*
X022304Y010425D03*
X022304Y010420D03*
X022544Y010765D03*
X022544Y010770D03*
X022769Y010735D03*
X022984Y010465D03*
D112*
X001806Y010493D03*
X001796Y010718D03*
X001681Y010833D03*
D113*
X001798Y010713D03*
X001813Y010503D03*
X001808Y010498D03*
X006038Y010498D03*
X006038Y010503D03*
X006038Y010508D03*
X006038Y010493D03*
X006038Y010488D03*
X006038Y010483D03*
X006038Y010478D03*
D114*
X006036Y010473D03*
X006036Y010468D03*
X006036Y010463D03*
X001816Y010508D03*
X001801Y010708D03*
D115*
X001803Y010703D03*
X001818Y010513D03*
X006033Y010458D03*
X006033Y010453D03*
D116*
X005663Y010468D03*
X005663Y010593D03*
X005478Y010643D03*
X005438Y010523D03*
X005438Y010518D03*
X005438Y010513D03*
X005278Y010678D03*
X005278Y010683D03*
X005278Y010688D03*
X005548Y009785D03*
X005548Y009780D03*
X005738Y009480D03*
X005998Y009480D03*
X006003Y009485D03*
X005998Y009720D03*
X005298Y009410D03*
X005298Y009405D03*
X004853Y009495D03*
X004853Y009700D03*
X004858Y009705D03*
X001253Y010643D03*
X001233Y010583D03*
X001233Y010578D03*
X001228Y010573D03*
X001218Y010543D03*
X001213Y010528D03*
X001213Y010523D03*
X001213Y010518D03*
X001053Y010678D03*
X001053Y010683D03*
X001053Y010688D03*
X000893Y010528D03*
X000893Y010523D03*
X000893Y010518D03*
X000668Y010733D03*
X000793Y010823D03*
X021854Y010700D03*
X021859Y010705D03*
X021854Y010495D03*
X022299Y010410D03*
X022299Y010405D03*
X022739Y010480D03*
X022999Y010480D03*
X023004Y010485D03*
X022999Y010720D03*
X022549Y010780D03*
X022549Y010785D03*
D117*
X006028Y010633D03*
X006028Y010628D03*
X006028Y010623D03*
X006028Y010618D03*
X006028Y010613D03*
X006028Y010608D03*
X006028Y010438D03*
X006028Y010433D03*
X001823Y010523D03*
X001813Y010688D03*
D118*
X001816Y010683D03*
X001826Y010528D03*
X006026Y010428D03*
X006026Y010638D03*
X006026Y010643D03*
X006026Y010648D03*
X006026Y010653D03*
X006026Y010658D03*
D119*
X004843Y010483D03*
X004838Y010488D03*
X004783Y010663D03*
X001713Y010538D03*
X001708Y010533D03*
D120*
X001053Y010538D03*
X001053Y010543D03*
X001053Y010548D03*
X005278Y010548D03*
X005278Y010543D03*
X005278Y010538D03*
X005708Y010668D03*
D121*
X004836Y010493D03*
X004781Y010658D03*
X001746Y010573D03*
X001716Y010543D03*
D122*
X000773Y010543D03*
X000428Y010823D03*
X004993Y009745D03*
X004993Y009455D03*
X005853Y009435D03*
X021994Y010455D03*
X021994Y010745D03*
X022854Y010435D03*
D123*
X004833Y010498D03*
X004828Y010503D03*
X004778Y010653D03*
X001738Y010568D03*
X001733Y010563D03*
X001728Y010558D03*
X001723Y010553D03*
X001718Y010548D03*
D124*
X000771Y010548D03*
X004996Y009750D03*
X004996Y009450D03*
X004996Y009445D03*
X005851Y009430D03*
X021996Y010445D03*
X021996Y010450D03*
X021996Y010750D03*
X022851Y010430D03*
D125*
X005703Y010673D03*
X005278Y010563D03*
X005278Y010558D03*
X005278Y010553D03*
X001053Y010553D03*
X001053Y010558D03*
X001053Y010563D03*
D126*
X000776Y010558D03*
X005001Y009760D03*
X005001Y009435D03*
X022001Y010435D03*
X022001Y010760D03*
D127*
X005498Y010808D03*
X005498Y010813D03*
X005498Y010818D03*
X005278Y010578D03*
X005278Y010573D03*
X005278Y010568D03*
X001053Y010568D03*
X001053Y010573D03*
X001053Y010578D03*
D128*
X000778Y010568D03*
X005008Y009775D03*
X022009Y010775D03*
D129*
X004853Y010468D03*
X004848Y010473D03*
X004783Y010668D03*
X001758Y010578D03*
D130*
X001786Y010583D03*
X001786Y010618D03*
X004796Y010703D03*
X004896Y010403D03*
D131*
X005496Y010793D03*
X005496Y010798D03*
X005496Y010803D03*
X005696Y010678D03*
X001436Y010758D03*
X001051Y010583D03*
X000671Y010758D03*
D132*
X001788Y010613D03*
X001788Y010588D03*
X004793Y010698D03*
X004888Y010413D03*
X004893Y010408D03*
D133*
X005278Y010583D03*
X005278Y010588D03*
X005278Y010593D03*
X005493Y010778D03*
X005493Y010783D03*
X005493Y010788D03*
X001053Y010593D03*
X001053Y010588D03*
D134*
X001791Y010593D03*
X001791Y010608D03*
X004886Y010418D03*
D135*
X004883Y010423D03*
X004878Y010428D03*
X004793Y010693D03*
X005923Y010578D03*
X001793Y010598D03*
X001793Y010603D03*
X001748Y010648D03*
D136*
X000811Y010618D03*
X000811Y010613D03*
X000811Y010608D03*
D137*
X000406Y010608D03*
X000406Y010633D03*
X000406Y010793D03*
X005016Y009785D03*
X005016Y009410D03*
X022016Y010410D03*
X022016Y010785D03*
D138*
X022716Y010425D03*
X022716Y010420D03*
X022716Y010415D03*
X022716Y010410D03*
X022716Y010405D03*
X022716Y010400D03*
X005716Y009425D03*
X005716Y009420D03*
X005716Y009415D03*
X005716Y009410D03*
X005716Y009405D03*
X005716Y009400D03*
X005666Y010608D03*
X001436Y010753D03*
X001276Y010778D03*
X001276Y010783D03*
X001271Y010773D03*
X001251Y010713D03*
X001251Y010708D03*
X001251Y010703D03*
X001051Y010613D03*
X000856Y010698D03*
X000856Y010703D03*
X000856Y010708D03*
X000851Y010723D03*
X000846Y010738D03*
X000841Y010753D03*
X000836Y010763D03*
X000836Y010768D03*
X000831Y010773D03*
D139*
X000828Y010778D03*
X000828Y010783D03*
X000823Y010788D03*
X000858Y010693D03*
X000858Y010688D03*
X000858Y010683D03*
X000668Y010753D03*
X001053Y010623D03*
X001053Y010618D03*
X001248Y010698D03*
X001278Y010788D03*
X001283Y010793D03*
X005278Y010628D03*
X005278Y010623D03*
X005278Y010618D03*
X005278Y010613D03*
X005683Y010683D03*
X006213Y009975D03*
X006213Y009970D03*
X006213Y009965D03*
X006213Y009960D03*
X006213Y009955D03*
X006213Y009950D03*
X006213Y009945D03*
X006213Y009940D03*
X006213Y009935D03*
X006213Y009930D03*
X006213Y009925D03*
X006213Y009920D03*
X006213Y009915D03*
X006213Y009910D03*
X006213Y009905D03*
X006213Y009900D03*
X006213Y009895D03*
X006213Y009890D03*
X006213Y009885D03*
X006213Y009880D03*
X006213Y009875D03*
X006213Y009870D03*
X006213Y009865D03*
X006213Y009860D03*
X006213Y009855D03*
X006213Y009850D03*
X006213Y009845D03*
X006213Y009840D03*
X006213Y009835D03*
X006213Y009830D03*
X006213Y009825D03*
X006213Y009820D03*
X006213Y009815D03*
X006213Y009810D03*
X006213Y009805D03*
X006213Y009800D03*
X006213Y009795D03*
X006213Y009790D03*
X006213Y009785D03*
X006213Y009780D03*
X006213Y009775D03*
X006213Y009770D03*
X006213Y009765D03*
X006213Y009760D03*
X006213Y009755D03*
X006213Y009750D03*
X006213Y009745D03*
X006213Y009740D03*
X006213Y009735D03*
X006213Y009730D03*
X006213Y009725D03*
X006213Y009720D03*
X006213Y009715D03*
X006213Y009710D03*
X006213Y009705D03*
X006213Y009700D03*
X006213Y009695D03*
X006213Y009690D03*
X006213Y009685D03*
X006213Y009680D03*
X006213Y009675D03*
X006213Y009670D03*
X006213Y009665D03*
X006213Y009660D03*
X006213Y009655D03*
X006213Y009650D03*
X006213Y009645D03*
X006213Y009640D03*
X006213Y009635D03*
X006213Y009630D03*
X006213Y009625D03*
X006213Y009620D03*
X006213Y009615D03*
X006213Y009610D03*
X006213Y009605D03*
X006213Y009600D03*
X006213Y009595D03*
X006213Y009590D03*
X006213Y009585D03*
X006213Y009580D03*
X006213Y009575D03*
X006213Y009570D03*
X006213Y009565D03*
X006213Y009560D03*
X006213Y009555D03*
X006213Y009550D03*
X006213Y009545D03*
X006213Y009540D03*
X006213Y009535D03*
X006213Y009530D03*
X006213Y009525D03*
X006213Y009520D03*
X006213Y009515D03*
X006213Y009510D03*
X006213Y009505D03*
X006213Y009500D03*
X006213Y009495D03*
X006213Y009490D03*
X006213Y009485D03*
X006213Y009480D03*
X006213Y009475D03*
X006213Y009470D03*
X006213Y009465D03*
X006213Y009460D03*
X006213Y009455D03*
X006213Y009450D03*
X006213Y009445D03*
X006213Y009440D03*
X006213Y009435D03*
X006213Y009430D03*
X006213Y009425D03*
X006213Y009420D03*
X006213Y009415D03*
X006213Y009410D03*
X006213Y009405D03*
X006213Y009400D03*
X006213Y009395D03*
X006213Y009390D03*
X006213Y009385D03*
X006213Y009380D03*
X006213Y009375D03*
X006213Y009370D03*
X006213Y009365D03*
X006213Y009360D03*
X006213Y009355D03*
X006213Y009350D03*
X006213Y009345D03*
X006213Y009340D03*
X006213Y009335D03*
X006213Y009330D03*
X006213Y009325D03*
X006213Y009320D03*
X006213Y009315D03*
X006213Y009310D03*
X006213Y009305D03*
X006213Y009300D03*
X006213Y009295D03*
X006213Y009290D03*
X006213Y009285D03*
X006213Y009280D03*
X006213Y009275D03*
X006213Y009270D03*
X006213Y009265D03*
X006213Y009260D03*
X006213Y009255D03*
X006213Y009250D03*
X006213Y009245D03*
X006213Y009240D03*
X006213Y009235D03*
X006213Y009230D03*
X006213Y009225D03*
X023214Y010225D03*
X023214Y010230D03*
X023214Y010235D03*
X023214Y010240D03*
X023214Y010245D03*
X023214Y010250D03*
X023214Y010255D03*
X023214Y010260D03*
X023214Y010265D03*
X023214Y010270D03*
X023214Y010275D03*
X023214Y010280D03*
X023214Y010285D03*
X023214Y010290D03*
X023214Y010295D03*
X023214Y010300D03*
X023214Y010305D03*
X023214Y010310D03*
X023214Y010315D03*
X023214Y010320D03*
X023214Y010325D03*
X023214Y010330D03*
X023214Y010335D03*
X023214Y010340D03*
X023214Y010345D03*
X023214Y010350D03*
X023214Y010355D03*
X023214Y010360D03*
X023214Y010365D03*
X023214Y010370D03*
X023214Y010375D03*
X023214Y010380D03*
X023214Y010385D03*
X023214Y010390D03*
X023214Y010395D03*
X023214Y010400D03*
X023214Y010405D03*
X023214Y010410D03*
X023214Y010415D03*
X023214Y010420D03*
X023214Y010425D03*
X023214Y010430D03*
X023214Y010435D03*
X023214Y010440D03*
X023214Y010445D03*
X023214Y010450D03*
X023214Y010455D03*
X023214Y010460D03*
X023214Y010465D03*
X023214Y010470D03*
X023214Y010475D03*
X023214Y010480D03*
X023214Y010485D03*
X023214Y010490D03*
X023214Y010495D03*
X023214Y010500D03*
X023214Y010505D03*
X023214Y010510D03*
X023214Y010515D03*
X023214Y010520D03*
X023214Y010525D03*
X023214Y010530D03*
X023214Y010535D03*
X023214Y010540D03*
X023214Y010545D03*
X023214Y010550D03*
X023214Y010555D03*
X023214Y010560D03*
X023214Y010565D03*
X023214Y010570D03*
X023214Y010575D03*
X023214Y010580D03*
X023214Y010585D03*
X023214Y010590D03*
X023214Y010595D03*
X023214Y010600D03*
X023214Y010605D03*
X023214Y010610D03*
X023214Y010615D03*
X023214Y010620D03*
X023214Y010625D03*
X023214Y010630D03*
X023214Y010635D03*
X023214Y010640D03*
X023214Y010645D03*
X023214Y010650D03*
X023214Y010655D03*
X023214Y010660D03*
X023214Y010665D03*
X023214Y010670D03*
X023214Y010675D03*
X023214Y010680D03*
X023214Y010685D03*
X023214Y010690D03*
X023214Y010695D03*
X023214Y010700D03*
X023214Y010705D03*
X023214Y010710D03*
X023214Y010715D03*
X023214Y010720D03*
X023214Y010725D03*
X023214Y010730D03*
X023214Y010735D03*
X023214Y010740D03*
X023214Y010745D03*
X023214Y010750D03*
X023214Y010755D03*
X023214Y010760D03*
X023214Y010765D03*
X023214Y010770D03*
X023214Y010775D03*
X023214Y010780D03*
X023214Y010785D03*
X023214Y010790D03*
X023214Y010795D03*
X023214Y010800D03*
X023214Y010805D03*
X023214Y010810D03*
X023214Y010815D03*
X023214Y010820D03*
X023214Y010825D03*
X023214Y010830D03*
X023214Y010835D03*
X023214Y010840D03*
X023214Y010845D03*
X023214Y010850D03*
X023214Y010855D03*
X023214Y010860D03*
X023214Y010865D03*
X023214Y010870D03*
X023214Y010875D03*
X023214Y010880D03*
X023214Y010885D03*
X023214Y010890D03*
X023214Y010895D03*
X023214Y010900D03*
X023214Y010905D03*
X023214Y010910D03*
X023214Y010915D03*
X023214Y010920D03*
X023214Y010925D03*
X023214Y010930D03*
X023214Y010935D03*
X023214Y010940D03*
X023214Y010945D03*
X023214Y010950D03*
X023214Y010955D03*
X023214Y010960D03*
X023214Y010965D03*
X023214Y010970D03*
X023214Y010975D03*
D140*
X004903Y010393D03*
X004898Y010398D03*
X004798Y010708D03*
X001783Y010623D03*
D141*
X001781Y010628D03*
X004906Y010388D03*
D142*
X005666Y010453D03*
X001286Y010798D03*
X001251Y010693D03*
X001251Y010688D03*
X001051Y010628D03*
X000821Y010793D03*
D143*
X001778Y010633D03*
X004798Y010713D03*
X004908Y010383D03*
X004913Y010378D03*
D144*
X004801Y010718D03*
X001776Y010638D03*
D145*
X001773Y010643D03*
X004803Y010723D03*
D146*
X005666Y010603D03*
X005871Y009820D03*
X005561Y009665D03*
X005561Y009660D03*
X005561Y009655D03*
X005561Y009650D03*
X005561Y009645D03*
X005561Y009640D03*
X005561Y009635D03*
X005561Y009630D03*
X005561Y009625D03*
X005561Y009620D03*
X005561Y009615D03*
X005561Y009610D03*
X005561Y009605D03*
X005561Y009600D03*
X005561Y009595D03*
X005561Y009590D03*
X005561Y009585D03*
X005561Y009580D03*
X005561Y009575D03*
X005561Y009570D03*
X005561Y009565D03*
X005561Y009560D03*
X005561Y009555D03*
X005561Y009550D03*
X005561Y009545D03*
X005561Y009540D03*
X005561Y009535D03*
X005561Y009530D03*
X005561Y009525D03*
X005561Y009520D03*
X005561Y009515D03*
X005561Y009510D03*
X005561Y009505D03*
X005561Y009500D03*
X005561Y009495D03*
X005561Y009490D03*
X005561Y009485D03*
X005561Y009480D03*
X005561Y009475D03*
X005561Y009470D03*
X005561Y009465D03*
X005561Y009460D03*
X005561Y009455D03*
X005561Y009450D03*
X005561Y009445D03*
X005561Y009440D03*
X005561Y009435D03*
X005561Y009430D03*
X005561Y009425D03*
X005561Y009420D03*
X005561Y009415D03*
X005561Y009410D03*
X005561Y009405D03*
X005561Y009400D03*
X005561Y009395D03*
X005561Y009390D03*
X005561Y009385D03*
X005726Y009530D03*
X005726Y009535D03*
X005726Y009540D03*
X005726Y009545D03*
X001436Y010748D03*
X001296Y010808D03*
X001251Y010673D03*
X001051Y010643D03*
X000671Y010748D03*
X022561Y010665D03*
X022561Y010660D03*
X022561Y010655D03*
X022561Y010650D03*
X022561Y010645D03*
X022561Y010640D03*
X022561Y010635D03*
X022561Y010630D03*
X022561Y010625D03*
X022561Y010620D03*
X022561Y010615D03*
X022561Y010610D03*
X022561Y010605D03*
X022561Y010600D03*
X022561Y010595D03*
X022561Y010590D03*
X022561Y010585D03*
X022561Y010580D03*
X022561Y010575D03*
X022561Y010570D03*
X022561Y010565D03*
X022561Y010560D03*
X022561Y010555D03*
X022561Y010550D03*
X022561Y010545D03*
X022561Y010540D03*
X022561Y010535D03*
X022561Y010530D03*
X022561Y010525D03*
X022561Y010520D03*
X022561Y010515D03*
X022561Y010510D03*
X022561Y010505D03*
X022561Y010500D03*
X022561Y010495D03*
X022561Y010490D03*
X022561Y010485D03*
X022561Y010480D03*
X022561Y010475D03*
X022561Y010470D03*
X022561Y010465D03*
X022561Y010460D03*
X022561Y010455D03*
X022561Y010450D03*
X022561Y010445D03*
X022561Y010440D03*
X022561Y010435D03*
X022561Y010430D03*
X022561Y010425D03*
X022561Y010420D03*
X022561Y010415D03*
X022561Y010410D03*
X022561Y010405D03*
X022561Y010400D03*
X022561Y010395D03*
X022561Y010390D03*
X022561Y010385D03*
X022726Y010530D03*
X022726Y010535D03*
X022726Y010540D03*
X022726Y010545D03*
X022871Y010820D03*
D147*
X022739Y010690D03*
X022739Y010685D03*
X022734Y010675D03*
X022729Y010525D03*
X022729Y010520D03*
X022729Y010515D03*
X022729Y010510D03*
X022464Y010660D03*
X022454Y010645D03*
X022449Y010635D03*
X022444Y010630D03*
X022439Y010620D03*
X022434Y010610D03*
X022429Y010605D03*
X022424Y010595D03*
X022414Y010580D03*
X022409Y010570D03*
X022404Y010565D03*
X022399Y010555D03*
X022389Y010540D03*
X022384Y010530D03*
X022289Y010530D03*
X022289Y010535D03*
X022289Y010540D03*
X022289Y010545D03*
X022289Y010550D03*
X022289Y010555D03*
X022289Y010560D03*
X022289Y010565D03*
X022289Y010570D03*
X022289Y010575D03*
X022289Y010580D03*
X022289Y010585D03*
X022289Y010590D03*
X022289Y010595D03*
X022289Y010600D03*
X022289Y010605D03*
X022289Y010610D03*
X022289Y010615D03*
X022289Y010620D03*
X022289Y010625D03*
X022289Y010630D03*
X022289Y010635D03*
X022289Y010640D03*
X022289Y010645D03*
X022289Y010650D03*
X022289Y010655D03*
X022289Y010660D03*
X022289Y010665D03*
X022289Y010670D03*
X022289Y010675D03*
X022289Y010680D03*
X022289Y010685D03*
X022289Y010690D03*
X022289Y010695D03*
X022289Y010700D03*
X022289Y010705D03*
X022289Y010710D03*
X022289Y010715D03*
X022289Y010720D03*
X022289Y010725D03*
X022289Y010730D03*
X022289Y010735D03*
X022289Y010740D03*
X022289Y010745D03*
X022289Y010750D03*
X022289Y010755D03*
X022289Y010760D03*
X022289Y010765D03*
X022289Y010770D03*
X022289Y010775D03*
X022289Y010780D03*
X022289Y010785D03*
X022289Y010790D03*
X022289Y010795D03*
X022289Y010800D03*
X022289Y010805D03*
X022289Y010810D03*
X021834Y010550D03*
X023034Y010585D03*
X023034Y010590D03*
X023034Y010595D03*
X023034Y010600D03*
X023034Y010605D03*
X023034Y010610D03*
X006033Y009610D03*
X006033Y009605D03*
X006033Y009600D03*
X006033Y009595D03*
X006033Y009590D03*
X006033Y009585D03*
X005728Y009525D03*
X005728Y009520D03*
X005728Y009515D03*
X005728Y009510D03*
X005733Y009675D03*
X005738Y009685D03*
X005738Y009690D03*
X005463Y009660D03*
X005453Y009645D03*
X005448Y009635D03*
X005443Y009630D03*
X005438Y009620D03*
X005433Y009610D03*
X005428Y009605D03*
X005423Y009595D03*
X005413Y009580D03*
X005408Y009570D03*
X005403Y009565D03*
X005398Y009555D03*
X005388Y009540D03*
X005383Y009530D03*
X005288Y009530D03*
X005288Y009535D03*
X005288Y009540D03*
X005288Y009545D03*
X005288Y009550D03*
X005288Y009555D03*
X005288Y009560D03*
X005288Y009565D03*
X005288Y009570D03*
X005288Y009575D03*
X005288Y009580D03*
X005288Y009585D03*
X005288Y009590D03*
X005288Y009595D03*
X005288Y009600D03*
X005288Y009605D03*
X005288Y009610D03*
X005288Y009615D03*
X005288Y009620D03*
X005288Y009625D03*
X005288Y009630D03*
X005288Y009635D03*
X005288Y009640D03*
X005288Y009645D03*
X005288Y009650D03*
X005288Y009655D03*
X005288Y009660D03*
X005288Y009665D03*
X005288Y009670D03*
X005288Y009675D03*
X005288Y009680D03*
X005288Y009685D03*
X005288Y009690D03*
X005288Y009695D03*
X005288Y009700D03*
X005288Y009705D03*
X005288Y009710D03*
X005288Y009715D03*
X005288Y009720D03*
X005288Y009725D03*
X005288Y009730D03*
X005288Y009735D03*
X005288Y009740D03*
X005288Y009745D03*
X005288Y009750D03*
X005288Y009755D03*
X005288Y009760D03*
X005288Y009765D03*
X005288Y009770D03*
X005288Y009775D03*
X005288Y009780D03*
X005288Y009785D03*
X005288Y009790D03*
X005288Y009795D03*
X005288Y009800D03*
X005288Y009805D03*
X005288Y009810D03*
X004833Y009550D03*
X005663Y010458D03*
X005278Y010648D03*
X005278Y010653D03*
X005278Y010658D03*
X001298Y010813D03*
X001248Y010668D03*
X001248Y010663D03*
X001053Y010658D03*
X001053Y010653D03*
X001053Y010648D03*
X000808Y010808D03*
D148*
X001711Y010678D03*
X001736Y010653D03*
X004866Y010448D03*
X005916Y010528D03*
X005916Y010533D03*
D149*
X005663Y010598D03*
X005663Y010463D03*
X005443Y010543D03*
X005443Y010548D03*
X005443Y010553D03*
X005448Y010563D03*
X005448Y010568D03*
X005448Y010573D03*
X005453Y010583D03*
X005453Y010588D03*
X005458Y010598D03*
X005458Y010603D03*
X005463Y010613D03*
X005463Y010618D03*
X005468Y010623D03*
X005278Y010663D03*
X005278Y010668D03*
X005278Y010673D03*
X005553Y009800D03*
X005743Y009705D03*
X005748Y009710D03*
X005748Y009715D03*
X005753Y009720D03*
X006008Y009700D03*
X006013Y009695D03*
X006013Y009690D03*
X006018Y009685D03*
X006018Y009680D03*
X006023Y009670D03*
X006023Y009525D03*
X006018Y009515D03*
X006018Y009510D03*
X006013Y009505D03*
X006013Y009500D03*
X006008Y009495D03*
X005733Y009495D03*
X005293Y009395D03*
X005293Y009390D03*
X004848Y009505D03*
X004843Y009510D03*
X004843Y009515D03*
X004833Y009645D03*
X004833Y009650D03*
X004838Y009665D03*
X004838Y009670D03*
X004838Y009675D03*
X004843Y009680D03*
X001303Y010818D03*
X001253Y010653D03*
X001053Y010663D03*
X001053Y010668D03*
X001053Y010673D03*
X000798Y010818D03*
X021834Y010650D03*
X021834Y010645D03*
X021839Y010665D03*
X021839Y010670D03*
X021839Y010675D03*
X021844Y010680D03*
X021844Y010515D03*
X021844Y010510D03*
X021849Y010505D03*
X022294Y010395D03*
X022294Y010390D03*
X022734Y010495D03*
X022744Y010705D03*
X022749Y010710D03*
X022749Y010715D03*
X022754Y010720D03*
X022554Y010800D03*
X023009Y010700D03*
X023014Y010695D03*
X023014Y010690D03*
X023019Y010685D03*
X023019Y010680D03*
X023024Y010670D03*
X023024Y010525D03*
X023019Y010515D03*
X023019Y010510D03*
X023014Y010505D03*
X023014Y010500D03*
X023009Y010495D03*
D150*
X022879Y010390D03*
X022764Y010455D03*
X022524Y010700D03*
X022524Y010705D03*
X022324Y010490D03*
X022324Y010485D03*
X005878Y009390D03*
X005763Y009455D03*
X005523Y009700D03*
X005523Y009705D03*
X005323Y009490D03*
X005323Y009485D03*
X005438Y010443D03*
X005438Y010448D03*
X005513Y010678D03*
X005278Y010758D03*
X005278Y010763D03*
X005278Y010768D03*
X001053Y010763D03*
X001053Y010758D03*
D151*
X000436Y010828D03*
D152*
X000963Y011053D03*
D153*
X005048Y009810D03*
X005873Y009790D03*
X005883Y009415D03*
X022049Y010810D03*
X022874Y010790D03*
X022884Y010415D03*
D154*
X022859Y010450D03*
X005858Y009450D03*
D155*
X005433Y010363D03*
X005433Y010843D03*
D156*
X004813Y010753D03*
X005963Y010368D03*
D157*
X005128Y010368D03*
D158*
X004821Y010778D03*
X005981Y010373D03*
D159*
X005111Y010373D03*
D160*
X004823Y010788D03*
X005988Y010378D03*
D161*
X005996Y010383D03*
D162*
X006001Y010388D03*
X004831Y010808D03*
D163*
X005458Y010388D03*
D164*
X006006Y010393D03*
D165*
X006008Y010398D03*
X006008Y010828D03*
X004833Y010818D03*
D166*
X004838Y010828D03*
X006013Y010798D03*
X006013Y010793D03*
X006013Y010788D03*
X006013Y010783D03*
X006013Y010778D03*
X006013Y010403D03*
D167*
X006016Y010408D03*
X006016Y010748D03*
X006016Y010753D03*
X006016Y010758D03*
X006016Y010763D03*
X006016Y010768D03*
X006016Y010773D03*
D168*
X006018Y010743D03*
X006018Y010738D03*
X006018Y010733D03*
X006018Y010728D03*
X006018Y010723D03*
X006018Y010718D03*
X006018Y010413D03*
X004838Y010833D03*
D169*
X006021Y010713D03*
X006021Y010708D03*
X006021Y010703D03*
X006021Y010698D03*
X006021Y010693D03*
X006021Y010418D03*
D170*
X006023Y010423D03*
X006023Y010663D03*
X006023Y010668D03*
X006023Y010673D03*
X006023Y010678D03*
X006023Y010683D03*
X006023Y010688D03*
D171*
X005921Y010573D03*
X005921Y010568D03*
X005921Y010563D03*
X004876Y010433D03*
X004791Y010688D03*
D172*
X004788Y010683D03*
X004868Y010443D03*
X004873Y010438D03*
X005918Y010513D03*
X005918Y010518D03*
X005918Y010523D03*
X005918Y010538D03*
X005918Y010543D03*
X005918Y010548D03*
X005918Y010553D03*
X005918Y010558D03*
D173*
X004856Y010463D03*
X004786Y010673D03*
D174*
X004846Y010478D03*
D175*
X004826Y010508D03*
D176*
X004823Y010513D03*
X004818Y010518D03*
X004778Y010648D03*
D177*
X004776Y010643D03*
X004816Y010523D03*
D178*
X004813Y010528D03*
X004808Y010533D03*
X004773Y010638D03*
D179*
X004806Y010538D03*
D180*
X004796Y010553D03*
X004771Y010628D03*
D181*
X004768Y010623D03*
X004788Y010563D03*
X004793Y010558D03*
D182*
X004786Y010568D03*
D183*
X004783Y010573D03*
X004778Y010578D03*
X004768Y010618D03*
D184*
X004766Y010613D03*
X004776Y010583D03*
D185*
X004773Y010588D03*
X004768Y010593D03*
X004763Y010608D03*
D186*
X004766Y010598D03*
X005866Y010833D03*
D187*
X004763Y010603D03*
D188*
X005501Y010823D03*
X005501Y010828D03*
X005666Y010613D03*
D189*
X005711Y010663D03*
D190*
X004803Y010728D03*
D191*
X004806Y010733D03*
D192*
X004808Y010738D03*
D193*
X004808Y010743D03*
D194*
X004811Y010748D03*
D195*
X004813Y010758D03*
D196*
X004816Y010763D03*
D197*
X004818Y010768D03*
D198*
X004818Y010773D03*
D199*
X004823Y010783D03*
D200*
X004826Y010793D03*
D201*
X004828Y010798D03*
D202*
X004836Y010823D03*
X006011Y010823D03*
X006011Y010818D03*
X006011Y010813D03*
X006011Y010808D03*
X006011Y010803D03*
D203*
X004828Y010803D03*
D204*
X004833Y010813D03*
D205*
X005431Y010838D03*
D206*
X007213Y008397D03*
X007652Y007965D03*
X006913Y007239D03*
X006734Y007080D03*
X006727Y007086D03*
X006720Y007093D03*
X006740Y007066D03*
X006541Y007080D03*
X006534Y007073D03*
X006368Y007066D03*
X006368Y007060D03*
X006541Y006894D03*
X006554Y006880D03*
X006720Y006880D03*
X006727Y006887D03*
X006734Y006894D03*
X006740Y006907D03*
X007246Y006927D03*
X007246Y006933D03*
X007246Y006940D03*
X007246Y007033D03*
X007246Y007040D03*
X007246Y007047D03*
X007459Y007080D03*
X007472Y007053D03*
X007632Y007093D03*
X007798Y007093D03*
X007805Y007086D03*
X007812Y007073D03*
X007712Y006827D03*
X007625Y006880D03*
X007619Y006887D03*
X007372Y006827D03*
X008018Y006874D03*
X008211Y007086D03*
X008217Y007093D03*
X008397Y007066D03*
X008397Y007060D03*
X008397Y007053D03*
X008563Y007093D03*
X008730Y007093D03*
X008736Y007086D03*
X008743Y007073D03*
X008750Y007060D03*
X008743Y006900D03*
X008643Y006827D03*
X008557Y006880D03*
X008550Y006887D03*
X009215Y007093D03*
X009395Y007066D03*
X009395Y007060D03*
X010766Y007719D03*
X011291Y007719D03*
X012706Y007860D03*
X013099Y007873D03*
X013371Y007800D03*
X013371Y007793D03*
X013371Y007787D03*
X013371Y007780D03*
X013371Y007773D03*
X013371Y007767D03*
X013371Y007760D03*
X013371Y007753D03*
X013371Y007747D03*
X013371Y007740D03*
X013371Y007733D03*
X013371Y007727D03*
X013371Y007720D03*
X013371Y007713D03*
X013371Y007707D03*
X013371Y007700D03*
X013371Y007693D03*
X013371Y007687D03*
X013371Y007680D03*
X013371Y007673D03*
X013371Y007667D03*
X013371Y007660D03*
X013371Y007654D03*
X013371Y007647D03*
X013371Y007640D03*
X013371Y007634D03*
X013371Y007627D03*
X013371Y007620D03*
X013371Y007614D03*
X013371Y007607D03*
X013371Y007600D03*
X013371Y007594D03*
X013371Y007587D03*
X013371Y007580D03*
X013371Y007574D03*
X013371Y007567D03*
X013371Y007560D03*
X013099Y007567D03*
X014263Y007567D03*
X014263Y007560D03*
X014263Y007554D03*
X014416Y007607D03*
X014416Y007614D03*
X014423Y007594D03*
X014429Y007587D03*
X014409Y007860D03*
X014409Y007866D03*
X015201Y007860D03*
X015487Y007860D03*
X015913Y007873D03*
X015920Y008166D03*
X015793Y008159D03*
X015787Y008172D03*
X015780Y008179D03*
X015773Y008192D03*
X015767Y008199D03*
X015760Y008212D03*
X015753Y008219D03*
X015747Y008232D03*
X015740Y008239D03*
X015727Y008259D03*
X015594Y008412D03*
X015580Y008432D03*
X015574Y008439D03*
X015567Y008452D03*
X015560Y008459D03*
X015933Y008452D03*
X015427Y008192D03*
X015441Y008166D03*
X015441Y008159D03*
X015920Y007567D03*
X010766Y008617D03*
X006328Y007978D03*
X005662Y007239D03*
X005676Y007146D03*
X005489Y007080D03*
X005483Y007086D03*
X005476Y007093D03*
X005323Y007100D03*
X005316Y007093D03*
X005310Y007086D03*
X005296Y006894D03*
X005303Y006887D03*
X005310Y006880D03*
X005396Y006827D03*
X005476Y006880D03*
X005483Y006887D03*
X005489Y006894D03*
D207*
X005473Y007100D03*
X005606Y007286D03*
X005652Y007246D03*
X005852Y007246D03*
X005852Y007253D03*
X005852Y007259D03*
X005852Y007266D03*
X006364Y007073D03*
X006551Y007093D03*
X006637Y007146D03*
X006710Y007100D03*
X006857Y007286D03*
X007249Y007060D03*
X007249Y007053D03*
X007309Y007106D03*
X007376Y007146D03*
X007449Y007093D03*
X007456Y007086D03*
X007642Y007100D03*
X007715Y007146D03*
X007788Y007100D03*
X007795Y006880D03*
X007788Y006874D03*
X007635Y006874D03*
X007449Y006880D03*
X007442Y006874D03*
X007249Y006913D03*
X007249Y006920D03*
X006710Y006874D03*
X006637Y006827D03*
X008221Y007100D03*
X008281Y007146D03*
X008334Y007106D03*
X008394Y007073D03*
X008573Y007100D03*
X008647Y007146D03*
X008720Y007100D03*
X008726Y006880D03*
X008720Y006874D03*
X008567Y006874D03*
X008973Y006847D03*
X008973Y006840D03*
X008973Y006834D03*
X009219Y007100D03*
X009279Y007146D03*
X009332Y007106D03*
X009392Y007073D03*
X011295Y007725D03*
X012397Y007853D03*
X012596Y007846D03*
X012603Y007833D03*
X012603Y007826D03*
X012603Y007820D03*
X012603Y007813D03*
X012603Y007587D03*
X013102Y007574D03*
X013368Y007554D03*
X013508Y007860D03*
X013095Y007880D03*
X014093Y007580D03*
X014093Y007574D03*
X014433Y007580D03*
X014413Y007873D03*
X014413Y007880D03*
X015045Y008179D03*
X015444Y008153D03*
X015590Y007853D03*
X015790Y007840D03*
X015797Y007826D03*
X015797Y007820D03*
X015797Y007813D03*
X015916Y007880D03*
X015797Y008153D03*
X015790Y008166D03*
X015557Y008465D03*
X015038Y008432D03*
X014839Y008445D03*
X016183Y008565D03*
X016562Y008565D03*
X017739Y008013D03*
X016189Y007560D03*
X016189Y007554D03*
X015923Y007574D03*
X015923Y007580D03*
X015797Y007587D03*
X011295Y008610D03*
X010762Y008610D03*
X006331Y008357D03*
D208*
X006334Y008351D03*
X006328Y007985D03*
X007213Y008391D03*
X007652Y007971D03*
X006927Y007206D03*
X006927Y007200D03*
X006927Y007193D03*
X006927Y007186D03*
X006927Y007180D03*
X006927Y007173D03*
X006927Y007166D03*
X006927Y007160D03*
X006927Y007153D03*
X006927Y007100D03*
X006927Y007093D03*
X006927Y007086D03*
X006927Y007080D03*
X006927Y007073D03*
X006927Y007066D03*
X006927Y007060D03*
X006927Y007053D03*
X006927Y007047D03*
X006927Y007040D03*
X006927Y007033D03*
X006927Y007027D03*
X006927Y007020D03*
X006927Y007013D03*
X006927Y007007D03*
X006927Y007000D03*
X006927Y006993D03*
X006927Y006987D03*
X006927Y006980D03*
X006927Y006973D03*
X006927Y006967D03*
X006927Y006960D03*
X006927Y006953D03*
X006927Y006947D03*
X006927Y006940D03*
X006927Y006933D03*
X006927Y006927D03*
X006927Y006920D03*
X006927Y006913D03*
X006927Y006907D03*
X006927Y006900D03*
X006927Y006894D03*
X006927Y006887D03*
X006927Y006880D03*
X006927Y006874D03*
X006927Y006867D03*
X006927Y006860D03*
X006927Y006854D03*
X006927Y006847D03*
X006927Y006840D03*
X006927Y006834D03*
X006754Y006940D03*
X006754Y007033D03*
X006521Y007040D03*
X006514Y007013D03*
X006514Y007007D03*
X006514Y007000D03*
X006514Y006973D03*
X006514Y006967D03*
X006514Y006960D03*
X006521Y006933D03*
X006374Y006933D03*
X006374Y006927D03*
X006374Y006920D03*
X006374Y006913D03*
X006374Y006907D03*
X006374Y006900D03*
X006374Y006894D03*
X006374Y006887D03*
X006374Y006880D03*
X006374Y006874D03*
X006374Y006867D03*
X006374Y006860D03*
X006374Y006854D03*
X006374Y006847D03*
X006374Y006840D03*
X006374Y006834D03*
X006374Y006940D03*
X006374Y006947D03*
X006374Y006953D03*
X006374Y006960D03*
X006374Y006967D03*
X006374Y006973D03*
X006374Y006980D03*
X006374Y006987D03*
X006374Y006993D03*
X006374Y007000D03*
X006374Y007007D03*
X006374Y007013D03*
X006374Y007020D03*
X006374Y007027D03*
X006374Y007100D03*
X006374Y007106D03*
X006374Y007113D03*
X006374Y007120D03*
X006374Y007126D03*
X006374Y007133D03*
X006374Y007140D03*
X006321Y007100D03*
X006015Y007100D03*
X006015Y007106D03*
X006015Y007113D03*
X006015Y007120D03*
X006015Y007126D03*
X006015Y007133D03*
X006015Y007140D03*
X006015Y007146D03*
X006015Y007153D03*
X006015Y007160D03*
X006015Y007166D03*
X006015Y007173D03*
X006015Y007180D03*
X006015Y007186D03*
X006015Y007193D03*
X006015Y007200D03*
X006015Y007206D03*
X006015Y007213D03*
X006015Y007220D03*
X006015Y007226D03*
X006015Y007233D03*
X006015Y007239D03*
X006015Y007246D03*
X006015Y007253D03*
X006015Y007259D03*
X006015Y007266D03*
X006015Y007273D03*
X006015Y007279D03*
X006015Y007093D03*
X006015Y007086D03*
X006015Y007080D03*
X006015Y007073D03*
X006015Y007066D03*
X006015Y007060D03*
X006015Y007053D03*
X006015Y007047D03*
X006015Y007040D03*
X006015Y007033D03*
X006015Y007027D03*
X006015Y007020D03*
X006015Y007013D03*
X006015Y007007D03*
X006015Y007000D03*
X006015Y006993D03*
X006015Y006987D03*
X006015Y006980D03*
X006015Y006973D03*
X006015Y006967D03*
X006015Y006960D03*
X006015Y006953D03*
X006015Y006947D03*
X006015Y006940D03*
X006015Y006933D03*
X006015Y006927D03*
X006015Y006920D03*
X006015Y006913D03*
X006015Y006907D03*
X006015Y006900D03*
X006015Y006894D03*
X006015Y006887D03*
X006015Y006880D03*
X006015Y006874D03*
X006015Y006867D03*
X006015Y006860D03*
X006015Y006854D03*
X006015Y006847D03*
X006015Y006840D03*
X006015Y006834D03*
X005676Y006834D03*
X005676Y006840D03*
X005676Y006847D03*
X005676Y006854D03*
X005676Y006860D03*
X005676Y006867D03*
X005676Y006874D03*
X005676Y006880D03*
X005676Y006887D03*
X005676Y006894D03*
X005676Y006900D03*
X005676Y006907D03*
X005676Y006913D03*
X005676Y006920D03*
X005676Y006927D03*
X005676Y006933D03*
X005676Y006940D03*
X005676Y006947D03*
X005676Y006953D03*
X005676Y006960D03*
X005676Y006967D03*
X005676Y006973D03*
X005676Y006980D03*
X005676Y006987D03*
X005676Y006993D03*
X005676Y007000D03*
X005676Y007007D03*
X005676Y007013D03*
X005676Y007020D03*
X005676Y007027D03*
X005676Y007033D03*
X005676Y007040D03*
X005676Y007047D03*
X005676Y007053D03*
X005676Y007060D03*
X005676Y007066D03*
X005676Y007073D03*
X005676Y007080D03*
X005676Y007086D03*
X005676Y007093D03*
X005676Y007100D03*
X005676Y007153D03*
X005676Y007160D03*
X005676Y007166D03*
X005676Y007173D03*
X005676Y007180D03*
X005676Y007186D03*
X005676Y007193D03*
X005676Y007200D03*
X005509Y007033D03*
X005509Y006940D03*
X005296Y006900D03*
X005290Y007020D03*
X005290Y007027D03*
X005290Y007033D03*
X005296Y007060D03*
X007299Y007100D03*
X007479Y006947D03*
X007612Y007047D03*
X007612Y007053D03*
X007831Y006967D03*
X007825Y006927D03*
X007938Y006867D03*
X007965Y006827D03*
X008024Y006887D03*
X008024Y006894D03*
X008204Y007066D03*
X008537Y007020D03*
X008543Y007047D03*
X008543Y007053D03*
X008756Y007040D03*
X008763Y006973D03*
X008763Y006967D03*
X008756Y006933D03*
X008909Y006993D03*
X008909Y007000D03*
X008909Y007007D03*
X008903Y007020D03*
X008903Y007027D03*
X008896Y007040D03*
X008889Y007060D03*
X008883Y007080D03*
X008876Y007100D03*
X008916Y006987D03*
X008916Y006980D03*
X008916Y006973D03*
X008923Y006967D03*
X008923Y006960D03*
X008923Y006953D03*
X008929Y006947D03*
X008929Y006940D03*
X008929Y006933D03*
X008936Y006927D03*
X008936Y006920D03*
X008936Y006913D03*
X008943Y006907D03*
X008943Y006900D03*
X008943Y006894D03*
X008996Y006887D03*
X009003Y006900D03*
X009003Y006907D03*
X009009Y006920D03*
X009009Y006927D03*
X009016Y006940D03*
X009016Y006947D03*
X009022Y006960D03*
X009022Y006967D03*
X009029Y006980D03*
X009036Y007000D03*
X009202Y007060D03*
X009202Y007066D03*
X009561Y007066D03*
X009561Y007060D03*
X009561Y007053D03*
X009561Y007047D03*
X009561Y007040D03*
X009561Y007033D03*
X009561Y007027D03*
X009561Y007020D03*
X009561Y007013D03*
X009561Y007007D03*
X009561Y007000D03*
X009561Y006993D03*
X009561Y006987D03*
X009561Y006980D03*
X009561Y006973D03*
X009561Y006967D03*
X009561Y006960D03*
X009561Y006953D03*
X009561Y006947D03*
X009561Y006940D03*
X009561Y006933D03*
X009561Y006927D03*
X009561Y006920D03*
X009561Y006913D03*
X009561Y006907D03*
X009561Y006900D03*
X009561Y006894D03*
X009561Y006887D03*
X009561Y006880D03*
X009561Y006874D03*
X009561Y006867D03*
X009561Y006860D03*
X009561Y006854D03*
X009561Y006847D03*
X009561Y006840D03*
X009561Y006834D03*
X009561Y007073D03*
X009561Y007080D03*
X009561Y007086D03*
X009561Y007093D03*
X009561Y007100D03*
X009561Y007106D03*
X009561Y007113D03*
X009561Y007120D03*
X009561Y007126D03*
X009561Y007133D03*
X009561Y007140D03*
X009561Y007146D03*
X009561Y007153D03*
X009561Y007160D03*
X009561Y007166D03*
X009561Y007173D03*
X009561Y007180D03*
X009561Y007186D03*
X009561Y007193D03*
X009561Y007200D03*
X009561Y007206D03*
X009561Y007213D03*
X009561Y007220D03*
X009561Y007226D03*
X009561Y007233D03*
X009561Y007239D03*
X009561Y007246D03*
X009561Y007253D03*
X009561Y007259D03*
X007299Y006874D03*
X010772Y008623D03*
X011285Y008623D03*
X012999Y007853D03*
X013092Y007554D03*
X013478Y007580D03*
X013498Y007853D03*
X013984Y007813D03*
X013990Y007800D03*
X013990Y007793D03*
X013997Y007780D03*
X014004Y007767D03*
X014017Y007740D03*
X014017Y007733D03*
X014023Y007720D03*
X014030Y007707D03*
X014030Y007700D03*
X014037Y007693D03*
X014037Y007687D03*
X014043Y007673D03*
X014263Y007673D03*
X014263Y007667D03*
X014263Y007660D03*
X014263Y007654D03*
X014263Y007647D03*
X014263Y007640D03*
X014263Y007634D03*
X014263Y007627D03*
X014263Y007620D03*
X014263Y007614D03*
X014263Y007607D03*
X014263Y007600D03*
X014263Y007594D03*
X014263Y007587D03*
X014263Y007580D03*
X014263Y007574D03*
X014263Y007680D03*
X014263Y007687D03*
X014263Y007693D03*
X014263Y007700D03*
X014263Y007707D03*
X014263Y007713D03*
X014263Y007720D03*
X014263Y007727D03*
X014263Y007733D03*
X014263Y007740D03*
X014263Y007747D03*
X014263Y007753D03*
X014263Y007760D03*
X014263Y007767D03*
X014263Y007773D03*
X014263Y007780D03*
X014263Y007787D03*
X014263Y007793D03*
X014263Y007800D03*
X014263Y007807D03*
X014263Y007813D03*
X014822Y008432D03*
X015055Y008192D03*
X015374Y008332D03*
X015361Y008365D03*
X015348Y008399D03*
X015341Y008419D03*
X015394Y008279D03*
X015906Y008172D03*
X015960Y008292D03*
X015920Y008445D03*
X016578Y008558D03*
X015494Y007853D03*
X015195Y007853D03*
X015807Y007600D03*
X015813Y007607D03*
X015913Y007554D03*
X011343Y010688D03*
X013639Y010741D03*
D209*
X013609Y010748D03*
X011041Y011007D03*
X011027Y011001D03*
X011007Y010648D03*
X011007Y010641D03*
X011007Y010635D03*
X011007Y010628D03*
X011014Y010621D03*
X011014Y010615D03*
X011014Y010608D03*
X011014Y010601D03*
X011014Y010595D03*
X011014Y010588D03*
X011014Y010582D03*
X011014Y010575D03*
X011014Y010568D03*
X011014Y010562D03*
X011014Y010555D03*
X011021Y010502D03*
X011021Y010495D03*
X011021Y010488D03*
X011021Y010482D03*
X011021Y010475D03*
X011021Y010468D03*
X010209Y011014D03*
X010196Y011001D03*
X010189Y010994D03*
X010182Y010987D03*
X010536Y008637D03*
X010529Y008630D03*
X010523Y008623D03*
X010516Y008617D03*
X010496Y008590D03*
X010643Y008470D03*
X010649Y008477D03*
X010656Y008484D03*
X010629Y008450D03*
X010616Y008430D03*
X011295Y008291D03*
X011421Y008457D03*
X011408Y008477D03*
X011401Y008484D03*
X011315Y008577D03*
X011528Y008630D03*
X011534Y008623D03*
X011547Y008603D03*
X011554Y008597D03*
X011428Y007885D03*
X011414Y007865D03*
X011408Y007858D03*
X011401Y007852D03*
X011315Y007752D03*
X011508Y007685D03*
X011514Y007692D03*
X011521Y007699D03*
X011528Y007705D03*
X011534Y007712D03*
X011541Y007719D03*
X010742Y007752D03*
X010649Y007858D03*
X010643Y007865D03*
X010636Y007872D03*
X010510Y007725D03*
X010516Y007719D03*
X010523Y007712D03*
X010529Y007705D03*
X010536Y007699D03*
X010543Y007692D03*
X008647Y007140D03*
X008640Y006834D03*
X007968Y006840D03*
X007715Y007140D03*
X007376Y007140D03*
X006637Y006834D03*
X006278Y007120D03*
X006271Y007126D03*
X005393Y006834D03*
X006318Y007958D03*
X006324Y008377D03*
X007216Y008417D03*
X012570Y007866D03*
X013122Y007620D03*
X013195Y007707D03*
X013202Y007713D03*
X013242Y007760D03*
X013248Y007767D03*
X013368Y007540D03*
X012849Y007547D03*
X014093Y007620D03*
X014093Y007627D03*
X014546Y007520D03*
X014825Y007560D03*
X014832Y007567D03*
X014839Y007580D03*
X014845Y007587D03*
X014845Y007594D03*
X014852Y007600D03*
X014859Y007614D03*
X014865Y007627D03*
X014912Y007680D03*
X014878Y007733D03*
X014865Y007740D03*
X014859Y007853D03*
X014679Y007886D03*
X015158Y008146D03*
X015025Y008372D03*
X015291Y008472D03*
X015291Y008479D03*
X015544Y008485D03*
X015677Y008326D03*
X015677Y008319D03*
X015670Y008306D03*
X015730Y008392D03*
X015743Y008412D03*
X015757Y008432D03*
X015770Y008452D03*
X015770Y008459D03*
X015810Y008133D03*
X015577Y008179D03*
X015564Y008159D03*
X015564Y008153D03*
X015617Y007866D03*
X015757Y007866D03*
X015777Y007780D03*
X015943Y007627D03*
X015943Y007620D03*
X016003Y007693D03*
X016010Y007700D03*
X016036Y007733D03*
X016049Y007747D03*
X016056Y007753D03*
X016089Y007793D03*
X016096Y007800D03*
X016103Y007807D03*
X016369Y007999D03*
X017081Y007986D03*
X017453Y007993D03*
X017460Y007999D03*
X017467Y008013D03*
X017473Y008019D03*
X017473Y008026D03*
X017194Y007660D03*
X016189Y007540D03*
X015344Y007547D03*
D210*
X015803Y007594D03*
X015916Y007560D03*
X015916Y007693D03*
X015916Y007700D03*
X015916Y007707D03*
X015916Y007713D03*
X015916Y007720D03*
X015916Y007727D03*
X015916Y007733D03*
X015916Y007740D03*
X015916Y007747D03*
X015916Y007753D03*
X015916Y007760D03*
X015916Y007767D03*
X015916Y007773D03*
X015916Y007780D03*
X015916Y007787D03*
X015916Y007793D03*
X015916Y007800D03*
X015916Y007807D03*
X015916Y007813D03*
X015916Y007820D03*
X015916Y007826D03*
X015916Y007833D03*
X015916Y007840D03*
X015916Y007846D03*
X015916Y007853D03*
X015916Y007860D03*
X015916Y007866D03*
X015584Y007846D03*
X015437Y008172D03*
X015431Y008179D03*
X015431Y008186D03*
X015424Y008199D03*
X015424Y008206D03*
X015417Y008212D03*
X015417Y008219D03*
X015397Y008272D03*
X015391Y008286D03*
X015391Y008292D03*
X015384Y008299D03*
X015384Y008306D03*
X015384Y008312D03*
X015377Y008319D03*
X015377Y008326D03*
X015371Y008339D03*
X015371Y008345D03*
X015364Y008352D03*
X015364Y008359D03*
X015358Y008372D03*
X015358Y008379D03*
X015351Y008385D03*
X015351Y008392D03*
X015344Y008405D03*
X015344Y008412D03*
X015338Y008425D03*
X015570Y008445D03*
X015584Y008425D03*
X015590Y008419D03*
X015597Y008405D03*
X015604Y008399D03*
X015604Y008392D03*
X015610Y008385D03*
X015617Y008379D03*
X015624Y008372D03*
X015624Y008365D03*
X015723Y008266D03*
X015730Y008252D03*
X015737Y008246D03*
X015750Y008226D03*
X015763Y008206D03*
X015777Y008186D03*
X016189Y007807D03*
X016189Y007800D03*
X016189Y007793D03*
X016189Y007787D03*
X016189Y007780D03*
X016189Y007773D03*
X016189Y007767D03*
X016189Y007760D03*
X016189Y007753D03*
X016189Y007747D03*
X016189Y007740D03*
X016189Y007733D03*
X016189Y007727D03*
X016189Y007720D03*
X016189Y007713D03*
X016189Y007707D03*
X016189Y007700D03*
X016189Y007693D03*
X016189Y007687D03*
X016189Y007680D03*
X016189Y007673D03*
X016189Y007667D03*
X016189Y007660D03*
X016189Y007654D03*
X016189Y007647D03*
X016189Y007640D03*
X016189Y007634D03*
X016189Y007627D03*
X016189Y007620D03*
X016189Y007614D03*
X016189Y007607D03*
X016189Y007600D03*
X016189Y007594D03*
X016189Y007587D03*
X016189Y007580D03*
X016189Y007574D03*
X016189Y007567D03*
X015051Y008186D03*
X014832Y008439D03*
X014413Y007853D03*
X014413Y007846D03*
X014413Y007840D03*
X014413Y007833D03*
X014413Y007826D03*
X014413Y007820D03*
X014413Y007813D03*
X014413Y007807D03*
X014413Y007800D03*
X014413Y007793D03*
X014413Y007787D03*
X014413Y007780D03*
X014413Y007773D03*
X014413Y007767D03*
X014413Y007760D03*
X014413Y007753D03*
X014413Y007747D03*
X014413Y007740D03*
X014413Y007733D03*
X014413Y007727D03*
X014413Y007720D03*
X014413Y007713D03*
X014413Y007707D03*
X014413Y007700D03*
X014413Y007693D03*
X014413Y007687D03*
X014413Y007680D03*
X014413Y007673D03*
X014413Y007667D03*
X014413Y007660D03*
X014413Y007654D03*
X014413Y007647D03*
X014413Y007640D03*
X014413Y007634D03*
X014413Y007627D03*
X014413Y007620D03*
X014419Y007600D03*
X014093Y007567D03*
X014093Y007560D03*
X014047Y007667D03*
X014040Y007680D03*
X014027Y007713D03*
X014020Y007727D03*
X014000Y007773D03*
X013994Y007787D03*
X013987Y007807D03*
X013488Y007574D03*
X013095Y007560D03*
X013095Y007693D03*
X013095Y007700D03*
X013095Y007707D03*
X013095Y007713D03*
X013095Y007720D03*
X013095Y007727D03*
X013095Y007733D03*
X013095Y007740D03*
X013095Y007747D03*
X013095Y007753D03*
X013095Y007760D03*
X013095Y007767D03*
X013095Y007773D03*
X013095Y007780D03*
X013095Y007787D03*
X013095Y007793D03*
X013095Y007800D03*
X013095Y007807D03*
X013095Y007813D03*
X013095Y007820D03*
X013095Y007826D03*
X013095Y007833D03*
X013095Y007840D03*
X013095Y007846D03*
X013095Y007853D03*
X013095Y007860D03*
X013095Y007866D03*
X012616Y007600D03*
X012610Y007594D03*
X012390Y007846D03*
X011288Y007712D03*
X010769Y007712D03*
X009398Y007140D03*
X009398Y007133D03*
X009398Y007126D03*
X009398Y007120D03*
X009398Y007113D03*
X009398Y007106D03*
X009398Y007053D03*
X009398Y007047D03*
X009398Y007040D03*
X009398Y007033D03*
X009398Y007027D03*
X009398Y007020D03*
X009398Y007013D03*
X009398Y007007D03*
X009398Y007000D03*
X009398Y006993D03*
X009398Y006987D03*
X009398Y006980D03*
X009398Y006973D03*
X009398Y006967D03*
X009398Y006960D03*
X009398Y006953D03*
X009398Y006947D03*
X009398Y006940D03*
X009398Y006933D03*
X009398Y006927D03*
X009398Y006920D03*
X009398Y006913D03*
X009398Y006907D03*
X009398Y006900D03*
X009398Y006894D03*
X009398Y006887D03*
X009398Y006880D03*
X009398Y006874D03*
X009398Y006867D03*
X009398Y006860D03*
X009398Y006854D03*
X009398Y006847D03*
X009398Y006840D03*
X009398Y006834D03*
X009199Y006834D03*
X009199Y006840D03*
X009199Y006847D03*
X009199Y006854D03*
X009199Y006860D03*
X009199Y006867D03*
X009199Y006874D03*
X009199Y006880D03*
X009199Y006887D03*
X009199Y006894D03*
X009199Y006900D03*
X009199Y006907D03*
X009199Y006913D03*
X009199Y006920D03*
X009199Y006927D03*
X009199Y006933D03*
X009199Y006940D03*
X009199Y006947D03*
X009199Y006953D03*
X009199Y006960D03*
X009199Y006967D03*
X009199Y006973D03*
X009199Y006980D03*
X009199Y006987D03*
X009199Y006993D03*
X009199Y007000D03*
X009199Y007007D03*
X009199Y007013D03*
X009199Y007020D03*
X009199Y007027D03*
X009199Y007033D03*
X009199Y007040D03*
X009199Y007047D03*
X009199Y007053D03*
X009205Y007073D03*
X009205Y007080D03*
X009212Y007086D03*
X009079Y007126D03*
X009079Y007133D03*
X009079Y007140D03*
X009072Y007120D03*
X009072Y007113D03*
X009072Y007106D03*
X009066Y007100D03*
X009066Y007093D03*
X009066Y007086D03*
X009059Y007080D03*
X009059Y007073D03*
X009059Y007066D03*
X009052Y007060D03*
X009052Y007053D03*
X009052Y007047D03*
X009046Y007040D03*
X009046Y007033D03*
X009046Y007027D03*
X009039Y007020D03*
X009039Y007013D03*
X009039Y007007D03*
X009032Y006993D03*
X009032Y006987D03*
X009026Y006973D03*
X009019Y006953D03*
X009012Y006933D03*
X009006Y006913D03*
X008999Y006894D03*
X008906Y007013D03*
X008899Y007033D03*
X008893Y007047D03*
X008893Y007053D03*
X008886Y007066D03*
X008886Y007073D03*
X008879Y007086D03*
X008879Y007093D03*
X008873Y007106D03*
X008873Y007113D03*
X008873Y007120D03*
X008866Y007126D03*
X008866Y007133D03*
X008866Y007140D03*
X008740Y007080D03*
X008746Y007066D03*
X008753Y007053D03*
X008753Y007047D03*
X008760Y007033D03*
X008760Y007027D03*
X008760Y007020D03*
X008760Y006960D03*
X008760Y006953D03*
X008760Y006947D03*
X008760Y006940D03*
X008753Y006927D03*
X008753Y006920D03*
X008753Y006913D03*
X008746Y006907D03*
X008740Y006894D03*
X008733Y006887D03*
X008547Y006894D03*
X008540Y007027D03*
X008540Y007033D03*
X008540Y007040D03*
X008547Y007060D03*
X008547Y007066D03*
X008553Y007073D03*
X008553Y007080D03*
X008560Y007086D03*
X008400Y007106D03*
X008400Y007113D03*
X008400Y007120D03*
X008400Y007126D03*
X008400Y007133D03*
X008400Y007140D03*
X008400Y007047D03*
X008400Y007040D03*
X008400Y007033D03*
X008400Y007027D03*
X008400Y007020D03*
X008400Y007013D03*
X008400Y007007D03*
X008400Y007000D03*
X008400Y006993D03*
X008400Y006987D03*
X008400Y006980D03*
X008400Y006973D03*
X008400Y006967D03*
X008400Y006960D03*
X008400Y006953D03*
X008400Y006947D03*
X008400Y006940D03*
X008400Y006933D03*
X008400Y006927D03*
X008400Y006920D03*
X008400Y006913D03*
X008400Y006907D03*
X008400Y006900D03*
X008400Y006894D03*
X008400Y006887D03*
X008400Y006880D03*
X008400Y006874D03*
X008400Y006867D03*
X008400Y006860D03*
X008400Y006854D03*
X008400Y006847D03*
X008400Y006840D03*
X008400Y006834D03*
X008201Y006834D03*
X008201Y006840D03*
X008201Y006847D03*
X008201Y006854D03*
X008201Y006860D03*
X008201Y006867D03*
X008201Y006874D03*
X008201Y006880D03*
X008201Y006887D03*
X008201Y006894D03*
X008201Y006900D03*
X008201Y006907D03*
X008201Y006913D03*
X008201Y006920D03*
X008201Y006927D03*
X008201Y006933D03*
X008201Y006940D03*
X008201Y006947D03*
X008201Y006953D03*
X008201Y006960D03*
X008201Y006967D03*
X008201Y006973D03*
X008201Y006980D03*
X008201Y006987D03*
X008201Y006993D03*
X008201Y007000D03*
X008201Y007007D03*
X008201Y007013D03*
X008201Y007020D03*
X008201Y007027D03*
X008201Y007033D03*
X008201Y007040D03*
X008201Y007047D03*
X008201Y007053D03*
X008201Y007060D03*
X008207Y007073D03*
X008207Y007080D03*
X008028Y007080D03*
X008028Y007086D03*
X008028Y007093D03*
X008028Y007100D03*
X008028Y007073D03*
X008028Y007066D03*
X008028Y007060D03*
X008028Y007053D03*
X008028Y007047D03*
X008028Y007040D03*
X008028Y007033D03*
X008028Y007027D03*
X008028Y007020D03*
X008028Y007013D03*
X008028Y007007D03*
X008028Y007000D03*
X008028Y006993D03*
X008028Y006987D03*
X008028Y006980D03*
X008028Y006973D03*
X008028Y006967D03*
X008028Y006960D03*
X008028Y006953D03*
X008028Y006947D03*
X008028Y006940D03*
X008028Y006933D03*
X008028Y006927D03*
X008028Y006920D03*
X008028Y006913D03*
X008028Y006907D03*
X008028Y006900D03*
X008021Y006880D03*
X007828Y006933D03*
X007828Y006940D03*
X007828Y006947D03*
X007828Y006953D03*
X007828Y006960D03*
X007835Y006973D03*
X007828Y007020D03*
X007828Y007027D03*
X007828Y007033D03*
X007828Y007040D03*
X007821Y007047D03*
X007821Y007053D03*
X007821Y007060D03*
X007815Y007066D03*
X007808Y007080D03*
X007629Y007086D03*
X007622Y007080D03*
X007622Y007073D03*
X007615Y007066D03*
X007615Y007060D03*
X007609Y007040D03*
X007609Y007033D03*
X007609Y007027D03*
X007609Y007020D03*
X007615Y006894D03*
X007476Y006920D03*
X007476Y006927D03*
X007476Y006933D03*
X007476Y006940D03*
X007482Y006953D03*
X007482Y006960D03*
X007482Y006967D03*
X007482Y006973D03*
X007482Y006980D03*
X007482Y006987D03*
X007482Y006993D03*
X007482Y007000D03*
X007482Y007007D03*
X007482Y007013D03*
X007482Y007020D03*
X007482Y007027D03*
X007476Y007033D03*
X007476Y007040D03*
X007476Y007047D03*
X007469Y007060D03*
X007469Y007066D03*
X007462Y007073D03*
X007243Y007100D03*
X007243Y007106D03*
X007243Y007113D03*
X007243Y007120D03*
X007243Y007126D03*
X007243Y007133D03*
X007243Y007140D03*
X007243Y007146D03*
X007243Y007153D03*
X007243Y007160D03*
X007243Y007166D03*
X007243Y007173D03*
X007243Y007180D03*
X007243Y007186D03*
X007243Y007193D03*
X007243Y007200D03*
X007243Y007206D03*
X007243Y007213D03*
X007243Y007220D03*
X007243Y007226D03*
X007243Y007233D03*
X007243Y007239D03*
X007243Y007246D03*
X007243Y007253D03*
X007243Y007259D03*
X007243Y007266D03*
X007243Y007273D03*
X007243Y007279D03*
X006923Y007226D03*
X006923Y007220D03*
X006923Y007213D03*
X006917Y007233D03*
X006930Y007146D03*
X006750Y007053D03*
X006750Y007047D03*
X006750Y007040D03*
X006757Y007027D03*
X006757Y007020D03*
X006757Y007013D03*
X006757Y007007D03*
X006757Y007000D03*
X006757Y006993D03*
X006757Y006987D03*
X006757Y006980D03*
X006757Y006973D03*
X006757Y006967D03*
X006757Y006960D03*
X006757Y006953D03*
X006757Y006947D03*
X006750Y006933D03*
X006750Y006927D03*
X006744Y006920D03*
X006744Y006913D03*
X006737Y006900D03*
X006537Y006900D03*
X006531Y006907D03*
X006531Y006913D03*
X006524Y006920D03*
X006524Y006927D03*
X006517Y006940D03*
X006517Y006947D03*
X006517Y006953D03*
X006511Y006980D03*
X006511Y006987D03*
X006511Y006993D03*
X006517Y007020D03*
X006517Y007027D03*
X006517Y007033D03*
X006524Y007047D03*
X006524Y007053D03*
X006531Y007060D03*
X006531Y007066D03*
X006371Y007053D03*
X006371Y007047D03*
X006371Y007040D03*
X006371Y007033D03*
X006265Y007146D03*
X005852Y007140D03*
X005852Y007133D03*
X005852Y007126D03*
X005852Y007120D03*
X005852Y007113D03*
X005852Y007106D03*
X005852Y007100D03*
X005852Y007093D03*
X005852Y007086D03*
X005852Y007080D03*
X005852Y007073D03*
X005852Y007066D03*
X005852Y007060D03*
X005852Y007053D03*
X005852Y007047D03*
X005852Y007040D03*
X005852Y007033D03*
X005852Y007027D03*
X005852Y007020D03*
X005852Y007013D03*
X005852Y007007D03*
X005852Y007000D03*
X005852Y006993D03*
X005852Y006987D03*
X005852Y006980D03*
X005852Y006973D03*
X005852Y006967D03*
X005852Y006960D03*
X005852Y006953D03*
X005852Y006947D03*
X005852Y006940D03*
X005852Y006933D03*
X005852Y006927D03*
X005852Y006920D03*
X005852Y006913D03*
X005852Y006907D03*
X005852Y006900D03*
X005852Y006894D03*
X005852Y006887D03*
X005852Y006880D03*
X005852Y006874D03*
X005852Y006867D03*
X005852Y006860D03*
X005852Y006854D03*
X005852Y006847D03*
X005852Y006840D03*
X005852Y006834D03*
X005506Y006920D03*
X005506Y006927D03*
X005506Y006933D03*
X005513Y006947D03*
X005513Y006953D03*
X005513Y006960D03*
X005513Y006967D03*
X005513Y006973D03*
X005513Y007020D03*
X005513Y007027D03*
X005506Y007040D03*
X005506Y007047D03*
X005506Y007053D03*
X005499Y007060D03*
X005499Y007066D03*
X005493Y007073D03*
X005306Y007080D03*
X005300Y007073D03*
X005300Y007066D03*
X005293Y007053D03*
X005293Y007047D03*
X005293Y007040D03*
X005499Y006913D03*
X005499Y006907D03*
X005493Y006900D03*
X005672Y007206D03*
X005672Y007213D03*
X005672Y007220D03*
X005672Y007226D03*
X005666Y007233D03*
X005852Y007239D03*
X005852Y007273D03*
X005852Y007279D03*
X006737Y007073D03*
X006744Y007060D03*
X007243Y007027D03*
X007243Y007020D03*
X007243Y007013D03*
X007243Y007007D03*
X007243Y007000D03*
X007243Y006993D03*
X007243Y006987D03*
X007243Y006980D03*
X007243Y006973D03*
X007243Y006967D03*
X007243Y006960D03*
X007243Y006953D03*
X007243Y006947D03*
X007243Y006874D03*
X007243Y006867D03*
X007243Y006860D03*
X007243Y006854D03*
X007243Y006847D03*
X007243Y006840D03*
X007243Y006834D03*
X007456Y006887D03*
X007462Y006894D03*
X007462Y006900D03*
X007469Y006907D03*
X007469Y006913D03*
X007802Y006887D03*
X007808Y006894D03*
X007815Y006900D03*
X007815Y006907D03*
X007821Y006913D03*
X007821Y006920D03*
X008028Y007146D03*
X008028Y007153D03*
X008028Y007160D03*
X008028Y007166D03*
X008028Y007173D03*
X008028Y007180D03*
X008028Y007186D03*
X008028Y007193D03*
X008028Y007200D03*
X008028Y007206D03*
X008028Y007213D03*
X008028Y007220D03*
X008028Y007226D03*
X011288Y008617D03*
D211*
X011311Y008584D03*
X011411Y008470D03*
X011418Y008464D03*
X011424Y008450D03*
X011431Y008444D03*
X011438Y008437D03*
X011438Y008430D03*
X011444Y008424D03*
X011451Y008411D03*
X011458Y008397D03*
X011471Y008371D03*
X011591Y008550D03*
X011584Y008557D03*
X011577Y008570D03*
X011571Y008577D03*
X011564Y008584D03*
X011557Y008590D03*
X011544Y008610D03*
X011538Y008617D03*
X010746Y008584D03*
X010639Y008464D03*
X010633Y008457D03*
X010626Y008444D03*
X010619Y008437D03*
X010613Y008424D03*
X010606Y008411D03*
X010759Y008291D03*
X010759Y008045D03*
X010759Y007951D03*
X010626Y007892D03*
X010626Y007885D03*
X010633Y007878D03*
X010619Y007898D03*
X010613Y007905D03*
X010613Y007911D03*
X010606Y007918D03*
X010599Y007931D03*
X010593Y007945D03*
X010586Y007958D03*
X010473Y007772D03*
X010480Y007765D03*
X010486Y007752D03*
X010493Y007745D03*
X010500Y007739D03*
X010506Y007732D03*
X010746Y007745D03*
X011298Y007951D03*
X011298Y008045D03*
X011451Y007925D03*
X011444Y007911D03*
X011444Y007905D03*
X011438Y007898D03*
X011431Y007892D03*
X011424Y007878D03*
X011418Y007872D03*
X011564Y007752D03*
X011564Y007745D03*
X011557Y007739D03*
X011551Y007732D03*
X011544Y007725D03*
X011571Y007758D03*
X011577Y007765D03*
X011591Y007785D03*
X012380Y007667D03*
X012586Y007780D03*
X013119Y007614D03*
X013910Y007554D03*
X014263Y007540D03*
X014456Y007567D03*
X014649Y007574D03*
X014656Y007580D03*
X014855Y007607D03*
X014862Y007620D03*
X014868Y007634D03*
X014875Y007640D03*
X014875Y007647D03*
X014882Y007654D03*
X014888Y007660D03*
X014902Y007673D03*
X014849Y007760D03*
X014842Y007826D03*
X014849Y007840D03*
X014849Y007846D03*
X015068Y007554D03*
X015574Y007667D03*
X015940Y007614D03*
X015913Y007893D03*
X015574Y008172D03*
X015567Y008166D03*
X015580Y008186D03*
X015587Y008192D03*
X015594Y008199D03*
X015594Y008206D03*
X015600Y008212D03*
X015607Y008219D03*
X015614Y008232D03*
X015620Y008239D03*
X015627Y008252D03*
X015634Y008259D03*
X015640Y008266D03*
X015674Y008312D03*
X015713Y008365D03*
X015713Y008372D03*
X015720Y008379D03*
X015727Y008385D03*
X015733Y008399D03*
X015740Y008405D03*
X015747Y008419D03*
X015753Y008425D03*
X015760Y008439D03*
X015767Y008445D03*
X015288Y008485D03*
X015181Y008212D03*
X015161Y008159D03*
X015161Y008153D03*
X014822Y008259D03*
X016372Y008166D03*
X016372Y008159D03*
X016372Y008153D03*
X016372Y007993D03*
X016372Y007986D03*
X016372Y007980D03*
X016372Y007574D03*
X016372Y007567D03*
X016372Y007560D03*
X017084Y007980D03*
X017463Y008006D03*
X017743Y008026D03*
X016372Y008552D03*
X016372Y008558D03*
X011749Y010621D03*
X011363Y010701D03*
X011017Y010994D03*
X010937Y010861D03*
X010931Y010841D03*
X010179Y010981D03*
X010513Y008610D03*
X010506Y008603D03*
X010500Y008597D03*
X010493Y008584D03*
X010486Y008577D03*
X010480Y008570D03*
X010466Y008550D03*
X009375Y007100D03*
X009275Y007140D03*
X008377Y007100D03*
X008277Y007140D03*
X007372Y006834D03*
X006268Y007133D03*
X005609Y007279D03*
X007652Y007945D03*
D212*
X007652Y007938D03*
X006860Y007273D03*
X006288Y007106D03*
X006281Y007113D03*
X005609Y007273D03*
X005396Y007140D03*
X007712Y006834D03*
X010546Y007685D03*
X010553Y007679D03*
X010559Y007672D03*
X010739Y007758D03*
X010653Y007852D03*
X011318Y007758D03*
X011498Y007679D03*
X012407Y007567D03*
X012427Y007866D03*
X013125Y007627D03*
X013185Y007693D03*
X013192Y007700D03*
X013212Y007727D03*
X013218Y007733D03*
X013225Y007740D03*
X013232Y007747D03*
X013238Y007753D03*
X013252Y007773D03*
X013258Y007780D03*
X013265Y007787D03*
X013272Y007793D03*
X013278Y007800D03*
X013345Y007873D03*
X013351Y007880D03*
X013910Y007547D03*
X014782Y007527D03*
X014809Y007547D03*
X014815Y007554D03*
X014835Y007574D03*
X015068Y007547D03*
X015600Y007567D03*
X015946Y007634D03*
X016013Y007707D03*
X016020Y007713D03*
X016026Y007720D03*
X016033Y007727D03*
X016046Y007740D03*
X016059Y007760D03*
X016066Y007767D03*
X016073Y007773D03*
X016079Y007780D03*
X016086Y007787D03*
X016166Y007880D03*
X016173Y007886D03*
X016372Y008006D03*
X016372Y008139D03*
X016372Y008146D03*
X015780Y008465D03*
X015680Y008332D03*
X015667Y008299D03*
X015560Y008146D03*
X015155Y008139D03*
X014922Y008113D03*
X014849Y008159D03*
X015288Y008465D03*
X016372Y008565D03*
X017171Y008771D03*
X017171Y008778D03*
X017171Y008785D03*
X017177Y008751D03*
X017177Y008745D03*
X017184Y008718D03*
X017184Y008711D03*
X017191Y008691D03*
X017191Y008685D03*
X017191Y008678D03*
X017191Y008671D03*
X017204Y008612D03*
X017204Y008605D03*
X017211Y008578D03*
X017211Y008572D03*
X017217Y008552D03*
X017217Y008545D03*
X017224Y008512D03*
X017224Y008505D03*
X017230Y008479D03*
X017230Y008472D03*
X017237Y008452D03*
X017237Y008445D03*
X017244Y008412D03*
X017250Y008379D03*
X017250Y008372D03*
X017257Y008352D03*
X017257Y008345D03*
X017264Y008312D03*
X017264Y008306D03*
X017270Y008279D03*
X017270Y008272D03*
X017277Y008252D03*
X017277Y008246D03*
X017277Y008239D03*
X017277Y008232D03*
X017284Y008212D03*
X017284Y008206D03*
X017290Y008179D03*
X017290Y008172D03*
X017297Y008139D03*
X017297Y008133D03*
X017304Y008119D03*
X017477Y008039D03*
X017477Y008033D03*
X017743Y008033D03*
X017077Y007993D03*
X016372Y007554D03*
X016372Y007547D03*
X011518Y008637D03*
X011511Y008643D03*
X011504Y008650D03*
X011498Y008657D03*
X011491Y008663D03*
X011484Y008670D03*
X011318Y008570D03*
X010739Y008577D03*
X010566Y008663D03*
X010559Y008657D03*
X010553Y008650D03*
X010546Y008643D03*
X011017Y010508D03*
X011017Y010515D03*
X011017Y010522D03*
X011017Y010528D03*
X011017Y010535D03*
X011017Y010542D03*
X011017Y010548D03*
X011004Y010655D03*
X011004Y010661D03*
X011044Y011014D03*
X010226Y011027D03*
X010219Y011021D03*
X010206Y011007D03*
X010172Y010974D03*
X010166Y010967D03*
X010159Y010961D03*
D213*
X010934Y010854D03*
X010934Y010848D03*
X010941Y010868D03*
X010941Y010874D03*
X010994Y010974D03*
X011001Y010981D03*
X011007Y010987D03*
X010749Y008590D03*
X010476Y008564D03*
X010470Y008557D03*
X010463Y008544D03*
X010456Y008537D03*
X010450Y008524D03*
X010443Y008517D03*
X010443Y008510D03*
X010436Y008504D03*
X010430Y008490D03*
X010596Y008397D03*
X010596Y008391D03*
X010589Y008384D03*
X010589Y008377D03*
X010583Y008371D03*
X010583Y008364D03*
X010576Y008351D03*
X010576Y008344D03*
X010569Y008331D03*
X010563Y008311D03*
X010556Y008284D03*
X010603Y008404D03*
X010609Y008417D03*
X010756Y008384D03*
X010756Y008284D03*
X010549Y008078D03*
X010556Y008051D03*
X010556Y008045D03*
X010563Y008025D03*
X010563Y008018D03*
X010569Y008005D03*
X010569Y007998D03*
X010576Y007985D03*
X010576Y007978D03*
X010583Y007971D03*
X010583Y007965D03*
X010589Y007951D03*
X010596Y007938D03*
X010603Y007925D03*
X010450Y007812D03*
X010450Y007805D03*
X010456Y007798D03*
X010463Y007792D03*
X010463Y007785D03*
X010470Y007778D03*
X010483Y007758D03*
X010443Y007818D03*
X010436Y007832D03*
X010430Y007845D03*
X010756Y008051D03*
X011301Y008051D03*
X011301Y008058D03*
X011481Y007991D03*
X011481Y007985D03*
X011474Y007971D03*
X011474Y007965D03*
X011468Y007958D03*
X011468Y007951D03*
X011461Y007945D03*
X011461Y007938D03*
X011454Y007931D03*
X011448Y007918D03*
X011488Y008005D03*
X011488Y008011D03*
X011494Y008025D03*
X011501Y008051D03*
X011508Y008084D03*
X011514Y008164D03*
X011508Y008244D03*
X011501Y008277D03*
X011494Y008304D03*
X011494Y008311D03*
X011488Y008324D03*
X011488Y008331D03*
X011481Y008344D03*
X011481Y008351D03*
X011474Y008357D03*
X011474Y008364D03*
X011468Y008377D03*
X011468Y008384D03*
X011461Y008391D03*
X011454Y008404D03*
X011448Y008417D03*
X011301Y008384D03*
X011301Y008284D03*
X011301Y008277D03*
X011641Y008464D03*
X011634Y008477D03*
X011627Y008490D03*
X011621Y008497D03*
X011621Y008504D03*
X011614Y008510D03*
X011614Y008517D03*
X011607Y008524D03*
X011601Y008530D03*
X011601Y008537D03*
X011594Y008544D03*
X011581Y008564D03*
X011308Y008590D03*
X011647Y007885D03*
X011627Y007845D03*
X011621Y007832D03*
X011614Y007825D03*
X011614Y007818D03*
X011607Y007812D03*
X011607Y007805D03*
X011601Y007798D03*
X011594Y007792D03*
X011587Y007778D03*
X011581Y007772D03*
X011308Y007745D03*
X012377Y007660D03*
X012390Y007574D03*
X012483Y007520D03*
X012590Y007574D03*
X012849Y007554D03*
X013115Y007607D03*
X013095Y007893D03*
X012849Y007860D03*
X013714Y007860D03*
X013907Y007560D03*
X014093Y007607D03*
X014093Y007614D03*
X014127Y007680D03*
X014133Y007693D03*
X014140Y007707D03*
X014147Y007727D03*
X014153Y007740D03*
X014160Y007753D03*
X014167Y007767D03*
X014173Y007780D03*
X014173Y007787D03*
X014180Y007793D03*
X014180Y007800D03*
X014186Y007813D03*
X014413Y007893D03*
X014679Y007880D03*
X014679Y007873D03*
X014839Y007820D03*
X014839Y007813D03*
X014839Y007807D03*
X014839Y007800D03*
X014839Y007793D03*
X014839Y007787D03*
X014839Y007780D03*
X014845Y007773D03*
X014845Y007767D03*
X014852Y007753D03*
X014859Y007747D03*
X014892Y007667D03*
X015071Y007567D03*
X015071Y007560D03*
X015344Y007560D03*
X015344Y007554D03*
X015584Y007574D03*
X015677Y007520D03*
X015936Y007607D03*
X016369Y007607D03*
X016369Y007614D03*
X016369Y007620D03*
X016369Y007627D03*
X016369Y007634D03*
X016369Y007640D03*
X016369Y007647D03*
X016369Y007654D03*
X016369Y007660D03*
X016369Y007667D03*
X016369Y007673D03*
X016369Y007680D03*
X016369Y007687D03*
X016369Y007693D03*
X016369Y007700D03*
X016369Y007707D03*
X016369Y007713D03*
X016369Y007720D03*
X016369Y007727D03*
X016369Y007733D03*
X016369Y007740D03*
X016369Y007747D03*
X016369Y007753D03*
X016369Y007760D03*
X016369Y007767D03*
X016369Y007773D03*
X016369Y007780D03*
X016369Y007787D03*
X016369Y007793D03*
X016369Y007800D03*
X016369Y007807D03*
X016369Y007813D03*
X016369Y007820D03*
X016369Y007826D03*
X016369Y007833D03*
X016369Y007840D03*
X016369Y007846D03*
X016369Y007853D03*
X016369Y007860D03*
X016369Y007866D03*
X016369Y007873D03*
X016369Y007880D03*
X016369Y007886D03*
X016369Y007893D03*
X016369Y007900D03*
X016369Y007906D03*
X016369Y007913D03*
X016369Y007920D03*
X016369Y007926D03*
X016369Y007933D03*
X016369Y007940D03*
X016369Y007946D03*
X016369Y007953D03*
X016369Y007960D03*
X016369Y007966D03*
X016369Y007973D03*
X016369Y008172D03*
X016369Y008179D03*
X016369Y008186D03*
X016369Y008192D03*
X016369Y008199D03*
X016369Y008206D03*
X016369Y008212D03*
X016369Y008219D03*
X016369Y008226D03*
X016369Y008232D03*
X016369Y008239D03*
X016369Y008246D03*
X016369Y008252D03*
X016369Y008259D03*
X016369Y008266D03*
X016369Y008272D03*
X016369Y008279D03*
X016369Y008286D03*
X016369Y008292D03*
X016369Y008299D03*
X016369Y008306D03*
X016369Y008312D03*
X016369Y008319D03*
X016369Y008326D03*
X016369Y008332D03*
X016369Y008339D03*
X016369Y008345D03*
X016369Y008352D03*
X016369Y008359D03*
X016369Y008365D03*
X016369Y008372D03*
X016369Y008379D03*
X016369Y008385D03*
X016369Y008392D03*
X016369Y008399D03*
X016369Y008405D03*
X016369Y008412D03*
X016369Y008419D03*
X016369Y008425D03*
X016369Y008432D03*
X016369Y008439D03*
X016369Y008445D03*
X016369Y008452D03*
X016369Y008459D03*
X016369Y008465D03*
X016369Y008472D03*
X016369Y008479D03*
X016369Y008485D03*
X016369Y008492D03*
X016369Y008499D03*
X016369Y008505D03*
X016369Y008512D03*
X016369Y008518D03*
X016369Y008525D03*
X016369Y008532D03*
X016369Y008538D03*
X016369Y008545D03*
X016143Y008452D03*
X015624Y008246D03*
X015610Y008226D03*
X015251Y008392D03*
X015251Y008399D03*
X015251Y008405D03*
X015258Y008412D03*
X015258Y008419D03*
X015244Y008385D03*
X015244Y008379D03*
X015238Y008365D03*
X015238Y008359D03*
X015231Y008352D03*
X015231Y008345D03*
X015231Y008339D03*
X015224Y008332D03*
X015224Y008326D03*
X015218Y008312D03*
X015218Y008306D03*
X015211Y008299D03*
X015211Y008292D03*
X015211Y008286D03*
X015204Y008279D03*
X015204Y008272D03*
X015185Y008219D03*
X015178Y008206D03*
X015178Y008199D03*
X015171Y008192D03*
X015171Y008186D03*
X015171Y008179D03*
X015165Y008172D03*
X015165Y008166D03*
X015025Y008166D03*
X014832Y008166D03*
X014812Y008252D03*
X015291Y008492D03*
X016143Y008166D03*
X015344Y007860D03*
X015065Y007860D03*
X014845Y007833D03*
X014672Y007607D03*
X014666Y007594D03*
X014659Y007587D03*
X016369Y007587D03*
X016369Y007594D03*
X016369Y007600D03*
X016369Y007580D03*
X017094Y007973D03*
X009239Y007106D03*
X008973Y006880D03*
X008973Y006874D03*
X008580Y006867D03*
X008241Y007106D03*
X007968Y006834D03*
X007649Y006867D03*
X007263Y006880D03*
X007263Y007093D03*
X005333Y006867D03*
X006324Y008371D03*
X007216Y008411D03*
D214*
X007406Y008657D03*
X006321Y008391D03*
X006314Y007945D03*
X006634Y007133D03*
X007712Y006840D03*
X008643Y006840D03*
X010646Y007605D03*
X010726Y007785D03*
X011331Y007785D03*
X011418Y007612D03*
X011411Y007605D03*
X011398Y007599D03*
X012407Y007680D03*
X013139Y007660D03*
X013897Y007906D03*
X013937Y007820D03*
X014216Y007820D03*
X014216Y007826D03*
X014256Y007906D03*
X014097Y007660D03*
X015680Y008345D03*
X015680Y008352D03*
X015547Y008492D03*
X015547Y008499D03*
X015288Y008439D03*
X015807Y008113D03*
X016146Y007840D03*
X015960Y007660D03*
X016372Y008133D03*
X017058Y008013D03*
X017490Y008066D03*
X017197Y007667D03*
X014544Y010814D03*
X014530Y010808D03*
X014517Y010801D03*
X014504Y010794D03*
X014490Y010788D03*
X014570Y010828D03*
X014584Y010841D03*
X014590Y010848D03*
X011383Y010715D03*
X010991Y010681D03*
X011150Y011061D03*
X011170Y011067D03*
X010272Y011054D03*
X010152Y010934D03*
X010073Y010482D03*
X007770Y010475D03*
X007764Y010462D03*
X007744Y010422D03*
X010639Y008723D03*
X010726Y008550D03*
X011331Y008550D03*
X011424Y008717D03*
X011418Y008723D03*
X011404Y008730D03*
X005396Y007133D03*
X005390Y006840D03*
D215*
X006637Y006840D03*
X007376Y007133D03*
X007715Y007133D03*
X008647Y007133D03*
X007649Y007931D03*
X010609Y007632D03*
X010629Y007619D03*
X010636Y007612D03*
X010729Y007778D03*
X011328Y007778D03*
X011428Y007619D03*
X012503Y007906D03*
X012849Y007540D03*
X013135Y007654D03*
X013368Y007527D03*
X013907Y007540D03*
X014093Y007654D03*
X014220Y007833D03*
X014220Y007840D03*
X014220Y007846D03*
X014246Y007893D03*
X014413Y007906D03*
X013934Y007833D03*
X013934Y007826D03*
X013907Y007893D03*
X013335Y007853D03*
X014792Y007540D03*
X015071Y007540D03*
X015344Y007540D03*
X015763Y007773D03*
X015956Y007654D03*
X016189Y007534D03*
X016189Y007527D03*
X016149Y007846D03*
X015670Y008286D03*
X015783Y008479D03*
X015291Y008445D03*
X015151Y008133D03*
X017067Y008006D03*
X017487Y008059D03*
X017739Y008046D03*
X014554Y010821D03*
X014574Y010834D03*
X011434Y008710D03*
X011328Y008557D03*
X010729Y008557D03*
X010623Y008710D03*
X010629Y008717D03*
X007754Y010442D03*
X007754Y010448D03*
X007760Y010455D03*
X007767Y010468D03*
X010255Y011047D03*
D216*
X010245Y011041D03*
X010152Y010941D03*
X010997Y010675D03*
X011117Y011047D03*
X011130Y011054D03*
X007750Y010435D03*
X007744Y010429D03*
X010606Y008697D03*
X010613Y008703D03*
X010586Y008683D03*
X010579Y008677D03*
X010732Y008564D03*
X011444Y008703D03*
X011451Y008697D03*
X011325Y007772D03*
X011444Y007632D03*
X011438Y007625D03*
X011458Y007639D03*
X011464Y007645D03*
X011471Y007652D03*
X010732Y007772D03*
X010619Y007625D03*
X010599Y007639D03*
X010593Y007645D03*
X012573Y007773D03*
X013132Y007647D03*
X013132Y007640D03*
X013371Y007534D03*
X013338Y007860D03*
X013371Y007900D03*
X013930Y007853D03*
X013930Y007846D03*
X013930Y007840D03*
X014223Y007853D03*
X014223Y007860D03*
X014230Y007866D03*
X014230Y007873D03*
X014236Y007886D03*
X014682Y007893D03*
X014868Y007860D03*
X015008Y008159D03*
X015015Y008365D03*
X014942Y008499D03*
X015288Y008452D03*
X015680Y008339D03*
X015694Y007906D03*
X015953Y007647D03*
X016153Y007853D03*
X016159Y007866D03*
X016193Y007900D03*
X017071Y007999D03*
X017437Y007980D03*
X017483Y008053D03*
X017743Y008039D03*
X014789Y007534D03*
X014263Y007534D03*
X014263Y007527D03*
X008291Y008657D03*
X007219Y008424D03*
X006321Y008384D03*
X005616Y007259D03*
X005623Y007253D03*
X007372Y006840D03*
X007971Y006847D03*
X007971Y006854D03*
X007978Y006860D03*
D217*
X007712Y006847D03*
X007372Y006854D03*
X007372Y007120D03*
X006913Y007120D03*
X006913Y007126D03*
X006913Y007133D03*
X006913Y007140D03*
X006913Y007113D03*
X006913Y007106D03*
X006514Y007679D03*
X006314Y007931D03*
X006321Y008397D03*
X007226Y008437D03*
X007645Y007918D03*
X007419Y007679D03*
X008284Y007113D03*
X009282Y007113D03*
X010706Y007572D03*
X010712Y007812D03*
X011345Y007812D03*
X011345Y007818D03*
X011351Y007572D03*
X012846Y007534D03*
X012846Y007527D03*
X013152Y007687D03*
X013318Y007813D03*
X015068Y007534D03*
X015068Y007527D03*
X015694Y007900D03*
X016133Y007813D03*
X016372Y008033D03*
X016372Y008113D03*
X016372Y008119D03*
X016372Y008126D03*
X017503Y008079D03*
X017736Y008066D03*
X015155Y008119D03*
X015155Y008126D03*
X011345Y008517D03*
X010712Y008517D03*
X010712Y008524D03*
X010706Y008763D03*
X007817Y010528D03*
X010312Y011074D03*
X011257Y011094D03*
X014238Y010668D03*
X014238Y010661D03*
X014324Y010708D03*
X014337Y010715D03*
X014537Y010874D03*
X005662Y007140D03*
X005662Y007133D03*
X005662Y007126D03*
X005662Y007120D03*
X005662Y007113D03*
X005662Y007106D03*
X005390Y006847D03*
D218*
X005400Y007126D03*
X006637Y007126D03*
X006637Y006847D03*
X007715Y007126D03*
X008281Y007120D03*
X008647Y007126D03*
X008640Y006847D03*
X009279Y007120D03*
X008287Y007679D03*
X010689Y007579D03*
X010716Y007805D03*
X011341Y007805D03*
X011341Y008524D03*
X011361Y008756D03*
X011029Y008883D03*
X010696Y008756D03*
X010683Y008750D03*
X010716Y008530D03*
X012503Y007900D03*
X013149Y007680D03*
X013322Y007820D03*
X013907Y007534D03*
X013907Y007527D03*
X014679Y007906D03*
X015158Y008113D03*
X015783Y008485D03*
X016136Y007820D03*
X015970Y007687D03*
X015970Y007680D03*
X015344Y007534D03*
X017048Y008026D03*
X017201Y007673D03*
X017739Y008059D03*
X014394Y010741D03*
X014387Y010735D03*
X014374Y010728D03*
X014554Y010868D03*
X011234Y011087D03*
X010974Y010695D03*
X007814Y010522D03*
X007807Y010515D03*
D219*
X007787Y010495D03*
X007780Y010488D03*
X007774Y010482D03*
X010282Y011061D03*
X010987Y010688D03*
X011187Y011074D03*
X014454Y010768D03*
X014467Y010774D03*
X014480Y010781D03*
X011394Y008737D03*
X011335Y008544D03*
X010722Y008544D03*
X010649Y008730D03*
X010663Y008737D03*
X010722Y007792D03*
X010656Y007599D03*
X010669Y007592D03*
X011335Y007792D03*
X011388Y007592D03*
X012483Y007527D03*
X013142Y007667D03*
X013328Y007840D03*
X013900Y007900D03*
X014253Y007900D03*
X014845Y008272D03*
X015291Y008432D03*
X015670Y008279D03*
X015810Y008126D03*
X015810Y008119D03*
X016143Y007833D03*
X015963Y007667D03*
X015677Y007527D03*
X015597Y007680D03*
X017054Y008019D03*
X017739Y008053D03*
X009279Y007126D03*
X008281Y007126D03*
X007376Y007126D03*
X007376Y006847D03*
X007649Y007925D03*
X007223Y008430D03*
D220*
X007645Y007911D03*
X007372Y007113D03*
X007372Y006860D03*
X007712Y006854D03*
X008011Y007106D03*
X008011Y007113D03*
X008011Y007120D03*
X008011Y007126D03*
X008011Y007133D03*
X008011Y007140D03*
X008643Y006854D03*
X006634Y006854D03*
X006634Y007120D03*
X005396Y007120D03*
X005390Y006854D03*
X006321Y008404D03*
X007844Y010548D03*
X010964Y010701D03*
X011270Y011101D03*
X011822Y010655D03*
X013572Y010755D03*
X014258Y010681D03*
X014278Y010688D03*
X014291Y010695D03*
X014504Y010888D03*
X015355Y010435D03*
X014982Y008352D03*
X014922Y008126D03*
X015733Y007760D03*
X015674Y007534D03*
X016372Y007527D03*
X016372Y008026D03*
X017038Y008039D03*
X017217Y007687D03*
X012540Y007760D03*
X011351Y007832D03*
X011325Y007559D03*
X010732Y007559D03*
X010706Y007832D03*
X010706Y008504D03*
X011351Y008504D03*
X011318Y008776D03*
D221*
X011301Y008484D03*
X011301Y008477D03*
X011301Y008470D03*
X011301Y008464D03*
X011301Y008457D03*
X011301Y008450D03*
X011301Y008444D03*
X011301Y008437D03*
X011661Y008417D03*
X011667Y008397D03*
X011674Y008384D03*
X011681Y008364D03*
X011681Y008357D03*
X011687Y008344D03*
X011687Y008337D03*
X011687Y008331D03*
X011694Y008317D03*
X011694Y008311D03*
X011694Y008304D03*
X011694Y008297D03*
X011701Y008291D03*
X011701Y008284D03*
X011701Y008277D03*
X011701Y008271D03*
X011701Y008264D03*
X011701Y008257D03*
X011701Y008251D03*
X011707Y008244D03*
X011707Y008238D03*
X011707Y008231D03*
X011707Y008224D03*
X011707Y008218D03*
X011707Y008211D03*
X011707Y008204D03*
X011707Y008198D03*
X011707Y008191D03*
X011707Y008184D03*
X011707Y008178D03*
X011707Y008171D03*
X011707Y008164D03*
X011707Y008158D03*
X011707Y008151D03*
X011707Y008144D03*
X011707Y008138D03*
X011707Y008131D03*
X011707Y008124D03*
X011707Y008118D03*
X011707Y008111D03*
X011707Y008104D03*
X011707Y008098D03*
X011707Y008091D03*
X011701Y008078D03*
X011701Y008071D03*
X011701Y008065D03*
X011701Y008058D03*
X011701Y008051D03*
X011701Y008045D03*
X011694Y008038D03*
X011694Y008031D03*
X011694Y008025D03*
X011694Y008018D03*
X011687Y008005D03*
X011687Y007998D03*
X011687Y007991D03*
X011681Y007978D03*
X011681Y007971D03*
X011674Y007951D03*
X011667Y007931D03*
X011661Y007918D03*
X011301Y007898D03*
X011301Y007892D03*
X011301Y007885D03*
X011301Y007878D03*
X011301Y007872D03*
X011301Y007865D03*
X011301Y007858D03*
X011301Y007852D03*
X011301Y007732D03*
X010756Y007732D03*
X010756Y007852D03*
X010756Y007858D03*
X010756Y007865D03*
X010756Y007872D03*
X010756Y007878D03*
X010756Y007885D03*
X010396Y007911D03*
X010390Y007931D03*
X010383Y007945D03*
X010376Y007965D03*
X010376Y007971D03*
X010370Y007985D03*
X010370Y007991D03*
X010370Y007998D03*
X010363Y008011D03*
X010363Y008018D03*
X010363Y008025D03*
X010363Y008031D03*
X010356Y008038D03*
X010356Y008045D03*
X010356Y008051D03*
X010356Y008058D03*
X010356Y008065D03*
X010356Y008071D03*
X010350Y008078D03*
X010350Y008084D03*
X010350Y008091D03*
X010350Y008098D03*
X010350Y008104D03*
X010350Y008111D03*
X010350Y008118D03*
X010350Y008124D03*
X010350Y008131D03*
X010350Y008138D03*
X010350Y008144D03*
X010350Y008151D03*
X010350Y008184D03*
X010350Y008191D03*
X010350Y008198D03*
X010350Y008204D03*
X010350Y008211D03*
X010350Y008218D03*
X010350Y008224D03*
X010350Y008231D03*
X010350Y008238D03*
X010350Y008244D03*
X010350Y008251D03*
X010356Y008264D03*
X010356Y008271D03*
X010356Y008277D03*
X010356Y008284D03*
X010356Y008291D03*
X010356Y008297D03*
X010363Y008304D03*
X010363Y008311D03*
X010363Y008317D03*
X010363Y008324D03*
X010370Y008331D03*
X010370Y008337D03*
X010370Y008344D03*
X010370Y008351D03*
X010376Y008357D03*
X010376Y008364D03*
X010376Y008371D03*
X010383Y008384D03*
X010390Y008404D03*
X010543Y008191D03*
X010756Y008450D03*
X010756Y008457D03*
X010756Y008464D03*
X010756Y008470D03*
X010756Y008477D03*
X010756Y008484D03*
X010756Y008603D03*
X012410Y007860D03*
X012590Y007853D03*
X012603Y007800D03*
X012596Y007580D03*
X012383Y007580D03*
X012377Y007587D03*
X012377Y007594D03*
X012370Y007607D03*
X012370Y007614D03*
X012370Y007634D03*
X012370Y007640D03*
X012370Y007647D03*
X012849Y007647D03*
X012849Y007654D03*
X012849Y007660D03*
X012849Y007667D03*
X012849Y007673D03*
X012849Y007680D03*
X012849Y007687D03*
X012849Y007693D03*
X012849Y007700D03*
X012849Y007707D03*
X012849Y007713D03*
X012849Y007720D03*
X012849Y007727D03*
X012849Y007733D03*
X012849Y007740D03*
X012849Y007747D03*
X012849Y007753D03*
X012849Y007760D03*
X012849Y007767D03*
X012849Y007773D03*
X012849Y007780D03*
X012849Y007787D03*
X012849Y007793D03*
X012849Y007800D03*
X012849Y007807D03*
X012849Y007813D03*
X012849Y007820D03*
X012849Y007826D03*
X012849Y007833D03*
X012849Y007840D03*
X012849Y007846D03*
X013095Y007886D03*
X013109Y007587D03*
X012849Y007587D03*
X012849Y007594D03*
X012849Y007600D03*
X012849Y007607D03*
X012849Y007614D03*
X012849Y007620D03*
X012849Y007627D03*
X012849Y007634D03*
X012849Y007640D03*
X012849Y007580D03*
X012849Y007574D03*
X013368Y007547D03*
X014093Y007594D03*
X014439Y007574D03*
X014679Y007627D03*
X014679Y007634D03*
X014679Y007640D03*
X014679Y007647D03*
X014679Y007654D03*
X014679Y007660D03*
X014679Y007667D03*
X014679Y007673D03*
X014679Y007680D03*
X014679Y007687D03*
X014679Y007693D03*
X014679Y007700D03*
X014679Y007707D03*
X014679Y007713D03*
X014679Y007720D03*
X014679Y007727D03*
X014679Y007733D03*
X014679Y007740D03*
X014679Y007747D03*
X014679Y007753D03*
X014679Y007760D03*
X014679Y007767D03*
X014679Y007773D03*
X014679Y007780D03*
X014679Y007787D03*
X014679Y007793D03*
X014679Y007800D03*
X014679Y007807D03*
X014679Y007813D03*
X014679Y007820D03*
X014679Y007826D03*
X014679Y007833D03*
X014679Y007840D03*
X014679Y007846D03*
X014413Y007886D03*
X014819Y008179D03*
X014812Y008186D03*
X014812Y008192D03*
X014805Y008212D03*
X014805Y008219D03*
X014805Y008226D03*
X014805Y008232D03*
X015038Y008385D03*
X015803Y008146D03*
X015783Y007853D03*
X015797Y007807D03*
X015797Y007800D03*
X015790Y007793D03*
X015604Y007860D03*
X015344Y007853D03*
X015344Y007846D03*
X015344Y007840D03*
X015344Y007833D03*
X015344Y007826D03*
X015344Y007820D03*
X015344Y007813D03*
X015344Y007807D03*
X015344Y007800D03*
X015344Y007793D03*
X015344Y007787D03*
X015344Y007780D03*
X015344Y007773D03*
X015344Y007767D03*
X015344Y007760D03*
X015344Y007753D03*
X015344Y007747D03*
X015344Y007740D03*
X015344Y007733D03*
X015344Y007727D03*
X015344Y007720D03*
X015344Y007713D03*
X015344Y007707D03*
X015344Y007700D03*
X015344Y007693D03*
X015344Y007687D03*
X015344Y007680D03*
X015344Y007673D03*
X015344Y007667D03*
X015344Y007660D03*
X015344Y007654D03*
X015344Y007647D03*
X015344Y007640D03*
X015344Y007634D03*
X015344Y007627D03*
X015344Y007620D03*
X015344Y007614D03*
X015344Y007607D03*
X015344Y007600D03*
X015344Y007594D03*
X015344Y007587D03*
X015344Y007580D03*
X015344Y007574D03*
X015557Y007627D03*
X015557Y007634D03*
X015557Y007640D03*
X015564Y007600D03*
X015570Y007587D03*
X015577Y007580D03*
X015930Y007594D03*
X016189Y007547D03*
X010947Y010894D03*
X010954Y010908D03*
X010954Y010914D03*
X010954Y010921D03*
X010961Y010928D03*
X010961Y010934D03*
X010967Y010947D03*
X010974Y010954D03*
X006331Y008364D03*
X006324Y007971D03*
X006358Y007086D03*
X006571Y007106D03*
X007256Y007080D03*
X007429Y007106D03*
X007256Y006894D03*
X007775Y007106D03*
X008387Y007086D03*
X008706Y007106D03*
X008973Y006867D03*
X008973Y006860D03*
X008973Y006854D03*
X009385Y007086D03*
X005459Y007106D03*
D222*
X005393Y006860D03*
X007642Y007905D03*
X006517Y008650D03*
X007900Y010588D03*
X010362Y011101D03*
X011320Y011114D03*
X011992Y010695D03*
X014467Y010901D03*
X016948Y008432D03*
X016948Y008425D03*
X016948Y008419D03*
X017021Y008053D03*
X017234Y007707D03*
X017227Y007700D03*
X017726Y008079D03*
X015677Y007540D03*
X014546Y007534D03*
X014878Y008286D03*
X012483Y007540D03*
D223*
X012433Y007693D03*
X011358Y007845D03*
X010699Y007845D03*
X010746Y007552D03*
X010699Y008490D03*
X010752Y008783D03*
X011305Y008783D03*
X011935Y010681D03*
X011962Y010688D03*
X011403Y010728D03*
X014484Y010894D03*
X015335Y010442D03*
X016951Y008445D03*
X016951Y008439D03*
X017031Y008046D03*
X015627Y007693D03*
X008643Y006860D03*
X007712Y006860D03*
X006634Y006860D03*
X006634Y007113D03*
X005396Y007113D03*
X006314Y007925D03*
X007233Y008444D03*
X007870Y010568D03*
X007890Y010582D03*
D224*
X010944Y010881D03*
X010944Y010888D03*
X010951Y010901D03*
X010977Y010961D03*
X010984Y010967D03*
X010752Y008597D03*
X010752Y008444D03*
X010752Y008437D03*
X010752Y008430D03*
X010752Y008424D03*
X010752Y008417D03*
X010752Y008411D03*
X010752Y008404D03*
X010752Y008397D03*
X010752Y008391D03*
X010752Y008277D03*
X010752Y008271D03*
X010752Y008264D03*
X010752Y008257D03*
X010752Y008251D03*
X010752Y008244D03*
X010752Y008238D03*
X010752Y008231D03*
X010752Y008224D03*
X010752Y008218D03*
X010752Y008211D03*
X010752Y008204D03*
X010752Y008198D03*
X010752Y008191D03*
X010752Y008184D03*
X010752Y008178D03*
X010752Y008171D03*
X010752Y008164D03*
X010752Y008158D03*
X010752Y008151D03*
X010752Y008144D03*
X010752Y008138D03*
X010752Y008131D03*
X010752Y008124D03*
X010752Y008118D03*
X010752Y008111D03*
X010752Y008104D03*
X010752Y008098D03*
X010752Y008091D03*
X010752Y008084D03*
X010752Y008078D03*
X010752Y008071D03*
X010752Y008065D03*
X010752Y008058D03*
X010752Y007945D03*
X010752Y007938D03*
X010752Y007931D03*
X010752Y007925D03*
X010752Y007918D03*
X010752Y007911D03*
X010752Y007905D03*
X010752Y007898D03*
X010752Y007892D03*
X010752Y007739D03*
X010440Y007825D03*
X010433Y007838D03*
X010426Y007852D03*
X010420Y007858D03*
X010420Y007865D03*
X010413Y007872D03*
X010413Y007878D03*
X010406Y007885D03*
X010406Y007892D03*
X010400Y007898D03*
X010400Y007905D03*
X010393Y007918D03*
X010393Y007925D03*
X010386Y007938D03*
X010380Y007951D03*
X010380Y007958D03*
X010373Y007978D03*
X010366Y008005D03*
X010553Y008058D03*
X010553Y008065D03*
X010553Y008071D03*
X010546Y008084D03*
X010546Y008091D03*
X010546Y008098D03*
X010546Y008104D03*
X010546Y008111D03*
X010546Y008118D03*
X010546Y008124D03*
X010546Y008131D03*
X010546Y008138D03*
X010539Y008144D03*
X010539Y008151D03*
X010539Y008158D03*
X010539Y008164D03*
X010539Y008171D03*
X010539Y008178D03*
X010539Y008184D03*
X010546Y008198D03*
X010546Y008204D03*
X010546Y008211D03*
X010546Y008218D03*
X010546Y008224D03*
X010546Y008231D03*
X010546Y008238D03*
X010546Y008244D03*
X010546Y008251D03*
X010553Y008257D03*
X010553Y008264D03*
X010553Y008271D03*
X010553Y008277D03*
X010559Y008291D03*
X010559Y008297D03*
X010559Y008304D03*
X010566Y008317D03*
X010566Y008324D03*
X010573Y008337D03*
X010579Y008357D03*
X010406Y008437D03*
X010406Y008444D03*
X010406Y008450D03*
X010413Y008457D03*
X010413Y008464D03*
X010420Y008470D03*
X010420Y008477D03*
X010426Y008484D03*
X010433Y008497D03*
X010453Y008530D03*
X010400Y008430D03*
X010400Y008424D03*
X010393Y008417D03*
X010393Y008411D03*
X010386Y008397D03*
X010386Y008391D03*
X010380Y008377D03*
X010559Y008038D03*
X010559Y008031D03*
X010566Y008011D03*
X010573Y007991D03*
X011305Y007945D03*
X011305Y007938D03*
X011305Y007931D03*
X011305Y007925D03*
X011305Y007918D03*
X011305Y007911D03*
X011305Y007905D03*
X011305Y007739D03*
X011624Y007838D03*
X011631Y007852D03*
X011637Y007858D03*
X011637Y007865D03*
X011644Y007872D03*
X011644Y007878D03*
X011651Y007892D03*
X011651Y007898D03*
X011657Y007905D03*
X011657Y007911D03*
X011664Y007925D03*
X011671Y007938D03*
X011671Y007945D03*
X011677Y007958D03*
X011677Y007965D03*
X011684Y007985D03*
X011691Y008011D03*
X011504Y008058D03*
X011504Y008065D03*
X011504Y008071D03*
X011504Y008078D03*
X011511Y008091D03*
X011511Y008098D03*
X011511Y008104D03*
X011511Y008111D03*
X011511Y008118D03*
X011511Y008124D03*
X011511Y008131D03*
X011511Y008138D03*
X011511Y008144D03*
X011511Y008151D03*
X011511Y008158D03*
X011511Y008171D03*
X011511Y008178D03*
X011511Y008184D03*
X011511Y008191D03*
X011511Y008198D03*
X011511Y008204D03*
X011511Y008211D03*
X011511Y008218D03*
X011511Y008224D03*
X011511Y008231D03*
X011511Y008238D03*
X011504Y008251D03*
X011504Y008257D03*
X011504Y008264D03*
X011504Y008271D03*
X011498Y008284D03*
X011498Y008291D03*
X011498Y008297D03*
X011491Y008317D03*
X011484Y008337D03*
X011305Y008391D03*
X011305Y008397D03*
X011305Y008404D03*
X011305Y008411D03*
X011305Y008417D03*
X011305Y008424D03*
X011305Y008430D03*
X011305Y008271D03*
X011305Y008264D03*
X011305Y008257D03*
X011305Y008251D03*
X011305Y008244D03*
X011305Y008238D03*
X011305Y008231D03*
X011305Y008224D03*
X011305Y008218D03*
X011305Y008211D03*
X011305Y008204D03*
X011305Y008198D03*
X011305Y008191D03*
X011305Y008184D03*
X011305Y008178D03*
X011305Y008171D03*
X011305Y008164D03*
X011305Y008158D03*
X011305Y008151D03*
X011305Y008144D03*
X011305Y008138D03*
X011305Y008131D03*
X011305Y008124D03*
X011305Y008118D03*
X011305Y008111D03*
X011305Y008104D03*
X011305Y008098D03*
X011305Y008091D03*
X011305Y008084D03*
X011305Y008078D03*
X011305Y008071D03*
X011305Y008065D03*
X011484Y007998D03*
X011478Y007978D03*
X011491Y008018D03*
X011498Y008031D03*
X011498Y008038D03*
X011498Y008045D03*
X011691Y008324D03*
X011684Y008351D03*
X011677Y008371D03*
X011677Y008377D03*
X011671Y008391D03*
X011664Y008404D03*
X011664Y008411D03*
X011657Y008424D03*
X011657Y008430D03*
X011651Y008437D03*
X011651Y008444D03*
X011644Y008450D03*
X011644Y008457D03*
X011637Y008470D03*
X011631Y008484D03*
X011305Y008597D03*
X012500Y007913D03*
X012580Y007860D03*
X012600Y007793D03*
X012593Y007787D03*
X012373Y007654D03*
X012846Y007567D03*
X012846Y007560D03*
X013112Y007594D03*
X013112Y007600D03*
X012846Y007853D03*
X013717Y007853D03*
X013717Y007846D03*
X013717Y007840D03*
X013717Y007833D03*
X013717Y007826D03*
X013717Y007820D03*
X013717Y007813D03*
X013717Y007807D03*
X013717Y007800D03*
X013717Y007793D03*
X013717Y007787D03*
X013717Y007780D03*
X013717Y007773D03*
X013717Y007767D03*
X013717Y007760D03*
X013717Y007753D03*
X013717Y007700D03*
X013717Y007693D03*
X013717Y007687D03*
X013717Y007680D03*
X013717Y007673D03*
X013717Y007667D03*
X013717Y007660D03*
X013717Y007654D03*
X013717Y007647D03*
X013717Y007640D03*
X013717Y007634D03*
X013717Y007627D03*
X013717Y007620D03*
X013717Y007614D03*
X013717Y007607D03*
X013717Y007600D03*
X013717Y007594D03*
X013717Y007587D03*
X013717Y007580D03*
X013717Y007574D03*
X013910Y007574D03*
X013910Y007580D03*
X013910Y007587D03*
X013910Y007594D03*
X013910Y007600D03*
X013910Y007607D03*
X013910Y007614D03*
X013910Y007620D03*
X013910Y007627D03*
X013910Y007634D03*
X013910Y007640D03*
X013910Y007647D03*
X013910Y007654D03*
X013910Y007660D03*
X013910Y007667D03*
X013910Y007673D03*
X013910Y007680D03*
X013910Y007687D03*
X013910Y007693D03*
X013910Y007700D03*
X013910Y007707D03*
X013910Y007713D03*
X013910Y007720D03*
X013910Y007727D03*
X013910Y007733D03*
X013910Y007740D03*
X013910Y007747D03*
X013910Y007753D03*
X013910Y007760D03*
X013910Y007767D03*
X013910Y007773D03*
X013910Y007780D03*
X013910Y007787D03*
X013910Y007793D03*
X013910Y007800D03*
X013910Y007807D03*
X013910Y007813D03*
X014143Y007720D03*
X014143Y007713D03*
X014137Y007700D03*
X014130Y007687D03*
X014123Y007673D03*
X014123Y007667D03*
X014150Y007733D03*
X014157Y007747D03*
X014163Y007760D03*
X014170Y007773D03*
X014183Y007807D03*
X014097Y007600D03*
X013910Y007567D03*
X014669Y007600D03*
X014676Y007614D03*
X014676Y007620D03*
X014682Y007853D03*
X014682Y007860D03*
X014682Y007866D03*
X014822Y008172D03*
X014809Y008239D03*
X014809Y008246D03*
X015035Y008379D03*
X015022Y008452D03*
X014942Y008505D03*
X014849Y008452D03*
X015221Y008319D03*
X015241Y008372D03*
X015261Y008425D03*
X015288Y008499D03*
X015547Y008479D03*
X016146Y008445D03*
X016146Y008439D03*
X016146Y008432D03*
X016146Y008425D03*
X016146Y008419D03*
X016146Y008412D03*
X016146Y008405D03*
X016146Y008399D03*
X016146Y008392D03*
X016146Y008385D03*
X016146Y008379D03*
X016146Y008372D03*
X016146Y008365D03*
X016146Y008359D03*
X016146Y008352D03*
X016146Y008345D03*
X016146Y008292D03*
X016146Y008286D03*
X016146Y008279D03*
X016146Y008272D03*
X016146Y008266D03*
X016146Y008259D03*
X016146Y008252D03*
X016146Y008246D03*
X016146Y008239D03*
X016146Y008232D03*
X016146Y008226D03*
X016146Y008219D03*
X016146Y008212D03*
X016146Y008206D03*
X016146Y008199D03*
X016146Y008192D03*
X016146Y008186D03*
X016146Y008179D03*
X016146Y008172D03*
X015807Y008139D03*
X015694Y007913D03*
X015773Y007860D03*
X015787Y007787D03*
X015780Y007574D03*
X015933Y007600D03*
X015567Y007660D03*
X015560Y007654D03*
X015560Y007647D03*
X015348Y007567D03*
X015068Y007574D03*
X015068Y007580D03*
X015068Y007587D03*
X015068Y007594D03*
X015068Y007600D03*
X015068Y007607D03*
X015068Y007614D03*
X015068Y007620D03*
X015068Y007627D03*
X015068Y007634D03*
X015068Y007640D03*
X015068Y007647D03*
X015068Y007654D03*
X015068Y007660D03*
X015068Y007667D03*
X015068Y007673D03*
X015068Y007680D03*
X015068Y007733D03*
X015068Y007740D03*
X015068Y007747D03*
X015068Y007753D03*
X015068Y007760D03*
X015068Y007767D03*
X015068Y007773D03*
X015068Y007780D03*
X015068Y007787D03*
X015068Y007793D03*
X015068Y007800D03*
X015068Y007807D03*
X015068Y007813D03*
X015068Y007820D03*
X015068Y007826D03*
X015068Y007833D03*
X015068Y007840D03*
X015068Y007846D03*
X015068Y007853D03*
X017743Y008019D03*
X009382Y007093D03*
X008703Y006867D03*
X008590Y007106D03*
X008384Y007093D03*
X007772Y006867D03*
X007658Y007106D03*
X007426Y006867D03*
X007259Y006887D03*
X007259Y007086D03*
X006694Y006867D03*
X006574Y006867D03*
X006354Y007093D03*
X006261Y007140D03*
X005456Y006867D03*
X005336Y007106D03*
X006321Y007965D03*
X007652Y007951D03*
D225*
X007652Y007958D03*
X007213Y008404D03*
X006907Y007246D03*
X007253Y007073D03*
X007253Y007066D03*
X007439Y007100D03*
X007313Y006867D03*
X007253Y006900D03*
X007253Y006907D03*
X006561Y006874D03*
X006561Y007100D03*
X006361Y007080D03*
X005469Y006874D03*
X005316Y006874D03*
X005396Y007146D03*
X008011Y006867D03*
X008390Y007080D03*
X009388Y007080D03*
X010759Y007725D03*
X010347Y008158D03*
X010347Y008164D03*
X010347Y008171D03*
X010347Y008178D03*
X010353Y008257D03*
X011298Y008603D03*
X011704Y008084D03*
X012367Y007627D03*
X012367Y007620D03*
X012373Y007600D03*
X012606Y007807D03*
X012600Y007840D03*
X013105Y007580D03*
X014097Y007587D03*
X014263Y007547D03*
X014782Y007520D03*
X015560Y007607D03*
X015560Y007614D03*
X015560Y007620D03*
X015567Y007594D03*
X015787Y007580D03*
X015926Y007587D03*
X015793Y007833D03*
X015787Y007846D03*
X015913Y007886D03*
X015447Y008146D03*
X015035Y008172D03*
X014809Y008199D03*
X014809Y008206D03*
X015041Y008392D03*
X015041Y008399D03*
X015041Y008405D03*
X015041Y008412D03*
X015041Y008419D03*
X015041Y008425D03*
X015035Y008439D03*
X015028Y008445D03*
X015554Y008472D03*
X011736Y010615D03*
X011357Y010695D03*
X010964Y010941D03*
D226*
X010927Y011220D03*
X011713Y010601D03*
X015078Y008232D03*
X015051Y008113D03*
X015165Y007813D03*
X015517Y007813D03*
X015517Y007820D03*
X015876Y008206D03*
X015950Y008266D03*
X016143Y008532D03*
X016602Y008532D03*
X014546Y007514D03*
X014093Y007520D03*
X013521Y007673D03*
X013521Y007680D03*
X013521Y007773D03*
X013521Y007780D03*
X013455Y007614D03*
X013022Y007813D03*
X012669Y007813D03*
X012643Y007640D03*
X011275Y007692D03*
X010782Y007692D03*
X008553Y006913D03*
X007928Y006874D03*
X007622Y006913D03*
X006238Y007100D03*
X005306Y006913D03*
D227*
X006547Y006887D03*
X006547Y007086D03*
D228*
X005852Y007233D03*
X007615Y006900D03*
X008547Y006900D03*
X008946Y006887D03*
X010776Y007705D03*
X011281Y007705D03*
X012383Y007840D03*
X012689Y007846D03*
X012696Y007853D03*
X013002Y007846D03*
X012623Y007607D03*
X013488Y007846D03*
X014093Y007554D03*
X014093Y007547D03*
X015185Y007846D03*
X015570Y007833D03*
X015577Y007840D03*
X015910Y007547D03*
X015065Y008199D03*
X015916Y008439D03*
X016163Y008558D03*
X011726Y010608D03*
X011281Y008630D03*
X010776Y008630D03*
X006338Y008344D03*
D229*
X005852Y007286D03*
X005852Y007226D03*
X005573Y007246D03*
X005300Y006907D03*
X008014Y007233D03*
X010782Y008637D03*
X011275Y008637D03*
X012390Y007900D03*
X012676Y007826D03*
X012683Y007833D03*
X013015Y007826D03*
X012636Y007627D03*
X012630Y007620D03*
X012610Y007534D03*
X012610Y007527D03*
X013082Y007527D03*
X013461Y007600D03*
X013468Y007594D03*
X013481Y007840D03*
X014093Y007534D03*
X014093Y007527D03*
X015171Y007826D03*
X015178Y007833D03*
X015504Y007840D03*
X015511Y007833D03*
X015564Y007826D03*
X015584Y007900D03*
X015584Y007906D03*
X015823Y007620D03*
X015803Y007534D03*
X015903Y007534D03*
X015950Y008279D03*
X015950Y008286D03*
X015950Y008352D03*
X015950Y008359D03*
X015903Y008425D03*
X015910Y008432D03*
X016156Y008552D03*
X015071Y008212D03*
X014812Y008419D03*
X014832Y008492D03*
X014832Y008499D03*
D230*
X014815Y008425D03*
X015068Y008206D03*
X015048Y008126D03*
X015181Y007840D03*
X015501Y007846D03*
X015820Y007614D03*
X015800Y007540D03*
X015906Y007540D03*
X015900Y008179D03*
X015893Y008186D03*
X015953Y008345D03*
X016585Y008552D03*
X017736Y008006D03*
X014097Y007540D03*
X013531Y007700D03*
X013531Y007753D03*
X013471Y007587D03*
X013085Y007540D03*
X013085Y007534D03*
X012626Y007614D03*
X012606Y007540D03*
X012686Y007840D03*
X013005Y007840D03*
X012380Y007833D03*
X012373Y007826D03*
X011278Y007699D03*
X010779Y007699D03*
X008550Y006907D03*
X007619Y006907D03*
X007652Y007978D03*
X006334Y007991D03*
D231*
X006777Y007951D03*
X006511Y007692D03*
X007196Y007892D03*
X007189Y008038D03*
X007629Y007885D03*
X008034Y007938D03*
X008041Y007931D03*
X008540Y008397D03*
X008953Y007911D03*
X007609Y008444D03*
X006784Y008377D03*
X006777Y008384D03*
X007722Y007000D03*
X007722Y006993D03*
X007722Y006987D03*
X007722Y006980D03*
X008653Y006980D03*
X008653Y006987D03*
X008653Y006993D03*
X005400Y006993D03*
X005400Y006987D03*
X005400Y006980D03*
X005400Y007000D03*
X008080Y010675D03*
X010462Y011127D03*
X012125Y010941D03*
X012152Y010947D03*
X013522Y010761D03*
X015013Y010535D03*
X017533Y008851D03*
X016928Y008339D03*
X016974Y008086D03*
X017280Y007813D03*
X017280Y007807D03*
X016049Y008465D03*
X015291Y008259D03*
X015291Y008252D03*
X014932Y008153D03*
X014972Y007727D03*
D232*
X014975Y007720D03*
X014549Y007560D03*
X015514Y008119D03*
X015687Y007560D03*
X017277Y007800D03*
X012493Y007560D03*
X009016Y008271D03*
X008989Y008424D03*
X008969Y008058D03*
X008949Y007918D03*
X008550Y007945D03*
X008543Y007938D03*
X008291Y007692D03*
X008031Y007945D03*
X008031Y008391D03*
X007619Y008311D03*
X007186Y008031D03*
X006787Y008371D03*
X008543Y008391D03*
X008550Y008384D03*
X008650Y007013D03*
X008650Y007007D03*
X008650Y007000D03*
X007718Y007007D03*
X007718Y007013D03*
X005403Y007013D03*
X005403Y007007D03*
X008063Y010668D03*
X012075Y010928D03*
X012102Y010934D03*
X014244Y010967D03*
X014271Y010961D03*
D233*
X006700Y007106D03*
D234*
X007715Y007113D03*
X008647Y007113D03*
X010702Y007838D03*
X011029Y007452D03*
X011308Y007552D03*
X011355Y007838D03*
X011355Y008490D03*
X011355Y008497D03*
X010702Y008497D03*
X010736Y008776D03*
X007860Y010562D03*
X007854Y010555D03*
X007880Y010575D03*
X010342Y011087D03*
X010355Y011094D03*
X011293Y011107D03*
X011812Y010648D03*
X011852Y010661D03*
X011879Y010668D03*
X011906Y010675D03*
X015783Y008499D03*
X015783Y008492D03*
X016948Y008472D03*
X016948Y008465D03*
X016948Y008459D03*
X016948Y008452D03*
X017733Y008073D03*
X017221Y007693D03*
D235*
X017207Y007680D03*
X017413Y007973D03*
X017041Y008033D03*
X016369Y008019D03*
X015617Y007687D03*
X015344Y007527D03*
X014546Y007527D03*
X014859Y008279D03*
X016369Y007534D03*
X013315Y007807D03*
X012483Y007534D03*
X012423Y007687D03*
X011348Y007825D03*
X011341Y007566D03*
X010716Y007566D03*
X010709Y007818D03*
X010709Y007825D03*
X010709Y008510D03*
X010722Y008770D03*
X011335Y008770D03*
X011348Y008763D03*
X011348Y008510D03*
X008647Y007120D03*
X007715Y007120D03*
X007827Y010535D03*
X007834Y010542D03*
X010329Y011081D03*
X011393Y010721D03*
X011786Y010641D03*
X014248Y010675D03*
X014307Y010701D03*
X014520Y010881D03*
X015372Y010429D03*
X015385Y010422D03*
D236*
X017174Y008765D03*
X017174Y008758D03*
X017181Y008738D03*
X017181Y008731D03*
X017181Y008725D03*
X017187Y008705D03*
X017187Y008698D03*
X017201Y008618D03*
X017207Y008598D03*
X017207Y008592D03*
X017207Y008585D03*
X017214Y008565D03*
X017214Y008558D03*
X017221Y008538D03*
X017221Y008532D03*
X017221Y008525D03*
X017221Y008518D03*
X017227Y008499D03*
X017227Y008492D03*
X017227Y008485D03*
X017234Y008465D03*
X017234Y008459D03*
X017240Y008439D03*
X017240Y008432D03*
X017240Y008425D03*
X017240Y008419D03*
X017247Y008405D03*
X017247Y008399D03*
X017247Y008392D03*
X017247Y008385D03*
X017254Y008365D03*
X017254Y008359D03*
X017260Y008339D03*
X017260Y008332D03*
X017260Y008326D03*
X017260Y008319D03*
X017267Y008299D03*
X017267Y008292D03*
X017267Y008286D03*
X017274Y008266D03*
X017274Y008259D03*
X017280Y008226D03*
X017280Y008219D03*
X017287Y008199D03*
X017287Y008192D03*
X017287Y008186D03*
X017294Y008166D03*
X017294Y008159D03*
X017294Y008153D03*
X017294Y008146D03*
X017300Y008126D03*
X017480Y008046D03*
X017447Y007986D03*
X016196Y007906D03*
X016183Y007893D03*
X016163Y007873D03*
X016156Y007860D03*
X015916Y007900D03*
X015916Y007906D03*
X015950Y007640D03*
X015763Y007567D03*
X015584Y007673D03*
X014632Y007567D03*
X014413Y007900D03*
X014233Y007880D03*
X013927Y007866D03*
X013927Y007860D03*
X013920Y007873D03*
X013920Y007880D03*
X013914Y007886D03*
X013375Y007906D03*
X013361Y007893D03*
X013341Y007866D03*
X013095Y007900D03*
X013095Y007906D03*
X013129Y007634D03*
X012570Y007567D03*
X012390Y007673D03*
X011494Y007672D03*
X011488Y007665D03*
X011481Y007659D03*
X011321Y007765D03*
X010736Y007765D03*
X010583Y007652D03*
X010576Y007659D03*
X010569Y007665D03*
X009279Y007133D03*
X008281Y007133D03*
X006863Y007266D03*
X006318Y007951D03*
X005613Y007266D03*
X010569Y008670D03*
X010596Y008690D03*
X010736Y008570D03*
X011321Y008564D03*
X011461Y008690D03*
X011468Y008683D03*
X011474Y008677D03*
X014832Y008266D03*
X015291Y008459D03*
X015670Y008292D03*
X015783Y008472D03*
X011759Y010628D03*
X011373Y010708D03*
X011001Y010668D03*
X011061Y011021D03*
X011074Y011027D03*
X011087Y011034D03*
X011100Y011041D03*
X010236Y011034D03*
X010156Y010954D03*
X010156Y010947D03*
D237*
X006634Y007140D03*
D238*
X006823Y007246D03*
D239*
X006873Y007253D03*
X014097Y007647D03*
D240*
X014093Y007640D03*
X014093Y007634D03*
X006870Y007259D03*
D241*
X006860Y007279D03*
D242*
X007189Y007898D03*
X006797Y007978D03*
X006784Y007958D03*
X006797Y008357D03*
X007615Y008437D03*
X008021Y008377D03*
X008028Y008384D03*
X008553Y008377D03*
X008560Y008371D03*
X008986Y008417D03*
X008959Y008051D03*
X008946Y007931D03*
X008946Y007925D03*
X008560Y007965D03*
X008553Y007951D03*
X008028Y007951D03*
X008021Y007958D03*
X011029Y007459D03*
X012496Y007554D03*
X015018Y007906D03*
X015517Y008113D03*
X015517Y008126D03*
X015291Y008266D03*
X016928Y008345D03*
X016988Y008479D03*
X016988Y008485D03*
X016988Y008492D03*
X016988Y008499D03*
X017274Y007793D03*
X017274Y007787D03*
X015073Y010522D03*
X015046Y010528D03*
X012285Y010755D03*
X012045Y010921D03*
D243*
X012405Y011001D03*
X014148Y010987D03*
X017507Y008492D03*
X017507Y008485D03*
X017507Y008479D03*
X016948Y008106D03*
X017287Y007880D03*
X017287Y007873D03*
X015344Y007873D03*
X015344Y007880D03*
X011029Y007466D03*
X008287Y008630D03*
X007582Y008284D03*
X007223Y008058D03*
X006737Y008424D03*
X006517Y008630D03*
X007422Y007699D03*
X008219Y010721D03*
D244*
X010854Y010755D03*
X014068Y011001D03*
X016974Y008266D03*
X016974Y008259D03*
X016974Y008252D03*
X016974Y008246D03*
X016974Y008119D03*
X011029Y007472D03*
X007249Y008071D03*
X006511Y007712D03*
D245*
X006514Y007725D03*
X007426Y007719D03*
X007519Y008257D03*
X011025Y007479D03*
X016372Y008585D03*
X016372Y008592D03*
X016372Y008598D03*
X017630Y008119D03*
X017630Y008113D03*
X012468Y010774D03*
X008389Y010768D03*
D246*
X007296Y008091D03*
X008287Y007739D03*
X011029Y007486D03*
X017633Y008166D03*
X017633Y008172D03*
D247*
X013895Y011027D03*
X009583Y010947D03*
X007469Y008231D03*
X008287Y007752D03*
X011029Y007492D03*
D248*
X011029Y007499D03*
X008287Y008564D03*
X007396Y008570D03*
X007442Y008211D03*
X007436Y008204D03*
X007362Y008138D03*
X007429Y007752D03*
X017660Y008246D03*
D249*
X017666Y008266D03*
X017733Y008372D03*
X013156Y011107D03*
X009299Y008617D03*
X008287Y007778D03*
X007429Y007765D03*
X007396Y008557D03*
X011029Y007506D03*
D250*
X011029Y007512D03*
X009285Y007719D03*
X008287Y007792D03*
X007396Y008544D03*
X010681Y010801D03*
X010974Y011207D03*
X017680Y008292D03*
D251*
X017686Y008319D03*
X017686Y008326D03*
X011029Y008816D03*
X009272Y008590D03*
X009272Y008178D03*
X008287Y008524D03*
X007429Y008464D03*
X007396Y008530D03*
X006517Y007805D03*
X007429Y007785D03*
X011029Y007519D03*
D252*
X011201Y007526D03*
X010856Y007526D03*
X008973Y007898D03*
X008986Y008071D03*
X008513Y007911D03*
X008287Y007699D03*
X008061Y008417D03*
X008520Y008417D03*
X007402Y008637D03*
X006757Y008411D03*
X012245Y010967D03*
X012278Y010974D03*
X014301Y010655D03*
X014946Y010548D03*
X015291Y008226D03*
X013648Y007906D03*
X013641Y007900D03*
X013614Y007560D03*
X013621Y007547D03*
X016961Y008093D03*
X017287Y007853D03*
X017287Y007846D03*
D253*
X017267Y007773D03*
X017267Y007767D03*
X016994Y008073D03*
X016934Y008359D03*
X016981Y008545D03*
X016981Y008552D03*
X016981Y008558D03*
X016981Y008565D03*
X016981Y008572D03*
X017547Y008472D03*
X016063Y008339D03*
X016063Y008332D03*
X016063Y008326D03*
X016063Y008319D03*
X016063Y008312D03*
X016063Y008306D03*
X016063Y008299D03*
X014938Y008139D03*
X015690Y007547D03*
X010809Y007532D03*
X008939Y007945D03*
X008939Y007951D03*
X008939Y007958D03*
X008939Y007965D03*
X008939Y007998D03*
X008939Y008005D03*
X008939Y008011D03*
X008946Y008025D03*
X008946Y008031D03*
X008999Y008284D03*
X008993Y008291D03*
X008979Y008397D03*
X008979Y008404D03*
X008573Y008344D03*
X008573Y008337D03*
X008567Y008357D03*
X008287Y008643D03*
X008008Y008351D03*
X008008Y008344D03*
X008001Y008337D03*
X007629Y008324D03*
X007629Y008417D03*
X008001Y007998D03*
X008008Y007985D03*
X008008Y007978D03*
X008567Y007978D03*
X008573Y007985D03*
X008573Y007991D03*
X007176Y008018D03*
X007176Y007918D03*
X006810Y008005D03*
X006810Y008011D03*
X006804Y007998D03*
X006804Y007991D03*
X006817Y008311D03*
X006817Y008317D03*
X006810Y008324D03*
X006810Y008331D03*
X006804Y008344D03*
X006517Y008643D03*
X006324Y008424D03*
X005919Y008291D03*
X005919Y008065D03*
X005386Y008065D03*
X005386Y008058D03*
X005386Y008051D03*
X005386Y008045D03*
X005386Y008038D03*
X005386Y008031D03*
X005386Y008025D03*
X005386Y008018D03*
X005386Y008011D03*
X005386Y008005D03*
X005386Y007998D03*
X005386Y007991D03*
X005386Y007985D03*
X005386Y007978D03*
X005386Y007971D03*
X005386Y007965D03*
X005386Y007958D03*
X005386Y007951D03*
X005386Y007945D03*
X005386Y007938D03*
X005386Y007931D03*
X005386Y007925D03*
X005386Y007918D03*
X005386Y007911D03*
X005386Y007905D03*
X005386Y007898D03*
X005386Y007892D03*
X005386Y007885D03*
X005386Y007878D03*
X005386Y007872D03*
X005386Y007865D03*
X005386Y007858D03*
X005386Y007852D03*
X005386Y007845D03*
X005386Y007838D03*
X005386Y007832D03*
X005386Y007825D03*
X005386Y007818D03*
X005386Y007812D03*
X005386Y007805D03*
X005386Y007798D03*
X005386Y007792D03*
X005386Y007785D03*
X005386Y007778D03*
X005386Y007772D03*
X005386Y007765D03*
X005386Y007758D03*
X005386Y007752D03*
X005386Y007745D03*
X005386Y007739D03*
X005386Y007732D03*
X005386Y007725D03*
X005386Y007719D03*
X005386Y007712D03*
X005386Y007705D03*
X005386Y007699D03*
X005386Y008291D03*
X005386Y008297D03*
X005386Y008304D03*
X005386Y008311D03*
X005386Y008317D03*
X005386Y008324D03*
X005386Y008331D03*
X005386Y008337D03*
X005386Y008344D03*
X005386Y008351D03*
X005386Y008357D03*
X005386Y008364D03*
X005386Y008371D03*
X005386Y008377D03*
X005386Y008384D03*
X005386Y008391D03*
X005386Y008397D03*
X005386Y008404D03*
X005386Y008411D03*
X005386Y008417D03*
X005386Y008424D03*
X005386Y008430D03*
X005386Y008437D03*
X005386Y008444D03*
X005386Y008450D03*
X005386Y008457D03*
X005386Y008464D03*
X005386Y008470D03*
X005386Y008477D03*
X005386Y008484D03*
X005386Y008490D03*
X005386Y008497D03*
X005386Y008504D03*
X005386Y008510D03*
X005386Y008517D03*
X005386Y008524D03*
X005386Y008530D03*
X005386Y008537D03*
X005386Y008544D03*
X005386Y008550D03*
X005386Y008557D03*
X005386Y008564D03*
X005386Y008570D03*
X005386Y008577D03*
X005386Y008584D03*
X005386Y008590D03*
X005386Y008597D03*
X005386Y008603D03*
X005386Y008610D03*
X005386Y008617D03*
X005386Y008623D03*
X005386Y008630D03*
X008007Y010641D03*
X010428Y011120D03*
X011367Y011127D03*
X011952Y010894D03*
X011985Y010901D03*
X015172Y010495D03*
D254*
X015196Y010488D03*
X014324Y010947D03*
X012242Y010748D03*
X011929Y010888D03*
X011902Y010881D03*
X011856Y010868D03*
X011829Y010861D03*
X011809Y010854D03*
X011782Y010848D03*
X011723Y010828D03*
X014935Y008459D03*
X014942Y008133D03*
X014988Y007687D03*
X014549Y007547D03*
X013638Y007707D03*
X013638Y007713D03*
X013638Y007720D03*
X013638Y007727D03*
X013638Y007733D03*
X013638Y007740D03*
X013638Y007747D03*
X012487Y007727D03*
X012480Y007720D03*
X012493Y007873D03*
X011245Y007532D03*
X008936Y007971D03*
X008936Y007978D03*
X008936Y007985D03*
X008936Y007991D03*
X008943Y008018D03*
X008989Y008297D03*
X008983Y008311D03*
X008976Y008384D03*
X008976Y008391D03*
X008590Y008297D03*
X008590Y008291D03*
X008583Y008311D03*
X008583Y008317D03*
X008583Y008324D03*
X008577Y008331D03*
X007998Y008331D03*
X007998Y008324D03*
X007991Y008311D03*
X007991Y008304D03*
X007991Y008025D03*
X007998Y008011D03*
X007998Y008005D03*
X008004Y007991D03*
X007632Y007892D03*
X007173Y007925D03*
X007173Y007931D03*
X006820Y008031D03*
X006820Y008038D03*
X006813Y008025D03*
X006813Y008018D03*
X006827Y008065D03*
X006827Y008277D03*
X006827Y008284D03*
X006820Y008297D03*
X006820Y008304D03*
X007632Y008331D03*
X007632Y008337D03*
X007632Y008404D03*
X007632Y008411D03*
X008590Y008038D03*
X008583Y008018D03*
X008583Y008011D03*
X008577Y008005D03*
X008577Y007998D03*
X005922Y007998D03*
X005922Y008005D03*
X005922Y008011D03*
X005922Y008018D03*
X005922Y008025D03*
X005922Y008031D03*
X005922Y008038D03*
X005922Y008045D03*
X005922Y008051D03*
X005922Y008058D03*
X005922Y007991D03*
X005922Y007985D03*
X005922Y007978D03*
X005922Y007971D03*
X005922Y007965D03*
X005922Y007958D03*
X005922Y007951D03*
X005922Y007945D03*
X005922Y007938D03*
X005922Y007931D03*
X005922Y007925D03*
X005922Y007918D03*
X005922Y007911D03*
X005922Y007905D03*
X005922Y007898D03*
X005922Y007892D03*
X005922Y007885D03*
X005922Y007878D03*
X005922Y007872D03*
X005922Y007865D03*
X005922Y007858D03*
X005922Y007852D03*
X005922Y007845D03*
X005922Y007838D03*
X005922Y007832D03*
X005922Y007825D03*
X005922Y007818D03*
X005922Y007812D03*
X005922Y007805D03*
X005922Y007798D03*
X005922Y007792D03*
X005922Y007785D03*
X005922Y007778D03*
X005922Y007772D03*
X005922Y007765D03*
X005922Y007758D03*
X005922Y007752D03*
X005922Y007745D03*
X005922Y007739D03*
X005922Y007732D03*
X005922Y007725D03*
X005922Y007719D03*
X005922Y007712D03*
X005922Y007705D03*
X005922Y007699D03*
X005922Y008297D03*
X005922Y008304D03*
X005922Y008311D03*
X005922Y008317D03*
X005922Y008324D03*
X005922Y008331D03*
X005922Y008337D03*
X005922Y008344D03*
X005922Y008351D03*
X005922Y008357D03*
X005922Y008364D03*
X005922Y008371D03*
X005922Y008377D03*
X005922Y008384D03*
X005922Y008391D03*
X005922Y008397D03*
X005922Y008404D03*
X005922Y008411D03*
X005922Y008417D03*
X005922Y008424D03*
X005922Y008430D03*
X005922Y008437D03*
X005922Y008444D03*
X005922Y008450D03*
X005922Y008457D03*
X005922Y008464D03*
X005922Y008470D03*
X005922Y008477D03*
X005922Y008484D03*
X005922Y008490D03*
X005922Y008497D03*
X005922Y008504D03*
X005922Y008510D03*
X005922Y008517D03*
X005922Y008524D03*
X005922Y008530D03*
X005922Y008537D03*
X005922Y008544D03*
X005922Y008550D03*
X005922Y008557D03*
X005922Y008564D03*
X005922Y008570D03*
X005922Y008577D03*
X005922Y008584D03*
X005922Y008590D03*
X005922Y008597D03*
X005922Y008603D03*
X005922Y008610D03*
X005922Y008617D03*
X005922Y008623D03*
X005922Y008630D03*
X005922Y008637D03*
X016938Y008365D03*
X016978Y008578D03*
X016978Y008585D03*
X016978Y008592D03*
X016978Y008598D03*
X017550Y008465D03*
X017550Y008459D03*
X017550Y008452D03*
X017550Y008445D03*
X017264Y007760D03*
D255*
X017250Y007733D03*
X017244Y007727D03*
X016944Y008385D03*
X016944Y008392D03*
X015707Y007747D03*
X015514Y008133D03*
X014955Y008339D03*
X014549Y007540D03*
X011271Y007539D03*
X010786Y007539D03*
X008291Y007685D03*
X007639Y007898D03*
X007239Y008450D03*
X006321Y008417D03*
X007937Y010608D03*
X011417Y010735D03*
X012089Y010715D03*
X012115Y010721D03*
X012148Y010728D03*
X014397Y010928D03*
X014417Y010921D03*
X015276Y010462D03*
D256*
X015315Y010448D03*
X014444Y010908D03*
X012055Y010708D03*
X012022Y010701D03*
X010951Y010708D03*
X007910Y010595D03*
X010772Y008790D03*
X011285Y008790D03*
X012526Y007753D03*
X011291Y007546D03*
X010766Y007546D03*
X008291Y008650D03*
X006321Y008411D03*
X006314Y007918D03*
X014968Y008345D03*
X015514Y008139D03*
X015720Y007753D03*
X016944Y008412D03*
X017237Y007713D03*
D257*
X017497Y008073D03*
X016372Y008013D03*
X016139Y007826D03*
X015753Y007767D03*
X015966Y007673D03*
X016372Y007540D03*
X015667Y008272D03*
X015680Y008359D03*
X014995Y008359D03*
X014942Y008492D03*
X014922Y008119D03*
X014682Y007900D03*
X013325Y007833D03*
X013325Y007826D03*
X013145Y007673D03*
X012560Y007767D03*
X011378Y007585D03*
X011365Y007579D03*
X011338Y007798D03*
X010719Y007798D03*
X010679Y007585D03*
X010719Y008537D03*
X010673Y008743D03*
X011338Y008537D03*
X011338Y008530D03*
X011384Y008743D03*
X011371Y008750D03*
X011776Y010635D03*
X011210Y011081D03*
X010299Y011067D03*
X007797Y010508D03*
X007790Y010502D03*
X006314Y007938D03*
X014357Y010721D03*
X014411Y010748D03*
X014424Y010755D03*
X014437Y010761D03*
X014570Y010861D03*
X014584Y010854D03*
D258*
X014802Y008399D03*
X015168Y007807D03*
X015521Y007807D03*
X015554Y007807D03*
X015674Y007514D03*
X014782Y007514D03*
X013471Y007820D03*
X013025Y007807D03*
X012673Y007807D03*
X012367Y007807D03*
X012487Y007514D03*
X015900Y008412D03*
X015946Y008372D03*
X008291Y007672D03*
X007652Y007991D03*
X007412Y007672D03*
X006521Y007672D03*
X006341Y008331D03*
D259*
X006823Y008291D03*
X006830Y008271D03*
X006830Y008264D03*
X006830Y008257D03*
X006830Y008251D03*
X006837Y008238D03*
X006837Y008231D03*
X006837Y008224D03*
X006837Y008218D03*
X006837Y008211D03*
X006837Y008204D03*
X006837Y008198D03*
X006837Y008151D03*
X006837Y008144D03*
X006837Y008138D03*
X006837Y008131D03*
X006837Y008124D03*
X006837Y008118D03*
X006837Y008111D03*
X006830Y008091D03*
X006830Y008084D03*
X006830Y008078D03*
X006830Y008071D03*
X006823Y008058D03*
X006823Y008051D03*
X006823Y008045D03*
X007169Y007945D03*
X007169Y007938D03*
X007422Y007685D03*
X007994Y008018D03*
X007988Y008031D03*
X007988Y008038D03*
X007988Y008045D03*
X007981Y008058D03*
X007981Y008065D03*
X007981Y008071D03*
X007975Y008104D03*
X007975Y008224D03*
X007981Y008264D03*
X007981Y008271D03*
X007981Y008277D03*
X007988Y008284D03*
X007988Y008291D03*
X007988Y008297D03*
X007994Y008317D03*
X007635Y008344D03*
X007635Y008351D03*
X007635Y008357D03*
X007635Y008364D03*
X007635Y008371D03*
X007635Y008377D03*
X007635Y008384D03*
X007635Y008391D03*
X007635Y008397D03*
X008587Y008304D03*
X008593Y008284D03*
X008593Y008277D03*
X008600Y008257D03*
X008600Y008251D03*
X008600Y008244D03*
X008600Y008238D03*
X008607Y008171D03*
X008607Y008164D03*
X008600Y008091D03*
X008600Y008084D03*
X008600Y008078D03*
X008600Y008071D03*
X008593Y008058D03*
X008593Y008051D03*
X008593Y008045D03*
X008587Y008031D03*
X008587Y008025D03*
X008986Y008304D03*
X008979Y008317D03*
X008979Y008324D03*
X008973Y008337D03*
X008973Y008344D03*
X008973Y008351D03*
X008973Y008357D03*
X008973Y008364D03*
X008973Y008371D03*
X008973Y008377D03*
X011029Y008876D03*
X012470Y007713D03*
X012496Y007733D03*
X014912Y008306D03*
X014918Y008312D03*
X014925Y008319D03*
X014938Y008326D03*
X014932Y008465D03*
X015684Y007880D03*
X015684Y007873D03*
X015684Y007733D03*
X015677Y007727D03*
X015670Y007720D03*
X014992Y007707D03*
X016974Y008605D03*
X016974Y008612D03*
X016974Y008618D03*
X017553Y008439D03*
X017553Y008432D03*
X017553Y008425D03*
X017553Y008419D03*
X017553Y008412D03*
X017260Y007753D03*
X012205Y010741D03*
X011879Y010874D03*
X011759Y010841D03*
X011733Y010834D03*
X011699Y010821D03*
X011673Y010814D03*
X011653Y010808D03*
X014347Y010941D03*
X007993Y010635D03*
X005386Y008637D03*
X006318Y007911D03*
X006511Y007685D03*
D260*
X006764Y007931D03*
X006770Y008397D03*
X006517Y008637D03*
X007602Y008297D03*
X008048Y008411D03*
X008527Y008411D03*
X008533Y008404D03*
X009006Y008437D03*
X008959Y007905D03*
X008054Y007918D03*
X008048Y007925D03*
X007422Y007692D03*
X012331Y010761D03*
X012212Y010961D03*
X016056Y008479D03*
X015291Y008239D03*
X015291Y008232D03*
X014978Y007886D03*
X014972Y007880D03*
X013634Y007893D03*
X013628Y007886D03*
D261*
X015344Y007893D03*
X015344Y007900D03*
X017287Y007866D03*
X017287Y007860D03*
X012371Y010994D03*
X012338Y010987D03*
X010894Y010735D03*
X011029Y008870D03*
X008507Y008424D03*
X008068Y008424D03*
X008074Y007905D03*
X007615Y007878D03*
X007209Y008051D03*
X006511Y007699D03*
X006338Y007898D03*
D262*
X007342Y008124D03*
X007449Y008218D03*
X008287Y008570D03*
X009319Y007699D03*
X011029Y008836D03*
X011247Y011134D03*
D263*
X010515Y011134D03*
X012458Y011014D03*
X014108Y010994D03*
X014327Y010648D03*
X017493Y008618D03*
X017493Y008612D03*
X017493Y008605D03*
X017493Y008598D03*
X017287Y007900D03*
X007236Y008065D03*
X006511Y007705D03*
D264*
X007426Y007705D03*
X008098Y007898D03*
X008477Y007898D03*
X008291Y008623D03*
X006521Y008623D03*
X008269Y010735D03*
X011025Y008863D03*
X016964Y008332D03*
X017284Y007906D03*
D265*
X017287Y007893D03*
X017287Y007886D03*
X017500Y008532D03*
X017500Y008538D03*
X017500Y008545D03*
X017500Y008552D03*
X014886Y010562D03*
X012391Y010768D03*
X008494Y008430D03*
X008287Y007705D03*
X007402Y008630D03*
X006724Y008430D03*
D266*
X007396Y008564D03*
X007416Y008191D03*
X007409Y008184D03*
X007402Y008178D03*
X007396Y008171D03*
X007389Y008164D03*
X007382Y008158D03*
X007376Y008151D03*
X007429Y007758D03*
X009305Y007705D03*
X014427Y010628D03*
D267*
X014803Y010575D03*
X016984Y008166D03*
X016984Y008159D03*
X016984Y008153D03*
X016984Y008146D03*
X016984Y008139D03*
X016984Y008133D03*
X008329Y010755D03*
X007426Y007712D03*
D268*
X006704Y007898D03*
X007402Y008623D03*
X008287Y007712D03*
X008279Y010741D03*
X012498Y011021D03*
X014846Y010568D03*
X016968Y008326D03*
X016968Y008319D03*
X016968Y008312D03*
X016968Y008306D03*
X017287Y007913D03*
D269*
X017673Y008279D03*
X013369Y010774D03*
X009292Y008610D03*
X009292Y007712D03*
X008287Y007785D03*
X007396Y008550D03*
D270*
X007535Y008264D03*
X008287Y008610D03*
X006511Y007719D03*
X008359Y010761D03*
X010834Y010761D03*
X010967Y011214D03*
X014028Y011007D03*
X017626Y008093D03*
X017626Y008086D03*
X017280Y007940D03*
D271*
X017280Y007933D03*
X016981Y008126D03*
X016981Y008172D03*
X016981Y008179D03*
X016981Y008186D03*
X016981Y008192D03*
X016981Y008199D03*
X016981Y008206D03*
X013462Y010768D03*
X012544Y011027D03*
X007402Y008617D03*
X008287Y007719D03*
D272*
X007426Y007725D03*
D273*
X008287Y007725D03*
X007402Y008610D03*
X012598Y011034D03*
X014001Y011014D03*
X017626Y008106D03*
X017626Y008099D03*
X017280Y007953D03*
D274*
X017683Y008306D03*
X017683Y008312D03*
X009275Y008191D03*
X009275Y008597D03*
X008291Y008530D03*
X007432Y008457D03*
X007392Y008537D03*
X006521Y008530D03*
X008291Y007805D03*
X009275Y007725D03*
D275*
X007402Y008603D03*
X006511Y007732D03*
X017633Y008146D03*
X017633Y008153D03*
D276*
X017640Y008192D03*
X010794Y010774D03*
X008287Y008590D03*
X007489Y008244D03*
X007429Y007732D03*
D277*
X008291Y007732D03*
X008416Y010774D03*
X010818Y010768D03*
X016372Y008578D03*
X016372Y008572D03*
X017630Y008139D03*
X017630Y008133D03*
D278*
X017690Y008332D03*
X009269Y008198D03*
X009269Y007732D03*
X008291Y007812D03*
X007426Y008470D03*
X007419Y008477D03*
X007392Y008524D03*
X006521Y008524D03*
X006514Y007812D03*
D279*
X006514Y007739D03*
X007399Y008597D03*
X008449Y010781D03*
X012654Y011041D03*
X013952Y011021D03*
X017636Y008186D03*
X017636Y008179D03*
D280*
X017643Y008206D03*
X017643Y008212D03*
X014397Y010635D03*
X010764Y010781D03*
X008291Y008584D03*
X007479Y008238D03*
X007319Y008104D03*
X007426Y007739D03*
X007399Y008590D03*
X006521Y008584D03*
D281*
X006521Y008517D03*
X007392Y008517D03*
X007399Y008504D03*
X007406Y008497D03*
X008291Y007818D03*
X007432Y007798D03*
X006514Y007818D03*
X009262Y007739D03*
X009262Y008577D03*
X012900Y010814D03*
D282*
X011029Y008843D03*
X008486Y010788D03*
X006511Y007745D03*
X017640Y008199D03*
D283*
X017650Y008232D03*
X014690Y010588D03*
X008291Y007758D03*
X007426Y007745D03*
X007339Y008118D03*
X007399Y008577D03*
X006514Y007758D03*
D284*
X007306Y008098D03*
X006521Y008590D03*
X008291Y007745D03*
D285*
X008287Y007825D03*
X009259Y007745D03*
X009259Y008164D03*
X009259Y008211D03*
X009259Y008570D03*
X008287Y008510D03*
X007396Y008510D03*
X006524Y008510D03*
X010655Y010808D03*
X011029Y008810D03*
D286*
X010731Y010788D03*
X008522Y010794D03*
X007399Y008584D03*
X007326Y008111D03*
X006514Y007752D03*
X006521Y008577D03*
X017650Y008219D03*
D287*
X014587Y010595D03*
X013742Y011041D03*
X009252Y008557D03*
X009252Y008224D03*
X009252Y008158D03*
X009252Y007752D03*
X008287Y007832D03*
D288*
X008291Y007838D03*
X007432Y007812D03*
X006514Y007832D03*
X006521Y008497D03*
X008291Y008497D03*
X009249Y008550D03*
X009249Y008231D03*
X009249Y008151D03*
X009249Y007758D03*
X014510Y010608D03*
D289*
X010272Y010475D03*
X006521Y008570D03*
X007352Y008131D03*
X006514Y007765D03*
X008291Y007765D03*
X017656Y008239D03*
D290*
X009245Y008238D03*
X009245Y008544D03*
X008287Y008490D03*
X009245Y007765D03*
X006517Y007838D03*
D291*
X006514Y007772D03*
X007366Y008144D03*
X007426Y008198D03*
X008291Y007772D03*
X009309Y008623D03*
X006521Y008564D03*
X010705Y010794D03*
X017663Y008252D03*
X017730Y008339D03*
D292*
X017676Y008286D03*
X011025Y008823D03*
X008291Y008544D03*
X007426Y007772D03*
X006521Y008544D03*
D293*
X007436Y007825D03*
X008287Y007852D03*
X009239Y007772D03*
X009239Y008138D03*
X009239Y008251D03*
X009239Y008524D03*
X009239Y008530D03*
X008287Y008484D03*
X014540Y010601D03*
D294*
X013825Y011034D03*
X017730Y008385D03*
X017730Y008379D03*
X017670Y008272D03*
X008291Y008550D03*
X006514Y007778D03*
D295*
X006517Y007798D03*
X007429Y007778D03*
X008287Y007798D03*
X014454Y010621D03*
X017680Y008299D03*
D296*
X009235Y008264D03*
X009235Y008257D03*
X009235Y008131D03*
X009235Y007778D03*
X009235Y008510D03*
X009235Y008517D03*
X008291Y008477D03*
X006521Y008477D03*
X006521Y008484D03*
X006514Y007852D03*
D297*
X006514Y007785D03*
D298*
X007436Y007832D03*
X008287Y007858D03*
X009232Y007785D03*
X009232Y008124D03*
X009232Y008504D03*
X008287Y008470D03*
X010628Y010814D03*
D299*
X009282Y008603D03*
X009282Y008184D03*
X008291Y008537D03*
X006521Y008537D03*
X006514Y007792D03*
D300*
X007429Y007792D03*
X007416Y008484D03*
X007409Y008490D03*
X008287Y008517D03*
X009265Y008584D03*
X009265Y008204D03*
X009265Y008171D03*
X011029Y008297D03*
X011029Y008304D03*
X011029Y008311D03*
X011029Y008317D03*
X011029Y008324D03*
X011029Y008331D03*
X011029Y008337D03*
X011029Y008344D03*
X011029Y008351D03*
X011029Y008357D03*
X011029Y008364D03*
X011029Y008371D03*
X011029Y008377D03*
X011029Y008038D03*
X011029Y008031D03*
X011029Y008025D03*
X011029Y008018D03*
X011029Y008011D03*
X011029Y008005D03*
X011029Y007998D03*
X011029Y007991D03*
X011029Y007985D03*
X011029Y007978D03*
X011029Y007971D03*
X011029Y007965D03*
X011029Y007958D03*
X014480Y010615D03*
D301*
X009229Y008497D03*
X009229Y008490D03*
X009229Y008484D03*
X009229Y008118D03*
X009229Y007792D03*
X008291Y007865D03*
X007439Y007838D03*
X006514Y007858D03*
X006514Y007865D03*
X006521Y008470D03*
X008291Y008464D03*
D302*
X009225Y008464D03*
X009225Y008470D03*
X009225Y008477D03*
X009225Y008111D03*
X009225Y007805D03*
X009225Y007798D03*
X008287Y007872D03*
X007429Y007865D03*
X007422Y007872D03*
X006531Y007892D03*
X006537Y008437D03*
X006531Y008444D03*
D303*
X006521Y008504D03*
X006514Y007825D03*
X007432Y007805D03*
X008291Y008504D03*
X009255Y008564D03*
X009255Y008218D03*
D304*
X009222Y008104D03*
X009222Y007812D03*
X008291Y007878D03*
X007439Y007852D03*
X007439Y007845D03*
X007432Y007858D03*
X006521Y007885D03*
X006514Y007872D03*
X006521Y008457D03*
X006521Y008464D03*
X008291Y008457D03*
X009222Y008457D03*
X009222Y008450D03*
X009222Y008444D03*
D305*
X009242Y008537D03*
X009242Y008244D03*
X009242Y008144D03*
X008291Y007845D03*
X007432Y007818D03*
X006514Y007845D03*
X006521Y008490D03*
D306*
X006524Y008450D03*
X006517Y007878D03*
X008287Y007885D03*
X009219Y007825D03*
X009219Y007818D03*
X009219Y008091D03*
X009219Y008098D03*
X008287Y008450D03*
X012817Y011047D03*
X010981Y011200D03*
D307*
X008291Y008444D03*
X009215Y008084D03*
X009215Y007832D03*
X008291Y007892D03*
D308*
X009212Y007845D03*
X009212Y007838D03*
X009212Y008078D03*
X008287Y008437D03*
D309*
X009209Y007858D03*
X009209Y007852D03*
X009580Y010941D03*
D310*
X009205Y007878D03*
X009205Y007872D03*
X009205Y007865D03*
D311*
X008064Y007911D03*
X007592Y008291D03*
X007219Y007878D03*
X006747Y007918D03*
X006747Y008417D03*
X008156Y010701D03*
X012308Y010981D03*
X014178Y010981D03*
X016073Y008499D03*
X016073Y008492D03*
X016053Y008133D03*
X016066Y008113D03*
X015341Y007906D03*
X013631Y007540D03*
X012846Y007900D03*
X012846Y007906D03*
D312*
X013618Y007866D03*
X013624Y007873D03*
X013624Y007880D03*
X014995Y007893D03*
X015008Y007900D03*
X015288Y008246D03*
X016046Y008459D03*
X016053Y008472D03*
X017284Y007826D03*
X017284Y007820D03*
X017530Y008625D03*
X017530Y008632D03*
X017530Y008638D03*
X017530Y008645D03*
X017530Y008652D03*
X017530Y008658D03*
X017530Y008665D03*
X017530Y008671D03*
X017530Y008678D03*
X017530Y008685D03*
X017530Y008691D03*
X017530Y008698D03*
X017530Y008705D03*
X017530Y008711D03*
X017530Y008718D03*
X017530Y008725D03*
X017530Y008731D03*
X017530Y008738D03*
X017530Y008745D03*
X017530Y008751D03*
X017530Y008758D03*
X017530Y008765D03*
X017530Y008771D03*
X017530Y008778D03*
X017530Y008785D03*
X017530Y008791D03*
X017530Y008798D03*
X017530Y008805D03*
X017530Y008811D03*
X017530Y008818D03*
X017530Y008825D03*
X017530Y008831D03*
X017530Y008838D03*
X017530Y008844D03*
X014983Y010542D03*
X012182Y010954D03*
X010911Y010728D03*
X008116Y010688D03*
X008096Y010681D03*
X008044Y008404D03*
X008038Y008397D03*
X007612Y008304D03*
X007206Y007885D03*
X006774Y007945D03*
X006767Y007938D03*
X006774Y008391D03*
X006334Y008430D03*
X008530Y007925D03*
X008537Y007931D03*
X008976Y008065D03*
X008996Y008430D03*
D313*
X009202Y007885D03*
X013173Y011101D03*
D314*
X012441Y011007D03*
X010871Y010748D03*
X008243Y010728D03*
X007565Y008277D03*
X008996Y007892D03*
X017497Y008558D03*
X017497Y008565D03*
X017497Y008572D03*
X017497Y008578D03*
X017497Y008585D03*
X017497Y008592D03*
D315*
X017557Y008405D03*
X017557Y008399D03*
X017557Y008392D03*
X016938Y008372D03*
X017004Y008066D03*
X017257Y007747D03*
X015660Y007713D03*
X015654Y007707D03*
X014995Y007693D03*
X014902Y008299D03*
X014928Y008472D03*
X012493Y007880D03*
X012506Y007740D03*
X012460Y007707D03*
X009468Y007892D03*
X009468Y007898D03*
X009468Y007905D03*
X009468Y007911D03*
X009468Y007918D03*
X009468Y007925D03*
X009468Y007931D03*
X009468Y007938D03*
X009468Y007945D03*
X009468Y007951D03*
X009468Y007958D03*
X009468Y007965D03*
X009468Y007971D03*
X009468Y007978D03*
X009468Y007985D03*
X009468Y007991D03*
X009468Y007998D03*
X009468Y008005D03*
X009468Y008011D03*
X009468Y008018D03*
X009468Y008025D03*
X009468Y008031D03*
X009468Y008038D03*
X009468Y008045D03*
X009468Y008051D03*
X009468Y008058D03*
X009468Y008065D03*
X009468Y008071D03*
X009468Y008271D03*
X009468Y008277D03*
X009468Y008284D03*
X009468Y008291D03*
X009468Y008297D03*
X009468Y008304D03*
X009468Y008311D03*
X009468Y008317D03*
X009468Y008324D03*
X009468Y008331D03*
X009468Y008337D03*
X009468Y008344D03*
X009468Y008351D03*
X009468Y008357D03*
X009468Y008364D03*
X009468Y008371D03*
X009468Y008377D03*
X009468Y008384D03*
X009468Y008391D03*
X009468Y008397D03*
X009468Y008404D03*
X009468Y008411D03*
X009468Y008417D03*
X009468Y008424D03*
X009468Y008430D03*
X009468Y008437D03*
X008976Y008331D03*
X008597Y008271D03*
X008597Y008264D03*
X008603Y008231D03*
X008603Y008224D03*
X008603Y008218D03*
X008603Y008211D03*
X008603Y008204D03*
X008603Y008198D03*
X008603Y008191D03*
X008603Y008184D03*
X008603Y008178D03*
X008603Y008158D03*
X008603Y008151D03*
X008603Y008144D03*
X008603Y008138D03*
X008603Y008131D03*
X008603Y008124D03*
X008603Y008118D03*
X008603Y008111D03*
X008603Y008104D03*
X008603Y008098D03*
X008597Y008065D03*
X007985Y008051D03*
X007978Y008078D03*
X007978Y008084D03*
X007978Y008091D03*
X007978Y008098D03*
X007971Y008111D03*
X007971Y008118D03*
X007971Y008124D03*
X007971Y008131D03*
X007971Y008138D03*
X007971Y008144D03*
X007971Y008151D03*
X007971Y008158D03*
X007971Y008164D03*
X007971Y008171D03*
X007971Y008178D03*
X007971Y008184D03*
X007971Y008191D03*
X007971Y008198D03*
X007971Y008204D03*
X007971Y008211D03*
X007971Y008218D03*
X007978Y008231D03*
X007978Y008238D03*
X007978Y008244D03*
X007978Y008251D03*
X007978Y008257D03*
X006840Y008191D03*
X006840Y008184D03*
X006840Y008178D03*
X006840Y008171D03*
X006840Y008164D03*
X006840Y008158D03*
X006833Y008104D03*
X006833Y008098D03*
X006833Y008244D03*
X007963Y010621D03*
X007977Y010628D03*
X010937Y010715D03*
X011423Y010741D03*
X011443Y010748D03*
X011470Y010755D03*
X011490Y010761D03*
X011536Y010774D03*
X011556Y010781D03*
X011583Y010788D03*
X011603Y010794D03*
X011629Y010801D03*
X012880Y010821D03*
X014371Y010934D03*
X015222Y010482D03*
X015242Y010475D03*
X015256Y010468D03*
D316*
X015149Y010502D03*
X015123Y010508D03*
X015096Y010515D03*
X014298Y010954D03*
X012035Y010914D03*
X012009Y010908D03*
X010924Y010721D03*
X008043Y010661D03*
X008030Y010655D03*
X008023Y010648D03*
X010819Y008803D03*
X011238Y008803D03*
X008983Y008411D03*
X009009Y008277D03*
X008956Y008045D03*
X008949Y008038D03*
X008943Y007938D03*
X008563Y007971D03*
X008557Y007958D03*
X008018Y007965D03*
X008011Y007971D03*
X008011Y008357D03*
X008018Y008364D03*
X008018Y008371D03*
X007625Y008424D03*
X007619Y008430D03*
X007625Y008317D03*
X007406Y008643D03*
X006807Y008337D03*
X006800Y008351D03*
X006800Y007985D03*
X007179Y008025D03*
X007179Y007911D03*
X007186Y007905D03*
X006321Y007905D03*
X008563Y008364D03*
X008570Y008351D03*
X012500Y007547D03*
X014549Y007554D03*
X014982Y007713D03*
X014935Y008146D03*
X015687Y007554D03*
X016984Y008079D03*
X016931Y008352D03*
X016984Y008505D03*
X016984Y008512D03*
X016984Y008518D03*
X016984Y008525D03*
X016984Y008532D03*
X016984Y008538D03*
X017270Y007780D03*
D317*
X017503Y008499D03*
X017503Y008505D03*
X017503Y008512D03*
X017503Y008518D03*
X017503Y008525D03*
X015341Y007866D03*
X012846Y007866D03*
X012846Y007873D03*
X008084Y008430D03*
X006727Y007905D03*
D318*
X008503Y007905D03*
X012846Y007893D03*
X012846Y007886D03*
X012846Y007880D03*
X013638Y007534D03*
X013638Y007527D03*
X015341Y007886D03*
X016066Y008119D03*
X016066Y008126D03*
X016944Y008113D03*
X016951Y008099D03*
X014910Y010555D03*
X010884Y010741D03*
X008196Y010715D03*
X008176Y010708D03*
D319*
X006737Y007911D03*
D320*
X006754Y007925D03*
X007199Y008045D03*
X006760Y008404D03*
X007599Y008450D03*
X008291Y008637D03*
X008523Y007918D03*
X008136Y010695D03*
X013611Y007567D03*
X013618Y007554D03*
X014962Y007866D03*
X014968Y007873D03*
X016040Y008153D03*
X016040Y008159D03*
X016046Y008146D03*
X016046Y008139D03*
X016066Y008485D03*
X017284Y007840D03*
X017284Y007833D03*
X014211Y010974D03*
D321*
X007166Y007998D03*
X007166Y007991D03*
X007166Y007985D03*
X007166Y007978D03*
X007166Y007958D03*
X007166Y007951D03*
D322*
X006790Y007965D03*
X006790Y007971D03*
D323*
X007163Y007971D03*
X007163Y007965D03*
D324*
X007652Y007985D03*
X007213Y008377D03*
X006341Y008337D03*
X006334Y007998D03*
X011330Y010681D03*
X014802Y008405D03*
X014809Y008412D03*
X015075Y008219D03*
X015081Y008226D03*
X015048Y008119D03*
X015168Y007820D03*
X015514Y007826D03*
X015554Y007813D03*
X015560Y007820D03*
X015833Y007640D03*
X015833Y007634D03*
X015827Y007627D03*
X015800Y007527D03*
X015900Y007527D03*
X015900Y007520D03*
X015886Y008192D03*
X015880Y008199D03*
X015946Y008272D03*
X015946Y008365D03*
X015900Y008419D03*
X016146Y008538D03*
X016153Y008545D03*
X016592Y008545D03*
X016598Y008538D03*
X013524Y007767D03*
X013524Y007760D03*
X013524Y007693D03*
X013524Y007687D03*
X013458Y007607D03*
X013471Y007826D03*
X013478Y007833D03*
X013019Y007820D03*
X013012Y007833D03*
X012673Y007820D03*
X012640Y007634D03*
X012367Y007813D03*
X012367Y007820D03*
X012393Y007906D03*
X013079Y007520D03*
D325*
X007169Y008005D03*
X007169Y008011D03*
D326*
X005652Y008071D03*
X005652Y008078D03*
X005652Y008084D03*
X005652Y008091D03*
X005652Y008098D03*
X005652Y008104D03*
X005652Y008111D03*
X005652Y008118D03*
X005652Y008124D03*
X005652Y008131D03*
X005652Y008138D03*
X005652Y008144D03*
X005652Y008151D03*
X005652Y008158D03*
X005652Y008164D03*
X005652Y008171D03*
X005652Y008178D03*
X005652Y008184D03*
X005652Y008191D03*
X005652Y008198D03*
X005652Y008204D03*
X005652Y008211D03*
X005652Y008218D03*
X005652Y008224D03*
X005652Y008231D03*
X005652Y008238D03*
X005652Y008244D03*
X005652Y008251D03*
X005652Y008257D03*
X005652Y008264D03*
X005652Y008271D03*
X005652Y008277D03*
X005652Y008284D03*
X010395Y010468D03*
D327*
X011025Y008856D03*
X007266Y008078D03*
X006521Y008610D03*
X016372Y008612D03*
X016372Y008618D03*
X016372Y008605D03*
X017277Y007946D03*
D328*
X017274Y007960D03*
X017274Y007966D03*
X017626Y008126D03*
X014367Y010641D03*
X008287Y008603D03*
X007283Y008084D03*
X006517Y008603D03*
D329*
X007459Y008224D03*
D330*
X007505Y008251D03*
X008291Y008597D03*
X009355Y008637D03*
X011025Y008850D03*
X014750Y010582D03*
X017630Y008159D03*
X006521Y008597D03*
D331*
X007552Y008271D03*
X016971Y008272D03*
X016971Y008279D03*
X016971Y008286D03*
X016971Y008292D03*
X016971Y008299D03*
X017284Y007920D03*
D332*
X006794Y008364D03*
D333*
X007213Y008384D03*
D334*
X006521Y008550D03*
D335*
X006521Y008557D03*
X008291Y008557D03*
X011025Y008830D03*
X017663Y008259D03*
X017730Y008345D03*
X017730Y008352D03*
X017730Y008359D03*
X017730Y008365D03*
D336*
X017653Y008226D03*
X009325Y008630D03*
X008287Y008577D03*
D337*
X008291Y008617D03*
X006521Y008617D03*
X008303Y010748D03*
X016978Y008239D03*
X016978Y008232D03*
X016978Y008226D03*
X016978Y008219D03*
X016978Y008212D03*
X017284Y007926D03*
D338*
X017240Y007720D03*
X017014Y008059D03*
X016948Y008399D03*
X016948Y008405D03*
X015677Y007893D03*
X015644Y007700D03*
X015005Y007700D03*
X014925Y008485D03*
X012483Y007893D03*
X012516Y007747D03*
X012450Y007700D03*
X015299Y010455D03*
X014427Y010914D03*
X013150Y011114D03*
X011347Y011120D03*
X010382Y011107D03*
X007927Y010601D03*
X007402Y008650D03*
D339*
X006517Y008657D03*
X013355Y007886D03*
D340*
X012490Y007886D03*
X011268Y008796D03*
X010789Y008796D03*
X007947Y010615D03*
X010402Y011114D03*
X011513Y010768D03*
X012185Y010735D03*
X014925Y008479D03*
X014945Y008332D03*
X014892Y008292D03*
X015684Y007886D03*
X015697Y007740D03*
X016941Y008379D03*
X017254Y007740D03*
D341*
X011643Y010349D03*
X011643Y010355D03*
X011643Y010362D03*
X011643Y010369D03*
X011643Y010375D03*
X011643Y010382D03*
X011643Y010389D03*
X011643Y010395D03*
X011643Y010402D03*
X011643Y010409D03*
X011643Y010415D03*
D342*
X010991Y011194D03*
X009214Y010755D03*
X009208Y010728D03*
X009208Y010721D03*
X009201Y010688D03*
X009194Y010655D03*
X009188Y010628D03*
X009188Y010621D03*
X009188Y010615D03*
X009188Y010608D03*
X009181Y010575D03*
X009181Y010568D03*
X009181Y010562D03*
X009174Y010515D03*
X009174Y010508D03*
X009168Y010422D03*
D343*
X009627Y010901D03*
X010818Y010448D03*
X010818Y010442D03*
X010818Y010435D03*
X010818Y010429D03*
X010818Y010422D03*
D344*
X009224Y010788D03*
X009224Y010794D03*
X009218Y010781D03*
X009218Y010774D03*
X009218Y010768D03*
X009218Y010761D03*
X009211Y010748D03*
X009211Y010741D03*
X009211Y010735D03*
X009204Y010715D03*
X009204Y010708D03*
X009204Y010701D03*
X009204Y010695D03*
X009198Y010681D03*
X009198Y010675D03*
X009198Y010668D03*
X009198Y010661D03*
X009191Y010648D03*
X009191Y010641D03*
X009191Y010635D03*
X009184Y010601D03*
X009184Y010595D03*
X009184Y010588D03*
X009184Y010582D03*
X009178Y010555D03*
X009178Y010548D03*
X009178Y010542D03*
X009178Y010535D03*
X009178Y010528D03*
X009178Y010522D03*
X009171Y010502D03*
X009171Y010495D03*
X009171Y010488D03*
X009171Y010482D03*
X009171Y010475D03*
X009171Y010468D03*
X009171Y010462D03*
X009171Y010455D03*
X009171Y010448D03*
X009171Y010442D03*
X009171Y010435D03*
X009171Y010429D03*
D345*
X010781Y010455D03*
D346*
X010578Y010462D03*
X010944Y011147D03*
D347*
X012977Y010781D03*
D348*
X012967Y010788D03*
D349*
X012953Y010794D03*
D350*
X008971Y010801D03*
D351*
X012947Y010801D03*
D352*
X008981Y010808D03*
D353*
X012927Y010808D03*
D354*
X009001Y010814D03*
D355*
X009011Y010821D03*
D356*
X010595Y010821D03*
D357*
X009028Y010828D03*
D358*
X010562Y010828D03*
D359*
X009038Y010834D03*
D360*
X010542Y010834D03*
D361*
X009055Y010841D03*
D362*
X010422Y010841D03*
D363*
X009071Y010848D03*
D364*
X010339Y010848D03*
D365*
X009637Y010854D03*
D366*
X009637Y010861D03*
D367*
X009633Y010868D03*
D368*
X009627Y010874D03*
D369*
X009627Y010881D03*
D370*
X009630Y010888D03*
D371*
X009627Y010894D03*
D372*
X009633Y010908D03*
D373*
X009637Y010914D03*
D374*
X009640Y010921D03*
D375*
X009647Y010928D03*
D376*
X009587Y010934D03*
D377*
X013629Y011047D03*
D378*
X013240Y011054D03*
D379*
X013230Y011061D03*
D380*
X013223Y011067D03*
D381*
X013220Y011074D03*
D382*
X013206Y011081D03*
X010971Y011160D03*
D383*
X013196Y011087D03*
D384*
X013180Y011094D03*
D385*
X010934Y011140D03*
D386*
X010957Y011154D03*
D387*
X010984Y011167D03*
D388*
X011001Y011174D03*
D389*
X011007Y011180D03*
D390*
X011001Y011187D03*
D391*
X013089Y007547D03*
D392*
X013208Y007720D03*
D393*
X014010Y007747D03*
X014010Y007753D03*
D394*
X014007Y007760D03*
D395*
X013332Y007846D03*
D396*
X012986Y007860D03*
D397*
X005401Y001400D02*
X005403Y001444D01*
X005409Y001488D01*
X005419Y001531D01*
X005432Y001573D01*
X005449Y001614D01*
X005470Y001653D01*
X005494Y001690D01*
X005521Y001725D01*
X005551Y001757D01*
X005584Y001787D01*
X005620Y001813D01*
X005657Y001837D01*
X005697Y001856D01*
X005738Y001873D01*
X005781Y001885D01*
X005824Y001894D01*
X005868Y001899D01*
X005912Y001900D01*
X005956Y001897D01*
X006000Y001890D01*
X006043Y001879D01*
X006085Y001865D01*
X006125Y001847D01*
X006164Y001825D01*
X006200Y001801D01*
X006234Y001773D01*
X006266Y001742D01*
X006295Y001708D01*
X006321Y001672D01*
X006343Y001634D01*
X006362Y001594D01*
X006377Y001552D01*
X006389Y001510D01*
X006397Y001466D01*
X006401Y001422D01*
X006401Y001378D01*
X006397Y001334D01*
X006389Y001290D01*
X006377Y001248D01*
X006362Y001206D01*
X006343Y001166D01*
X006321Y001128D01*
X006295Y001092D01*
X006266Y001058D01*
X006234Y001027D01*
X006200Y000999D01*
X006164Y000975D01*
X006125Y000953D01*
X006085Y000935D01*
X006043Y000921D01*
X006000Y000910D01*
X005956Y000903D01*
X005912Y000900D01*
X005868Y000901D01*
X005824Y000906D01*
X005781Y000915D01*
X005738Y000927D01*
X005697Y000944D01*
X005657Y000963D01*
X005620Y000987D01*
X005584Y001013D01*
X005551Y001043D01*
X005521Y001075D01*
X005494Y001110D01*
X005470Y001147D01*
X005449Y001186D01*
X005432Y001227D01*
X005419Y001269D01*
X005409Y001312D01*
X005403Y001356D01*
X005401Y001400D01*
D398*
X005595Y001420D02*
X005652Y001477D01*
X005822Y001477D01*
X005822Y001590D02*
X005822Y001250D01*
X005652Y001250D01*
X005595Y001307D01*
X005595Y001420D01*
X005964Y001420D02*
X006021Y001363D01*
X006191Y001363D01*
X006191Y001250D02*
X006191Y001590D01*
X006021Y001590D01*
X005964Y001534D01*
X005964Y001420D01*
D399*
X005901Y001400D02*
X006251Y001750D01*
X005551Y001050D01*
X005901Y001400D01*
M02*
