G75*
%MOIN*%
%OFA0B0*%
%FSLAX24Y24*%
%IPPOS*%
%LPD*%
%AMOC8*
5,1,8,0,0,1.08239X$1,22.5*
%
%ADD10R,0.0087X0.0252*%
%ADD11R,0.0252X0.0087*%
%ADD12C,0.0098*%
%ADD13C,0.0016*%
%ADD14C,0.0028*%
%ADD15C,0.0039*%
%ADD16C,0.0026*%
%ADD17C,0.0098*%
%ADD18C,0.0120*%
D10*
X013005Y006656D03*
X013202Y006656D03*
X013399Y006656D03*
X013596Y006656D03*
X013596Y007650D03*
X013399Y007650D03*
X013203Y007650D03*
X013006Y007650D03*
D11*
X012904Y007346D03*
X012904Y007150D03*
X012904Y006953D03*
X013703Y006953D03*
X013703Y007150D03*
X013703Y007347D03*
D12*
X010774Y007373D03*
X010662Y007261D03*
X010551Y007373D03*
X010440Y007261D03*
X010328Y007150D03*
X010440Y007039D03*
X010551Y006927D03*
X010662Y007039D03*
X010774Y007150D03*
X010774Y006927D03*
X010328Y006927D03*
X010328Y007373D03*
D13*
X016047Y007464D02*
X016187Y007464D01*
X016047Y007464D02*
X016047Y007604D01*
X016187Y007604D01*
X016187Y007464D01*
X016187Y007479D02*
X016047Y007479D01*
X016047Y007494D02*
X016187Y007494D01*
X016187Y007509D02*
X016047Y007509D01*
X016047Y007524D02*
X016187Y007524D01*
X016187Y007539D02*
X016047Y007539D01*
X016047Y007554D02*
X016187Y007554D01*
X016187Y007569D02*
X016047Y007569D01*
X016047Y007584D02*
X016187Y007584D01*
X016187Y007599D02*
X016047Y007599D01*
X016303Y007464D02*
X016443Y007464D01*
X016303Y007464D02*
X016303Y007604D01*
X016443Y007604D01*
X016443Y007464D01*
X016443Y007479D02*
X016303Y007479D01*
X016303Y007494D02*
X016443Y007494D01*
X016443Y007509D02*
X016303Y007509D01*
X016303Y007524D02*
X016443Y007524D01*
X016443Y007539D02*
X016303Y007539D01*
X016303Y007554D02*
X016443Y007554D01*
X016443Y007569D02*
X016303Y007569D01*
X016303Y007584D02*
X016443Y007584D01*
X016443Y007599D02*
X016303Y007599D01*
X016559Y007464D02*
X016699Y007464D01*
X016559Y007464D02*
X016559Y007604D01*
X016699Y007604D01*
X016699Y007464D01*
X016699Y007479D02*
X016559Y007479D01*
X016559Y007494D02*
X016699Y007494D01*
X016699Y007509D02*
X016559Y007509D01*
X016559Y007524D02*
X016699Y007524D01*
X016699Y007539D02*
X016559Y007539D01*
X016559Y007554D02*
X016699Y007554D01*
X016699Y007569D02*
X016559Y007569D01*
X016559Y007584D02*
X016699Y007584D01*
X016699Y007599D02*
X016559Y007599D01*
X016815Y007464D02*
X016955Y007464D01*
X016815Y007464D02*
X016815Y007604D01*
X016955Y007604D01*
X016955Y007464D01*
X016955Y007479D02*
X016815Y007479D01*
X016815Y007494D02*
X016955Y007494D01*
X016955Y007509D02*
X016815Y007509D01*
X016815Y007524D02*
X016955Y007524D01*
X016955Y007539D02*
X016815Y007539D01*
X016815Y007554D02*
X016955Y007554D01*
X016955Y007569D02*
X016815Y007569D01*
X016815Y007584D02*
X016955Y007584D01*
X016955Y007599D02*
X016815Y007599D01*
X016815Y006696D02*
X016955Y006696D01*
X016815Y006696D02*
X016815Y006836D01*
X016955Y006836D01*
X016955Y006696D01*
X016955Y006711D02*
X016815Y006711D01*
X016815Y006726D02*
X016955Y006726D01*
X016955Y006741D02*
X016815Y006741D01*
X016815Y006756D02*
X016955Y006756D01*
X016955Y006771D02*
X016815Y006771D01*
X016815Y006786D02*
X016955Y006786D01*
X016955Y006801D02*
X016815Y006801D01*
X016815Y006816D02*
X016955Y006816D01*
X016955Y006831D02*
X016815Y006831D01*
X016699Y006696D02*
X016559Y006696D01*
X016559Y006836D01*
X016699Y006836D01*
X016699Y006696D01*
X016699Y006711D02*
X016559Y006711D01*
X016559Y006726D02*
X016699Y006726D01*
X016699Y006741D02*
X016559Y006741D01*
X016559Y006756D02*
X016699Y006756D01*
X016699Y006771D02*
X016559Y006771D01*
X016559Y006786D02*
X016699Y006786D01*
X016699Y006801D02*
X016559Y006801D01*
X016559Y006816D02*
X016699Y006816D01*
X016699Y006831D02*
X016559Y006831D01*
X016443Y006696D02*
X016303Y006696D01*
X016303Y006836D01*
X016443Y006836D01*
X016443Y006696D01*
X016443Y006711D02*
X016303Y006711D01*
X016303Y006726D02*
X016443Y006726D01*
X016443Y006741D02*
X016303Y006741D01*
X016303Y006756D02*
X016443Y006756D01*
X016443Y006771D02*
X016303Y006771D01*
X016303Y006786D02*
X016443Y006786D01*
X016443Y006801D02*
X016303Y006801D01*
X016303Y006816D02*
X016443Y006816D01*
X016443Y006831D02*
X016303Y006831D01*
X016187Y006696D02*
X016047Y006696D01*
X016047Y006836D01*
X016187Y006836D01*
X016187Y006696D01*
X016187Y006711D02*
X016047Y006711D01*
X016047Y006726D02*
X016187Y006726D01*
X016187Y006741D02*
X016047Y006741D01*
X016047Y006756D02*
X016187Y006756D01*
X016187Y006771D02*
X016047Y006771D01*
X016047Y006786D02*
X016187Y006786D01*
X016187Y006801D02*
X016047Y006801D01*
X016047Y006816D02*
X016187Y006816D01*
X016187Y006831D02*
X016047Y006831D01*
D14*
X015011Y006007D02*
X014763Y006007D01*
X014763Y006333D01*
X015011Y006333D01*
X015011Y006007D01*
X015011Y006034D02*
X014763Y006034D01*
X014763Y006061D02*
X015011Y006061D01*
X015011Y006088D02*
X014763Y006088D01*
X014763Y006115D02*
X015011Y006115D01*
X015011Y006142D02*
X014763Y006142D01*
X014763Y006169D02*
X015011Y006169D01*
X015011Y006196D02*
X014763Y006196D01*
X014763Y006223D02*
X015011Y006223D01*
X015011Y006250D02*
X014763Y006250D01*
X014763Y006277D02*
X015011Y006277D01*
X015011Y006304D02*
X014763Y006304D01*
X014763Y006331D02*
X015011Y006331D01*
X014499Y006007D02*
X014251Y006007D01*
X014251Y006333D01*
X014499Y006333D01*
X014499Y006007D01*
X014499Y006034D02*
X014251Y006034D01*
X014251Y006061D02*
X014499Y006061D01*
X014499Y006088D02*
X014251Y006088D01*
X014251Y006115D02*
X014499Y006115D01*
X014499Y006142D02*
X014251Y006142D01*
X014251Y006169D02*
X014499Y006169D01*
X014499Y006196D02*
X014251Y006196D01*
X014251Y006223D02*
X014499Y006223D01*
X014499Y006250D02*
X014251Y006250D01*
X014251Y006277D02*
X014499Y006277D01*
X014499Y006304D02*
X014251Y006304D01*
X014251Y006331D02*
X014499Y006331D01*
X014509Y005497D02*
X014261Y005497D01*
X014261Y005823D01*
X014509Y005823D01*
X014509Y005497D01*
X014509Y005524D02*
X014261Y005524D01*
X014261Y005551D02*
X014509Y005551D01*
X014509Y005578D02*
X014261Y005578D01*
X014261Y005605D02*
X014509Y005605D01*
X014509Y005632D02*
X014261Y005632D01*
X014261Y005659D02*
X014509Y005659D01*
X014509Y005686D02*
X014261Y005686D01*
X014261Y005713D02*
X014509Y005713D01*
X014509Y005740D02*
X014261Y005740D01*
X014261Y005767D02*
X014509Y005767D01*
X014509Y005794D02*
X014261Y005794D01*
X014261Y005821D02*
X014509Y005821D01*
X014773Y005497D02*
X015021Y005497D01*
X014773Y005497D02*
X014773Y005823D01*
X015021Y005823D01*
X015021Y005497D01*
X015021Y005524D02*
X014773Y005524D01*
X014773Y005551D02*
X015021Y005551D01*
X015021Y005578D02*
X014773Y005578D01*
X014773Y005605D02*
X015021Y005605D01*
X015021Y005632D02*
X014773Y005632D01*
X014773Y005659D02*
X015021Y005659D01*
X015021Y005686D02*
X014773Y005686D01*
X014773Y005713D02*
X015021Y005713D01*
X015021Y005740D02*
X014773Y005740D01*
X014773Y005767D02*
X015021Y005767D01*
X015021Y005794D02*
X014773Y005794D01*
X014773Y005821D02*
X015021Y005821D01*
X015921Y005487D02*
X016169Y005487D01*
X015921Y005487D02*
X015921Y005813D01*
X016169Y005813D01*
X016169Y005487D01*
X016169Y005514D02*
X015921Y005514D01*
X015921Y005541D02*
X016169Y005541D01*
X016169Y005568D02*
X015921Y005568D01*
X015921Y005595D02*
X016169Y005595D01*
X016169Y005622D02*
X015921Y005622D01*
X015921Y005649D02*
X016169Y005649D01*
X016169Y005676D02*
X015921Y005676D01*
X015921Y005703D02*
X016169Y005703D01*
X016169Y005730D02*
X015921Y005730D01*
X015921Y005757D02*
X016169Y005757D01*
X016169Y005784D02*
X015921Y005784D01*
X015921Y005811D02*
X016169Y005811D01*
X016169Y005987D02*
X015921Y005987D01*
X015921Y006313D01*
X016169Y006313D01*
X016169Y005987D01*
X016169Y006014D02*
X015921Y006014D01*
X015921Y006041D02*
X016169Y006041D01*
X016169Y006068D02*
X015921Y006068D01*
X015921Y006095D02*
X016169Y006095D01*
X016169Y006122D02*
X015921Y006122D01*
X015921Y006149D02*
X016169Y006149D01*
X016169Y006176D02*
X015921Y006176D01*
X015921Y006203D02*
X016169Y006203D01*
X016169Y006230D02*
X015921Y006230D01*
X015921Y006257D02*
X016169Y006257D01*
X016169Y006284D02*
X015921Y006284D01*
X015921Y006311D02*
X016169Y006311D01*
X016433Y005987D02*
X016681Y005987D01*
X016433Y005987D02*
X016433Y006313D01*
X016681Y006313D01*
X016681Y005987D01*
X016681Y006014D02*
X016433Y006014D01*
X016433Y006041D02*
X016681Y006041D01*
X016681Y006068D02*
X016433Y006068D01*
X016433Y006095D02*
X016681Y006095D01*
X016681Y006122D02*
X016433Y006122D01*
X016433Y006149D02*
X016681Y006149D01*
X016681Y006176D02*
X016433Y006176D01*
X016433Y006203D02*
X016681Y006203D01*
X016681Y006230D02*
X016433Y006230D01*
X016433Y006257D02*
X016681Y006257D01*
X016681Y006284D02*
X016433Y006284D01*
X016433Y006311D02*
X016681Y006311D01*
X016681Y005487D02*
X016433Y005487D01*
X016433Y005813D01*
X016681Y005813D01*
X016681Y005487D01*
X016681Y005514D02*
X016433Y005514D01*
X016433Y005541D02*
X016681Y005541D01*
X016681Y005568D02*
X016433Y005568D01*
X016433Y005595D02*
X016681Y005595D01*
X016681Y005622D02*
X016433Y005622D01*
X016433Y005649D02*
X016681Y005649D01*
X016681Y005676D02*
X016433Y005676D01*
X016433Y005703D02*
X016681Y005703D01*
X016681Y005730D02*
X016433Y005730D01*
X016433Y005757D02*
X016681Y005757D01*
X016681Y005784D02*
X016433Y005784D01*
X016433Y005811D02*
X016681Y005811D01*
X012688Y003240D02*
X012688Y002992D01*
X012688Y003240D02*
X013014Y003240D01*
X013014Y002992D01*
X012688Y002992D01*
X012688Y003019D02*
X013014Y003019D01*
X013014Y003046D02*
X012688Y003046D01*
X012688Y003073D02*
X013014Y003073D01*
X013014Y003100D02*
X012688Y003100D01*
X012688Y003127D02*
X013014Y003127D01*
X013014Y003154D02*
X012688Y003154D01*
X012688Y003181D02*
X013014Y003181D01*
X013014Y003208D02*
X012688Y003208D01*
X012688Y003235D02*
X013014Y003235D01*
X011888Y003250D02*
X011888Y003002D01*
X011888Y003250D02*
X012214Y003250D01*
X012214Y003002D01*
X011888Y003002D01*
X011888Y003029D02*
X012214Y003029D01*
X012214Y003056D02*
X011888Y003056D01*
X011888Y003083D02*
X012214Y003083D01*
X012214Y003110D02*
X011888Y003110D01*
X011888Y003137D02*
X012214Y003137D01*
X012214Y003164D02*
X011888Y003164D01*
X011888Y003191D02*
X012214Y003191D01*
X012214Y003218D02*
X011888Y003218D01*
X011888Y003245D02*
X012214Y003245D01*
X011888Y002738D02*
X011888Y002490D01*
X011888Y002738D02*
X012214Y002738D01*
X012214Y002490D01*
X011888Y002490D01*
X011888Y002517D02*
X012214Y002517D01*
X012214Y002544D02*
X011888Y002544D01*
X011888Y002571D02*
X012214Y002571D01*
X012214Y002598D02*
X011888Y002598D01*
X011888Y002625D02*
X012214Y002625D01*
X012214Y002652D02*
X011888Y002652D01*
X011888Y002679D02*
X012214Y002679D01*
X012214Y002706D02*
X011888Y002706D01*
X011888Y002733D02*
X012214Y002733D01*
X012688Y002728D02*
X012688Y002480D01*
X012688Y002728D02*
X013014Y002728D01*
X013014Y002480D01*
X012688Y002480D01*
X012688Y002507D02*
X013014Y002507D01*
X013014Y002534D02*
X012688Y002534D01*
X012688Y002561D02*
X013014Y002561D01*
X013014Y002588D02*
X012688Y002588D01*
X012688Y002615D02*
X013014Y002615D01*
X013014Y002642D02*
X012688Y002642D01*
X012688Y002669D02*
X013014Y002669D01*
X013014Y002696D02*
X012688Y002696D01*
X012688Y002723D02*
X013014Y002723D01*
X011088Y002738D02*
X011088Y002490D01*
X011088Y002738D02*
X011414Y002738D01*
X011414Y002490D01*
X011088Y002490D01*
X011088Y002517D02*
X011414Y002517D01*
X011414Y002544D02*
X011088Y002544D01*
X011088Y002571D02*
X011414Y002571D01*
X011414Y002598D02*
X011088Y002598D01*
X011088Y002625D02*
X011414Y002625D01*
X011414Y002652D02*
X011088Y002652D01*
X011088Y002679D02*
X011414Y002679D01*
X011414Y002706D02*
X011088Y002706D01*
X011088Y002733D02*
X011414Y002733D01*
X011088Y003002D02*
X011088Y003250D01*
X011414Y003250D01*
X011414Y003002D01*
X011088Y003002D01*
X011088Y003029D02*
X011414Y003029D01*
X011414Y003056D02*
X011088Y003056D01*
X011088Y003083D02*
X011414Y003083D01*
X011414Y003110D02*
X011088Y003110D01*
X011088Y003137D02*
X011414Y003137D01*
X011414Y003164D02*
X011088Y003164D01*
X011088Y003191D02*
X011414Y003191D01*
X011414Y003218D02*
X011088Y003218D01*
X011088Y003245D02*
X011414Y003245D01*
X010604Y003260D02*
X010604Y003012D01*
X010278Y003012D01*
X010278Y003260D01*
X010604Y003260D01*
X010604Y003039D02*
X010278Y003039D01*
X010278Y003066D02*
X010604Y003066D01*
X010604Y003093D02*
X010278Y003093D01*
X010278Y003120D02*
X010604Y003120D01*
X010604Y003147D02*
X010278Y003147D01*
X010278Y003174D02*
X010604Y003174D01*
X010604Y003201D02*
X010278Y003201D01*
X010278Y003228D02*
X010604Y003228D01*
X010604Y003255D02*
X010278Y003255D01*
X010604Y002748D02*
X010604Y002500D01*
X010278Y002500D01*
X010278Y002748D01*
X010604Y002748D01*
X010604Y002527D02*
X010278Y002527D01*
X010278Y002554D02*
X010604Y002554D01*
X010604Y002581D02*
X010278Y002581D01*
X010278Y002608D02*
X010604Y002608D01*
X010604Y002635D02*
X010278Y002635D01*
X010278Y002662D02*
X010604Y002662D01*
X010604Y002689D02*
X010278Y002689D01*
X010278Y002716D02*
X010604Y002716D01*
X010604Y002743D02*
X010278Y002743D01*
X010271Y005877D02*
X010519Y005877D01*
X010271Y005877D02*
X010271Y006203D01*
X010519Y006203D01*
X010519Y005877D01*
X010519Y005904D02*
X010271Y005904D01*
X010271Y005931D02*
X010519Y005931D01*
X010519Y005958D02*
X010271Y005958D01*
X010271Y005985D02*
X010519Y005985D01*
X010519Y006012D02*
X010271Y006012D01*
X010271Y006039D02*
X010519Y006039D01*
X010519Y006066D02*
X010271Y006066D01*
X010271Y006093D02*
X010519Y006093D01*
X010519Y006120D02*
X010271Y006120D01*
X010271Y006147D02*
X010519Y006147D01*
X010519Y006174D02*
X010271Y006174D01*
X010271Y006201D02*
X010519Y006201D01*
X010783Y005877D02*
X011031Y005877D01*
X010783Y005877D02*
X010783Y006203D01*
X011031Y006203D01*
X011031Y005877D01*
X011031Y005904D02*
X010783Y005904D01*
X010783Y005931D02*
X011031Y005931D01*
X011031Y005958D02*
X010783Y005958D01*
X010783Y005985D02*
X011031Y005985D01*
X011031Y006012D02*
X010783Y006012D01*
X010783Y006039D02*
X011031Y006039D01*
X011031Y006066D02*
X010783Y006066D01*
X010783Y006093D02*
X011031Y006093D01*
X011031Y006120D02*
X010783Y006120D01*
X010783Y006147D02*
X011031Y006147D01*
X011031Y006174D02*
X010783Y006174D01*
X010783Y006201D02*
X011031Y006201D01*
X008101Y007537D02*
X007853Y007537D01*
X007853Y007863D01*
X008101Y007863D01*
X008101Y007537D01*
X008101Y007564D02*
X007853Y007564D01*
X007853Y007591D02*
X008101Y007591D01*
X008101Y007618D02*
X007853Y007618D01*
X007853Y007645D02*
X008101Y007645D01*
X008101Y007672D02*
X007853Y007672D01*
X007853Y007699D02*
X008101Y007699D01*
X008101Y007726D02*
X007853Y007726D01*
X007853Y007753D02*
X008101Y007753D01*
X008101Y007780D02*
X007853Y007780D01*
X007853Y007807D02*
X008101Y007807D01*
X008101Y007834D02*
X007853Y007834D01*
X007853Y007861D02*
X008101Y007861D01*
X007589Y007537D02*
X007341Y007537D01*
X007341Y007863D01*
X007589Y007863D01*
X007589Y007537D01*
X007589Y007564D02*
X007341Y007564D01*
X007341Y007591D02*
X007589Y007591D01*
X007589Y007618D02*
X007341Y007618D01*
X007341Y007645D02*
X007589Y007645D01*
X007589Y007672D02*
X007341Y007672D01*
X007341Y007699D02*
X007589Y007699D01*
X007589Y007726D02*
X007341Y007726D01*
X007341Y007753D02*
X007589Y007753D01*
X007589Y007780D02*
X007341Y007780D01*
X007341Y007807D02*
X007589Y007807D01*
X007589Y007834D02*
X007341Y007834D01*
X007341Y007861D02*
X007589Y007861D01*
X007144Y008770D02*
X007144Y009018D01*
X007144Y008770D02*
X006818Y008770D01*
X006818Y009018D01*
X007144Y009018D01*
X007144Y008797D02*
X006818Y008797D01*
X006818Y008824D02*
X007144Y008824D01*
X007144Y008851D02*
X006818Y008851D01*
X006818Y008878D02*
X007144Y008878D01*
X007144Y008905D02*
X006818Y008905D01*
X006818Y008932D02*
X007144Y008932D01*
X007144Y008959D02*
X006818Y008959D01*
X006818Y008986D02*
X007144Y008986D01*
X007144Y009013D02*
X006818Y009013D01*
X007144Y009282D02*
X007144Y009530D01*
X007144Y009282D02*
X006818Y009282D01*
X006818Y009530D01*
X007144Y009530D01*
X007144Y009309D02*
X006818Y009309D01*
X006818Y009336D02*
X007144Y009336D01*
X007144Y009363D02*
X006818Y009363D01*
X006818Y009390D02*
X007144Y009390D01*
X007144Y009417D02*
X006818Y009417D01*
X006818Y009444D02*
X007144Y009444D01*
X007144Y009471D02*
X006818Y009471D01*
X006818Y009498D02*
X007144Y009498D01*
X007144Y009525D02*
X006818Y009525D01*
X008968Y009542D02*
X008968Y009790D01*
X009294Y009790D01*
X009294Y009542D01*
X008968Y009542D01*
X008968Y009569D02*
X009294Y009569D01*
X009294Y009596D02*
X008968Y009596D01*
X008968Y009623D02*
X009294Y009623D01*
X009294Y009650D02*
X008968Y009650D01*
X008968Y009677D02*
X009294Y009677D01*
X009294Y009704D02*
X008968Y009704D01*
X008968Y009731D02*
X009294Y009731D01*
X009294Y009758D02*
X008968Y009758D01*
X008968Y009785D02*
X009294Y009785D01*
X008968Y009278D02*
X008968Y009030D01*
X008968Y009278D02*
X009294Y009278D01*
X009294Y009030D01*
X008968Y009030D01*
X008968Y009057D02*
X009294Y009057D01*
X009294Y009084D02*
X008968Y009084D01*
X008968Y009111D02*
X009294Y009111D01*
X009294Y009138D02*
X008968Y009138D01*
X008968Y009165D02*
X009294Y009165D01*
X009294Y009192D02*
X008968Y009192D01*
X008968Y009219D02*
X009294Y009219D01*
X009294Y009246D02*
X008968Y009246D01*
X008968Y009273D02*
X009294Y009273D01*
X010141Y008077D02*
X010389Y008077D01*
X010141Y008077D02*
X010141Y008403D01*
X010389Y008403D01*
X010389Y008077D01*
X010389Y008104D02*
X010141Y008104D01*
X010141Y008131D02*
X010389Y008131D01*
X010389Y008158D02*
X010141Y008158D01*
X010141Y008185D02*
X010389Y008185D01*
X010389Y008212D02*
X010141Y008212D01*
X010141Y008239D02*
X010389Y008239D01*
X010389Y008266D02*
X010141Y008266D01*
X010141Y008293D02*
X010389Y008293D01*
X010389Y008320D02*
X010141Y008320D01*
X010141Y008347D02*
X010389Y008347D01*
X010389Y008374D02*
X010141Y008374D01*
X010141Y008401D02*
X010389Y008401D01*
X010653Y008077D02*
X010901Y008077D01*
X010653Y008077D02*
X010653Y008403D01*
X010901Y008403D01*
X010901Y008077D01*
X010901Y008104D02*
X010653Y008104D01*
X010653Y008131D02*
X010901Y008131D01*
X010901Y008158D02*
X010653Y008158D01*
X010653Y008185D02*
X010901Y008185D01*
X010901Y008212D02*
X010653Y008212D01*
X010653Y008239D02*
X010901Y008239D01*
X010901Y008266D02*
X010653Y008266D01*
X010653Y008293D02*
X010901Y008293D01*
X010901Y008320D02*
X010653Y008320D01*
X010653Y008347D02*
X010901Y008347D01*
X010901Y008374D02*
X010653Y008374D01*
X010653Y008401D02*
X010901Y008401D01*
D15*
X017593Y003282D02*
X017593Y002888D01*
X017593Y003282D02*
X017949Y003282D01*
X017949Y002888D01*
X017593Y002888D01*
X017593Y002926D02*
X017949Y002926D01*
X017949Y002964D02*
X017593Y002964D01*
X017593Y003002D02*
X017949Y003002D01*
X017949Y003040D02*
X017593Y003040D01*
X017593Y003078D02*
X017949Y003078D01*
X017949Y003116D02*
X017593Y003116D01*
X017593Y003154D02*
X017949Y003154D01*
X017949Y003192D02*
X017593Y003192D01*
X017593Y003230D02*
X017949Y003230D01*
X017949Y003268D02*
X017593Y003268D01*
X018443Y003292D02*
X018443Y002898D01*
X018443Y003292D02*
X018799Y003292D01*
X018799Y002898D01*
X018443Y002898D01*
X018443Y002936D02*
X018799Y002936D01*
X018799Y002974D02*
X018443Y002974D01*
X018443Y003012D02*
X018799Y003012D01*
X018799Y003050D02*
X018443Y003050D01*
X018443Y003088D02*
X018799Y003088D01*
X018799Y003126D02*
X018443Y003126D01*
X018443Y003164D02*
X018799Y003164D01*
X018799Y003202D02*
X018443Y003202D01*
X018443Y003240D02*
X018799Y003240D01*
X018799Y003278D02*
X018443Y003278D01*
X018443Y002622D02*
X018443Y002228D01*
X018443Y002622D02*
X018799Y002622D01*
X018799Y002228D01*
X018443Y002228D01*
X018443Y002266D02*
X018799Y002266D01*
X018799Y002304D02*
X018443Y002304D01*
X018443Y002342D02*
X018799Y002342D01*
X018799Y002380D02*
X018443Y002380D01*
X018443Y002418D02*
X018799Y002418D01*
X018799Y002456D02*
X018443Y002456D01*
X018443Y002494D02*
X018799Y002494D01*
X018799Y002532D02*
X018443Y002532D01*
X018443Y002570D02*
X018799Y002570D01*
X018799Y002608D02*
X018443Y002608D01*
X017593Y002612D02*
X017593Y002218D01*
X017593Y002612D02*
X017949Y002612D01*
X017949Y002218D01*
X017593Y002218D01*
X017593Y002256D02*
X017949Y002256D01*
X017949Y002294D02*
X017593Y002294D01*
X017593Y002332D02*
X017949Y002332D01*
X017949Y002370D02*
X017593Y002370D01*
X017593Y002408D02*
X017949Y002408D01*
X017949Y002446D02*
X017593Y002446D01*
X017593Y002484D02*
X017949Y002484D01*
X017949Y002522D02*
X017593Y002522D01*
X017593Y002560D02*
X017949Y002560D01*
X017949Y002598D02*
X017593Y002598D01*
D16*
X007846Y008903D02*
X007616Y008903D01*
X007616Y009407D01*
X007846Y009407D01*
X007846Y008903D01*
X007846Y008928D02*
X007616Y008928D01*
X007616Y008953D02*
X007846Y008953D01*
X007846Y008978D02*
X007616Y008978D01*
X007616Y009003D02*
X007846Y009003D01*
X007846Y009028D02*
X007616Y009028D01*
X007616Y009053D02*
X007846Y009053D01*
X007846Y009078D02*
X007616Y009078D01*
X007616Y009103D02*
X007846Y009103D01*
X007846Y009128D02*
X007616Y009128D01*
X007616Y009153D02*
X007846Y009153D01*
X007846Y009178D02*
X007616Y009178D01*
X007616Y009203D02*
X007846Y009203D01*
X007846Y009228D02*
X007616Y009228D01*
X007616Y009253D02*
X007846Y009253D01*
X007846Y009278D02*
X007616Y009278D01*
X007616Y009303D02*
X007846Y009303D01*
X007846Y009328D02*
X007616Y009328D01*
X007616Y009353D02*
X007846Y009353D01*
X007846Y009378D02*
X007616Y009378D01*
X007616Y009403D02*
X007846Y009403D01*
D17*
X008056Y009411D02*
X008154Y009411D01*
X008154Y009155D02*
X008056Y009155D01*
X008056Y008899D02*
X008154Y008899D01*
X007406Y008899D02*
X007308Y008899D01*
X007308Y009155D02*
X007406Y009155D01*
X007406Y009411D02*
X007308Y009411D01*
D18*
X007171Y005220D03*
X007371Y005220D03*
X007571Y005220D03*
X007571Y005420D03*
X007571Y005620D03*
X007371Y005620D03*
X007171Y005620D03*
X007171Y005420D03*
M02*
