%FSAX25Y25*%
%MOIN*%
G70*
G01*
G75*
G04 Layer_Color=32896*
%ADD10C,0.00787*%
%ADD11C,0.03937*%
%ADD12C,0.00591*%
%ADD13C,0.00600*%
%ADD14C,0.00800*%
%ADD15C,0.01600*%
%ADD16C,0.01000*%
%ADD17C,0.06496*%
%ADD18R,0.06496X0.06496*%
%ADD19C,0.18110*%
%ADD20C,0.04000*%
%ADD21C,0.02500*%
%ADD22C,0.07874*%
%ADD23C,0.07096*%
%ADD24R,0.07096X0.07096*%
%ADD25C,0.18710*%
%ADD26C,0.00700*%
%ADD27C,0.00394*%
%ADD28C,0.00197*%
%ADD29R,0.37500X0.12500*%
%ADD30R,0.12500X0.12500*%
%ADD31C,0.00500*%
%ADD32C,0.02000*%
%ADD33C,0.00400*%
G54D13*
X1462800Y0847500D02*
G03*
X1466200Y0850900I0000000J0003400D01*
G01*
X1199200D02*
G03*
X1202600Y0847500I0003400J0000000D01*
G01*
Y0924900D02*
G03*
X1199200Y0921500I0000000J-0003400D01*
G01*
X1466200D02*
G03*
X1462800Y0924900I-0003400J0000000D01*
G01*
X1202600D02*
X1462800D01*
X1202600Y0847500D02*
X1462800D01*
X1199200Y0850900D02*
Y0921500D01*
X1466200Y0850900D02*
Y0921500D01*
X1205200Y0909840D02*
X1460200D01*
X1205200Y0899400D02*
X1460200D01*
X1205200Y0895243D02*
X1207466D01*
X1206333D01*
Y0891844D01*
X1209165D02*
X1210298D01*
X1210865Y0892410D01*
Y0893543D01*
X1210298Y0894110D01*
X1209165D01*
X1208599Y0893543D01*
Y0892410D01*
X1209165Y0891844D01*
X1211998Y0890711D02*
Y0894110D01*
X1213697D01*
X1214264Y0893543D01*
Y0892410D01*
X1213697Y0891844D01*
X1211998D01*
X1221062Y0894676D02*
X1220495Y0895243D01*
X1219362D01*
X1218796Y0894676D01*
Y0894110D01*
X1219362Y0893543D01*
X1220495D01*
X1221062Y0892977D01*
Y0892410D01*
X1220495Y0891844D01*
X1219362D01*
X1218796Y0892410D01*
X1222761Y0891844D02*
X1223894D01*
X1224460Y0892410D01*
Y0893543D01*
X1223894Y0894110D01*
X1222761D01*
X1222194Y0893543D01*
Y0892410D01*
X1222761Y0891844D01*
X1225593D02*
X1226726D01*
X1226160D01*
Y0895243D01*
X1225593D01*
X1230692D02*
Y0891844D01*
X1228992D01*
X1228426Y0892410D01*
Y0893543D01*
X1228992Y0894110D01*
X1230692D01*
X1233524Y0891844D02*
X1232391D01*
X1231825Y0892410D01*
Y0893543D01*
X1232391Y0894110D01*
X1233524D01*
X1234091Y0893543D01*
Y0892977D01*
X1231825D01*
X1235224Y0894110D02*
Y0891844D01*
Y0892977D01*
X1235790Y0893543D01*
X1236357Y0894110D01*
X1236923D01*
X1242021Y0891844D02*
Y0895243D01*
X1243154Y0894110D01*
X1244287Y0895243D01*
Y0891844D01*
X1245987Y0894110D02*
X1247120D01*
X1247686Y0893543D01*
Y0891844D01*
X1245987D01*
X1245420Y0892410D01*
X1245987Y0892977D01*
X1247686D01*
X1248819Y0891844D02*
X1250519D01*
X1251085Y0892410D01*
X1250519Y0892977D01*
X1249386D01*
X1248819Y0893543D01*
X1249386Y0894110D01*
X1251085D01*
X1252218Y0891844D02*
Y0895243D01*
Y0892977D02*
X1253918Y0894110D01*
X1252218Y0892977D02*
X1253918Y0891844D01*
X1295914D02*
X1294781Y0892977D01*
Y0894110D01*
X1295914Y0895243D01*
X1297614Y0891844D02*
Y0892410D01*
X1298180D01*
Y0891844D01*
X1297614D01*
X1302712Y0894676D02*
X1302146Y0895243D01*
X1301013D01*
X1300446Y0894676D01*
Y0892410D01*
X1301013Y0891844D01*
X1302146D01*
X1302712Y0892410D01*
Y0893543D01*
X1301579D01*
X1303845Y0895243D02*
X1306111D01*
X1304978D01*
Y0891844D01*
X1309510Y0894676D02*
X1308943Y0895243D01*
X1307810D01*
X1307244Y0894676D01*
Y0894110D01*
X1307810Y0893543D01*
X1308943D01*
X1309510Y0892977D01*
Y0892410D01*
X1308943Y0891844D01*
X1307810D01*
X1307244Y0892410D01*
X1310643Y0891844D02*
X1311776Y0892977D01*
Y0894110D01*
X1310643Y0895243D01*
X1413670Y0894676D02*
X1413103Y0895243D01*
X1411971D01*
X1411404Y0894676D01*
Y0894110D01*
X1411971Y0893543D01*
X1413103D01*
X1413670Y0892977D01*
Y0892410D01*
X1413103Y0891844D01*
X1411971D01*
X1411404Y0892410D01*
X1415369Y0891844D02*
X1416502D01*
X1417069Y0892410D01*
Y0893543D01*
X1416502Y0894110D01*
X1415369D01*
X1414803Y0893543D01*
Y0892410D01*
X1415369Y0891844D01*
X1418202D02*
X1419335D01*
X1418768D01*
Y0895243D01*
X1418202D01*
X1423300D02*
Y0891844D01*
X1421601D01*
X1421034Y0892410D01*
Y0893543D01*
X1421601Y0894110D01*
X1423300D01*
X1426133Y0891844D02*
X1425000D01*
X1424433Y0892410D01*
Y0893543D01*
X1425000Y0894110D01*
X1426133D01*
X1426699Y0893543D01*
Y0892977D01*
X1424433D01*
X1427832Y0894110D02*
Y0891844D01*
Y0892977D01*
X1428399Y0893543D01*
X1428965Y0894110D01*
X1429531D01*
X1434630Y0891844D02*
Y0895243D01*
X1436329D01*
X1436896Y0894676D01*
Y0893543D01*
X1436329Y0892977D01*
X1434630D01*
X1435763D02*
X1436896Y0891844D01*
X1439728D02*
X1438595D01*
X1438029Y0892410D01*
Y0893543D01*
X1438595Y0894110D01*
X1439728D01*
X1440295Y0893543D01*
Y0892977D01*
X1438029D01*
X1441428Y0891844D02*
X1443127D01*
X1443694Y0892410D01*
X1443127Y0892977D01*
X1441994D01*
X1441428Y0893543D01*
X1441994Y0894110D01*
X1443694D01*
X1444827Y0891844D02*
X1445959D01*
X1445393D01*
Y0894110D01*
X1444827D01*
X1447659Y0891844D02*
X1449358D01*
X1449925Y0892410D01*
X1449358Y0892977D01*
X1448225D01*
X1447659Y0893543D01*
X1448225Y0894110D01*
X1449925D01*
X1451624Y0894676D02*
Y0894110D01*
X1451058D01*
X1452191D01*
X1451624D01*
Y0892410D01*
X1452191Y0891844D01*
X1205200Y0866218D02*
Y0862819D01*
X1206900D01*
X1207466Y0863385D01*
Y0863952D01*
X1206900Y0864518D01*
X1205200D01*
X1206900D01*
X1207466Y0865085D01*
Y0865651D01*
X1206900Y0866218D01*
X1205200D01*
X1209165Y0862819D02*
X1210298D01*
X1210865Y0863385D01*
Y0864518D01*
X1210298Y0865085D01*
X1209165D01*
X1208599Y0864518D01*
Y0863385D01*
X1209165Y0862819D01*
X1212564Y0865651D02*
Y0865085D01*
X1211998D01*
X1213131D01*
X1212564D01*
Y0863385D01*
X1213131Y0862819D01*
X1215397Y0865651D02*
Y0865085D01*
X1214830D01*
X1215963D01*
X1215397D01*
Y0863385D01*
X1215963Y0862819D01*
X1218229D02*
X1219362D01*
X1219929Y0863385D01*
Y0864518D01*
X1219362Y0865085D01*
X1218229D01*
X1217663Y0864518D01*
Y0863385D01*
X1218229Y0862819D01*
X1221062D02*
Y0865085D01*
X1221628D01*
X1222194Y0864518D01*
Y0862819D01*
Y0864518D01*
X1222761Y0865085D01*
X1223328Y0864518D01*
Y0862819D01*
X1230125Y0865651D02*
X1229559Y0866218D01*
X1228426D01*
X1227859Y0865651D01*
Y0865085D01*
X1228426Y0864518D01*
X1229559D01*
X1230125Y0863952D01*
Y0863385D01*
X1229559Y0862819D01*
X1228426D01*
X1227859Y0863385D01*
X1231825Y0862819D02*
X1232958D01*
X1233524Y0863385D01*
Y0864518D01*
X1232958Y0865085D01*
X1231825D01*
X1231258Y0864518D01*
Y0863385D01*
X1231825Y0862819D01*
X1234657D02*
X1235790D01*
X1235224D01*
Y0866218D01*
X1234657D01*
X1239756D02*
Y0862819D01*
X1238056D01*
X1237490Y0863385D01*
Y0864518D01*
X1238056Y0865085D01*
X1239756D01*
X1242588Y0862819D02*
X1241455D01*
X1240889Y0863385D01*
Y0864518D01*
X1241455Y0865085D01*
X1242588D01*
X1243154Y0864518D01*
Y0863952D01*
X1240889D01*
X1244287Y0865085D02*
Y0862819D01*
Y0863952D01*
X1244854Y0864518D01*
X1245420Y0865085D01*
X1245987D01*
X1251085Y0862819D02*
Y0866218D01*
X1252218Y0865085D01*
X1253351Y0866218D01*
Y0862819D01*
X1255050Y0865085D02*
X1256184D01*
X1256750Y0864518D01*
Y0862819D01*
X1255050D01*
X1254484Y0863385D01*
X1255050Y0863952D01*
X1256750D01*
X1257883Y0862819D02*
X1259582D01*
X1260149Y0863385D01*
X1259582Y0863952D01*
X1258449D01*
X1257883Y0864518D01*
X1258449Y0865085D01*
X1260149D01*
X1261282Y0862819D02*
Y0866218D01*
Y0863952D02*
X1262981Y0865085D01*
X1261282Y0863952D02*
X1262981Y0862819D01*
X1295914D02*
X1294781Y0863952D01*
Y0865085D01*
X1295914Y0866218D01*
X1297614Y0862819D02*
Y0863385D01*
X1298180D01*
Y0862819D01*
X1297614D01*
X1302712Y0865651D02*
X1302146Y0866218D01*
X1301013D01*
X1300446Y0865651D01*
Y0863385D01*
X1301013Y0862819D01*
X1302146D01*
X1302712Y0863385D01*
Y0864518D01*
X1301579D01*
X1303845Y0866218D02*
Y0862819D01*
X1305544D01*
X1306111Y0863385D01*
Y0863952D01*
X1305544Y0864518D01*
X1303845D01*
X1305544D01*
X1306111Y0865085D01*
Y0865651D01*
X1305544Y0866218D01*
X1303845D01*
X1309510Y0865651D02*
X1308943Y0866218D01*
X1307810D01*
X1307244Y0865651D01*
Y0865085D01*
X1307810Y0864518D01*
X1308943D01*
X1309510Y0863952D01*
Y0863385D01*
X1308943Y0862819D01*
X1307810D01*
X1307244Y0863385D01*
X1310643Y0862819D02*
X1311776Y0863952D01*
Y0865085D01*
X1310643Y0866218D01*
X1413670Y0865651D02*
X1413103Y0866218D01*
X1411971D01*
X1411404Y0865651D01*
Y0865085D01*
X1411971Y0864518D01*
X1413103D01*
X1413670Y0863952D01*
Y0863385D01*
X1413103Y0862819D01*
X1411971D01*
X1411404Y0863385D01*
X1415369Y0862819D02*
X1416502D01*
X1417069Y0863385D01*
Y0864518D01*
X1416502Y0865085D01*
X1415369D01*
X1414803Y0864518D01*
Y0863385D01*
X1415369Y0862819D01*
X1418202D02*
X1419335D01*
X1418768D01*
Y0866218D01*
X1418202D01*
X1423300D02*
Y0862819D01*
X1421601D01*
X1421034Y0863385D01*
Y0864518D01*
X1421601Y0865085D01*
X1423300D01*
X1426133Y0862819D02*
X1425000D01*
X1424433Y0863385D01*
Y0864518D01*
X1425000Y0865085D01*
X1426133D01*
X1426699Y0864518D01*
Y0863952D01*
X1424433D01*
X1427832Y0865085D02*
Y0862819D01*
Y0863952D01*
X1428399Y0864518D01*
X1428965Y0865085D01*
X1429531D01*
X1434630Y0862819D02*
Y0866218D01*
X1436329D01*
X1436896Y0865651D01*
Y0864518D01*
X1436329Y0863952D01*
X1434630D01*
X1435763D02*
X1436896Y0862819D01*
X1439728D02*
X1438595D01*
X1438029Y0863385D01*
Y0864518D01*
X1438595Y0865085D01*
X1439728D01*
X1440295Y0864518D01*
Y0863952D01*
X1438029D01*
X1441428Y0862819D02*
X1443127D01*
X1443694Y0863385D01*
X1443127Y0863952D01*
X1441994D01*
X1441428Y0864518D01*
X1441994Y0865085D01*
X1443694D01*
X1444827Y0862819D02*
X1445959D01*
X1445393D01*
Y0865085D01*
X1444827D01*
X1447659Y0862819D02*
X1449358D01*
X1449925Y0863385D01*
X1449358Y0863952D01*
X1448225D01*
X1447659Y0864518D01*
X1448225Y0865085D01*
X1449925D01*
X1451624Y0865651D02*
Y0865085D01*
X1451058D01*
X1452191D01*
X1451624D01*
Y0863385D01*
X1452191Y0862819D01*
X1205200Y0885568D02*
X1207466D01*
X1206333D01*
Y0882169D01*
X1209165D02*
X1210298D01*
X1210865Y0882735D01*
Y0883868D01*
X1210298Y0884435D01*
X1209165D01*
X1208599Y0883868D01*
Y0882735D01*
X1209165Y0882169D01*
X1211998Y0881036D02*
Y0884435D01*
X1213697D01*
X1214264Y0883868D01*
Y0882735D01*
X1213697Y0882169D01*
X1211998D01*
X1218796Y0885568D02*
Y0882169D01*
X1221062D01*
X1222761Y0884435D02*
X1223894D01*
X1224460Y0883868D01*
Y0882169D01*
X1222761D01*
X1222194Y0882735D01*
X1222761Y0883302D01*
X1224460D01*
X1225593Y0884435D02*
Y0882735D01*
X1226160Y0882169D01*
X1227859D01*
Y0881602D01*
X1227293Y0881036D01*
X1226726D01*
X1227859Y0882169D02*
Y0884435D01*
X1230692Y0882169D02*
X1229559D01*
X1228992Y0882735D01*
Y0883868D01*
X1229559Y0884435D01*
X1230692D01*
X1231258Y0883868D01*
Y0883302D01*
X1228992D01*
X1232391Y0884435D02*
Y0882169D01*
Y0883302D01*
X1232958Y0883868D01*
X1233524Y0884435D01*
X1234091D01*
X1295914Y0882169D02*
X1294781Y0883302D01*
Y0884435D01*
X1295914Y0885568D01*
X1297614Y0882169D02*
Y0882735D01*
X1298180D01*
Y0882169D01*
X1297614D01*
X1302712Y0885001D02*
X1302146Y0885568D01*
X1301013D01*
X1300446Y0885001D01*
Y0882735D01*
X1301013Y0882169D01*
X1302146D01*
X1302712Y0882735D01*
Y0883868D01*
X1301579D01*
X1303845Y0885568D02*
X1306111D01*
X1304978D01*
Y0882169D01*
X1307244Y0885568D02*
Y0882169D01*
X1309510D01*
X1310643D02*
X1311776Y0883302D01*
Y0884435D01*
X1310643Y0885568D01*
X1351133Y0882169D02*
X1352266D01*
X1351700D01*
Y0885568D01*
X1351133Y0885001D01*
X1353966Y0882169D02*
Y0882735D01*
X1354532D01*
Y0882169D01*
X1353966D01*
X1358498D02*
Y0885568D01*
X1356798Y0883868D01*
X1359064D01*
X1360197Y0882169D02*
Y0884435D01*
X1360763D01*
X1361330Y0883868D01*
Y0882169D01*
Y0883868D01*
X1361897Y0884435D01*
X1362463Y0883868D01*
Y0882169D01*
X1363596D02*
X1364729D01*
X1364162D01*
Y0884435D01*
X1363596D01*
X1366428Y0882169D02*
X1367561D01*
X1366995D01*
Y0885568D01*
X1366428D01*
X1413670Y0880730D02*
X1411404D01*
Y0879031D01*
X1412537D01*
X1411404D01*
Y0877331D01*
X1414803D02*
Y0880730D01*
X1416502D01*
X1417069Y0880164D01*
Y0879031D01*
X1416502Y0878464D01*
X1414803D01*
X1415936D02*
X1417069Y0877331D01*
X1418202Y0879031D02*
X1420468D01*
X1423300Y0877331D02*
Y0880730D01*
X1421601Y0879031D01*
X1423867D01*
X1205200Y0875893D02*
Y0872494D01*
X1206900D01*
X1207466Y0873060D01*
Y0873627D01*
X1206900Y0874193D01*
X1205200D01*
X1206900D01*
X1207466Y0874760D01*
Y0875326D01*
X1206900Y0875893D01*
X1205200D01*
X1209165Y0872494D02*
X1210298D01*
X1210865Y0873060D01*
Y0874193D01*
X1210298Y0874760D01*
X1209165D01*
X1208599Y0874193D01*
Y0873060D01*
X1209165Y0872494D01*
X1212564Y0875326D02*
Y0874760D01*
X1211998D01*
X1213131D01*
X1212564D01*
Y0873060D01*
X1213131Y0872494D01*
X1215397Y0875326D02*
Y0874760D01*
X1214830D01*
X1215963D01*
X1215397D01*
Y0873060D01*
X1215963Y0872494D01*
X1218229D02*
X1219362D01*
X1219929Y0873060D01*
Y0874193D01*
X1219362Y0874760D01*
X1218229D01*
X1217663Y0874193D01*
Y0873060D01*
X1218229Y0872494D01*
X1221062D02*
Y0874760D01*
X1221628D01*
X1222194Y0874193D01*
Y0872494D01*
Y0874193D01*
X1222761Y0874760D01*
X1223328Y0874193D01*
Y0872494D01*
X1227859Y0875893D02*
Y0872494D01*
X1230125D01*
X1231825Y0874760D02*
X1232958D01*
X1233524Y0874193D01*
Y0872494D01*
X1231825D01*
X1231258Y0873060D01*
X1231825Y0873627D01*
X1233524D01*
X1234657Y0874760D02*
Y0873060D01*
X1235224Y0872494D01*
X1236923D01*
Y0871927D01*
X1236357Y0871361D01*
X1235790D01*
X1236923Y0872494D02*
Y0874760D01*
X1239756Y0872494D02*
X1238622D01*
X1238056Y0873060D01*
Y0874193D01*
X1238622Y0874760D01*
X1239756D01*
X1240322Y0874193D01*
Y0873627D01*
X1238056D01*
X1241455Y0874760D02*
Y0872494D01*
Y0873627D01*
X1242021Y0874193D01*
X1242588Y0874760D01*
X1243154D01*
X1295914Y0872494D02*
X1294781Y0873627D01*
Y0874760D01*
X1295914Y0875893D01*
X1297614Y0872494D02*
Y0873060D01*
X1298180D01*
Y0872494D01*
X1297614D01*
X1302712Y0875326D02*
X1302146Y0875893D01*
X1301013D01*
X1300446Y0875326D01*
Y0873060D01*
X1301013Y0872494D01*
X1302146D01*
X1302712Y0873060D01*
Y0874193D01*
X1301579D01*
X1303845Y0875893D02*
Y0872494D01*
X1305544D01*
X1306111Y0873060D01*
Y0873627D01*
X1305544Y0874193D01*
X1303845D01*
X1305544D01*
X1306111Y0874760D01*
Y0875326D01*
X1305544Y0875893D01*
X1303845D01*
X1307244D02*
Y0872494D01*
X1309510D01*
X1310643D02*
X1311776Y0873627D01*
Y0874760D01*
X1310643Y0875893D01*
X1351133Y0872494D02*
X1352266D01*
X1351700D01*
Y0875893D01*
X1351133Y0875326D01*
X1353966Y0872494D02*
Y0873060D01*
X1354532D01*
Y0872494D01*
X1353966D01*
X1358498D02*
Y0875893D01*
X1356798Y0874193D01*
X1359064D01*
X1360197Y0872494D02*
Y0874760D01*
X1360763D01*
X1361330Y0874193D01*
Y0872494D01*
Y0874193D01*
X1361897Y0874760D01*
X1362463Y0874193D01*
Y0872494D01*
X1363596D02*
X1364729D01*
X1364162D01*
Y0874760D01*
X1363596D01*
X1366428Y0872494D02*
X1367561D01*
X1366995D01*
Y0875893D01*
X1366428D01*
G54D14*
X0580500Y0052965D02*
X0584499D01*
X0582499D01*
Y0046966D01*
X0590497Y0052965D02*
X0586498D01*
Y0046966D01*
X0590497D01*
X0586498Y0049966D02*
X0588497D01*
X0592496Y0052965D02*
X0596495Y0046966D01*
Y0052965D02*
X0592496Y0046966D01*
X0598494D02*
Y0050965D01*
X0600493Y0052965D01*
X0602493Y0050965D01*
Y0046966D01*
Y0049966D01*
X0598494D01*
X0608491Y0051965D02*
X0607491Y0052965D01*
X0605492D01*
X0604492Y0051965D01*
Y0050965D01*
X0605492Y0049966D01*
X0607491D01*
X0608491Y0048966D01*
Y0047966D01*
X0607491Y0046966D01*
X0605492D01*
X0604492Y0047966D01*
X0616488Y0052965D02*
X0618488D01*
X0617488D01*
Y0046966D01*
X0616488D01*
X0618488D01*
X0621487D02*
Y0052965D01*
X0625486Y0046966D01*
Y0052965D01*
X0631484Y0051965D02*
X0630484Y0052965D01*
X0628484D01*
X0627485Y0051965D01*
Y0050965D01*
X0628484Y0049966D01*
X0630484D01*
X0631484Y0048966D01*
Y0047966D01*
X0630484Y0046966D01*
X0628484D01*
X0627485Y0047966D01*
X0633483Y0052965D02*
X0637482D01*
X0635482D01*
Y0046966D01*
X0639481D02*
Y0052965D01*
X0642480D01*
X0643480Y0051965D01*
Y0049966D01*
X0642480Y0048966D01*
X0639481D01*
X0641480D02*
X0643480Y0046966D01*
X0645479Y0052965D02*
Y0047966D01*
X0646479Y0046966D01*
X0648478D01*
X0649478Y0047966D01*
Y0052965D01*
X0651477Y0046966D02*
Y0052965D01*
X0653476Y0050965D01*
X0655476Y0052965D01*
Y0046966D01*
X0661474Y0052965D02*
X0657475D01*
Y0046966D01*
X0661474D01*
X0657475Y0049966D02*
X0659474D01*
X0663473Y0046966D02*
Y0052965D01*
X0667472Y0046966D01*
Y0052965D01*
X0669471D02*
X0673470D01*
X0671471D01*
Y0046966D01*
X0679468Y0051965D02*
X0678468Y0052965D01*
X0676469D01*
X0675469Y0051965D01*
Y0050965D01*
X0676469Y0049966D01*
X0678468D01*
X0679468Y0048966D01*
Y0047966D01*
X0678468Y0046966D01*
X0676469D01*
X0675469Y0047966D01*
X0458049Y0052965D02*
X0454050D01*
Y0049966D01*
X0456049Y0050965D01*
X0457049D01*
X0458049Y0049966D01*
Y0047966D01*
X0457049Y0046966D01*
X0455050D01*
X0454050Y0047966D01*
X0460048Y0050965D02*
X0461048D01*
Y0049966D01*
X0460048D01*
Y0050965D01*
Y0047966D02*
X0461048D01*
Y0046966D01*
X0460048D01*
Y0047966D01*
X0465046Y0046966D02*
X0467046D01*
X0466046D01*
Y0052965D01*
X0465046Y0051965D01*
X0470045Y0047966D02*
X0471044Y0046966D01*
X0473044D01*
X0474044Y0047966D01*
Y0051965D01*
X0473044Y0052965D01*
X0471044D01*
X0470045Y0051965D01*
Y0050965D01*
X0471044Y0049966D01*
X0474044D01*
X0476043Y0050965D02*
X0477043D01*
Y0049966D01*
X0476043D01*
Y0050965D01*
Y0047966D02*
X0477043D01*
Y0046966D01*
X0476043D01*
Y0047966D01*
X0481041Y0051965D02*
X0482041Y0052965D01*
X0484040D01*
X0485040Y0051965D01*
Y0047966D01*
X0484040Y0046966D01*
X0482041D01*
X0481041Y0047966D01*
Y0051965D01*
X0487039D02*
X0488039Y0052965D01*
X0490038D01*
X0491038Y0051965D01*
Y0050965D01*
X0490038Y0049966D01*
X0489039D01*
X0490038D01*
X0491038Y0048966D01*
Y0047966D01*
X0490038Y0046966D01*
X0488039D01*
X0487039Y0047966D01*
X0499035Y0046966D02*
Y0052965D01*
X0502035D01*
X0503034Y0051965D01*
Y0049966D01*
X0502035Y0048966D01*
X0499035D01*
X0505033Y0046966D02*
Y0052965D01*
X0507033Y0050965D01*
X0509032Y0052965D01*
Y0046966D01*
X0046350D02*
Y0052965D01*
X0049349D01*
X0050349Y0051965D01*
Y0049966D01*
X0049349Y0048966D01*
X0046350D01*
X0052348Y0052965D02*
Y0046966D01*
X0056347D01*
X0061345Y0052965D02*
X0059346D01*
X0058346Y0051965D01*
Y0047966D01*
X0059346Y0046966D01*
X0061345D01*
X0062345Y0047966D01*
Y0051965D01*
X0061345Y0052965D01*
X0064344D02*
X0068343D01*
X0066343D01*
Y0046966D01*
X0076340D02*
Y0052965D01*
X0080339Y0046966D01*
Y0052965D01*
X0082338Y0046966D02*
Y0050965D01*
X0084338Y0052965D01*
X0086337Y0050965D01*
Y0046966D01*
Y0049966D01*
X0082338D01*
X0088336Y0046966D02*
Y0052965D01*
X0090336Y0050965D01*
X0092335Y0052965D01*
Y0046966D01*
X0098333Y0052965D02*
X0094335D01*
Y0046966D01*
X0098333D01*
X0094335Y0049966D02*
X0096334D01*
X0106331Y0048966D02*
X0110329D01*
X0106331Y0050965D02*
X0110329D01*
X0046350Y0073549D02*
Y0067551D01*
X0050349D01*
X0052348D02*
Y0071549D01*
X0054347Y0073549D01*
X0056347Y0071549D01*
Y0067551D01*
Y0070550D01*
X0052348D01*
X0058346Y0073549D02*
Y0072549D01*
X0060346Y0070550D01*
X0062345Y0072549D01*
Y0073549D01*
X0060346Y0070550D02*
Y0067551D01*
X0068343Y0073549D02*
X0064344D01*
Y0067551D01*
X0068343D01*
X0064344Y0070550D02*
X0066343D01*
X0070342Y0067551D02*
Y0073549D01*
X0073341D01*
X0074341Y0072549D01*
Y0070550D01*
X0073341Y0069550D01*
X0070342D01*
X0072342D02*
X0074341Y0067551D01*
X0082338D02*
Y0073549D01*
X0086337Y0067551D01*
Y0073549D01*
X0088336Y0067551D02*
Y0071549D01*
X0090336Y0073549D01*
X0092335Y0071549D01*
Y0067551D01*
Y0070550D01*
X0088336D01*
X0094335Y0067551D02*
Y0073549D01*
X0096334Y0071549D01*
X0098333Y0073549D01*
Y0067551D01*
X0104331Y0073549D02*
X0100332D01*
Y0067551D01*
X0104331D01*
X0100332Y0070550D02*
X0102332D01*
X0112329Y0069550D02*
X0116327D01*
X0112329Y0071549D02*
X0116327D01*
X0294000Y0093831D02*
Y0087833D01*
X0296999D01*
X0297999Y0088833D01*
Y0089833D01*
X0296999Y0090832D01*
X0294000D01*
X0296999D01*
X0297999Y0091832D01*
Y0092832D01*
X0296999Y0093831D01*
X0294000D01*
X0302997D02*
X0300998D01*
X0299998Y0092832D01*
Y0088833D01*
X0300998Y0087833D01*
X0302997D01*
X0303997Y0088833D01*
Y0092832D01*
X0302997Y0093831D01*
X0305996Y0087833D02*
Y0091832D01*
X0307996Y0093831D01*
X0309995Y0091832D01*
Y0087833D01*
Y0090832D01*
X0305996D01*
X0311994Y0087833D02*
Y0093831D01*
X0314993D01*
X0315993Y0092832D01*
Y0090832D01*
X0314993Y0089833D01*
X0311994D01*
X0313994D02*
X0315993Y0087833D01*
X0317992Y0093831D02*
Y0087833D01*
X0320991D01*
X0321991Y0088833D01*
Y0092832D01*
X0320991Y0093831D01*
X0317992D01*
X0330988Y0087833D02*
Y0093831D01*
X0332987D02*
Y0087833D01*
X0329988Y0091832D02*
X0332987D01*
X0333987D01*
X0329988Y0089833D02*
X0333987D01*
X0335986Y0091832D02*
X0336986D01*
Y0090832D01*
X0335986D01*
Y0091832D01*
Y0088833D02*
X0336986D01*
Y0087833D01*
X0335986D01*
Y0088833D01*
X0352549Y0092832D02*
X0351549Y0093831D01*
X0349550D01*
X0348550Y0092832D01*
Y0088833D01*
X0349550Y0087833D01*
X0351549D01*
X0352549Y0088833D01*
X0354548Y0087833D02*
Y0091832D01*
X0356547Y0093831D01*
X0358547Y0091832D01*
Y0087833D01*
Y0090832D01*
X0354548D01*
X0360546Y0087833D02*
Y0093831D01*
X0363545D01*
X0364545Y0092832D01*
Y0090832D01*
X0363545Y0089833D01*
X0360546D01*
X0366544Y0093831D02*
X0370543D01*
X0368544D01*
Y0087833D01*
X0372542Y0093831D02*
X0374542D01*
X0373542D01*
Y0087833D01*
X0372542D01*
X0374542D01*
X0377541Y0093831D02*
Y0089833D01*
X0379540Y0087833D01*
X0381539Y0089833D01*
Y0093831D01*
X0383539Y0087833D02*
Y0091832D01*
X0385538Y0093831D01*
X0387537Y0091832D01*
Y0087833D01*
Y0090832D01*
X0383539D01*
X0389537Y0093831D02*
X0393535D01*
X0391536D01*
Y0087833D01*
X0399534Y0093831D02*
X0395535D01*
Y0087833D01*
X0399534D01*
X0395535Y0090832D02*
X0397534D01*
X0401533D02*
X0405532D01*
X0407531Y0093831D02*
Y0087833D01*
X0410530D01*
X0411530Y0088833D01*
Y0089833D01*
X0410530Y0090832D01*
X0407531D01*
X0410530D01*
X0411530Y0091832D01*
Y0092832D01*
X0410530Y0093831D01*
X0407531D01*
X0417528Y0092832D02*
X0416528Y0093831D01*
X0414529D01*
X0413529Y0092832D01*
Y0091832D01*
X0414529Y0090832D01*
X0416528D01*
X0417528Y0089833D01*
Y0088833D01*
X0416528Y0087833D01*
X0414529D01*
X0413529Y0088833D01*
X0419527Y0093831D02*
Y0087833D01*
X0421526Y0089833D01*
X0423526Y0087833D01*
Y0093831D01*
X0425525Y0087833D02*
Y0093831D01*
X0428524D01*
X0429524Y0092832D01*
Y0090832D01*
X0428524Y0089833D01*
X0425525D01*
X0462150Y0093831D02*
Y0087833D01*
X0465149D01*
X0466149Y0088833D01*
Y0089833D01*
X0465149Y0090832D01*
X0462150D01*
X0465149D01*
X0466149Y0091832D01*
Y0092832D01*
X0465149Y0093831D01*
X0462150D01*
X0046350Y0087833D02*
Y0091832D01*
X0048349Y0093831D01*
X0050349Y0091832D01*
Y0087833D01*
Y0090832D01*
X0046350D01*
X0052348Y0093831D02*
Y0087833D01*
X0056347D01*
X0058346Y0093831D02*
Y0087833D01*
X0062345D01*
X0070342D02*
Y0091832D01*
X0072342Y0093831D01*
X0074341Y0091832D01*
Y0087833D01*
Y0090832D01*
X0070342D01*
X0076340Y0087833D02*
Y0093831D01*
X0079339D01*
X0080339Y0092832D01*
Y0090832D01*
X0079339Y0089833D01*
X0076340D01*
X0078340D02*
X0080339Y0087833D01*
X0082338Y0093831D02*
X0086337D01*
X0084338D01*
Y0087833D01*
X0088336Y0093831D02*
Y0087833D01*
X0090336Y0089833D01*
X0092335Y0087833D01*
Y0093831D01*
X0097334D02*
X0095334D01*
X0094335Y0092832D01*
Y0088833D01*
X0095334Y0087833D01*
X0097334D01*
X0098333Y0088833D01*
Y0092832D01*
X0097334Y0093831D01*
X0100332Y0087833D02*
Y0093831D01*
X0103332D01*
X0104331Y0092832D01*
Y0090832D01*
X0103332Y0089833D01*
X0100332D01*
X0102332D02*
X0104331Y0087833D01*
X0106331Y0093831D02*
Y0087833D01*
Y0089833D01*
X0110329Y0093831D01*
X0107330Y0090832D01*
X0110329Y0087833D01*
X0118327Y0093831D02*
Y0089833D01*
X0120326Y0087833D01*
X0122325Y0089833D01*
Y0093831D01*
X0124325D02*
X0126324D01*
X0125324D01*
Y0087833D01*
X0124325D01*
X0126324D01*
X0133322Y0093831D02*
X0129323D01*
Y0087833D01*
X0133322D01*
X0129323Y0090832D02*
X0131323D01*
X0135321Y0093831D02*
Y0087833D01*
X0137321Y0089833D01*
X0139320Y0087833D01*
Y0093831D01*
X0145318D02*
X0141319D01*
Y0087833D01*
X0145318D01*
X0141319Y0090832D02*
X0143319D01*
X0147317Y0093831D02*
Y0087833D01*
X0150316D01*
X0151316Y0088833D01*
Y0092832D01*
X0150316Y0093831D01*
X0147317D01*
X0163312D02*
X0159313D01*
Y0090832D01*
X0161313D01*
X0159313D01*
Y0087833D01*
X0165312D02*
Y0093831D01*
X0168310D01*
X0169310Y0092832D01*
Y0090832D01*
X0168310Y0089833D01*
X0165312D01*
X0167311D02*
X0169310Y0087833D01*
X0174309Y0093831D02*
X0172309D01*
X0171310Y0092832D01*
Y0088833D01*
X0172309Y0087833D01*
X0174309D01*
X0175308Y0088833D01*
Y0092832D01*
X0174309Y0093831D01*
X0177308Y0087833D02*
Y0093831D01*
X0179307Y0091832D01*
X0181306Y0093831D01*
Y0087833D01*
X0189304Y0093831D02*
X0193303D01*
X0191303D01*
Y0087833D01*
X0198301Y0093831D02*
X0196301D01*
X0195302Y0092832D01*
Y0088833D01*
X0196301Y0087833D01*
X0198301D01*
X0199301Y0088833D01*
Y0092832D01*
X0198301Y0093831D01*
X0201300Y0087833D02*
Y0093831D01*
X0204299D01*
X0205299Y0092832D01*
Y0090832D01*
X0204299Y0089833D01*
X0201300D01*
X0217295Y0092832D02*
X0216295Y0093831D01*
X0214296D01*
X0213296Y0092832D01*
Y0091832D01*
X0214296Y0090832D01*
X0216295D01*
X0217295Y0089833D01*
Y0088833D01*
X0216295Y0087833D01*
X0214296D01*
X0213296Y0088833D01*
X0219294Y0093831D02*
X0221293D01*
X0220294D01*
Y0087833D01*
X0219294D01*
X0221293D01*
X0224292Y0093831D02*
Y0087833D01*
X0227291D01*
X0228291Y0088833D01*
Y0092832D01*
X0227291Y0093831D01*
X0224292D01*
X0234289D02*
X0230291D01*
Y0087833D01*
X0234289D01*
X0230291Y0090832D02*
X0232290D01*
X0298199Y0051965D02*
X0297199Y0052965D01*
X0295200D01*
X0294200Y0051965D01*
Y0047966D01*
X0295200Y0046966D01*
X0297199D01*
X0298199Y0047966D01*
Y0049966D01*
X0296199D01*
X0304197Y0052965D02*
X0300198D01*
Y0046966D01*
X0304197D01*
X0300198Y0049966D02*
X0302197D01*
X0306196Y0046966D02*
Y0052965D01*
X0310195Y0046966D01*
Y0052965D01*
X0316193D02*
X0312194D01*
Y0046966D01*
X0316193D01*
X0312194Y0049966D02*
X0314194D01*
X0318192Y0046966D02*
Y0052965D01*
X0321191D01*
X0322191Y0051965D01*
Y0049966D01*
X0321191Y0048966D01*
X0318192D01*
X0320192D02*
X0322191Y0046966D01*
X0324190D02*
Y0050965D01*
X0326190Y0052965D01*
X0328189Y0050965D01*
Y0046966D01*
Y0049966D01*
X0324190D01*
X0330188Y0052965D02*
X0334187D01*
X0332188D01*
Y0046966D01*
X0340185Y0052965D02*
X0336186D01*
Y0046966D01*
X0340185D01*
X0336186Y0049966D02*
X0338186D01*
X0342184Y0052965D02*
Y0046966D01*
X0345183D01*
X0346183Y0047966D01*
Y0051965D01*
X0345183Y0052965D01*
X0342184D01*
X0372175Y0050965D02*
X0373175D01*
Y0049966D01*
X0372175D01*
Y0050965D01*
Y0047966D02*
X0373175D01*
Y0046966D01*
X0372175D01*
Y0047966D01*
X0381150D02*
X0382150Y0046966D01*
X0384149D01*
X0385149Y0047966D01*
Y0051965D01*
X0384149Y0052965D01*
X0382150D01*
X0381150Y0051965D01*
Y0050965D01*
X0382150Y0049966D01*
X0385149D01*
X0387148Y0046966D02*
X0391147Y0050965D01*
X0393146Y0046966D02*
X0395146D01*
X0394146D01*
Y0052965D01*
X0393146Y0051965D01*
X0398145Y0052965D02*
X0402143D01*
Y0051965D01*
X0398145Y0047966D01*
Y0046966D01*
X0404143D02*
X0408141Y0050965D01*
X0414139Y0046966D02*
X0410141D01*
X0414139Y0050965D01*
Y0051965D01*
X0413140Y0052965D01*
X0411140D01*
X0410141Y0051965D01*
X0416139D02*
X0417138Y0052965D01*
X0419138D01*
X0420137Y0051965D01*
Y0047966D01*
X0419138Y0046966D01*
X0417138D01*
X0416139Y0047966D01*
Y0051965D01*
X0422137Y0046966D02*
X0424136D01*
X0423136D01*
Y0052965D01*
X0422137Y0051965D01*
X0431134Y0052965D02*
X0427135D01*
Y0049966D01*
X0429135Y0050965D01*
X0430134D01*
X0431134Y0049966D01*
Y0047966D01*
X0430134Y0046966D01*
X0428135D01*
X0427135Y0047966D01*
X0130899Y0051965D02*
X0129899Y0052965D01*
X0127900D01*
X0126900Y0051965D01*
Y0047966D01*
X0127900Y0046966D01*
X0129899D01*
X0130899Y0047966D01*
X0132898Y0046966D02*
Y0050965D01*
X0134897Y0052965D01*
X0136897Y0050965D01*
Y0046966D01*
Y0049966D01*
X0132898D01*
X0138896Y0046966D02*
Y0052965D01*
X0141895D01*
X0142895Y0051965D01*
Y0049966D01*
X0141895Y0048966D01*
X0138896D01*
X0144894Y0052965D02*
X0148893D01*
X0146894D01*
Y0046966D01*
X0150892Y0052965D02*
X0152892D01*
X0151892D01*
Y0046966D01*
X0150892D01*
X0152892D01*
X0155891Y0052965D02*
Y0048966D01*
X0157890Y0046966D01*
X0159889Y0048966D01*
Y0052965D01*
X0161889Y0046966D02*
Y0050965D01*
X0163888Y0052965D01*
X0165887Y0050965D01*
Y0046966D01*
Y0049966D01*
X0161889D01*
X0167887Y0052965D02*
X0171885D01*
X0169886D01*
Y0046966D01*
X0177884Y0052965D02*
X0173885D01*
Y0046966D01*
X0177884D01*
X0173885Y0049966D02*
X0175884D01*
X0179883D02*
X0183882D01*
X0185881Y0052965D02*
Y0046966D01*
X0188880D01*
X0189880Y0047966D01*
Y0048966D01*
X0188880Y0049966D01*
X0185881D01*
X0188880D01*
X0189880Y0050965D01*
Y0051965D01*
X0188880Y0052965D01*
X0185881D01*
X0195878Y0051965D02*
X0194878Y0052965D01*
X0192879D01*
X0191879Y0051965D01*
Y0050965D01*
X0192879Y0049966D01*
X0194878D01*
X0195878Y0048966D01*
Y0047966D01*
X0194878Y0046966D01*
X0192879D01*
X0191879Y0047966D01*
X0197877Y0052965D02*
Y0046966D01*
X0199876Y0048966D01*
X0201876Y0046966D01*
Y0052965D01*
X0203875Y0046966D02*
Y0052965D01*
X0206874D01*
X0207874Y0051965D01*
Y0049966D01*
X0206874Y0048966D01*
X0203875D01*
X0209873Y0045967D02*
X0213872D01*
X0215871Y0046966D02*
Y0052965D01*
X0218870D01*
X0219870Y0051965D01*
Y0049966D01*
X0218870Y0048966D01*
X0215871D01*
X0217871D02*
X0219870Y0046966D01*
X0225868Y0052965D02*
X0221869D01*
Y0046966D01*
X0225868D01*
X0221869Y0049966D02*
X0223869D01*
X0227867Y0052965D02*
Y0048966D01*
X0229867Y0046966D01*
X0231866Y0048966D01*
Y0052965D01*
X0233865Y0045967D02*
X0237864D01*
X0239863Y0052965D02*
Y0046966D01*
X0242863D01*
X0243862Y0047966D01*
Y0048966D01*
X0242863Y0049966D01*
X0239863D01*
X0242863D01*
X0243862Y0050965D01*
Y0051965D01*
X0242863Y0052965D01*
X0239863D01*
X0245862Y0046966D02*
Y0047966D01*
X0246861D01*
Y0046966D01*
X0245862D01*
X0254859Y0051965D02*
X0253859Y0052965D01*
X0251860D01*
X0250860Y0051965D01*
Y0047966D01*
X0251860Y0046966D01*
X0253859D01*
X0254859Y0047966D01*
Y0049966D01*
X0252859D01*
X0256858Y0046966D02*
Y0052965D01*
X0258857Y0050965D01*
X0260857Y0052965D01*
Y0046966D01*
X0262856D02*
X0264855D01*
X0263856D01*
Y0052965D01*
X0262856Y0051965D01*
X0271853Y0046966D02*
X0267854D01*
X0271853Y0050965D01*
Y0051965D01*
X0270853Y0052965D01*
X0268854D01*
X0267854Y0051965D01*
X0433000Y0087833D02*
Y0093831D01*
X0435999D01*
X0436999Y0092832D01*
Y0090832D01*
X0435999Y0089833D01*
X0433000D01*
X0434999D02*
X0436999Y0087833D01*
X0442997Y0093831D02*
X0438998D01*
Y0087833D01*
X0442997D01*
X0438998Y0090832D02*
X0440997D01*
X0444996Y0093831D02*
Y0089833D01*
X0446995Y0087833D01*
X0448995Y0089833D01*
Y0093831D01*
X0450994Y0091832D02*
X0451994D01*
Y0090832D01*
X0450994D01*
Y0091832D01*
Y0088833D02*
X0451994D01*
Y0087833D01*
X0450994D01*
Y0088833D01*
X0520799Y0092832D02*
X0519799Y0093831D01*
X0517800D01*
X0516800Y0092832D01*
Y0091832D01*
X0517800Y0090832D01*
X0519799D01*
X0520799Y0089833D01*
Y0088833D01*
X0519799Y0087833D01*
X0517800D01*
X0516800Y0088833D01*
X0522798Y0093831D02*
Y0089833D01*
X0524797Y0087833D01*
X0526797Y0089833D01*
Y0093831D01*
X0528796Y0087833D02*
Y0093831D01*
X0532795Y0087833D01*
Y0093831D01*
X0540792Y0087833D02*
Y0093831D01*
X0543791D01*
X0544791Y0092832D01*
Y0090832D01*
X0543791Y0089833D01*
X0540792D01*
X0542792D02*
X0544791Y0087833D01*
X0550789Y0093831D02*
X0546790D01*
Y0087833D01*
X0550789D01*
X0546790Y0090832D02*
X0548790D01*
X0552788Y0093831D02*
Y0089833D01*
X0554788Y0087833D01*
X0556787Y0089833D01*
Y0093831D01*
X0558786Y0091832D02*
X0559786D01*
Y0090832D01*
X0558786D01*
Y0091832D01*
Y0088833D02*
X0559786D01*
Y0087833D01*
X0558786D01*
Y0088833D01*
X0567400Y0087833D02*
Y0093831D01*
X0571399Y0087833D01*
Y0093831D01*
X0574398Y0087833D02*
X0576397D01*
X0577397Y0088833D01*
Y0090832D01*
X0576397Y0091832D01*
X0574398D01*
X0573398Y0090832D01*
Y0088833D01*
X0574398Y0087833D01*
X0580396Y0092832D02*
Y0091832D01*
X0579396D01*
X0581395D01*
X0580396D01*
Y0088833D01*
X0581395Y0087833D01*
X0590393Y0093831D02*
X0592392D01*
X0591392D01*
Y0087833D01*
X0590393D01*
X0592392D01*
X0595391D02*
Y0091832D01*
X0598390D01*
X0599390Y0090832D01*
Y0087833D01*
X0607387Y0093831D02*
Y0089833D01*
X0609386Y0087833D01*
X0611386Y0089833D01*
Y0093831D01*
X0616384Y0087833D02*
X0614385D01*
X0613385Y0088833D01*
Y0090832D01*
X0614385Y0091832D01*
X0616384D01*
X0617384Y0090832D01*
Y0089833D01*
X0613385D01*
X0619383Y0091832D02*
Y0087833D01*
Y0089833D01*
X0620383Y0090832D01*
X0621383Y0091832D01*
X0622382D01*
X0625381Y0087833D02*
X0628380D01*
X0629380Y0088833D01*
X0628380Y0089833D01*
X0626381D01*
X0625381Y0090832D01*
X0626381Y0091832D01*
X0629380D01*
X0631379Y0087833D02*
X0633379D01*
X0632379D01*
Y0091832D01*
X0631379D01*
X0637377Y0087833D02*
X0639377D01*
X0640376Y0088833D01*
Y0090832D01*
X0639377Y0091832D01*
X0637377D01*
X0636378Y0090832D01*
Y0088833D01*
X0637377Y0087833D01*
X0642376D02*
Y0091832D01*
X0645375D01*
X0646374Y0090832D01*
Y0087833D01*
X0652373Y0092832D02*
X0651373Y0093831D01*
X0649373D01*
X0648374Y0092832D01*
Y0088833D01*
X0649373Y0087833D01*
X0651373D01*
X0652373Y0088833D01*
X0655372Y0087833D02*
X0657371D01*
X0658371Y0088833D01*
Y0090832D01*
X0657371Y0091832D01*
X0655372D01*
X0654372Y0090832D01*
Y0088833D01*
X0655372Y0087833D01*
X0660370D02*
Y0091832D01*
X0663369D01*
X0664369Y0090832D01*
Y0087833D01*
X0667368Y0092832D02*
Y0091832D01*
X0666368D01*
X0668367D01*
X0667368D01*
Y0088833D01*
X0668367Y0087833D01*
X0671366Y0091832D02*
Y0087833D01*
Y0089833D01*
X0672366Y0090832D01*
X0673366Y0091832D01*
X0674365D01*
X0678364Y0087833D02*
X0680364D01*
X0681363Y0088833D01*
Y0090832D01*
X0680364Y0091832D01*
X0678364D01*
X0677364Y0090832D01*
Y0088833D01*
X0678364Y0087833D01*
X0683362D02*
X0685362D01*
X0684362D01*
Y0093831D01*
X0683362D01*
G54D16*
X1230750Y0937848D02*
X1232749D01*
X1231750D01*
Y0931850D01*
X1230750D01*
X1232749D01*
X1236748D02*
Y0936848D01*
Y0934849D01*
X1235748D01*
X1237748D01*
X1236748D01*
Y0936848D01*
X1237748Y0937848D01*
X1246745Y0935849D02*
Y0932850D01*
X1247744Y0931850D01*
X1250743D01*
Y0930850D01*
X1249744Y0929851D01*
X1248744D01*
X1250743Y0931850D02*
Y0935849D01*
X1253743Y0931850D02*
X1255742D01*
X1256742Y0932850D01*
Y0934849D01*
X1255742Y0935849D01*
X1253743D01*
X1252743Y0934849D01*
Y0932850D01*
X1253743Y0931850D01*
X1258741Y0935849D02*
Y0932850D01*
X1259741Y0931850D01*
X1262740D01*
Y0935849D01*
X1274736D02*
X1271737D01*
X1270737Y0934849D01*
Y0932850D01*
X1271737Y0931850D01*
X1274736D01*
X1276735Y0937848D02*
Y0931850D01*
Y0934849D01*
X1277735Y0935849D01*
X1279734D01*
X1280734Y0934849D01*
Y0931850D01*
X1283733Y0935849D02*
X1285732D01*
X1286732Y0934849D01*
Y0931850D01*
X1283733D01*
X1282733Y0932850D01*
X1283733Y0933849D01*
X1286732D01*
X1288731Y0931850D02*
Y0935849D01*
X1291730D01*
X1292730Y0934849D01*
Y0931850D01*
X1296729Y0929851D02*
X1297728D01*
X1298728Y0930850D01*
Y0935849D01*
X1295729D01*
X1294729Y0934849D01*
Y0932850D01*
X1295729Y0931850D01*
X1298728D01*
X1303726D02*
X1301727D01*
X1300727Y0932850D01*
Y0934849D01*
X1301727Y0935849D01*
X1303726D01*
X1304726Y0934849D01*
Y0933849D01*
X1300727D01*
X1313723Y0936848D02*
Y0935849D01*
X1312724D01*
X1314723D01*
X1313723D01*
Y0932850D01*
X1314723Y0931850D01*
X1317722Y0937848D02*
Y0931850D01*
Y0934849D01*
X1318721Y0935849D01*
X1320721D01*
X1321721Y0934849D01*
Y0931850D01*
X1326719D02*
X1324720D01*
X1323720Y0932850D01*
Y0934849D01*
X1324720Y0935849D01*
X1326719D01*
X1327719Y0934849D01*
Y0933849D01*
X1323720D01*
X1335716Y0931850D02*
X1338715D01*
X1339715Y0932850D01*
X1338715Y0933849D01*
X1336716D01*
X1335716Y0934849D01*
X1336716Y0935849D01*
X1339715D01*
X1342714Y0936848D02*
Y0935849D01*
X1341714D01*
X1343713D01*
X1342714D01*
Y0932850D01*
X1343713Y0931850D01*
X1347712Y0935849D02*
X1349712D01*
X1350711Y0934849D01*
Y0931850D01*
X1347712D01*
X1346712Y0932850D01*
X1347712Y0933849D01*
X1350711D01*
X1356709Y0935849D02*
X1353710D01*
X1352711Y0934849D01*
Y0932850D01*
X1353710Y0931850D01*
X1356709D01*
X1358709D02*
Y0937848D01*
Y0933849D02*
X1361708Y0935849D01*
X1358709Y0933849D02*
X1361708Y0931850D01*
X1364707Y0935849D02*
Y0932850D01*
X1365706Y0931850D01*
X1368705D01*
Y0935849D01*
X1370705Y0929851D02*
Y0935849D01*
X1373704D01*
X1374703Y0934849D01*
Y0932850D01*
X1373704Y0931850D01*
X1370705D01*
X1377703Y0930850D02*
X1378702Y0931850D01*
Y0932850D01*
X1377703D01*
Y0931850D01*
X1378702D01*
X1377703Y0930850D01*
X1376703Y0929851D01*
X1388699Y0935849D02*
Y0932850D01*
X1389699Y0931850D01*
X1392698D01*
Y0935849D01*
X1394697Y0929851D02*
Y0935849D01*
X1397696D01*
X1398696Y0934849D01*
Y0932850D01*
X1397696Y0931850D01*
X1394697D01*
X1404694Y0937848D02*
Y0931850D01*
X1401695D01*
X1400695Y0932850D01*
Y0934849D01*
X1401695Y0935849D01*
X1404694D01*
X1407693D02*
X1409692D01*
X1410692Y0934849D01*
Y0931850D01*
X1407693D01*
X1406693Y0932850D01*
X1407693Y0933849D01*
X1410692D01*
X1413691Y0936848D02*
Y0935849D01*
X1412691D01*
X1414690D01*
X1413691D01*
Y0932850D01*
X1414690Y0931850D01*
X1420689D02*
X1418689D01*
X1417690Y0932850D01*
Y0934849D01*
X1418689Y0935849D01*
X1420689D01*
X1421688Y0934849D01*
Y0933849D01*
X1417690D01*
X1430685Y0936848D02*
Y0935849D01*
X1429686D01*
X1431685D01*
X1430685D01*
Y0932850D01*
X1431685Y0931850D01*
X1434684Y0937848D02*
Y0931850D01*
Y0934849D01*
X1435684Y0935849D01*
X1437683D01*
X1438683Y0934849D01*
Y0931850D01*
X1443681D02*
X1441682D01*
X1440682Y0932850D01*
Y0934849D01*
X1441682Y0935849D01*
X1443681D01*
X1444681Y0934849D01*
Y0933849D01*
X1440682D01*
X1452678Y0937848D02*
Y0931850D01*
X1456677D01*
X1461675D02*
X1459676D01*
X1458676Y0932850D01*
Y0934849D01*
X1459676Y0935849D01*
X1461675D01*
X1462675Y0934849D01*
Y0933849D01*
X1458676D01*
X1466674Y0929851D02*
X1467673D01*
X1468673Y0930850D01*
Y0935849D01*
X1465674D01*
X1464674Y0934849D01*
Y0932850D01*
X1465674Y0931850D01*
X1468673D01*
X1473671D02*
X1471672D01*
X1470672Y0932850D01*
Y0934849D01*
X1471672Y0935849D01*
X1473671D01*
X1474671Y0934849D01*
Y0933849D01*
X1470672D01*
X1476670Y0931850D02*
Y0935849D01*
X1479669D01*
X1480669Y0934849D01*
Y0931850D01*
X1486667Y0937848D02*
Y0931850D01*
X1483668D01*
X1482668Y0932850D01*
Y0934849D01*
X1483668Y0935849D01*
X1486667D01*
X1488667Y0931850D02*
Y0932850D01*
X1489666D01*
Y0931850D01*
X1488667D01*
X1229750Y0946848D02*
X1233749D01*
X1231749D01*
Y0940850D01*
X1235748Y0946848D02*
Y0940850D01*
Y0943849D01*
X1236748Y0944849D01*
X1238747D01*
X1239747Y0943849D01*
Y0940850D01*
X1244745D02*
X1242746D01*
X1241746Y0941850D01*
Y0943849D01*
X1242746Y0944849D01*
X1244745D01*
X1245745Y0943849D01*
Y0942849D01*
X1241746D01*
X1257741Y0945848D02*
X1256741Y0946848D01*
X1254742D01*
X1253742Y0945848D01*
Y0944849D01*
X1254742Y0943849D01*
X1256741D01*
X1257741Y0942849D01*
Y0941850D01*
X1256741Y0940850D01*
X1254742D01*
X1253742Y0941850D01*
X1260740Y0945848D02*
Y0944849D01*
X1259740D01*
X1261740D01*
X1260740D01*
Y0941850D01*
X1261740Y0940850D01*
X1265738Y0944849D02*
X1267738D01*
X1268737Y0943849D01*
Y0940850D01*
X1265738D01*
X1264739Y0941850D01*
X1265738Y0942849D01*
X1268737D01*
X1274735Y0944849D02*
X1271736D01*
X1270737Y0943849D01*
Y0941850D01*
X1271736Y0940850D01*
X1274735D01*
X1276735D02*
Y0946848D01*
Y0942849D02*
X1279734Y0944849D01*
X1276735Y0942849D02*
X1279734Y0940850D01*
X1282733Y0944849D02*
Y0941850D01*
X1283733Y0940850D01*
X1286732D01*
Y0944849D01*
X1288731Y0938851D02*
Y0944849D01*
X1291730D01*
X1292730Y0943849D01*
Y0941850D01*
X1291730Y0940850D01*
X1288731D01*
X1300727Y0946848D02*
Y0940850D01*
X1304726D01*
X1309724D02*
X1307725D01*
X1306725Y0941850D01*
Y0943849D01*
X1307725Y0944849D01*
X1309724D01*
X1310724Y0943849D01*
Y0942849D01*
X1306725D01*
X1314723Y0938851D02*
X1315722D01*
X1316722Y0939850D01*
Y0944849D01*
X1313723D01*
X1312723Y0943849D01*
Y0941850D01*
X1313723Y0940850D01*
X1316722D01*
X1321720D02*
X1319721D01*
X1318721Y0941850D01*
Y0943849D01*
X1319721Y0944849D01*
X1321720D01*
X1322720Y0943849D01*
Y0942849D01*
X1318721D01*
X1324719Y0940850D02*
Y0944849D01*
X1327718D01*
X1328718Y0943849D01*
Y0940850D01*
X1334716Y0946848D02*
Y0940850D01*
X1331717D01*
X1330717Y0941850D01*
Y0943849D01*
X1331717Y0944849D01*
X1334716D01*
X1342714Y0946848D02*
Y0940850D01*
X1345712D01*
X1346712Y0941850D01*
Y0942849D01*
Y0943849D01*
X1345712Y0944849D01*
X1342714D01*
X1351711Y0940850D02*
X1349711D01*
X1348711Y0941850D01*
Y0943849D01*
X1349711Y0944849D01*
X1351711D01*
X1352710Y0943849D01*
Y0942849D01*
X1348711D01*
X1354710Y0940850D02*
X1356709D01*
X1355709D01*
Y0946848D01*
X1354710D01*
X1360708Y0940850D02*
X1362707D01*
X1363707Y0941850D01*
Y0943849D01*
X1362707Y0944849D01*
X1360708D01*
X1359708Y0943849D01*
Y0941850D01*
X1360708Y0940850D01*
X1365706Y0944849D02*
Y0941850D01*
X1366706Y0940850D01*
X1367705Y0941850D01*
X1368705Y0940850D01*
X1369705Y0941850D01*
Y0944849D01*
X1378702Y0945848D02*
Y0944849D01*
X1377702D01*
X1379702D01*
X1378702D01*
Y0941850D01*
X1379702Y0940850D01*
X1382701Y0946848D02*
Y0940850D01*
Y0943849D01*
X1383700Y0944849D01*
X1385700D01*
X1386699Y0943849D01*
Y0940850D01*
X1388699D02*
X1390698D01*
X1389698D01*
Y0944849D01*
X1388699D01*
X1393697Y0940850D02*
X1396696D01*
X1397696Y0941850D01*
X1396696Y0942849D01*
X1394697D01*
X1393697Y0943849D01*
X1394697Y0944849D01*
X1397696D01*
X1405693Y0940850D02*
X1407692D01*
X1406693D01*
Y0944849D01*
X1405693D01*
X1410692Y0940850D02*
X1413690D01*
X1414690Y0941850D01*
X1413690Y0942849D01*
X1411691D01*
X1410692Y0943849D01*
X1411691Y0944849D01*
X1414690D01*
X1422688Y0940850D02*
X1425687D01*
X1426686Y0941850D01*
X1425687Y0942849D01*
X1423687D01*
X1422688Y0943849D01*
X1423687Y0944849D01*
X1426686D01*
X1429685Y0945848D02*
Y0944849D01*
X1428686D01*
X1430685D01*
X1429685D01*
Y0941850D01*
X1430685Y0940850D01*
X1434684Y0944849D02*
X1436683D01*
X1437683Y0943849D01*
Y0940850D01*
X1434684D01*
X1433684Y0941850D01*
X1434684Y0942849D01*
X1437683D01*
X1440682Y0945848D02*
Y0944849D01*
X1439682D01*
X1441681D01*
X1440682D01*
Y0941850D01*
X1441681Y0940850D01*
X1444681D02*
X1446680D01*
X1445680D01*
Y0944849D01*
X1444681D01*
X1453677D02*
X1450679D01*
X1449679Y0943849D01*
Y0941850D01*
X1450679Y0940850D01*
X1453677D01*
X1455677D02*
Y0941850D01*
X1456677D01*
Y0940850D01*
X1455677D01*
X1205200Y0918808D02*
Y0913110D01*
X1208999D01*
X1211848Y0916909D02*
X1213747D01*
X1214697Y0915959D01*
Y0913110D01*
X1211848D01*
X1210898Y0914060D01*
X1211848Y0915009D01*
X1214697D01*
X1216596Y0916909D02*
Y0914060D01*
X1217546Y0913110D01*
X1220395D01*
Y0912160D01*
X1219445Y0911211D01*
X1218496D01*
X1220395Y0913110D02*
Y0916909D01*
X1225144Y0913110D02*
X1223244D01*
X1222295Y0914060D01*
Y0915959D01*
X1223244Y0916909D01*
X1225144D01*
X1226093Y0915959D01*
Y0915009D01*
X1222295D01*
X1227993Y0916909D02*
Y0913110D01*
Y0915009D01*
X1228942Y0915959D01*
X1229892Y0916909D01*
X1230842D01*
X1243188Y0917859D02*
X1242238Y0918808D01*
X1240339D01*
X1239389Y0917859D01*
Y0916909D01*
X1240339Y0915959D01*
X1242238D01*
X1243188Y0915009D01*
Y0914060D01*
X1242238Y0913110D01*
X1240339D01*
X1239389Y0914060D01*
X1246037Y0917859D02*
Y0916909D01*
X1245087D01*
X1246986D01*
X1246037D01*
Y0914060D01*
X1246986Y0913110D01*
X1250785Y0916909D02*
X1252685D01*
X1253634Y0915959D01*
Y0913110D01*
X1250785D01*
X1249836Y0914060D01*
X1250785Y0915009D01*
X1253634D01*
X1259332Y0916909D02*
X1256483D01*
X1255534Y0915959D01*
Y0914060D01*
X1256483Y0913110D01*
X1259332D01*
X1261232D02*
Y0918808D01*
Y0915009D02*
X1264081Y0916909D01*
X1261232Y0915009D02*
X1264081Y0913110D01*
X1272628Y0918808D02*
Y0914060D01*
X1273578Y0913110D01*
X1275477D01*
X1276427Y0914060D01*
Y0918808D01*
X1278326Y0911211D02*
Y0916909D01*
X1281176D01*
X1282125Y0915959D01*
Y0914060D01*
X1281176Y0913110D01*
X1278326D01*
X1289723Y0918808D02*
Y0913110D01*
X1292572D01*
X1293521Y0914060D01*
Y0917859D01*
X1292572Y0918808D01*
X1289723D01*
X1298270Y0913110D02*
X1296371D01*
X1295421Y0914060D01*
Y0915959D01*
X1296371Y0916909D01*
X1298270D01*
X1299220Y0915959D01*
Y0915009D01*
X1295421D01*
X1302069Y0917859D02*
Y0916909D01*
X1301119D01*
X1303018D01*
X1302069D01*
Y0914060D01*
X1303018Y0913110D01*
X1306817Y0916909D02*
X1308717D01*
X1309666Y0915959D01*
Y0913110D01*
X1306817D01*
X1305867Y0914060D01*
X1306817Y0915009D01*
X1309666D01*
X1311566Y0913110D02*
X1313465D01*
X1312515D01*
Y0916909D01*
X1311566D01*
X1316314Y0913110D02*
X1318213D01*
X1317264D01*
Y0918808D01*
X1316314D01*
X1327710Y0913110D02*
Y0917859D01*
Y0915959D01*
X1326761D01*
X1328660D01*
X1327710D01*
Y0917859D01*
X1328660Y0918808D01*
X1332459Y0913110D02*
X1334358D01*
X1335308Y0914060D01*
Y0915959D01*
X1334358Y0916909D01*
X1332459D01*
X1331509Y0915959D01*
Y0914060D01*
X1332459Y0913110D01*
X1337207Y0916909D02*
Y0913110D01*
Y0915009D01*
X1338157Y0915959D01*
X1339107Y0916909D01*
X1340056D01*
X1342906D02*
X1343855D01*
Y0915959D01*
X1342906D01*
Y0916909D01*
Y0914060D02*
X1343855D01*
Y0913110D01*
X1342906D01*
Y0914060D01*
X1353352Y0913110D02*
Y0918808D01*
X1356201D01*
X1357151Y0917859D01*
Y0915959D01*
X1356201Y0915009D01*
X1353352D01*
X1355252D02*
X1357151Y0913110D01*
X1361899D02*
X1360000D01*
X1359050Y0914060D01*
Y0915959D01*
X1360000Y0916909D01*
X1361899D01*
X1362849Y0915959D01*
Y0915009D01*
X1359050D01*
X1365698Y0913110D02*
Y0917859D01*
Y0915959D01*
X1364748D01*
X1366648D01*
X1365698D01*
Y0917859D01*
X1366648Y0918808D01*
X1369497Y0912160D02*
X1373296D01*
X1375195Y0918808D02*
Y0913110D01*
X1378044D01*
X1378994Y0914060D01*
Y0917859D01*
X1378044Y0918808D01*
X1375195D01*
X1383742Y0913110D02*
X1381843D01*
X1380893Y0914060D01*
Y0915959D01*
X1381843Y0916909D01*
X1383742D01*
X1384692Y0915959D01*
Y0915009D01*
X1380893D01*
X1386591Y0913110D02*
X1389441D01*
X1390390Y0914060D01*
X1389441Y0915009D01*
X1387541D01*
X1386591Y0915959D01*
X1387541Y0916909D01*
X1390390D01*
X1392290Y0913110D02*
X1394189D01*
X1393239D01*
Y0916909D01*
X1392290D01*
X1398937Y0911211D02*
X1399887D01*
X1400837Y0912160D01*
Y0916909D01*
X1397988D01*
X1397038Y0915959D01*
Y0914060D01*
X1397988Y0913110D01*
X1400837D01*
X1402736D02*
Y0916909D01*
X1405585D01*
X1406535Y0915959D01*
Y0913110D01*
X1408434D02*
Y0914060D01*
X1409384D01*
Y0913110D01*
X1408434D01*
X1413183D02*
Y0918808D01*
X1416032D01*
X1416982Y0917859D01*
Y0915959D01*
X1416032Y0915009D01*
X1413183D01*
X1422680Y0916909D02*
X1419831D01*
X1418881Y0915959D01*
Y0914060D01*
X1419831Y0913110D01*
X1422680D01*
X1424579Y0918808D02*
Y0913110D01*
X1427428D01*
X1428378Y0914060D01*
Y0915009D01*
Y0915959D01*
X1427428Y0916909D01*
X1424579D01*
X1430277Y0918808D02*
Y0913110D01*
X1433126D01*
X1434076Y0914060D01*
Y0917859D01*
X1433126Y0918808D01*
X1430277D01*
X1436925Y0913110D02*
X1438824D01*
X1439774Y0914060D01*
Y0915959D01*
X1438824Y0916909D01*
X1436925D01*
X1435975Y0915959D01*
Y0914060D01*
X1436925Y0913110D01*
X1445472Y0916909D02*
X1442623D01*
X1441674Y0915959D01*
Y0914060D01*
X1442623Y0913110D01*
X1445472D01*
X0559400Y0039400D02*
Y0059683D01*
X0440500Y0040050D02*
X0700200D01*
Y0101050D01*
X0286500Y0040050D02*
Y0101050D01*
X0040000Y0040050D02*
Y0101050D01*
X0040050Y0040050D02*
X0197600D01*
X0040050D02*
Y0101050D01*
Y0101050D02*
X0700200D01*
X0040000Y0040050D02*
X0440500D01*
X0040000Y0060383D02*
X0700000D01*
X0040000Y0080717D02*
X0700200D01*
X0413200D02*
Y0101050D01*
X0497200Y0080717D02*
Y0101050D01*
G54D33*
X1205200Y0908339D02*
Y0905940D01*
X1206800D01*
X1207999Y0907539D02*
X1208799D01*
X1209199Y0907140D01*
Y0905940D01*
X1207999D01*
X1207599Y0906340D01*
X1207999Y0906740D01*
X1209199D01*
X1209998Y0907539D02*
Y0906340D01*
X1210398Y0905940D01*
X1211598D01*
Y0905540D01*
X1211198Y0905140D01*
X1210798D01*
X1211598Y0905940D02*
Y0907539D01*
X1213597Y0905940D02*
X1212798D01*
X1212398Y0906340D01*
Y0907140D01*
X1212798Y0907539D01*
X1213597D01*
X1213997Y0907140D01*
Y0906740D01*
X1212398D01*
X1214797Y0907539D02*
Y0905940D01*
Y0906740D01*
X1215197Y0907140D01*
X1215597Y0907539D01*
X1215996D01*
X1296381Y0907939D02*
X1295981Y0908339D01*
X1295181D01*
X1294781Y0907939D01*
Y0906340D01*
X1295181Y0905940D01*
X1295981D01*
X1296381Y0906340D01*
Y0907140D01*
X1295581D01*
X1298380Y0905940D02*
X1297580D01*
X1297180Y0906340D01*
Y0907140D01*
X1297580Y0907539D01*
X1298380D01*
X1298780Y0907140D01*
Y0906740D01*
X1297180D01*
X1299580Y0907539D02*
Y0905940D01*
Y0906740D01*
X1299980Y0907140D01*
X1300379Y0907539D01*
X1300779D01*
X1301979Y0908339D02*
Y0905940D01*
X1303179D01*
X1303578Y0906340D01*
Y0906740D01*
Y0907140D01*
X1303179Y0907539D01*
X1301979D01*
X1305578Y0905940D02*
X1304778D01*
X1304378Y0906340D01*
Y0907140D01*
X1304778Y0907539D01*
X1305578D01*
X1305978Y0907140D01*
Y0906740D01*
X1304378D01*
X1306777Y0907539D02*
Y0905940D01*
Y0906740D01*
X1307177Y0907140D01*
X1307577Y0907539D01*
X1307977D01*
X1352733Y0907939D02*
X1352333Y0908339D01*
X1351533D01*
X1351133Y0907939D01*
Y0906340D01*
X1351533Y0905940D01*
X1352333D01*
X1352733Y0906340D01*
X1353932Y0905940D02*
X1354732D01*
X1355132Y0906340D01*
Y0907140D01*
X1354732Y0907539D01*
X1353932D01*
X1353533Y0907140D01*
Y0906340D01*
X1353932Y0905940D01*
X1355932Y0905140D02*
Y0907539D01*
X1357131D01*
X1357531Y0907140D01*
Y0906340D01*
X1357131Y0905940D01*
X1355932D01*
X1358331Y0905140D02*
Y0907539D01*
X1359531D01*
X1359930Y0907140D01*
Y0906340D01*
X1359531Y0905940D01*
X1358331D01*
X1361930D02*
X1361130D01*
X1360730Y0906340D01*
Y0907140D01*
X1361130Y0907539D01*
X1361930D01*
X1362330Y0907140D01*
Y0906740D01*
X1360730D01*
X1363129Y0907539D02*
Y0905940D01*
Y0906740D01*
X1363529Y0907140D01*
X1363929Y0907539D01*
X1364329D01*
X1411404Y0908339D02*
Y0905940D01*
X1412604D01*
X1413004Y0906340D01*
Y0907939D01*
X1412604Y0908339D01*
X1411404D01*
X1413803Y0905940D02*
X1414603D01*
X1414203D01*
Y0907539D01*
X1413803D01*
X1417002Y0905940D02*
X1416203D01*
X1415803Y0906340D01*
Y0907140D01*
X1416203Y0907539D01*
X1417002D01*
X1417402Y0907140D01*
Y0906740D01*
X1415803D01*
X1418202Y0905940D02*
X1419001D01*
X1418602D01*
Y0908339D01*
X1418202D01*
X1421401Y0905940D02*
X1420601D01*
X1420201Y0906340D01*
Y0907140D01*
X1420601Y0907539D01*
X1421401D01*
X1421801Y0907140D01*
Y0906740D01*
X1420201D01*
X1424200Y0907539D02*
X1423000D01*
X1422600Y0907140D01*
Y0906340D01*
X1423000Y0905940D01*
X1424200D01*
X1425399Y0907939D02*
Y0907539D01*
X1425000D01*
X1425799D01*
X1425399D01*
Y0906340D01*
X1425799Y0905940D01*
X1426999Y0907539D02*
Y0905940D01*
Y0906740D01*
X1427399Y0907140D01*
X1427799Y0907539D01*
X1428199D01*
X1429398Y0905940D02*
X1430198D01*
X1429798D01*
Y0907539D01*
X1429398D01*
X1432997D02*
X1431797D01*
X1431398Y0907140D01*
Y0906340D01*
X1431797Y0905940D01*
X1432997D01*
X1205200Y0901140D02*
Y0903539D01*
X1206800Y0901140D01*
Y0903539D01*
X1207999Y0902740D02*
X1208799D01*
X1209199Y0902340D01*
Y0901140D01*
X1207999D01*
X1207599Y0901540D01*
X1207999Y0901940D01*
X1209199D01*
X1209998Y0901140D02*
Y0902740D01*
X1210398D01*
X1210798Y0902340D01*
Y0901140D01*
Y0902340D01*
X1211198Y0902740D01*
X1211598Y0902340D01*
Y0901140D01*
X1213597D02*
X1212798D01*
X1212398Y0901540D01*
Y0902340D01*
X1212798Y0902740D01*
X1213597D01*
X1213997Y0902340D01*
Y0901940D01*
X1212398D01*
X1294781Y0903539D02*
Y0901140D01*
X1295981D01*
X1296381Y0901540D01*
Y0903139D01*
X1295981Y0903539D01*
X1294781D01*
X1297580Y0901140D02*
X1298380D01*
X1298780Y0901540D01*
Y0902340D01*
X1298380Y0902740D01*
X1297580D01*
X1297180Y0902340D01*
Y0901540D01*
X1297580Y0901140D01*
X1301179Y0902740D02*
X1299980D01*
X1299580Y0902340D01*
Y0901540D01*
X1299980Y0901140D01*
X1301179D01*
X1301979Y0902740D02*
Y0901540D01*
X1302379Y0901140D01*
X1303578D01*
Y0902740D01*
X1304378Y0901140D02*
Y0902740D01*
X1304778D01*
X1305178Y0902340D01*
Y0901140D01*
Y0902340D01*
X1305578Y0902740D01*
X1305978Y0902340D01*
Y0901140D01*
X1307977D02*
X1307177D01*
X1306777Y0901540D01*
Y0902340D01*
X1307177Y0902740D01*
X1307977D01*
X1308377Y0902340D01*
Y0901940D01*
X1306777D01*
X1309177Y0901140D02*
Y0902740D01*
X1310376D01*
X1310776Y0902340D01*
Y0901140D01*
X1311976Y0903139D02*
Y0902740D01*
X1311576D01*
X1312376D01*
X1311976D01*
Y0901540D01*
X1312376Y0901140D01*
X1351133Y0903539D02*
X1352733D01*
X1351933D01*
Y0901140D01*
X1353533Y0903539D02*
Y0901140D01*
Y0902340D01*
X1353932Y0902740D01*
X1354732D01*
X1355132Y0902340D01*
Y0901140D01*
X1355932D02*
X1356732D01*
X1356332D01*
Y0902740D01*
X1355932D01*
X1359531D02*
X1358331D01*
X1357931Y0902340D01*
Y0901540D01*
X1358331Y0901140D01*
X1359531D01*
X1360330D02*
Y0903539D01*
Y0901940D02*
X1361530Y0902740D01*
X1360330Y0901940D02*
X1361530Y0901140D01*
X1362729D02*
Y0902740D01*
X1363929D01*
X1364329Y0902340D01*
Y0901140D01*
X1366328D02*
X1365529D01*
X1365129Y0901540D01*
Y0902340D01*
X1365529Y0902740D01*
X1366328D01*
X1366728Y0902340D01*
Y0901940D01*
X1365129D01*
X1367528Y0901140D02*
X1368728D01*
X1369127Y0901540D01*
X1368728Y0901940D01*
X1367928D01*
X1367528Y0902340D01*
X1367928Y0902740D01*
X1369127D01*
X1369927Y0901140D02*
X1371127D01*
X1371527Y0901540D01*
X1371127Y0901940D01*
X1370327D01*
X1369927Y0902340D01*
X1370327Y0902740D01*
X1371527D01*
X1411404Y0901140D02*
Y0903539D01*
X1412204Y0902740D01*
X1413004Y0903539D01*
Y0901140D01*
X1414203Y0902740D02*
X1415003D01*
X1415403Y0902340D01*
Y0901140D01*
X1414203D01*
X1413803Y0901540D01*
X1414203Y0901940D01*
X1415403D01*
X1416602Y0903139D02*
Y0902740D01*
X1416203D01*
X1417002D01*
X1416602D01*
Y0901540D01*
X1417002Y0901140D01*
X1419401D02*
X1418602D01*
X1418202Y0901540D01*
Y0902340D01*
X1418602Y0902740D01*
X1419401D01*
X1419801Y0902340D01*
Y0901940D01*
X1418202D01*
X1420601Y0902740D02*
Y0901140D01*
Y0901940D01*
X1421001Y0902340D01*
X1421401Y0902740D01*
X1421801D01*
X1423000Y0901140D02*
X1423800D01*
X1423400D01*
Y0902740D01*
X1423000D01*
X1425399D02*
X1426199D01*
X1426599Y0902340D01*
Y0901140D01*
X1425399D01*
X1425000Y0901540D01*
X1425399Y0901940D01*
X1426599D01*
X1427399Y0901140D02*
X1428199D01*
X1427799D01*
Y0903539D01*
X1427399D01*
M02*
