M48
;Layer_Color=9474304
;FILE_FORMAT=2:5
INCH
;TYPE=PLATED
T1F00S00C0.02800
T2F00S00C0.03937
T3F00S00C0.11024
%
T01
X0607700Y0311900
X0365200
X0132700
Y0409400
X0607700
Y0506900
X0452700Y0491900
X0405200
X0365200Y0506900
X0287700Y0491900
X0132700Y0506900
T02
X0315200Y0558534
Y0568534
X0325200
X0335200
Y0558534
X0325200
X0345200
Y0568534
X0355200
X0365200
Y0558534
X0355200
X0375200
Y0568534
X0385200
X0395200
Y0558534
X0385200
X0405200
Y0568534
Y0578534
X0415200
Y0568534
Y0558534
X0425200
X0435200
X0445200
Y0568534
X0435200
X0425200
Y0578534
X0435200
X0445200
X0395200
X0385200
X0375200
X0365200
X0355200
X0345200
X0335200
X0325200
X0315200
X0305200
Y0568534
Y0558534
X0295200
Y0568534
Y0578534
T03
X0465200Y0588534
X0275200
M30
