G04 Layer_Color=8388736*
%FSAX25Y25*%
%MOIN*%
G70*
G01*
G75*
%ADD55C,0.01000*%
%ADD57C,0.00800*%
%ADD58C,0.06496*%
%ADD71C,0.02362*%
%ADD94R,0.01575X0.00709*%
G04:AMPARAMS|DCode=96|XSize=7.87mil|YSize=21.65mil|CornerRadius=1.99mil|HoleSize=0mil|Usage=FLASHONLY|Rotation=0.000|XOffset=0mil|YOffset=0mil|HoleType=Round|Shape=RoundedRectangle|*
%AMROUNDEDRECTD96*
21,1,0.00787,0.01768,0,0,0.0*
21,1,0.00390,0.02165,0,0,0.0*
1,1,0.00398,0.00195,-0.00884*
1,1,0.00398,-0.00195,-0.00884*
1,1,0.00398,-0.00195,0.00884*
1,1,0.00398,0.00195,0.00884*
%
%ADD96ROUNDEDRECTD96*%
G04:AMPARAMS|DCode=97|XSize=47.24mil|YSize=78.74mil|CornerRadius=3.92mil|HoleSize=0mil|Usage=FLASHONLY|Rotation=90.000|XOffset=0mil|YOffset=0mil|HoleType=Round|Shape=RoundedRectangle|*
%AMROUNDEDRECTD97*
21,1,0.04724,0.07091,0,0,90.0*
21,1,0.03941,0.07874,0,0,90.0*
1,1,0.00784,0.03545,0.01971*
1,1,0.00784,0.03545,-0.01971*
1,1,0.00784,-0.03545,-0.01971*
1,1,0.00784,-0.03545,0.01971*
%
%ADD97ROUNDEDRECTD97*%
%ADD98R,0.03543X0.03543*%
%ADD99C,0.03494*%
G04:AMPARAMS|DCode=100|XSize=39.37mil|YSize=55.12mil|CornerRadius=3.92mil|HoleSize=0mil|Usage=FLASHONLY|Rotation=0.000|XOffset=0mil|YOffset=0mil|HoleType=Round|Shape=RoundedRectangle|*
%AMROUNDEDRECTD100*
21,1,0.03937,0.04728,0,0,0.0*
21,1,0.03154,0.05512,0,0,0.0*
1,1,0.00784,0.01577,-0.02364*
1,1,0.00784,-0.01577,-0.02364*
1,1,0.00784,-0.01577,0.02364*
1,1,0.00784,0.01577,0.02364*
%
%ADD100ROUNDEDRECTD100*%
G04:AMPARAMS|DCode=101|XSize=61.02mil|YSize=43.31mil|CornerRadius=3.94mil|HoleSize=0mil|Usage=FLASHONLY|Rotation=0.000|XOffset=0mil|YOffset=0mil|HoleType=Round|Shape=RoundedRectangle|*
%AMROUNDEDRECTD101*
21,1,0.06102,0.03543,0,0,0.0*
21,1,0.05315,0.04331,0,0,0.0*
1,1,0.00787,0.02658,-0.01772*
1,1,0.00787,-0.02658,-0.01772*
1,1,0.00787,-0.02658,0.01772*
1,1,0.00787,0.02658,0.01772*
%
%ADD101ROUNDEDRECTD101*%
G04:AMPARAMS|DCode=102|XSize=22.44mil|YSize=27.56mil|CornerRadius=3.91mil|HoleSize=0mil|Usage=FLASHONLY|Rotation=0.000|XOffset=0mil|YOffset=0mil|HoleType=Round|Shape=RoundedRectangle|*
%AMROUNDEDRECTD102*
21,1,0.02244,0.01974,0,0,0.0*
21,1,0.01462,0.02756,0,0,0.0*
1,1,0.00782,0.00731,-0.00987*
1,1,0.00782,-0.00731,-0.00987*
1,1,0.00782,-0.00731,0.00987*
1,1,0.00782,0.00731,0.00987*
%
%ADD102ROUNDEDRECTD102*%
G04:AMPARAMS|DCode=103|XSize=27.56mil|YSize=43.31mil|CornerRadius=7.87mil|HoleSize=0mil|Usage=FLASHONLY|Rotation=90.000|XOffset=0mil|YOffset=0mil|HoleType=Round|Shape=RoundedRectangle|*
%AMROUNDEDRECTD103*
21,1,0.02756,0.02756,0,0,90.0*
21,1,0.01181,0.04331,0,0,90.0*
1,1,0.01575,0.01378,0.00591*
1,1,0.01575,0.01378,-0.00591*
1,1,0.01575,-0.01378,-0.00591*
1,1,0.01575,-0.01378,0.00591*
%
%ADD103ROUNDEDRECTD103*%
%ADD104R,0.05197X0.03996*%
%ADD105R,0.11024X0.11024*%
%ADD106O,0.01575X0.02756*%
%ADD107O,0.02756X0.01575*%
G04:AMPARAMS|DCode=108|XSize=14.96mil|YSize=29.13mil|CornerRadius=4.74mil|HoleSize=0mil|Usage=FLASHONLY|Rotation=270.000|XOffset=0mil|YOffset=0mil|HoleType=Round|Shape=RoundedRectangle|*
%AMROUNDEDRECTD108*
21,1,0.01496,0.01965,0,0,270.0*
21,1,0.00548,0.02913,0,0,270.0*
1,1,0.00948,-0.00983,-0.00274*
1,1,0.00948,-0.00983,0.00274*
1,1,0.00948,0.00983,0.00274*
1,1,0.00948,0.00983,-0.00274*
%
%ADD108ROUNDEDRECTD108*%
G04:AMPARAMS|DCode=109|XSize=14.96mil|YSize=29.13mil|CornerRadius=4.74mil|HoleSize=0mil|Usage=FLASHONLY|Rotation=180.000|XOffset=0mil|YOffset=0mil|HoleType=Round|Shape=RoundedRectangle|*
%AMROUNDEDRECTD109*
21,1,0.01496,0.01965,0,0,180.0*
21,1,0.00548,0.02913,0,0,180.0*
1,1,0.00948,-0.00274,0.00983*
1,1,0.00948,0.00274,0.00983*
1,1,0.00948,0.00274,-0.00983*
1,1,0.00948,-0.00274,-0.00983*
%
%ADD109ROUNDEDRECTD109*%
G04:AMPARAMS|DCode=110|XSize=171.26mil|YSize=171.26mil|CornerRadius=3.64mil|HoleSize=0mil|Usage=FLASHONLY|Rotation=0.000|XOffset=0mil|YOffset=0mil|HoleType=Round|Shape=RoundedRectangle|*
%AMROUNDEDRECTD110*
21,1,0.17126,0.16398,0,0,0.0*
21,1,0.16398,0.17126,0,0,0.0*
1,1,0.00728,0.08199,-0.08199*
1,1,0.00728,-0.08199,-0.08199*
1,1,0.00728,-0.08199,0.08199*
1,1,0.00728,0.08199,0.08199*
%
%ADD110ROUNDEDRECTD110*%
G04:AMPARAMS|DCode=111|XSize=106.36mil|YSize=19.75mil|CornerRadius=0mil|HoleSize=0mil|Usage=FLASHONLY|Rotation=315.000|XOffset=0mil|YOffset=0mil|HoleType=Round|Shape=Rectangle|*
%AMROTATEDRECTD111*
4,1,4,-0.04459,0.03062,-0.03062,0.04459,0.04459,-0.03062,0.03062,-0.04459,-0.04459,0.03062,0.0*
%
%ADD111ROTATEDRECTD111*%

G04:AMPARAMS|DCode=112|XSize=21.65mil|YSize=58.27mil|CornerRadius=3.92mil|HoleSize=0mil|Usage=FLASHONLY|Rotation=0.000|XOffset=0mil|YOffset=0mil|HoleType=Round|Shape=RoundedRectangle|*
%AMROUNDEDRECTD112*
21,1,0.02165,0.05043,0,0,0.0*
21,1,0.01382,0.05827,0,0,0.0*
1,1,0.00784,0.00691,-0.02522*
1,1,0.00784,-0.00691,-0.02522*
1,1,0.00784,-0.00691,0.02522*
1,1,0.00784,0.00691,0.02522*
%
%ADD112ROUNDEDRECTD112*%
G04:AMPARAMS|DCode=113|XSize=58.07mil|YSize=78.74mil|CornerRadius=3.86mil|HoleSize=0mil|Usage=FLASHONLY|Rotation=0.000|XOffset=0mil|YOffset=0mil|HoleType=Round|Shape=RoundedRectangle|*
%AMROUNDEDRECTD113*
21,1,0.05807,0.07101,0,0,0.0*
21,1,0.05034,0.07874,0,0,0.0*
1,1,0.00773,0.02517,-0.03551*
1,1,0.00773,-0.02517,-0.03551*
1,1,0.00773,-0.02517,0.03551*
1,1,0.00773,0.02517,0.03551*
%
%ADD113ROUNDEDRECTD113*%
G04:AMPARAMS|DCode=114|XSize=62.01mil|YSize=86.61mil|CornerRadius=4mil|HoleSize=0mil|Usage=FLASHONLY|Rotation=0.000|XOffset=0mil|YOffset=0mil|HoleType=Round|Shape=RoundedRectangle|*
%AMROUNDEDRECTD114*
21,1,0.06201,0.07861,0,0,0.0*
21,1,0.05401,0.08661,0,0,0.0*
1,1,0.00800,0.02700,-0.03931*
1,1,0.00800,-0.02700,-0.03931*
1,1,0.00800,-0.02700,0.03931*
1,1,0.00800,0.02700,0.03931*
%
%ADD114ROUNDEDRECTD114*%
%ADD115C,0.07874*%
G04:AMPARAMS|DCode=116|XSize=15.75mil|YSize=21.65mil|CornerRadius=3.92mil|HoleSize=0mil|Usage=FLASHONLY|Rotation=0.000|XOffset=0mil|YOffset=0mil|HoleType=Round|Shape=RoundedRectangle|*
%AMROUNDEDRECTD116*
21,1,0.01575,0.01382,0,0,0.0*
21,1,0.00791,0.02165,0,0,0.0*
1,1,0.00784,0.00396,-0.00691*
1,1,0.00784,-0.00396,-0.00691*
1,1,0.00784,-0.00396,0.00691*
1,1,0.00784,0.00396,0.00691*
%
%ADD116ROUNDEDRECTD116*%
G04:AMPARAMS|DCode=117|XSize=43.31mil|YSize=66.93mil|CornerRadius=3.94mil|HoleSize=0mil|Usage=FLASHONLY|Rotation=270.000|XOffset=0mil|YOffset=0mil|HoleType=Round|Shape=RoundedRectangle|*
%AMROUNDEDRECTD117*
21,1,0.04331,0.05906,0,0,270.0*
21,1,0.03543,0.06693,0,0,270.0*
1,1,0.00787,-0.02953,-0.01772*
1,1,0.00787,-0.02953,0.01772*
1,1,0.00787,0.02953,0.01772*
1,1,0.00787,0.02953,-0.01772*
%
%ADD117ROUNDEDRECTD117*%
%ADD118R,0.02362X0.01575*%
G04:AMPARAMS|DCode=119|XSize=11.81mil|YSize=25.59mil|CornerRadius=3.94mil|HoleSize=0mil|Usage=FLASHONLY|Rotation=0.000|XOffset=0mil|YOffset=0mil|HoleType=Round|Shape=RoundedRectangle|*
%AMROUNDEDRECTD119*
21,1,0.01181,0.01772,0,0,0.0*
21,1,0.00394,0.02559,0,0,0.0*
1,1,0.00787,0.00197,-0.00886*
1,1,0.00787,-0.00197,-0.00886*
1,1,0.00787,-0.00197,0.00886*
1,1,0.00787,0.00197,0.00886*
%
%ADD119ROUNDEDRECTD119*%
G04:AMPARAMS|DCode=120|XSize=39.37mil|YSize=102.36mil|CornerRadius=3.92mil|HoleSize=0mil|Usage=FLASHONLY|Rotation=270.000|XOffset=0mil|YOffset=0mil|HoleType=Round|Shape=RoundedRectangle|*
%AMROUNDEDRECTD120*
21,1,0.03937,0.09453,0,0,270.0*
21,1,0.03154,0.10236,0,0,270.0*
1,1,0.00784,-0.04726,-0.01577*
1,1,0.00784,-0.04726,0.01577*
1,1,0.00784,0.04726,0.01577*
1,1,0.00784,0.04726,-0.01577*
%
%ADD120ROUNDEDRECTD120*%
G04:AMPARAMS|DCode=121|XSize=19.69mil|YSize=37.4mil|CornerRadius=3.94mil|HoleSize=0mil|Usage=FLASHONLY|Rotation=270.000|XOffset=0mil|YOffset=0mil|HoleType=Round|Shape=RoundedRectangle|*
%AMROUNDEDRECTD121*
21,1,0.01969,0.02953,0,0,270.0*
21,1,0.01181,0.03740,0,0,270.0*
1,1,0.00787,-0.01476,-0.00591*
1,1,0.00787,-0.01476,0.00591*
1,1,0.00787,0.01476,0.00591*
1,1,0.00787,0.01476,-0.00591*
%
%ADD121ROUNDEDRECTD121*%
%ADD122R,0.08268X0.02756*%
G04:AMPARAMS|DCode=123|XSize=74.8mil|YSize=59.06mil|CornerRadius=3.9mil|HoleSize=0mil|Usage=FLASHONLY|Rotation=180.000|XOffset=0mil|YOffset=0mil|HoleType=Round|Shape=RoundedRectangle|*
%AMROUNDEDRECTD123*
21,1,0.07480,0.05126,0,0,180.0*
21,1,0.06701,0.05906,0,0,180.0*
1,1,0.00780,-0.03350,0.02563*
1,1,0.00780,0.03350,0.02563*
1,1,0.00780,0.03350,-0.02563*
1,1,0.00780,-0.03350,-0.02563*
%
%ADD123ROUNDEDRECTD123*%
%ADD124R,0.02559X0.01969*%
%ADD125R,0.03150X0.02362*%
%ADD126R,0.07677X0.05512*%
%ADD127R,0.06694X0.05394*%
%ADD128R,0.04331X0.04134*%
%ADD129R,0.03543X0.02756*%
%ADD130R,0.02756X0.03543*%
G04:AMPARAMS|DCode=131|XSize=74.8mil|YSize=59.06mil|CornerRadius=3.9mil|HoleSize=0mil|Usage=FLASHONLY|Rotation=90.000|XOffset=0mil|YOffset=0mil|HoleType=Round|Shape=RoundedRectangle|*
%AMROUNDEDRECTD131*
21,1,0.07480,0.05126,0,0,90.0*
21,1,0.06701,0.05906,0,0,90.0*
1,1,0.00780,0.02563,0.03350*
1,1,0.00780,0.02563,-0.03350*
1,1,0.00780,-0.02563,-0.03350*
1,1,0.00780,-0.02563,0.03350*
%
%ADD131ROUNDEDRECTD131*%
%ADD132R,0.04134X0.04331*%
G04:AMPARAMS|DCode=133|XSize=22.44mil|YSize=27.56mil|CornerRadius=3.91mil|HoleSize=0mil|Usage=FLASHONLY|Rotation=90.000|XOffset=0mil|YOffset=0mil|HoleType=Round|Shape=RoundedRectangle|*
%AMROUNDEDRECTD133*
21,1,0.02244,0.01974,0,0,90.0*
21,1,0.01462,0.02756,0,0,90.0*
1,1,0.00782,0.00987,0.00731*
1,1,0.00782,0.00987,-0.00731*
1,1,0.00782,-0.00987,-0.00731*
1,1,0.00782,-0.00987,0.00731*
%
%ADD133ROUNDEDRECTD133*%
%ADD134R,0.05512X0.07677*%
G04:AMPARAMS|DCode=135|XSize=39.37mil|YSize=55.12mil|CornerRadius=3.92mil|HoleSize=0mil|Usage=FLASHONLY|Rotation=90.000|XOffset=0mil|YOffset=0mil|HoleType=Round|Shape=RoundedRectangle|*
%AMROUNDEDRECTD135*
21,1,0.03937,0.04728,0,0,90.0*
21,1,0.03154,0.05512,0,0,90.0*
1,1,0.00784,0.02364,0.01577*
1,1,0.00784,0.02364,-0.01577*
1,1,0.00784,-0.02364,-0.01577*
1,1,0.00784,-0.02364,0.01577*
%
%ADD135ROUNDEDRECTD135*%
G04:AMPARAMS|DCode=136|XSize=61.02mil|YSize=43.31mil|CornerRadius=3.94mil|HoleSize=0mil|Usage=FLASHONLY|Rotation=90.000|XOffset=0mil|YOffset=0mil|HoleType=Round|Shape=RoundedRectangle|*
%AMROUNDEDRECTD136*
21,1,0.06102,0.03543,0,0,90.0*
21,1,0.05315,0.04331,0,0,90.0*
1,1,0.00787,0.01772,0.02658*
1,1,0.00787,0.01772,-0.02658*
1,1,0.00787,-0.01772,-0.02658*
1,1,0.00787,-0.01772,0.02658*
%
%ADD136ROUNDEDRECTD136*%
%ADD137C,0.06890*%
%ADD138R,0.06890X0.06890*%
G04:AMPARAMS|DCode=139|XSize=68.9mil|YSize=68.9mil|CornerRadius=3.92mil|HoleSize=0mil|Usage=FLASHONLY|Rotation=90.000|XOffset=0mil|YOffset=0mil|HoleType=Round|Shape=RoundedRectangle|*
%AMROUNDEDRECTD139*
21,1,0.06890,0.06106,0,0,90.0*
21,1,0.06106,0.06890,0,0,90.0*
1,1,0.00784,0.03053,0.03053*
1,1,0.00784,0.03053,-0.03053*
1,1,0.00784,-0.03053,-0.03053*
1,1,0.00784,-0.03053,0.03053*
%
%ADD139ROUNDEDRECTD139*%
%ADD140C,0.04294*%
%ADD141R,0.06890X0.06890*%
%ADD142C,0.15000*%
G04:AMPARAMS|DCode=143|XSize=86.61mil|YSize=59.06mil|CornerRadius=29.53mil|HoleSize=0mil|Usage=FLASHONLY|Rotation=270.000|XOffset=0mil|YOffset=0mil|HoleType=Round|Shape=RoundedRectangle|*
%AMROUNDEDRECTD143*
21,1,0.08661,0.00000,0,0,270.0*
21,1,0.02756,0.05906,0,0,270.0*
1,1,0.05906,0.00000,-0.01378*
1,1,0.05906,0.00000,0.01378*
1,1,0.05906,0.00000,0.01378*
1,1,0.05906,0.00000,-0.01378*
%
%ADD143ROUNDEDRECTD143*%
%ADD144C,0.05709*%
%ADD145R,0.05709X0.05709*%
%ADD146C,0.12611*%
G04:AMPARAMS|DCode=147|XSize=64.96mil|YSize=64.96mil|CornerRadius=3.8mil|HoleSize=0mil|Usage=FLASHONLY|Rotation=270.000|XOffset=0mil|YOffset=0mil|HoleType=Round|Shape=RoundedRectangle|*
%AMROUNDEDRECTD147*
21,1,0.06496,0.05736,0,0,270.0*
21,1,0.05736,0.06496,0,0,270.0*
1,1,0.00760,-0.02868,-0.02868*
1,1,0.00760,-0.02868,0.02868*
1,1,0.00760,0.02868,0.02868*
1,1,0.00760,0.02868,-0.02868*
%
%ADD147ROUNDEDRECTD147*%
%ADD148C,0.02756*%
G36*
X0345745Y0519565D02*
X0345782Y0519554D01*
X0345816Y0519536D01*
X0345846Y0519511D01*
X0347238Y0518119D01*
X0347263Y0518089D01*
X0347281Y0518055D01*
X0347292Y0518018D01*
X0347296Y0517980D01*
X0347292Y0517941D01*
X0347281Y0517904D01*
X0347263Y0517870D01*
X0347238Y0517840D01*
X0345011Y0515613D01*
X0345011Y0515613D01*
X0344981Y0515588D01*
X0344947Y0515570D01*
X0344935Y0515566D01*
X0344910Y0515558D01*
X0344871Y0515555D01*
X0344832Y0515558D01*
X0344795Y0515570D01*
X0344761Y0515588D01*
X0344731Y0515613D01*
X0343339Y0517005D01*
X0343315Y0517035D01*
X0343296Y0517069D01*
X0343285Y0517106D01*
X0343281Y0517144D01*
X0343285Y0517183D01*
X0343296Y0517220D01*
X0343315Y0517254D01*
X0343339Y0517284D01*
X0345566Y0519511D01*
X0345566Y0519511D01*
X0345596Y0519536D01*
X0345631Y0519554D01*
X0345642Y0519558D01*
X0345668Y0519565D01*
X0345706Y0519569D01*
X0345745Y0519565D01*
D02*
G37*
G36*
X0355906Y0517756D02*
X0355943Y0517745D01*
X0355977Y0517727D01*
X0356007Y0517702D01*
X0357399Y0516310D01*
X0357424Y0516280D01*
X0357442Y0516246D01*
X0357453Y0516209D01*
X0357457Y0516170D01*
X0357453Y0516131D01*
X0357446Y0516106D01*
X0357442Y0516094D01*
X0357424Y0516060D01*
X0357399Y0516030D01*
X0357399Y0516030D01*
X0355172Y0513803D01*
X0355142Y0513778D01*
X0355108Y0513760D01*
X0355071Y0513749D01*
X0355032Y0513745D01*
X0354994Y0513749D01*
X0354957Y0513760D01*
X0354922Y0513778D01*
X0354892Y0513803D01*
X0353501Y0515195D01*
X0353476Y0515225D01*
X0353458Y0515259D01*
X0353446Y0515296D01*
X0353443Y0515335D01*
X0353446Y0515374D01*
X0353454Y0515399D01*
X0353458Y0515411D01*
X0353476Y0515445D01*
X0353501Y0515475D01*
X0353501Y0515475D01*
X0355728Y0517702D01*
X0355757Y0517727D01*
X0355792Y0517745D01*
X0355829Y0517756D01*
X0355867Y0517760D01*
X0355906Y0517756D01*
D02*
G37*
G36*
X0351730Y0513580D02*
X0351767Y0513569D01*
X0351801Y0513551D01*
X0351832Y0513526D01*
X0353223Y0512134D01*
X0353248Y0512104D01*
X0353266Y0512070D01*
X0353278Y0512033D01*
X0353281Y0511994D01*
X0353278Y0511956D01*
X0353266Y0511919D01*
X0353248Y0511884D01*
X0353223Y0511854D01*
X0350996Y0509627D01*
X0350966Y0509603D01*
X0350932Y0509584D01*
X0350895Y0509573D01*
X0350856Y0509569D01*
X0350818Y0509573D01*
X0350781Y0509584D01*
X0350746Y0509603D01*
X0350717Y0509627D01*
X0349325Y0511019D01*
X0349300Y0511049D01*
X0349282Y0511083D01*
X0349271Y0511121D01*
X0349267Y0511159D01*
X0349271Y0511198D01*
X0349282Y0511235D01*
X0349300Y0511269D01*
X0349325Y0511299D01*
X0351552Y0513526D01*
X0351582Y0513551D01*
X0351616Y0513569D01*
X0351653Y0513580D01*
X0351692Y0513584D01*
X0351730Y0513580D01*
D02*
G37*
G36*
X0354097Y0527917D02*
X0354134Y0527906D01*
X0354168Y0527888D01*
X0354198Y0527863D01*
X0355590Y0526471D01*
X0355614Y0526441D01*
X0355633Y0526407D01*
X0355644Y0526370D01*
X0355648Y0526331D01*
X0355644Y0526293D01*
X0355633Y0526256D01*
X0355614Y0526221D01*
X0355590Y0526191D01*
X0353363Y0523964D01*
X0353363Y0523964D01*
X0353333Y0523940D01*
X0353298Y0523921D01*
X0353287Y0523918D01*
X0353261Y0523910D01*
X0353223Y0523906D01*
X0353184Y0523910D01*
X0353147Y0523921D01*
X0353113Y0523940D01*
X0353083Y0523964D01*
X0351691Y0525356D01*
X0351666Y0525386D01*
X0351648Y0525420D01*
X0351637Y0525457D01*
X0351633Y0525496D01*
X0351637Y0525535D01*
X0351648Y0525572D01*
X0351666Y0525606D01*
X0351691Y0525636D01*
X0353918Y0527863D01*
X0353918Y0527863D01*
X0353948Y0527888D01*
X0353982Y0527906D01*
X0353994Y0527909D01*
X0354019Y0527917D01*
X0354058Y0527921D01*
X0354097Y0527917D01*
D02*
G37*
G36*
X0349921Y0523741D02*
X0349958Y0523730D01*
X0349992Y0523712D01*
X0350022Y0523687D01*
X0351414Y0522295D01*
X0351438Y0522265D01*
X0351457Y0522231D01*
X0351468Y0522194D01*
X0351472Y0522155D01*
X0351468Y0522117D01*
X0351457Y0522080D01*
X0351438Y0522046D01*
X0351414Y0522016D01*
X0349187Y0519789D01*
X0349157Y0519764D01*
X0349123Y0519746D01*
X0349085Y0519734D01*
X0349047Y0519731D01*
X0349008Y0519734D01*
X0348971Y0519746D01*
X0348937Y0519764D01*
X0348907Y0519789D01*
X0347515Y0521180D01*
X0347491Y0521210D01*
X0347472Y0521245D01*
X0347461Y0521282D01*
X0347457Y0521320D01*
X0347461Y0521359D01*
X0347472Y0521396D01*
X0347491Y0521430D01*
X0347515Y0521460D01*
X0349742Y0523687D01*
X0349772Y0523712D01*
X0349806Y0523730D01*
X0349844Y0523741D01*
X0349882Y0523745D01*
X0349921Y0523741D01*
D02*
G37*
G36*
X0360082Y0521932D02*
X0360119Y0521921D01*
X0360153Y0521902D01*
X0360183Y0521878D01*
X0361575Y0520486D01*
X0361600Y0520456D01*
X0361618Y0520422D01*
X0361629Y0520385D01*
X0361633Y0520346D01*
X0361629Y0520307D01*
X0361618Y0520270D01*
X0361600Y0520236D01*
X0361575Y0520206D01*
X0359348Y0517979D01*
X0359318Y0517954D01*
X0359284Y0517936D01*
X0359247Y0517925D01*
X0359208Y0517921D01*
X0359170Y0517925D01*
X0359132Y0517936D01*
X0359098Y0517954D01*
X0359068Y0517979D01*
X0357676Y0519371D01*
X0357652Y0519401D01*
X0357633Y0519435D01*
X0357622Y0519472D01*
X0357618Y0519511D01*
X0357622Y0519549D01*
X0357633Y0519586D01*
X0357652Y0519621D01*
X0357676Y0519651D01*
X0359903Y0521878D01*
X0359933Y0521902D01*
X0359968Y0521921D01*
X0360005Y0521932D01*
X0360043Y0521936D01*
X0360082Y0521932D01*
D02*
G37*
G54D55*
X0497200Y0080717D02*
Y0101050D01*
X0413200Y0080717D02*
Y0101050D01*
X0040000Y0080717D02*
X0700200D01*
X0040000Y0060383D02*
X0700000D01*
X0040000Y0040050D02*
X0440500D01*
X0040050Y0101050D02*
X0700200D01*
X0040050Y0040050D02*
Y0101050D01*
Y0040050D02*
X0197600D01*
X0040000D02*
Y0101050D01*
X0286500Y0040050D02*
Y0101050D01*
X0700200Y0040050D02*
Y0101050D01*
X0440500Y0040050D02*
X0700200D01*
X0559400Y0039400D02*
Y0059683D01*
G54D57*
X0126900Y0073549D02*
X0130899D01*
X0128899D01*
Y0067551D01*
X0133898D02*
X0135897D01*
X0136897Y0068550D01*
Y0070550D01*
X0135897Y0071549D01*
X0133898D01*
X0132898Y0070550D01*
Y0068550D01*
X0133898Y0067551D01*
X0138896Y0065551D02*
Y0071549D01*
X0141895D01*
X0142895Y0070550D01*
Y0068550D01*
X0141895Y0067551D01*
X0138896D01*
X0154891Y0072549D02*
X0153891Y0073549D01*
X0151892D01*
X0150892Y0072549D01*
Y0071549D01*
X0151892Y0070550D01*
X0153891D01*
X0154891Y0069550D01*
Y0068550D01*
X0153891Y0067551D01*
X0151892D01*
X0150892Y0068550D01*
X0157890Y0067551D02*
X0159889D01*
X0160889Y0068550D01*
Y0070550D01*
X0159889Y0071549D01*
X0157890D01*
X0156890Y0070550D01*
Y0068550D01*
X0157890Y0067551D01*
X0162888D02*
X0164888D01*
X0163888D01*
Y0073549D01*
X0162888D01*
X0171885D02*
Y0067551D01*
X0168886D01*
X0167887Y0068550D01*
Y0070550D01*
X0168886Y0071549D01*
X0171885D01*
X0176884Y0067551D02*
X0174884D01*
X0173885Y0068550D01*
Y0070550D01*
X0174884Y0071549D01*
X0176884D01*
X0177884Y0070550D01*
Y0069550D01*
X0173885D01*
X0179883Y0071549D02*
Y0067551D01*
Y0069550D01*
X0180883Y0070550D01*
X0181882Y0071549D01*
X0182882D01*
X0126900Y0073549D02*
X0130899D01*
X0128899D01*
Y0067551D01*
X0133898D02*
X0135897D01*
X0136897Y0068550D01*
Y0070550D01*
X0135897Y0071549D01*
X0133898D01*
X0132898Y0070550D01*
Y0068550D01*
X0133898Y0067551D01*
X0138896Y0065551D02*
Y0071549D01*
X0141895D01*
X0142895Y0070550D01*
Y0068550D01*
X0141895Y0067551D01*
X0138896D01*
X0154891Y0072549D02*
X0153891Y0073549D01*
X0151892D01*
X0150892Y0072549D01*
Y0071549D01*
X0151892Y0070550D01*
X0153891D01*
X0154891Y0069550D01*
Y0068550D01*
X0153891Y0067551D01*
X0151892D01*
X0150892Y0068550D01*
X0157890Y0067551D02*
X0159889D01*
X0160889Y0068550D01*
Y0070550D01*
X0159889Y0071549D01*
X0157890D01*
X0156890Y0070550D01*
Y0068550D01*
X0157890Y0067551D01*
X0162888D02*
X0164888D01*
X0163888D01*
Y0073549D01*
X0162888D01*
X0171885D02*
Y0067551D01*
X0168886D01*
X0167887Y0068550D01*
Y0070550D01*
X0168886Y0071549D01*
X0171885D01*
X0176884Y0067551D02*
X0174884D01*
X0173885Y0068550D01*
Y0070550D01*
X0174884Y0071549D01*
X0176884D01*
X0177884Y0070550D01*
Y0069550D01*
X0173885D01*
X0179883Y0071549D02*
Y0067551D01*
Y0069550D01*
X0180883Y0070550D01*
X0181882Y0071549D01*
X0182882D01*
X0567400Y0087833D02*
Y0093831D01*
X0571399Y0087833D01*
Y0093831D01*
X0574398Y0087833D02*
X0576397D01*
X0577397Y0088833D01*
Y0090832D01*
X0576397Y0091832D01*
X0574398D01*
X0573398Y0090832D01*
Y0088833D01*
X0574398Y0087833D01*
X0580396Y0092832D02*
Y0091832D01*
X0579396D01*
X0581395D01*
X0580396D01*
Y0088833D01*
X0581395Y0087833D01*
X0590393Y0093831D02*
X0592392D01*
X0591392D01*
Y0087833D01*
X0590393D01*
X0592392D01*
X0595391D02*
Y0091832D01*
X0598390D01*
X0599390Y0090832D01*
Y0087833D01*
X0607387Y0093831D02*
Y0089833D01*
X0609386Y0087833D01*
X0611386Y0089833D01*
Y0093831D01*
X0616384Y0087833D02*
X0614385D01*
X0613385Y0088833D01*
Y0090832D01*
X0614385Y0091832D01*
X0616384D01*
X0617384Y0090832D01*
Y0089833D01*
X0613385D01*
X0619383Y0091832D02*
Y0087833D01*
Y0089833D01*
X0620383Y0090832D01*
X0621383Y0091832D01*
X0622382D01*
X0625381Y0087833D02*
X0628380D01*
X0629380Y0088833D01*
X0628380Y0089833D01*
X0626381D01*
X0625381Y0090832D01*
X0626381Y0091832D01*
X0629380D01*
X0631379Y0087833D02*
X0633379D01*
X0632379D01*
Y0091832D01*
X0631379D01*
X0637377Y0087833D02*
X0639377D01*
X0640376Y0088833D01*
Y0090832D01*
X0639377Y0091832D01*
X0637377D01*
X0636378Y0090832D01*
Y0088833D01*
X0637377Y0087833D01*
X0642376D02*
Y0091832D01*
X0645375D01*
X0646374Y0090832D01*
Y0087833D01*
X0652373Y0092832D02*
X0651373Y0093831D01*
X0649373D01*
X0648374Y0092832D01*
Y0088833D01*
X0649373Y0087833D01*
X0651373D01*
X0652373Y0088833D01*
X0655372Y0087833D02*
X0657371D01*
X0658371Y0088833D01*
Y0090832D01*
X0657371Y0091832D01*
X0655372D01*
X0654372Y0090832D01*
Y0088833D01*
X0655372Y0087833D01*
X0660370D02*
Y0091832D01*
X0663369D01*
X0664369Y0090832D01*
Y0087833D01*
X0667368Y0092832D02*
Y0091832D01*
X0666368D01*
X0668367D01*
X0667368D01*
Y0088833D01*
X0668367Y0087833D01*
X0671366Y0091832D02*
Y0087833D01*
Y0089833D01*
X0672366Y0090832D01*
X0673366Y0091832D01*
X0674365D01*
X0678364Y0087833D02*
X0680364D01*
X0681363Y0088833D01*
Y0090832D01*
X0680364Y0091832D01*
X0678364D01*
X0677364Y0090832D01*
Y0088833D01*
X0678364Y0087833D01*
X0683362D02*
X0685362D01*
X0684362D01*
Y0093831D01*
X0683362D01*
X0520799Y0092832D02*
X0519799Y0093831D01*
X0517800D01*
X0516800Y0092832D01*
Y0091832D01*
X0517800Y0090832D01*
X0519799D01*
X0520799Y0089833D01*
Y0088833D01*
X0519799Y0087833D01*
X0517800D01*
X0516800Y0088833D01*
X0522798Y0093831D02*
Y0089833D01*
X0524797Y0087833D01*
X0526797Y0089833D01*
Y0093831D01*
X0528796Y0087833D02*
Y0093831D01*
X0532795Y0087833D01*
Y0093831D01*
X0540792Y0087833D02*
Y0093831D01*
X0543791D01*
X0544791Y0092832D01*
Y0090832D01*
X0543791Y0089833D01*
X0540792D01*
X0542792D02*
X0544791Y0087833D01*
X0550789Y0093831D02*
X0546790D01*
Y0087833D01*
X0550789D01*
X0546790Y0090832D02*
X0548790D01*
X0552788Y0093831D02*
Y0089833D01*
X0554788Y0087833D01*
X0556787Y0089833D01*
Y0093831D01*
X0558786Y0091832D02*
X0559786D01*
Y0090832D01*
X0558786D01*
Y0091832D01*
Y0088833D02*
X0559786D01*
Y0087833D01*
X0558786D01*
Y0088833D01*
X0433000Y0087833D02*
Y0093831D01*
X0435999D01*
X0436999Y0092832D01*
Y0090832D01*
X0435999Y0089833D01*
X0433000D01*
X0434999D02*
X0436999Y0087833D01*
X0442997Y0093831D02*
X0438998D01*
Y0087833D01*
X0442997D01*
X0438998Y0090832D02*
X0440997D01*
X0444996Y0093831D02*
Y0089833D01*
X0446995Y0087833D01*
X0448995Y0089833D01*
Y0093831D01*
X0450994Y0091832D02*
X0451994D01*
Y0090832D01*
X0450994D01*
Y0091832D01*
Y0088833D02*
X0451994D01*
Y0087833D01*
X0450994D01*
Y0088833D01*
X0126900Y0046966D02*
Y0052965D01*
X0128899Y0050965D01*
X0130899Y0052965D01*
Y0046966D01*
X0136897Y0051965D02*
X0135897Y0052965D01*
X0133898D01*
X0132898Y0051965D01*
Y0050965D01*
X0133898Y0049966D01*
X0135897D01*
X0136897Y0048966D01*
Y0047966D01*
X0135897Y0046966D01*
X0133898D01*
X0132898Y0047966D01*
X0138896Y0046966D02*
Y0052965D01*
X0141895D01*
X0142895Y0051965D01*
Y0049966D01*
X0141895Y0048966D01*
X0138896D01*
X0144894Y0049966D02*
X0148893D01*
X0154891Y0052965D02*
X0150892D01*
Y0046966D01*
X0154891D01*
X0150892Y0049966D02*
X0152892D01*
X0156890Y0052965D02*
X0160889Y0046966D01*
Y0052965D02*
X0156890Y0046966D01*
X0162888D02*
Y0052965D01*
X0165887D01*
X0166887Y0051965D01*
Y0049966D01*
X0165887Y0048966D01*
X0162888D01*
X0171885Y0046966D02*
Y0052965D01*
X0168886Y0049966D01*
X0172885D01*
X0174884Y0051965D02*
X0175884Y0052965D01*
X0177884D01*
X0178883Y0051965D01*
Y0050965D01*
X0177884Y0049966D01*
X0176884D01*
X0177884D01*
X0178883Y0048966D01*
Y0047966D01*
X0177884Y0046966D01*
X0175884D01*
X0174884Y0047966D01*
X0180883Y0051965D02*
X0181882Y0052965D01*
X0183882D01*
X0184881Y0051965D01*
Y0047966D01*
X0183882Y0046966D01*
X0181882D01*
X0180883Y0047966D01*
Y0051965D01*
X0190879D02*
X0189880Y0052965D01*
X0187880D01*
X0186881Y0051965D01*
Y0047966D01*
X0187880Y0046966D01*
X0189880D01*
X0190879Y0047966D01*
Y0049966D01*
X0188880D01*
X0196877Y0046966D02*
X0192879D01*
X0196877Y0050965D01*
Y0051965D01*
X0195878Y0052965D01*
X0193878D01*
X0192879Y0051965D01*
X0202875Y0052965D02*
X0198877D01*
Y0046966D01*
X0202875D01*
X0198877Y0049966D02*
X0200876D01*
X0204875Y0052965D02*
X0208874D01*
X0206874D01*
Y0046966D01*
X0210873Y0045967D02*
X0214872D01*
X0216871Y0046966D02*
X0218870D01*
X0217871D01*
Y0052965D01*
X0216871Y0051965D01*
X0221869Y0046966D02*
Y0047966D01*
X0222869D01*
Y0046966D01*
X0221869D01*
X0226868Y0051965D02*
X0227867Y0052965D01*
X0229867D01*
X0230866Y0051965D01*
Y0047966D01*
X0229867Y0046966D01*
X0227867D01*
X0226868Y0047966D01*
Y0051965D01*
X0232866Y0046966D02*
Y0047966D01*
X0233865D01*
Y0046966D01*
X0232866D01*
X0241863Y0051965D02*
X0240863Y0052965D01*
X0238864D01*
X0237864Y0051965D01*
Y0047966D01*
X0238864Y0046966D01*
X0240863D01*
X0241863Y0047966D01*
Y0049966D01*
X0239863D01*
X0243862Y0052965D02*
X0247861D01*
X0245862D01*
Y0046966D01*
X0253859Y0051965D02*
X0252859Y0052965D01*
X0250860D01*
X0249860Y0051965D01*
Y0050965D01*
X0250860Y0049966D01*
X0252859D01*
X0253859Y0048966D01*
Y0047966D01*
X0252859Y0046966D01*
X0250860D01*
X0249860Y0047966D01*
X0381150Y0046966D02*
X0383149D01*
X0382150D01*
Y0052965D01*
X0381150Y0051965D01*
X0390147Y0046966D02*
X0386148D01*
X0390147Y0050965D01*
Y0051965D01*
X0389147Y0052965D01*
X0387148D01*
X0386148Y0051965D01*
X0392146Y0046966D02*
X0396145Y0050965D01*
X0398145Y0046966D02*
X0400144D01*
X0399144D01*
Y0052965D01*
X0398145Y0051965D01*
X0407142Y0052965D02*
X0403143D01*
Y0049966D01*
X0405142Y0050965D01*
X0406142D01*
X0407142Y0049966D01*
Y0047966D01*
X0406142Y0046966D01*
X0404143D01*
X0403143Y0047966D01*
X0409141Y0046966D02*
X0413140Y0050965D01*
X0419138Y0046966D02*
X0415139D01*
X0419138Y0050965D01*
Y0051965D01*
X0418138Y0052965D01*
X0416139D01*
X0415139Y0051965D01*
X0421137D02*
X0422137Y0052965D01*
X0424136D01*
X0425136Y0051965D01*
Y0047966D01*
X0424136Y0046966D01*
X0422137D01*
X0421137Y0047966D01*
Y0051965D01*
X0427135Y0046966D02*
X0429135D01*
X0428135D01*
Y0052965D01*
X0427135Y0051965D01*
X0432133Y0052965D02*
X0436132D01*
Y0051965D01*
X0432133Y0047966D01*
Y0046966D01*
X0298199Y0051965D02*
X0297199Y0052965D01*
X0295200D01*
X0294200Y0051965D01*
Y0047966D01*
X0295200Y0046966D01*
X0297199D01*
X0298199Y0047966D01*
Y0049966D01*
X0296199D01*
X0304197Y0052965D02*
X0300198D01*
Y0046966D01*
X0304197D01*
X0300198Y0049966D02*
X0302197D01*
X0306196Y0046966D02*
Y0052965D01*
X0310195Y0046966D01*
Y0052965D01*
X0316193D02*
X0312194D01*
Y0046966D01*
X0316193D01*
X0312194Y0049966D02*
X0314194D01*
X0318192Y0046966D02*
Y0052965D01*
X0321191D01*
X0322191Y0051965D01*
Y0049966D01*
X0321191Y0048966D01*
X0318192D01*
X0320192D02*
X0322191Y0046966D01*
X0324190D02*
Y0050965D01*
X0326190Y0052965D01*
X0328189Y0050965D01*
Y0046966D01*
Y0049966D01*
X0324190D01*
X0330188Y0052965D02*
X0334187D01*
X0332188D01*
Y0046966D01*
X0340185Y0052965D02*
X0336186D01*
Y0046966D01*
X0340185D01*
X0336186Y0049966D02*
X0338186D01*
X0342184Y0052965D02*
Y0046966D01*
X0345183D01*
X0346183Y0047966D01*
Y0051965D01*
X0345183Y0052965D01*
X0342184D01*
X0372175Y0050965D02*
X0373175D01*
Y0049966D01*
X0372175D01*
Y0050965D01*
Y0047966D02*
X0373175D01*
Y0046966D01*
X0372175D01*
Y0047966D01*
X0046350Y0087833D02*
Y0091832D01*
X0048349Y0093831D01*
X0050349Y0091832D01*
Y0087833D01*
Y0090832D01*
X0046350D01*
X0052348Y0093831D02*
Y0087833D01*
X0056347D01*
X0058346Y0093831D02*
Y0087833D01*
X0062345D01*
X0070342D02*
Y0091832D01*
X0072342Y0093831D01*
X0074341Y0091832D01*
Y0087833D01*
Y0090832D01*
X0070342D01*
X0076340Y0087833D02*
Y0093831D01*
X0079339D01*
X0080339Y0092832D01*
Y0090832D01*
X0079339Y0089833D01*
X0076340D01*
X0078340D02*
X0080339Y0087833D01*
X0082338Y0093831D02*
X0086337D01*
X0084338D01*
Y0087833D01*
X0088336Y0093831D02*
Y0087833D01*
X0090336Y0089833D01*
X0092335Y0087833D01*
Y0093831D01*
X0097334D02*
X0095334D01*
X0094335Y0092832D01*
Y0088833D01*
X0095334Y0087833D01*
X0097334D01*
X0098333Y0088833D01*
Y0092832D01*
X0097334Y0093831D01*
X0100332Y0087833D02*
Y0093831D01*
X0103332D01*
X0104331Y0092832D01*
Y0090832D01*
X0103332Y0089833D01*
X0100332D01*
X0102332D02*
X0104331Y0087833D01*
X0106331Y0093831D02*
Y0087833D01*
Y0089833D01*
X0110329Y0093831D01*
X0107330Y0090832D01*
X0110329Y0087833D01*
X0118327Y0093831D02*
Y0089833D01*
X0120326Y0087833D01*
X0122325Y0089833D01*
Y0093831D01*
X0124325D02*
X0126324D01*
X0125324D01*
Y0087833D01*
X0124325D01*
X0126324D01*
X0133322Y0093831D02*
X0129323D01*
Y0087833D01*
X0133322D01*
X0129323Y0090832D02*
X0131323D01*
X0135321Y0093831D02*
Y0087833D01*
X0137321Y0089833D01*
X0139320Y0087833D01*
Y0093831D01*
X0145318D02*
X0141319D01*
Y0087833D01*
X0145318D01*
X0141319Y0090832D02*
X0143319D01*
X0147317Y0093831D02*
Y0087833D01*
X0150316D01*
X0151316Y0088833D01*
Y0092832D01*
X0150316Y0093831D01*
X0147317D01*
X0163312D02*
X0159313D01*
Y0090832D01*
X0161313D01*
X0159313D01*
Y0087833D01*
X0165312D02*
Y0093831D01*
X0168310D01*
X0169310Y0092832D01*
Y0090832D01*
X0168310Y0089833D01*
X0165312D01*
X0167311D02*
X0169310Y0087833D01*
X0174309Y0093831D02*
X0172309D01*
X0171310Y0092832D01*
Y0088833D01*
X0172309Y0087833D01*
X0174309D01*
X0175308Y0088833D01*
Y0092832D01*
X0174309Y0093831D01*
X0177308Y0087833D02*
Y0093831D01*
X0179307Y0091832D01*
X0181306Y0093831D01*
Y0087833D01*
X0189304Y0093831D02*
X0193303D01*
X0191303D01*
Y0087833D01*
X0198301Y0093831D02*
X0196301D01*
X0195302Y0092832D01*
Y0088833D01*
X0196301Y0087833D01*
X0198301D01*
X0199301Y0088833D01*
Y0092832D01*
X0198301Y0093831D01*
X0201300Y0087833D02*
Y0093831D01*
X0204299D01*
X0205299Y0092832D01*
Y0090832D01*
X0204299Y0089833D01*
X0201300D01*
X0217295Y0092832D02*
X0216295Y0093831D01*
X0214296D01*
X0213296Y0092832D01*
Y0091832D01*
X0214296Y0090832D01*
X0216295D01*
X0217295Y0089833D01*
Y0088833D01*
X0216295Y0087833D01*
X0214296D01*
X0213296Y0088833D01*
X0219294Y0093831D02*
X0221293D01*
X0220294D01*
Y0087833D01*
X0219294D01*
X0221293D01*
X0224292Y0093831D02*
Y0087833D01*
X0227291D01*
X0228291Y0088833D01*
Y0092832D01*
X0227291Y0093831D01*
X0224292D01*
X0234289D02*
X0230291D01*
Y0087833D01*
X0234289D01*
X0230291Y0090832D02*
X0232290D01*
X0462150Y0087833D02*
X0464149D01*
X0463150D01*
Y0093831D01*
X0462150Y0092832D01*
X0467148Y0087833D02*
Y0088833D01*
X0468148D01*
Y0087833D01*
X0467148D01*
X0472147Y0092832D02*
X0473146Y0093831D01*
X0475146D01*
X0476146Y0092832D01*
Y0088833D01*
X0475146Y0087833D01*
X0473146D01*
X0472147Y0088833D01*
Y0092832D01*
X0348550Y0087833D02*
Y0093831D01*
X0350549Y0091832D01*
X0352549Y0093831D01*
Y0087833D01*
X0358547Y0092832D02*
X0357547Y0093831D01*
X0355548D01*
X0354548Y0092832D01*
Y0088833D01*
X0355548Y0087833D01*
X0357547D01*
X0358547Y0088833D01*
X0360546Y0093831D02*
Y0088833D01*
X0361546Y0087833D01*
X0363545D01*
X0364545Y0088833D01*
Y0093831D01*
X0366544Y0092832D02*
X0367544Y0093831D01*
X0369543D01*
X0370543Y0092832D01*
Y0088833D01*
X0369543Y0087833D01*
X0367544D01*
X0366544Y0088833D01*
Y0092832D01*
X0376541Y0087833D02*
X0372542D01*
X0376541Y0091832D01*
Y0092832D01*
X0375541Y0093831D01*
X0373542D01*
X0372542Y0092832D01*
X0378540Y0087833D02*
X0380540D01*
X0379540D01*
Y0093831D01*
X0378540Y0092832D01*
X0294000Y0093831D02*
Y0087833D01*
X0296999D01*
X0297999Y0088833D01*
Y0089833D01*
X0296999Y0090832D01*
X0294000D01*
X0296999D01*
X0297999Y0091832D01*
Y0092832D01*
X0296999Y0093831D01*
X0294000D01*
X0302997D02*
X0300998D01*
X0299998Y0092832D01*
Y0088833D01*
X0300998Y0087833D01*
X0302997D01*
X0303997Y0088833D01*
Y0092832D01*
X0302997Y0093831D01*
X0305996Y0087833D02*
Y0091832D01*
X0307996Y0093831D01*
X0309995Y0091832D01*
Y0087833D01*
Y0090832D01*
X0305996D01*
X0311994Y0087833D02*
Y0093831D01*
X0314993D01*
X0315993Y0092832D01*
Y0090832D01*
X0314993Y0089833D01*
X0311994D01*
X0313994D02*
X0315993Y0087833D01*
X0317992Y0093831D02*
Y0087833D01*
X0320991D01*
X0321991Y0088833D01*
Y0092832D01*
X0320991Y0093831D01*
X0317992D01*
X0330988Y0087833D02*
Y0093831D01*
X0332987D02*
Y0087833D01*
X0329988Y0091832D02*
X0332987D01*
X0333987D01*
X0329988Y0089833D02*
X0333987D01*
X0335986Y0091832D02*
X0336986D01*
Y0090832D01*
X0335986D01*
Y0091832D01*
Y0088833D02*
X0336986D01*
Y0087833D01*
X0335986D01*
Y0088833D01*
X0046350Y0073549D02*
Y0067551D01*
X0050349D01*
X0052348D02*
Y0071549D01*
X0054347Y0073549D01*
X0056347Y0071549D01*
Y0067551D01*
Y0070550D01*
X0052348D01*
X0058346Y0073549D02*
Y0072549D01*
X0060346Y0070550D01*
X0062345Y0072549D01*
Y0073549D01*
X0060346Y0070550D02*
Y0067551D01*
X0068343Y0073549D02*
X0064344D01*
Y0067551D01*
X0068343D01*
X0064344Y0070550D02*
X0066343D01*
X0070342Y0067551D02*
Y0073549D01*
X0073341D01*
X0074341Y0072549D01*
Y0070550D01*
X0073341Y0069550D01*
X0070342D01*
X0072342D02*
X0074341Y0067551D01*
X0082338D02*
Y0073549D01*
X0086337Y0067551D01*
Y0073549D01*
X0088336Y0067551D02*
Y0071549D01*
X0090336Y0073549D01*
X0092335Y0071549D01*
Y0067551D01*
Y0070550D01*
X0088336D01*
X0094335Y0067551D02*
Y0073549D01*
X0096334Y0071549D01*
X0098333Y0073549D01*
Y0067551D01*
X0104331Y0073549D02*
X0100332D01*
Y0067551D01*
X0104331D01*
X0100332Y0070550D02*
X0102332D01*
X0112329Y0069550D02*
X0116327D01*
X0112329Y0071549D02*
X0116327D01*
X0046350Y0046966D02*
Y0052965D01*
X0049349D01*
X0050349Y0051965D01*
Y0049966D01*
X0049349Y0048966D01*
X0046350D01*
X0052348Y0052965D02*
Y0046966D01*
X0056347D01*
X0061345Y0052965D02*
X0059346D01*
X0058346Y0051965D01*
Y0047966D01*
X0059346Y0046966D01*
X0061345D01*
X0062345Y0047966D01*
Y0051965D01*
X0061345Y0052965D01*
X0064344D02*
X0068343D01*
X0066343D01*
Y0046966D01*
X0076340D02*
Y0052965D01*
X0080339Y0046966D01*
Y0052965D01*
X0082338Y0046966D02*
Y0050965D01*
X0084338Y0052965D01*
X0086337Y0050965D01*
Y0046966D01*
Y0049966D01*
X0082338D01*
X0088336Y0046966D02*
Y0052965D01*
X0090336Y0050965D01*
X0092335Y0052965D01*
Y0046966D01*
X0098333Y0052965D02*
X0094335D01*
Y0046966D01*
X0098333D01*
X0094335Y0049966D02*
X0096334D01*
X0106331Y0048966D02*
X0110329D01*
X0106331Y0050965D02*
X0110329D01*
X0454050Y0047966D02*
X0455050Y0046966D01*
X0457049D01*
X0458049Y0047966D01*
Y0051965D01*
X0457049Y0052965D01*
X0455050D01*
X0454050Y0051965D01*
Y0050965D01*
X0455050Y0049966D01*
X0458049D01*
X0460048Y0050965D02*
X0461048D01*
Y0049966D01*
X0460048D01*
Y0050965D01*
Y0047966D02*
X0461048D01*
Y0046966D01*
X0460048D01*
Y0047966D01*
X0465046Y0046966D02*
X0467046D01*
X0466046D01*
Y0052965D01*
X0465046Y0051965D01*
X0474044Y0052965D02*
X0470045D01*
Y0049966D01*
X0472044Y0050965D01*
X0473044D01*
X0474044Y0049966D01*
Y0047966D01*
X0473044Y0046966D01*
X0471044D01*
X0470045Y0047966D01*
X0476043Y0050965D02*
X0477043D01*
Y0049966D01*
X0476043D01*
Y0050965D01*
Y0047966D02*
X0477043D01*
Y0046966D01*
X0476043D01*
Y0047966D01*
X0481041Y0051965D02*
X0482041Y0052965D01*
X0484040D01*
X0485040Y0051965D01*
Y0047966D01*
X0484040Y0046966D01*
X0482041D01*
X0481041Y0047966D01*
Y0051965D01*
X0491038Y0046966D02*
X0487039D01*
X0491038Y0050965D01*
Y0051965D01*
X0490038Y0052965D01*
X0488039D01*
X0487039Y0051965D01*
X0499035Y0046966D02*
Y0050965D01*
X0501035Y0052965D01*
X0503034Y0050965D01*
Y0046966D01*
Y0049966D01*
X0499035D01*
X0505033Y0046966D02*
Y0052965D01*
X0507033Y0050965D01*
X0509032Y0052965D01*
Y0046966D01*
X0580500Y0052965D02*
X0584499D01*
X0582499D01*
Y0046966D01*
X0590497Y0052965D02*
X0586498D01*
Y0046966D01*
X0590497D01*
X0586498Y0049966D02*
X0588497D01*
X0592496Y0052965D02*
X0596495Y0046966D01*
Y0052965D02*
X0592496Y0046966D01*
X0598494D02*
Y0050965D01*
X0600493Y0052965D01*
X0602493Y0050965D01*
Y0046966D01*
Y0049966D01*
X0598494D01*
X0608491Y0051965D02*
X0607491Y0052965D01*
X0605492D01*
X0604492Y0051965D01*
Y0050965D01*
X0605492Y0049966D01*
X0607491D01*
X0608491Y0048966D01*
Y0047966D01*
X0607491Y0046966D01*
X0605492D01*
X0604492Y0047966D01*
X0616488Y0052965D02*
X0618488D01*
X0617488D01*
Y0046966D01*
X0616488D01*
X0618488D01*
X0621487D02*
Y0052965D01*
X0625486Y0046966D01*
Y0052965D01*
X0631484Y0051965D02*
X0630484Y0052965D01*
X0628484D01*
X0627485Y0051965D01*
Y0050965D01*
X0628484Y0049966D01*
X0630484D01*
X0631484Y0048966D01*
Y0047966D01*
X0630484Y0046966D01*
X0628484D01*
X0627485Y0047966D01*
X0633483Y0052965D02*
X0637482D01*
X0635482D01*
Y0046966D01*
X0639481D02*
Y0052965D01*
X0642480D01*
X0643480Y0051965D01*
Y0049966D01*
X0642480Y0048966D01*
X0639481D01*
X0641480D02*
X0643480Y0046966D01*
X0645479Y0052965D02*
Y0047966D01*
X0646479Y0046966D01*
X0648478D01*
X0649478Y0047966D01*
Y0052965D01*
X0651477Y0046966D02*
Y0052965D01*
X0653476Y0050965D01*
X0655476Y0052965D01*
Y0046966D01*
X0661474Y0052965D02*
X0657475D01*
Y0046966D01*
X0661474D01*
X0657475Y0049966D02*
X0659474D01*
X0663473Y0046966D02*
Y0052965D01*
X0667472Y0046966D01*
Y0052965D01*
X0669471D02*
X0673470D01*
X0671471D01*
Y0046966D01*
X0679468Y0051965D02*
X0678468Y0052965D01*
X0676469D01*
X0675469Y0051965D01*
Y0050965D01*
X0676469Y0049966D01*
X0678468D01*
X0679468Y0048966D01*
Y0047966D01*
X0678468Y0046966D01*
X0676469D01*
X0675469Y0047966D01*
X0294000Y0073498D02*
X0297999D01*
X0295999D01*
Y0067500D01*
X0299998Y0073498D02*
X0301997D01*
X0300998D01*
Y0067500D01*
X0299998D01*
X0301997D01*
X0304996Y0073498D02*
Y0067500D01*
X0307996D01*
X0308995Y0068500D01*
Y0072498D01*
X0307996Y0073498D01*
X0304996D01*
X0317992Y0067500D02*
Y0073498D01*
X0319992D02*
Y0067500D01*
X0316993Y0071499D02*
X0319992D01*
X0320991D01*
X0316993Y0069499D02*
X0320991D01*
X0322991Y0071499D02*
X0323990D01*
Y0070499D01*
X0322991D01*
Y0071499D01*
Y0068500D02*
X0323990D01*
Y0067500D01*
X0322991D01*
Y0068500D01*
X0348550Y0067500D02*
Y0073498D01*
X0352549Y0067500D01*
Y0073498D01*
X0354548Y0067500D02*
X0358547Y0071499D01*
X0360546Y0067500D02*
Y0071499D01*
X0362545Y0073498D01*
X0364545Y0071499D01*
Y0067500D01*
Y0070499D01*
X0360546D01*
G54D58*
X0228078Y0393006D02*
D03*
Y0383006D02*
D03*
X0398078Y0303006D02*
D03*
Y0313006D02*
D03*
Y0323006D02*
D03*
Y0333006D02*
D03*
Y0343006D02*
D03*
Y0353006D02*
D03*
Y0363006D02*
D03*
Y0373006D02*
D03*
Y0383006D02*
D03*
Y0393006D02*
D03*
X0218078Y0303006D02*
D03*
Y0313006D02*
D03*
Y0323006D02*
D03*
Y0333006D02*
D03*
Y0343006D02*
D03*
Y0353006D02*
D03*
Y0363006D02*
D03*
Y0373006D02*
D03*
Y0383006D02*
D03*
G54D71*
X0286976Y0507849D02*
D03*
X0282645D02*
D03*
G54D94*
X0240913Y0459384D02*
D03*
X0240913Y0453557D02*
D03*
X0248786Y0453557D02*
D03*
X0248786Y0459384D02*
D03*
G54D96*
X0247999Y0460113D02*
D03*
X0249574D02*
D03*
X0241700D02*
D03*
X0240125D02*
D03*
Y0452829D02*
D03*
X0241700D02*
D03*
X0247999D02*
D03*
X0249574D02*
D03*
G54D97*
X0358432Y0373006D02*
D03*
Y0382849D02*
D03*
G54D98*
X0388944Y0445644D02*
D03*
X0395243D02*
D03*
X0357645D02*
D03*
X0363944D02*
D03*
X0379495D02*
D03*
X0373196D02*
D03*
X0258728Y0260506D02*
D03*
X0252428D02*
D03*
X0357428Y0260506D02*
D03*
X0363727D02*
D03*
G54D99*
X0347763Y0548735D02*
D03*
X0342763D02*
D03*
X0337763D02*
D03*
X0347763Y0543735D02*
D03*
X0342763D02*
D03*
X0337763D02*
D03*
X0332763Y0548735D02*
D03*
X0327763Y0543735D02*
D03*
Y0548735D02*
D03*
X0332763Y0543735D02*
D03*
G54D100*
X0391346Y0544250D02*
D03*
X0374810D02*
D03*
G54D101*
X0396365Y0551337D02*
D03*
X0369791D02*
D03*
G54D102*
X0276149Y0477337D02*
D03*
X0273590Y0484817D02*
D03*
X0271031Y0477337D02*
D03*
G54D103*
X0252920Y0484227D02*
D03*
X0243472Y0487967D02*
D03*
Y0480487D02*
D03*
X0278905Y0487180D02*
D03*
X0288353Y0490920D02*
D03*
Y0483439D02*
D03*
G54D104*
X0212763Y0534965D02*
D03*
Y0522071D02*
D03*
G54D105*
X0315125Y0479306D02*
D03*
G54D106*
X0311287Y0486786D02*
D03*
X0313846D02*
D03*
X0316405D02*
D03*
X0318964D02*
D03*
Y0471825D02*
D03*
X0316405D02*
D03*
X0313846D02*
D03*
X0311287D02*
D03*
G54D107*
X0322605Y0483144D02*
D03*
Y0480585D02*
D03*
Y0478026D02*
D03*
Y0475467D02*
D03*
X0307645D02*
D03*
Y0478026D02*
D03*
Y0480585D02*
D03*
Y0483144D02*
D03*
G54D108*
X0348984Y0500565D02*
D03*
Y0498597D02*
D03*
Y0496628D02*
D03*
Y0494660D02*
D03*
Y0492691D02*
D03*
Y0490723D02*
D03*
Y0488754D02*
D03*
Y0486786D02*
D03*
Y0484817D02*
D03*
Y0482849D02*
D03*
Y0480880D02*
D03*
Y0478912D02*
D03*
Y0476943D02*
D03*
Y0474975D02*
D03*
Y0473006D02*
D03*
Y0471038D02*
D03*
X0383629D02*
D03*
Y0473006D02*
D03*
Y0474975D02*
D03*
Y0476943D02*
D03*
Y0478912D02*
D03*
Y0480880D02*
D03*
Y0482849D02*
D03*
Y0484817D02*
D03*
Y0486786D02*
D03*
Y0488754D02*
D03*
Y0490723D02*
D03*
Y0492691D02*
D03*
Y0494660D02*
D03*
Y0496628D02*
D03*
Y0498597D02*
D03*
Y0500565D02*
D03*
G54D109*
X0351539Y0468479D02*
D03*
X0353508D02*
D03*
X0355477D02*
D03*
X0357446D02*
D03*
X0359415D02*
D03*
X0361384D02*
D03*
X0363353D02*
D03*
X0365322D02*
D03*
X0367291D02*
D03*
X0369260D02*
D03*
X0371229D02*
D03*
X0373198D02*
D03*
X0375167D02*
D03*
X0377136D02*
D03*
X0379105D02*
D03*
X0381074D02*
D03*
Y0503124D02*
D03*
X0379105D02*
D03*
X0377136D02*
D03*
X0375167D02*
D03*
X0373198D02*
D03*
X0371229D02*
D03*
X0369260D02*
D03*
X0367291D02*
D03*
X0365322D02*
D03*
X0363353D02*
D03*
X0361384D02*
D03*
X0359415D02*
D03*
X0357446D02*
D03*
X0355477D02*
D03*
X0353508D02*
D03*
X0351539D02*
D03*
G54D110*
X0366306Y0485802D02*
D03*
G54D111*
X0352527Y0518676D02*
D03*
X0348351Y0514500D02*
D03*
X0356702Y0522851D02*
D03*
G54D112*
X0243196Y0537825D02*
D03*
X0240637Y0537825D02*
D03*
X0238078Y0537825D02*
D03*
X0235519Y0537825D02*
D03*
X0232960Y0537825D02*
D03*
G54D113*
X0241769Y0548298D02*
D03*
X0234387D02*
D03*
G54D114*
X0247773Y0539243D02*
D03*
X0228383D02*
D03*
G54D115*
X0339928Y0256471D02*
D03*
X0407448Y0522613D02*
D03*
X0205480Y0294857D02*
D03*
G54D116*
X0287369Y0511687D02*
D03*
X0284810D02*
D03*
X0282251D02*
D03*
Y0504010D02*
D03*
X0284810D02*
D03*
X0287369D02*
D03*
G54D117*
X0284810Y0507849D02*
D03*
G54D118*
X0247212Y0521431D02*
D03*
Y0523400D02*
D03*
Y0525368D02*
D03*
X0241306D02*
D03*
Y0521431D02*
D03*
G54D119*
X0246424Y0452829D02*
D03*
X0244850D02*
D03*
X0243275D02*
D03*
Y0460113D02*
D03*
X0244850D02*
D03*
X0246424D02*
D03*
G54D120*
X0244850Y0456471D02*
D03*
G54D121*
X0319554Y0516117D02*
D03*
Y0518676D02*
D03*
Y0521235D02*
D03*
X0310696D02*
D03*
Y0518676D02*
D03*
Y0516117D02*
D03*
G54D122*
X0257842Y0467888D02*
D03*
Y0476156D02*
D03*
G54D123*
X0203905Y0285605D02*
D03*
Y0275368D02*
D03*
X0335794Y0460605D02*
D03*
Y0470841D02*
D03*
X0243275Y0494463D02*
D03*
Y0504699D02*
D03*
X0411582Y0288558D02*
D03*
Y0278321D02*
D03*
G54D124*
X0335420Y0275861D02*
D03*
Y0270152D02*
D03*
X0340735Y0275861D02*
D03*
Y0270152D02*
D03*
G54D125*
X0335125Y0273006D02*
D03*
X0341031D02*
D03*
G54D126*
X0224574Y0511983D02*
D03*
Y0523400D02*
D03*
G54D127*
X0253117Y0494794D02*
D03*
Y0502794D02*
D03*
X0224574Y0494006D02*
D03*
Y0502006D02*
D03*
G54D128*
X0299574Y0511786D02*
D03*
X0293275D02*
D03*
X0221818Y0419266D02*
D03*
X0215519D02*
D03*
X0221818Y0531471D02*
D03*
X0228117D02*
D03*
X0254298D02*
D03*
X0247999D02*
D03*
X0347802Y0389738D02*
D03*
X0341503D02*
D03*
X0347802Y0383046D02*
D03*
X0341503D02*
D03*
X0347802Y0373006D02*
D03*
X0341503D02*
D03*
X0347802Y0366117D02*
D03*
X0341503D02*
D03*
X0221818Y0412770D02*
D03*
X0215519D02*
D03*
G54D129*
X0203511Y0268872D02*
D03*
X0208235D02*
D03*
X0285007Y0516117D02*
D03*
X0280283D02*
D03*
X0310598Y0402534D02*
D03*
X0305873D02*
D03*
X0310598Y0408243D02*
D03*
X0305873D02*
D03*
X0343078Y0347416D02*
D03*
X0338353D02*
D03*
X0338354Y0483242D02*
D03*
X0343078D02*
D03*
X0351542Y0460211D02*
D03*
X0346818D02*
D03*
X0338353Y0477928D02*
D03*
X0343078D02*
D03*
X0375558Y0511786D02*
D03*
X0370834D02*
D03*
X0338354Y0503518D02*
D03*
X0343078D02*
D03*
X0260794Y0494660D02*
D03*
X0265519D02*
D03*
X0317487Y0492101D02*
D03*
X0312763D02*
D03*
X0321424Y0460211D02*
D03*
X0316700D02*
D03*
X0327527Y0506471D02*
D03*
X0332251D02*
D03*
X0343078Y0353124D02*
D03*
X0338353D02*
D03*
X0320440Y0267613D02*
D03*
X0315716D02*
D03*
X0320440Y0273006D02*
D03*
X0315716D02*
D03*
X0320440Y0278439D02*
D03*
X0315716D02*
D03*
X0348984Y0447219D02*
D03*
X0344259D02*
D03*
X0293078Y0453518D02*
D03*
X0297802D02*
D03*
X0338354Y0508833D02*
D03*
X0343078D02*
D03*
X0277133Y0532258D02*
D03*
X0272409D02*
D03*
X0277133Y0537573D02*
D03*
X0272409D02*
D03*
X0390322Y0507849D02*
D03*
X0385598D02*
D03*
Y0513164D02*
D03*
X0390322D02*
D03*
X0393865Y0469660D02*
D03*
X0389141D02*
D03*
X0396228Y0474975D02*
D03*
X0391503D02*
D03*
X0272409Y0491904D02*
D03*
X0277133D02*
D03*
X0282251Y0477337D02*
D03*
X0286976D02*
D03*
X0321424Y0454896D02*
D03*
X0316700D02*
D03*
X0316700Y0465526D02*
D03*
X0321424D02*
D03*
X0332251Y0501156D02*
D03*
X0327527D02*
D03*
X0231858Y0459621D02*
D03*
X0227133D02*
D03*
X0293078Y0464345D02*
D03*
X0297802D02*
D03*
X0293078Y0469660D02*
D03*
X0297802D02*
D03*
X0231857Y0453715D02*
D03*
X0227133D02*
D03*
X0293078Y0459030D02*
D03*
X0297802D02*
D03*
X0304692Y0522416D02*
D03*
X0299968D02*
D03*
X0297999Y0517691D02*
D03*
X0293275D02*
D03*
X0213353Y0406471D02*
D03*
X0218078D02*
D03*
X0248590Y0403518D02*
D03*
X0243865D02*
D03*
X0414928Y0269660D02*
D03*
X0410204D02*
D03*
G54D130*
X0265913Y0469857D02*
D03*
Y0465132D02*
D03*
X0368078Y0381471D02*
D03*
Y0386195D02*
D03*
X0368078Y0374384D02*
D03*
Y0369660D02*
D03*
X0266306Y0510211D02*
D03*
Y0505487D02*
D03*
X0271424Y0510211D02*
D03*
Y0505487D02*
D03*
X0276542Y0510211D02*
D03*
Y0505487D02*
D03*
X0299574Y0500762D02*
D03*
Y0505487D02*
D03*
X0319259Y0443479D02*
D03*
Y0448203D02*
D03*
X0313944Y0443479D02*
D03*
Y0448203D02*
D03*
X0365125Y0517101D02*
D03*
Y0512376D02*
D03*
X0370440Y0522219D02*
D03*
Y0517494D02*
D03*
X0388944Y0481471D02*
D03*
Y0486195D02*
D03*
X0343472Y0466117D02*
D03*
Y0470841D02*
D03*
X0375755Y0522219D02*
D03*
Y0517494D02*
D03*
X0232448Y0497219D02*
D03*
Y0501943D02*
D03*
X0282842Y0527140D02*
D03*
Y0531865D02*
D03*
X0282842Y0537967D02*
D03*
Y0542691D02*
D03*
X0262369Y0544857D02*
D03*
Y0549581D02*
D03*
X0233432Y0525565D02*
D03*
Y0520841D02*
D03*
X0242487Y0473400D02*
D03*
Y0468676D02*
D03*
X0266109Y0454306D02*
D03*
Y0459030D02*
D03*
X0284613Y0465329D02*
D03*
Y0470054D02*
D03*
X0284613Y0458833D02*
D03*
Y0454109D02*
D03*
X0260401Y0454305D02*
D03*
Y0459030D02*
D03*
X0276739Y0312967D02*
D03*
Y0317691D02*
D03*
X0276739Y0303124D02*
D03*
Y0298400D02*
D03*
X0265578Y0272869D02*
D03*
Y0268144D02*
D03*
X0350578Y0268144D02*
D03*
Y0272869D02*
D03*
X0357448Y0459030D02*
D03*
Y0454306D02*
D03*
X0373196Y0459030D02*
D03*
Y0454306D02*
D03*
X0388944Y0459030D02*
D03*
Y0454306D02*
D03*
X0324574Y0443479D02*
D03*
Y0448203D02*
D03*
X0308629D02*
D03*
Y0443479D02*
D03*
X0267881Y0549581D02*
D03*
Y0544857D02*
D03*
X0298787Y0490920D02*
D03*
Y0486195D02*
D03*
X0293472Y0490920D02*
D03*
Y0486195D02*
D03*
X0336779Y0523006D02*
D03*
Y0518282D02*
D03*
X0401543Y0543676D02*
D03*
Y0538951D02*
D03*
X0255086Y0459030D02*
D03*
Y0454306D02*
D03*
X0293878Y0505369D02*
D03*
Y0500644D02*
D03*
X0330480Y0517298D02*
D03*
Y0522022D02*
D03*
X0325165Y0517298D02*
D03*
Y0522022D02*
D03*
X0305676Y0516510D02*
D03*
Y0511786D02*
D03*
G54D131*
X0316306Y0417298D02*
D03*
X0306070D02*
D03*
X0320243Y0499975D02*
D03*
X0310007D02*
D03*
G54D132*
X0236385Y0474581D02*
D03*
Y0468282D02*
D03*
X0229889Y0474581D02*
D03*
Y0468282D02*
D03*
X0271818Y0465329D02*
D03*
Y0471628D02*
D03*
X0271818Y0458833D02*
D03*
Y0452534D02*
D03*
X0278708Y0471628D02*
D03*
Y0465329D02*
D03*
Y0452534D02*
D03*
Y0458833D02*
D03*
G54D133*
X0265716Y0487376D02*
D03*
X0258236Y0484817D02*
D03*
X0265716Y0482258D02*
D03*
G54D134*
X0202527Y0511392D02*
D03*
X0213944D02*
D03*
G54D135*
X0206834Y0426274D02*
D03*
Y0409739D02*
D03*
G54D136*
X0199747Y0431294D02*
D03*
Y0404719D02*
D03*
G54D137*
X0293078Y0273006D02*
D03*
Y0263006D02*
D03*
X0303078D02*
D03*
Y0273006D02*
D03*
Y0283006D02*
D03*
X0363078Y0283006D02*
D03*
X0238078Y0443006D02*
D03*
Y0433006D02*
D03*
X0248078Y0443006D02*
D03*
Y0433006D02*
D03*
X0258078Y0443006D02*
D03*
Y0433006D02*
D03*
X0268078Y0443006D02*
D03*
X0278078D02*
D03*
X0268078Y0433006D02*
D03*
X0288078Y0443006D02*
D03*
X0278078Y0433006D02*
D03*
X0298078D02*
D03*
X0288078D02*
D03*
X0218078Y0283006D02*
D03*
Y0273006D02*
D03*
X0398078D02*
D03*
Y0283006D02*
D03*
X0253078Y0283006D02*
D03*
G54D138*
X0293078Y0283006D02*
D03*
G54D139*
X0363078Y0273006D02*
D03*
X0253078D02*
D03*
G54D140*
X0352763Y0546235D02*
D03*
X0322763Y0550235D02*
D03*
Y0542235D02*
D03*
G54D141*
X0298078Y0443006D02*
D03*
X0218078Y0263006D02*
D03*
X0398078D02*
D03*
G54D142*
X0413078Y0258006D02*
D03*
Y0548006D02*
D03*
X0203078D02*
D03*
Y0258006D02*
D03*
G54D143*
X0253629Y0548298D02*
D03*
X0222527D02*
D03*
G54D144*
X0323078Y0383006D02*
D03*
Y0393006D02*
D03*
Y0373006D02*
D03*
Y0363006D02*
D03*
Y0353006D02*
D03*
Y0343006D02*
D03*
Y0333006D02*
D03*
Y0313006D02*
D03*
Y0323006D02*
D03*
Y0303006D02*
D03*
X0293078Y0383006D02*
D03*
Y0363006D02*
D03*
Y0373006D02*
D03*
Y0353006D02*
D03*
Y0343006D02*
D03*
Y0323006D02*
D03*
Y0333006D02*
D03*
Y0303006D02*
D03*
Y0313006D02*
D03*
G54D145*
Y0393006D02*
D03*
G54D146*
X0203078Y0548006D02*
D03*
X0413078D02*
D03*
G54D147*
X0218078Y0393006D02*
D03*
G54D148*
X0403678Y0515206D02*
D03*
X0408478Y0529006D02*
D03*
M02*
