M48
;Layer_Color=9474304
;FILE_FORMAT=2:5
INCH
;TYPE=PLATED
T1F00S00C0.00787
T2F00S00C0.01181
T4F00S00C0.03150
T5F00S00C0.04000
T6F00S00C0.04016
;TYPE=NON_PLATED
T7F00S00C0.03543
T8F00S00C0.03900
T9F00S00C0.11811
T10F00S00C0.12500
%
T01
X0240913Y0456471
X0244850
X0248787
X0315125Y0474975
Y0479306
X0319456
X0315125Y0483636
X0358924Y0483065
X0363570
Y0478420
X0369042
Y0483065
X0373688
Y0488538
X0369042
Y0493184
X0363570
Y0488538
X0358924
X0310794Y0479306
X0286976Y0507849
X0282645
T02
X0315039Y0260748
X0324882
X0334724
X0344567
X0344653Y0273006
X0344567Y0280433
X0334724
X0339646Y0290276
X0329803
X0319961
X0334724Y0300118
X0344567
X0337078Y0309006
X0329803Y0309961
X0360078Y0307006
X0360794Y0294463
X0372605Y0296038
X0382078Y0295006
X0390125Y0308833
X0409078Y0309006
X0411582Y0294463
X0406385Y0292967
X0405598Y0283518
X0405283Y0278321
X0406188Y0268990
X0404417Y0264030
X0417881Y0265723
Y0273597
X0417094Y0288558
X0385078Y0272006
X0370637Y0272022
X0363728Y0257002
X0378117Y0255093
X0354078Y0265006
Y0285006
X0310118Y0290276
X0300276
X0290433
X0280591
X0280873Y0298400
X0284810Y0307849
X0270748Y0309961
X0270078Y0306006
X0265827Y0300118
X0255984
X0260906Y0309961
X0245078Y0309006
X0241220Y0309961
X0241503Y0296825
X0245440Y0284227
X0242290Y0269706
X0236299Y0260748
X0226457
X0212684Y0265959
X0212999Y0270211
X0210007Y0273046
X0210204Y0285605
X0198196
X0199771Y0291313
X0198590Y0270841
Y0266510
X0226457Y0280433
Y0300118
X0224078Y0308006
X0211693Y0309961
X0260906Y0290276
X0270748
X0275669Y0280433
X0285512
X0280591Y0270591
X0270748
X0260906
X0265827Y0280433
Y0260748
X0275669
X0285512
X0310118Y0270591
X0252429Y0257002
X0255984Y0319803
X0247078Y0319006
X0242078Y0326006
X0241220Y0329646
X0251063
X0247078Y0337006
X0255984Y0339488
X0257078Y0348006
X0260906Y0349331
X0269078Y0348006
X0265827Y0339488
X0275361Y0339345
X0281078Y0339006
X0280591Y0349331
X0290433
X0295354Y0359173
X0290433Y0369016
X0279078Y0369006
X0270748Y0369016
X0274023Y0375132
X0270361Y0379660
X0255480Y0375211
X0253078Y0368006
X0260906Y0369016
X0265827Y0359173
X0255984
X0258078Y0356006
X0251063Y0349331
X0241220
X0244078Y0356006
X0246142Y0359173
X0241220Y0369016
X0245440Y0379502
X0230598Y0375172
X0221535Y0369016
X0211693
Y0349331
X0221535
X0226457Y0359173
Y0339488
Y0319803
X0211693Y0329646
X0199377Y0322022
X0199771Y0343676
X0198196Y0360998
X0200558Y0388951
X0203251Y0404719
X0209180Y0405250
X0211693Y0428071
X0206834Y0429778
X0200952Y0442494
X0199771Y0460998
X0223629Y0459621
X0223629Y0453715
X0220637Y0456274
X0235362Y0453715
X0235362Y0459621
X0244545Y0464255
X0250952Y0462966
X0255086Y0462534
X0260401Y0462534
X0263157Y0454305
X0265519Y0448006
X0272999Y0440132
X0270748Y0428071
X0278078Y0426006
X0287960Y0426747
X0293078Y0435105
X0292834Y0441321
X0297735Y0449739
X0304889Y0443479
X0304889Y0459030
X0310794Y0460605
X0311287Y0467298
X0306464Y0467376
X0311747Y0454317
X0288117Y0454109
Y0458833
X0288117Y0465329
X0283432Y0445865
X0287015Y0412061
X0293472Y0417888
X0296700Y0414739
X0301070Y0414345
X0299377Y0418479
X0310118Y0428071
X0311621Y0394896
X0302015Y0388203
X0277078Y0397006
X0275078Y0410006
X0263550Y0418085
X0261078Y0398006
X0255676Y0399974
X0248590Y0396038
X0238983Y0403912
X0243078Y0408242
X0229078Y0411006
X0225322Y0419266
X0236299Y0418228
X0241220Y0428071
X0231378
X0252133Y0454305
X0278078Y0359006
X0310884Y0351006
X0305078Y0339006
X0310118Y0329646
X0280873Y0317691
X0271078Y0317006
X0262078Y0329006
X0319961Y0329646
X0329803
X0339646
X0342078Y0327006
X0344567Y0319803
X0350078Y0318006
X0334724Y0319803
X0337078Y0336006
X0346582Y0347416
X0346582Y0353124
X0356078Y0351006
X0357078Y0363006
X0368078Y0377928
X0372448Y0374306
X0386385Y0381864
X0386078Y0401006
X0388078Y0413006
X0394078Y0417006
X0396818Y0421038
X0398701Y0428071
X0408543
X0403622Y0437913
X0393865Y0440526
X0395243Y0449148
X0398684Y0453876
X0403622Y0457598
X0399771Y0463754
X0393924Y0463128
X0383236Y0464935
X0373137Y0464994
X0367519
X0365913Y0454306
X0363944Y0449148
X0361739Y0440475
X0347409Y0440132
X0352527Y0447219
X0350165Y0455487
X0343314Y0460211
X0335794Y0455487
X0328117Y0455093
X0329692Y0460605
X0324928Y0460211
Y0465526
X0330480Y0468676
X0332054Y0447219
X0328905Y0444758
X0335204Y0439345
X0339646Y0428071
X0349488
X0359331
X0369173
X0379016
X0388858
X0385169Y0447735
X0379495Y0449148
X0383236Y0454699
X0377724Y0459424
X0408543Y0467441
Y0447756
X0416078Y0453006
Y0420006
X0403078Y0406006
X0407078Y0377006
X0416078Y0385006
Y0353006
X0409078Y0341006
X0388078Y0337006
X0384078Y0348006
X0373078Y0350006
X0367078Y0338006
X0374078Y0327006
X0385078Y0318006
X0416078
X0384732Y0362022
X0370243Y0399581
X0369731Y0416235
X0354078Y0401006
X0343747Y0406116
X0333235Y0399975
X0321149Y0406038
X0314102Y0408243
X0316306Y0411392
X0314102Y0402534
X0316306Y0423203
X0319961Y0428071
X0329803
X0328511Y0365054
X0314078Y0342006
X0315039Y0319803
X0321424Y0468872
X0323393Y0472810
X0326936Y0475487
X0330480Y0472416
X0329298Y0480565
X0329298Y0485014
X0325755Y0483144
X0322468Y0486786
X0320991Y0492101
X0325755Y0491313
X0327527Y0497652
X0327550Y0509817
X0318590Y0510014
X0314220
X0313393Y0505684
X0320243Y0506668
X0314810Y0516943
X0338353Y0512337
X0343078Y0512042
X0343078Y0497613
X0343881Y0492932
X0342684Y0488557
X0339298Y0488676
X0334850Y0483242
X0334850Y0477927
X0341503Y0474502
X0345086Y0474542
X0353117Y0476747
X0359220Y0474778
X0362763Y0472416
X0373198Y0471628
X0376157Y0476400
X0379369Y0480636
X0377724Y0486589
X0380086Y0490723
X0388944Y0489699
X0387960Y0494069
X0394653Y0498006
X0403622Y0496969
X0399893Y0486227
X0392448Y0486195
Y0481471
X0387928Y0477506
X0403622Y0477283
X0408543Y0487126
X0416078Y0492006
X0408543Y0506811
X0403678Y0515206
X0397409Y0520447
X0389141Y0520841
X0390322Y0516668
X0390322Y0504345
X0384578Y0503124
X0377136Y0499620
X0372606Y0499581
X0367291Y0499620
X0363432Y0498006
X0358668Y0497258
X0355598Y0494030
X0352133Y0490762
X0353511Y0498794
X0357054Y0506983
X0357653Y0513553
X0365125Y0520605
X0365913Y0524778
X0370440Y0525723
X0375755Y0525723
X0362369Y0526746
X0366306Y0538164
X0368117Y0544266
X0358039Y0540526
X0347763Y0539935
X0342763
X0337763
X0332763
X0332763Y0552534
X0337763
X0347763
X0361188Y0552337
X0383472Y0543282
X0387172Y0533439
X0396543Y0544739
X0401543Y0548164
X0408478Y0529006
X0416078Y0517006
X0379062Y0511786
X0375558Y0508282
X0338354Y0500014
X0327763Y0552534
X0305676Y0550762
X0309613Y0540132
X0298590Y0541707
X0289928
X0287960Y0551156
X0276543
X0279338Y0542691
X0271385Y0544857
X0267881Y0541353
X0262369Y0541353
X0260007Y0537376
X0256464Y0540526
X0258865Y0544857
X0257802Y0531471
X0254338Y0527935
X0254298Y0534975
X0266306Y0530683
X0270637Y0526353
X0279338Y0527140
X0287173Y0531077
X0276542Y0513715
X0271424Y0513715
X0266306Y0513715
X0253314Y0514345
X0248984
X0244653
X0240322
X0242290Y0510605
X0246621
X0250952
X0255283
X0260794Y0491156
X0246976Y0487967
X0239968Y0487967
Y0480487
X0246976Y0480487
X0249377Y0472809
X0266306Y0476353
X0284810Y0480683
X0284417Y0487376
X0284968Y0496431
X0278117Y0498006
X0293235Y0495841
X0299692Y0495959
X0303314Y0490526
X0303314Y0486195
X0304692Y0480585
X0300480Y0478046
X0303314Y0474384
X0297798Y0473691
X0290480Y0477337
X0293472Y0482691
X0287566Y0470053
X0308078Y0472432
X0309653Y0505644
X0307409Y0507061
X0309023Y0509148
X0311543Y0507416
X0305007Y0508439
X0303078Y0506628
X0305401Y0505014
X0232448Y0493715
X0230873Y0483833
X0222212Y0483046
X0221818Y0469266
X0200165Y0476353
X0198984Y0486983
X0198196Y0497613
X0208078Y0540329
X0219889Y0540054
X0215243Y0547101
X0230480Y0525565
X0240031Y0532727
T04
X0323078Y0303006
X0293078
Y0313006
Y0323006
Y0333006
Y0343006
Y0353006
Y0363006
Y0373006
Y0383006
Y0393006
X0323078
Y0383006
Y0373006
Y0363006
Y0353006
Y0343006
Y0333006
Y0323006
Y0313006
T05
X0363078Y0273006
Y0283006
X0398078Y0283006
Y0273006
Y0263006
X0303078Y0263006
X0293078
Y0273006
Y0283006
X0303078
Y0273006
X0253078Y0273006
Y0283006
X0218078Y0283006
Y0273006
Y0263006
X0238078Y0433006
Y0443006
X0248078
Y0433006
X0258078
Y0443006
X0268078
X0278078
X0288078
X0298078
Y0433006
X0288078
X0278078
X0268078
T06
X0398078Y0303006
X0218078
Y0313006
Y0323006
Y0333006
Y0343006
Y0353006
Y0363006
Y0373006
Y0383006
X0228078
Y0393006
X0218078
X0398078
Y0383006
Y0373006
Y0363006
Y0353006
Y0343006
Y0333006
Y0323006
Y0313006
T07
X0202700Y0413479
Y0422534
X0378550Y0548384
X0387606
T08
X0322763Y0542235
Y0550235
X0352763Y0546235
T09
X0413078Y0548006
X0203078
T10
X0413078Y0258006
X0203078
X0413078Y0548006
X0203078
M30
