G75*
%MOIN*%
%OFA0B0*%
%FSLAX25Y25*%
%IPPOS*%
%LPD*%
%AMOC8*
5,1,8,0,0,1.08239X$1,22.5*
%
%ADD10C,0.01000*%
%ADD11C,0.00000*%
D10*
X-0015100Y-0280000D02*
X-0015000Y0120500D01*
X0215000Y0120500D01*
X0214900Y-0280000D01*
X-0015100Y-0280000D01*
D11*
X-0011250Y0110000D02*
X-0011248Y0110158D01*
X-0011242Y0110315D01*
X-0011232Y0110473D01*
X-0011218Y0110630D01*
X-0011200Y0110786D01*
X-0011179Y0110943D01*
X-0011153Y0111098D01*
X-0011123Y0111253D01*
X-0011090Y0111407D01*
X-0011052Y0111560D01*
X-0011011Y0111713D01*
X-0010966Y0111864D01*
X-0010917Y0112014D01*
X-0010864Y0112162D01*
X-0010808Y0112310D01*
X-0010747Y0112455D01*
X-0010684Y0112600D01*
X-0010616Y0112742D01*
X-0010545Y0112883D01*
X-0010471Y0113022D01*
X-0010393Y0113159D01*
X-0010311Y0113294D01*
X-0010227Y0113427D01*
X-0010138Y0113558D01*
X-0010047Y0113686D01*
X-0009952Y0113813D01*
X-0009855Y0113936D01*
X-0009754Y0114058D01*
X-0009650Y0114176D01*
X-0009543Y0114292D01*
X-0009433Y0114405D01*
X-0009321Y0114516D01*
X-0009205Y0114623D01*
X-0009087Y0114728D01*
X-0008967Y0114830D01*
X-0008844Y0114928D01*
X-0008718Y0115024D01*
X-0008590Y0115116D01*
X-0008460Y0115205D01*
X-0008328Y0115291D01*
X-0008193Y0115373D01*
X-0008056Y0115452D01*
X-0007918Y0115527D01*
X-0007778Y0115599D01*
X-0007635Y0115667D01*
X-0007492Y0115732D01*
X-0007346Y0115793D01*
X-0007199Y0115850D01*
X-0007051Y0115904D01*
X-0006901Y0115954D01*
X-0006751Y0116000D01*
X-0006599Y0116042D01*
X-0006446Y0116081D01*
X-0006292Y0116115D01*
X-0006137Y0116146D01*
X-0005982Y0116172D01*
X-0005826Y0116195D01*
X-0005669Y0116214D01*
X-0005512Y0116229D01*
X-0005355Y0116240D01*
X-0005197Y0116247D01*
X-0005039Y0116250D01*
X-0004882Y0116249D01*
X-0004724Y0116244D01*
X-0004567Y0116235D01*
X-0004409Y0116222D01*
X-0004253Y0116205D01*
X-0004096Y0116184D01*
X-0003941Y0116160D01*
X-0003786Y0116131D01*
X-0003631Y0116098D01*
X-0003478Y0116062D01*
X-0003325Y0116021D01*
X-0003174Y0115977D01*
X-0003024Y0115929D01*
X-0002875Y0115878D01*
X-0002727Y0115822D01*
X-0002581Y0115763D01*
X-0002436Y0115700D01*
X-0002293Y0115633D01*
X-0002152Y0115563D01*
X-0002013Y0115490D01*
X-0001875Y0115413D01*
X-0001739Y0115332D01*
X-0001606Y0115248D01*
X-0001475Y0115161D01*
X-0001346Y0115070D01*
X-0001219Y0114976D01*
X-0001094Y0114879D01*
X-0000973Y0114779D01*
X-0000853Y0114676D01*
X-0000737Y0114570D01*
X-0000623Y0114461D01*
X-0000511Y0114349D01*
X-0000403Y0114235D01*
X-0000298Y0114117D01*
X-0000195Y0113997D01*
X-0000096Y0113875D01*
X0000000Y0113750D01*
X0000093Y0113622D01*
X0000183Y0113493D01*
X0000269Y0113361D01*
X0000353Y0113227D01*
X0000432Y0113091D01*
X0000509Y0112953D01*
X0000581Y0112813D01*
X0000650Y0112671D01*
X0000716Y0112528D01*
X0000778Y0112383D01*
X0000836Y0112236D01*
X0000891Y0112088D01*
X0000942Y0111939D01*
X0000989Y0111788D01*
X0001032Y0111637D01*
X0001071Y0111484D01*
X0001107Y0111330D01*
X0001138Y0111176D01*
X0001166Y0111021D01*
X0001190Y0110865D01*
X0001210Y0110708D01*
X0001226Y0110551D01*
X0001238Y0110394D01*
X0001246Y0110237D01*
X0001250Y0110079D01*
X0001250Y0109921D01*
X0001246Y0109763D01*
X0001238Y0109606D01*
X0001226Y0109449D01*
X0001210Y0109292D01*
X0001190Y0109135D01*
X0001166Y0108979D01*
X0001138Y0108824D01*
X0001107Y0108670D01*
X0001071Y0108516D01*
X0001032Y0108363D01*
X0000989Y0108212D01*
X0000942Y0108061D01*
X0000891Y0107912D01*
X0000836Y0107764D01*
X0000778Y0107617D01*
X0000716Y0107472D01*
X0000650Y0107329D01*
X0000581Y0107187D01*
X0000509Y0107047D01*
X0000432Y0106909D01*
X0000353Y0106773D01*
X0000269Y0106639D01*
X0000183Y0106507D01*
X0000093Y0106378D01*
X0000000Y0106250D01*
X-0000096Y0106125D01*
X-0000195Y0106003D01*
X-0000298Y0105883D01*
X-0000403Y0105765D01*
X-0000511Y0105651D01*
X-0000623Y0105539D01*
X-0000737Y0105430D01*
X-0000853Y0105324D01*
X-0000973Y0105221D01*
X-0001094Y0105121D01*
X-0001219Y0105024D01*
X-0001346Y0104930D01*
X-0001475Y0104839D01*
X-0001606Y0104752D01*
X-0001739Y0104668D01*
X-0001875Y0104587D01*
X-0002013Y0104510D01*
X-0002152Y0104437D01*
X-0002293Y0104367D01*
X-0002436Y0104300D01*
X-0002581Y0104237D01*
X-0002727Y0104178D01*
X-0002875Y0104122D01*
X-0003024Y0104071D01*
X-0003174Y0104023D01*
X-0003325Y0103979D01*
X-0003478Y0103938D01*
X-0003631Y0103902D01*
X-0003786Y0103869D01*
X-0003941Y0103840D01*
X-0004096Y0103816D01*
X-0004253Y0103795D01*
X-0004409Y0103778D01*
X-0004567Y0103765D01*
X-0004724Y0103756D01*
X-0004882Y0103751D01*
X-0005039Y0103750D01*
X-0005197Y0103753D01*
X-0005355Y0103760D01*
X-0005512Y0103771D01*
X-0005669Y0103786D01*
X-0005826Y0103805D01*
X-0005982Y0103828D01*
X-0006137Y0103854D01*
X-0006292Y0103885D01*
X-0006446Y0103919D01*
X-0006599Y0103958D01*
X-0006751Y0104000D01*
X-0006901Y0104046D01*
X-0007051Y0104096D01*
X-0007199Y0104150D01*
X-0007346Y0104207D01*
X-0007492Y0104268D01*
X-0007635Y0104333D01*
X-0007778Y0104401D01*
X-0007918Y0104473D01*
X-0008056Y0104548D01*
X-0008193Y0104627D01*
X-0008328Y0104709D01*
X-0008460Y0104795D01*
X-0008590Y0104884D01*
X-0008718Y0104976D01*
X-0008844Y0105072D01*
X-0008967Y0105170D01*
X-0009087Y0105272D01*
X-0009205Y0105377D01*
X-0009321Y0105484D01*
X-0009433Y0105595D01*
X-0009543Y0105708D01*
X-0009650Y0105824D01*
X-0009754Y0105942D01*
X-0009855Y0106064D01*
X-0009952Y0106187D01*
X-0010047Y0106314D01*
X-0010138Y0106442D01*
X-0010227Y0106573D01*
X-0010311Y0106706D01*
X-0010393Y0106841D01*
X-0010471Y0106978D01*
X-0010545Y0107117D01*
X-0010616Y0107258D01*
X-0010684Y0107400D01*
X-0010747Y0107545D01*
X-0010808Y0107690D01*
X-0010864Y0107838D01*
X-0010917Y0107986D01*
X-0010966Y0108136D01*
X-0011011Y0108287D01*
X-0011052Y0108440D01*
X-0011090Y0108593D01*
X-0011123Y0108747D01*
X-0011153Y0108902D01*
X-0011179Y0109057D01*
X-0011200Y0109214D01*
X-0011218Y0109370D01*
X-0011232Y0109527D01*
X-0011242Y0109685D01*
X-0011248Y0109842D01*
X-0011250Y0110000D01*
X0198750Y0110000D02*
X0198752Y0110158D01*
X0198758Y0110315D01*
X0198768Y0110473D01*
X0198782Y0110630D01*
X0198800Y0110786D01*
X0198821Y0110943D01*
X0198847Y0111098D01*
X0198877Y0111253D01*
X0198910Y0111407D01*
X0198948Y0111560D01*
X0198989Y0111713D01*
X0199034Y0111864D01*
X0199083Y0112014D01*
X0199136Y0112162D01*
X0199192Y0112310D01*
X0199253Y0112455D01*
X0199316Y0112600D01*
X0199384Y0112742D01*
X0199455Y0112883D01*
X0199529Y0113022D01*
X0199607Y0113159D01*
X0199689Y0113294D01*
X0199773Y0113427D01*
X0199862Y0113558D01*
X0199953Y0113686D01*
X0200048Y0113813D01*
X0200145Y0113936D01*
X0200246Y0114058D01*
X0200350Y0114176D01*
X0200457Y0114292D01*
X0200567Y0114405D01*
X0200679Y0114516D01*
X0200795Y0114623D01*
X0200913Y0114728D01*
X0201033Y0114830D01*
X0201156Y0114928D01*
X0201282Y0115024D01*
X0201410Y0115116D01*
X0201540Y0115205D01*
X0201672Y0115291D01*
X0201807Y0115373D01*
X0201944Y0115452D01*
X0202082Y0115527D01*
X0202222Y0115599D01*
X0202365Y0115667D01*
X0202508Y0115732D01*
X0202654Y0115793D01*
X0202801Y0115850D01*
X0202949Y0115904D01*
X0203099Y0115954D01*
X0203249Y0116000D01*
X0203401Y0116042D01*
X0203554Y0116081D01*
X0203708Y0116115D01*
X0203863Y0116146D01*
X0204018Y0116172D01*
X0204174Y0116195D01*
X0204331Y0116214D01*
X0204488Y0116229D01*
X0204645Y0116240D01*
X0204803Y0116247D01*
X0204961Y0116250D01*
X0205118Y0116249D01*
X0205276Y0116244D01*
X0205433Y0116235D01*
X0205591Y0116222D01*
X0205747Y0116205D01*
X0205904Y0116184D01*
X0206059Y0116160D01*
X0206214Y0116131D01*
X0206369Y0116098D01*
X0206522Y0116062D01*
X0206675Y0116021D01*
X0206826Y0115977D01*
X0206976Y0115929D01*
X0207125Y0115878D01*
X0207273Y0115822D01*
X0207419Y0115763D01*
X0207564Y0115700D01*
X0207707Y0115633D01*
X0207848Y0115563D01*
X0207987Y0115490D01*
X0208125Y0115413D01*
X0208261Y0115332D01*
X0208394Y0115248D01*
X0208525Y0115161D01*
X0208654Y0115070D01*
X0208781Y0114976D01*
X0208906Y0114879D01*
X0209027Y0114779D01*
X0209147Y0114676D01*
X0209263Y0114570D01*
X0209377Y0114461D01*
X0209489Y0114349D01*
X0209597Y0114235D01*
X0209702Y0114117D01*
X0209805Y0113997D01*
X0209904Y0113875D01*
X0210000Y0113750D01*
X0210093Y0113622D01*
X0210183Y0113493D01*
X0210269Y0113361D01*
X0210353Y0113227D01*
X0210432Y0113091D01*
X0210509Y0112953D01*
X0210581Y0112813D01*
X0210650Y0112671D01*
X0210716Y0112528D01*
X0210778Y0112383D01*
X0210836Y0112236D01*
X0210891Y0112088D01*
X0210942Y0111939D01*
X0210989Y0111788D01*
X0211032Y0111637D01*
X0211071Y0111484D01*
X0211107Y0111330D01*
X0211138Y0111176D01*
X0211166Y0111021D01*
X0211190Y0110865D01*
X0211210Y0110708D01*
X0211226Y0110551D01*
X0211238Y0110394D01*
X0211246Y0110237D01*
X0211250Y0110079D01*
X0211250Y0109921D01*
X0211246Y0109763D01*
X0211238Y0109606D01*
X0211226Y0109449D01*
X0211210Y0109292D01*
X0211190Y0109135D01*
X0211166Y0108979D01*
X0211138Y0108824D01*
X0211107Y0108670D01*
X0211071Y0108516D01*
X0211032Y0108363D01*
X0210989Y0108212D01*
X0210942Y0108061D01*
X0210891Y0107912D01*
X0210836Y0107764D01*
X0210778Y0107617D01*
X0210716Y0107472D01*
X0210650Y0107329D01*
X0210581Y0107187D01*
X0210509Y0107047D01*
X0210432Y0106909D01*
X0210353Y0106773D01*
X0210269Y0106639D01*
X0210183Y0106507D01*
X0210093Y0106378D01*
X0210000Y0106250D01*
X0209904Y0106125D01*
X0209805Y0106003D01*
X0209702Y0105883D01*
X0209597Y0105765D01*
X0209489Y0105651D01*
X0209377Y0105539D01*
X0209263Y0105430D01*
X0209147Y0105324D01*
X0209027Y0105221D01*
X0208906Y0105121D01*
X0208781Y0105024D01*
X0208654Y0104930D01*
X0208525Y0104839D01*
X0208394Y0104752D01*
X0208261Y0104668D01*
X0208125Y0104587D01*
X0207987Y0104510D01*
X0207848Y0104437D01*
X0207707Y0104367D01*
X0207564Y0104300D01*
X0207419Y0104237D01*
X0207273Y0104178D01*
X0207125Y0104122D01*
X0206976Y0104071D01*
X0206826Y0104023D01*
X0206675Y0103979D01*
X0206522Y0103938D01*
X0206369Y0103902D01*
X0206214Y0103869D01*
X0206059Y0103840D01*
X0205904Y0103816D01*
X0205747Y0103795D01*
X0205591Y0103778D01*
X0205433Y0103765D01*
X0205276Y0103756D01*
X0205118Y0103751D01*
X0204961Y0103750D01*
X0204803Y0103753D01*
X0204645Y0103760D01*
X0204488Y0103771D01*
X0204331Y0103786D01*
X0204174Y0103805D01*
X0204018Y0103828D01*
X0203863Y0103854D01*
X0203708Y0103885D01*
X0203554Y0103919D01*
X0203401Y0103958D01*
X0203249Y0104000D01*
X0203099Y0104046D01*
X0202949Y0104096D01*
X0202801Y0104150D01*
X0202654Y0104207D01*
X0202508Y0104268D01*
X0202365Y0104333D01*
X0202222Y0104401D01*
X0202082Y0104473D01*
X0201944Y0104548D01*
X0201807Y0104627D01*
X0201672Y0104709D01*
X0201540Y0104795D01*
X0201410Y0104884D01*
X0201282Y0104976D01*
X0201156Y0105072D01*
X0201033Y0105170D01*
X0200913Y0105272D01*
X0200795Y0105377D01*
X0200679Y0105484D01*
X0200567Y0105595D01*
X0200457Y0105708D01*
X0200350Y0105824D01*
X0200246Y0105942D01*
X0200145Y0106064D01*
X0200048Y0106187D01*
X0199953Y0106314D01*
X0199862Y0106442D01*
X0199773Y0106573D01*
X0199689Y0106706D01*
X0199607Y0106841D01*
X0199529Y0106978D01*
X0199455Y0107117D01*
X0199384Y0107258D01*
X0199316Y0107400D01*
X0199253Y0107545D01*
X0199192Y0107690D01*
X0199136Y0107838D01*
X0199083Y0107986D01*
X0199034Y0108136D01*
X0198989Y0108287D01*
X0198948Y0108440D01*
X0198910Y0108593D01*
X0198877Y0108747D01*
X0198847Y0108902D01*
X0198821Y0109057D01*
X0198800Y0109214D01*
X0198782Y0109370D01*
X0198768Y0109527D01*
X0198758Y0109685D01*
X0198752Y0109842D01*
X0198750Y0110000D01*
X0198750Y-0270000D02*
X0198752Y-0269842D01*
X0198758Y-0269685D01*
X0198768Y-0269527D01*
X0198782Y-0269370D01*
X0198800Y-0269214D01*
X0198821Y-0269057D01*
X0198847Y-0268902D01*
X0198877Y-0268747D01*
X0198910Y-0268593D01*
X0198948Y-0268440D01*
X0198989Y-0268287D01*
X0199034Y-0268136D01*
X0199083Y-0267986D01*
X0199136Y-0267838D01*
X0199192Y-0267690D01*
X0199253Y-0267545D01*
X0199316Y-0267400D01*
X0199384Y-0267258D01*
X0199455Y-0267117D01*
X0199529Y-0266978D01*
X0199607Y-0266841D01*
X0199689Y-0266706D01*
X0199773Y-0266573D01*
X0199862Y-0266442D01*
X0199953Y-0266314D01*
X0200048Y-0266187D01*
X0200145Y-0266064D01*
X0200246Y-0265942D01*
X0200350Y-0265824D01*
X0200457Y-0265708D01*
X0200567Y-0265595D01*
X0200679Y-0265484D01*
X0200795Y-0265377D01*
X0200913Y-0265272D01*
X0201033Y-0265170D01*
X0201156Y-0265072D01*
X0201282Y-0264976D01*
X0201410Y-0264884D01*
X0201540Y-0264795D01*
X0201672Y-0264709D01*
X0201807Y-0264627D01*
X0201944Y-0264548D01*
X0202082Y-0264473D01*
X0202222Y-0264401D01*
X0202365Y-0264333D01*
X0202508Y-0264268D01*
X0202654Y-0264207D01*
X0202801Y-0264150D01*
X0202949Y-0264096D01*
X0203099Y-0264046D01*
X0203249Y-0264000D01*
X0203401Y-0263958D01*
X0203554Y-0263919D01*
X0203708Y-0263885D01*
X0203863Y-0263854D01*
X0204018Y-0263828D01*
X0204174Y-0263805D01*
X0204331Y-0263786D01*
X0204488Y-0263771D01*
X0204645Y-0263760D01*
X0204803Y-0263753D01*
X0204961Y-0263750D01*
X0205118Y-0263751D01*
X0205276Y-0263756D01*
X0205433Y-0263765D01*
X0205591Y-0263778D01*
X0205747Y-0263795D01*
X0205904Y-0263816D01*
X0206059Y-0263840D01*
X0206214Y-0263869D01*
X0206369Y-0263902D01*
X0206522Y-0263938D01*
X0206675Y-0263979D01*
X0206826Y-0264023D01*
X0206976Y-0264071D01*
X0207125Y-0264122D01*
X0207273Y-0264178D01*
X0207419Y-0264237D01*
X0207564Y-0264300D01*
X0207707Y-0264367D01*
X0207848Y-0264437D01*
X0207987Y-0264510D01*
X0208125Y-0264587D01*
X0208261Y-0264668D01*
X0208394Y-0264752D01*
X0208525Y-0264839D01*
X0208654Y-0264930D01*
X0208781Y-0265024D01*
X0208906Y-0265121D01*
X0209027Y-0265221D01*
X0209147Y-0265324D01*
X0209263Y-0265430D01*
X0209377Y-0265539D01*
X0209489Y-0265651D01*
X0209597Y-0265765D01*
X0209702Y-0265883D01*
X0209805Y-0266003D01*
X0209904Y-0266125D01*
X0210000Y-0266250D01*
X0210093Y-0266378D01*
X0210183Y-0266507D01*
X0210269Y-0266639D01*
X0210353Y-0266773D01*
X0210432Y-0266909D01*
X0210509Y-0267047D01*
X0210581Y-0267187D01*
X0210650Y-0267329D01*
X0210716Y-0267472D01*
X0210778Y-0267617D01*
X0210836Y-0267764D01*
X0210891Y-0267912D01*
X0210942Y-0268061D01*
X0210989Y-0268212D01*
X0211032Y-0268363D01*
X0211071Y-0268516D01*
X0211107Y-0268670D01*
X0211138Y-0268824D01*
X0211166Y-0268979D01*
X0211190Y-0269135D01*
X0211210Y-0269292D01*
X0211226Y-0269449D01*
X0211238Y-0269606D01*
X0211246Y-0269763D01*
X0211250Y-0269921D01*
X0211250Y-0270079D01*
X0211246Y-0270237D01*
X0211238Y-0270394D01*
X0211226Y-0270551D01*
X0211210Y-0270708D01*
X0211190Y-0270865D01*
X0211166Y-0271021D01*
X0211138Y-0271176D01*
X0211107Y-0271330D01*
X0211071Y-0271484D01*
X0211032Y-0271637D01*
X0210989Y-0271788D01*
X0210942Y-0271939D01*
X0210891Y-0272088D01*
X0210836Y-0272236D01*
X0210778Y-0272383D01*
X0210716Y-0272528D01*
X0210650Y-0272671D01*
X0210581Y-0272813D01*
X0210509Y-0272953D01*
X0210432Y-0273091D01*
X0210353Y-0273227D01*
X0210269Y-0273361D01*
X0210183Y-0273493D01*
X0210093Y-0273622D01*
X0210000Y-0273750D01*
X0209904Y-0273875D01*
X0209805Y-0273997D01*
X0209702Y-0274117D01*
X0209597Y-0274235D01*
X0209489Y-0274349D01*
X0209377Y-0274461D01*
X0209263Y-0274570D01*
X0209147Y-0274676D01*
X0209027Y-0274779D01*
X0208906Y-0274879D01*
X0208781Y-0274976D01*
X0208654Y-0275070D01*
X0208525Y-0275161D01*
X0208394Y-0275248D01*
X0208261Y-0275332D01*
X0208125Y-0275413D01*
X0207987Y-0275490D01*
X0207848Y-0275563D01*
X0207707Y-0275633D01*
X0207564Y-0275700D01*
X0207419Y-0275763D01*
X0207273Y-0275822D01*
X0207125Y-0275878D01*
X0206976Y-0275929D01*
X0206826Y-0275977D01*
X0206675Y-0276021D01*
X0206522Y-0276062D01*
X0206369Y-0276098D01*
X0206214Y-0276131D01*
X0206059Y-0276160D01*
X0205904Y-0276184D01*
X0205747Y-0276205D01*
X0205591Y-0276222D01*
X0205433Y-0276235D01*
X0205276Y-0276244D01*
X0205118Y-0276249D01*
X0204961Y-0276250D01*
X0204803Y-0276247D01*
X0204645Y-0276240D01*
X0204488Y-0276229D01*
X0204331Y-0276214D01*
X0204174Y-0276195D01*
X0204018Y-0276172D01*
X0203863Y-0276146D01*
X0203708Y-0276115D01*
X0203554Y-0276081D01*
X0203401Y-0276042D01*
X0203249Y-0276000D01*
X0203099Y-0275954D01*
X0202949Y-0275904D01*
X0202801Y-0275850D01*
X0202654Y-0275793D01*
X0202508Y-0275732D01*
X0202365Y-0275667D01*
X0202222Y-0275599D01*
X0202082Y-0275527D01*
X0201944Y-0275452D01*
X0201807Y-0275373D01*
X0201672Y-0275291D01*
X0201540Y-0275205D01*
X0201410Y-0275116D01*
X0201282Y-0275024D01*
X0201156Y-0274928D01*
X0201033Y-0274830D01*
X0200913Y-0274728D01*
X0200795Y-0274623D01*
X0200679Y-0274516D01*
X0200567Y-0274405D01*
X0200457Y-0274292D01*
X0200350Y-0274176D01*
X0200246Y-0274058D01*
X0200145Y-0273936D01*
X0200048Y-0273813D01*
X0199953Y-0273686D01*
X0199862Y-0273558D01*
X0199773Y-0273427D01*
X0199689Y-0273294D01*
X0199607Y-0273159D01*
X0199529Y-0273022D01*
X0199455Y-0272883D01*
X0199384Y-0272742D01*
X0199316Y-0272600D01*
X0199253Y-0272455D01*
X0199192Y-0272310D01*
X0199136Y-0272162D01*
X0199083Y-0272014D01*
X0199034Y-0271864D01*
X0198989Y-0271713D01*
X0198948Y-0271560D01*
X0198910Y-0271407D01*
X0198877Y-0271253D01*
X0198847Y-0271098D01*
X0198821Y-0270943D01*
X0198800Y-0270786D01*
X0198782Y-0270630D01*
X0198768Y-0270473D01*
X0198758Y-0270315D01*
X0198752Y-0270158D01*
X0198750Y-0270000D01*
X-0011250Y-0270000D02*
X-0011248Y-0269842D01*
X-0011242Y-0269685D01*
X-0011232Y-0269527D01*
X-0011218Y-0269370D01*
X-0011200Y-0269214D01*
X-0011179Y-0269057D01*
X-0011153Y-0268902D01*
X-0011123Y-0268747D01*
X-0011090Y-0268593D01*
X-0011052Y-0268440D01*
X-0011011Y-0268287D01*
X-0010966Y-0268136D01*
X-0010917Y-0267986D01*
X-0010864Y-0267838D01*
X-0010808Y-0267690D01*
X-0010747Y-0267545D01*
X-0010684Y-0267400D01*
X-0010616Y-0267258D01*
X-0010545Y-0267117D01*
X-0010471Y-0266978D01*
X-0010393Y-0266841D01*
X-0010311Y-0266706D01*
X-0010227Y-0266573D01*
X-0010138Y-0266442D01*
X-0010047Y-0266314D01*
X-0009952Y-0266187D01*
X-0009855Y-0266064D01*
X-0009754Y-0265942D01*
X-0009650Y-0265824D01*
X-0009543Y-0265708D01*
X-0009433Y-0265595D01*
X-0009321Y-0265484D01*
X-0009205Y-0265377D01*
X-0009087Y-0265272D01*
X-0008967Y-0265170D01*
X-0008844Y-0265072D01*
X-0008718Y-0264976D01*
X-0008590Y-0264884D01*
X-0008460Y-0264795D01*
X-0008328Y-0264709D01*
X-0008193Y-0264627D01*
X-0008056Y-0264548D01*
X-0007918Y-0264473D01*
X-0007778Y-0264401D01*
X-0007635Y-0264333D01*
X-0007492Y-0264268D01*
X-0007346Y-0264207D01*
X-0007199Y-0264150D01*
X-0007051Y-0264096D01*
X-0006901Y-0264046D01*
X-0006751Y-0264000D01*
X-0006599Y-0263958D01*
X-0006446Y-0263919D01*
X-0006292Y-0263885D01*
X-0006137Y-0263854D01*
X-0005982Y-0263828D01*
X-0005826Y-0263805D01*
X-0005669Y-0263786D01*
X-0005512Y-0263771D01*
X-0005355Y-0263760D01*
X-0005197Y-0263753D01*
X-0005039Y-0263750D01*
X-0004882Y-0263751D01*
X-0004724Y-0263756D01*
X-0004567Y-0263765D01*
X-0004409Y-0263778D01*
X-0004253Y-0263795D01*
X-0004096Y-0263816D01*
X-0003941Y-0263840D01*
X-0003786Y-0263869D01*
X-0003631Y-0263902D01*
X-0003478Y-0263938D01*
X-0003325Y-0263979D01*
X-0003174Y-0264023D01*
X-0003024Y-0264071D01*
X-0002875Y-0264122D01*
X-0002727Y-0264178D01*
X-0002581Y-0264237D01*
X-0002436Y-0264300D01*
X-0002293Y-0264367D01*
X-0002152Y-0264437D01*
X-0002013Y-0264510D01*
X-0001875Y-0264587D01*
X-0001739Y-0264668D01*
X-0001606Y-0264752D01*
X-0001475Y-0264839D01*
X-0001346Y-0264930D01*
X-0001219Y-0265024D01*
X-0001094Y-0265121D01*
X-0000973Y-0265221D01*
X-0000853Y-0265324D01*
X-0000737Y-0265430D01*
X-0000623Y-0265539D01*
X-0000511Y-0265651D01*
X-0000403Y-0265765D01*
X-0000298Y-0265883D01*
X-0000195Y-0266003D01*
X-0000096Y-0266125D01*
X0000000Y-0266250D01*
X0000093Y-0266378D01*
X0000183Y-0266507D01*
X0000269Y-0266639D01*
X0000353Y-0266773D01*
X0000432Y-0266909D01*
X0000509Y-0267047D01*
X0000581Y-0267187D01*
X0000650Y-0267329D01*
X0000716Y-0267472D01*
X0000778Y-0267617D01*
X0000836Y-0267764D01*
X0000891Y-0267912D01*
X0000942Y-0268061D01*
X0000989Y-0268212D01*
X0001032Y-0268363D01*
X0001071Y-0268516D01*
X0001107Y-0268670D01*
X0001138Y-0268824D01*
X0001166Y-0268979D01*
X0001190Y-0269135D01*
X0001210Y-0269292D01*
X0001226Y-0269449D01*
X0001238Y-0269606D01*
X0001246Y-0269763D01*
X0001250Y-0269921D01*
X0001250Y-0270079D01*
X0001246Y-0270237D01*
X0001238Y-0270394D01*
X0001226Y-0270551D01*
X0001210Y-0270708D01*
X0001190Y-0270865D01*
X0001166Y-0271021D01*
X0001138Y-0271176D01*
X0001107Y-0271330D01*
X0001071Y-0271484D01*
X0001032Y-0271637D01*
X0000989Y-0271788D01*
X0000942Y-0271939D01*
X0000891Y-0272088D01*
X0000836Y-0272236D01*
X0000778Y-0272383D01*
X0000716Y-0272528D01*
X0000650Y-0272671D01*
X0000581Y-0272813D01*
X0000509Y-0272953D01*
X0000432Y-0273091D01*
X0000353Y-0273227D01*
X0000269Y-0273361D01*
X0000183Y-0273493D01*
X0000093Y-0273622D01*
X0000000Y-0273750D01*
X-0000096Y-0273875D01*
X-0000195Y-0273997D01*
X-0000298Y-0274117D01*
X-0000403Y-0274235D01*
X-0000511Y-0274349D01*
X-0000623Y-0274461D01*
X-0000737Y-0274570D01*
X-0000853Y-0274676D01*
X-0000973Y-0274779D01*
X-0001094Y-0274879D01*
X-0001219Y-0274976D01*
X-0001346Y-0275070D01*
X-0001475Y-0275161D01*
X-0001606Y-0275248D01*
X-0001739Y-0275332D01*
X-0001875Y-0275413D01*
X-0002013Y-0275490D01*
X-0002152Y-0275563D01*
X-0002293Y-0275633D01*
X-0002436Y-0275700D01*
X-0002581Y-0275763D01*
X-0002727Y-0275822D01*
X-0002875Y-0275878D01*
X-0003024Y-0275929D01*
X-0003174Y-0275977D01*
X-0003325Y-0276021D01*
X-0003478Y-0276062D01*
X-0003631Y-0276098D01*
X-0003786Y-0276131D01*
X-0003941Y-0276160D01*
X-0004096Y-0276184D01*
X-0004253Y-0276205D01*
X-0004409Y-0276222D01*
X-0004567Y-0276235D01*
X-0004724Y-0276244D01*
X-0004882Y-0276249D01*
X-0005039Y-0276250D01*
X-0005197Y-0276247D01*
X-0005355Y-0276240D01*
X-0005512Y-0276229D01*
X-0005669Y-0276214D01*
X-0005826Y-0276195D01*
X-0005982Y-0276172D01*
X-0006137Y-0276146D01*
X-0006292Y-0276115D01*
X-0006446Y-0276081D01*
X-0006599Y-0276042D01*
X-0006751Y-0276000D01*
X-0006901Y-0275954D01*
X-0007051Y-0275904D01*
X-0007199Y-0275850D01*
X-0007346Y-0275793D01*
X-0007492Y-0275732D01*
X-0007635Y-0275667D01*
X-0007778Y-0275599D01*
X-0007918Y-0275527D01*
X-0008056Y-0275452D01*
X-0008193Y-0275373D01*
X-0008328Y-0275291D01*
X-0008460Y-0275205D01*
X-0008590Y-0275116D01*
X-0008718Y-0275024D01*
X-0008844Y-0274928D01*
X-0008967Y-0274830D01*
X-0009087Y-0274728D01*
X-0009205Y-0274623D01*
X-0009321Y-0274516D01*
X-0009433Y-0274405D01*
X-0009543Y-0274292D01*
X-0009650Y-0274176D01*
X-0009754Y-0274058D01*
X-0009855Y-0273936D01*
X-0009952Y-0273813D01*
X-0010047Y-0273686D01*
X-0010138Y-0273558D01*
X-0010227Y-0273427D01*
X-0010311Y-0273294D01*
X-0010393Y-0273159D01*
X-0010471Y-0273022D01*
X-0010545Y-0272883D01*
X-0010616Y-0272742D01*
X-0010684Y-0272600D01*
X-0010747Y-0272455D01*
X-0010808Y-0272310D01*
X-0010864Y-0272162D01*
X-0010917Y-0272014D01*
X-0010966Y-0271864D01*
X-0011011Y-0271713D01*
X-0011052Y-0271560D01*
X-0011090Y-0271407D01*
X-0011123Y-0271253D01*
X-0011153Y-0271098D01*
X-0011179Y-0270943D01*
X-0011200Y-0270786D01*
X-0011218Y-0270630D01*
X-0011232Y-0270473D01*
X-0011242Y-0270315D01*
X-0011248Y-0270158D01*
X-0011250Y-0270000D01*
M02*
