G75*
%MOIN*%
%OFA0B0*%
%FSLAX25Y25*%
%IPPOS*%
%LPD*%
%AMOC8*
5,1,8,0,0,1.08239X$1,22.5*
%
%ADD10C,0.01000*%
%ADD11C,0.00512*%
%ADD12C,0.02100*%
%ADD13C,0.00000*%
D10*
X0011013Y0023459D02*
X0011113Y0353459D01*
X0241113Y0353459D01*
X0241013Y0023459D01*
X0011013Y0023459D01*
D11*
X0241113Y0023459D02*
X0318790Y0023459D01*
X0311113Y0023715D02*
X0312136Y0033696D01*
X0312370Y0033696D02*
X0311113Y0023715D01*
X0310089Y0033696D01*
X0309856Y0033696D02*
X0312370Y0033696D01*
X0311625Y0033696D02*
X0311113Y0023715D01*
X0310601Y0033696D01*
X0309856Y0033696D02*
X0311113Y0023715D01*
X0311113Y0353203D01*
X0312136Y0343223D01*
X0312370Y0343223D02*
X0311113Y0353203D01*
X0310089Y0343223D01*
X0309856Y0343223D02*
X0312370Y0343223D01*
X0311625Y0343223D02*
X0311113Y0353203D01*
X0310601Y0343223D01*
X0309856Y0343223D02*
X0311113Y0353203D01*
X0318790Y0353459D02*
X0241113Y0353459D01*
X0241113Y0411137D01*
X0240857Y0403459D02*
X0230877Y0402436D01*
X0230877Y0402202D02*
X0240857Y0403459D01*
X0230877Y0404483D01*
X0230877Y0404716D02*
X0230877Y0402202D01*
X0230877Y0402948D02*
X0240857Y0403459D01*
X0230877Y0403971D01*
X0230877Y0404716D02*
X0240857Y0403459D01*
X0011369Y0403459D01*
X0021349Y0402436D01*
X0021349Y0402202D02*
X0011369Y0403459D01*
X0021349Y0404483D01*
X0021349Y0404716D02*
X0021349Y0402202D01*
X0021349Y0402948D02*
X0011369Y0403459D01*
X0021349Y0403971D01*
X0021349Y0404716D02*
X0011369Y0403459D01*
X0011113Y0411137D02*
X0011113Y0353459D01*
D12*
X0105235Y0408471D02*
X0113041Y0416278D01*
X0113041Y0418229D01*
X0111090Y0420181D01*
X0107186Y0420181D01*
X0105235Y0418229D01*
X0105235Y0408471D02*
X0113041Y0408471D01*
X0117942Y0410423D02*
X0119893Y0408471D01*
X0123797Y0408471D01*
X0125748Y0410423D01*
X0125748Y0412374D01*
X0123797Y0414326D01*
X0121845Y0414326D01*
X0123797Y0414326D02*
X0125748Y0416278D01*
X0125748Y0418229D01*
X0123797Y0420181D01*
X0119893Y0420181D01*
X0117942Y0418229D01*
X0130648Y0418229D02*
X0130648Y0410423D01*
X0138455Y0418229D01*
X0138455Y0410423D01*
X0136503Y0408471D01*
X0132600Y0408471D01*
X0130648Y0410423D01*
X0130648Y0418229D02*
X0132600Y0420181D01*
X0136503Y0420181D01*
X0138455Y0418229D01*
X0143355Y0418229D02*
X0143355Y0410423D01*
X0151162Y0418229D01*
X0151162Y0410423D01*
X0149210Y0408471D01*
X0145307Y0408471D01*
X0143355Y0410423D01*
X0143355Y0418229D02*
X0145307Y0420181D01*
X0149210Y0420181D01*
X0151162Y0418229D01*
X0296343Y0213508D02*
X0304149Y0205702D01*
X0306101Y0207653D01*
X0306101Y0211557D01*
X0304149Y0213508D01*
X0296343Y0213508D01*
X0294391Y0211557D01*
X0294391Y0207653D01*
X0296343Y0205702D01*
X0304149Y0205702D01*
X0304149Y0200802D02*
X0306101Y0198850D01*
X0306101Y0194947D01*
X0304149Y0192995D01*
X0296343Y0200802D01*
X0304149Y0200802D01*
X0304149Y0192995D02*
X0296343Y0192995D01*
X0294391Y0194947D01*
X0294391Y0198850D01*
X0296343Y0200802D01*
X0296343Y0188095D02*
X0298294Y0188095D01*
X0300246Y0186143D01*
X0302198Y0188095D01*
X0304149Y0188095D01*
X0306101Y0186143D01*
X0306101Y0182240D01*
X0304149Y0180288D01*
X0304149Y0175388D02*
X0302198Y0175388D01*
X0300246Y0173436D01*
X0300246Y0171485D01*
X0300246Y0173436D02*
X0298294Y0175388D01*
X0296343Y0175388D01*
X0294391Y0173436D01*
X0294391Y0169533D01*
X0296343Y0167581D01*
X0304149Y0167581D02*
X0306101Y0169533D01*
X0306101Y0173436D01*
X0304149Y0175388D01*
X0300246Y0184191D02*
X0300246Y0186143D01*
X0296343Y0188095D02*
X0294391Y0186143D01*
X0294391Y0182240D01*
X0296343Y0180288D01*
D13*
X0224863Y0033459D02*
X0224865Y0033617D01*
X0224871Y0033774D01*
X0224881Y0033932D01*
X0224895Y0034089D01*
X0224913Y0034245D01*
X0224934Y0034402D01*
X0224960Y0034557D01*
X0224990Y0034712D01*
X0225023Y0034866D01*
X0225061Y0035019D01*
X0225102Y0035172D01*
X0225147Y0035323D01*
X0225196Y0035473D01*
X0225249Y0035621D01*
X0225305Y0035769D01*
X0225366Y0035914D01*
X0225429Y0036059D01*
X0225497Y0036201D01*
X0225568Y0036342D01*
X0225642Y0036481D01*
X0225720Y0036618D01*
X0225802Y0036753D01*
X0225886Y0036886D01*
X0225975Y0037017D01*
X0226066Y0037145D01*
X0226161Y0037272D01*
X0226258Y0037395D01*
X0226359Y0037517D01*
X0226463Y0037635D01*
X0226570Y0037751D01*
X0226680Y0037864D01*
X0226792Y0037975D01*
X0226908Y0038082D01*
X0227026Y0038187D01*
X0227146Y0038289D01*
X0227269Y0038387D01*
X0227395Y0038483D01*
X0227523Y0038575D01*
X0227653Y0038664D01*
X0227785Y0038750D01*
X0227920Y0038832D01*
X0228057Y0038911D01*
X0228195Y0038986D01*
X0228335Y0039058D01*
X0228478Y0039126D01*
X0228621Y0039191D01*
X0228767Y0039252D01*
X0228914Y0039309D01*
X0229062Y0039363D01*
X0229212Y0039413D01*
X0229362Y0039459D01*
X0229514Y0039501D01*
X0229667Y0039540D01*
X0229821Y0039574D01*
X0229976Y0039605D01*
X0230131Y0039631D01*
X0230287Y0039654D01*
X0230444Y0039673D01*
X0230601Y0039688D01*
X0230758Y0039699D01*
X0230916Y0039706D01*
X0231074Y0039709D01*
X0231231Y0039708D01*
X0231389Y0039703D01*
X0231546Y0039694D01*
X0231704Y0039681D01*
X0231860Y0039664D01*
X0232017Y0039643D01*
X0232172Y0039619D01*
X0232327Y0039590D01*
X0232482Y0039557D01*
X0232635Y0039521D01*
X0232788Y0039480D01*
X0232939Y0039436D01*
X0233089Y0039388D01*
X0233238Y0039337D01*
X0233386Y0039281D01*
X0233532Y0039222D01*
X0233677Y0039159D01*
X0233820Y0039092D01*
X0233961Y0039022D01*
X0234100Y0038949D01*
X0234238Y0038872D01*
X0234374Y0038791D01*
X0234507Y0038707D01*
X0234638Y0038620D01*
X0234767Y0038529D01*
X0234894Y0038435D01*
X0235019Y0038338D01*
X0235140Y0038238D01*
X0235260Y0038135D01*
X0235376Y0038029D01*
X0235490Y0037920D01*
X0235602Y0037808D01*
X0235710Y0037694D01*
X0235815Y0037576D01*
X0235918Y0037456D01*
X0236017Y0037334D01*
X0236113Y0037209D01*
X0236206Y0037081D01*
X0236296Y0036952D01*
X0236382Y0036820D01*
X0236466Y0036686D01*
X0236545Y0036550D01*
X0236622Y0036412D01*
X0236694Y0036272D01*
X0236763Y0036130D01*
X0236829Y0035987D01*
X0236891Y0035842D01*
X0236949Y0035695D01*
X0237004Y0035547D01*
X0237055Y0035398D01*
X0237102Y0035247D01*
X0237145Y0035096D01*
X0237184Y0034943D01*
X0237220Y0034789D01*
X0237251Y0034635D01*
X0237279Y0034480D01*
X0237303Y0034324D01*
X0237323Y0034167D01*
X0237339Y0034010D01*
X0237351Y0033853D01*
X0237359Y0033696D01*
X0237363Y0033538D01*
X0237363Y0033380D01*
X0237359Y0033222D01*
X0237351Y0033065D01*
X0237339Y0032908D01*
X0237323Y0032751D01*
X0237303Y0032594D01*
X0237279Y0032438D01*
X0237251Y0032283D01*
X0237220Y0032129D01*
X0237184Y0031975D01*
X0237145Y0031822D01*
X0237102Y0031671D01*
X0237055Y0031520D01*
X0237004Y0031371D01*
X0236949Y0031223D01*
X0236891Y0031076D01*
X0236829Y0030931D01*
X0236763Y0030788D01*
X0236694Y0030646D01*
X0236622Y0030506D01*
X0236545Y0030368D01*
X0236466Y0030232D01*
X0236382Y0030098D01*
X0236296Y0029966D01*
X0236206Y0029837D01*
X0236113Y0029709D01*
X0236017Y0029584D01*
X0235918Y0029462D01*
X0235815Y0029342D01*
X0235710Y0029224D01*
X0235602Y0029110D01*
X0235490Y0028998D01*
X0235376Y0028889D01*
X0235260Y0028783D01*
X0235140Y0028680D01*
X0235019Y0028580D01*
X0234894Y0028483D01*
X0234767Y0028389D01*
X0234638Y0028298D01*
X0234507Y0028211D01*
X0234374Y0028127D01*
X0234238Y0028046D01*
X0234100Y0027969D01*
X0233961Y0027896D01*
X0233820Y0027826D01*
X0233677Y0027759D01*
X0233532Y0027696D01*
X0233386Y0027637D01*
X0233238Y0027581D01*
X0233089Y0027530D01*
X0232939Y0027482D01*
X0232788Y0027438D01*
X0232635Y0027397D01*
X0232482Y0027361D01*
X0232327Y0027328D01*
X0232172Y0027299D01*
X0232017Y0027275D01*
X0231860Y0027254D01*
X0231704Y0027237D01*
X0231546Y0027224D01*
X0231389Y0027215D01*
X0231231Y0027210D01*
X0231074Y0027209D01*
X0230916Y0027212D01*
X0230758Y0027219D01*
X0230601Y0027230D01*
X0230444Y0027245D01*
X0230287Y0027264D01*
X0230131Y0027287D01*
X0229976Y0027313D01*
X0229821Y0027344D01*
X0229667Y0027378D01*
X0229514Y0027417D01*
X0229362Y0027459D01*
X0229212Y0027505D01*
X0229062Y0027555D01*
X0228914Y0027609D01*
X0228767Y0027666D01*
X0228621Y0027727D01*
X0228478Y0027792D01*
X0228335Y0027860D01*
X0228195Y0027932D01*
X0228057Y0028007D01*
X0227920Y0028086D01*
X0227785Y0028168D01*
X0227653Y0028254D01*
X0227523Y0028343D01*
X0227395Y0028435D01*
X0227269Y0028531D01*
X0227146Y0028629D01*
X0227026Y0028731D01*
X0226908Y0028836D01*
X0226792Y0028943D01*
X0226680Y0029054D01*
X0226570Y0029167D01*
X0226463Y0029283D01*
X0226359Y0029401D01*
X0226258Y0029523D01*
X0226161Y0029646D01*
X0226066Y0029773D01*
X0225975Y0029901D01*
X0225886Y0030032D01*
X0225802Y0030165D01*
X0225720Y0030300D01*
X0225642Y0030437D01*
X0225568Y0030576D01*
X0225497Y0030717D01*
X0225429Y0030859D01*
X0225366Y0031004D01*
X0225305Y0031149D01*
X0225249Y0031297D01*
X0225196Y0031445D01*
X0225147Y0031595D01*
X0225102Y0031746D01*
X0225061Y0031899D01*
X0225023Y0032052D01*
X0224990Y0032206D01*
X0224960Y0032361D01*
X0224934Y0032516D01*
X0224913Y0032673D01*
X0224895Y0032829D01*
X0224881Y0032986D01*
X0224871Y0033144D01*
X0224865Y0033301D01*
X0224863Y0033459D01*
X0014863Y0033459D02*
X0014865Y0033617D01*
X0014871Y0033774D01*
X0014881Y0033932D01*
X0014895Y0034089D01*
X0014913Y0034245D01*
X0014934Y0034402D01*
X0014960Y0034557D01*
X0014990Y0034712D01*
X0015023Y0034866D01*
X0015061Y0035019D01*
X0015102Y0035172D01*
X0015147Y0035323D01*
X0015196Y0035473D01*
X0015249Y0035621D01*
X0015305Y0035769D01*
X0015366Y0035914D01*
X0015429Y0036059D01*
X0015497Y0036201D01*
X0015568Y0036342D01*
X0015642Y0036481D01*
X0015720Y0036618D01*
X0015802Y0036753D01*
X0015886Y0036886D01*
X0015975Y0037017D01*
X0016066Y0037145D01*
X0016161Y0037272D01*
X0016258Y0037395D01*
X0016359Y0037517D01*
X0016463Y0037635D01*
X0016570Y0037751D01*
X0016680Y0037864D01*
X0016792Y0037975D01*
X0016908Y0038082D01*
X0017026Y0038187D01*
X0017146Y0038289D01*
X0017269Y0038387D01*
X0017395Y0038483D01*
X0017523Y0038575D01*
X0017653Y0038664D01*
X0017785Y0038750D01*
X0017920Y0038832D01*
X0018057Y0038911D01*
X0018195Y0038986D01*
X0018335Y0039058D01*
X0018478Y0039126D01*
X0018621Y0039191D01*
X0018767Y0039252D01*
X0018914Y0039309D01*
X0019062Y0039363D01*
X0019212Y0039413D01*
X0019362Y0039459D01*
X0019514Y0039501D01*
X0019667Y0039540D01*
X0019821Y0039574D01*
X0019976Y0039605D01*
X0020131Y0039631D01*
X0020287Y0039654D01*
X0020444Y0039673D01*
X0020601Y0039688D01*
X0020758Y0039699D01*
X0020916Y0039706D01*
X0021074Y0039709D01*
X0021231Y0039708D01*
X0021389Y0039703D01*
X0021546Y0039694D01*
X0021704Y0039681D01*
X0021860Y0039664D01*
X0022017Y0039643D01*
X0022172Y0039619D01*
X0022327Y0039590D01*
X0022482Y0039557D01*
X0022635Y0039521D01*
X0022788Y0039480D01*
X0022939Y0039436D01*
X0023089Y0039388D01*
X0023238Y0039337D01*
X0023386Y0039281D01*
X0023532Y0039222D01*
X0023677Y0039159D01*
X0023820Y0039092D01*
X0023961Y0039022D01*
X0024100Y0038949D01*
X0024238Y0038872D01*
X0024374Y0038791D01*
X0024507Y0038707D01*
X0024638Y0038620D01*
X0024767Y0038529D01*
X0024894Y0038435D01*
X0025019Y0038338D01*
X0025140Y0038238D01*
X0025260Y0038135D01*
X0025376Y0038029D01*
X0025490Y0037920D01*
X0025602Y0037808D01*
X0025710Y0037694D01*
X0025815Y0037576D01*
X0025918Y0037456D01*
X0026017Y0037334D01*
X0026113Y0037209D01*
X0026206Y0037081D01*
X0026296Y0036952D01*
X0026382Y0036820D01*
X0026466Y0036686D01*
X0026545Y0036550D01*
X0026622Y0036412D01*
X0026694Y0036272D01*
X0026763Y0036130D01*
X0026829Y0035987D01*
X0026891Y0035842D01*
X0026949Y0035695D01*
X0027004Y0035547D01*
X0027055Y0035398D01*
X0027102Y0035247D01*
X0027145Y0035096D01*
X0027184Y0034943D01*
X0027220Y0034789D01*
X0027251Y0034635D01*
X0027279Y0034480D01*
X0027303Y0034324D01*
X0027323Y0034167D01*
X0027339Y0034010D01*
X0027351Y0033853D01*
X0027359Y0033696D01*
X0027363Y0033538D01*
X0027363Y0033380D01*
X0027359Y0033222D01*
X0027351Y0033065D01*
X0027339Y0032908D01*
X0027323Y0032751D01*
X0027303Y0032594D01*
X0027279Y0032438D01*
X0027251Y0032283D01*
X0027220Y0032129D01*
X0027184Y0031975D01*
X0027145Y0031822D01*
X0027102Y0031671D01*
X0027055Y0031520D01*
X0027004Y0031371D01*
X0026949Y0031223D01*
X0026891Y0031076D01*
X0026829Y0030931D01*
X0026763Y0030788D01*
X0026694Y0030646D01*
X0026622Y0030506D01*
X0026545Y0030368D01*
X0026466Y0030232D01*
X0026382Y0030098D01*
X0026296Y0029966D01*
X0026206Y0029837D01*
X0026113Y0029709D01*
X0026017Y0029584D01*
X0025918Y0029462D01*
X0025815Y0029342D01*
X0025710Y0029224D01*
X0025602Y0029110D01*
X0025490Y0028998D01*
X0025376Y0028889D01*
X0025260Y0028783D01*
X0025140Y0028680D01*
X0025019Y0028580D01*
X0024894Y0028483D01*
X0024767Y0028389D01*
X0024638Y0028298D01*
X0024507Y0028211D01*
X0024374Y0028127D01*
X0024238Y0028046D01*
X0024100Y0027969D01*
X0023961Y0027896D01*
X0023820Y0027826D01*
X0023677Y0027759D01*
X0023532Y0027696D01*
X0023386Y0027637D01*
X0023238Y0027581D01*
X0023089Y0027530D01*
X0022939Y0027482D01*
X0022788Y0027438D01*
X0022635Y0027397D01*
X0022482Y0027361D01*
X0022327Y0027328D01*
X0022172Y0027299D01*
X0022017Y0027275D01*
X0021860Y0027254D01*
X0021704Y0027237D01*
X0021546Y0027224D01*
X0021389Y0027215D01*
X0021231Y0027210D01*
X0021074Y0027209D01*
X0020916Y0027212D01*
X0020758Y0027219D01*
X0020601Y0027230D01*
X0020444Y0027245D01*
X0020287Y0027264D01*
X0020131Y0027287D01*
X0019976Y0027313D01*
X0019821Y0027344D01*
X0019667Y0027378D01*
X0019514Y0027417D01*
X0019362Y0027459D01*
X0019212Y0027505D01*
X0019062Y0027555D01*
X0018914Y0027609D01*
X0018767Y0027666D01*
X0018621Y0027727D01*
X0018478Y0027792D01*
X0018335Y0027860D01*
X0018195Y0027932D01*
X0018057Y0028007D01*
X0017920Y0028086D01*
X0017785Y0028168D01*
X0017653Y0028254D01*
X0017523Y0028343D01*
X0017395Y0028435D01*
X0017269Y0028531D01*
X0017146Y0028629D01*
X0017026Y0028731D01*
X0016908Y0028836D01*
X0016792Y0028943D01*
X0016680Y0029054D01*
X0016570Y0029167D01*
X0016463Y0029283D01*
X0016359Y0029401D01*
X0016258Y0029523D01*
X0016161Y0029646D01*
X0016066Y0029773D01*
X0015975Y0029901D01*
X0015886Y0030032D01*
X0015802Y0030165D01*
X0015720Y0030300D01*
X0015642Y0030437D01*
X0015568Y0030576D01*
X0015497Y0030717D01*
X0015429Y0030859D01*
X0015366Y0031004D01*
X0015305Y0031149D01*
X0015249Y0031297D01*
X0015196Y0031445D01*
X0015147Y0031595D01*
X0015102Y0031746D01*
X0015061Y0031899D01*
X0015023Y0032052D01*
X0014990Y0032206D01*
X0014960Y0032361D01*
X0014934Y0032516D01*
X0014913Y0032673D01*
X0014895Y0032829D01*
X0014881Y0032986D01*
X0014871Y0033144D01*
X0014865Y0033301D01*
X0014863Y0033459D01*
X0014863Y0342959D02*
X0014865Y0343117D01*
X0014871Y0343274D01*
X0014881Y0343432D01*
X0014895Y0343589D01*
X0014913Y0343745D01*
X0014934Y0343902D01*
X0014960Y0344057D01*
X0014990Y0344212D01*
X0015023Y0344366D01*
X0015061Y0344519D01*
X0015102Y0344672D01*
X0015147Y0344823D01*
X0015196Y0344973D01*
X0015249Y0345121D01*
X0015305Y0345269D01*
X0015366Y0345414D01*
X0015429Y0345559D01*
X0015497Y0345701D01*
X0015568Y0345842D01*
X0015642Y0345981D01*
X0015720Y0346118D01*
X0015802Y0346253D01*
X0015886Y0346386D01*
X0015975Y0346517D01*
X0016066Y0346645D01*
X0016161Y0346772D01*
X0016258Y0346895D01*
X0016359Y0347017D01*
X0016463Y0347135D01*
X0016570Y0347251D01*
X0016680Y0347364D01*
X0016792Y0347475D01*
X0016908Y0347582D01*
X0017026Y0347687D01*
X0017146Y0347789D01*
X0017269Y0347887D01*
X0017395Y0347983D01*
X0017523Y0348075D01*
X0017653Y0348164D01*
X0017785Y0348250D01*
X0017920Y0348332D01*
X0018057Y0348411D01*
X0018195Y0348486D01*
X0018335Y0348558D01*
X0018478Y0348626D01*
X0018621Y0348691D01*
X0018767Y0348752D01*
X0018914Y0348809D01*
X0019062Y0348863D01*
X0019212Y0348913D01*
X0019362Y0348959D01*
X0019514Y0349001D01*
X0019667Y0349040D01*
X0019821Y0349074D01*
X0019976Y0349105D01*
X0020131Y0349131D01*
X0020287Y0349154D01*
X0020444Y0349173D01*
X0020601Y0349188D01*
X0020758Y0349199D01*
X0020916Y0349206D01*
X0021074Y0349209D01*
X0021231Y0349208D01*
X0021389Y0349203D01*
X0021546Y0349194D01*
X0021704Y0349181D01*
X0021860Y0349164D01*
X0022017Y0349143D01*
X0022172Y0349119D01*
X0022327Y0349090D01*
X0022482Y0349057D01*
X0022635Y0349021D01*
X0022788Y0348980D01*
X0022939Y0348936D01*
X0023089Y0348888D01*
X0023238Y0348837D01*
X0023386Y0348781D01*
X0023532Y0348722D01*
X0023677Y0348659D01*
X0023820Y0348592D01*
X0023961Y0348522D01*
X0024100Y0348449D01*
X0024238Y0348372D01*
X0024374Y0348291D01*
X0024507Y0348207D01*
X0024638Y0348120D01*
X0024767Y0348029D01*
X0024894Y0347935D01*
X0025019Y0347838D01*
X0025140Y0347738D01*
X0025260Y0347635D01*
X0025376Y0347529D01*
X0025490Y0347420D01*
X0025602Y0347308D01*
X0025710Y0347194D01*
X0025815Y0347076D01*
X0025918Y0346956D01*
X0026017Y0346834D01*
X0026113Y0346709D01*
X0026206Y0346581D01*
X0026296Y0346452D01*
X0026382Y0346320D01*
X0026466Y0346186D01*
X0026545Y0346050D01*
X0026622Y0345912D01*
X0026694Y0345772D01*
X0026763Y0345630D01*
X0026829Y0345487D01*
X0026891Y0345342D01*
X0026949Y0345195D01*
X0027004Y0345047D01*
X0027055Y0344898D01*
X0027102Y0344747D01*
X0027145Y0344596D01*
X0027184Y0344443D01*
X0027220Y0344289D01*
X0027251Y0344135D01*
X0027279Y0343980D01*
X0027303Y0343824D01*
X0027323Y0343667D01*
X0027339Y0343510D01*
X0027351Y0343353D01*
X0027359Y0343196D01*
X0027363Y0343038D01*
X0027363Y0342880D01*
X0027359Y0342722D01*
X0027351Y0342565D01*
X0027339Y0342408D01*
X0027323Y0342251D01*
X0027303Y0342094D01*
X0027279Y0341938D01*
X0027251Y0341783D01*
X0027220Y0341629D01*
X0027184Y0341475D01*
X0027145Y0341322D01*
X0027102Y0341171D01*
X0027055Y0341020D01*
X0027004Y0340871D01*
X0026949Y0340723D01*
X0026891Y0340576D01*
X0026829Y0340431D01*
X0026763Y0340288D01*
X0026694Y0340146D01*
X0026622Y0340006D01*
X0026545Y0339868D01*
X0026466Y0339732D01*
X0026382Y0339598D01*
X0026296Y0339466D01*
X0026206Y0339337D01*
X0026113Y0339209D01*
X0026017Y0339084D01*
X0025918Y0338962D01*
X0025815Y0338842D01*
X0025710Y0338724D01*
X0025602Y0338610D01*
X0025490Y0338498D01*
X0025376Y0338389D01*
X0025260Y0338283D01*
X0025140Y0338180D01*
X0025019Y0338080D01*
X0024894Y0337983D01*
X0024767Y0337889D01*
X0024638Y0337798D01*
X0024507Y0337711D01*
X0024374Y0337627D01*
X0024238Y0337546D01*
X0024100Y0337469D01*
X0023961Y0337396D01*
X0023820Y0337326D01*
X0023677Y0337259D01*
X0023532Y0337196D01*
X0023386Y0337137D01*
X0023238Y0337081D01*
X0023089Y0337030D01*
X0022939Y0336982D01*
X0022788Y0336938D01*
X0022635Y0336897D01*
X0022482Y0336861D01*
X0022327Y0336828D01*
X0022172Y0336799D01*
X0022017Y0336775D01*
X0021860Y0336754D01*
X0021704Y0336737D01*
X0021546Y0336724D01*
X0021389Y0336715D01*
X0021231Y0336710D01*
X0021074Y0336709D01*
X0020916Y0336712D01*
X0020758Y0336719D01*
X0020601Y0336730D01*
X0020444Y0336745D01*
X0020287Y0336764D01*
X0020131Y0336787D01*
X0019976Y0336813D01*
X0019821Y0336844D01*
X0019667Y0336878D01*
X0019514Y0336917D01*
X0019362Y0336959D01*
X0019212Y0337005D01*
X0019062Y0337055D01*
X0018914Y0337109D01*
X0018767Y0337166D01*
X0018621Y0337227D01*
X0018478Y0337292D01*
X0018335Y0337360D01*
X0018195Y0337432D01*
X0018057Y0337507D01*
X0017920Y0337586D01*
X0017785Y0337668D01*
X0017653Y0337754D01*
X0017523Y0337843D01*
X0017395Y0337935D01*
X0017269Y0338031D01*
X0017146Y0338129D01*
X0017026Y0338231D01*
X0016908Y0338336D01*
X0016792Y0338443D01*
X0016680Y0338554D01*
X0016570Y0338667D01*
X0016463Y0338783D01*
X0016359Y0338901D01*
X0016258Y0339023D01*
X0016161Y0339146D01*
X0016066Y0339273D01*
X0015975Y0339401D01*
X0015886Y0339532D01*
X0015802Y0339665D01*
X0015720Y0339800D01*
X0015642Y0339937D01*
X0015568Y0340076D01*
X0015497Y0340217D01*
X0015429Y0340359D01*
X0015366Y0340504D01*
X0015305Y0340649D01*
X0015249Y0340797D01*
X0015196Y0340945D01*
X0015147Y0341095D01*
X0015102Y0341246D01*
X0015061Y0341399D01*
X0015023Y0341552D01*
X0014990Y0341706D01*
X0014960Y0341861D01*
X0014934Y0342016D01*
X0014913Y0342173D01*
X0014895Y0342329D01*
X0014881Y0342486D01*
X0014871Y0342644D01*
X0014865Y0342801D01*
X0014863Y0342959D01*
X0224863Y0342959D02*
X0224865Y0343117D01*
X0224871Y0343274D01*
X0224881Y0343432D01*
X0224895Y0343589D01*
X0224913Y0343745D01*
X0224934Y0343902D01*
X0224960Y0344057D01*
X0224990Y0344212D01*
X0225023Y0344366D01*
X0225061Y0344519D01*
X0225102Y0344672D01*
X0225147Y0344823D01*
X0225196Y0344973D01*
X0225249Y0345121D01*
X0225305Y0345269D01*
X0225366Y0345414D01*
X0225429Y0345559D01*
X0225497Y0345701D01*
X0225568Y0345842D01*
X0225642Y0345981D01*
X0225720Y0346118D01*
X0225802Y0346253D01*
X0225886Y0346386D01*
X0225975Y0346517D01*
X0226066Y0346645D01*
X0226161Y0346772D01*
X0226258Y0346895D01*
X0226359Y0347017D01*
X0226463Y0347135D01*
X0226570Y0347251D01*
X0226680Y0347364D01*
X0226792Y0347475D01*
X0226908Y0347582D01*
X0227026Y0347687D01*
X0227146Y0347789D01*
X0227269Y0347887D01*
X0227395Y0347983D01*
X0227523Y0348075D01*
X0227653Y0348164D01*
X0227785Y0348250D01*
X0227920Y0348332D01*
X0228057Y0348411D01*
X0228195Y0348486D01*
X0228335Y0348558D01*
X0228478Y0348626D01*
X0228621Y0348691D01*
X0228767Y0348752D01*
X0228914Y0348809D01*
X0229062Y0348863D01*
X0229212Y0348913D01*
X0229362Y0348959D01*
X0229514Y0349001D01*
X0229667Y0349040D01*
X0229821Y0349074D01*
X0229976Y0349105D01*
X0230131Y0349131D01*
X0230287Y0349154D01*
X0230444Y0349173D01*
X0230601Y0349188D01*
X0230758Y0349199D01*
X0230916Y0349206D01*
X0231074Y0349209D01*
X0231231Y0349208D01*
X0231389Y0349203D01*
X0231546Y0349194D01*
X0231704Y0349181D01*
X0231860Y0349164D01*
X0232017Y0349143D01*
X0232172Y0349119D01*
X0232327Y0349090D01*
X0232482Y0349057D01*
X0232635Y0349021D01*
X0232788Y0348980D01*
X0232939Y0348936D01*
X0233089Y0348888D01*
X0233238Y0348837D01*
X0233386Y0348781D01*
X0233532Y0348722D01*
X0233677Y0348659D01*
X0233820Y0348592D01*
X0233961Y0348522D01*
X0234100Y0348449D01*
X0234238Y0348372D01*
X0234374Y0348291D01*
X0234507Y0348207D01*
X0234638Y0348120D01*
X0234767Y0348029D01*
X0234894Y0347935D01*
X0235019Y0347838D01*
X0235140Y0347738D01*
X0235260Y0347635D01*
X0235376Y0347529D01*
X0235490Y0347420D01*
X0235602Y0347308D01*
X0235710Y0347194D01*
X0235815Y0347076D01*
X0235918Y0346956D01*
X0236017Y0346834D01*
X0236113Y0346709D01*
X0236206Y0346581D01*
X0236296Y0346452D01*
X0236382Y0346320D01*
X0236466Y0346186D01*
X0236545Y0346050D01*
X0236622Y0345912D01*
X0236694Y0345772D01*
X0236763Y0345630D01*
X0236829Y0345487D01*
X0236891Y0345342D01*
X0236949Y0345195D01*
X0237004Y0345047D01*
X0237055Y0344898D01*
X0237102Y0344747D01*
X0237145Y0344596D01*
X0237184Y0344443D01*
X0237220Y0344289D01*
X0237251Y0344135D01*
X0237279Y0343980D01*
X0237303Y0343824D01*
X0237323Y0343667D01*
X0237339Y0343510D01*
X0237351Y0343353D01*
X0237359Y0343196D01*
X0237363Y0343038D01*
X0237363Y0342880D01*
X0237359Y0342722D01*
X0237351Y0342565D01*
X0237339Y0342408D01*
X0237323Y0342251D01*
X0237303Y0342094D01*
X0237279Y0341938D01*
X0237251Y0341783D01*
X0237220Y0341629D01*
X0237184Y0341475D01*
X0237145Y0341322D01*
X0237102Y0341171D01*
X0237055Y0341020D01*
X0237004Y0340871D01*
X0236949Y0340723D01*
X0236891Y0340576D01*
X0236829Y0340431D01*
X0236763Y0340288D01*
X0236694Y0340146D01*
X0236622Y0340006D01*
X0236545Y0339868D01*
X0236466Y0339732D01*
X0236382Y0339598D01*
X0236296Y0339466D01*
X0236206Y0339337D01*
X0236113Y0339209D01*
X0236017Y0339084D01*
X0235918Y0338962D01*
X0235815Y0338842D01*
X0235710Y0338724D01*
X0235602Y0338610D01*
X0235490Y0338498D01*
X0235376Y0338389D01*
X0235260Y0338283D01*
X0235140Y0338180D01*
X0235019Y0338080D01*
X0234894Y0337983D01*
X0234767Y0337889D01*
X0234638Y0337798D01*
X0234507Y0337711D01*
X0234374Y0337627D01*
X0234238Y0337546D01*
X0234100Y0337469D01*
X0233961Y0337396D01*
X0233820Y0337326D01*
X0233677Y0337259D01*
X0233532Y0337196D01*
X0233386Y0337137D01*
X0233238Y0337081D01*
X0233089Y0337030D01*
X0232939Y0336982D01*
X0232788Y0336938D01*
X0232635Y0336897D01*
X0232482Y0336861D01*
X0232327Y0336828D01*
X0232172Y0336799D01*
X0232017Y0336775D01*
X0231860Y0336754D01*
X0231704Y0336737D01*
X0231546Y0336724D01*
X0231389Y0336715D01*
X0231231Y0336710D01*
X0231074Y0336709D01*
X0230916Y0336712D01*
X0230758Y0336719D01*
X0230601Y0336730D01*
X0230444Y0336745D01*
X0230287Y0336764D01*
X0230131Y0336787D01*
X0229976Y0336813D01*
X0229821Y0336844D01*
X0229667Y0336878D01*
X0229514Y0336917D01*
X0229362Y0336959D01*
X0229212Y0337005D01*
X0229062Y0337055D01*
X0228914Y0337109D01*
X0228767Y0337166D01*
X0228621Y0337227D01*
X0228478Y0337292D01*
X0228335Y0337360D01*
X0228195Y0337432D01*
X0228057Y0337507D01*
X0227920Y0337586D01*
X0227785Y0337668D01*
X0227653Y0337754D01*
X0227523Y0337843D01*
X0227395Y0337935D01*
X0227269Y0338031D01*
X0227146Y0338129D01*
X0227026Y0338231D01*
X0226908Y0338336D01*
X0226792Y0338443D01*
X0226680Y0338554D01*
X0226570Y0338667D01*
X0226463Y0338783D01*
X0226359Y0338901D01*
X0226258Y0339023D01*
X0226161Y0339146D01*
X0226066Y0339273D01*
X0225975Y0339401D01*
X0225886Y0339532D01*
X0225802Y0339665D01*
X0225720Y0339800D01*
X0225642Y0339937D01*
X0225568Y0340076D01*
X0225497Y0340217D01*
X0225429Y0340359D01*
X0225366Y0340504D01*
X0225305Y0340649D01*
X0225249Y0340797D01*
X0225196Y0340945D01*
X0225147Y0341095D01*
X0225102Y0341246D01*
X0225061Y0341399D01*
X0225023Y0341552D01*
X0224990Y0341706D01*
X0224960Y0341861D01*
X0224934Y0342016D01*
X0224913Y0342173D01*
X0224895Y0342329D01*
X0224881Y0342486D01*
X0224871Y0342644D01*
X0224865Y0342801D01*
X0224863Y0342959D01*
M02*
