G04 Layer_Physical_Order=2*
G04 Layer_Color=36540*
%FSAX25Y25*%
%MOIN*%
G70*
G01*
G75*
%ADD10C,0.01000*%
%ADD11C,0.00800*%
G04:AMPARAMS|DCode=13|XSize=61.02mil|YSize=61.02mil|CornerRadius=1.83mil|HoleSize=0mil|Usage=FLASHONLY|Rotation=270.000|XOffset=0mil|YOffset=0mil|HoleType=Round|Shape=RoundedRectangle|*
%AMROUNDEDRECTD13*
21,1,0.06102,0.05736,0,0,270.0*
21,1,0.05736,0.06102,0,0,270.0*
1,1,0.00366,-0.02868,-0.02868*
1,1,0.00366,-0.02868,0.02868*
1,1,0.00366,0.02868,0.02868*
1,1,0.00366,0.02868,-0.02868*
%
%ADD13ROUNDEDRECTD13*%
%ADD14C,0.02800*%
G36*
X0297671Y0356803D02*
X0296733Y0356579D01*
X0296471Y0357211D01*
X0296054Y0357754D01*
X0295511Y0358171D01*
X0294879Y0358433D01*
X0294200Y0358522D01*
X0293521Y0358433D01*
X0292889Y0358171D01*
X0292346Y0357754D01*
X0291929Y0357211D01*
X0291667Y0356579D01*
X0291578Y0355900D01*
X0291667Y0355221D01*
X0291929Y0354589D01*
X0292346Y0354046D01*
X0292889Y0353629D01*
X0293521Y0353367D01*
X0294200Y0353278D01*
X0294879Y0353367D01*
X0295511Y0353629D01*
X0296054Y0354046D01*
X0296471Y0354589D01*
X0296733Y0355221D01*
X0297671Y0354997D01*
Y0324303D01*
X0296733Y0324079D01*
X0296471Y0324711D01*
X0296054Y0325254D01*
X0295511Y0325671D01*
X0294879Y0325933D01*
X0294200Y0326022D01*
X0293521Y0325933D01*
X0292889Y0325671D01*
X0292346Y0325254D01*
X0291929Y0324711D01*
X0291667Y0324079D01*
X0291578Y0323400D01*
X0291667Y0322721D01*
X0291929Y0322089D01*
X0292346Y0321546D01*
X0292889Y0321129D01*
X0293521Y0320867D01*
X0294200Y0320778D01*
X0294879Y0320867D01*
X0295511Y0321129D01*
X0296054Y0321546D01*
X0296471Y0322089D01*
X0296733Y0322721D01*
X0297671Y0322497D01*
Y0291803D01*
X0296733Y0291579D01*
X0296471Y0292211D01*
X0296054Y0292754D01*
X0295511Y0293171D01*
X0294879Y0293433D01*
X0294200Y0293522D01*
X0293521Y0293433D01*
X0292889Y0293171D01*
X0292346Y0292754D01*
X0291929Y0292211D01*
X0291667Y0291579D01*
X0291578Y0290900D01*
X0291667Y0290221D01*
X0291929Y0289589D01*
X0292346Y0289046D01*
X0292889Y0288629D01*
X0293521Y0288367D01*
X0294200Y0288278D01*
X0294879Y0288367D01*
X0295511Y0288629D01*
X0296054Y0289046D01*
X0296471Y0289589D01*
X0296733Y0290221D01*
X0297671Y0289997D01*
Y0254929D01*
X0240103D01*
X0239879Y0255867D01*
X0240511Y0256129D01*
X0241054Y0256546D01*
X0241471Y0257089D01*
X0241733Y0257721D01*
X0241822Y0258400D01*
X0241733Y0259079D01*
X0241471Y0259711D01*
X0241054Y0260254D01*
X0240511Y0260671D01*
X0239879Y0260933D01*
X0239200Y0261022D01*
X0238521Y0260933D01*
X0237889Y0260671D01*
X0237346Y0260254D01*
X0236929Y0259711D01*
X0236667Y0259079D01*
X0236578Y0258400D01*
X0236667Y0257721D01*
X0236929Y0257089D01*
X0237346Y0256546D01*
X0237889Y0256129D01*
X0238521Y0255867D01*
X0238297Y0254929D01*
X0185103D01*
X0184879Y0255867D01*
X0185511Y0256129D01*
X0186054Y0256546D01*
X0186471Y0257089D01*
X0186733Y0257721D01*
X0186822Y0258400D01*
X0186733Y0259079D01*
X0186471Y0259711D01*
X0186054Y0260254D01*
X0185511Y0260671D01*
X0184879Y0260933D01*
X0184200Y0261022D01*
X0183521Y0260933D01*
X0182889Y0260671D01*
X0182346Y0260254D01*
X0181929Y0259711D01*
X0181667Y0259079D01*
X0181578Y0258400D01*
X0181667Y0257721D01*
X0181929Y0257089D01*
X0182346Y0256546D01*
X0182889Y0256129D01*
X0183521Y0255867D01*
X0183297Y0254929D01*
X0126103D01*
X0125879Y0255867D01*
X0126511Y0256129D01*
X0127054Y0256546D01*
X0127471Y0257089D01*
X0127733Y0257721D01*
X0127822Y0258400D01*
X0127733Y0259079D01*
X0127471Y0259711D01*
X0127054Y0260254D01*
X0126511Y0260671D01*
X0125879Y0260933D01*
X0125200Y0261022D01*
X0124521Y0260933D01*
X0123889Y0260671D01*
X0123346Y0260254D01*
X0122929Y0259711D01*
X0122667Y0259079D01*
X0122578Y0258400D01*
X0122667Y0257721D01*
X0122929Y0257089D01*
X0123346Y0256546D01*
X0123889Y0256129D01*
X0124521Y0255867D01*
X0124297Y0254929D01*
X0075103D01*
X0074879Y0255867D01*
X0075511Y0256129D01*
X0076054Y0256546D01*
X0076471Y0257089D01*
X0076733Y0257721D01*
X0076822Y0258400D01*
X0076733Y0259079D01*
X0076471Y0259711D01*
X0076054Y0260254D01*
X0075511Y0260671D01*
X0074879Y0260933D01*
X0074200Y0261022D01*
X0073521Y0260933D01*
X0072889Y0260671D01*
X0072346Y0260254D01*
X0071929Y0259711D01*
X0071667Y0259079D01*
X0070729Y0259303D01*
Y0289997D01*
X0071667Y0290221D01*
X0071929Y0289589D01*
X0072346Y0289046D01*
X0072889Y0288629D01*
X0073521Y0288367D01*
X0074200Y0288278D01*
X0074879Y0288367D01*
X0075511Y0288629D01*
X0076054Y0289046D01*
X0076471Y0289589D01*
X0076733Y0290221D01*
X0076822Y0290900D01*
X0076733Y0291579D01*
X0076471Y0292211D01*
X0076054Y0292754D01*
X0075511Y0293171D01*
X0074879Y0293433D01*
X0074200Y0293522D01*
X0073521Y0293433D01*
X0072889Y0293171D01*
X0072346Y0292754D01*
X0071929Y0292211D01*
X0071667Y0291579D01*
X0070729Y0291803D01*
Y0322497D01*
X0071667Y0322721D01*
X0071929Y0322089D01*
X0072346Y0321546D01*
X0072889Y0321129D01*
X0073521Y0320867D01*
X0074200Y0320778D01*
X0074879Y0320867D01*
X0075511Y0321129D01*
X0076054Y0321546D01*
X0076471Y0322089D01*
X0076733Y0322721D01*
X0076822Y0323400D01*
X0076733Y0324079D01*
X0076471Y0324711D01*
X0076054Y0325254D01*
X0075511Y0325671D01*
X0074879Y0325933D01*
X0074200Y0326022D01*
X0073521Y0325933D01*
X0072889Y0325671D01*
X0072346Y0325254D01*
X0071929Y0324711D01*
X0071667Y0324079D01*
X0070729Y0324303D01*
Y0354997D01*
X0071667Y0355221D01*
X0071929Y0354589D01*
X0072346Y0354046D01*
X0072889Y0353629D01*
X0073521Y0353367D01*
X0074200Y0353278D01*
X0074879Y0353367D01*
X0075511Y0353629D01*
X0076054Y0354046D01*
X0076471Y0354589D01*
X0076733Y0355221D01*
X0076822Y0355900D01*
X0076733Y0356579D01*
X0076471Y0357211D01*
X0076054Y0357754D01*
X0075511Y0358171D01*
X0074879Y0358433D01*
X0074200Y0358522D01*
X0073521Y0358433D01*
X0072889Y0358171D01*
X0072346Y0357754D01*
X0071929Y0357211D01*
X0071667Y0356579D01*
X0070729Y0356803D01*
Y0387497D01*
X0071667Y0387721D01*
X0071929Y0387089D01*
X0072346Y0386546D01*
X0072889Y0386129D01*
X0073521Y0385867D01*
X0074200Y0385778D01*
X0074879Y0385867D01*
X0075511Y0386129D01*
X0076054Y0386546D01*
X0076471Y0387089D01*
X0076733Y0387721D01*
X0076822Y0388400D01*
X0076733Y0389079D01*
X0076471Y0389711D01*
X0076054Y0390254D01*
X0075511Y0390671D01*
X0074879Y0390933D01*
X0075103Y0391871D01*
X0128297D01*
X0128521Y0390933D01*
X0127889Y0390671D01*
X0127346Y0390254D01*
X0126929Y0389711D01*
X0126667Y0389079D01*
X0126578Y0388400D01*
X0126667Y0387721D01*
X0126929Y0387089D01*
X0127346Y0386546D01*
X0127889Y0386129D01*
X0128521Y0385867D01*
X0129200Y0385778D01*
X0129879Y0385867D01*
X0130511Y0386129D01*
X0131054Y0386546D01*
X0131471Y0387089D01*
X0131733Y0387721D01*
X0131822Y0388400D01*
X0131733Y0389079D01*
X0131471Y0389711D01*
X0131054Y0390254D01*
X0130511Y0390671D01*
X0129879Y0390933D01*
X0130103Y0391871D01*
X0183297D01*
X0183521Y0390933D01*
X0182889Y0390671D01*
X0182346Y0390254D01*
X0181929Y0389711D01*
X0181667Y0389079D01*
X0181578Y0388400D01*
X0181667Y0387721D01*
X0181929Y0387089D01*
X0182346Y0386546D01*
X0182889Y0386129D01*
X0183521Y0385867D01*
X0184200Y0385778D01*
X0184879Y0385867D01*
X0185511Y0386129D01*
X0186054Y0386546D01*
X0186471Y0387089D01*
X0186733Y0387721D01*
X0186822Y0388400D01*
X0186733Y0389079D01*
X0186471Y0389711D01*
X0186054Y0390254D01*
X0185511Y0390671D01*
X0184879Y0390933D01*
X0185103Y0391871D01*
X0297671D01*
Y0356803D01*
D02*
G37*
%LPC*%
G36*
X0201700Y0299022D02*
X0201021Y0298933D01*
X0200389Y0298671D01*
X0199846Y0298254D01*
X0199429Y0297711D01*
X0199167Y0297079D01*
X0199117Y0296698D01*
X0198596Y0296178D01*
X0198126Y0295963D01*
X0197671Y0296022D01*
X0196992Y0295933D01*
X0196360Y0295671D01*
X0196200Y0295549D01*
X0195284Y0296106D01*
X0195322Y0296400D01*
X0195233Y0297079D01*
X0194971Y0297711D01*
X0194554Y0298254D01*
X0194011Y0298671D01*
X0193379Y0298933D01*
X0192700Y0299022D01*
X0192021Y0298933D01*
X0191389Y0298671D01*
X0190846Y0298254D01*
X0190429Y0297711D01*
X0190167Y0297079D01*
X0190078Y0296400D01*
X0190167Y0295721D01*
X0190429Y0295089D01*
X0190846Y0294546D01*
X0191389Y0294129D01*
X0192021Y0293867D01*
X0192700Y0293778D01*
X0193379Y0293867D01*
X0194011Y0294129D01*
X0194171Y0294251D01*
X0195087Y0293694D01*
X0195049Y0293400D01*
X0195138Y0292721D01*
X0195400Y0292089D01*
X0195817Y0291546D01*
X0196360Y0291129D01*
X0196992Y0290867D01*
X0197671Y0290778D01*
X0198350Y0290867D01*
X0198982Y0291129D01*
X0199525Y0291546D01*
X0199942Y0292089D01*
X0200204Y0292721D01*
X0200254Y0293102D01*
X0200775Y0293622D01*
X0201244Y0293837D01*
X0201700Y0293778D01*
X0202379Y0293867D01*
X0203011Y0294129D01*
X0203554Y0294546D01*
X0203971Y0295089D01*
X0204233Y0295721D01*
X0204322Y0296400D01*
X0204233Y0297079D01*
X0203971Y0297711D01*
X0203554Y0298254D01*
X0203011Y0298671D01*
X0202379Y0298933D01*
X0201700Y0299022D01*
D02*
G37*
G36*
X0233700Y0306022D02*
X0233021Y0305933D01*
X0232389Y0305671D01*
X0231846Y0305254D01*
X0231429Y0304711D01*
X0231167Y0304079D01*
X0231078Y0303400D01*
X0231167Y0302721D01*
X0231429Y0302089D01*
X0231846Y0301546D01*
X0232389Y0301129D01*
X0232887Y0300922D01*
X0232999Y0300400D01*
X0232887Y0299878D01*
X0232389Y0299671D01*
X0231846Y0299254D01*
X0231429Y0298711D01*
X0231167Y0298079D01*
X0231078Y0297400D01*
X0231167Y0296721D01*
X0231429Y0296089D01*
X0231846Y0295546D01*
X0232389Y0295129D01*
X0233021Y0294867D01*
X0233700Y0294778D01*
X0234379Y0294867D01*
X0235011Y0295129D01*
X0235554Y0295546D01*
X0235971Y0296089D01*
X0236233Y0296721D01*
X0236322Y0297400D01*
X0236233Y0298079D01*
X0235971Y0298711D01*
X0235554Y0299254D01*
X0235011Y0299671D01*
X0234513Y0299878D01*
X0234401Y0300400D01*
X0234513Y0300922D01*
X0235011Y0301129D01*
X0235554Y0301546D01*
X0235971Y0302089D01*
X0236233Y0302721D01*
X0236322Y0303400D01*
X0236233Y0304079D01*
X0235971Y0304711D01*
X0235554Y0305254D01*
X0235011Y0305671D01*
X0234379Y0305933D01*
X0233700Y0306022D01*
D02*
G37*
G36*
X0219700D02*
X0219021Y0305933D01*
X0218389Y0305671D01*
X0217846Y0305254D01*
X0217429Y0304711D01*
X0217167Y0304079D01*
X0217078Y0303400D01*
X0217167Y0302721D01*
X0217429Y0302089D01*
X0217846Y0301546D01*
X0218389Y0301129D01*
X0218887Y0300922D01*
X0218999Y0300400D01*
X0218887Y0299878D01*
X0218389Y0299671D01*
X0217846Y0299254D01*
X0217429Y0298711D01*
X0217167Y0298079D01*
X0217078Y0297400D01*
X0217167Y0296721D01*
X0217429Y0296089D01*
X0217846Y0295546D01*
X0218389Y0295129D01*
X0219021Y0294867D01*
X0219700Y0294778D01*
X0220379Y0294867D01*
X0221011Y0295129D01*
X0221554Y0295546D01*
X0221971Y0296089D01*
X0222233Y0296721D01*
X0222322Y0297400D01*
X0222233Y0298079D01*
X0221971Y0298711D01*
X0221554Y0299254D01*
X0221011Y0299671D01*
X0220513Y0299878D01*
X0220401Y0300400D01*
X0220513Y0300922D01*
X0221011Y0301129D01*
X0221554Y0301546D01*
X0221971Y0302089D01*
X0222233Y0302721D01*
X0222322Y0303400D01*
X0222233Y0304079D01*
X0221971Y0304711D01*
X0221554Y0305254D01*
X0221011Y0305671D01*
X0220379Y0305933D01*
X0219700Y0306022D01*
D02*
G37*
G36*
X0168200D02*
X0167521Y0305933D01*
X0166889Y0305671D01*
X0166346Y0305254D01*
X0165929Y0304711D01*
X0165667Y0304079D01*
X0165578Y0303400D01*
X0165667Y0302721D01*
X0165929Y0302089D01*
X0166346Y0301546D01*
X0166889Y0301129D01*
X0167521Y0300867D01*
X0168200Y0300778D01*
X0168879Y0300867D01*
X0169511Y0301129D01*
X0170054Y0301546D01*
X0170471Y0302089D01*
X0170733Y0302721D01*
X0170822Y0303400D01*
X0170733Y0304079D01*
X0170471Y0304711D01*
X0170054Y0305254D01*
X0169511Y0305671D01*
X0168879Y0305933D01*
X0168200Y0306022D01*
D02*
G37*
G36*
X0112200Y0303022D02*
X0111521Y0302933D01*
X0110889Y0302671D01*
X0110346Y0302254D01*
X0109929Y0301711D01*
X0109667Y0301079D01*
X0109578Y0300400D01*
X0109573Y0300320D01*
X0109521Y0300223D01*
X0109108Y0299989D01*
X0107960Y0300431D01*
X0107913Y0300544D01*
X0107232Y0301432D01*
X0106344Y0302113D01*
X0105310Y0302542D01*
X0104200Y0302688D01*
X0103090Y0302542D01*
X0102056Y0302113D01*
X0101168Y0301432D01*
X0100487Y0300544D01*
X0100058Y0299510D01*
X0099912Y0298400D01*
X0100058Y0297290D01*
X0100487Y0296256D01*
X0101168Y0295368D01*
X0102056Y0294687D01*
X0103090Y0294258D01*
X0104200Y0294112D01*
X0105310Y0294258D01*
X0106344Y0294687D01*
X0107012Y0295199D01*
X0107107Y0295240D01*
X0107819Y0295226D01*
X0108295Y0295111D01*
X0108346Y0295046D01*
X0108889Y0294629D01*
X0109521Y0294367D01*
X0110200Y0294278D01*
X0110879Y0294367D01*
X0111511Y0294629D01*
X0112054Y0295046D01*
X0112471Y0295589D01*
X0112733Y0296221D01*
X0112822Y0296900D01*
X0112879Y0297867D01*
X0113511Y0298129D01*
X0114054Y0298546D01*
X0114471Y0299089D01*
X0114733Y0299721D01*
X0114822Y0300400D01*
X0114733Y0301079D01*
X0114471Y0301711D01*
X0114054Y0302254D01*
X0113511Y0302671D01*
X0112879Y0302933D01*
X0112200Y0303022D01*
D02*
G37*
G36*
X0255700Y0304522D02*
X0255021Y0304433D01*
X0254389Y0304171D01*
X0253846Y0303754D01*
X0253429Y0303211D01*
X0253167Y0302579D01*
X0253078Y0301900D01*
X0253167Y0301221D01*
X0253429Y0300589D01*
X0253846Y0300046D01*
X0254389Y0299629D01*
X0255021Y0299367D01*
X0255700Y0299278D01*
X0256379Y0299367D01*
X0257011Y0299629D01*
X0257554Y0300046D01*
X0257971Y0300589D01*
X0258233Y0301221D01*
X0258322Y0301900D01*
X0258233Y0302579D01*
X0257971Y0303211D01*
X0257554Y0303754D01*
X0257011Y0304171D01*
X0256379Y0304433D01*
X0255700Y0304522D01*
D02*
G37*
G36*
X0212700Y0306022D02*
X0212021Y0305933D01*
X0211389Y0305671D01*
X0210846Y0305254D01*
X0210429Y0304711D01*
X0210167Y0304079D01*
X0210078Y0303400D01*
X0210167Y0302721D01*
X0210429Y0302089D01*
X0210846Y0301546D01*
X0211389Y0301129D01*
X0211887Y0300922D01*
X0211999Y0300400D01*
X0211887Y0299878D01*
X0211389Y0299671D01*
X0210846Y0299254D01*
X0210429Y0298711D01*
X0210167Y0298079D01*
X0210078Y0297400D01*
X0210167Y0296721D01*
X0210429Y0296089D01*
X0210846Y0295546D01*
X0211389Y0295129D01*
X0212021Y0294867D01*
X0212700Y0294778D01*
X0213379Y0294867D01*
X0214011Y0295129D01*
X0214554Y0295546D01*
X0214971Y0296089D01*
X0215233Y0296721D01*
X0215322Y0297400D01*
X0215233Y0298079D01*
X0214971Y0298711D01*
X0214554Y0299254D01*
X0214011Y0299671D01*
X0213513Y0299878D01*
X0213401Y0300400D01*
X0213513Y0300922D01*
X0214011Y0301129D01*
X0214554Y0301546D01*
X0214971Y0302089D01*
X0215233Y0302721D01*
X0215322Y0303400D01*
X0215233Y0304079D01*
X0214971Y0304711D01*
X0214554Y0305254D01*
X0214011Y0305671D01*
X0213379Y0305933D01*
X0212700Y0306022D01*
D02*
G37*
G36*
X0274200Y0302688D02*
X0273090Y0302542D01*
X0272056Y0302113D01*
X0271168Y0301432D01*
X0270487Y0300544D01*
X0270058Y0299510D01*
X0269912Y0298400D01*
X0270058Y0297290D01*
X0270487Y0296256D01*
X0271168Y0295368D01*
X0272056Y0294687D01*
X0273090Y0294258D01*
X0274200Y0294112D01*
X0275310Y0294258D01*
X0276344Y0294687D01*
X0277232Y0295368D01*
X0277913Y0296256D01*
X0278342Y0297290D01*
X0278488Y0298400D01*
X0278342Y0299510D01*
X0277913Y0300544D01*
X0277232Y0301432D01*
X0276344Y0302113D01*
X0275310Y0302542D01*
X0274200Y0302688D01*
D02*
G37*
G36*
X0264200D02*
X0263090Y0302542D01*
X0262056Y0302113D01*
X0261168Y0301432D01*
X0260487Y0300544D01*
X0260058Y0299510D01*
X0259912Y0298400D01*
X0260058Y0297290D01*
X0260487Y0296256D01*
X0261168Y0295368D01*
X0262056Y0294687D01*
X0263090Y0294258D01*
X0264200Y0294112D01*
X0265310Y0294258D01*
X0266344Y0294687D01*
X0267232Y0295368D01*
X0267913Y0296256D01*
X0268342Y0297290D01*
X0268488Y0298400D01*
X0268342Y0299510D01*
X0267913Y0300544D01*
X0267232Y0301432D01*
X0266344Y0302113D01*
X0265310Y0302542D01*
X0264200Y0302688D01*
D02*
G37*
G36*
X0094200D02*
X0093090Y0302542D01*
X0092056Y0302113D01*
X0091168Y0301432D01*
X0090487Y0300544D01*
X0090058Y0299510D01*
X0089912Y0298400D01*
X0090058Y0297290D01*
X0090487Y0296256D01*
X0091168Y0295368D01*
X0092056Y0294687D01*
X0093090Y0294258D01*
X0094200Y0294112D01*
X0095310Y0294258D01*
X0096344Y0294687D01*
X0097232Y0295368D01*
X0097913Y0296256D01*
X0098342Y0297290D01*
X0098488Y0298400D01*
X0098342Y0299510D01*
X0097913Y0300544D01*
X0097232Y0301432D01*
X0096344Y0302113D01*
X0095310Y0302542D01*
X0094200Y0302688D01*
D02*
G37*
G36*
X0161200Y0300022D02*
X0160521Y0299933D01*
X0159889Y0299671D01*
X0159346Y0299254D01*
X0158929Y0298711D01*
X0158667Y0298079D01*
X0158578Y0297400D01*
X0158667Y0296721D01*
X0158929Y0296089D01*
X0159346Y0295546D01*
X0159889Y0295129D01*
X0160521Y0294867D01*
X0161200Y0294778D01*
X0161879Y0294867D01*
X0162511Y0295129D01*
X0163054Y0295546D01*
X0163471Y0296089D01*
X0163733Y0296721D01*
X0163822Y0297400D01*
X0163733Y0298079D01*
X0163471Y0298711D01*
X0163054Y0299254D01*
X0162511Y0299671D01*
X0161879Y0299933D01*
X0161200Y0300022D01*
D02*
G37*
G36*
X0251200Y0299522D02*
X0250521Y0299433D01*
X0249889Y0299171D01*
X0249346Y0298754D01*
X0248929Y0298211D01*
X0248667Y0297579D01*
X0248578Y0296900D01*
X0248667Y0296221D01*
X0248929Y0295589D01*
X0249346Y0295046D01*
X0249889Y0294629D01*
X0250521Y0294367D01*
X0251200Y0294278D01*
X0251879Y0294367D01*
X0252511Y0294629D01*
X0253054Y0295046D01*
X0253471Y0295589D01*
X0253733Y0296221D01*
X0253822Y0296900D01*
X0253733Y0297579D01*
X0253471Y0298211D01*
X0253054Y0298754D01*
X0252511Y0299171D01*
X0251879Y0299433D01*
X0251200Y0299522D01*
D02*
G37*
G36*
X0125200D02*
X0124521Y0299433D01*
X0123889Y0299171D01*
X0123346Y0298754D01*
X0122929Y0298211D01*
X0122667Y0297579D01*
X0122578Y0296900D01*
X0122667Y0296221D01*
X0122929Y0295589D01*
X0123346Y0295046D01*
X0123889Y0294629D01*
X0124521Y0294367D01*
X0125200Y0294278D01*
X0125879Y0294367D01*
X0126511Y0294629D01*
X0127054Y0295046D01*
X0127471Y0295589D01*
X0127733Y0296221D01*
X0127822Y0296900D01*
X0127733Y0297579D01*
X0127471Y0298211D01*
X0127054Y0298754D01*
X0126511Y0299171D01*
X0125879Y0299433D01*
X0125200Y0299522D01*
D02*
G37*
G36*
X0175200Y0306022D02*
X0174521Y0305933D01*
X0173889Y0305671D01*
X0173346Y0305254D01*
X0172929Y0304711D01*
X0172667Y0304079D01*
X0172578Y0303400D01*
X0172667Y0302721D01*
X0172929Y0302089D01*
X0173346Y0301546D01*
X0173889Y0301129D01*
X0174521Y0300867D01*
X0175200Y0300778D01*
X0175879Y0300867D01*
X0176511Y0301129D01*
X0177054Y0301546D01*
X0177471Y0302089D01*
X0177733Y0302721D01*
X0177822Y0303400D01*
X0177733Y0304079D01*
X0177471Y0304711D01*
X0177054Y0305254D01*
X0176511Y0305671D01*
X0175879Y0305933D01*
X0175200Y0306022D01*
D02*
G37*
G36*
X0150700Y0315022D02*
X0150021Y0314933D01*
X0149389Y0314671D01*
X0148846Y0314254D01*
X0148429Y0313711D01*
X0148167Y0313079D01*
X0148078Y0312400D01*
X0148167Y0311721D01*
X0148429Y0311089D01*
X0148846Y0310546D01*
X0149389Y0310129D01*
X0150021Y0309867D01*
X0150700Y0309778D01*
X0151379Y0309867D01*
X0152011Y0310129D01*
X0152554Y0310546D01*
X0152971Y0311089D01*
X0153233Y0311721D01*
X0153322Y0312400D01*
X0153233Y0313079D01*
X0152971Y0313711D01*
X0152554Y0314254D01*
X0152011Y0314671D01*
X0151379Y0314933D01*
X0150700Y0315022D01*
D02*
G37*
G36*
X0242200Y0313022D02*
X0241521Y0312933D01*
X0240889Y0312671D01*
X0240346Y0312254D01*
X0239929Y0311711D01*
X0239667Y0311079D01*
X0239578Y0310400D01*
X0239667Y0309721D01*
X0239929Y0309089D01*
X0240346Y0308546D01*
X0240889Y0308129D01*
X0241521Y0307867D01*
X0242200Y0307778D01*
X0242879Y0307867D01*
X0243511Y0308129D01*
X0244054Y0308546D01*
X0244471Y0309089D01*
X0244733Y0309721D01*
X0244822Y0310400D01*
X0244733Y0311079D01*
X0244471Y0311711D01*
X0244054Y0312254D01*
X0243511Y0312671D01*
X0242879Y0312933D01*
X0242200Y0313022D01*
D02*
G37*
G36*
X0162700D02*
X0162021Y0312933D01*
X0161389Y0312671D01*
X0160846Y0312254D01*
X0160429Y0311711D01*
X0160167Y0311079D01*
X0160078Y0310400D01*
X0160167Y0309721D01*
X0160429Y0309089D01*
X0160846Y0308546D01*
X0161389Y0308129D01*
X0162021Y0307867D01*
X0162700Y0307778D01*
X0163379Y0307867D01*
X0164011Y0308129D01*
X0164554Y0308546D01*
X0164971Y0309089D01*
X0165233Y0309721D01*
X0165322Y0310400D01*
X0165233Y0311079D01*
X0164971Y0311711D01*
X0164554Y0312254D01*
X0164011Y0312671D01*
X0163379Y0312933D01*
X0162700Y0313022D01*
D02*
G37*
G36*
X0104200Y0322688D02*
X0103090Y0322542D01*
X0102056Y0322113D01*
X0101168Y0321432D01*
X0100487Y0320544D01*
X0100058Y0319510D01*
X0099912Y0318400D01*
X0100058Y0317290D01*
X0100487Y0316256D01*
X0101168Y0315368D01*
X0102056Y0314687D01*
X0103090Y0314258D01*
X0104200Y0314112D01*
X0105310Y0314258D01*
X0106344Y0314687D01*
X0107232Y0315368D01*
X0107366Y0315542D01*
X0107907Y0315566D01*
X0108545Y0315437D01*
X0108846Y0315046D01*
X0109389Y0314629D01*
X0110021Y0314367D01*
X0110700Y0314278D01*
X0111379Y0314367D01*
X0112011Y0314629D01*
X0112554Y0315046D01*
X0112971Y0315589D01*
X0113233Y0316221D01*
X0113322Y0316900D01*
X0113233Y0317579D01*
X0112971Y0318211D01*
X0112554Y0318754D01*
X0112011Y0319171D01*
X0111379Y0319433D01*
X0110700Y0319522D01*
X0110021Y0319433D01*
X0109389Y0319171D01*
X0108433Y0319480D01*
X0108305Y0319600D01*
X0107913Y0320544D01*
X0107232Y0321432D01*
X0106344Y0322113D01*
X0105310Y0322542D01*
X0104200Y0322688D01*
D02*
G37*
G36*
X0274200D02*
X0273090Y0322542D01*
X0272056Y0322113D01*
X0271168Y0321432D01*
X0270487Y0320544D01*
X0270058Y0319510D01*
X0269912Y0318400D01*
X0270058Y0317290D01*
X0270487Y0316256D01*
X0271168Y0315368D01*
X0272056Y0314687D01*
X0273090Y0314258D01*
X0274200Y0314112D01*
X0275310Y0314258D01*
X0276344Y0314687D01*
X0277232Y0315368D01*
X0277913Y0316256D01*
X0278342Y0317290D01*
X0278488Y0318400D01*
X0278342Y0319510D01*
X0277913Y0320544D01*
X0277232Y0321432D01*
X0276344Y0322113D01*
X0275310Y0322542D01*
X0274200Y0322688D01*
D02*
G37*
G36*
X0131050Y0315873D02*
X0130372Y0315784D01*
X0129739Y0315522D01*
X0129196Y0315105D01*
X0128779Y0314562D01*
X0128517Y0313929D01*
X0128428Y0313250D01*
X0128517Y0312572D01*
X0128779Y0311939D01*
X0129196Y0311396D01*
X0129739Y0310979D01*
X0130372Y0310717D01*
X0131050Y0310628D01*
X0131729Y0310717D01*
X0132362Y0310979D01*
X0132905Y0311396D01*
X0133321Y0311939D01*
X0133583Y0312572D01*
X0133673Y0313250D01*
X0133583Y0313929D01*
X0133321Y0314562D01*
X0132905Y0315105D01*
X0132362Y0315522D01*
X0131729Y0315784D01*
X0131050Y0315873D01*
D02*
G37*
G36*
X0120200Y0312522D02*
X0119521Y0312433D01*
X0118889Y0312171D01*
X0118346Y0311754D01*
X0117929Y0311211D01*
X0117667Y0310579D01*
X0117578Y0309900D01*
X0117667Y0309221D01*
X0117929Y0308589D01*
X0118346Y0308046D01*
X0118889Y0307629D01*
X0119521Y0307367D01*
X0120200Y0307278D01*
X0120879Y0307367D01*
X0121511Y0307629D01*
X0122054Y0308046D01*
X0122471Y0308589D01*
X0122733Y0309221D01*
X0122822Y0309900D01*
X0122733Y0310579D01*
X0122471Y0311211D01*
X0122054Y0311754D01*
X0121511Y0312171D01*
X0120879Y0312433D01*
X0120200Y0312522D01*
D02*
G37*
G36*
X0094200Y0362688D02*
X0093090Y0362542D01*
X0092056Y0362113D01*
X0091168Y0361432D01*
X0090487Y0360544D01*
X0090058Y0359510D01*
X0089912Y0358400D01*
X0090058Y0357290D01*
X0090245Y0356840D01*
X0090437Y0356209D01*
X0089754Y0355568D01*
X0089346Y0355254D01*
X0088929Y0354711D01*
X0088667Y0354079D01*
X0088578Y0353400D01*
X0088667Y0352721D01*
X0088929Y0352089D01*
X0089346Y0351546D01*
X0089754Y0351232D01*
X0090437Y0350590D01*
X0090245Y0349960D01*
X0090058Y0349510D01*
X0089912Y0348400D01*
X0090058Y0347290D01*
X0090245Y0346840D01*
X0090437Y0346210D01*
X0089754Y0345568D01*
X0089346Y0345254D01*
X0088929Y0344711D01*
X0088667Y0344079D01*
X0088578Y0343400D01*
X0088667Y0342721D01*
X0088929Y0342089D01*
X0089346Y0341546D01*
X0089754Y0341232D01*
X0090437Y0340591D01*
X0090245Y0339960D01*
X0090058Y0339510D01*
X0089912Y0338400D01*
X0090058Y0337290D01*
X0090245Y0336840D01*
X0090437Y0336210D01*
X0089754Y0335568D01*
X0089346Y0335254D01*
X0088929Y0334711D01*
X0088667Y0334079D01*
X0088578Y0333400D01*
X0088667Y0332721D01*
X0088929Y0332089D01*
X0089346Y0331546D01*
X0089754Y0331232D01*
X0090437Y0330591D01*
X0090245Y0329960D01*
X0090058Y0329510D01*
X0089912Y0328400D01*
X0090058Y0327290D01*
X0090245Y0326840D01*
X0090437Y0326209D01*
X0089754Y0325568D01*
X0089346Y0325254D01*
X0088929Y0324711D01*
X0088667Y0324079D01*
X0088578Y0323400D01*
X0088667Y0322721D01*
X0088929Y0322089D01*
X0089346Y0321546D01*
X0089754Y0321232D01*
X0090437Y0320590D01*
X0090245Y0319960D01*
X0090058Y0319510D01*
X0089912Y0318400D01*
X0090058Y0317290D01*
X0090245Y0316840D01*
X0090437Y0316210D01*
X0089754Y0315568D01*
X0089346Y0315254D01*
X0088929Y0314711D01*
X0088667Y0314079D01*
X0088578Y0313400D01*
X0088667Y0312721D01*
X0088929Y0312089D01*
X0089346Y0311546D01*
X0089754Y0311232D01*
X0090437Y0310591D01*
X0090245Y0309960D01*
X0090058Y0309510D01*
X0089912Y0308400D01*
X0090058Y0307290D01*
X0090487Y0306256D01*
X0091168Y0305368D01*
X0092056Y0304687D01*
X0093090Y0304258D01*
X0094200Y0304112D01*
X0095310Y0304258D01*
X0096344Y0304687D01*
X0097232Y0305368D01*
X0097913Y0306256D01*
X0098342Y0307290D01*
X0098488Y0308400D01*
X0098342Y0309510D01*
X0097913Y0310544D01*
X0097232Y0311432D01*
X0096344Y0312113D01*
X0095310Y0312542D01*
X0094595Y0312636D01*
X0094198Y0313400D01*
X0094595Y0314164D01*
X0095310Y0314258D01*
X0096344Y0314687D01*
X0097232Y0315368D01*
X0097913Y0316256D01*
X0098342Y0317290D01*
X0098488Y0318400D01*
X0098342Y0319510D01*
X0097913Y0320544D01*
X0097232Y0321432D01*
X0096344Y0322113D01*
X0095310Y0322542D01*
X0094595Y0322636D01*
X0094198Y0323400D01*
X0094595Y0324164D01*
X0095310Y0324258D01*
X0096344Y0324687D01*
X0097232Y0325368D01*
X0097913Y0326256D01*
X0098342Y0327290D01*
X0098488Y0328400D01*
X0098342Y0329510D01*
X0097913Y0330544D01*
X0097232Y0331432D01*
X0096344Y0332113D01*
X0095310Y0332542D01*
X0094595Y0332636D01*
X0094198Y0333400D01*
X0094595Y0334164D01*
X0095310Y0334258D01*
X0096344Y0334687D01*
X0097232Y0335368D01*
X0097913Y0336256D01*
X0098342Y0337290D01*
X0098488Y0338400D01*
X0098342Y0339510D01*
X0097913Y0340544D01*
X0097232Y0341432D01*
X0096344Y0342113D01*
X0095310Y0342542D01*
X0094595Y0342636D01*
X0094198Y0343400D01*
X0094595Y0344164D01*
X0095310Y0344258D01*
X0096344Y0344687D01*
X0097232Y0345368D01*
X0097913Y0346256D01*
X0098342Y0347290D01*
X0098488Y0348400D01*
X0098342Y0349510D01*
X0097913Y0350544D01*
X0097232Y0351432D01*
X0096344Y0352113D01*
X0095310Y0352542D01*
X0094595Y0352636D01*
X0094198Y0353400D01*
X0094595Y0354164D01*
X0095310Y0354258D01*
X0096344Y0354687D01*
X0097232Y0355368D01*
X0097913Y0356256D01*
X0098342Y0357290D01*
X0098488Y0358400D01*
X0098342Y0359510D01*
X0097913Y0360544D01*
X0097232Y0361432D01*
X0096344Y0362113D01*
X0095310Y0362542D01*
X0094200Y0362688D01*
D02*
G37*
G36*
X0181200Y0309022D02*
X0180521Y0308933D01*
X0179889Y0308671D01*
X0179346Y0308254D01*
X0178929Y0307711D01*
X0178667Y0307079D01*
X0178578Y0306400D01*
X0178667Y0305721D01*
X0178929Y0305089D01*
X0179346Y0304546D01*
X0179889Y0304129D01*
X0180521Y0303867D01*
X0181200Y0303778D01*
X0181879Y0303867D01*
X0182511Y0304129D01*
X0183054Y0304546D01*
X0183471Y0305089D01*
X0183733Y0305721D01*
X0183822Y0306400D01*
X0183733Y0307079D01*
X0183471Y0307711D01*
X0183054Y0308254D01*
X0182511Y0308671D01*
X0181879Y0308933D01*
X0181200Y0309022D01*
D02*
G37*
G36*
X0203800Y0306122D02*
X0203121Y0306033D01*
X0202489Y0305771D01*
X0201946Y0305354D01*
X0201529Y0304811D01*
X0201267Y0304179D01*
X0201178Y0303500D01*
X0201267Y0302821D01*
X0201529Y0302189D01*
X0201946Y0301646D01*
X0202489Y0301229D01*
X0203121Y0300967D01*
X0203800Y0300878D01*
X0204479Y0300967D01*
X0205111Y0301229D01*
X0205654Y0301646D01*
X0206071Y0302189D01*
X0206333Y0302821D01*
X0206422Y0303500D01*
X0206333Y0304179D01*
X0206071Y0304811D01*
X0205654Y0305354D01*
X0205111Y0305771D01*
X0204479Y0306033D01*
X0203800Y0306122D01*
D02*
G37*
G36*
X0274200Y0312688D02*
X0273090Y0312542D01*
X0272056Y0312113D01*
X0271168Y0311432D01*
X0270487Y0310544D01*
X0270058Y0309510D01*
X0269912Y0308400D01*
X0270058Y0307290D01*
X0270487Y0306256D01*
X0271168Y0305368D01*
X0272056Y0304687D01*
X0273090Y0304258D01*
X0274200Y0304112D01*
X0275310Y0304258D01*
X0276344Y0304687D01*
X0277232Y0305368D01*
X0277913Y0306256D01*
X0278342Y0307290D01*
X0278488Y0308400D01*
X0278342Y0309510D01*
X0277913Y0310544D01*
X0277232Y0311432D01*
X0276344Y0312113D01*
X0275310Y0312542D01*
X0274200Y0312688D01*
D02*
G37*
G36*
X0264200D02*
X0263090Y0312542D01*
X0262056Y0312113D01*
X0261168Y0311432D01*
X0260487Y0310544D01*
X0260058Y0309510D01*
X0259912Y0308400D01*
X0260058Y0307290D01*
X0260487Y0306256D01*
X0261168Y0305368D01*
X0262056Y0304687D01*
X0263090Y0304258D01*
X0264200Y0304112D01*
X0265310Y0304258D01*
X0266344Y0304687D01*
X0267232Y0305368D01*
X0267913Y0306256D01*
X0268342Y0307290D01*
X0268488Y0308400D01*
X0268342Y0309510D01*
X0267913Y0310544D01*
X0267232Y0311432D01*
X0266344Y0312113D01*
X0265310Y0312542D01*
X0264200Y0312688D01*
D02*
G37*
G36*
X0104200D02*
X0103090Y0312542D01*
X0102056Y0312113D01*
X0101168Y0311432D01*
X0100487Y0310544D01*
X0100058Y0309510D01*
X0099912Y0308400D01*
X0100058Y0307290D01*
X0100487Y0306256D01*
X0101168Y0305368D01*
X0102056Y0304687D01*
X0103090Y0304258D01*
X0104200Y0304112D01*
X0105310Y0304258D01*
X0106344Y0304687D01*
X0107232Y0305368D01*
X0107913Y0306256D01*
X0108342Y0307290D01*
X0108488Y0308400D01*
X0108342Y0309510D01*
X0107913Y0310544D01*
X0107232Y0311432D01*
X0106344Y0312113D01*
X0105310Y0312542D01*
X0104200Y0312688D01*
D02*
G37*
G36*
X0274200Y0282688D02*
X0273090Y0282542D01*
X0272056Y0282113D01*
X0271168Y0281432D01*
X0270487Y0280544D01*
X0270058Y0279510D01*
X0269912Y0278400D01*
X0270058Y0277290D01*
X0270487Y0276256D01*
X0271168Y0275368D01*
X0272056Y0274687D01*
X0273090Y0274258D01*
X0274200Y0274112D01*
X0275310Y0274258D01*
X0276344Y0274687D01*
X0276735Y0274987D01*
X0276750Y0274991D01*
X0277895Y0274670D01*
X0277929Y0274589D01*
X0278346Y0274046D01*
X0278889Y0273629D01*
X0279521Y0273367D01*
X0280200Y0273278D01*
X0280879Y0273367D01*
X0281511Y0273629D01*
X0282054Y0274046D01*
X0282471Y0274589D01*
X0282733Y0275221D01*
X0282822Y0275900D01*
X0282733Y0276579D01*
X0282471Y0277211D01*
X0282054Y0277754D01*
X0281511Y0278171D01*
X0280879Y0278433D01*
X0280200Y0278522D01*
X0279521Y0278433D01*
X0279445Y0278401D01*
X0278410Y0278998D01*
X0278409Y0278999D01*
X0278342Y0279510D01*
X0277913Y0280544D01*
X0277232Y0281432D01*
X0276344Y0282113D01*
X0275310Y0282542D01*
X0274200Y0282688D01*
D02*
G37*
G36*
X0193200Y0278522D02*
X0192521Y0278433D01*
X0191889Y0278171D01*
X0191346Y0277754D01*
X0190929Y0277211D01*
X0190667Y0276579D01*
X0190578Y0275900D01*
X0190667Y0275221D01*
X0190929Y0274589D01*
X0191346Y0274046D01*
X0191889Y0273629D01*
X0192521Y0273367D01*
X0193200Y0273278D01*
X0193879Y0273367D01*
X0194511Y0273629D01*
X0195054Y0274046D01*
X0195471Y0274589D01*
X0195733Y0275221D01*
X0195822Y0275900D01*
X0195733Y0276579D01*
X0195471Y0277211D01*
X0195054Y0277754D01*
X0194511Y0278171D01*
X0193879Y0278433D01*
X0193200Y0278522D01*
D02*
G37*
G36*
X0175200D02*
X0174521Y0278433D01*
X0173889Y0278171D01*
X0173346Y0277754D01*
X0172929Y0277211D01*
X0172667Y0276579D01*
X0172578Y0275900D01*
X0172667Y0275221D01*
X0172929Y0274589D01*
X0173346Y0274046D01*
X0173889Y0273629D01*
X0174521Y0273367D01*
X0175200Y0273278D01*
X0175879Y0273367D01*
X0176511Y0273629D01*
X0177054Y0274046D01*
X0177471Y0274589D01*
X0177733Y0275221D01*
X0177822Y0275900D01*
X0177733Y0276579D01*
X0177471Y0277211D01*
X0177054Y0277754D01*
X0176511Y0278171D01*
X0175879Y0278433D01*
X0175200Y0278522D01*
D02*
G37*
G36*
X0143350Y0281672D02*
X0142671Y0281583D01*
X0142038Y0281321D01*
X0141495Y0280904D01*
X0141078Y0280361D01*
X0140816Y0279728D01*
X0140727Y0279050D01*
X0140816Y0278371D01*
X0141078Y0277738D01*
X0141495Y0277195D01*
X0142038Y0276779D01*
X0142671Y0276517D01*
X0143350Y0276427D01*
X0144028Y0276517D01*
X0144661Y0276779D01*
X0145204Y0277195D01*
X0145621Y0277738D01*
X0145883Y0278371D01*
X0145972Y0279050D01*
X0145883Y0279728D01*
X0145621Y0280361D01*
X0145204Y0280904D01*
X0144661Y0281321D01*
X0144028Y0281583D01*
X0143350Y0281672D01*
D02*
G37*
G36*
X0128200Y0280022D02*
X0127521Y0279933D01*
X0126889Y0279671D01*
X0126346Y0279254D01*
X0125929Y0278711D01*
X0125667Y0278079D01*
X0125578Y0277400D01*
X0125667Y0276721D01*
X0125929Y0276089D01*
X0126346Y0275546D01*
X0126889Y0275129D01*
X0127521Y0274867D01*
X0128200Y0274778D01*
X0128879Y0274867D01*
X0129511Y0275129D01*
X0130054Y0275546D01*
X0130471Y0276089D01*
X0130733Y0276721D01*
X0130822Y0277400D01*
X0130733Y0278079D01*
X0130471Y0278711D01*
X0130054Y0279254D01*
X0129511Y0279671D01*
X0128879Y0279933D01*
X0128200Y0280022D01*
D02*
G37*
G36*
X0264200Y0282688D02*
X0263090Y0282542D01*
X0262056Y0282113D01*
X0261168Y0281432D01*
X0260487Y0280544D01*
X0260058Y0279510D01*
X0259912Y0278400D01*
X0260058Y0277290D01*
X0260487Y0276256D01*
X0261168Y0275368D01*
X0262056Y0274687D01*
X0263090Y0274258D01*
X0264200Y0274112D01*
X0265310Y0274258D01*
X0266344Y0274687D01*
X0267232Y0275368D01*
X0267913Y0276256D01*
X0268342Y0277290D01*
X0268488Y0278400D01*
X0268342Y0279510D01*
X0267913Y0280544D01*
X0267232Y0281432D01*
X0266344Y0282113D01*
X0265310Y0282542D01*
X0264200Y0282688D01*
D02*
G37*
G36*
X0247700Y0276022D02*
X0247021Y0275933D01*
X0246389Y0275671D01*
X0245846Y0275254D01*
X0245429Y0274711D01*
X0245167Y0274079D01*
X0245078Y0273400D01*
X0245167Y0272721D01*
X0245429Y0272089D01*
X0245846Y0271546D01*
X0246389Y0271129D01*
X0247021Y0270867D01*
X0247700Y0270778D01*
X0248379Y0270867D01*
X0249011Y0271129D01*
X0249554Y0271546D01*
X0249971Y0272089D01*
X0250233Y0272721D01*
X0250322Y0273400D01*
X0250233Y0274079D01*
X0249971Y0274711D01*
X0249554Y0275254D01*
X0249011Y0275671D01*
X0248379Y0275933D01*
X0247700Y0276022D01*
D02*
G37*
G36*
X0138700Y0268522D02*
X0138021Y0268433D01*
X0137389Y0268171D01*
X0136846Y0267754D01*
X0136429Y0267211D01*
X0136167Y0266579D01*
X0136078Y0265900D01*
X0136167Y0265221D01*
X0136429Y0264589D01*
X0136846Y0264046D01*
X0137389Y0263629D01*
X0138021Y0263367D01*
X0138700Y0263278D01*
X0139379Y0263367D01*
X0140011Y0263629D01*
X0140554Y0264046D01*
X0140971Y0264589D01*
X0141233Y0265221D01*
X0141322Y0265900D01*
X0141233Y0266579D01*
X0140971Y0267211D01*
X0140554Y0267754D01*
X0140011Y0268171D01*
X0139379Y0268433D01*
X0138700Y0268522D01*
D02*
G37*
G36*
X0098200Y0265522D02*
X0097521Y0265433D01*
X0096889Y0265171D01*
X0096346Y0264754D01*
X0095929Y0264211D01*
X0095667Y0263579D01*
X0095578Y0262900D01*
X0095667Y0262221D01*
X0095929Y0261589D01*
X0096346Y0261046D01*
X0096889Y0260629D01*
X0097521Y0260367D01*
X0098200Y0260278D01*
X0098879Y0260367D01*
X0099511Y0260629D01*
X0100054Y0261046D01*
X0100471Y0261589D01*
X0100733Y0262221D01*
X0100822Y0262900D01*
X0100733Y0263579D01*
X0100471Y0264211D01*
X0100054Y0264754D01*
X0099511Y0265171D01*
X0098879Y0265433D01*
X0098200Y0265522D01*
D02*
G37*
G36*
X0281700Y0263022D02*
X0281021Y0262933D01*
X0280389Y0262671D01*
X0279846Y0262254D01*
X0279429Y0261711D01*
X0279167Y0261079D01*
X0279078Y0260400D01*
X0279167Y0259721D01*
X0279429Y0259089D01*
X0279846Y0258546D01*
X0280389Y0258129D01*
X0281021Y0257867D01*
X0281700Y0257778D01*
X0282379Y0257867D01*
X0283011Y0258129D01*
X0283554Y0258546D01*
X0283971Y0259089D01*
X0284233Y0259721D01*
X0284322Y0260400D01*
X0284233Y0261079D01*
X0283971Y0261711D01*
X0283554Y0262254D01*
X0283011Y0262671D01*
X0282379Y0262933D01*
X0281700Y0263022D01*
D02*
G37*
G36*
X0219700Y0276022D02*
X0219021Y0275933D01*
X0218389Y0275671D01*
X0217846Y0275254D01*
X0217429Y0274711D01*
X0217167Y0274079D01*
X0217078Y0273400D01*
X0217167Y0272721D01*
X0217429Y0272089D01*
X0217846Y0271546D01*
X0218389Y0271129D01*
X0219021Y0270867D01*
X0219700Y0270778D01*
X0220379Y0270867D01*
X0221011Y0271129D01*
X0221554Y0271546D01*
X0221971Y0272089D01*
X0222233Y0272721D01*
X0222322Y0273400D01*
X0222233Y0274079D01*
X0221971Y0274711D01*
X0221554Y0275254D01*
X0221011Y0275671D01*
X0220379Y0275933D01*
X0219700Y0276022D01*
D02*
G37*
G36*
X0160700Y0273022D02*
X0160021Y0272933D01*
X0159389Y0272671D01*
X0158846Y0272254D01*
X0158429Y0271711D01*
X0158167Y0271079D01*
X0158078Y0270400D01*
X0158167Y0269721D01*
X0158429Y0269089D01*
X0158846Y0268546D01*
X0159389Y0268129D01*
X0160021Y0267867D01*
X0160700Y0267778D01*
X0161379Y0267867D01*
X0162011Y0268129D01*
X0162554Y0268546D01*
X0162971Y0269089D01*
X0163233Y0269721D01*
X0163322Y0270400D01*
X0163233Y0271079D01*
X0162971Y0271711D01*
X0162554Y0272254D01*
X0162011Y0272671D01*
X0161379Y0272933D01*
X0160700Y0273022D01*
D02*
G37*
G36*
X0116700Y0271022D02*
X0116021Y0270933D01*
X0115389Y0270671D01*
X0114846Y0270254D01*
X0114429Y0269711D01*
X0114167Y0269079D01*
X0114078Y0268400D01*
X0114167Y0267721D01*
X0114429Y0267089D01*
X0114846Y0266546D01*
X0115389Y0266129D01*
X0116021Y0265867D01*
X0116700Y0265778D01*
X0117379Y0265867D01*
X0118011Y0266129D01*
X0118554Y0266546D01*
X0118971Y0267089D01*
X0119233Y0267721D01*
X0119322Y0268400D01*
X0119233Y0269079D01*
X0118971Y0269711D01*
X0118554Y0270254D01*
X0118011Y0270671D01*
X0117379Y0270933D01*
X0116700Y0271022D01*
D02*
G37*
G36*
X0183200Y0284522D02*
X0182521Y0284433D01*
X0181889Y0284171D01*
X0181346Y0283754D01*
X0180929Y0283211D01*
X0180667Y0282579D01*
X0180578Y0281900D01*
X0180667Y0281221D01*
X0180929Y0280589D01*
X0181346Y0280046D01*
X0181889Y0279629D01*
X0182521Y0279367D01*
X0183200Y0279278D01*
X0183879Y0279367D01*
X0184511Y0279629D01*
X0185054Y0280046D01*
X0185471Y0280589D01*
X0185733Y0281221D01*
X0185822Y0281900D01*
X0185733Y0282579D01*
X0185471Y0283211D01*
X0185054Y0283754D01*
X0184511Y0284171D01*
X0183879Y0284433D01*
X0183200Y0284522D01*
D02*
G37*
G36*
X0255700Y0291522D02*
X0255021Y0291433D01*
X0254389Y0291171D01*
X0253846Y0290754D01*
X0253429Y0290211D01*
X0253167Y0289579D01*
X0253078Y0288900D01*
X0253167Y0288221D01*
X0253429Y0287589D01*
X0253846Y0287046D01*
X0254389Y0286629D01*
X0255021Y0286367D01*
X0255700Y0286278D01*
X0256379Y0286367D01*
X0257011Y0286629D01*
X0257554Y0287046D01*
X0257971Y0287589D01*
X0258233Y0288221D01*
X0258322Y0288900D01*
X0258233Y0289579D01*
X0257971Y0290211D01*
X0257554Y0290754D01*
X0257011Y0291171D01*
X0256379Y0291433D01*
X0255700Y0291522D01*
D02*
G37*
G36*
X0239700D02*
X0239021Y0291433D01*
X0238389Y0291171D01*
X0237846Y0290754D01*
X0237429Y0290211D01*
X0237167Y0289579D01*
X0237078Y0288900D01*
X0237167Y0288221D01*
X0237429Y0287589D01*
X0237846Y0287046D01*
X0238389Y0286629D01*
X0239021Y0286367D01*
X0239700Y0286278D01*
X0240379Y0286367D01*
X0241011Y0286629D01*
X0241554Y0287046D01*
X0241971Y0287589D01*
X0242233Y0288221D01*
X0242322Y0288900D01*
X0242233Y0289579D01*
X0241971Y0290211D01*
X0241554Y0290754D01*
X0241011Y0291171D01*
X0240379Y0291433D01*
X0239700Y0291522D01*
D02*
G37*
G36*
X0223700D02*
X0223021Y0291433D01*
X0222389Y0291171D01*
X0221846Y0290754D01*
X0221429Y0290211D01*
X0221167Y0289579D01*
X0221078Y0288900D01*
X0221167Y0288221D01*
X0221429Y0287589D01*
X0221846Y0287046D01*
X0222389Y0286629D01*
X0223021Y0286367D01*
X0223700Y0286278D01*
X0224379Y0286367D01*
X0225011Y0286629D01*
X0225554Y0287046D01*
X0225971Y0287589D01*
X0226233Y0288221D01*
X0226322Y0288900D01*
X0226233Y0289579D01*
X0225971Y0290211D01*
X0225554Y0290754D01*
X0225011Y0291171D01*
X0224379Y0291433D01*
X0223700Y0291522D01*
D02*
G37*
G36*
X0143700Y0303022D02*
X0143021Y0302933D01*
X0142389Y0302671D01*
X0141846Y0302254D01*
X0141429Y0301711D01*
X0141167Y0301079D01*
X0141078Y0300400D01*
X0141167Y0299721D01*
X0141429Y0299089D01*
X0141773Y0298400D01*
X0141429Y0297711D01*
X0141167Y0297079D01*
X0141078Y0296400D01*
X0141167Y0295721D01*
X0141429Y0295089D01*
X0141846Y0294546D01*
X0142389Y0294129D01*
X0143021Y0293867D01*
X0143700Y0293778D01*
X0144379Y0293867D01*
X0145011Y0294129D01*
X0145554Y0294546D01*
X0145971Y0295089D01*
X0146233Y0295721D01*
X0146322Y0296400D01*
X0146233Y0297079D01*
X0145971Y0297711D01*
X0145627Y0298400D01*
X0145971Y0299089D01*
X0146233Y0299721D01*
X0146322Y0300400D01*
X0146233Y0301079D01*
X0145971Y0301711D01*
X0145554Y0302254D01*
X0145011Y0302671D01*
X0144379Y0302933D01*
X0143700Y0303022D01*
D02*
G37*
G36*
X0150838Y0293160D02*
X0150159Y0293071D01*
X0149527Y0292809D01*
X0148983Y0292392D01*
X0148567Y0291849D01*
X0148305Y0291216D01*
X0148215Y0290538D01*
X0148305Y0289859D01*
X0148567Y0289227D01*
X0148983Y0288683D01*
X0149527Y0288267D01*
X0150159Y0288005D01*
X0150838Y0287915D01*
X0151516Y0288005D01*
X0152149Y0288267D01*
X0152692Y0288683D01*
X0153109Y0289227D01*
X0153371Y0289859D01*
X0153460Y0290538D01*
X0153371Y0291216D01*
X0153109Y0291849D01*
X0152692Y0292392D01*
X0152149Y0292809D01*
X0151516Y0293071D01*
X0150838Y0293160D01*
D02*
G37*
G36*
X0216200Y0293022D02*
X0215521Y0292933D01*
X0214889Y0292671D01*
X0214346Y0292254D01*
X0213929Y0291711D01*
X0213667Y0291079D01*
X0213578Y0290400D01*
X0213667Y0289721D01*
X0213929Y0289089D01*
X0214346Y0288546D01*
X0214889Y0288129D01*
X0215521Y0287867D01*
X0216200Y0287778D01*
X0216879Y0287867D01*
X0217511Y0288129D01*
X0218054Y0288546D01*
X0218471Y0289089D01*
X0218733Y0289721D01*
X0218822Y0290400D01*
X0218733Y0291079D01*
X0218471Y0291711D01*
X0218054Y0292254D01*
X0217511Y0292671D01*
X0216879Y0292933D01*
X0216200Y0293022D01*
D02*
G37*
G36*
X0104200Y0292688D02*
X0103090Y0292542D01*
X0102056Y0292113D01*
X0101168Y0291432D01*
X0100487Y0290544D01*
X0100058Y0289510D01*
X0099912Y0288400D01*
X0100058Y0287290D01*
X0100141Y0287091D01*
X0099543Y0286245D01*
X0098857D01*
X0098259Y0287091D01*
X0098342Y0287290D01*
X0098488Y0288400D01*
X0098342Y0289510D01*
X0097913Y0290544D01*
X0097232Y0291432D01*
X0096344Y0292113D01*
X0095310Y0292542D01*
X0094200Y0292688D01*
X0093090Y0292542D01*
X0092056Y0292113D01*
X0091168Y0291432D01*
X0090487Y0290544D01*
X0090058Y0289510D01*
X0089912Y0288400D01*
X0090058Y0287290D01*
X0090487Y0286256D01*
X0091168Y0285368D01*
X0092056Y0284687D01*
X0093090Y0284258D01*
X0094200Y0284112D01*
X0095310Y0284258D01*
X0095509Y0284341D01*
X0096355Y0283743D01*
Y0283057D01*
X0095509Y0282459D01*
X0095310Y0282542D01*
X0094200Y0282688D01*
X0093090Y0282542D01*
X0092056Y0282113D01*
X0091168Y0281432D01*
X0090487Y0280544D01*
X0090058Y0279510D01*
X0089912Y0278400D01*
X0090058Y0277290D01*
X0090487Y0276256D01*
X0091168Y0275368D01*
X0092056Y0274687D01*
X0093090Y0274258D01*
X0094200Y0274112D01*
X0095310Y0274258D01*
X0096344Y0274687D01*
X0097232Y0275368D01*
X0097913Y0276256D01*
X0098342Y0277290D01*
X0098488Y0278400D01*
X0098342Y0279510D01*
X0098259Y0279709D01*
X0098857Y0280555D01*
X0099543D01*
X0100141Y0279709D01*
X0100058Y0279510D01*
X0099912Y0278400D01*
X0100058Y0277290D01*
X0100487Y0276256D01*
X0101168Y0275368D01*
X0102056Y0274687D01*
X0103090Y0274258D01*
X0104200Y0274112D01*
X0105310Y0274258D01*
X0106344Y0274687D01*
X0107232Y0275368D01*
X0107635Y0275894D01*
X0108390Y0275768D01*
X0108701Y0275640D01*
X0108929Y0275089D01*
X0109346Y0274546D01*
X0109889Y0274129D01*
X0110521Y0273867D01*
X0111200Y0273778D01*
X0111879Y0273867D01*
X0112511Y0274129D01*
X0113054Y0274546D01*
X0113471Y0275089D01*
X0113733Y0275721D01*
X0113822Y0276400D01*
X0113733Y0277079D01*
X0113471Y0277711D01*
X0113054Y0278254D01*
X0112511Y0278671D01*
X0111879Y0278933D01*
X0111200Y0279022D01*
X0110521Y0278933D01*
X0109889Y0278671D01*
X0109460Y0278342D01*
X0109271Y0278353D01*
X0109026Y0278421D01*
X0108445Y0278724D01*
X0108342Y0279510D01*
X0107913Y0280544D01*
X0107232Y0281432D01*
X0106344Y0282113D01*
X0105310Y0282542D01*
X0104200Y0282688D01*
X0103090Y0282542D01*
X0102891Y0282459D01*
X0102045Y0283057D01*
Y0283743D01*
X0102891Y0284341D01*
X0103090Y0284258D01*
X0104200Y0284112D01*
X0105310Y0284258D01*
X0106344Y0284687D01*
X0107232Y0285368D01*
X0107913Y0286256D01*
X0108168Y0286870D01*
X0108169Y0286872D01*
X0109165Y0287191D01*
X0109335Y0287171D01*
X0109389Y0287129D01*
X0110021Y0286867D01*
X0110700Y0286778D01*
X0111379Y0286867D01*
X0112011Y0287129D01*
X0112554Y0287546D01*
X0112971Y0288089D01*
X0113233Y0288721D01*
X0113322Y0289400D01*
X0113233Y0290079D01*
X0112971Y0290711D01*
X0112554Y0291254D01*
X0112011Y0291671D01*
X0111379Y0291933D01*
X0110700Y0292022D01*
X0110021Y0291933D01*
X0109389Y0291671D01*
X0108846Y0291254D01*
X0108722Y0291094D01*
X0107656Y0291020D01*
X0107500Y0291082D01*
X0107232Y0291432D01*
X0106344Y0292113D01*
X0105310Y0292542D01*
X0104200Y0292688D01*
D02*
G37*
G36*
X0264200D02*
X0263090Y0292542D01*
X0262056Y0292113D01*
X0261168Y0291432D01*
X0260487Y0290544D01*
X0260058Y0289510D01*
X0259912Y0288400D01*
X0260058Y0287290D01*
X0260487Y0286256D01*
X0261168Y0285368D01*
X0262056Y0284687D01*
X0263090Y0284258D01*
X0264200Y0284112D01*
X0265310Y0284258D01*
X0266344Y0284687D01*
X0267232Y0285368D01*
X0267913Y0286256D01*
X0268342Y0287290D01*
X0268488Y0288400D01*
X0268342Y0289510D01*
X0267913Y0290544D01*
X0267232Y0291432D01*
X0266344Y0292113D01*
X0265310Y0292542D01*
X0264200Y0292688D01*
D02*
G37*
G36*
X0161200Y0288522D02*
X0160521Y0288433D01*
X0159889Y0288171D01*
X0159346Y0287754D01*
X0158929Y0287211D01*
X0158667Y0286579D01*
X0158578Y0285900D01*
X0158667Y0285221D01*
X0158929Y0284589D01*
X0159346Y0284046D01*
X0159889Y0283629D01*
X0160521Y0283367D01*
X0161200Y0283278D01*
X0161879Y0283367D01*
X0162511Y0283629D01*
X0163054Y0284046D01*
X0163471Y0284589D01*
X0163733Y0285221D01*
X0163822Y0285900D01*
X0163733Y0286579D01*
X0163471Y0287211D01*
X0163054Y0287754D01*
X0162511Y0288171D01*
X0161879Y0288433D01*
X0161200Y0288522D01*
D02*
G37*
G36*
X0207700Y0287522D02*
X0207021Y0287433D01*
X0206389Y0287171D01*
X0205846Y0286754D01*
X0205429Y0286211D01*
X0205167Y0285579D01*
X0205078Y0284900D01*
X0205167Y0284221D01*
X0205429Y0283589D01*
X0205846Y0283046D01*
X0206389Y0282629D01*
X0207021Y0282367D01*
X0207700Y0282278D01*
X0208379Y0282367D01*
X0209011Y0282629D01*
X0209554Y0283046D01*
X0209971Y0283589D01*
X0210233Y0284221D01*
X0210322Y0284900D01*
X0210233Y0285579D01*
X0209971Y0286211D01*
X0209554Y0286754D01*
X0209011Y0287171D01*
X0208379Y0287433D01*
X0207700Y0287522D01*
D02*
G37*
G36*
X0172299Y0291424D02*
X0171620Y0291334D01*
X0170988Y0291072D01*
X0170445Y0290655D01*
X0170028Y0290112D01*
X0169766Y0289480D01*
X0169676Y0288801D01*
X0169766Y0288122D01*
X0170028Y0287490D01*
X0170445Y0286947D01*
X0170988Y0286530D01*
X0171620Y0286268D01*
X0172299Y0286179D01*
X0172978Y0286268D01*
X0173610Y0286530D01*
X0174153Y0286947D01*
X0174570Y0287490D01*
X0174832Y0288122D01*
X0174921Y0288801D01*
X0174832Y0289480D01*
X0174570Y0290112D01*
X0174153Y0290655D01*
X0173610Y0291072D01*
X0172978Y0291334D01*
X0172299Y0291424D01*
D02*
G37*
G36*
X0121700Y0291022D02*
X0121021Y0290933D01*
X0120389Y0290671D01*
X0119846Y0290254D01*
X0119429Y0289711D01*
X0119167Y0289079D01*
X0119078Y0288400D01*
X0119167Y0287721D01*
X0119429Y0287089D01*
X0119846Y0286546D01*
X0120389Y0286129D01*
X0121021Y0285867D01*
X0121700Y0285778D01*
X0122379Y0285867D01*
X0123011Y0286129D01*
X0123554Y0286546D01*
X0123971Y0287089D01*
X0124233Y0287721D01*
X0124322Y0288400D01*
X0124233Y0289079D01*
X0123971Y0289711D01*
X0123554Y0290254D01*
X0123011Y0290671D01*
X0122379Y0290933D01*
X0121700Y0291022D01*
D02*
G37*
G36*
X0274200Y0292688D02*
X0273090Y0292542D01*
X0272056Y0292113D01*
X0271168Y0291432D01*
X0270487Y0290544D01*
X0270058Y0289510D01*
X0269912Y0288400D01*
X0270058Y0287290D01*
X0270487Y0286256D01*
X0271168Y0285368D01*
X0272056Y0284687D01*
X0273090Y0284258D01*
X0274200Y0284112D01*
X0275310Y0284258D01*
X0276344Y0284687D01*
X0277232Y0285368D01*
X0277913Y0286256D01*
X0278342Y0287290D01*
X0278488Y0288400D01*
X0278342Y0289510D01*
X0277913Y0290544D01*
X0277232Y0291432D01*
X0276344Y0292113D01*
X0275310Y0292542D01*
X0274200Y0292688D01*
D02*
G37*
G36*
X0230200Y0357522D02*
X0229521Y0357433D01*
X0228889Y0357171D01*
X0228346Y0356754D01*
X0227929Y0356211D01*
X0227667Y0355579D01*
X0227578Y0354900D01*
X0227667Y0354221D01*
X0227929Y0353589D01*
X0228346Y0353046D01*
X0228889Y0352629D01*
X0229521Y0352367D01*
X0230200Y0352278D01*
X0230879Y0352367D01*
X0231511Y0352629D01*
X0232054Y0353046D01*
X0232471Y0353589D01*
X0232733Y0354221D01*
X0232822Y0354900D01*
X0232733Y0355579D01*
X0232471Y0356211D01*
X0232054Y0356754D01*
X0231511Y0357171D01*
X0230879Y0357433D01*
X0230200Y0357522D01*
D02*
G37*
G36*
X0213700D02*
X0213021Y0357433D01*
X0212389Y0357171D01*
X0211846Y0356754D01*
X0211429Y0356211D01*
X0211167Y0355579D01*
X0211078Y0354900D01*
X0211167Y0354221D01*
X0211429Y0353589D01*
X0211846Y0353046D01*
X0212389Y0352629D01*
X0213021Y0352367D01*
X0213700Y0352278D01*
X0214379Y0352367D01*
X0215011Y0352629D01*
X0215554Y0353046D01*
X0215971Y0353589D01*
X0216233Y0354221D01*
X0216322Y0354900D01*
X0216233Y0355579D01*
X0215971Y0356211D01*
X0215554Y0356754D01*
X0215011Y0357171D01*
X0214379Y0357433D01*
X0213700Y0357522D01*
D02*
G37*
G36*
X0173200Y0356022D02*
X0172521Y0355933D01*
X0171889Y0355671D01*
X0171346Y0355254D01*
X0170929Y0354711D01*
X0170667Y0354079D01*
X0170578Y0353400D01*
X0170667Y0352721D01*
X0170929Y0352089D01*
X0171346Y0351546D01*
X0171889Y0351129D01*
X0172521Y0350867D01*
X0173200Y0350778D01*
X0173879Y0350867D01*
X0174511Y0351129D01*
X0175054Y0351546D01*
X0175471Y0352089D01*
X0175733Y0352721D01*
X0175822Y0353400D01*
X0175733Y0354079D01*
X0175471Y0354711D01*
X0175054Y0355254D01*
X0174511Y0355671D01*
X0173879Y0355933D01*
X0173200Y0356022D01*
D02*
G37*
G36*
X0274200Y0362688D02*
X0273090Y0362542D01*
X0272056Y0362113D01*
X0271168Y0361432D01*
X0270487Y0360544D01*
X0270058Y0359510D01*
X0269912Y0358400D01*
X0270058Y0357290D01*
X0270487Y0356256D01*
X0271168Y0355368D01*
X0272056Y0354687D01*
X0273090Y0354258D01*
X0274200Y0354112D01*
X0275310Y0354258D01*
X0276344Y0354687D01*
X0277232Y0355368D01*
X0277913Y0356256D01*
X0278342Y0357290D01*
X0278488Y0358400D01*
X0278342Y0359510D01*
X0277913Y0360544D01*
X0277232Y0361432D01*
X0276344Y0362113D01*
X0275310Y0362542D01*
X0274200Y0362688D01*
D02*
G37*
G36*
X0264200D02*
X0263090Y0362542D01*
X0262056Y0362113D01*
X0261168Y0361432D01*
X0260487Y0360544D01*
X0260058Y0359510D01*
X0259912Y0358400D01*
X0260058Y0357290D01*
X0260487Y0356256D01*
X0261168Y0355368D01*
X0262056Y0354687D01*
X0263090Y0354258D01*
X0264200Y0354112D01*
X0265310Y0354258D01*
X0266344Y0354687D01*
X0267232Y0355368D01*
X0267913Y0356256D01*
X0268342Y0357290D01*
X0268488Y0358400D01*
X0268342Y0359510D01*
X0267913Y0360544D01*
X0267232Y0361432D01*
X0266344Y0362113D01*
X0265310Y0362542D01*
X0264200Y0362688D01*
D02*
G37*
G36*
X0104200D02*
X0103090Y0362542D01*
X0102056Y0362113D01*
X0101168Y0361432D01*
X0100487Y0360544D01*
X0100058Y0359510D01*
X0099912Y0358400D01*
X0100058Y0357290D01*
X0100487Y0356256D01*
X0101168Y0355368D01*
X0102056Y0354687D01*
X0103090Y0354258D01*
X0104200Y0354112D01*
X0105310Y0354258D01*
X0106344Y0354687D01*
X0107232Y0355368D01*
X0107913Y0356256D01*
X0108342Y0357290D01*
X0108488Y0358400D01*
X0108342Y0359510D01*
X0107913Y0360544D01*
X0107232Y0361432D01*
X0106344Y0362113D01*
X0105310Y0362542D01*
X0104200Y0362688D01*
D02*
G37*
G36*
X0153200Y0356022D02*
X0152521Y0355933D01*
X0151889Y0355671D01*
X0151346Y0355254D01*
X0150929Y0354711D01*
X0150667Y0354079D01*
X0150578Y0353400D01*
X0150667Y0352721D01*
X0150929Y0352089D01*
X0151346Y0351546D01*
X0151889Y0351129D01*
X0152521Y0350867D01*
X0153200Y0350778D01*
X0153879Y0350867D01*
X0154511Y0351129D01*
X0155054Y0351546D01*
X0155471Y0352089D01*
X0155733Y0352721D01*
X0155822Y0353400D01*
X0155733Y0354079D01*
X0155471Y0354711D01*
X0155054Y0355254D01*
X0154511Y0355671D01*
X0153879Y0355933D01*
X0153200Y0356022D01*
D02*
G37*
G36*
X0264200Y0352688D02*
X0263090Y0352542D01*
X0262056Y0352113D01*
X0261168Y0351432D01*
X0260487Y0350544D01*
X0260058Y0349510D01*
X0259912Y0348400D01*
X0260058Y0347290D01*
X0260487Y0346256D01*
X0261168Y0345368D01*
X0262056Y0344687D01*
X0263090Y0344258D01*
X0264200Y0344112D01*
X0265310Y0344258D01*
X0266344Y0344687D01*
X0267232Y0345368D01*
X0267913Y0346256D01*
X0268342Y0347290D01*
X0268488Y0348400D01*
X0268342Y0349510D01*
X0267913Y0350544D01*
X0267232Y0351432D01*
X0266344Y0352113D01*
X0265310Y0352542D01*
X0264200Y0352688D01*
D02*
G37*
G36*
X0104200D02*
X0103090Y0352542D01*
X0102056Y0352113D01*
X0101168Y0351432D01*
X0100487Y0350544D01*
X0100058Y0349510D01*
X0099912Y0348400D01*
X0100058Y0347290D01*
X0100487Y0346256D01*
X0101168Y0345368D01*
X0102056Y0344687D01*
X0103090Y0344258D01*
X0104200Y0344112D01*
X0105310Y0344258D01*
X0106344Y0344687D01*
X0107232Y0345368D01*
X0107913Y0346256D01*
X0108342Y0347290D01*
X0108488Y0348400D01*
X0108342Y0349510D01*
X0107913Y0350544D01*
X0107232Y0351432D01*
X0106344Y0352113D01*
X0105310Y0352542D01*
X0104200Y0352688D01*
D02*
G37*
G36*
X0219200Y0347022D02*
X0218521Y0346933D01*
X0217889Y0346671D01*
X0217346Y0346254D01*
X0216929Y0345711D01*
X0216667Y0345079D01*
X0216578Y0344400D01*
X0216667Y0343721D01*
X0216929Y0343089D01*
X0217346Y0342546D01*
X0217889Y0342129D01*
X0218521Y0341867D01*
X0219200Y0341778D01*
X0219879Y0341867D01*
X0220511Y0342129D01*
X0221054Y0342546D01*
X0221471Y0343089D01*
X0221733Y0343721D01*
X0221822Y0344400D01*
X0221733Y0345079D01*
X0221471Y0345711D01*
X0221054Y0346254D01*
X0220511Y0346671D01*
X0219879Y0346933D01*
X0219200Y0347022D01*
D02*
G37*
G36*
X0281700Y0355022D02*
X0281021Y0354933D01*
X0280389Y0354671D01*
X0279846Y0354254D01*
X0279429Y0353711D01*
X0279167Y0353079D01*
X0279078Y0352400D01*
X0279167Y0351721D01*
X0279429Y0351089D01*
X0279846Y0350546D01*
X0280389Y0350129D01*
X0281021Y0349867D01*
X0281700Y0349778D01*
X0282379Y0349867D01*
X0283011Y0350129D01*
X0283554Y0350546D01*
X0283971Y0351089D01*
X0284233Y0351721D01*
X0284322Y0352400D01*
X0284233Y0353079D01*
X0283971Y0353711D01*
X0283554Y0354254D01*
X0283011Y0354671D01*
X0282379Y0354933D01*
X0281700Y0355022D01*
D02*
G37*
G36*
X0118135Y0354309D02*
X0117456Y0354220D01*
X0116824Y0353958D01*
X0116281Y0353541D01*
X0115864Y0352998D01*
X0115602Y0352365D01*
X0115513Y0351687D01*
X0115602Y0351008D01*
X0115864Y0350375D01*
X0116281Y0349832D01*
X0116824Y0349415D01*
X0117456Y0349153D01*
X0118135Y0349064D01*
X0118814Y0349153D01*
X0119447Y0349415D01*
X0119990Y0349832D01*
X0120406Y0350375D01*
X0120668Y0351008D01*
X0120758Y0351687D01*
X0120668Y0352365D01*
X0120406Y0352998D01*
X0119990Y0353541D01*
X0119447Y0353958D01*
X0118814Y0354220D01*
X0118135Y0354309D01*
D02*
G37*
G36*
X0274200Y0352688D02*
X0273090Y0352542D01*
X0272056Y0352113D01*
X0271168Y0351432D01*
X0270487Y0350544D01*
X0270058Y0349510D01*
X0269912Y0348400D01*
X0270058Y0347290D01*
X0270487Y0346256D01*
X0271168Y0345368D01*
X0272056Y0344687D01*
X0273090Y0344258D01*
X0274200Y0344112D01*
X0275310Y0344258D01*
X0276344Y0344687D01*
X0277232Y0345368D01*
X0277913Y0346256D01*
X0278342Y0347290D01*
X0278488Y0348400D01*
X0278342Y0349510D01*
X0277913Y0350544D01*
X0277232Y0351432D01*
X0276344Y0352113D01*
X0275310Y0352542D01*
X0274200Y0352688D01*
D02*
G37*
G36*
X0193700Y0359522D02*
X0193021Y0359433D01*
X0192389Y0359171D01*
X0191846Y0358754D01*
X0191429Y0358211D01*
X0191167Y0357579D01*
X0191078Y0356900D01*
X0191167Y0356221D01*
X0191429Y0355589D01*
X0191846Y0355046D01*
X0192389Y0354629D01*
X0193021Y0354367D01*
X0193700Y0354278D01*
X0194379Y0354367D01*
X0195011Y0354629D01*
X0195554Y0355046D01*
X0195971Y0355589D01*
X0196233Y0356221D01*
X0196322Y0356900D01*
X0196233Y0357579D01*
X0195971Y0358211D01*
X0195554Y0358754D01*
X0195011Y0359171D01*
X0194379Y0359433D01*
X0193700Y0359522D01*
D02*
G37*
G36*
X0225200Y0375522D02*
X0224521Y0375433D01*
X0223889Y0375171D01*
X0223346Y0374754D01*
X0222929Y0374211D01*
X0222667Y0373579D01*
X0222578Y0372900D01*
X0222667Y0372221D01*
X0222929Y0371589D01*
X0223346Y0371046D01*
X0223889Y0370629D01*
X0224521Y0370367D01*
X0225200Y0370278D01*
X0225879Y0370367D01*
X0226511Y0370629D01*
X0227054Y0371046D01*
X0227471Y0371589D01*
X0227733Y0372221D01*
X0227822Y0372900D01*
X0227733Y0373579D01*
X0227471Y0374211D01*
X0227054Y0374754D01*
X0226511Y0375171D01*
X0225879Y0375433D01*
X0225200Y0375522D01*
D02*
G37*
G36*
X0193700D02*
X0193021Y0375433D01*
X0192389Y0375171D01*
X0191846Y0374754D01*
X0191429Y0374211D01*
X0191167Y0373579D01*
X0191078Y0372900D01*
X0191167Y0372221D01*
X0191429Y0371589D01*
X0191846Y0371046D01*
X0192389Y0370629D01*
X0193021Y0370367D01*
X0193700Y0370278D01*
X0194379Y0370367D01*
X0195011Y0370629D01*
X0195554Y0371046D01*
X0195971Y0371589D01*
X0196233Y0372221D01*
X0196322Y0372900D01*
X0196233Y0373579D01*
X0195971Y0374211D01*
X0195554Y0374754D01*
X0195011Y0375171D01*
X0194379Y0375433D01*
X0193700Y0375522D01*
D02*
G37*
G36*
X0173200Y0374022D02*
X0172521Y0373933D01*
X0171889Y0373671D01*
X0171346Y0373254D01*
X0170929Y0372711D01*
X0170667Y0372079D01*
X0170578Y0371400D01*
X0170667Y0370721D01*
X0170929Y0370089D01*
X0171346Y0369546D01*
X0171889Y0369129D01*
X0172521Y0368867D01*
X0173200Y0368778D01*
X0173879Y0368867D01*
X0174511Y0369129D01*
X0175054Y0369546D01*
X0175471Y0370089D01*
X0175733Y0370721D01*
X0175822Y0371400D01*
X0175733Y0372079D01*
X0175471Y0372711D01*
X0175054Y0373254D01*
X0174511Y0373671D01*
X0173879Y0373933D01*
X0173200Y0374022D01*
D02*
G37*
G36*
X0279700Y0388022D02*
X0279021Y0387933D01*
X0278389Y0387671D01*
X0277846Y0387254D01*
X0277429Y0386711D01*
X0277167Y0386079D01*
X0277078Y0385400D01*
X0277167Y0384721D01*
X0277429Y0384089D01*
X0277846Y0383546D01*
X0278389Y0383129D01*
X0279021Y0382867D01*
X0279700Y0382778D01*
X0280379Y0382867D01*
X0281011Y0383129D01*
X0281554Y0383546D01*
X0281971Y0384089D01*
X0282233Y0384721D01*
X0282322Y0385400D01*
X0282233Y0386079D01*
X0281971Y0386711D01*
X0281554Y0387254D01*
X0281011Y0387671D01*
X0280379Y0387933D01*
X0279700Y0388022D01*
D02*
G37*
G36*
X0246200D02*
X0245521Y0387933D01*
X0244889Y0387671D01*
X0244346Y0387254D01*
X0243929Y0386711D01*
X0243667Y0386079D01*
X0243578Y0385400D01*
X0243667Y0384721D01*
X0243929Y0384089D01*
X0244346Y0383546D01*
X0244889Y0383129D01*
X0245521Y0382867D01*
X0246200Y0382778D01*
X0246879Y0382867D01*
X0247511Y0383129D01*
X0248054Y0383546D01*
X0248471Y0384089D01*
X0248733Y0384721D01*
X0248822Y0385400D01*
X0248733Y0386079D01*
X0248471Y0386711D01*
X0248054Y0387254D01*
X0247511Y0387671D01*
X0246879Y0387933D01*
X0246200Y0388022D01*
D02*
G37*
G36*
X0111200Y0374522D02*
X0110521Y0374433D01*
X0109889Y0374171D01*
X0109346Y0373754D01*
X0108929Y0373211D01*
X0108667Y0372579D01*
X0108578Y0371900D01*
X0108652Y0371334D01*
X0108667Y0371221D01*
X0108668Y0371177D01*
X0107808Y0370681D01*
X0107692Y0370832D01*
X0107232Y0371432D01*
X0106344Y0372113D01*
X0105310Y0372542D01*
X0104200Y0372688D01*
X0103090Y0372542D01*
X0102056Y0372113D01*
X0101168Y0371432D01*
X0100487Y0370544D01*
X0100058Y0369510D01*
X0099912Y0368400D01*
X0100058Y0367290D01*
X0100487Y0366256D01*
X0101168Y0365368D01*
X0102056Y0364687D01*
X0103090Y0364258D01*
X0104200Y0364112D01*
X0105310Y0364258D01*
X0106344Y0364687D01*
X0107232Y0365368D01*
X0107913Y0366256D01*
X0108342Y0367290D01*
X0108488Y0368400D01*
X0108342Y0369510D01*
X0108220Y0369803D01*
X0108160Y0369948D01*
X0109034Y0370452D01*
X0109150Y0370301D01*
X0109346Y0370046D01*
X0109889Y0369629D01*
X0110521Y0369367D01*
X0111200Y0369278D01*
X0111879Y0369367D01*
X0112511Y0369629D01*
X0113054Y0370046D01*
X0113471Y0370589D01*
X0113733Y0371221D01*
X0113822Y0371900D01*
X0113733Y0372579D01*
X0113471Y0373211D01*
X0113054Y0373754D01*
X0112511Y0374171D01*
X0111879Y0374433D01*
X0111200Y0374522D01*
D02*
G37*
G36*
X0153200Y0374022D02*
X0152521Y0373933D01*
X0151889Y0373671D01*
X0151346Y0373254D01*
X0150929Y0372711D01*
X0150667Y0372079D01*
X0150578Y0371400D01*
X0150667Y0370721D01*
X0150929Y0370089D01*
X0151346Y0369546D01*
X0151889Y0369129D01*
X0152521Y0368867D01*
X0153200Y0368778D01*
X0153879Y0368867D01*
X0154511Y0369129D01*
X0155054Y0369546D01*
X0155471Y0370089D01*
X0155733Y0370721D01*
X0155822Y0371400D01*
X0155733Y0372079D01*
X0155471Y0372711D01*
X0155054Y0373254D01*
X0154511Y0373671D01*
X0153879Y0373933D01*
X0153200Y0374022D01*
D02*
G37*
G36*
X0209003Y0368326D02*
X0208324Y0368236D01*
X0207692Y0367974D01*
X0207149Y0367558D01*
X0206732Y0367014D01*
X0206470Y0366382D01*
X0206381Y0365703D01*
X0206470Y0365024D01*
X0206732Y0364392D01*
X0207149Y0363849D01*
X0207692Y0363432D01*
X0208324Y0363170D01*
X0209003Y0363081D01*
X0209682Y0363170D01*
X0210314Y0363432D01*
X0210858Y0363849D01*
X0211274Y0364392D01*
X0211536Y0365024D01*
X0211626Y0365703D01*
X0211536Y0366382D01*
X0211274Y0367014D01*
X0210858Y0367558D01*
X0210314Y0367974D01*
X0209682Y0368236D01*
X0209003Y0368326D01*
D02*
G37*
G36*
X0242350Y0367873D02*
X0241671Y0367783D01*
X0241038Y0367522D01*
X0240495Y0367105D01*
X0240078Y0366562D01*
X0239816Y0365929D01*
X0239727Y0365250D01*
X0239816Y0364572D01*
X0240078Y0363939D01*
X0240495Y0363396D01*
X0241038Y0362979D01*
X0241671Y0362717D01*
X0242350Y0362628D01*
X0243028Y0362717D01*
X0243661Y0362979D01*
X0244204Y0363396D01*
X0244621Y0363939D01*
X0244883Y0364572D01*
X0244972Y0365250D01*
X0244883Y0365929D01*
X0244621Y0366562D01*
X0244204Y0367105D01*
X0243661Y0367522D01*
X0243028Y0367783D01*
X0242350Y0367873D01*
D02*
G37*
G36*
X0255200Y0361022D02*
X0254521Y0360933D01*
X0253889Y0360671D01*
X0253346Y0360254D01*
X0252929Y0359711D01*
X0252667Y0359079D01*
X0252578Y0358400D01*
X0252667Y0357721D01*
X0252929Y0357089D01*
X0253346Y0356546D01*
X0253889Y0356129D01*
X0254521Y0355867D01*
X0255200Y0355778D01*
X0255879Y0355867D01*
X0256511Y0356129D01*
X0257054Y0356546D01*
X0257471Y0357089D01*
X0257733Y0357721D01*
X0257822Y0358400D01*
X0257733Y0359079D01*
X0257471Y0359711D01*
X0257054Y0360254D01*
X0256511Y0360671D01*
X0255879Y0360933D01*
X0255200Y0361022D01*
D02*
G37*
G36*
X0134200Y0372022D02*
X0133521Y0371933D01*
X0132889Y0371671D01*
X0132346Y0371254D01*
X0131929Y0370711D01*
X0131667Y0370079D01*
X0131578Y0369400D01*
X0131667Y0368721D01*
X0131929Y0368089D01*
X0132346Y0367546D01*
X0132889Y0367129D01*
X0133521Y0366867D01*
X0134200Y0366778D01*
X0134879Y0366867D01*
X0135511Y0367129D01*
X0136054Y0367546D01*
X0136471Y0368089D01*
X0136733Y0368721D01*
X0136822Y0369400D01*
X0136733Y0370079D01*
X0136471Y0370711D01*
X0136054Y0371254D01*
X0135511Y0371671D01*
X0134879Y0371933D01*
X0134200Y0372022D01*
D02*
G37*
G36*
X0274200Y0372688D02*
X0273090Y0372542D01*
X0272056Y0372113D01*
X0271168Y0371432D01*
X0270487Y0370544D01*
X0270058Y0369510D01*
X0269912Y0368400D01*
X0270058Y0367290D01*
X0270487Y0366256D01*
X0271168Y0365368D01*
X0272056Y0364687D01*
X0273090Y0364258D01*
X0274200Y0364112D01*
X0275310Y0364258D01*
X0276344Y0364687D01*
X0277232Y0365368D01*
X0277913Y0366256D01*
X0278342Y0367290D01*
X0278488Y0368400D01*
X0278342Y0369510D01*
X0277913Y0370544D01*
X0277232Y0371432D01*
X0276344Y0372113D01*
X0275310Y0372542D01*
X0274200Y0372688D01*
D02*
G37*
G36*
X0264200D02*
X0263090Y0372542D01*
X0262056Y0372113D01*
X0261168Y0371432D01*
X0260487Y0370544D01*
X0260058Y0369510D01*
X0259912Y0368400D01*
X0260058Y0367290D01*
X0260487Y0366256D01*
X0261168Y0365368D01*
X0262056Y0364687D01*
X0263090Y0364258D01*
X0264200Y0364112D01*
X0265310Y0364258D01*
X0266344Y0364687D01*
X0267232Y0365368D01*
X0267913Y0366256D01*
X0268342Y0367290D01*
X0268488Y0368400D01*
X0268342Y0369510D01*
X0267913Y0370544D01*
X0267232Y0371432D01*
X0266344Y0372113D01*
X0265310Y0372542D01*
X0264200Y0372688D01*
D02*
G37*
G36*
X0125100Y0326422D02*
X0124421Y0326333D01*
X0123789Y0326071D01*
X0123246Y0325654D01*
X0122829Y0325111D01*
X0122567Y0324479D01*
X0122478Y0323800D01*
X0122567Y0323121D01*
X0122829Y0322489D01*
X0123246Y0321946D01*
X0123789Y0321529D01*
X0124421Y0321267D01*
X0125100Y0321178D01*
X0125779Y0321267D01*
X0126411Y0321529D01*
X0126954Y0321946D01*
X0127371Y0322489D01*
X0127633Y0323121D01*
X0127722Y0323800D01*
X0127633Y0324479D01*
X0127371Y0325111D01*
X0126954Y0325654D01*
X0126411Y0326071D01*
X0125779Y0326333D01*
X0125100Y0326422D01*
D02*
G37*
G36*
X0264200Y0322688D02*
X0263090Y0322542D01*
X0262056Y0322113D01*
X0261168Y0321432D01*
X0260487Y0320544D01*
X0260328Y0320161D01*
X0260263Y0320127D01*
X0259204Y0320060D01*
X0259054Y0320254D01*
X0258511Y0320671D01*
X0257879Y0320933D01*
X0257200Y0321022D01*
X0256521Y0320933D01*
X0255889Y0320671D01*
X0255346Y0320254D01*
X0254929Y0319711D01*
X0254667Y0319079D01*
X0254578Y0318400D01*
X0254667Y0317721D01*
X0254929Y0317089D01*
X0255346Y0316546D01*
X0255889Y0316129D01*
X0256521Y0315867D01*
X0257200Y0315778D01*
X0257879Y0315867D01*
X0258511Y0316129D01*
X0259054Y0316546D01*
X0259204Y0316740D01*
X0260263Y0316673D01*
X0260328Y0316639D01*
X0260487Y0316256D01*
X0261168Y0315368D01*
X0262056Y0314687D01*
X0263090Y0314258D01*
X0264200Y0314112D01*
X0265310Y0314258D01*
X0266344Y0314687D01*
X0267232Y0315368D01*
X0267913Y0316256D01*
X0268342Y0317290D01*
X0268488Y0318400D01*
X0268342Y0319510D01*
X0267913Y0320544D01*
X0267232Y0321432D01*
X0266344Y0322113D01*
X0265310Y0322542D01*
X0264200Y0322688D01*
D02*
G37*
G36*
X0146200Y0325022D02*
X0145521Y0324933D01*
X0144889Y0324671D01*
X0144346Y0324254D01*
X0143929Y0323711D01*
X0143667Y0323079D01*
X0143578Y0322400D01*
X0143667Y0321721D01*
X0143929Y0321089D01*
X0144346Y0320546D01*
X0144889Y0320129D01*
X0145521Y0319867D01*
X0146200Y0319778D01*
X0146879Y0319867D01*
X0147511Y0320129D01*
X0148054Y0320546D01*
X0148471Y0321089D01*
X0148733Y0321721D01*
X0148822Y0322400D01*
X0148733Y0323079D01*
X0148471Y0323711D01*
X0148054Y0324254D01*
X0147511Y0324671D01*
X0146879Y0324933D01*
X0146200Y0325022D01*
D02*
G37*
G36*
X0219700Y0327522D02*
X0219021Y0327433D01*
X0218389Y0327171D01*
X0217846Y0326754D01*
X0217429Y0326211D01*
X0217167Y0325579D01*
X0217078Y0324900D01*
X0217167Y0324221D01*
X0217429Y0323589D01*
X0217846Y0323046D01*
X0218389Y0322629D01*
X0219021Y0322367D01*
X0219700Y0322278D01*
X0220379Y0322367D01*
X0221011Y0322629D01*
X0221554Y0323046D01*
X0221971Y0323589D01*
X0222233Y0324221D01*
X0222322Y0324900D01*
X0222233Y0325579D01*
X0221971Y0326211D01*
X0221554Y0326754D01*
X0221011Y0327171D01*
X0220379Y0327433D01*
X0219700Y0327522D01*
D02*
G37*
G36*
X0212700D02*
X0212021Y0327433D01*
X0211389Y0327171D01*
X0210846Y0326754D01*
X0210429Y0326211D01*
X0210167Y0325579D01*
X0210078Y0324900D01*
X0210167Y0324221D01*
X0210429Y0323589D01*
X0210846Y0323046D01*
X0211389Y0322629D01*
X0212021Y0322367D01*
X0212700Y0322278D01*
X0213379Y0322367D01*
X0214011Y0322629D01*
X0214554Y0323046D01*
X0214971Y0323589D01*
X0215233Y0324221D01*
X0215322Y0324900D01*
X0215233Y0325579D01*
X0214971Y0326211D01*
X0214554Y0326754D01*
X0214011Y0327171D01*
X0213379Y0327433D01*
X0212700Y0327522D01*
D02*
G37*
G36*
X0167700Y0327022D02*
X0167021Y0326933D01*
X0166389Y0326671D01*
X0165846Y0326254D01*
X0165429Y0325711D01*
X0165167Y0325079D01*
X0165078Y0324400D01*
X0165167Y0323721D01*
X0165429Y0323089D01*
X0165846Y0322546D01*
X0166389Y0322129D01*
X0167021Y0321867D01*
X0167700Y0321778D01*
X0168379Y0321867D01*
X0169011Y0322129D01*
X0169554Y0322546D01*
X0169971Y0323089D01*
X0170233Y0323721D01*
X0170322Y0324400D01*
X0170233Y0325079D01*
X0169971Y0325711D01*
X0169554Y0326254D01*
X0169011Y0326671D01*
X0168379Y0326933D01*
X0167700Y0327022D01*
D02*
G37*
G36*
X0202700Y0323522D02*
X0202021Y0323433D01*
X0201389Y0323171D01*
X0200846Y0322754D01*
X0200429Y0322211D01*
X0200167Y0321579D01*
X0200078Y0320900D01*
X0200167Y0320221D01*
X0200429Y0319589D01*
X0200846Y0319046D01*
X0201389Y0318629D01*
X0202021Y0318367D01*
X0202700Y0318278D01*
X0203379Y0318367D01*
X0204011Y0318629D01*
X0204554Y0319046D01*
X0204971Y0319589D01*
X0205233Y0320221D01*
X0205322Y0320900D01*
X0205233Y0321579D01*
X0204971Y0322211D01*
X0204554Y0322754D01*
X0204011Y0323171D01*
X0203379Y0323433D01*
X0202700Y0323522D01*
D02*
G37*
G36*
X0194700Y0320022D02*
X0194021Y0319933D01*
X0193389Y0319671D01*
X0192846Y0319254D01*
X0192429Y0318711D01*
X0192167Y0318079D01*
X0192078Y0317400D01*
X0192167Y0316721D01*
X0192429Y0316089D01*
X0192846Y0315546D01*
X0193389Y0315129D01*
X0194021Y0314867D01*
X0194700Y0314778D01*
X0195379Y0314867D01*
X0196011Y0315129D01*
X0196554Y0315546D01*
X0196971Y0316089D01*
X0197233Y0316721D01*
X0197322Y0317400D01*
X0197233Y0318079D01*
X0196971Y0318711D01*
X0196554Y0319254D01*
X0196011Y0319671D01*
X0195379Y0319933D01*
X0194700Y0320022D01*
D02*
G37*
G36*
X0219700Y0319522D02*
X0219021Y0319433D01*
X0218389Y0319171D01*
X0217846Y0318754D01*
X0217429Y0318211D01*
X0217167Y0317579D01*
X0217078Y0316900D01*
X0217167Y0316221D01*
X0217429Y0315589D01*
X0217846Y0315046D01*
X0218389Y0314629D01*
X0219021Y0314367D01*
X0219700Y0314278D01*
X0220379Y0314367D01*
X0221011Y0314629D01*
X0221554Y0315046D01*
X0221971Y0315589D01*
X0222233Y0316221D01*
X0222322Y0316900D01*
X0222233Y0317579D01*
X0221971Y0318211D01*
X0221554Y0318754D01*
X0221011Y0319171D01*
X0220379Y0319433D01*
X0219700Y0319522D01*
D02*
G37*
G36*
X0212700D02*
X0212021Y0319433D01*
X0211389Y0319171D01*
X0210846Y0318754D01*
X0210429Y0318211D01*
X0210167Y0317579D01*
X0210078Y0316900D01*
X0210167Y0316221D01*
X0210429Y0315589D01*
X0210846Y0315046D01*
X0211389Y0314629D01*
X0212021Y0314367D01*
X0212700Y0314278D01*
X0213379Y0314367D01*
X0214011Y0314629D01*
X0214554Y0315046D01*
X0214971Y0315589D01*
X0215233Y0316221D01*
X0215322Y0316900D01*
X0215233Y0317579D01*
X0214971Y0318211D01*
X0214554Y0318754D01*
X0214011Y0319171D01*
X0213379Y0319433D01*
X0212700Y0319522D01*
D02*
G37*
G36*
X0244200Y0322022D02*
X0243521Y0321933D01*
X0242889Y0321671D01*
X0242346Y0321254D01*
X0241929Y0320711D01*
X0241667Y0320079D01*
X0241578Y0319400D01*
X0241667Y0318721D01*
X0241929Y0318089D01*
X0242346Y0317546D01*
X0242889Y0317129D01*
X0243521Y0316867D01*
X0244200Y0316778D01*
X0244879Y0316867D01*
X0245511Y0317129D01*
X0246054Y0317546D01*
X0246471Y0318089D01*
X0246733Y0318721D01*
X0246822Y0319400D01*
X0246733Y0320079D01*
X0246471Y0320711D01*
X0246054Y0321254D01*
X0245511Y0321671D01*
X0244879Y0321933D01*
X0244200Y0322022D01*
D02*
G37*
G36*
X0231200D02*
X0230521Y0321933D01*
X0229889Y0321671D01*
X0229346Y0321254D01*
X0228929Y0320711D01*
X0228667Y0320079D01*
X0228578Y0319400D01*
X0228667Y0318721D01*
X0228929Y0318089D01*
X0229346Y0317546D01*
X0229889Y0317129D01*
X0230521Y0316867D01*
X0231200Y0316778D01*
X0231879Y0316867D01*
X0232511Y0317129D01*
X0233054Y0317546D01*
X0233471Y0318089D01*
X0233733Y0318721D01*
X0233822Y0319400D01*
X0233733Y0320079D01*
X0233471Y0320711D01*
X0233054Y0321254D01*
X0232511Y0321671D01*
X0231879Y0321933D01*
X0231200Y0322022D01*
D02*
G37*
G36*
X0120700Y0321022D02*
X0120021Y0320933D01*
X0119389Y0320671D01*
X0118846Y0320254D01*
X0118429Y0319711D01*
X0118167Y0319079D01*
X0118078Y0318400D01*
X0118167Y0317721D01*
X0118429Y0317089D01*
X0118846Y0316546D01*
X0119389Y0316129D01*
X0120021Y0315867D01*
X0120700Y0315778D01*
X0121379Y0315867D01*
X0122011Y0316129D01*
X0122554Y0316546D01*
X0122971Y0317089D01*
X0123233Y0317721D01*
X0123322Y0318400D01*
X0123233Y0319079D01*
X0122971Y0319711D01*
X0122554Y0320254D01*
X0122011Y0320671D01*
X0121379Y0320933D01*
X0120700Y0321022D01*
D02*
G37*
G36*
X0264200Y0332688D02*
X0263090Y0332542D01*
X0262056Y0332113D01*
X0261168Y0331432D01*
X0260487Y0330544D01*
X0260058Y0329510D01*
X0259912Y0328400D01*
X0260058Y0327290D01*
X0260487Y0326256D01*
X0261168Y0325368D01*
X0262056Y0324687D01*
X0263090Y0324258D01*
X0264200Y0324112D01*
X0265310Y0324258D01*
X0266344Y0324687D01*
X0267232Y0325368D01*
X0267913Y0326256D01*
X0268342Y0327290D01*
X0268488Y0328400D01*
X0268342Y0329510D01*
X0267913Y0330544D01*
X0267232Y0331432D01*
X0266344Y0332113D01*
X0265310Y0332542D01*
X0264200Y0332688D01*
D02*
G37*
G36*
X0173200Y0339522D02*
X0172521Y0339433D01*
X0171889Y0339171D01*
X0171346Y0338754D01*
X0170929Y0338211D01*
X0170667Y0337579D01*
X0170578Y0336900D01*
X0170667Y0336221D01*
X0170929Y0335589D01*
X0171346Y0335046D01*
X0171889Y0334629D01*
X0172521Y0334367D01*
X0173200Y0334278D01*
X0173879Y0334367D01*
X0174511Y0334629D01*
X0175054Y0335046D01*
X0175471Y0335589D01*
X0175733Y0336221D01*
X0175822Y0336900D01*
X0175733Y0337579D01*
X0175471Y0338211D01*
X0175054Y0338754D01*
X0174511Y0339171D01*
X0173879Y0339433D01*
X0173200Y0339522D01*
D02*
G37*
G36*
X0153200D02*
X0152521Y0339433D01*
X0151889Y0339171D01*
X0151346Y0338754D01*
X0150929Y0338211D01*
X0150667Y0337579D01*
X0150578Y0336900D01*
X0150667Y0336221D01*
X0150929Y0335589D01*
X0151346Y0335046D01*
X0151889Y0334629D01*
X0152521Y0334367D01*
X0153200Y0334278D01*
X0153879Y0334367D01*
X0154511Y0334629D01*
X0155054Y0335046D01*
X0155471Y0335589D01*
X0155733Y0336221D01*
X0155822Y0336900D01*
X0155733Y0337579D01*
X0155471Y0338211D01*
X0155054Y0338754D01*
X0154511Y0339171D01*
X0153879Y0339433D01*
X0153200Y0339522D01*
D02*
G37*
G36*
X0113200D02*
X0112521Y0339433D01*
X0111889Y0339171D01*
X0111346Y0338754D01*
X0110929Y0338211D01*
X0110667Y0337579D01*
X0110578Y0336900D01*
X0110667Y0336221D01*
X0110929Y0335589D01*
X0111346Y0335046D01*
X0111889Y0334629D01*
X0112521Y0334367D01*
X0113200Y0334278D01*
X0113879Y0334367D01*
X0114511Y0334629D01*
X0115054Y0335046D01*
X0115471Y0335589D01*
X0115733Y0336221D01*
X0115822Y0336900D01*
X0115733Y0337579D01*
X0115471Y0338211D01*
X0115054Y0338754D01*
X0114511Y0339171D01*
X0113879Y0339433D01*
X0113200Y0339522D01*
D02*
G37*
G36*
X0193700Y0345522D02*
X0193021Y0345433D01*
X0192389Y0345171D01*
X0191846Y0344754D01*
X0191429Y0344211D01*
X0191167Y0343579D01*
X0191078Y0342900D01*
X0191167Y0342221D01*
X0191429Y0341589D01*
X0191846Y0341046D01*
X0192389Y0340629D01*
X0193021Y0340367D01*
X0193700Y0340278D01*
X0194379Y0340367D01*
X0195011Y0340629D01*
X0195554Y0341046D01*
X0195971Y0341589D01*
X0196233Y0342221D01*
X0196322Y0342900D01*
X0196233Y0343579D01*
X0195971Y0344211D01*
X0195554Y0344754D01*
X0195011Y0345171D01*
X0194379Y0345433D01*
X0193700Y0345522D01*
D02*
G37*
G36*
X0180263Y0341085D02*
X0179584Y0340996D01*
X0178952Y0340734D01*
X0178409Y0340317D01*
X0177992Y0339774D01*
X0177730Y0339142D01*
X0177641Y0338463D01*
X0177730Y0337784D01*
X0177992Y0337152D01*
X0178409Y0336609D01*
X0178952Y0336192D01*
X0179584Y0335930D01*
X0180263Y0335841D01*
X0180942Y0335930D01*
X0181574Y0336192D01*
X0182117Y0336609D01*
X0182534Y0337152D01*
X0182796Y0337784D01*
X0182885Y0338463D01*
X0182796Y0339142D01*
X0182534Y0339774D01*
X0182117Y0340317D01*
X0181574Y0340734D01*
X0180942Y0340996D01*
X0180263Y0341085D01*
D02*
G37*
G36*
X0216200Y0336022D02*
X0215521Y0335933D01*
X0214889Y0335671D01*
X0214346Y0335254D01*
X0214010Y0334817D01*
X0213450Y0334759D01*
X0212890Y0334817D01*
X0212554Y0335254D01*
X0212011Y0335671D01*
X0211379Y0335933D01*
X0210700Y0336022D01*
X0210021Y0335933D01*
X0209389Y0335671D01*
X0208846Y0335254D01*
X0208429Y0334711D01*
X0208167Y0334079D01*
X0208078Y0333400D01*
X0208167Y0332721D01*
X0208429Y0332089D01*
X0208846Y0331546D01*
X0209389Y0331129D01*
X0210021Y0330867D01*
X0210700Y0330778D01*
X0211379Y0330867D01*
X0212011Y0331129D01*
X0212554Y0331546D01*
X0212890Y0331983D01*
X0213450Y0332041D01*
X0214010Y0331983D01*
X0214346Y0331546D01*
X0214889Y0331129D01*
X0215521Y0330867D01*
X0216200Y0330778D01*
X0216879Y0330867D01*
X0217511Y0331129D01*
X0218054Y0331546D01*
X0218471Y0332089D01*
X0218733Y0332721D01*
X0218822Y0333400D01*
X0218733Y0334079D01*
X0218471Y0334711D01*
X0218054Y0335254D01*
X0217511Y0335671D01*
X0216879Y0335933D01*
X0216200Y0336022D01*
D02*
G37*
G36*
X0274200Y0342688D02*
X0273090Y0342542D01*
X0272056Y0342113D01*
X0271168Y0341432D01*
X0270487Y0340544D01*
X0270058Y0339510D01*
X0269912Y0338400D01*
X0270058Y0337290D01*
X0270487Y0336256D01*
X0271168Y0335368D01*
X0272056Y0334687D01*
X0273090Y0334258D01*
X0274200Y0334112D01*
X0275310Y0334258D01*
X0276344Y0334687D01*
X0277232Y0335368D01*
X0277913Y0336256D01*
X0278342Y0337290D01*
X0278488Y0338400D01*
X0278342Y0339510D01*
X0277913Y0340544D01*
X0277232Y0341432D01*
X0276344Y0342113D01*
X0275310Y0342542D01*
X0274200Y0342688D01*
D02*
G37*
G36*
X0188924Y0337747D02*
X0188246Y0337657D01*
X0187613Y0337396D01*
X0187070Y0336979D01*
X0186653Y0336436D01*
X0186391Y0335803D01*
X0186302Y0335124D01*
X0186391Y0334446D01*
X0186653Y0333813D01*
X0187070Y0333270D01*
X0187613Y0332853D01*
X0188246Y0332591D01*
X0188924Y0332502D01*
X0189603Y0332591D01*
X0190236Y0332853D01*
X0190779Y0333270D01*
X0191195Y0333813D01*
X0191243Y0333928D01*
X0192307Y0333883D01*
X0192429Y0333589D01*
X0192846Y0333046D01*
X0193389Y0332629D01*
X0194021Y0332367D01*
X0194700Y0332278D01*
X0195379Y0332367D01*
X0196011Y0332629D01*
X0196554Y0333046D01*
X0196971Y0333589D01*
X0197233Y0334221D01*
X0197322Y0334900D01*
X0197233Y0335579D01*
X0196971Y0336211D01*
X0196554Y0336754D01*
X0196011Y0337171D01*
X0195379Y0337433D01*
X0194700Y0337522D01*
X0194021Y0337433D01*
X0193389Y0337171D01*
X0192846Y0336754D01*
X0192429Y0336211D01*
X0192381Y0336097D01*
X0191317Y0336141D01*
X0191195Y0336436D01*
X0190779Y0336979D01*
X0190236Y0337396D01*
X0189603Y0337657D01*
X0188924Y0337747D01*
D02*
G37*
G36*
X0274200Y0332688D02*
X0273090Y0332542D01*
X0272056Y0332113D01*
X0271168Y0331432D01*
X0270487Y0330544D01*
X0270058Y0329510D01*
X0269912Y0328400D01*
X0270058Y0327290D01*
X0270487Y0326256D01*
X0271168Y0325368D01*
X0272056Y0324687D01*
X0273090Y0324258D01*
X0274200Y0324112D01*
X0275310Y0324258D01*
X0276344Y0324687D01*
X0277232Y0325368D01*
X0277913Y0326256D01*
X0278302Y0327195D01*
X0278612Y0327288D01*
X0279349Y0327281D01*
X0279429Y0327089D01*
X0279846Y0326546D01*
X0280389Y0326129D01*
X0281021Y0325867D01*
X0281700Y0325778D01*
X0282379Y0325867D01*
X0283011Y0326129D01*
X0283554Y0326546D01*
X0283971Y0327089D01*
X0284233Y0327721D01*
X0284322Y0328400D01*
X0284233Y0329079D01*
X0283971Y0329711D01*
X0283554Y0330254D01*
X0283011Y0330671D01*
X0282379Y0330933D01*
X0281700Y0331022D01*
X0281021Y0330933D01*
X0280389Y0330671D01*
X0279846Y0330254D01*
X0279429Y0329711D01*
X0279349Y0329519D01*
X0278612Y0329512D01*
X0278302Y0329605D01*
X0277913Y0330544D01*
X0277232Y0331432D01*
X0276344Y0332113D01*
X0275310Y0332542D01*
X0274200Y0332688D01*
D02*
G37*
G36*
X0104200D02*
X0103090Y0332542D01*
X0102056Y0332113D01*
X0101168Y0331432D01*
X0100487Y0330544D01*
X0100058Y0329510D01*
X0099912Y0328400D01*
X0100058Y0327290D01*
X0100487Y0326256D01*
X0101168Y0325368D01*
X0102056Y0324687D01*
X0103090Y0324258D01*
X0104200Y0324112D01*
X0105310Y0324258D01*
X0106344Y0324687D01*
X0107232Y0325368D01*
X0107860Y0326187D01*
X0108030Y0326292D01*
X0108056Y0326300D01*
X0109051Y0326388D01*
X0109389Y0326129D01*
X0110021Y0325867D01*
X0110700Y0325778D01*
X0111379Y0325867D01*
X0112011Y0326129D01*
X0112554Y0326546D01*
X0112971Y0327089D01*
X0113233Y0327721D01*
X0113322Y0328400D01*
X0113233Y0329079D01*
X0112971Y0329711D01*
X0112554Y0330254D01*
X0112011Y0330671D01*
X0111379Y0330933D01*
X0110700Y0331022D01*
X0110021Y0330933D01*
X0109389Y0330671D01*
X0109051Y0330412D01*
X0108056Y0330500D01*
X0108030Y0330508D01*
X0107860Y0330613D01*
X0107232Y0331432D01*
X0106344Y0332113D01*
X0105310Y0332542D01*
X0104200Y0332688D01*
D02*
G37*
G36*
X0264200Y0342688D02*
X0263090Y0342542D01*
X0262056Y0342113D01*
X0261168Y0341432D01*
X0260487Y0340544D01*
X0260058Y0339510D01*
X0259912Y0338400D01*
X0260058Y0337290D01*
X0260487Y0336256D01*
X0261168Y0335368D01*
X0262056Y0334687D01*
X0263090Y0334258D01*
X0264200Y0334112D01*
X0265310Y0334258D01*
X0266344Y0334687D01*
X0267232Y0335368D01*
X0267913Y0336256D01*
X0268342Y0337290D01*
X0268488Y0338400D01*
X0268342Y0339510D01*
X0267913Y0340544D01*
X0267232Y0341432D01*
X0266344Y0342113D01*
X0265310Y0342542D01*
X0264200Y0342688D01*
D02*
G37*
G36*
X0104200D02*
X0103090Y0342542D01*
X0102056Y0342113D01*
X0101168Y0341432D01*
X0100487Y0340544D01*
X0100058Y0339510D01*
X0099912Y0338400D01*
X0100058Y0337290D01*
X0100487Y0336256D01*
X0101168Y0335368D01*
X0102056Y0334687D01*
X0103090Y0334258D01*
X0104200Y0334112D01*
X0105310Y0334258D01*
X0106344Y0334687D01*
X0107232Y0335368D01*
X0107913Y0336256D01*
X0108342Y0337290D01*
X0108488Y0338400D01*
X0108342Y0339510D01*
X0107913Y0340544D01*
X0107232Y0341432D01*
X0106344Y0342113D01*
X0105310Y0342542D01*
X0104200Y0342688D01*
D02*
G37*
G36*
X0203200Y0337522D02*
X0202521Y0337433D01*
X0201889Y0337171D01*
X0201346Y0336754D01*
X0200929Y0336211D01*
X0200667Y0335579D01*
X0200578Y0334900D01*
X0200667Y0334221D01*
X0200929Y0333589D01*
X0201346Y0333046D01*
X0201889Y0332629D01*
X0202521Y0332367D01*
X0203200Y0332278D01*
X0203879Y0332367D01*
X0204511Y0332629D01*
X0205054Y0333046D01*
X0205471Y0333589D01*
X0205733Y0334221D01*
X0205822Y0334900D01*
X0205733Y0335579D01*
X0205471Y0336211D01*
X0205054Y0336754D01*
X0204511Y0337171D01*
X0203879Y0337433D01*
X0203200Y0337522D01*
D02*
G37*
%LPD*%
G54D10*
X0497200Y0080717D02*
Y0101050D01*
X0413200Y0080717D02*
Y0101050D01*
X0040000Y0080717D02*
X0700200D01*
X0040000Y0060383D02*
X0700000D01*
X0040000Y0040050D02*
X0440500D01*
X0040050Y0101050D02*
X0700200D01*
X0040050Y0040050D02*
Y0101050D01*
Y0040050D02*
X0197600D01*
X0040000D02*
Y0101050D01*
X0286500Y0040050D02*
Y0101050D01*
X0700200Y0040050D02*
Y0101050D01*
X0440500Y0040050D02*
X0700200D01*
X0559400Y0039400D02*
Y0059683D01*
G54D11*
X0126900Y0073549D02*
Y0069550D01*
X0128899Y0067551D01*
X0130899Y0069550D01*
Y0073549D01*
X0136897Y0072549D02*
X0135897Y0073549D01*
X0133898D01*
X0132898Y0072549D01*
Y0068550D01*
X0133898Y0067551D01*
X0135897D01*
X0136897Y0068550D01*
X0142895Y0072549D02*
X0141895Y0073549D01*
X0139896D01*
X0138896Y0072549D01*
Y0068550D01*
X0139896Y0067551D01*
X0141895D01*
X0142895Y0068550D01*
X0150892Y0073549D02*
Y0067551D01*
X0154891D01*
X0157890Y0071549D02*
X0159889D01*
X0160889Y0070550D01*
Y0067551D01*
X0157890D01*
X0156890Y0068550D01*
X0157890Y0069550D01*
X0160889D01*
X0162888Y0071549D02*
Y0068550D01*
X0163888Y0067551D01*
X0166887D01*
Y0066551D01*
X0165887Y0065551D01*
X0164888D01*
X0166887Y0067551D02*
Y0071549D01*
X0171885Y0067551D02*
X0169886D01*
X0168886Y0068550D01*
Y0070550D01*
X0169886Y0071549D01*
X0171885D01*
X0172885Y0070550D01*
Y0069550D01*
X0168886D01*
X0174884Y0071549D02*
Y0067551D01*
Y0069550D01*
X0175884Y0070550D01*
X0176884Y0071549D01*
X0177884D01*
X0567400Y0087833D02*
Y0093831D01*
X0571399Y0087833D01*
Y0093831D01*
X0574398Y0087833D02*
X0576397D01*
X0577397Y0088833D01*
Y0090832D01*
X0576397Y0091832D01*
X0574398D01*
X0573398Y0090832D01*
Y0088833D01*
X0574398Y0087833D01*
X0580396Y0092832D02*
Y0091832D01*
X0579396D01*
X0581395D01*
X0580396D01*
Y0088833D01*
X0581395Y0087833D01*
X0590393Y0093831D02*
X0592392D01*
X0591392D01*
Y0087833D01*
X0590393D01*
X0592392D01*
X0595391D02*
Y0091832D01*
X0598390D01*
X0599390Y0090832D01*
Y0087833D01*
X0607387Y0093831D02*
Y0089833D01*
X0609386Y0087833D01*
X0611386Y0089833D01*
Y0093831D01*
X0616384Y0087833D02*
X0614385D01*
X0613385Y0088833D01*
Y0090832D01*
X0614385Y0091832D01*
X0616384D01*
X0617384Y0090832D01*
Y0089833D01*
X0613385D01*
X0619383Y0091832D02*
Y0087833D01*
Y0089833D01*
X0620383Y0090832D01*
X0621383Y0091832D01*
X0622382D01*
X0625381Y0087833D02*
X0628380D01*
X0629380Y0088833D01*
X0628380Y0089833D01*
X0626381D01*
X0625381Y0090832D01*
X0626381Y0091832D01*
X0629380D01*
X0631379Y0087833D02*
X0633379D01*
X0632379D01*
Y0091832D01*
X0631379D01*
X0637377Y0087833D02*
X0639377D01*
X0640376Y0088833D01*
Y0090832D01*
X0639377Y0091832D01*
X0637377D01*
X0636378Y0090832D01*
Y0088833D01*
X0637377Y0087833D01*
X0642376D02*
Y0091832D01*
X0645375D01*
X0646374Y0090832D01*
Y0087833D01*
X0652373Y0092832D02*
X0651373Y0093831D01*
X0649373D01*
X0648374Y0092832D01*
Y0088833D01*
X0649373Y0087833D01*
X0651373D01*
X0652373Y0088833D01*
X0655372Y0087833D02*
X0657371D01*
X0658371Y0088833D01*
Y0090832D01*
X0657371Y0091832D01*
X0655372D01*
X0654372Y0090832D01*
Y0088833D01*
X0655372Y0087833D01*
X0660370D02*
Y0091832D01*
X0663369D01*
X0664369Y0090832D01*
Y0087833D01*
X0667368Y0092832D02*
Y0091832D01*
X0666368D01*
X0668367D01*
X0667368D01*
Y0088833D01*
X0668367Y0087833D01*
X0671366Y0091832D02*
Y0087833D01*
Y0089833D01*
X0672366Y0090832D01*
X0673366Y0091832D01*
X0674365D01*
X0678364Y0087833D02*
X0680364D01*
X0681363Y0088833D01*
Y0090832D01*
X0680364Y0091832D01*
X0678364D01*
X0677364Y0090832D01*
Y0088833D01*
X0678364Y0087833D01*
X0683362D02*
X0685362D01*
X0684362D01*
Y0093831D01*
X0683362D01*
X0520799Y0092832D02*
X0519799Y0093831D01*
X0517800D01*
X0516800Y0092832D01*
Y0091832D01*
X0517800Y0090832D01*
X0519799D01*
X0520799Y0089833D01*
Y0088833D01*
X0519799Y0087833D01*
X0517800D01*
X0516800Y0088833D01*
X0522798Y0093831D02*
Y0089833D01*
X0524797Y0087833D01*
X0526797Y0089833D01*
Y0093831D01*
X0528796Y0087833D02*
Y0093831D01*
X0532795Y0087833D01*
Y0093831D01*
X0540792Y0087833D02*
Y0093831D01*
X0543791D01*
X0544791Y0092832D01*
Y0090832D01*
X0543791Y0089833D01*
X0540792D01*
X0542792D02*
X0544791Y0087833D01*
X0550789Y0093831D02*
X0546790D01*
Y0087833D01*
X0550789D01*
X0546790Y0090832D02*
X0548790D01*
X0552788Y0093831D02*
Y0089833D01*
X0554788Y0087833D01*
X0556787Y0089833D01*
Y0093831D01*
X0558786Y0091832D02*
X0559786D01*
Y0090832D01*
X0558786D01*
Y0091832D01*
Y0088833D02*
X0559786D01*
Y0087833D01*
X0558786D01*
Y0088833D01*
X0433000Y0087833D02*
Y0093831D01*
X0435999D01*
X0436999Y0092832D01*
Y0090832D01*
X0435999Y0089833D01*
X0433000D01*
X0434999D02*
X0436999Y0087833D01*
X0442997Y0093831D02*
X0438998D01*
Y0087833D01*
X0442997D01*
X0438998Y0090832D02*
X0440997D01*
X0444996Y0093831D02*
Y0089833D01*
X0446995Y0087833D01*
X0448995Y0089833D01*
Y0093831D01*
X0450994Y0091832D02*
X0451994D01*
Y0090832D01*
X0450994D01*
Y0091832D01*
Y0088833D02*
X0451994D01*
Y0087833D01*
X0450994D01*
Y0088833D01*
X0126900Y0046966D02*
Y0052965D01*
X0128899Y0050965D01*
X0130899Y0052965D01*
Y0046966D01*
X0136897Y0051965D02*
X0135897Y0052965D01*
X0133898D01*
X0132898Y0051965D01*
Y0047966D01*
X0133898Y0046966D01*
X0135897D01*
X0136897Y0047966D01*
X0138896Y0052965D02*
Y0047966D01*
X0139896Y0046966D01*
X0141895D01*
X0142895Y0047966D01*
Y0052965D01*
X0144894Y0051965D02*
X0145894Y0052965D01*
X0147893D01*
X0148893Y0051965D01*
Y0047966D01*
X0147893Y0046966D01*
X0145894D01*
X0144894Y0047966D01*
Y0051965D01*
X0154891Y0052965D02*
X0150892D01*
Y0049966D01*
X0152892Y0050965D01*
X0153891D01*
X0154891Y0049966D01*
Y0047966D01*
X0153891Y0046966D01*
X0151892D01*
X0150892Y0047966D01*
X0160889Y0046966D02*
X0156890D01*
X0160889Y0050965D01*
Y0051965D01*
X0159889Y0052965D01*
X0157890D01*
X0156890Y0051965D01*
X0162888Y0046966D02*
Y0050965D01*
X0164888Y0052965D01*
X0166887Y0050965D01*
Y0046966D01*
Y0049966D01*
X0162888D01*
X0168886Y0046966D02*
Y0047966D01*
X0169886D01*
Y0046966D01*
X0168886D01*
X0177884Y0051965D02*
X0176884Y0052965D01*
X0174884D01*
X0173885Y0051965D01*
Y0047966D01*
X0174884Y0046966D01*
X0176884D01*
X0177884Y0047966D01*
Y0049966D01*
X0175884D01*
X0179883Y0046966D02*
X0181882D01*
X0180883D01*
Y0052965D01*
X0179883Y0051965D01*
X0385149Y0052965D02*
X0383149Y0051965D01*
X0381150Y0049966D01*
Y0047966D01*
X0382150Y0046966D01*
X0384149D01*
X0385149Y0047966D01*
Y0048966D01*
X0384149Y0049966D01*
X0381150D01*
X0387148Y0046966D02*
X0391147Y0050965D01*
X0397145Y0046966D02*
X0393146D01*
X0397145Y0050965D01*
Y0051965D01*
X0396145Y0052965D01*
X0394146D01*
X0393146Y0051965D01*
X0399144Y0047966D02*
X0400144Y0046966D01*
X0402143D01*
X0403143Y0047966D01*
Y0051965D01*
X0402143Y0052965D01*
X0400144D01*
X0399144Y0051965D01*
Y0050965D01*
X0400144Y0049966D01*
X0403143D01*
X0405142Y0046966D02*
X0409141Y0050965D01*
X0415139Y0046966D02*
X0411140D01*
X0415139Y0050965D01*
Y0051965D01*
X0414139Y0052965D01*
X0412140D01*
X0411140Y0051965D01*
X0417138D02*
X0418138Y0052965D01*
X0420137D01*
X0421137Y0051965D01*
Y0047966D01*
X0420137Y0046966D01*
X0418138D01*
X0417138Y0047966D01*
Y0051965D01*
X0423136Y0046966D02*
X0425136D01*
X0424136D01*
Y0052965D01*
X0423136Y0051965D01*
X0428135D02*
X0429135Y0052965D01*
X0431134D01*
X0432133Y0051965D01*
Y0050965D01*
X0431134Y0049966D01*
X0432133Y0048966D01*
Y0047966D01*
X0431134Y0046966D01*
X0429135D01*
X0428135Y0047966D01*
Y0048966D01*
X0429135Y0049966D01*
X0428135Y0050965D01*
Y0051965D01*
X0429135Y0049966D02*
X0431134D01*
X0298199Y0051965D02*
X0297199Y0052965D01*
X0295200D01*
X0294200Y0051965D01*
Y0047966D01*
X0295200Y0046966D01*
X0297199D01*
X0298199Y0047966D01*
Y0049966D01*
X0296199D01*
X0304197Y0052965D02*
X0300198D01*
Y0046966D01*
X0304197D01*
X0300198Y0049966D02*
X0302197D01*
X0306196Y0046966D02*
Y0052965D01*
X0310195Y0046966D01*
Y0052965D01*
X0316193D02*
X0312194D01*
Y0046966D01*
X0316193D01*
X0312194Y0049966D02*
X0314194D01*
X0318192Y0046966D02*
Y0052965D01*
X0321191D01*
X0322191Y0051965D01*
Y0049966D01*
X0321191Y0048966D01*
X0318192D01*
X0320192D02*
X0322191Y0046966D01*
X0324190D02*
Y0050965D01*
X0326190Y0052965D01*
X0328189Y0050965D01*
Y0046966D01*
Y0049966D01*
X0324190D01*
X0330188Y0052965D02*
X0334187D01*
X0332188D01*
Y0046966D01*
X0340185Y0052965D02*
X0336186D01*
Y0046966D01*
X0340185D01*
X0336186Y0049966D02*
X0338186D01*
X0342184Y0052965D02*
Y0046966D01*
X0345183D01*
X0346183Y0047966D01*
Y0051965D01*
X0345183Y0052965D01*
X0342184D01*
X0372175Y0050965D02*
X0373175D01*
Y0049966D01*
X0372175D01*
Y0050965D01*
Y0047966D02*
X0373175D01*
Y0046966D01*
X0372175D01*
Y0047966D01*
X0046350Y0087833D02*
Y0091832D01*
X0048349Y0093831D01*
X0050349Y0091832D01*
Y0087833D01*
Y0090832D01*
X0046350D01*
X0052348Y0093831D02*
Y0087833D01*
X0056347D01*
X0058346Y0093831D02*
Y0087833D01*
X0062345D01*
X0070342D02*
Y0091832D01*
X0072342Y0093831D01*
X0074341Y0091832D01*
Y0087833D01*
Y0090832D01*
X0070342D01*
X0076340Y0087833D02*
Y0093831D01*
X0079339D01*
X0080339Y0092832D01*
Y0090832D01*
X0079339Y0089833D01*
X0076340D01*
X0078340D02*
X0080339Y0087833D01*
X0082338Y0093831D02*
X0086337D01*
X0084338D01*
Y0087833D01*
X0088336Y0093831D02*
Y0087833D01*
X0090336Y0089833D01*
X0092335Y0087833D01*
Y0093831D01*
X0097334D02*
X0095334D01*
X0094335Y0092832D01*
Y0088833D01*
X0095334Y0087833D01*
X0097334D01*
X0098333Y0088833D01*
Y0092832D01*
X0097334Y0093831D01*
X0100332Y0087833D02*
Y0093831D01*
X0103332D01*
X0104331Y0092832D01*
Y0090832D01*
X0103332Y0089833D01*
X0100332D01*
X0102332D02*
X0104331Y0087833D01*
X0106331Y0093831D02*
Y0087833D01*
Y0089833D01*
X0110329Y0093831D01*
X0107330Y0090832D01*
X0110329Y0087833D01*
X0118327Y0093831D02*
Y0089833D01*
X0120326Y0087833D01*
X0122325Y0089833D01*
Y0093831D01*
X0124325D02*
X0126324D01*
X0125324D01*
Y0087833D01*
X0124325D01*
X0126324D01*
X0133322Y0093831D02*
X0129323D01*
Y0087833D01*
X0133322D01*
X0129323Y0090832D02*
X0131323D01*
X0135321Y0093831D02*
Y0087833D01*
X0137321Y0089833D01*
X0139320Y0087833D01*
Y0093831D01*
X0145318D02*
X0141319D01*
Y0087833D01*
X0145318D01*
X0141319Y0090832D02*
X0143319D01*
X0147317Y0093831D02*
Y0087833D01*
X0150316D01*
X0151316Y0088833D01*
Y0092832D01*
X0150316Y0093831D01*
X0147317D01*
X0163312D02*
X0159313D01*
Y0090832D01*
X0161313D01*
X0159313D01*
Y0087833D01*
X0165312D02*
Y0093831D01*
X0168310D01*
X0169310Y0092832D01*
Y0090832D01*
X0168310Y0089833D01*
X0165312D01*
X0167311D02*
X0169310Y0087833D01*
X0174309Y0093831D02*
X0172309D01*
X0171310Y0092832D01*
Y0088833D01*
X0172309Y0087833D01*
X0174309D01*
X0175308Y0088833D01*
Y0092832D01*
X0174309Y0093831D01*
X0177308Y0087833D02*
Y0093831D01*
X0179307Y0091832D01*
X0181306Y0093831D01*
Y0087833D01*
X0189304Y0093831D02*
X0193303D01*
X0191303D01*
Y0087833D01*
X0198301Y0093831D02*
X0196301D01*
X0195302Y0092832D01*
Y0088833D01*
X0196301Y0087833D01*
X0198301D01*
X0199301Y0088833D01*
Y0092832D01*
X0198301Y0093831D01*
X0201300Y0087833D02*
Y0093831D01*
X0204299D01*
X0205299Y0092832D01*
Y0090832D01*
X0204299Y0089833D01*
X0201300D01*
X0217295Y0092832D02*
X0216295Y0093831D01*
X0214296D01*
X0213296Y0092832D01*
Y0091832D01*
X0214296Y0090832D01*
X0216295D01*
X0217295Y0089833D01*
Y0088833D01*
X0216295Y0087833D01*
X0214296D01*
X0213296Y0088833D01*
X0219294Y0093831D02*
X0221293D01*
X0220294D01*
Y0087833D01*
X0219294D01*
X0221293D01*
X0224292Y0093831D02*
Y0087833D01*
X0227291D01*
X0228291Y0088833D01*
Y0092832D01*
X0227291Y0093831D01*
X0224292D01*
X0234289D02*
X0230291D01*
Y0087833D01*
X0234289D01*
X0230291Y0090832D02*
X0232290D01*
X0462150Y0087833D02*
Y0091832D01*
X0464149Y0093831D01*
X0466149Y0091832D01*
Y0087833D01*
Y0090832D01*
X0462150D01*
X0348550Y0087833D02*
Y0093831D01*
X0350549Y0091832D01*
X0352549Y0093831D01*
Y0087833D01*
X0358547Y0092832D02*
X0357547Y0093831D01*
X0355548D01*
X0354548Y0092832D01*
Y0088833D01*
X0355548Y0087833D01*
X0357547D01*
X0358547Y0088833D01*
X0360546Y0093831D02*
Y0088833D01*
X0361546Y0087833D01*
X0363545D01*
X0364545Y0088833D01*
Y0093831D01*
X0366544Y0092832D02*
X0367544Y0093831D01*
X0369543D01*
X0370543Y0092832D01*
Y0088833D01*
X0369543Y0087833D01*
X0367544D01*
X0366544Y0088833D01*
Y0092832D01*
X0376541Y0093831D02*
X0372542D01*
Y0090832D01*
X0374542Y0091832D01*
X0375541D01*
X0376541Y0090832D01*
Y0088833D01*
X0375541Y0087833D01*
X0373542D01*
X0372542Y0088833D01*
X0382539Y0087833D02*
X0378540D01*
X0382539Y0091832D01*
Y0092832D01*
X0381539Y0093831D01*
X0379540D01*
X0378540Y0092832D01*
X0294000Y0093831D02*
Y0087833D01*
X0296999D01*
X0297999Y0088833D01*
Y0089833D01*
X0296999Y0090832D01*
X0294000D01*
X0296999D01*
X0297999Y0091832D01*
Y0092832D01*
X0296999Y0093831D01*
X0294000D01*
X0302997D02*
X0300998D01*
X0299998Y0092832D01*
Y0088833D01*
X0300998Y0087833D01*
X0302997D01*
X0303997Y0088833D01*
Y0092832D01*
X0302997Y0093831D01*
X0305996Y0087833D02*
Y0091832D01*
X0307996Y0093831D01*
X0309995Y0091832D01*
Y0087833D01*
Y0090832D01*
X0305996D01*
X0311994Y0087833D02*
Y0093831D01*
X0314993D01*
X0315993Y0092832D01*
Y0090832D01*
X0314993Y0089833D01*
X0311994D01*
X0313994D02*
X0315993Y0087833D01*
X0317992Y0093831D02*
Y0087833D01*
X0320991D01*
X0321991Y0088833D01*
Y0092832D01*
X0320991Y0093831D01*
X0317992D01*
X0330988Y0087833D02*
Y0093831D01*
X0332987D02*
Y0087833D01*
X0329988Y0091832D02*
X0332987D01*
X0333987D01*
X0329988Y0089833D02*
X0333987D01*
X0335986Y0091832D02*
X0336986D01*
Y0090832D01*
X0335986D01*
Y0091832D01*
Y0088833D02*
X0336986D01*
Y0087833D01*
X0335986D01*
Y0088833D01*
X0046350Y0073549D02*
Y0067551D01*
X0050349D01*
X0052348D02*
Y0071549D01*
X0054347Y0073549D01*
X0056347Y0071549D01*
Y0067551D01*
Y0070550D01*
X0052348D01*
X0058346Y0073549D02*
Y0072549D01*
X0060346Y0070550D01*
X0062345Y0072549D01*
Y0073549D01*
X0060346Y0070550D02*
Y0067551D01*
X0068343Y0073549D02*
X0064344D01*
Y0067551D01*
X0068343D01*
X0064344Y0070550D02*
X0066343D01*
X0070342Y0067551D02*
Y0073549D01*
X0073341D01*
X0074341Y0072549D01*
Y0070550D01*
X0073341Y0069550D01*
X0070342D01*
X0072342D02*
X0074341Y0067551D01*
X0082338D02*
Y0073549D01*
X0086337Y0067551D01*
Y0073549D01*
X0088336Y0067551D02*
Y0071549D01*
X0090336Y0073549D01*
X0092335Y0071549D01*
Y0067551D01*
Y0070550D01*
X0088336D01*
X0094335Y0067551D02*
Y0073549D01*
X0096334Y0071549D01*
X0098333Y0073549D01*
Y0067551D01*
X0104331Y0073549D02*
X0100332D01*
Y0067551D01*
X0104331D01*
X0100332Y0070550D02*
X0102332D01*
X0112329Y0069550D02*
X0116327D01*
X0112329Y0071549D02*
X0116327D01*
X0046350Y0046966D02*
Y0052965D01*
X0049349D01*
X0050349Y0051965D01*
Y0049966D01*
X0049349Y0048966D01*
X0046350D01*
X0052348Y0052965D02*
Y0046966D01*
X0056347D01*
X0061345Y0052965D02*
X0059346D01*
X0058346Y0051965D01*
Y0047966D01*
X0059346Y0046966D01*
X0061345D01*
X0062345Y0047966D01*
Y0051965D01*
X0061345Y0052965D01*
X0064344D02*
X0068343D01*
X0066343D01*
Y0046966D01*
X0076340D02*
Y0052965D01*
X0080339Y0046966D01*
Y0052965D01*
X0082338Y0046966D02*
Y0050965D01*
X0084338Y0052965D01*
X0086337Y0050965D01*
Y0046966D01*
Y0049966D01*
X0082338D01*
X0088336Y0046966D02*
Y0052965D01*
X0090336Y0050965D01*
X0092335Y0052965D01*
Y0046966D01*
X0098333Y0052965D02*
X0094335D01*
Y0046966D01*
X0098333D01*
X0094335Y0049966D02*
X0096334D01*
X0106331Y0048966D02*
X0110329D01*
X0106331Y0050965D02*
X0110329D01*
X0454050Y0046966D02*
X0456049D01*
X0455050D01*
Y0052965D01*
X0454050Y0051965D01*
X0459048Y0050965D02*
X0460048D01*
Y0049966D01*
X0459048D01*
Y0050965D01*
Y0047966D02*
X0460048D01*
Y0046966D01*
X0459048D01*
Y0047966D01*
X0464047Y0051965D02*
X0465046Y0052965D01*
X0467046D01*
X0468046Y0051965D01*
Y0050965D01*
X0467046Y0049966D01*
X0466046D01*
X0467046D01*
X0468046Y0048966D01*
Y0047966D01*
X0467046Y0046966D01*
X0465046D01*
X0464047Y0047966D01*
X0470045Y0051965D02*
X0471044Y0052965D01*
X0473044D01*
X0474044Y0051965D01*
Y0050965D01*
X0473044Y0049966D01*
X0472044D01*
X0473044D01*
X0474044Y0048966D01*
Y0047966D01*
X0473044Y0046966D01*
X0471044D01*
X0470045Y0047966D01*
X0476043Y0050965D02*
X0477043D01*
Y0049966D01*
X0476043D01*
Y0050965D01*
Y0047966D02*
X0477043D01*
Y0046966D01*
X0476043D01*
Y0047966D01*
X0485040Y0046966D02*
X0481041D01*
X0485040Y0050965D01*
Y0051965D01*
X0484040Y0052965D01*
X0482041D01*
X0481041Y0051965D01*
X0491038Y0052965D02*
X0487039D01*
Y0049966D01*
X0489039Y0050965D01*
X0490038D01*
X0491038Y0049966D01*
Y0047966D01*
X0490038Y0046966D01*
X0488039D01*
X0487039Y0047966D01*
X0499035Y0046966D02*
Y0052965D01*
X0502035D01*
X0503034Y0051965D01*
Y0049966D01*
X0502035Y0048966D01*
X0499035D01*
X0505033Y0046966D02*
Y0052965D01*
X0507033Y0050965D01*
X0509032Y0052965D01*
Y0046966D01*
X0580500Y0052965D02*
X0584499D01*
X0582499D01*
Y0046966D01*
X0590497Y0052965D02*
X0586498D01*
Y0046966D01*
X0590497D01*
X0586498Y0049966D02*
X0588497D01*
X0592496Y0052965D02*
X0596495Y0046966D01*
Y0052965D02*
X0592496Y0046966D01*
X0598494D02*
Y0050965D01*
X0600493Y0052965D01*
X0602493Y0050965D01*
Y0046966D01*
Y0049966D01*
X0598494D01*
X0608491Y0051965D02*
X0607491Y0052965D01*
X0605492D01*
X0604492Y0051965D01*
Y0050965D01*
X0605492Y0049966D01*
X0607491D01*
X0608491Y0048966D01*
Y0047966D01*
X0607491Y0046966D01*
X0605492D01*
X0604492Y0047966D01*
X0616488Y0052965D02*
X0618488D01*
X0617488D01*
Y0046966D01*
X0616488D01*
X0618488D01*
X0621487D02*
Y0052965D01*
X0625486Y0046966D01*
Y0052965D01*
X0631484Y0051965D02*
X0630484Y0052965D01*
X0628484D01*
X0627485Y0051965D01*
Y0050965D01*
X0628484Y0049966D01*
X0630484D01*
X0631484Y0048966D01*
Y0047966D01*
X0630484Y0046966D01*
X0628484D01*
X0627485Y0047966D01*
X0633483Y0052965D02*
X0637482D01*
X0635482D01*
Y0046966D01*
X0639481D02*
Y0052965D01*
X0642480D01*
X0643480Y0051965D01*
Y0049966D01*
X0642480Y0048966D01*
X0639481D01*
X0641480D02*
X0643480Y0046966D01*
X0645479Y0052965D02*
Y0047966D01*
X0646479Y0046966D01*
X0648478D01*
X0649478Y0047966D01*
Y0052965D01*
X0651477Y0046966D02*
Y0052965D01*
X0653476Y0050965D01*
X0655476Y0052965D01*
Y0046966D01*
X0661474Y0052965D02*
X0657475D01*
Y0046966D01*
X0661474D01*
X0657475Y0049966D02*
X0659474D01*
X0663473Y0046966D02*
Y0052965D01*
X0667472Y0046966D01*
Y0052965D01*
X0669471D02*
X0673470D01*
X0671471D01*
Y0046966D01*
X0679468Y0051965D02*
X0678468Y0052965D01*
X0676469D01*
X0675469Y0051965D01*
Y0050965D01*
X0676469Y0049966D01*
X0678468D01*
X0679468Y0048966D01*
Y0047966D01*
X0678468Y0046966D01*
X0676469D01*
X0675469Y0047966D01*
X0294000Y0073498D02*
X0297999D01*
X0295999D01*
Y0067500D01*
X0299998Y0073498D02*
X0301997D01*
X0300998D01*
Y0067500D01*
X0299998D01*
X0301997D01*
X0304996Y0073498D02*
Y0067500D01*
X0307996D01*
X0308995Y0068500D01*
Y0072498D01*
X0307996Y0073498D01*
X0304996D01*
X0317992Y0067500D02*
Y0073498D01*
X0319992D02*
Y0067500D01*
X0316993Y0071499D02*
X0319992D01*
X0320991D01*
X0316993Y0069499D02*
X0320991D01*
X0322991Y0071499D02*
X0323990D01*
Y0070499D01*
X0322991D01*
Y0071499D01*
Y0068500D02*
X0323990D01*
Y0067500D01*
X0322991D01*
Y0068500D01*
X0348550Y0067500D02*
Y0073498D01*
X0352549Y0067500D01*
Y0073498D01*
X0354548Y0067500D02*
X0358547Y0071499D01*
X0360546Y0067500D02*
Y0071499D01*
X0362545Y0073498D01*
X0364545Y0071499D01*
Y0067500D01*
Y0070499D01*
X0360546D01*
G54D13*
X0094200Y0368400D02*
D03*
G54D14*
X0224550Y0326750D02*
D03*
X0125700Y0290400D02*
D03*
X0180700Y0321400D02*
D03*
X0146200Y0368400D02*
D03*
M02*
