G04 Layer_Color=32896*
%FSAX25Y25*%
%MOIN*%
G70*
G01*
G75*
%ADD10C,0.01000*%
%ADD11C,0.00800*%
%ADD31C,0.01500*%
%ADD63C,0.00100*%
G54D10*
X0821612Y0773648D02*
Y0767650D01*
X0824611D01*
X0825611Y0768650D01*
Y0769649D01*
X0824611Y0770649D01*
X0821612D01*
X0824611D01*
X0825611Y0771649D01*
Y0772648D01*
X0824611Y0773648D01*
X0821612D01*
X0828610Y0767650D02*
X0830609D01*
X0831609Y0768650D01*
Y0770649D01*
X0830609Y0771649D01*
X0828610D01*
X0827610Y0770649D01*
Y0768650D01*
X0828610Y0767650D01*
X0834608Y0771649D02*
X0836607D01*
X0837607Y0770649D01*
Y0767650D01*
X0834608D01*
X0833608Y0768650D01*
X0834608Y0769649D01*
X0837607D01*
X0839606Y0771649D02*
Y0767650D01*
Y0769649D01*
X0840606Y0770649D01*
X0841606Y0771649D01*
X0842605D01*
X0849603Y0773648D02*
Y0767650D01*
X0846604D01*
X0845604Y0768650D01*
Y0770649D01*
X0846604Y0771649D01*
X0849603D01*
X0857600Y0773648D02*
Y0767650D01*
X0861599D01*
X0864598Y0771649D02*
X0866597D01*
X0867597Y0770649D01*
Y0767650D01*
X0864598D01*
X0863599Y0768650D01*
X0864598Y0769649D01*
X0867597D01*
X0869596Y0771649D02*
Y0768650D01*
X0870596Y0767650D01*
X0873595D01*
Y0766650D01*
X0872596Y0765651D01*
X0871596D01*
X0873595Y0767650D02*
Y0771649D01*
X0878594Y0767650D02*
X0876594D01*
X0875595Y0768650D01*
Y0770649D01*
X0876594Y0771649D01*
X0878594D01*
X0879593Y0770649D01*
Y0769649D01*
X0875595D01*
X0881593Y0771649D02*
Y0767650D01*
Y0769649D01*
X0882592Y0770649D01*
X0883592Y0771649D01*
X0884592D01*
X0897587Y0772648D02*
X0896588Y0773648D01*
X0894588D01*
X0893589Y0772648D01*
Y0771649D01*
X0894588Y0770649D01*
X0896588D01*
X0897587Y0769649D01*
Y0768650D01*
X0896588Y0767650D01*
X0894588D01*
X0893589Y0768650D01*
X0900587Y0772648D02*
Y0771649D01*
X0899587D01*
X0901586D01*
X0900587D01*
Y0768650D01*
X0901586Y0767650D01*
X0905585Y0771649D02*
X0907584D01*
X0908584Y0770649D01*
Y0767650D01*
X0905585D01*
X0904585Y0768650D01*
X0905585Y0769649D01*
X0908584D01*
X0914582Y0771649D02*
X0911583D01*
X0910583Y0770649D01*
Y0768650D01*
X0911583Y0767650D01*
X0914582D01*
X0916581D02*
Y0773648D01*
Y0769649D02*
X0919580Y0771649D01*
X0916581Y0769649D02*
X0919580Y0767650D01*
X0764626Y0748648D02*
X0765626Y0749648D01*
X0767625D01*
X0768625Y0748648D01*
Y0747649D01*
X0767625Y0746649D01*
X0766625D01*
X0767625D01*
X0768625Y0745649D01*
Y0744650D01*
X0767625Y0743650D01*
X0765626D01*
X0764626Y0744650D01*
X0770624Y0743650D02*
Y0744650D01*
X0771624D01*
Y0743650D01*
X0770624D01*
X0779621Y0749648D02*
X0775622D01*
Y0746649D01*
X0777622Y0747649D01*
X0778621D01*
X0779621Y0746649D01*
Y0744650D01*
X0778621Y0743650D01*
X0776622D01*
X0775622Y0744650D01*
X0767625Y0719650D02*
Y0725648D01*
X0764626Y0722649D01*
X0768625D01*
X0770624Y0719650D02*
Y0720650D01*
X0771624D01*
Y0719650D01*
X0770624D01*
X0779621D02*
X0775622D01*
X0779621Y0723649D01*
Y0724648D01*
X0778621Y0725648D01*
X0776622D01*
X0775622Y0724648D01*
X0767625Y0695650D02*
Y0701648D01*
X0764626Y0698649D01*
X0768625D01*
X0770624Y0695650D02*
Y0696650D01*
X0771624D01*
Y0695650D01*
X0770624D01*
X0779621D02*
X0775622D01*
X0779621Y0699649D01*
Y0700648D01*
X0778621Y0701648D01*
X0776622D01*
X0775622Y0700648D01*
X0767625Y0671650D02*
Y0677648D01*
X0764626Y0674649D01*
X0768625D01*
X0770624Y0671650D02*
Y0672650D01*
X0771624D01*
Y0671650D01*
X0770624D01*
X0779621D02*
X0775622D01*
X0779621Y0675649D01*
Y0676648D01*
X0778621Y0677648D01*
X0776622D01*
X0775622Y0676648D01*
X0764626Y0652648D02*
X0765626Y0653648D01*
X0767625D01*
X0768625Y0652648D01*
Y0651649D01*
X0767625Y0650649D01*
X0766625D01*
X0767625D01*
X0768625Y0649649D01*
Y0648650D01*
X0767625Y0647650D01*
X0765626D01*
X0764626Y0648650D01*
X0770624Y0647650D02*
Y0648650D01*
X0771624D01*
Y0647650D01*
X0770624D01*
X0779621Y0653648D02*
X0775622D01*
Y0650649D01*
X0777622Y0651649D01*
X0778621D01*
X0779621Y0650649D01*
Y0648650D01*
X0778621Y0647650D01*
X0776622D01*
X0775622Y0648650D01*
X0768625Y0772648D02*
X0767625Y0773648D01*
X0765626D01*
X0764626Y0772648D01*
Y0768650D01*
X0765626Y0767650D01*
X0767625D01*
X0768625Y0768650D01*
X0771624Y0767650D02*
X0773623D01*
X0774623Y0768650D01*
Y0770649D01*
X0773623Y0771649D01*
X0771624D01*
X0770624Y0770649D01*
Y0768650D01*
X0771624Y0767650D01*
X0776622D02*
Y0771649D01*
X0779621D01*
X0780621Y0770649D01*
Y0767650D01*
X0782620D02*
X0785619D01*
X0786619Y0768650D01*
X0785619Y0769649D01*
X0783620D01*
X0782620Y0770649D01*
X0783620Y0771649D01*
X0786619D01*
X0789618Y0772648D02*
Y0771649D01*
X0788618D01*
X0790618D01*
X0789618D01*
Y0768650D01*
X0790618Y0767650D01*
X0794616Y0771649D02*
X0796616D01*
X0797615Y0770649D01*
Y0767650D01*
X0794616D01*
X0793617Y0768650D01*
X0794616Y0769649D01*
X0797615D01*
X0799615Y0767650D02*
Y0771649D01*
X0802614D01*
X0803613Y0770649D01*
Y0767650D01*
X0806612Y0772648D02*
Y0771649D01*
X0805613D01*
X0807612D01*
X0806612D01*
Y0768650D01*
X0807612Y0767650D01*
X0699642Y0748648D02*
X0700642Y0749648D01*
X0702641D01*
X0703641Y0748648D01*
Y0744650D01*
X0702641Y0743650D01*
X0700642D01*
X0699642Y0744650D01*
Y0748648D01*
X0705641Y0743650D02*
Y0744650D01*
X0706640D01*
Y0743650D01*
X0705641D01*
X0713638D02*
Y0749648D01*
X0710639Y0746649D01*
X0714638D01*
X0716637Y0748648D02*
X0717637Y0749648D01*
X0719636D01*
X0720636Y0748648D01*
Y0744650D01*
X0719636Y0743650D01*
X0717637D01*
X0716637Y0744650D01*
Y0748648D01*
X0722635Y0743650D02*
Y0747649D01*
X0723635D01*
X0724634Y0746649D01*
Y0743650D01*
Y0746649D01*
X0725634Y0747649D01*
X0726634Y0746649D01*
Y0743650D01*
X0728633D02*
X0730632D01*
X0729633D01*
Y0747649D01*
X0728633D01*
X0733631Y0743650D02*
X0735631D01*
X0734631D01*
Y0749648D01*
X0733631D01*
X0699642Y0731650D02*
X0701642D01*
X0700642D01*
Y0737648D01*
X0699642Y0736648D01*
X0704641Y0731650D02*
Y0732650D01*
X0705641D01*
Y0731650D01*
X0704641D01*
X0712638D02*
Y0737648D01*
X0709639Y0734649D01*
X0713638D01*
X0715637Y0736648D02*
X0716637Y0737648D01*
X0718636D01*
X0719636Y0736648D01*
Y0732650D01*
X0718636Y0731650D01*
X0716637D01*
X0715637Y0732650D01*
Y0736648D01*
X0721635Y0731650D02*
Y0735649D01*
X0722635D01*
X0723635Y0734649D01*
Y0731650D01*
Y0734649D01*
X0724634Y0735649D01*
X0725634Y0734649D01*
Y0731650D01*
X0727633D02*
X0729633D01*
X0728633D01*
Y0735649D01*
X0727633D01*
X0732632Y0731650D02*
X0734631D01*
X0733631D01*
Y0737648D01*
X0732632D01*
X0699642Y0724648D02*
X0700642Y0725648D01*
X0702641D01*
X0703641Y0724648D01*
Y0723649D01*
X0702641Y0722649D01*
X0703641Y0721649D01*
Y0720650D01*
X0702641Y0719650D01*
X0700642D01*
X0699642Y0720650D01*
Y0721649D01*
X0700642Y0722649D01*
X0699642Y0723649D01*
Y0724648D01*
X0700642Y0722649D02*
X0702641D01*
X0705641Y0719650D02*
Y0720650D01*
X0706640D01*
Y0719650D01*
X0705641D01*
X0713638D02*
Y0725648D01*
X0710639Y0722649D01*
X0714638D01*
X0716637Y0724648D02*
X0717637Y0725648D01*
X0719636D01*
X0720636Y0724648D01*
Y0720650D01*
X0719636Y0719650D01*
X0717637D01*
X0716637Y0720650D01*
Y0724648D01*
X0722635Y0719650D02*
Y0723649D01*
X0723635D01*
X0724634Y0722649D01*
Y0719650D01*
Y0722649D01*
X0725634Y0723649D01*
X0726634Y0722649D01*
Y0719650D01*
X0728633D02*
X0730632D01*
X0729633D01*
Y0723649D01*
X0728633D01*
X0733631Y0719650D02*
X0735631D01*
X0734631D01*
Y0725648D01*
X0733631D01*
X0699642Y0707650D02*
X0701642D01*
X0700642D01*
Y0713648D01*
X0699642Y0712648D01*
X0704641Y0707650D02*
Y0708650D01*
X0705641D01*
Y0707650D01*
X0704641D01*
X0712638D02*
Y0713648D01*
X0709639Y0710649D01*
X0713638D01*
X0715637Y0712648D02*
X0716637Y0713648D01*
X0718636D01*
X0719636Y0712648D01*
Y0708650D01*
X0718636Y0707650D01*
X0716637D01*
X0715637Y0708650D01*
Y0712648D01*
X0721635Y0707650D02*
Y0711649D01*
X0722635D01*
X0723635Y0710649D01*
Y0707650D01*
Y0710649D01*
X0724634Y0711649D01*
X0725634Y0710649D01*
Y0707650D01*
X0727633D02*
X0729633D01*
X0728633D01*
Y0711649D01*
X0727633D01*
X0732632Y0707650D02*
X0734631D01*
X0733631D01*
Y0713648D01*
X0732632D01*
X0702641Y0695650D02*
Y0701648D01*
X0699642Y0698649D01*
X0703641D01*
X0705641Y0700648D02*
X0706640Y0701648D01*
X0708639D01*
X0709639Y0700648D01*
Y0696650D01*
X0708639Y0695650D01*
X0706640D01*
X0705641Y0696650D01*
Y0700648D01*
X0711639Y0695650D02*
Y0696650D01*
X0712638D01*
Y0695650D01*
X0711639D01*
X0716637Y0700648D02*
X0717637Y0701648D01*
X0719636D01*
X0720636Y0700648D01*
Y0696650D01*
X0719636Y0695650D01*
X0717637D01*
X0716637Y0696650D01*
Y0700648D01*
X0722635D02*
X0723635Y0701648D01*
X0725634D01*
X0726634Y0700648D01*
Y0696650D01*
X0725634Y0695650D01*
X0723635D01*
X0722635Y0696650D01*
Y0700648D01*
X0728633Y0695650D02*
Y0699649D01*
X0729633D01*
X0730632Y0698649D01*
Y0695650D01*
Y0698649D01*
X0731632Y0699649D01*
X0732632Y0698649D01*
Y0695650D01*
X0734631D02*
X0736630D01*
X0735631D01*
Y0699649D01*
X0734631D01*
X0739630Y0695650D02*
X0741629D01*
X0740629D01*
Y0701648D01*
X0739630D01*
X0699642Y0683650D02*
X0701642D01*
X0700642D01*
Y0689648D01*
X0699642Y0688648D01*
X0704641Y0683650D02*
Y0684650D01*
X0705641D01*
Y0683650D01*
X0704641D01*
X0712638D02*
Y0689648D01*
X0709639Y0686649D01*
X0713638D01*
X0715637Y0688648D02*
X0716637Y0689648D01*
X0718636D01*
X0719636Y0688648D01*
Y0684650D01*
X0718636Y0683650D01*
X0716637D01*
X0715637Y0684650D01*
Y0688648D01*
X0721635Y0683650D02*
Y0687649D01*
X0722635D01*
X0723635Y0686649D01*
Y0683650D01*
Y0686649D01*
X0724634Y0687649D01*
X0725634Y0686649D01*
Y0683650D01*
X0727633D02*
X0729633D01*
X0728633D01*
Y0687649D01*
X0727633D01*
X0732632Y0683650D02*
X0734631D01*
X0733631D01*
Y0689648D01*
X0732632D01*
X0699642Y0676648D02*
X0700642Y0677648D01*
X0702641D01*
X0703641Y0676648D01*
Y0675649D01*
X0702641Y0674649D01*
X0703641Y0673649D01*
Y0672650D01*
X0702641Y0671650D01*
X0700642D01*
X0699642Y0672650D01*
Y0673649D01*
X0700642Y0674649D01*
X0699642Y0675649D01*
Y0676648D01*
X0700642Y0674649D02*
X0702641D01*
X0705641Y0671650D02*
Y0672650D01*
X0706640D01*
Y0671650D01*
X0705641D01*
X0713638D02*
Y0677648D01*
X0710639Y0674649D01*
X0714638D01*
X0716637Y0676648D02*
X0717637Y0677648D01*
X0719636D01*
X0720636Y0676648D01*
Y0672650D01*
X0719636Y0671650D01*
X0717637D01*
X0716637Y0672650D01*
Y0676648D01*
X0722635Y0671650D02*
Y0675649D01*
X0723635D01*
X0724634Y0674649D01*
Y0671650D01*
Y0674649D01*
X0725634Y0675649D01*
X0726634Y0674649D01*
Y0671650D01*
X0728633D02*
X0730632D01*
X0729633D01*
Y0675649D01*
X0728633D01*
X0733631Y0671650D02*
X0735631D01*
X0734631D01*
Y0677648D01*
X0733631D01*
X0699642Y0659650D02*
X0701642D01*
X0700642D01*
Y0665648D01*
X0699642Y0664648D01*
X0704641Y0659650D02*
Y0660650D01*
X0705641D01*
Y0659650D01*
X0704641D01*
X0712638D02*
Y0665648D01*
X0709639Y0662649D01*
X0713638D01*
X0715637Y0664648D02*
X0716637Y0665648D01*
X0718636D01*
X0719636Y0664648D01*
Y0660650D01*
X0718636Y0659650D01*
X0716637D01*
X0715637Y0660650D01*
Y0664648D01*
X0721635Y0659650D02*
Y0663649D01*
X0722635D01*
X0723635Y0662649D01*
Y0659650D01*
Y0662649D01*
X0724634Y0663649D01*
X0725634Y0662649D01*
Y0659650D01*
X0727633D02*
X0729633D01*
X0728633D01*
Y0663649D01*
X0727633D01*
X0732632Y0659650D02*
X0734631D01*
X0733631D01*
Y0665648D01*
X0732632D01*
X0699642Y0652648D02*
X0700642Y0653648D01*
X0702641D01*
X0703641Y0652648D01*
Y0648650D01*
X0702641Y0647650D01*
X0700642D01*
X0699642Y0648650D01*
Y0652648D01*
X0705641Y0647650D02*
Y0648650D01*
X0706640D01*
Y0647650D01*
X0705641D01*
X0713638D02*
Y0653648D01*
X0710639Y0650649D01*
X0714638D01*
X0716637Y0652648D02*
X0717637Y0653648D01*
X0719636D01*
X0720636Y0652648D01*
Y0648650D01*
X0719636Y0647650D01*
X0717637D01*
X0716637Y0648650D01*
Y0652648D01*
X0722635Y0647650D02*
Y0651649D01*
X0723635D01*
X0724634Y0650649D01*
Y0647650D01*
Y0650649D01*
X0725634Y0651649D01*
X0726634Y0650649D01*
Y0647650D01*
X0728633D02*
X0730632D01*
X0729633D01*
Y0651649D01*
X0728633D01*
X0733631Y0647650D02*
X0735631D01*
X0734631D01*
Y0653648D01*
X0733631D01*
X0699642Y0773648D02*
X0703641D01*
X0701642D01*
Y0767650D01*
X0705641Y0773648D02*
Y0767650D01*
Y0770649D01*
X0706640Y0771649D01*
X0708639D01*
X0709639Y0770649D01*
Y0767650D01*
X0711639D02*
X0713638D01*
X0712638D01*
Y0771649D01*
X0711639D01*
X0720636D02*
X0717637D01*
X0716637Y0770649D01*
Y0768650D01*
X0717637Y0767650D01*
X0720636D01*
X0722635D02*
Y0773648D01*
Y0769649D02*
X0725634Y0771649D01*
X0722635Y0769649D02*
X0725634Y0767650D01*
X0728633D02*
Y0771649D01*
X0731632D01*
X0732632Y0770649D01*
Y0767650D01*
X0737630D02*
X0735631D01*
X0734631Y0768650D01*
Y0770649D01*
X0735631Y0771649D01*
X0737630D01*
X0738630Y0770649D01*
Y0769649D01*
X0734631D01*
X0740629Y0767650D02*
X0743628D01*
X0744628Y0768650D01*
X0743628Y0769649D01*
X0741629D01*
X0740629Y0770649D01*
X0741629Y0771649D01*
X0744628D01*
X0746627Y0767650D02*
X0749626D01*
X0750626Y0768650D01*
X0749626Y0769649D01*
X0747627D01*
X0746627Y0770649D01*
X0747627Y0771649D01*
X0750626D01*
X0617664Y0748648D02*
X0616665Y0749648D01*
X0614665D01*
X0613666Y0748648D01*
Y0747649D01*
X0614665Y0746649D01*
X0616665D01*
X0617664Y0745649D01*
Y0744650D01*
X0616665Y0743650D01*
X0614665D01*
X0613666Y0744650D01*
X0620663Y0743650D02*
X0622663D01*
X0623663Y0744650D01*
Y0746649D01*
X0622663Y0747649D01*
X0620663D01*
X0619664Y0746649D01*
Y0744650D01*
X0620663Y0743650D01*
X0625662D02*
X0627661D01*
X0626661D01*
Y0749648D01*
X0625662D01*
X0634659D02*
Y0743650D01*
X0631660D01*
X0630660Y0744650D01*
Y0746649D01*
X0631660Y0747649D01*
X0634659D01*
X0639657Y0743650D02*
X0637658D01*
X0636658Y0744650D01*
Y0746649D01*
X0637658Y0747649D01*
X0639657D01*
X0640657Y0746649D01*
Y0745649D01*
X0636658D01*
X0642656Y0747649D02*
Y0743650D01*
Y0745649D01*
X0643656Y0746649D01*
X0644656Y0747649D01*
X0645655D01*
X0654653Y0743650D02*
Y0749648D01*
X0657652D01*
X0658651Y0748648D01*
Y0746649D01*
X0657652Y0745649D01*
X0654653D01*
X0656652D02*
X0658651Y0743650D01*
X0663650D02*
X0661650D01*
X0660650Y0744650D01*
Y0746649D01*
X0661650Y0747649D01*
X0663650D01*
X0664649Y0746649D01*
Y0745649D01*
X0660650D01*
X0666649Y0743650D02*
X0669648D01*
X0670647Y0744650D01*
X0669648Y0745649D01*
X0667648D01*
X0666649Y0746649D01*
X0667648Y0747649D01*
X0670647D01*
X0672647Y0743650D02*
X0674646D01*
X0673646D01*
Y0747649D01*
X0672647D01*
X0677645Y0743650D02*
X0680644D01*
X0681644Y0744650D01*
X0680644Y0745649D01*
X0678645D01*
X0677645Y0746649D01*
X0678645Y0747649D01*
X0681644D01*
X0684643Y0748648D02*
Y0747649D01*
X0683643D01*
X0685642D01*
X0684643D01*
Y0744650D01*
X0685642Y0743650D01*
X0617664Y0736648D02*
X0616665Y0737648D01*
X0614665D01*
X0613666Y0736648D01*
Y0732650D01*
X0614665Y0731650D01*
X0616665D01*
X0617664Y0732650D01*
X0620663Y0731650D02*
X0622663D01*
X0623663Y0732650D01*
Y0734649D01*
X0622663Y0735649D01*
X0620663D01*
X0619664Y0734649D01*
Y0732650D01*
X0620663Y0731650D01*
X0625662Y0729651D02*
Y0735649D01*
X0628661D01*
X0629661Y0734649D01*
Y0732650D01*
X0628661Y0731650D01*
X0625662D01*
X0631660Y0729651D02*
Y0735649D01*
X0634659D01*
X0635659Y0734649D01*
Y0732650D01*
X0634659Y0731650D01*
X0631660D01*
X0640657D02*
X0638658D01*
X0637658Y0732650D01*
Y0734649D01*
X0638658Y0735649D01*
X0640657D01*
X0641657Y0734649D01*
Y0733649D01*
X0637658D01*
X0643656Y0735649D02*
Y0731650D01*
Y0733649D01*
X0644656Y0734649D01*
X0645655Y0735649D01*
X0646655D01*
X0617664Y0725648D02*
X0613666D01*
Y0722649D01*
X0615665D01*
X0613666D01*
Y0719650D01*
X0619664D02*
Y0725648D01*
X0622663D01*
X0623663Y0724648D01*
Y0722649D01*
X0622663Y0721649D01*
X0619664D01*
X0621663D02*
X0623663Y0719650D01*
X0625662Y0722649D02*
X0629661D01*
X0634659Y0719650D02*
Y0725648D01*
X0631660Y0722649D01*
X0635659D01*
X0617664Y0712648D02*
X0616665Y0713648D01*
X0614665D01*
X0613666Y0712648D01*
Y0708650D01*
X0614665Y0707650D01*
X0616665D01*
X0617664Y0708650D01*
X0620663Y0707650D02*
X0622663D01*
X0623663Y0708650D01*
Y0710649D01*
X0622663Y0711649D01*
X0620663D01*
X0619664Y0710649D01*
Y0708650D01*
X0620663Y0707650D01*
X0625662Y0705651D02*
Y0711649D01*
X0628661D01*
X0629661Y0710649D01*
Y0708650D01*
X0628661Y0707650D01*
X0625662D01*
X0631660Y0705651D02*
Y0711649D01*
X0634659D01*
X0635659Y0710649D01*
Y0708650D01*
X0634659Y0707650D01*
X0631660D01*
X0640657D02*
X0638658D01*
X0637658Y0708650D01*
Y0710649D01*
X0638658Y0711649D01*
X0640657D01*
X0641657Y0710649D01*
Y0709649D01*
X0637658D01*
X0643656Y0711649D02*
Y0707650D01*
Y0709649D01*
X0644656Y0710649D01*
X0645655Y0711649D01*
X0646655D01*
X0617664Y0701648D02*
X0613666D01*
Y0698649D01*
X0615665D01*
X0613666D01*
Y0695650D01*
X0619664D02*
Y0701648D01*
X0622663D01*
X0623663Y0700648D01*
Y0698649D01*
X0622663Y0697649D01*
X0619664D01*
X0621663D02*
X0623663Y0695650D01*
X0625662Y0698649D02*
X0629661D01*
X0634659Y0695650D02*
Y0701648D01*
X0631660Y0698649D01*
X0635659D01*
X0617664Y0688648D02*
X0616665Y0689648D01*
X0614665D01*
X0613666Y0688648D01*
Y0684650D01*
X0614665Y0683650D01*
X0616665D01*
X0617664Y0684650D01*
X0620663Y0683650D02*
X0622663D01*
X0623663Y0684650D01*
Y0686649D01*
X0622663Y0687649D01*
X0620663D01*
X0619664Y0686649D01*
Y0684650D01*
X0620663Y0683650D01*
X0625662Y0681651D02*
Y0687649D01*
X0628661D01*
X0629661Y0686649D01*
Y0684650D01*
X0628661Y0683650D01*
X0625662D01*
X0631660Y0681651D02*
Y0687649D01*
X0634659D01*
X0635659Y0686649D01*
Y0684650D01*
X0634659Y0683650D01*
X0631660D01*
X0640657D02*
X0638658D01*
X0637658Y0684650D01*
Y0686649D01*
X0638658Y0687649D01*
X0640657D01*
X0641657Y0686649D01*
Y0685649D01*
X0637658D01*
X0643656Y0687649D02*
Y0683650D01*
Y0685649D01*
X0644656Y0686649D01*
X0645655Y0687649D01*
X0646655D01*
X0617664Y0677648D02*
X0613666D01*
Y0674649D01*
X0615665D01*
X0613666D01*
Y0671650D01*
X0619664D02*
Y0677648D01*
X0622663D01*
X0623663Y0676648D01*
Y0674649D01*
X0622663Y0673649D01*
X0619664D01*
X0621663D02*
X0623663Y0671650D01*
X0625662Y0674649D02*
X0629661D01*
X0634659Y0671650D02*
Y0677648D01*
X0631660Y0674649D01*
X0635659D01*
X0617664Y0664648D02*
X0616665Y0665648D01*
X0614665D01*
X0613666Y0664648D01*
Y0660650D01*
X0614665Y0659650D01*
X0616665D01*
X0617664Y0660650D01*
X0620663Y0659650D02*
X0622663D01*
X0623663Y0660650D01*
Y0662649D01*
X0622663Y0663649D01*
X0620663D01*
X0619664Y0662649D01*
Y0660650D01*
X0620663Y0659650D01*
X0625662Y0657651D02*
Y0663649D01*
X0628661D01*
X0629661Y0662649D01*
Y0660650D01*
X0628661Y0659650D01*
X0625662D01*
X0631660Y0657651D02*
Y0663649D01*
X0634659D01*
X0635659Y0662649D01*
Y0660650D01*
X0634659Y0659650D01*
X0631660D01*
X0640657D02*
X0638658D01*
X0637658Y0660650D01*
Y0662649D01*
X0638658Y0663649D01*
X0640657D01*
X0641657Y0662649D01*
Y0661649D01*
X0637658D01*
X0643656Y0663649D02*
Y0659650D01*
Y0661649D01*
X0644656Y0662649D01*
X0645655Y0663649D01*
X0646655D01*
X0617664Y0652648D02*
X0616665Y0653648D01*
X0614665D01*
X0613666Y0652648D01*
Y0651649D01*
X0614665Y0650649D01*
X0616665D01*
X0617664Y0649649D01*
Y0648650D01*
X0616665Y0647650D01*
X0614665D01*
X0613666Y0648650D01*
X0620663Y0647650D02*
X0622663D01*
X0623663Y0648650D01*
Y0650649D01*
X0622663Y0651649D01*
X0620663D01*
X0619664Y0650649D01*
Y0648650D01*
X0620663Y0647650D01*
X0625662D02*
X0627661D01*
X0626661D01*
Y0653648D01*
X0625662D01*
X0634659D02*
Y0647650D01*
X0631660D01*
X0630660Y0648650D01*
Y0650649D01*
X0631660Y0651649D01*
X0634659D01*
X0639657Y0647650D02*
X0637658D01*
X0636658Y0648650D01*
Y0650649D01*
X0637658Y0651649D01*
X0639657D01*
X0640657Y0650649D01*
Y0649649D01*
X0636658D01*
X0642656Y0651649D02*
Y0647650D01*
Y0649649D01*
X0643656Y0650649D01*
X0644656Y0651649D01*
X0645655D01*
X0654653Y0647650D02*
Y0653648D01*
X0657652D01*
X0658651Y0652648D01*
Y0650649D01*
X0657652Y0649649D01*
X0654653D01*
X0656652D02*
X0658651Y0647650D01*
X0663650D02*
X0661650D01*
X0660650Y0648650D01*
Y0650649D01*
X0661650Y0651649D01*
X0663650D01*
X0664649Y0650649D01*
Y0649649D01*
X0660650D01*
X0666649Y0647650D02*
X0669648D01*
X0670647Y0648650D01*
X0669648Y0649649D01*
X0667648D01*
X0666649Y0650649D01*
X0667648Y0651649D01*
X0670647D01*
X0672647Y0647650D02*
X0674646D01*
X0673646D01*
Y0651649D01*
X0672647D01*
X0677645Y0647650D02*
X0680644D01*
X0681644Y0648650D01*
X0680644Y0649649D01*
X0678645D01*
X0677645Y0650649D01*
X0678645Y0651649D01*
X0681644D01*
X0684643Y0652648D02*
Y0651649D01*
X0683643D01*
X0685642D01*
X0684643D01*
Y0648650D01*
X0685642Y0647650D01*
X0613666Y0767650D02*
Y0773648D01*
X0615665Y0771649D01*
X0617664Y0773648D01*
Y0767650D01*
X0620663Y0771649D02*
X0622663D01*
X0623663Y0770649D01*
Y0767650D01*
X0620663D01*
X0619664Y0768650D01*
X0620663Y0769649D01*
X0623663D01*
X0626661Y0772648D02*
Y0771649D01*
X0625662D01*
X0627661D01*
X0626661D01*
Y0768650D01*
X0627661Y0767650D01*
X0633659D02*
X0631660D01*
X0630660Y0768650D01*
Y0770649D01*
X0631660Y0771649D01*
X0633659D01*
X0634659Y0770649D01*
Y0769649D01*
X0630660D01*
X0636658Y0771649D02*
Y0767650D01*
Y0769649D01*
X0637658Y0770649D01*
X0638658Y0771649D01*
X0639657D01*
X0642656Y0767650D02*
X0644656D01*
X0643656D01*
Y0771649D01*
X0642656D01*
X0648654D02*
X0650654D01*
X0651653Y0770649D01*
Y0767650D01*
X0648654D01*
X0647655Y0768650D01*
X0648654Y0769649D01*
X0651653D01*
X0653653Y0767650D02*
X0655652D01*
X0654653D01*
Y0773648D01*
X0653653D01*
X0520691Y0761648D02*
X0524690D01*
X0522691D01*
Y0755650D01*
X0527689D02*
X0529688D01*
X0530688Y0756650D01*
Y0758649D01*
X0529688Y0759649D01*
X0527689D01*
X0526689Y0758649D01*
Y0756650D01*
X0527689Y0755650D01*
X0532687Y0753651D02*
Y0759649D01*
X0535686D01*
X0536686Y0758649D01*
Y0756650D01*
X0535686Y0755650D01*
X0532687D01*
X0547683Y0761648D02*
X0545683D01*
X0544684Y0760648D01*
Y0756650D01*
X0545683Y0755650D01*
X0547683D01*
X0548682Y0756650D01*
Y0760648D01*
X0547683Y0761648D01*
X0550682Y0759649D02*
X0552681Y0755650D01*
X0554680Y0759649D01*
X0559679Y0755650D02*
X0557679D01*
X0556680Y0756650D01*
Y0758649D01*
X0557679Y0759649D01*
X0559679D01*
X0560678Y0758649D01*
Y0757649D01*
X0556680D01*
X0562678Y0759649D02*
Y0755650D01*
Y0757649D01*
X0563677Y0758649D01*
X0564677Y0759649D01*
X0565677D01*
X0568676Y0755650D02*
X0570675D01*
X0569675D01*
Y0761648D01*
X0568676D01*
X0574674Y0759649D02*
X0576673D01*
X0577673Y0758649D01*
Y0755650D01*
X0574674D01*
X0573674Y0756650D01*
X0574674Y0757649D01*
X0577673D01*
X0579672Y0759649D02*
Y0756650D01*
X0580672Y0755650D01*
X0583671D01*
Y0754650D01*
X0582671Y0753651D01*
X0581671D01*
X0583671Y0755650D02*
Y0759649D01*
X0520691Y0749648D02*
X0524690D01*
X0522691D01*
Y0743650D01*
X0527689D02*
X0529688D01*
X0530688Y0744650D01*
Y0746649D01*
X0529688Y0747649D01*
X0527689D01*
X0526689Y0746649D01*
Y0744650D01*
X0527689Y0743650D01*
X0532687Y0741651D02*
Y0747649D01*
X0535686D01*
X0536686Y0746649D01*
Y0744650D01*
X0535686Y0743650D01*
X0532687D01*
X0548682Y0748648D02*
X0547683Y0749648D01*
X0545683D01*
X0544684Y0748648D01*
Y0747649D01*
X0545683Y0746649D01*
X0547683D01*
X0548682Y0745649D01*
Y0744650D01*
X0547683Y0743650D01*
X0545683D01*
X0544684Y0744650D01*
X0551681Y0743650D02*
X0553681D01*
X0554680Y0744650D01*
Y0746649D01*
X0553681Y0747649D01*
X0551681D01*
X0550682Y0746649D01*
Y0744650D01*
X0551681Y0743650D01*
X0556680D02*
X0558679D01*
X0557679D01*
Y0749648D01*
X0556680D01*
X0565677D02*
Y0743650D01*
X0562678D01*
X0561678Y0744650D01*
Y0746649D01*
X0562678Y0747649D01*
X0565677D01*
X0570675Y0743650D02*
X0568676D01*
X0567676Y0744650D01*
Y0746649D01*
X0568676Y0747649D01*
X0570675D01*
X0571675Y0746649D01*
Y0745649D01*
X0567676D01*
X0573674Y0747649D02*
Y0743650D01*
Y0745649D01*
X0574674Y0746649D01*
X0575673Y0747649D01*
X0576673D01*
X0520691Y0737648D02*
X0524690D01*
X0522691D01*
Y0731650D01*
X0527689D02*
X0529688D01*
X0530688Y0732650D01*
Y0734649D01*
X0529688Y0735649D01*
X0527689D01*
X0526689Y0734649D01*
Y0732650D01*
X0527689Y0731650D01*
X0532687Y0729651D02*
Y0735649D01*
X0535686D01*
X0536686Y0734649D01*
Y0732650D01*
X0535686Y0731650D01*
X0532687D01*
X0544684Y0737648D02*
Y0731650D01*
X0548682D01*
X0551681Y0735649D02*
X0553681D01*
X0554680Y0734649D01*
Y0731650D01*
X0551681D01*
X0550682Y0732650D01*
X0551681Y0733649D01*
X0554680D01*
X0556680Y0735649D02*
Y0732650D01*
X0557679Y0731650D01*
X0560678D01*
Y0730650D01*
X0559679Y0729651D01*
X0558679D01*
X0560678Y0731650D02*
Y0735649D01*
X0565677Y0731650D02*
X0563677D01*
X0562678Y0732650D01*
Y0734649D01*
X0563677Y0735649D01*
X0565677D01*
X0566676Y0734649D01*
Y0733649D01*
X0562678D01*
X0568676Y0735649D02*
Y0731650D01*
Y0733649D01*
X0569675Y0734649D01*
X0570675Y0735649D01*
X0571675D01*
X0520691Y0725648D02*
Y0719650D01*
X0523690D01*
X0524690Y0720650D01*
Y0724648D01*
X0523690Y0725648D01*
X0520691D01*
X0526689Y0719650D02*
X0528689D01*
X0527689D01*
Y0723649D01*
X0526689D01*
X0534687Y0719650D02*
X0532687D01*
X0531688Y0720650D01*
Y0722649D01*
X0532687Y0723649D01*
X0534687D01*
X0535686Y0722649D01*
Y0721649D01*
X0531688D01*
X0537686Y0719650D02*
X0539685D01*
X0538686D01*
Y0725648D01*
X0537686D01*
X0545683Y0719650D02*
X0543684D01*
X0542684Y0720650D01*
Y0722649D01*
X0543684Y0723649D01*
X0545683D01*
X0546683Y0722649D01*
Y0721649D01*
X0542684D01*
X0552681Y0723649D02*
X0549682D01*
X0548682Y0722649D01*
Y0720650D01*
X0549682Y0719650D01*
X0552681D01*
X0555680Y0724648D02*
Y0723649D01*
X0554680D01*
X0556680D01*
X0555680D01*
Y0720650D01*
X0556680Y0719650D01*
X0559679Y0723649D02*
Y0719650D01*
Y0721649D01*
X0560678Y0722649D01*
X0561678Y0723649D01*
X0562678D01*
X0565677Y0719650D02*
X0567676D01*
X0566676D01*
Y0723649D01*
X0565677D01*
X0574674D02*
X0571675D01*
X0570675Y0722649D01*
Y0720650D01*
X0571675Y0719650D01*
X0574674D01*
X0586670D02*
X0582671D01*
X0586670Y0723649D01*
Y0724648D01*
X0585670Y0725648D01*
X0583671D01*
X0582671Y0724648D01*
X0520691Y0713648D02*
Y0709649D01*
X0522691Y0707650D01*
X0524690Y0709649D01*
Y0713648D01*
X0530688Y0712648D02*
X0529688Y0713648D01*
X0527689D01*
X0526689Y0712648D01*
Y0708650D01*
X0527689Y0707650D01*
X0529688D01*
X0530688Y0708650D01*
X0536686Y0712648D02*
X0535686Y0713648D01*
X0533687D01*
X0532687Y0712648D01*
Y0708650D01*
X0533687Y0707650D01*
X0535686D01*
X0536686Y0708650D01*
X0544684Y0713648D02*
Y0707650D01*
X0548682D01*
X0551681Y0711649D02*
X0553681D01*
X0554680Y0710649D01*
Y0707650D01*
X0551681D01*
X0550682Y0708650D01*
X0551681Y0709649D01*
X0554680D01*
X0556680Y0711649D02*
Y0708650D01*
X0557679Y0707650D01*
X0560678D01*
Y0706650D01*
X0559679Y0705651D01*
X0558679D01*
X0560678Y0707650D02*
Y0711649D01*
X0565677Y0707650D02*
X0563677D01*
X0562678Y0708650D01*
Y0710649D01*
X0563677Y0711649D01*
X0565677D01*
X0566676Y0710649D01*
Y0709649D01*
X0562678D01*
X0568676Y0711649D02*
Y0707650D01*
Y0709649D01*
X0569675Y0710649D01*
X0570675Y0711649D01*
X0571675D01*
X0520691Y0701648D02*
Y0695650D01*
X0523690D01*
X0524690Y0696650D01*
Y0700648D01*
X0523690Y0701648D01*
X0520691D01*
X0526689Y0695650D02*
X0528689D01*
X0527689D01*
Y0699649D01*
X0526689D01*
X0534687Y0695650D02*
X0532687D01*
X0531688Y0696650D01*
Y0698649D01*
X0532687Y0699649D01*
X0534687D01*
X0535686Y0698649D01*
Y0697649D01*
X0531688D01*
X0537686Y0695650D02*
X0539685D01*
X0538686D01*
Y0701648D01*
X0537686D01*
X0545683Y0695650D02*
X0543684D01*
X0542684Y0696650D01*
Y0698649D01*
X0543684Y0699649D01*
X0545683D01*
X0546683Y0698649D01*
Y0697649D01*
X0542684D01*
X0552681Y0699649D02*
X0549682D01*
X0548682Y0698649D01*
Y0696650D01*
X0549682Y0695650D01*
X0552681D01*
X0555680Y0700648D02*
Y0699649D01*
X0554680D01*
X0556680D01*
X0555680D01*
Y0696650D01*
X0556680Y0695650D01*
X0559679Y0699649D02*
Y0695650D01*
Y0697649D01*
X0560678Y0698649D01*
X0561678Y0699649D01*
X0562678D01*
X0565677Y0695650D02*
X0567676D01*
X0566676D01*
Y0699649D01*
X0565677D01*
X0574674D02*
X0571675D01*
X0570675Y0698649D01*
Y0696650D01*
X0571675Y0695650D01*
X0574674D01*
X0576673D02*
X0578673D01*
X0577673D01*
Y0701648D01*
X0576673Y0700648D01*
X0524690Y0688648D02*
X0523690Y0689648D01*
X0521691D01*
X0520691Y0688648D01*
Y0684650D01*
X0521691Y0683650D01*
X0523690D01*
X0524690Y0684650D01*
Y0686649D01*
X0522691D01*
X0526689Y0683650D02*
Y0689648D01*
X0530688Y0683650D01*
Y0689648D01*
X0532687D02*
Y0683650D01*
X0535686D01*
X0536686Y0684650D01*
Y0688648D01*
X0535686Y0689648D01*
X0532687D01*
X0544684D02*
Y0683650D01*
X0548682D01*
X0551681Y0687649D02*
X0553681D01*
X0554680Y0686649D01*
Y0683650D01*
X0551681D01*
X0550682Y0684650D01*
X0551681Y0685649D01*
X0554680D01*
X0556680Y0687649D02*
Y0684650D01*
X0557679Y0683650D01*
X0560678D01*
Y0682650D01*
X0559679Y0681651D01*
X0558679D01*
X0560678Y0683650D02*
Y0687649D01*
X0565677Y0683650D02*
X0563677D01*
X0562678Y0684650D01*
Y0686649D01*
X0563677Y0687649D01*
X0565677D01*
X0566676Y0686649D01*
Y0685649D01*
X0562678D01*
X0568676Y0687649D02*
Y0683650D01*
Y0685649D01*
X0569675Y0686649D01*
X0570675Y0687649D01*
X0571675D01*
X0520691Y0677648D02*
Y0671650D01*
X0523690D01*
X0524690Y0672650D01*
Y0676648D01*
X0523690Y0677648D01*
X0520691D01*
X0526689Y0671650D02*
X0528689D01*
X0527689D01*
Y0675649D01*
X0526689D01*
X0534687Y0671650D02*
X0532687D01*
X0531688Y0672650D01*
Y0674649D01*
X0532687Y0675649D01*
X0534687D01*
X0535686Y0674649D01*
Y0673649D01*
X0531688D01*
X0537686Y0671650D02*
X0539685D01*
X0538686D01*
Y0677648D01*
X0537686D01*
X0545683Y0671650D02*
X0543684D01*
X0542684Y0672650D01*
Y0674649D01*
X0543684Y0675649D01*
X0545683D01*
X0546683Y0674649D01*
Y0673649D01*
X0542684D01*
X0552681Y0675649D02*
X0549682D01*
X0548682Y0674649D01*
Y0672650D01*
X0549682Y0671650D01*
X0552681D01*
X0555680Y0676648D02*
Y0675649D01*
X0554680D01*
X0556680D01*
X0555680D01*
Y0672650D01*
X0556680Y0671650D01*
X0559679Y0675649D02*
Y0671650D01*
Y0673649D01*
X0560678Y0674649D01*
X0561678Y0675649D01*
X0562678D01*
X0565677Y0671650D02*
X0567676D01*
X0566676D01*
Y0675649D01*
X0565677D01*
X0574674D02*
X0571675D01*
X0570675Y0674649D01*
Y0672650D01*
X0571675Y0671650D01*
X0574674D01*
X0582671Y0676648D02*
X0583671Y0677648D01*
X0585670D01*
X0586670Y0676648D01*
Y0675649D01*
X0585670Y0674649D01*
X0584671D01*
X0585670D01*
X0586670Y0673649D01*
Y0672650D01*
X0585670Y0671650D01*
X0583671D01*
X0582671Y0672650D01*
X0520691Y0665648D02*
Y0659650D01*
X0523690D01*
X0524690Y0660650D01*
Y0661649D01*
X0523690Y0662649D01*
X0520691D01*
X0523690D01*
X0524690Y0663649D01*
Y0664648D01*
X0523690Y0665648D01*
X0520691D01*
X0527689Y0659650D02*
X0529688D01*
X0530688Y0660650D01*
Y0662649D01*
X0529688Y0663649D01*
X0527689D01*
X0526689Y0662649D01*
Y0660650D01*
X0527689Y0659650D01*
X0533687Y0664648D02*
Y0663649D01*
X0532687D01*
X0534687D01*
X0533687D01*
Y0660650D01*
X0534687Y0659650D01*
X0538686Y0664648D02*
Y0663649D01*
X0537686D01*
X0539685D01*
X0538686D01*
Y0660650D01*
X0539685Y0659650D01*
X0543684D02*
X0545683D01*
X0546683Y0660650D01*
Y0662649D01*
X0545683Y0663649D01*
X0543684D01*
X0542684Y0662649D01*
Y0660650D01*
X0543684Y0659650D01*
X0548682D02*
Y0663649D01*
X0549682D01*
X0550682Y0662649D01*
Y0659650D01*
Y0662649D01*
X0551681Y0663649D01*
X0552681Y0662649D01*
Y0659650D01*
X0560678Y0665648D02*
Y0659650D01*
X0564677D01*
X0567676Y0663649D02*
X0569675D01*
X0570675Y0662649D01*
Y0659650D01*
X0567676D01*
X0566676Y0660650D01*
X0567676Y0661649D01*
X0570675D01*
X0572674Y0663649D02*
Y0660650D01*
X0573674Y0659650D01*
X0576673D01*
Y0658650D01*
X0575673Y0657651D01*
X0574674D01*
X0576673Y0659650D02*
Y0663649D01*
X0581671Y0659650D02*
X0579672D01*
X0578673Y0660650D01*
Y0662649D01*
X0579672Y0663649D01*
X0581671D01*
X0582671Y0662649D01*
Y0661649D01*
X0578673D01*
X0584671Y0663649D02*
Y0659650D01*
Y0661649D01*
X0585670Y0662649D01*
X0586670Y0663649D01*
X0587670D01*
X0520691Y0653648D02*
Y0647650D01*
X0523690D01*
X0524690Y0648650D01*
Y0649649D01*
X0523690Y0650649D01*
X0520691D01*
X0523690D01*
X0524690Y0651649D01*
Y0652648D01*
X0523690Y0653648D01*
X0520691D01*
X0527689Y0647650D02*
X0529688D01*
X0530688Y0648650D01*
Y0650649D01*
X0529688Y0651649D01*
X0527689D01*
X0526689Y0650649D01*
Y0648650D01*
X0527689Y0647650D01*
X0533687Y0652648D02*
Y0651649D01*
X0532687D01*
X0534687D01*
X0533687D01*
Y0648650D01*
X0534687Y0647650D01*
X0538686Y0652648D02*
Y0651649D01*
X0537686D01*
X0539685D01*
X0538686D01*
Y0648650D01*
X0539685Y0647650D01*
X0543684D02*
X0545683D01*
X0546683Y0648650D01*
Y0650649D01*
X0545683Y0651649D01*
X0543684D01*
X0542684Y0650649D01*
Y0648650D01*
X0543684Y0647650D01*
X0548682D02*
Y0651649D01*
X0549682D01*
X0550682Y0650649D01*
Y0647650D01*
Y0650649D01*
X0551681Y0651649D01*
X0552681Y0650649D01*
Y0647650D01*
X0564677Y0652648D02*
X0563677Y0653648D01*
X0561678D01*
X0560678Y0652648D01*
Y0651649D01*
X0561678Y0650649D01*
X0563677D01*
X0564677Y0649649D01*
Y0648650D01*
X0563677Y0647650D01*
X0561678D01*
X0560678Y0648650D01*
X0567676Y0647650D02*
X0569675D01*
X0570675Y0648650D01*
Y0650649D01*
X0569675Y0651649D01*
X0567676D01*
X0566676Y0650649D01*
Y0648650D01*
X0567676Y0647650D01*
X0572674D02*
X0574674D01*
X0573674D01*
Y0653648D01*
X0572674D01*
X0581671D02*
Y0647650D01*
X0578673D01*
X0577673Y0648650D01*
Y0650649D01*
X0578673Y0651649D01*
X0581671D01*
X0586670Y0647650D02*
X0584671D01*
X0583671Y0648650D01*
Y0650649D01*
X0584671Y0651649D01*
X0586670D01*
X0587670Y0650649D01*
Y0649649D01*
X0583671D01*
X0589669Y0651649D02*
Y0647650D01*
Y0649649D01*
X0590669Y0650649D01*
X0591668Y0651649D01*
X0592668D01*
X0520691Y0641648D02*
Y0635650D01*
X0523690D01*
X0524690Y0636650D01*
Y0637649D01*
X0523690Y0638649D01*
X0520691D01*
X0523690D01*
X0524690Y0639649D01*
Y0640648D01*
X0523690Y0641648D01*
X0520691D01*
X0527689Y0635650D02*
X0529688D01*
X0530688Y0636650D01*
Y0638649D01*
X0529688Y0639649D01*
X0527689D01*
X0526689Y0638649D01*
Y0636650D01*
X0527689Y0635650D01*
X0533687Y0640648D02*
Y0639649D01*
X0532687D01*
X0534687D01*
X0533687D01*
Y0636650D01*
X0534687Y0635650D01*
X0538686Y0640648D02*
Y0639649D01*
X0537686D01*
X0539685D01*
X0538686D01*
Y0636650D01*
X0539685Y0635650D01*
X0543684D02*
X0545683D01*
X0546683Y0636650D01*
Y0638649D01*
X0545683Y0639649D01*
X0543684D01*
X0542684Y0638649D01*
Y0636650D01*
X0543684Y0635650D01*
X0548682D02*
Y0639649D01*
X0549682D01*
X0550682Y0638649D01*
Y0635650D01*
Y0638649D01*
X0551681Y0639649D01*
X0552681Y0638649D01*
Y0635650D01*
X0563677Y0641648D02*
X0561678D01*
X0560678Y0640648D01*
Y0636650D01*
X0561678Y0635650D01*
X0563677D01*
X0564677Y0636650D01*
Y0640648D01*
X0563677Y0641648D01*
X0566676Y0639649D02*
X0568676Y0635650D01*
X0570675Y0639649D01*
X0575673Y0635650D02*
X0573674D01*
X0572674Y0636650D01*
Y0638649D01*
X0573674Y0639649D01*
X0575673D01*
X0576673Y0638649D01*
Y0637649D01*
X0572674D01*
X0578673Y0639649D02*
Y0635650D01*
Y0637649D01*
X0579672Y0638649D01*
X0580672Y0639649D01*
X0581671D01*
X0584671Y0635650D02*
X0586670D01*
X0585670D01*
Y0641648D01*
X0584671D01*
X0590669Y0639649D02*
X0592668D01*
X0593668Y0638649D01*
Y0635650D01*
X0590669D01*
X0589669Y0636650D01*
X0590669Y0637649D01*
X0593668D01*
X0595667Y0639649D02*
Y0636650D01*
X0596667Y0635650D01*
X0599666D01*
Y0634650D01*
X0598666Y0633651D01*
X0597666D01*
X0599666Y0635650D02*
Y0639649D01*
X0520691Y0767650D02*
Y0773648D01*
X0524690Y0767650D01*
Y0773648D01*
X0527689Y0771649D02*
X0529688D01*
X0530688Y0770649D01*
Y0767650D01*
X0527689D01*
X0526689Y0768650D01*
X0527689Y0769649D01*
X0530688D01*
X0532687Y0767650D02*
Y0771649D01*
X0533687D01*
X0534687Y0770649D01*
Y0767650D01*
Y0770649D01*
X0535686Y0771649D01*
X0536686Y0770649D01*
Y0767650D01*
X0541684D02*
X0539685D01*
X0538686Y0768650D01*
Y0770649D01*
X0539685Y0771649D01*
X0541684D01*
X0542684Y0770649D01*
Y0769649D01*
X0538686D01*
X0479700Y0755650D02*
X0481699D01*
X0480700D01*
Y0761648D01*
X0479700Y0760648D01*
X0483699Y0743650D02*
X0479700D01*
X0483699Y0747649D01*
Y0748648D01*
X0482699Y0749648D01*
X0480700D01*
X0479700Y0748648D01*
Y0736648D02*
X0480700Y0737648D01*
X0482699D01*
X0483699Y0736648D01*
Y0735649D01*
X0482699Y0734649D01*
X0481699D01*
X0482699D01*
X0483699Y0733649D01*
Y0732650D01*
X0482699Y0731650D01*
X0480700D01*
X0479700Y0732650D01*
X0482699Y0719650D02*
Y0725648D01*
X0479700Y0722649D01*
X0483699D01*
Y0713648D02*
X0479700D01*
Y0710649D01*
X0481699Y0711649D01*
X0482699D01*
X0483699Y0710649D01*
Y0708650D01*
X0482699Y0707650D01*
X0480700D01*
X0479700Y0708650D01*
X0483699Y0701648D02*
X0481699Y0700648D01*
X0479700Y0698649D01*
Y0696650D01*
X0480700Y0695650D01*
X0482699D01*
X0483699Y0696650D01*
Y0697649D01*
X0482699Y0698649D01*
X0479700D01*
Y0689648D02*
X0483699D01*
Y0688648D01*
X0479700Y0684650D01*
Y0683650D01*
Y0676648D02*
X0480700Y0677648D01*
X0482699D01*
X0483699Y0676648D01*
Y0675649D01*
X0482699Y0674649D01*
X0483699Y0673649D01*
Y0672650D01*
X0482699Y0671650D01*
X0480700D01*
X0479700Y0672650D01*
Y0673649D01*
X0480700Y0674649D01*
X0479700Y0675649D01*
Y0676648D01*
X0480700Y0674649D02*
X0482699D01*
X0479700Y0660650D02*
X0480700Y0659650D01*
X0482699D01*
X0483699Y0660650D01*
Y0664648D01*
X0482699Y0665648D01*
X0480700D01*
X0479700Y0664648D01*
Y0663649D01*
X0480700Y0662649D01*
X0483699D01*
X0479700Y0647650D02*
X0481699D01*
X0480700D01*
Y0653648D01*
X0479700Y0652648D01*
X0484698D02*
X0485698Y0653648D01*
X0487697D01*
X0488697Y0652648D01*
Y0648650D01*
X0487697Y0647650D01*
X0485698D01*
X0484698Y0648650D01*
Y0652648D01*
X0479700Y0635650D02*
X0481699D01*
X0480700D01*
Y0641648D01*
X0479700Y0640648D01*
X0484698Y0635650D02*
X0486698D01*
X0485698D01*
Y0641648D01*
X0484698Y0640648D01*
X0479700Y0773648D02*
Y0767650D01*
X0483699D01*
X0486698Y0771649D02*
X0488697D01*
X0489697Y0770649D01*
Y0767650D01*
X0486698D01*
X0485698Y0768650D01*
X0486698Y0769649D01*
X0489697D01*
X0491696Y0771649D02*
Y0768650D01*
X0492696Y0767650D01*
X0495695D01*
Y0766650D01*
X0494695Y0765651D01*
X0493695D01*
X0495695Y0767650D02*
Y0771649D01*
X0500693Y0767650D02*
X0498694D01*
X0497694Y0768650D01*
Y0770649D01*
X0498694Y0771649D01*
X0500693D01*
X0501693Y0770649D01*
Y0769649D01*
X0497694D01*
X0503692Y0771649D02*
Y0767650D01*
Y0769649D01*
X0504692Y0770649D01*
X0505692Y0771649D01*
X0506691D01*
X0497200Y0080717D02*
Y0101050D01*
X0413200Y0080717D02*
Y0101050D01*
X0040000Y0080717D02*
X0700200D01*
X0040000Y0060383D02*
X0700000D01*
X0040000Y0040050D02*
X0440500D01*
X0040050Y0101050D02*
X0700200D01*
X0040050Y0040050D02*
Y0101050D01*
Y0040050D02*
X0197600D01*
X0040000D02*
Y0101050D01*
X0286500Y0040050D02*
Y0101050D01*
X0700200Y0040050D02*
Y0101050D01*
X0440500Y0040050D02*
X0700200D01*
X0559400Y0039400D02*
Y0059683D01*
G54D11*
X0126900Y0067551D02*
Y0073549D01*
X0128899Y0071549D01*
X0130899Y0073549D01*
Y0067551D01*
X0132898D02*
X0134897D01*
X0133898D01*
Y0073549D01*
X0132898Y0072549D01*
X0141895Y0067551D02*
X0137896D01*
X0141895Y0071549D01*
Y0072549D01*
X0140895Y0073549D01*
X0138896D01*
X0137896Y0072549D01*
X0153891D02*
X0152892Y0073549D01*
X0150892D01*
X0149893Y0072549D01*
Y0071549D01*
X0150892Y0070550D01*
X0152892D01*
X0153891Y0069550D01*
Y0068550D01*
X0152892Y0067551D01*
X0150892D01*
X0149893Y0068550D01*
X0156890Y0072549D02*
Y0071549D01*
X0155891D01*
X0157890D01*
X0156890D01*
Y0068550D01*
X0157890Y0067551D01*
X0161889Y0071549D02*
X0163888D01*
X0164888Y0070550D01*
Y0067551D01*
X0161889D01*
X0160889Y0068550D01*
X0161889Y0069550D01*
X0164888D01*
X0170886Y0071549D02*
X0167887D01*
X0166887Y0070550D01*
Y0068550D01*
X0167887Y0067551D01*
X0170886D01*
X0172885D02*
Y0073549D01*
Y0069550D02*
X0175884Y0071549D01*
X0172885Y0069550D02*
X0175884Y0067551D01*
X0178883Y0071549D02*
Y0068550D01*
X0179883Y0067551D01*
X0182882D01*
Y0071549D01*
X0184881Y0065551D02*
Y0071549D01*
X0187880D01*
X0188880Y0070550D01*
Y0068550D01*
X0187880Y0067551D01*
X0184881D01*
X0567400Y0087833D02*
Y0093831D01*
X0571399Y0087833D01*
Y0093831D01*
X0574398Y0087833D02*
X0576397D01*
X0577397Y0088833D01*
Y0090832D01*
X0576397Y0091832D01*
X0574398D01*
X0573398Y0090832D01*
Y0088833D01*
X0574398Y0087833D01*
X0580396Y0092832D02*
Y0091832D01*
X0579396D01*
X0581395D01*
X0580396D01*
Y0088833D01*
X0581395Y0087833D01*
X0590393Y0093831D02*
X0592392D01*
X0591392D01*
Y0087833D01*
X0590393D01*
X0592392D01*
X0595391D02*
Y0091832D01*
X0598390D01*
X0599390Y0090832D01*
Y0087833D01*
X0607387Y0093831D02*
Y0089833D01*
X0609386Y0087833D01*
X0611386Y0089833D01*
Y0093831D01*
X0616384Y0087833D02*
X0614385D01*
X0613385Y0088833D01*
Y0090832D01*
X0614385Y0091832D01*
X0616384D01*
X0617384Y0090832D01*
Y0089833D01*
X0613385D01*
X0619383Y0091832D02*
Y0087833D01*
Y0089833D01*
X0620383Y0090832D01*
X0621383Y0091832D01*
X0622382D01*
X0625381Y0087833D02*
X0628380D01*
X0629380Y0088833D01*
X0628380Y0089833D01*
X0626381D01*
X0625381Y0090832D01*
X0626381Y0091832D01*
X0629380D01*
X0631379Y0087833D02*
X0633379D01*
X0632379D01*
Y0091832D01*
X0631379D01*
X0637377Y0087833D02*
X0639377D01*
X0640376Y0088833D01*
Y0090832D01*
X0639377Y0091832D01*
X0637377D01*
X0636378Y0090832D01*
Y0088833D01*
X0637377Y0087833D01*
X0642376D02*
Y0091832D01*
X0645375D01*
X0646374Y0090832D01*
Y0087833D01*
X0652373Y0092832D02*
X0651373Y0093831D01*
X0649373D01*
X0648374Y0092832D01*
Y0088833D01*
X0649373Y0087833D01*
X0651373D01*
X0652373Y0088833D01*
X0655372Y0087833D02*
X0657371D01*
X0658371Y0088833D01*
Y0090832D01*
X0657371Y0091832D01*
X0655372D01*
X0654372Y0090832D01*
Y0088833D01*
X0655372Y0087833D01*
X0660370D02*
Y0091832D01*
X0663369D01*
X0664369Y0090832D01*
Y0087833D01*
X0667368Y0092832D02*
Y0091832D01*
X0666368D01*
X0668367D01*
X0667368D01*
Y0088833D01*
X0668367Y0087833D01*
X0671366Y0091832D02*
Y0087833D01*
Y0089833D01*
X0672366Y0090832D01*
X0673366Y0091832D01*
X0674365D01*
X0678364Y0087833D02*
X0680364D01*
X0681363Y0088833D01*
Y0090832D01*
X0680364Y0091832D01*
X0678364D01*
X0677364Y0090832D01*
Y0088833D01*
X0678364Y0087833D01*
X0683362D02*
X0685362D01*
X0684362D01*
Y0093831D01*
X0683362D01*
X0520799Y0092832D02*
X0519799Y0093831D01*
X0517800D01*
X0516800Y0092832D01*
Y0091832D01*
X0517800Y0090832D01*
X0519799D01*
X0520799Y0089833D01*
Y0088833D01*
X0519799Y0087833D01*
X0517800D01*
X0516800Y0088833D01*
X0522798Y0093831D02*
Y0089833D01*
X0524797Y0087833D01*
X0526797Y0089833D01*
Y0093831D01*
X0528796Y0087833D02*
Y0093831D01*
X0532795Y0087833D01*
Y0093831D01*
X0540792Y0087833D02*
Y0093831D01*
X0543791D01*
X0544791Y0092832D01*
Y0090832D01*
X0543791Y0089833D01*
X0540792D01*
X0542792D02*
X0544791Y0087833D01*
X0550789Y0093831D02*
X0546790D01*
Y0087833D01*
X0550789D01*
X0546790Y0090832D02*
X0548790D01*
X0552788Y0093831D02*
Y0089833D01*
X0554788Y0087833D01*
X0556787Y0089833D01*
Y0093831D01*
X0558786Y0091832D02*
X0559786D01*
Y0090832D01*
X0558786D01*
Y0091832D01*
Y0088833D02*
X0559786D01*
Y0087833D01*
X0558786D01*
Y0088833D01*
X0433000Y0087833D02*
Y0093831D01*
X0435999D01*
X0436999Y0092832D01*
Y0090832D01*
X0435999Y0089833D01*
X0433000D01*
X0434999D02*
X0436999Y0087833D01*
X0442997Y0093831D02*
X0438998D01*
Y0087833D01*
X0442997D01*
X0438998Y0090832D02*
X0440997D01*
X0444996Y0093831D02*
Y0089833D01*
X0446995Y0087833D01*
X0448995Y0089833D01*
Y0093831D01*
X0450994Y0091832D02*
X0451994D01*
Y0090832D01*
X0450994D01*
Y0091832D01*
Y0088833D02*
X0451994D01*
Y0087833D01*
X0450994D01*
Y0088833D01*
X0126900Y0046966D02*
Y0052965D01*
X0128899Y0050965D01*
X0130899Y0052965D01*
Y0046966D01*
X0136897Y0051965D02*
X0135897Y0052965D01*
X0133898D01*
X0132898Y0051965D01*
Y0047966D01*
X0133898Y0046966D01*
X0135897D01*
X0136897Y0047966D01*
X0138896Y0052965D02*
Y0047966D01*
X0139896Y0046966D01*
X0141895D01*
X0142895Y0047966D01*
Y0052965D01*
X0144894Y0051965D02*
X0145894Y0052965D01*
X0147893D01*
X0148893Y0051965D01*
Y0047966D01*
X0147893Y0046966D01*
X0145894D01*
X0144894Y0047966D01*
Y0051965D01*
X0154891Y0052965D02*
X0150892D01*
Y0049966D01*
X0152892Y0050965D01*
X0153891D01*
X0154891Y0049966D01*
Y0047966D01*
X0153891Y0046966D01*
X0151892D01*
X0150892Y0047966D01*
X0160889Y0046966D02*
X0156890D01*
X0160889Y0050965D01*
Y0051965D01*
X0159889Y0052965D01*
X0157890D01*
X0156890Y0051965D01*
X0162888Y0046966D02*
Y0050965D01*
X0164888Y0052965D01*
X0166887Y0050965D01*
Y0046966D01*
Y0049966D01*
X0162888D01*
X0168886Y0046966D02*
Y0047966D01*
X0169886D01*
Y0046966D01*
X0168886D01*
X0177884Y0051965D02*
X0176884Y0052965D01*
X0174884D01*
X0173885Y0051965D01*
Y0047966D01*
X0174884Y0046966D01*
X0176884D01*
X0177884Y0047966D01*
Y0049966D01*
X0175884D01*
X0179883Y0046966D02*
Y0052965D01*
X0181882Y0050965D01*
X0183882Y0052965D01*
Y0046966D01*
X0185881D02*
X0187880D01*
X0186881D01*
Y0052965D01*
X0185881Y0051965D01*
X0194878Y0046966D02*
X0190879D01*
X0194878Y0050965D01*
Y0051965D01*
X0193878Y0052965D01*
X0191879D01*
X0190879Y0051965D01*
X0385149Y0052965D02*
X0383149Y0051965D01*
X0381150Y0049966D01*
Y0047966D01*
X0382150Y0046966D01*
X0384149D01*
X0385149Y0047966D01*
Y0048966D01*
X0384149Y0049966D01*
X0381150D01*
X0387148Y0046966D02*
X0391147Y0050965D01*
X0397145Y0046966D02*
X0393146D01*
X0397145Y0050965D01*
Y0051965D01*
X0396145Y0052965D01*
X0394146D01*
X0393146Y0051965D01*
X0399144Y0047966D02*
X0400144Y0046966D01*
X0402143D01*
X0403143Y0047966D01*
Y0051965D01*
X0402143Y0052965D01*
X0400144D01*
X0399144Y0051965D01*
Y0050965D01*
X0400144Y0049966D01*
X0403143D01*
X0405142Y0046966D02*
X0409141Y0050965D01*
X0415139Y0046966D02*
X0411140D01*
X0415139Y0050965D01*
Y0051965D01*
X0414139Y0052965D01*
X0412140D01*
X0411140Y0051965D01*
X0417138D02*
X0418138Y0052965D01*
X0420137D01*
X0421137Y0051965D01*
Y0047966D01*
X0420137Y0046966D01*
X0418138D01*
X0417138Y0047966D01*
Y0051965D01*
X0423136Y0046966D02*
X0425136D01*
X0424136D01*
Y0052965D01*
X0423136Y0051965D01*
X0428135D02*
X0429135Y0052965D01*
X0431134D01*
X0432133Y0051965D01*
Y0050965D01*
X0431134Y0049966D01*
X0432133Y0048966D01*
Y0047966D01*
X0431134Y0046966D01*
X0429135D01*
X0428135Y0047966D01*
Y0048966D01*
X0429135Y0049966D01*
X0428135Y0050965D01*
Y0051965D01*
X0429135Y0049966D02*
X0431134D01*
X0298199Y0051965D02*
X0297199Y0052965D01*
X0295200D01*
X0294200Y0051965D01*
Y0047966D01*
X0295200Y0046966D01*
X0297199D01*
X0298199Y0047966D01*
Y0049966D01*
X0296199D01*
X0304197Y0052965D02*
X0300198D01*
Y0046966D01*
X0304197D01*
X0300198Y0049966D02*
X0302197D01*
X0306196Y0046966D02*
Y0052965D01*
X0310195Y0046966D01*
Y0052965D01*
X0316193D02*
X0312194D01*
Y0046966D01*
X0316193D01*
X0312194Y0049966D02*
X0314194D01*
X0318192Y0046966D02*
Y0052965D01*
X0321191D01*
X0322191Y0051965D01*
Y0049966D01*
X0321191Y0048966D01*
X0318192D01*
X0320192D02*
X0322191Y0046966D01*
X0324190D02*
Y0050965D01*
X0326190Y0052965D01*
X0328189Y0050965D01*
Y0046966D01*
Y0049966D01*
X0324190D01*
X0330188Y0052965D02*
X0334187D01*
X0332188D01*
Y0046966D01*
X0340185Y0052965D02*
X0336186D01*
Y0046966D01*
X0340185D01*
X0336186Y0049966D02*
X0338186D01*
X0342184Y0052965D02*
Y0046966D01*
X0345183D01*
X0346183Y0047966D01*
Y0051965D01*
X0345183Y0052965D01*
X0342184D01*
X0372175Y0050965D02*
X0373175D01*
Y0049966D01*
X0372175D01*
Y0050965D01*
Y0047966D02*
X0373175D01*
Y0046966D01*
X0372175D01*
Y0047966D01*
X0046350Y0087833D02*
Y0091832D01*
X0048349Y0093831D01*
X0050349Y0091832D01*
Y0087833D01*
Y0090832D01*
X0046350D01*
X0052348Y0093831D02*
Y0087833D01*
X0056347D01*
X0058346Y0093831D02*
Y0087833D01*
X0062345D01*
X0070342D02*
Y0091832D01*
X0072342Y0093831D01*
X0074341Y0091832D01*
Y0087833D01*
Y0090832D01*
X0070342D01*
X0076340Y0087833D02*
Y0093831D01*
X0079339D01*
X0080339Y0092832D01*
Y0090832D01*
X0079339Y0089833D01*
X0076340D01*
X0078340D02*
X0080339Y0087833D01*
X0082338Y0093831D02*
X0086337D01*
X0084338D01*
Y0087833D01*
X0088336Y0093831D02*
Y0087833D01*
X0090336Y0089833D01*
X0092335Y0087833D01*
Y0093831D01*
X0097334D02*
X0095334D01*
X0094335Y0092832D01*
Y0088833D01*
X0095334Y0087833D01*
X0097334D01*
X0098333Y0088833D01*
Y0092832D01*
X0097334Y0093831D01*
X0100332Y0087833D02*
Y0093831D01*
X0103332D01*
X0104331Y0092832D01*
Y0090832D01*
X0103332Y0089833D01*
X0100332D01*
X0102332D02*
X0104331Y0087833D01*
X0106331Y0093831D02*
Y0087833D01*
Y0089833D01*
X0110329Y0093831D01*
X0107330Y0090832D01*
X0110329Y0087833D01*
X0118327Y0093831D02*
Y0089833D01*
X0120326Y0087833D01*
X0122325Y0089833D01*
Y0093831D01*
X0124325D02*
X0126324D01*
X0125324D01*
Y0087833D01*
X0124325D01*
X0126324D01*
X0133322Y0093831D02*
X0129323D01*
Y0087833D01*
X0133322D01*
X0129323Y0090832D02*
X0131323D01*
X0135321Y0093831D02*
Y0087833D01*
X0137321Y0089833D01*
X0139320Y0087833D01*
Y0093831D01*
X0145318D02*
X0141319D01*
Y0087833D01*
X0145318D01*
X0141319Y0090832D02*
X0143319D01*
X0147317Y0093831D02*
Y0087833D01*
X0150316D01*
X0151316Y0088833D01*
Y0092832D01*
X0150316Y0093831D01*
X0147317D01*
X0163312D02*
X0159313D01*
Y0090832D01*
X0161313D01*
X0159313D01*
Y0087833D01*
X0165312D02*
Y0093831D01*
X0168310D01*
X0169310Y0092832D01*
Y0090832D01*
X0168310Y0089833D01*
X0165312D01*
X0167311D02*
X0169310Y0087833D01*
X0174309Y0093831D02*
X0172309D01*
X0171310Y0092832D01*
Y0088833D01*
X0172309Y0087833D01*
X0174309D01*
X0175308Y0088833D01*
Y0092832D01*
X0174309Y0093831D01*
X0177308Y0087833D02*
Y0093831D01*
X0179307Y0091832D01*
X0181306Y0093831D01*
Y0087833D01*
X0189304Y0093831D02*
X0193303D01*
X0191303D01*
Y0087833D01*
X0198301Y0093831D02*
X0196301D01*
X0195302Y0092832D01*
Y0088833D01*
X0196301Y0087833D01*
X0198301D01*
X0199301Y0088833D01*
Y0092832D01*
X0198301Y0093831D01*
X0201300Y0087833D02*
Y0093831D01*
X0204299D01*
X0205299Y0092832D01*
Y0090832D01*
X0204299Y0089833D01*
X0201300D01*
X0217295Y0092832D02*
X0216295Y0093831D01*
X0214296D01*
X0213296Y0092832D01*
Y0091832D01*
X0214296Y0090832D01*
X0216295D01*
X0217295Y0089833D01*
Y0088833D01*
X0216295Y0087833D01*
X0214296D01*
X0213296Y0088833D01*
X0219294Y0093831D02*
X0221293D01*
X0220294D01*
Y0087833D01*
X0219294D01*
X0221293D01*
X0224292Y0093831D02*
Y0087833D01*
X0227291D01*
X0228291Y0088833D01*
Y0092832D01*
X0227291Y0093831D01*
X0224292D01*
X0234289D02*
X0230291D01*
Y0087833D01*
X0234289D01*
X0230291Y0090832D02*
X0232290D01*
X0462150Y0087833D02*
Y0091832D01*
X0464149Y0093831D01*
X0466149Y0091832D01*
Y0087833D01*
Y0090832D01*
X0462150D01*
X0348550Y0087833D02*
Y0093831D01*
X0350549Y0091832D01*
X0352549Y0093831D01*
Y0087833D01*
X0358547Y0092832D02*
X0357547Y0093831D01*
X0355548D01*
X0354548Y0092832D01*
Y0088833D01*
X0355548Y0087833D01*
X0357547D01*
X0358547Y0088833D01*
X0360546Y0093831D02*
Y0088833D01*
X0361546Y0087833D01*
X0363545D01*
X0364545Y0088833D01*
Y0093831D01*
X0366544Y0092832D02*
X0367544Y0093831D01*
X0369543D01*
X0370543Y0092832D01*
Y0088833D01*
X0369543Y0087833D01*
X0367544D01*
X0366544Y0088833D01*
Y0092832D01*
X0376541Y0093831D02*
X0372542D01*
Y0090832D01*
X0374542Y0091832D01*
X0375541D01*
X0376541Y0090832D01*
Y0088833D01*
X0375541Y0087833D01*
X0373542D01*
X0372542Y0088833D01*
X0382539Y0087833D02*
X0378540D01*
X0382539Y0091832D01*
Y0092832D01*
X0381539Y0093831D01*
X0379540D01*
X0378540Y0092832D01*
X0294000Y0093831D02*
Y0087833D01*
X0296999D01*
X0297999Y0088833D01*
Y0089833D01*
X0296999Y0090832D01*
X0294000D01*
X0296999D01*
X0297999Y0091832D01*
Y0092832D01*
X0296999Y0093831D01*
X0294000D01*
X0302997D02*
X0300998D01*
X0299998Y0092832D01*
Y0088833D01*
X0300998Y0087833D01*
X0302997D01*
X0303997Y0088833D01*
Y0092832D01*
X0302997Y0093831D01*
X0305996Y0087833D02*
Y0091832D01*
X0307996Y0093831D01*
X0309995Y0091832D01*
Y0087833D01*
Y0090832D01*
X0305996D01*
X0311994Y0087833D02*
Y0093831D01*
X0314993D01*
X0315993Y0092832D01*
Y0090832D01*
X0314993Y0089833D01*
X0311994D01*
X0313994D02*
X0315993Y0087833D01*
X0317992Y0093831D02*
Y0087833D01*
X0320991D01*
X0321991Y0088833D01*
Y0092832D01*
X0320991Y0093831D01*
X0317992D01*
X0330988Y0087833D02*
Y0093831D01*
X0332987D02*
Y0087833D01*
X0329988Y0091832D02*
X0332987D01*
X0333987D01*
X0329988Y0089833D02*
X0333987D01*
X0335986Y0091832D02*
X0336986D01*
Y0090832D01*
X0335986D01*
Y0091832D01*
Y0088833D02*
X0336986D01*
Y0087833D01*
X0335986D01*
Y0088833D01*
X0046350Y0073549D02*
Y0067551D01*
X0050349D01*
X0052348D02*
Y0071549D01*
X0054347Y0073549D01*
X0056347Y0071549D01*
Y0067551D01*
Y0070550D01*
X0052348D01*
X0058346Y0073549D02*
Y0072549D01*
X0060346Y0070550D01*
X0062345Y0072549D01*
Y0073549D01*
X0060346Y0070550D02*
Y0067551D01*
X0068343Y0073549D02*
X0064344D01*
Y0067551D01*
X0068343D01*
X0064344Y0070550D02*
X0066343D01*
X0070342Y0067551D02*
Y0073549D01*
X0073341D01*
X0074341Y0072549D01*
Y0070550D01*
X0073341Y0069550D01*
X0070342D01*
X0072342D02*
X0074341Y0067551D01*
X0082338D02*
Y0073549D01*
X0086337Y0067551D01*
Y0073549D01*
X0088336Y0067551D02*
Y0071549D01*
X0090336Y0073549D01*
X0092335Y0071549D01*
Y0067551D01*
Y0070550D01*
X0088336D01*
X0094335Y0067551D02*
Y0073549D01*
X0096334Y0071549D01*
X0098333Y0073549D01*
Y0067551D01*
X0104331Y0073549D02*
X0100332D01*
Y0067551D01*
X0104331D01*
X0100332Y0070550D02*
X0102332D01*
X0112329Y0069550D02*
X0116327D01*
X0112329Y0071549D02*
X0116327D01*
X0046350Y0046966D02*
Y0052965D01*
X0049349D01*
X0050349Y0051965D01*
Y0049966D01*
X0049349Y0048966D01*
X0046350D01*
X0052348Y0052965D02*
Y0046966D01*
X0056347D01*
X0061345Y0052965D02*
X0059346D01*
X0058346Y0051965D01*
Y0047966D01*
X0059346Y0046966D01*
X0061345D01*
X0062345Y0047966D01*
Y0051965D01*
X0061345Y0052965D01*
X0064344D02*
X0068343D01*
X0066343D01*
Y0046966D01*
X0076340D02*
Y0052965D01*
X0080339Y0046966D01*
Y0052965D01*
X0082338Y0046966D02*
Y0050965D01*
X0084338Y0052965D01*
X0086337Y0050965D01*
Y0046966D01*
Y0049966D01*
X0082338D01*
X0088336Y0046966D02*
Y0052965D01*
X0090336Y0050965D01*
X0092335Y0052965D01*
Y0046966D01*
X0098333Y0052965D02*
X0094335D01*
Y0046966D01*
X0098333D01*
X0094335Y0049966D02*
X0096334D01*
X0106331Y0048966D02*
X0110329D01*
X0106331Y0050965D02*
X0110329D01*
X0454050Y0046966D02*
X0456049D01*
X0455050D01*
Y0052965D01*
X0454050Y0051965D01*
X0459048Y0050965D02*
X0460048D01*
Y0049966D01*
X0459048D01*
Y0050965D01*
Y0047966D02*
X0460048D01*
Y0046966D01*
X0459048D01*
Y0047966D01*
X0464047Y0051965D02*
X0465046Y0052965D01*
X0467046D01*
X0468046Y0051965D01*
Y0050965D01*
X0467046Y0049966D01*
X0466046D01*
X0467046D01*
X0468046Y0048966D01*
Y0047966D01*
X0467046Y0046966D01*
X0465046D01*
X0464047Y0047966D01*
X0470045Y0051965D02*
X0471044Y0052965D01*
X0473044D01*
X0474044Y0051965D01*
Y0050965D01*
X0473044Y0049966D01*
X0472044D01*
X0473044D01*
X0474044Y0048966D01*
Y0047966D01*
X0473044Y0046966D01*
X0471044D01*
X0470045Y0047966D01*
X0476043Y0050965D02*
X0477043D01*
Y0049966D01*
X0476043D01*
Y0050965D01*
Y0047966D02*
X0477043D01*
Y0046966D01*
X0476043D01*
Y0047966D01*
X0485040Y0046966D02*
X0481041D01*
X0485040Y0050965D01*
Y0051965D01*
X0484040Y0052965D01*
X0482041D01*
X0481041Y0051965D01*
X0487039D02*
X0488039Y0052965D01*
X0490038D01*
X0491038Y0051965D01*
Y0050965D01*
X0490038Y0049966D01*
X0491038Y0048966D01*
Y0047966D01*
X0490038Y0046966D01*
X0488039D01*
X0487039Y0047966D01*
Y0048966D01*
X0488039Y0049966D01*
X0487039Y0050965D01*
Y0051965D01*
X0488039Y0049966D02*
X0490038D01*
X0499035Y0046966D02*
Y0052965D01*
X0502035D01*
X0503034Y0051965D01*
Y0049966D01*
X0502035Y0048966D01*
X0499035D01*
X0505033Y0046966D02*
Y0052965D01*
X0507033Y0050965D01*
X0509032Y0052965D01*
Y0046966D01*
X0580500Y0052965D02*
X0584499D01*
X0582499D01*
Y0046966D01*
X0590497Y0052965D02*
X0586498D01*
Y0046966D01*
X0590497D01*
X0586498Y0049966D02*
X0588497D01*
X0592496Y0052965D02*
X0596495Y0046966D01*
Y0052965D02*
X0592496Y0046966D01*
X0598494D02*
Y0050965D01*
X0600493Y0052965D01*
X0602493Y0050965D01*
Y0046966D01*
Y0049966D01*
X0598494D01*
X0608491Y0051965D02*
X0607491Y0052965D01*
X0605492D01*
X0604492Y0051965D01*
Y0050965D01*
X0605492Y0049966D01*
X0607491D01*
X0608491Y0048966D01*
Y0047966D01*
X0607491Y0046966D01*
X0605492D01*
X0604492Y0047966D01*
X0616488Y0052965D02*
X0618488D01*
X0617488D01*
Y0046966D01*
X0616488D01*
X0618488D01*
X0621487D02*
Y0052965D01*
X0625486Y0046966D01*
Y0052965D01*
X0631484Y0051965D02*
X0630484Y0052965D01*
X0628484D01*
X0627485Y0051965D01*
Y0050965D01*
X0628484Y0049966D01*
X0630484D01*
X0631484Y0048966D01*
Y0047966D01*
X0630484Y0046966D01*
X0628484D01*
X0627485Y0047966D01*
X0633483Y0052965D02*
X0637482D01*
X0635482D01*
Y0046966D01*
X0639481D02*
Y0052965D01*
X0642480D01*
X0643480Y0051965D01*
Y0049966D01*
X0642480Y0048966D01*
X0639481D01*
X0641480D02*
X0643480Y0046966D01*
X0645479Y0052965D02*
Y0047966D01*
X0646479Y0046966D01*
X0648478D01*
X0649478Y0047966D01*
Y0052965D01*
X0651477Y0046966D02*
Y0052965D01*
X0653476Y0050965D01*
X0655476Y0052965D01*
Y0046966D01*
X0661474Y0052965D02*
X0657475D01*
Y0046966D01*
X0661474D01*
X0657475Y0049966D02*
X0659474D01*
X0663473Y0046966D02*
Y0052965D01*
X0667472Y0046966D01*
Y0052965D01*
X0669471D02*
X0673470D01*
X0671471D01*
Y0046966D01*
X0679468Y0051965D02*
X0678468Y0052965D01*
X0676469D01*
X0675469Y0051965D01*
Y0050965D01*
X0676469Y0049966D01*
X0678468D01*
X0679468Y0048966D01*
Y0047966D01*
X0678468Y0046966D01*
X0676469D01*
X0675469Y0047966D01*
X0294000Y0073498D02*
X0297999D01*
X0295999D01*
Y0067500D01*
X0299998Y0073498D02*
X0301997D01*
X0300998D01*
Y0067500D01*
X0299998D01*
X0301997D01*
X0304996Y0073498D02*
Y0067500D01*
X0307996D01*
X0308995Y0068500D01*
Y0072498D01*
X0307996Y0073498D01*
X0304996D01*
X0317992Y0067500D02*
Y0073498D01*
X0319992D02*
Y0067500D01*
X0316993Y0071499D02*
X0319992D01*
X0320991D01*
X0316993Y0069499D02*
X0320991D01*
X0322991Y0071499D02*
X0323990D01*
Y0070499D01*
X0322991D01*
Y0071499D01*
Y0068500D02*
X0323990D01*
Y0067500D01*
X0322991D01*
Y0068500D01*
X0348550Y0067500D02*
Y0073498D01*
X0352549Y0067500D01*
Y0073498D01*
X0354548Y0067500D02*
X0358547Y0071499D01*
X0360546Y0067500D02*
Y0071499D01*
X0362545Y0073498D01*
X0364545Y0071499D01*
Y0067500D01*
Y0070499D01*
X0360546D01*
G54D31*
X0927580Y0632650D02*
Y0776650D01*
X0815612Y0752650D02*
X0927580D01*
X0815612Y0740650D02*
X0927580D01*
X0815612Y0728650D02*
X0927580D01*
X0815612Y0716650D02*
X0927580D01*
X0815612Y0704650D02*
X0927580D01*
X0815612Y0692650D02*
X0927580D01*
X0815612Y0680650D02*
X0927580D01*
X0815612Y0668650D02*
X0927580D01*
X0815612Y0656650D02*
X0927580D01*
X0815612Y0644650D02*
X0927580D01*
X0815612Y0632650D02*
X0927580D01*
X0815612D02*
Y0776650D01*
X0758626Y0752650D02*
X0815612D01*
X0758626Y0740650D02*
X0815612D01*
X0758626Y0728650D02*
X0815612D01*
X0758626Y0716650D02*
X0815612D01*
X0758626Y0704650D02*
X0815612D01*
X0758626Y0692650D02*
X0815612D01*
X0758626Y0680650D02*
X0815612D01*
X0758626Y0668650D02*
X0815612D01*
X0758626Y0656650D02*
X0815612D01*
X0758626Y0644650D02*
X0815612D01*
X0758626Y0632650D02*
X0815612D01*
X0758626D02*
Y0776650D01*
X0693642Y0752650D02*
X0758626D01*
X0693642Y0740650D02*
X0758626D01*
X0693642Y0728650D02*
X0758626D01*
X0693642Y0716650D02*
X0758626D01*
X0693642Y0704650D02*
X0758626D01*
X0693642Y0692650D02*
X0758626D01*
X0693642Y0680650D02*
X0758626D01*
X0693642Y0668650D02*
X0758626D01*
X0693642Y0656650D02*
X0758626D01*
X0693642Y0644650D02*
X0758626D01*
X0693642Y0632650D02*
X0758626D01*
X0693642D02*
Y0776650D01*
X0607666Y0752650D02*
X0693642D01*
X0607666Y0740650D02*
X0693642D01*
X0607666Y0728650D02*
X0693642D01*
X0607666Y0716650D02*
X0693642D01*
X0607666Y0704650D02*
X0693642D01*
X0607666Y0692650D02*
X0693642D01*
X0607666Y0680650D02*
X0693642D01*
X0607666Y0668650D02*
X0693642D01*
X0607666Y0656650D02*
X0693642D01*
X0607666Y0644650D02*
X0693642D01*
X0607666Y0632650D02*
X0693642D01*
X0607666D02*
Y0776650D01*
X0514691Y0752650D02*
X0607666D01*
X0514691Y0740650D02*
X0607666D01*
X0514691Y0728650D02*
X0607666D01*
X0514691Y0716650D02*
X0607666D01*
X0514691Y0704650D02*
X0607666D01*
X0514691Y0692650D02*
X0607666D01*
X0514691Y0680650D02*
X0607666D01*
X0514691Y0668650D02*
X0607666D01*
X0514691Y0656650D02*
X0607666D01*
X0514691Y0644650D02*
X0607666D01*
X0514691Y0632650D02*
X0607666D01*
X0514691D02*
Y0776650D01*
X0473700Y0752650D02*
X0514691D01*
X0473700Y0740650D02*
X0514691D01*
X0473700Y0728650D02*
X0514691D01*
X0473700Y0716650D02*
X0514691D01*
X0473700Y0704650D02*
X0514691D01*
X0473700Y0692650D02*
X0514691D01*
X0473700Y0680650D02*
X0514691D01*
X0473700Y0668650D02*
X0514691D01*
X0473700Y0656650D02*
X0514691D01*
X0473700Y0644650D02*
X0514691D01*
X0473700Y0632650D02*
X0514691D01*
X0473700D02*
Y0776650D01*
X0927580D01*
X0473700Y0764650D02*
X0927580D01*
G54D63*
X0815612Y0760682D02*
X0819580Y0764650D01*
X0815612Y0754682D02*
X0825580Y0764650D01*
X0819580Y0752650D02*
X0831580Y0764650D01*
X0825580Y0752650D02*
X0837580Y0764650D01*
X0831580Y0752650D02*
X0843580Y0764650D01*
X0837580Y0752650D02*
X0849580Y0764650D01*
X0843580Y0752650D02*
X0855580Y0764650D01*
X0849580Y0752650D02*
X0861580Y0764650D01*
X0855580Y0752650D02*
X0867580Y0764650D01*
X0861580Y0752650D02*
X0873580Y0764650D01*
X0867580Y0752650D02*
X0879580Y0764650D01*
X0873580Y0752650D02*
X0885580Y0764650D01*
X0879580Y0752650D02*
X0891580Y0764650D01*
X0885580Y0752650D02*
X0897580Y0764650D01*
X0891580Y0752650D02*
X0903580Y0764650D01*
X0897580Y0752650D02*
X0909580Y0764650D01*
X0903580Y0752650D02*
X0915580Y0764650D01*
X0909580Y0752650D02*
X0921580Y0764650D01*
X0915580Y0752650D02*
X0927580Y0764650D01*
X0921580Y0752650D02*
X0927580Y0758650D01*
X0815612Y0748682D02*
X0819580Y0752650D01*
X0815612Y0742682D02*
X0825580Y0752650D01*
X0819580Y0740650D02*
X0831580Y0752650D01*
X0825580Y0740650D02*
X0837580Y0752650D01*
X0831580Y0740650D02*
X0843580Y0752650D01*
X0837580Y0740650D02*
X0849580Y0752650D01*
X0843580Y0740650D02*
X0855580Y0752650D01*
X0849580Y0740650D02*
X0861580Y0752650D01*
X0855580Y0740650D02*
X0867580Y0752650D01*
X0861580Y0740650D02*
X0873580Y0752650D01*
X0867580Y0740650D02*
X0879580Y0752650D01*
X0873580Y0740650D02*
X0885580Y0752650D01*
X0879580Y0740650D02*
X0891580Y0752650D01*
X0885580Y0740650D02*
X0897580Y0752650D01*
X0891580Y0740650D02*
X0903580Y0752650D01*
X0897580Y0740650D02*
X0909580Y0752650D01*
X0903580Y0740650D02*
X0915580Y0752650D01*
X0909580Y0740650D02*
X0921580Y0752650D01*
X0915580Y0740650D02*
X0927580Y0752650D01*
X0921580Y0740650D02*
X0927580Y0746650D01*
X0815612Y0736682D02*
X0819580Y0740650D01*
X0815612Y0730682D02*
X0825580Y0740650D01*
X0819580Y0728650D02*
X0831580Y0740650D01*
X0825580Y0728650D02*
X0837580Y0740650D01*
X0831580Y0728650D02*
X0843580Y0740650D01*
X0837580Y0728650D02*
X0849580Y0740650D01*
X0843580Y0728650D02*
X0855580Y0740650D01*
X0849580Y0728650D02*
X0861580Y0740650D01*
X0855580Y0728650D02*
X0867580Y0740650D01*
X0861580Y0728650D02*
X0873580Y0740650D01*
X0867580Y0728650D02*
X0879580Y0740650D01*
X0873580Y0728650D02*
X0885580Y0740650D01*
X0879580Y0728650D02*
X0891580Y0740650D01*
X0885580Y0728650D02*
X0897580Y0740650D01*
X0891580Y0728650D02*
X0903580Y0740650D01*
X0897580Y0728650D02*
X0909580Y0740650D01*
X0903580Y0728650D02*
X0915580Y0740650D01*
X0909580Y0728650D02*
X0921580Y0740650D01*
X0915580Y0728650D02*
X0927580Y0740650D01*
X0921580Y0728650D02*
X0927580Y0734650D01*
X0815612Y0724682D02*
X0819580Y0728650D01*
X0815612Y0718682D02*
X0825580Y0728650D01*
X0819580Y0716650D02*
X0831580Y0728650D01*
X0825580Y0716650D02*
X0837580Y0728650D01*
X0831580Y0716650D02*
X0843580Y0728650D01*
X0837580Y0716650D02*
X0849580Y0728650D01*
X0843580Y0716650D02*
X0855580Y0728650D01*
X0849580Y0716650D02*
X0861580Y0728650D01*
X0855580Y0716650D02*
X0867580Y0728650D01*
X0861580Y0716650D02*
X0873580Y0728650D01*
X0867580Y0716650D02*
X0879580Y0728650D01*
X0873580Y0716650D02*
X0885580Y0728650D01*
X0879580Y0716650D02*
X0891580Y0728650D01*
X0885580Y0716650D02*
X0897580Y0728650D01*
X0891580Y0716650D02*
X0903580Y0728650D01*
X0897580Y0716650D02*
X0909580Y0728650D01*
X0903580Y0716650D02*
X0915580Y0728650D01*
X0909580Y0716650D02*
X0921580Y0728650D01*
X0915580Y0716650D02*
X0927580Y0728650D01*
X0921580Y0716650D02*
X0927580Y0722650D01*
X0815612Y0712682D02*
X0819580Y0716650D01*
X0815612Y0706682D02*
X0825580Y0716650D01*
X0819580Y0704650D02*
X0831580Y0716650D01*
X0825580Y0704650D02*
X0837580Y0716650D01*
X0831580Y0704650D02*
X0843580Y0716650D01*
X0837580Y0704650D02*
X0849580Y0716650D01*
X0843580Y0704650D02*
X0855580Y0716650D01*
X0849580Y0704650D02*
X0861580Y0716650D01*
X0855580Y0704650D02*
X0867580Y0716650D01*
X0861580Y0704650D02*
X0873580Y0716650D01*
X0867580Y0704650D02*
X0879580Y0716650D01*
X0873580Y0704650D02*
X0885580Y0716650D01*
X0879580Y0704650D02*
X0891580Y0716650D01*
X0885580Y0704650D02*
X0897580Y0716650D01*
X0891580Y0704650D02*
X0903580Y0716650D01*
X0897580Y0704650D02*
X0909580Y0716650D01*
X0903580Y0704650D02*
X0915580Y0716650D01*
X0909580Y0704650D02*
X0921580Y0716650D01*
X0915580Y0704650D02*
X0927580Y0716650D01*
X0921580Y0704650D02*
X0927580Y0710650D01*
X0815612Y0700682D02*
X0819580Y0704650D01*
X0815612Y0694682D02*
X0825580Y0704650D01*
X0819580Y0692650D02*
X0831580Y0704650D01*
X0825580Y0692650D02*
X0837580Y0704650D01*
X0831580Y0692650D02*
X0843580Y0704650D01*
X0837580Y0692650D02*
X0849580Y0704650D01*
X0843580Y0692650D02*
X0855580Y0704650D01*
X0849580Y0692650D02*
X0861580Y0704650D01*
X0855580Y0692650D02*
X0867580Y0704650D01*
X0861580Y0692650D02*
X0873580Y0704650D01*
X0867580Y0692650D02*
X0879580Y0704650D01*
X0873580Y0692650D02*
X0885580Y0704650D01*
X0879580Y0692650D02*
X0891580Y0704650D01*
X0885580Y0692650D02*
X0897580Y0704650D01*
X0891580Y0692650D02*
X0903580Y0704650D01*
X0897580Y0692650D02*
X0909580Y0704650D01*
X0903580Y0692650D02*
X0915580Y0704650D01*
X0909580Y0692650D02*
X0921580Y0704650D01*
X0915580Y0692650D02*
X0927580Y0704650D01*
X0921580Y0692650D02*
X0927580Y0698650D01*
X0815612Y0688682D02*
X0819580Y0692650D01*
X0815612Y0682682D02*
X0825580Y0692650D01*
X0819580Y0680650D02*
X0831580Y0692650D01*
X0825580Y0680650D02*
X0837580Y0692650D01*
X0831580Y0680650D02*
X0843580Y0692650D01*
X0837580Y0680650D02*
X0849580Y0692650D01*
X0843580Y0680650D02*
X0855580Y0692650D01*
X0849580Y0680650D02*
X0861580Y0692650D01*
X0855580Y0680650D02*
X0867580Y0692650D01*
X0861580Y0680650D02*
X0873580Y0692650D01*
X0867580Y0680650D02*
X0879580Y0692650D01*
X0873580Y0680650D02*
X0885580Y0692650D01*
X0879580Y0680650D02*
X0891580Y0692650D01*
X0885580Y0680650D02*
X0897580Y0692650D01*
X0891580Y0680650D02*
X0903580Y0692650D01*
X0897580Y0680650D02*
X0909580Y0692650D01*
X0903580Y0680650D02*
X0915580Y0692650D01*
X0909580Y0680650D02*
X0921580Y0692650D01*
X0915580Y0680650D02*
X0927580Y0692650D01*
X0921580Y0680650D02*
X0927580Y0686650D01*
X0815612Y0676682D02*
X0819580Y0680650D01*
X0815612Y0670682D02*
X0825580Y0680650D01*
X0819580Y0668650D02*
X0831580Y0680650D01*
X0825580Y0668650D02*
X0837580Y0680650D01*
X0831580Y0668650D02*
X0843580Y0680650D01*
X0837580Y0668650D02*
X0849580Y0680650D01*
X0843580Y0668650D02*
X0855580Y0680650D01*
X0849580Y0668650D02*
X0861580Y0680650D01*
X0855580Y0668650D02*
X0867580Y0680650D01*
X0861580Y0668650D02*
X0873580Y0680650D01*
X0867580Y0668650D02*
X0879580Y0680650D01*
X0873580Y0668650D02*
X0885580Y0680650D01*
X0879580Y0668650D02*
X0891580Y0680650D01*
X0885580Y0668650D02*
X0897580Y0680650D01*
X0891580Y0668650D02*
X0903580Y0680650D01*
X0897580Y0668650D02*
X0909580Y0680650D01*
X0903580Y0668650D02*
X0915580Y0680650D01*
X0909580Y0668650D02*
X0921580Y0680650D01*
X0915580Y0668650D02*
X0927580Y0680650D01*
X0921580Y0668650D02*
X0927580Y0674650D01*
X0815612Y0664682D02*
X0819580Y0668650D01*
X0815612Y0658682D02*
X0825580Y0668650D01*
X0819580Y0656650D02*
X0831580Y0668650D01*
X0825580Y0656650D02*
X0837580Y0668650D01*
X0831580Y0656650D02*
X0843580Y0668650D01*
X0837580Y0656650D02*
X0849580Y0668650D01*
X0843580Y0656650D02*
X0855580Y0668650D01*
X0849580Y0656650D02*
X0861580Y0668650D01*
X0855580Y0656650D02*
X0867580Y0668650D01*
X0861580Y0656650D02*
X0873580Y0668650D01*
X0867580Y0656650D02*
X0879580Y0668650D01*
X0873580Y0656650D02*
X0885580Y0668650D01*
X0879580Y0656650D02*
X0891580Y0668650D01*
X0885580Y0656650D02*
X0897580Y0668650D01*
X0891580Y0656650D02*
X0903580Y0668650D01*
X0897580Y0656650D02*
X0909580Y0668650D01*
X0903580Y0656650D02*
X0915580Y0668650D01*
X0909580Y0656650D02*
X0921580Y0668650D01*
X0915580Y0656650D02*
X0927580Y0668650D01*
X0921580Y0656650D02*
X0927580Y0662650D01*
X0815612Y0652682D02*
X0819580Y0656650D01*
X0815612Y0646682D02*
X0825580Y0656650D01*
X0819580Y0644650D02*
X0831580Y0656650D01*
X0825580Y0644650D02*
X0837580Y0656650D01*
X0831580Y0644650D02*
X0843580Y0656650D01*
X0837580Y0644650D02*
X0849580Y0656650D01*
X0843580Y0644650D02*
X0855580Y0656650D01*
X0849580Y0644650D02*
X0861580Y0656650D01*
X0855580Y0644650D02*
X0867580Y0656650D01*
X0861580Y0644650D02*
X0873580Y0656650D01*
X0867580Y0644650D02*
X0879580Y0656650D01*
X0873580Y0644650D02*
X0885580Y0656650D01*
X0879580Y0644650D02*
X0891580Y0656650D01*
X0885580Y0644650D02*
X0897580Y0656650D01*
X0891580Y0644650D02*
X0903580Y0656650D01*
X0897580Y0644650D02*
X0909580Y0656650D01*
X0903580Y0644650D02*
X0915580Y0656650D01*
X0909580Y0644650D02*
X0921580Y0656650D01*
X0915580Y0644650D02*
X0927580Y0656650D01*
X0921580Y0644650D02*
X0927580Y0650650D01*
X0815612Y0640682D02*
X0819580Y0644650D01*
X0815612Y0634682D02*
X0825580Y0644650D01*
X0819580Y0632650D02*
X0831580Y0644650D01*
X0825580Y0632650D02*
X0837580Y0644650D01*
X0831580Y0632650D02*
X0843580Y0644650D01*
X0837580Y0632650D02*
X0849580Y0644650D01*
X0843580Y0632650D02*
X0855580Y0644650D01*
X0849580Y0632650D02*
X0861580Y0644650D01*
X0855580Y0632650D02*
X0867580Y0644650D01*
X0861580Y0632650D02*
X0873580Y0644650D01*
X0867580Y0632650D02*
X0879580Y0644650D01*
X0873580Y0632650D02*
X0885580Y0644650D01*
X0879580Y0632650D02*
X0891580Y0644650D01*
X0885580Y0632650D02*
X0897580Y0644650D01*
X0891580Y0632650D02*
X0903580Y0644650D01*
X0897580Y0632650D02*
X0909580Y0644650D01*
X0903580Y0632650D02*
X0915580Y0644650D01*
X0909580Y0632650D02*
X0921580Y0644650D01*
X0915580Y0632650D02*
X0927580Y0644650D01*
X0921580Y0632650D02*
X0927580Y0638650D01*
M02*
