*
*
G04 PADS 9.5 Build Number: 522968 generated Gerber (RS-274-X) file*
G04 PC Version=2.1*
*
%IN "LaunchPad-MSP430FR5969."*%
*
%MOIN*%
*
%FSLAX35Y35*%
*
*
*
*
G04 PC Standard Apertures*
*
*
G04 Thermal Relief Aperture macro.*
%AMTER*
1,1,$1,0,0*
1,0,$1-$2,0,0*
21,0,$3,$4,0,0,45*
21,0,$3,$4,0,0,135*
%
*
*
G04 Annular Aperture macro.*
%AMANN*
1,1,$1,0,0*
1,0,$2,0,0*
%
*
*
G04 Odd Aperture macro.*
%AMODD*
1,1,$1,0,0*
1,0,$1-0.005,0,0*
%
*
*
G04 PC Custom Aperture Macros*
*
*
*
*
*
*
G04 PC Aperture Table*
*
%ADD011C,0.012*%
%ADD012C,0.0125*%
%ADD013C,0.01*%
%ADD014C,0.02*%
%ADD015C,0.015*%
%ADD016C,0.005*%
%ADD018C,0.001*%
%ADD020C,0.008*%
%ADD021C,0.0011*%
%ADD022C,0.006*%
%ADD087C,0.0011*%
*
*
*
*
G04 PC Circuitry*
G04 Layer Name LaunchPad-MSP430FR5969. - circuitry*
%LPD*%
*
*
G04 PC Custom Flashes*
G04 Layer Name LaunchPad-MSP430FR5969. - flashes*
%LPD*%
*
*
G04 PC Circuitry*
G04 Layer Name LaunchPad-MSP430FR5969. - circuitry*
%LPD*%
*
G54D11*
G01X200000Y200000D02*
X430000D01*
Y564600*
X200000*
Y200000*
G54D12*
X665256Y116320D02*
Y108117D01*
X663267Y116320D02*
X667244D01*
X672074D02*
X669801Y108117D01*
X672074Y116320D02*
X674347Y108117D01*
X670653Y110852D02*
X673494D01*
G54D13*
X346125Y393755D02*
X340500D01*
X343313Y395800D02*
Y391709D01*
X215000Y555000D02*
G75*
G03X215000I-5000J0D01*
G01X425000D02*
G03X425000I-5000J0D01*
G01Y210000D02*
G03X425000I-5000J0D01*
G01X215000D02*
G03X215000I-5000J0D01*
G01X251000Y114563D02*
Y108000D01*
Y114563D02*
X252818Y108000D01*
X254636Y114563D02*
X252818Y108000D01*
X254636Y114563D02*
Y108000D01*
X259864Y113625D02*
X259409Y114250D01*
X258727Y114563*
X258727D02*
X257818D01*
X257818D02*
X257136Y114250D01*
X256682Y113625*
Y113000*
X256909Y112375*
X257136Y112063*
X257136D02*
X257591Y111750D01*
X258955Y111125*
X259409Y110813*
X259409D02*
X259636Y110500D01*
X259864Y109875*
Y108938*
X259864D02*
X259409Y108313D01*
X259409D02*
X258727Y108000D01*
X257818*
X257136Y108313*
X257136D02*
X256682Y108938D01*
X261909Y114563D02*
Y108000D01*
Y114563D02*
X263955D01*
X263955D02*
X264636Y114250D01*
X264864Y113938*
X264864D02*
X265091Y113313D01*
X265091D02*
Y112375D01*
X264864Y111750*
X264636Y111438*
X264636D02*
X263955Y111125D01*
X261909*
X267136Y110813D02*
X271227D01*
X273273Y114563D02*
Y108000D01*
Y114563D02*
X276227D01*
X273273Y111438D02*
X275091D01*
X273273Y108000D02*
X276227D01*
X278273Y114563D02*
X281455Y108000D01*
Y114563D02*
X278273Y108000D01*
X283500Y114563D02*
Y108000D01*
Y114563D02*
X285545D01*
X285545D02*
X286227Y114250D01*
X286455Y113938*
X286455D02*
X286682Y113313D01*
X286682D02*
Y112375D01*
X286455Y111750*
X286227Y111438*
X286227D02*
X285545Y111125D01*
X283500*
X291000Y114563D02*
X288727Y110188D01*
X288727D02*
X292136D01*
X291000Y114563D02*
Y108000D01*
X294636Y114563D02*
X297136D01*
X297136D02*
X295773Y112063D01*
X295773D02*
X296455D01*
X296455D02*
X296909Y111750D01*
X297136Y111438*
X297136D02*
X297364Y110500D01*
Y109875*
X297136Y108938*
X297136D02*
X296682Y108313D01*
X296682D02*
X296000Y108000D01*
X295318*
X294636Y108313*
X294636D02*
X294409Y108625D01*
X294182Y109250*
X300773Y114563D02*
X300091Y114250D01*
X299636Y113313*
X299636D02*
X299409Y111750D01*
Y110813*
X299409D02*
X299636Y109250D01*
X300091Y108313*
X300091D02*
X300773Y108000D01*
X301227*
X301909Y108313*
X301909D02*
X302364Y109250D01*
X302591Y110813*
X302591D02*
Y111750D01*
X302364Y113313*
X302364D02*
X301909Y114250D01*
X301227Y114563*
X301227D02*
X300773D01*
X304636D02*
Y108000D01*
Y114563D02*
X307591D01*
X304636Y111438D02*
X306455D01*
X309636Y114563D02*
Y108000D01*
Y114563D02*
X311682D01*
X311682D02*
X312364Y114250D01*
X312591Y113938*
X312591D02*
X312818Y113313D01*
X312818D02*
Y112688D01*
X312818D02*
X312591Y112063D01*
X312591D02*
X312364Y111750D01*
X311682Y111438*
X311682D02*
X309636D01*
X311227D02*
X312818Y108000D01*
X317818Y114563D02*
X315545D01*
X315545D02*
X315318Y111750D01*
X315545Y112063*
X315545D02*
X316227Y112375D01*
X316909*
X317591Y112063*
X317591D02*
X318045Y111438D01*
X318045D02*
X318273Y110500D01*
X318045Y109875*
X317818Y108938*
X317818D02*
X317364Y108313D01*
X317364D02*
X316682Y108000D01*
X316000*
X315318Y108313*
X315318D02*
X315091Y108625D01*
X314864Y109250*
X323273Y112375D02*
X323045Y111438D01*
X323045D02*
X322591Y110813D01*
X322591D02*
X321909Y110500D01*
X321682*
X321000Y110813*
X321000D02*
X320545Y111438D01*
X320545D02*
X320318Y112375D01*
Y112688*
X320318D02*
X320545Y113625D01*
X321000Y114250*
X321682Y114563*
X321682D02*
X321909D01*
X321909D02*
X322591Y114250D01*
X323045Y113625*
X323273Y112375*
Y110813*
X323273D02*
X323045Y109250D01*
X322591Y108313*
X322591D02*
X321909Y108000D01*
X321455*
X320773Y108313*
X320773D02*
X320545Y108938D01*
X328045Y113625D02*
X327818Y114250D01*
X327136Y114563*
X327136D02*
X326682D01*
X326682D02*
X326000Y114250D01*
X325545Y113313*
X325545D02*
X325318Y111750D01*
Y110188*
X325318D02*
X325545Y108938D01*
X325545D02*
X326000Y108313D01*
X326000D02*
X326682Y108000D01*
X326909*
X327591Y108313*
X327591D02*
X328045Y108938D01*
X328045D02*
X328273Y109875D01*
Y110188*
X328273D02*
X328045Y111125D01*
X327591Y111750*
X326909Y112063*
X326909D02*
X326682D01*
X326682D02*
X326000Y111750D01*
X325545Y111125*
X325318Y110188*
X333273Y112375D02*
X333045Y111438D01*
X333045D02*
X332591Y110813D01*
X332591D02*
X331909Y110500D01*
X331682*
X331000Y110813*
X331000D02*
X330545Y111438D01*
X330545D02*
X330318Y112375D01*
Y112688*
X330318D02*
X330545Y113625D01*
X331000Y114250*
X331682Y114563*
X331682D02*
X331909D01*
X331909D02*
X332591Y114250D01*
X333045Y113625*
X333273Y112375*
Y110813*
X333273D02*
X333045Y109250D01*
X332591Y108313*
X332591D02*
X331909Y108000D01*
X331455*
X330773Y108313*
X330773D02*
X330545Y108938D01*
X356227Y113000D02*
Y113313D01*
X356227D02*
X356455Y113938D01*
X356455D02*
X356682Y114250D01*
X357136Y114563*
X357136D02*
X358045D01*
X358045D02*
X358500Y114250D01*
X358727Y113938*
X358727D02*
X358955Y113313D01*
X358955D02*
Y112688D01*
X358955D02*
X358727Y112063D01*
X358727D02*
X358273Y111125D01*
X356000Y108000*
X359182*
X361455Y108625D02*
X361227Y108313D01*
X361227D02*
X361455Y108000D01*
X361682Y108313*
X361682D02*
X361455Y108625D01*
X365091Y114563D02*
X364409Y114250D01*
X363955Y113313*
X363955D02*
X363727Y111750D01*
Y110813*
X363727D02*
X363955Y109250D01*
X364409Y108313*
X364409D02*
X365091Y108000D01*
X365545*
X366227Y108313*
X366227D02*
X366682Y109250D01*
X366909Y110813*
X366909D02*
Y111750D01*
X366682Y113313*
X366682D02*
X366227Y114250D01*
X365545Y114563*
X365545D02*
X365091D01*
X532500Y140000D02*
Y100000D01*
X507500Y125000D02*
X757500D01*
X407500Y140000D02*
X607500D01*
X407500Y125000D02*
X607500D01*
X457500Y140000D02*
Y100000D01*
X275500D02*
Y85000D01*
X444500Y100000D02*
Y85000D01*
X557500Y140000D02*
Y100000D01*
X582500Y140000D02*
Y100000D01*
X507500Y140000D02*
X707500D01*
X632500Y139500D02*
Y99500D01*
X365500Y100000D02*
Y85000D01*
X519500Y100000D02*
Y85000D01*
X682500D02*
Y100000D01*
Y140000*
X538023Y135156D02*
Y128594D01*
Y135156D02*
X540068D01*
X540750Y134844*
X540977Y134531*
X541205Y133906*
Y133281*
X540977Y132656*
X540750Y132344*
X540068Y132031*
X538023D02*
X540068D01*
X540750Y131719*
X540977Y131406*
X541205Y130781*
Y129844*
X540977Y129219*
X540750Y128906*
X540068Y128594*
X538023*
X544386Y132969D02*
X543932Y132656D01*
X543477Y132031*
X543250Y131094*
Y130469*
X543477Y129531*
X543932Y128906*
X544386Y128594*
X545068*
X545523Y128906*
X545977Y129531*
X546205Y130469*
Y131094*
X545977Y132031*
X545523Y132656*
X545068Y132969*
X544386*
X548932Y135156D02*
Y129844D01*
X549159Y128906*
X549614Y128594*
X550068*
X548250Y132969D02*
X549841D01*
X712000Y142125D02*
Y136875D01*
Y142125D02*
X714364D01*
X712000Y139625D02*
X713455D01*
X718182Y140375D02*
Y136875D01*
Y139625D02*
X717818Y140125D01*
X717455Y140375*
X716909*
X716545Y140125*
X716182Y139625*
X716000Y138875*
Y138375*
X716182Y137625*
X716545Y137125*
X716909Y136875*
X717455*
X717818Y137125*
X718182Y137625*
X719818Y142125D02*
Y136875D01*
Y139625D02*
X720182Y140125D01*
X720545Y140375*
X721091*
X721455Y140125*
X721818Y139625*
X722000Y138875*
Y138375*
X721818Y137625*
X721455Y137125*
X721091Y136875*
X720545*
X720182Y137125*
X719818Y137625*
X727818Y142125D02*
Y136875D01*
Y142125D02*
X729091D01*
X729636Y141875*
X730000Y141375*
X730182Y140875*
X730364Y140125*
Y138875*
X730182Y138125*
X730000Y137625*
X729636Y137125*
X729091Y136875*
X727818*
X732000Y140375D02*
Y136875D01*
Y138875D02*
X732182Y139625D01*
X732545Y140125*
X732909Y140375*
X733455*
X737273D02*
Y136875D01*
Y139625D02*
X736909Y140125D01*
X736545Y140375*
X736000*
X735636Y140125*
X735273Y139625*
X735091Y138875*
Y138375*
X735273Y137625*
X735636Y137125*
X736000Y136875*
X736545*
X736909Y137125*
X737273Y137625*
X738909Y140375D02*
X739636Y136875D01*
X740364Y140375D02*
X739636Y136875D01*
X740364Y140375D02*
X741091Y136875D01*
X741818Y140375D02*
X741091Y136875D01*
X743455Y142125D02*
X743636Y141875D01*
X743818Y142125*
X743636Y142375*
X743455Y142125*
X743636Y140375D02*
Y136875D01*
X745455Y140375D02*
Y136875D01*
Y139375D02*
X746000Y140125D01*
X746364Y140375*
X746909*
X747273Y140125*
X747455Y139375*
Y136875*
X751273Y140375D02*
Y136375D01*
X751091Y135625*
X750909Y135375*
X750545Y135125*
X750000*
X749636Y135375*
X751273Y139625D02*
X750909Y140125D01*
X750545Y140375*
X750000*
X749636Y140125*
X749273Y139625*
X749091Y138875*
Y138375*
X749273Y137625*
X749636Y137125*
X750000Y136875*
X750545*
X750909Y137125*
X751273Y137625*
X688023Y135156D02*
Y128594D01*
Y135156D02*
X690068D01*
X690750Y134844*
X690977Y134531*
X691205Y133906*
Y133281*
X690977Y132656*
X690750Y132344*
X690068Y132031*
X688023D02*
X690068D01*
X690750Y131719*
X690977Y131406*
X691205Y130781*
Y129844*
X690977Y129219*
X690750Y128906*
X690068Y128594*
X688023*
X694386Y132969D02*
X693932Y132656D01*
X693477Y132031*
X693250Y131094*
Y130469*
X693477Y129531*
X693932Y128906*
X694386Y128594*
X695068*
X695523Y128906*
X695977Y129531*
X696205Y130469*
Y131094*
X695977Y132031*
X695523Y132656*
X695068Y132969*
X694386*
X698932Y135156D02*
Y129844D01*
X699159Y128906*
X699614Y128594*
X700068*
X698250Y132969D02*
X699841D01*
X664159Y135156D02*
Y128594D01*
X662568Y135156D02*
X665750D01*
X668932Y132969D02*
X668477Y132656D01*
X668023Y132031*
X667795Y131094*
Y130469*
X668023Y129531*
X668477Y128906*
X668932Y128594*
X669614*
X670068Y128906*
X670523Y129531*
X670750Y130469*
Y131094*
X670523Y132031*
X670068Y132656*
X669614Y132969*
X668932*
X672795D02*
Y126406D01*
Y132031D02*
X673250Y132656D01*
X673705Y132969*
X674386*
X674841Y132656*
X675295Y132031*
X675523Y131094*
Y130469*
X675295Y129531*
X674841Y128906*
X674386Y128594*
X673705*
X673250Y128906*
X672795Y129531*
X666695Y149917D02*
X665041Y143945D01*
X666695Y149917D02*
X668350Y143945D01*
X665661Y145936D02*
X667730D01*
X672486Y147073D02*
X672280Y147642D01*
X671659Y147927*
X671039*
X670418Y147642*
X670211Y147073*
X670418Y146505*
X670832Y146220*
X671866Y145936*
X672280Y145652*
X672486Y145083*
Y144798*
X672280Y144230*
X671659Y143945*
X671039*
X670418Y144230*
X670211Y144798*
X676623Y147073D02*
X676416Y147642D01*
X675795Y147927*
X675175*
X674555Y147642*
X674348Y147073*
X674555Y146505*
X674968Y146220*
X676002Y145936*
X676416Y145652*
X676623Y145083*
Y144798*
X676416Y144230*
X675795Y143945*
X675175*
X674555Y144230*
X674348Y144798*
X678484Y146220D02*
X680966D01*
Y146789*
X680759Y147358*
X680552Y147642*
X680139Y147927*
X679518*
X679105Y147642*
X678691Y147073*
X678484Y146220*
Y145652*
X678691Y144798*
X679105Y144230*
X679518Y143945*
X680139*
X680552Y144230*
X680966Y144798*
X682827Y147927D02*
Y143945D01*
Y146789D02*
X683448Y147642D01*
X683861Y147927*
X684482*
X684895Y147642*
X685102Y146789*
Y143945*
Y146789D02*
X685723Y147642D01*
X686136Y147927*
X686757*
X687170Y147642*
X687377Y146789*
Y143945*
X689239Y149917D02*
Y143945D01*
Y147073D02*
X689652Y147642D01*
X690066Y147927*
X690686*
X691100Y147642*
X691514Y147073*
X691720Y146220*
Y145652*
X691514Y144798*
X691100Y144230*
X690686Y143945*
X690066*
X689652Y144230*
X689239Y144798*
X693582Y149917D02*
Y143945D01*
X695650Y147927D02*
X696891Y143945D01*
X698132Y147927D02*
X696891Y143945D01*
X696477Y142808*
X696064Y142239*
X695650Y141955*
X695443*
X618867Y149417D02*
Y143445D01*
Y149417D02*
X620728D01*
X621349Y149133*
X621556Y148848*
X621763Y148280*
X621763D02*
Y147427D01*
X621763D02*
X621556Y146858D01*
X621349Y146573*
X620728Y146289*
X618867*
X628381Y149417D02*
Y143445D01*
Y149417D02*
X630035Y143445D01*
X631690Y149417D02*
X630035Y143445D01*
X631690Y149417D02*
Y143445D01*
X636033Y147427D02*
Y143445D01*
Y146573D02*
X635619Y147142D01*
X635206Y147427*
X634585*
X634172Y147142*
X633758Y146573*
X633551Y145720*
Y145152*
X633758Y144298*
X634172Y143730*
X634585Y143445*
X635206*
X635619Y143730*
X636033Y144298*
X640169Y146573D02*
X639963Y147142D01*
X639963D02*
X639342Y147427D01*
X638722*
X638101Y147142*
X637894Y146573*
X638101Y146005*
X638515Y145720*
X639549Y145436*
X639963Y145152*
X639963D02*
X640169Y144583D01*
Y144298*
X639963Y143730*
X639963D02*
X639342Y143445D01*
X638722*
X638101Y143730*
X637894Y144298*
X642031Y149417D02*
Y143445D01*
X644099Y147427D02*
X642031Y144583D01*
X642858Y145720D02*
X644306Y143445D01*
X638023Y134656D02*
Y128094D01*
Y134656D02*
X640068D01*
X640750Y134344*
X640977Y134031*
X641205Y133406*
Y132781*
X640977Y132156*
X640750Y131844*
X640068Y131531*
X638023D02*
X640068D01*
X640750Y131219*
X640977Y130906*
X641205Y130281*
Y129344*
X640977Y128719*
X640750Y128406*
X640068Y128094*
X638023*
X644386Y132469D02*
X643932Y132156D01*
X643477Y131531*
X643250Y130594*
Y129969*
X643477Y129031*
X643932Y128406*
X644386Y128094*
X645068*
X645523Y128406*
X645977Y129031*
X646205Y129969*
Y130594*
X645977Y131531*
X645523Y132156*
X645068Y132469*
X644386*
X648932Y134656D02*
Y129344D01*
X649159Y128406*
X649614Y128094*
X650068*
X648250Y132469D02*
X649841D01*
X614159Y134656D02*
Y128094D01*
X612568Y134656D02*
X615750D01*
X618932Y132469D02*
X618477Y132156D01*
X618023Y131531*
X617795Y130594*
Y129969*
X618023Y129031*
X618477Y128406*
X618932Y128094*
X619614*
X620068Y128406*
X620523Y129031*
X620750Y129969*
Y130594*
X620523Y131531*
X620068Y132156*
X619614Y132469*
X618932*
X622795D02*
Y125906D01*
Y131531D02*
X623250Y132156D01*
X623705Y132469*
X624386*
X624841Y132156*
X625295Y131531*
X625523Y130594*
Y129969*
X625295Y129031*
X624841Y128406*
X624386Y128094*
X623705*
X623250Y128406*
X622795Y129031*
X588023Y135156D02*
Y128594D01*
Y135156D02*
X590068D01*
X590750Y134844*
X590977Y134531*
X591205Y133906*
Y133281*
X590977Y132656*
X590750Y132344*
X590068Y132031*
X588023D02*
X590068D01*
X590750Y131719*
X590977Y131406*
X591205Y130781*
Y129844*
X590977Y129219*
X590750Y128906*
X590068Y128594*
X588023*
X594386Y132969D02*
X593932Y132656D01*
X593477Y132031*
X593250Y131094*
Y130469*
X593477Y129531*
X593932Y128906*
X594386Y128594*
X595068*
X595523Y128906*
X595977Y129531*
X596205Y130469*
Y131094*
X595977Y132031*
X595523Y132656*
X595068Y132969*
X594386*
X598932Y135156D02*
Y129844D01*
X599159Y128906*
X599614Y128594*
X600068*
X598250Y132969D02*
X599841D01*
X564159Y135156D02*
Y128594D01*
X562568Y135156D02*
X565750D01*
X568932Y132969D02*
X568477Y132656D01*
X568023Y132031*
X567795Y131094*
Y130469*
X568023Y129531*
X568477Y128906*
X568932Y128594*
X569614*
X570068Y128906*
X570523Y129531*
X570750Y130469*
Y131094*
X570523Y132031*
X570068Y132656*
X569614Y132969*
X568932*
X572795D02*
Y126406D01*
Y132031D02*
X573250Y132656D01*
X573705Y132969*
X574386*
X574841Y132656*
X575295Y132031*
X575523Y131094*
Y130469*
X575295Y129531*
X574841Y128906*
X574386Y128594*
X573705*
X573250Y128906*
X572795Y129531*
X571763Y149064D02*
X571349Y149633D01*
X570728Y149917*
X569901*
X569281Y149633*
X568867Y149064*
Y148495*
X569074Y147927*
X569281Y147642*
X569694Y147358*
X570935Y146789*
X571349Y146505*
X571556Y146220*
X571763Y145652*
X571763D02*
Y144798D01*
X571763D02*
X571349Y144230D01*
X570728Y143945*
X569901*
X569281Y144230*
X568867Y144798*
X578381Y149917D02*
Y143945D01*
Y149917D02*
X580035Y143945D01*
X581690Y149917D02*
X580035Y143945D01*
X581690Y149917D02*
Y143945D01*
X586033Y147927D02*
Y143945D01*
Y147073D02*
X585619Y147642D01*
X585206Y147927*
X584585*
X584172Y147642*
X583758Y147073*
X583551Y146220*
Y145652*
X583758Y144798*
X584172Y144230*
X584585Y143945*
X585206*
X585619Y144230*
X586033Y144798*
X590169Y147073D02*
X589963Y147642D01*
X589963D02*
X589342Y147927D01*
X588722*
X588101Y147642*
X587894Y147073*
X588101Y146505*
X588515Y146220*
X589549Y145936*
X589963Y145652*
X589963D02*
X590169Y145083D01*
Y144798*
X589963Y144230*
X589963D02*
X589342Y143945D01*
X588722*
X588101Y144230*
X587894Y144798*
X592031Y149917D02*
Y143945D01*
X594099Y147927D02*
X592031Y145083D01*
X592858Y146220D02*
X594306Y143945D01*
X426659Y135156D02*
Y128594D01*
X425068Y135156D02*
X428250D01*
X431432Y132969D02*
X430977Y132656D01*
X430523Y132031*
X430295Y131094*
Y130469*
X430523Y129531*
X430977Y128906*
X431432Y128594*
X432114*
X432568Y128906*
X433023Y129531*
X433250Y130469*
Y131094*
X433023Y132031*
X432568Y132656*
X432114Y132969*
X431432*
X435295D02*
Y126406D01*
Y132031D02*
X435750Y132656D01*
X436205Y132969*
X436886*
X437341Y132656*
X437795Y132031*
X438023Y131094*
Y130469*
X437795Y129531*
X437341Y128906*
X436886Y128594*
X436205*
X435750Y128906*
X435295Y129531*
X475523Y135156D02*
Y128594D01*
Y135156D02*
X477568D01*
X478250Y134844*
X478477Y134531*
X478705Y133906*
Y133281*
X478477Y132656*
X478250Y132344*
X477568Y132031*
X475523D02*
X477568D01*
X478250Y131719*
X478477Y131406*
X478705Y130781*
Y129844*
X478477Y129219*
X478250Y128906*
X477568Y128594*
X475523*
X481886Y132969D02*
X481432Y132656D01*
X480977Y132031*
X480750Y131094*
Y130469*
X480977Y129531*
X481432Y128906*
X481886Y128594*
X482568*
X483023Y128906*
X483477Y129531*
X483705Y130469*
Y131094*
X483477Y132031*
X483023Y132656*
X482568Y132969*
X481886*
X486432Y135156D02*
Y129844D01*
X486659Y128906*
X487114Y128594*
X487568*
X485750Y132969D02*
X487341D01*
X422358Y148495D02*
X422151Y149064D01*
X421738Y149633*
X421738D02*
X421324Y149917D01*
X420497*
X420083Y149633*
X419669Y149064*
X419463Y148495*
X419463D02*
X419256Y147642D01*
Y146220*
X419463Y145367*
X419463D02*
X419669Y144798D01*
X420083Y144230*
X420497Y143945*
X421324*
X421738Y144230*
X421738D02*
X422151Y144798D01*
X422358Y145367*
X425253Y147927D02*
X424840Y147642D01*
X424426Y147073*
X424219Y146220*
Y145652*
X424426Y144798*
X424840Y144230*
X425253Y143945*
X425874*
X426288Y144230*
X426288D02*
X426701Y144798D01*
X426908Y145652*
Y146220*
X426701Y147073*
X426288Y147642*
X426288D02*
X425874Y147927D01*
X425253*
X428769D02*
Y141955D01*
Y147073D02*
X429183Y147642D01*
X429597Y147927*
X430217*
X430631Y147642*
X431044Y147073*
X431251Y146220*
Y145652*
X431044Y144798*
X430631Y144230*
X430217Y143945*
X429597*
X429183Y144230*
X428769Y144798*
X433113Y147927D02*
Y141955D01*
Y147073D02*
X433526Y147642D01*
X433940Y147927*
X434560*
X434974Y147642*
X435388Y147073*
X435388D02*
X435594Y146220D01*
Y145652*
X435388Y144798*
X435388D02*
X434974Y144230D01*
X434560Y143945*
X433940*
X433526Y144230*
X433113Y144798*
X437456Y146220D02*
X439938D01*
X439938D02*
Y146789D01*
X439938D02*
X439731Y147358D01*
X439524Y147642*
X439110Y147927*
X438490*
X438076Y147642*
X437663Y147073*
X437663D02*
X437456Y146220D01*
Y145652*
X437663Y144798*
X437663D02*
X438076Y144230D01*
X438490Y143945*
X439110*
X439524Y144230*
X439938Y144798*
X441799Y147927D02*
Y143945D01*
Y146220D02*
X442006Y147073D01*
X442419Y147642*
X442833Y147927*
X443453*
X450072Y149917D02*
Y143945D01*
X452553*
X456897Y147927D02*
Y143945D01*
Y147073D02*
X456483Y147642D01*
X456069Y147927*
X455449*
X455035Y147642*
X454622Y147073*
X454415Y146220*
Y145652*
X454622Y144798*
X455035Y144230*
X455449Y143945*
X456069*
X456483Y144230*
X456897Y144798*
X458965Y147927D02*
X460206Y143945D01*
X461447Y147927D02*
X460206Y143945D01*
X459792Y142808*
X459378Y142239*
X458965Y141955*
X458758*
X463308Y146220D02*
X465790D01*
Y146789*
X465583Y147358*
X465376Y147642*
X464963Y147927*
X464963D02*
X464342D01*
X463928Y147642*
X463515Y147073*
X463308Y146220*
Y145652*
X463515Y144798*
X463928Y144230*
X464342Y143945*
X464963*
X464963D02*
X465376Y144230D01*
X465790Y144798*
X467651Y147927D02*
Y143945D01*
Y146220D02*
X467858Y147073D01*
X468272Y147642*
X468685Y147927*
X469306*
X475924Y149917D02*
Y143945D01*
Y149917D02*
X478819Y143945D01*
Y149917D02*
Y143945D01*
X483163Y147927D02*
Y143945D01*
Y147073D02*
X482749Y147642D01*
X482335Y147927*
X481715*
X481301Y147642*
X480888Y147073*
X480888D02*
X480681Y146220D01*
Y145652*
X480888Y144798*
X480888D02*
X481301Y144230D01*
X481715Y143945*
X482335*
X482749Y144230*
X483163Y144798*
X485024Y147927D02*
Y143945D01*
Y146789D02*
X485644Y147642D01*
X486058Y147927*
X486678*
X487092Y147642*
X487299Y146789*
Y143945*
Y146789D02*
X487919Y147642D01*
X488333Y147927*
X488953*
X489367Y147642*
X489574Y146789*
Y143945*
X491435Y146220D02*
X493917D01*
Y146789*
X493710Y147358*
X493503Y147642*
X493090Y147927*
X492469*
X492056Y147642*
X491642Y147073*
X491435Y146220*
Y145652*
X491642Y144798*
X492056Y144230*
X492469Y143945*
X493090*
X493503Y144230*
X493917Y144798*
X516489Y149064D02*
X516075Y149633D01*
X515455Y149917*
X514627*
X514007Y149633*
X513593Y149064*
Y148495*
X513800Y147927*
X514007Y147642*
X514420Y147358*
X515661Y146789*
X516075Y146505*
X516282Y146220*
X516489Y145652*
Y144798*
X516075Y144230*
X515455Y143945*
X514627*
X514007Y144230*
X513593Y144798*
X518350Y149917D02*
X518557Y149633D01*
X518764Y149917*
X518557Y150202*
X518350Y149917*
X518557Y147927D02*
Y143945D01*
X520625Y149917D02*
Y143945D01*
X522486Y149917D02*
Y143945D01*
X524555Y147927D02*
X522486Y145083D01*
X523314Y146220D02*
X524761Y143945D01*
X528898Y147073D02*
X528691Y147642D01*
X528070Y147927*
X527450*
X526830Y147642*
X526623Y147073*
X526830Y146505*
X527243Y146220*
X528277Y145936*
X528691Y145652*
X528898Y145083*
Y144798*
X528691Y144230*
X528070Y143945*
X527450*
X526830Y144230*
X526623Y144798*
X533241Y147073D02*
X532827Y147642D01*
X532414Y147927*
X531793*
X531380Y147642*
X530966Y147073*
X530759Y146220*
Y145652*
X530966Y144798*
X531380Y144230*
X531793Y143945*
X532414*
X532827Y144230*
X533241Y144798*
X535102Y147927D02*
Y143945D01*
Y146220D02*
X535309Y147073D01*
X535723Y147642*
X536136Y147927*
X536757*
X538618Y146220D02*
X541100D01*
Y146789*
X540893Y147358*
X540686Y147642*
X540273Y147927*
X539652*
X539239Y147642*
X538825Y147073*
X538618Y146220*
Y145652*
X538825Y144798*
X539239Y144230*
X539652Y143945*
X540273*
X540686Y144230*
X541100Y144798*
X542961Y146220D02*
X545443D01*
Y146789*
X545236Y147358*
X545030Y147642*
X544616Y147927*
X543995*
X543582Y147642*
X543168Y147073*
X542961Y146220*
Y145652*
X543168Y144798*
X543582Y144230*
X543995Y143945*
X544616*
X545030Y144230*
X545443Y144798*
X547305Y147927D02*
Y143945D01*
Y146789D02*
X547925Y147642D01*
X548339Y147927*
X548959*
X549373Y147642*
X549580Y146789*
Y143945*
X514159Y135156D02*
Y128594D01*
X512568Y135156D02*
X515750D01*
X518932Y132969D02*
X518477Y132656D01*
X518023Y132031*
X517795Y131094*
Y130469*
X518023Y129531*
X518477Y128906*
X518932Y128594*
X519614*
X520068Y128906*
X520523Y129531*
X520750Y130469*
Y131094*
X520523Y132031*
X520068Y132656*
X519614Y132969*
X518932*
X522795D02*
Y126406D01*
Y132031D02*
X523250Y132656D01*
X523705Y132969*
X524386*
X524841Y132656*
X525295Y132031*
X525523Y131094*
Y130469*
X525295Y129531*
X524841Y128906*
X524386Y128594*
X523705*
X523250Y128906*
X522795Y129531*
G54D14*
X215000Y85000D02*
X757500D01*
Y155000*
X215000*
Y85000*
X507500Y100500D02*
Y155000D01*
X407500Y100500D02*
Y155000D01*
X215000Y125000D02*
X407500D01*
X215000Y100000D02*
X757500D01*
X345000D02*
Y125000D01*
X557500Y100500D02*
Y155000D01*
X607500Y100000D02*
Y154500D01*
X657500Y100500D02*
Y155000D01*
X707500Y100500D02*
Y155000D01*
G54D15*
X234886Y143984D02*
Y134141D01*
X232500Y143984D02*
X237273D01*
X240341D02*
Y134141D01*
Y143984D02*
X244773D01*
X240341Y139297D02*
X243068D01*
X240341Y134141D02*
X244773D01*
X247841Y143984D02*
X252614Y134141D01*
Y143984D02*
X247841Y134141D01*
X258409Y143984D02*
X255682Y134141D01*
X258409Y143984D02*
X261136Y134141D01*
X256705Y137422D02*
X260114D01*
X268977Y142578D02*
X268295Y143516D01*
X267273Y143984*
X265909*
X264886Y143516*
X264205Y142578*
Y141641*
X264545Y140703*
X264886Y140234*
X265568Y139766*
X267614Y138828*
X268295Y138359*
X268636Y137891*
X268977Y136953*
Y135547*
X268295Y134609*
X267273Y134141*
X265909*
X264886Y134609*
X264205Y135547*
X279886Y143984D02*
Y134141D01*
X282955Y143984D02*
Y134141D01*
Y143984D02*
X287727Y134141D01*
Y143984D02*
Y134141D01*
X295568Y142578D02*
X294886Y143516D01*
X293864Y143984*
X292500*
X291477Y143516*
X290795Y142578*
Y141641*
X291136Y140703*
X291477Y140234*
X292159Y139766*
X294205Y138828*
X294886Y138359*
X295227Y137891*
X295568Y136953*
Y135547*
X294886Y134609*
X293864Y134141*
X292500*
X291477Y134609*
X290795Y135547*
X301023Y143984D02*
Y134141D01*
X298636Y143984D02*
X303409D01*
X306477D02*
Y134141D01*
Y143984D02*
X309545D01*
X310568Y143516*
X310909Y143047*
X311250Y142109*
Y141172*
X310909Y140234*
X310568Y139766*
X309545Y139297*
X306477*
X308864D02*
X311250Y134141D01*
X314318Y143984D02*
Y136953D01*
X314659Y135547*
X315341Y134609*
X316364Y134141*
X317045*
X318068Y134609*
X318750Y135547*
X319091Y136953*
Y143984*
X322159D02*
Y134141D01*
Y143984D02*
X324886Y134141D01*
X327614Y143984D02*
X324886Y134141D01*
X327614Y143984D02*
Y134141D01*
X330682Y143984D02*
Y134141D01*
Y143984D02*
X335114D01*
X330682Y139297D02*
X333409D01*
X330682Y134141D02*
X335114D01*
X338182Y143984D02*
Y134141D01*
Y143984D02*
X342955Y134141D01*
Y143984D02*
Y134141D01*
X348409Y143984D02*
Y134141D01*
X346023Y143984D02*
X350795D01*
X358636Y142578D02*
X357955Y143516D01*
X356932Y143984*
X355568*
X354545Y143516*
X353864Y142578*
Y141641*
X354205Y140703*
X354545Y140234*
X355227Y139766*
X357273Y138828*
X357955Y138359*
X358295Y137891*
X358636Y136953*
Y135547*
X357955Y134609*
X356932Y134141*
X355568*
X354545Y134609*
X353864Y135547*
G54D16*
X687091Y95859D02*
X686864Y96172D01*
X686523Y96328*
X686068*
X685727Y96172*
X685500Y95859*
Y95547*
X685614Y95234*
X685727Y95078*
X685955Y94922*
X686636Y94609*
X686864Y94453*
X686977Y94297*
X687091Y93984*
Y93516*
X686864Y93203*
X686523Y93047*
X686068*
X685727Y93203*
X685500Y93516*
X688682Y95234D02*
X688455Y95078D01*
X688227Y94766*
X688114Y94297*
Y93984*
X688227Y93516*
X688455Y93203*
X688682Y93047*
X689023*
X689250Y93203*
X689477Y93516*
X689591Y93984*
Y94297*
X689477Y94766*
X689250Y95078*
X689023Y95234*
X688682*
X691523Y96328D02*
X691295D01*
X691068Y96172*
X690955Y95703*
Y93047*
X690614Y95234D02*
X691409D01*
X692886Y96328D02*
Y93672D01*
X693000Y93203*
X693227Y93047*
X693455*
X692545Y95234D02*
X693341D01*
X694477D02*
X694932Y93047D01*
X695386Y95234D02*
X694932Y93047D01*
X695386Y95234D02*
X695841Y93047D01*
X696295Y95234D02*
X695841Y93047D01*
X698682Y95234D02*
Y93047D01*
Y94766D02*
X698455Y95078D01*
X698227Y95234*
X697886*
X697659Y95078*
X697432Y94766*
X697318Y94297*
Y93984*
X697432Y93516*
X697659Y93203*
X697886Y93047*
X698227*
X698455Y93203*
X698682Y93516*
X699705Y95234D02*
Y93047D01*
Y94297D02*
X699818Y94766D01*
X700045Y95078*
X700273Y95234*
X700614*
X701636Y94297D02*
X703000D01*
Y94609*
X702886Y94922*
X702773Y95078*
X702545Y95234*
X702205*
X701977Y95078*
X701750Y94766*
X701636Y94297*
Y93984*
X701750Y93516*
X701977Y93203*
X702205Y93047*
X702545*
X702773Y93203*
X703000Y93516*
X369000Y96328D02*
Y93047D01*
Y96328D02*
X370477D01*
X369000Y94766D02*
X369909D01*
X369000Y93047D02*
X370477D01*
X371500Y95234D02*
Y93047D01*
Y94609D02*
X371841Y95078D01*
X372068Y95234*
X372409*
X372636Y95078*
X372750Y94609*
Y93047*
X375136Y95234D02*
Y92734D01*
X375023Y92266*
X374909Y92109*
X374682Y91953*
X374341*
X374114Y92109*
X375136Y94766D02*
X374909Y95078D01*
X374682Y95234*
X374341*
X374114Y95078*
X373886Y94766*
X373773Y94297*
Y93984*
X373886Y93516*
X374114Y93203*
X374341Y93047*
X374682*
X374909Y93203*
X375136Y93516*
X376159Y96328D02*
X376273Y96172D01*
X376386Y96328*
X376273Y96484*
X376159Y96328*
X376273Y95234D02*
Y93047D01*
X377409Y95234D02*
Y93047D01*
Y94609D02*
X377750Y95078D01*
X377977Y95234*
X378318*
X378545Y95078*
X378659Y94609*
Y93047*
X379682Y94297D02*
X381045D01*
Y94609*
X380932Y94922*
X380818Y95078*
X380591Y95234*
X380250*
X380023Y95078*
X379795Y94766*
X379682Y94297*
Y93984*
X379795Y93516*
X380023Y93203*
X380250Y93047*
X380591*
X380818Y93203*
X381045Y93516*
X382068Y94297D02*
X383432D01*
Y94609*
X383318Y94922*
X383205Y95078*
X382977Y95234*
X382636*
X382409Y95078*
X382182Y94766*
X382068Y94297*
Y93984*
X382182Y93516*
X382409Y93203*
X382636Y93047*
X382977*
X383205Y93203*
X383432Y93516*
X384455Y95234D02*
Y93047D01*
Y94297D02*
X384568Y94766D01*
X384795Y95078*
X385023Y95234*
X385364*
X386500D02*
X386386Y95078D01*
X386500Y94922*
X386614Y95078*
X386500Y95234*
Y93359D02*
X386386Y93203D01*
X386500Y93047*
X386614Y93203*
X386500Y93359*
X523000Y96328D02*
Y93047D01*
Y96328D02*
X523909Y93047D01*
X524818Y96328D02*
X523909Y93047D01*
X524818Y96328D02*
Y93047D01*
X526409Y95234D02*
X526182Y95078D01*
X525955Y94766*
X525841Y94297*
Y93984*
X525955Y93516*
X526182Y93203*
X526409Y93047*
X526750*
X526977Y93203*
X527205Y93516*
X527318Y93984*
Y94297*
X527205Y94766*
X526977Y95078*
X526750Y95234*
X526409*
X529705Y96328D02*
Y93047D01*
Y94766D02*
X529477Y95078D01*
X529250Y95234*
X528909*
X528682Y95078*
X528455Y94766*
X528341Y94297*
Y93984*
X528455Y93516*
X528682Y93203*
X528909Y93047*
X529250*
X529477Y93203*
X529705Y93516*
X530727Y96328D02*
X530841Y96172D01*
X530955Y96328*
X530841Y96484*
X530727Y96328*
X530841Y95234D02*
Y93047D01*
X532886Y96328D02*
X532659D01*
X532432Y96172*
X532318Y95703*
Y93047*
X531977Y95234D02*
X532773D01*
X533909Y96328D02*
X534023Y96172D01*
X534136Y96328*
X534023Y96484*
X533909Y96328*
X534023Y95234D02*
Y93047D01*
X535159Y94297D02*
X536523D01*
Y94609*
X536409Y94922*
X536295Y95078*
X536068Y95234*
X535727*
X535500Y95078*
X535273Y94766*
X535159Y94297*
Y93984*
X535273Y93516*
X535500Y93203*
X535727Y93047*
X536068*
X536295Y93203*
X536523Y93516*
X538909Y96328D02*
Y93047D01*
Y94766D02*
X538682Y95078D01*
X538455Y95234*
X538114*
X537886Y95078*
X537659Y94766*
X537545Y94297*
Y93984*
X537659Y93516*
X537886Y93203*
X538114Y93047*
X538455*
X538682Y93203*
X538909Y93516*
X542545Y96328D02*
Y93047D01*
Y96328D02*
X543341D01*
X543682Y96172*
X543909Y95859*
X544023Y95547*
X544136Y95078*
Y94297*
X544023Y93828*
X543909Y93516*
X543682Y93203*
X543341Y93047*
X542545*
X546523Y95234D02*
Y93047D01*
Y94766D02*
X546295Y95078D01*
X546068Y95234*
X545727*
X545500Y95078*
X545273Y94766*
X545159Y94297*
Y93984*
X545273Y93516*
X545500Y93203*
X545727Y93047*
X546068*
X546295Y93203*
X546523Y93516*
X547886Y96328D02*
Y93672D01*
X548000Y93203*
X548227Y93047*
X548455*
X547545Y95234D02*
X548341D01*
X549477Y94297D02*
X550841D01*
Y94609*
X550727Y94922*
X550614Y95078*
X550386Y95234*
X550045*
X549818Y95078*
X549591Y94766*
X549477Y94297*
Y93984*
X549591Y93516*
X549818Y93203*
X550045Y93047*
X550386*
X550614Y93203*
X550841Y93516*
X551977Y95234D02*
X551864Y95078D01*
X551977Y94922*
X552091Y95078*
X551977Y95234*
Y93359D02*
X551864Y93203D01*
X551977Y93047*
X552091Y93203*
X551977Y93359*
X448000Y96328D02*
Y93047D01*
Y96328D02*
X449023D01*
X449364Y96172*
X449477Y96016*
X449591Y95703*
Y95234*
X449477Y94922*
X449364Y94766*
X449023Y94609*
X448000*
X452318Y95547D02*
X452205Y95859D01*
X451977Y96172*
X451750Y96328*
X451295*
X451068Y96172*
X450841Y95859*
X450727Y95547*
X450614Y95078*
Y94297*
X450727Y93828*
X450841Y93516*
X451068Y93203*
X451295Y93047*
X451750*
X451977Y93203*
X452205Y93516*
X452318Y93828*
X453341Y96328D02*
Y93047D01*
Y96328D02*
X454364D01*
X454705Y96172*
X454818Y96016*
X454932Y95703*
Y95391*
X454818Y95078*
X454705Y94922*
X454364Y94766*
X453341D02*
X454364D01*
X454705Y94609*
X454818Y94453*
X454932Y94141*
Y93672*
X454818Y93359*
X454705Y93203*
X454364Y93047*
X453341*
X458568Y96328D02*
Y93047D01*
Y96328D02*
X459364D01*
X459705Y96172*
X459932Y95859*
X460045Y95547*
X460159Y95078*
Y94297*
X460045Y93828*
X459932Y93516*
X459705Y93203*
X459364Y93047*
X458568*
X462432Y94766D02*
X462318Y95078D01*
X461977Y95234*
X461636*
X461295Y95078*
X461182Y94766*
X461295Y94453*
X461523Y94297*
X462091Y94141*
X462318Y93984*
X462432Y93672*
Y93516*
X462318Y93203*
X461977Y93047*
X461636*
X461295Y93203*
X461182Y93516*
X464818Y95234D02*
Y92734D01*
X464705Y92266*
X464591Y92109*
X464364Y91953*
X464023*
X463795Y92109*
X464818Y94766D02*
X464591Y95078D01*
X464364Y95234*
X464023*
X463795Y95078*
X463568Y94766*
X463455Y94297*
Y93984*
X463568Y93516*
X463795Y93203*
X464023Y93047*
X464364*
X464591Y93203*
X464818Y93516*
X465841Y95234D02*
Y93047D01*
Y94609D02*
X466182Y95078D01*
X466409Y95234*
X466750*
X466977Y95078*
X467091Y94609*
Y93047*
X468114Y95234D02*
Y93047D01*
Y94297D02*
X468227Y94766D01*
X468455Y95078*
X468682Y95234*
X469023*
X470159D02*
X470045Y95078D01*
X470159Y94922*
X470273Y95078*
X470159Y95234*
Y93359D02*
X470045Y93203D01*
X470159Y93047*
X470273Y93203*
X470159Y93359*
X217500Y96328D02*
Y93047D01*
Y96328D02*
X218295D01*
X218636Y96172*
X218864Y95859*
X218977Y95547*
X219091Y95078*
Y94297*
X218977Y93828*
X218864Y93516*
X218636Y93203*
X218295Y93047*
X217500*
X221477Y95234D02*
Y93047D01*
Y94766D02*
X221250Y95078D01*
X221023Y95234*
X220682*
X220455Y95078*
X220227Y94766*
X220114Y94297*
Y93984*
X220227Y93516*
X220455Y93203*
X220682Y93047*
X221023*
X221250Y93203*
X221477Y93516*
X222841Y96328D02*
Y93672D01*
X222955Y93203*
X223182Y93047*
X223409*
X222500Y95234D02*
X223295D01*
X224432Y94297D02*
X225795D01*
Y94609*
X225682Y94922*
X225568Y95078*
X225341Y95234*
X225000*
X224773Y95078*
X224545Y94766*
X224432Y94297*
Y93984*
X224545Y93516*
X224773Y93203*
X225000Y93047*
X225341*
X225568Y93203*
X225795Y93516*
X226932Y95234D02*
X226818Y95078D01*
X226932Y94922*
X227045Y95078*
X226932Y95234*
Y93359D02*
X226818Y93203D01*
X226932Y93047*
X227045Y93203*
X226932Y93359*
X277500Y96328D02*
Y93047D01*
Y96328D02*
X278977D01*
X277500Y94766D02*
X278409D01*
X280000Y96328D02*
X280114Y96172D01*
X280227Y96328*
X280114Y96484*
X280000Y96328*
X280114Y95234D02*
Y93047D01*
X281250Y96328D02*
Y93047D01*
X282273Y94297D02*
X283636D01*
Y94609*
X283523Y94922*
X283409Y95078*
X283182Y95234*
X282841*
X282614Y95078*
X282386Y94766*
X282273Y94297*
Y93984*
X282386Y93516*
X282614Y93203*
X282841Y93047*
X283182*
X283409Y93203*
X283636Y93516*
X284659Y95234D02*
Y93047D01*
Y94609D02*
X285000Y95078D01*
X285227Y95234*
X285568*
X285795Y95078*
X285909Y94609*
Y93047*
X288295Y95234D02*
Y93047D01*
Y94766D02*
X288068Y95078D01*
X287841Y95234*
X287500*
X287273Y95078*
X287045Y94766*
X286932Y94297*
Y93984*
X287045Y93516*
X287273Y93203*
X287500Y93047*
X287841*
X288068Y93203*
X288295Y93516*
X289318Y95234D02*
Y93047D01*
Y94609D02*
X289659Y95078D01*
X289886Y95234*
X290227*
X290455Y95078*
X290568Y94609*
Y93047*
Y94609D02*
X290909Y95078D01*
X291136Y95234*
X291477*
X291705Y95078*
X291818Y94609*
Y93047*
X292841Y94297D02*
X294205D01*
Y94609*
X294091Y94922*
X293977Y95078*
X293750Y95234*
X293409*
X293182Y95078*
X292955Y94766*
X292841Y94297*
Y93984*
X292955Y93516*
X293182Y93203*
X293409Y93047*
X293750*
X293977Y93203*
X294205Y93516*
X295341Y95234D02*
X295227Y95078D01*
X295341Y94922*
X295455Y95078*
X295341Y95234*
Y93359D02*
X295227Y93203D01*
X295341Y93047*
X295455Y93203*
X295341Y93359*
X347500Y121328D02*
Y118047D01*
Y121328D02*
X348523D01*
X348864Y121172*
X348977Y121016*
X349091Y120703*
Y120391*
X348977Y120078*
X348864Y119922*
X348523Y119766*
X347500*
X348295D02*
X349091Y118047D01*
X350114Y119297D02*
X351477D01*
Y119609*
X351364Y119922*
X351250Y120078*
X351023Y120234*
X350682*
X350455Y120078*
X350227Y119766*
X350114Y119297*
Y118984*
X350227Y118516*
X350455Y118203*
X350682Y118047*
X351023*
X351250Y118203*
X351477Y118516*
X352500Y120234D02*
X353182Y118047D01*
X353864Y120234D02*
X353182Y118047D01*
X355000Y118359D02*
X354886Y118203D01*
X355000Y118047*
X355114Y118203*
X355000Y118359*
X220000Y121328D02*
Y118047D01*
Y121328D02*
X221023D01*
X221364Y121172*
X221477Y121016*
X221591Y120703*
Y120391*
X221477Y120078*
X221364Y119922*
X221023Y119766*
X220000D02*
X221023D01*
X221364Y119609*
X221477Y119453*
X221591Y119141*
Y118672*
X221477Y118359*
X221364Y118203*
X221023Y118047*
X220000*
X223182Y120234D02*
X222955Y120078D01*
X222727Y119766*
X222614Y119297*
Y118984*
X222727Y118516*
X222955Y118203*
X223182Y118047*
X223523*
X223750Y118203*
X223977Y118516*
X224091Y118984*
Y119297*
X223977Y119766*
X223750Y120078*
X223523Y120234*
X223182*
X226477D02*
Y118047D01*
Y119766D02*
X226250Y120078D01*
X226023Y120234*
X225682*
X225455Y120078*
X225227Y119766*
X225114Y119297*
Y118984*
X225227Y118516*
X225455Y118203*
X225682Y118047*
X226023*
X226250Y118203*
X226477Y118516*
X227500Y120234D02*
Y118047D01*
Y119297D02*
X227614Y119766D01*
X227841Y120078*
X228068Y120234*
X228409*
X230795Y121328D02*
Y118047D01*
Y119766D02*
X230568Y120078D01*
X230341Y120234*
X230000*
X229773Y120078*
X229545Y119766*
X229432Y119297*
Y118984*
X229545Y118516*
X229773Y118203*
X230000Y118047*
X230341*
X230568Y118203*
X230795Y118516*
X234432Y121328D02*
Y118047D01*
Y121328D02*
X236023Y118047D01*
Y121328D02*
Y118047D01*
X237614Y120234D02*
X237386Y120078D01*
X237159Y119766*
X237045Y119297*
Y118984*
X237159Y118516*
X237386Y118203*
X237614Y118047*
X237955*
X238182Y118203*
X238409Y118516*
X238523Y118984*
Y119297*
X238409Y119766*
X238182Y120078*
X237955Y120234*
X237614*
X239659Y118359D02*
X239545Y118203D01*
X239659Y118047*
X239773Y118203*
X239659Y118359*
G54D18*
X339300Y489700D02*
X333300D01*
Y498700*
X339300*
Y489700*
X409600Y480700D02*
X403600D01*
Y489700*
X409600*
Y480700*
X400150Y532600D02*
X410650D01*
Y554100*
X400150*
Y532600*
X252000Y411500D02*
X258000D01*
Y402500*
X252000*
Y411500*
X407500Y375000D02*
X410000Y377500D01*
Y402500*
X407500Y405000*
X402500*
X400000Y402500*
Y377500*
X402500Y375000*
X407500*
Y205000D02*
X410000Y207500D01*
Y232500*
X407500Y235000*
X402500*
X400000Y232500*
Y207500*
X402500Y205000*
X407500*
X411800Y524300D02*
Y517300D01*
X398800*
Y524300*
X411800*
X398400Y346510D02*
X411500D01*
Y243510*
X398400*
Y346510*
X397500Y515600D02*
X399500D01*
Y516600*
X408500*
Y513100*
X410500*
Y508100*
X408500*
Y504600*
X399500*
Y505600*
X397500*
Y515600*
X399800Y530100D02*
X393800D01*
Y539100*
X399800*
Y530100*
X383600Y528000D02*
X385600D01*
Y529000*
X394600*
Y525500*
X396600*
Y520500*
X394600*
Y517000*
X385600*
Y518000*
X383600*
Y528000*
Y515100D02*
X385600D01*
Y516100*
X394600*
Y512600*
X396600*
Y507600*
X394600*
Y504100*
X385600*
Y505100*
X383600*
Y515100*
X380300Y540600D02*
X382300D01*
Y541600*
X391300*
Y538100*
X393300*
Y533100*
X391300*
Y529600*
X382300*
Y530600*
X380300*
Y540600*
X387500Y405000D02*
X390000Y407500D01*
Y432500*
X387500Y435000*
X382500*
X380000Y432500*
Y407500*
X382500Y405000*
X387500*
X377600Y553950D02*
Y543450D01*
X399100*
Y553950*
X377600*
X383500Y397500D02*
X374500D01*
Y382500*
X383500*
Y397500*
Y379500D02*
X374500D01*
Y364500*
X383500*
Y379500*
X379700Y528500D02*
X373700D01*
Y537500*
X379700*
Y528500*
X373400Y522000D02*
Y528000D01*
X382400*
Y522000*
X373400*
Y515700D02*
Y521700D01*
X382400*
Y515700*
X373400*
Y509500D02*
Y515500D01*
X382400*
Y509500*
X373400*
Y503300D02*
Y509300D01*
X382400*
Y503300*
X373400*
X379400Y493300D02*
X373400D01*
Y502300*
X379400*
Y493300*
X359081Y525816D02*
X365081D01*
Y516816*
X359081*
Y525816*
X365081Y507149D02*
X359081D01*
Y516149*
X365081*
Y507149*
X350114Y294266D02*
Y288266D01*
X341114*
Y294266*
X350114*
Y287001D02*
Y281001D01*
X341114*
Y287001*
X350114*
X347500Y425000D02*
X342500D01*
X340000Y422500*
Y407500*
X342500Y405000*
X347500*
X350000Y407500*
Y422500*
X347500Y425000*
X331762Y294267D02*
X338762D01*
Y281267*
X331762*
Y294267*
X343720Y545510D02*
Y552510D01*
X330220*
Y545510*
X343720*
X343388Y553456D02*
Y560456D01*
X329888*
Y553456*
X343388*
X327472Y273539D02*
X336528D01*
Y241531*
X327472*
Y273539*
X327281Y498704D02*
X333281D01*
Y489704*
X327281*
Y498704*
X324000Y554500D02*
X330000D01*
Y545500*
X324000*
Y554500*
X331500Y213000D02*
Y207000D01*
X322500*
Y213000*
X331500*
X329409Y560914D02*
Y554914D01*
X320409*
Y560914*
X329409*
X312500Y385000D02*
X317500D01*
X320000Y387500*
Y402500*
X317500Y405000*
X312500*
X310000Y402500*
Y387500*
X312500Y385000*
X308280Y213490D02*
Y206490D01*
X321780*
Y213490*
X308280*
X315100Y494400D02*
Y488400D01*
X306100*
Y494400*
X315100*
X301900Y561900D02*
X307900D01*
Y552900*
X301900*
Y561900*
X300000Y417500D02*
X302500Y415000D01*
X327500*
X330000Y417500*
Y422500*
X327500Y425000*
X302500*
X300000Y422500*
Y417500*
X330600Y323100D02*
Y288900D01*
X296400*
Y323100*
X330600*
X295400Y561900D02*
X301400D01*
Y552900*
X295400*
Y561900*
X288860Y295727D02*
X295860D01*
Y282727*
X288860*
Y295727*
X295720Y206510D02*
Y213510D01*
X282220*
Y206510*
X295720*
X281277Y505491D02*
X289232Y513446D01*
X300546Y502132*
X292591Y494177*
X281277Y505491*
X281240Y295657D02*
X288240D01*
Y282657*
X281240*
Y295657*
X278640Y561168D02*
X284640D01*
Y552168*
X278640*
Y561168*
X272500Y207000D02*
Y213000D01*
X281500*
Y207000*
X272500*
X300000Y392500D02*
X297500Y395000D01*
X272500*
X270000Y392500*
Y387500*
X272500Y385000*
X297500*
X300000Y387500*
Y392500*
X268538Y554685D02*
Y560685D01*
X277538*
Y554685*
X268538*
X265664Y531935D02*
X276164D01*
Y553435*
X265664*
Y531935*
X267500Y225000D02*
X262500D01*
X260000Y222500*
Y207500*
X262500Y205000*
X267500*
X270000Y207500*
Y222500*
X267500Y225000*
X250303Y511758D02*
Y517758D01*
X259303*
Y511758*
X250303*
X250259Y504477D02*
Y510477D01*
X259259*
Y504477*
X250259*
X246460Y494449D02*
X252460D01*
Y485449*
X246460*
Y494449*
X245822Y485433D02*
X239822D01*
Y494433*
X245822*
Y485433*
X248735Y517136D02*
Y511136D01*
X239735*
Y517136*
X248735*
X248641Y502811D02*
Y496811D01*
X239641*
Y502811*
X248641*
X221000Y538500D02*
X227000D01*
Y529500*
X221000*
Y538500*
X218400Y346510D02*
X231500D01*
Y243510*
X218400*
Y346510*
X394100Y491100D02*
X387100D01*
Y504100*
X394100*
Y491100*
G54D20*
X395485Y493107D02*
X395672Y492834D01*
X396235Y492425*
X392297*
X407125Y530927D02*
X410500D01*
X408812Y529700D02*
Y532155D01*
X431988Y447000D02*
X432175Y446727D01*
X432738Y446318*
X432738D02*
X428800D01*
X375927Y546975D02*
Y543600D01*
X374700Y545288D02*
X377155D01*
X347680Y554708D02*
X347953Y554895D01*
X348362Y555458*
X348362D02*
Y551520D01*
X328122Y290630D02*
X327935Y290903D01*
X327372Y291312*
X327372D02*
X331310D01*
X310349Y498201D02*
X310410Y498526D01*
X310303Y499213*
X313082Y496424*
X280980Y502385D02*
X281306Y502325D01*
X281993Y502433*
X279209Y499649*
X263200Y509988D02*
X263473Y510175D01*
X263882Y510738*
X263882D02*
Y506800D01*
X272639Y530262D02*
X276014D01*
X274326Y529035D02*
Y531490D01*
X219998Y512622D02*
X220271Y512810D01*
X220680Y513372*
Y509435*
X369686Y472237D02*
Y469237D01*
X369686D02*
X369550Y468675D01*
X369414Y468487*
X369414D02*
X369141Y468300D01*
X368868*
X368595Y468487*
X368595D02*
X368459Y468675D01*
X368323Y469237*
X368323D02*
Y469612D01*
X370914Y471487D02*
X371186Y471675D01*
X371595Y472237*
X371595D02*
Y468300D01*
X373095Y472237D02*
X374595D01*
X374595D02*
X373777Y470737D01*
X373777D02*
X374186D01*
X374186D02*
X374459Y470550D01*
X374595Y470362*
X374595D02*
X374732Y469800D01*
Y469425*
X374595Y468862*
X374595D02*
X374323Y468487D01*
X374323D02*
X373914Y468300D01*
X373505*
X373095Y468487*
X373095D02*
X372959Y468675D01*
X372823Y469050*
X211041Y456094D02*
Y453094D01*
X210905Y452531*
X210768Y452344*
X210495Y452156*
X210223*
X209950Y452344*
X209814Y452531*
X209677Y453094*
Y453469*
X212541Y456094D02*
X214041D01*
X213223Y454594*
X213632*
X213905Y454406*
X214041Y454219*
X214177Y453656*
Y453281*
X214041Y452719*
X213768Y452344*
X213359Y452156*
X212950*
X212541Y452344*
X212405Y452531*
X212268Y452906*
X329768Y487294D02*
Y483356D01*
X328814Y487294D02*
X330723D01*
X331950D02*
Y483356D01*
Y487294D02*
X333177D01*
X333586Y487106*
X333723Y486919*
X333859Y486544*
Y485981*
X333723Y485606*
X333586Y485419*
X333177Y485231*
X331950*
X335086Y486544D02*
X335359Y486731D01*
X335768Y487294*
Y483356*
X337814Y487294D02*
X337405Y487106D01*
X337132Y486544*
X336995Y485606*
Y485044*
X337132Y484106*
X337405Y483544*
X337814Y483356*
X338086*
X338495Y483544*
X338768Y484106*
X338905Y485044*
Y485606*
X338768Y486544*
X338495Y487106*
X338086Y487294*
X337814*
X340814D02*
X340405Y487106D01*
X340268Y486731*
Y486356*
X340405Y485981*
X340677Y485794*
X341223Y485606*
X341632Y485419*
X341905Y485044*
X342041Y484669*
Y484106*
X341905Y483731*
X341768Y483544*
X341359Y483356*
X340814*
X340405Y483544*
X340268Y483731*
X340132Y484106*
Y484669*
X340268Y485044*
X340541Y485419*
X340950Y485606*
X341495Y485794*
X341768Y485981*
X341905Y486356*
Y486731*
X341768Y487106*
X341359Y487294*
X340814*
X349882Y487794D02*
Y483856D01*
X348927Y487794D02*
X350836D01*
X352064D02*
Y483856D01*
Y487794D02*
X353291D01*
X353700Y487606*
X353836Y487419*
X353973Y487044*
Y486481*
X353836Y486106*
X353700Y485919*
X353291Y485731*
X352064*
X355200Y487044D02*
X355473Y487231D01*
X355882Y487794*
Y483856*
X357109Y487044D02*
X357382Y487231D01*
X357791Y487794*
Y483856*
X359836Y487794D02*
X359427Y487606D01*
X359155Y487044*
X359018Y486106*
Y485544*
X359155Y484606*
X359427Y484044*
X359836Y483856*
X360109*
X360518Y484044*
X360791Y484606*
X360927Y485544*
Y486106*
X360791Y487044*
X360518Y487606*
X360109Y487794*
X359836*
X398032Y498994D02*
Y495056D01*
X399668*
X400895Y498244D02*
X401168Y498431D01*
X401577Y498994*
Y495056*
X403623Y498994D02*
X403214Y498806D01*
X402941Y498244*
X402805Y497306*
Y496744*
X402941Y495806*
X403214Y495244*
X403623Y495056*
X403895*
X404305Y495244*
X404577Y495806*
X404714Y496744*
Y497306*
X404577Y498244*
X404305Y498806*
X403895Y498994*
X403623*
X405941Y498244D02*
X406214Y498431D01*
X406623Y498994*
Y495056*
X390600Y484894D02*
Y480956D01*
X393873Y483956D02*
X393736Y484331D01*
X393464Y484706*
X393191Y484894*
X392645*
X392373Y484706*
X392100Y484331*
X391964Y483956*
X391827Y483394*
Y482456*
X391964Y481894*
X392100Y481519*
X392373Y481144*
X392645Y480956*
X393191*
X393464Y481144*
X393736Y481519*
X393873Y481894*
X395100Y484144D02*
X395373Y484331D01*
X395782Y484894*
Y480956*
X397827Y484894D02*
X397418Y484706D01*
X397145Y484144*
X397009Y483206*
Y482644*
X397145Y481706*
X397418Y481144*
X397827Y480956*
X398100*
X398509Y481144*
X398782Y481706*
X398918Y482644*
Y483206*
X398782Y484144*
X398509Y484706*
X398100Y484894*
X397827*
X400418D02*
X401918D01*
X401100Y483394*
X401509*
X401782Y483206*
X401918Y483019*
X402055Y482456*
Y482081*
X401918Y481519*
X401645Y481144*
X401236Y480956*
X400827*
X400418Y481144*
X400282Y481331*
X400145Y481706*
X404744Y539427D02*
X404369Y539291D01*
X403994Y539018*
X403806Y538745*
Y538200*
X403994Y537927*
X404369Y537655*
X404744Y537518*
X405306Y537382*
X406244*
X406806Y537518*
X407181Y537655*
X407556Y537927*
X407744Y538200*
Y538745*
X407556Y539018*
X407181Y539291*
X406806Y539427*
X404556Y540655D02*
X404369Y540927D01*
X403806Y541336*
X407744*
X403806Y543382D02*
X403994Y542973D01*
X404556Y542700*
X405494Y542564*
X406056*
X406994Y542700*
X407556Y542973*
X407744Y543382*
Y543655*
X407556Y544064*
X406994Y544336*
X406056Y544473*
X405494*
X404556Y544336*
X403994Y544064*
X403806Y543655*
Y543382*
X405119Y547473D02*
X405681Y547336D01*
X406056Y547064*
X406244Y546655*
Y546518*
X406056Y546109*
X405681Y545836*
X405119Y545700*
X404931*
X404369Y545836*
X403994Y546109*
X403806Y546518*
Y546655*
X403994Y547064*
X404369Y547336*
X405119Y547473*
X406056*
X406994Y547336*
X407556Y547064*
X407744Y546655*
Y546382*
X407556Y545973*
X407181Y545836*
X346864Y513421D02*
Y509484D01*
X345909Y513421D02*
X347819D01*
X349046D02*
Y509484D01*
Y513421D02*
X350273D01*
X350682Y513234*
X350819Y513046*
X350955Y512671*
Y512109*
X350819Y511734*
X350682Y511546*
X350273Y511359*
X349046*
X352182Y512671D02*
X352455Y512859D01*
X352864Y513421*
Y509484*
X354091Y512671D02*
X354364Y512859D01*
X354773Y513421*
Y509484*
X357364Y513421D02*
X356000Y510796D01*
X358046*
X357364Y513421D02*
Y509484D01*
X427486Y435450D02*
Y432450D01*
X427350Y431887*
X427350D02*
X427214Y431700D01*
X426941Y431512*
X426941D02*
X426668D01*
X426668D02*
X426395Y431700D01*
X426259Y431887*
X426259D02*
X426123Y432450D01*
Y432825*
X428850Y434513D02*
Y434700D01*
X428986Y435075*
X429123Y435263*
X429123D02*
X429395Y435450D01*
X429941*
X430214Y435263*
X430214D02*
X430350Y435075D01*
X430486Y434700*
Y434325*
X430350Y433950*
X430077Y433387*
X430077D02*
X428714Y431512D01*
X428714D02*
X430623D01*
X431850Y434700D02*
X432123Y434888D01*
X432123D02*
X432532Y435450D01*
Y431512*
X402286Y387750D02*
Y384750D01*
X402150Y384188*
X402150D02*
X402014Y384000D01*
X401741Y383813*
X401741D02*
X401468D01*
X401468D02*
X401195Y384000D01*
X401059Y384188*
X401059D02*
X400923Y384750D01*
Y385125*
X403514Y387000D02*
X403786Y387188D01*
X403786D02*
X404195Y387750D01*
Y383813*
X405559Y386813D02*
Y387000D01*
X405695Y387375*
X405832Y387563*
X405832D02*
X406105Y387750D01*
X406650*
X406923Y387563*
X406923D02*
X407059Y387375D01*
X407195Y387000*
Y386625*
X407059Y386250*
X406786Y385688*
X406786D02*
X405423Y383813D01*
X405423D02*
X407332D01*
X404042Y217537D02*
Y214537D01*
X404042D02*
X403906Y213975D01*
X403769Y213787*
X403769D02*
X403497Y213600D01*
X403224*
X402951Y213787*
X402951D02*
X402815Y213975D01*
X402678Y214537*
X402678D02*
Y214912D01*
X405269Y216787D02*
X405542Y216975D01*
X405951Y217537*
X405951D02*
Y213600D01*
X403873Y258694D02*
Y255694D01*
X403736Y255131*
X403600Y254944*
X403327Y254756*
X403055*
X402782Y254944*
X402645Y255131*
X402509Y255694*
Y256069*
X406873Y258694D02*
X405509D01*
X405373Y257006*
X405509Y257194*
X405918Y257381*
X406327*
X406736Y257194*
X407009Y256819*
X407145Y256256*
X407009Y255881*
X406873Y255319*
X406600Y254944*
X406191Y254756*
X405782*
X405373Y254944*
X405236Y255131*
X405100Y255506*
X399650Y511894D02*
Y507956D01*
X398695Y511894D02*
X400605D01*
X401832Y511144D02*
X402105Y511331D01*
X402514Y511894*
Y507956*
X404559Y511894D02*
X404150Y511706D01*
X403877Y511144*
X403741Y510206*
Y509644*
X403877Y508706*
X404150Y508144*
X404559Y507956*
X404832*
X405241Y508144*
X405514Y508706*
X405650Y509644*
Y510206*
X405514Y511144*
X405241Y511706*
X404832Y511894*
X404559*
X406877Y511144D02*
X407150Y511331D01*
X407559Y511894*
Y507956*
X384936Y523894D02*
Y519956D01*
X383982Y523894D02*
X385891D01*
X387118Y523144D02*
X387391Y523331D01*
X387800Y523894*
Y519956*
X389845Y523894D02*
X389436Y523706D01*
X389164Y523144*
X389027Y522206*
Y521644*
X389164Y520706*
X389436Y520144*
X389845Y519956*
X390118*
X390527Y520144*
X390800Y520706*
X390936Y521644*
Y522206*
X390800Y523144*
X390527Y523706*
X390118Y523894*
X389845*
X392300Y522956D02*
Y523144D01*
X392436Y523519*
X392573Y523706*
X392845Y523894*
X393391*
X393664Y523706*
X393800Y523519*
X393936Y523144*
Y522769*
X393800Y522394*
X393527Y521831*
X392164Y519956*
X394073*
X384782Y511594D02*
Y507656D01*
Y511594D02*
X385736D01*
X386145Y511406*
X386418Y511031*
X386555Y510656*
X386691Y510094*
Y509156*
X386555Y508594*
X386418Y508219*
X386145Y507844*
X385736Y507656*
X384782*
X387918Y510844D02*
X388191Y511031D01*
X388600Y511594*
Y507656*
X390645Y511594D02*
X390236Y511406D01*
X389964Y510844*
X389827Y509906*
Y509344*
X389964Y508406*
X390236Y507844*
X390645Y507656*
X390918*
X391327Y507844*
X391600Y508406*
X391736Y509344*
Y509906*
X391600Y510844*
X391327Y511406*
X390918Y511594*
X390645*
X393100Y510656D02*
Y510844D01*
X393236Y511219*
X393373Y511406*
X393645Y511594*
X394191*
X394464Y511406*
X394600Y511219*
X394736Y510844*
Y510469*
X394600Y510094*
X394327Y509531*
X392964Y507656*
X394873*
X389650Y540305D02*
X385712D01*
X389650D02*
Y539350D01*
X389463Y538941*
X389463D02*
X389088Y538668D01*
X389088D02*
X388713Y538532D01*
X388713D02*
X388150Y538395D01*
X387212*
X387212D02*
X386650Y538532D01*
X386275Y538668*
X385900Y538941*
X385712Y539350*
X385712D02*
Y540305D01*
X388900Y537168D02*
X389088Y536895D01*
X389088D02*
X389650Y536486D01*
X385712*
X389650Y534441D02*
X389463Y534850D01*
X389463D02*
X388900Y535123D01*
X387962Y535259*
X387962D02*
X387400D01*
X386462Y535123*
X386462D02*
X385900Y534850D01*
X385712Y534441*
X385712D02*
Y534168D01*
X385712D02*
X385900Y533759D01*
X386462Y533486*
X386462D02*
X387400Y533350D01*
X387962*
X387962D02*
X388900Y533486D01*
X389463Y533759*
X389463D02*
X389650Y534168D01*
Y534441*
X388900Y532123D02*
X389088Y531850D01*
X389088D02*
X389650Y531441D01*
X385712*
X382486Y431338D02*
Y428338D01*
X382486D02*
X382350Y427775D01*
X382214Y427588*
X382214D02*
X381941Y427400D01*
X381668*
X381395Y427588*
X381395D02*
X381259Y427775D01*
X381123Y428338*
X381123D02*
Y428713D01*
X383714Y430588D02*
X383986Y430775D01*
X384395Y431338*
X384395D02*
Y427400D01*
X386441Y431338D02*
X386032Y431150D01*
X385759Y430588*
X385759D02*
X385623Y429650D01*
Y429088*
X385623D02*
X385759Y428150D01*
X386032Y427588*
X386032D02*
X386441Y427400D01*
X386714*
X387123Y427588*
X387123D02*
X387395Y428150D01*
X387532Y429088*
X387532D02*
Y429650D01*
X387395Y430588*
X387395D02*
X387123Y431150D01*
X386714Y431338*
X386714D02*
X386441D01*
X384427Y549356D02*
X384291Y549731D01*
X384018Y550106*
X383745Y550294*
X383200*
X382927Y550106*
X382655Y549731*
X382518Y549356*
X382382Y548794*
Y547856*
X382518Y547294*
X382655Y546919*
X382927Y546544*
X383200Y546356*
X383745*
X384018Y546544*
X384291Y546919*
X384427Y547294*
X385655Y549544D02*
X385927Y549731D01*
X386336Y550294*
Y546356*
X388382Y550294D02*
X387973Y550106D01*
X387700Y549544*
X387564Y548606*
Y548044*
X387700Y547106*
X387973Y546544*
X388382Y546356*
X388655*
X389064Y546544*
X389336Y547106*
X389473Y548044*
Y548606*
X389336Y549544*
X389064Y550106*
X388655Y550294*
X388382*
X392336Y549731D02*
X392200Y550106D01*
X391791Y550294*
X391518*
X391109Y550106*
X390836Y549544*
X390700Y548606*
Y547669*
X390836Y546919*
X391109Y546544*
X391518Y546356*
X391655*
X392064Y546544*
X392336Y546919*
X392473Y547481*
Y547669*
X392336Y548231*
X392064Y548606*
X391655Y548794*
X391518*
X391109Y548606*
X390836Y548231*
X390700Y547669*
X375805Y391344D02*
Y387406D01*
Y391344D02*
X377032D01*
X377441Y391156*
X377577Y390969*
X377714Y390594*
Y390219*
X377577Y389844*
X377441Y389656*
X377032Y389469*
X375805*
X376759D02*
X377714Y387406D01*
X379077Y390406D02*
Y390594D01*
X379214Y390969*
X379350Y391156*
X379623Y391344*
X380168*
X380441Y391156*
X380577Y390969*
X380714Y390594*
Y390219*
X380577Y389844*
X380305Y389281*
X378941Y387406*
X380850*
X375805Y373344D02*
Y369406D01*
Y373344D02*
X377032D01*
X377441Y373156*
X377577Y372969*
X377714Y372594*
Y372219*
X377577Y371844*
X377441Y371656*
X377032Y371469*
X375805*
X376759D02*
X377714Y369406D01*
X380850Y373344D02*
X379486Y369406D01*
X378941Y373344D02*
X380850D01*
X346991Y523525D02*
Y519588D01*
X346037Y523525D02*
X347946D01*
X349173D02*
Y519588D01*
Y523525D02*
X350400D01*
X350809Y523338*
X350946Y523150*
X351082Y522775*
Y522213*
X350946Y521838*
X350809Y521650*
X350400Y521463*
X349173*
X352309Y522775D02*
X352582Y522963D01*
X352991Y523525*
Y519588*
X354219Y522775D02*
X354491Y522963D01*
X354900Y523525*
Y519588*
X356400Y523525D02*
X357900D01*
X357082Y522025*
X357491*
X357764Y521838*
X357900Y521650*
X358037Y521088*
Y520713*
X357900Y520150*
X357628Y519775*
X357219Y519588*
X356809*
X356400Y519775*
X356264Y519963*
X356128Y520338*
X348109Y547874D02*
Y543936D01*
Y547874D02*
X349200Y543936D01*
X350291Y547874D02*
X349200Y543936D01*
X350291Y547874D02*
Y543936D01*
X353427Y547311D02*
X353155Y547686D01*
X352745Y547874*
X352200*
X351791Y547686*
X351518Y547311*
Y546936*
X351655Y546561*
X351791Y546374*
X352064Y546186*
X352882Y545811*
X353155Y545624*
X353291Y545436*
X353427Y545061*
Y544499*
X353155Y544124*
X352745Y543936*
X352200*
X351791Y544124*
X351518Y544499*
X354655Y547874D02*
Y543936D01*
Y547874D02*
X355882D01*
X356291Y547686*
X356427Y547499*
X356564Y547124*
Y546561*
X356427Y546186*
X356291Y545999*
X355882Y545811*
X354655*
X357791Y547124D02*
X358064Y547311D01*
X358473Y547874*
Y543936*
X360518Y547874D02*
X360109Y547686D01*
X359836Y547124*
X359700Y546186*
Y545624*
X359836Y544686*
X360109Y544124*
X360518Y543936*
X360791*
X361200Y544124*
X361473Y544686*
X361609Y545624*
Y546186*
X361473Y547124*
X361200Y547686*
X360791Y547874*
X360518*
X362973Y546936D02*
Y547124D01*
X363109Y547499*
X363245Y547686*
X363518Y547874*
X364064*
X364336Y547686*
X364473Y547499*
X364609Y547124*
Y546749*
X364473Y546374*
X364200Y545811*
X362836Y543936*
X364745*
X353914Y221931D02*
X353641Y222306D01*
X353232Y222494*
X352686*
X352277Y222306*
X352005Y221931*
Y221556*
X352141Y221181*
X352277Y220994*
X352550Y220806*
X353368Y220431*
X353641Y220244*
X353777Y220056*
X353914Y219681*
Y219119*
X353641Y218744*
X353232Y218556*
X352686*
X352277Y218744*
X352005Y219119*
X355277Y221556D02*
Y221744D01*
X355414Y222119*
X355550Y222306*
X355823Y222494*
X356368*
X356641Y222306*
X356777Y222119*
X356914Y221744*
Y221369*
X356777Y220994*
X356505Y220431*
X355141Y218556*
X357050*
X338536Y480994D02*
Y477056D01*
X337582Y480994D02*
X339491D01*
X340718D02*
Y477056D01*
Y480994D02*
X341945D01*
X342355Y480806*
X342491Y480619*
X342627Y480244*
Y479681*
X342491Y479306*
X342355Y479119*
X341945Y478931*
X340718*
X343855Y480244D02*
X344127Y480431D01*
X344536Y480994*
Y477056*
X346582Y480994D02*
X346173Y480806D01*
X345900Y480244*
X345764Y479306*
Y478744*
X345900Y477806*
X346173Y477244*
X346582Y477056*
X346855*
X347264Y477244*
X347536Y477806*
X347673Y478744*
Y479306*
X347536Y480244*
X347264Y480806*
X346855Y480994*
X346582*
X350673Y479681D02*
X350536Y479119D01*
X350264Y478744*
X349855Y478556*
X349718*
X349309Y478744*
X349036Y479119*
X348900Y479681*
Y479869*
X349036Y480431*
X349309Y480806*
X349718Y480994*
X349855*
X350264Y480806*
X350536Y480431*
X350673Y479681*
Y478744*
X350536Y477806*
X350264Y477244*
X349855Y477056*
X349582*
X349173Y477244*
X349036Y477619*
X345938Y417400D02*
X342938D01*
X342938D02*
X342375Y417536D01*
X342188Y417673*
X342188D02*
X342000Y417945D01*
Y418218*
X342188Y418491*
X342188D02*
X342375Y418627D01*
X342938Y418764*
X342938D02*
X343313D01*
X345188Y416173D02*
X345375Y415900D01*
X345938Y415491*
X345938D02*
X342000D01*
X345188Y414264D02*
X345375Y413991D01*
X345938Y413582*
X345938D02*
X342000D01*
X350045Y381000D02*
X349909Y381375D01*
X349636Y381750*
X349364Y381937*
X349364D02*
X348818D01*
X348818D02*
X348545Y381750D01*
X348273Y381375*
X348136Y381000*
X348000Y380437*
X348000D02*
Y379500D01*
X348136Y378937*
X348136D02*
X348273Y378562D01*
X348273D02*
X348545Y378187D01*
X348545D02*
X348818Y378000D01*
X349364*
X349636Y378187*
X349636D02*
X349909Y378562D01*
X349909D02*
X350045Y378937D01*
X353182Y381937D02*
X351818Y378000D01*
X351273Y381937D02*
X353182D01*
X318868Y480694D02*
Y476756D01*
X317914Y480694D02*
X319823D01*
X321050D02*
Y476756D01*
Y480694D02*
X322277D01*
X322686Y480506*
X322823Y480319*
X322959Y479944*
Y479381*
X322823Y479006*
X322686Y478819*
X322277Y478631*
X321050*
X324186Y479944D02*
X324459Y480131D01*
X324868Y480694*
Y476756*
X326914Y480694D02*
X326505Y480506D01*
X326232Y479944*
X326095Y479006*
Y478444*
X326232Y477506*
X326505Y476944*
X326914Y476756*
X327186*
X327595Y476944*
X327868Y477506*
X328005Y478444*
Y479006*
X327868Y479944*
X327595Y480506*
X327186Y480694*
X326914*
X331141D02*
X329777Y476756D01*
X329232Y480694D02*
X331141D01*
X308536Y486994D02*
Y483056D01*
X307582Y486994D02*
X309491D01*
X310718D02*
Y483056D01*
Y486994D02*
X311945D01*
X312355Y486806*
X312491Y486619*
X312627Y486244*
Y485681*
X312491Y485306*
X312355Y485119*
X311945Y484931*
X310718*
X313855Y486244D02*
X314127Y486431D01*
X314536Y486994*
Y483056*
X316582Y486994D02*
X316173Y486806D01*
X315900Y486244*
X315764Y485306*
Y484744*
X315900Y483806*
X316173Y483244*
X316582Y483056*
X316855*
X317264Y483244*
X317536Y483806*
X317673Y484744*
Y485306*
X317536Y486244*
X317264Y486806*
X316855Y486994*
X316582*
X320536Y486431D02*
X320400Y486806D01*
X319991Y486994*
X319718*
X319309Y486806*
X319036Y486244*
X318900Y485306*
Y484369*
X319036Y483619*
X319309Y483244*
X319718Y483056*
X319855*
X320264Y483244*
X320536Y483619*
X320673Y484181*
Y484369*
X320536Y484931*
X320264Y485306*
X319855Y485494*
X319718*
X319309Y485306*
X319036Y484931*
X318900Y484369*
X313509Y397338D02*
Y394338D01*
X313509D02*
X313373Y393775D01*
X313236Y393588*
X313236D02*
X312964Y393400D01*
X312691*
X312418Y393588*
X312418D02*
X312282Y393775D01*
X312145Y394338*
X312145D02*
Y394713D01*
X316509Y396025D02*
X316373Y395463D01*
X316373D02*
X316100Y395088D01*
X316100D02*
X315691Y394900D01*
X315555*
X315145Y395088*
X315145D02*
X314873Y395463D01*
X314873D02*
X314736Y396025D01*
Y396213*
X314736D02*
X314873Y396775D01*
X315145Y397150*
X315555Y397338*
X315555D02*
X315691D01*
X315691D02*
X316100Y397150D01*
X316373Y396775*
X316509Y396025*
Y395088*
X316509D02*
X316373Y394150D01*
X316100Y393588*
X316100D02*
X315691Y393400D01*
X315418*
X315009Y393588*
X315009D02*
X314873Y393963D01*
X298900Y481194D02*
Y477256D01*
X297945Y481194D02*
X299855D01*
X301082D02*
Y477256D01*
Y481194D02*
X302309D01*
X302718Y481006*
X302855Y480819*
X302991Y480444*
Y479881*
X302855Y479506*
X302718Y479319*
X302309Y479131*
X301082*
X304218Y480444D02*
X304491Y480631D01*
X304900Y481194*
Y477256*
X306945Y481194D02*
X306536Y481006D01*
X306264Y480444*
X306127Y479506*
Y478944*
X306264Y478006*
X306536Y477444*
X306945Y477256*
X307218*
X307627Y477444*
X307900Y478006*
X308036Y478944*
Y479506*
X307900Y480444*
X307627Y481006*
X307218Y481194*
X306945*
X311036D02*
X309673D01*
X309536Y479506*
X309673Y479694*
X310082Y479881*
X310491*
X310900Y479694*
X311173Y479319*
X311309Y478756*
X311173Y478381*
X311036Y477819*
X310764Y477444*
X310355Y477256*
X309945*
X309536Y477444*
X309400Y477631*
X309264Y478006*
X309641Y422050D02*
Y419050D01*
X309505Y418488*
X309505D02*
X309368Y418300D01*
X309095Y418113*
X309095D02*
X308823D01*
X308823D02*
X308550Y418300D01*
X308414Y418488*
X308414D02*
X308277Y419050D01*
Y419425*
X311005Y421113D02*
Y421300D01*
X311141Y421675*
X311277Y421863*
X311277D02*
X311550Y422050D01*
X312095*
X312368Y421863*
X312368D02*
X312505Y421675D01*
X312641Y421300*
Y420925*
X312505Y420550*
X312232Y419988*
X312232D02*
X310868Y418113D01*
X310868D02*
X312777D01*
X310918Y307644D02*
Y304831D01*
X311055Y304269*
X311327Y303894*
X311736Y303706*
X312009*
X312418Y303894*
X312691Y304269*
X312827Y304831*
Y307644*
X314055Y306894D02*
X314327Y307081D01*
X314736Y307644*
Y303706*
X288000Y486794D02*
Y482856D01*
X287045Y486794D02*
X288955D01*
X290182D02*
Y482856D01*
Y486794D02*
X291409D01*
X291818Y486606*
X291955Y486419*
X292091Y486044*
Y485481*
X291955Y485106*
X291818Y484919*
X291409Y484731*
X290182*
X293318Y486044D02*
X293591Y486231D01*
X294000Y486794*
Y482856*
X296045Y486794D02*
X295636Y486606D01*
X295364Y486044*
X295227Y485106*
Y484544*
X295364Y483606*
X295636Y483044*
X296045Y482856*
X296318*
X296727Y483044*
X297000Y483606*
X297136Y484544*
Y485106*
X297000Y486044*
X296727Y486606*
X296318Y486794*
X296045*
X299727D02*
X298364Y484169D01*
X300409*
X299727Y486794D02*
Y482856D01*
X305066Y521274D02*
X307846Y518485D01*
X305066Y521274D02*
X308618Y519255D01*
X306612Y522814D02*
X308618Y519255D01*
X306612Y522814D02*
X309391Y520025D01*
X309230Y524630D02*
X308773Y524703D01*
X308350Y524547*
X307964Y524162*
X307807Y523740*
X307878Y523282*
X308143Y523017*
X308504Y522847*
X308733Y522811*
X309059Y522870*
X309903Y523182*
X310228Y523242*
X310457Y523205*
X310819Y523036*
X311216Y522638*
X311287Y522179*
X311130Y521758*
X310743Y521373*
X310321Y521217*
X309863Y521290*
X309703Y525895D02*
X312482Y523105D01*
X309703Y525895D02*
X310572Y526761D01*
X310994Y526917*
X311223Y526880*
X311584Y526711*
X311981Y526312*
X312150Y525950*
X312185Y525721*
X312028Y525300*
X311159Y524434*
X312454Y527577D02*
X312515Y527902D01*
X312407Y528590*
X315187Y525801*
X313856Y530033D02*
X313699Y529612D01*
X313903Y529021*
X314468Y528261*
X314865Y527862*
X315623Y527294*
X316213Y527088*
X316636Y527244*
X316829Y527437*
X316986Y527858*
X316782Y528449*
X316217Y529210*
X315820Y529608*
X315062Y530176*
X314471Y530382*
X314049Y530226*
X313856Y530033*
X316028Y531139D02*
X316088Y531464D01*
X315981Y532151*
X318761Y529362*
X286746Y501900D02*
X286685Y501574D01*
X286758Y501116*
X286927Y500755*
X286927D02*
X287228Y500260D01*
X287891Y499597*
X288385Y499296*
X288746Y499127*
X288746D02*
X289205Y499055D01*
X289530Y499115*
X289916Y499501*
X289976Y499827*
X289904Y500285*
X289735Y500646*
X289434Y501140*
X288771Y501803*
X288276Y502105*
X287915Y502273*
X287457Y502346*
X287131Y502285*
X286746Y501900*
X289289Y499935D02*
X290663Y499718D01*
X289108Y503201D02*
X289168Y503527D01*
X289060Y504214*
X291844Y501430*
X290506Y505660D02*
X290350Y505238D01*
X290554Y504648*
X291121Y503888*
X291519Y503491*
X292278Y502924*
X292869Y502719*
X293290Y502876*
X293483Y503069*
X293640Y503491*
X293435Y504081*
X292869Y504841*
X292471Y505238*
X291712Y505805*
X291121Y506010*
X290699Y505853*
X290506Y505660*
X292676Y506769D02*
X292736Y507094D01*
X292628Y507781*
X295412Y504997*
X287282Y257594D02*
X288373Y255719D01*
Y253656*
X289464Y257594D02*
X288373Y255719D01*
X290691Y256844D02*
X290964Y257031D01*
X291373Y257594*
Y253656*
X278041Y392350D02*
Y389350D01*
X277905Y388788*
X277905D02*
X277768Y388600D01*
X277495Y388413*
X277495D02*
X277223D01*
X277223D02*
X276950Y388600D01*
X276814Y388788*
X276814D02*
X276677Y389350D01*
Y389725*
X279950Y392350D02*
X279541Y392163D01*
X279541D02*
X279405Y391788D01*
X279405D02*
Y391413D01*
X279405D02*
X279541Y391038D01*
X279541D02*
X279814Y390850D01*
X280359Y390663*
X280359D02*
X280768Y390475D01*
X281041Y390100*
X281177Y389725*
Y389163*
X281177D02*
X281041Y388788D01*
X281041D02*
X280905Y388600D01*
X280495Y388413*
X280495D02*
X279950D01*
X279950D02*
X279541Y388600D01*
X279405Y388788*
X279405D02*
X279268Y389163D01*
X279268D02*
Y389725D01*
X279405Y390100*
X279677Y390475*
X280086Y390663*
X280086D02*
X280632Y390850D01*
X280905Y391038*
X280905D02*
X281041Y391413D01*
X281041D02*
Y391788D01*
X281041D02*
X280905Y392163D01*
X280905D02*
X280495Y392350D01*
X279950*
X267606Y507114D02*
X271544D01*
X268544Y510386D02*
X268169Y510250D01*
X267794Y509977*
X267606Y509705*
Y509159*
X267794Y508886*
X268169Y508614*
X268544Y508477*
X269106Y508341*
X270044*
X270606Y508477*
X270981Y508614*
X271356Y508886*
X271544Y509159*
Y509705*
X271356Y509977*
X270981Y510250*
X270606Y510386*
X268356Y511614D02*
X268169Y511886D01*
X267606Y512295*
X271544*
X267606Y514341D02*
X267794Y513932D01*
X268356Y513659*
X269294Y513523*
X269856*
X270794Y513659*
X271356Y513932*
X271544Y514341*
Y514614*
X271356Y515023*
X270794Y515295*
X269856Y515432*
X269294*
X268356Y515295*
X267794Y515023*
X267606Y514614*
Y514341*
X268356Y516659D02*
X268169Y516932D01*
X267606Y517341*
X271544*
X270258Y538626D02*
X269883Y538490D01*
X269508Y538217*
X269320Y537944*
Y537399*
X269508Y537126*
X269883Y536853*
X270258Y536717*
X270820Y536581*
X271758*
X272320Y536717*
X272695Y536853*
X273070Y537126*
X273258Y537399*
Y537944*
X273070Y538217*
X272695Y538490*
X272320Y538626*
X270070Y539853D02*
X269883Y540126D01*
X269320Y540535*
X273258*
X269320Y542581D02*
X269508Y542171D01*
X270070Y541899*
X271008Y541762*
X271570*
X272508Y541899*
X273070Y542171*
X273258Y542581*
Y542853*
X273070Y543262*
X272508Y543535*
X271570Y543671*
X271008*
X270070Y543535*
X269508Y543262*
X269320Y542853*
Y542581*
Y546262D02*
X271945Y544899D01*
Y546944*
X269320Y546262D02*
X273258D01*
X266938Y216091D02*
X263938D01*
X263938D02*
X263375Y216227D01*
X263188Y216364*
X263188D02*
X263000Y216636D01*
Y216909*
X263188Y217182*
X263188D02*
X263375Y217318D01*
X263938Y217455*
X263938D02*
X264313D01*
X266375Y213227D02*
X266750Y213364D01*
X266938Y213773*
X266938D02*
Y214045D01*
X266938D02*
X266750Y214455D01*
X266188Y214727*
X266188D02*
X265250Y214864D01*
X264313*
X264313D02*
X263563Y214727D01*
X263563D02*
X263188Y214455D01*
X263188D02*
X263000Y214045D01*
Y213909*
X263188Y213500*
X263188D02*
X263563Y213227D01*
X263563D02*
X264125Y213091D01*
X264313*
X264313D02*
X264875Y213227D01*
X265250Y213500*
X265438Y213909*
X265438D02*
Y214045D01*
X265438D02*
X265250Y214455D01*
X264875Y214727*
X264313Y214864*
X233514Y400131D02*
X233241Y400506D01*
X232832Y400694*
X232286*
X231877Y400506*
X231605Y400131*
Y399756*
X231741Y399381*
X231877Y399194*
X232150Y399006*
X232968Y398631*
X233241Y398444*
X233377Y398256*
X233514Y397881*
Y397319*
X233241Y396944*
X232832Y396756*
X232286*
X231877Y396944*
X231605Y397319*
X235014Y400694D02*
X236514D01*
X235695Y399194*
X236105*
X236377Y399006*
X236514Y398819*
X236650Y398256*
Y397881*
X236514Y397319*
X236241Y396944*
X235832Y396756*
X235423*
X235014Y396944*
X234877Y397131*
X234741Y397506*
X234527Y221931D02*
X234255Y222306D01*
X233845Y222494*
X233300*
X232891Y222306*
X232618Y221931*
Y221556*
X232755Y221181*
X232891Y220994*
X233164Y220806*
X233982Y220431*
X234255Y220244*
X234391Y220056*
X234527Y219681*
Y219119*
X234255Y218744*
X233845Y218556*
X233300*
X232891Y218744*
X232618Y219119*
X235755Y221744D02*
X236027Y221931D01*
X236436Y222494*
Y218556*
X218500Y514394D02*
Y510456D01*
X221773Y513456D02*
X221636Y513831D01*
X221364Y514206*
X221091Y514394*
X220545*
X220273Y514206*
X220000Y513831*
X219864Y513456*
X219727Y512894*
Y511956*
X219864Y511394*
X220000Y511019*
X220273Y510644*
X220545Y510456*
X221091*
X221364Y510644*
X221636Y511019*
X221773Y511394*
X223000Y513644D02*
X223273Y513831D01*
X223682Y514394*
Y510456*
X225727Y514394D02*
X225318Y514206D01*
X225045Y513644*
X224909Y512706*
Y512144*
X225045Y511206*
X225318Y510644*
X225727Y510456*
X226000*
X226409Y510644*
X226682Y511206*
X226818Y512144*
Y512706*
X226682Y513644*
X226409Y514206*
X226000Y514394*
X225727*
X228182Y513456D02*
Y513644D01*
X228318Y514019*
X228455Y514206*
X228727Y514394*
X229273*
X229545Y514206*
X229682Y514019*
X229818Y513644*
Y513269*
X229682Y512894*
X229409Y512331*
X228045Y510456*
X229955*
X219282Y501694D02*
Y497756D01*
X218327Y501694D02*
X220236D01*
X221464D02*
Y497756D01*
Y501694D02*
X222691D01*
X223100Y501506*
X223236Y501319*
X223373Y500944*
Y500381*
X223236Y500006*
X223100Y499819*
X222691Y499631*
X221464*
X224600Y500944D02*
X224873Y501131D01*
X225282Y501694*
Y497756*
X227327Y501694D02*
X226918Y501506D01*
X226645Y500944*
X226509Y500006*
Y499444*
X226645Y498506*
X226918Y497944*
X227327Y497756*
X227600*
X228009Y497944*
X228282Y498506*
X228418Y499444*
Y500006*
X228282Y500944*
X228009Y501506*
X227600Y501694*
X227327*
X229645Y500944D02*
X229918Y501131D01*
X230327Y501694*
Y497756*
X218668Y491694D02*
Y487756D01*
X217714Y491694D02*
X219623D01*
X220850D02*
Y487756D01*
Y491694D02*
X222077D01*
X222486Y491506*
X222623Y491319*
X222759Y490944*
Y490381*
X222623Y490006*
X222486Y489819*
X222077Y489631*
X220850*
X223986Y490944D02*
X224259Y491131D01*
X224668Y491694*
Y487756*
X226714Y491694D02*
X226305Y491506D01*
X226032Y490944*
X225895Y490006*
Y489444*
X226032Y488506*
X226305Y487944*
X226714Y487756*
X226986*
X227395Y487944*
X227668Y488506*
X227805Y489444*
Y490006*
X227668Y490944*
X227395Y491506*
X226986Y491694*
X226714*
X229168Y490756D02*
Y490944D01*
X229305Y491319*
X229441Y491506*
X229714Y491694*
X230259*
X230532Y491506*
X230668Y491319*
X230805Y490944*
Y490569*
X230668Y490194*
X230395Y489631*
X229032Y487756*
X230941*
X218668Y481494D02*
Y477556D01*
X217714Y481494D02*
X219623D01*
X220850D02*
Y477556D01*
Y481494D02*
X222077D01*
X222486Y481306*
X222623Y481119*
X222759Y480744*
Y480181*
X222623Y479806*
X222486Y479619*
X222077Y479431*
X220850*
X223986Y480744D02*
X224259Y480931D01*
X224668Y481494*
Y477556*
X226714Y481494D02*
X226305Y481306D01*
X226032Y480744*
X225895Y479806*
Y479244*
X226032Y478306*
X226305Y477744*
X226714Y477556*
X226986*
X227395Y477744*
X227668Y478306*
X227805Y479244*
Y479806*
X227668Y480744*
X227395Y481306*
X226986Y481494*
X226714*
X229305D02*
X230805D01*
X229986Y479994*
X230395*
X230668Y479806*
X230805Y479619*
X230941Y479056*
Y478681*
X230805Y478119*
X230532Y477744*
X230123Y477556*
X229714*
X229305Y477744*
X229168Y477931*
X229032Y478306*
X222373Y260194D02*
Y257194D01*
X222236Y256631*
X222100Y256444*
X221827Y256256*
X221555*
X221282Y256444*
X221145Y256631*
X221009Y257194*
Y257569*
X224964Y260194D02*
X223600Y257569D01*
X225645*
X224964Y260194D02*
Y256256D01*
X301000Y94438D02*
Y90500D01*
X302636*
X305500Y93125D02*
Y90500D01*
Y92563D02*
X305227Y92938D01*
X305227D02*
X304955Y93125D01*
X304545*
X304273Y92938*
X304273D02*
X304000Y92563D01*
X304000D02*
X303864Y92000D01*
Y91625*
X304000Y91063*
X304000D02*
X304273Y90688D01*
X304273D02*
X304545Y90500D01*
X304955*
X305227Y90688*
X305227D02*
X305500Y91063D01*
X306727Y93125D02*
Y91250D01*
X306864Y90688*
X306864D02*
X307136Y90500D01*
X307545*
X307818Y90688*
X307818D02*
X308227Y91250D01*
Y93125D02*
Y90500D01*
X309455Y93125D02*
Y90500D01*
Y92375D02*
X309864Y92938D01*
X309864D02*
X310136Y93125D01*
X310545*
X310818Y92938*
X310818D02*
X310955Y92375D01*
Y90500*
X313818Y92563D02*
X313545Y92938D01*
X313545D02*
X313273Y93125D01*
X312864*
X312591Y92938*
X312591D02*
X312318Y92563D01*
X312318D02*
X312182Y92000D01*
Y91625*
X312318Y91063*
X312318D02*
X312591Y90688D01*
X312591D02*
X312864Y90500D01*
X313273*
X313545Y90688*
X313545D02*
X313818Y91063D01*
X315045Y94438D02*
Y90500D01*
Y92375D02*
X315455Y92938D01*
X315455D02*
X315727Y93125D01*
X316136*
X316409Y92938*
X316409D02*
X316545Y92375D01*
Y90500*
X317773Y94438D02*
Y90500D01*
Y94438D02*
X319000D01*
X319000D02*
X319409Y94250D01*
X319545Y94063*
X319545D02*
X319682Y93688D01*
X319682D02*
Y93125D01*
X319545Y92750*
X319409Y92563*
X319409D02*
X319000Y92375D01*
X317773*
X322545Y93125D02*
Y90500D01*
Y92563D02*
X322273Y92938D01*
X322273D02*
X322000Y93125D01*
X321591*
X321318Y92938*
X321318D02*
X321045Y92563D01*
X321045D02*
X320909Y92000D01*
Y91625*
X321045Y91063*
X321045D02*
X321318Y90688D01*
X321318D02*
X321591Y90500D01*
X322000*
X322273Y90688*
X322273D02*
X322545Y91063D01*
X325409Y94438D02*
Y90500D01*
Y92563D02*
X325136Y92938D01*
X325136D02*
X324864Y93125D01*
X324455*
X324182Y92938*
X324182D02*
X323909Y92563D01*
X323909D02*
X323773Y92000D01*
Y91625*
X323909Y91063*
X323909D02*
X324182Y90688D01*
X324182D02*
X324455Y90500D01*
X324864*
X325136Y90688*
X325136D02*
X325409Y91063D01*
X326636Y92188D02*
X329091D01*
X330318Y94438D02*
Y90500D01*
Y94438D02*
X331409Y90500D01*
X332500Y94438D02*
X331409Y90500D01*
X332500Y94438D02*
Y90500D01*
X335636Y93875D02*
X335364Y94250D01*
X334955Y94438*
X334955D02*
X334409D01*
X334409D02*
X334000Y94250D01*
X333727Y93875*
Y93500*
X333864Y93125*
X334000Y92938*
X334000D02*
X334273Y92750D01*
X335091Y92375*
X335364Y92188*
X335364D02*
X335500Y92000D01*
X335636Y91625*
Y91063*
X335636D02*
X335364Y90688D01*
X335364D02*
X334955Y90500D01*
X334409*
X334000Y90688*
X334000D02*
X333727Y91063D01*
X336864Y94438D02*
Y90500D01*
Y94438D02*
X338091D01*
X338091D02*
X338500Y94250D01*
X338636Y94063*
X338636D02*
X338773Y93688D01*
X338773D02*
Y93125D01*
X338636Y92750*
X338500Y92563*
X338500D02*
X338091Y92375D01*
X336864*
X341364Y94438D02*
X340000Y91813D01*
X340000D02*
X342045D01*
X341364Y94438D02*
Y90500D01*
X343545Y94438D02*
X345045D01*
X345045D02*
X344227Y92938D01*
X344227D02*
X344636D01*
X344636D02*
X344909Y92750D01*
X345045Y92563*
X345045D02*
X345182Y92000D01*
Y91625*
X345045Y91063*
X345045D02*
X344773Y90688D01*
X344773D02*
X344364Y90500D01*
X343955*
X343545Y90688*
X343545D02*
X343409Y90875D01*
X343273Y91250*
X347227Y94438D02*
X346818Y94250D01*
X346545Y93688*
X346545D02*
X346409Y92750D01*
Y92188*
X346409D02*
X346545Y91250D01*
X346818Y90688*
X346818D02*
X347227Y90500D01*
X347500*
X347909Y90688*
X347909D02*
X348182Y91250D01*
X348318Y92188*
X348318D02*
Y92750D01*
X348182Y93688*
X348182D02*
X347909Y94250D01*
X347500Y94438*
X347500D02*
X347227D01*
X349545D02*
Y90500D01*
Y94438D02*
X351318D01*
X349545Y92563D02*
X350636D01*
X352545Y94438D02*
Y90500D01*
Y94438D02*
X353773D01*
X353773D02*
X354182Y94250D01*
X354318Y94063*
X354318D02*
X354455Y93688D01*
X354455D02*
Y93313D01*
X354455D02*
X354318Y92938D01*
X354318D02*
X354182Y92750D01*
X353773Y92563*
X353773D02*
X352545D01*
X353500D02*
X354455Y90500D01*
X357455Y94438D02*
X356091D01*
X356091D02*
X355955Y92750D01*
X356091Y92938*
X356091D02*
X356500Y93125D01*
X356909*
X357318Y92938*
X357318D02*
X357591Y92563D01*
X357591D02*
X357727Y92000D01*
X357591Y91625*
X357455Y91063*
X357455D02*
X357182Y90688D01*
X357182D02*
X356773Y90500D01*
X356364*
X355955Y90688*
X355955D02*
X355818Y90875D01*
X355682Y91250*
X360727Y93125D02*
X360591Y92563D01*
X360591D02*
X360318Y92188D01*
X360318D02*
X359909Y92000D01*
X359773*
X359364Y92188*
X359364D02*
X359091Y92563D01*
X359091D02*
X358955Y93125D01*
Y93313*
X358955D02*
X359091Y93875D01*
X359364Y94250*
X359773Y94438*
X359773D02*
X359909D01*
X359909D02*
X360318Y94250D01*
X360591Y93875*
X360727Y93125*
Y92188*
X360727D02*
X360591Y91250D01*
X360318Y90688*
X360318D02*
X359909Y90500D01*
X359636*
X359227Y90688*
X359227D02*
X359091Y91063D01*
X363591Y93875D02*
X363455Y94250D01*
X363045Y94438*
X363045D02*
X362773D01*
X362773D02*
X362364Y94250D01*
X362091Y93688*
X362091D02*
X361955Y92750D01*
Y91813*
X361955D02*
X362091Y91063D01*
X362091D02*
X362364Y90688D01*
X362364D02*
X362773Y90500D01*
X362909*
X363318Y90688*
X363318D02*
X363591Y91063D01*
X363591D02*
X363727Y91625D01*
Y91813*
X363727D02*
X363591Y92375D01*
X363318Y92750*
X362909Y92938*
X362909D02*
X362773D01*
X362773D02*
X362364Y92750D01*
X362091Y92375*
X361955Y91813*
X366727Y93125D02*
X366591Y92563D01*
X366591D02*
X366318Y92188D01*
X366318D02*
X365909Y92000D01*
X365773*
X365364Y92188*
X365364D02*
X365091Y92563D01*
X365091D02*
X364955Y93125D01*
Y93313*
X364955D02*
X365091Y93875D01*
X365364Y94250*
X365773Y94438*
X365773D02*
X365909D01*
X365909D02*
X366318Y94250D01*
X366591Y93875*
X366727Y93125*
Y92188*
X366727D02*
X366591Y91250D01*
X366318Y90688*
X366318D02*
X365909Y90500D01*
X365636*
X365227Y90688*
X365227D02*
X365091Y91063D01*
X368636Y93313D02*
Y91063D01*
X367955Y92750D02*
X369318Y91625D01*
Y92750D02*
X367955Y91625D01*
X370682Y90875D02*
X370545Y90688D01*
X370545D02*
X370682Y90500D01*
X370818Y90688*
X370818D02*
X370682Y90875D01*
X372045Y93125D02*
Y89187D01*
Y92563D02*
X372318Y92938D01*
X372318D02*
X372591Y93125D01*
X373000*
X373273Y92938*
X373273D02*
X373545Y92563D01*
X373545D02*
X373682Y92000D01*
Y91625*
X373545Y91063*
X373545D02*
X373273Y90688D01*
X373273D02*
X373000Y90500D01*
X372591*
X372318Y90688*
X372318D02*
X372045Y91063D01*
X376545Y92563D02*
X376273Y92938D01*
X376273D02*
X376000Y93125D01*
X375591*
X375318Y92938*
X375318D02*
X375045Y92563D01*
X375045D02*
X374909Y92000D01*
Y91625*
X375045Y91063*
X375045D02*
X375318Y90688D01*
X375318D02*
X375591Y90500D01*
X376000*
X376273Y90688*
X376273D02*
X376545Y91063D01*
X377773Y94438D02*
Y90500D01*
Y92563D02*
X378045Y92938D01*
X378045D02*
X378318Y93125D01*
X378727*
X379000Y92938*
X379000D02*
X379273Y92563D01*
X379273D02*
X379409Y92000D01*
Y91625*
X379273Y91063*
X379273D02*
X379000Y90688D01*
X379000D02*
X378727Y90500D01*
X378318*
X378045Y90688*
X378045D02*
X377773Y91063D01*
X231136Y93500D02*
Y93688D01*
X231136D02*
X231273Y94063D01*
X231273D02*
X231409Y94250D01*
X231682Y94438*
X231682D02*
X232227D01*
X232227D02*
X232500Y94250D01*
X232636Y94063*
X232636D02*
X232773Y93688D01*
X232773D02*
Y93313D01*
X232773D02*
X232636Y92938D01*
X232636D02*
X232364Y92375D01*
X231000Y90500*
X232909*
X236591Y95188D02*
X234136Y89187D01*
X237818Y93688D02*
X238091Y93875D01*
X238500Y94438*
X238500D02*
Y90500D01*
X240545Y94438D02*
X240136Y94250D01*
X239864Y93688*
X239864D02*
X239727Y92750D01*
Y92188*
X239727D02*
X239864Y91250D01*
X240136Y90688*
X240136D02*
X240545Y90500D01*
X240818*
X241227Y90688*
X241227D02*
X241500Y91250D01*
X241636Y92188*
X241636D02*
Y92750D01*
X241500Y93688*
X241500D02*
X241227Y94250D01*
X240818Y94438*
X240818D02*
X240545D01*
X245318Y95188D02*
X242864Y89187D01*
X246682Y93500D02*
Y93688D01*
X246682D02*
X246818Y94063D01*
X246818D02*
X246955Y94250D01*
X247227Y94438*
X247227D02*
X247773D01*
X247773D02*
X248045Y94250D01*
X248182Y94063*
X248182D02*
X248318Y93688D01*
X248318D02*
Y93313D01*
X248318D02*
X248182Y92938D01*
X248182D02*
X247909Y92375D01*
X246545Y90500*
X248455*
X250500Y94438D02*
X250091Y94250D01*
X249818Y93688*
X249818D02*
X249682Y92750D01*
Y92188*
X249682D02*
X249818Y91250D01*
X250091Y90688*
X250091D02*
X250500Y90500D01*
X250773*
X251182Y90688*
X251182D02*
X251455Y91250D01*
X251591Y92188*
X251591D02*
Y92750D01*
X251455Y93688*
X251455D02*
X251182Y94250D01*
X250773Y94438*
X250773D02*
X250500D01*
X252818Y93688D02*
X253091Y93875D01*
X253500Y94438*
X253500D02*
Y90500D01*
X254864Y93500D02*
Y93688D01*
X254864D02*
X255000Y94063D01*
X255000D02*
X255136Y94250D01*
X255409Y94438*
X255409D02*
X255955D01*
X255955D02*
X256227Y94250D01*
X256364Y94063*
X256364D02*
X256500Y93688D01*
X256500D02*
Y93313D01*
X256500D02*
X256364Y92938D01*
X256364D02*
X256091Y92375D01*
X254727Y90500*
X256636*
X391000Y94438D02*
Y90500D01*
Y94438D02*
X391955D01*
X391955D02*
X392364Y94250D01*
X392636Y93875*
X392773Y93500*
X392909Y92938*
X392909D02*
Y92000D01*
X392773Y91438*
X392773D02*
X392636Y91063D01*
X392636D02*
X392364Y90688D01*
X392364D02*
X391955Y90500D01*
X391000*
X394273Y90875D02*
X394136Y90688D01*
X394136D02*
X394273Y90500D01*
X394409Y90688*
X394409D02*
X394273Y90875D01*
X400682Y93875D02*
X400409Y94250D01*
X400000Y94438*
X400000D02*
X399455D01*
X399455D02*
X399045Y94250D01*
X398773Y93875*
Y93500*
X398909Y93125*
X399045Y92938*
X399045D02*
X399318Y92750D01*
X400136Y92375*
X400409Y92188*
X400409D02*
X400545Y92000D01*
X400682Y91625*
Y91063*
X400682D02*
X400409Y90688D01*
X400409D02*
X400000Y90500D01*
X399455*
X399045Y90688*
X399045D02*
X398773Y91063D01*
X403545Y92563D02*
X403273Y92938D01*
X403273D02*
X403000Y93125D01*
X402591*
X402318Y92938*
X402318D02*
X402045Y92563D01*
X402045D02*
X401909Y92000D01*
Y91625*
X402045Y91063*
X402045D02*
X402318Y90688D01*
X402318D02*
X402591Y90500D01*
X403000*
X403273Y90688*
X403273D02*
X403545Y91063D01*
X404773Y94438D02*
Y90500D01*
Y92375D02*
X405182Y92938D01*
X405182D02*
X405455Y93125D01*
X405864*
X406136Y92938*
X406136D02*
X406273Y92375D01*
Y90500*
X407500Y93125D02*
Y90500D01*
Y92375D02*
X407909Y92938D01*
X407909D02*
X408182Y93125D01*
X408591*
X408864Y92938*
X408864D02*
X409000Y92375D01*
Y90500*
X410227Y92000D02*
X411864D01*
Y92375*
X411727Y92750*
X411591Y92938*
X411591D02*
X411318Y93125D01*
X410909*
X410636Y92938*
X410636D02*
X410364Y92563D01*
X410364D02*
X410227Y92000D01*
Y91625*
X410364Y91063*
X410364D02*
X410636Y90688D01*
X410636D02*
X410909Y90500D01*
X411318*
X411591Y90688*
X411591D02*
X411864Y91063D01*
X413091Y94438D02*
X413227Y94250D01*
X413364Y94438*
X413364D02*
X413227Y94625D01*
X413091Y94438*
X413227Y93125D02*
Y90500D01*
X416227Y94438D02*
Y90500D01*
Y92563D02*
X415955Y92938D01*
X415955D02*
X415682Y93125D01*
X415273*
X415000Y92938*
X415000D02*
X414727Y92563D01*
X414727D02*
X414591Y92000D01*
Y91625*
X414727Y91063*
X414727D02*
X415000Y90688D01*
X415000D02*
X415273Y90500D01*
X415682*
X415955Y90688*
X415955D02*
X416227Y91063D01*
X417455Y92000D02*
X419091D01*
Y92375*
X418955Y92750*
X418818Y92938*
X418818D02*
X418545Y93125D01*
X418136*
X417864Y92938*
X417864D02*
X417591Y92563D01*
X417591D02*
X417455Y92000D01*
Y91625*
X417591Y91063*
X417591D02*
X417864Y90688D01*
X417864D02*
X418136Y90500D01*
X418545*
X418818Y90688*
X418818D02*
X419091Y91063D01*
X420318Y93125D02*
Y90500D01*
Y92000D02*
X420455Y92563D01*
X420455D02*
X420727Y92938D01*
X420727D02*
X421000Y93125D01*
X421409*
X476000Y94438D02*
Y90500D01*
Y94438D02*
X476955D01*
X476955D02*
X477364Y94250D01*
X477636Y93875*
X477773Y93500*
X477909Y92938*
X477909D02*
Y92000D01*
X477773Y91438*
X477773D02*
X477636Y91063D01*
X477636D02*
X477364Y90688D01*
X477364D02*
X476955Y90500D01*
X476000*
X479273Y90875D02*
X479136Y90688D01*
X479136D02*
X479273Y90500D01*
X479409Y90688*
X479409D02*
X479273Y90875D01*
X485682Y93875D02*
X485409Y94250D01*
X485000Y94438*
X485000D02*
X484455D01*
X484455D02*
X484045Y94250D01*
X483773Y93875*
Y93500*
X483909Y93125*
X484045Y92938*
X484045D02*
X484318Y92750D01*
X485136Y92375*
X485409Y92188*
X485409D02*
X485545Y92000D01*
X485682Y91625*
Y91063*
X485682D02*
X485409Y90688D01*
X485409D02*
X485000Y90500D01*
X484455*
X484045Y90688*
X484045D02*
X483773Y91063D01*
X488545Y92563D02*
X488273Y92938D01*
X488273D02*
X488000Y93125D01*
X487591*
X487318Y92938*
X487318D02*
X487045Y92563D01*
X487045D02*
X486909Y92000D01*
Y91625*
X487045Y91063*
X487045D02*
X487318Y90688D01*
X487318D02*
X487591Y90500D01*
X488000*
X488273Y90688*
X488273D02*
X488545Y91063D01*
X489773Y94438D02*
Y90500D01*
Y92375D02*
X490182Y92938D01*
X490182D02*
X490455Y93125D01*
X490864*
X491136Y92938*
X491136D02*
X491273Y92375D01*
Y90500*
X492500Y93125D02*
Y90500D01*
Y92375D02*
X492909Y92938D01*
X492909D02*
X493182Y93125D01*
X493591*
X493864Y92938*
X493864D02*
X494000Y92375D01*
Y90500*
X495227Y92000D02*
X496864D01*
Y92375*
X496727Y92750*
X496591Y92938*
X496591D02*
X496318Y93125D01*
X495909*
X495636Y92938*
X495636D02*
X495364Y92563D01*
X495364D02*
X495227Y92000D01*
Y91625*
X495364Y91063*
X495364D02*
X495636Y90688D01*
X495636D02*
X495909Y90500D01*
X496318*
X496591Y90688*
X496591D02*
X496864Y91063D01*
X498091Y94438D02*
X498227Y94250D01*
X498364Y94438*
X498364D02*
X498227Y94625D01*
X498091Y94438*
X498227Y93125D02*
Y90500D01*
X501227Y94438D02*
Y90500D01*
Y92563D02*
X500955Y92938D01*
X500955D02*
X500682Y93125D01*
X500273*
X500000Y92938*
X500000D02*
X499727Y92563D01*
X499727D02*
X499591Y92000D01*
Y91625*
X499727Y91063*
X499727D02*
X500000Y90688D01*
X500000D02*
X500273Y90500D01*
X500682*
X500955Y90688*
X500955D02*
X501227Y91063D01*
X502455Y92000D02*
X504091D01*
Y92375*
X503955Y92750*
X503818Y92938*
X503818D02*
X503545Y93125D01*
X503136*
X502864Y92938*
X502864D02*
X502591Y92563D01*
X502591D02*
X502455Y92000D01*
Y91625*
X502591Y91063*
X502591D02*
X502864Y90688D01*
X502864D02*
X503136Y90500D01*
X503545*
X503818Y90688*
X503818D02*
X504091Y91063D01*
X505318Y93125D02*
Y90500D01*
Y92000D02*
X505455Y92563D01*
X505455D02*
X505727Y92938D01*
X505727D02*
X506000Y93125D01*
X506409*
X556000Y93688D02*
X556273Y93875D01*
X556682Y94438*
X556682D02*
Y90500D01*
X558045Y93500D02*
Y93688D01*
X558045D02*
X558182Y94063D01*
X558182D02*
X558318Y94250D01*
X558591Y94438*
X558591D02*
X559136D01*
X559136D02*
X559409Y94250D01*
X559545Y94063*
X559545D02*
X559682Y93688D01*
X559682D02*
Y93313D01*
X559682D02*
X559545Y92938D01*
X559545D02*
X559273Y92375D01*
X557909Y90500*
X559818*
X563500Y95188D02*
X561045Y89187D01*
X566091Y94438D02*
X564727Y91813D01*
X564727D02*
X566773D01*
X566091Y94438D02*
Y90500D01*
X570455Y95188D02*
X568000Y89187D01*
X571818Y93500D02*
Y93688D01*
X571818D02*
X571955Y94063D01*
X571955D02*
X572091Y94250D01*
X572364Y94438*
X572364D02*
X572909D01*
X572909D02*
X573182Y94250D01*
X573318Y94063*
X573318D02*
X573455Y93688D01*
X573455D02*
Y93313D01*
X573455D02*
X573318Y92938D01*
X573318D02*
X573045Y92375D01*
X571682Y90500*
X573591*
X575636Y94438D02*
X575227Y94250D01*
X574955Y93688*
X574955D02*
X574818Y92750D01*
Y92188*
X574818D02*
X574955Y91250D01*
X575227Y90688*
X575227D02*
X575636Y90500D01*
X575909*
X576318Y90688*
X576318D02*
X576591Y91250D01*
X576727Y92188*
X576727D02*
Y92750D01*
X576591Y93688*
X576591D02*
X576318Y94250D01*
X575909Y94438*
X575909D02*
X575636D01*
X577955Y93688D02*
X578227Y93875D01*
X578636Y94438*
X578636D02*
Y90500D01*
X580136Y94438D02*
X581636D01*
X581636D02*
X580818Y92938D01*
X580818D02*
X581227D01*
X581227D02*
X581500Y92750D01*
X581636Y92563*
X581636D02*
X581773Y92000D01*
Y91625*
X581636Y91063*
X581636D02*
X581364Y90688D01*
X581364D02*
X580955Y90500D01*
X580545*
X580136Y90688*
X580136D02*
X580000Y90875D01*
X579864Y91250*
X707000Y94438D02*
Y90500D01*
Y94438D02*
X708227D01*
X708227D02*
X708636Y94250D01*
X708773Y94063*
X708773D02*
X708909Y93688D01*
X708909D02*
Y93125D01*
X708773Y92750*
X708636Y92563*
X708636D02*
X708227Y92375D01*
X707000*
X711227Y94438D02*
X710136Y90500D01*
X711227Y94438D02*
X712318Y90500D01*
X710545Y91813D02*
X711909D01*
X713545Y94438D02*
Y90500D01*
Y94438D02*
X714500D01*
X714500D02*
X714909Y94250D01*
X715182Y93875*
X715318Y93500*
X715455Y92938*
X715455D02*
Y92000D01*
X715318Y91438*
X715318D02*
X715182Y91063D01*
X715182D02*
X714909Y90688D01*
X714909D02*
X714500Y90500D01*
X713545*
X718182Y92563D02*
X718045Y92938D01*
X718045D02*
X717636Y93125D01*
X717227*
X716818Y92938*
X716818D02*
X716682Y92563D01*
X716682D02*
X716818Y92188D01*
X716818D02*
X717091Y92000D01*
X717773Y91813*
X717773D02*
X718045Y91625D01*
X718182Y91250*
Y91063*
X718182D02*
X718045Y90688D01*
X718045D02*
X717636Y90500D01*
X717227*
X716818Y90688*
X716818D02*
X716682Y91063D01*
X722545Y93125D02*
X723364Y90500D01*
X724182Y93125D02*
X723364Y90500D01*
X727182Y93125D02*
X727045Y92563D01*
X727045D02*
X726773Y92188D01*
X726773D02*
X726364Y92000D01*
X726227*
X725818Y92188*
X725818D02*
X725545Y92563D01*
X725545D02*
X725409Y93125D01*
Y93313*
X725409D02*
X725545Y93875D01*
X725818Y94250*
X726227Y94438*
X726227D02*
X726364D01*
X726364D02*
X726773Y94250D01*
X727045Y93875*
X727182Y93125*
Y92188*
X727182D02*
X727045Y91250D01*
X726773Y90688*
X726773D02*
X726364Y90500D01*
X726091*
X725682Y90688*
X725682D02*
X725545Y91063D01*
X728545Y90875D02*
X728409Y90688D01*
X728409D02*
X728545Y90500D01*
X728682Y90688*
X728682D02*
X728545Y90875D01*
X731682Y94438D02*
X730318D01*
X730318D02*
X730182Y92750D01*
X730318Y92938*
X730318D02*
X730727Y93125D01*
X731136*
X731545Y92938*
X731545D02*
X731818Y92563D01*
X731818D02*
X731955Y92000D01*
X731818Y91625*
X731682Y91063*
X731682D02*
X731409Y90688D01*
X731409D02*
X731000Y90500D01*
X730591*
X730182Y90688*
X730182D02*
X730045Y90875D01*
X729909Y91250*
G54D21*
X407500Y476500D02*
X411500Y472500D01*
Y457500*
X407500Y453500*
X312500*
X308500Y457500*
Y472500*
X312500Y476500*
X407500*
X301900Y472400D02*
Y435600D01*
X200100*
Y472400*
X301900*
X330000Y487000D02*
Y477000D01*
X340000*
Y487000*
X330000*
X350000D02*
Y477000D01*
X360000*
Y487000*
X350000*
X411790Y491980D02*
Y503640D01*
X395090*
Y491980*
X411790*
X392279Y490321D02*
X402121D01*
Y480479*
X392279*
Y490321*
X347650Y516728D02*
Y506728D01*
X357650*
Y516728*
X347650*
X421300Y450500D02*
X444800D01*
Y416500*
X421300*
Y450500*
X347709Y526831D02*
Y516831D01*
X357709*
Y526831*
X347709*
X346420Y534790D02*
Y557790D01*
X369420*
Y534790*
X346420*
X368300Y233300D02*
X341700D01*
Y206700*
X368300*
Y233300*
X340000Y487000D02*
Y477000D01*
X350000*
Y487000*
X340000*
X341764Y552504D02*
X343732Y550614D01*
X341432Y560450D02*
X343400Y558560D01*
X373622Y376000D02*
G03X373622I-23622J0D01*
G01X320000Y487000D02*
Y477000D01*
X330000*
Y487000*
X320000*
X310000D02*
Y477000D01*
X320000*
Y487000*
X310000*
X310236Y206496D02*
X308268Y208386D01*
X300000Y487000D02*
Y477000D01*
X310000*
Y487000*
X300000*
Y477000D02*
Y487000D01*
X290000*
Y477000*
X300000*
X293764Y213504D02*
X295732Y211614D01*
X312500Y494797D02*
X281804Y525493D01*
X312500Y556188*
X343188Y525500*
X312493Y494804*
X280500Y242600D02*
G03X300500I10000J0D01*
G01Y268600*
G03X280500I-10000J0*
G01Y242600D02*
Y268598D01*
X266700Y507300D02*
Y519300D01*
X272700*
Y507300*
X266700*
X230000Y345000D02*
Y335000D01*
X240000*
Y345000*
X230000*
X221700Y386700D02*
X248300D01*
Y413300*
X221700*
Y386700*
X248300Y233300D02*
X221700D01*
Y206700*
X248300*
Y233300*
X221698Y508935D02*
Y515935D01*
X230298*
Y508935*
X221698*
X261827Y543583D02*
Y569173D01*
X220094*
Y543583*
X261827*
Y564449D02*
X220094D01*
X220000Y505000D02*
Y495000D01*
X230000*
Y505000*
X220000*
Y495000D02*
Y485000D01*
X230000*
Y495000*
X220000*
X230000Y475000D02*
Y485000D01*
X220000*
Y475000*
X230000*
G54D22*
X337860Y551740D02*
Y553540D01*
X337528Y559686D02*
Y561486D01*
X314140Y207260D02*
Y205460D01*
X289860Y212740D02*
Y214540D01*
X334772Y490380D02*
X338053D01*
X334772D02*
Y491402D01*
X334928Y491743*
X335084Y491857*
X335397Y491970*
X335709*
X336022Y491857*
X336178Y491743*
X336334Y491402*
Y490380*
Y491175D02*
X338053Y491970D01*
X335397Y492993D02*
X335241Y493220D01*
X334772Y493561*
X338053*
X335553Y494698D02*
X335397D01*
X335084Y494811*
X334928Y494925*
X334772Y495152*
Y495607*
X334928Y495834*
X335084Y495948*
X335397Y496061*
X335709*
X336022Y495948*
X336491Y495720*
X338053Y494584*
Y496175*
X335397Y497198D02*
X335241Y497425D01*
X334772Y497766*
X338053*
X405572Y480968D02*
X408853D01*
X405572D02*
Y481991D01*
X405728Y482332*
X405884Y482445*
X406197Y482559*
X406509*
X406822Y482445*
X406978Y482332*
X407134Y481991*
Y480968*
Y481764D02*
X408853Y482559D01*
X406197Y483582D02*
X406041Y483809D01*
X405572Y484150*
X408853*
X405572Y485855D02*
X405728Y485514D01*
X406197Y485286*
X406978Y485173*
X407447*
X408228Y485286*
X408697Y485514*
X408853Y485855*
Y486082*
X408697Y486423*
X408228Y486650*
X407447Y486764*
X406978*
X406197Y486650*
X405728Y486423*
X405572Y486082*
Y485855*
Y488355D02*
X405728Y488014D01*
X406041Y487900*
X406353*
X406666Y488014*
X406822Y488241*
X406978Y488695*
X407134Y489036*
X407447Y489264*
X407759Y489377*
X408228*
X408541Y489264*
X408697Y489150*
X408853Y488809*
Y488355*
X408697Y488014*
X408541Y487900*
X408228Y487786*
X407759*
X407447Y487900*
X407134Y488127*
X406978Y488468*
X406822Y488923*
X406666Y489150*
X406353Y489264*
X406041*
X405728Y489150*
X405572Y488809*
Y488355*
X252882Y408328D02*
Y405047D01*
Y408328D02*
X253905D01*
X254245Y408172*
X254359Y408016*
X254473Y407703*
Y407391*
X254359Y407078*
X254245Y406922*
X253905Y406766*
X252882*
X253677D02*
X254473Y405047D01*
X255495Y407703D02*
X255723Y407859D01*
X256064Y408328*
Y405047*
X402027Y528947D02*
X401914Y529259D01*
X401686Y529572*
X401459Y529728*
X401005*
X400777Y529572*
X400550Y529259*
X400436Y528947*
X400323Y528478*
Y527697*
X400436Y527228*
X400550Y526916*
X400777Y526603*
X401005Y526447*
X401459*
X401686Y526603*
X401914Y526916*
X402027Y527228*
X403050Y529103D02*
X403277Y529259D01*
X403618Y529728*
Y526447*
X404641Y529103D02*
X404868Y529259D01*
X405209Y529728*
Y526447*
X406800Y529728D02*
X406459Y529572D01*
X406345Y529259*
Y528947*
X406459Y528634*
X406686Y528478*
X407141Y528322*
X407482Y528166*
X407709Y527853*
X407823Y527541*
Y527072*
X407709Y526759*
X407595Y526603*
X407255Y526447*
X406800*
X406459Y526603*
X406345Y526759*
X406232Y527072*
Y527541*
X406345Y527853*
X406573Y528166*
X406914Y528322*
X407368Y528478*
X407595Y528634*
X407709Y528947*
Y529259*
X407595Y529572*
X407255Y529728*
X406800*
X402027Y521747D02*
X401914Y522059D01*
X401686Y522372*
X401459Y522528*
X401005*
X400777Y522372*
X400550Y522059*
X400436Y521747*
X400323Y521278*
Y520497*
X400436Y520028*
X400550Y519716*
X400777Y519403*
X401005Y519247*
X401459*
X401686Y519403*
X401914Y519716*
X402027Y520028*
X403050Y521903D02*
X403277Y522059D01*
X403618Y522528*
Y519247*
X404641Y521903D02*
X404868Y522059D01*
X405209Y522528*
Y519247*
X407823Y522528D02*
X406686Y519247D01*
X406232Y522528D02*
X407823D01*
X395372Y530068D02*
X398653D01*
X395372D02*
Y531091D01*
X395528Y531432*
X395684Y531545*
X395997Y531659*
X396309*
X396622Y531545*
X396778Y531432*
X396934Y531091*
Y530068*
Y530864D02*
X398653Y531659D01*
X395997Y532682D02*
X395841Y532909D01*
X395372Y533250*
X398653*
X396153Y534386D02*
X395997D01*
X395684Y534500*
X395528Y534614*
X395372Y534841*
Y535295*
X395528Y535523*
X395684Y535636*
X395997Y535750*
X396309*
X396622Y535636*
X397091Y535409*
X398653Y534273*
Y535864*
X395372Y537568D02*
X395528Y537227D01*
X395997Y537000*
X396778Y536886*
X397247*
X398028Y537000*
X398497Y537227*
X398653Y537568*
Y537795*
X398497Y538136*
X398028Y538364*
X397247Y538477*
X396778*
X395997Y538364*
X395528Y538136*
X395372Y537795*
Y537568*
X383453Y494316D02*
X383141Y494202D01*
X382828Y493975*
X382672Y493748*
Y493293*
X382828Y493066*
X383141Y492839*
X383453Y492725*
X383922Y492611*
X384703*
X385172Y492725*
X385484Y492839*
X385797Y493066*
X385953Y493293*
Y493748*
X385797Y493975*
X385484Y494202*
X385172Y494316*
X383297Y495339D02*
X383141Y495566D01*
X382672Y495907*
X385953*
X383453Y497043D02*
X383297D01*
X382984Y497157*
X382828Y497270*
X382672Y497498*
Y497952*
X382828Y498180*
X382984Y498293*
X383297Y498407*
X383609*
X383922Y498293*
X384391Y498066*
X385953Y496930*
Y498520*
X382672Y500225D02*
X382828Y499884D01*
X383297Y499657*
X384078Y499543*
X384547*
X385328Y499657*
X385797Y499884*
X385953Y500225*
Y500452*
X385797Y500793*
X385328Y501020*
X384547Y501134*
X384078*
X383297Y501020*
X382828Y500793*
X382672Y500452*
Y500225*
X378859Y559847D02*
X378745Y560159D01*
X378518Y560472*
X378291Y560628*
X377836*
X377609Y560472*
X377382Y560159*
X377268Y559847*
X377155Y559378*
Y558597*
X377268Y558128*
X377382Y557816*
X377609Y557503*
X377836Y557347*
X378291*
X378518Y557503*
X378745Y557816*
X378859Y558128*
X379882Y560003D02*
X380109Y560159D01*
X380450Y560628*
Y557347*
X381586Y559847D02*
Y560003D01*
X381700Y560316*
X381814Y560472*
X382041Y560628*
X382495*
X382723Y560472*
X382836Y560316*
X382950Y560003*
Y559691*
X382836Y559378*
X382609Y558909*
X381473Y557347*
X383064*
X385223Y560628D02*
X384086Y558441D01*
X385791*
X385223Y560628D02*
Y557347D01*
X375402Y528750D02*
X378683D01*
X375402D02*
Y529772D01*
X375558Y530113*
X375714Y530227*
X376027Y530340*
X376339*
X376652Y530227*
X376808Y530113*
X376964Y529772*
Y528750*
Y529545D02*
X378683Y530340D01*
X376027Y531363D02*
X375871Y531590D01*
X375402Y531931*
X378683*
X376027Y532954D02*
X375871Y533181D01*
X375402Y533522*
X378683*
X375402Y535113D02*
X375558Y534772D01*
X375871Y534659*
X376183*
X376496Y534772*
X376652Y535000*
X376808Y535454*
X376964Y535795*
X377277Y536022*
X377589Y536136*
X378058*
X378371Y536022*
X378527Y535909*
X378683Y535568*
Y535113*
X378527Y534772*
X378371Y534659*
X378058Y534545*
X377589*
X377277Y534659*
X376964Y534886*
X376808Y535227*
X376652Y535681*
X376496Y535909*
X376183Y536022*
X375871*
X375558Y535909*
X375402Y535568*
Y535113*
X373706Y526298D02*
Y523017D01*
Y526298D02*
X374729D01*
X375070Y526142*
X375184Y525986*
X375297Y525673*
Y525361*
X375184Y525048*
X375070Y524892*
X374729Y524736*
X373706*
X374502D02*
X375297Y523017D01*
X376320Y525673D02*
X376547Y525829D01*
X376888Y526298*
Y523017*
X377911Y525673D02*
X378138Y525829D01*
X378479Y526298*
Y523017*
X380979Y525204D02*
X380865Y524736D01*
X380638Y524423*
X380297Y524267*
X380184*
X379843Y524423*
X379615Y524736*
X379502Y525204*
Y525361*
X379615Y525829*
X379843Y526142*
X380184Y526298*
X380297*
X380638Y526142*
X380865Y525829*
X380979Y525204*
Y524423*
X380865Y523642*
X380638Y523173*
X380297Y523017*
X380070*
X379729Y523173*
X379615Y523486*
X374125Y519928D02*
Y516647D01*
Y519928D02*
X375148D01*
X375489Y519772*
X375602Y519616*
X375716Y519303*
Y518991*
X375602Y518678*
X375489Y518522*
X375148Y518366*
X374125*
X374920D02*
X375716Y516647D01*
X376739Y519303D02*
X376966Y519459D01*
X377307Y519928*
Y516647*
X378443Y519147D02*
Y519303D01*
X378557Y519616*
X378670Y519772*
X378898Y519928*
X379352*
X379580Y519772*
X379693Y519616*
X379807Y519303*
Y518991*
X379693Y518678*
X379466Y518209*
X378330Y516647*
X379920*
X382307Y519459D02*
X382193Y519772D01*
X381852Y519928*
X381625*
X381284Y519772*
X381057Y519303*
X380943Y518522*
Y517741*
X381057Y517116*
X381284Y516803*
X381625Y516647*
X381739*
X382080Y516803*
X382307Y517116*
X382420Y517584*
Y517741*
X382307Y518209*
X382080Y518522*
X381739Y518678*
X381625*
X381284Y518522*
X381057Y518209*
X380943Y517741*
X373168Y513828D02*
Y510547D01*
Y513828D02*
X374191D01*
X374532Y513672*
X374645Y513516*
X374759Y513203*
Y512891*
X374645Y512578*
X374532Y512422*
X374191Y512266*
X373168*
X373964D02*
X374759Y510547D01*
X375782Y513203D02*
X376009Y513359D01*
X376350Y513828*
Y510547*
X377486Y513047D02*
Y513203D01*
X377600Y513516*
X377714Y513672*
X377941Y513828*
X378395*
X378623Y513672*
X378736Y513516*
X378850Y513203*
Y512891*
X378736Y512578*
X378509Y512109*
X377373Y510547*
X378964*
X380555Y513828D02*
X380214Y513672D01*
X380100Y513359*
Y513047*
X380214Y512734*
X380441Y512578*
X380895Y512422*
X381236Y512266*
X381464Y511953*
X381577Y511641*
Y511172*
X381464Y510859*
X381350Y510703*
X381009Y510547*
X380555*
X380214Y510703*
X380100Y510859*
X379986Y511172*
Y511641*
X380100Y511953*
X380327Y512266*
X380668Y512422*
X381123Y512578*
X381350Y512734*
X381464Y513047*
Y513359*
X381350Y513672*
X381009Y513828*
X380555*
X373168Y507628D02*
Y504347D01*
Y507628D02*
X374191D01*
X374532Y507472*
X374645Y507316*
X374759Y507003*
Y506691*
X374645Y506378*
X374532Y506222*
X374191Y506066*
X373168*
X373964D02*
X374759Y504347D01*
X375782Y507003D02*
X376009Y507159D01*
X376350Y507628*
Y504347*
X377486Y506847D02*
Y507003D01*
X377600Y507316*
X377714Y507472*
X377941Y507628*
X378395*
X378623Y507472*
X378736Y507316*
X378850Y507003*
Y506691*
X378736Y506378*
X378509Y505909*
X377373Y504347*
X378964*
X381577Y507628D02*
X380441Y504347D01*
X379986Y507628D02*
X381577D01*
X375372Y493468D02*
X378653D01*
X375372D02*
Y494491D01*
X375528Y494832*
X375684Y494945*
X375997Y495059*
X376309*
X376622Y494945*
X376778Y494832*
X376934Y494491*
Y493468*
Y494264D02*
X378653Y495059D01*
X375997Y496082D02*
X375841Y496309D01*
X375372Y496650*
X378653*
X375372Y498355D02*
X375528Y498014D01*
X375997Y497786*
X376778Y497673*
X377247*
X378028Y497786*
X378497Y498014*
X378653Y498355*
Y498582*
X378497Y498923*
X378028Y499150*
X377247Y499264*
X376778*
X375997Y499150*
X375528Y498923*
X375372Y498582*
Y498355*
Y501877D02*
X378653Y500741D01*
X375372Y500286D02*
Y501877D01*
X368253Y517070D02*
X367941Y516957D01*
X367628Y516730*
X367472Y516502*
Y516048*
X367628Y515820*
X367941Y515593*
X368253Y515480*
X368722Y515366*
X369503*
X369972Y515480*
X370284Y515593*
X370597Y515820*
X370753Y516048*
Y516502*
X370597Y516730*
X370284Y516957*
X369972Y517070*
X368097Y518093D02*
X367941Y518320D01*
X367472Y518661*
X370753*
X368097Y519684D02*
X367941Y519911D01*
X367472Y520252*
X370753*
X367472Y522752D02*
Y521616D01*
X368878Y521502*
X368722Y521616*
X368566Y521957*
Y522298*
X368722Y522639*
X369034Y522866*
X369503Y522980*
X369816Y522866*
X370284Y522752*
X370597Y522525*
X370753Y522184*
Y521843*
X370597Y521502*
X370441Y521389*
X370128Y521275*
X360072Y516680D02*
X363353D01*
X360072D02*
Y517702D01*
X360228Y518043*
X360384Y518157*
X360697Y518270*
X361009*
X361322Y518157*
X361478Y518043*
X361634Y517702*
Y516680*
Y517475D02*
X363353Y518270D01*
X360697Y519293D02*
X360541Y519520D01*
X360072Y519861*
X363353*
X360697Y520884D02*
X360541Y521111D01*
X360072Y521452*
X363353*
X360072Y522702D02*
Y523952D01*
X361322Y523270*
Y523611*
X361478Y523839*
X361634Y523952*
X362103Y524066*
X362416*
X362884Y523952*
X363197Y523725*
X363353Y523384*
Y523043*
X363197Y522702*
X363041Y522589*
X362728Y522475*
X360783Y507398D02*
X364064D01*
X360783D02*
Y508421D01*
X360939Y508762*
X361095Y508875*
X361408Y508989*
X361720*
X362033Y508875*
X362189Y508762*
X362345Y508421*
Y507398*
Y508194D02*
X364064Y508989D01*
X361408Y510012D02*
X361252Y510239D01*
X360783Y510580*
X364064*
X361408Y511603D02*
X361252Y511830D01*
X360783Y512171*
X364064*
X361564Y513307D02*
X361408D01*
X361095Y513421*
X360939Y513534*
X360939D02*
X360783Y513762D01*
Y514216*
X360939Y514444*
X361095Y514557*
X361408Y514671*
X361720*
X362033Y514557*
X362502Y514330*
X364064Y513194*
Y514784*
X342950Y292246D02*
Y288965D01*
Y292246D02*
X343973D01*
X344314Y292090*
X344427Y291934*
X344541Y291621*
Y291309*
X344427Y290996*
X344314Y290840*
X343973Y290684*
X342950*
X343745D02*
X344541Y288965D01*
X346700Y292246D02*
X345564Y290059D01*
X347268*
X346700Y292246D02*
Y288965D01*
X342679Y285324D02*
Y282043D01*
Y285324D02*
X343702D01*
X344043Y285168*
X344157Y285012*
X344270Y284699*
Y284387*
X344157Y284074*
X344043Y283918*
X343702Y283762*
X342679*
X343475D02*
X344270Y282043D01*
X346770Y285324D02*
X345634D01*
X345520Y283918*
X345634Y284074*
X345975Y284230*
X346316*
X346657Y284074*
X346884Y283762*
X346998Y283293*
X346884Y282980*
X346770Y282512*
X346543Y282199*
X346202Y282043*
X345861*
X345520Y282199*
X345407Y282355*
X345293Y282668*
X339779Y266227D02*
X339665Y266539D01*
X339438Y266852*
X339210Y267008*
X338756*
X338529Y266852*
X338301Y266539*
X338188Y266227*
X338074Y265758*
Y264977*
X338188Y264508*
X338301Y264195*
X338529Y263883*
X338756Y263727*
X339210*
X339438Y263883*
X339665Y264195*
X339779Y264508*
X342165Y266539D02*
X342051Y266852D01*
X341710Y267008*
X341483*
X341142Y266852*
X340915Y266383*
X340801Y265602*
Y264820*
X340915Y264195*
X341142Y263883*
X341483Y263727*
X341597*
X341938Y263883*
X342165Y264195*
X342279Y264664*
Y264820*
X342165Y265289*
X341938Y265602*
X341597Y265758*
X341483*
X341142Y265602*
X340915Y265289*
X340801Y264820*
X338711Y515713D02*
X338407Y515849D01*
X338025Y515902*
X337754Y515847*
X337439Y515520*
X337393Y515248*
X337460Y514868*
X337606Y514569*
X337864Y514162*
X338426Y513619*
X338842Y513375*
X339146Y513240*
X339529Y513186*
X339799Y513241*
X340115Y513568*
X340160Y513840*
X340093Y514221*
X339947Y514519*
X339309Y516558D02*
X339355Y516830D01*
X339254Y517401*
X341615Y515121*
X340414Y517702D02*
X340460Y517974D01*
X340359Y518545*
X342720Y516266*
X341228Y519444D02*
X342096Y520343D01*
X342522Y518985*
X342758Y519230*
X343029Y519285*
X343220Y519258*
X343636Y519014*
X343861Y518797*
X344119Y518390*
X344186Y518009*
X344062Y517655*
X343825Y517410*
X343476Y517273*
X343284Y517300*
X342981Y517435*
X338734Y534747D02*
X338621Y535059D01*
X338393Y535372*
X338166Y535528*
X337712*
X337484Y535372*
X337257Y535059*
X337143Y534747*
X337030Y534278*
Y533497*
X337143Y533028*
X337257Y532716*
X337484Y532403*
X337712Y532247*
X338166*
X338393Y532403*
X338621Y532716*
X338734Y533028*
X339757Y534903D02*
X339984Y535059D01*
X340325Y535528*
Y532247*
X342030Y535528D02*
X341689Y535372D01*
X341462Y534903*
X341348Y534122*
Y533653*
X341462Y532872*
X341689Y532403*
X342030Y532247*
X342257*
X342598Y532403*
X342825Y532872*
X342939Y533653*
Y534122*
X342825Y534903*
X342598Y535372*
X342257Y535528*
X342030*
X343962Y534903D02*
X344189Y535059D01*
X344530Y535528*
Y532247*
X334337Y288276D02*
X334223Y288589D01*
X333996Y288901*
X333768Y289057*
X333314*
X333087Y288901*
X332859Y288589*
X332746Y288276*
X332632Y287807*
Y287026*
X332746Y286557*
X332859Y286245*
X333087Y285932*
X333314Y285776*
X333768*
X333996Y285932*
X334223Y286245*
X334337Y286557*
X335927Y289057D02*
X335587Y288901D01*
X335473Y288589*
Y288276*
X335587Y287964*
X335814Y287807*
X336268Y287651*
X336609Y287495*
X336837Y287182*
X336950Y286870*
Y286401*
X336837Y286089*
X336723Y285932*
X336382Y285776*
X335927*
X335587Y285932*
X335473Y286089*
X335359Y286401*
Y286870*
X335473Y287182*
X335700Y287495*
X336041Y287651*
X336496Y287807*
X336723Y287964*
X336837Y288276*
Y288589*
X336723Y288901*
X336382Y289057*
X335927*
X330336Y550228D02*
Y546947D01*
X331700*
X332723Y550228D02*
Y546947D01*
Y550228D02*
X334200D01*
X332723Y548666D02*
X333632D01*
X332723Y546947D02*
X334200D01*
X335223Y550228D02*
Y546947D01*
Y550228D02*
X336018D01*
X336359Y550072*
X336586Y549759*
X336700Y549447*
X336814Y548978*
Y548197*
X336700Y547728*
X336586Y547416*
X336359Y547103*
X336018Y546947*
X335223*
X337836Y549603D02*
X338064Y549759D01*
X338405Y550228*
Y546947*
X340109Y550228D02*
X339768Y550072D01*
X339541Y549603*
X339427Y548822*
Y548353*
X339541Y547572*
X339768Y547103*
X340109Y546947*
X340336*
X340677Y547103*
X340905Y547572*
X341018Y548353*
Y548822*
X340905Y549603*
X340677Y550072*
X340336Y550228*
X340109*
X342041Y549603D02*
X342268Y549759D01*
X342609Y550228*
Y546947*
X329825Y558628D02*
Y555347D01*
X331189*
X332211Y558628D02*
Y555347D01*
Y558628D02*
X333689D01*
X332211Y557066D02*
X333120D01*
X332211Y555347D02*
X333689D01*
X334711Y558628D02*
Y555347D01*
Y558628D02*
X335507D01*
X335848Y558472*
X336075Y558159*
X336189Y557847*
X336302Y557378*
Y556597*
X336189Y556128*
X336075Y555816*
X335848Y555503*
X335507Y555347*
X334711*
X337325Y558003D02*
X337552Y558159D01*
X337893Y558628*
Y555347*
X339598Y558628D02*
X339257Y558472D01*
X339030Y558003*
X338916Y557222*
Y556753*
X339030Y555972*
X339257Y555503*
X339598Y555347*
X339825*
X340166Y555503*
X340393Y555972*
X340507Y556753*
Y557222*
X340393Y558003*
X340166Y558472*
X339825Y558628*
X339598*
X341643Y557847D02*
Y558003D01*
X341757Y558316*
X341870Y558472*
X342098Y558628*
X342552*
X342780Y558472*
X342893Y558316*
X343007Y558003*
Y557691*
X342893Y557378*
X342666Y556909*
X341530Y555347*
X343120*
X331206Y508980D02*
X330905Y509120D01*
X330523Y509181*
X330252Y509130*
X329931Y508809*
X329880Y508538*
X329941Y508156*
X330081Y507855*
X330332Y507443*
X330885Y506890*
X331297Y506639*
X331598Y506499*
X331980Y506438*
X332251Y506489*
X332572Y506810*
X332622Y507081*
X332562Y507463*
X332422Y507764*
X331819Y509813D02*
X331869Y510084D01*
X331779Y510657*
X334099Y508337*
X333135Y510908D02*
X333024Y511019D01*
X332884Y511320*
X332853Y511511*
X332904Y511782*
X333225Y512103*
X333496Y512154*
X333687Y512123*
X333988Y511983*
X334209Y511762*
X334350Y511461*
X334521Y510968*
X334822Y509060*
X335947Y510185*
X334792Y512786D02*
X334842Y513058D01*
X334752Y513630*
X337072Y511310*
X329200Y255028D02*
X330109Y253466D01*
Y251747*
X331018Y255028D02*
X330109Y253466D01*
X333177Y255028D02*
X332041Y252841D01*
X333745*
X333177Y255028D02*
Y251747D01*
X328272Y489568D02*
X331553D01*
X328272D02*
Y490591D01*
X328428Y490932*
X328584Y491045*
X328897Y491159*
X329209*
X329522Y491045*
X329678Y490932*
X329834Y490591*
Y489568*
Y490364D02*
X331553Y491159D01*
X328897Y492182D02*
X328741Y492409D01*
X328272Y492750*
X331553*
X329053Y493886D02*
X328897D01*
X328584Y494000*
X328428Y494114*
X328272Y494341*
Y494795*
X328428Y495023*
X328584Y495136*
X328897Y495250*
X329209*
X329522Y495136*
X329991Y494909*
X331553Y493773*
Y495364*
X329053Y496500D02*
X328897D01*
X328584Y496614*
X328428Y496727*
X328272Y496955*
Y497409*
X328428Y497636*
X328584Y497750*
X328897Y497864*
X329209*
X329522Y497750*
X329991Y497523*
X331553Y496386*
Y497977*
X325642Y545810D02*
X328923D01*
X325642D02*
Y546832D01*
X325798Y547173*
X325954Y547287*
X326267Y547400*
X326579*
X326892Y547287*
X327048Y547173*
X327204Y546832*
Y545810*
Y546605D02*
X328923Y547400D01*
X326267Y548423D02*
X326111Y548650D01*
X325642Y548991*
X328923*
X325642Y550696D02*
X325798Y550355D01*
X326267Y550128*
X327048Y550014*
X327517*
X328298Y550128*
X328767Y550355*
X328923Y550696*
Y550923*
X328767Y551264*
X328298Y551491*
X327517Y551605*
X327048*
X326267Y551491*
X325798Y551264*
X325642Y550923*
Y550696*
X326267Y552628D02*
X326111Y552855D01*
X325642Y553196*
X328923*
X324127Y211328D02*
Y208047D01*
Y211328D02*
X325150D01*
X325491Y211172*
X325605Y211016*
X325718Y210703*
Y210391*
X325605Y210078*
X325491Y209922*
X325150Y209766*
X324127*
X324923D02*
X325718Y208047D01*
X328105Y210859D02*
X327991Y211172D01*
X327650Y211328*
X327423*
X327082Y211172*
X326855Y210703*
X326741Y209922*
Y209141*
X326855Y208516*
X327082Y208203*
X327423Y208047*
X327536*
X327877Y208203*
X328105Y208516*
X328218Y208984*
Y209141*
X328105Y209609*
X327877Y209922*
X327536Y210078*
X327423*
X327082Y209922*
X326855Y209609*
X326741Y209141*
X320207Y559272D02*
Y555991D01*
Y559272D02*
X321230D01*
X321571Y559116*
X321684Y558960*
X321798Y558647*
Y558335*
X321684Y558022*
X321571Y557866*
X321230Y557710*
X320207*
X321003D02*
X321798Y555991D01*
X322821Y558647D02*
X323048Y558804D01*
X323389Y559272*
Y555991*
X325093Y559272D02*
X324753Y559116D01*
X324525Y558647*
X324412Y557866*
Y557397*
X324525Y556616*
X324753Y556147*
X325093Y555991*
X325321*
X325662Y556147*
X325889Y556616*
X326003Y557397*
Y557866*
X325889Y558647*
X325662Y559116*
X325321Y559272*
X325093*
X327139Y558491D02*
Y558647D01*
X327253Y558960*
X327366Y559116*
X327593Y559272*
X328048*
X328275Y559116*
X328389Y558960*
X328503Y558647*
Y558335*
X328389Y558022*
X328162Y557554*
X327025Y555991*
X328616*
X322553Y491616D02*
X322241Y491502D01*
X321928Y491275*
X321772Y491048*
Y490593*
X321928Y490366*
X322241Y490139*
X322553Y490025*
X323022Y489911*
X323803*
X324272Y490025*
X324584Y490139*
X324897Y490366*
X325053Y490593*
Y491048*
X324897Y491275*
X324584Y491502*
X324272Y491616*
X322397Y492639D02*
X322241Y492866D01*
X321772Y493207*
X325053*
X322553Y494343D02*
X322397D01*
X322084Y494457*
X321928Y494570*
X321772Y494798*
Y495252*
X321928Y495480*
X322084Y495593*
X322397Y495707*
X322709*
X323022Y495593*
X323491Y495366*
X325053Y494230*
Y495820*
X322553Y496957D02*
X322397D01*
X322084Y497070*
X321928Y497184*
X321772Y497411*
Y497866*
X321928Y498093*
X322084Y498207*
X322397Y498320*
X322709*
X323022Y498207*
X323491Y497980*
X325053Y496843*
Y498434*
X322461Y266047D02*
X322348Y266359D01*
X322120Y266672*
X321893Y266828*
X321439*
X321211Y266672*
X320984Y266359*
X320870Y266047*
X320757Y265578*
Y264797*
X320870Y264328*
X320984Y264016*
X321211Y263703*
X321439Y263547*
X321893*
X322120Y263703*
X322348Y264016*
X322461Y264328*
X324961Y266828D02*
X323825D01*
X323711Y265422*
X323825Y265578*
X324166Y265734*
X324507*
X324848Y265578*
X325075Y265266*
X325189Y264797*
X325075Y264484*
X324961Y264016*
X324734Y263703*
X324393Y263547*
X324052*
X323711Y263703*
X323598Y263859*
X323484Y264172*
X310227Y211328D02*
Y208047D01*
X311591*
X312614Y211328D02*
Y208047D01*
Y211328D02*
X314091D01*
X312614Y209766D02*
X313523D01*
X312614Y208047D02*
X314091D01*
X315114Y211328D02*
Y208047D01*
Y211328D02*
X315909D01*
X316250Y211172*
X316477Y210859*
X316591Y210547*
X316705Y210078*
Y209297*
X316591Y208828*
X316477Y208516*
X316250Y208203*
X315909Y208047*
X315114*
X317841Y210547D02*
Y210703D01*
X317955Y211016*
X318068Y211172*
X318295Y211328*
X318750*
X318977Y211172*
X319091Y211016*
X319205Y210703*
Y210391*
X319091Y210078*
X318864Y209609*
X317727Y208047*
X319318*
X306925Y492928D02*
Y489647D01*
Y492928D02*
X307948D01*
X308289Y492772*
X308402Y492616*
X308516Y492303*
Y491991*
X308402Y491678*
X308289Y491522*
X307948Y491366*
X306925*
X307720D02*
X308516Y489647D01*
X309539Y492303D02*
X309766Y492459D01*
X310107Y492928*
Y489647*
X311811Y492928D02*
X311470Y492772D01*
X311243Y492303*
X311130Y491522*
Y491053*
X311243Y490272*
X311470Y489803*
X311811Y489647*
X312039*
X312380Y489803*
X312607Y490272*
X312720Y491053*
Y491522*
X312607Y492303*
X312380Y492772*
X312039Y492928*
X311811*
X315220Y491834D02*
X315107Y491366D01*
X314880Y491053*
X314539Y490897*
X314425*
X314084Y491053*
X313857Y491366*
X313743Y491834*
Y491991*
X313857Y492459*
X314084Y492772*
X314425Y492928*
X314539*
X314880Y492772*
X315107Y492459*
X315220Y491834*
Y491053*
X315107Y490272*
X314880Y489803*
X314539Y489647*
X314311*
X313970Y489803*
X313857Y490116*
X303959Y249602D02*
X303846Y249915D01*
X303619Y250227*
X303391Y250384*
X302937*
X302709Y250227*
X302482Y249915*
X302369Y249602*
X302255Y249134*
Y248352*
X302369Y247884*
X302482Y247571*
X302709Y247259*
X302937Y247102*
X303391*
X303619Y247259*
X303846Y247571*
X303959Y247884*
X306119Y250384D02*
X304982Y248196D01*
X306687*
X306119Y250384D02*
Y247102D01*
X303619Y553736D02*
X306900D01*
X303619D02*
Y554759D01*
X303775Y555100*
X303931Y555214*
X304244Y555327*
X304556*
X304869Y555214*
X305025Y555100*
X305181Y554759*
Y553736*
Y554532D02*
X306900Y555327D01*
X304244Y556350D02*
X304087Y556577D01*
X303619Y556918*
X306900*
X304244Y557941D02*
X304087Y558168D01*
X303619Y558509*
X306900*
X304087Y560895D02*
X303775Y560782D01*
X303619Y560441*
Y560214*
X303775Y559873*
X304244Y559645*
X305025Y559532*
X305806*
X306431Y559645*
X306744Y559873*
X306900Y560214*
Y560327*
X306744Y560668*
X306431Y560895*
X305962Y561009*
X305806*
X305337Y560895*
X305025Y560668*
X304869Y560327*
Y560214*
X305025Y559873*
X305337Y559645*
X305806Y559532*
X304587Y263848D02*
X304473Y264161D01*
X304246Y264473*
X304018Y264629*
X303564*
X303337Y264473*
X303109Y264161*
X302996Y263848*
X302882Y263379*
Y262598*
X302996Y262129*
X303109Y261817*
X303337Y261504*
X303564Y261348*
X304018*
X304246Y261504*
X304473Y261817*
X304587Y262129*
X305837Y264629D02*
X307087D01*
X306405Y263379*
X306746*
X306973Y263223*
X307087Y263067*
X307200Y262598*
Y262286*
X307087Y261817*
X306859Y261504*
X306518Y261348*
X306177*
X306177D02*
X305837Y261504D01*
X305723Y261661*
X305609Y261973*
X298627Y492947D02*
X298514Y493259D01*
X298286Y493572*
X298059Y493728*
X297605*
X297377Y493572*
X297150Y493259*
X297036Y492947*
X296923Y492478*
Y491697*
X297036Y491228*
X297150Y490916*
X297377Y490603*
X297605Y490447*
X298059*
X298286Y490603*
X298514Y490916*
X298627Y491228*
X299650Y493103D02*
X299877Y493259D01*
X300218Y493728*
Y490447*
X301241Y493103D02*
X301468Y493259D01*
X301809Y493728*
Y490447*
X302945Y492947D02*
Y493103D01*
X303059Y493416*
X303173Y493572*
X303400Y493728*
X303855*
X304082Y493572*
X304195Y493416*
X304309Y493103*
Y492791*
X304195Y492478*
X303968Y492009*
X302832Y490447*
X304423*
X296772Y553380D02*
X300053D01*
X296772D02*
Y554402D01*
X296928Y554743*
X297084Y554857*
X297397Y554970*
X297709*
X298022Y554857*
X298178Y554743*
X298334Y554402*
Y553380*
Y554175D02*
X300053Y554970D01*
X297397Y555993D02*
X297241Y556220D01*
X296772Y556561*
X300053*
X297397Y557584D02*
X297241Y557811D01*
X296772Y558152*
X300053*
X296772Y560766D02*
X300053Y559630D01*
X296772Y559175D02*
Y560766D01*
X291935Y289274D02*
X291822Y289586D01*
X291594Y289899*
X291367Y290055*
X290913*
X290685Y289899*
X290458Y289586*
X290344Y289274*
X290231Y288805*
Y288024*
X290344Y287555*
X290458Y287242*
X290685Y286930*
X290913Y286774*
X291367*
X291594Y286930*
X291822Y287242*
X291935Y287555*
X294435Y288961D02*
X294322Y288492D01*
X294094Y288180*
X293753Y288024*
X293640*
X293299Y288180*
X293072Y288492*
X292958Y288961*
Y289117*
X293072Y289586*
X293299Y289899*
X293640Y290055*
X293753*
X294094Y289899*
X294322Y289586*
X294435Y288961*
Y288180*
X294322Y287399*
X294094Y286930*
X293753Y286774*
X293526*
X293185Y286930*
X293072Y287242*
X288053Y554884D02*
X287741Y554770D01*
X287428Y554543*
X287272Y554316*
Y553861*
X287428Y553634*
X287741Y553407*
X288053Y553293*
X288522Y553180*
X289303*
X289772Y553293*
X290084Y553407*
X290397Y553634*
X290553Y553861*
Y554316*
X290397Y554543*
X290084Y554770*
X289772Y554884*
X287897Y555907D02*
X287741Y556134D01*
X287272Y556475*
X290553*
X287897Y557498D02*
X287741Y557725D01*
X287272Y558066*
X290553*
X287741Y560452D02*
X287428Y560339D01*
X287272Y559998*
Y559770*
X287428Y559430*
X287897Y559202*
X288678Y559089*
X289459*
X290084Y559202*
X290397Y559430*
X290553Y559770*
Y559884*
X290397Y560225*
X290084Y560452*
X289616Y560566*
X289459*
X288991Y560452*
X288678Y560225*
X288522Y559884*
Y559770*
X288678Y559430*
X288991Y559202*
X289459Y559089*
X285139Y211328D02*
Y208047D01*
X286502*
X287525Y211328D02*
Y208047D01*
Y211328D02*
X289002D01*
X287525Y209766D02*
X288434D01*
X287525Y208047D02*
X289002D01*
X290025Y211328D02*
Y208047D01*
Y211328D02*
X290820D01*
X291161Y211172*
X291389Y210859*
X291502Y210547*
X291616Y210078*
Y209297*
X291502Y208828*
X291389Y208516*
X291161Y208203*
X290820Y208047*
X290025*
X292639Y210703D02*
X292866Y210859D01*
X293207Y211328*
Y208047*
X284258Y289203D02*
X284145Y289516D01*
X283917Y289828*
X283690Y289985*
X283236*
X283008Y289828*
X282781Y289516*
X282667Y289203*
X282554Y288735*
Y287953*
X282667Y287485*
X282781Y287172*
X283008Y286860*
X283236Y286703*
X283690*
X283917Y286860*
X284145Y287172*
X284258Y287485*
X285395Y289203D02*
Y289360D01*
X285508Y289672*
X285622Y289828*
X285849Y289985*
X286304*
X286531Y289828*
X286645Y289672*
X286758Y289360*
Y289047*
X286645Y288735*
X286417Y288266*
X285281Y286703*
X286872*
X279872Y552323D02*
X283153D01*
X279872D02*
Y553345D01*
X280028Y553686*
X280184Y553800*
X280497Y553914*
X280809*
X281122Y553800*
X281278Y553686*
X281434Y553345*
Y552323*
Y553118D02*
X283153Y553914D01*
X280497Y554936D02*
X280341Y555164D01*
X279872Y555505*
X283153*
X280497Y556527D02*
X280341Y556755D01*
X279872Y557095*
X283153*
X279872Y559595D02*
Y558459D01*
X281278Y558345*
X281122Y558459*
X280966Y558800*
Y559141*
X281122Y559482*
X281434Y559709*
X281903Y559823*
X282216Y559709*
X282684Y559595*
X282997Y559368*
X283153Y559027*
Y558686*
X282997Y558345*
X282841Y558232*
X282528Y558118*
X280116Y544947D02*
X280002Y545259D01*
X279775Y545572*
X279548Y545728*
X279093*
X278866Y545572*
X278639Y545259*
X278525Y544947*
X278411Y544478*
Y543697*
X278525Y543228*
X278639Y542916*
X278866Y542603*
X279093Y542447*
X279548*
X279775Y542603*
X280002Y542916*
X280116Y543228*
X281139Y545103D02*
X281366Y545259D01*
X281707Y545728*
Y542447*
X283411Y545728D02*
X283070Y545572D01*
X282843Y545103*
X282730Y544322*
Y543853*
X282843Y543072*
X283070Y542603*
X283411Y542447*
X283639*
X283980Y542603*
X284207Y543072*
X284320Y543853*
Y544322*
X284207Y545103*
X283980Y545572*
X283639Y545728*
X283411*
X285570D02*
X286820D01*
X286139Y544478*
X286480*
X286707Y544322*
X286820Y544166*
X286934Y543697*
Y543384*
X286820Y542916*
X286593Y542603*
X286252Y542447*
X285911*
X285570Y542603*
X285457Y542759*
X285343Y543072*
X276853Y509816D02*
X276541Y509702D01*
X276228Y509475*
X276072Y509248*
Y508793*
X276228Y508566*
X276541Y508339*
X276853Y508225*
X277322Y508111*
X278103*
X278572Y508225*
X278884Y508339*
X279197Y508566*
X279353Y508793*
Y509248*
X279197Y509475*
X278884Y509702*
X278572Y509816*
X276697Y510839D02*
X276541Y511066D01*
X276072Y511407*
X279353*
X276072Y513111D02*
X276228Y512770D01*
X276697Y512543*
X277478Y512430*
X277947*
X278728Y512543*
X279197Y512770*
X279353Y513111*
Y513339*
X279197Y513680*
X278728Y513907*
X277947Y514020*
X277478*
X276697Y513907*
X276228Y513680*
X276072Y513339*
Y513111*
Y516634D02*
X279353Y515498D01*
X276072Y515043D02*
Y516634D01*
X274670Y211328D02*
Y208047D01*
Y211328D02*
X275693D01*
X276034Y211172*
X276148Y211016*
X276261Y210703*
Y210391*
X276148Y210078*
X276034Y209922*
X275693Y209766*
X274670*
X275466D02*
X276261Y208047D01*
X277511Y211328D02*
X278761D01*
X278080Y210078*
X278420*
X278648Y209922*
X278761Y209766*
X278875Y209297*
Y208984*
X278761Y208516*
X278534Y208203*
X278193Y208047*
X277852*
X277511Y208203*
X277398Y208359*
X277284Y208672*
X269323Y559228D02*
Y555947D01*
Y559228D02*
X270345D01*
X270686Y559072*
X270800Y558916*
X270914Y558603*
Y558291*
X270800Y557978*
X270686Y557822*
X270345Y557666*
X269323*
X270118D02*
X270914Y555947D01*
X271936Y558603D02*
X272164Y558759D01*
X272505Y559228*
Y555947*
X273527Y558603D02*
X273755Y558759D01*
X274095Y559228*
Y555947*
X276255Y559228D02*
X275118Y557041D01*
X276823*
X276255Y559228D02*
Y555947D01*
X268883Y485686D02*
X268571Y485572D01*
X268258Y485345*
X268102Y485118*
Y484663*
X268258Y484436*
X268571Y484209*
X268883Y484095*
X269352Y483981*
X270133*
X270602Y484095*
X270914Y484209*
X271227Y484436*
X271383Y484663*
Y485118*
X271227Y485345*
X270914Y485572*
X270602Y485686*
X268727Y486709D02*
X268571Y486936D01*
X268102Y487277*
X271383*
X268102Y488981D02*
X268258Y488640D01*
X268727Y488413*
X269508Y488300*
X269977*
X270758Y488413*
X271227Y488640*
X271383Y488981*
Y489209*
X271227Y489550*
X270758Y489777*
X269977Y489890*
X269508*
X268727Y489777*
X268258Y489550*
X268102Y489209*
Y488981*
X268883Y491027D02*
X268727D01*
X268414Y491140*
X268258Y491254*
X268102Y491481*
Y491936*
X268258Y492163*
X268414Y492277*
X268727Y492390*
X269039*
X269352Y492277*
X269821Y492050*
X271383Y490913*
Y492504*
X268953Y495916D02*
X268641Y495802D01*
X268328Y495575*
X268172Y495348*
Y494893*
X268328Y494666*
X268641Y494439*
X268953Y494325*
X269422Y494211*
X270203*
X270672Y494325*
X270984Y494439*
X271297Y494666*
X271453Y494893*
Y495348*
X271297Y495575*
X270984Y495802*
X270672Y495916*
X268797Y496939D02*
X268641Y497166D01*
X268172Y497507*
X271453*
X268172Y499211D02*
X268328Y498870D01*
X268797Y498643*
X269578Y498530*
X270047*
X270828Y498643*
X271297Y498870*
X271453Y499211*
Y499439*
X271297Y499780*
X270828Y500007*
X270047Y500120*
X269578*
X268797Y500007*
X268328Y499780*
X268172Y499439*
Y499211*
Y501711D02*
X268328Y501370D01*
X268641Y501257*
X268953*
X269266Y501370*
X269422Y501598*
X269578Y502052*
X269734Y502393*
X270047Y502620*
X270359Y502734*
X270828*
X271141Y502620*
X271297Y502507*
X271453Y502166*
Y501711*
X271297Y501370*
X271141Y501257*
X270828Y501143*
X270359*
X270047Y501257*
X269734Y501484*
X269578Y501825*
X269422Y502280*
X269266Y502507*
X268953Y502620*
X268641*
X268328Y502507*
X268172Y502166*
Y501711*
X266959Y525347D02*
X266845Y525659D01*
X266618Y525972*
X266391Y526128*
X265936*
X265709Y525972*
X265482Y525659*
X265368Y525347*
X265255Y524878*
Y524097*
X265368Y523628*
X265482Y523316*
X265709Y523003*
X265936Y522847*
X266391*
X266618Y523003*
X266845Y523316*
X266959Y523628*
X267982Y525503D02*
X268209Y525659D01*
X268550Y526128*
Y522847*
X270255Y526128D02*
X269914Y525972D01*
X269686Y525503*
X269573Y524722*
Y524253*
X269686Y523472*
X269914Y523003*
X270255Y522847*
X270482*
X270823Y523003*
X271050Y523472*
X271164Y524253*
Y524722*
X271050Y525503*
X270823Y525972*
X270482Y526128*
X270255*
X273664D02*
X272527D01*
X272414Y524722*
X272527Y524878*
X272868Y525034*
X273209*
X273550Y524878*
X273777Y524566*
X273891Y524097*
X273777Y523784*
X273664Y523316*
X273436Y523003*
X273095Y522847*
X272755*
X272414Y523003*
X272300Y523159*
X272186Y523472*
X256753Y487016D02*
X256441Y486902D01*
X256128Y486675*
X255972Y486448*
Y485993*
X256128Y485766*
X256441Y485539*
X256753Y485425*
X257222Y485311*
X258003*
X258472Y485425*
X258784Y485539*
X259097Y485766*
X259253Y485993*
Y486448*
X259097Y486675*
X258784Y486902*
X258472Y487016*
X256597Y488039D02*
X256441Y488266D01*
X255972Y488607*
X259253*
X256753Y489743D02*
X256597D01*
X256284Y489857*
X256128Y489970*
X255972Y490198*
Y490652*
X256128Y490880*
X256284Y490993*
X256597Y491107*
X256909*
X257222Y490993*
X257691Y490766*
X259253Y489630*
Y491220*
X255972Y492470D02*
Y493720D01*
X257222Y493039*
Y493380*
X257378Y493607*
X257534Y493720*
X258003Y493834*
X258316*
X258784Y493720*
X259097Y493493*
X259253Y493152*
Y492811*
X259097Y492470*
X258941Y492357*
X258628Y492243*
X254030Y395347D02*
X253916Y395659D01*
X253689Y395972*
X253461Y396128*
X253007*
X252780Y395972*
X252552Y395659*
X252439Y395347*
X252325Y394878*
Y394097*
X252439Y393628*
X252552Y393316*
X252780Y393003*
X253007Y392847*
X253461*
X253689Y393003*
X253916Y393316*
X254030Y393628*
X255052Y395503D02*
X255280Y395659D01*
X255620Y396128*
Y392847*
X250911Y516328D02*
Y513047D01*
Y516328D02*
X251934D01*
X252275Y516172*
X252389Y516016*
X252502Y515703*
Y515391*
X252389Y515078*
X252275Y514922*
X251934Y514766*
X250911*
X251707D02*
X252502Y513047D01*
X253525Y515703D02*
X253752Y515859D01*
X254093Y516328*
Y513047*
X255798Y516328D02*
X255457Y516172D01*
X255230Y515703*
X255116Y514922*
Y514453*
X255230Y513672*
X255457Y513203*
X255798Y513047*
X256025*
X256366Y513203*
X256593Y513672*
X256707Y514453*
Y514922*
X256593Y515703*
X256366Y516172*
X256025Y516328*
X255798*
X259207D02*
X258070D01*
X257957Y514922*
X258070Y515078*
X258411Y515234*
X258752*
X259093Y515078*
X259320Y514766*
X259434Y514297*
X259320Y513984*
X259207Y513516*
X258980Y513203*
X258639Y513047*
X258298*
X257957Y513203*
X257843Y513359*
X257730Y513672*
X250825Y508528D02*
Y505247D01*
Y508528D02*
X251848D01*
X252189Y508372*
X252302Y508216*
X252416Y507903*
Y507591*
X252302Y507278*
X252189Y507122*
X251848Y506966*
X250825*
X251620D02*
X252416Y505247D01*
X253439Y507903D02*
X253666Y508059D01*
X254007Y508528*
Y505247*
X255711Y508528D02*
X255370Y508372D01*
X255143Y507903*
X255030Y507122*
Y506653*
X255143Y505872*
X255370Y505403*
X255711Y505247*
X255939*
X256280Y505403*
X256507Y505872*
X256620Y506653*
Y507122*
X256507Y507903*
X256280Y508372*
X255939Y508528*
X255711*
X259007Y508059D02*
X258893Y508372D01*
X258552Y508528*
X258325*
X257984Y508372*
X257757Y507903*
X257643Y507122*
Y506341*
X257757Y505716*
X257984Y505403*
X258325Y505247*
X258439*
X258780Y505403*
X259007Y505716*
X259120Y506184*
Y506341*
X259007Y506809*
X258780Y507122*
X258439Y507278*
X258325*
X257984Y507122*
X257757Y506809*
X257643Y506341*
X252939Y500347D02*
X252825Y500659D01*
X252598Y500972*
X252370Y501128*
X251916*
X251689Y500972*
X251461Y500659*
X251348Y500347*
X251234Y499878*
Y499097*
X251348Y498628*
X251461Y498316*
X251689Y498003*
X251916Y497847*
X252370*
X252598Y498003*
X252825Y498316*
X252939Y498628*
X253961Y500503D02*
X254189Y500659D01*
X254530Y501128*
Y497847*
X255552Y500503D02*
X255780Y500659D01*
X256120Y501128*
Y497847*
X257143Y500503D02*
X257370Y500659D01*
X257711Y501128*
Y497847*
X247672Y484911D02*
X250953D01*
X247672D02*
Y485934D01*
X247828Y486275*
X247984Y486389*
X248297Y486502*
X248609*
X248922Y486389*
X249078Y486275*
X249234Y485934*
Y484911*
Y485707D02*
X250953Y486502D01*
X248297Y487525D02*
X248141Y487752D01*
X247672Y488093*
X250953*
X248453Y489230D02*
X248297D01*
X247984Y489343*
X247828Y489457*
X247672Y489684*
Y490139*
X247828Y490366*
X247984Y490480*
X248297Y490593*
X248609*
X248922Y490480*
X249391Y490252*
X250953Y489116*
Y490707*
X247672Y493207D02*
Y492070D01*
X249078Y491957*
X248922Y492070*
X248766Y492411*
Y492752*
X248922Y493093*
X249234Y493320*
X249703Y493434*
X250016Y493320*
X250484Y493207*
X250797Y492980*
X250953Y492639*
Y492298*
X250797Y491957*
X250641Y491843*
X250328Y491730*
X241872Y485211D02*
X245153D01*
X241872D02*
Y486234D01*
X242028Y486575*
X242184Y486689*
X242497Y486802*
X242809*
X243122Y486689*
X243278Y486575*
X243434Y486234*
Y485211*
Y486007D02*
X245153Y486802D01*
X242497Y487825D02*
X242341Y488052D01*
X241872Y488393*
X245153*
X242653Y489530D02*
X242497D01*
X242184Y489643*
X242028Y489757*
X241872Y489984*
Y490439*
X242028Y490666*
X242184Y490780*
X242497Y490893*
X242809*
X243122Y490780*
X243591Y490552*
X245153Y489416*
Y491007*
X241872Y493166D02*
X244059Y492030D01*
Y493734*
X241872Y493166D02*
X245153D01*
X239468Y515728D02*
Y512447D01*
Y515728D02*
X240491D01*
X240832Y515572*
X240945Y515416*
X241059Y515103*
Y514791*
X240945Y514478*
X240832Y514322*
X240491Y514166*
X239468*
X240264D02*
X241059Y512447D01*
X242082Y515103D02*
X242309Y515259D01*
X242650Y515728*
Y512447*
X244355Y515728D02*
X244014Y515572D01*
X243786Y515103*
X243673Y514322*
Y513853*
X243786Y513072*
X244014Y512603*
X244355Y512447*
X244582*
X244923Y512603*
X245150Y513072*
X245264Y513853*
Y514322*
X245150Y515103*
X244923Y515572*
X244582Y515728*
X244355*
X246514D02*
X247764D01*
X247082Y514478*
X247423*
X247650Y514322*
X247764Y514166*
X247877Y513697*
Y513384*
X247764Y512916*
X247536Y512603*
X247195Y512447*
X246855*
X246514Y512603*
X246400Y512759*
X246286Y513072*
X239411Y500928D02*
Y497647D01*
Y500928D02*
X240434D01*
X240775Y500772*
X240889Y500616*
X241002Y500303*
Y499991*
X240889Y499678*
X240775Y499522*
X240434Y499366*
X239411*
X240207D02*
X241002Y497647D01*
X242025Y500303D02*
X242252Y500459D01*
X242593Y500928*
Y497647*
X244298Y500928D02*
X243957Y500772D01*
X243730Y500303*
X243616Y499522*
Y499053*
X243730Y498272*
X243957Y497803*
X244298Y497647*
X244525*
X244866Y497803*
X245093Y498272*
X245207Y499053*
Y499522*
X245093Y500303*
X244866Y500772*
X244525Y500928*
X244298*
X247366D02*
X246230Y498741D01*
X247934*
X247366Y500928D02*
Y497647D01*
X242227Y508147D02*
X242114Y508459D01*
X241886Y508772*
X241659Y508928*
X241205*
X240977Y508772*
X240750Y508459*
X240636Y508147*
X240523Y507678*
Y506897*
X240636Y506428*
X240750Y506116*
X240977Y505803*
X241205Y505647*
X241659*
X241886Y505803*
X242114Y506116*
X242227Y506428*
X243250Y508303D02*
X243477Y508459D01*
X243818Y508928*
Y505647*
X244841Y508303D02*
X245068Y508459D01*
X245409Y508928*
Y505647*
X247114Y508928D02*
X246773Y508772D01*
X246545Y508303*
X246432Y507522*
Y507053*
X246545Y506272*
X246773Y505803*
X247114Y505647*
X247341*
X247682Y505803*
X247909Y506272*
X248023Y507053*
Y507522*
X247909Y508303*
X247682Y508772*
X247341Y508928*
X247114*
X222445Y529049D02*
X225726D01*
X222445D02*
Y530072D01*
X222601Y530413*
X222757Y530526*
X223070Y530640*
X223382*
X223695Y530526*
X223851Y530413*
X224007Y530072*
Y529049*
Y529844D02*
X225726Y530640D01*
X223070Y531663D02*
X222913Y531890D01*
X222445Y532231*
X225726*
X223226Y533367D02*
X223070D01*
X222757Y533481*
X222601Y533594*
X222445Y533822*
Y534276*
X222601Y534504*
X222757Y534617*
X223070Y534731*
X223382*
X223695Y534617*
X224163Y534390*
X225726Y533254*
Y534844*
X222445Y536094D02*
Y537344D01*
X223695Y536663*
Y537004*
X223851Y537231*
X224007Y537344*
X224476Y537458*
X224788*
X225257Y537344*
X225570Y537117*
X225726Y536776*
Y536435*
X225570Y536094*
X225413Y535981*
X225101Y535867*
X390253Y495184D02*
X389941Y495070D01*
X389628Y494843*
X389472Y494616*
Y494161*
X389628Y493934*
X389941Y493707*
X390253Y493593*
X390722Y493480*
X391503*
X391972Y493593*
X392284Y493707*
X392597Y493934*
X392753Y494161*
Y494616*
X392597Y494843*
X392284Y495070*
X391972Y495184*
X390097Y496207D02*
X389941Y496434D01*
X389472Y496775*
X392753*
X390097Y497798D02*
X389941Y498025D01*
X389472Y498366*
X392753*
X390566Y500866D02*
X391034Y500752D01*
X391347Y500525*
X391503Y500184*
Y500070*
X391347Y499730*
X391034Y499502*
X390566Y499389*
X390409*
X389941Y499502*
X389628Y499730*
X389472Y500070*
Y500184*
X389628Y500525*
X389941Y500752*
X390566Y500866*
X391347*
X392128Y500752*
X392597Y500525*
X392753Y500184*
Y499957*
X392597Y499616*
X392284Y499502*
G54D87*
X410040Y524960D02*
X400180D01*
Y532050*
X410040*
Y524960*
X386940Y502540D02*
Y492680D01*
X379850*
Y502540*
X386940*
X386807Y555374D02*
X376947D01*
Y562464*
X386807*
Y555374*
X365408Y514278D02*
Y524138D01*
X372498*
Y514278*
X365408*
X344240Y270940D02*
Y261080D01*
X337150*
Y270940*
X344240*
X347308Y518748D02*
X340459Y511655D01*
X335359Y516580*
X342208Y523673*
X347308Y518748*
X339398Y539984D02*
X346370Y533012D01*
X341357Y527999*
X334385Y534971*
X339398Y539984*
X328015Y509049D02*
X334987Y516021D01*
X340000Y511008*
X333028Y504036*
X328015Y509049*
X319960Y489260D02*
Y499120D01*
X327050*
Y489260*
X319960*
X326240Y270940D02*
Y261080D01*
X319150*
Y270940*
X326240*
X302260Y243560D02*
Y253420D01*
X309350*
Y243560*
X302260*
X308740Y267940D02*
Y258080D01*
X301650*
Y267940*
X308740*
X295760Y495440D02*
X305620D01*
Y488350*
X295760*
Y495440*
X285527Y551728D02*
Y561588D01*
X292617*
Y551728*
X285527*
X288140Y540660D02*
X278280D01*
Y547750*
X288140*
Y540660*
X274160Y507260D02*
Y517120D01*
X281250*
Y507260*
X274160*
X266160Y483860D02*
Y493720D01*
X273250*
Y483860*
X266160*
X273244Y504500D02*
Y494640D01*
X266154*
Y504500*
X273244*
X275370Y521234D02*
X265510D01*
Y528324*
X275370*
Y521234*
X253797Y485009D02*
Y494869D01*
X260887*
Y485009*
X253797*
X251760Y389360D02*
Y399220D01*
X258850*
Y389360*
X251760*
X249863Y503359D02*
X259723D01*
Y496269*
X249863*
Y503359*
X239289Y510629D02*
X249149D01*
Y503539*
X239289*
Y510629*
G74*
X0Y0D02*
M02*
