*
*
G04 PADS 9.3 Build Number: 433611 generated Gerber (RS-274-X) file*
G04 PC Version=2.1*
*
%IN "430BOOST-SHARP96.pcb"*%
*
%MOIN*%
*
%FSLAX35Y35*%
*
*
*
*
G04 PC Standard Apertures*
*
*
G04 Thermal Relief Aperture macro.*
%AMTER*
1,1,$1,0,0*
1,0,$1-$2,0,0*
21,0,$3,$4,0,0,45*
21,0,$3,$4,0,0,135*
%
*
*
G04 Annular Aperture macro.*
%AMANN*
1,1,$1,0,0*
1,0,$2,0,0*
%
*
*
G04 Odd Aperture macro.*
%AMODD*
1,1,$1,0,0*
1,0,$1-0.005,0,0*
%
*
*
G04 PC Custom Aperture Macros*
*
*
*
*
*
*
G04 PC Aperture Table*
*
%ADD011C,0.012*%
%ADD013C,0.01*%
%ADD014C,0.02*%
%ADD015C,0.015*%
%ADD016C,0.005*%
%ADD018C,0.001*%
%ADD021C,0.008*%
*
*
*
*
G04 PC Circuitry*
G04 Layer Name 430BOOST-SHARP96.pcb - circuitry*
%LPD*%
*
G54D18*
G01X476570Y270129D02*
X475867D01*
Y263800*
X476570*
Y270129*
X474606Y268343D02*
X473902D01*
Y263800*
X474606*
Y268343*
Y270129D02*
X473902D01*
Y269425*
X474606*
Y270129*
X472552Y266961D02*
X472465Y267574D01*
X472207Y268090*
X471782Y268345*
X471175Y268431*
X470738Y268344*
X470392Y268258*
X470051Y268002*
X469788Y267564*
X469700Y267567*
X469525Y267917*
X469271Y268172*
X468838Y268345*
X468407Y268431*
X468064Y268345*
X467630Y268172*
X467102Y267643*
X467017Y267679*
Y268343*
X466313*
Y263800*
X467017*
Y266696*
X467018Y266709*
X467107Y267066*
X467117Y267086*
X467564Y267621*
X467589Y267637*
X468214Y267816*
X468239*
X468597Y267727*
X468612Y267720*
X468880Y267542*
X468897Y267522*
X469076Y267165*
X469081Y267143*
Y263800*
X469784*
Y266429*
X469785Y266436*
X469874Y267061*
X469884Y267084*
X470152Y267441*
X470162Y267451*
X470519Y267719*
X470539Y267728*
X470985Y267817*
X471005*
X471451Y267728*
X471482Y267709*
X471749Y267351*
X471757Y267337*
X471846Y267069*
X471849Y267054*
Y263800*
X472552*
Y266961*
X465231Y267761D02*
X465055Y268377D01*
X464701Y269351*
X464442Y269696*
X464099Y269953*
X463226Y270128*
X462617Y270041*
X462099Y269782*
X461753Y269349*
X461489Y268735*
X461313Y267939*
X461224Y266873*
Y266078*
X461401Y265370*
X461577Y264752*
X461836Y264320*
X462444Y263886*
X463229Y263712*
X463229D02*
X463837Y263798D01*
X464356Y264058*
X464702Y264490*
X464965Y265105*
X465142Y265901*
X465231Y266877*
Y267761*
X464527Y267589D02*
Y266161D01*
Y266152*
X464437Y265617*
Y265615*
X464348Y265169*
X464343Y265156*
X464165Y264799*
X464151Y264782*
X463705Y264425*
X463684Y264415*
X463237Y264326*
X463217*
X462771Y264415*
X462750Y264425*
X462303Y264782*
X462290Y264799*
X462111Y265156*
X462107Y265169*
X462018Y265615*
X462017Y265617*
X461928Y266152*
X461927Y266161*
Y267589*
X461928Y267596*
X462017Y268221*
X462018Y268224*
X462107Y268671*
X462111Y268683*
X462290Y269040*
X462303Y269057*
X462750Y269414*
X462771Y269424*
X463217Y269513*
X463235Y269514*
X463771Y269424*
X463802Y269406*
X464159Y268960*
X464162Y268956*
X464340Y268688*
X464348Y268671*
X464437Y268224*
Y268221*
X464527Y267596*
Y267589*
X460231Y265982D02*
X460143Y266767D01*
X459709Y267375*
X459099Y267811*
X458403Y267985*
X457799Y267899*
X457273Y267548*
X457195Y267589*
X457196Y267597*
X457464Y269294*
X457513Y269336*
X459874*
Y270039*
X456929*
X456322Y266829*
X457048Y266749*
X457478Y267178*
X457499Y267191*
X458124Y267370*
X458145Y267371*
X458770Y267282*
X458793Y267272*
X459150Y267004*
X459163Y266990*
X459431Y266544*
X459437Y266525*
X459527Y265900*
Y265886*
X459437Y265261*
X459431Y265242*
X459163Y264796*
X459155Y264786*
X458798Y264429*
X458770Y264415*
X458145Y264326*
X458145D02*
X458128D01*
X457682Y264415*
X457669Y264420*
X457312Y264598*
X457290Y264620*
X457290D02*
X457111Y264978D01*
X457108Y264984*
X456943Y265482*
X456236Y265403*
X456398Y264753*
X456833Y264145*
X457440Y263798*
X458137Y263711*
X458665Y263799*
X459099Y263886*
X459444Y264145*
X459794Y264495*
X460143Y265105*
X460231Y265982*
X455230Y265628D02*
X455143Y266233D01*
X454884Y266665*
X454540Y267010*
X454015Y267185*
X454001Y267272*
X454701Y267797*
X454872Y268483*
X454700Y269346*
X454006Y269867*
X453570Y270041*
X453136Y270128*
X452442Y270041*
X451924Y269696*
X451576Y269173*
X451332Y268525*
X452034Y268447*
X452199Y268858*
X452200Y268862*
X452379Y269219*
X452401Y269241*
X452758Y269420*
X452769Y269424*
X453126Y269513*
X453148*
X453594Y269424*
X453612Y269417*
X453880Y269238*
X453897Y269219*
X454076Y268862*
X454079Y268851*
X454169Y268494*
Y268472*
X454080Y268026*
X454066Y268000*
X453798Y267733*
X453793Y267728*
X453436Y267460*
X453406Y267450*
X452825*
X452749Y266846*
X453219Y266924*
X453235*
X453771Y266835*
X453793Y266826*
X454150Y266558*
X454160Y266548*
X454428Y266191*
X454437Y266169*
X454527Y265633*
Y265625*
X454526Y265615*
X454437Y265169*
X454431Y265153*
X454163Y264706*
X454150Y264692*
X453793Y264424*
X453771Y264415*
X453235Y264326*
X453217*
X452771Y264415*
X452758Y264420*
X452401Y264598*
X452384Y264613*
X452116Y264970*
X452108Y264984*
X451943Y265482*
X451236Y265403*
X451398Y264753*
X451833Y264145*
X452440Y263798*
X453136Y263711*
X454013Y263887*
X454620Y264234*
X455056Y264931*
X455230Y265628*
X449070Y270129D02*
X448613D01*
X448359Y269706*
X448352Y269697*
X447905Y269250*
X447898Y269244*
X447362Y268887*
X447359Y268885*
X446759Y268542*
Y267849*
X447576Y268257*
X448287Y268790*
X448367Y268750*
Y263800*
X449070*
Y270129*
X321184Y186129D02*
X320480D01*
Y179800*
X321184*
Y186129*
X319219Y184343D02*
X318516D01*
Y179800*
X319219*
Y184343*
Y186129D02*
X318516D01*
Y185425*
X319219*
Y186129*
X317166Y182961D02*
X317078Y183574D01*
X316821Y184090*
X316395Y184345*
X315789Y184431*
X315352Y184344*
X315006Y184258*
X314664Y184002*
X314402Y183564*
X314314Y183567*
X314139Y183917*
X313884Y184172*
X313452Y184345*
X313021Y184431*
X312678Y184345*
X312244Y184172*
X311716Y183643*
X311630Y183679*
Y184343*
X310927*
Y179800*
X311630*
Y182696*
X311632Y182709*
X311721Y183066*
X311731Y183086*
X312177Y183621*
X312177D02*
X312202Y183637D01*
X312827Y183816*
X312853*
X313210Y183727*
X313226Y183720*
X313494Y183542*
X313511Y183522*
X313689Y183165*
X313694Y183143*
Y179800*
X314398*
Y182429*
X314399Y182436*
X314488Y183061*
X314497Y183084*
X314765Y183441*
X314775Y183451*
X315132Y183719*
X315153Y183728*
X315599Y183817*
X315619*
X316065Y183728*
X316095Y183709*
X316363Y183351*
X316370Y183337*
X316460Y183069*
X316462Y183054*
Y179800*
X317166*
Y182961*
X309844Y183761D02*
X309668Y184377D01*
X309314Y185351*
X309055Y185696*
X308713Y185953*
X307840Y186128*
X307231Y186041*
X306712Y185782*
X306366Y185349*
X306103Y184735*
X305926Y183939*
X305837Y182873*
Y182078*
X306014Y181370*
X306191Y180752*
X306450Y180320*
X307058Y179886*
X307843Y179712*
X307843D02*
X308451Y179798D01*
X308969Y180058*
X309315Y180490*
X309579Y181105*
X309756Y181901*
X309844Y182877*
Y183761*
X309141Y183589D02*
Y182161D01*
X309140Y182152*
X309051Y181617*
Y181615*
X308961Y181169*
X308957Y181156*
X308778Y180799*
X308765Y180782*
X308319Y180425*
X308297Y180415*
X307851Y180326*
X307831*
X307385Y180415*
X307363Y180425*
X306917Y180782*
X306903Y180799*
X306725Y181156*
X306720Y181169*
X306631Y181615*
Y181617*
X306542Y182152*
X306541Y182161*
Y183589*
Y183596*
X306631Y184221*
Y184224*
X306720Y184671*
X306725Y184683*
X306903Y185040*
X306917Y185057*
X307363Y185414*
X307385Y185424*
X307831Y185513*
X307849Y185514*
X308385Y185424*
X308416Y185406*
X308773Y184960*
X308775Y184956*
X308954Y184688*
X308961Y184671*
X309051Y184224*
Y184221*
X309140Y183596*
X309141Y183589*
X304844Y183761D02*
X304668Y184377D01*
X304314Y185351*
X304055Y185696*
X303713Y185953*
X302840Y186128*
X302231Y186041*
X301712Y185782*
X301366Y185349*
X301103Y184735*
X300926Y183939*
X300837Y182873*
Y182078*
X301014Y181370*
X301191Y180752*
X301450Y180320*
X302058Y179886*
X302843Y179712*
X302843D02*
X303451Y179798D01*
X303969Y180058*
X304315Y180490*
X304579Y181105*
X304756Y181901*
X304844Y182877*
Y183761*
X304141Y183589D02*
Y182161D01*
X304140Y182152*
X304051Y181617*
Y181615*
X303961Y181169*
X303957Y181156*
X303778Y180799*
X303765Y180782*
X303319Y180425*
X303297Y180415*
X302851Y180326*
X302831*
X302385Y180415*
X302363Y180425*
X301917Y180782*
X301903Y180799*
X301725Y181156*
X301720Y181169*
X301631Y181615*
Y181617*
X301542Y182152*
X301541Y182161*
Y183589*
Y183596*
X301631Y184221*
Y184224*
X301720Y184671*
X301725Y184683*
X301903Y185040*
X301917Y185057*
X302363Y185414*
X302385Y185424*
X302831Y185513*
X302849Y185514*
X303385Y185424*
X303416Y185406*
X303773Y184960*
X303775Y184956*
X303954Y184688*
X303961Y184671*
X304051Y184224*
Y184221*
X304140Y183596*
X304141Y183589*
X298684Y186129D02*
X298226D01*
X297973Y185706*
X297966Y185697*
X297519Y185250*
X297512Y185244*
X296976Y184887*
X296973Y184885*
X296373Y184542*
Y183849*
X297190Y184257*
X297900Y184790*
X297980Y184750*
Y179800*
X298684*
Y186129*
X294755Y180504D02*
X291680D01*
X291641Y180585*
X291998Y181031*
X292007Y181040*
X292363Y181307*
X292898Y181752*
X293609Y182374*
X294052Y182906*
X294315Y183257*
X294490Y183694*
X294665Y184396*
X294579Y185086*
X294148Y185604*
X293537Y185953*
X292749Y186128*
X291964Y186041*
X291357Y185694*
X290923Y185086*
X290760Y184436*
X291462Y184358*
X291542Y184760*
X291551Y184780*
X291819Y185137*
X291829Y185147*
X292186Y185415*
X292208Y185424*
X292743Y185514*
X292761Y185513*
X293208Y185424*
X293228Y185415*
X293585Y185147*
X293591Y185142*
X293858Y184875*
X293872Y184849*
X293961Y184403*
Y184383*
X293872Y183937*
X293866Y183921*
X293598Y183474*
X293593Y183467*
X293057Y182842*
X293053Y182838*
X292248Y182123*
X291627Y181590*
X290920Y180707*
X290746Y180272*
X290668Y179800*
X294755*
Y180504*
X290700Y179800D02*
Y179993D01*
X290800Y179800D02*
Y180406D01*
Y184432D02*
Y184594D01*
X290900Y179800D02*
Y180656D01*
Y184421D02*
Y184994D01*
X291000Y179800D02*
Y180806D01*
Y184410D02*
Y185194D01*
X291100Y179800D02*
Y180931D01*
Y184399D02*
Y185334D01*
X291200Y179800D02*
Y181056D01*
Y184387D02*
Y185474D01*
X291300Y179800D02*
Y181181D01*
Y184376D02*
Y185614D01*
X291400Y179800D02*
Y181306D01*
Y184365D02*
Y185719D01*
X291500Y179800D02*
Y181431D01*
Y184550D02*
Y185776D01*
X291600Y179800D02*
Y181556D01*
Y184845D02*
Y185833D01*
X291700Y179800D02*
Y180504D01*
Y180658D02*
Y181653D01*
Y184979D02*
Y185890D01*
X291800Y179800D02*
Y180504D01*
Y180783D02*
Y181738D01*
Y185112D02*
Y185947D01*
X291900Y179800D02*
Y180504D01*
Y180908D02*
Y181824D01*
Y185201D02*
Y186004D01*
X292000Y179800D02*
Y180504D01*
Y181033D02*
Y181910D01*
Y185276D02*
Y186045D01*
X292100Y179800D02*
Y180504D01*
Y181109D02*
Y181996D01*
Y185351D02*
Y186056D01*
X292200Y179800D02*
Y180504D01*
Y181184D02*
Y182081D01*
Y185422D02*
Y186067D01*
X292300Y179800D02*
Y180504D01*
Y181259D02*
Y182169D01*
Y185440D02*
Y186078D01*
X292400Y179800D02*
Y180504D01*
Y181338D02*
Y182257D01*
Y185456D02*
Y186089D01*
X292500Y179800D02*
Y180504D01*
Y181421D02*
Y182346D01*
Y185473D02*
Y186100D01*
X292600Y179800D02*
Y180504D01*
Y181504D02*
Y182435D01*
Y185490D02*
Y186111D01*
X292700Y179800D02*
Y180504D01*
Y181588D02*
Y182524D01*
Y185506D02*
Y186123D01*
X292800Y179800D02*
Y180504D01*
Y181671D02*
Y182613D01*
Y185506D02*
Y186117D01*
X292900Y179800D02*
Y180504D01*
Y181754D02*
Y182702D01*
Y185486D02*
Y186094D01*
X293000Y179800D02*
Y180504D01*
Y181842D02*
Y182791D01*
Y185466D02*
Y186072D01*
X293100Y179800D02*
Y180504D01*
Y181929D02*
Y182892D01*
Y185446D02*
Y186050D01*
X293200Y179800D02*
Y180504D01*
Y182017D02*
Y183009D01*
Y185426D02*
Y186028D01*
X293300Y179800D02*
Y180504D01*
Y182104D02*
Y183125D01*
Y185361D02*
Y186005D01*
X293400Y179800D02*
Y180504D01*
Y182192D02*
Y183242D01*
Y185286D02*
Y185983D01*
X293500Y179800D02*
Y180504D01*
Y182279D02*
Y183359D01*
Y185211D02*
Y185961D01*
X293600Y179800D02*
Y180504D01*
Y182367D02*
Y183477D01*
Y185133D02*
Y185917D01*
X293700Y179800D02*
Y180504D01*
Y182484D02*
Y183644D01*
Y185033D02*
Y185860D01*
X293800Y179800D02*
Y180504D01*
Y182604D02*
Y183811D01*
Y184933D02*
Y185803D01*
X293900Y179800D02*
Y180504D01*
Y182724D02*
Y184076D01*
Y184709D02*
Y185745D01*
X294000Y179800D02*
Y180504D01*
Y182844D02*
Y185688D01*
X294100Y179800D02*
Y180504D01*
Y182970D02*
Y185631D01*
X294200Y179800D02*
Y180504D01*
Y183104D02*
Y185541D01*
X294300Y179800D02*
Y180504D01*
Y183237D02*
Y185421D01*
X294400Y179800D02*
Y180504D01*
Y183470D02*
Y185301D01*
X294500Y179800D02*
Y180504D01*
Y183735D02*
Y185181D01*
X294600Y179800D02*
Y180504D01*
Y184135D02*
Y184917D01*
X294700Y179800D02*
Y180504D01*
X296400Y183862D02*
Y184558D01*
X296500Y183912D02*
Y184615D01*
X296600Y183962D02*
Y184672D01*
X296700Y184012D02*
Y184729D01*
X296800Y184062D02*
Y184786D01*
X296900Y184112D02*
Y184844D01*
X297000Y184162D02*
Y184903D01*
X297100Y184212D02*
Y184970D01*
X297200Y184265D02*
Y185036D01*
X297300Y184340D02*
Y185103D01*
X297400Y184415D02*
Y185170D01*
X297500Y184490D02*
Y185236D01*
X297600Y184565D02*
Y185331D01*
X297700Y184640D02*
Y185431D01*
X297800Y184715D02*
Y185531D01*
X297900Y184790D02*
Y185631D01*
X298000Y179800D02*
Y185751D01*
X298100Y179800D02*
Y185918D01*
X298200Y179800D02*
Y186085D01*
X298300Y179800D02*
Y186129D01*
X298400Y179800D02*
Y186129D01*
X298500Y179800D02*
Y186129D01*
X298600Y179800D02*
Y186129D01*
X300900Y181827D02*
Y183625D01*
X301000Y181427D02*
Y184271D01*
X301100Y181070D02*
Y184721D01*
X301200Y180737D02*
Y184961D01*
X301300Y180570D02*
Y185194D01*
X301400Y180403D02*
Y185391D01*
X301500Y180285D02*
Y185516D01*
X301600Y180213D02*
Y181802D01*
Y184006D02*
Y185641D01*
X301700Y180142D02*
Y181271D01*
Y184568D02*
Y185766D01*
X301800Y180070D02*
Y181006D01*
Y184834D02*
Y185825D01*
X301900Y179999D02*
Y180806D01*
Y185034D02*
Y185875D01*
X302000Y179927D02*
Y180716D01*
Y185123D02*
Y185925D01*
X302100Y179877D02*
Y180636D01*
Y185203D02*
Y185975D01*
X302200Y179854D02*
Y180556D01*
Y185283D02*
Y186025D01*
X302300Y179832D02*
Y180476D01*
Y185363D02*
Y186051D01*
X302400Y179810D02*
Y180412D01*
Y185427D02*
Y186065D01*
X302500Y179788D02*
Y180392D01*
Y185447D02*
Y186079D01*
X302600Y179765D02*
Y180372D01*
Y185467D02*
Y186094D01*
X302700Y179743D02*
Y180352D01*
Y185487D02*
Y186108D01*
X302800Y179721D02*
Y180332D01*
Y185507D02*
Y186122D01*
X302900Y179720D02*
Y180336D01*
Y185505D02*
Y186116D01*
X303000Y179734D02*
Y180356D01*
Y185488D02*
Y186096D01*
X303100Y179748D02*
Y180376D01*
Y185472D02*
Y186076D01*
X303200Y179763D02*
Y180396D01*
Y185455D02*
Y186056D01*
X303300Y179777D02*
Y180416D01*
Y185438D02*
Y186036D01*
X303400Y179791D02*
Y180490D01*
Y185419D02*
Y186016D01*
X303500Y179823D02*
Y180570D01*
Y185301D02*
Y185996D01*
X303600Y179873D02*
Y180650D01*
Y185176D02*
Y185976D01*
X303700Y179923D02*
Y180730D01*
Y185051D02*
Y185956D01*
X303800Y179973D02*
Y180842D01*
Y184919D02*
Y185888D01*
X303900Y180023D02*
Y181042D01*
Y184769D02*
Y185813D01*
X304000Y180096D02*
Y181362D01*
Y184477D02*
Y185738D01*
X304100Y180221D02*
Y181911D01*
Y183879D02*
Y185637D01*
X304200Y180346D02*
Y185503D01*
X304300Y180471D02*
Y185370D01*
X304400Y180687D02*
Y185115D01*
X304500Y180921D02*
Y184840D01*
X304600Y181200D02*
Y184565D01*
X304700Y181650D02*
Y184267D01*
X304800Y182388D02*
Y183917D01*
X305900Y181827D02*
Y183625D01*
X306000Y181427D02*
Y184271D01*
X306100Y181070D02*
Y184721D01*
X306200Y180737D02*
Y184961D01*
X306300Y180570D02*
Y185194D01*
X306400Y180403D02*
Y185391D01*
X306500Y180285D02*
Y185516D01*
X306600Y180213D02*
Y181802D01*
Y184006D02*
Y185641D01*
X306700Y180142D02*
Y181271D01*
Y184568D02*
Y185766D01*
X306800Y180070D02*
Y181006D01*
Y184834D02*
Y185825D01*
X306900Y179999D02*
Y180806D01*
Y185034D02*
Y185875D01*
X307000Y179927D02*
Y180716D01*
Y185123D02*
Y185925D01*
X307100Y179877D02*
Y180636D01*
Y185203D02*
Y185975D01*
X307200Y179854D02*
Y180556D01*
Y185283D02*
Y186025D01*
X307300Y179832D02*
Y180476D01*
Y185363D02*
Y186051D01*
X307400Y179810D02*
Y180412D01*
Y185427D02*
Y186065D01*
X307500Y179788D02*
Y180392D01*
Y185447D02*
Y186079D01*
X307600Y179765D02*
Y180372D01*
Y185467D02*
Y186094D01*
X307700Y179743D02*
Y180352D01*
Y185487D02*
Y186108D01*
X307800Y179721D02*
Y180332D01*
Y185507D02*
Y186122D01*
X307900Y179720D02*
Y180336D01*
Y185505D02*
Y186116D01*
X308000Y179734D02*
Y180356D01*
Y185488D02*
Y186096D01*
X308100Y179748D02*
Y180376D01*
Y185472D02*
Y186076D01*
X308200Y179763D02*
Y180396D01*
Y185455D02*
Y186056D01*
X308300Y179777D02*
Y180416D01*
Y185438D02*
Y186036D01*
X308400Y179791D02*
Y180490D01*
Y185419D02*
Y186016D01*
X308500Y179823D02*
Y180570D01*
Y185301D02*
Y185996D01*
X308600Y179873D02*
Y180650D01*
Y185176D02*
Y185976D01*
X308700Y179923D02*
Y180730D01*
Y185051D02*
Y185956D01*
X308800Y179973D02*
Y180842D01*
Y184919D02*
Y185888D01*
X308900Y180023D02*
Y181042D01*
Y184769D02*
Y185813D01*
X309000Y180096D02*
Y181362D01*
Y184477D02*
Y185738D01*
X309100Y180221D02*
Y181911D01*
Y183879D02*
Y185637D01*
X309200Y180346D02*
Y185503D01*
X309300Y180471D02*
Y185370D01*
X309400Y180687D02*
Y185115D01*
X309500Y180921D02*
Y184840D01*
X309600Y181200D02*
Y184565D01*
X309700Y181650D02*
Y184267D01*
X309800Y182388D02*
Y183917D01*
X311000Y179800D02*
Y184343D01*
X311100Y179800D02*
Y184343D01*
X311200Y179800D02*
Y184343D01*
X311300Y179800D02*
Y184343D01*
X311400Y179800D02*
Y184343D01*
X311500Y179800D02*
Y184343D01*
X311600Y179800D02*
Y184343D01*
X311700Y182982D02*
Y183633D01*
X311800Y183168D02*
Y183728D01*
X311900Y183288D02*
Y183828D01*
X312000Y183408D02*
Y183928D01*
X312100Y183528D02*
Y184028D01*
X312200Y183637D02*
Y184128D01*
X312300Y183665D02*
Y184194D01*
X312400Y183694D02*
Y184234D01*
X312500Y183722D02*
Y184274D01*
X312600Y183751D02*
Y184314D01*
X312700Y183780D02*
Y184351D01*
X312800Y183808D02*
Y184376D01*
X312900Y183805D02*
Y184401D01*
X313000Y183780D02*
Y184426D01*
X313100Y183755D02*
Y184415D01*
X313200Y183730D02*
Y184395D01*
X313300Y183671D02*
Y184375D01*
X313400Y183604D02*
Y184355D01*
X313500Y183537D02*
Y184325D01*
X313600Y183344D02*
Y184285D01*
X313700Y179800D02*
Y184245D01*
X313800Y179800D02*
Y184205D01*
X313900Y179800D02*
Y184156D01*
X314000Y179800D02*
Y184056D01*
X314100Y179800D02*
Y183956D01*
X314200Y179800D02*
Y183795D01*
X314300Y179800D02*
Y183595D01*
X314400Y182446D02*
Y183561D01*
X314500Y183087D02*
Y183727D01*
X314600Y183220D02*
Y183894D01*
X314700Y183354D02*
Y184028D01*
X314800Y183469D02*
Y184103D01*
X314900Y183544D02*
Y184178D01*
X315000Y183619D02*
Y184253D01*
X315100Y183694D02*
Y184281D01*
X315200Y183737D02*
Y184306D01*
X315300Y183757D02*
Y184331D01*
X315400Y183777D02*
Y184354D01*
X315500Y183797D02*
Y184374D01*
X315600Y183817D02*
Y184394D01*
X315700Y183801D02*
Y184414D01*
X315800Y183781D02*
Y184430D01*
X315900Y183761D02*
Y184416D01*
X316000Y183741D02*
Y184401D01*
X316100Y183702D02*
Y184387D01*
X316200Y183569D02*
Y184373D01*
X316300Y183435D02*
Y184358D01*
X316400Y183249D02*
Y184342D01*
X316500Y179800D02*
Y184282D01*
X316600Y179800D02*
Y184222D01*
X316700Y179800D02*
Y184162D01*
X316800Y179800D02*
Y184102D01*
X316900Y179800D02*
Y183931D01*
X317000Y179800D02*
Y183731D01*
X317100Y179800D02*
Y183422D01*
X318600Y179800D02*
Y184343D01*
Y185425D02*
Y186129D01*
X318700Y179800D02*
Y184343D01*
Y185425D02*
Y186129D01*
X318800Y179800D02*
Y184343D01*
Y185425D02*
Y186129D01*
X318900Y179800D02*
Y184343D01*
Y185425D02*
Y186129D01*
X319000Y179800D02*
Y184343D01*
Y185425D02*
Y186129D01*
X319100Y179800D02*
Y184343D01*
Y185425D02*
Y186129D01*
X319200Y179800D02*
Y184343D01*
Y185425D02*
Y186129D01*
X320500Y179800D02*
Y186129D01*
X320600Y179800D02*
Y186129D01*
X320700Y179800D02*
Y186129D01*
X320800Y179800D02*
Y186129D01*
X320900Y179800D02*
Y186129D01*
X321000Y179800D02*
Y186129D01*
X321100Y179800D02*
Y186129D01*
X446800Y267869D02*
Y268566D01*
X446900Y267919D02*
Y268623D01*
X447000Y267969D02*
Y268680D01*
X447100Y268019D02*
Y268737D01*
X447200Y268069D02*
Y268794D01*
X447300Y268119D02*
Y268851D01*
X447400Y268169D02*
Y268912D01*
X447500Y268219D02*
Y268979D01*
X447600Y268275D02*
Y269046D01*
X447700Y268350D02*
Y269112D01*
X447800Y268425D02*
Y269179D01*
X447900Y268500D02*
Y269246D01*
X448000Y268575D02*
Y269345D01*
X448100Y268650D02*
Y269445D01*
X448200Y268725D02*
Y269545D01*
X448300Y268797D02*
Y269645D01*
X448400Y263800D02*
Y269774D01*
X448500Y263800D02*
Y269941D01*
X448600Y263800D02*
Y270107D01*
X448700Y263800D02*
Y270129D01*
X448800Y263800D02*
Y270129D01*
X448900Y263800D02*
Y270129D01*
X449000Y263800D02*
Y270129D01*
X451300Y265147D02*
Y265410D01*
X451400Y264751D02*
Y265421D01*
Y268517D02*
Y268705D01*
X451500Y264611D02*
Y265432D01*
Y268506D02*
Y268972D01*
X451600Y264471D02*
Y265443D01*
Y268495D02*
Y269210D01*
X451700Y264331D02*
Y265455D01*
Y268484D02*
Y269360D01*
X451800Y264191D02*
Y265466D01*
Y268473D02*
Y269510D01*
X451900Y264107D02*
Y265477D01*
Y268462D02*
Y269660D01*
X452000Y264050D02*
Y265309D01*
Y268451D02*
Y269747D01*
X452100Y263993D02*
Y265009D01*
Y268611D02*
Y269813D01*
X452200Y263935D02*
Y264858D01*
Y268861D02*
Y269880D01*
X452300Y263878D02*
Y264724D01*
Y269061D02*
Y269947D01*
X452400Y263821D02*
Y264599D01*
Y269240D02*
Y270013D01*
X452500Y263791D02*
Y264549D01*
Y269290D02*
Y270048D01*
X452600Y263778D02*
Y264499D01*
Y269340D02*
Y270061D01*
X452700Y263766D02*
Y264449D01*
Y269390D02*
Y270073D01*
X452800Y263753D02*
Y264409D01*
Y266854D02*
Y267250D01*
Y269431D02*
Y270086D01*
X452900Y263741D02*
Y264389D01*
Y266871D02*
Y267450D01*
Y269456D02*
Y270098D01*
X453000Y263728D02*
Y264369D01*
Y266888D02*
Y267450D01*
Y269481D02*
Y270111D01*
X453100Y263716D02*
Y264349D01*
Y266904D02*
Y267450D01*
Y269506D02*
Y270123D01*
X453200Y263724D02*
Y264329D01*
Y266921D02*
Y267450D01*
Y269503D02*
Y270115D01*
X453300Y263744D02*
Y264336D01*
Y266914D02*
Y267450D01*
Y269483D02*
Y270095D01*
X453400Y263764D02*
Y264353D01*
Y266897D02*
Y267450D01*
Y269463D02*
Y270075D01*
X453500Y263784D02*
Y264370D01*
Y266880D02*
Y267508D01*
Y269443D02*
Y270055D01*
X453600Y263804D02*
Y264386D01*
Y266864D02*
Y267583D01*
Y269423D02*
Y270029D01*
X453700Y263824D02*
Y264403D01*
Y266847D02*
Y267658D01*
Y269358D02*
Y269989D01*
X453800Y263844D02*
Y264430D01*
Y266820D02*
Y267734D01*
Y269291D02*
Y269949D01*
X453900Y263864D02*
Y264505D01*
Y266745D02*
Y267834D01*
Y269213D02*
Y269909D01*
X454000Y263884D02*
Y264580D01*
Y266670D02*
Y267193D01*
Y267271D02*
Y267934D01*
Y269013D02*
Y269869D01*
X454100Y263936D02*
Y264655D01*
Y266595D02*
Y267156D01*
Y267347D02*
Y268127D01*
Y268769D02*
Y269796D01*
X454200Y263994D02*
Y264768D01*
Y266495D02*
Y267123D01*
Y267422D02*
Y269721D01*
X454300Y264051D02*
Y264935D01*
Y266361D02*
Y267090D01*
Y267497D02*
Y269646D01*
X454400Y264108D02*
Y265101D01*
Y266228D02*
Y267056D01*
Y267572D02*
Y269571D01*
X454500Y264165D02*
Y265484D01*
Y265793D02*
Y267023D01*
Y267647D02*
Y269496D01*
X454600Y264222D02*
Y266949D01*
Y267722D02*
Y269421D01*
X454700Y264361D02*
Y266849D01*
Y267797D02*
Y269346D01*
X454800Y264521D02*
Y266749D01*
Y268193D02*
Y268846D01*
X454900Y264681D02*
Y266639D01*
X455000Y264841D02*
Y266472D01*
X455100Y265108D02*
Y266305D01*
X455200Y265508D02*
Y265837D01*
X456300Y265147D02*
Y265410D01*
X456400Y264751D02*
Y265421D01*
Y266821D02*
Y267241D01*
X456500Y264611D02*
Y265432D01*
Y266810D02*
Y267770D01*
X456600Y264471D02*
Y265443D01*
Y266799D02*
Y268298D01*
X456700Y264331D02*
Y265455D01*
Y266787D02*
Y268827D01*
X456800Y264191D02*
Y265466D01*
Y266776D02*
Y269355D01*
X456900Y264107D02*
Y265477D01*
Y266765D02*
Y269884D01*
X457000Y264050D02*
Y265309D01*
Y266754D02*
Y270039D01*
X457100Y263993D02*
Y265009D01*
Y266801D02*
Y270039D01*
X457200Y263935D02*
Y264800D01*
Y266901D02*
Y267568D01*
Y267624D02*
Y270039D01*
X457300Y263878D02*
Y264607D01*
Y267001D02*
Y267566D01*
Y268257D02*
Y270039D01*
X457400Y263821D02*
Y264554D01*
Y267101D02*
Y267632D01*
Y268891D02*
Y270039D01*
X457500Y263791D02*
Y264504D01*
Y267191D02*
Y267699D01*
Y269334D02*
Y270039D01*
X457600Y263778D02*
Y264454D01*
Y267220D02*
Y267766D01*
Y269336D02*
Y270039D01*
X457700Y263766D02*
Y264412D01*
Y267248D02*
Y267832D01*
Y269336D02*
Y270039D01*
X457800Y263753D02*
Y264392D01*
Y267277D02*
Y267899D01*
Y269336D02*
Y270039D01*
X457900Y263741D02*
Y264372D01*
Y267305D02*
Y267913D01*
Y269336D02*
Y270039D01*
X458000Y263728D02*
Y264352D01*
Y267334D02*
Y267927D01*
Y269336D02*
Y270039D01*
X458100Y263716D02*
Y264332D01*
Y267363D02*
Y267942D01*
Y269336D02*
Y270039D01*
X458200Y263722D02*
Y264333D01*
Y267363D02*
Y267956D01*
Y269336D02*
Y270039D01*
X458300Y263738D02*
Y264348D01*
Y267349D02*
Y267970D01*
Y269336D02*
Y270039D01*
X458400Y263755D02*
Y264362D01*
Y267335D02*
Y267984D01*
Y269336D02*
Y270039D01*
X458500Y263772D02*
Y264376D01*
Y267320D02*
Y267961D01*
Y269336D02*
Y270039D01*
X458600Y263788D02*
Y264390D01*
Y267306D02*
Y267936D01*
Y269336D02*
Y270039D01*
X458700Y263806D02*
Y264405D01*
Y267292D02*
Y267911D01*
Y269336D02*
Y270039D01*
X458800Y263826D02*
Y264431D01*
Y267267D02*
Y267886D01*
Y269336D02*
Y270039D01*
X458900Y263846D02*
Y264531D01*
Y267192D02*
Y267861D01*
Y269336D02*
Y270039D01*
X459000Y263866D02*
Y264631D01*
Y267117D02*
Y267836D01*
Y269336D02*
Y270039D01*
X459100Y263887D02*
Y264731D01*
Y267042D02*
Y267810D01*
Y269336D02*
Y270039D01*
X459200Y263962D02*
Y264857D01*
Y266928D02*
Y267739D01*
Y269336D02*
Y270039D01*
X459300Y264037D02*
Y265024D01*
Y266762D02*
Y267667D01*
Y269336D02*
Y270039D01*
X459400Y264112D02*
Y265191D01*
Y266595D02*
Y267596D01*
Y269336D02*
Y270039D01*
X459500Y264201D02*
Y265698D01*
Y266087D02*
Y267524D01*
Y269336D02*
Y270039D01*
X459600Y264301D02*
Y267453D01*
Y269336D02*
Y270039D01*
X459700Y264401D02*
Y267382D01*
Y269336D02*
Y270039D01*
X459800Y264505D02*
Y267248D01*
Y269336D02*
Y270039D01*
X459900Y264680D02*
Y267108D01*
X460000Y264855D02*
Y266968D01*
X460100Y265030D02*
Y266828D01*
X460200Y265676D02*
Y266257D01*
X461300Y265772D02*
Y267789D01*
X461400Y265372D02*
Y268332D01*
X461500Y265022D02*
Y268759D01*
X461600Y264714D02*
Y268993D01*
X461700Y264547D02*
Y269226D01*
X461800Y264381D02*
Y269408D01*
X461900Y264275D02*
Y269533D01*
X462000Y264203D02*
Y265720D01*
Y268102D02*
Y269658D01*
X462100Y264132D02*
Y265203D01*
Y268636D02*
Y269782D01*
X462200Y264061D02*
Y264978D01*
Y268861D02*
Y269832D01*
X462300Y263989D02*
Y264785D01*
Y269054D02*
Y269882D01*
X462400Y263918D02*
Y264705D01*
Y269134D02*
Y269932D01*
X462500Y263874D02*
Y264625D01*
Y269214D02*
Y269982D01*
X462600Y263851D02*
Y264545D01*
Y269294D02*
Y270032D01*
X462700Y263829D02*
Y264465D01*
Y269374D02*
Y270053D01*
X462800Y263807D02*
Y264409D01*
Y269430D02*
Y270067D01*
X462900Y263785D02*
Y264389D01*
Y269450D02*
Y270081D01*
X463000Y263762D02*
Y264369D01*
Y269470D02*
Y270096D01*
X463100Y263740D02*
Y264349D01*
Y269490D02*
Y270110D01*
X463200Y263718D02*
Y264329D01*
Y269510D02*
Y270124D01*
X463300Y263722D02*
Y264339D01*
Y269503D02*
Y270113D01*
X463400Y263736D02*
Y264359D01*
Y269486D02*
Y270093D01*
X463500Y263750D02*
Y264379D01*
Y269470D02*
Y270073D01*
X463600Y263764D02*
Y264399D01*
Y269453D02*
Y270053D01*
X463700Y263779D02*
Y264422D01*
Y269436D02*
Y270033D01*
X463800Y263793D02*
Y264501D01*
Y269409D02*
Y270013D01*
X463900Y263830D02*
Y264581D01*
Y269284D02*
Y269993D01*
X464000Y263880D02*
Y264661D01*
Y269159D02*
Y269973D01*
X464100Y263930D02*
Y264741D01*
Y269034D02*
Y269953D01*
X464200Y263980D02*
Y264869D01*
Y268899D02*
Y269878D01*
X464300Y264030D02*
Y265069D01*
Y268749D02*
Y269803D01*
X464400Y264113D02*
Y265430D01*
Y268409D02*
Y269728D01*
X464500Y264238D02*
Y265993D01*
Y267784D02*
Y269619D01*
X464600Y264363D02*
Y269485D01*
X464700Y264488D02*
Y269352D01*
X464800Y264719D02*
Y269078D01*
X464900Y264953D02*
Y268803D01*
X465000Y265261D02*
Y268528D01*
X465100Y265711D02*
Y268219D01*
X465200Y266538D02*
Y267869D01*
X466400Y263800D02*
Y268343D01*
X466500Y263800D02*
Y268343D01*
X466600Y263800D02*
Y268343D01*
X466700Y263800D02*
Y268343D01*
X466800Y263800D02*
Y268343D01*
X466900Y263800D02*
Y268343D01*
X467000Y263800D02*
Y268343D01*
X467100Y267036D02*
Y267641D01*
X467200Y267185D02*
Y267741D01*
X467300Y267305D02*
Y267841D01*
X467400Y267425D02*
Y267941D01*
X467500Y267545D02*
Y268041D01*
X467600Y267641D02*
Y268141D01*
X467700Y267669D02*
Y268200D01*
X467800Y267698D02*
Y268240D01*
X467900Y267726D02*
Y268280D01*
X468000Y267755D02*
Y268320D01*
X468100Y267783D02*
Y268354D01*
X468200Y267812D02*
Y268379D01*
X468300Y267801D02*
Y268404D01*
X468400Y267776D02*
Y268429D01*
X468500Y267751D02*
Y268412D01*
X468600Y267726D02*
Y268392D01*
X468700Y267662D02*
Y268372D01*
X468800Y267595D02*
Y268352D01*
X468900Y267516D02*
Y268320D01*
X469000Y267316D02*
Y268280D01*
X469100Y263800D02*
Y268240D01*
X469200Y263800D02*
Y268200D01*
X469300Y263800D02*
Y268142D01*
X469400Y263800D02*
Y268042D01*
X469500Y263800D02*
Y267942D01*
X469600Y263800D02*
Y267768D01*
X469700Y263800D02*
Y267568D01*
X469800Y266541D02*
Y267584D01*
X469900Y267105D02*
Y267750D01*
X470000Y267239D02*
Y267917D01*
X470100Y267372D02*
Y268038D01*
X470200Y267480D02*
Y268113D01*
X470300Y267555D02*
Y268188D01*
X470400Y267630D02*
Y268260D01*
X470500Y267705D02*
Y268285D01*
X470600Y267740D02*
Y268310D01*
X470700Y267760D02*
Y268335D01*
X470800Y267780D02*
Y268356D01*
X470900Y267800D02*
Y268376D01*
X471000Y267818D02*
Y268396D01*
X471100Y267798D02*
Y268416D01*
X471200Y267778D02*
Y268428D01*
X471300Y267758D02*
Y268414D01*
X471400Y267738D02*
Y268399D01*
X471500Y267684D02*
Y268385D01*
X471600Y267551D02*
Y268371D01*
X471700Y267417D02*
Y268356D01*
X471800Y267208D02*
Y268334D01*
X471900Y263800D02*
Y268274D01*
X472000Y263800D02*
Y268214D01*
X472100Y263800D02*
Y268154D01*
X472200Y263800D02*
Y268094D01*
X472300Y263800D02*
Y267903D01*
X472400Y263800D02*
Y267703D01*
X472500Y263800D02*
Y267327D01*
X474000Y263800D02*
Y268343D01*
Y269425D02*
Y270129D01*
X474100Y263800D02*
Y268343D01*
Y269425D02*
Y270129D01*
X474200Y263800D02*
Y268343D01*
Y269425D02*
Y270129D01*
X474300Y263800D02*
Y268343D01*
Y269425D02*
Y270129D01*
X474400Y263800D02*
Y268343D01*
Y269425D02*
Y270129D01*
X474500Y263800D02*
Y268343D01*
Y269425D02*
Y270129D01*
X474600Y263800D02*
Y268343D01*
Y269425D02*
Y270129D01*
X475900Y263800D02*
Y270129D01*
X476000Y263800D02*
Y270129D01*
X476100Y263800D02*
Y270129D01*
X476200Y263800D02*
Y270129D01*
X476300Y263800D02*
Y270129D01*
X476400Y263800D02*
Y270129D01*
X476500Y263800D02*
Y270129D01*
*
G04 PC Custom Flashes*
G04 Layer Name 430BOOST-SHARP96.pcb - flashes*
%LPD*%
*
*
G04 PC Circuitry*
G04 Layer Name 430BOOST-SHARP96.pcb - circuitry*
%LPD*%
*
G54D11*
X711218Y116320D02*
Y108117D01*
Y116320D02*
X714911D01*
X711218Y112414D02*
X713491D01*
X717468Y116320D02*
Y108117D01*
Y116320D02*
X720025D01*
X720877Y115930*
X721161Y115539*
X721445Y114758*
Y113977*
X721161Y113195*
X720877Y112805*
X720025Y112414*
X717468D02*
X720025D01*
X720877Y112023*
X721161Y111633*
X721445Y110852*
Y109680*
X721161Y108898*
X720877Y108508*
X720025Y108117*
X717468*
X412639Y116320D02*
Y108117D01*
X416048*
X418605Y114758D02*
X419173Y115148D01*
X420025Y116320*
Y108117*
X200000Y200000D02*
X410000D01*
Y335000*
X200000*
Y200000*
G54D13*
X238273Y114563D02*
X236000Y110188D01*
X236000D02*
X239409D01*
X238273Y114563D02*
Y108000D01*
X241909Y114563D02*
X244409D01*
X244409D02*
X243045Y112063D01*
X243045D02*
X243727D01*
X243727D02*
X244182Y111750D01*
X244409Y111438*
X244409D02*
X244636Y110500D01*
Y109875*
X244409Y108938*
X244409D02*
X243955Y108313D01*
X243955D02*
X243273Y108000D01*
X242591*
X241909Y108313*
X241909D02*
X241682Y108625D01*
X241455Y109250*
X248045Y114563D02*
X247364Y114250D01*
X246909Y113313*
X246909D02*
X246682Y111750D01*
Y110813*
X246682D02*
X246909Y109250D01*
X247364Y108313*
X247364D02*
X248045Y108000D01*
X248500*
X249182Y108313*
X249182D02*
X249636Y109250D01*
X249864Y110813*
X249864D02*
Y111750D01*
X249636Y113313*
X249636D02*
X249182Y114250D01*
X248500Y114563*
X248500D02*
X248045D01*
X251909D02*
Y108000D01*
Y114563D02*
X253955D01*
X253955D02*
X254636Y114250D01*
X254864Y113938*
X254864D02*
X255091Y113313D01*
X255091D02*
Y112688D01*
X255091D02*
X254864Y112063D01*
X254864D02*
X254636Y111750D01*
X253955Y111438*
X251909D02*
X253955D01*
X253955D02*
X254636Y111125D01*
X254864Y110813*
X254864D02*
X255091Y110188D01*
X255091D02*
Y109250D01*
X254864Y108625*
X254636Y108313*
X254636D02*
X253955Y108000D01*
X251909*
X258500Y114563D02*
X258045Y114250D01*
X257591Y113625*
X257364Y113000*
X257136Y112063*
X257136D02*
Y110500D01*
X257364Y109563*
X257364D02*
X257591Y108938D01*
X257591D02*
X258045Y108313D01*
X258045D02*
X258500Y108000D01*
X259409*
X259864Y108313*
X259864D02*
X260318Y108938D01*
X260318D02*
X260545Y109563D01*
X260545D02*
X260773Y110500D01*
Y112063*
X260773D02*
X260545Y113000D01*
X260318Y113625*
X259864Y114250*
X259409Y114563*
X259409D02*
X258500D01*
X264182D02*
X263727Y114250D01*
X263273Y113625*
X263045Y113000*
X262818Y112063*
X262818D02*
Y110500D01*
X263045Y109563*
X263045D02*
X263273Y108938D01*
X263273D02*
X263727Y108313D01*
X263727D02*
X264182Y108000D01*
X265091*
X265545Y108313*
X265545D02*
X266000Y108938D01*
X266000D02*
X266227Y109563D01*
X266227D02*
X266455Y110500D01*
Y112063*
X266455D02*
X266227Y113000D01*
X266000Y113625*
X265545Y114250*
X265091Y114563*
X265091D02*
X264182D01*
X271682Y113625D02*
X271227Y114250D01*
X270545Y114563*
X270545D02*
X269636D01*
X269636D02*
X268955Y114250D01*
X268500Y113625*
Y113000*
X268727Y112375*
X268955Y112063*
X268955D02*
X269409Y111750D01*
X270773Y111125*
X271227Y110813*
X271227D02*
X271455Y110500D01*
X271682Y109875*
Y108938*
X271682D02*
X271227Y108313D01*
X271227D02*
X270545Y108000D01*
X269636*
X268955Y108313*
X268955D02*
X268500Y108938D01*
X275318Y114563D02*
Y108000D01*
X273727Y114563D02*
X276909D01*
X278955Y110813D02*
X283045D01*
X288273Y113625D02*
X287818Y114250D01*
X287136Y114563*
X287136D02*
X286227D01*
X286227D02*
X285545Y114250D01*
X285091Y113625*
Y113000*
X285318Y112375*
X285545Y112063*
X285545D02*
X286000Y111750D01*
X287364Y111125*
X287818Y110813*
X287818D02*
X288045Y110500D01*
X288273Y109875*
Y108938*
X288273D02*
X287818Y108313D01*
X287818D02*
X287136Y108000D01*
X286227*
X285545Y108313*
X285545D02*
X285091Y108938D01*
X290318Y114563D02*
Y108000D01*
X293500Y114563D02*
Y108000D01*
X290318Y111438D02*
X293500D01*
X297364Y114563D02*
X295545Y108000D01*
X297364Y114563D02*
X299182Y108000D01*
X296227Y110188D02*
X298500D01*
X301227Y114563D02*
Y108000D01*
Y114563D02*
X303273D01*
X303273D02*
X303955Y114250D01*
X304182Y113938*
X304182D02*
X304409Y113313D01*
X304409D02*
Y112688D01*
X304409D02*
X304182Y112063D01*
X304182D02*
X303955Y111750D01*
X303273Y111438*
X303273D02*
X301227D01*
X302818D02*
X304409Y108000D01*
X306455Y114563D02*
Y108000D01*
Y114563D02*
X308500D01*
X308500D02*
X309182Y114250D01*
X309409Y113938*
X309409D02*
X309636Y113313D01*
X309636D02*
Y112375D01*
X309409Y111750*
X309182Y111438*
X309182D02*
X308500Y111125D01*
X306455*
X314636Y112375D02*
X314409Y111438D01*
X314409D02*
X313955Y110813D01*
X313955D02*
X313273Y110500D01*
X313045*
X312364Y110813*
X312364D02*
X311909Y111438D01*
X311909D02*
X311682Y112375D01*
Y112688*
X311682D02*
X311909Y113625D01*
X312364Y114250*
X313045Y114563*
X313045D02*
X313273D01*
X313273D02*
X313955Y114250D01*
X314409Y113625*
X314636Y112375*
Y110813*
X314636D02*
X314409Y109250D01*
X313955Y108313*
X313955D02*
X313273Y108000D01*
X312818*
X312136Y108313*
X312136D02*
X311909Y108938D01*
X319409Y113625D02*
X319182Y114250D01*
X318500Y114563*
X318500D02*
X318045D01*
X318045D02*
X317364Y114250D01*
X316909Y113313*
X316909D02*
X316682Y111750D01*
Y110188*
X316682D02*
X316909Y108938D01*
X316909D02*
X317364Y108313D01*
X317364D02*
X318045Y108000D01*
X318273*
X318955Y108313*
X318955D02*
X319409Y108938D01*
X319409D02*
X319636Y109875D01*
Y110188*
X319636D02*
X319409Y111125D01*
X318955Y111750*
X318273Y112063*
X318273D02*
X318045D01*
X318045D02*
X317364Y111750D01*
X316909Y111125*
X316682Y110188*
X341000Y112375D02*
Y108000D01*
Y110500D02*
X341227Y111438D01*
X341227D02*
X341682Y112063D01*
X341682D02*
X342136Y112375D01*
X342818*
X344864Y113313D02*
X345318Y113625D01*
X346000Y114563*
X346000D02*
Y108000D01*
X348273Y108625D02*
X348045Y108313D01*
X348045D02*
X348273Y108000D01*
X348500Y108313*
X348500D02*
X348273Y108625D01*
X350545Y113313D02*
X351000Y113625D01*
X351682Y114563*
X351682D02*
Y108000D01*
X246000Y315000D02*
X254000D01*
X250000Y311000D02*
Y319000D01*
X246000Y305000D02*
X254000D01*
X250000Y301000D02*
Y309000D01*
X246000Y295000D02*
X254000D01*
X250000Y291000D02*
Y299000D01*
X246000Y285000D02*
X254000D01*
X250000Y281000D02*
Y289000D01*
X246000Y275000D02*
X254000D01*
X250000Y271000D02*
Y279000D01*
X246000Y265000D02*
X254000D01*
X250000Y261000D02*
Y269000D01*
X246000Y255000D02*
X254000D01*
X250000Y251000D02*
Y259000D01*
X246000Y245000D02*
X254000D01*
X250000Y241000D02*
Y249000D01*
X246000Y235000D02*
X254000D01*
X250000Y231000D02*
Y239000D01*
X246000Y225000D02*
X254000D01*
X250000Y221000D02*
Y229000D01*
X276000Y275000D02*
X284000D01*
X280000Y271000D02*
Y279000D01*
X282909Y280281D02*
X282000Y277000D01*
X282909Y280281D02*
X283818Y277000D01*
X282341Y278094D02*
X283477D01*
X356000Y315000D02*
X364000D01*
X360000Y311000D02*
Y319000D01*
X356000Y305000D02*
X364000D01*
X360000Y301000D02*
Y309000D01*
X356000Y295000D02*
X364000D01*
X360000Y291000D02*
Y299000D01*
X356000Y285000D02*
X364000D01*
X360000Y281000D02*
Y289000D01*
X356000Y275000D02*
X364000D01*
X360000Y271000D02*
Y279000D01*
X356000Y265000D02*
X364000D01*
X360000Y261000D02*
Y269000D01*
X356000Y255000D02*
X364000D01*
X360000Y251000D02*
Y259000D01*
X356000Y245000D02*
X364000D01*
X360000Y241000D02*
Y249000D01*
X356000Y235000D02*
X364000D01*
X360000Y231000D02*
Y239000D01*
X356000Y225000D02*
X364000D01*
X360000Y221000D02*
Y229000D01*
X336000Y245000D02*
X344000D01*
X340000Y241000D02*
Y249000D01*
X342909Y250281D02*
X342000Y247000D01*
X342909Y250281D02*
X343818Y247000D01*
X342341Y248094D02*
X343477D01*
X281000Y260000D02*
X289000D01*
X285000Y256000D02*
Y264000D01*
X287909Y265281D02*
X287000Y262000D01*
X287909Y265281D02*
X288818Y262000D01*
X287341Y263094D02*
X288477D01*
X276000Y245000D02*
X284000D01*
X280000Y241000D02*
Y249000D01*
X282909Y250281D02*
X282000Y247000D01*
X282909Y250281D02*
X283818Y247000D01*
X282341Y248094D02*
X283477D01*
X336000Y285000D02*
X344000D01*
X340000Y281000D02*
Y289000D01*
X342909Y290281D02*
X342000Y287000D01*
X342909Y290281D02*
X343818Y287000D01*
X342341Y288094D02*
X343477D01*
X276000Y225000D02*
X284000D01*
X280000Y221000D02*
Y229000D01*
X282909Y230281D02*
X282000Y227000D01*
X282909Y230281D02*
X283818Y227000D01*
X282341Y228094D02*
X283477D01*
X272000Y310000D02*
X280000D01*
X276000Y306000D02*
Y314000D01*
X278909Y315281D02*
X278000Y312000D01*
X278909Y315281D02*
X279818Y312000D01*
X278341Y313094D02*
X279477D01*
X316500Y305000D02*
X324500D01*
X320500Y301000D02*
Y309000D01*
X323409Y310281D02*
X322500Y307000D01*
X323409Y310281D02*
X324318Y307000D01*
X322841Y308094D02*
X323977D01*
X200500Y204500D02*
X208500D01*
X204500Y200500D02*
Y208500D01*
X206500Y209781D02*
Y206500D01*
Y209781D02*
X207523D01*
X207864Y209625*
X207977Y209469*
X208091Y209156*
Y208844*
X207977Y208531*
X207864Y208375*
X207523Y208219*
X206500D02*
X207523D01*
X207864Y208063*
X207864D02*
X207977Y207906D01*
X208091Y207594*
Y207125*
X207977Y206813*
X207977D02*
X207864Y206656D01*
X207523Y206500*
X206500*
X254000Y206000D02*
X262000D01*
X258000Y202000D02*
Y210000D01*
X260000Y211281D02*
Y208000D01*
Y211281D02*
X261023D01*
X261364Y211125*
X261477Y210969*
X261591Y210656*
Y210344*
X261477Y210031*
X261364Y209875*
X261023Y209719*
X260000D02*
X261023D01*
X261364Y209563*
X261364D02*
X261477Y209406D01*
X261591Y209094*
Y208625*
X261477Y208313*
X261477D02*
X261364Y208156D01*
X261023Y208000*
X260000*
X399000Y205500D02*
X407000D01*
X403000Y201500D02*
Y209500D01*
X405000Y210781D02*
Y207500D01*
Y210781D02*
X406023D01*
X406364Y210625*
X406477Y210469*
X406591Y210156*
Y209844*
X406477Y209531*
X406364Y209375*
X406023Y209219*
X405000D02*
X406023D01*
X406364Y209063*
X406364D02*
X406477Y208906D01*
X406591Y208594*
Y208125*
X406477Y207813*
X406477D02*
X406364Y207656D01*
X406023Y207500*
X405000*
X245000Y211500D02*
X253000D01*
X249000Y207500D02*
Y215500D01*
X251000Y216781D02*
Y213500D01*
Y216781D02*
X252023D01*
X252364Y216625*
X252477Y216469*
X252591Y216156*
Y215844*
X252477Y215531*
X252364Y215375*
X252023Y215219*
X251000D02*
X252023D01*
X252364Y215063*
X252364D02*
X252477Y214906D01*
X252591Y214594*
Y214125*
X252477Y213813*
X252477D02*
X252364Y213656D01*
X252023Y213500*
X251000*
X253000Y212000D02*
X261000D01*
X257000Y208000D02*
Y216000D01*
X259000Y217281D02*
Y214000D01*
Y217281D02*
X260023D01*
X260364Y217125*
X260477Y216969*
X260591Y216656*
Y216344*
X260477Y216031*
X260364Y215875*
X260023Y215719*
X259000D02*
X260023D01*
X260364Y215563*
X260364D02*
X260477Y215406D01*
X260591Y215094*
Y214625*
X260477Y214313*
X260477D02*
X260364Y214156D01*
X260023Y214000*
X259000*
X261000Y209500D02*
X269000D01*
X265000Y205500D02*
Y213500D01*
X267000Y214781D02*
Y211500D01*
Y214781D02*
X268023D01*
X268364Y214625*
X268477Y214469*
X268591Y214156*
Y213844*
X268477Y213531*
X268364Y213375*
X268023Y213219*
X267000D02*
X268023D01*
X268364Y213063*
X268364D02*
X268477Y212906D01*
X268591Y212594*
Y212125*
X268477Y211813*
X268477D02*
X268364Y211656D01*
X268023Y211500*
X267000*
X277500Y209000D02*
X285500D01*
X281500Y205000D02*
Y213000D01*
X283500Y214281D02*
Y211000D01*
Y214281D02*
X284523D01*
X284864Y214125*
X284977Y213969*
X285091Y213656*
Y213344*
X284977Y213031*
X284864Y212875*
X284523Y212719*
X283500D02*
X284523D01*
X284864Y212563*
X284864D02*
X284977Y212406D01*
X285091Y212094*
Y211625*
X284977Y211313*
X284977D02*
X284864Y211156D01*
X284523Y211000*
X283500*
X291000Y210500D02*
X299000D01*
X295000Y206500D02*
Y214500D01*
X297000Y215781D02*
Y212500D01*
Y215781D02*
X298023D01*
X298364Y215625*
X298477Y215469*
X298591Y215156*
Y214844*
X298477Y214531*
X298364Y214375*
X298023Y214219*
X297000D02*
X298023D01*
X298364Y214063*
X298364D02*
X298477Y213906D01*
X298591Y213594*
Y213125*
X298477Y212813*
X298477D02*
X298364Y212656D01*
X298023Y212500*
X297000*
X330000Y215500D02*
X338000D01*
X334000Y211500D02*
Y219500D01*
X336000Y220781D02*
Y217500D01*
Y220781D02*
X337023D01*
X337364Y220625*
X337477Y220469*
X337591Y220156*
Y219844*
X337477Y219531*
X337364Y219375*
X337023Y219219*
X336000D02*
X337023D01*
X337364Y219063*
X337364D02*
X337477Y218906D01*
X337591Y218594*
Y218125*
X337477Y217813*
X337477D02*
X337364Y217656D01*
X337023Y217500*
X336000*
X333000Y207500D02*
X341000D01*
X337000Y203500D02*
Y211500D01*
X339000Y212781D02*
Y209500D01*
Y212781D02*
X340023D01*
X340364Y212625*
X340477Y212469*
X340591Y212156*
Y211844*
X340477Y211531*
X340364Y211375*
X340023Y211219*
X339000D02*
X340023D01*
X340364Y211063*
X340364D02*
X340477Y210906D01*
X340591Y210594*
Y210125*
X340477Y209813*
X340477D02*
X340364Y209656D01*
X340023Y209500*
X339000*
X395000Y213500D02*
X403000D01*
X399000Y209500D02*
Y217500D01*
X401000Y218781D02*
Y215500D01*
Y218781D02*
X402023D01*
X402364Y218625*
X402477Y218469*
X402591Y218156*
Y217844*
X402477Y217531*
X402364Y217375*
X402023Y217219*
X401000D02*
X402023D01*
X402364Y217063*
X402364D02*
X402477Y216906D01*
X402591Y216594*
Y216125*
X402477Y215813*
X402477D02*
X402364Y215656D01*
X402023Y215500*
X401000*
X211000Y220000D02*
X219000D01*
X215000Y216000D02*
Y224000D01*
X217000Y225281D02*
Y222000D01*
Y225281D02*
X218023D01*
X218364Y225125*
X218477Y224969*
X218591Y224656*
Y224344*
X218477Y224031*
X218364Y223875*
X218023Y223719*
X217000D02*
X218023D01*
X218364Y223563*
X218364D02*
X218477Y223406D01*
X218591Y223094*
Y222625*
X218477Y222313*
X218477D02*
X218364Y222156D01*
X218023Y222000*
X217000*
X238500Y218500D02*
X246500D01*
X242500Y214500D02*
Y222500D01*
X244500Y223781D02*
Y220500D01*
Y223781D02*
X245523D01*
X245864Y223625*
X245977Y223469*
X246091Y223156*
Y222844*
X245977Y222531*
X245864Y222375*
X245523Y222219*
X244500D02*
X245523D01*
X245864Y222063*
X245864D02*
X245977Y221906D01*
X246091Y221594*
Y221125*
X245977Y220813*
X245977D02*
X245864Y220656D01*
X245523Y220500*
X244500*
X267500Y219500D02*
X275500D01*
X271500Y215500D02*
Y223500D01*
X273500Y224781D02*
Y221500D01*
Y224781D02*
X274523D01*
X274864Y224625*
X274977Y224469*
X275091Y224156*
Y223844*
X274977Y223531*
X274864Y223375*
X274523Y223219*
X273500D02*
X274523D01*
X274864Y223063*
X274864D02*
X274977Y222906D01*
X275091Y222594*
Y222125*
X274977Y221813*
X274977D02*
X274864Y221656D01*
X274523Y221500*
X273500*
X291000Y221000D02*
X299000D01*
X295000Y217000D02*
Y225000D01*
X297000Y226281D02*
Y223000D01*
Y226281D02*
X298023D01*
X298364Y226125*
X298477Y225969*
X298591Y225656*
Y225344*
X298477Y225031*
X298364Y224875*
X298023Y224719*
X297000D02*
X298023D01*
X298364Y224563*
X298364D02*
X298477Y224406D01*
X298591Y224094*
Y223625*
X298477Y223313*
X298477D02*
X298364Y223156D01*
X298023Y223000*
X297000*
X292000Y224500D02*
X300000D01*
X296000Y220500D02*
Y228500D01*
X298000Y229781D02*
Y226500D01*
Y229781D02*
X299023D01*
X299364Y229625*
X299477Y229469*
X299591Y229156*
Y228844*
X299477Y228531*
X299364Y228375*
X299023Y228219*
X298000D02*
X299023D01*
X299364Y228063*
X299364D02*
X299477Y227906D01*
X299591Y227594*
Y227125*
X299477Y226813*
X299477D02*
X299364Y226656D01*
X299023Y226500*
X298000*
X347500Y216500D02*
X355500D01*
X351500Y212500D02*
Y220500D01*
X353500Y221781D02*
Y218500D01*
Y221781D02*
X354523D01*
X354864Y221625*
X354977Y221469*
X355091Y221156*
Y220844*
X354977Y220531*
X354864Y220375*
X354523Y220219*
X353500D02*
X354523D01*
X354864Y220063*
X354864D02*
X354977Y219906D01*
X355091Y219594*
Y219125*
X354977Y218813*
X354977D02*
X354864Y218656D01*
X354523Y218500*
X353500*
X359000Y220000D02*
X367000D01*
X363000Y216000D02*
Y224000D01*
X365000Y225281D02*
Y222000D01*
Y225281D02*
X366023D01*
X366364Y225125*
X366477Y224969*
X366591Y224656*
Y224344*
X366477Y224031*
X366364Y223875*
X366023Y223719*
X365000D02*
X366023D01*
X366364Y223563*
X366364D02*
X366477Y223406D01*
X366591Y223094*
Y222625*
X366477Y222313*
X366477D02*
X366364Y222156D01*
X366023Y222000*
X365000*
X365500Y220000D02*
X373500D01*
X369500Y216000D02*
Y224000D01*
X371500Y225281D02*
Y222000D01*
Y225281D02*
X372523D01*
X372864Y225125*
X372977Y224969*
X373091Y224656*
Y224344*
X372977Y224031*
X372864Y223875*
X372523Y223719*
X371500D02*
X372523D01*
X372864Y223563*
X372864D02*
X372977Y223406D01*
X373091Y223094*
Y222625*
X372977Y222313*
X372977D02*
X372864Y222156D01*
X372523Y222000*
X371500*
X211000Y230000D02*
X219000D01*
X215000Y226000D02*
Y234000D01*
X217000Y235281D02*
Y232000D01*
Y235281D02*
X218023D01*
X218364Y235125*
X218477Y234969*
X218591Y234656*
Y234344*
X218477Y234031*
X218364Y233875*
X218023Y233719*
X217000D02*
X218023D01*
X218364Y233563*
X218364D02*
X218477Y233406D01*
X218591Y233094*
Y232625*
X218477Y232313*
X218477D02*
X218364Y232156D01*
X218023Y232000*
X217000*
X254000Y227500D02*
X262000D01*
X258000Y223500D02*
Y231500D01*
X260000Y232781D02*
Y229500D01*
Y232781D02*
X261023D01*
X261364Y232625*
X261477Y232469*
X261591Y232156*
Y231844*
X261477Y231531*
X261364Y231375*
X261023Y231219*
X260000D02*
X261023D01*
X261364Y231063*
X261364D02*
X261477Y230906D01*
X261591Y230594*
Y230125*
X261477Y229813*
X261477D02*
X261364Y229656D01*
X261023Y229500*
X260000*
X270000Y236000D02*
X278000D01*
X274000Y232000D02*
Y240000D01*
X276000Y241281D02*
Y238000D01*
Y241281D02*
X277023D01*
X277364Y241125*
X277477Y240969*
X277591Y240656*
Y240344*
X277477Y240031*
X277364Y239875*
X277023Y239719*
X276000D02*
X277023D01*
X277364Y239563*
X277364D02*
X277477Y239406D01*
X277591Y239094*
Y238625*
X277477Y238313*
X277477D02*
X277364Y238156D01*
X277023Y238000*
X276000*
X279000Y232500D02*
X287000D01*
X283000Y228500D02*
Y236500D01*
X285000Y237781D02*
Y234500D01*
Y237781D02*
X286023D01*
X286364Y237625*
X286477Y237469*
X286591Y237156*
Y236844*
X286477Y236531*
X286364Y236375*
X286023Y236219*
X285000D02*
X286023D01*
X286364Y236063*
X286364D02*
X286477Y235906D01*
X286591Y235594*
Y235125*
X286477Y234813*
X286477D02*
X286364Y234656D01*
X286023Y234500*
X285000*
X283000Y233500D02*
X291000D01*
X287000Y229500D02*
Y237500D01*
X289000Y238781D02*
Y235500D01*
Y238781D02*
X290023D01*
X290364Y238625*
X290477Y238469*
X290591Y238156*
Y237844*
X290477Y237531*
X290364Y237375*
X290023Y237219*
X289000D02*
X290023D01*
X290364Y237063*
X290364D02*
X290477Y236906D01*
X290591Y236594*
Y236125*
X290477Y235813*
X290477D02*
X290364Y235656D01*
X290023Y235500*
X289000*
X288500Y233000D02*
X296500D01*
X292500Y229000D02*
Y237000D01*
X294500Y238281D02*
Y235000D01*
Y238281D02*
X295523D01*
X295864Y238125*
X295977Y237969*
X296091Y237656*
Y237344*
X295977Y237031*
X295864Y236875*
X295523Y236719*
X294500D02*
X295523D01*
X295864Y236563*
X295864D02*
X295977Y236406D01*
X296091Y236094*
Y235625*
X295977Y235313*
X295977D02*
X295864Y235156D01*
X295523Y235000*
X294500*
X298000Y228000D02*
X306000D01*
X302000Y224000D02*
Y232000D01*
X304000Y233281D02*
Y230000D01*
Y233281D02*
X305023D01*
X305364Y233125*
X305477Y232969*
X305591Y232656*
Y232344*
X305477Y232031*
X305364Y231875*
X305023Y231719*
X304000D02*
X305023D01*
X305364Y231563*
X305364D02*
X305477Y231406D01*
X305591Y231094*
Y230625*
X305477Y230313*
X305477D02*
X305364Y230156D01*
X305023Y230000*
X304000*
X317000Y232500D02*
X325000D01*
X321000Y228500D02*
Y236500D01*
X323000Y237781D02*
Y234500D01*
Y237781D02*
X324023D01*
X324364Y237625*
X324477Y237469*
X324591Y237156*
Y236844*
X324477Y236531*
X324364Y236375*
X324023Y236219*
X323000D02*
X324023D01*
X324364Y236063*
X324364D02*
X324477Y235906D01*
X324591Y235594*
Y235125*
X324477Y234813*
X324477D02*
X324364Y234656D01*
X324023Y234500*
X323000*
X329000Y230500D02*
X337000D01*
X333000Y226500D02*
Y234500D01*
X335000Y235781D02*
Y232500D01*
Y235781D02*
X336023D01*
X336364Y235625*
X336477Y235469*
X336591Y235156*
Y234844*
X336477Y234531*
X336364Y234375*
X336023Y234219*
X335000D02*
X336023D01*
X336364Y234063*
X336364D02*
X336477Y233906D01*
X336591Y233594*
Y233125*
X336477Y232813*
X336477D02*
X336364Y232656D01*
X336023Y232500*
X335000*
X342500Y227500D02*
X350500D01*
X346500Y223500D02*
Y231500D01*
X348500Y232781D02*
Y229500D01*
Y232781D02*
X349523D01*
X349864Y232625*
X349977Y232469*
X350091Y232156*
Y231844*
X349977Y231531*
X349864Y231375*
X349523Y231219*
X348500D02*
X349523D01*
X349864Y231063*
X349864D02*
X349977Y230906D01*
X350091Y230594*
Y230125*
X349977Y229813*
X349977D02*
X349864Y229656D01*
X349523Y229500*
X348500*
X357000Y230000D02*
X365000D01*
X361000Y226000D02*
Y234000D01*
X363000Y235281D02*
Y232000D01*
Y235281D02*
X364023D01*
X364364Y235125*
X364477Y234969*
X364591Y234656*
Y234344*
X364477Y234031*
X364364Y233875*
X364023Y233719*
X363000D02*
X364023D01*
X364364Y233563*
X364364D02*
X364477Y233406D01*
X364591Y233094*
Y232625*
X364477Y232313*
X364477D02*
X364364Y232156D01*
X364023Y232000*
X363000*
X365500Y228500D02*
X373500D01*
X369500Y224500D02*
Y232500D01*
X371500Y233781D02*
Y230500D01*
Y233781D02*
X372523D01*
X372864Y233625*
X372977Y233469*
X373091Y233156*
Y232844*
X372977Y232531*
X372864Y232375*
X372523Y232219*
X371500D02*
X372523D01*
X372864Y232063*
X372864D02*
X372977Y231906D01*
X373091Y231594*
Y231125*
X372977Y230813*
X372977D02*
X372864Y230656D01*
X372523Y230500*
X371500*
X391000Y230000D02*
X399000D01*
X395000Y226000D02*
Y234000D01*
X397000Y235281D02*
Y232000D01*
Y235281D02*
X398023D01*
X398364Y235125*
X398477Y234969*
X398591Y234656*
Y234344*
X398477Y234031*
X398364Y233875*
X398023Y233719*
X397000D02*
X398023D01*
X398364Y233563*
X398364D02*
X398477Y233406D01*
X398591Y233094*
Y232625*
X398477Y232313*
X398477D02*
X398364Y232156D01*
X398023Y232000*
X397000*
X211000Y240000D02*
X219000D01*
X215000Y236000D02*
Y244000D01*
X217000Y245281D02*
Y242000D01*
Y245281D02*
X218023D01*
X218364Y245125*
X218477Y244969*
X218591Y244656*
Y244344*
X218477Y244031*
X218364Y243875*
X218023Y243719*
X217000D02*
X218023D01*
X218364Y243563*
X218364D02*
X218477Y243406D01*
X218591Y243094*
Y242625*
X218477Y242313*
X218477D02*
X218364Y242156D01*
X218023Y242000*
X217000*
X236500Y240000D02*
X244500D01*
X240500Y236000D02*
Y244000D01*
X242500Y245281D02*
Y242000D01*
Y245281D02*
X243523D01*
X243864Y245125*
X243977Y244969*
X244091Y244656*
Y244344*
X243977Y244031*
X243864Y243875*
X243523Y243719*
X242500D02*
X243523D01*
X243864Y243563*
X243864D02*
X243977Y243406D01*
X244091Y243094*
Y242625*
X243977Y242313*
X243977D02*
X243864Y242156D01*
X243523Y242000*
X242500*
X255000Y246000D02*
X263000D01*
X259000Y242000D02*
Y250000D01*
X261000Y251281D02*
Y248000D01*
Y251281D02*
X262023D01*
X262364Y251125*
X262477Y250969*
X262591Y250656*
Y250344*
X262477Y250031*
X262364Y249875*
X262023Y249719*
X261000D02*
X262023D01*
X262364Y249563*
X262364D02*
X262477Y249406D01*
X262591Y249094*
Y248625*
X262477Y248313*
X262477D02*
X262364Y248156D01*
X262023Y248000*
X261000*
X272000Y246000D02*
X280000D01*
X276000Y242000D02*
Y250000D01*
X278000Y251281D02*
Y248000D01*
Y251281D02*
X279023D01*
X279364Y251125*
X279477Y250969*
X279591Y250656*
Y250344*
X279477Y250031*
X279364Y249875*
X279023Y249719*
X278000D02*
X279023D01*
X279364Y249563*
X279364D02*
X279477Y249406D01*
X279591Y249094*
Y248625*
X279477Y248313*
X279477D02*
X279364Y248156D01*
X279023Y248000*
X278000*
X289500Y239000D02*
X297500D01*
X293500Y235000D02*
Y243000D01*
X295500Y244281D02*
Y241000D01*
Y244281D02*
X296523D01*
X296864Y244125*
X296977Y243969*
X297091Y243656*
Y243344*
X296977Y243031*
X296864Y242875*
X296523Y242719*
X295500D02*
X296523D01*
X296864Y242563*
X296864D02*
X296977Y242406D01*
X297091Y242094*
Y241625*
X296977Y241313*
X296977D02*
X296864Y241156D01*
X296523Y241000*
X295500*
X358500Y240000D02*
X366500D01*
X362500Y236000D02*
Y244000D01*
X364500Y245281D02*
Y242000D01*
Y245281D02*
X365523D01*
X365864Y245125*
X365977Y244969*
X366091Y244656*
Y244344*
X365977Y244031*
X365864Y243875*
X365523Y243719*
X364500D02*
X365523D01*
X365864Y243563*
X365864D02*
X365977Y243406D01*
X366091Y243094*
Y242625*
X365977Y242313*
X365977D02*
X365864Y242156D01*
X365523Y242000*
X364500*
X365000Y240000D02*
X373000D01*
X369000Y236000D02*
Y244000D01*
X371000Y245281D02*
Y242000D01*
Y245281D02*
X372023D01*
X372364Y245125*
X372477Y244969*
X372591Y244656*
Y244344*
X372477Y244031*
X372364Y243875*
X372023Y243719*
X371000D02*
X372023D01*
X372364Y243563*
X372364D02*
X372477Y243406D01*
X372591Y243094*
Y242625*
X372477Y242313*
X372477D02*
X372364Y242156D01*
X372023Y242000*
X371000*
X391000Y240000D02*
X399000D01*
X395000Y236000D02*
Y244000D01*
X397000Y245281D02*
Y242000D01*
Y245281D02*
X398023D01*
X398364Y245125*
X398477Y244969*
X398591Y244656*
Y244344*
X398477Y244031*
X398364Y243875*
X398023Y243719*
X397000D02*
X398023D01*
X398364Y243563*
X398364D02*
X398477Y243406D01*
X398591Y243094*
Y242625*
X398477Y242313*
X398477D02*
X398364Y242156D01*
X398023Y242000*
X397000*
X211000Y250000D02*
X219000D01*
X215000Y246000D02*
Y254000D01*
X217000Y255281D02*
Y252000D01*
Y255281D02*
X218023D01*
X218364Y255125*
X218477Y254969*
X218591Y254656*
Y254344*
X218477Y254031*
X218364Y253875*
X218023Y253719*
X217000D02*
X218023D01*
X218364Y253563*
X218364D02*
X218477Y253406D01*
X218591Y253094*
Y252625*
X218477Y252313*
X218477D02*
X218364Y252156D01*
X218023Y252000*
X217000*
X237000Y250000D02*
X245000D01*
X241000Y246000D02*
Y254000D01*
X243000Y255281D02*
Y252000D01*
Y255281D02*
X244023D01*
X244364Y255125*
X244477Y254969*
X244591Y254656*
Y254344*
X244477Y254031*
X244364Y253875*
X244023Y253719*
X243000D02*
X244023D01*
X244364Y253563*
X244364D02*
X244477Y253406D01*
X244591Y253094*
Y252625*
X244477Y252313*
X244477D02*
X244364Y252156D01*
X244023Y252000*
X243000*
X294000Y248000D02*
X302000D01*
X298000Y244000D02*
Y252000D01*
X300000Y253281D02*
Y250000D01*
Y253281D02*
X301023D01*
X301364Y253125*
X301477Y252969*
X301591Y252656*
Y252344*
X301477Y252031*
X301364Y251875*
X301023Y251719*
X300000D02*
X301023D01*
X301364Y251563*
X301364D02*
X301477Y251406D01*
X301591Y251094*
Y250625*
X301477Y250313*
X301477D02*
X301364Y250156D01*
X301023Y250000*
X300000*
X320000Y249000D02*
X328000D01*
X324000Y245000D02*
Y253000D01*
X326000Y254281D02*
Y251000D01*
Y254281D02*
X327023D01*
X327364Y254125*
X327477Y253969*
X327591Y253656*
Y253344*
X327477Y253031*
X327364Y252875*
X327023Y252719*
X326000D02*
X327023D01*
X327364Y252563*
X327364D02*
X327477Y252406D01*
X327591Y252094*
Y251625*
X327477Y251313*
X327477D02*
X327364Y251156D01*
X327023Y251000*
X326000*
X345000Y247000D02*
X353000D01*
X349000Y243000D02*
Y251000D01*
X351000Y252281D02*
Y249000D01*
Y252281D02*
X352023D01*
X352364Y252125*
X352477Y251969*
X352591Y251656*
Y251344*
X352477Y251031*
X352364Y250875*
X352023Y250719*
X351000D02*
X352023D01*
X352364Y250563*
X352364D02*
X352477Y250406D01*
X352591Y250094*
Y249625*
X352477Y249313*
X352477D02*
X352364Y249156D01*
X352023Y249000*
X351000*
X357500Y250000D02*
X365500D01*
X361500Y246000D02*
Y254000D01*
X363500Y255281D02*
Y252000D01*
Y255281D02*
X364523D01*
X364864Y255125*
X364977Y254969*
X365091Y254656*
Y254344*
X364977Y254031*
X364864Y253875*
X364523Y253719*
X363500D02*
X364523D01*
X364864Y253563*
X364864D02*
X364977Y253406D01*
X365091Y253094*
Y252625*
X364977Y252313*
X364977D02*
X364864Y252156D01*
X364523Y252000*
X363500*
X391000Y250000D02*
X399000D01*
X395000Y246000D02*
Y254000D01*
X397000Y255281D02*
Y252000D01*
Y255281D02*
X398023D01*
X398364Y255125*
X398477Y254969*
X398591Y254656*
Y254344*
X398477Y254031*
X398364Y253875*
X398023Y253719*
X397000D02*
X398023D01*
X398364Y253563*
X398364D02*
X398477Y253406D01*
X398591Y253094*
Y252625*
X398477Y252313*
X398477D02*
X398364Y252156D01*
X398023Y252000*
X397000*
X211000Y260000D02*
X219000D01*
X215000Y256000D02*
Y264000D01*
X217000Y265281D02*
Y262000D01*
Y265281D02*
X218023D01*
X218364Y265125*
X218477Y264969*
X218591Y264656*
Y264344*
X218477Y264031*
X218364Y263875*
X218023Y263719*
X217000D02*
X218023D01*
X218364Y263563*
X218364D02*
X218477Y263406D01*
X218591Y263094*
Y262625*
X218477Y262313*
X218477D02*
X218364Y262156D01*
X218023Y262000*
X217000*
X236500Y261500D02*
X244500D01*
X240500Y257500D02*
Y265500D01*
X242500Y266781D02*
Y263500D01*
Y266781D02*
X243523D01*
X243864Y266625*
X243977Y266469*
X244091Y266156*
Y265844*
X243977Y265531*
X243864Y265375*
X243523Y265219*
X242500D02*
X243523D01*
X243864Y265063*
X243864D02*
X243977Y264906D01*
X244091Y264594*
Y264125*
X243977Y263813*
X243977D02*
X243864Y263656D01*
X243523Y263500*
X242500*
X271000Y259500D02*
X279000D01*
X275000Y255500D02*
Y263500D01*
X277000Y264781D02*
Y261500D01*
Y264781D02*
X278023D01*
X278364Y264625*
X278477Y264469*
X278591Y264156*
Y263844*
X278477Y263531*
X278364Y263375*
X278023Y263219*
X277000D02*
X278023D01*
X278364Y263063*
X278364D02*
X278477Y262906D01*
X278591Y262594*
Y262125*
X278477Y261813*
X278477D02*
X278364Y261656D01*
X278023Y261500*
X277000*
X306500Y259500D02*
X314500D01*
X310500Y255500D02*
Y263500D01*
X312500Y264781D02*
Y261500D01*
Y264781D02*
X313523D01*
X313864Y264625*
X313977Y264469*
X314091Y264156*
Y263844*
X313977Y263531*
X313864Y263375*
X313523Y263219*
X312500D02*
X313523D01*
X313864Y263063*
X313864D02*
X313977Y262906D01*
X314091Y262594*
Y262125*
X313977Y261813*
X313977D02*
X313864Y261656D01*
X313523Y261500*
X312500*
X324500Y260500D02*
X332500D01*
X328500Y256500D02*
Y264500D01*
X330500Y265781D02*
Y262500D01*
Y265781D02*
X331523D01*
X331864Y265625*
X331977Y265469*
X332091Y265156*
Y264844*
X331977Y264531*
X331864Y264375*
X331523Y264219*
X330500D02*
X331523D01*
X331864Y264063*
X331864D02*
X331977Y263906D01*
X332091Y263594*
Y263125*
X331977Y262813*
X331977D02*
X331864Y262656D01*
X331523Y262500*
X330500*
X358500Y260000D02*
X366500D01*
X362500Y256000D02*
Y264000D01*
X364500Y265281D02*
Y262000D01*
Y265281D02*
X365523D01*
X365864Y265125*
X365977Y264969*
X366091Y264656*
Y264344*
X365977Y264031*
X365864Y263875*
X365523Y263719*
X364500D02*
X365523D01*
X365864Y263563*
X365864D02*
X365977Y263406D01*
X366091Y263094*
Y262625*
X365977Y262313*
X365977D02*
X365864Y262156D01*
X365523Y262000*
X364500*
X391000Y260000D02*
X399000D01*
X395000Y256000D02*
Y264000D01*
X397000Y265281D02*
Y262000D01*
Y265281D02*
X398023D01*
X398364Y265125*
X398477Y264969*
X398591Y264656*
Y264344*
X398477Y264031*
X398364Y263875*
X398023Y263719*
X397000D02*
X398023D01*
X398364Y263563*
X398364D02*
X398477Y263406D01*
X398591Y263094*
Y262625*
X398477Y262313*
X398477D02*
X398364Y262156D01*
X398023Y262000*
X397000*
X211000Y270000D02*
X219000D01*
X215000Y266000D02*
Y274000D01*
X217000Y275281D02*
Y272000D01*
Y275281D02*
X218023D01*
X218364Y275125*
X218477Y274969*
X218591Y274656*
Y274344*
X218477Y274031*
X218364Y273875*
X218023Y273719*
X217000D02*
X218023D01*
X218364Y273563*
X218364D02*
X218477Y273406D01*
X218591Y273094*
Y272625*
X218477Y272313*
X218477D02*
X218364Y272156D01*
X218023Y272000*
X217000*
X284000Y266500D02*
X292000D01*
X288000Y262500D02*
Y270500D01*
X290000Y271781D02*
Y268500D01*
Y271781D02*
X291023D01*
X291364Y271625*
X291477Y271469*
X291591Y271156*
Y270844*
X291477Y270531*
X291364Y270375*
X291023Y270219*
X290000D02*
X291023D01*
X291364Y270063*
X291364D02*
X291477Y269906D01*
X291591Y269594*
Y269125*
X291477Y268813*
X291477D02*
X291364Y268656D01*
X291023Y268500*
X290000*
X284000Y273000D02*
X292000D01*
X288000Y269000D02*
Y277000D01*
X290000Y278281D02*
Y275000D01*
Y278281D02*
X291023D01*
X291364Y278125*
X291477Y277969*
X291591Y277656*
Y277344*
X291477Y277031*
X291364Y276875*
X291023Y276719*
X290000D02*
X291023D01*
X291364Y276563*
X291364D02*
X291477Y276406D01*
X291591Y276094*
Y275625*
X291477Y275313*
X291477D02*
X291364Y275156D01*
X291023Y275000*
X290000*
X290500D02*
X298500D01*
X294500Y271000D02*
Y279000D01*
X296500Y280281D02*
Y277000D01*
Y280281D02*
X297523D01*
X297864Y280125*
X297977Y279969*
X298091Y279656*
Y279344*
X297977Y279031*
X297864Y278875*
X297523Y278719*
X296500D02*
X297523D01*
X297864Y278563*
X297864D02*
X297977Y278406D01*
X298091Y278094*
Y277625*
X297977Y277313*
X297977D02*
X297864Y277156D01*
X297523Y277000*
X296500*
X312000Y271500D02*
X320000D01*
X316000Y267500D02*
Y275500D01*
X318000Y276781D02*
Y273500D01*
Y276781D02*
X319023D01*
X319364Y276625*
X319477Y276469*
X319591Y276156*
Y275844*
X319477Y275531*
X319364Y275375*
X319023Y275219*
X318000D02*
X319023D01*
X319364Y275063*
X319364D02*
X319477Y274906D01*
X319591Y274594*
Y274125*
X319477Y273813*
X319477D02*
X319364Y273656D01*
X319023Y273500*
X318000*
X338500Y275000D02*
X346500D01*
X342500Y271000D02*
Y279000D01*
X344500Y280281D02*
Y277000D01*
Y280281D02*
X345523D01*
X345864Y280125*
X345977Y279969*
X346091Y279656*
Y279344*
X345977Y279031*
X345864Y278875*
X345523Y278719*
X344500D02*
X345523D01*
X345864Y278563*
X345864D02*
X345977Y278406D01*
X346091Y278094*
Y277625*
X345977Y277313*
X345977D02*
X345864Y277156D01*
X345523Y277000*
X344500*
X391000Y270000D02*
X399000D01*
X395000Y266000D02*
Y274000D01*
X397000Y275281D02*
Y272000D01*
Y275281D02*
X398023D01*
X398364Y275125*
X398477Y274969*
X398591Y274656*
Y274344*
X398477Y274031*
X398364Y273875*
X398023Y273719*
X397000D02*
X398023D01*
X398364Y273563*
X398364D02*
X398477Y273406D01*
X398591Y273094*
Y272625*
X398477Y272313*
X398477D02*
X398364Y272156D01*
X398023Y272000*
X397000*
X211000Y280000D02*
X219000D01*
X215000Y276000D02*
Y284000D01*
X217000Y285281D02*
Y282000D01*
Y285281D02*
X218023D01*
X218364Y285125*
X218477Y284969*
X218591Y284656*
Y284344*
X218477Y284031*
X218364Y283875*
X218023Y283719*
X217000D02*
X218023D01*
X218364Y283563*
X218364D02*
X218477Y283406D01*
X218591Y283094*
Y282625*
X218477Y282313*
X218477D02*
X218364Y282156D01*
X218023Y282000*
X217000*
X243500Y280000D02*
X251500D01*
X247500Y276000D02*
Y284000D01*
X249500Y285281D02*
Y282000D01*
Y285281D02*
X250523D01*
X250864Y285125*
X250977Y284969*
X251091Y284656*
Y284344*
X250977Y284031*
X250864Y283875*
X250523Y283719*
X249500D02*
X250523D01*
X250864Y283563*
X250864D02*
X250977Y283406D01*
X251091Y283094*
Y282625*
X250977Y282313*
X250977D02*
X250864Y282156D01*
X250523Y282000*
X249500*
X236500Y279500D02*
X244500D01*
X240500Y275500D02*
Y283500D01*
X242500Y284781D02*
Y281500D01*
Y284781D02*
X243523D01*
X243864Y284625*
X243977Y284469*
X244091Y284156*
Y283844*
X243977Y283531*
X243864Y283375*
X243523Y283219*
X242500D02*
X243523D01*
X243864Y283063*
X243864D02*
X243977Y282906D01*
X244091Y282594*
Y282125*
X243977Y281813*
X243977D02*
X243864Y281656D01*
X243523Y281500*
X242500*
X253500Y282000D02*
X261500D01*
X257500Y278000D02*
Y286000D01*
X259500Y287281D02*
Y284000D01*
Y287281D02*
X260523D01*
X260864Y287125*
X260977Y286969*
X261091Y286656*
Y286344*
X260977Y286031*
X260864Y285875*
X260523Y285719*
X259500D02*
X260523D01*
X260864Y285563*
X260864D02*
X260977Y285406D01*
X261091Y285094*
Y284625*
X260977Y284313*
X260977D02*
X260864Y284156D01*
X260523Y284000*
X259500*
X284000Y279500D02*
X292000D01*
X288000Y275500D02*
Y283500D01*
X290000Y284781D02*
Y281500D01*
Y284781D02*
X291023D01*
X291364Y284625*
X291477Y284469*
X291591Y284156*
Y283844*
X291477Y283531*
X291364Y283375*
X291023Y283219*
X290000D02*
X291023D01*
X291364Y283063*
X291364D02*
X291477Y282906D01*
X291591Y282594*
Y282125*
X291477Y281813*
X291477D02*
X291364Y281656D01*
X291023Y281500*
X290000*
X326500Y285500D02*
X334500D01*
X330500Y281500D02*
Y289500D01*
X332500Y290781D02*
Y287500D01*
Y290781D02*
X333523D01*
X333864Y290625*
X333977Y290469*
X334091Y290156*
Y289844*
X333977Y289531*
X333864Y289375*
X333523Y289219*
X332500D02*
X333523D01*
X333864Y289063*
X333864D02*
X333977Y288906D01*
X334091Y288594*
Y288125*
X333977Y287813*
X333977D02*
X333864Y287656D01*
X333523Y287500*
X332500*
X365500Y280000D02*
X373500D01*
X369500Y276000D02*
Y284000D01*
X371500Y285281D02*
Y282000D01*
Y285281D02*
X372523D01*
X372864Y285125*
X372977Y284969*
X373091Y284656*
Y284344*
X372977Y284031*
X372864Y283875*
X372523Y283719*
X371500D02*
X372523D01*
X372864Y283563*
X372864D02*
X372977Y283406D01*
X373091Y283094*
Y282625*
X372977Y282313*
X372977D02*
X372864Y282156D01*
X372523Y282000*
X371500*
X391000Y280000D02*
X399000D01*
X395000Y276000D02*
Y284000D01*
X397000Y285281D02*
Y282000D01*
Y285281D02*
X398023D01*
X398364Y285125*
X398477Y284969*
X398591Y284656*
Y284344*
X398477Y284031*
X398364Y283875*
X398023Y283719*
X397000D02*
X398023D01*
X398364Y283563*
X398364D02*
X398477Y283406D01*
X398591Y283094*
Y282625*
X398477Y282313*
X398477D02*
X398364Y282156D01*
X398023Y282000*
X397000*
X211000Y290000D02*
X219000D01*
X215000Y286000D02*
Y294000D01*
X217000Y295281D02*
Y292000D01*
Y295281D02*
X218023D01*
X218364Y295125*
X218477Y294969*
X218591Y294656*
Y294344*
X218477Y294031*
X218364Y293875*
X218023Y293719*
X217000D02*
X218023D01*
X218364Y293563*
X218364D02*
X218477Y293406D01*
X218591Y293094*
Y292625*
X218477Y292313*
X218477D02*
X218364Y292156D01*
X218023Y292000*
X217000*
X237000Y290000D02*
X245000D01*
X241000Y286000D02*
Y294000D01*
X243000Y295281D02*
Y292000D01*
Y295281D02*
X244023D01*
X244364Y295125*
X244477Y294969*
X244591Y294656*
Y294344*
X244477Y294031*
X244364Y293875*
X244023Y293719*
X243000D02*
X244023D01*
X244364Y293563*
X244364D02*
X244477Y293406D01*
X244591Y293094*
Y292625*
X244477Y292313*
X244477D02*
X244364Y292156D01*
X244023Y292000*
X243000*
X243500Y290000D02*
X251500D01*
X247500Y286000D02*
Y294000D01*
X249500Y295281D02*
Y292000D01*
Y295281D02*
X250523D01*
X250864Y295125*
X250977Y294969*
X251091Y294656*
Y294344*
X250977Y294031*
X250864Y293875*
X250523Y293719*
X249500D02*
X250523D01*
X250864Y293563*
X250864D02*
X250977Y293406D01*
X251091Y293094*
Y292625*
X250977Y292313*
X250977D02*
X250864Y292156D01*
X250523Y292000*
X249500*
X255000Y293000D02*
X263000D01*
X259000Y289000D02*
Y297000D01*
X261000Y298281D02*
Y295000D01*
Y298281D02*
X262023D01*
X262364Y298125*
X262477Y297969*
X262591Y297656*
Y297344*
X262477Y297031*
X262364Y296875*
X262023Y296719*
X261000D02*
X262023D01*
X262364Y296563*
X262364D02*
X262477Y296406D01*
X262591Y296094*
Y295625*
X262477Y295313*
X262477D02*
X262364Y295156D01*
X262023Y295000*
X261000*
X281000Y290000D02*
X289000D01*
X285000Y286000D02*
Y294000D01*
X287000Y295281D02*
Y292000D01*
Y295281D02*
X288023D01*
X288364Y295125*
X288477Y294969*
X288591Y294656*
Y294344*
X288477Y294031*
X288364Y293875*
X288023Y293719*
X287000D02*
X288023D01*
X288364Y293563*
X288364D02*
X288477Y293406D01*
X288591Y293094*
Y292625*
X288477Y292313*
X288477D02*
X288364Y292156D01*
X288023Y292000*
X287000*
X305000Y295000D02*
X313000D01*
X309000Y291000D02*
Y299000D01*
X311000Y300281D02*
Y297000D01*
Y300281D02*
X312023D01*
X312364Y300125*
X312477Y299969*
X312591Y299656*
Y299344*
X312477Y299031*
X312364Y298875*
X312023Y298719*
X311000D02*
X312023D01*
X312364Y298563*
X312364D02*
X312477Y298406D01*
X312591Y298094*
Y297625*
X312477Y297313*
X312477D02*
X312364Y297156D01*
X312023Y297000*
X311000*
X322000Y291500D02*
X330000D01*
X326000Y287500D02*
Y295500D01*
X328000Y296781D02*
Y293500D01*
Y296781D02*
X329023D01*
X329364Y296625*
X329477Y296469*
X329591Y296156*
Y295844*
X329477Y295531*
X329364Y295375*
X329023Y295219*
X328000D02*
X329023D01*
X329364Y295063*
X329364D02*
X329477Y294906D01*
X329591Y294594*
Y294125*
X329477Y293813*
X329477D02*
X329364Y293656D01*
X329023Y293500*
X328000*
X317000Y294000D02*
X325000D01*
X321000Y290000D02*
Y298000D01*
X323000Y299281D02*
Y296000D01*
Y299281D02*
X324023D01*
X324364Y299125*
X324477Y298969*
X324591Y298656*
Y298344*
X324477Y298031*
X324364Y297875*
X324023Y297719*
X323000D02*
X324023D01*
X324364Y297563*
X324364D02*
X324477Y297406D01*
X324591Y297094*
Y296625*
X324477Y296313*
X324477D02*
X324364Y296156D01*
X324023Y296000*
X323000*
X329500Y290000D02*
X337500D01*
X333500Y286000D02*
Y294000D01*
X335500Y295281D02*
Y292000D01*
Y295281D02*
X336523D01*
X336864Y295125*
X336977Y294969*
X337091Y294656*
Y294344*
X336977Y294031*
X336864Y293875*
X336523Y293719*
X335500D02*
X336523D01*
X336864Y293563*
X336864D02*
X336977Y293406D01*
X337091Y293094*
Y292625*
X336977Y292313*
X336977D02*
X336864Y292156D01*
X336523Y292000*
X335500*
X347000Y293000D02*
X355000D01*
X351000Y289000D02*
Y297000D01*
X353000Y298281D02*
Y295000D01*
Y298281D02*
X354023D01*
X354364Y298125*
X354477Y297969*
X354591Y297656*
Y297344*
X354477Y297031*
X354364Y296875*
X354023Y296719*
X353000D02*
X354023D01*
X354364Y296563*
X354364D02*
X354477Y296406D01*
X354591Y296094*
Y295625*
X354477Y295313*
X354477D02*
X354364Y295156D01*
X354023Y295000*
X353000*
X365500Y290000D02*
X373500D01*
X369500Y286000D02*
Y294000D01*
X371500Y295281D02*
Y292000D01*
Y295281D02*
X372523D01*
X372864Y295125*
X372977Y294969*
X373091Y294656*
Y294344*
X372977Y294031*
X372864Y293875*
X372523Y293719*
X371500D02*
X372523D01*
X372864Y293563*
X372864D02*
X372977Y293406D01*
X373091Y293094*
Y292625*
X372977Y292313*
X372977D02*
X372864Y292156D01*
X372523Y292000*
X371500*
X391000Y290000D02*
X399000D01*
X395000Y286000D02*
Y294000D01*
X397000Y295281D02*
Y292000D01*
Y295281D02*
X398023D01*
X398364Y295125*
X398477Y294969*
X398591Y294656*
Y294344*
X398477Y294031*
X398364Y293875*
X398023Y293719*
X397000D02*
X398023D01*
X398364Y293563*
X398364D02*
X398477Y293406D01*
X398591Y293094*
Y292625*
X398477Y292313*
X398477D02*
X398364Y292156D01*
X398023Y292000*
X397000*
X211000Y300000D02*
X219000D01*
X215000Y296000D02*
Y304000D01*
X217000Y305281D02*
Y302000D01*
Y305281D02*
X218023D01*
X218364Y305125*
X218477Y304969*
X218591Y304656*
Y304344*
X218477Y304031*
X218364Y303875*
X218023Y303719*
X217000D02*
X218023D01*
X218364Y303563*
X218364D02*
X218477Y303406D01*
X218591Y303094*
Y302625*
X218477Y302313*
X218477D02*
X218364Y302156D01*
X218023Y302000*
X217000*
X237000Y300000D02*
X245000D01*
X241000Y296000D02*
Y304000D01*
X243000Y305281D02*
Y302000D01*
Y305281D02*
X244023D01*
X244364Y305125*
X244477Y304969*
X244591Y304656*
Y304344*
X244477Y304031*
X244364Y303875*
X244023Y303719*
X243000D02*
X244023D01*
X244364Y303563*
X244364D02*
X244477Y303406D01*
X244591Y303094*
Y302625*
X244477Y302313*
X244477D02*
X244364Y302156D01*
X244023Y302000*
X243000*
X243500Y300000D02*
X251500D01*
X247500Y296000D02*
Y304000D01*
X249500Y305281D02*
Y302000D01*
Y305281D02*
X250523D01*
X250864Y305125*
X250977Y304969*
X251091Y304656*
Y304344*
X250977Y304031*
X250864Y303875*
X250523Y303719*
X249500D02*
X250523D01*
X250864Y303563*
X250864D02*
X250977Y303406D01*
X251091Y303094*
Y302625*
X250977Y302313*
X250977D02*
X250864Y302156D01*
X250523Y302000*
X249500*
X251500Y299000D02*
X259500D01*
X255500Y295000D02*
Y303000D01*
X257500Y304281D02*
Y301000D01*
Y304281D02*
X258523D01*
X258864Y304125*
X258977Y303969*
X259091Y303656*
Y303344*
X258977Y303031*
X258864Y302875*
X258523Y302719*
X257500D02*
X258523D01*
X258864Y302563*
X258864D02*
X258977Y302406D01*
X259091Y302094*
Y301625*
X258977Y301313*
X258977D02*
X258864Y301156D01*
X258523Y301000*
X257500*
X258000Y299500D02*
X266000D01*
X262000Y295500D02*
Y303500D01*
X264000Y304781D02*
Y301500D01*
Y304781D02*
X265023D01*
X265364Y304625*
X265477Y304469*
X265591Y304156*
Y303844*
X265477Y303531*
X265364Y303375*
X265023Y303219*
X264000D02*
X265023D01*
X265364Y303063*
X265364D02*
X265477Y302906D01*
X265591Y302594*
Y302125*
X265477Y301813*
X265477D02*
X265364Y301656D01*
X265023Y301500*
X264000*
X258000Y305500D02*
X266000D01*
X262000Y301500D02*
Y309500D01*
X264000Y310781D02*
Y307500D01*
Y310781D02*
X265023D01*
X265364Y310625*
X265477Y310469*
X265591Y310156*
Y309844*
X265477Y309531*
X265364Y309375*
X265023Y309219*
X264000D02*
X265023D01*
X265364Y309063*
X265364D02*
X265477Y308906D01*
X265591Y308594*
Y308125*
X265477Y307813*
X265477D02*
X265364Y307656D01*
X265023Y307500*
X264000*
X271000Y298000D02*
X279000D01*
X275000Y294000D02*
Y302000D01*
X277000Y303281D02*
Y300000D01*
Y303281D02*
X278023D01*
X278364Y303125*
X278477Y302969*
X278591Y302656*
Y302344*
X278477Y302031*
X278364Y301875*
X278023Y301719*
X277000D02*
X278023D01*
X278364Y301563*
X278364D02*
X278477Y301406D01*
X278591Y301094*
Y300625*
X278477Y300313*
X278477D02*
X278364Y300156D01*
X278023Y300000*
X277000*
X296500Y297000D02*
X304500D01*
X300500Y293000D02*
Y301000D01*
X302500Y302281D02*
Y299000D01*
Y302281D02*
X303523D01*
X303864Y302125*
X303977Y301969*
X304091Y301656*
Y301344*
X303977Y301031*
X303864Y300875*
X303523Y300719*
X302500D02*
X303523D01*
X303864Y300563*
X303864D02*
X303977Y300406D01*
X304091Y300094*
Y299625*
X303977Y299313*
X303977D02*
X303864Y299156D01*
X303523Y299000*
X302500*
X304500Y303000D02*
X312500D01*
X308500Y299000D02*
Y307000D01*
X310500Y308281D02*
Y305000D01*
Y308281D02*
X311523D01*
X311864Y308125*
X311977Y307969*
X312091Y307656*
Y307344*
X311977Y307031*
X311864Y306875*
X311523Y306719*
X310500D02*
X311523D01*
X311864Y306563*
X311864D02*
X311977Y306406D01*
X312091Y306094*
Y305625*
X311977Y305313*
X311977D02*
X311864Y305156D01*
X311523Y305000*
X310500*
X307000Y298000D02*
X315000D01*
X311000Y294000D02*
Y302000D01*
X313000Y303281D02*
Y300000D01*
Y303281D02*
X314023D01*
X314364Y303125*
X314477Y302969*
X314591Y302656*
Y302344*
X314477Y302031*
X314364Y301875*
X314023Y301719*
X313000D02*
X314023D01*
X314364Y301563*
X314364D02*
X314477Y301406D01*
X314591Y301094*
Y300625*
X314477Y300313*
X314477D02*
X314364Y300156D01*
X314023Y300000*
X313000*
X323500Y299500D02*
X331500D01*
X327500Y295500D02*
Y303500D01*
X329500Y304781D02*
Y301500D01*
Y304781D02*
X330523D01*
X330864Y304625*
X330977Y304469*
X331091Y304156*
Y303844*
X330977Y303531*
X330864Y303375*
X330523Y303219*
X329500D02*
X330523D01*
X330864Y303063*
X330864D02*
X330977Y302906D01*
X331091Y302594*
Y302125*
X330977Y301813*
X330977D02*
X330864Y301656D01*
X330523Y301500*
X329500*
X324500Y305000D02*
X332500D01*
X328500Y301000D02*
Y309000D01*
X330500Y310281D02*
Y307000D01*
Y310281D02*
X331523D01*
X331864Y310125*
X331977Y309969*
X332091Y309656*
Y309344*
X331977Y309031*
X331864Y308875*
X331523Y308719*
X330500D02*
X331523D01*
X331864Y308563*
X331864D02*
X331977Y308406D01*
X332091Y308094*
Y307625*
X331977Y307313*
X331977D02*
X331864Y307156D01*
X331523Y307000*
X330500*
X365500Y301000D02*
X373500D01*
X369500Y297000D02*
Y305000D01*
X371500Y306281D02*
Y303000D01*
Y306281D02*
X372523D01*
X372864Y306125*
X372977Y305969*
X373091Y305656*
Y305344*
X372977Y305031*
X372864Y304875*
X372523Y304719*
X371500D02*
X372523D01*
X372864Y304563*
X372864D02*
X372977Y304406D01*
X373091Y304094*
Y303625*
X372977Y303313*
X372977D02*
X372864Y303156D01*
X372523Y303000*
X371500*
X391000Y300000D02*
X399000D01*
X395000Y296000D02*
Y304000D01*
X397000Y305281D02*
Y302000D01*
Y305281D02*
X398023D01*
X398364Y305125*
X398477Y304969*
X398591Y304656*
Y304344*
X398477Y304031*
X398364Y303875*
X398023Y303719*
X397000D02*
X398023D01*
X398364Y303563*
X398364D02*
X398477Y303406D01*
X398591Y303094*
Y302625*
X398477Y302313*
X398477D02*
X398364Y302156D01*
X398023Y302000*
X397000*
X211000Y310000D02*
X219000D01*
X215000Y306000D02*
Y314000D01*
X217000Y315281D02*
Y312000D01*
Y315281D02*
X218023D01*
X218364Y315125*
X218477Y314969*
X218591Y314656*
Y314344*
X218477Y314031*
X218364Y313875*
X218023Y313719*
X217000D02*
X218023D01*
X218364Y313563*
X218364D02*
X218477Y313406D01*
X218591Y313094*
Y312625*
X218477Y312313*
X218477D02*
X218364Y312156D01*
X218023Y312000*
X217000*
X238000Y310000D02*
X246000D01*
X242000Y306000D02*
Y314000D01*
X244000Y315281D02*
Y312000D01*
Y315281D02*
X245023D01*
X245364Y315125*
X245477Y314969*
X245591Y314656*
Y314344*
X245477Y314031*
X245364Y313875*
X245023Y313719*
X244000D02*
X245023D01*
X245364Y313563*
X245364D02*
X245477Y313406D01*
X245591Y313094*
Y312625*
X245477Y312313*
X245477D02*
X245364Y312156D01*
X245023Y312000*
X244000*
X277000Y315500D02*
X285000D01*
X281000Y311500D02*
Y319500D01*
X283000Y320781D02*
Y317500D01*
Y320781D02*
X284023D01*
X284364Y320625*
X284477Y320469*
X284591Y320156*
Y319844*
X284477Y319531*
X284364Y319375*
X284023Y319219*
X283000D02*
X284023D01*
X284364Y319063*
X284364D02*
X284477Y318906D01*
X284591Y318594*
Y318125*
X284477Y317813*
X284477D02*
X284364Y317656D01*
X284023Y317500*
X283000*
X277000Y311000D02*
X285000D01*
X281000Y307000D02*
Y315000D01*
X283000Y316281D02*
Y313000D01*
Y316281D02*
X284023D01*
X284364Y316125*
X284477Y315969*
X284591Y315656*
Y315344*
X284477Y315031*
X284364Y314875*
X284023Y314719*
X283000D02*
X284023D01*
X284364Y314563*
X284364D02*
X284477Y314406D01*
X284591Y314094*
Y313625*
X284477Y313313*
X284477D02*
X284364Y313156D01*
X284023Y313000*
X283000*
X294000Y311500D02*
X302000D01*
X298000Y307500D02*
Y315500D01*
X300000Y316781D02*
Y313500D01*
Y316781D02*
X301023D01*
X301364Y316625*
X301477Y316469*
X301591Y316156*
Y315844*
X301477Y315531*
X301364Y315375*
X301023Y315219*
X300000D02*
X301023D01*
X301364Y315063*
X301364D02*
X301477Y314906D01*
X301591Y314594*
Y314125*
X301477Y313813*
X301477D02*
X301364Y313656D01*
X301023Y313500*
X300000*
X306500Y307000D02*
X314500D01*
X310500Y303000D02*
Y311000D01*
X312500Y312281D02*
Y309000D01*
Y312281D02*
X313523D01*
X313864Y312125*
X313977Y311969*
X314091Y311656*
Y311344*
X313977Y311031*
X313864Y310875*
X313523Y310719*
X312500D02*
X313523D01*
X313864Y310563*
X313864D02*
X313977Y310406D01*
X314091Y310094*
Y309625*
X313977Y309313*
X313977D02*
X313864Y309156D01*
X313523Y309000*
X312500*
X317000D02*
X325000D01*
X321000Y305000D02*
Y313000D01*
X323000Y314281D02*
Y311000D01*
Y314281D02*
X324023D01*
X324364Y314125*
X324477Y313969*
X324591Y313656*
Y313344*
X324477Y313031*
X324364Y312875*
X324023Y312719*
X323000D02*
X324023D01*
X324364Y312563*
X324364D02*
X324477Y312406D01*
X324591Y312094*
Y311625*
X324477Y311313*
X324477D02*
X324364Y311156D01*
X324023Y311000*
X323000*
X358500Y310000D02*
X366500D01*
X362500Y306000D02*
Y314000D01*
X364500Y315281D02*
Y312000D01*
Y315281D02*
X365523D01*
X365864Y315125*
X365977Y314969*
X366091Y314656*
Y314344*
X365977Y314031*
X365864Y313875*
X365523Y313719*
X364500D02*
X365523D01*
X365864Y313563*
X365864D02*
X365977Y313406D01*
X366091Y313094*
Y312625*
X365977Y312313*
X365977D02*
X365864Y312156D01*
X365523Y312000*
X364500*
X365000Y311000D02*
X373000D01*
X369000Y307000D02*
Y315000D01*
X371000Y316281D02*
Y313000D01*
Y316281D02*
X372023D01*
X372364Y316125*
X372477Y315969*
X372591Y315656*
Y315344*
X372477Y315031*
X372364Y314875*
X372023Y314719*
X371000D02*
X372023D01*
X372364Y314563*
X372364D02*
X372477Y314406D01*
X372591Y314094*
Y313625*
X372477Y313313*
X372477D02*
X372364Y313156D01*
X372023Y313000*
X371000*
X391000Y310000D02*
X399000D01*
X395000Y306000D02*
Y314000D01*
X397000Y315281D02*
Y312000D01*
Y315281D02*
X398023D01*
X398364Y315125*
X398477Y314969*
X398591Y314656*
Y314344*
X398477Y314031*
X398364Y313875*
X398023Y313719*
X397000D02*
X398023D01*
X398364Y313563*
X398364D02*
X398477Y313406D01*
X398591Y313094*
Y312625*
X398477Y312313*
X398477D02*
X398364Y312156D01*
X398023Y312000*
X397000*
X211000Y320000D02*
X219000D01*
X215000Y316000D02*
Y324000D01*
X217000Y325281D02*
Y322000D01*
Y325281D02*
X218023D01*
X218364Y325125*
X218477Y324969*
X218591Y324656*
Y324344*
X218477Y324031*
X218364Y323875*
X218023Y323719*
X217000D02*
X218023D01*
X218364Y323563*
X218364D02*
X218477Y323406D01*
X218591Y323094*
Y322625*
X218477Y322313*
X218477D02*
X218364Y322156D01*
X218023Y322000*
X217000*
X238500D02*
X246500D01*
X242500Y318000D02*
Y326000D01*
X244500Y327281D02*
Y324000D01*
Y327281D02*
X245523D01*
X245864Y327125*
X245977Y326969*
X246091Y326656*
Y326344*
X245977Y326031*
X245864Y325875*
X245523Y325719*
X244500D02*
X245523D01*
X245864Y325563*
X245864D02*
X245977Y325406D01*
X246091Y325094*
Y324625*
X245977Y324313*
X245977D02*
X245864Y324156D01*
X245523Y324000*
X244500*
X276000Y319500D02*
X284000D01*
X280000Y315500D02*
Y323500D01*
X282000Y324781D02*
Y321500D01*
Y324781D02*
X283023D01*
X283364Y324625*
X283477Y324469*
X283591Y324156*
Y323844*
X283477Y323531*
X283364Y323375*
X283023Y323219*
X282000D02*
X283023D01*
X283364Y323063*
X283364D02*
X283477Y322906D01*
X283591Y322594*
Y322125*
X283477Y321813*
X283477D02*
X283364Y321656D01*
X283023Y321500*
X282000*
X283000Y325000D02*
X291000D01*
X287000Y321000D02*
Y329000D01*
X289000Y330281D02*
Y327000D01*
Y330281D02*
X290023D01*
X290364Y330125*
X290477Y329969*
X290591Y329656*
Y329344*
X290477Y329031*
X290364Y328875*
X290023Y328719*
X289000D02*
X290023D01*
X290364Y328563*
X290364D02*
X290477Y328406D01*
X290591Y328094*
Y327625*
X290477Y327313*
X290477D02*
X290364Y327156D01*
X290023Y327000*
X289000*
X276500Y324500D02*
X284500D01*
X280500Y320500D02*
Y328500D01*
X282500Y329781D02*
Y326500D01*
Y329781D02*
X283523D01*
X283864Y329625*
X283977Y329469*
X284091Y329156*
Y328844*
X283977Y328531*
X283864Y328375*
X283523Y328219*
X282500D02*
X283523D01*
X283864Y328063*
X283864D02*
X283977Y327906D01*
X284091Y327594*
Y327125*
X283977Y326813*
X283977D02*
X283864Y326656D01*
X283523Y326500*
X282500*
X289500Y325000D02*
X297500D01*
X293500Y321000D02*
Y329000D01*
X295500Y330281D02*
Y327000D01*
Y330281D02*
X296523D01*
X296864Y330125*
X296977Y329969*
X297091Y329656*
Y329344*
X296977Y329031*
X296864Y328875*
X296523Y328719*
X295500D02*
X296523D01*
X296864Y328563*
X296864D02*
X296977Y328406D01*
X297091Y328094*
Y327625*
X296977Y327313*
X296977D02*
X296864Y327156D01*
X296523Y327000*
X295500*
X309500Y324000D02*
X317500D01*
X313500Y320000D02*
Y328000D01*
X315500Y329281D02*
Y326000D01*
Y329281D02*
X316523D01*
X316864Y329125*
X316977Y328969*
X317091Y328656*
Y328344*
X316977Y328031*
X316864Y327875*
X316523Y327719*
X315500D02*
X316523D01*
X316864Y327563*
X316864D02*
X316977Y327406D01*
X317091Y327094*
Y326625*
X316977Y326313*
X316977D02*
X316864Y326156D01*
X316523Y326000*
X315500*
X321500Y321500D02*
X329500D01*
X325500Y317500D02*
Y325500D01*
X327500Y326781D02*
Y323500D01*
Y326781D02*
X328523D01*
X328864Y326625*
X328977Y326469*
X329091Y326156*
Y325844*
X328977Y325531*
X328864Y325375*
X328523Y325219*
X327500D02*
X328523D01*
X328864Y325063*
X328864D02*
X328977Y324906D01*
X329091Y324594*
Y324125*
X328977Y323813*
X328977D02*
X328864Y323656D01*
X328523Y323500*
X327500*
X323000Y316500D02*
X331000D01*
X327000Y312500D02*
Y320500D01*
X329000Y321781D02*
Y318500D01*
Y321781D02*
X330023D01*
X330364Y321625*
X330477Y321469*
X330591Y321156*
Y320844*
X330477Y320531*
X330364Y320375*
X330023Y320219*
X329000D02*
X330023D01*
X330364Y320063*
X330364D02*
X330477Y319906D01*
X330591Y319594*
Y319125*
X330477Y318813*
X330477D02*
X330364Y318656D01*
X330023Y318500*
X329000*
X316000D02*
X324000D01*
X320000Y314500D02*
Y322500D01*
X322000Y323781D02*
Y320500D01*
Y323781D02*
X323023D01*
X323364Y323625*
X323477Y323469*
X323591Y323156*
Y322844*
X323477Y322531*
X323364Y322375*
X323023Y322219*
X322000D02*
X323023D01*
X323364Y322063*
X323364D02*
X323477Y321906D01*
X323591Y321594*
Y321125*
X323477Y320813*
X323477D02*
X323364Y320656D01*
X323023Y320500*
X322000*
X329000Y316500D02*
X337000D01*
X333000Y312500D02*
Y320500D01*
X335000Y321781D02*
Y318500D01*
Y321781D02*
X336023D01*
X336364Y321625*
X336477Y321469*
X336591Y321156*
Y320844*
X336477Y320531*
X336364Y320375*
X336023Y320219*
X335000D02*
X336023D01*
X336364Y320063*
X336364D02*
X336477Y319906D01*
X336591Y319594*
Y319125*
X336477Y318813*
X336477D02*
X336364Y318656D01*
X336023Y318500*
X335000*
X337500Y325500D02*
X345500D01*
X341500Y321500D02*
Y329500D01*
X343500Y330781D02*
Y327500D01*
Y330781D02*
X344523D01*
X344864Y330625*
X344977Y330469*
X345091Y330156*
Y329844*
X344977Y329531*
X344864Y329375*
X344523Y329219*
X343500D02*
X344523D01*
X344864Y329063*
X344864D02*
X344977Y328906D01*
X345091Y328594*
Y328125*
X344977Y327813*
X344977D02*
X344864Y327656D01*
X344523Y327500*
X343500*
X345000Y324500D02*
X353000D01*
X349000Y320500D02*
Y328500D01*
X351000Y329781D02*
Y326500D01*
Y329781D02*
X352023D01*
X352364Y329625*
X352477Y329469*
X352591Y329156*
Y328844*
X352477Y328531*
X352364Y328375*
X352023Y328219*
X351000D02*
X352023D01*
X352364Y328063*
X352364D02*
X352477Y327906D01*
X352591Y327594*
Y327125*
X352477Y326813*
X352477D02*
X352364Y326656D01*
X352023Y326500*
X351000*
X358500Y320000D02*
X366500D01*
X362500Y316000D02*
Y324000D01*
X364500Y325281D02*
Y322000D01*
Y325281D02*
X365523D01*
X365864Y325125*
X365977Y324969*
X366091Y324656*
Y324344*
X365977Y324031*
X365864Y323875*
X365523Y323719*
X364500D02*
X365523D01*
X365864Y323563*
X365864D02*
X365977Y323406D01*
X366091Y323094*
Y322625*
X365977Y322313*
X365977D02*
X365864Y322156D01*
X365523Y322000*
X364500*
X365000Y320000D02*
X373000D01*
X369000Y316000D02*
Y324000D01*
X371000Y325281D02*
Y322000D01*
Y325281D02*
X372023D01*
X372364Y325125*
X372477Y324969*
X372591Y324656*
Y324344*
X372477Y324031*
X372364Y323875*
X372023Y323719*
X371000D02*
X372023D01*
X372364Y323563*
X372364D02*
X372477Y323406D01*
X372591Y323094*
Y322625*
X372477Y322313*
X372477D02*
X372364Y322156D01*
X372023Y322000*
X371000*
X391000Y320000D02*
X399000D01*
X395000Y316000D02*
Y324000D01*
X397000Y325281D02*
Y322000D01*
Y325281D02*
X398023D01*
X398364Y325125*
X398477Y324969*
X398591Y324656*
Y324344*
X398477Y324031*
X398364Y323875*
X398023Y323719*
X397000D02*
X398023D01*
X398364Y323563*
X398364D02*
X398477Y323406D01*
X398591Y323094*
Y322625*
X398477Y322313*
X398477D02*
X398364Y322156D01*
X398023Y322000*
X397000*
X202000Y328000D02*
X210000D01*
X206000Y324000D02*
Y332000D01*
X208000Y333281D02*
Y330000D01*
Y333281D02*
X209023D01*
X209364Y333125*
X209477Y332969*
X209591Y332656*
Y332344*
X209477Y332031*
X209364Y331875*
X209023Y331719*
X208000D02*
X209023D01*
X209364Y331563*
X209364D02*
X209477Y331406D01*
X209591Y331094*
Y330625*
X209477Y330313*
X209477D02*
X209364Y330156D01*
X209023Y330000*
X208000*
X250000Y327500D02*
X258000D01*
X254000Y323500D02*
Y331500D01*
X256000Y332781D02*
Y329500D01*
Y332781D02*
X257023D01*
X257364Y332625*
X257477Y332469*
X257591Y332156*
Y331844*
X257477Y331531*
X257364Y331375*
X257023Y331219*
X256000D02*
X257023D01*
X257364Y331063*
X257364D02*
X257477Y330906D01*
X257591Y330594*
Y330125*
X257477Y329813*
X257477D02*
X257364Y329656D01*
X257023Y329500*
X256000*
X257000Y331000D02*
X265000D01*
X261000Y327000D02*
Y335000D01*
X263000Y336281D02*
Y333000D01*
Y336281D02*
X264023D01*
X264364Y336125*
X264477Y335969*
X264591Y335656*
Y335344*
X264477Y335031*
X264364Y334875*
X264023Y334719*
X263000D02*
X264023D01*
X264364Y334563*
X264364D02*
X264477Y334406D01*
X264591Y334094*
Y333625*
X264477Y333313*
X264477D02*
X264364Y333156D01*
X264023Y333000*
X263000*
X268000Y331000D02*
X276000D01*
X272000Y327000D02*
Y335000D01*
X274000Y336281D02*
Y333000D01*
Y336281D02*
X275023D01*
X275364Y336125*
X275477Y335969*
X275591Y335656*
Y335344*
X275477Y335031*
X275364Y334875*
X275023Y334719*
X274000D02*
X275023D01*
X275364Y334563*
X275364D02*
X275477Y334406D01*
X275591Y334094*
Y333625*
X275477Y333313*
X275477D02*
X275364Y333156D01*
X275023Y333000*
X274000*
X277500Y331000D02*
X285500D01*
X281500Y327000D02*
Y335000D01*
X283500Y336281D02*
Y333000D01*
Y336281D02*
X284523D01*
X284864Y336125*
X284977Y335969*
X285091Y335656*
Y335344*
X284977Y335031*
X284864Y334875*
X284523Y334719*
X283500D02*
X284523D01*
X284864Y334563*
X284864D02*
X284977Y334406D01*
X285091Y334094*
Y333625*
X284977Y333313*
X284977D02*
X284864Y333156D01*
X284523Y333000*
X283500*
X291000Y331000D02*
X299000D01*
X295000Y327000D02*
Y335000D01*
X297000Y336281D02*
Y333000D01*
Y336281D02*
X298023D01*
X298364Y336125*
X298477Y335969*
X298591Y335656*
Y335344*
X298477Y335031*
X298364Y334875*
X298023Y334719*
X297000D02*
X298023D01*
X298364Y334563*
X298364D02*
X298477Y334406D01*
X298591Y334094*
Y333625*
X298477Y333313*
X298477D02*
X298364Y333156D01*
X298023Y333000*
X297000*
X307500Y328000D02*
X315500D01*
X311500Y324000D02*
Y332000D01*
X313500Y333281D02*
Y330000D01*
Y333281D02*
X314523D01*
X314864Y333125*
X314977Y332969*
X315091Y332656*
Y332344*
X314977Y332031*
X314864Y331875*
X314523Y331719*
X313500D02*
X314523D01*
X314864Y331563*
X314864D02*
X314977Y331406D01*
X315091Y331094*
Y330625*
X314977Y330313*
X314977D02*
X314864Y330156D01*
X314523Y330000*
X313500*
X319000Y329500D02*
X327000D01*
X323000Y325500D02*
Y333500D01*
X325000Y334781D02*
Y331500D01*
Y334781D02*
X326023D01*
X326364Y334625*
X326477Y334469*
X326591Y334156*
Y333844*
X326477Y333531*
X326364Y333375*
X326023Y333219*
X325000D02*
X326023D01*
X326364Y333063*
X326364D02*
X326477Y332906D01*
X326591Y332594*
Y332125*
X326477Y331813*
X326477D02*
X326364Y331656D01*
X326023Y331500*
X325000*
X363500Y331000D02*
X371500D01*
X367500Y327000D02*
Y335000D01*
X369500Y336281D02*
Y333000D01*
Y336281D02*
X370523D01*
X370864Y336125*
X370977Y335969*
X371091Y335656*
Y335344*
X370977Y335031*
X370864Y334875*
X370523Y334719*
X369500D02*
X370523D01*
X370864Y334563*
X370864D02*
X370977Y334406D01*
X371091Y334094*
Y333625*
X370977Y333313*
X370977D02*
X370864Y333156D01*
X370523Y333000*
X369500*
X401000Y330000D02*
X409000D01*
X405000Y326000D02*
Y334000D01*
X407000Y335281D02*
Y332000D01*
Y335281D02*
X408023D01*
X408364Y335125*
X408477Y334969*
X408591Y334656*
Y334344*
X408477Y334031*
X408364Y333875*
X408023Y333719*
X407000D02*
X408023D01*
X408364Y333563*
X408364D02*
X408477Y333406D01*
X408591Y333094*
Y332625*
X408477Y332313*
X408477D02*
X408364Y332156D01*
X408023Y332000*
X407000*
X517500Y140000D02*
Y100000D01*
X492500Y125000D02*
X742500D01*
X392500Y140000D02*
X592500D01*
X392500Y125000D02*
X592500D01*
X442500Y140000D02*
Y100000D01*
X260500D02*
Y85000D01*
X429500Y100000D02*
Y85000D01*
X542500Y140000D02*
Y100000D01*
X567500Y140000D02*
Y100000D01*
X492500Y140000D02*
X692500D01*
X617500Y139500D02*
Y99500D01*
X350500Y100000D02*
Y85000D01*
X504500Y100000D02*
Y85000D01*
X667500D02*
Y100000D01*
Y140000*
X523023Y135156D02*
Y128594D01*
Y135156D02*
X525068D01*
X525750Y134844*
X525977Y134531*
X526205Y133906*
Y133281*
X525977Y132656*
X525750Y132344*
X525068Y132031*
X523023D02*
X525068D01*
X525750Y131719*
X525977Y131406*
X526205Y130781*
Y129844*
X525977Y129219*
X525750Y128906*
X525068Y128594*
X523023*
X529386Y132969D02*
X528932Y132656D01*
X528477Y132031*
X528250Y131094*
Y130469*
X528477Y129531*
X528932Y128906*
X529386Y128594*
X530068*
X530523Y128906*
X530977Y129531*
X531205Y130469*
Y131094*
X530977Y132031*
X530523Y132656*
X530068Y132969*
X529386*
X533932Y135156D02*
Y129844D01*
X534159Y128906*
X534614Y128594*
X535068*
X533250Y132969D02*
X534841D01*
X697000Y142125D02*
Y136875D01*
Y142125D02*
X699364D01*
X697000Y139625D02*
X698455D01*
X703182Y140375D02*
Y136875D01*
Y139625D02*
X702818Y140125D01*
X702455Y140375*
X701909*
X701545Y140125*
X701182Y139625*
X701000Y138875*
Y138375*
X701182Y137625*
X701545Y137125*
X701909Y136875*
X702455*
X702818Y137125*
X703182Y137625*
X704818Y142125D02*
Y136875D01*
Y139625D02*
X705182Y140125D01*
X705545Y140375*
X706091*
X706455Y140125*
X706818Y139625*
X707000Y138875*
Y138375*
X706818Y137625*
X706455Y137125*
X706091Y136875*
X705545*
X705182Y137125*
X704818Y137625*
X712818Y142125D02*
Y136875D01*
Y142125D02*
X714091D01*
X714636Y141875*
X715000Y141375*
X715182Y140875*
X715364Y140125*
Y138875*
X715182Y138125*
X715000Y137625*
X714636Y137125*
X714091Y136875*
X712818*
X717000Y140375D02*
Y136875D01*
Y138875D02*
X717182Y139625D01*
X717545Y140125*
X717909Y140375*
X718455*
X722273D02*
Y136875D01*
Y139625D02*
X721909Y140125D01*
X721545Y140375*
X721000*
X720636Y140125*
X720273Y139625*
X720091Y138875*
Y138375*
X720273Y137625*
X720636Y137125*
X721000Y136875*
X721545*
X721909Y137125*
X722273Y137625*
X723909Y140375D02*
X724636Y136875D01*
X725364Y140375D02*
X724636Y136875D01*
X725364Y140375D02*
X726091Y136875D01*
X726818Y140375D02*
X726091Y136875D01*
X728455Y142125D02*
X728636Y141875D01*
X728818Y142125*
X728636Y142375*
X728455Y142125*
X728636Y140375D02*
Y136875D01*
X730455Y140375D02*
Y136875D01*
Y139375D02*
X731000Y140125D01*
X731364Y140375*
X731909*
X732273Y140125*
X732455Y139375*
Y136875*
X736273Y140375D02*
Y136375D01*
X736091Y135625*
X735909Y135375*
X735545Y135125*
X735000*
X734636Y135375*
X736273Y139625D02*
X735909Y140125D01*
X735545Y140375*
X735000*
X734636Y140125*
X734273Y139625*
X734091Y138875*
Y138375*
X734273Y137625*
X734636Y137125*
X735000Y136875*
X735545*
X735909Y137125*
X736273Y137625*
X673023Y135156D02*
Y128594D01*
Y135156D02*
X675068D01*
X675750Y134844*
X675977Y134531*
X676205Y133906*
Y133281*
X675977Y132656*
X675750Y132344*
X675068Y132031*
X673023D02*
X675068D01*
X675750Y131719*
X675977Y131406*
X676205Y130781*
Y129844*
X675977Y129219*
X675750Y128906*
X675068Y128594*
X673023*
X679386Y132969D02*
X678932Y132656D01*
X678477Y132031*
X678250Y131094*
Y130469*
X678477Y129531*
X678932Y128906*
X679386Y128594*
X680068*
X680523Y128906*
X680977Y129531*
X681205Y130469*
Y131094*
X680977Y132031*
X680523Y132656*
X680068Y132969*
X679386*
X683932Y135156D02*
Y129844D01*
X684159Y128906*
X684614Y128594*
X685068*
X683250Y132969D02*
X684841D01*
X649159Y135156D02*
Y128594D01*
X647568Y135156D02*
X650750D01*
X653932Y132969D02*
X653477Y132656D01*
X653023Y132031*
X652795Y131094*
Y130469*
X653023Y129531*
X653477Y128906*
X653932Y128594*
X654614*
X655068Y128906*
X655523Y129531*
X655750Y130469*
Y131094*
X655523Y132031*
X655068Y132656*
X654614Y132969*
X653932*
X657795D02*
Y126406D01*
Y132031D02*
X658250Y132656D01*
X658705Y132969*
X659386*
X659841Y132656*
X660295Y132031*
X660523Y131094*
Y130469*
X660295Y129531*
X659841Y128906*
X659386Y128594*
X658705*
X658250Y128906*
X657795Y129531*
X651695Y149917D02*
X650041Y143945D01*
X651695Y149917D02*
X653350Y143945D01*
X650661Y145936D02*
X652730D01*
X657486Y147073D02*
X657280Y147642D01*
X656659Y147927*
X656039*
X655418Y147642*
X655211Y147073*
X655418Y146505*
X655832Y146220*
X656866Y145936*
X657280Y145652*
X657486Y145083*
Y144798*
X657280Y144230*
X656659Y143945*
X656039*
X655418Y144230*
X655211Y144798*
X661623Y147073D02*
X661416Y147642D01*
X660795Y147927*
X660175*
X659555Y147642*
X659348Y147073*
X659555Y146505*
X659968Y146220*
X661002Y145936*
X661416Y145652*
X661623Y145083*
Y144798*
X661416Y144230*
X660795Y143945*
X660175*
X659555Y144230*
X659348Y144798*
X663484Y146220D02*
X665966D01*
Y146789*
X665759Y147358*
X665552Y147642*
X665139Y147927*
X664518*
X664105Y147642*
X663691Y147073*
X663484Y146220*
Y145652*
X663691Y144798*
X664105Y144230*
X664518Y143945*
X665139*
X665552Y144230*
X665966Y144798*
X667827Y147927D02*
Y143945D01*
Y146789D02*
X668448Y147642D01*
X668861Y147927*
X669482*
X669895Y147642*
X670102Y146789*
Y143945*
Y146789D02*
X670723Y147642D01*
X671136Y147927*
X671757*
X672170Y147642*
X672377Y146789*
Y143945*
X674239Y149917D02*
Y143945D01*
Y147073D02*
X674652Y147642D01*
X675066Y147927*
X675686*
X676100Y147642*
X676514Y147073*
X676720Y146220*
Y145652*
X676514Y144798*
X676100Y144230*
X675686Y143945*
X675066*
X674652Y144230*
X674239Y144798*
X678582Y149917D02*
Y143945D01*
X680650Y147927D02*
X681891Y143945D01*
X683132Y147927D02*
X681891Y143945D01*
X681477Y142808*
X681064Y142239*
X680650Y141955*
X680443*
X603867Y149417D02*
Y143445D01*
Y149417D02*
X605728D01*
X606349Y149133*
X606556Y148848*
X606763Y148280*
X606763D02*
Y147427D01*
X606763D02*
X606556Y146858D01*
X606349Y146573*
X605728Y146289*
X603867*
X613381Y149417D02*
Y143445D01*
Y149417D02*
X615035Y143445D01*
X616690Y149417D02*
X615035Y143445D01*
X616690Y149417D02*
Y143445D01*
X621033Y147427D02*
Y143445D01*
Y146573D02*
X620619Y147142D01*
X620206Y147427*
X619585*
X619172Y147142*
X618758Y146573*
X618551Y145720*
Y145152*
X618758Y144298*
X619172Y143730*
X619585Y143445*
X620206*
X620619Y143730*
X621033Y144298*
X625169Y146573D02*
X624963Y147142D01*
X624963D02*
X624342Y147427D01*
X623722*
X623101Y147142*
X622894Y146573*
X623101Y146005*
X623515Y145720*
X624549Y145436*
X624963Y145152*
X624963D02*
X625169Y144583D01*
Y144298*
X624963Y143730*
X624963D02*
X624342Y143445D01*
X623722*
X623101Y143730*
X622894Y144298*
X627031Y149417D02*
Y143445D01*
X629099Y147427D02*
X627031Y144583D01*
X627858Y145720D02*
X629306Y143445D01*
X623023Y134656D02*
Y128094D01*
Y134656D02*
X625068D01*
X625750Y134344*
X625977Y134031*
X626205Y133406*
Y132781*
X625977Y132156*
X625750Y131844*
X625068Y131531*
X623023D02*
X625068D01*
X625750Y131219*
X625977Y130906*
X626205Y130281*
Y129344*
X625977Y128719*
X625750Y128406*
X625068Y128094*
X623023*
X629386Y132469D02*
X628932Y132156D01*
X628477Y131531*
X628250Y130594*
Y129969*
X628477Y129031*
X628932Y128406*
X629386Y128094*
X630068*
X630523Y128406*
X630977Y129031*
X631205Y129969*
Y130594*
X630977Y131531*
X630523Y132156*
X630068Y132469*
X629386*
X633932Y134656D02*
Y129344D01*
X634159Y128406*
X634614Y128094*
X635068*
X633250Y132469D02*
X634841D01*
X599159Y134656D02*
Y128094D01*
X597568Y134656D02*
X600750D01*
X603932Y132469D02*
X603477Y132156D01*
X603023Y131531*
X602795Y130594*
Y129969*
X603023Y129031*
X603477Y128406*
X603932Y128094*
X604614*
X605068Y128406*
X605523Y129031*
X605750Y129969*
Y130594*
X605523Y131531*
X605068Y132156*
X604614Y132469*
X603932*
X607795D02*
Y125906D01*
Y131531D02*
X608250Y132156D01*
X608705Y132469*
X609386*
X609841Y132156*
X610295Y131531*
X610523Y130594*
Y129969*
X610295Y129031*
X609841Y128406*
X609386Y128094*
X608705*
X608250Y128406*
X607795Y129031*
X573023Y135156D02*
Y128594D01*
Y135156D02*
X575068D01*
X575750Y134844*
X575977Y134531*
X576205Y133906*
Y133281*
X575977Y132656*
X575750Y132344*
X575068Y132031*
X573023D02*
X575068D01*
X575750Y131719*
X575977Y131406*
X576205Y130781*
Y129844*
X575977Y129219*
X575750Y128906*
X575068Y128594*
X573023*
X579386Y132969D02*
X578932Y132656D01*
X578477Y132031*
X578250Y131094*
Y130469*
X578477Y129531*
X578932Y128906*
X579386Y128594*
X580068*
X580523Y128906*
X580977Y129531*
X581205Y130469*
Y131094*
X580977Y132031*
X580523Y132656*
X580068Y132969*
X579386*
X583932Y135156D02*
Y129844D01*
X584159Y128906*
X584614Y128594*
X585068*
X583250Y132969D02*
X584841D01*
X549159Y135156D02*
Y128594D01*
X547568Y135156D02*
X550750D01*
X553932Y132969D02*
X553477Y132656D01*
X553023Y132031*
X552795Y131094*
Y130469*
X553023Y129531*
X553477Y128906*
X553932Y128594*
X554614*
X555068Y128906*
X555523Y129531*
X555750Y130469*
Y131094*
X555523Y132031*
X555068Y132656*
X554614Y132969*
X553932*
X557795D02*
Y126406D01*
Y132031D02*
X558250Y132656D01*
X558705Y132969*
X559386*
X559841Y132656*
X560295Y132031*
X560523Y131094*
Y130469*
X560295Y129531*
X559841Y128906*
X559386Y128594*
X558705*
X558250Y128906*
X557795Y129531*
X556763Y149064D02*
X556349Y149633D01*
X555728Y149917*
X554901*
X554281Y149633*
X553867Y149064*
Y148495*
X554074Y147927*
X554281Y147642*
X554694Y147358*
X555935Y146789*
X556349Y146505*
X556556Y146220*
X556763Y145652*
X556763D02*
Y144798D01*
X556763D02*
X556349Y144230D01*
X555728Y143945*
X554901*
X554281Y144230*
X553867Y144798*
X563381Y149917D02*
Y143945D01*
Y149917D02*
X565035Y143945D01*
X566690Y149917D02*
X565035Y143945D01*
X566690Y149917D02*
Y143945D01*
X571033Y147927D02*
Y143945D01*
Y147073D02*
X570619Y147642D01*
X570206Y147927*
X569585*
X569172Y147642*
X568758Y147073*
X568551Y146220*
Y145652*
X568758Y144798*
X569172Y144230*
X569585Y143945*
X570206*
X570619Y144230*
X571033Y144798*
X575169Y147073D02*
X574963Y147642D01*
X574963D02*
X574342Y147927D01*
X573722*
X573101Y147642*
X572894Y147073*
X573101Y146505*
X573515Y146220*
X574549Y145936*
X574963Y145652*
X574963D02*
X575169Y145083D01*
Y144798*
X574963Y144230*
X574963D02*
X574342Y143945D01*
X573722*
X573101Y144230*
X572894Y144798*
X577031Y149917D02*
Y143945D01*
X579099Y147927D02*
X577031Y145083D01*
X577858Y146220D02*
X579306Y143945D01*
X411659Y135156D02*
Y128594D01*
X410068Y135156D02*
X413250D01*
X416432Y132969D02*
X415977Y132656D01*
X415523Y132031*
X415295Y131094*
Y130469*
X415523Y129531*
X415977Y128906*
X416432Y128594*
X417114*
X417568Y128906*
X418023Y129531*
X418250Y130469*
Y131094*
X418023Y132031*
X417568Y132656*
X417114Y132969*
X416432*
X420295D02*
Y126406D01*
Y132031D02*
X420750Y132656D01*
X421205Y132969*
X421886*
X422341Y132656*
X422795Y132031*
X423023Y131094*
Y130469*
X422795Y129531*
X422341Y128906*
X421886Y128594*
X421205*
X420750Y128906*
X420295Y129531*
X460523Y135156D02*
Y128594D01*
Y135156D02*
X462568D01*
X463250Y134844*
X463477Y134531*
X463705Y133906*
Y133281*
X463477Y132656*
X463250Y132344*
X462568Y132031*
X460523D02*
X462568D01*
X463250Y131719*
X463477Y131406*
X463705Y130781*
Y129844*
X463477Y129219*
X463250Y128906*
X462568Y128594*
X460523*
X466886Y132969D02*
X466432Y132656D01*
X465977Y132031*
X465750Y131094*
Y130469*
X465977Y129531*
X466432Y128906*
X466886Y128594*
X467568*
X468023Y128906*
X468477Y129531*
X468705Y130469*
Y131094*
X468477Y132031*
X468023Y132656*
X467568Y132969*
X466886*
X471432Y135156D02*
Y129844D01*
X471659Y128906*
X472114Y128594*
X472568*
X470750Y132969D02*
X472341D01*
X407358Y148495D02*
X407151Y149064D01*
X406738Y149633*
X406738D02*
X406324Y149917D01*
X405497*
X405083Y149633*
X404669Y149064*
X404463Y148495*
X404463D02*
X404256Y147642D01*
Y146220*
X404463Y145367*
X404463D02*
X404669Y144798D01*
X405083Y144230*
X405497Y143945*
X406324*
X406738Y144230*
X406738D02*
X407151Y144798D01*
X407358Y145367*
X410253Y147927D02*
X409840Y147642D01*
X409426Y147073*
X409219Y146220*
Y145652*
X409426Y144798*
X409840Y144230*
X410253Y143945*
X410874*
X411288Y144230*
X411288D02*
X411701Y144798D01*
X411908Y145652*
Y146220*
X411701Y147073*
X411288Y147642*
X411288D02*
X410874Y147927D01*
X410253*
X413769D02*
Y141955D01*
Y147073D02*
X414183Y147642D01*
X414597Y147927*
X415217*
X415631Y147642*
X416044Y147073*
X416251Y146220*
Y145652*
X416044Y144798*
X415631Y144230*
X415217Y143945*
X414597*
X414183Y144230*
X413769Y144798*
X418113Y147927D02*
Y141955D01*
Y147073D02*
X418526Y147642D01*
X418940Y147927*
X419560*
X419974Y147642*
X420388Y147073*
X420388D02*
X420594Y146220D01*
Y145652*
X420388Y144798*
X420388D02*
X419974Y144230D01*
X419560Y143945*
X418940*
X418526Y144230*
X418113Y144798*
X422456Y146220D02*
X424938D01*
X424938D02*
Y146789D01*
X424938D02*
X424731Y147358D01*
X424524Y147642*
X424110Y147927*
X423490*
X423076Y147642*
X422663Y147073*
X422663D02*
X422456Y146220D01*
Y145652*
X422663Y144798*
X422663D02*
X423076Y144230D01*
X423490Y143945*
X424110*
X424524Y144230*
X424938Y144798*
X426799Y147927D02*
Y143945D01*
Y146220D02*
X427006Y147073D01*
X427419Y147642*
X427833Y147927*
X428453*
X435072Y149917D02*
Y143945D01*
X437553*
X441897Y147927D02*
Y143945D01*
Y147073D02*
X441483Y147642D01*
X441069Y147927*
X440449*
X440035Y147642*
X439622Y147073*
X439415Y146220*
Y145652*
X439622Y144798*
X440035Y144230*
X440449Y143945*
X441069*
X441483Y144230*
X441897Y144798*
X443965Y147927D02*
X445206Y143945D01*
X446447Y147927D02*
X445206Y143945D01*
X444792Y142808*
X444378Y142239*
X443965Y141955*
X443758*
X448308Y146220D02*
X450790D01*
Y146789*
X450583Y147358*
X450376Y147642*
X449963Y147927*
X449963D02*
X449342D01*
X448928Y147642*
X448515Y147073*
X448308Y146220*
Y145652*
X448515Y144798*
X448928Y144230*
X449342Y143945*
X449963*
X449963D02*
X450376Y144230D01*
X450790Y144798*
X452651Y147927D02*
Y143945D01*
Y146220D02*
X452858Y147073D01*
X453272Y147642*
X453685Y147927*
X454306*
X460924Y149917D02*
Y143945D01*
Y149917D02*
X463819Y143945D01*
Y149917D02*
Y143945D01*
X468163Y147927D02*
Y143945D01*
Y147073D02*
X467749Y147642D01*
X467335Y147927*
X466715*
X466301Y147642*
X465888Y147073*
X465888D02*
X465681Y146220D01*
Y145652*
X465888Y144798*
X465888D02*
X466301Y144230D01*
X466715Y143945*
X467335*
X467749Y144230*
X468163Y144798*
X470024Y147927D02*
Y143945D01*
Y146789D02*
X470644Y147642D01*
X471058Y147927*
X471678*
X472092Y147642*
X472299Y146789*
Y143945*
Y146789D02*
X472919Y147642D01*
X473333Y147927*
X473953*
X474367Y147642*
X474574Y146789*
Y143945*
X476435Y146220D02*
X478917D01*
Y146789*
X478710Y147358*
X478503Y147642*
X478090Y147927*
X477469*
X477056Y147642*
X476642Y147073*
X476435Y146220*
Y145652*
X476642Y144798*
X477056Y144230*
X477469Y143945*
X478090*
X478503Y144230*
X478917Y144798*
X501489Y149064D02*
X501075Y149633D01*
X500455Y149917*
X499627*
X499007Y149633*
X498593Y149064*
Y148495*
X498800Y147927*
X499007Y147642*
X499420Y147358*
X500661Y146789*
X501075Y146505*
X501282Y146220*
X501489Y145652*
Y144798*
X501075Y144230*
X500455Y143945*
X499627*
X499007Y144230*
X498593Y144798*
X503350Y149917D02*
X503557Y149633D01*
X503764Y149917*
X503557Y150202*
X503350Y149917*
X503557Y147927D02*
Y143945D01*
X505625Y149917D02*
Y143945D01*
X507486Y149917D02*
Y143945D01*
X509555Y147927D02*
X507486Y145083D01*
X508314Y146220D02*
X509761Y143945D01*
X513898Y147073D02*
X513691Y147642D01*
X513070Y147927*
X512450*
X511830Y147642*
X511623Y147073*
X511830Y146505*
X512243Y146220*
X513277Y145936*
X513691Y145652*
X513898Y145083*
Y144798*
X513691Y144230*
X513070Y143945*
X512450*
X511830Y144230*
X511623Y144798*
X518241Y147073D02*
X517827Y147642D01*
X517414Y147927*
X516793*
X516380Y147642*
X515966Y147073*
X515759Y146220*
Y145652*
X515966Y144798*
X516380Y144230*
X516793Y143945*
X517414*
X517827Y144230*
X518241Y144798*
X520102Y147927D02*
Y143945D01*
Y146220D02*
X520309Y147073D01*
X520723Y147642*
X521136Y147927*
X521757*
X523618Y146220D02*
X526100D01*
Y146789*
X525893Y147358*
X525686Y147642*
X525273Y147927*
X524652*
X524239Y147642*
X523825Y147073*
X523618Y146220*
Y145652*
X523825Y144798*
X524239Y144230*
X524652Y143945*
X525273*
X525686Y144230*
X526100Y144798*
X527961Y146220D02*
X530443D01*
Y146789*
X530236Y147358*
X530030Y147642*
X529616Y147927*
X528995*
X528582Y147642*
X528168Y147073*
X527961Y146220*
Y145652*
X528168Y144798*
X528582Y144230*
X528995Y143945*
X529616*
X530030Y144230*
X530443Y144798*
X532305Y147927D02*
Y143945D01*
Y146789D02*
X532925Y147642D01*
X533339Y147927*
X533959*
X534373Y147642*
X534580Y146789*
Y143945*
X499159Y135156D02*
Y128594D01*
X497568Y135156D02*
X500750D01*
X503932Y132969D02*
X503477Y132656D01*
X503023Y132031*
X502795Y131094*
Y130469*
X503023Y129531*
X503477Y128906*
X503932Y128594*
X504614*
X505068Y128906*
X505523Y129531*
X505750Y130469*
Y131094*
X505523Y132031*
X505068Y132656*
X504614Y132969*
X503932*
X507795D02*
Y126406D01*
Y132031D02*
X508250Y132656D01*
X508705Y132969*
X509386*
X509841Y132656*
X510295Y132031*
X510523Y131094*
Y130469*
X510295Y129531*
X509841Y128906*
X509386Y128594*
X508705*
X508250Y128906*
X507795Y129531*
X200000Y183500D02*
X287341D01*
X200000D02*
X210000Y186000D01*
Y181000*
X200000Y183500*
X410000D02*
X322659D01*
X410000D02*
X400000Y181000D01*
Y186000*
X410000Y183500*
X200000Y195000D02*
Y178500D01*
X410000Y195000D02*
Y178500D01*
X460500Y200000D02*
Y260750D01*
Y200000D02*
X458000Y210000D01*
X463000*
X460500Y200000*
Y335000D02*
Y274250D01*
Y335000D02*
X463000Y325000D01*
X458000*
X460500Y335000*
X415000Y200000D02*
X465500D01*
X415000Y335000D02*
X465500D01*
X200000Y896000D02*
X458000D01*
X200000Y872000D02*
X458000D01*
X200000Y848000D02*
X458000D01*
X200000Y824000D02*
X458000D01*
X200000Y800000D02*
X458000D01*
X200000Y896000D02*
Y800000D01*
X284000Y896000D02*
Y800000D01*
X320000Y896000D02*
Y800000D01*
X356000Y896000D02*
Y800000D01*
X410000Y896000D02*
Y800000D01*
X458000Y896000D02*
Y800000D01*
X235500Y884750D02*
X234955Y885500D01*
X234136Y885875*
X233045*
X232227Y885500*
X231682Y884750*
Y884000*
X231955Y883250*
X232227Y882875*
X232773Y882500*
X234409Y881750*
X234955Y881375*
X235227Y881000*
X235500Y880250*
Y879125*
X234955Y878375*
X234136Y878000*
X233045*
X232227Y878375*
X231682Y879125*
X237955Y885875D02*
Y878000D01*
X244227Y885875D02*
X240409Y878000D01*
Y885875D02*
X244227D01*
X240409Y878000D02*
X244227D01*
X246682Y885875D02*
Y878000D01*
Y885875D02*
X250227D01*
X246682Y882125D02*
X248864D01*
X246682Y878000D02*
X250227D01*
X293864Y885875D02*
X293318Y885500D01*
X292773Y884750*
X292500Y884000*
X292227Y882875*
Y881000*
X292500Y879875*
X292773Y879125*
X293318Y878375*
X293864Y878000*
X294955*
X295500Y878375*
X296045Y879125*
X296318Y879875*
X296591Y881000*
Y882875*
X296318Y884000*
X296045Y884750*
X295500Y885500*
X294955Y885875*
X293864*
X294682Y879500D02*
X296318Y877250D01*
X300955Y885875D02*
Y878000D01*
X299045Y885875D02*
X302864D01*
X305318D02*
X307500Y882125D01*
Y878000*
X309682Y885875D02*
X307500Y882125D01*
X332045Y884750D02*
X331500Y885500D01*
X330682Y885875*
X329591*
X328773Y885500*
X328227Y884750*
Y884000*
X328500Y883250*
X328773Y882875*
X329318Y882500*
X330955Y881750*
X331500Y881375*
X331773Y881000*
X332045Y880250*
Y879125*
X331500Y878375*
X330682Y878000*
X329591*
X328773Y878375*
X328227Y879125*
X334500Y885875D02*
X336682Y882125D01*
Y878000*
X338864Y885875D02*
X336682Y882125D01*
X341318Y885875D02*
Y878000D01*
Y885875D02*
X343500Y878000D01*
X345682Y885875D02*
X343500Y878000D01*
X345682Y885875D02*
Y878000D01*
X367500Y885875D02*
Y878000D01*
Y885875D02*
X369955D01*
X370773Y885500*
X371045Y885125*
X371318Y884375*
Y883250*
X371045Y882500*
X370773Y882125*
X369955Y881750*
X367500*
X373773Y885875D02*
Y878000D01*
X377045*
X381682Y885875D02*
X379500Y878000D01*
X381682Y885875D02*
X383864Y878000D01*
X380318Y880625D02*
X383045D01*
X388227Y885875D02*
Y878000D01*
X386318Y885875D02*
X390136D01*
X392591D02*
Y878000D01*
Y885875D02*
X396136D01*
X392591Y882125D02*
X394773D01*
X392591Y878000D02*
X396136D01*
X398591Y885875D02*
Y878000D01*
Y885875D02*
X400500D01*
X401318Y885500*
X401864Y884750*
X402136Y884000*
X402409Y882875*
Y881000*
X402136Y879875*
X401864Y879125*
X401318Y878375*
X400500Y878000*
X398591*
X426682Y885875D02*
Y878000D01*
X424773Y885875D02*
X428591D01*
X432682D02*
X432136Y885500D01*
X431591Y884750*
X431318Y884000*
X431045Y882875*
Y881000*
X431318Y879875*
X431591Y879125*
X432136Y878375*
X432682Y878000*
X433773*
X434318Y878375*
X434864Y879125*
X435136Y879875*
X435409Y881000*
Y882875*
X435136Y884000*
X434864Y884750*
X434318Y885500*
X433773Y885875*
X432682*
X437864D02*
Y878000D01*
X441136*
X206545Y861875D02*
X209545D01*
X207909Y858875*
X208727*
X209273Y858500*
X209545Y858125*
X209818Y857000*
Y856250*
X209545Y855125*
X209000Y854375*
X208182Y854000*
X207364*
X206545Y854375*
X206273Y854750*
X206000Y855500*
X213636Y861875D02*
X212818Y861500D01*
X212545Y860750*
Y860000*
X212818Y859250*
X213364Y858875*
X214455Y858500*
X215273Y858125*
X215818Y857375*
X216091Y856625*
Y855500*
X215818Y854750*
X215545Y854375*
X214727Y854000*
X213636*
X212818Y854375*
X212545Y854750*
X212273Y855500*
Y856625*
X212545Y857375*
X213091Y858125*
X213909Y858500*
X215000Y858875*
X215545Y859250*
X215818Y860000*
Y860750*
X215545Y861500*
X214727Y861875*
X213636*
X296182Y860000D02*
Y860375D01*
X296455Y861125*
X296727Y861500*
X297273Y861875*
X298364*
X298909Y861500*
X299182Y861125*
X299455Y860375*
Y859625*
X299182Y858875*
X298636Y857750*
X295909Y854000*
X299727*
X303818Y861875D02*
X303000Y861500D01*
X302455Y860375*
X302182Y858500*
Y857375*
X302455Y855500*
X303000Y854375*
X303818Y854000*
X304364*
X305182Y854375*
X305727Y855500*
X306000Y857375*
Y858500*
X305727Y860375*
X305182Y861500*
X304364Y861875*
X303818*
X332000Y860000D02*
X344000D01*
X338000Y854000D02*
Y866000D01*
X364636Y861875D02*
X366818Y858125D01*
Y854000*
X369000Y861875D02*
X366818Y858125D01*
X371455Y861875D02*
Y854000D01*
Y861875D02*
X375000D01*
X371455Y858125D02*
X373636D01*
X371455Y854000D02*
X375000D01*
X381273Y860750D02*
X380727Y861500D01*
X379909Y861875*
X378818*
X378000Y861500*
X377455Y860750*
Y860000*
X377727Y859250*
X378000Y858875*
X378545Y858500*
X380182Y857750*
X380727Y857375*
X381000Y857000*
X381273Y856250*
Y855125*
X380727Y854375*
X379909Y854000*
X378818*
X378000Y854375*
X377455Y855125*
X417818Y860750D02*
Y854000D01*
X415364Y857375D02*
X420273D01*
X427636Y863375D02*
X422727Y851375D01*
X430091Y857375D02*
X435000D01*
X439091Y861875D02*
X438273Y861500D01*
X437727Y860375*
X437455Y858500*
Y857375*
X437727Y855500*
X438273Y854375*
X439091Y854000*
X439636*
X440455Y854375*
X441000Y855500*
X441273Y857375*
Y858500*
X441000Y860375*
X440455Y861500*
X439636Y861875*
X439091*
X444000Y854750D02*
X443727Y854375D01*
X444000Y854000*
X444273Y854375*
X444000Y854750*
X448364Y861875D02*
X447545Y861500D01*
X447000Y860375*
X446727Y858500*
Y857375*
X447000Y855500*
X447545Y854375*
X448364Y854000*
X448909*
X449727Y854375*
X450273Y855500*
X450545Y857375*
Y858500*
X450273Y860375*
X449727Y861500*
X448909Y861875*
X448364*
X206273Y836000D02*
Y836375D01*
X206545Y837125*
X206818Y837500*
X207364Y837875*
X208455*
X209000Y837500*
X209273Y837125*
X209545Y836375*
Y835625*
X209273Y834875*
X208727Y833750*
X206000Y830000*
X209818*
X213909Y837875D02*
X213091Y837500D01*
X212545Y836375*
X212273Y834500*
Y833375*
X212545Y831500*
X213091Y830375*
X213909Y830000*
X214455*
X215273Y830375*
X215818Y831500*
X216091Y833375*
Y834500*
X215818Y836375*
X215273Y837500*
X214455Y837875*
X213909*
X300409D02*
X299591Y837500D01*
X299318Y836750*
Y836000*
X299591Y835250*
X300136Y834875*
X301227Y834500*
X302045Y834125*
X302591Y833375*
X302864Y832625*
Y831500*
X302591Y830750*
X302318Y830375*
X301500Y830000*
X300409*
X299591Y830375*
X299318Y830750*
X299045Y831500*
Y832625*
X299318Y833375*
X299864Y834125*
X300682Y834500*
X301773Y834875*
X302318Y835250*
X302591Y836000*
Y836750*
X302318Y837500*
X301500Y837875*
X300409*
X332000Y836000D02*
X344000D01*
X338000Y830000D02*
Y842000D01*
X342745Y845300D02*
X341000Y839000D01*
X342745Y845300D02*
X344491Y839000D01*
X341655Y841100D02*
X343836D01*
X364636Y837875D02*
X366818Y834125D01*
Y830000*
X369000Y837875D02*
X366818Y834125D01*
X371455Y837875D02*
Y830000D01*
Y837875D02*
X375000D01*
X371455Y834125D02*
X373636D01*
X371455Y830000D02*
X375000D01*
X381273Y836750D02*
X380727Y837500D01*
X379909Y837875*
X378818*
X378000Y837500*
X377455Y836750*
Y836000*
X377727Y835250*
X378000Y834875*
X378545Y834500*
X380182Y833750*
X380727Y833375*
X381000Y833000*
X381273Y832250*
Y831125*
X380727Y830375*
X379909Y830000*
X378818*
X378000Y830375*
X377455Y831125*
X417818Y836750D02*
Y830000D01*
X415364Y833375D02*
X420273D01*
X427636Y839375D02*
X422727Y827375D01*
X430091Y833375D02*
X435000D01*
X439091Y837875D02*
X438273Y837500D01*
X437727Y836375*
X437455Y834500*
Y833375*
X437727Y831500*
X438273Y830375*
X439091Y830000*
X439636*
X440455Y830375*
X441000Y831500*
X441273Y833375*
Y834500*
X441000Y836375*
X440455Y837500*
X439636Y837875*
X439091*
X444000Y830750D02*
X443727Y830375D01*
X444000Y830000*
X444273Y830375*
X444000Y830750*
X448364Y837875D02*
X447545Y837500D01*
X447000Y836375*
X446727Y834500*
Y833375*
X447000Y831500*
X447545Y830375*
X448364Y830000*
X448909*
X449727Y830375*
X450273Y831500*
X450545Y833375*
Y834500*
X450273Y836375*
X449727Y837500*
X448909Y837875*
X448364*
X206000Y812375D02*
X206545Y812750D01*
X207364Y813875*
Y806000*
X211455Y813875D02*
X210636Y813500D01*
X210091Y812375*
X209818Y810500*
Y809375*
X210091Y807500*
X210636Y806375*
X211455Y806000*
X212000*
X212818Y806375*
X213364Y807500*
X213636Y809375*
Y810500*
X213364Y812375*
X212818Y813500*
X212000Y813875*
X211455*
X295227Y812375D02*
X295773Y812750D01*
X296591Y813875*
Y806000*
X299591Y813875D02*
X302591D01*
X300955Y810875*
X301773*
X302318Y810500*
X302591Y810125*
X302864Y809000*
Y808250*
X302591Y807125*
X302045Y806375*
X301227Y806000*
X300409*
X299591Y806375*
X299318Y806750*
X299045Y807500*
X305318Y812375D02*
X305864Y812750D01*
X306682Y813875*
Y806000*
X332000Y812000D02*
X344000D01*
X338000Y806000D02*
Y818000D01*
X341000Y821300D02*
Y815000D01*
Y821300D02*
X342964D01*
X343618Y821000*
X343836Y820700*
X344055Y820100*
Y819500*
X343836Y818900*
X343618Y818600*
X342964Y818300*
X341000D02*
X342964D01*
X343618Y818000*
X343836Y817700*
X344055Y817100*
Y816200*
X343836Y815600*
X343618Y815300*
X342964Y815000*
X341000*
X364636Y813875D02*
X366818Y810125D01*
Y806000*
X369000Y813875D02*
X366818Y810125D01*
X371455Y813875D02*
Y806000D01*
Y813875D02*
X375000D01*
X371455Y810125D02*
X373636D01*
X371455Y806000D02*
X375000D01*
X381273Y812750D02*
X380727Y813500D01*
X379909Y813875*
X378818*
X378000Y813500*
X377455Y812750*
Y812000*
X377727Y811250*
X378000Y810875*
X378545Y810500*
X380182Y809750*
X380727Y809375*
X381000Y809000*
X381273Y808250*
Y807125*
X380727Y806375*
X379909Y806000*
X378818*
X378000Y806375*
X377455Y807125*
X417818Y812750D02*
Y806000D01*
X415364Y809375D02*
X420273D01*
X427636Y815375D02*
X422727Y803375D01*
X430091Y809375D02*
X435000D01*
X439091Y813875D02*
X438273Y813500D01*
X437727Y812375*
X437455Y810500*
Y809375*
X437727Y807500*
X438273Y806375*
X439091Y806000*
X439636*
X440455Y806375*
X441000Y807500*
X441273Y809375*
Y810500*
X441000Y812375*
X440455Y813500*
X439636Y813875*
X439091*
X444000Y806750D02*
X443727Y806375D01*
X444000Y806000*
X444273Y806375*
X444000Y806750*
X448364Y813875D02*
X447545Y813500D01*
X447000Y812375*
X446727Y810500*
Y809375*
X447000Y807500*
X447545Y806375*
X448364Y806000*
X448909*
X449727Y806375*
X450273Y807500*
X450545Y809375*
Y810500*
X450273Y812375*
X449727Y813500*
X448909Y813875*
X448364*
G54D14*
X200000Y85000D02*
X742500D01*
Y155000*
X200000*
Y85000*
X492500Y100500D02*
Y155000D01*
X392500Y100500D02*
Y155000D01*
X200000Y125000D02*
X392500D01*
X200000Y100000D02*
X742500D01*
X330000D02*
Y125000D01*
X542500Y100500D02*
Y155000D01*
X592500Y100000D02*
Y154500D01*
X642500Y100500D02*
Y155000D01*
X692500Y100500D02*
Y155000D01*
G54D15*
X219886Y143984D02*
Y134141D01*
X217500Y143984D02*
X222273D01*
X225341D02*
Y134141D01*
Y143984D02*
X229773D01*
X225341Y139297D02*
X228068D01*
X225341Y134141D02*
X229773D01*
X232841Y143984D02*
X237614Y134141D01*
Y143984D02*
X232841Y134141D01*
X243409Y143984D02*
X240682Y134141D01*
X243409Y143984D02*
X246136Y134141D01*
X241705Y137422D02*
X245114D01*
X253977Y142578D02*
X253295Y143516D01*
X252273Y143984*
X250909*
X249886Y143516*
X249205Y142578*
Y141641*
X249545Y140703*
X249886Y140234*
X250568Y139766*
X252614Y138828*
X253295Y138359*
X253636Y137891*
X253977Y136953*
Y135547*
X253295Y134609*
X252273Y134141*
X250909*
X249886Y134609*
X249205Y135547*
X264886Y143984D02*
Y134141D01*
X267955Y143984D02*
Y134141D01*
Y143984D02*
X272727Y134141D01*
Y143984D02*
Y134141D01*
X280568Y142578D02*
X279886Y143516D01*
X278864Y143984*
X277500*
X276477Y143516*
X275795Y142578*
Y141641*
X276136Y140703*
X276477Y140234*
X277159Y139766*
X279205Y138828*
X279886Y138359*
X280227Y137891*
X280568Y136953*
Y135547*
X279886Y134609*
X278864Y134141*
X277500*
X276477Y134609*
X275795Y135547*
X286023Y143984D02*
Y134141D01*
X283636Y143984D02*
X288409D01*
X291477D02*
Y134141D01*
Y143984D02*
X294545D01*
X295568Y143516*
X295909Y143047*
X296250Y142109*
Y141172*
X295909Y140234*
X295568Y139766*
X294545Y139297*
X291477*
X293864D02*
X296250Y134141D01*
X299318Y143984D02*
Y136953D01*
X299659Y135547*
X300341Y134609*
X301364Y134141*
X302045*
X303068Y134609*
X303750Y135547*
X304091Y136953*
Y143984*
X307159D02*
Y134141D01*
Y143984D02*
X309886Y134141D01*
X312614Y143984D02*
X309886Y134141D01*
X312614Y143984D02*
Y134141D01*
X315682Y143984D02*
Y134141D01*
Y143984D02*
X320114D01*
X315682Y139297D02*
X318409D01*
X315682Y134141D02*
X320114D01*
X323182Y143984D02*
Y134141D01*
Y143984D02*
X327955Y134141D01*
Y143984D02*
Y134141D01*
X333409Y143984D02*
Y134141D01*
X331023Y143984D02*
X335795D01*
X343636Y142578D02*
X342955Y143516D01*
X341932Y143984*
X340568*
X339545Y143516*
X338864Y142578*
Y141641*
X339205Y140703*
X339545Y140234*
X340227Y139766*
X342273Y138828*
X342955Y138359*
X343295Y137891*
X343636Y136953*
Y135547*
X342955Y134609*
X341932Y134141*
X340568*
X339545Y134609*
X338864Y135547*
G54D16*
X672091Y95859D02*
X671864Y96172D01*
X671523Y96328*
X671068*
X670727Y96172*
X670500Y95859*
Y95547*
X670614Y95234*
X670727Y95078*
X670955Y94922*
X671636Y94609*
X671864Y94453*
X671977Y94297*
X672091Y93984*
Y93516*
X671864Y93203*
X671523Y93047*
X671068*
X670727Y93203*
X670500Y93516*
X673682Y95234D02*
X673455Y95078D01*
X673227Y94766*
X673114Y94297*
Y93984*
X673227Y93516*
X673455Y93203*
X673682Y93047*
X674023*
X674250Y93203*
X674477Y93516*
X674591Y93984*
Y94297*
X674477Y94766*
X674250Y95078*
X674023Y95234*
X673682*
X676523Y96328D02*
X676295D01*
X676068Y96172*
X675955Y95703*
Y93047*
X675614Y95234D02*
X676409D01*
X677886Y96328D02*
Y93672D01*
X678000Y93203*
X678227Y93047*
X678455*
X677545Y95234D02*
X678341D01*
X679477D02*
X679932Y93047D01*
X680386Y95234D02*
X679932Y93047D01*
X680386Y95234D02*
X680841Y93047D01*
X681295Y95234D02*
X680841Y93047D01*
X683682Y95234D02*
Y93047D01*
Y94766D02*
X683455Y95078D01*
X683227Y95234*
X682886*
X682659Y95078*
X682432Y94766*
X682318Y94297*
Y93984*
X682432Y93516*
X682659Y93203*
X682886Y93047*
X683227*
X683455Y93203*
X683682Y93516*
X684705Y95234D02*
Y93047D01*
Y94297D02*
X684818Y94766D01*
X685045Y95078*
X685273Y95234*
X685614*
X686636Y94297D02*
X688000D01*
Y94609*
X687886Y94922*
X687773Y95078*
X687545Y95234*
X687205*
X686977Y95078*
X686750Y94766*
X686636Y94297*
Y93984*
X686750Y93516*
X686977Y93203*
X687205Y93047*
X687545*
X687773Y93203*
X688000Y93516*
X354000Y96328D02*
Y93047D01*
Y96328D02*
X355477D01*
X354000Y94766D02*
X354909D01*
X354000Y93047D02*
X355477D01*
X356500Y95234D02*
Y93047D01*
Y94609D02*
X356841Y95078D01*
X357068Y95234*
X357409*
X357636Y95078*
X357750Y94609*
Y93047*
X360136Y95234D02*
Y92734D01*
X360023Y92266*
X359909Y92109*
X359682Y91953*
X359341*
X359114Y92109*
X360136Y94766D02*
X359909Y95078D01*
X359682Y95234*
X359341*
X359114Y95078*
X358886Y94766*
X358773Y94297*
Y93984*
X358886Y93516*
X359114Y93203*
X359341Y93047*
X359682*
X359909Y93203*
X360136Y93516*
X361159Y96328D02*
X361273Y96172D01*
X361386Y96328*
X361273Y96484*
X361159Y96328*
X361273Y95234D02*
Y93047D01*
X362409Y95234D02*
Y93047D01*
Y94609D02*
X362750Y95078D01*
X362977Y95234*
X363318*
X363545Y95078*
X363659Y94609*
Y93047*
X364682Y94297D02*
X366045D01*
Y94609*
X365932Y94922*
X365818Y95078*
X365591Y95234*
X365250*
X365023Y95078*
X364795Y94766*
X364682Y94297*
Y93984*
X364795Y93516*
X365023Y93203*
X365250Y93047*
X365591*
X365818Y93203*
X366045Y93516*
X367068Y94297D02*
X368432D01*
Y94609*
X368318Y94922*
X368205Y95078*
X367977Y95234*
X367636*
X367409Y95078*
X367182Y94766*
X367068Y94297*
Y93984*
X367182Y93516*
X367409Y93203*
X367636Y93047*
X367977*
X368205Y93203*
X368432Y93516*
X369455Y95234D02*
Y93047D01*
Y94297D02*
X369568Y94766D01*
X369795Y95078*
X370023Y95234*
X370364*
X371500D02*
X371386Y95078D01*
X371500Y94922*
X371614Y95078*
X371500Y95234*
Y93359D02*
X371386Y93203D01*
X371500Y93047*
X371614Y93203*
X371500Y93359*
X508000Y96328D02*
Y93047D01*
Y96328D02*
X508909Y93047D01*
X509818Y96328D02*
X508909Y93047D01*
X509818Y96328D02*
Y93047D01*
X511409Y95234D02*
X511182Y95078D01*
X510955Y94766*
X510841Y94297*
Y93984*
X510955Y93516*
X511182Y93203*
X511409Y93047*
X511750*
X511977Y93203*
X512205Y93516*
X512318Y93984*
Y94297*
X512205Y94766*
X511977Y95078*
X511750Y95234*
X511409*
X514705Y96328D02*
Y93047D01*
Y94766D02*
X514477Y95078D01*
X514250Y95234*
X513909*
X513682Y95078*
X513455Y94766*
X513341Y94297*
Y93984*
X513455Y93516*
X513682Y93203*
X513909Y93047*
X514250*
X514477Y93203*
X514705Y93516*
X515727Y96328D02*
X515841Y96172D01*
X515955Y96328*
X515841Y96484*
X515727Y96328*
X515841Y95234D02*
Y93047D01*
X517886Y96328D02*
X517659D01*
X517432Y96172*
X517318Y95703*
Y93047*
X516977Y95234D02*
X517773D01*
X518909Y96328D02*
X519023Y96172D01*
X519136Y96328*
X519023Y96484*
X518909Y96328*
X519023Y95234D02*
Y93047D01*
X520159Y94297D02*
X521523D01*
Y94609*
X521409Y94922*
X521295Y95078*
X521068Y95234*
X520727*
X520500Y95078*
X520273Y94766*
X520159Y94297*
Y93984*
X520273Y93516*
X520500Y93203*
X520727Y93047*
X521068*
X521295Y93203*
X521523Y93516*
X523909Y96328D02*
Y93047D01*
Y94766D02*
X523682Y95078D01*
X523455Y95234*
X523114*
X522886Y95078*
X522659Y94766*
X522545Y94297*
Y93984*
X522659Y93516*
X522886Y93203*
X523114Y93047*
X523455*
X523682Y93203*
X523909Y93516*
X527545Y96328D02*
Y93047D01*
Y96328D02*
X528341D01*
X528682Y96172*
X528909Y95859*
X529023Y95547*
X529136Y95078*
Y94297*
X529023Y93828*
X528909Y93516*
X528682Y93203*
X528341Y93047*
X527545*
X531523Y95234D02*
Y93047D01*
Y94766D02*
X531295Y95078D01*
X531068Y95234*
X530727*
X530500Y95078*
X530273Y94766*
X530159Y94297*
Y93984*
X530273Y93516*
X530500Y93203*
X530727Y93047*
X531068*
X531295Y93203*
X531523Y93516*
X532886Y96328D02*
Y93672D01*
X533000Y93203*
X533227Y93047*
X533455*
X532545Y95234D02*
X533341D01*
X534477Y94297D02*
X535841D01*
Y94609*
X535727Y94922*
X535614Y95078*
X535386Y95234*
X535045*
X534818Y95078*
X534591Y94766*
X534477Y94297*
Y93984*
X534591Y93516*
X534818Y93203*
X535045Y93047*
X535386*
X535614Y93203*
X535841Y93516*
X536977Y95234D02*
X536864Y95078D01*
X536977Y94922*
X537091Y95078*
X536977Y95234*
Y93359D02*
X536864Y93203D01*
X536977Y93047*
X537091Y93203*
X536977Y93359*
X433000Y96328D02*
Y93047D01*
Y96328D02*
X434023D01*
X434364Y96172*
X434477Y96016*
X434591Y95703*
Y95234*
X434477Y94922*
X434364Y94766*
X434023Y94609*
X433000*
X437318Y95547D02*
X437205Y95859D01*
X436977Y96172*
X436750Y96328*
X436295*
X436068Y96172*
X435841Y95859*
X435727Y95547*
X435614Y95078*
Y94297*
X435727Y93828*
X435841Y93516*
X436068Y93203*
X436295Y93047*
X436750*
X436977Y93203*
X437205Y93516*
X437318Y93828*
X438341Y96328D02*
Y93047D01*
Y96328D02*
X439364D01*
X439705Y96172*
X439818Y96016*
X439932Y95703*
Y95391*
X439818Y95078*
X439705Y94922*
X439364Y94766*
X438341D02*
X439364D01*
X439705Y94609*
X439818Y94453*
X439932Y94141*
Y93672*
X439818Y93359*
X439705Y93203*
X439364Y93047*
X438341*
X443568Y96328D02*
Y93047D01*
Y96328D02*
X444364D01*
X444705Y96172*
X444932Y95859*
X445045Y95547*
X445159Y95078*
Y94297*
X445045Y93828*
X444932Y93516*
X444705Y93203*
X444364Y93047*
X443568*
X447432Y94766D02*
X447318Y95078D01*
X446977Y95234*
X446636*
X446295Y95078*
X446182Y94766*
X446295Y94453*
X446523Y94297*
X447091Y94141*
X447318Y93984*
X447432Y93672*
Y93516*
X447318Y93203*
X446977Y93047*
X446636*
X446295Y93203*
X446182Y93516*
X449818Y95234D02*
Y92734D01*
X449705Y92266*
X449591Y92109*
X449364Y91953*
X449023*
X448795Y92109*
X449818Y94766D02*
X449591Y95078D01*
X449364Y95234*
X449023*
X448795Y95078*
X448568Y94766*
X448455Y94297*
Y93984*
X448568Y93516*
X448795Y93203*
X449023Y93047*
X449364*
X449591Y93203*
X449818Y93516*
X450841Y95234D02*
Y93047D01*
Y94609D02*
X451182Y95078D01*
X451409Y95234*
X451750*
X451977Y95078*
X452091Y94609*
Y93047*
X453114Y95234D02*
Y93047D01*
Y94297D02*
X453227Y94766D01*
X453455Y95078*
X453682Y95234*
X454023*
X455159D02*
X455045Y95078D01*
X455159Y94922*
X455273Y95078*
X455159Y95234*
Y93359D02*
X455045Y93203D01*
X455159Y93047*
X455273Y93203*
X455159Y93359*
X202500Y96328D02*
Y93047D01*
Y96328D02*
X203295D01*
X203636Y96172*
X203864Y95859*
X203977Y95547*
X204091Y95078*
Y94297*
X203977Y93828*
X203864Y93516*
X203636Y93203*
X203295Y93047*
X202500*
X206477Y95234D02*
Y93047D01*
Y94766D02*
X206250Y95078D01*
X206023Y95234*
X205682*
X205455Y95078*
X205227Y94766*
X205114Y94297*
Y93984*
X205227Y93516*
X205455Y93203*
X205682Y93047*
X206023*
X206250Y93203*
X206477Y93516*
X207841Y96328D02*
Y93672D01*
X207955Y93203*
X208182Y93047*
X208409*
X207500Y95234D02*
X208295D01*
X209432Y94297D02*
X210795D01*
Y94609*
X210682Y94922*
X210568Y95078*
X210341Y95234*
X210000*
X209773Y95078*
X209545Y94766*
X209432Y94297*
Y93984*
X209545Y93516*
X209773Y93203*
X210000Y93047*
X210341*
X210568Y93203*
X210795Y93516*
X211932Y95234D02*
X211818Y95078D01*
X211932Y94922*
X212045Y95078*
X211932Y95234*
Y93359D02*
X211818Y93203D01*
X211932Y93047*
X212045Y93203*
X211932Y93359*
X262500Y96328D02*
Y93047D01*
Y96328D02*
X263977D01*
X262500Y94766D02*
X263409D01*
X265000Y96328D02*
X265114Y96172D01*
X265227Y96328*
X265114Y96484*
X265000Y96328*
X265114Y95234D02*
Y93047D01*
X266250Y96328D02*
Y93047D01*
X267273Y94297D02*
X268636D01*
Y94609*
X268523Y94922*
X268409Y95078*
X268182Y95234*
X267841*
X267614Y95078*
X267386Y94766*
X267273Y94297*
Y93984*
X267386Y93516*
X267614Y93203*
X267841Y93047*
X268182*
X268409Y93203*
X268636Y93516*
X269659Y95234D02*
Y93047D01*
Y94609D02*
X270000Y95078D01*
X270227Y95234*
X270568*
X270795Y95078*
X270909Y94609*
Y93047*
X273295Y95234D02*
Y93047D01*
Y94766D02*
X273068Y95078D01*
X272841Y95234*
X272500*
X272273Y95078*
X272045Y94766*
X271932Y94297*
Y93984*
X272045Y93516*
X272273Y93203*
X272500Y93047*
X272841*
X273068Y93203*
X273295Y93516*
X274318Y95234D02*
Y93047D01*
Y94609D02*
X274659Y95078D01*
X274886Y95234*
X275227*
X275455Y95078*
X275568Y94609*
Y93047*
Y94609D02*
X275909Y95078D01*
X276136Y95234*
X276477*
X276705Y95078*
X276818Y94609*
Y93047*
X277841Y94297D02*
X279205D01*
Y94609*
X279091Y94922*
X278977Y95078*
X278750Y95234*
X278409*
X278182Y95078*
X277955Y94766*
X277841Y94297*
Y93984*
X277955Y93516*
X278182Y93203*
X278409Y93047*
X278750*
X278977Y93203*
X279205Y93516*
X280341Y95234D02*
X280227Y95078D01*
X280341Y94922*
X280455Y95078*
X280341Y95234*
Y93359D02*
X280227Y93203D01*
X280341Y93047*
X280455Y93203*
X280341Y93359*
X332500Y121328D02*
Y118047D01*
Y121328D02*
X333523D01*
X333864Y121172*
X333977Y121016*
X334091Y120703*
Y120391*
X333977Y120078*
X333864Y119922*
X333523Y119766*
X332500*
X333295D02*
X334091Y118047D01*
X335114Y119297D02*
X336477D01*
Y119609*
X336364Y119922*
X336250Y120078*
X336023Y120234*
X335682*
X335455Y120078*
X335227Y119766*
X335114Y119297*
Y118984*
X335227Y118516*
X335455Y118203*
X335682Y118047*
X336023*
X336250Y118203*
X336477Y118516*
X337500Y120234D02*
X338182Y118047D01*
X338864Y120234D02*
X338182Y118047D01*
X340000Y118359D02*
X339886Y118203D01*
X340000Y118047*
X340114Y118203*
X340000Y118359*
X205000Y121328D02*
Y118047D01*
Y121328D02*
X206023D01*
X206364Y121172*
X206477Y121016*
X206591Y120703*
Y120391*
X206477Y120078*
X206364Y119922*
X206023Y119766*
X205000D02*
X206023D01*
X206364Y119609*
X206477Y119453*
X206591Y119141*
Y118672*
X206477Y118359*
X206364Y118203*
X206023Y118047*
X205000*
X208182Y120234D02*
X207955Y120078D01*
X207727Y119766*
X207614Y119297*
Y118984*
X207727Y118516*
X207955Y118203*
X208182Y118047*
X208523*
X208750Y118203*
X208977Y118516*
X209091Y118984*
Y119297*
X208977Y119766*
X208750Y120078*
X208523Y120234*
X208182*
X211477D02*
Y118047D01*
Y119766D02*
X211250Y120078D01*
X211023Y120234*
X210682*
X210455Y120078*
X210227Y119766*
X210114Y119297*
Y118984*
X210227Y118516*
X210455Y118203*
X210682Y118047*
X211023*
X211250Y118203*
X211477Y118516*
X212500Y120234D02*
Y118047D01*
Y119297D02*
X212614Y119766D01*
X212841Y120078*
X213068Y120234*
X213409*
X215795Y121328D02*
Y118047D01*
Y119766D02*
X215568Y120078D01*
X215341Y120234*
X215000*
X214773Y120078*
X214545Y119766*
X214432Y119297*
Y118984*
X214545Y118516*
X214773Y118203*
X215000Y118047*
X215341*
X215568Y118203*
X215795Y118516*
X219432Y121328D02*
Y118047D01*
Y121328D02*
X221023Y118047D01*
Y121328D02*
Y118047D01*
X222614Y120234D02*
X222386Y120078D01*
X222159Y119766*
X222045Y119297*
Y118984*
X222159Y118516*
X222386Y118203*
X222614Y118047*
X222955*
X223182Y118203*
X223409Y118516*
X223523Y118984*
Y119297*
X223409Y119766*
X223182Y120078*
X222955Y120234*
X222614*
X224659Y118359D02*
X224545Y118203D01*
X224659Y118047*
X224773Y118203*
X224659Y118359*
G54D18*
X200000Y200000D02*
X200003D01*
X410000D02*
X410003D01*
X410000D02*
X410003D01*
X410000Y335000D02*
X410003D01*
G54D21*
X286682Y93313D02*
Y91063D01*
X286000Y92750D02*
X287364Y91625D01*
Y92750D02*
X286000Y91625D01*
X288727Y90875D02*
X288591Y90688D01*
X288591D02*
X288727Y90500D01*
X288864Y90688*
X288864D02*
X288727Y90875D01*
X290091Y93125D02*
Y89187D01*
Y92563D02*
X290364Y92938D01*
X290364D02*
X290636Y93125D01*
X291045*
X291318Y92938*
X291318D02*
X291591Y92563D01*
X291591D02*
X291727Y92000D01*
Y91625*
X291591Y91063*
X291591D02*
X291318Y90688D01*
X291318D02*
X291045Y90500D01*
X290636*
X290364Y90688*
X290364D02*
X290091Y91063D01*
X294591Y92563D02*
X294318Y92938D01*
X294318D02*
X294045Y93125D01*
X293636*
X293364Y92938*
X293364D02*
X293091Y92563D01*
X293091D02*
X292955Y92000D01*
Y91625*
X293091Y91063*
X293091D02*
X293364Y90688D01*
X293364D02*
X293636Y90500D01*
X294045*
X294318Y90688*
X294318D02*
X294591Y91063D01*
X295818Y94438D02*
Y90500D01*
Y92563D02*
X296091Y92938D01*
X296091D02*
X296364Y93125D01*
X296773*
X297045Y92938*
X297045D02*
X297318Y92563D01*
X297318D02*
X297455Y92000D01*
Y91625*
X297318Y91063*
X297318D02*
X297045Y90688D01*
X297045D02*
X296773Y90500D01*
X296364*
X296091Y90688*
X296091D02*
X295818Y91063D01*
X216000Y93688D02*
X216273Y93875D01*
X216682Y94438*
X216682D02*
Y90500D01*
X217909Y93688D02*
X218182Y93875D01*
X218591Y94438*
X218591D02*
Y90500D01*
X222273Y95188D02*
X219818Y89187D01*
X223500Y93688D02*
X223773Y93875D01*
X224182Y94438*
X224182D02*
Y90500D01*
X227864Y95188D02*
X225409Y89187D01*
X229227Y93500D02*
Y93688D01*
X229227D02*
X229364Y94063D01*
X229364D02*
X229500Y94250D01*
X229773Y94438*
X229773D02*
X230318D01*
X230318D02*
X230591Y94250D01*
X230727Y94063*
X230727D02*
X230864Y93688D01*
X230864D02*
Y93313D01*
X230864D02*
X230727Y92938D01*
X230727D02*
X230455Y92375D01*
X229091Y90500*
X231000*
X233045Y94438D02*
X232636Y94250D01*
X232364Y93688*
X232364D02*
X232227Y92750D01*
Y92188*
X232227D02*
X232364Y91250D01*
X232636Y90688*
X232636D02*
X233045Y90500D01*
X233318*
X233727Y90688*
X233727D02*
X234000Y91250D01*
X234136Y92188*
X234136D02*
Y92750D01*
X234000Y93688*
X234000D02*
X233727Y94250D01*
X233318Y94438*
X233318D02*
X233045D01*
X235364Y93688D02*
X235636Y93875D01*
X236045Y94438*
X236045D02*
Y90500D01*
X237273Y93688D02*
X237545Y93875D01*
X237955Y94438*
X237955D02*
Y90500D01*
X376000Y94438D02*
Y90500D01*
Y94438D02*
X376955D01*
X376955D02*
X377364Y94250D01*
X377636Y93875*
X377773Y93500*
X377909Y92938*
X377909D02*
Y92000D01*
X377773Y91438*
X377773D02*
X377636Y91063D01*
X377636D02*
X377364Y90688D01*
X377364D02*
X376955Y90500D01*
X376000*
X379273Y90875D02*
X379136Y90688D01*
X379136D02*
X379273Y90500D01*
X379409Y90688*
X379409D02*
X379273Y90875D01*
X385682Y93875D02*
X385409Y94250D01*
X385000Y94438*
X385000D02*
X384455D01*
X384455D02*
X384045Y94250D01*
X383773Y93875*
Y93500*
X383909Y93125*
X384045Y92938*
X384045D02*
X384318Y92750D01*
X385136Y92375*
X385409Y92188*
X385409D02*
X385545Y92000D01*
X385682Y91625*
Y91063*
X385682D02*
X385409Y90688D01*
X385409D02*
X385000Y90500D01*
X384455*
X384045Y90688*
X384045D02*
X383773Y91063D01*
X388545Y92563D02*
X388273Y92938D01*
X388273D02*
X388000Y93125D01*
X387591*
X387318Y92938*
X387318D02*
X387045Y92563D01*
X387045D02*
X386909Y92000D01*
Y91625*
X387045Y91063*
X387045D02*
X387318Y90688D01*
X387318D02*
X387591Y90500D01*
X388000*
X388273Y90688*
X388273D02*
X388545Y91063D01*
X389773Y94438D02*
Y90500D01*
Y92375D02*
X390182Y92938D01*
X390182D02*
X390455Y93125D01*
X390864*
X391136Y92938*
X391136D02*
X391273Y92375D01*
Y90500*
X392500Y93125D02*
Y90500D01*
Y92375D02*
X392909Y92938D01*
X392909D02*
X393182Y93125D01*
X393591*
X393864Y92938*
X393864D02*
X394000Y92375D01*
Y90500*
X395227Y92000D02*
X396864D01*
Y92375*
X396727Y92750*
X396591Y92938*
X396591D02*
X396318Y93125D01*
X395909*
X395636Y92938*
X395636D02*
X395364Y92563D01*
X395364D02*
X395227Y92000D01*
Y91625*
X395364Y91063*
X395364D02*
X395636Y90688D01*
X395636D02*
X395909Y90500D01*
X396318*
X396591Y90688*
X396591D02*
X396864Y91063D01*
X398091Y94438D02*
X398227Y94250D01*
X398364Y94438*
X398364D02*
X398227Y94625D01*
X398091Y94438*
X398227Y93125D02*
Y90500D01*
X401227Y94438D02*
Y90500D01*
Y92563D02*
X400955Y92938D01*
X400955D02*
X400682Y93125D01*
X400273*
X400000Y92938*
X400000D02*
X399727Y92563D01*
X399727D02*
X399591Y92000D01*
Y91625*
X399727Y91063*
X399727D02*
X400000Y90688D01*
X400000D02*
X400273Y90500D01*
X400682*
X400955Y90688*
X400955D02*
X401227Y91063D01*
X402455Y92000D02*
X404091D01*
Y92375*
X403955Y92750*
X403818Y92938*
X403818D02*
X403545Y93125D01*
X403136*
X402864Y92938*
X402864D02*
X402591Y92563D01*
X402591D02*
X402455Y92000D01*
Y91625*
X402591Y91063*
X402591D02*
X402864Y90688D01*
X402864D02*
X403136Y90500D01*
X403545*
X403818Y90688*
X403818D02*
X404091Y91063D01*
X405318Y93125D02*
Y90500D01*
Y92000D02*
X405455Y92563D01*
X405455D02*
X405727Y92938D01*
X405727D02*
X406000Y93125D01*
X406409*
X461000Y94438D02*
Y90500D01*
Y94438D02*
X461955D01*
X461955D02*
X462364Y94250D01*
X462636Y93875*
X462773Y93500*
X462909Y92938*
X462909D02*
Y92000D01*
X462773Y91438*
X462773D02*
X462636Y91063D01*
X462636D02*
X462364Y90688D01*
X462364D02*
X461955Y90500D01*
X461000*
X464273Y90875D02*
X464136Y90688D01*
X464136D02*
X464273Y90500D01*
X464409Y90688*
X464409D02*
X464273Y90875D01*
X470682Y93875D02*
X470409Y94250D01*
X470000Y94438*
X470000D02*
X469455D01*
X469455D02*
X469045Y94250D01*
X468773Y93875*
Y93500*
X468909Y93125*
X469045Y92938*
X469045D02*
X469318Y92750D01*
X470136Y92375*
X470409Y92188*
X470409D02*
X470545Y92000D01*
X470682Y91625*
Y91063*
X470682D02*
X470409Y90688D01*
X470409D02*
X470000Y90500D01*
X469455*
X469045Y90688*
X469045D02*
X468773Y91063D01*
X473545Y92563D02*
X473273Y92938D01*
X473273D02*
X473000Y93125D01*
X472591*
X472318Y92938*
X472318D02*
X472045Y92563D01*
X472045D02*
X471909Y92000D01*
Y91625*
X472045Y91063*
X472045D02*
X472318Y90688D01*
X472318D02*
X472591Y90500D01*
X473000*
X473273Y90688*
X473273D02*
X473545Y91063D01*
X474773Y94438D02*
Y90500D01*
Y92375D02*
X475182Y92938D01*
X475182D02*
X475455Y93125D01*
X475864*
X476136Y92938*
X476136D02*
X476273Y92375D01*
Y90500*
X477500Y93125D02*
Y90500D01*
Y92375D02*
X477909Y92938D01*
X477909D02*
X478182Y93125D01*
X478591*
X478864Y92938*
X478864D02*
X479000Y92375D01*
Y90500*
X480227Y92000D02*
X481864D01*
Y92375*
X481727Y92750*
X481591Y92938*
X481591D02*
X481318Y93125D01*
X480909*
X480636Y92938*
X480636D02*
X480364Y92563D01*
X480364D02*
X480227Y92000D01*
Y91625*
X480364Y91063*
X480364D02*
X480636Y90688D01*
X480636D02*
X480909Y90500D01*
X481318*
X481591Y90688*
X481591D02*
X481864Y91063D01*
X483091Y94438D02*
X483227Y94250D01*
X483364Y94438*
X483364D02*
X483227Y94625D01*
X483091Y94438*
X483227Y93125D02*
Y90500D01*
X486227Y94438D02*
Y90500D01*
Y92563D02*
X485955Y92938D01*
X485955D02*
X485682Y93125D01*
X485273*
X485000Y92938*
X485000D02*
X484727Y92563D01*
X484727D02*
X484591Y92000D01*
Y91625*
X484727Y91063*
X484727D02*
X485000Y90688D01*
X485000D02*
X485273Y90500D01*
X485682*
X485955Y90688*
X485955D02*
X486227Y91063D01*
X487455Y92000D02*
X489091D01*
Y92375*
X488955Y92750*
X488818Y92938*
X488818D02*
X488545Y93125D01*
X488136*
X487864Y92938*
X487864D02*
X487591Y92563D01*
X487591D02*
X487455Y92000D01*
Y91625*
X487591Y91063*
X487591D02*
X487864Y90688D01*
X487864D02*
X488136Y90500D01*
X488545*
X488818Y90688*
X488818D02*
X489091Y91063D01*
X490318Y93125D02*
Y90500D01*
Y92000D02*
X490455Y92563D01*
X490455D02*
X490727Y92938D01*
X490727D02*
X491000Y93125D01*
X491409*
X541136Y93500D02*
Y93688D01*
X541136D02*
X541273Y94063D01*
X541273D02*
X541409Y94250D01*
X541682Y94438*
X541682D02*
X542227D01*
X542227D02*
X542500Y94250D01*
X542636Y94063*
X542636D02*
X542773Y93688D01*
X542773D02*
Y93313D01*
X542773D02*
X542636Y92938D01*
X542636D02*
X542364Y92375D01*
X541000Y90500*
X542909*
X546591Y95188D02*
X544136Y89187D01*
X547818Y93688D02*
X548091Y93875D01*
X548500Y94438*
X548500D02*
Y90500D01*
X550409Y94438D02*
X550000Y94250D01*
X549864Y93875*
Y93500*
X550000Y93125*
X550273Y92938*
X550273D02*
X550818Y92750D01*
X551227Y92563*
X551227D02*
X551500Y92188D01*
X551500D02*
X551636Y91813D01*
X551636D02*
Y91250D01*
X551500Y90875*
X551364Y90688*
X551364D02*
X550955Y90500D01*
X550409*
X550000Y90688*
X550000D02*
X549864Y90875D01*
X549727Y91250*
Y91813*
X549727D02*
X549864Y92188D01*
X549864D02*
X550136Y92563D01*
X550136D02*
X550545Y92750D01*
X551091Y92938*
X551091D02*
X551364Y93125D01*
X551500Y93500*
Y93875*
X551364Y94250*
X550955Y94438*
X550955D02*
X550409D01*
X555318Y95188D02*
X552864Y89187D01*
X556682Y93500D02*
Y93688D01*
X556682D02*
X556818Y94063D01*
X556818D02*
X556955Y94250D01*
X557227Y94438*
X557227D02*
X557773D01*
X557773D02*
X558045Y94250D01*
X558182Y94063*
X558182D02*
X558318Y93688D01*
X558318D02*
Y93313D01*
X558318D02*
X558182Y92938D01*
X558182D02*
X557909Y92375D01*
X556545Y90500*
X558455*
X560500Y94438D02*
X560091Y94250D01*
X559818Y93688*
X559818D02*
X559682Y92750D01*
Y92188*
X559682D02*
X559818Y91250D01*
X560091Y90688*
X560091D02*
X560500Y90500D01*
X560773*
X561182Y90688*
X561182D02*
X561455Y91250D01*
X561591Y92188*
X561591D02*
Y92750D01*
X561455Y93688*
X561455D02*
X561182Y94250D01*
X560773Y94438*
X560773D02*
X560500D01*
X562818Y93688D02*
X563091Y93875D01*
X563500Y94438*
X563500D02*
Y90500D01*
X565000Y94438D02*
X566500D01*
X566500D02*
X565682Y92938D01*
X565682D02*
X566091D01*
X566091D02*
X566364Y92750D01*
X566500Y92563*
X566500D02*
X566636Y92000D01*
Y91625*
X566500Y91063*
X566500D02*
X566227Y90688D01*
X566227D02*
X565818Y90500D01*
X565409*
X565000Y90688*
X565000D02*
X564864Y90875D01*
X564727Y91250*
X692000Y94438D02*
Y90500D01*
Y94438D02*
X693227D01*
X693227D02*
X693636Y94250D01*
X693773Y94063*
X693773D02*
X693909Y93688D01*
X693909D02*
Y93125D01*
X693773Y92750*
X693636Y92563*
X693636D02*
X693227Y92375D01*
X692000*
X696227Y94438D02*
X695136Y90500D01*
X696227Y94438D02*
X697318Y90500D01*
X695545Y91813D02*
X696909D01*
X698545Y94438D02*
Y90500D01*
Y94438D02*
X699500D01*
X699500D02*
X699909Y94250D01*
X700182Y93875*
X700318Y93500*
X700455Y92938*
X700455D02*
Y92000D01*
X700318Y91438*
X700318D02*
X700182Y91063D01*
X700182D02*
X699909Y90688D01*
X699909D02*
X699500Y90500D01*
X698545*
X703182Y92563D02*
X703045Y92938D01*
X703045D02*
X702636Y93125D01*
X702227*
X701818Y92938*
X701818D02*
X701682Y92563D01*
X701682D02*
X701818Y92188D01*
X701818D02*
X702091Y92000D01*
X702773Y91813*
X702773D02*
X703045Y91625D01*
X703182Y91250*
Y91063*
X703182D02*
X703045Y90688D01*
X703045D02*
X702636Y90500D01*
X702227*
X701818Y90688*
X701818D02*
X701682Y91063D01*
X707545Y93125D02*
X708364Y90500D01*
X709182Y93125D02*
X708364Y90500D01*
X712182Y93125D02*
X712045Y92563D01*
X712045D02*
X711773Y92188D01*
X711773D02*
X711364Y92000D01*
X711227*
X710818Y92188*
X710818D02*
X710545Y92563D01*
X710545D02*
X710409Y93125D01*
Y93313*
X710409D02*
X710545Y93875D01*
X710818Y94250*
X711227Y94438*
X711227D02*
X711364D01*
X711364D02*
X711773Y94250D01*
X712045Y93875*
X712182Y93125*
Y92188*
X712182D02*
X712045Y91250D01*
X711773Y90688*
X711773D02*
X711364Y90500D01*
X711091*
X710682Y90688*
X710682D02*
X710545Y91063D01*
X713545Y90875D02*
X713409Y90688D01*
X713409D02*
X713545Y90500D01*
X713682Y90688*
X713682D02*
X713545Y90875D01*
X715182Y94438D02*
X716682D01*
X716682D02*
X715864Y92938D01*
X715864D02*
X716273D01*
X716273D02*
X716545Y92750D01*
X716682Y92563*
X716682D02*
X716818Y92000D01*
Y91625*
X716682Y91063*
X716682D02*
X716409Y90688D01*
X716409D02*
X716000Y90500D01*
X715591*
X715182Y90688*
X715182D02*
X715045Y90875D01*
X714909Y91250*
X0Y0D02*
M02*
