*
*
G04 PADS 9.3 Build Number: 433611 generated Gerber (RS-274-X) file*
G04 PC Version=2.1*
*
%IN "430BOOST-SHARP96.pcb"*%
*
%MOIN*%
*
%FSLAX35Y35*%
*
*
*
*
G04 PC Standard Apertures*
*
*
G04 Thermal Relief Aperture macro.*
%AMTER*
1,1,$1,0,0*
1,0,$1-$2,0,0*
21,0,$3,$4,0,0,45*
21,0,$3,$4,0,0,135*
%
*
*
G04 Annular Aperture macro.*
%AMANN*
1,1,$1,0,0*
1,0,$2,0,0*
%
*
*
G04 Odd Aperture macro.*
%AMODD*
1,1,$1,0,0*
1,0,$1-0.005,0,0*
%
*
*
G04 PC Custom Aperture Macros*
*
*
*
*
*
*
G04 PC Aperture Table*
*
%ADD011C,0.012*%
%ADD013C,0.01*%
%ADD014C,0.02*%
%ADD015C,0.015*%
%ADD016C,0.005*%
%ADD018C,0.001*%
%ADD021C,0.008*%
%ADD024R,0.04X0.04*%
%ADD025C,0.014*%
%ADD026C,0.022*%
%ADD041R,0.006X0.006*%
%ADD042R,0.06X0.06*%
%ADD043C,0.06*%
*
*
*
*
G04 PC Circuitry*
G04 Layer Name 430BOOST-SHARP96.pcb - circuitry*
%LPD*%
*
*
G04 PC Custom Flashes*
G04 Layer Name 430BOOST-SHARP96.pcb - flashes*
%LPD*%
*
*
G04 PC Circuitry*
G04 Layer Name 430BOOST-SHARP96.pcb - circuitry*
%LPD*%
*
G54D11*
G01X412639Y116320D02*
Y108117D01*
X416048*
X418605Y114758D02*
X419173Y115148D01*
X420025Y116320*
Y108117*
X407400Y202720D02*
Y332280D01*
G75*
G03X407280Y332400I-120J-0D01*
G01X202720*
G03X202600Y332280I0J-120*
G01Y202720*
G03X202720Y202600I120J0*
G01X407280*
G03X407400Y202720I-0J120*
G01X370200Y212060D02*
Y229402D01*
G03X370135Y229508I-120J-0*
G01X370004Y229582D02*
G03X370135Y229508I996J1618D01*
G01X370004Y229582D02*
G03X369941Y229600I-63J-102D01*
G01X363300*
X361815Y230215D02*
G03X363300Y229600I1485J1485D01*
G01X361815Y230215D02*
X361299Y230731D01*
G03X361182Y230762I-85J-85*
G01X356807Y231973D02*
G03X361182Y230762I3193J3027D01*
G01X356807Y231973D02*
G03X356600Y231890I-87J-83D01*
G01Y231420*
G03X356635Y231335I120J-0*
G01X358701Y229269*
G03X358818Y229238I85J85*
G01X362161Y221167D02*
G03X358818Y229238I-2161J3833D01*
G01X362161Y221167D02*
G03X362100Y221063I59J-104D01*
G01Y219920*
G03X362135Y219835I120J-0*
G01X369995Y211975*
G03X370200Y212060I85J85*
G01Y233998D02*
Y265840D01*
G03X369995Y265925I-120J0*
G01X368235Y264165*
G03X368200Y264080I85J-85*
G01Y250500*
X367585Y249015D02*
G03X368200Y250500I-1485J1485D01*
G01X367585Y249015D02*
X364377Y245807D01*
G03X364343Y245703I85J-85*
G01X356807Y241973D02*
G03X364343Y245703I3193J3027D01*
G01X356807Y241973D02*
G03X356600Y241890I-87J-83D01*
G01Y238110*
G03X356807Y238027I120J0*
G01X364273Y233949D02*
G03X356807Y238027I-4273J1051D01*
G01X364273Y233949D02*
G03X364389Y233800I116J-29D01*
G01X369941*
G03X370004Y233818I-0J120*
G01X370135Y233892D02*
G03X370004Y233818I865J-1692D01*
G01X370135Y233892D02*
G03X370200Y233998I-55J106D01*
G01X364000Y251420D02*
Y252681D01*
G03X363777Y252743I-120J0*
G01X356807Y251973D02*
G03X363777Y252743I3193J3027D01*
G01X356807Y251973D02*
G03X356600Y251890I-87J-83D01*
G01Y248110*
G03X356807Y248027I120J0*
G01X361619Y249091D02*
G03X356807Y248027I-1619J-4091D01*
G01X361619Y249091D02*
G03X361748Y249118I44J112D01*
G01X363965Y251335*
G03X364000Y251420I-85J85*
G01Y257319D02*
Y262681D01*
G03X363777Y262743I-120J0*
G01X356807Y261973D02*
G03X363777Y262743I3193J3027D01*
G01X356807Y261973D02*
G03X356600Y261890I-87J-83D01*
G01Y258110*
G03X356807Y258027I120J0*
G01X363777Y257257D02*
G03X356807Y258027I-3777J-2257D01*
G01X363777Y257257D02*
G03X364000Y257319I103J62D01*
G01X370200Y271998D02*
Y304340D01*
G03X369995Y304425I-120J0*
G01X368135Y302565*
G03X368100Y302480I85J-85*
G01Y273000*
X367485Y271515D02*
G03X368100Y273000I-1485J1485D01*
G01X367485Y271515D02*
X364485Y268515D01*
X363488Y267957D02*
G03X364485Y268515I-488J2043D01*
G01X363488Y267957D02*
G03X363422Y267765I28J-116D01*
G01X364206Y266292D02*
G03X363422Y267765I-4206J-1292D01*
G01X364206Y266292D02*
G03X364417Y266256I115J36D01*
G01X364615Y266485D02*
G03X364417Y266256I1485J-1485D01*
G01X364615Y266485D02*
X369315Y271185D01*
X369456Y271314D02*
G03X369315Y271185I1344J-1614D01*
G01X369456Y271314D02*
G03X369476Y271335I-76J92D01*
G01X370135Y271892D02*
G03X369476Y271335I865J-1692D01*
G01X370135Y271892D02*
G03X370200Y271998I-55J106D01*
G01X253400Y231420D02*
Y231890D01*
G03X253193Y231973I-120J-0*
G01X248312Y230937D02*
G03X253193Y231973I1688J4063D01*
G01X248312Y230937D02*
G03X248181Y230911I-46J-111D01*
G01X247485Y230215*
X246000Y229600D02*
G03X247485Y230215I0J2100D01*
G01X246000Y229600D02*
X239959D01*
G03X239896Y229582I0J-120*
G01X239765Y229508D02*
G03X239896Y229582I-865J1692D01*
G01X239765Y229508D02*
G03X239700Y229402I55J-106D01*
G01Y212060*
G03X239905Y211975I120J-0*
G01X247865Y219935*
G03X247900Y220020I-85J85*
G01Y221063*
G03X247839Y221167I-120J-0*
G01X251182Y229238D02*
G03X247839Y221167I-1182J-4238D01*
G01X251182Y229238D02*
G03X251299Y229269I32J116D01*
G01X253365Y231335*
G03X253400Y231420I-85J85*
G01Y238110D02*
Y241890D01*
G03X253193Y241973I-120J-0*
G01X245790Y243720D02*
G03X253193Y241973I4210J1280D01*
G01X245790Y243720D02*
G03X245760Y243770I-114J-35D01*
G01X242515Y247015*
X241900Y248500D02*
G03X242515Y247015I2100J0D01*
G01X241900Y248500D02*
Y263880D01*
G03X241865Y263965I-120J0*
G01X239905Y265925*
G03X239700Y265840I-85J-85*
G01Y233998*
G03X239765Y233892I120J0*
G01X239896Y233818D02*
G03X239765Y233892I-996J-1618D01*
G01X239896Y233818D02*
G03X239959Y233800I63J102D01*
G01X245080*
G03X245165Y233835I0J120*
G01X245610Y234280*
G03X245644Y234381I-85J84*
G01X253193Y238027D02*
G03X245644Y234381I-3193J-3027D01*
G01X253193Y238027D02*
G03X253400Y238110I87J83D01*
G01X246659Y267864D02*
G03X246613Y268053I-91J78D01*
G01X245915Y268515D02*
G03X246613Y268053I1485J1485D01*
G01X245915Y268515D02*
X242415Y272015D01*
X241800Y273500D02*
G03X242415Y272015I2100J0D01*
G01X241800Y273500D02*
Y302480D01*
G03X241765Y302565I-120J0*
G01X239905Y304425*
G03X239700Y304340I-85J-85*
G01Y271998*
G03X239765Y271892I120J0*
G01X240424Y271335D02*
G03X239765Y271892I-1524J-1135D01*
G01X240424Y271335D02*
G03X240444Y271314I96J71D01*
G01X240585Y271185D02*
G03X240444Y271314I-1485J-1485D01*
G01X240585Y271185D02*
X245485Y266285D01*
X245573Y266192D02*
G03X245485Y266285I-1573J-1392D01*
G01X245573Y266192D02*
G03X245778Y266238I89J79D01*
G01X246659Y267864D02*
G03X245778Y266238I3341J-2864D01*
G01X392400Y329200D02*
Y205700D01*
X391800Y205100D02*
G03X392400Y205700I0J600D01*
G01X391800Y205100D02*
X370800D01*
X370200Y205700D02*
G03X370800Y205100I600J0D01*
G01X370200Y205700D02*
Y205902D01*
G03X370135Y206008I-120J-0*
G01X369518Y206512D02*
G03X370135Y206008I1482J1188D01*
G01X369518Y206512D02*
G03X369509Y206521I-94J-75D01*
G01X369315Y206715*
X358515Y217515*
X357900Y219000D02*
G03X358515Y217515I2100J0D01*
G01X357900Y219000D02*
Y221063D01*
G03X357839Y221167I-120J-0*
G01X355762Y226182D02*
G03X357839Y221167I4238J-1182D01*
G01X355762Y226182D02*
G03X355731Y226299I-116J32D01*
G01X353015Y229015*
X352400Y230500D02*
G03X353015Y229015I2100J0D01*
G01X352400Y230500D02*
Y267500D01*
X353015Y268985D02*
G03X352400Y267500I1485J-1485D01*
G01X353015Y268985D02*
X355515Y271485D01*
X356512Y272043D02*
G03X355515Y271485I488J-2043D01*
G01X356512Y272043D02*
G03X356578Y272235I-28J116D01*
G01X363680Y277413D02*
G03X356578Y272235I-3680J-2413D01*
G01X363680Y277413D02*
G03X363900Y277478I100J65D01*
G01Y282522*
G03X363680Y282587I-120J-0*
G01Y287413D02*
G03Y282587I-3680J-2413D01*
G01Y287413D02*
G03X363900Y287478I100J65D01*
G01Y292522*
G03X363680Y292587I-120J-0*
G01Y297413D02*
G03Y292587I-3680J-2413D01*
G01Y297413D02*
G03X363900Y297478I100J65D01*
G01Y302522*
G03X363680Y302587I-120J-0*
G01X364400Y305058D02*
G03X363680Y302587I-4400J-58D01*
G01X364400Y305058D02*
G03X364604Y304974I120J1D01*
G01X369315Y309685*
X369456Y309814D02*
G03X369315Y309685I1344J-1614D01*
G01X369456Y309814D02*
G03X369476Y309835I-76J92D01*
G01X370135Y310392D02*
G03X369476Y309835I865J-1692D01*
G01X370135Y310392D02*
G03X370200Y310498I-55J106D01*
G01Y329200*
X370800Y329800D02*
G03X370200Y329200I0J-600D01*
G01X370800Y329800D02*
X391800D01*
X392400Y329200D02*
G03X391800Y329800I-600J0D01*
G01X343400Y247000D02*
Y243000D01*
X342000Y241600D02*
G03X343400Y243000I0J1400D01*
G01X342000Y241600D02*
X338000D01*
X336600Y243000D02*
G03X338000Y241600I1400J0D01*
G01X336600Y243000D02*
Y247000D01*
X338000Y248400D02*
G03X336600Y247000I0J-1400D01*
G01X338000Y248400D02*
X342000D01*
X343400Y247000D02*
G03X342000Y248400I-1400J0D01*
G01X343400Y287000D02*
Y283000D01*
X342000Y281600D02*
G03X343400Y283000I0J1400D01*
G01X342000Y281600D02*
X338000D01*
X336600Y283000D02*
G03X338000Y281600I1400J0D01*
G01X336600Y283000D02*
Y287000D01*
X338000Y288400D02*
G03X336600Y287000I0J-1400D01*
G01X338000Y288400D02*
X342000D01*
X343400Y287000D02*
G03X342000Y288400I-1400J0D01*
G01X323900Y307000D02*
Y303000D01*
X322500Y301600D02*
G03X323900Y303000I0J1400D01*
G01X322500Y301600D02*
X318500D01*
X317100Y303000D02*
G03X318500Y301600I1400J0D01*
G01X317100Y303000D02*
Y307000D01*
X318500Y308400D02*
G03X317100Y307000I0J-1400D01*
G01X318500Y308400D02*
X322500D01*
X323900Y307000D02*
G03X322500Y308400I-1400J0D01*
G01X283400Y227000D02*
Y223000D01*
X282000Y221600D02*
G03X283400Y223000I0J1400D01*
G01X282000Y221600D02*
X278000D01*
X276600Y223000D02*
G03X278000Y221600I1400J0D01*
G01X276600Y223000D02*
Y227000D01*
X278000Y228400D02*
G03X276600Y227000I0J-1400D01*
G01X278000Y228400D02*
X282000D01*
X283400Y227000D02*
G03X282000Y228400I-1400J0D01*
G01X300672Y225882D02*
G03Y230118I1328J2118D01*
G01Y225882D02*
G03X300609Y225900I-63J-102D01*
G01X298286*
G03X298181Y225721I0J-120*
G01X297252Y222336D02*
G03X298181Y225721I-1252J2164D01*
G01X297252Y222336D02*
G03X297206Y222176I60J-104D01*
G01X292932Y219595D02*
G03X297206Y222176I2068J1405D01*
G01X292932Y219595D02*
G03X292918Y219612I-99J-68D01*
G01X282499Y230031*
G03X282441Y230063I-85J-85*
G01X284534Y234474D02*
G03X282441Y230063I-1534J-1974D01*
G01X284534Y234474D02*
G03X284717Y234520I74J95D01*
G01X289437Y234059D02*
G03X284717Y234520I-2437J-559D01*
G01X289437Y234059D02*
G03X289469Y234001I117J27D01*
G01X289883Y233587*
G03X290084Y233641I85J85*
G01X294937Y233559D02*
G03X290084Y233641I-2437J-559D01*
G01X294937Y233559D02*
G03X294969Y233501I117J27D01*
G01X298335Y230135*
G03X298420Y230100I85J85*
G01X300609*
G03X300672Y230118I-0J120*
G01X283400Y247000D02*
Y243000D01*
X282000Y241600D02*
G03X283400Y243000I0J1400D01*
G01X282000Y241600D02*
X278000D01*
X276600Y243000D02*
G03X278000Y241600I1400J0D01*
G01X276600Y243000D02*
Y247000D01*
X278000Y248400D02*
G03X276600Y247000I0J-1400D01*
G01X278000Y248400D02*
X282000D01*
X283400Y247000D02*
G03X282000Y248400I-1400J0D01*
G01X288400Y262000D02*
Y258000D01*
X287000Y256600D02*
G03X288400Y258000I0J1400D01*
G01X287000Y256600D02*
X283000D01*
X281600Y258000D02*
G03X283000Y256600I1400J0D01*
G01X281600Y258000D02*
Y262000D01*
X283000Y263400D02*
G03X281600Y262000I0J-1400D01*
G01X283000Y263400D02*
X287000D01*
X288400Y262000D02*
G03X287000Y263400I-1400J0D01*
G01X290118Y271672D02*
G03X285882I-2118J1328D01*
G01X290118D02*
G03X290100Y271609I102J-63D01*
G01Y267891*
G03X290118Y267828I120J0*
G01X285882D02*
G03X290118I2118J-1328D01*
G01X285882D02*
G03X285900Y267891I-102J63D01*
G01Y271609*
G03X285882Y271672I-120J-0*
G01X283400Y277000D02*
Y273000D01*
X282000Y271600D02*
G03X283400Y273000I0J1400D01*
G01X282000Y271600D02*
X278000D01*
X276600Y273000D02*
G03X278000Y271600I1400J0D01*
G01X276600Y273000D02*
Y277000D01*
X278000Y278400D02*
G03X276600Y277000I0J-1400D01*
G01X278000Y278400D02*
X282000D01*
X283400Y277000D02*
G03X282000Y278400I-1400J0D01*
G01X279400Y312000D02*
Y308000D01*
X278000Y306600D02*
G03X279400Y308000I0J1400D01*
G01X278000Y306600D02*
X274000D01*
X272600Y308000D02*
G03X274000Y306600I1400J0D01*
G01X272600Y308000D02*
Y312000D01*
X274000Y313400D02*
G03X272600Y312000I0J-1400D01*
G01X274000Y313400D02*
X278000D01*
X279400Y312000D02*
G03X278000Y313400I-1400J0D01*
G01X257600Y266500D02*
Y230500D01*
X256985Y229015D02*
G03X257600Y230500I-1485J1485D01*
G01X256985Y229015D02*
X254269Y226299D01*
G03X254238Y226182I85J-85*
G01X252161Y221167D02*
G03X254238Y226182I-2161J3833D01*
G01X252161Y221167D02*
G03X252100Y221063I59J-104D01*
G01Y219100*
X251485Y217615D02*
G03X252100Y219100I-1485J1485D01*
G01X251485Y217615D02*
X240585Y206715D01*
X240444Y206586D02*
G03X240585Y206715I-1344J1614D01*
G01X240444Y206586D02*
G03X240424Y206565I76J-92D01*
G01X239765Y206008D02*
G03X240424Y206565I-865J1692D01*
G01X239765Y206008D02*
G03X239700Y205902I55J-106D01*
G01Y205700*
X239100Y205100D02*
G03X239700Y205700I0J600D01*
G01X239100Y205100D02*
X218100D01*
X217500Y205700D02*
G03X218100Y205100I600J0D01*
G01X217500Y205700D02*
Y329200D01*
X218100Y329800D02*
G03X217500Y329200I0J-600D01*
G01X218100Y329800D02*
X239100D01*
X239700Y329200D02*
G03X239100Y329800I-600J0D01*
G01X239700Y329200D02*
Y310498D01*
G03X239765Y310392I120J0*
G01X240424Y309835D02*
G03X239765Y310392I-1524J-1135D01*
G01X240424Y309835D02*
G03X240444Y309814I96J71D01*
G01X240585Y309685D02*
G03X240444Y309814I-1485J-1485D01*
G01X240585Y309685D02*
X245385Y304885D01*
X245395Y304875D02*
G03X245385Y304885I-1495J-1475D01*
G01X245395Y304875D02*
G03X245600Y304959I85J84D01*
G01Y304960*
X246223Y302743D02*
G03X245600Y304960I3777J2257D01*
G01X246223Y302743D02*
G03X246000Y302681I-103J-62D01*
G01Y297319*
G03X246223Y297257I120J-0*
G01Y292743D02*
G03Y297257I3777J2257D01*
G01Y292743D02*
G03X246000Y292681I-103J-62D01*
G01Y287319*
G03X246223Y287257I120J-0*
G01Y282743D02*
G03Y287257I3777J2257D01*
G01Y282743D02*
G03X246000Y282681I-103J-62D01*
G01Y277319*
G03X246223Y277257I120J-0*
G01X253150Y271928D02*
G03X246223Y277257I-3150J3072D01*
G01X253150Y271928D02*
G03X253169Y271744I86J-84D01*
G01X253485Y271485D02*
G03X253169Y271744I-1485J-1485D01*
G01X253485Y271485D02*
X256985Y267985D01*
X257600Y266500D02*
G03X256985Y267985I-2100J0D01*
G01X254400Y318000D02*
Y312000D01*
X253000Y310600D02*
G03X254400Y312000I0J1400D01*
G01X253000Y310600D02*
X247000D01*
X245600Y312000D02*
G03X247000Y310600I1400J0D01*
G01X245600Y312000D02*
Y318000D01*
X247000Y319400D02*
G03X245600Y318000I0J-1400D01*
G01X247000Y319400D02*
X253000D01*
X254400Y318000D02*
G03X253000Y319400I-1400J0D01*
G01X243711Y268059D02*
X246599D01*
X244791Y266979D02*
X246070D01*
X242631Y269139D02*
X245291D01*
X241551Y270219D02*
X244211D01*
X240462Y271299D02*
X243131D01*
X239700Y272379D02*
X242124D01*
X239700Y273459D02*
X241800D01*
X239700Y301539D02*
X241800D01*
X239700Y300459D02*
X241800D01*
X239700Y299379D02*
X241800D01*
X239700Y298299D02*
X241800D01*
X239700Y297219D02*
X241800D01*
X239700Y296139D02*
X241800D01*
X239700Y295059D02*
X241800D01*
X239700Y293979D02*
X241800D01*
X239700Y292899D02*
X241800D01*
X239700Y291819D02*
X241800D01*
X239700Y290739D02*
X241800D01*
X239700Y289659D02*
X241800D01*
X239700Y288579D02*
X241800D01*
X239700Y287499D02*
X241800D01*
X239700Y286419D02*
X241800D01*
X239700Y285339D02*
X241800D01*
X239700Y284259D02*
X241800D01*
X239700Y283179D02*
X241800D01*
X239700Y282099D02*
X241800D01*
X239700Y281019D02*
X241800D01*
X239700Y279939D02*
X241800D01*
X239700Y278859D02*
X241800D01*
X239700Y277779D02*
X241800D01*
X239700Y276699D02*
X241800D01*
X239700Y275619D02*
X241800D01*
X239700Y274539D02*
X241800D01*
X239700Y302619D02*
X241711D01*
X239700Y303699D02*
X240631D01*
X251956Y241059D02*
X253400D01*
X239700Y239979D02*
X253400D01*
X252040Y238899D02*
X253400D01*
X239700Y241059D02*
X248044D01*
X239700Y238899D02*
X247960D01*
X239700Y242139D02*
X246657D01*
X239700Y237819D02*
X246621D01*
X239700Y243219D02*
X245977D01*
X239700Y236739D02*
X245958D01*
X239700Y235659D02*
X245650D01*
X239700Y234579D02*
X245620D01*
X239700Y244299D02*
X245231D01*
X239700Y245379D02*
X244151D01*
X239700Y246459D02*
X243071D01*
X239700Y247539D02*
X242133D01*
X239700Y263739D02*
X241900D01*
X239700Y262659D02*
X241900D01*
X239700Y261579D02*
X241900D01*
X239700Y260499D02*
X241900D01*
X239700Y259419D02*
X241900D01*
X239700Y258339D02*
X241900D01*
X239700Y257259D02*
X241900D01*
X239700Y256179D02*
X241900D01*
X239700Y255099D02*
X241900D01*
X239700Y254019D02*
X241900D01*
X239700Y252939D02*
X241900D01*
X239700Y251859D02*
X241900D01*
X239700Y250779D02*
X241900D01*
X239700Y249699D02*
X241900D01*
X239700Y248619D02*
X241900D01*
X239700Y264819D02*
X241011D01*
X239715Y265899D02*
X239931D01*
X252440Y231339D02*
X253369D01*
X247529Y230259D02*
X252289D01*
X239700Y229179D02*
X248622D01*
X239700Y220539D02*
X247900D01*
X239700Y219459D02*
X247389D01*
X239700Y221619D02*
X247185D01*
X239700Y228099D02*
X246876D01*
X239700Y218379D02*
X246309D01*
X239700Y222699D02*
X246250D01*
X239700Y227019D02*
X246090D01*
X239700Y223779D02*
X245773D01*
X239700Y225939D02*
X245701D01*
X239700Y224859D02*
X245602D01*
X239700Y217299D02*
X245229D01*
X239700Y216219D02*
X244149D01*
X239700Y215139D02*
X243069D01*
X239700Y214059D02*
X241989D01*
X239700Y212979D02*
X240909D01*
X369269Y303699D02*
X370200D01*
X368189Y302619D02*
X370200D01*
X368100Y301539D02*
X370200D01*
X368100Y300459D02*
X370200D01*
X368100Y299379D02*
X370200D01*
X368100Y298299D02*
X370200D01*
X368100Y297219D02*
X370200D01*
X368100Y296139D02*
X370200D01*
X368100Y295059D02*
X370200D01*
X368100Y293979D02*
X370200D01*
X368100Y292899D02*
X370200D01*
X368100Y291819D02*
X370200D01*
X368100Y290739D02*
X370200D01*
X368100Y289659D02*
X370200D01*
X368100Y288579D02*
X370200D01*
X368100Y287499D02*
X370200D01*
X368100Y286419D02*
X370200D01*
X368100Y285339D02*
X370200D01*
X368100Y284259D02*
X370200D01*
X368100Y283179D02*
X370200D01*
X368100Y282099D02*
X370200D01*
X368100Y281019D02*
X370200D01*
X368100Y279939D02*
X370200D01*
X368100Y278859D02*
X370200D01*
X368100Y277779D02*
X370200D01*
X368100Y276699D02*
X370200D01*
X368100Y275619D02*
X370200D01*
X368100Y274539D02*
X370200D01*
X368100Y273459D02*
X370200D01*
X368006Y272379D02*
X370200D01*
X367269Y271299D02*
X369438D01*
X366189Y270219D02*
X368349D01*
X365109Y269139D02*
X367269D01*
X363801Y268059D02*
X366189D01*
X363930Y266979D02*
X365109D01*
X363725Y262659D02*
X364000D01*
X362767Y261579D02*
X364000D01*
X356600Y260499D02*
X364000D01*
X356600Y259419D02*
X364000D01*
X362866Y258339D02*
X364000D01*
X363776Y257259D02*
X363984D01*
X356600Y261579D02*
X357233D01*
X356600Y258339D02*
X357134D01*
X363081Y251859D02*
X364000D01*
X361241Y250779D02*
X363409D01*
X356600Y249699D02*
X362329D01*
X356600Y250779D02*
X358759D01*
X356600Y248619D02*
X357497D01*
X356600Y251859D02*
X356919D01*
X368889Y264819D02*
X370200D01*
X368200Y263739D02*
X370200D01*
X368200Y262659D02*
X370200D01*
X368200Y261579D02*
X370200D01*
X368200Y260499D02*
X370200D01*
X368200Y259419D02*
X370200D01*
X368200Y258339D02*
X370200D01*
X368200Y257259D02*
X370200D01*
X368200Y256179D02*
X370200D01*
X368200Y255099D02*
X370200D01*
X368200Y254019D02*
X370200D01*
X368200Y252939D02*
X370200D01*
X368200Y251859D02*
X370200D01*
X368200Y250779D02*
X370200D01*
X368041Y249699D02*
X370200D01*
X367189Y248619D02*
X370200D01*
X366109Y247539D02*
X370200D01*
X365029Y246459D02*
X370200D01*
X364384Y245379D02*
X370200D01*
X364344Y244299D02*
X370200D01*
X364023Y243219D02*
X370200D01*
X363343Y242139D02*
X370200D01*
X361956Y241059D02*
X370200D01*
X356600Y239979D02*
X370200D01*
X362040Y238899D02*
X370200D01*
X363379Y237819D02*
X370200D01*
X364042Y236739D02*
X370200D01*
X364350Y235659D02*
X370200D01*
X364380Y234579D02*
X370200D01*
X369969Y265899D02*
X370185D01*
X356600Y241059D02*
X358044D01*
X356600Y238899D02*
X357960D01*
X361378Y229179D02*
X370200D01*
X363124Y228099D02*
X370200D01*
X363910Y227019D02*
X370200D01*
X364299Y225939D02*
X370200D01*
X364398Y224859D02*
X370200D01*
X364227Y223779D02*
X370200D01*
X363750Y222699D02*
X370200D01*
X362815Y221619D02*
X370200D01*
X362100Y220539D02*
X370200D01*
X362511Y219459D02*
X370200D01*
X363591Y218379D02*
X370200D01*
X364671Y217299D02*
X370200D01*
X365751Y216219D02*
X370200D01*
X366831Y215139D02*
X370200D01*
X367911Y214059D02*
X370200D01*
X368991Y212979D02*
X370200D01*
X357711Y230259D02*
X361771D01*
X356631Y231339D02*
X357560D01*
X202600Y331779D02*
X407400D01*
X202600Y330699D02*
X407400D01*
X392230Y329619D02*
X407400D01*
X392400Y328539D02*
X407400D01*
X392400Y327459D02*
X407400D01*
X392400Y326379D02*
X407400D01*
X392400Y325299D02*
X407400D01*
X392400Y324219D02*
X407400D01*
X392400Y323139D02*
X407400D01*
X392400Y322059D02*
X407400D01*
X392400Y320979D02*
X407400D01*
X392400Y319899D02*
X407400D01*
X392400Y318819D02*
X407400D01*
X392400Y317739D02*
X407400D01*
X392400Y316659D02*
X407400D01*
X392400Y315579D02*
X407400D01*
X392400Y314499D02*
X407400D01*
X392400Y313419D02*
X407400D01*
X392400Y312339D02*
X407400D01*
X392400Y311259D02*
X407400D01*
X392400Y310179D02*
X407400D01*
X392400Y309099D02*
X407400D01*
X392400Y308019D02*
X407400D01*
X392400Y306939D02*
X407400D01*
X392400Y305859D02*
X407400D01*
X392400Y304779D02*
X407400D01*
X392400Y303699D02*
X407400D01*
X392400Y302619D02*
X407400D01*
X392400Y301539D02*
X407400D01*
X392400Y300459D02*
X407400D01*
X392400Y299379D02*
X407400D01*
X392400Y298299D02*
X407400D01*
X392400Y297219D02*
X407400D01*
X392400Y296139D02*
X407400D01*
X392400Y295059D02*
X407400D01*
X392400Y293979D02*
X407400D01*
X392400Y292899D02*
X407400D01*
X392400Y291819D02*
X407400D01*
X392400Y290739D02*
X407400D01*
X392400Y289659D02*
X407400D01*
X392400Y288579D02*
X407400D01*
X392400Y287499D02*
X407400D01*
X392400Y286419D02*
X407400D01*
X392400Y285339D02*
X407400D01*
X392400Y284259D02*
X407400D01*
X392400Y283179D02*
X407400D01*
X392400Y282099D02*
X407400D01*
X392400Y281019D02*
X407400D01*
X392400Y279939D02*
X407400D01*
X392400Y278859D02*
X407400D01*
X392400Y277779D02*
X407400D01*
X392400Y276699D02*
X407400D01*
X392400Y275619D02*
X407400D01*
X392400Y274539D02*
X407400D01*
X392400Y273459D02*
X407400D01*
X392400Y272379D02*
X407400D01*
X392400Y271299D02*
X407400D01*
X392400Y270219D02*
X407400D01*
X392400Y269139D02*
X407400D01*
X392400Y268059D02*
X407400D01*
X392400Y266979D02*
X407400D01*
X392400Y265899D02*
X407400D01*
X392400Y264819D02*
X407400D01*
X392400Y263739D02*
X407400D01*
X392400Y262659D02*
X407400D01*
X392400Y261579D02*
X407400D01*
X392400Y260499D02*
X407400D01*
X392400Y259419D02*
X407400D01*
X392400Y258339D02*
X407400D01*
X392400Y257259D02*
X407400D01*
X392400Y256179D02*
X407400D01*
X392400Y255099D02*
X407400D01*
X392400Y254019D02*
X407400D01*
X392400Y252939D02*
X407400D01*
X392400Y251859D02*
X407400D01*
X392400Y250779D02*
X407400D01*
X392400Y249699D02*
X407400D01*
X392400Y248619D02*
X407400D01*
X392400Y247539D02*
X407400D01*
X392400Y246459D02*
X407400D01*
X392400Y245379D02*
X407400D01*
X392400Y244299D02*
X407400D01*
X392400Y243219D02*
X407400D01*
X392400Y242139D02*
X407400D01*
X392400Y241059D02*
X407400D01*
X392400Y239979D02*
X407400D01*
X392400Y238899D02*
X407400D01*
X392400Y237819D02*
X407400D01*
X392400Y236739D02*
X407400D01*
X392400Y235659D02*
X407400D01*
X392400Y234579D02*
X407400D01*
X392400Y233499D02*
X407400D01*
X392400Y232419D02*
X407400D01*
X392400Y231339D02*
X407400D01*
X392400Y230259D02*
X407400D01*
X392400Y229179D02*
X407400D01*
X392400Y228099D02*
X407400D01*
X392400Y227019D02*
X407400D01*
X392400Y225939D02*
X407400D01*
X392400Y224859D02*
X407400D01*
X392400Y223779D02*
X407400D01*
X392400Y222699D02*
X407400D01*
X392400Y221619D02*
X407400D01*
X392400Y220539D02*
X407400D01*
X392400Y219459D02*
X407400D01*
X392400Y218379D02*
X407400D01*
X392400Y217299D02*
X407400D01*
X392400Y216219D02*
X407400D01*
X392400Y215139D02*
X407400D01*
X392400Y214059D02*
X407400D01*
X392400Y212979D02*
X407400D01*
X392400Y211899D02*
X407400D01*
X392400Y210819D02*
X407400D01*
X392400Y209739D02*
X407400D01*
X392400Y208659D02*
X407400D01*
X392400Y207579D02*
X407400D01*
X392400Y206499D02*
X407400D01*
X392330Y205419D02*
X407400D01*
X202600Y204339D02*
X407400D01*
X202600Y203259D02*
X407400D01*
X239530Y329619D02*
X370370D01*
X239630Y205419D02*
X370270D01*
X239700Y328539D02*
X370200D01*
X239700Y327459D02*
X370200D01*
X239700Y326379D02*
X370200D01*
X239700Y325299D02*
X370200D01*
X239700Y324219D02*
X370200D01*
X239700Y323139D02*
X370200D01*
X239700Y322059D02*
X370200D01*
X239700Y320979D02*
X370200D01*
X239700Y319899D02*
X370200D01*
X254136Y318819D02*
X370200D01*
X254400Y317739D02*
X370200D01*
X254400Y316659D02*
X370200D01*
X254400Y315579D02*
X370200D01*
X254400Y314499D02*
X370200D01*
X254400Y313419D02*
X370200D01*
X279358Y312339D02*
X370200D01*
X279400Y311259D02*
X370200D01*
X279400Y310179D02*
X369807D01*
X240372Y206499D02*
X369528D01*
X361600Y309099D02*
X368729D01*
X241449Y207579D02*
X368451D01*
X363201Y308019D02*
X367649D01*
X242529Y208659D02*
X367371D01*
X363950Y306939D02*
X366569D01*
X243609Y209739D02*
X366291D01*
X364315Y305859D02*
X365489D01*
X244689Y210819D02*
X365211D01*
X245769Y211899D02*
X364131D01*
X362717Y301539D02*
X363900D01*
X246000Y300459D02*
X363900D01*
X360433Y299379D02*
X363900D01*
X362912Y298299D02*
X363900D01*
X363040Y291819D02*
X363900D01*
X361096Y290739D02*
X363900D01*
X246000Y289659D02*
X363900D01*
X362560Y288579D02*
X363900D01*
X363622Y287499D02*
X363900D01*
X363308Y282099D02*
X363900D01*
X361873Y281019D02*
X363900D01*
X246000Y279939D02*
X363900D01*
X362114Y278859D02*
X363900D01*
X363412Y277779D02*
X363900D01*
X363709Y302619D02*
X363851D01*
X246849Y212979D02*
X363051D01*
X247929Y214059D02*
X361971D01*
X249009Y215139D02*
X360891D01*
X250089Y216219D02*
X359811D01*
X250433Y299379D02*
X359567D01*
X251096Y290739D02*
X358904D01*
X251169Y217299D02*
X358731D01*
X279400Y309099D02*
X358400D01*
X251873Y281019D02*
X358127D01*
X251972Y218379D02*
X357994D01*
X297457Y220539D02*
X357900D01*
X296968Y219459D02*
X357900D01*
X252114Y278859D02*
X357886D01*
X252560Y288579D02*
X357440D01*
X252717Y301539D02*
X357283D01*
X297422Y221619D02*
X357185D01*
X252912Y298299D02*
X357088D01*
X253040Y291819D02*
X356960D01*
X323460Y308019D02*
X356799D01*
X343071Y282099D02*
X356692D01*
X283163Y277779D02*
X356588D01*
X290422Y272379D02*
X356466D01*
X343308Y287499D02*
X356378D01*
X323847Y302619D02*
X356300D01*
X297734Y222699D02*
X356250D01*
X253800Y297219D02*
X356200D01*
X253866Y292899D02*
X356134D01*
X323900Y306939D02*
X356050D01*
X343400Y283179D02*
X355995D01*
X283400Y276699D02*
X355941D01*
X290458Y273459D02*
X355879D01*
X343400Y286419D02*
X355835D01*
X323900Y303699D02*
X355797D01*
X298394Y223779D02*
X355773D01*
X254250Y296139D02*
X355750D01*
X254280Y293979D02*
X355720D01*
X303415Y225939D02*
X355701D01*
X323900Y305859D02*
X355685D01*
X343400Y284259D02*
X355663D01*
X283400Y275619D02*
X355644D01*
X289970Y274539D02*
X355624D01*
X343400Y285339D02*
X355613D01*
X323900Y304779D02*
X355606D01*
X298474Y224859D02*
X355602D01*
X254400Y295059D02*
X355600D01*
X290100Y271299D02*
X355329D01*
X304299Y227019D02*
X355011D01*
X290100Y270219D02*
X354249D01*
X304498Y228099D02*
X353931D01*
X290100Y269139D02*
X353169D01*
X304205Y229179D02*
X352868D01*
X290100Y268059D02*
X352476D01*
X303072Y230259D02*
X352414D01*
X290454Y266979D02*
X352400D01*
X290427Y265899D02*
X352400D01*
X289850Y264819D02*
X352400D01*
X257600Y263739D02*
X352400D01*
X288235Y262659D02*
X352400D01*
X288400Y261579D02*
X352400D01*
X288400Y260499D02*
X352400D01*
X288400Y259419D02*
X352400D01*
X288400Y258339D02*
X352400D01*
X288188Y257259D02*
X352400D01*
X257600Y256179D02*
X352400D01*
X257600Y255099D02*
X352400D01*
X257600Y254019D02*
X352400D01*
X257600Y252939D02*
X352400D01*
X257600Y251859D02*
X352400D01*
X257600Y250779D02*
X352400D01*
X257600Y249699D02*
X352400D01*
X257600Y248619D02*
X352400D01*
X343292Y247539D02*
X352400D01*
X343400Y246459D02*
X352400D01*
X343400Y245379D02*
X352400D01*
X343400Y244299D02*
X352400D01*
X343400Y243219D02*
X352400D01*
X343104Y242139D02*
X352400D01*
X257600Y241059D02*
X352400D01*
X257600Y239979D02*
X352400D01*
X257600Y238899D02*
X352400D01*
X257600Y237819D02*
X352400D01*
X257600Y236739D02*
X352400D01*
X288261Y235659D02*
X352400D01*
X294439Y234579D02*
X352400D01*
X294971Y233499D02*
X352400D01*
X296051Y232419D02*
X352400D01*
X297131Y231339D02*
X352400D01*
X253308Y282099D02*
X336929D01*
X283104Y242139D02*
X336896D01*
X283292Y247539D02*
X336708D01*
X253622Y287499D02*
X336692D01*
X254165Y286419D02*
X336600D01*
X254387Y285339D02*
X336600D01*
X254337Y284259D02*
X336600D01*
X254005Y283179D02*
X336600D01*
X283400Y246459D02*
X336600D01*
X283400Y245379D02*
X336600D01*
X283400Y244299D02*
X336600D01*
X283400Y243219D02*
X336600D01*
X279400Y308019D02*
X317540D01*
X253700Y302619D02*
X317153D01*
X278913Y306939D02*
X317100D01*
X254315Y305859D02*
X317100D01*
X254394Y304779D02*
X317100D01*
X254203Y303699D02*
X317100D01*
X298211Y230259D02*
X300928D01*
X252100Y219459D02*
X293032D01*
X252100Y220539D02*
X291991D01*
X282228Y221619D02*
X290911D01*
X289255Y234579D02*
X290561D01*
X283367Y222699D02*
X289831D01*
X283400Y223779D02*
X288751D01*
X283400Y224859D02*
X287671D01*
X283400Y225939D02*
X286591D01*
X257600Y264819D02*
X286150D01*
X283400Y274539D02*
X286030D01*
X253671Y271299D02*
X285900D01*
X254751Y270219D02*
X285900D01*
X255831Y269139D02*
X285900D01*
X256911Y268059D02*
X285900D01*
X257600Y235659D02*
X285739D01*
X283255Y272379D02*
X285578D01*
X257600Y265899D02*
X285573D01*
X257545Y266979D02*
X285546D01*
X283400Y273459D02*
X285542D01*
X283400Y227019D02*
X285511D01*
X284389Y234579D02*
X284745D01*
X282868Y228099D02*
X284431D01*
X257132Y229179D02*
X283351D01*
X257586Y230259D02*
X281892D01*
X257600Y257259D02*
X281812D01*
X257600Y262659D02*
X281765D01*
X257600Y234579D02*
X281611D01*
X257600Y261579D02*
X281600D01*
X257600Y260499D02*
X281600D01*
X257600Y259419D02*
X281600D01*
X257600Y258339D02*
X281600D01*
X257600Y231339D02*
X280786D01*
X257600Y233499D02*
X280708D01*
X257600Y232419D02*
X280501D01*
X252815Y221619D02*
X277772D01*
X256069Y228099D02*
X277132D01*
X257600Y242139D02*
X276896D01*
X253412Y277779D02*
X276837D01*
X253534Y272379D02*
X276745D01*
X257600Y247539D02*
X276708D01*
X253750Y222699D02*
X276633D01*
X254989Y227019D02*
X276600D01*
X254059Y276699D02*
X276600D01*
X254356Y275619D02*
X276600D01*
X254376Y274539D02*
X276600D01*
X254121Y273459D02*
X276600D01*
X257600Y246459D02*
X276600D01*
X257600Y245379D02*
X276600D01*
X257600Y244299D02*
X276600D01*
X257600Y243219D02*
X276600D01*
X254299Y225939D02*
X276600D01*
X254398Y224859D02*
X276600D01*
X254227Y223779D02*
X276600D01*
X253950Y306939D02*
X273087D01*
X254400Y312339D02*
X272642D01*
X254188Y311259D02*
X272600D01*
X240093Y310179D02*
X272600D01*
X251600Y309099D02*
X272600D01*
X253201Y308019D02*
X272600D01*
X246000Y299379D02*
X249567D01*
X246000Y290739D02*
X248904D01*
X241171Y309099D02*
X248400D01*
X246000Y281019D02*
X248127D01*
X246000Y278859D02*
X247886D01*
X246000Y288579D02*
X247440D01*
X246000Y301539D02*
X247283D01*
X246000Y298299D02*
X247088D01*
X246000Y291819D02*
X246960D01*
X242251Y308019D02*
X246799D01*
X246000Y282099D02*
X246692D01*
X246000Y277779D02*
X246588D01*
X246000Y287499D02*
X246378D01*
X246000Y302619D02*
X246300D01*
X246054Y297219D02*
X246186D01*
X243331Y306939D02*
X246050D01*
X239700Y318819D02*
X245864D01*
X239700Y311259D02*
X245812D01*
X244411Y305859D02*
X245685D01*
X239700Y317739D02*
X245600D01*
X239700Y316659D02*
X245600D01*
X239700Y315579D02*
X245600D01*
X239700Y314499D02*
X245600D01*
X239700Y313419D02*
X245600D01*
X239700Y312339D02*
X245600D01*
X202600Y329619D02*
X217670D01*
X202600Y205419D02*
X217570D01*
X202600Y328539D02*
X217500D01*
X202600Y327459D02*
X217500D01*
X202600Y326379D02*
X217500D01*
X202600Y325299D02*
X217500D01*
X202600Y324219D02*
X217500D01*
X202600Y323139D02*
X217500D01*
X202600Y322059D02*
X217500D01*
X202600Y320979D02*
X217500D01*
X202600Y319899D02*
X217500D01*
X202600Y318819D02*
X217500D01*
X202600Y317739D02*
X217500D01*
X202600Y316659D02*
X217500D01*
X202600Y315579D02*
X217500D01*
X202600Y314499D02*
X217500D01*
X202600Y313419D02*
X217500D01*
X202600Y312339D02*
X217500D01*
X202600Y311259D02*
X217500D01*
X202600Y310179D02*
X217500D01*
X202600Y309099D02*
X217500D01*
X202600Y308019D02*
X217500D01*
X202600Y306939D02*
X217500D01*
X202600Y305859D02*
X217500D01*
X202600Y304779D02*
X217500D01*
X202600Y303699D02*
X217500D01*
X202600Y302619D02*
X217500D01*
X202600Y301539D02*
X217500D01*
X202600Y300459D02*
X217500D01*
X202600Y299379D02*
X217500D01*
X202600Y298299D02*
X217500D01*
X202600Y297219D02*
X217500D01*
X202600Y296139D02*
X217500D01*
X202600Y295059D02*
X217500D01*
X202600Y293979D02*
X217500D01*
X202600Y292899D02*
X217500D01*
X202600Y291819D02*
X217500D01*
X202600Y290739D02*
X217500D01*
X202600Y289659D02*
X217500D01*
X202600Y288579D02*
X217500D01*
X202600Y287499D02*
X217500D01*
X202600Y286419D02*
X217500D01*
X202600Y285339D02*
X217500D01*
X202600Y284259D02*
X217500D01*
X202600Y283179D02*
X217500D01*
X202600Y282099D02*
X217500D01*
X202600Y281019D02*
X217500D01*
X202600Y279939D02*
X217500D01*
X202600Y278859D02*
X217500D01*
X202600Y277779D02*
X217500D01*
X202600Y276699D02*
X217500D01*
X202600Y275619D02*
X217500D01*
X202600Y274539D02*
X217500D01*
X202600Y273459D02*
X217500D01*
X202600Y272379D02*
X217500D01*
X202600Y271299D02*
X217500D01*
X202600Y270219D02*
X217500D01*
X202600Y269139D02*
X217500D01*
X202600Y268059D02*
X217500D01*
X202600Y266979D02*
X217500D01*
X202600Y265899D02*
X217500D01*
X202600Y264819D02*
X217500D01*
X202600Y263739D02*
X217500D01*
X202600Y262659D02*
X217500D01*
X202600Y261579D02*
X217500D01*
X202600Y260499D02*
X217500D01*
X202600Y259419D02*
X217500D01*
X202600Y258339D02*
X217500D01*
X202600Y257259D02*
X217500D01*
X202600Y256179D02*
X217500D01*
X202600Y255099D02*
X217500D01*
X202600Y254019D02*
X217500D01*
X202600Y252939D02*
X217500D01*
X202600Y251859D02*
X217500D01*
X202600Y250779D02*
X217500D01*
X202600Y249699D02*
X217500D01*
X202600Y248619D02*
X217500D01*
X202600Y247539D02*
X217500D01*
X202600Y246459D02*
X217500D01*
X202600Y245379D02*
X217500D01*
X202600Y244299D02*
X217500D01*
X202600Y243219D02*
X217500D01*
X202600Y242139D02*
X217500D01*
X202600Y241059D02*
X217500D01*
X202600Y239979D02*
X217500D01*
X202600Y238899D02*
X217500D01*
X202600Y237819D02*
X217500D01*
X202600Y236739D02*
X217500D01*
X202600Y235659D02*
X217500D01*
X202600Y234579D02*
X217500D01*
X202600Y233499D02*
X217500D01*
X202600Y232419D02*
X217500D01*
X202600Y231339D02*
X217500D01*
X202600Y230259D02*
X217500D01*
X202600Y229179D02*
X217500D01*
X202600Y228099D02*
X217500D01*
X202600Y227019D02*
X217500D01*
X202600Y225939D02*
X217500D01*
X202600Y224859D02*
X217500D01*
X202600Y223779D02*
X217500D01*
X202600Y222699D02*
X217500D01*
X202600Y221619D02*
X217500D01*
X202600Y220539D02*
X217500D01*
X202600Y219459D02*
X217500D01*
X202600Y218379D02*
X217500D01*
X202600Y217299D02*
X217500D01*
X202600Y216219D02*
X217500D01*
X202600Y215139D02*
X217500D01*
X202600Y214059D02*
X217500D01*
X202600Y212979D02*
X217500D01*
X202600Y211899D02*
X217500D01*
X202600Y210819D02*
X217500D01*
X202600Y209739D02*
X217500D01*
X202600Y208659D02*
X217500D01*
X202600Y207579D02*
X217500D01*
X202600Y206499D02*
X217500D01*
X200000Y200000D02*
X410000D01*
Y335000*
X200000*
Y200000*
G54D13*
X238273Y114563D02*
X236000Y110188D01*
X236000D02*
X239409D01*
X238273Y114563D02*
Y108000D01*
X241909Y114563D02*
X244409D01*
X244409D02*
X243045Y112063D01*
X243045D02*
X243727D01*
X243727D02*
X244182Y111750D01*
X244409Y111438*
X244409D02*
X244636Y110500D01*
Y109875*
X244409Y108938*
X244409D02*
X243955Y108313D01*
X243955D02*
X243273Y108000D01*
X242591*
X241909Y108313*
X241909D02*
X241682Y108625D01*
X241455Y109250*
X248045Y114563D02*
X247364Y114250D01*
X246909Y113313*
X246909D02*
X246682Y111750D01*
Y110813*
X246682D02*
X246909Y109250D01*
X247364Y108313*
X247364D02*
X248045Y108000D01*
X248500*
X249182Y108313*
X249182D02*
X249636Y109250D01*
X249864Y110813*
X249864D02*
Y111750D01*
X249636Y113313*
X249636D02*
X249182Y114250D01*
X248500Y114563*
X248500D02*
X248045D01*
X251909D02*
Y108000D01*
Y114563D02*
X253955D01*
X253955D02*
X254636Y114250D01*
X254864Y113938*
X254864D02*
X255091Y113313D01*
X255091D02*
Y112688D01*
X255091D02*
X254864Y112063D01*
X254864D02*
X254636Y111750D01*
X253955Y111438*
X251909D02*
X253955D01*
X253955D02*
X254636Y111125D01*
X254864Y110813*
X254864D02*
X255091Y110188D01*
X255091D02*
Y109250D01*
X254864Y108625*
X254636Y108313*
X254636D02*
X253955Y108000D01*
X251909*
X258500Y114563D02*
X258045Y114250D01*
X257591Y113625*
X257364Y113000*
X257136Y112063*
X257136D02*
Y110500D01*
X257364Y109563*
X257364D02*
X257591Y108938D01*
X257591D02*
X258045Y108313D01*
X258045D02*
X258500Y108000D01*
X259409*
X259864Y108313*
X259864D02*
X260318Y108938D01*
X260318D02*
X260545Y109563D01*
X260545D02*
X260773Y110500D01*
Y112063*
X260773D02*
X260545Y113000D01*
X260318Y113625*
X259864Y114250*
X259409Y114563*
X259409D02*
X258500D01*
X264182D02*
X263727Y114250D01*
X263273Y113625*
X263045Y113000*
X262818Y112063*
X262818D02*
Y110500D01*
X263045Y109563*
X263045D02*
X263273Y108938D01*
X263273D02*
X263727Y108313D01*
X263727D02*
X264182Y108000D01*
X265091*
X265545Y108313*
X265545D02*
X266000Y108938D01*
X266000D02*
X266227Y109563D01*
X266227D02*
X266455Y110500D01*
Y112063*
X266455D02*
X266227Y113000D01*
X266000Y113625*
X265545Y114250*
X265091Y114563*
X265091D02*
X264182D01*
X271682Y113625D02*
X271227Y114250D01*
X270545Y114563*
X270545D02*
X269636D01*
X269636D02*
X268955Y114250D01*
X268500Y113625*
Y113000*
X268727Y112375*
X268955Y112063*
X268955D02*
X269409Y111750D01*
X270773Y111125*
X271227Y110813*
X271227D02*
X271455Y110500D01*
X271682Y109875*
Y108938*
X271682D02*
X271227Y108313D01*
X271227D02*
X270545Y108000D01*
X269636*
X268955Y108313*
X268955D02*
X268500Y108938D01*
X275318Y114563D02*
Y108000D01*
X273727Y114563D02*
X276909D01*
X278955Y110813D02*
X283045D01*
X288273Y113625D02*
X287818Y114250D01*
X287136Y114563*
X287136D02*
X286227D01*
X286227D02*
X285545Y114250D01*
X285091Y113625*
Y113000*
X285318Y112375*
X285545Y112063*
X285545D02*
X286000Y111750D01*
X287364Y111125*
X287818Y110813*
X287818D02*
X288045Y110500D01*
X288273Y109875*
Y108938*
X288273D02*
X287818Y108313D01*
X287818D02*
X287136Y108000D01*
X286227*
X285545Y108313*
X285545D02*
X285091Y108938D01*
X290318Y114563D02*
Y108000D01*
X293500Y114563D02*
Y108000D01*
X290318Y111438D02*
X293500D01*
X297364Y114563D02*
X295545Y108000D01*
X297364Y114563D02*
X299182Y108000D01*
X296227Y110188D02*
X298500D01*
X301227Y114563D02*
Y108000D01*
Y114563D02*
X303273D01*
X303273D02*
X303955Y114250D01*
X304182Y113938*
X304182D02*
X304409Y113313D01*
X304409D02*
Y112688D01*
X304409D02*
X304182Y112063D01*
X304182D02*
X303955Y111750D01*
X303273Y111438*
X303273D02*
X301227D01*
X302818D02*
X304409Y108000D01*
X306455Y114563D02*
Y108000D01*
Y114563D02*
X308500D01*
X308500D02*
X309182Y114250D01*
X309409Y113938*
X309409D02*
X309636Y113313D01*
X309636D02*
Y112375D01*
X309409Y111750*
X309182Y111438*
X309182D02*
X308500Y111125D01*
X306455*
X314636Y112375D02*
X314409Y111438D01*
X314409D02*
X313955Y110813D01*
X313955D02*
X313273Y110500D01*
X313045*
X312364Y110813*
X312364D02*
X311909Y111438D01*
X311909D02*
X311682Y112375D01*
Y112688*
X311682D02*
X311909Y113625D01*
X312364Y114250*
X313045Y114563*
X313045D02*
X313273D01*
X313273D02*
X313955Y114250D01*
X314409Y113625*
X314636Y112375*
Y110813*
X314636D02*
X314409Y109250D01*
X313955Y108313*
X313955D02*
X313273Y108000D01*
X312818*
X312136Y108313*
X312136D02*
X311909Y108938D01*
X319409Y113625D02*
X319182Y114250D01*
X318500Y114563*
X318500D02*
X318045D01*
X318045D02*
X317364Y114250D01*
X316909Y113313*
X316909D02*
X316682Y111750D01*
Y110188*
X316682D02*
X316909Y108938D01*
X316909D02*
X317364Y108313D01*
X317364D02*
X318045Y108000D01*
X318273*
X318955Y108313*
X318955D02*
X319409Y108938D01*
X319409D02*
X319636Y109875D01*
Y110188*
X319636D02*
X319409Y111125D01*
X318955Y111750*
X318273Y112063*
X318273D02*
X318045D01*
X318045D02*
X317364Y111750D01*
X316909Y111125*
X316682Y110188*
X341000Y112375D02*
Y108000D01*
Y110500D02*
X341227Y111438D01*
X341227D02*
X341682Y112063D01*
X341682D02*
X342136Y112375D01*
X342818*
X344864Y113313D02*
X345318Y113625D01*
X346000Y114563*
X346000D02*
Y108000D01*
X348273Y108625D02*
X348045Y108313D01*
X348045D02*
X348273Y108000D01*
X348500Y108313*
X348500D02*
X348273Y108625D01*
X350545Y113313D02*
X351000Y113625D01*
X351682Y114563*
X351682D02*
Y108000D01*
X220100Y207700D02*
X237100D01*
Y209632*
X228600Y240326*
X228600D02*
X220100Y209632D01*
Y207700*
X238900Y208700D02*
X234400D01*
Y207700*
X238900*
Y208700*
Y232200D02*
X234400D01*
Y231200*
X238900*
Y232200*
X237100Y219379D02*
Y248132D01*
X228600Y278826*
X228600D02*
X220100Y248132D01*
Y219379*
X228600Y250073*
X228600D02*
X237100Y219379D01*
Y257879D02*
Y286632D01*
X228600Y317326*
X228600D02*
X220100Y286632D01*
Y257879*
X228600Y288573*
X228600D02*
X237100Y257879D01*
X238900Y270200D02*
X234400D01*
Y269200*
X238900*
Y270200*
X237100Y296379D02*
Y327200D01*
X220100*
Y296379*
X228600Y327073*
X228600D02*
X237100Y296379D01*
X238900Y308700D02*
X234400D01*
Y307700*
X238900*
Y308700*
X372800Y207700D02*
X389800D01*
Y209632*
X381300Y240326*
X381300D02*
X372800Y209632D01*
Y207700*
X375500Y208700D02*
X371000D01*
Y207700*
X375500*
Y208700*
Y232200D02*
X371000D01*
Y231200*
X375500*
Y232200*
X389800Y219379D02*
Y248132D01*
X381300Y278826*
X381300D02*
X372800Y248132D01*
Y219379*
X381300Y250073*
X381300D02*
X389800Y219379D01*
Y257879D02*
Y286632D01*
X381300Y317326*
X381300D02*
X372800Y286632D01*
Y257879*
X381300Y288573*
X381300D02*
X389800Y257879D01*
X375500Y270200D02*
X371000D01*
Y269200*
X375500*
Y270200*
X389800Y296379D02*
Y327200D01*
X372800*
Y296379*
X381300Y327073*
X381300D02*
X389800Y296379D01*
X375500Y308700D02*
X371000D01*
Y307700*
X375500*
Y308700*
X220100Y209499D02*
X237100D01*
X220100Y208599D02*
X237100D01*
X220312Y210399D02*
X236888D01*
X220562Y211299D02*
X236638D01*
X220811Y212199D02*
X236389D01*
X221060Y213099D02*
X236140D01*
X221309Y213999D02*
X235891D01*
X221558Y214899D02*
X235642D01*
X221808Y215799D02*
X235392D01*
X222057Y216699D02*
X235143D01*
X222306Y217599D02*
X234894D01*
X222555Y218499D02*
X234645D01*
X222805Y219399D02*
X234395D01*
X223054Y220299D02*
X234146D01*
X223303Y221199D02*
X233897D01*
X223552Y222099D02*
X233648D01*
X223802Y222999D02*
X233398D01*
X224051Y223899D02*
X233149D01*
X224300Y224799D02*
X232900D01*
X224549Y225699D02*
X232651D01*
X224798Y226599D02*
X232402D01*
X225048Y227499D02*
X232152D01*
X225297Y228399D02*
X231903D01*
X225546Y229299D02*
X231654D01*
X225795Y230199D02*
X231405D01*
X226045Y231099D02*
X231155D01*
X226294Y231999D02*
X230906D01*
X226543Y232899D02*
X230657D01*
X226792Y233799D02*
X230408D01*
X227042Y234699D02*
X230158D01*
X227291Y235599D02*
X229909D01*
X227540Y236499D02*
X229660D01*
X227789Y237399D02*
X229411D01*
X228038Y238299D02*
X229162D01*
X228288Y239199D02*
X228912D01*
X228537Y240099D02*
X228663D01*
X234400Y208599D02*
X238900D01*
X234400Y232099D02*
X238900D01*
X229374Y247278D02*
X237100D01*
X229623Y246378D02*
X237100D01*
X229873Y245478D02*
X237100D01*
X230122Y244578D02*
X237100D01*
X230371Y243678D02*
X237100D01*
X230620Y242778D02*
X237100D01*
X230870Y241878D02*
X237100D01*
X231119Y240978D02*
X237100D01*
X231368Y240078D02*
X237100D01*
X231617Y239178D02*
X237100D01*
X231867Y238278D02*
X237100D01*
X232116Y237378D02*
X237100D01*
X232365Y236478D02*
X237100D01*
X232614Y235578D02*
X237100D01*
X232863Y234678D02*
X237100D01*
X233113Y233778D02*
X237100D01*
X233362Y232878D02*
X237100D01*
X233611Y231978D02*
X237100D01*
X233860Y231078D02*
X237100D01*
X234110Y230178D02*
X237100D01*
X234359Y229278D02*
X237100D01*
X234608Y228378D02*
X237100D01*
X234857Y227478D02*
X237100D01*
X235107Y226578D02*
X237100D01*
X235356Y225678D02*
X237100D01*
X235605Y224778D02*
X237100D01*
X235854Y223878D02*
X237100D01*
X236103Y222978D02*
X237100D01*
X236353Y222078D02*
X237100D01*
X236602Y221178D02*
X237100D01*
X236851Y220278D02*
X237100D01*
X229125Y248178D02*
X237087D01*
X228876Y249078D02*
X236838D01*
X228627Y249978D02*
X236589D01*
X220860Y250878D02*
X236340D01*
X221110Y251778D02*
X236090D01*
X221359Y252678D02*
X235841D01*
X221608Y253578D02*
X235592D01*
X221857Y254478D02*
X235343D01*
X222106Y255378D02*
X235094D01*
X222356Y256278D02*
X234844D01*
X222605Y257178D02*
X234595D01*
X222854Y258078D02*
X234346D01*
X223103Y258978D02*
X234097D01*
X223353Y259878D02*
X233847D01*
X223602Y260778D02*
X233598D01*
X223851Y261678D02*
X233349D01*
X224100Y262578D02*
X233100D01*
X224350Y263478D02*
X232850D01*
X224599Y264378D02*
X232601D01*
X224848Y265278D02*
X232352D01*
X225097Y266178D02*
X232103D01*
X225346Y267078D02*
X231854D01*
X225596Y267978D02*
X231604D01*
X225845Y268878D02*
X231355D01*
X226094Y269778D02*
X231106D01*
X226343Y270678D02*
X230857D01*
X226593Y271578D02*
X230607D01*
X226842Y272478D02*
X230358D01*
X227091Y273378D02*
X230109D01*
X227340Y274278D02*
X229860D01*
X227590Y275178D02*
X229610D01*
X227839Y276078D02*
X229361D01*
X228088Y276978D02*
X229112D01*
X228337Y277878D02*
X228863D01*
X228586Y278778D02*
X228614D01*
X220611Y249978D02*
X228573D01*
X220362Y249078D02*
X228324D01*
X220113Y248178D02*
X228075D01*
X220100Y247278D02*
X227826D01*
X220100Y246378D02*
X227577D01*
X220100Y245478D02*
X227327D01*
X220100Y244578D02*
X227078D01*
X220100Y243678D02*
X226829D01*
X220100Y242778D02*
X226580D01*
X220100Y241878D02*
X226330D01*
X220100Y240978D02*
X226081D01*
X220100Y240078D02*
X225832D01*
X220100Y239178D02*
X225583D01*
X220100Y238278D02*
X225333D01*
X220100Y237378D02*
X225084D01*
X220100Y236478D02*
X224835D01*
X220100Y235578D02*
X224586D01*
X220100Y234678D02*
X224337D01*
X220100Y233778D02*
X224087D01*
X220100Y232878D02*
X223838D01*
X220100Y231978D02*
X223589D01*
X220100Y231078D02*
X223340D01*
X220100Y230178D02*
X223090D01*
X220100Y229278D02*
X222841D01*
X220100Y228378D02*
X222592D01*
X220100Y227478D02*
X222343D01*
X220100Y226578D02*
X222093D01*
X220100Y225678D02*
X221844D01*
X220100Y224778D02*
X221595D01*
X220100Y223878D02*
X221346D01*
X220100Y222978D02*
X221097D01*
X220100Y222078D02*
X220847D01*
X220100Y221178D02*
X220598D01*
X220100Y220278D02*
X220349D01*
X229374Y285778D02*
X237100D01*
X229623Y284878D02*
X237100D01*
X229873Y283978D02*
X237100D01*
X230122Y283078D02*
X237100D01*
X230371Y282178D02*
X237100D01*
X230620Y281278D02*
X237100D01*
X230870Y280378D02*
X237100D01*
X231119Y279478D02*
X237100D01*
X231368Y278578D02*
X237100D01*
X231617Y277678D02*
X237100D01*
X231867Y276778D02*
X237100D01*
X232116Y275878D02*
X237100D01*
X232365Y274978D02*
X237100D01*
X232614Y274078D02*
X237100D01*
X232863Y273178D02*
X237100D01*
X233113Y272278D02*
X237100D01*
X233362Y271378D02*
X237100D01*
X233611Y270478D02*
X237100D01*
X233860Y269578D02*
X237100D01*
X234110Y268678D02*
X237100D01*
X234359Y267778D02*
X237100D01*
X234608Y266878D02*
X237100D01*
X234857Y265978D02*
X237100D01*
X235107Y265078D02*
X237100D01*
X235356Y264178D02*
X237100D01*
X235605Y263278D02*
X237100D01*
X235854Y262378D02*
X237100D01*
X236103Y261478D02*
X237100D01*
X236353Y260578D02*
X237100D01*
X236602Y259678D02*
X237100D01*
X236851Y258778D02*
X237100D01*
X229125Y286678D02*
X237087D01*
X228876Y287578D02*
X236838D01*
X228627Y288478D02*
X236589D01*
X220860Y289378D02*
X236340D01*
X221110Y290278D02*
X236090D01*
X221359Y291178D02*
X235841D01*
X221608Y292078D02*
X235592D01*
X221857Y292978D02*
X235343D01*
X222106Y293878D02*
X235094D01*
X222356Y294778D02*
X234844D01*
X222605Y295678D02*
X234595D01*
X222854Y296578D02*
X234346D01*
X223103Y297478D02*
X234097D01*
X223353Y298378D02*
X233847D01*
X223602Y299278D02*
X233598D01*
X223851Y300178D02*
X233349D01*
X224100Y301078D02*
X233100D01*
X224350Y301978D02*
X232850D01*
X224599Y302878D02*
X232601D01*
X224848Y303778D02*
X232352D01*
X225097Y304678D02*
X232103D01*
X225346Y305578D02*
X231854D01*
X225596Y306478D02*
X231604D01*
X225845Y307378D02*
X231355D01*
X226094Y308278D02*
X231106D01*
X226343Y309178D02*
X230857D01*
X226593Y310078D02*
X230607D01*
X226842Y310978D02*
X230358D01*
X227091Y311878D02*
X230109D01*
X227340Y312778D02*
X229860D01*
X227590Y313678D02*
X229610D01*
X227839Y314578D02*
X229361D01*
X228088Y315478D02*
X229112D01*
X228337Y316378D02*
X228863D01*
X228586Y317278D02*
X228614D01*
X220611Y288478D02*
X228573D01*
X220362Y287578D02*
X228324D01*
X220113Y286678D02*
X228075D01*
X220100Y285778D02*
X227826D01*
X220100Y284878D02*
X227577D01*
X220100Y283978D02*
X227327D01*
X220100Y283078D02*
X227078D01*
X220100Y282178D02*
X226829D01*
X220100Y281278D02*
X226580D01*
X220100Y280378D02*
X226330D01*
X220100Y279478D02*
X226081D01*
X220100Y278578D02*
X225832D01*
X220100Y277678D02*
X225583D01*
X220100Y276778D02*
X225333D01*
X220100Y275878D02*
X225084D01*
X220100Y274978D02*
X224835D01*
X220100Y274078D02*
X224586D01*
X220100Y273178D02*
X224337D01*
X220100Y272278D02*
X224087D01*
X220100Y271378D02*
X223838D01*
X220100Y270478D02*
X223589D01*
X220100Y269578D02*
X223340D01*
X220100Y268678D02*
X223090D01*
X220100Y267778D02*
X222841D01*
X220100Y266878D02*
X222592D01*
X220100Y265978D02*
X222343D01*
X220100Y265078D02*
X222093D01*
X220100Y264178D02*
X221844D01*
X220100Y263278D02*
X221595D01*
X220100Y262378D02*
X221346D01*
X220100Y261478D02*
X221097D01*
X220100Y260578D02*
X220847D01*
X220100Y259678D02*
X220598D01*
X220100Y258778D02*
X220349D01*
X234400Y270099D02*
X238900D01*
X228627Y326978D02*
X237100D01*
X228876Y326078D02*
X237100D01*
X229125Y325178D02*
X237100D01*
X229374Y324278D02*
X237100D01*
X229623Y323378D02*
X237100D01*
X229873Y322478D02*
X237100D01*
X230122Y321578D02*
X237100D01*
X230371Y320678D02*
X237100D01*
X230620Y319778D02*
X237100D01*
X230870Y318878D02*
X237100D01*
X231119Y317978D02*
X237100D01*
X231368Y317078D02*
X237100D01*
X231617Y316178D02*
X237100D01*
X231867Y315278D02*
X237100D01*
X232116Y314378D02*
X237100D01*
X232365Y313478D02*
X237100D01*
X232614Y312578D02*
X237100D01*
X232863Y311678D02*
X237100D01*
X233113Y310778D02*
X237100D01*
X233362Y309878D02*
X237100D01*
X233611Y308978D02*
X237100D01*
X233860Y308078D02*
X237100D01*
X234110Y307178D02*
X237100D01*
X234359Y306278D02*
X237100D01*
X234608Y305378D02*
X237100D01*
X234857Y304478D02*
X237100D01*
X235107Y303578D02*
X237100D01*
X235356Y302678D02*
X237100D01*
X235605Y301778D02*
X237100D01*
X235854Y300878D02*
X237100D01*
X236103Y299978D02*
X237100D01*
X236353Y299078D02*
X237100D01*
X236602Y298178D02*
X237100D01*
X236851Y297278D02*
X237100D01*
X220100Y326978D02*
X228573D01*
X220100Y326078D02*
X228324D01*
X220100Y325178D02*
X228075D01*
X220100Y324278D02*
X227826D01*
X220100Y323378D02*
X227577D01*
X220100Y322478D02*
X227327D01*
X220100Y321578D02*
X227078D01*
X220100Y320678D02*
X226829D01*
X220100Y319778D02*
X226580D01*
X220100Y318878D02*
X226330D01*
X220100Y317978D02*
X226081D01*
X220100Y317078D02*
X225832D01*
X220100Y316178D02*
X225583D01*
X220100Y315278D02*
X225333D01*
X220100Y314378D02*
X225084D01*
X220100Y313478D02*
X224835D01*
X220100Y312578D02*
X224586D01*
X220100Y311678D02*
X224337D01*
X220100Y310778D02*
X224087D01*
X220100Y309878D02*
X223838D01*
X220100Y308978D02*
X223589D01*
X220100Y308078D02*
X223340D01*
X220100Y307178D02*
X223090D01*
X220100Y306278D02*
X222841D01*
X220100Y305378D02*
X222592D01*
X220100Y304478D02*
X222343D01*
X220100Y303578D02*
X222093D01*
X220100Y302678D02*
X221844D01*
X220100Y301778D02*
X221595D01*
X220100Y300878D02*
X221346D01*
X220100Y299978D02*
X221097D01*
X220100Y299078D02*
X220847D01*
X220100Y298178D02*
X220598D01*
X220100Y297278D02*
X220349D01*
X234400Y308599D02*
X238900D01*
X372800Y209499D02*
X389800D01*
X372800Y208599D02*
X389800D01*
X373012Y210399D02*
X389588D01*
X373262Y211299D02*
X389338D01*
X373511Y212199D02*
X389089D01*
X373760Y213099D02*
X388840D01*
X374009Y213999D02*
X388591D01*
X374258Y214899D02*
X388342D01*
X374508Y215799D02*
X388092D01*
X374757Y216699D02*
X387843D01*
X375006Y217599D02*
X387594D01*
X375255Y218499D02*
X387345D01*
X375505Y219399D02*
X387095D01*
X375754Y220299D02*
X386846D01*
X376003Y221199D02*
X386597D01*
X376252Y222099D02*
X386348D01*
X376502Y222999D02*
X386098D01*
X376751Y223899D02*
X385849D01*
X377000Y224799D02*
X385600D01*
X377249Y225699D02*
X385351D01*
X377498Y226599D02*
X385102D01*
X377748Y227499D02*
X384852D01*
X377997Y228399D02*
X384603D01*
X378246Y229299D02*
X384354D01*
X378495Y230199D02*
X384105D01*
X378745Y231099D02*
X383855D01*
X378994Y231999D02*
X383606D01*
X379243Y232899D02*
X383357D01*
X379492Y233799D02*
X383108D01*
X379742Y234699D02*
X382858D01*
X379991Y235599D02*
X382609D01*
X380240Y236499D02*
X382360D01*
X380489Y237399D02*
X382111D01*
X380738Y238299D02*
X381862D01*
X380988Y239199D02*
X381612D01*
X381237Y240099D02*
X381363D01*
X371000Y208599D02*
X375500D01*
X371000Y232099D02*
X375500D01*
X382074Y247278D02*
X389800D01*
X382323Y246378D02*
X389800D01*
X382573Y245478D02*
X389800D01*
X382822Y244578D02*
X389800D01*
X383071Y243678D02*
X389800D01*
X383320Y242778D02*
X389800D01*
X383570Y241878D02*
X389800D01*
X383819Y240978D02*
X389800D01*
X384068Y240078D02*
X389800D01*
X384317Y239178D02*
X389800D01*
X384567Y238278D02*
X389800D01*
X384816Y237378D02*
X389800D01*
X385065Y236478D02*
X389800D01*
X385314Y235578D02*
X389800D01*
X385563Y234678D02*
X389800D01*
X385813Y233778D02*
X389800D01*
X386062Y232878D02*
X389800D01*
X386311Y231978D02*
X389800D01*
X386560Y231078D02*
X389800D01*
X386810Y230178D02*
X389800D01*
X387059Y229278D02*
X389800D01*
X387308Y228378D02*
X389800D01*
X387557Y227478D02*
X389800D01*
X387807Y226578D02*
X389800D01*
X388056Y225678D02*
X389800D01*
X388305Y224778D02*
X389800D01*
X388554Y223878D02*
X389800D01*
X388803Y222978D02*
X389800D01*
X389053Y222078D02*
X389800D01*
X389302Y221178D02*
X389800D01*
X389551Y220278D02*
X389800D01*
X381825Y248178D02*
X389787D01*
X381576Y249078D02*
X389538D01*
X381327Y249978D02*
X389289D01*
X373560Y250878D02*
X389040D01*
X373810Y251778D02*
X388790D01*
X374059Y252678D02*
X388541D01*
X374308Y253578D02*
X388292D01*
X374557Y254478D02*
X388043D01*
X374806Y255378D02*
X387794D01*
X375056Y256278D02*
X387544D01*
X375305Y257178D02*
X387295D01*
X375554Y258078D02*
X387046D01*
X375803Y258978D02*
X386797D01*
X376053Y259878D02*
X386547D01*
X376302Y260778D02*
X386298D01*
X376551Y261678D02*
X386049D01*
X376800Y262578D02*
X385800D01*
X377050Y263478D02*
X385550D01*
X377299Y264378D02*
X385301D01*
X377548Y265278D02*
X385052D01*
X377797Y266178D02*
X384803D01*
X378046Y267078D02*
X384554D01*
X378296Y267978D02*
X384304D01*
X378545Y268878D02*
X384055D01*
X378794Y269778D02*
X383806D01*
X379043Y270678D02*
X383557D01*
X379293Y271578D02*
X383307D01*
X379542Y272478D02*
X383058D01*
X379791Y273378D02*
X382809D01*
X380040Y274278D02*
X382560D01*
X380290Y275178D02*
X382310D01*
X380539Y276078D02*
X382061D01*
X380788Y276978D02*
X381812D01*
X381037Y277878D02*
X381563D01*
X381286Y278778D02*
X381314D01*
X373311Y249978D02*
X381273D01*
X373062Y249078D02*
X381024D01*
X372813Y248178D02*
X380775D01*
X372800Y247278D02*
X380526D01*
X372800Y246378D02*
X380277D01*
X372800Y245478D02*
X380027D01*
X372800Y244578D02*
X379778D01*
X372800Y243678D02*
X379529D01*
X372800Y242778D02*
X379280D01*
X372800Y241878D02*
X379030D01*
X372800Y240978D02*
X378781D01*
X372800Y240078D02*
X378532D01*
X372800Y239178D02*
X378283D01*
X372800Y238278D02*
X378033D01*
X372800Y237378D02*
X377784D01*
X372800Y236478D02*
X377535D01*
X372800Y235578D02*
X377286D01*
X372800Y234678D02*
X377037D01*
X372800Y233778D02*
X376787D01*
X372800Y232878D02*
X376538D01*
X372800Y231978D02*
X376289D01*
X372800Y231078D02*
X376040D01*
X372800Y230178D02*
X375790D01*
X372800Y229278D02*
X375541D01*
X372800Y228378D02*
X375292D01*
X372800Y227478D02*
X375043D01*
X372800Y226578D02*
X374793D01*
X372800Y225678D02*
X374544D01*
X372800Y224778D02*
X374295D01*
X372800Y223878D02*
X374046D01*
X372800Y222978D02*
X373797D01*
X372800Y222078D02*
X373547D01*
X372800Y221178D02*
X373298D01*
X372800Y220278D02*
X373049D01*
X382074Y285778D02*
X389800D01*
X382323Y284878D02*
X389800D01*
X382573Y283978D02*
X389800D01*
X382822Y283078D02*
X389800D01*
X383071Y282178D02*
X389800D01*
X383320Y281278D02*
X389800D01*
X383570Y280378D02*
X389800D01*
X383819Y279478D02*
X389800D01*
X384068Y278578D02*
X389800D01*
X384317Y277678D02*
X389800D01*
X384567Y276778D02*
X389800D01*
X384816Y275878D02*
X389800D01*
X385065Y274978D02*
X389800D01*
X385314Y274078D02*
X389800D01*
X385563Y273178D02*
X389800D01*
X385813Y272278D02*
X389800D01*
X386062Y271378D02*
X389800D01*
X386311Y270478D02*
X389800D01*
X386560Y269578D02*
X389800D01*
X386810Y268678D02*
X389800D01*
X387059Y267778D02*
X389800D01*
X387308Y266878D02*
X389800D01*
X387557Y265978D02*
X389800D01*
X387807Y265078D02*
X389800D01*
X388056Y264178D02*
X389800D01*
X388305Y263278D02*
X389800D01*
X388554Y262378D02*
X389800D01*
X388803Y261478D02*
X389800D01*
X389053Y260578D02*
X389800D01*
X389302Y259678D02*
X389800D01*
X389551Y258778D02*
X389800D01*
X381825Y286678D02*
X389787D01*
X381576Y287578D02*
X389538D01*
X381327Y288478D02*
X389289D01*
X373560Y289378D02*
X389040D01*
X373810Y290278D02*
X388790D01*
X374059Y291178D02*
X388541D01*
X374308Y292078D02*
X388292D01*
X374557Y292978D02*
X388043D01*
X374806Y293878D02*
X387794D01*
X375056Y294778D02*
X387544D01*
X375305Y295678D02*
X387295D01*
X375554Y296578D02*
X387046D01*
X375803Y297478D02*
X386797D01*
X376053Y298378D02*
X386547D01*
X376302Y299278D02*
X386298D01*
X376551Y300178D02*
X386049D01*
X376800Y301078D02*
X385800D01*
X377050Y301978D02*
X385550D01*
X377299Y302878D02*
X385301D01*
X377548Y303778D02*
X385052D01*
X377797Y304678D02*
X384803D01*
X378046Y305578D02*
X384554D01*
X378296Y306478D02*
X384304D01*
X378545Y307378D02*
X384055D01*
X378794Y308278D02*
X383806D01*
X379043Y309178D02*
X383557D01*
X379293Y310078D02*
X383307D01*
X379542Y310978D02*
X383058D01*
X379791Y311878D02*
X382809D01*
X380040Y312778D02*
X382560D01*
X380290Y313678D02*
X382310D01*
X380539Y314578D02*
X382061D01*
X380788Y315478D02*
X381812D01*
X381037Y316378D02*
X381563D01*
X381286Y317278D02*
X381314D01*
X373311Y288478D02*
X381273D01*
X373062Y287578D02*
X381024D01*
X372813Y286678D02*
X380775D01*
X372800Y285778D02*
X380526D01*
X372800Y284878D02*
X380277D01*
X372800Y283978D02*
X380027D01*
X372800Y283078D02*
X379778D01*
X372800Y282178D02*
X379529D01*
X372800Y281278D02*
X379280D01*
X372800Y280378D02*
X379030D01*
X372800Y279478D02*
X378781D01*
X372800Y278578D02*
X378532D01*
X372800Y277678D02*
X378283D01*
X372800Y276778D02*
X378033D01*
X372800Y275878D02*
X377784D01*
X372800Y274978D02*
X377535D01*
X372800Y274078D02*
X377286D01*
X372800Y273178D02*
X377037D01*
X372800Y272278D02*
X376787D01*
X372800Y271378D02*
X376538D01*
X372800Y270478D02*
X376289D01*
X372800Y269578D02*
X376040D01*
X372800Y268678D02*
X375790D01*
X372800Y267778D02*
X375541D01*
X372800Y266878D02*
X375292D01*
X372800Y265978D02*
X375043D01*
X372800Y265078D02*
X374793D01*
X372800Y264178D02*
X374544D01*
X372800Y263278D02*
X374295D01*
X372800Y262378D02*
X374046D01*
X372800Y261478D02*
X373797D01*
X372800Y260578D02*
X373547D01*
X372800Y259678D02*
X373298D01*
X372800Y258778D02*
X373049D01*
X371000Y270099D02*
X375500D01*
X381327Y326978D02*
X389800D01*
X381576Y326078D02*
X389800D01*
X381825Y325178D02*
X389800D01*
X382074Y324278D02*
X389800D01*
X382323Y323378D02*
X389800D01*
X382573Y322478D02*
X389800D01*
X382822Y321578D02*
X389800D01*
X383071Y320678D02*
X389800D01*
X383320Y319778D02*
X389800D01*
X383570Y318878D02*
X389800D01*
X383819Y317978D02*
X389800D01*
X384068Y317078D02*
X389800D01*
X384317Y316178D02*
X389800D01*
X384567Y315278D02*
X389800D01*
X384816Y314378D02*
X389800D01*
X385065Y313478D02*
X389800D01*
X385314Y312578D02*
X389800D01*
X385563Y311678D02*
X389800D01*
X385813Y310778D02*
X389800D01*
X386062Y309878D02*
X389800D01*
X386311Y308978D02*
X389800D01*
X386560Y308078D02*
X389800D01*
X386810Y307178D02*
X389800D01*
X387059Y306278D02*
X389800D01*
X387308Y305378D02*
X389800D01*
X387557Y304478D02*
X389800D01*
X387807Y303578D02*
X389800D01*
X388056Y302678D02*
X389800D01*
X388305Y301778D02*
X389800D01*
X388554Y300878D02*
X389800D01*
X388803Y299978D02*
X389800D01*
X389053Y299078D02*
X389800D01*
X389302Y298178D02*
X389800D01*
X389551Y297278D02*
X389800D01*
X372800Y326978D02*
X381273D01*
X372800Y326078D02*
X381024D01*
X372800Y325178D02*
X380775D01*
X372800Y324278D02*
X380526D01*
X372800Y323378D02*
X380277D01*
X372800Y322478D02*
X380027D01*
X372800Y321578D02*
X379778D01*
X372800Y320678D02*
X379529D01*
X372800Y319778D02*
X379280D01*
X372800Y318878D02*
X379030D01*
X372800Y317978D02*
X378781D01*
X372800Y317078D02*
X378532D01*
X372800Y316178D02*
X378283D01*
X372800Y315278D02*
X378033D01*
X372800Y314378D02*
X377784D01*
X372800Y313478D02*
X377535D01*
X372800Y312578D02*
X377286D01*
X372800Y311678D02*
X377037D01*
X372800Y310778D02*
X376787D01*
X372800Y309878D02*
X376538D01*
X372800Y308978D02*
X376289D01*
X372800Y308078D02*
X376040D01*
X372800Y307178D02*
X375790D01*
X372800Y306278D02*
X375541D01*
X372800Y305378D02*
X375292D01*
X372800Y304478D02*
X375043D01*
X372800Y303578D02*
X374793D01*
X372800Y302678D02*
X374544D01*
X372800Y301778D02*
X374295D01*
X372800Y300878D02*
X374046D01*
X372800Y299978D02*
X373797D01*
X372800Y299078D02*
X373547D01*
X372800Y298178D02*
X373298D01*
X372800Y297278D02*
X373049D01*
X371000Y308599D02*
X375500D01*
X517500Y140000D02*
Y100000D01*
X492500Y125000D02*
X742500D01*
X392500Y140000D02*
X592500D01*
X392500Y125000D02*
X592500D01*
X442500Y140000D02*
Y100000D01*
X260500D02*
Y85000D01*
X429500Y100000D02*
Y85000D01*
X542500Y140000D02*
Y100000D01*
X567500Y140000D02*
Y100000D01*
X492500Y140000D02*
X692500D01*
X617500Y139500D02*
Y99500D01*
X350500Y100000D02*
Y85000D01*
X504500Y100000D02*
Y85000D01*
X667500D02*
Y100000D01*
Y140000*
X523023Y135156D02*
Y128594D01*
Y135156D02*
X525068D01*
X525750Y134844*
X525977Y134531*
X526205Y133906*
Y133281*
X525977Y132656*
X525750Y132344*
X525068Y132031*
X523023D02*
X525068D01*
X525750Y131719*
X525977Y131406*
X526205Y130781*
Y129844*
X525977Y129219*
X525750Y128906*
X525068Y128594*
X523023*
X529386Y132969D02*
X528932Y132656D01*
X528477Y132031*
X528250Y131094*
Y130469*
X528477Y129531*
X528932Y128906*
X529386Y128594*
X530068*
X530523Y128906*
X530977Y129531*
X531205Y130469*
Y131094*
X530977Y132031*
X530523Y132656*
X530068Y132969*
X529386*
X533932Y135156D02*
Y129844D01*
X534159Y128906*
X534614Y128594*
X535068*
X533250Y132969D02*
X534841D01*
X697000Y142125D02*
Y136875D01*
Y142125D02*
X699364D01*
X697000Y139625D02*
X698455D01*
X703182Y140375D02*
Y136875D01*
Y139625D02*
X702818Y140125D01*
X702455Y140375*
X701909*
X701545Y140125*
X701182Y139625*
X701000Y138875*
Y138375*
X701182Y137625*
X701545Y137125*
X701909Y136875*
X702455*
X702818Y137125*
X703182Y137625*
X704818Y142125D02*
Y136875D01*
Y139625D02*
X705182Y140125D01*
X705545Y140375*
X706091*
X706455Y140125*
X706818Y139625*
X707000Y138875*
Y138375*
X706818Y137625*
X706455Y137125*
X706091Y136875*
X705545*
X705182Y137125*
X704818Y137625*
X712818Y142125D02*
Y136875D01*
Y142125D02*
X714091D01*
X714636Y141875*
X715000Y141375*
X715182Y140875*
X715364Y140125*
Y138875*
X715182Y138125*
X715000Y137625*
X714636Y137125*
X714091Y136875*
X712818*
X717000Y140375D02*
Y136875D01*
Y138875D02*
X717182Y139625D01*
X717545Y140125*
X717909Y140375*
X718455*
X722273D02*
Y136875D01*
Y139625D02*
X721909Y140125D01*
X721545Y140375*
X721000*
X720636Y140125*
X720273Y139625*
X720091Y138875*
Y138375*
X720273Y137625*
X720636Y137125*
X721000Y136875*
X721545*
X721909Y137125*
X722273Y137625*
X723909Y140375D02*
X724636Y136875D01*
X725364Y140375D02*
X724636Y136875D01*
X725364Y140375D02*
X726091Y136875D01*
X726818Y140375D02*
X726091Y136875D01*
X728455Y142125D02*
X728636Y141875D01*
X728818Y142125*
X728636Y142375*
X728455Y142125*
X728636Y140375D02*
Y136875D01*
X730455Y140375D02*
Y136875D01*
Y139375D02*
X731000Y140125D01*
X731364Y140375*
X731909*
X732273Y140125*
X732455Y139375*
Y136875*
X736273Y140375D02*
Y136375D01*
X736091Y135625*
X735909Y135375*
X735545Y135125*
X735000*
X734636Y135375*
X736273Y139625D02*
X735909Y140125D01*
X735545Y140375*
X735000*
X734636Y140125*
X734273Y139625*
X734091Y138875*
Y138375*
X734273Y137625*
X734636Y137125*
X735000Y136875*
X735545*
X735909Y137125*
X736273Y137625*
X673023Y135156D02*
Y128594D01*
Y135156D02*
X675068D01*
X675750Y134844*
X675977Y134531*
X676205Y133906*
Y133281*
X675977Y132656*
X675750Y132344*
X675068Y132031*
X673023D02*
X675068D01*
X675750Y131719*
X675977Y131406*
X676205Y130781*
Y129844*
X675977Y129219*
X675750Y128906*
X675068Y128594*
X673023*
X679386Y132969D02*
X678932Y132656D01*
X678477Y132031*
X678250Y131094*
Y130469*
X678477Y129531*
X678932Y128906*
X679386Y128594*
X680068*
X680523Y128906*
X680977Y129531*
X681205Y130469*
Y131094*
X680977Y132031*
X680523Y132656*
X680068Y132969*
X679386*
X683932Y135156D02*
Y129844D01*
X684159Y128906*
X684614Y128594*
X685068*
X683250Y132969D02*
X684841D01*
X649159Y135156D02*
Y128594D01*
X647568Y135156D02*
X650750D01*
X653932Y132969D02*
X653477Y132656D01*
X653023Y132031*
X652795Y131094*
Y130469*
X653023Y129531*
X653477Y128906*
X653932Y128594*
X654614*
X655068Y128906*
X655523Y129531*
X655750Y130469*
Y131094*
X655523Y132031*
X655068Y132656*
X654614Y132969*
X653932*
X657795D02*
Y126406D01*
Y132031D02*
X658250Y132656D01*
X658705Y132969*
X659386*
X659841Y132656*
X660295Y132031*
X660523Y131094*
Y130469*
X660295Y129531*
X659841Y128906*
X659386Y128594*
X658705*
X658250Y128906*
X657795Y129531*
X651695Y149917D02*
X650041Y143945D01*
X651695Y149917D02*
X653350Y143945D01*
X650661Y145936D02*
X652730D01*
X657486Y147073D02*
X657280Y147642D01*
X656659Y147927*
X656039*
X655418Y147642*
X655211Y147073*
X655418Y146505*
X655832Y146220*
X656866Y145936*
X657280Y145652*
X657486Y145083*
Y144798*
X657280Y144230*
X656659Y143945*
X656039*
X655418Y144230*
X655211Y144798*
X661623Y147073D02*
X661416Y147642D01*
X660795Y147927*
X660175*
X659555Y147642*
X659348Y147073*
X659555Y146505*
X659968Y146220*
X661002Y145936*
X661416Y145652*
X661623Y145083*
Y144798*
X661416Y144230*
X660795Y143945*
X660175*
X659555Y144230*
X659348Y144798*
X663484Y146220D02*
X665966D01*
Y146789*
X665759Y147358*
X665552Y147642*
X665139Y147927*
X664518*
X664105Y147642*
X663691Y147073*
X663484Y146220*
Y145652*
X663691Y144798*
X664105Y144230*
X664518Y143945*
X665139*
X665552Y144230*
X665966Y144798*
X667827Y147927D02*
Y143945D01*
Y146789D02*
X668448Y147642D01*
X668861Y147927*
X669482*
X669895Y147642*
X670102Y146789*
Y143945*
Y146789D02*
X670723Y147642D01*
X671136Y147927*
X671757*
X672170Y147642*
X672377Y146789*
Y143945*
X674239Y149917D02*
Y143945D01*
Y147073D02*
X674652Y147642D01*
X675066Y147927*
X675686*
X676100Y147642*
X676514Y147073*
X676720Y146220*
Y145652*
X676514Y144798*
X676100Y144230*
X675686Y143945*
X675066*
X674652Y144230*
X674239Y144798*
X678582Y149917D02*
Y143945D01*
X680650Y147927D02*
X681891Y143945D01*
X683132Y147927D02*
X681891Y143945D01*
X681477Y142808*
X681064Y142239*
X680650Y141955*
X680443*
X603867Y149417D02*
Y143445D01*
Y149417D02*
X605728D01*
X606349Y149133*
X606556Y148848*
X606763Y148280*
X606763D02*
Y147427D01*
X606763D02*
X606556Y146858D01*
X606349Y146573*
X605728Y146289*
X603867*
X613381Y149417D02*
Y143445D01*
Y149417D02*
X615035Y143445D01*
X616690Y149417D02*
X615035Y143445D01*
X616690Y149417D02*
Y143445D01*
X621033Y147427D02*
Y143445D01*
Y146573D02*
X620619Y147142D01*
X620206Y147427*
X619585*
X619172Y147142*
X618758Y146573*
X618551Y145720*
Y145152*
X618758Y144298*
X619172Y143730*
X619585Y143445*
X620206*
X620619Y143730*
X621033Y144298*
X625169Y146573D02*
X624963Y147142D01*
X624963D02*
X624342Y147427D01*
X623722*
X623101Y147142*
X622894Y146573*
X623101Y146005*
X623515Y145720*
X624549Y145436*
X624963Y145152*
X624963D02*
X625169Y144583D01*
Y144298*
X624963Y143730*
X624963D02*
X624342Y143445D01*
X623722*
X623101Y143730*
X622894Y144298*
X627031Y149417D02*
Y143445D01*
X629099Y147427D02*
X627031Y144583D01*
X627858Y145720D02*
X629306Y143445D01*
X623023Y134656D02*
Y128094D01*
Y134656D02*
X625068D01*
X625750Y134344*
X625977Y134031*
X626205Y133406*
Y132781*
X625977Y132156*
X625750Y131844*
X625068Y131531*
X623023D02*
X625068D01*
X625750Y131219*
X625977Y130906*
X626205Y130281*
Y129344*
X625977Y128719*
X625750Y128406*
X625068Y128094*
X623023*
X629386Y132469D02*
X628932Y132156D01*
X628477Y131531*
X628250Y130594*
Y129969*
X628477Y129031*
X628932Y128406*
X629386Y128094*
X630068*
X630523Y128406*
X630977Y129031*
X631205Y129969*
Y130594*
X630977Y131531*
X630523Y132156*
X630068Y132469*
X629386*
X633932Y134656D02*
Y129344D01*
X634159Y128406*
X634614Y128094*
X635068*
X633250Y132469D02*
X634841D01*
X599159Y134656D02*
Y128094D01*
X597568Y134656D02*
X600750D01*
X603932Y132469D02*
X603477Y132156D01*
X603023Y131531*
X602795Y130594*
Y129969*
X603023Y129031*
X603477Y128406*
X603932Y128094*
X604614*
X605068Y128406*
X605523Y129031*
X605750Y129969*
Y130594*
X605523Y131531*
X605068Y132156*
X604614Y132469*
X603932*
X607795D02*
Y125906D01*
Y131531D02*
X608250Y132156D01*
X608705Y132469*
X609386*
X609841Y132156*
X610295Y131531*
X610523Y130594*
Y129969*
X610295Y129031*
X609841Y128406*
X609386Y128094*
X608705*
X608250Y128406*
X607795Y129031*
X573023Y135156D02*
Y128594D01*
Y135156D02*
X575068D01*
X575750Y134844*
X575977Y134531*
X576205Y133906*
Y133281*
X575977Y132656*
X575750Y132344*
X575068Y132031*
X573023D02*
X575068D01*
X575750Y131719*
X575977Y131406*
X576205Y130781*
Y129844*
X575977Y129219*
X575750Y128906*
X575068Y128594*
X573023*
X579386Y132969D02*
X578932Y132656D01*
X578477Y132031*
X578250Y131094*
Y130469*
X578477Y129531*
X578932Y128906*
X579386Y128594*
X580068*
X580523Y128906*
X580977Y129531*
X581205Y130469*
Y131094*
X580977Y132031*
X580523Y132656*
X580068Y132969*
X579386*
X583932Y135156D02*
Y129844D01*
X584159Y128906*
X584614Y128594*
X585068*
X583250Y132969D02*
X584841D01*
X549159Y135156D02*
Y128594D01*
X547568Y135156D02*
X550750D01*
X553932Y132969D02*
X553477Y132656D01*
X553023Y132031*
X552795Y131094*
Y130469*
X553023Y129531*
X553477Y128906*
X553932Y128594*
X554614*
X555068Y128906*
X555523Y129531*
X555750Y130469*
Y131094*
X555523Y132031*
X555068Y132656*
X554614Y132969*
X553932*
X557795D02*
Y126406D01*
Y132031D02*
X558250Y132656D01*
X558705Y132969*
X559386*
X559841Y132656*
X560295Y132031*
X560523Y131094*
Y130469*
X560295Y129531*
X559841Y128906*
X559386Y128594*
X558705*
X558250Y128906*
X557795Y129531*
X556763Y149064D02*
X556349Y149633D01*
X555728Y149917*
X554901*
X554281Y149633*
X553867Y149064*
Y148495*
X554074Y147927*
X554281Y147642*
X554694Y147358*
X555935Y146789*
X556349Y146505*
X556556Y146220*
X556763Y145652*
X556763D02*
Y144798D01*
X556763D02*
X556349Y144230D01*
X555728Y143945*
X554901*
X554281Y144230*
X553867Y144798*
X563381Y149917D02*
Y143945D01*
Y149917D02*
X565035Y143945D01*
X566690Y149917D02*
X565035Y143945D01*
X566690Y149917D02*
Y143945D01*
X571033Y147927D02*
Y143945D01*
Y147073D02*
X570619Y147642D01*
X570206Y147927*
X569585*
X569172Y147642*
X568758Y147073*
X568551Y146220*
Y145652*
X568758Y144798*
X569172Y144230*
X569585Y143945*
X570206*
X570619Y144230*
X571033Y144798*
X575169Y147073D02*
X574963Y147642D01*
X574963D02*
X574342Y147927D01*
X573722*
X573101Y147642*
X572894Y147073*
X573101Y146505*
X573515Y146220*
X574549Y145936*
X574963Y145652*
X574963D02*
X575169Y145083D01*
Y144798*
X574963Y144230*
X574963D02*
X574342Y143945D01*
X573722*
X573101Y144230*
X572894Y144798*
X577031Y149917D02*
Y143945D01*
X579099Y147927D02*
X577031Y145083D01*
X577858Y146220D02*
X579306Y143945D01*
X411659Y135156D02*
Y128594D01*
X410068Y135156D02*
X413250D01*
X416432Y132969D02*
X415977Y132656D01*
X415523Y132031*
X415295Y131094*
Y130469*
X415523Y129531*
X415977Y128906*
X416432Y128594*
X417114*
X417568Y128906*
X418023Y129531*
X418250Y130469*
Y131094*
X418023Y132031*
X417568Y132656*
X417114Y132969*
X416432*
X420295D02*
Y126406D01*
Y132031D02*
X420750Y132656D01*
X421205Y132969*
X421886*
X422341Y132656*
X422795Y132031*
X423023Y131094*
Y130469*
X422795Y129531*
X422341Y128906*
X421886Y128594*
X421205*
X420750Y128906*
X420295Y129531*
X460523Y135156D02*
Y128594D01*
Y135156D02*
X462568D01*
X463250Y134844*
X463477Y134531*
X463705Y133906*
Y133281*
X463477Y132656*
X463250Y132344*
X462568Y132031*
X460523D02*
X462568D01*
X463250Y131719*
X463477Y131406*
X463705Y130781*
Y129844*
X463477Y129219*
X463250Y128906*
X462568Y128594*
X460523*
X466886Y132969D02*
X466432Y132656D01*
X465977Y132031*
X465750Y131094*
Y130469*
X465977Y129531*
X466432Y128906*
X466886Y128594*
X467568*
X468023Y128906*
X468477Y129531*
X468705Y130469*
Y131094*
X468477Y132031*
X468023Y132656*
X467568Y132969*
X466886*
X471432Y135156D02*
Y129844D01*
X471659Y128906*
X472114Y128594*
X472568*
X470750Y132969D02*
X472341D01*
X407358Y148495D02*
X407151Y149064D01*
X406738Y149633*
X406738D02*
X406324Y149917D01*
X405497*
X405083Y149633*
X404669Y149064*
X404463Y148495*
X404463D02*
X404256Y147642D01*
Y146220*
X404463Y145367*
X404463D02*
X404669Y144798D01*
X405083Y144230*
X405497Y143945*
X406324*
X406738Y144230*
X406738D02*
X407151Y144798D01*
X407358Y145367*
X410253Y147927D02*
X409840Y147642D01*
X409426Y147073*
X409219Y146220*
Y145652*
X409426Y144798*
X409840Y144230*
X410253Y143945*
X410874*
X411288Y144230*
X411288D02*
X411701Y144798D01*
X411908Y145652*
Y146220*
X411701Y147073*
X411288Y147642*
X411288D02*
X410874Y147927D01*
X410253*
X413769D02*
Y141955D01*
Y147073D02*
X414183Y147642D01*
X414597Y147927*
X415217*
X415631Y147642*
X416044Y147073*
X416251Y146220*
Y145652*
X416044Y144798*
X415631Y144230*
X415217Y143945*
X414597*
X414183Y144230*
X413769Y144798*
X418113Y147927D02*
Y141955D01*
Y147073D02*
X418526Y147642D01*
X418940Y147927*
X419560*
X419974Y147642*
X420388Y147073*
X420388D02*
X420594Y146220D01*
Y145652*
X420388Y144798*
X420388D02*
X419974Y144230D01*
X419560Y143945*
X418940*
X418526Y144230*
X418113Y144798*
X422456Y146220D02*
X424938D01*
X424938D02*
Y146789D01*
X424938D02*
X424731Y147358D01*
X424524Y147642*
X424110Y147927*
X423490*
X423076Y147642*
X422663Y147073*
X422663D02*
X422456Y146220D01*
Y145652*
X422663Y144798*
X422663D02*
X423076Y144230D01*
X423490Y143945*
X424110*
X424524Y144230*
X424938Y144798*
X426799Y147927D02*
Y143945D01*
Y146220D02*
X427006Y147073D01*
X427419Y147642*
X427833Y147927*
X428453*
X435072Y149917D02*
Y143945D01*
X437553*
X441897Y147927D02*
Y143945D01*
Y147073D02*
X441483Y147642D01*
X441069Y147927*
X440449*
X440035Y147642*
X439622Y147073*
X439415Y146220*
Y145652*
X439622Y144798*
X440035Y144230*
X440449Y143945*
X441069*
X441483Y144230*
X441897Y144798*
X443965Y147927D02*
X445206Y143945D01*
X446447Y147927D02*
X445206Y143945D01*
X444792Y142808*
X444378Y142239*
X443965Y141955*
X443758*
X448308Y146220D02*
X450790D01*
Y146789*
X450583Y147358*
X450376Y147642*
X449963Y147927*
X449963D02*
X449342D01*
X448928Y147642*
X448515Y147073*
X448308Y146220*
Y145652*
X448515Y144798*
X448928Y144230*
X449342Y143945*
X449963*
X449963D02*
X450376Y144230D01*
X450790Y144798*
X452651Y147927D02*
Y143945D01*
Y146220D02*
X452858Y147073D01*
X453272Y147642*
X453685Y147927*
X454306*
X460924Y149917D02*
Y143945D01*
Y149917D02*
X463819Y143945D01*
Y149917D02*
Y143945D01*
X468163Y147927D02*
Y143945D01*
Y147073D02*
X467749Y147642D01*
X467335Y147927*
X466715*
X466301Y147642*
X465888Y147073*
X465888D02*
X465681Y146220D01*
Y145652*
X465888Y144798*
X465888D02*
X466301Y144230D01*
X466715Y143945*
X467335*
X467749Y144230*
X468163Y144798*
X470024Y147927D02*
Y143945D01*
Y146789D02*
X470644Y147642D01*
X471058Y147927*
X471678*
X472092Y147642*
X472299Y146789*
Y143945*
Y146789D02*
X472919Y147642D01*
X473333Y147927*
X473953*
X474367Y147642*
X474574Y146789*
Y143945*
X476435Y146220D02*
X478917D01*
Y146789*
X478710Y147358*
X478503Y147642*
X478090Y147927*
X477469*
X477056Y147642*
X476642Y147073*
X476435Y146220*
Y145652*
X476642Y144798*
X477056Y144230*
X477469Y143945*
X478090*
X478503Y144230*
X478917Y144798*
X501489Y149064D02*
X501075Y149633D01*
X500455Y149917*
X499627*
X499007Y149633*
X498593Y149064*
Y148495*
X498800Y147927*
X499007Y147642*
X499420Y147358*
X500661Y146789*
X501075Y146505*
X501282Y146220*
X501489Y145652*
Y144798*
X501075Y144230*
X500455Y143945*
X499627*
X499007Y144230*
X498593Y144798*
X503350Y149917D02*
X503557Y149633D01*
X503764Y149917*
X503557Y150202*
X503350Y149917*
X503557Y147927D02*
Y143945D01*
X505625Y149917D02*
Y143945D01*
X507486Y149917D02*
Y143945D01*
X509555Y147927D02*
X507486Y145083D01*
X508314Y146220D02*
X509761Y143945D01*
X513898Y147073D02*
X513691Y147642D01*
X513070Y147927*
X512450*
X511830Y147642*
X511623Y147073*
X511830Y146505*
X512243Y146220*
X513277Y145936*
X513691Y145652*
X513898Y145083*
Y144798*
X513691Y144230*
X513070Y143945*
X512450*
X511830Y144230*
X511623Y144798*
X518241Y147073D02*
X517827Y147642D01*
X517414Y147927*
X516793*
X516380Y147642*
X515966Y147073*
X515759Y146220*
Y145652*
X515966Y144798*
X516380Y144230*
X516793Y143945*
X517414*
X517827Y144230*
X518241Y144798*
X520102Y147927D02*
Y143945D01*
Y146220D02*
X520309Y147073D01*
X520723Y147642*
X521136Y147927*
X521757*
X523618Y146220D02*
X526100D01*
Y146789*
X525893Y147358*
X525686Y147642*
X525273Y147927*
X524652*
X524239Y147642*
X523825Y147073*
X523618Y146220*
Y145652*
X523825Y144798*
X524239Y144230*
X524652Y143945*
X525273*
X525686Y144230*
X526100Y144798*
X527961Y146220D02*
X530443D01*
Y146789*
X530236Y147358*
X530030Y147642*
X529616Y147927*
X528995*
X528582Y147642*
X528168Y147073*
X527961Y146220*
Y145652*
X528168Y144798*
X528582Y144230*
X528995Y143945*
X529616*
X530030Y144230*
X530443Y144798*
X532305Y147927D02*
Y143945D01*
Y146789D02*
X532925Y147642D01*
X533339Y147927*
X533959*
X534373Y147642*
X534580Y146789*
Y143945*
X499159Y135156D02*
Y128594D01*
X497568Y135156D02*
X500750D01*
X503932Y132969D02*
X503477Y132656D01*
X503023Y132031*
X502795Y131094*
Y130469*
X503023Y129531*
X503477Y128906*
X503932Y128594*
X504614*
X505068Y128906*
X505523Y129531*
X505750Y130469*
Y131094*
X505523Y132031*
X505068Y132656*
X504614Y132969*
X503932*
X507795D02*
Y126406D01*
Y132031D02*
X508250Y132656D01*
X508705Y132969*
X509386*
X509841Y132656*
X510295Y132031*
X510523Y131094*
Y130469*
X510295Y129531*
X509841Y128906*
X509386Y128594*
X508705*
X508250Y128906*
X507795Y129531*
G54D14*
X200000Y85000D02*
X742500D01*
Y155000*
X200000*
Y85000*
X492500Y100500D02*
Y155000D01*
X392500Y100500D02*
Y155000D01*
X200000Y125000D02*
X392500D01*
X200000Y100000D02*
X742500D01*
X330000D02*
Y125000D01*
X542500Y100500D02*
Y155000D01*
X592500Y100000D02*
Y154500D01*
X642500Y100500D02*
Y155000D01*
X692500Y100500D02*
Y155000D01*
G54D15*
X219886Y143984D02*
Y134141D01*
X217500Y143984D02*
X222273D01*
X225341D02*
Y134141D01*
Y143984D02*
X229773D01*
X225341Y139297D02*
X228068D01*
X225341Y134141D02*
X229773D01*
X232841Y143984D02*
X237614Y134141D01*
Y143984D02*
X232841Y134141D01*
X243409Y143984D02*
X240682Y134141D01*
X243409Y143984D02*
X246136Y134141D01*
X241705Y137422D02*
X245114D01*
X253977Y142578D02*
X253295Y143516D01*
X252273Y143984*
X250909*
X249886Y143516*
X249205Y142578*
Y141641*
X249545Y140703*
X249886Y140234*
X250568Y139766*
X252614Y138828*
X253295Y138359*
X253636Y137891*
X253977Y136953*
Y135547*
X253295Y134609*
X252273Y134141*
X250909*
X249886Y134609*
X249205Y135547*
X264886Y143984D02*
Y134141D01*
X267955Y143984D02*
Y134141D01*
Y143984D02*
X272727Y134141D01*
Y143984D02*
Y134141D01*
X280568Y142578D02*
X279886Y143516D01*
X278864Y143984*
X277500*
X276477Y143516*
X275795Y142578*
Y141641*
X276136Y140703*
X276477Y140234*
X277159Y139766*
X279205Y138828*
X279886Y138359*
X280227Y137891*
X280568Y136953*
Y135547*
X279886Y134609*
X278864Y134141*
X277500*
X276477Y134609*
X275795Y135547*
X286023Y143984D02*
Y134141D01*
X283636Y143984D02*
X288409D01*
X291477D02*
Y134141D01*
Y143984D02*
X294545D01*
X295568Y143516*
X295909Y143047*
X296250Y142109*
Y141172*
X295909Y140234*
X295568Y139766*
X294545Y139297*
X291477*
X293864D02*
X296250Y134141D01*
X299318Y143984D02*
Y136953D01*
X299659Y135547*
X300341Y134609*
X301364Y134141*
X302045*
X303068Y134609*
X303750Y135547*
X304091Y136953*
Y143984*
X307159D02*
Y134141D01*
Y143984D02*
X309886Y134141D01*
X312614Y143984D02*
X309886Y134141D01*
X312614Y143984D02*
Y134141D01*
X315682Y143984D02*
Y134141D01*
Y143984D02*
X320114D01*
X315682Y139297D02*
X318409D01*
X315682Y134141D02*
X320114D01*
X323182Y143984D02*
Y134141D01*
Y143984D02*
X327955Y134141D01*
Y143984D02*
Y134141D01*
X333409Y143984D02*
Y134141D01*
X331023Y143984D02*
X335795D01*
X343636Y142578D02*
X342955Y143516D01*
X341932Y143984*
X340568*
X339545Y143516*
X338864Y142578*
Y141641*
X339205Y140703*
X339545Y140234*
X340227Y139766*
X342273Y138828*
X342955Y138359*
X343295Y137891*
X343636Y136953*
Y135547*
X342955Y134609*
X341932Y134141*
X340568*
X339545Y134609*
X338864Y135547*
G54D16*
X672091Y95859D02*
X671864Y96172D01*
X671523Y96328*
X671068*
X670727Y96172*
X670500Y95859*
Y95547*
X670614Y95234*
X670727Y95078*
X670955Y94922*
X671636Y94609*
X671864Y94453*
X671977Y94297*
X672091Y93984*
Y93516*
X671864Y93203*
X671523Y93047*
X671068*
X670727Y93203*
X670500Y93516*
X673682Y95234D02*
X673455Y95078D01*
X673227Y94766*
X673114Y94297*
Y93984*
X673227Y93516*
X673455Y93203*
X673682Y93047*
X674023*
X674250Y93203*
X674477Y93516*
X674591Y93984*
Y94297*
X674477Y94766*
X674250Y95078*
X674023Y95234*
X673682*
X676523Y96328D02*
X676295D01*
X676068Y96172*
X675955Y95703*
Y93047*
X675614Y95234D02*
X676409D01*
X677886Y96328D02*
Y93672D01*
X678000Y93203*
X678227Y93047*
X678455*
X677545Y95234D02*
X678341D01*
X679477D02*
X679932Y93047D01*
X680386Y95234D02*
X679932Y93047D01*
X680386Y95234D02*
X680841Y93047D01*
X681295Y95234D02*
X680841Y93047D01*
X683682Y95234D02*
Y93047D01*
Y94766D02*
X683455Y95078D01*
X683227Y95234*
X682886*
X682659Y95078*
X682432Y94766*
X682318Y94297*
Y93984*
X682432Y93516*
X682659Y93203*
X682886Y93047*
X683227*
X683455Y93203*
X683682Y93516*
X684705Y95234D02*
Y93047D01*
Y94297D02*
X684818Y94766D01*
X685045Y95078*
X685273Y95234*
X685614*
X686636Y94297D02*
X688000D01*
Y94609*
X687886Y94922*
X687773Y95078*
X687545Y95234*
X687205*
X686977Y95078*
X686750Y94766*
X686636Y94297*
Y93984*
X686750Y93516*
X686977Y93203*
X687205Y93047*
X687545*
X687773Y93203*
X688000Y93516*
X354000Y96328D02*
Y93047D01*
Y96328D02*
X355477D01*
X354000Y94766D02*
X354909D01*
X354000Y93047D02*
X355477D01*
X356500Y95234D02*
Y93047D01*
Y94609D02*
X356841Y95078D01*
X357068Y95234*
X357409*
X357636Y95078*
X357750Y94609*
Y93047*
X360136Y95234D02*
Y92734D01*
X360023Y92266*
X359909Y92109*
X359682Y91953*
X359341*
X359114Y92109*
X360136Y94766D02*
X359909Y95078D01*
X359682Y95234*
X359341*
X359114Y95078*
X358886Y94766*
X358773Y94297*
Y93984*
X358886Y93516*
X359114Y93203*
X359341Y93047*
X359682*
X359909Y93203*
X360136Y93516*
X361159Y96328D02*
X361273Y96172D01*
X361386Y96328*
X361273Y96484*
X361159Y96328*
X361273Y95234D02*
Y93047D01*
X362409Y95234D02*
Y93047D01*
Y94609D02*
X362750Y95078D01*
X362977Y95234*
X363318*
X363545Y95078*
X363659Y94609*
Y93047*
X364682Y94297D02*
X366045D01*
Y94609*
X365932Y94922*
X365818Y95078*
X365591Y95234*
X365250*
X365023Y95078*
X364795Y94766*
X364682Y94297*
Y93984*
X364795Y93516*
X365023Y93203*
X365250Y93047*
X365591*
X365818Y93203*
X366045Y93516*
X367068Y94297D02*
X368432D01*
Y94609*
X368318Y94922*
X368205Y95078*
X367977Y95234*
X367636*
X367409Y95078*
X367182Y94766*
X367068Y94297*
Y93984*
X367182Y93516*
X367409Y93203*
X367636Y93047*
X367977*
X368205Y93203*
X368432Y93516*
X369455Y95234D02*
Y93047D01*
Y94297D02*
X369568Y94766D01*
X369795Y95078*
X370023Y95234*
X370364*
X371500D02*
X371386Y95078D01*
X371500Y94922*
X371614Y95078*
X371500Y95234*
Y93359D02*
X371386Y93203D01*
X371500Y93047*
X371614Y93203*
X371500Y93359*
X508000Y96328D02*
Y93047D01*
Y96328D02*
X508909Y93047D01*
X509818Y96328D02*
X508909Y93047D01*
X509818Y96328D02*
Y93047D01*
X511409Y95234D02*
X511182Y95078D01*
X510955Y94766*
X510841Y94297*
Y93984*
X510955Y93516*
X511182Y93203*
X511409Y93047*
X511750*
X511977Y93203*
X512205Y93516*
X512318Y93984*
Y94297*
X512205Y94766*
X511977Y95078*
X511750Y95234*
X511409*
X514705Y96328D02*
Y93047D01*
Y94766D02*
X514477Y95078D01*
X514250Y95234*
X513909*
X513682Y95078*
X513455Y94766*
X513341Y94297*
Y93984*
X513455Y93516*
X513682Y93203*
X513909Y93047*
X514250*
X514477Y93203*
X514705Y93516*
X515727Y96328D02*
X515841Y96172D01*
X515955Y96328*
X515841Y96484*
X515727Y96328*
X515841Y95234D02*
Y93047D01*
X517886Y96328D02*
X517659D01*
X517432Y96172*
X517318Y95703*
Y93047*
X516977Y95234D02*
X517773D01*
X518909Y96328D02*
X519023Y96172D01*
X519136Y96328*
X519023Y96484*
X518909Y96328*
X519023Y95234D02*
Y93047D01*
X520159Y94297D02*
X521523D01*
Y94609*
X521409Y94922*
X521295Y95078*
X521068Y95234*
X520727*
X520500Y95078*
X520273Y94766*
X520159Y94297*
Y93984*
X520273Y93516*
X520500Y93203*
X520727Y93047*
X521068*
X521295Y93203*
X521523Y93516*
X523909Y96328D02*
Y93047D01*
Y94766D02*
X523682Y95078D01*
X523455Y95234*
X523114*
X522886Y95078*
X522659Y94766*
X522545Y94297*
Y93984*
X522659Y93516*
X522886Y93203*
X523114Y93047*
X523455*
X523682Y93203*
X523909Y93516*
X527545Y96328D02*
Y93047D01*
Y96328D02*
X528341D01*
X528682Y96172*
X528909Y95859*
X529023Y95547*
X529136Y95078*
Y94297*
X529023Y93828*
X528909Y93516*
X528682Y93203*
X528341Y93047*
X527545*
X531523Y95234D02*
Y93047D01*
Y94766D02*
X531295Y95078D01*
X531068Y95234*
X530727*
X530500Y95078*
X530273Y94766*
X530159Y94297*
Y93984*
X530273Y93516*
X530500Y93203*
X530727Y93047*
X531068*
X531295Y93203*
X531523Y93516*
X532886Y96328D02*
Y93672D01*
X533000Y93203*
X533227Y93047*
X533455*
X532545Y95234D02*
X533341D01*
X534477Y94297D02*
X535841D01*
Y94609*
X535727Y94922*
X535614Y95078*
X535386Y95234*
X535045*
X534818Y95078*
X534591Y94766*
X534477Y94297*
Y93984*
X534591Y93516*
X534818Y93203*
X535045Y93047*
X535386*
X535614Y93203*
X535841Y93516*
X536977Y95234D02*
X536864Y95078D01*
X536977Y94922*
X537091Y95078*
X536977Y95234*
Y93359D02*
X536864Y93203D01*
X536977Y93047*
X537091Y93203*
X536977Y93359*
X433000Y96328D02*
Y93047D01*
Y96328D02*
X434023D01*
X434364Y96172*
X434477Y96016*
X434591Y95703*
Y95234*
X434477Y94922*
X434364Y94766*
X434023Y94609*
X433000*
X437318Y95547D02*
X437205Y95859D01*
X436977Y96172*
X436750Y96328*
X436295*
X436068Y96172*
X435841Y95859*
X435727Y95547*
X435614Y95078*
Y94297*
X435727Y93828*
X435841Y93516*
X436068Y93203*
X436295Y93047*
X436750*
X436977Y93203*
X437205Y93516*
X437318Y93828*
X438341Y96328D02*
Y93047D01*
Y96328D02*
X439364D01*
X439705Y96172*
X439818Y96016*
X439932Y95703*
Y95391*
X439818Y95078*
X439705Y94922*
X439364Y94766*
X438341D02*
X439364D01*
X439705Y94609*
X439818Y94453*
X439932Y94141*
Y93672*
X439818Y93359*
X439705Y93203*
X439364Y93047*
X438341*
X443568Y96328D02*
Y93047D01*
Y96328D02*
X444364D01*
X444705Y96172*
X444932Y95859*
X445045Y95547*
X445159Y95078*
Y94297*
X445045Y93828*
X444932Y93516*
X444705Y93203*
X444364Y93047*
X443568*
X447432Y94766D02*
X447318Y95078D01*
X446977Y95234*
X446636*
X446295Y95078*
X446182Y94766*
X446295Y94453*
X446523Y94297*
X447091Y94141*
X447318Y93984*
X447432Y93672*
Y93516*
X447318Y93203*
X446977Y93047*
X446636*
X446295Y93203*
X446182Y93516*
X449818Y95234D02*
Y92734D01*
X449705Y92266*
X449591Y92109*
X449364Y91953*
X449023*
X448795Y92109*
X449818Y94766D02*
X449591Y95078D01*
X449364Y95234*
X449023*
X448795Y95078*
X448568Y94766*
X448455Y94297*
Y93984*
X448568Y93516*
X448795Y93203*
X449023Y93047*
X449364*
X449591Y93203*
X449818Y93516*
X450841Y95234D02*
Y93047D01*
Y94609D02*
X451182Y95078D01*
X451409Y95234*
X451750*
X451977Y95078*
X452091Y94609*
Y93047*
X453114Y95234D02*
Y93047D01*
Y94297D02*
X453227Y94766D01*
X453455Y95078*
X453682Y95234*
X454023*
X455159D02*
X455045Y95078D01*
X455159Y94922*
X455273Y95078*
X455159Y95234*
Y93359D02*
X455045Y93203D01*
X455159Y93047*
X455273Y93203*
X455159Y93359*
X202500Y96328D02*
Y93047D01*
Y96328D02*
X203295D01*
X203636Y96172*
X203864Y95859*
X203977Y95547*
X204091Y95078*
Y94297*
X203977Y93828*
X203864Y93516*
X203636Y93203*
X203295Y93047*
X202500*
X206477Y95234D02*
Y93047D01*
Y94766D02*
X206250Y95078D01*
X206023Y95234*
X205682*
X205455Y95078*
X205227Y94766*
X205114Y94297*
Y93984*
X205227Y93516*
X205455Y93203*
X205682Y93047*
X206023*
X206250Y93203*
X206477Y93516*
X207841Y96328D02*
Y93672D01*
X207955Y93203*
X208182Y93047*
X208409*
X207500Y95234D02*
X208295D01*
X209432Y94297D02*
X210795D01*
Y94609*
X210682Y94922*
X210568Y95078*
X210341Y95234*
X210000*
X209773Y95078*
X209545Y94766*
X209432Y94297*
Y93984*
X209545Y93516*
X209773Y93203*
X210000Y93047*
X210341*
X210568Y93203*
X210795Y93516*
X211932Y95234D02*
X211818Y95078D01*
X211932Y94922*
X212045Y95078*
X211932Y95234*
Y93359D02*
X211818Y93203D01*
X211932Y93047*
X212045Y93203*
X211932Y93359*
X262500Y96328D02*
Y93047D01*
Y96328D02*
X263977D01*
X262500Y94766D02*
X263409D01*
X265000Y96328D02*
X265114Y96172D01*
X265227Y96328*
X265114Y96484*
X265000Y96328*
X265114Y95234D02*
Y93047D01*
X266250Y96328D02*
Y93047D01*
X267273Y94297D02*
X268636D01*
Y94609*
X268523Y94922*
X268409Y95078*
X268182Y95234*
X267841*
X267614Y95078*
X267386Y94766*
X267273Y94297*
Y93984*
X267386Y93516*
X267614Y93203*
X267841Y93047*
X268182*
X268409Y93203*
X268636Y93516*
X269659Y95234D02*
Y93047D01*
Y94609D02*
X270000Y95078D01*
X270227Y95234*
X270568*
X270795Y95078*
X270909Y94609*
Y93047*
X273295Y95234D02*
Y93047D01*
Y94766D02*
X273068Y95078D01*
X272841Y95234*
X272500*
X272273Y95078*
X272045Y94766*
X271932Y94297*
Y93984*
X272045Y93516*
X272273Y93203*
X272500Y93047*
X272841*
X273068Y93203*
X273295Y93516*
X274318Y95234D02*
Y93047D01*
Y94609D02*
X274659Y95078D01*
X274886Y95234*
X275227*
X275455Y95078*
X275568Y94609*
Y93047*
Y94609D02*
X275909Y95078D01*
X276136Y95234*
X276477*
X276705Y95078*
X276818Y94609*
Y93047*
X277841Y94297D02*
X279205D01*
Y94609*
X279091Y94922*
X278977Y95078*
X278750Y95234*
X278409*
X278182Y95078*
X277955Y94766*
X277841Y94297*
Y93984*
X277955Y93516*
X278182Y93203*
X278409Y93047*
X278750*
X278977Y93203*
X279205Y93516*
X280341Y95234D02*
X280227Y95078D01*
X280341Y94922*
X280455Y95078*
X280341Y95234*
Y93359D02*
X280227Y93203D01*
X280341Y93047*
X280455Y93203*
X280341Y93359*
X332500Y121328D02*
Y118047D01*
Y121328D02*
X333523D01*
X333864Y121172*
X333977Y121016*
X334091Y120703*
Y120391*
X333977Y120078*
X333864Y119922*
X333523Y119766*
X332500*
X333295D02*
X334091Y118047D01*
X335114Y119297D02*
X336477D01*
Y119609*
X336364Y119922*
X336250Y120078*
X336023Y120234*
X335682*
X335455Y120078*
X335227Y119766*
X335114Y119297*
Y118984*
X335227Y118516*
X335455Y118203*
X335682Y118047*
X336023*
X336250Y118203*
X336477Y118516*
X337500Y120234D02*
X338182Y118047D01*
X338864Y120234D02*
X338182Y118047D01*
X340000Y118359D02*
X339886Y118203D01*
X340000Y118047*
X340114Y118203*
X340000Y118359*
X205000Y121328D02*
Y118047D01*
Y121328D02*
X206023D01*
X206364Y121172*
X206477Y121016*
X206591Y120703*
Y120391*
X206477Y120078*
X206364Y119922*
X206023Y119766*
X205000D02*
X206023D01*
X206364Y119609*
X206477Y119453*
X206591Y119141*
Y118672*
X206477Y118359*
X206364Y118203*
X206023Y118047*
X205000*
X208182Y120234D02*
X207955Y120078D01*
X207727Y119766*
X207614Y119297*
Y118984*
X207727Y118516*
X207955Y118203*
X208182Y118047*
X208523*
X208750Y118203*
X208977Y118516*
X209091Y118984*
Y119297*
X208977Y119766*
X208750Y120078*
X208523Y120234*
X208182*
X211477D02*
Y118047D01*
Y119766D02*
X211250Y120078D01*
X211023Y120234*
X210682*
X210455Y120078*
X210227Y119766*
X210114Y119297*
Y118984*
X210227Y118516*
X210455Y118203*
X210682Y118047*
X211023*
X211250Y118203*
X211477Y118516*
X212500Y120234D02*
Y118047D01*
Y119297D02*
X212614Y119766D01*
X212841Y120078*
X213068Y120234*
X213409*
X215795Y121328D02*
Y118047D01*
Y119766D02*
X215568Y120078D01*
X215341Y120234*
X215000*
X214773Y120078*
X214545Y119766*
X214432Y119297*
Y118984*
X214545Y118516*
X214773Y118203*
X215000Y118047*
X215341*
X215568Y118203*
X215795Y118516*
X219432Y121328D02*
Y118047D01*
Y121328D02*
X221023Y118047D01*
Y121328D02*
Y118047D01*
X222614Y120234D02*
X222386Y120078D01*
X222159Y119766*
X222045Y119297*
Y118984*
X222159Y118516*
X222386Y118203*
X222614Y118047*
X222955*
X223182Y118203*
X223409Y118516*
X223523Y118984*
Y119297*
X223409Y119766*
X223182Y120078*
X222955Y120234*
X222614*
X224659Y118359D02*
X224545Y118203D01*
X224659Y118047*
X224773Y118203*
X224659Y118359*
G54D18*
G54D21*
X286682Y93313D02*
Y91063D01*
X286000Y92750D02*
X287364Y91625D01*
Y92750D02*
X286000Y91625D01*
X288727Y90875D02*
X288591Y90688D01*
X288591D02*
X288727Y90500D01*
X288864Y90688*
X288864D02*
X288727Y90875D01*
X290091Y93125D02*
Y89187D01*
Y92563D02*
X290364Y92938D01*
X290364D02*
X290636Y93125D01*
X291045*
X291318Y92938*
X291318D02*
X291591Y92563D01*
X291591D02*
X291727Y92000D01*
Y91625*
X291591Y91063*
X291591D02*
X291318Y90688D01*
X291318D02*
X291045Y90500D01*
X290636*
X290364Y90688*
X290364D02*
X290091Y91063D01*
X294591Y92563D02*
X294318Y92938D01*
X294318D02*
X294045Y93125D01*
X293636*
X293364Y92938*
X293364D02*
X293091Y92563D01*
X293091D02*
X292955Y92000D01*
Y91625*
X293091Y91063*
X293091D02*
X293364Y90688D01*
X293364D02*
X293636Y90500D01*
X294045*
X294318Y90688*
X294318D02*
X294591Y91063D01*
X295818Y94438D02*
Y90500D01*
Y92563D02*
X296091Y92938D01*
X296091D02*
X296364Y93125D01*
X296773*
X297045Y92938*
X297045D02*
X297318Y92563D01*
X297318D02*
X297455Y92000D01*
Y91625*
X297318Y91063*
X297318D02*
X297045Y90688D01*
X297045D02*
X296773Y90500D01*
X296364*
X296091Y90688*
X296091D02*
X295818Y91063D01*
X216000Y93688D02*
X216273Y93875D01*
X216682Y94438*
X216682D02*
Y90500D01*
X217909Y93688D02*
X218182Y93875D01*
X218591Y94438*
X218591D02*
Y90500D01*
X222273Y95188D02*
X219818Y89187D01*
X223500Y93688D02*
X223773Y93875D01*
X224182Y94438*
X224182D02*
Y90500D01*
X227864Y95188D02*
X225409Y89187D01*
X229227Y93500D02*
Y93688D01*
X229227D02*
X229364Y94063D01*
X229364D02*
X229500Y94250D01*
X229773Y94438*
X229773D02*
X230318D01*
X230318D02*
X230591Y94250D01*
X230727Y94063*
X230727D02*
X230864Y93688D01*
X230864D02*
Y93313D01*
X230864D02*
X230727Y92938D01*
X230727D02*
X230455Y92375D01*
X229091Y90500*
X231000*
X233045Y94438D02*
X232636Y94250D01*
X232364Y93688*
X232364D02*
X232227Y92750D01*
Y92188*
X232227D02*
X232364Y91250D01*
X232636Y90688*
X232636D02*
X233045Y90500D01*
X233318*
X233727Y90688*
X233727D02*
X234000Y91250D01*
X234136Y92188*
X234136D02*
Y92750D01*
X234000Y93688*
X234000D02*
X233727Y94250D01*
X233318Y94438*
X233318D02*
X233045D01*
X235364Y93688D02*
X235636Y93875D01*
X236045Y94438*
X236045D02*
Y90500D01*
X237273Y93688D02*
X237545Y93875D01*
X237955Y94438*
X237955D02*
Y90500D01*
X376000Y94438D02*
Y90500D01*
Y94438D02*
X376955D01*
X376955D02*
X377364Y94250D01*
X377636Y93875*
X377773Y93500*
X377909Y92938*
X377909D02*
Y92000D01*
X377773Y91438*
X377773D02*
X377636Y91063D01*
X377636D02*
X377364Y90688D01*
X377364D02*
X376955Y90500D01*
X376000*
X379273Y90875D02*
X379136Y90688D01*
X379136D02*
X379273Y90500D01*
X379409Y90688*
X379409D02*
X379273Y90875D01*
X385682Y93875D02*
X385409Y94250D01*
X385000Y94438*
X385000D02*
X384455D01*
X384455D02*
X384045Y94250D01*
X383773Y93875*
Y93500*
X383909Y93125*
X384045Y92938*
X384045D02*
X384318Y92750D01*
X385136Y92375*
X385409Y92188*
X385409D02*
X385545Y92000D01*
X385682Y91625*
Y91063*
X385682D02*
X385409Y90688D01*
X385409D02*
X385000Y90500D01*
X384455*
X384045Y90688*
X384045D02*
X383773Y91063D01*
X388545Y92563D02*
X388273Y92938D01*
X388273D02*
X388000Y93125D01*
X387591*
X387318Y92938*
X387318D02*
X387045Y92563D01*
X387045D02*
X386909Y92000D01*
Y91625*
X387045Y91063*
X387045D02*
X387318Y90688D01*
X387318D02*
X387591Y90500D01*
X388000*
X388273Y90688*
X388273D02*
X388545Y91063D01*
X389773Y94438D02*
Y90500D01*
Y92375D02*
X390182Y92938D01*
X390182D02*
X390455Y93125D01*
X390864*
X391136Y92938*
X391136D02*
X391273Y92375D01*
Y90500*
X392500Y93125D02*
Y90500D01*
Y92375D02*
X392909Y92938D01*
X392909D02*
X393182Y93125D01*
X393591*
X393864Y92938*
X393864D02*
X394000Y92375D01*
Y90500*
X395227Y92000D02*
X396864D01*
Y92375*
X396727Y92750*
X396591Y92938*
X396591D02*
X396318Y93125D01*
X395909*
X395636Y92938*
X395636D02*
X395364Y92563D01*
X395364D02*
X395227Y92000D01*
Y91625*
X395364Y91063*
X395364D02*
X395636Y90688D01*
X395636D02*
X395909Y90500D01*
X396318*
X396591Y90688*
X396591D02*
X396864Y91063D01*
X398091Y94438D02*
X398227Y94250D01*
X398364Y94438*
X398364D02*
X398227Y94625D01*
X398091Y94438*
X398227Y93125D02*
Y90500D01*
X401227Y94438D02*
Y90500D01*
Y92563D02*
X400955Y92938D01*
X400955D02*
X400682Y93125D01*
X400273*
X400000Y92938*
X400000D02*
X399727Y92563D01*
X399727D02*
X399591Y92000D01*
Y91625*
X399727Y91063*
X399727D02*
X400000Y90688D01*
X400000D02*
X400273Y90500D01*
X400682*
X400955Y90688*
X400955D02*
X401227Y91063D01*
X402455Y92000D02*
X404091D01*
Y92375*
X403955Y92750*
X403818Y92938*
X403818D02*
X403545Y93125D01*
X403136*
X402864Y92938*
X402864D02*
X402591Y92563D01*
X402591D02*
X402455Y92000D01*
Y91625*
X402591Y91063*
X402591D02*
X402864Y90688D01*
X402864D02*
X403136Y90500D01*
X403545*
X403818Y90688*
X403818D02*
X404091Y91063D01*
X405318Y93125D02*
Y90500D01*
Y92000D02*
X405455Y92563D01*
X405455D02*
X405727Y92938D01*
X405727D02*
X406000Y93125D01*
X406409*
X461000Y94438D02*
Y90500D01*
Y94438D02*
X461955D01*
X461955D02*
X462364Y94250D01*
X462636Y93875*
X462773Y93500*
X462909Y92938*
X462909D02*
Y92000D01*
X462773Y91438*
X462773D02*
X462636Y91063D01*
X462636D02*
X462364Y90688D01*
X462364D02*
X461955Y90500D01*
X461000*
X464273Y90875D02*
X464136Y90688D01*
X464136D02*
X464273Y90500D01*
X464409Y90688*
X464409D02*
X464273Y90875D01*
X470682Y93875D02*
X470409Y94250D01*
X470000Y94438*
X470000D02*
X469455D01*
X469455D02*
X469045Y94250D01*
X468773Y93875*
Y93500*
X468909Y93125*
X469045Y92938*
X469045D02*
X469318Y92750D01*
X470136Y92375*
X470409Y92188*
X470409D02*
X470545Y92000D01*
X470682Y91625*
Y91063*
X470682D02*
X470409Y90688D01*
X470409D02*
X470000Y90500D01*
X469455*
X469045Y90688*
X469045D02*
X468773Y91063D01*
X473545Y92563D02*
X473273Y92938D01*
X473273D02*
X473000Y93125D01*
X472591*
X472318Y92938*
X472318D02*
X472045Y92563D01*
X472045D02*
X471909Y92000D01*
Y91625*
X472045Y91063*
X472045D02*
X472318Y90688D01*
X472318D02*
X472591Y90500D01*
X473000*
X473273Y90688*
X473273D02*
X473545Y91063D01*
X474773Y94438D02*
Y90500D01*
Y92375D02*
X475182Y92938D01*
X475182D02*
X475455Y93125D01*
X475864*
X476136Y92938*
X476136D02*
X476273Y92375D01*
Y90500*
X477500Y93125D02*
Y90500D01*
Y92375D02*
X477909Y92938D01*
X477909D02*
X478182Y93125D01*
X478591*
X478864Y92938*
X478864D02*
X479000Y92375D01*
Y90500*
X480227Y92000D02*
X481864D01*
Y92375*
X481727Y92750*
X481591Y92938*
X481591D02*
X481318Y93125D01*
X480909*
X480636Y92938*
X480636D02*
X480364Y92563D01*
X480364D02*
X480227Y92000D01*
Y91625*
X480364Y91063*
X480364D02*
X480636Y90688D01*
X480636D02*
X480909Y90500D01*
X481318*
X481591Y90688*
X481591D02*
X481864Y91063D01*
X483091Y94438D02*
X483227Y94250D01*
X483364Y94438*
X483364D02*
X483227Y94625D01*
X483091Y94438*
X483227Y93125D02*
Y90500D01*
X486227Y94438D02*
Y90500D01*
Y92563D02*
X485955Y92938D01*
X485955D02*
X485682Y93125D01*
X485273*
X485000Y92938*
X485000D02*
X484727Y92563D01*
X484727D02*
X484591Y92000D01*
Y91625*
X484727Y91063*
X484727D02*
X485000Y90688D01*
X485000D02*
X485273Y90500D01*
X485682*
X485955Y90688*
X485955D02*
X486227Y91063D01*
X487455Y92000D02*
X489091D01*
Y92375*
X488955Y92750*
X488818Y92938*
X488818D02*
X488545Y93125D01*
X488136*
X487864Y92938*
X487864D02*
X487591Y92563D01*
X487591D02*
X487455Y92000D01*
Y91625*
X487591Y91063*
X487591D02*
X487864Y90688D01*
X487864D02*
X488136Y90500D01*
X488545*
X488818Y90688*
X488818D02*
X489091Y91063D01*
X490318Y93125D02*
Y90500D01*
Y92000D02*
X490455Y92563D01*
X490455D02*
X490727Y92938D01*
X490727D02*
X491000Y93125D01*
X491409*
X541136Y93500D02*
Y93688D01*
X541136D02*
X541273Y94063D01*
X541273D02*
X541409Y94250D01*
X541682Y94438*
X541682D02*
X542227D01*
X542227D02*
X542500Y94250D01*
X542636Y94063*
X542636D02*
X542773Y93688D01*
X542773D02*
Y93313D01*
X542773D02*
X542636Y92938D01*
X542636D02*
X542364Y92375D01*
X541000Y90500*
X542909*
X546591Y95188D02*
X544136Y89187D01*
X547818Y93688D02*
X548091Y93875D01*
X548500Y94438*
X548500D02*
Y90500D01*
X550409Y94438D02*
X550000Y94250D01*
X549864Y93875*
Y93500*
X550000Y93125*
X550273Y92938*
X550273D02*
X550818Y92750D01*
X551227Y92563*
X551227D02*
X551500Y92188D01*
X551500D02*
X551636Y91813D01*
X551636D02*
Y91250D01*
X551500Y90875*
X551364Y90688*
X551364D02*
X550955Y90500D01*
X550409*
X550000Y90688*
X550000D02*
X549864Y90875D01*
X549727Y91250*
Y91813*
X549727D02*
X549864Y92188D01*
X549864D02*
X550136Y92563D01*
X550136D02*
X550545Y92750D01*
X551091Y92938*
X551091D02*
X551364Y93125D01*
X551500Y93500*
Y93875*
X551364Y94250*
X550955Y94438*
X550955D02*
X550409D01*
X555318Y95188D02*
X552864Y89187D01*
X556682Y93500D02*
Y93688D01*
X556682D02*
X556818Y94063D01*
X556818D02*
X556955Y94250D01*
X557227Y94438*
X557227D02*
X557773D01*
X557773D02*
X558045Y94250D01*
X558182Y94063*
X558182D02*
X558318Y93688D01*
X558318D02*
Y93313D01*
X558318D02*
X558182Y92938D01*
X558182D02*
X557909Y92375D01*
X556545Y90500*
X558455*
X560500Y94438D02*
X560091Y94250D01*
X559818Y93688*
X559818D02*
X559682Y92750D01*
Y92188*
X559682D02*
X559818Y91250D01*
X560091Y90688*
X560091D02*
X560500Y90500D01*
X560773*
X561182Y90688*
X561182D02*
X561455Y91250D01*
X561591Y92188*
X561591D02*
Y92750D01*
X561455Y93688*
X561455D02*
X561182Y94250D01*
X560773Y94438*
X560773D02*
X560500D01*
X562818Y93688D02*
X563091Y93875D01*
X563500Y94438*
X563500D02*
Y90500D01*
X565000Y94438D02*
X566500D01*
X566500D02*
X565682Y92938D01*
X565682D02*
X566091D01*
X566091D02*
X566364Y92750D01*
X566500Y92563*
X566500D02*
X566636Y92000D01*
Y91625*
X566500Y91063*
X566500D02*
X566227Y90688D01*
X566227D02*
X565818Y90500D01*
X565409*
X565000Y90688*
X565000D02*
X564864Y90875D01*
X564727Y91250*
X692000Y94438D02*
Y90500D01*
Y94438D02*
X693227D01*
X693227D02*
X693636Y94250D01*
X693773Y94063*
X693773D02*
X693909Y93688D01*
X693909D02*
Y93125D01*
X693773Y92750*
X693636Y92563*
X693636D02*
X693227Y92375D01*
X692000*
X696227Y94438D02*
X695136Y90500D01*
X696227Y94438D02*
X697318Y90500D01*
X695545Y91813D02*
X696909D01*
X698545Y94438D02*
Y90500D01*
Y94438D02*
X699500D01*
X699500D02*
X699909Y94250D01*
X700182Y93875*
X700318Y93500*
X700455Y92938*
X700455D02*
Y92000D01*
X700318Y91438*
X700318D02*
X700182Y91063D01*
X700182D02*
X699909Y90688D01*
X699909D02*
X699500Y90500D01*
X698545*
X703182Y92563D02*
X703045Y92938D01*
X703045D02*
X702636Y93125D01*
X702227*
X701818Y92938*
X701818D02*
X701682Y92563D01*
X701682D02*
X701818Y92188D01*
X701818D02*
X702091Y92000D01*
X702773Y91813*
X702773D02*
X703045Y91625D01*
X703182Y91250*
Y91063*
X703182D02*
X703045Y90688D01*
X703045D02*
X702636Y90500D01*
X702227*
X701818Y90688*
X701818D02*
X701682Y91063D01*
X707545Y93125D02*
X708364Y90500D01*
X709182Y93125D02*
X708364Y90500D01*
X712182Y93125D02*
X712045Y92563D01*
X712045D02*
X711773Y92188D01*
X711773D02*
X711364Y92000D01*
X711227*
X710818Y92188*
X710818D02*
X710545Y92563D01*
X710545D02*
X710409Y93125D01*
Y93313*
X710409D02*
X710545Y93875D01*
X710818Y94250*
X711227Y94438*
X711227D02*
X711364D01*
X711364D02*
X711773Y94250D01*
X712045Y93875*
X712182Y93125*
Y92188*
X712182D02*
X712045Y91250D01*
X711773Y90688*
X711773D02*
X711364Y90500D01*
X711091*
X710682Y90688*
X710682D02*
X710545Y91063D01*
X713545Y90875D02*
X713409Y90688D01*
X713409D02*
X713545Y90500D01*
X713682Y90688*
X713682D02*
X713545Y90875D01*
X715182Y94438D02*
X716682D01*
X716682D02*
X715864Y92938D01*
X715864D02*
X716273D01*
X716273D02*
X716545Y92750D01*
X716682Y92563*
X716682D02*
X716818Y92000D01*
Y91625*
X716682Y91063*
X716682D02*
X716409Y90688D01*
X716409D02*
X716000Y90500D01*
X715591*
X715182Y90688*
X715182D02*
X715045Y90875D01*
X714909Y91250*
G54D24*
X280000Y275000D03*
X340000Y245000D03*
X285000Y260000D03*
X280000Y245000D03*
X340000Y285000D03*
X280000Y225000D03*
X276000Y310000D03*
X320500Y305000D03*
G54D25*
X239100Y208200D02*
X250000Y219100D01*
Y225000*
X370800Y208200D02*
X371000Y208000D01*
X250000Y225000D02*
X255500Y230500D01*
X360000Y225000D02*
Y219000D01*
X370800Y208200*
X239100Y231700D02*
X246000D01*
X249300Y235000*
X250000*
X283000Y232500D02*
X294500Y221000D01*
X295000*
X287000Y233500D02*
X296000Y224500D01*
X292500Y233000D02*
X297500Y228000D01*
X302000*
X354500Y230500D02*
Y267500D01*
X357000Y270000*
X363000*
X366000Y273000*
Y303400*
X370800Y308200*
X354500Y230500D02*
X360000Y225000D01*
Y235000D02*
X363300Y231700D01*
X370800*
X360000Y245000D02*
X360600D01*
X366100Y250500*
Y265000*
X370800Y269700*
X239100D02*
X244000Y264800D01*
Y248500*
X247500Y245000*
X250000*
X288000Y273000D02*
Y266500D01*
Y273000*
X354500Y267500D02*
Y230500D01*
X360000Y225000*
X354500Y267500D02*
X357000Y270000D01*
X363000*
X366000Y273000*
Y303400*
X370800Y308200*
X239100D02*
X243900Y303400D01*
Y273500*
X247400Y270000*
X252000*
X255500Y266500*
Y230500*
G54D26*
X204500Y204500D03*
X258000Y206000D03*
X403000Y205500D03*
X249000Y211500D03*
X257000Y212000D03*
X265000Y209500D03*
X281500Y209000D03*
X295000Y210500D03*
X334000Y215500D03*
X337000Y207500D03*
X399000Y213500D03*
X215000Y220000D03*
X242500Y218500D03*
X271500Y219500D03*
X295000Y221000D03*
X296000Y224500D03*
X351500Y216500D03*
X363000Y220000D03*
X369500D03*
X215000Y230000D03*
X258000Y227500D03*
X274000Y236000D03*
X283000Y232500D03*
X287000Y233500D03*
X292500Y233000D03*
X302000Y228000D03*
X321000Y232500D03*
X333000Y230500D03*
X346500Y227500D03*
X361000Y230000D03*
X369500Y228500D03*
X395000Y230000D03*
X215000Y240000D03*
X240500D03*
X259000Y246000D03*
X276000D03*
X293500Y239000D03*
X362500Y240000D03*
X369000D03*
X395000D03*
X215000Y250000D03*
X241000D03*
X298000Y248000D03*
X324000Y249000D03*
X349000Y247000D03*
X361500Y250000D03*
X395000D03*
X215000Y260000D03*
X240500Y261500D03*
X275000Y259500D03*
X310500D03*
X328500Y260500D03*
X362500Y260000D03*
X395000D03*
X215000Y270000D03*
X288000Y266500D03*
Y273000D03*
X294500Y275000D03*
X316000Y271500D03*
X342500Y275000D03*
X395000Y270000D03*
X215000Y280000D03*
X247500D03*
X240500Y279500D03*
X257500Y282000D03*
X288000Y279500D03*
X330500Y285500D03*
X369500Y280000D03*
X395000D03*
X215000Y290000D03*
X241000D03*
X247500D03*
X259000Y293000D03*
X285000Y290000D03*
X309000Y295000D03*
X326000Y291500D03*
X321000Y294000D03*
X333500Y290000D03*
X351000Y293000D03*
X369500Y290000D03*
X395000D03*
X215000Y300000D03*
X241000D03*
X247500D03*
X255500Y299000D03*
X262000Y299500D03*
Y305500D03*
X275000Y298000D03*
X300500Y297000D03*
X308500Y303000D03*
X311000Y298000D03*
X327500Y299500D03*
X328500Y305000D03*
X369500Y301000D03*
X395000Y300000D03*
X215000Y310000D03*
X242000D03*
X281000Y315500D03*
Y311000D03*
X298000Y311500D03*
X310500Y307000D03*
X321000Y309000D03*
X362500Y310000D03*
X369000Y311000D03*
X395000Y310000D03*
X215000Y320000D03*
X242500Y322000D03*
X280000Y319500D03*
X287000Y325000D03*
X280500Y324500D03*
X293500Y325000D03*
X313500Y324000D03*
X325500Y321500D03*
X327000Y316500D03*
X320000Y318500D03*
X333000Y316500D03*
X341500Y325500D03*
X349000Y324500D03*
X362500Y320000D03*
X369000D03*
X395000D03*
X206000Y328000D03*
X254000Y327500D03*
X261000Y331000D03*
X272000D03*
X281500D03*
X295000D03*
X311500Y328000D03*
X323000Y329500D03*
X367500Y331000D03*
X405000Y330000D03*
G54D41*
X239100Y269700D03*
Y231700D03*
Y208200D03*
Y308200D03*
X370800Y269700D03*
Y231700D03*
Y208200D03*
Y308200D03*
G54D42*
X250000Y315000D03*
X360000D03*
G54D43*
X250000Y305000D03*
Y295000D03*
Y285000D03*
Y275000D03*
Y265000D03*
Y255000D03*
Y245000D03*
Y235000D03*
Y225000D03*
X360000Y305000D03*
Y295000D03*
Y285000D03*
Y275000D03*
Y265000D03*
Y255000D03*
Y245000D03*
Y235000D03*
Y225000D03*
G74*
X0Y0D02*
M02*
