*
*
G04 PADS 9.3 Build Number: 433611 generated Gerber (RS-274-X) file*
G04 PC Version=2.1*
*
%IN "430BOOST-SHARP96.pcb"*%
*
%MOIN*%
*
%FSLAX35Y35*%
*
*
*
*
G04 PC Standard Apertures*
*
*
G04 Thermal Relief Aperture macro.*
%AMTER*
1,1,$1,0,0*
1,0,$1-$2,0,0*
21,0,$3,$4,0,0,45*
21,0,$3,$4,0,0,135*
%
*
*
G04 Annular Aperture macro.*
%AMANN*
1,1,$1,0,0*
1,0,$2,0,0*
%
*
*
G04 Odd Aperture macro.*
%AMODD*
1,1,$1,0,0*
1,0,$1-0.005,0,0*
%
*
*
G04 PC Custom Aperture Macros*
*
*
*
*
*
*
G04 PC Aperture Table*
*
%ADD011C,0.012*%
%ADD012C,0.0125*%
%ADD013C,0.01*%
%ADD014C,0.02*%
%ADD015C,0.015*%
%ADD016C,0.005*%
%ADD018C,0.001*%
%ADD021C,0.008*%
%ADD036C,0.006*%
%ADD038C,0.002*%
%ADD052C,0.0075*%
*
*
*
*
G04 PC Circuitry*
G04 Layer Name 430BOOST-SHARP96.pcb - circuitry*
%LPD*%
*
G54D18*
G01X402225Y325050D02*
X402140Y325347D01*
X401987Y325654*
X401729Y326065*
X401265Y326582*
X400850Y326945*
X400843Y326953*
X400686Y327161*
X400681Y327169*
X400577Y327378*
X400573Y327390*
X400521Y327651*
X400522Y327677*
X400626Y327990*
X400646Y328016*
X400803Y328120*
X400818Y328127*
X401027Y328179*
X401055Y328178*
X401211Y328126*
X401223Y328120*
X401380Y328016*
X401394Y328002*
X401498Y327845*
X401506Y327827*
X401549Y327610*
X402173Y327654*
X402037Y328108*
X401787Y328458*
X401441Y328656*
X400987Y328706*
X400536Y328656*
X400186Y328407*
X399939Y328110*
X399890Y327715*
X399991Y327261*
X400245Y326804*
X400707Y326342*
X400966Y326135*
X400970Y326131*
X401127Y325974*
X401131Y325969*
X401288Y325760*
X401248Y325680*
X399889*
Y325050*
X402225*
X399320Y327342D02*
X399217Y327751D01*
X399115Y328059*
X398965Y328358*
X398619Y328605*
X398118Y328705*
X397669Y328606*
X397322Y328358*
X397172Y328059*
X397070Y327751*
X396967Y327342*
Y326363*
X397070Y325952*
X397172Y325594*
X397320Y325348*
X397669Y325099*
X398123Y324998*
X398369*
X398619Y325098*
X398815Y325196*
X398963Y325393*
X399115Y325647*
X399217Y325953*
X399320Y326363*
Y327342*
X398689Y327400D02*
Y326304D01*
X398688Y326296*
X398636Y325983*
X398632Y325969*
X398527Y325760*
X398524Y325755*
X398420Y325598*
X398388Y325577*
X398127Y325525*
X398105*
X397897Y325578*
X397867Y325598*
X397763Y325755*
X397757Y325767*
X397705Y325923*
X397704Y325925*
X397600Y326291*
X397598Y326304*
Y327400*
X397599Y327408*
X397651Y327721*
X397655Y327735*
X397760Y327944*
X397769Y327957*
X397873Y328061*
X397886Y328071*
X398095Y328175*
X398136Y328177*
X398397Y328073*
X398414Y328061*
X398518Y327957*
X398530Y327938*
X398582Y327781*
X398583Y327779*
X398687Y327414*
X398689Y327400*
X368701Y210471D02*
X366176D01*
Y210417*
X366281*
X366291Y210416*
X366676Y210339*
X366711Y210312*
X366866Y210003*
X366871Y209981*
Y205889*
X366866Y205867*
X366789Y205713*
X366779Y205700*
X366625Y205545*
X366602Y205532*
X366293Y205455*
X366281Y205454*
X366176*
Y205399*
X368701*
Y205454*
X368596*
X368587*
X368201Y205532*
X368166Y205558*
X368011Y205867*
X368006Y205889*
Y210135*
X368028Y210177*
X368260Y210331*
X368276Y210338*
X368584Y210415*
X368596Y210417*
X368701*
Y210471*
X369704Y216371D02*
X365173D01*
Y215082*
X365243*
X365384Y215433*
X365460Y215738*
X365481Y215768*
X365944Y216077*
X365950Y216080*
X366104Y216157*
X366126Y216162*
X366821*
X366871Y216112*
Y211789*
X366866Y211767*
X366789Y211613*
X366779Y211600*
X366625Y211445*
X366602Y211432*
X366293Y211355*
X366281Y211354*
X366176*
Y211299*
X368701*
Y211354*
X368596*
X368587*
X368201Y211432*
X368166Y211458*
X368011Y211767*
X368006Y211789*
Y216112*
X368056Y216162*
X368442*
X368450*
X368913Y216084*
X368928Y216080*
X369236Y215925*
X369257Y215906*
X369488Y215520*
X369493Y215511*
X369636Y215082*
X369704*
Y216371*
X365771Y208682D02*
X364666D01*
X363109Y206735*
X363020Y206767*
Y208339*
X363029Y208366*
X363127Y208514*
X363141Y208528*
X363288Y208626*
X363304Y208633*
X363462Y208672*
Y208682*
X362482*
Y208672*
X362640Y208633*
X362650Y208629*
X362749Y208580*
X362762Y208570*
X362860Y208472*
X362872Y208453*
X362921Y208305*
X362924Y208289*
Y205441*
X362948*
X365094Y208124*
X365183Y208093*
Y205981*
X365182Y205971*
X365133Y205725*
X365129Y205713*
X365080Y205614*
X365063Y205595*
X364915Y205497*
X364901Y205490*
X365562*
X365548Y205497*
X365400Y205595*
X365386Y205609*
X365288Y205756*
X365280Y205784*
Y208339*
X365285Y208361*
X365334Y208459*
X365349Y208477*
X365545Y208624*
X365566Y208633*
X365771Y208674*
Y208682*
X365548Y211290D02*
X365306Y211339D01*
X365271Y211365*
X365173Y211562*
X365168Y211584*
Y214237*
X365176Y214265*
X365274Y214412*
X365306Y214433*
X365548Y214482*
X362959*
Y213599*
X362971*
X363058Y213860*
X363061Y213866*
X363159Y214063*
X363168Y214076*
X363316Y214223*
X363329Y214232*
X363525Y214331*
X363535Y214334*
X363732Y214384*
X363744Y214385*
X364432*
X364482Y214335*
Y212960*
X364432Y212910*
X364382*
X364374*
X364079Y212959*
X364079D02*
X364052Y212973D01*
X363905Y213121*
X363897Y213130*
X363750Y213376*
X363743Y213395*
X363700Y213696*
X363696*
Y212076*
X363703*
X363793Y212527*
X363801Y212545*
X363899Y212693*
X363913Y212707*
X364060Y212805*
X364072Y212811*
X364219Y212860*
X364235Y212862*
X364432*
X364482Y212812*
Y211633*
X364476Y211611*
X364378Y211414*
X364345Y211388*
X364149Y211339*
X364137Y211338*
X363891*
X363885*
X363492Y211387*
X363473Y211393*
X363130Y211590*
X363119Y211598*
X362873Y211844*
X362862Y211861*
X362727Y212222*
X362721*
X362854Y211290*
X365548*
X362038Y206569D02*
X362027D01*
X361890Y206114*
X361881Y206096*
X361635Y205801*
X361626Y205793*
X361282Y205547*
X361260Y205538*
X360916Y205489*
X360899Y205490*
X360653Y205539*
X360641Y205543*
X360444Y205641*
X360425Y205658*
X360327Y205806*
X360320Y205821*
X360271Y206018*
X360270Y206040*
X360319Y206285*
X360333Y206311*
X360530Y206507*
X360543Y206517*
X360737Y206614*
X360981Y206760*
X360985Y206762*
X361373Y206956*
X361614Y207150*
X361616Y207151*
X361806Y207294*
X361943Y207476*
X362036Y207847*
X361944Y208170*
X361756Y208451*
X361430Y208684*
X361057Y208730*
X360773Y208683*
X360489Y208588*
X360347Y208493*
X360319Y208485*
X360221*
X360199Y208490*
X360100Y208539*
X360073Y208584*
Y208625*
X360038Y208731*
X360025*
Y207750*
X360035*
X360123Y208105*
X360134Y208125*
X360379Y208420*
X360390Y208429*
X360685Y208626*
X360704Y208634*
X360999Y208683*
X361017Y208682*
X361262Y208633*
X361280Y208626*
X361428Y208528*
X361442Y208514*
X361540Y208366*
X361546Y208354*
X361595Y208207*
X361596Y208179*
X361547Y207983*
X361534Y207959*
X361288Y207714*
X361275Y207704*
X360493Y207313*
X360301Y207170*
X360015Y206931*
X359876Y206653*
X359830Y206376*
X359924Y206001*
X360109Y205723*
X360484Y205489*
X360907Y205442*
X361189Y205489*
X361528Y205634*
X361535Y205636*
X361732Y205685*
X361760Y205684*
X361907Y205635*
X361936Y205610*
X362020Y205441*
X362038*
Y206569*
X362368Y211300D02*
X362209Y211339D01*
X362205Y211340*
X362058Y211389*
X362038Y211401*
X361842Y211598*
X361839Y211601*
X361593Y211896*
X360954Y212683*
X360952Y212742*
X361786Y213969*
X361933Y214213*
X361940Y214223*
X362137Y214420*
X362160Y214433*
X362318Y214472*
Y214482*
X360859*
X361054Y214433*
X361087Y214407*
X361136Y214308*
X361141Y214286*
X361136Y214264*
X361087Y214165*
X361085Y214162*
X360938Y213916*
X360936Y213914*
X360543Y213325*
X360464Y213320*
X360120Y213713*
X360119Y213714*
X359922Y213960*
X359913Y213979*
X359864Y214176*
X359862Y214188*
X359868Y214210*
X359917Y214308*
X359926Y214321*
X360024Y214420*
X360048Y214433*
X360206Y214472*
Y214482*
X359127*
Y214472*
X359286Y214433*
X359296Y214429*
X359493Y214331*
X359512Y214314*
X359609Y214168*
X359803Y213925*
X360441Y213189*
X360444Y213127*
X359512Y211803*
X359366Y211558*
X359358Y211549*
X359211Y211401*
X359194Y211390*
X358980Y211305*
Y211290*
X360390*
X360381Y211294*
X360283Y211343*
X360261Y211365*
X360211Y211464*
X360206Y211486*
Y211584*
X360211Y211607*
X360261Y211705*
X360270Y211718*
X360413Y211861*
X360853Y212545*
X360933Y212550*
X361424Y211960*
X361429Y211954*
X361573Y211713*
X361667Y211620*
X361673Y211556*
X361575Y211409*
X361561Y211395*
X361414Y211297*
X361399Y211290*
X362368*
Y211300*
X359385Y208682D02*
X356538D01*
Y207897*
X356552*
X356637Y208108*
X356685Y208302*
X356706Y208331*
X357000Y208528*
X357006Y208531*
X357104Y208580*
X357126Y208585*
X357568*
X357618Y208535*
Y205784*
X357613Y205762*
X357564Y205664*
X357555Y205651*
X357456Y205552*
X357433Y205539*
X357238Y205490*
X358685*
X358443Y205539*
X358408Y205565*
X358310Y205762*
X358304Y205784*
Y208535*
X358354Y208585*
X358600*
X358608Y208584*
X358903Y208535*
X358917Y208531*
X359114Y208432*
X359134Y208413*
X359281Y208168*
X359286Y208158*
X359373Y207897*
X359385*
Y208682*
X358831Y211303D02*
X358718Y211340D01*
X358706Y211346*
X358558Y211444*
X358551Y211451*
X358403Y211598*
X358393Y211614*
X358245Y211957*
X357137Y214512*
X355979Y211859*
X355978Y211857*
X355831Y211562*
X355828Y211556*
X355729Y211409*
X355706Y211390*
X355492Y211305*
Y211290*
X356755*
X356746Y211294*
X356648Y211343*
X356625Y211365*
X356576Y211464*
X356571Y211486*
Y211633*
X356574Y211649*
X356623Y211797*
X356625Y211803*
X356822Y212196*
X356867Y212224*
X357996*
X358042Y212193*
X358190Y211850*
Y211848*
X358289Y211603*
X358292Y211584*
X358287Y211562*
X358238Y211464*
X358228Y211451*
X358130Y211352*
X358117Y211343*
X358019Y211294*
X358010Y211290*
X358831*
Y211303*
X357898Y212320D02*
X356965D01*
X356918Y212388*
X357360Y213518*
X357453Y213520*
X357944Y212390*
X357898Y212320*
X355983Y205490D02*
X355974Y205494D01*
X355876Y205543*
X355863Y205552*
X355765Y205651*
X355755Y205664*
X355706Y205762*
X355701Y205784*
Y208339*
X355703Y208354*
X355753Y208502*
X355765Y208521*
X355863Y208620*
X355876Y208629*
X355974Y208678*
X355983Y208682*
X354673*
X354185Y208633*
X353848Y208585*
X353615Y208491*
X353385Y208308*
X353294Y208079*
X353247Y207846*
X353294Y207522*
X353476Y207248*
X353658Y207157*
X353949Y207060*
X353974Y206984*
X353188Y205854*
X353187Y205852*
X353040Y205656*
X353022Y205641*
X352755Y205508*
Y205490*
X353662*
X354728Y206992*
X354768Y207013*
X355014*
X355064Y206963*
Y205784*
X355059Y205762*
X355010Y205664*
X355000Y205651*
X354902Y205552*
X354889Y205543*
X354791Y205494*
X354782Y205490*
X355983*
X355064Y208584D02*
Y207111D01*
X355014Y207061*
X354572*
X354560Y207062*
X354363Y207111*
X354353Y207115*
X354157Y207213*
X354137Y207230*
X354039Y207378*
X354036Y207383*
X353938Y207579*
X353932Y207602*
Y207847*
X353933Y207856*
X353982Y208150*
X353989Y208168*
X354136Y208413*
X354149Y208428*
X354345Y208575*
X354369Y208585*
X354762Y208634*
X354768*
X355014*
X355064Y208584*
X355097Y212369D02*
X355086D01*
X354950Y211914*
X354940Y211896*
X354695Y211601*
X354685Y211593*
X354341Y211347*
X354319Y211338*
X353975Y211289*
X353959Y211290*
X353713Y211339*
X353700Y211343*
X353504Y211441*
X353485Y211458*
X353386Y211606*
X353380Y211621*
X353330Y211818*
Y211840*
X353379Y212085*
X353393Y212111*
X353589Y212307*
X353602Y212317*
X353797Y212414*
X354041Y212560*
X354044Y212562*
X354433Y212756*
X354674Y212950*
X354675Y212951*
X354866Y213094*
X355003Y213276*
X355096Y213647*
X355003Y213970*
X354816Y214251*
X354490Y214484*
X354117Y214530*
X353833Y214483*
X353548Y214388*
X353407Y214293*
X353379Y214285*
X353281*
X353258Y214290*
X353160Y214339*
X353132Y214384*
Y214425*
X353097Y214531*
X353085*
Y213550*
X353094*
X353183Y213905*
X353193Y213925*
X353439Y214220*
X353449Y214229*
X353744Y214426*
X353764Y214434*
X354058Y214483*
X354076Y214482*
X354322Y214433*
X354340Y214426*
X354487Y214328*
X354501Y214314*
X354599Y214166*
X354605Y214154*
X354654Y214007*
X354656Y213979*
X354606Y213783*
X354593Y213759*
X354348Y213514*
X354335Y213504*
X353553Y213113*
X353361Y212970*
X353075Y212731*
X352936Y212453*
X352890Y212176*
X352983Y211801*
X353169Y211523*
X353543Y211289*
X353967Y211242*
X354249Y211289*
X354587Y211434*
X354595Y211436*
X354791Y211485*
X354819Y211484*
X354967Y211435*
X354996Y211410*
X355080Y211241*
X355097*
Y212369*
X352447Y208682D02*
X351245D01*
X351267Y208669*
X351414Y208521*
X351424Y208508*
X351473Y208410*
X351478Y208388*
Y206128*
X351477Y206116*
X351427Y205919*
X351414Y205896*
X351169Y205651*
X351161Y205644*
X351014Y205546*
X350986Y205538*
X350789*
X350780Y205539*
X350288Y205637*
X350263Y205651*
X350116Y205798*
X350106Y205811*
X350008Y206007*
X350005Y206014*
X349907Y206309*
X349904Y206325*
Y208339*
X349907Y208354*
X349956Y208502*
X349968Y208521*
X350066Y208620*
X350094Y208634*
X350346Y208676*
Y208682*
X349379*
X349620Y208633*
X349652Y208612*
X349750Y208465*
X349753Y208459*
X349803Y208361*
X349808Y208339*
Y206426*
X349855Y206096*
X349994Y205864*
X350229Y205630*
X350557Y205489*
X350986Y205442*
X351371Y205490*
X351605Y205537*
X351884Y205723*
X352022Y205906*
X352116Y206188*
X352164Y206573*
Y208388*
X352169Y208410*
X352218Y208508*
X352228Y208521*
X352326Y208620*
X352339Y208629*
X352437Y208678*
X352447Y208682*
X349057Y205490D02*
X348862Y205539D01*
X348838Y205552*
X348740Y205651*
X348734Y205658*
X348636Y205806*
X348627Y205833*
Y208486*
X348649Y208528*
X348797Y208626*
X348812Y208633*
X349008Y208682*
X347875*
X346955Y206550*
X346862Y206551*
X345991Y208682*
X344810*
X345052Y208633*
X345087Y208607*
X345185Y208410*
X345190Y208388*
Y205784*
X345185Y205762*
X345136Y205664*
X345127Y205651*
X345028Y205552*
X345005Y205539*
X344810Y205490*
X346256*
X346015Y205539*
X345980Y205565*
X345882Y205762*
X345876Y205784*
Y208388*
X345972Y208407*
X347179Y205510*
X348435Y208408*
X348531Y208388*
Y205784*
X348521Y205754*
X348373Y205558*
X348356Y205543*
X348257Y205494*
X348248Y205490*
X349057*
X344390D02*
X344148Y205539D01*
X344113Y205565*
X344015Y205762*
X344010Y205784*
Y208437*
X344018Y208465*
X344116Y208612*
X344148Y208633*
X344390Y208682*
X341801*
Y207799*
X341813*
X341900Y208060*
X341903Y208066*
X342001Y208263*
X342010Y208276*
X342158Y208423*
X342171Y208432*
X342367Y208531*
X342377Y208534*
X342574Y208584*
X342586Y208585*
X343274*
X343324Y208535*
Y207160*
X343274Y207110*
X343225*
X343216*
X342922Y207159*
X342894Y207173*
X342747Y207321*
X342740Y207330*
X342592Y207576*
X342586Y207595*
X342543Y207896*
X342538*
Y206276*
X342545*
X342635Y206727*
X342643Y206745*
X342741Y206893*
X342755Y206907*
X342902Y207005*
X342914Y207011*
X343061Y207060*
X343077Y207062*
X343274*
X343324Y207012*
Y205833*
X343318Y205811*
X343220Y205614*
X343188Y205588*
X342991Y205539*
X342979Y205538*
X342733*
X342727*
X342334Y205587*
X342316Y205593*
X341972Y205790*
X341961Y205798*
X341716Y206044*
X341704Y206061*
X341569Y206422*
X341563*
X341696Y205490*
X344390*
X341210Y208682D02*
X340105D01*
X338548Y206735*
X338459Y206767*
Y208339*
X338467Y208366*
X338565Y208514*
X338579Y208528*
X338727Y208626*
X338742Y208633*
X338901Y208672*
Y208682*
X337920*
Y208672*
X338079Y208633*
X338089Y208629*
X338187Y208580*
X338200Y208570*
X338299Y208472*
X338311Y208453*
X338360Y208305*
X338362Y208289*
Y205441*
X338386*
X340533Y208124*
X340622Y208093*
Y205981*
X340621Y205971*
X340572Y205725*
X340568Y205713*
X340518Y205614*
X340501Y205595*
X340354Y205497*
X340339Y205490*
X341001*
X340986Y205497*
X340839Y205595*
X340825Y205609*
X340727Y205756*
X340718Y205784*
Y208339*
X340724Y208361*
X340773Y208459*
X340788Y208477*
X340984Y208624*
X341004Y208633*
X341210Y208674*
Y208682*
X337575D02*
X334727D01*
Y207897*
X334742*
X334826Y208108*
X334874Y208302*
X334895Y208331*
X335190Y208528*
X335195Y208531*
X335293Y208580*
X335316Y208585*
X335758*
X335808Y208535*
Y205784*
X335803Y205762*
X335753Y205664*
X335744Y205651*
X335646Y205552*
X335623Y205539*
X335427Y205490*
X336874*
X336632Y205539*
X336597Y205565*
X336499Y205762*
X336494Y205784*
Y208535*
X336544Y208585*
X336789*
X336798Y208584*
X337092Y208535*
X337107Y208531*
X337303Y208432*
X337324Y208413*
X337471Y208168*
X337476Y208158*
X337562Y207897*
X337575*
Y208682*
X334185Y206569D02*
X334174D01*
X334037Y206114*
X334028Y206096*
X333782Y205801*
X333773Y205793*
X333429Y205547*
X333407Y205538*
X333063Y205489*
X333046Y205490*
X332801Y205539*
X332788Y205543*
X332592Y205641*
X332572Y205658*
X332474Y205806*
X332467Y205821*
X332418Y206018*
Y206040*
X332467Y206285*
X332480Y206311*
X332677Y206507*
X332690Y206517*
X332885Y206614*
X333129Y206760*
X333132Y206762*
X333520Y206956*
X333762Y207150*
X333763Y207151*
X333954Y207294*
X334091Y207476*
X334183Y207847*
X334091Y208170*
X333904Y208451*
X333578Y208684*
X333205Y208730*
X332921Y208683*
X332636Y208588*
X332494Y208493*
X332467Y208485*
X332368*
X332346Y208490*
X332248Y208539*
X332220Y208584*
Y208625*
X332185Y208731*
X332173*
Y207750*
X332182*
X332271Y208105*
X332281Y208125*
X332527Y208420*
X332527D02*
X332537Y208429D01*
X332832Y208626*
X332851Y208634*
X333146Y208683*
X333164Y208682*
X333410Y208633*
X333428Y208626*
X333575Y208528*
X333589Y208514*
X333687Y208366*
X333693Y208354*
X333742Y208207*
X333743Y208179*
X333694Y207983*
X333681Y207959*
X333435Y207714*
X333422Y207704*
X332640Y207313*
X332449Y207170*
X332163Y206931*
X332024Y206653*
X331977Y206376*
X332071Y206001*
X332257Y205723*
X332631Y205489*
X333055Y205442*
X333337Y205489*
X333675Y205634*
X333683Y205636*
X333879Y205685*
X333907Y205684*
X334054Y205635*
X334083Y205610*
X334168Y205441*
X334185*
Y206569*
X211033Y327781D02*
X210754Y327874D01*
X210738Y327883*
X210425Y328144*
X210421Y328147*
X210160Y328408*
X210154Y328416*
X209960Y328707*
X209463*
Y325050*
X210093*
Y327713*
X210176Y327751*
X210589Y327390*
X211033Y327168*
Y327781*
X209500Y325050D02*
Y328707D01*
X209600Y325050D02*
Y328707D01*
X209700Y325050D02*
Y328707D01*
X209800Y325050D02*
Y328707D01*
X209900Y325050D02*
Y328707D01*
X210000Y325050D02*
Y328647D01*
X210100Y327738D02*
Y328497D01*
X210200Y327730D02*
Y328368D01*
X210300Y327643D02*
Y328268D01*
X210400Y327555D02*
Y328168D01*
X210500Y327468D02*
Y328081D01*
X210600Y327384D02*
Y327998D01*
X210700Y327334D02*
Y327915D01*
X210800Y327284D02*
Y327859D01*
X210900Y327234D02*
Y327826D01*
X211000Y327184D02*
Y327792D01*
X332000Y206285D02*
Y206512D01*
X332100Y205958D02*
Y206806D01*
X332200Y205808D02*
Y206962D01*
Y207822D02*
Y208686D01*
X332300Y205696D02*
Y207046D01*
Y208148D02*
Y208513D01*
X332400Y205633D02*
Y207129D01*
Y208268D02*
Y208485D01*
X332500Y205571D02*
Y205767D01*
Y206330D02*
Y207208D01*
Y208388D02*
Y208497D01*
X332600Y205508D02*
Y205637D01*
Y206430D02*
Y207283D01*
Y208471D02*
Y208564D01*
X332700Y205481D02*
Y205587D01*
Y206522D02*
Y207343D01*
Y208538D02*
Y208609D01*
X332800Y205470D02*
Y205539D01*
Y206572D02*
Y207393D01*
Y208605D02*
Y208643D01*
X332900Y205459D02*
Y205519D01*
Y206623D02*
Y207443D01*
Y208642D02*
Y208676D01*
X333000Y205448D02*
Y205499D01*
Y206683D02*
Y207493D01*
Y208658D02*
Y208696D01*
X333100Y205449D02*
Y205494D01*
Y206743D02*
Y207543D01*
Y208675D02*
Y208713D01*
X333200Y205466D02*
Y205509D01*
Y206796D02*
Y207593D01*
Y208675D02*
Y208729D01*
X333300Y205483D02*
Y205523D01*
Y206846D02*
Y207643D01*
Y208655D02*
Y208718D01*
X333400Y205516D02*
Y205537D01*
Y206896D02*
Y207693D01*
Y208635D02*
Y208706D01*
X333500Y205559D02*
Y205598D01*
Y206946D02*
Y207778D01*
Y208578D02*
Y208693D01*
X333600Y205602D02*
Y205669D01*
Y207020D02*
Y207878D01*
Y208497D02*
Y208668D01*
X333700Y205641D02*
Y205741D01*
Y207100D02*
Y208006D01*
Y208334D02*
Y208596D01*
X333800Y205666D02*
Y205823D01*
Y207178D02*
Y208525D01*
X333900Y205686D02*
Y205943D01*
Y207253D02*
Y208453D01*
X334000Y205653D02*
Y206063D01*
Y207355D02*
Y208306D01*
X334100Y205577D02*
Y206322D01*
Y207513D02*
Y208138D01*
X334800Y208043D02*
Y208682D01*
X334900Y208334D02*
Y208682D01*
X335000Y208401D02*
Y208682D01*
X335100Y208468D02*
Y208682D01*
X335200Y208533D02*
Y208682D01*
X335300Y208583D02*
Y208682D01*
X335400Y208585D02*
Y208682D01*
X335500Y205490D02*
Y205509D01*
Y208585D02*
Y208682D01*
X335600Y205490D02*
Y205534D01*
Y208585D02*
Y208682D01*
X335700Y205490D02*
Y205606D01*
Y208585D02*
Y208682D01*
X335800Y205490D02*
Y205757D01*
Y208562D02*
Y208682D01*
X335900Y205490D02*
Y208682D01*
X336000Y205490D02*
Y208682D01*
X336100Y205490D02*
Y208682D01*
X336200Y205490D02*
Y208682D01*
X336300Y205490D02*
Y208682D01*
X336400Y205490D02*
Y208682D01*
X336500Y205490D02*
Y205760D01*
Y208559D02*
Y208682D01*
X336600Y205490D02*
Y205561D01*
Y208585D02*
Y208682D01*
X336700Y205490D02*
Y205525D01*
Y208585D02*
Y208682D01*
X336800Y205490D02*
Y205505D01*
Y208584D02*
Y208682D01*
X336900Y208567D02*
Y208682D01*
X337000Y208551D02*
Y208682D01*
X337100Y208533D02*
Y208682D01*
X337200Y208484D02*
Y208682D01*
X337300Y208434D02*
Y208682D01*
X337400Y208286D02*
Y208682D01*
X337500Y208084D02*
Y208682D01*
X338000Y208652D02*
Y208682D01*
X338100Y208623D02*
Y208682D01*
X338200Y208571D02*
Y208682D01*
X338300Y208471D02*
Y208682D01*
X338400Y205458D02*
Y208682D01*
X338500Y205583D02*
Y206717D01*
Y208416D02*
Y208682D01*
X338600Y205708D02*
Y206801D01*
Y208541D02*
Y208682D01*
X338700Y205833D02*
Y206926D01*
Y208608D02*
Y208682D01*
X338800Y205958D02*
Y207051D01*
Y208647D02*
Y208682D01*
X338900Y206083D02*
Y207176D01*
Y208672D02*
Y208682D01*
X339000Y206208D02*
Y207301D01*
X339100Y206333D02*
Y207426D01*
X339200Y206458D02*
Y207551D01*
X339300Y206583D02*
Y207676D01*
X339400Y206708D02*
Y207801D01*
X339500Y206833D02*
Y207926D01*
X339600Y206958D02*
Y208051D01*
X339700Y207083D02*
Y208176D01*
X339800Y207208D02*
Y208301D01*
X339900Y207333D02*
Y208426D01*
X340000Y207458D02*
Y208551D01*
X340100Y207583D02*
Y208676D01*
X340200Y207708D02*
Y208682D01*
X340300Y207833D02*
Y208682D01*
X340400Y205490D02*
Y205528D01*
Y207958D02*
Y208682D01*
X340500Y205490D02*
Y205594D01*
Y208083D02*
Y208682D01*
X340600Y205490D02*
Y205866D01*
Y208134D02*
Y208682D01*
X340700Y205490D02*
Y208682D01*
X340800Y205490D02*
Y205647D01*
Y208486D02*
Y208682D01*
X340900Y205490D02*
Y205555D01*
Y208561D02*
Y208682D01*
X341000Y205490D02*
Y205491D01*
Y208632D02*
Y208682D01*
X341100Y208652D02*
Y208682D01*
X341200Y208672D02*
Y208682D01*
X341600Y206162D02*
Y206339D01*
X341700Y205490D02*
Y206072D01*
X341800Y205490D02*
Y205959D01*
X341900Y205490D02*
Y205859D01*
Y208060D02*
Y208682D01*
X342000Y205490D02*
Y205774D01*
Y208261D02*
Y208682D01*
X342100Y205490D02*
Y205717D01*
Y208365D02*
Y208682D01*
X342200Y205490D02*
Y205659D01*
Y208447D02*
Y208682D01*
X342300Y205490D02*
Y205602D01*
Y208497D02*
Y208682D01*
X342400Y205490D02*
Y205579D01*
Y208540D02*
Y208682D01*
X342500Y205490D02*
Y205566D01*
Y208565D02*
Y208682D01*
X342600Y205490D02*
Y205554D01*
Y206551D02*
Y207563D01*
Y208585D02*
Y208682D01*
X342700Y205490D02*
Y205541D01*
Y206831D02*
Y207396D01*
Y208585D02*
Y208682D01*
X342800Y205490D02*
Y205538D01*
Y206937D02*
Y207268D01*
Y208585D02*
Y208682D01*
X342900Y205490D02*
Y205538D01*
Y207003D02*
Y207169D01*
Y208585D02*
Y208682D01*
X343000Y205490D02*
Y205541D01*
Y207039D02*
Y207146D01*
Y208585D02*
Y208682D01*
X343100Y205490D02*
Y205566D01*
Y207062D02*
Y207130D01*
Y208585D02*
Y208682D01*
X343200Y205490D02*
Y205593D01*
Y207062D02*
Y207113D01*
Y208585D02*
Y208682D01*
X343300Y205490D02*
Y205774D01*
Y207055D02*
Y207117D01*
Y208578D02*
Y208682D01*
X343400Y205490D02*
Y208682D01*
X343500Y205490D02*
Y208682D01*
X343600Y205490D02*
Y208682D01*
X343700Y205490D02*
Y208682D01*
X343800Y205490D02*
Y208682D01*
X343900Y205490D02*
Y208682D01*
X344000Y205490D02*
Y208682D01*
X344100Y205490D02*
Y205592D01*
Y208588D02*
Y208682D01*
X344200Y205490D02*
Y205528D01*
Y208644D02*
Y208682D01*
X344300Y205490D02*
Y205508D01*
Y208664D02*
Y208682D01*
X344900Y205490D02*
Y205513D01*
Y208664D02*
Y208682D01*
X345000Y205490D02*
Y205538D01*
Y208644D02*
Y208682D01*
X345100Y205490D02*
Y205624D01*
Y208580D02*
Y208682D01*
X345200Y205490D02*
Y208682D01*
X345300Y205490D02*
Y208682D01*
X345400Y205490D02*
Y208682D01*
X345500Y205490D02*
Y208682D01*
X345600Y205490D02*
Y208682D01*
X345700Y205490D02*
Y208682D01*
X345800Y205490D02*
Y208682D01*
X345900Y205490D02*
Y205725D01*
Y208430D02*
Y208682D01*
X346000Y205490D02*
Y205544D01*
Y208341D02*
Y208660D01*
X346100Y205490D02*
Y205522D01*
Y208101D02*
Y208415D01*
X346200Y205490D02*
Y205502D01*
Y207861D02*
Y208171D01*
X346300Y207621D02*
Y207926D01*
X346400Y207381D02*
Y207682D01*
X346500Y207141D02*
Y207437D01*
X346600Y206901D02*
Y207193D01*
X346700Y206661D02*
Y206948D01*
X346800Y206421D02*
Y206704D01*
X346900Y206181D02*
Y206521D01*
X347000Y205941D02*
Y206655D01*
X347100Y205701D02*
Y206887D01*
X347200Y205558D02*
Y207118D01*
X347300Y205789D02*
Y207350D01*
X347400Y206020D02*
Y207582D01*
X347500Y206250D02*
Y207813D01*
X347600Y206481D02*
Y208045D01*
X347700Y206712D02*
Y208276D01*
X347800Y206943D02*
Y208508D01*
X347900Y207173D02*
Y208682D01*
X348000Y207404D02*
Y208682D01*
X348100Y207635D02*
Y208682D01*
X348200Y207866D02*
Y208682D01*
X348300Y205490D02*
Y205515D01*
Y208096D02*
Y208682D01*
X348400Y205490D02*
Y205593D01*
Y208327D02*
Y208682D01*
X348500Y205490D02*
Y205727D01*
Y208434D02*
Y208682D01*
X348600Y205490D02*
Y208682D01*
X348700Y205490D02*
Y205709D01*
Y208561D02*
Y208682D01*
X348800Y205490D02*
Y205591D01*
Y208628D02*
Y208682D01*
X348900Y205490D02*
Y205530D01*
Y208655D02*
Y208682D01*
X349000Y205490D02*
Y205505D01*
Y208680D02*
Y208682D01*
X349400Y208677D02*
Y208682D01*
X349500Y208657D02*
Y208682D01*
X349600Y208637D02*
Y208682D01*
X349700Y208540D02*
Y208682D01*
X349800Y208366D02*
Y208682D01*
X349900Y206021D02*
Y208682D01*
X350000Y205858D02*
Y206030D01*
Y208553D02*
Y208682D01*
X350100Y205758D02*
Y205823D01*
Y208635D02*
Y208682D01*
X350200Y205658D02*
Y205714D01*
Y208651D02*
Y208682D01*
X350300Y205599D02*
Y205635D01*
Y208668D02*
Y208682D01*
X350400Y205556D02*
Y205615D01*
X350500Y205514D02*
Y205595D01*
X350600Y205484D02*
Y205575D01*
X350700Y205473D02*
Y205555D01*
X350800Y205462D02*
Y205538D01*
X350900Y205451D02*
Y205538D01*
X351000Y205443D02*
Y205540D01*
X351100Y205456D02*
Y205604D01*
X351200Y205468D02*
Y205682D01*
X351300Y205481D02*
Y205782D01*
Y208636D02*
Y208682D01*
X351400Y205496D02*
Y205882D01*
Y208536D02*
Y208682D01*
X351500Y205516D02*
Y208682D01*
X351600Y205536D02*
Y208682D01*
X351700Y205600D02*
Y208682D01*
X351800Y205667D02*
Y208682D01*
X351900Y205744D02*
Y208682D01*
X352000Y205877D02*
Y208682D01*
X352100Y206141D02*
Y208682D01*
X352200Y208471D02*
Y208682D01*
X352300Y208594D02*
Y208682D01*
X352400Y208659D02*
Y208682D01*
X352800Y205490D02*
Y205530D01*
X352900Y205490D02*
Y205580D01*
Y212134D02*
Y212238D01*
X353000Y205490D02*
Y205630D01*
Y211776D02*
Y212581D01*
X353100Y205490D02*
Y205736D01*
Y211626D02*
Y212752D01*
Y213573D02*
Y214523D01*
X353200Y205490D02*
Y205871D01*
Y211503D02*
Y212835D01*
Y213933D02*
Y214320D01*
X353300Y205490D02*
Y206014D01*
Y207512D02*
Y208094D01*
Y211441D02*
Y212919D01*
Y214053D02*
Y214285D01*
X353400Y205490D02*
Y206158D01*
Y207362D02*
Y208319D01*
Y211378D02*
Y211585D01*
Y212118D02*
Y212999D01*
Y214173D02*
Y214290D01*
X353500Y205490D02*
Y206302D01*
Y207236D02*
Y208399D01*
Y211316D02*
Y211443D01*
Y212218D02*
Y213074D01*
Y214263D02*
Y214356D01*
X353600Y205490D02*
Y206446D01*
Y207186D02*
Y208479D01*
Y211282D02*
Y211393D01*
Y212315D02*
Y213137D01*
Y214330D02*
Y214405D01*
X353700Y205544D02*
Y206589D01*
Y207143D02*
Y208525D01*
Y211271D02*
Y211343D01*
Y212366D02*
Y213187D01*
Y214396D02*
Y214439D01*
X353800Y205685D02*
Y206733D01*
Y207109D02*
Y208565D01*
Y211260D02*
Y211321D01*
Y212416D02*
Y213237D01*
Y214440D02*
Y214472D01*
X353900Y205826D02*
Y206877D01*
Y207076D02*
Y208592D01*
Y211249D02*
Y211301D01*
Y212476D02*
Y213287D01*
Y214456D02*
Y214494D01*
X354000Y205967D02*
Y207455D01*
Y208187D02*
Y208606D01*
Y211247D02*
Y211293D01*
Y212536D02*
Y213337D01*
Y214473D02*
Y214511D01*
X354100Y206108D02*
Y207286D01*
Y208353D02*
Y208621D01*
Y211264D02*
Y211307D01*
Y212590D02*
Y213387D01*
Y214478D02*
Y214527D01*
X354200Y206249D02*
Y207191D01*
Y208466D02*
Y208634D01*
Y211281D02*
Y211321D01*
Y212640D02*
Y213437D01*
Y214458D02*
Y214520D01*
X354300Y206389D02*
Y207141D01*
Y208541D02*
Y208644D01*
Y211311D02*
Y211335D01*
Y212690D02*
Y213487D01*
Y214438D02*
Y214507D01*
X354400Y206530D02*
Y207102D01*
Y208589D02*
Y208654D01*
Y211353D02*
Y211389D01*
Y212740D02*
Y213566D01*
Y214386D02*
Y214495D01*
X354500Y206671D02*
Y207077D01*
Y208601D02*
Y208664D01*
Y211396D02*
Y211460D01*
Y212810D02*
Y213666D01*
Y214315D02*
Y214476D01*
X354600Y206812D02*
Y207061D01*
Y208614D02*
Y208674D01*
Y211438D02*
Y211532D01*
Y212890D02*
Y213768D01*
Y214166D02*
Y214405D01*
X354700Y206953D02*
Y207061D01*
Y208626D02*
Y208682D01*
Y211463D02*
Y211608D01*
Y212969D02*
Y214334D01*
X354800Y205490D02*
Y205498D01*
Y207013D02*
Y207061D01*
Y208634D02*
Y208682D01*
Y211487D02*
Y211728D01*
Y213044D02*
Y214262D01*
X354900Y205490D02*
Y205550D01*
Y207013D02*
Y207061D01*
Y208634D02*
Y208682D01*
Y211457D02*
Y211848D01*
Y213139D02*
Y214125D01*
X355000Y205490D02*
Y205650D01*
Y207013D02*
Y207061D01*
Y208634D02*
Y208682D01*
Y211401D02*
Y212082D01*
Y213272D02*
Y213975D01*
X355100Y205490D02*
Y208682D01*
X355200Y205490D02*
Y208682D01*
X355300Y205490D02*
Y208682D01*
X355400Y205490D02*
Y208682D01*
X355500Y205490D02*
Y208682D01*
Y211290D02*
Y211308D01*
X355600Y205490D02*
Y208682D01*
Y211290D02*
Y211348D01*
X355700Y205490D02*
Y208682D01*
Y211290D02*
Y211388D01*
X355800Y205490D02*
Y205615D01*
Y208557D02*
Y208682D01*
Y211290D02*
Y211515D01*
X355900Y205490D02*
Y205531D01*
Y208641D02*
Y208682D01*
Y211290D02*
Y211700D01*
X356000Y211290D02*
Y211907D01*
X356100Y211290D02*
Y212136D01*
X356200Y211290D02*
Y212365D01*
X356300Y211290D02*
Y212594D01*
X356400Y211290D02*
Y212823D01*
X356500Y211290D02*
Y213053D01*
X356600Y208017D02*
Y208682D01*
Y211290D02*
Y211416D01*
Y211728D02*
Y213282D01*
X356700Y208327D02*
Y208682D01*
Y211290D02*
Y211317D01*
Y211952D02*
Y213511D01*
X356800Y208394D02*
Y208682D01*
Y212152D02*
Y213740D01*
X356900Y208461D02*
Y208682D01*
Y212224D02*
Y213969D01*
X357000Y208527D02*
Y208682D01*
Y212224D02*
Y212320D01*
Y212597D02*
Y214198D01*
X357100Y208578D02*
Y208682D01*
Y212224D02*
Y212320D01*
Y212853D02*
Y214428D01*
X357200Y208585D02*
Y208682D01*
Y212224D02*
Y212320D01*
Y213108D02*
Y214366D01*
X357300Y205490D02*
Y205506D01*
Y208585D02*
Y208682D01*
Y212224D02*
Y212320D01*
Y213364D02*
Y214136D01*
X357400Y205490D02*
Y205531D01*
Y208585D02*
Y208682D01*
Y212224D02*
Y212320D01*
Y213550D02*
Y213905D01*
X357500Y205490D02*
Y205596D01*
Y208585D02*
Y208682D01*
Y212224D02*
Y212320D01*
Y213412D02*
Y213675D01*
X357600Y205490D02*
Y205736D01*
Y208574D02*
Y208682D01*
Y212224D02*
Y212320D01*
Y213182D02*
Y213444D01*
X357700Y205490D02*
Y208682D01*
Y212224D02*
Y212320D01*
Y212952D02*
Y213214D01*
X357800Y205490D02*
Y208682D01*
Y212224D02*
Y212320D01*
Y212722D02*
Y212984D01*
X357900Y205490D02*
Y208682D01*
Y212224D02*
Y212320D01*
Y212492D02*
Y212753D01*
X358000Y205490D02*
Y208682D01*
Y212224D02*
Y212523D01*
X358100Y205490D02*
Y208682D01*
Y211290D02*
Y211334D01*
Y212059D02*
Y212292D01*
X358200Y205490D02*
Y208682D01*
Y211290D02*
Y211422D01*
Y211824D02*
Y212062D01*
X358300Y205490D02*
Y208682D01*
Y211290D02*
Y211830D01*
X358400Y205490D02*
Y205581D01*
Y208585D02*
Y208682D01*
Y211290D02*
Y211602D01*
X358500Y205490D02*
Y205527D01*
Y208585D02*
Y208682D01*
Y211290D02*
Y211501D01*
X358600Y205490D02*
Y205507D01*
Y208585D02*
Y208682D01*
Y211290D02*
Y211417D01*
X358700Y208569D02*
Y208682D01*
Y211290D02*
Y211350D01*
X358800Y208552D02*
Y208682D01*
Y211290D02*
Y211313D01*
X358900Y208536D02*
Y208682D01*
X359000Y208489D02*
Y208682D01*
Y211290D02*
Y211313D01*
X359100Y208439D02*
Y208682D01*
Y211290D02*
Y211353D01*
X359200Y208304D02*
Y208682D01*
Y211290D02*
Y211393D01*
Y214454D02*
Y214482D01*
X359300Y208116D02*
Y208682D01*
Y211290D02*
Y211491D01*
Y214427D02*
Y214482D01*
X359400Y211290D02*
Y211616D01*
Y214377D02*
Y214482D01*
X359500Y211290D02*
Y211782D01*
Y214326D02*
Y214482D01*
X359600Y211290D02*
Y211927D01*
Y214181D02*
Y214482D01*
X359700Y211290D02*
Y212070D01*
Y214054D02*
Y214482D01*
X359800Y211290D02*
Y212212D01*
Y213929D02*
Y214482D01*
X359900Y206096D02*
Y206700D01*
Y211290D02*
Y212354D01*
Y213813D02*
Y214031D01*
Y214275D02*
Y214482D01*
X360000Y205887D02*
Y206900D01*
Y211290D02*
Y212496D01*
Y213698D02*
Y213863D01*
Y214395D02*
Y214482D01*
X360100Y205737D02*
Y207002D01*
Y208011D02*
Y208540D01*
Y211290D02*
Y212638D01*
Y213583D02*
Y213738D01*
Y214446D02*
Y214482D01*
X360200Y205666D02*
Y207085D01*
Y208205D02*
Y208490D01*
Y211290D02*
Y212780D01*
Y213467D02*
Y213622D01*
Y214471D02*
Y214482D01*
X360300Y205603D02*
Y205901D01*
Y206188D02*
Y207169D01*
Y208325D02*
Y208485D01*
Y211290D02*
Y211334D01*
Y211748D02*
Y212922D01*
Y213352D02*
Y213507D01*
X360400Y205541D02*
Y205696D01*
Y206378D02*
Y207244D01*
Y208436D02*
Y208529D01*
Y211848D02*
Y213064D01*
Y213237D02*
Y213393D01*
X360500Y205487D02*
Y205613D01*
Y206478D02*
Y207317D01*
Y208503D02*
Y208592D01*
Y211996D02*
Y213303D01*
X360600Y205476D02*
Y205563D01*
Y206545D02*
Y207367D01*
Y208569D02*
Y208625D01*
Y212152D02*
Y213410D01*
X360700Y205465D02*
Y205529D01*
Y206595D02*
Y207417D01*
Y208633D02*
Y208658D01*
Y212307D02*
Y213560D01*
X360800Y205454D02*
Y205509D01*
Y206652D02*
Y207467D01*
Y208650D02*
Y208687D01*
Y212463D02*
Y213710D01*
X360900Y205443D02*
Y205489D01*
Y206712D02*
Y207517D01*
Y208666D02*
Y208704D01*
Y212567D02*
Y213860D01*
Y214471D02*
Y214482D01*
X361000Y205457D02*
Y205501D01*
Y206770D02*
Y207567D01*
Y208683D02*
Y208721D01*
Y212469D02*
Y212626D01*
Y212813D02*
Y214020D01*
Y214446D02*
Y214482D01*
X361100Y205474D02*
Y205515D01*
Y206820D02*
Y207617D01*
Y208666D02*
Y208725D01*
Y212349D02*
Y212503D01*
Y212960D02*
Y214192D01*
Y214380D02*
Y214482D01*
X361200Y205493D02*
Y205530D01*
Y206870D02*
Y207667D01*
Y208646D02*
Y208712D01*
Y212229D02*
Y212380D01*
Y213107D02*
Y214482D01*
X361300Y205536D02*
Y205560D01*
Y206920D02*
Y207726D01*
Y208613D02*
Y208700D01*
Y212109D02*
Y212257D01*
Y213254D02*
Y214482D01*
X361400Y205579D02*
Y205632D01*
Y206978D02*
Y207826D01*
Y208546D02*
Y208687D01*
Y211290D02*
Y211291D01*
Y211989D02*
Y212134D01*
Y213402D02*
Y214482D01*
X361500Y205622D02*
Y205703D01*
Y207058D02*
Y207926D01*
Y208426D02*
Y208634D01*
Y211290D02*
Y211355D01*
Y211835D02*
Y212011D01*
Y213549D02*
Y214482D01*
X361600Y205652D02*
Y205774D01*
Y207138D02*
Y208562D01*
Y211290D02*
Y211447D01*
Y211686D02*
Y211888D01*
Y213696D02*
Y214482D01*
X361700Y205677D02*
Y205879D01*
Y207214D02*
Y208491D01*
Y211290D02*
Y211768D01*
Y213843D02*
Y214482D01*
X361800Y205671D02*
Y205999D01*
Y207289D02*
Y208385D01*
Y211290D02*
Y211648D01*
Y213993D02*
Y214482D01*
X361900Y205637D02*
Y206147D01*
Y207418D02*
Y208235D01*
Y211290D02*
Y211540D01*
Y214159D02*
Y214482D01*
X362000Y205482D02*
Y206480D01*
Y207703D02*
Y207972D01*
Y211290D02*
Y211440D01*
Y214283D02*
Y214482D01*
X362100Y211290D02*
Y211375D01*
Y214383D02*
Y214482D01*
X362200Y211290D02*
Y211342D01*
Y214443D02*
Y214482D01*
X362300Y211290D02*
Y211316D01*
Y214468D02*
Y214482D01*
X362500Y208668D02*
Y208682D01*
X362600Y208643D02*
Y208682D01*
X362700Y208604D02*
Y208682D01*
X362800Y208532D02*
Y208682D01*
Y211668D02*
Y212027D01*
X362900Y208369D02*
Y208682D01*
Y211290D02*
Y211817D01*
X363000Y205506D02*
Y208682D01*
Y211290D02*
Y211717D01*
Y213686D02*
Y214482D01*
X363100Y205631D02*
Y206727D01*
Y208473D02*
Y208682D01*
Y211290D02*
Y211617D01*
Y213945D02*
Y214482D01*
X363200Y205756D02*
Y206849D01*
Y208567D02*
Y208682D01*
Y211290D02*
Y211550D01*
Y214108D02*
Y214482D01*
X363300Y205881D02*
Y206974D01*
Y208632D02*
Y208682D01*
Y211290D02*
Y211493D01*
Y214208D02*
Y214482D01*
X363400Y206006D02*
Y207099D01*
Y208657D02*
Y208682D01*
Y211290D02*
Y211435D01*
Y214268D02*
Y214482D01*
X363500Y206131D02*
Y207224D01*
Y211290D02*
Y211386D01*
Y214318D02*
Y214482D01*
X363600Y206256D02*
Y207349D01*
Y211290D02*
Y211374D01*
Y214351D02*
Y214482D01*
X363700Y206381D02*
Y207474D01*
Y211290D02*
Y211361D01*
Y212076D02*
Y213696D01*
Y214376D02*
Y214482D01*
X363800Y206506D02*
Y207599D01*
Y211290D02*
Y211349D01*
Y212545D02*
Y213293D01*
Y214385D02*
Y214482D01*
X363900Y206631D02*
Y207724D01*
Y211290D02*
Y211338D01*
Y212694D02*
Y213127D01*
Y214385D02*
Y214482D01*
X364000Y206756D02*
Y207849D01*
Y211290D02*
Y211338D01*
Y212765D02*
Y213026D01*
Y214385D02*
Y214482D01*
X364100Y206881D02*
Y207974D01*
Y211290D02*
Y211338D01*
Y212820D02*
Y212956D01*
Y214385D02*
Y214482D01*
X364200Y207006D02*
Y208099D01*
Y211290D02*
Y211352D01*
Y212853D02*
Y212939D01*
Y214385D02*
Y214482D01*
X364300Y207131D02*
Y208224D01*
Y211290D02*
Y211377D01*
Y212862D02*
Y212923D01*
Y214385D02*
Y214482D01*
X364400Y207256D02*
Y208349D01*
Y211290D02*
Y211458D01*
Y212862D02*
Y212910D01*
Y214385D02*
Y214482D01*
X364500Y207381D02*
Y208474D01*
Y211290D02*
Y214482D01*
X364600Y207506D02*
Y208599D01*
Y211290D02*
Y214482D01*
X364700Y207631D02*
Y208682D01*
Y211290D02*
Y214482D01*
X364800Y207756D02*
Y208682D01*
Y211290D02*
Y214482D01*
X364900Y207881D02*
Y208682D01*
Y211290D02*
Y214482D01*
X365000Y205490D02*
Y205553D01*
Y208006D02*
Y208682D01*
Y211290D02*
Y214482D01*
X365100Y205490D02*
Y205655D01*
Y208130D02*
Y208682D01*
Y211290D02*
Y214482D01*
X365200Y205490D02*
Y208682D01*
Y211290D02*
Y211507D01*
Y214301D02*
Y214482D01*
Y215082D02*
Y216371D01*
X365300Y205490D02*
Y205739D01*
Y208391D02*
Y208682D01*
Y211290D02*
Y211340D01*
Y214432D02*
Y214482D01*
Y215223D02*
Y216371D01*
X365400Y205490D02*
Y205595D01*
Y208515D02*
Y208682D01*
Y211290D02*
Y211320D01*
Y214452D02*
Y214482D01*
Y215497D02*
Y216371D01*
X365500Y205490D02*
Y205529D01*
Y208590D02*
Y208682D01*
Y211290D02*
Y211300D01*
Y214472D02*
Y214482D01*
Y215781D02*
Y216371D01*
X365600Y208640D02*
Y208682D01*
Y215847D02*
Y216371D01*
X365700Y208660D02*
Y208682D01*
Y215914D02*
Y216371D01*
X365800Y215981D02*
Y216371D01*
X365900Y216047D02*
Y216371D01*
X366000Y216105D02*
Y216371D01*
X366100Y216155D02*
Y216371D01*
X366200Y205399D02*
Y205454D01*
Y210417D02*
Y210471D01*
Y211299D02*
Y211354D01*
Y216162D02*
Y216371D01*
X366300Y205399D02*
Y205457D01*
Y210414D02*
Y210471D01*
Y211299D02*
Y211357D01*
Y216162D02*
Y216371D01*
X366400Y205399D02*
Y205482D01*
Y210394D02*
Y210471D01*
Y211299D02*
Y211382D01*
Y216162D02*
Y216371D01*
X366500Y205399D02*
Y205507D01*
Y210374D02*
Y210471D01*
Y211299D02*
Y211407D01*
Y216162D02*
Y216371D01*
X366600Y205399D02*
Y205532D01*
Y210354D02*
Y210471D01*
Y211299D02*
Y211432D01*
Y216162D02*
Y216371D01*
X366700Y205399D02*
Y205621D01*
Y210327D02*
Y210471D01*
Y211299D02*
Y211521D01*
Y216162D02*
Y216371D01*
X366800Y205399D02*
Y205736D01*
Y210135D02*
Y210471D01*
Y211299D02*
Y211636D01*
Y216162D02*
Y216371D01*
X366900Y205399D02*
Y210471D01*
Y211299D02*
Y216371D01*
X367000Y205399D02*
Y210471D01*
Y211299D02*
Y216371D01*
X367100Y205399D02*
Y210471D01*
Y211299D02*
Y216371D01*
X367200Y205399D02*
Y210471D01*
Y211299D02*
Y216371D01*
X367300Y205399D02*
Y210471D01*
Y211299D02*
Y216371D01*
X367400Y205399D02*
Y210471D01*
Y211299D02*
Y216371D01*
X367500Y205399D02*
Y210471D01*
Y211299D02*
Y216371D01*
X367600Y205399D02*
Y210471D01*
Y211299D02*
Y216371D01*
X367700Y205399D02*
Y210471D01*
Y211299D02*
Y216371D01*
X367800Y205399D02*
Y210471D01*
Y211299D02*
Y216371D01*
X367900Y205399D02*
Y210471D01*
Y211299D02*
Y216371D01*
X368000Y205399D02*
Y210471D01*
Y211299D02*
Y216371D01*
X368100Y205399D02*
Y205690D01*
Y210224D02*
Y210471D01*
Y211299D02*
Y211590D01*
Y216162D02*
Y216371D01*
X368200Y205399D02*
Y205532D01*
Y210291D02*
Y210471D01*
Y211299D02*
Y211432D01*
Y216162D02*
Y216371D01*
X368300Y205399D02*
Y205512D01*
Y210344D02*
Y210471D01*
Y211299D02*
Y211412D01*
Y216162D02*
Y216371D01*
X368400Y205399D02*
Y205492D01*
Y210369D02*
Y210471D01*
Y211299D02*
Y211392D01*
Y216162D02*
Y216371D01*
X368500Y205399D02*
Y205472D01*
Y210394D02*
Y210471D01*
Y211299D02*
Y211372D01*
Y216153D02*
Y216371D01*
X368600Y205399D02*
Y205454D01*
Y210417D02*
Y210471D01*
Y211299D02*
Y211354D01*
Y216137D02*
Y216371D01*
X368700Y205399D02*
Y205454D01*
Y210417D02*
Y210471D01*
Y211299D02*
Y211354D01*
Y216120D02*
Y216371D01*
X368800Y216103D02*
Y216371D01*
X368900Y216087D02*
Y216371D01*
X369000Y216044D02*
Y216371D01*
X369100Y215994D02*
Y216371D01*
X369200Y215944D02*
Y216371D01*
X369300Y215835D02*
Y216371D01*
X369400Y215668D02*
Y216371D01*
X369500Y215490D02*
Y216371D01*
X369600Y215190D02*
Y216371D01*
X369700Y215082D02*
Y216371D01*
X397000Y326232D02*
Y327472D01*
X397100Y325847D02*
Y327842D01*
X397200Y325548D02*
Y328114D01*
X397300Y325381D02*
Y328314D01*
X397400Y325291D02*
Y328414D01*
X397500Y325219D02*
Y328485D01*
X397600Y325148D02*
Y326290D01*
Y327417D02*
Y328557D01*
X397700Y325092D02*
Y325940D01*
Y327825D02*
Y328613D01*
X397800Y325070D02*
Y325699D01*
Y327988D02*
Y328635D01*
X397900Y325047D02*
Y325577D01*
Y328078D02*
Y328657D01*
X398000Y325025D02*
Y325552D01*
Y328128D02*
Y328679D01*
X398100Y325003D02*
Y325527D01*
Y328177D02*
Y328701D01*
X398200Y324998D02*
Y325539D01*
Y328151D02*
Y328689D01*
X398300Y324998D02*
Y325559D01*
Y328111D02*
Y328669D01*
X398400Y325010D02*
Y325581D01*
Y328071D02*
Y328649D01*
X398500Y325050D02*
Y325719D01*
Y327975D02*
Y328629D01*
X398600Y325090D02*
Y325906D01*
Y327719D02*
Y328609D01*
X398700Y325139D02*
Y328547D01*
X398800Y325189D02*
Y328476D01*
X398900Y325309D02*
Y328404D01*
X399000Y325455D02*
Y328288D01*
X399100Y325622D02*
Y328088D01*
X399200Y325902D02*
Y327803D01*
X399300Y326284D02*
Y327420D01*
X399900Y325050D02*
Y325680D01*
Y327670D02*
Y327797D01*
X400000Y325050D02*
Y325680D01*
Y327245D02*
Y328183D01*
X400100Y325050D02*
Y325680D01*
Y327065D02*
Y328303D01*
X400200Y325050D02*
Y325680D01*
Y326885D02*
Y328416D01*
X400300Y325050D02*
Y325680D01*
Y326749D02*
Y328488D01*
X400400Y325050D02*
Y325680D01*
Y326649D02*
Y328559D01*
X400500Y325050D02*
Y325680D01*
Y326549D02*
Y328630D01*
X400600Y325050D02*
Y325680D01*
Y326449D02*
Y327332D01*
Y327910D02*
Y328663D01*
X400700Y325050D02*
Y325680D01*
Y326349D02*
Y327143D01*
Y328051D02*
Y328674D01*
X400800Y325050D02*
Y325680D01*
Y326268D02*
Y327009D01*
Y328118D02*
Y328685D01*
X400900Y325050D02*
Y325680D01*
Y326188D02*
Y326901D01*
Y328147D02*
Y328697D01*
X401000Y325050D02*
Y325680D01*
Y326101D02*
Y326813D01*
Y328172D02*
Y328705D01*
X401100Y325050D02*
Y325680D01*
Y326001D02*
Y326726D01*
Y328163D02*
Y328694D01*
X401200Y325050D02*
Y325680D01*
Y325878D02*
Y326638D01*
Y328130D02*
Y328683D01*
X401300Y325050D02*
Y326543D01*
Y328069D02*
Y328671D01*
X401400Y325050D02*
Y326432D01*
Y327992D02*
Y328660D01*
X401500Y325050D02*
Y326320D01*
Y327842D02*
Y328622D01*
X401600Y325050D02*
Y326209D01*
Y327613D02*
Y328565D01*
X401700Y325050D02*
Y326098D01*
Y327620D02*
Y328508D01*
X401800Y325050D02*
Y325953D01*
Y327627D02*
Y328440D01*
X401900Y325050D02*
Y325793D01*
Y327635D02*
Y328300D01*
X402000Y325050D02*
Y325627D01*
Y327642D02*
Y328160D01*
X402100Y325050D02*
Y325427D01*
Y327649D02*
Y327898D01*
X402200Y325050D02*
Y325138D01*
*
G04 PC Custom Flashes*
G04 Layer Name 430BOOST-SHARP96.pcb - flashes*
%LPD*%
*
*
G04 PC Circuitry*
G04 Layer Name 430BOOST-SHARP96.pcb - circuitry*
%LPD*%
*
G54D11*
X200000Y200000D02*
X410000D01*
Y335000*
X200000*
Y200000*
G54D12*
X527528Y115148D02*
X526960Y115930D01*
X526108Y116320*
X524972*
X524119Y115930*
X523551Y115148*
Y114367*
X523835Y113586*
X524119Y113195*
X524688Y112805*
X524688D02*
X526392Y112023D01*
X526960Y111633*
X527244Y111242*
X527528Y110461*
Y109289*
X526960Y108508*
X526108Y108117*
X524972*
X524119Y108508*
X523551Y109289*
X530369Y114367D02*
Y114758D01*
X530653Y115539*
X530938Y115930*
X530938D02*
X531506Y116320D01*
X532642*
X533210Y115930*
X533494Y115539*
X533778Y114758*
Y113977*
X533494Y113195*
X532926Y112023*
X530085Y108117*
X534063*
G54D13*
X238273Y114563D02*
X236000Y110188D01*
X236000D02*
X239409D01*
X238273Y114563D02*
Y108000D01*
X241909Y114563D02*
X244409D01*
X244409D02*
X243045Y112063D01*
X243045D02*
X243727D01*
X243727D02*
X244182Y111750D01*
X244409Y111438*
X244409D02*
X244636Y110500D01*
Y109875*
X244409Y108938*
X244409D02*
X243955Y108313D01*
X243955D02*
X243273Y108000D01*
X242591*
X241909Y108313*
X241909D02*
X241682Y108625D01*
X241455Y109250*
X248045Y114563D02*
X247364Y114250D01*
X246909Y113313*
X246909D02*
X246682Y111750D01*
Y110813*
X246682D02*
X246909Y109250D01*
X247364Y108313*
X247364D02*
X248045Y108000D01*
X248500*
X249182Y108313*
X249182D02*
X249636Y109250D01*
X249864Y110813*
X249864D02*
Y111750D01*
X249636Y113313*
X249636D02*
X249182Y114250D01*
X248500Y114563*
X248500D02*
X248045D01*
X251909D02*
Y108000D01*
Y114563D02*
X253955D01*
X253955D02*
X254636Y114250D01*
X254864Y113938*
X254864D02*
X255091Y113313D01*
X255091D02*
Y112688D01*
X255091D02*
X254864Y112063D01*
X254864D02*
X254636Y111750D01*
X253955Y111438*
X251909D02*
X253955D01*
X253955D02*
X254636Y111125D01*
X254864Y110813*
X254864D02*
X255091Y110188D01*
X255091D02*
Y109250D01*
X254864Y108625*
X254636Y108313*
X254636D02*
X253955Y108000D01*
X251909*
X258500Y114563D02*
X258045Y114250D01*
X257591Y113625*
X257364Y113000*
X257136Y112063*
X257136D02*
Y110500D01*
X257364Y109563*
X257364D02*
X257591Y108938D01*
X257591D02*
X258045Y108313D01*
X258045D02*
X258500Y108000D01*
X259409*
X259864Y108313*
X259864D02*
X260318Y108938D01*
X260318D02*
X260545Y109563D01*
X260545D02*
X260773Y110500D01*
Y112063*
X260773D02*
X260545Y113000D01*
X260318Y113625*
X259864Y114250*
X259409Y114563*
X259409D02*
X258500D01*
X264182D02*
X263727Y114250D01*
X263273Y113625*
X263045Y113000*
X262818Y112063*
X262818D02*
Y110500D01*
X263045Y109563*
X263045D02*
X263273Y108938D01*
X263273D02*
X263727Y108313D01*
X263727D02*
X264182Y108000D01*
X265091*
X265545Y108313*
X265545D02*
X266000Y108938D01*
X266000D02*
X266227Y109563D01*
X266227D02*
X266455Y110500D01*
Y112063*
X266455D02*
X266227Y113000D01*
X266000Y113625*
X265545Y114250*
X265091Y114563*
X265091D02*
X264182D01*
X271682Y113625D02*
X271227Y114250D01*
X270545Y114563*
X270545D02*
X269636D01*
X269636D02*
X268955Y114250D01*
X268500Y113625*
Y113000*
X268727Y112375*
X268955Y112063*
X268955D02*
X269409Y111750D01*
X270773Y111125*
X271227Y110813*
X271227D02*
X271455Y110500D01*
X271682Y109875*
Y108938*
X271682D02*
X271227Y108313D01*
X271227D02*
X270545Y108000D01*
X269636*
X268955Y108313*
X268955D02*
X268500Y108938D01*
X275318Y114563D02*
Y108000D01*
X273727Y114563D02*
X276909D01*
X278955Y110813D02*
X283045D01*
X288273Y113625D02*
X287818Y114250D01*
X287136Y114563*
X287136D02*
X286227D01*
X286227D02*
X285545Y114250D01*
X285091Y113625*
Y113000*
X285318Y112375*
X285545Y112063*
X285545D02*
X286000Y111750D01*
X287364Y111125*
X287818Y110813*
X287818D02*
X288045Y110500D01*
X288273Y109875*
Y108938*
X288273D02*
X287818Y108313D01*
X287818D02*
X287136Y108000D01*
X286227*
X285545Y108313*
X285545D02*
X285091Y108938D01*
X290318Y114563D02*
Y108000D01*
X293500Y114563D02*
Y108000D01*
X290318Y111438D02*
X293500D01*
X297364Y114563D02*
X295545Y108000D01*
X297364Y114563D02*
X299182Y108000D01*
X296227Y110188D02*
X298500D01*
X301227Y114563D02*
Y108000D01*
Y114563D02*
X303273D01*
X303273D02*
X303955Y114250D01*
X304182Y113938*
X304182D02*
X304409Y113313D01*
X304409D02*
Y112688D01*
X304409D02*
X304182Y112063D01*
X304182D02*
X303955Y111750D01*
X303273Y111438*
X303273D02*
X301227D01*
X302818D02*
X304409Y108000D01*
X306455Y114563D02*
Y108000D01*
Y114563D02*
X308500D01*
X308500D02*
X309182Y114250D01*
X309409Y113938*
X309409D02*
X309636Y113313D01*
X309636D02*
Y112375D01*
X309409Y111750*
X309182Y111438*
X309182D02*
X308500Y111125D01*
X306455*
X314636Y112375D02*
X314409Y111438D01*
X314409D02*
X313955Y110813D01*
X313955D02*
X313273Y110500D01*
X313045*
X312364Y110813*
X312364D02*
X311909Y111438D01*
X311909D02*
X311682Y112375D01*
Y112688*
X311682D02*
X311909Y113625D01*
X312364Y114250*
X313045Y114563*
X313045D02*
X313273D01*
X313273D02*
X313955Y114250D01*
X314409Y113625*
X314636Y112375*
Y110813*
X314636D02*
X314409Y109250D01*
X313955Y108313*
X313955D02*
X313273Y108000D01*
X312818*
X312136Y108313*
X312136D02*
X311909Y108938D01*
X319409Y113625D02*
X319182Y114250D01*
X318500Y114563*
X318500D02*
X318045D01*
X318045D02*
X317364Y114250D01*
X316909Y113313*
X316909D02*
X316682Y111750D01*
Y110188*
X316682D02*
X316909Y108938D01*
X316909D02*
X317364Y108313D01*
X317364D02*
X318045Y108000D01*
X318273*
X318955Y108313*
X318955D02*
X319409Y108938D01*
X319409D02*
X319636Y109875D01*
Y110188*
X319636D02*
X319409Y111125D01*
X318955Y111750*
X318273Y112063*
X318273D02*
X318045D01*
X318045D02*
X317364Y111750D01*
X316909Y111125*
X316682Y110188*
X341000Y112375D02*
Y108000D01*
Y110500D02*
X341227Y111438D01*
X341227D02*
X341682Y112063D01*
X341682D02*
X342136Y112375D01*
X342818*
X344864Y113313D02*
X345318Y113625D01*
X346000Y114563*
X346000D02*
Y108000D01*
X348273Y108625D02*
X348045Y108313D01*
X348045D02*
X348273Y108000D01*
X348500Y108313*
X348500D02*
X348273Y108625D01*
X350545Y113313D02*
X351000Y113625D01*
X351682Y114563*
X351682D02*
Y108000D01*
X294000Y323000D02*
X297000D01*
Y320000*
X294000*
Y323000*
Y322699D02*
X297000D01*
X294000Y321799D02*
X297000D01*
X294000Y320899D02*
X297000D01*
X517500Y140000D02*
Y100000D01*
X492500Y125000D02*
X742500D01*
X392500Y140000D02*
X592500D01*
X392500Y125000D02*
X592500D01*
X442500Y140000D02*
Y100000D01*
X260500D02*
Y85000D01*
X429500Y100000D02*
Y85000D01*
X542500Y140000D02*
Y100000D01*
X567500Y140000D02*
Y100000D01*
X492500Y140000D02*
X692500D01*
X617500Y139500D02*
Y99500D01*
X350500Y100000D02*
Y85000D01*
X504500Y100000D02*
Y85000D01*
X667500D02*
Y100000D01*
Y140000*
X523023Y135156D02*
Y128594D01*
Y135156D02*
X525068D01*
X525750Y134844*
X525977Y134531*
X526205Y133906*
Y133281*
X525977Y132656*
X525750Y132344*
X525068Y132031*
X523023D02*
X525068D01*
X525750Y131719*
X525977Y131406*
X526205Y130781*
Y129844*
X525977Y129219*
X525750Y128906*
X525068Y128594*
X523023*
X529386Y132969D02*
X528932Y132656D01*
X528477Y132031*
X528250Y131094*
Y130469*
X528477Y129531*
X528932Y128906*
X529386Y128594*
X530068*
X530523Y128906*
X530977Y129531*
X531205Y130469*
Y131094*
X530977Y132031*
X530523Y132656*
X530068Y132969*
X529386*
X533932Y135156D02*
Y129844D01*
X534159Y128906*
X534614Y128594*
X535068*
X533250Y132969D02*
X534841D01*
X697000Y142125D02*
Y136875D01*
Y142125D02*
X699364D01*
X697000Y139625D02*
X698455D01*
X703182Y140375D02*
Y136875D01*
Y139625D02*
X702818Y140125D01*
X702455Y140375*
X701909*
X701545Y140125*
X701182Y139625*
X701000Y138875*
Y138375*
X701182Y137625*
X701545Y137125*
X701909Y136875*
X702455*
X702818Y137125*
X703182Y137625*
X704818Y142125D02*
Y136875D01*
Y139625D02*
X705182Y140125D01*
X705545Y140375*
X706091*
X706455Y140125*
X706818Y139625*
X707000Y138875*
Y138375*
X706818Y137625*
X706455Y137125*
X706091Y136875*
X705545*
X705182Y137125*
X704818Y137625*
X712818Y142125D02*
Y136875D01*
Y142125D02*
X714091D01*
X714636Y141875*
X715000Y141375*
X715182Y140875*
X715364Y140125*
Y138875*
X715182Y138125*
X715000Y137625*
X714636Y137125*
X714091Y136875*
X712818*
X717000Y140375D02*
Y136875D01*
Y138875D02*
X717182Y139625D01*
X717545Y140125*
X717909Y140375*
X718455*
X722273D02*
Y136875D01*
Y139625D02*
X721909Y140125D01*
X721545Y140375*
X721000*
X720636Y140125*
X720273Y139625*
X720091Y138875*
Y138375*
X720273Y137625*
X720636Y137125*
X721000Y136875*
X721545*
X721909Y137125*
X722273Y137625*
X723909Y140375D02*
X724636Y136875D01*
X725364Y140375D02*
X724636Y136875D01*
X725364Y140375D02*
X726091Y136875D01*
X726818Y140375D02*
X726091Y136875D01*
X728455Y142125D02*
X728636Y141875D01*
X728818Y142125*
X728636Y142375*
X728455Y142125*
X728636Y140375D02*
Y136875D01*
X730455Y140375D02*
Y136875D01*
Y139375D02*
X731000Y140125D01*
X731364Y140375*
X731909*
X732273Y140125*
X732455Y139375*
Y136875*
X736273Y140375D02*
Y136375D01*
X736091Y135625*
X735909Y135375*
X735545Y135125*
X735000*
X734636Y135375*
X736273Y139625D02*
X735909Y140125D01*
X735545Y140375*
X735000*
X734636Y140125*
X734273Y139625*
X734091Y138875*
Y138375*
X734273Y137625*
X734636Y137125*
X735000Y136875*
X735545*
X735909Y137125*
X736273Y137625*
X673023Y135156D02*
Y128594D01*
Y135156D02*
X675068D01*
X675750Y134844*
X675977Y134531*
X676205Y133906*
Y133281*
X675977Y132656*
X675750Y132344*
X675068Y132031*
X673023D02*
X675068D01*
X675750Y131719*
X675977Y131406*
X676205Y130781*
Y129844*
X675977Y129219*
X675750Y128906*
X675068Y128594*
X673023*
X679386Y132969D02*
X678932Y132656D01*
X678477Y132031*
X678250Y131094*
Y130469*
X678477Y129531*
X678932Y128906*
X679386Y128594*
X680068*
X680523Y128906*
X680977Y129531*
X681205Y130469*
Y131094*
X680977Y132031*
X680523Y132656*
X680068Y132969*
X679386*
X683932Y135156D02*
Y129844D01*
X684159Y128906*
X684614Y128594*
X685068*
X683250Y132969D02*
X684841D01*
X649159Y135156D02*
Y128594D01*
X647568Y135156D02*
X650750D01*
X653932Y132969D02*
X653477Y132656D01*
X653023Y132031*
X652795Y131094*
Y130469*
X653023Y129531*
X653477Y128906*
X653932Y128594*
X654614*
X655068Y128906*
X655523Y129531*
X655750Y130469*
Y131094*
X655523Y132031*
X655068Y132656*
X654614Y132969*
X653932*
X657795D02*
Y126406D01*
Y132031D02*
X658250Y132656D01*
X658705Y132969*
X659386*
X659841Y132656*
X660295Y132031*
X660523Y131094*
Y130469*
X660295Y129531*
X659841Y128906*
X659386Y128594*
X658705*
X658250Y128906*
X657795Y129531*
X651695Y149917D02*
X650041Y143945D01*
X651695Y149917D02*
X653350Y143945D01*
X650661Y145936D02*
X652730D01*
X657486Y147073D02*
X657280Y147642D01*
X656659Y147927*
X656039*
X655418Y147642*
X655211Y147073*
X655418Y146505*
X655832Y146220*
X656866Y145936*
X657280Y145652*
X657486Y145083*
Y144798*
X657280Y144230*
X656659Y143945*
X656039*
X655418Y144230*
X655211Y144798*
X661623Y147073D02*
X661416Y147642D01*
X660795Y147927*
X660175*
X659555Y147642*
X659348Y147073*
X659555Y146505*
X659968Y146220*
X661002Y145936*
X661416Y145652*
X661623Y145083*
Y144798*
X661416Y144230*
X660795Y143945*
X660175*
X659555Y144230*
X659348Y144798*
X663484Y146220D02*
X665966D01*
Y146789*
X665759Y147358*
X665552Y147642*
X665139Y147927*
X664518*
X664105Y147642*
X663691Y147073*
X663484Y146220*
Y145652*
X663691Y144798*
X664105Y144230*
X664518Y143945*
X665139*
X665552Y144230*
X665966Y144798*
X667827Y147927D02*
Y143945D01*
Y146789D02*
X668448Y147642D01*
X668861Y147927*
X669482*
X669895Y147642*
X670102Y146789*
Y143945*
Y146789D02*
X670723Y147642D01*
X671136Y147927*
X671757*
X672170Y147642*
X672377Y146789*
Y143945*
X674239Y149917D02*
Y143945D01*
Y147073D02*
X674652Y147642D01*
X675066Y147927*
X675686*
X676100Y147642*
X676514Y147073*
X676720Y146220*
Y145652*
X676514Y144798*
X676100Y144230*
X675686Y143945*
X675066*
X674652Y144230*
X674239Y144798*
X678582Y149917D02*
Y143945D01*
X680650Y147927D02*
X681891Y143945D01*
X683132Y147927D02*
X681891Y143945D01*
X681477Y142808*
X681064Y142239*
X680650Y141955*
X680443*
X603867Y149417D02*
Y143445D01*
Y149417D02*
X605728D01*
X606349Y149133*
X606556Y148848*
X606763Y148280*
X606763D02*
Y147427D01*
X606763D02*
X606556Y146858D01*
X606349Y146573*
X605728Y146289*
X603867*
X613381Y149417D02*
Y143445D01*
Y149417D02*
X615035Y143445D01*
X616690Y149417D02*
X615035Y143445D01*
X616690Y149417D02*
Y143445D01*
X621033Y147427D02*
Y143445D01*
Y146573D02*
X620619Y147142D01*
X620206Y147427*
X619585*
X619172Y147142*
X618758Y146573*
X618551Y145720*
Y145152*
X618758Y144298*
X619172Y143730*
X619585Y143445*
X620206*
X620619Y143730*
X621033Y144298*
X625169Y146573D02*
X624963Y147142D01*
X624963D02*
X624342Y147427D01*
X623722*
X623101Y147142*
X622894Y146573*
X623101Y146005*
X623515Y145720*
X624549Y145436*
X624963Y145152*
X624963D02*
X625169Y144583D01*
Y144298*
X624963Y143730*
X624963D02*
X624342Y143445D01*
X623722*
X623101Y143730*
X622894Y144298*
X627031Y149417D02*
Y143445D01*
X629099Y147427D02*
X627031Y144583D01*
X627858Y145720D02*
X629306Y143445D01*
X623023Y134656D02*
Y128094D01*
Y134656D02*
X625068D01*
X625750Y134344*
X625977Y134031*
X626205Y133406*
Y132781*
X625977Y132156*
X625750Y131844*
X625068Y131531*
X623023D02*
X625068D01*
X625750Y131219*
X625977Y130906*
X626205Y130281*
Y129344*
X625977Y128719*
X625750Y128406*
X625068Y128094*
X623023*
X629386Y132469D02*
X628932Y132156D01*
X628477Y131531*
X628250Y130594*
Y129969*
X628477Y129031*
X628932Y128406*
X629386Y128094*
X630068*
X630523Y128406*
X630977Y129031*
X631205Y129969*
Y130594*
X630977Y131531*
X630523Y132156*
X630068Y132469*
X629386*
X633932Y134656D02*
Y129344D01*
X634159Y128406*
X634614Y128094*
X635068*
X633250Y132469D02*
X634841D01*
X599159Y134656D02*
Y128094D01*
X597568Y134656D02*
X600750D01*
X603932Y132469D02*
X603477Y132156D01*
X603023Y131531*
X602795Y130594*
Y129969*
X603023Y129031*
X603477Y128406*
X603932Y128094*
X604614*
X605068Y128406*
X605523Y129031*
X605750Y129969*
Y130594*
X605523Y131531*
X605068Y132156*
X604614Y132469*
X603932*
X607795D02*
Y125906D01*
Y131531D02*
X608250Y132156D01*
X608705Y132469*
X609386*
X609841Y132156*
X610295Y131531*
X610523Y130594*
Y129969*
X610295Y129031*
X609841Y128406*
X609386Y128094*
X608705*
X608250Y128406*
X607795Y129031*
X573023Y135156D02*
Y128594D01*
Y135156D02*
X575068D01*
X575750Y134844*
X575977Y134531*
X576205Y133906*
Y133281*
X575977Y132656*
X575750Y132344*
X575068Y132031*
X573023D02*
X575068D01*
X575750Y131719*
X575977Y131406*
X576205Y130781*
Y129844*
X575977Y129219*
X575750Y128906*
X575068Y128594*
X573023*
X579386Y132969D02*
X578932Y132656D01*
X578477Y132031*
X578250Y131094*
Y130469*
X578477Y129531*
X578932Y128906*
X579386Y128594*
X580068*
X580523Y128906*
X580977Y129531*
X581205Y130469*
Y131094*
X580977Y132031*
X580523Y132656*
X580068Y132969*
X579386*
X583932Y135156D02*
Y129844D01*
X584159Y128906*
X584614Y128594*
X585068*
X583250Y132969D02*
X584841D01*
X549159Y135156D02*
Y128594D01*
X547568Y135156D02*
X550750D01*
X553932Y132969D02*
X553477Y132656D01*
X553023Y132031*
X552795Y131094*
Y130469*
X553023Y129531*
X553477Y128906*
X553932Y128594*
X554614*
X555068Y128906*
X555523Y129531*
X555750Y130469*
Y131094*
X555523Y132031*
X555068Y132656*
X554614Y132969*
X553932*
X557795D02*
Y126406D01*
Y132031D02*
X558250Y132656D01*
X558705Y132969*
X559386*
X559841Y132656*
X560295Y132031*
X560523Y131094*
Y130469*
X560295Y129531*
X559841Y128906*
X559386Y128594*
X558705*
X558250Y128906*
X557795Y129531*
X556763Y149064D02*
X556349Y149633D01*
X555728Y149917*
X554901*
X554281Y149633*
X553867Y149064*
Y148495*
X554074Y147927*
X554281Y147642*
X554694Y147358*
X555935Y146789*
X556349Y146505*
X556556Y146220*
X556763Y145652*
X556763D02*
Y144798D01*
X556763D02*
X556349Y144230D01*
X555728Y143945*
X554901*
X554281Y144230*
X553867Y144798*
X563381Y149917D02*
Y143945D01*
Y149917D02*
X565035Y143945D01*
X566690Y149917D02*
X565035Y143945D01*
X566690Y149917D02*
Y143945D01*
X571033Y147927D02*
Y143945D01*
Y147073D02*
X570619Y147642D01*
X570206Y147927*
X569585*
X569172Y147642*
X568758Y147073*
X568551Y146220*
Y145652*
X568758Y144798*
X569172Y144230*
X569585Y143945*
X570206*
X570619Y144230*
X571033Y144798*
X575169Y147073D02*
X574963Y147642D01*
X574963D02*
X574342Y147927D01*
X573722*
X573101Y147642*
X572894Y147073*
X573101Y146505*
X573515Y146220*
X574549Y145936*
X574963Y145652*
X574963D02*
X575169Y145083D01*
Y144798*
X574963Y144230*
X574963D02*
X574342Y143945D01*
X573722*
X573101Y144230*
X572894Y144798*
X577031Y149917D02*
Y143945D01*
X579099Y147927D02*
X577031Y145083D01*
X577858Y146220D02*
X579306Y143945D01*
X411659Y135156D02*
Y128594D01*
X410068Y135156D02*
X413250D01*
X416432Y132969D02*
X415977Y132656D01*
X415523Y132031*
X415295Y131094*
Y130469*
X415523Y129531*
X415977Y128906*
X416432Y128594*
X417114*
X417568Y128906*
X418023Y129531*
X418250Y130469*
Y131094*
X418023Y132031*
X417568Y132656*
X417114Y132969*
X416432*
X420295D02*
Y126406D01*
Y132031D02*
X420750Y132656D01*
X421205Y132969*
X421886*
X422341Y132656*
X422795Y132031*
X423023Y131094*
Y130469*
X422795Y129531*
X422341Y128906*
X421886Y128594*
X421205*
X420750Y128906*
X420295Y129531*
X460523Y135156D02*
Y128594D01*
Y135156D02*
X462568D01*
X463250Y134844*
X463477Y134531*
X463705Y133906*
Y133281*
X463477Y132656*
X463250Y132344*
X462568Y132031*
X460523D02*
X462568D01*
X463250Y131719*
X463477Y131406*
X463705Y130781*
Y129844*
X463477Y129219*
X463250Y128906*
X462568Y128594*
X460523*
X466886Y132969D02*
X466432Y132656D01*
X465977Y132031*
X465750Y131094*
Y130469*
X465977Y129531*
X466432Y128906*
X466886Y128594*
X467568*
X468023Y128906*
X468477Y129531*
X468705Y130469*
Y131094*
X468477Y132031*
X468023Y132656*
X467568Y132969*
X466886*
X471432Y135156D02*
Y129844D01*
X471659Y128906*
X472114Y128594*
X472568*
X470750Y132969D02*
X472341D01*
X407358Y148495D02*
X407151Y149064D01*
X406738Y149633*
X406738D02*
X406324Y149917D01*
X405497*
X405083Y149633*
X404669Y149064*
X404463Y148495*
X404463D02*
X404256Y147642D01*
Y146220*
X404463Y145367*
X404463D02*
X404669Y144798D01*
X405083Y144230*
X405497Y143945*
X406324*
X406738Y144230*
X406738D02*
X407151Y144798D01*
X407358Y145367*
X410253Y147927D02*
X409840Y147642D01*
X409426Y147073*
X409219Y146220*
Y145652*
X409426Y144798*
X409840Y144230*
X410253Y143945*
X410874*
X411288Y144230*
X411288D02*
X411701Y144798D01*
X411908Y145652*
Y146220*
X411701Y147073*
X411288Y147642*
X411288D02*
X410874Y147927D01*
X410253*
X413769D02*
Y141955D01*
Y147073D02*
X414183Y147642D01*
X414597Y147927*
X415217*
X415631Y147642*
X416044Y147073*
X416251Y146220*
Y145652*
X416044Y144798*
X415631Y144230*
X415217Y143945*
X414597*
X414183Y144230*
X413769Y144798*
X418113Y147927D02*
Y141955D01*
Y147073D02*
X418526Y147642D01*
X418940Y147927*
X419560*
X419974Y147642*
X420388Y147073*
X420388D02*
X420594Y146220D01*
Y145652*
X420388Y144798*
X420388D02*
X419974Y144230D01*
X419560Y143945*
X418940*
X418526Y144230*
X418113Y144798*
X422456Y146220D02*
X424938D01*
X424938D02*
Y146789D01*
X424938D02*
X424731Y147358D01*
X424524Y147642*
X424110Y147927*
X423490*
X423076Y147642*
X422663Y147073*
X422663D02*
X422456Y146220D01*
Y145652*
X422663Y144798*
X422663D02*
X423076Y144230D01*
X423490Y143945*
X424110*
X424524Y144230*
X424938Y144798*
X426799Y147927D02*
Y143945D01*
Y146220D02*
X427006Y147073D01*
X427419Y147642*
X427833Y147927*
X428453*
X435072Y149917D02*
Y143945D01*
X437553*
X441897Y147927D02*
Y143945D01*
Y147073D02*
X441483Y147642D01*
X441069Y147927*
X440449*
X440035Y147642*
X439622Y147073*
X439415Y146220*
Y145652*
X439622Y144798*
X440035Y144230*
X440449Y143945*
X441069*
X441483Y144230*
X441897Y144798*
X443965Y147927D02*
X445206Y143945D01*
X446447Y147927D02*
X445206Y143945D01*
X444792Y142808*
X444378Y142239*
X443965Y141955*
X443758*
X448308Y146220D02*
X450790D01*
Y146789*
X450583Y147358*
X450376Y147642*
X449963Y147927*
X449963D02*
X449342D01*
X448928Y147642*
X448515Y147073*
X448308Y146220*
Y145652*
X448515Y144798*
X448928Y144230*
X449342Y143945*
X449963*
X449963D02*
X450376Y144230D01*
X450790Y144798*
X452651Y147927D02*
Y143945D01*
Y146220D02*
X452858Y147073D01*
X453272Y147642*
X453685Y147927*
X454306*
X460924Y149917D02*
Y143945D01*
Y149917D02*
X463819Y143945D01*
Y149917D02*
Y143945D01*
X468163Y147927D02*
Y143945D01*
Y147073D02*
X467749Y147642D01*
X467335Y147927*
X466715*
X466301Y147642*
X465888Y147073*
X465888D02*
X465681Y146220D01*
Y145652*
X465888Y144798*
X465888D02*
X466301Y144230D01*
X466715Y143945*
X467335*
X467749Y144230*
X468163Y144798*
X470024Y147927D02*
Y143945D01*
Y146789D02*
X470644Y147642D01*
X471058Y147927*
X471678*
X472092Y147642*
X472299Y146789*
Y143945*
Y146789D02*
X472919Y147642D01*
X473333Y147927*
X473953*
X474367Y147642*
X474574Y146789*
Y143945*
X476435Y146220D02*
X478917D01*
Y146789*
X478710Y147358*
X478503Y147642*
X478090Y147927*
X477469*
X477056Y147642*
X476642Y147073*
X476435Y146220*
Y145652*
X476642Y144798*
X477056Y144230*
X477469Y143945*
X478090*
X478503Y144230*
X478917Y144798*
X501489Y149064D02*
X501075Y149633D01*
X500455Y149917*
X499627*
X499007Y149633*
X498593Y149064*
Y148495*
X498800Y147927*
X499007Y147642*
X499420Y147358*
X500661Y146789*
X501075Y146505*
X501282Y146220*
X501489Y145652*
Y144798*
X501075Y144230*
X500455Y143945*
X499627*
X499007Y144230*
X498593Y144798*
X503350Y149917D02*
X503557Y149633D01*
X503764Y149917*
X503557Y150202*
X503350Y149917*
X503557Y147927D02*
Y143945D01*
X505625Y149917D02*
Y143945D01*
X507486Y149917D02*
Y143945D01*
X509555Y147927D02*
X507486Y145083D01*
X508314Y146220D02*
X509761Y143945D01*
X513898Y147073D02*
X513691Y147642D01*
X513070Y147927*
X512450*
X511830Y147642*
X511623Y147073*
X511830Y146505*
X512243Y146220*
X513277Y145936*
X513691Y145652*
X513898Y145083*
Y144798*
X513691Y144230*
X513070Y143945*
X512450*
X511830Y144230*
X511623Y144798*
X518241Y147073D02*
X517827Y147642D01*
X517414Y147927*
X516793*
X516380Y147642*
X515966Y147073*
X515759Y146220*
Y145652*
X515966Y144798*
X516380Y144230*
X516793Y143945*
X517414*
X517827Y144230*
X518241Y144798*
X520102Y147927D02*
Y143945D01*
Y146220D02*
X520309Y147073D01*
X520723Y147642*
X521136Y147927*
X521757*
X523618Y146220D02*
X526100D01*
Y146789*
X525893Y147358*
X525686Y147642*
X525273Y147927*
X524652*
X524239Y147642*
X523825Y147073*
X523618Y146220*
Y145652*
X523825Y144798*
X524239Y144230*
X524652Y143945*
X525273*
X525686Y144230*
X526100Y144798*
X527961Y146220D02*
X530443D01*
Y146789*
X530236Y147358*
X530030Y147642*
X529616Y147927*
X528995*
X528582Y147642*
X528168Y147073*
X527961Y146220*
Y145652*
X528168Y144798*
X528582Y144230*
X528995Y143945*
X529616*
X530030Y144230*
X530443Y144798*
X532305Y147927D02*
Y143945D01*
Y146789D02*
X532925Y147642D01*
X533339Y147927*
X533959*
X534373Y147642*
X534580Y146789*
Y143945*
X499159Y135156D02*
Y128594D01*
X497568Y135156D02*
X500750D01*
X503932Y132969D02*
X503477Y132656D01*
X503023Y132031*
X502795Y131094*
Y130469*
X503023Y129531*
X503477Y128906*
X503932Y128594*
X504614*
X505068Y128906*
X505523Y129531*
X505750Y130469*
Y131094*
X505523Y132031*
X505068Y132656*
X504614Y132969*
X503932*
X507795D02*
Y126406D01*
Y132031D02*
X508250Y132656D01*
X508705Y132969*
X509386*
X509841Y132656*
X510295Y132031*
X510523Y131094*
Y130469*
X510295Y129531*
X509841Y128906*
X509386Y128594*
X508705*
X508250Y128906*
X507795Y129531*
G54D14*
X200000Y85000D02*
X742500D01*
Y155000*
X200000*
Y85000*
X492500Y100500D02*
Y155000D01*
X392500Y100500D02*
Y155000D01*
X200000Y125000D02*
X392500D01*
X200000Y100000D02*
X742500D01*
X330000D02*
Y125000D01*
X542500Y100500D02*
Y155000D01*
X592500Y100000D02*
Y154500D01*
X642500Y100500D02*
Y155000D01*
X692500Y100500D02*
Y155000D01*
G54D15*
X219886Y143984D02*
Y134141D01*
X217500Y143984D02*
X222273D01*
X225341D02*
Y134141D01*
Y143984D02*
X229773D01*
X225341Y139297D02*
X228068D01*
X225341Y134141D02*
X229773D01*
X232841Y143984D02*
X237614Y134141D01*
Y143984D02*
X232841Y134141D01*
X243409Y143984D02*
X240682Y134141D01*
X243409Y143984D02*
X246136Y134141D01*
X241705Y137422D02*
X245114D01*
X253977Y142578D02*
X253295Y143516D01*
X252273Y143984*
X250909*
X249886Y143516*
X249205Y142578*
Y141641*
X249545Y140703*
X249886Y140234*
X250568Y139766*
X252614Y138828*
X253295Y138359*
X253636Y137891*
X253977Y136953*
Y135547*
X253295Y134609*
X252273Y134141*
X250909*
X249886Y134609*
X249205Y135547*
X264886Y143984D02*
Y134141D01*
X267955Y143984D02*
Y134141D01*
Y143984D02*
X272727Y134141D01*
Y143984D02*
Y134141D01*
X280568Y142578D02*
X279886Y143516D01*
X278864Y143984*
X277500*
X276477Y143516*
X275795Y142578*
Y141641*
X276136Y140703*
X276477Y140234*
X277159Y139766*
X279205Y138828*
X279886Y138359*
X280227Y137891*
X280568Y136953*
Y135547*
X279886Y134609*
X278864Y134141*
X277500*
X276477Y134609*
X275795Y135547*
X286023Y143984D02*
Y134141D01*
X283636Y143984D02*
X288409D01*
X291477D02*
Y134141D01*
Y143984D02*
X294545D01*
X295568Y143516*
X295909Y143047*
X296250Y142109*
Y141172*
X295909Y140234*
X295568Y139766*
X294545Y139297*
X291477*
X293864D02*
X296250Y134141D01*
X299318Y143984D02*
Y136953D01*
X299659Y135547*
X300341Y134609*
X301364Y134141*
X302045*
X303068Y134609*
X303750Y135547*
X304091Y136953*
Y143984*
X307159D02*
Y134141D01*
Y143984D02*
X309886Y134141D01*
X312614Y143984D02*
X309886Y134141D01*
X312614Y143984D02*
Y134141D01*
X315682Y143984D02*
Y134141D01*
Y143984D02*
X320114D01*
X315682Y139297D02*
X318409D01*
X315682Y134141D02*
X320114D01*
X323182Y143984D02*
Y134141D01*
Y143984D02*
X327955Y134141D01*
Y143984D02*
Y134141D01*
X333409Y143984D02*
Y134141D01*
X331023Y143984D02*
X335795D01*
X343636Y142578D02*
X342955Y143516D01*
X341932Y143984*
X340568*
X339545Y143516*
X338864Y142578*
Y141641*
X339205Y140703*
X339545Y140234*
X340227Y139766*
X342273Y138828*
X342955Y138359*
X343295Y137891*
X343636Y136953*
Y135547*
X342955Y134609*
X341932Y134141*
X340568*
X339545Y134609*
X338864Y135547*
G54D16*
X672091Y95859D02*
X671864Y96172D01*
X671523Y96328*
X671068*
X670727Y96172*
X670500Y95859*
Y95547*
X670614Y95234*
X670727Y95078*
X670955Y94922*
X671636Y94609*
X671864Y94453*
X671977Y94297*
X672091Y93984*
Y93516*
X671864Y93203*
X671523Y93047*
X671068*
X670727Y93203*
X670500Y93516*
X673682Y95234D02*
X673455Y95078D01*
X673227Y94766*
X673114Y94297*
Y93984*
X673227Y93516*
X673455Y93203*
X673682Y93047*
X674023*
X674250Y93203*
X674477Y93516*
X674591Y93984*
Y94297*
X674477Y94766*
X674250Y95078*
X674023Y95234*
X673682*
X676523Y96328D02*
X676295D01*
X676068Y96172*
X675955Y95703*
Y93047*
X675614Y95234D02*
X676409D01*
X677886Y96328D02*
Y93672D01*
X678000Y93203*
X678227Y93047*
X678455*
X677545Y95234D02*
X678341D01*
X679477D02*
X679932Y93047D01*
X680386Y95234D02*
X679932Y93047D01*
X680386Y95234D02*
X680841Y93047D01*
X681295Y95234D02*
X680841Y93047D01*
X683682Y95234D02*
Y93047D01*
Y94766D02*
X683455Y95078D01*
X683227Y95234*
X682886*
X682659Y95078*
X682432Y94766*
X682318Y94297*
Y93984*
X682432Y93516*
X682659Y93203*
X682886Y93047*
X683227*
X683455Y93203*
X683682Y93516*
X684705Y95234D02*
Y93047D01*
Y94297D02*
X684818Y94766D01*
X685045Y95078*
X685273Y95234*
X685614*
X686636Y94297D02*
X688000D01*
Y94609*
X687886Y94922*
X687773Y95078*
X687545Y95234*
X687205*
X686977Y95078*
X686750Y94766*
X686636Y94297*
Y93984*
X686750Y93516*
X686977Y93203*
X687205Y93047*
X687545*
X687773Y93203*
X688000Y93516*
X354000Y96328D02*
Y93047D01*
Y96328D02*
X355477D01*
X354000Y94766D02*
X354909D01*
X354000Y93047D02*
X355477D01*
X356500Y95234D02*
Y93047D01*
Y94609D02*
X356841Y95078D01*
X357068Y95234*
X357409*
X357636Y95078*
X357750Y94609*
Y93047*
X360136Y95234D02*
Y92734D01*
X360023Y92266*
X359909Y92109*
X359682Y91953*
X359341*
X359114Y92109*
X360136Y94766D02*
X359909Y95078D01*
X359682Y95234*
X359341*
X359114Y95078*
X358886Y94766*
X358773Y94297*
Y93984*
X358886Y93516*
X359114Y93203*
X359341Y93047*
X359682*
X359909Y93203*
X360136Y93516*
X361159Y96328D02*
X361273Y96172D01*
X361386Y96328*
X361273Y96484*
X361159Y96328*
X361273Y95234D02*
Y93047D01*
X362409Y95234D02*
Y93047D01*
Y94609D02*
X362750Y95078D01*
X362977Y95234*
X363318*
X363545Y95078*
X363659Y94609*
Y93047*
X364682Y94297D02*
X366045D01*
Y94609*
X365932Y94922*
X365818Y95078*
X365591Y95234*
X365250*
X365023Y95078*
X364795Y94766*
X364682Y94297*
Y93984*
X364795Y93516*
X365023Y93203*
X365250Y93047*
X365591*
X365818Y93203*
X366045Y93516*
X367068Y94297D02*
X368432D01*
Y94609*
X368318Y94922*
X368205Y95078*
X367977Y95234*
X367636*
X367409Y95078*
X367182Y94766*
X367068Y94297*
Y93984*
X367182Y93516*
X367409Y93203*
X367636Y93047*
X367977*
X368205Y93203*
X368432Y93516*
X369455Y95234D02*
Y93047D01*
Y94297D02*
X369568Y94766D01*
X369795Y95078*
X370023Y95234*
X370364*
X371500D02*
X371386Y95078D01*
X371500Y94922*
X371614Y95078*
X371500Y95234*
Y93359D02*
X371386Y93203D01*
X371500Y93047*
X371614Y93203*
X371500Y93359*
X508000Y96328D02*
Y93047D01*
Y96328D02*
X508909Y93047D01*
X509818Y96328D02*
X508909Y93047D01*
X509818Y96328D02*
Y93047D01*
X511409Y95234D02*
X511182Y95078D01*
X510955Y94766*
X510841Y94297*
Y93984*
X510955Y93516*
X511182Y93203*
X511409Y93047*
X511750*
X511977Y93203*
X512205Y93516*
X512318Y93984*
Y94297*
X512205Y94766*
X511977Y95078*
X511750Y95234*
X511409*
X514705Y96328D02*
Y93047D01*
Y94766D02*
X514477Y95078D01*
X514250Y95234*
X513909*
X513682Y95078*
X513455Y94766*
X513341Y94297*
Y93984*
X513455Y93516*
X513682Y93203*
X513909Y93047*
X514250*
X514477Y93203*
X514705Y93516*
X515727Y96328D02*
X515841Y96172D01*
X515955Y96328*
X515841Y96484*
X515727Y96328*
X515841Y95234D02*
Y93047D01*
X517886Y96328D02*
X517659D01*
X517432Y96172*
X517318Y95703*
Y93047*
X516977Y95234D02*
X517773D01*
X518909Y96328D02*
X519023Y96172D01*
X519136Y96328*
X519023Y96484*
X518909Y96328*
X519023Y95234D02*
Y93047D01*
X520159Y94297D02*
X521523D01*
Y94609*
X521409Y94922*
X521295Y95078*
X521068Y95234*
X520727*
X520500Y95078*
X520273Y94766*
X520159Y94297*
Y93984*
X520273Y93516*
X520500Y93203*
X520727Y93047*
X521068*
X521295Y93203*
X521523Y93516*
X523909Y96328D02*
Y93047D01*
Y94766D02*
X523682Y95078D01*
X523455Y95234*
X523114*
X522886Y95078*
X522659Y94766*
X522545Y94297*
Y93984*
X522659Y93516*
X522886Y93203*
X523114Y93047*
X523455*
X523682Y93203*
X523909Y93516*
X527545Y96328D02*
Y93047D01*
Y96328D02*
X528341D01*
X528682Y96172*
X528909Y95859*
X529023Y95547*
X529136Y95078*
Y94297*
X529023Y93828*
X528909Y93516*
X528682Y93203*
X528341Y93047*
X527545*
X531523Y95234D02*
Y93047D01*
Y94766D02*
X531295Y95078D01*
X531068Y95234*
X530727*
X530500Y95078*
X530273Y94766*
X530159Y94297*
Y93984*
X530273Y93516*
X530500Y93203*
X530727Y93047*
X531068*
X531295Y93203*
X531523Y93516*
X532886Y96328D02*
Y93672D01*
X533000Y93203*
X533227Y93047*
X533455*
X532545Y95234D02*
X533341D01*
X534477Y94297D02*
X535841D01*
Y94609*
X535727Y94922*
X535614Y95078*
X535386Y95234*
X535045*
X534818Y95078*
X534591Y94766*
X534477Y94297*
Y93984*
X534591Y93516*
X534818Y93203*
X535045Y93047*
X535386*
X535614Y93203*
X535841Y93516*
X536977Y95234D02*
X536864Y95078D01*
X536977Y94922*
X537091Y95078*
X536977Y95234*
Y93359D02*
X536864Y93203D01*
X536977Y93047*
X537091Y93203*
X536977Y93359*
X433000Y96328D02*
Y93047D01*
Y96328D02*
X434023D01*
X434364Y96172*
X434477Y96016*
X434591Y95703*
Y95234*
X434477Y94922*
X434364Y94766*
X434023Y94609*
X433000*
X437318Y95547D02*
X437205Y95859D01*
X436977Y96172*
X436750Y96328*
X436295*
X436068Y96172*
X435841Y95859*
X435727Y95547*
X435614Y95078*
Y94297*
X435727Y93828*
X435841Y93516*
X436068Y93203*
X436295Y93047*
X436750*
X436977Y93203*
X437205Y93516*
X437318Y93828*
X438341Y96328D02*
Y93047D01*
Y96328D02*
X439364D01*
X439705Y96172*
X439818Y96016*
X439932Y95703*
Y95391*
X439818Y95078*
X439705Y94922*
X439364Y94766*
X438341D02*
X439364D01*
X439705Y94609*
X439818Y94453*
X439932Y94141*
Y93672*
X439818Y93359*
X439705Y93203*
X439364Y93047*
X438341*
X443568Y96328D02*
Y93047D01*
Y96328D02*
X444364D01*
X444705Y96172*
X444932Y95859*
X445045Y95547*
X445159Y95078*
Y94297*
X445045Y93828*
X444932Y93516*
X444705Y93203*
X444364Y93047*
X443568*
X447432Y94766D02*
X447318Y95078D01*
X446977Y95234*
X446636*
X446295Y95078*
X446182Y94766*
X446295Y94453*
X446523Y94297*
X447091Y94141*
X447318Y93984*
X447432Y93672*
Y93516*
X447318Y93203*
X446977Y93047*
X446636*
X446295Y93203*
X446182Y93516*
X449818Y95234D02*
Y92734D01*
X449705Y92266*
X449591Y92109*
X449364Y91953*
X449023*
X448795Y92109*
X449818Y94766D02*
X449591Y95078D01*
X449364Y95234*
X449023*
X448795Y95078*
X448568Y94766*
X448455Y94297*
Y93984*
X448568Y93516*
X448795Y93203*
X449023Y93047*
X449364*
X449591Y93203*
X449818Y93516*
X450841Y95234D02*
Y93047D01*
Y94609D02*
X451182Y95078D01*
X451409Y95234*
X451750*
X451977Y95078*
X452091Y94609*
Y93047*
X453114Y95234D02*
Y93047D01*
Y94297D02*
X453227Y94766D01*
X453455Y95078*
X453682Y95234*
X454023*
X455159D02*
X455045Y95078D01*
X455159Y94922*
X455273Y95078*
X455159Y95234*
Y93359D02*
X455045Y93203D01*
X455159Y93047*
X455273Y93203*
X455159Y93359*
X202500Y96328D02*
Y93047D01*
Y96328D02*
X203295D01*
X203636Y96172*
X203864Y95859*
X203977Y95547*
X204091Y95078*
Y94297*
X203977Y93828*
X203864Y93516*
X203636Y93203*
X203295Y93047*
X202500*
X206477Y95234D02*
Y93047D01*
Y94766D02*
X206250Y95078D01*
X206023Y95234*
X205682*
X205455Y95078*
X205227Y94766*
X205114Y94297*
Y93984*
X205227Y93516*
X205455Y93203*
X205682Y93047*
X206023*
X206250Y93203*
X206477Y93516*
X207841Y96328D02*
Y93672D01*
X207955Y93203*
X208182Y93047*
X208409*
X207500Y95234D02*
X208295D01*
X209432Y94297D02*
X210795D01*
Y94609*
X210682Y94922*
X210568Y95078*
X210341Y95234*
X210000*
X209773Y95078*
X209545Y94766*
X209432Y94297*
Y93984*
X209545Y93516*
X209773Y93203*
X210000Y93047*
X210341*
X210568Y93203*
X210795Y93516*
X211932Y95234D02*
X211818Y95078D01*
X211932Y94922*
X212045Y95078*
X211932Y95234*
Y93359D02*
X211818Y93203D01*
X211932Y93047*
X212045Y93203*
X211932Y93359*
X262500Y96328D02*
Y93047D01*
Y96328D02*
X263977D01*
X262500Y94766D02*
X263409D01*
X265000Y96328D02*
X265114Y96172D01*
X265227Y96328*
X265114Y96484*
X265000Y96328*
X265114Y95234D02*
Y93047D01*
X266250Y96328D02*
Y93047D01*
X267273Y94297D02*
X268636D01*
Y94609*
X268523Y94922*
X268409Y95078*
X268182Y95234*
X267841*
X267614Y95078*
X267386Y94766*
X267273Y94297*
Y93984*
X267386Y93516*
X267614Y93203*
X267841Y93047*
X268182*
X268409Y93203*
X268636Y93516*
X269659Y95234D02*
Y93047D01*
Y94609D02*
X270000Y95078D01*
X270227Y95234*
X270568*
X270795Y95078*
X270909Y94609*
Y93047*
X273295Y95234D02*
Y93047D01*
Y94766D02*
X273068Y95078D01*
X272841Y95234*
X272500*
X272273Y95078*
X272045Y94766*
X271932Y94297*
Y93984*
X272045Y93516*
X272273Y93203*
X272500Y93047*
X272841*
X273068Y93203*
X273295Y93516*
X274318Y95234D02*
Y93047D01*
Y94609D02*
X274659Y95078D01*
X274886Y95234*
X275227*
X275455Y95078*
X275568Y94609*
Y93047*
Y94609D02*
X275909Y95078D01*
X276136Y95234*
X276477*
X276705Y95078*
X276818Y94609*
Y93047*
X277841Y94297D02*
X279205D01*
Y94609*
X279091Y94922*
X278977Y95078*
X278750Y95234*
X278409*
X278182Y95078*
X277955Y94766*
X277841Y94297*
Y93984*
X277955Y93516*
X278182Y93203*
X278409Y93047*
X278750*
X278977Y93203*
X279205Y93516*
X280341Y95234D02*
X280227Y95078D01*
X280341Y94922*
X280455Y95078*
X280341Y95234*
Y93359D02*
X280227Y93203D01*
X280341Y93047*
X280455Y93203*
X280341Y93359*
X332500Y121328D02*
Y118047D01*
Y121328D02*
X333523D01*
X333864Y121172*
X333977Y121016*
X334091Y120703*
Y120391*
X333977Y120078*
X333864Y119922*
X333523Y119766*
X332500*
X333295D02*
X334091Y118047D01*
X335114Y119297D02*
X336477D01*
Y119609*
X336364Y119922*
X336250Y120078*
X336023Y120234*
X335682*
X335455Y120078*
X335227Y119766*
X335114Y119297*
Y118984*
X335227Y118516*
X335455Y118203*
X335682Y118047*
X336023*
X336250Y118203*
X336477Y118516*
X337500Y120234D02*
X338182Y118047D01*
X338864Y120234D02*
X338182Y118047D01*
X340000Y118359D02*
X339886Y118203D01*
X340000Y118047*
X340114Y118203*
X340000Y118359*
X205000Y121328D02*
Y118047D01*
Y121328D02*
X206023D01*
X206364Y121172*
X206477Y121016*
X206591Y120703*
Y120391*
X206477Y120078*
X206364Y119922*
X206023Y119766*
X205000D02*
X206023D01*
X206364Y119609*
X206477Y119453*
X206591Y119141*
Y118672*
X206477Y118359*
X206364Y118203*
X206023Y118047*
X205000*
X208182Y120234D02*
X207955Y120078D01*
X207727Y119766*
X207614Y119297*
Y118984*
X207727Y118516*
X207955Y118203*
X208182Y118047*
X208523*
X208750Y118203*
X208977Y118516*
X209091Y118984*
Y119297*
X208977Y119766*
X208750Y120078*
X208523Y120234*
X208182*
X211477D02*
Y118047D01*
Y119766D02*
X211250Y120078D01*
X211023Y120234*
X210682*
X210455Y120078*
X210227Y119766*
X210114Y119297*
Y118984*
X210227Y118516*
X210455Y118203*
X210682Y118047*
X211023*
X211250Y118203*
X211477Y118516*
X212500Y120234D02*
Y118047D01*
Y119297D02*
X212614Y119766D01*
X212841Y120078*
X213068Y120234*
X213409*
X215795Y121328D02*
Y118047D01*
Y119766D02*
X215568Y120078D01*
X215341Y120234*
X215000*
X214773Y120078*
X214545Y119766*
X214432Y119297*
Y118984*
X214545Y118516*
X214773Y118203*
X215000Y118047*
X215341*
X215568Y118203*
X215795Y118516*
X219432Y121328D02*
Y118047D01*
Y121328D02*
X221023Y118047D01*
Y121328D02*
Y118047D01*
X222614Y120234D02*
X222386Y120078D01*
X222159Y119766*
X222045Y119297*
Y118984*
X222159Y118516*
X222386Y118203*
X222614Y118047*
X222955*
X223182Y118203*
X223409Y118516*
X223523Y118984*
Y119297*
X223409Y119766*
X223182Y120078*
X222955Y120234*
X222614*
X224659Y118359D02*
X224545Y118203D01*
X224659Y118047*
X224773Y118203*
X224659Y118359*
G54D18*
G54D21*
X202656Y323514D02*
X202469Y323241D01*
X201906Y322832*
X205844*
X382656Y323514D02*
X382469Y323241D01*
X381906Y322832*
X385844*
X335227Y217594D02*
Y214594D01*
X335364Y214031*
X335500Y213844*
X335773Y213656*
X336045*
X336318Y213844*
X336455Y214031*
X336591Y214594*
Y214969*
X333864Y216656D02*
Y216844D01*
X333727Y217219*
X333591Y217406*
X333318Y217594*
X332773*
X332500Y217406*
X332364Y217219*
X332227Y216844*
Y216469*
X332364Y216094*
X332636Y215531*
X334000Y213656*
X332091*
X330591Y217594D02*
X329091D01*
X329909Y216094*
X329500*
X329227Y215906*
X329091Y215719*
X328955Y215156*
Y214781*
X329091Y214219*
X329364Y213844*
X329773Y213656*
X330182*
X330591Y213844*
X330727Y214031*
X330864Y214406*
X307082Y298094D02*
Y294156D01*
Y298094D02*
X305855D01*
X305445Y297906*
X305309Y297719*
X305173Y297344*
Y296969*
X305309Y296594*
X305445Y296406*
X305855Y296219*
X307082*
X306127D02*
X305173Y294156D01*
X303945Y297344D02*
X303673Y297531D01*
X303264Y298094*
Y294156*
X297695Y298094D02*
Y294156D01*
Y298094D02*
X296468D01*
X296059Y297906*
X295923Y297719*
X295786Y297344*
Y296969*
X295923Y296594*
X296059Y296406*
X296468Y296219*
X297695*
X296741D02*
X295786Y294156D01*
X294423Y297156D02*
Y297344D01*
X294286Y297719*
X294150Y297906*
X293877Y298094*
X293332*
X293059Y297906*
X292923Y297719*
X292786Y297344*
Y296969*
X292923Y296594*
X293195Y296031*
X294559Y294156*
X292650*
X312505Y275156D02*
X312641Y275531D01*
X312914Y275906*
X313186Y276094*
X313732*
X314005Y275906*
X314277Y275531*
X314414Y275156*
X314550Y274594*
Y273656*
X314414Y273094*
X314277Y272719*
X314005Y272344*
X313732Y272156*
X313186*
X312914Y272344*
X312641Y272719*
X312505Y273094*
X311277Y275344D02*
X311005Y275531D01*
X310595Y276094*
Y272156*
X311818Y244656D02*
X311955Y245031D01*
X312227Y245406*
X312500Y245594*
X313045*
X313318Y245406*
X313591Y245031*
X313727Y244656*
X313864Y244094*
Y243156*
X313727Y242594*
X313591Y242219*
X313318Y241844*
X313045Y241656*
X312500*
X312227Y241844*
X311955Y242219*
X311818Y242594*
X310455Y244656D02*
Y244844D01*
X310318Y245219*
X310182Y245406*
X309909Y245594*
X309364*
X309091Y245406*
X308955Y245219*
X308818Y244844*
Y244469*
X308955Y244094*
X309227Y243531*
X310591Y241656*
X308682*
X296482Y328938D02*
Y326125D01*
X296345Y325563*
X296345D02*
X296073Y325188D01*
X296073D02*
X295664Y325000D01*
X295391*
X294982Y325188*
X294982D02*
X294709Y325563D01*
X294709D02*
X294573Y326125D01*
Y328938*
X293345Y328188D02*
X293073Y328375D01*
X292664Y328938*
X292664D02*
Y325000D01*
X251491Y328538D02*
Y325538D01*
X251491D02*
X251627Y324975D01*
X251764Y324788*
X251764D02*
X252036Y324600D01*
X252309*
X252582Y324788*
X252582D02*
X252718Y324975D01*
X252855Y325538*
X252855D02*
Y325913D01*
X248627Y327975D02*
X248764Y328350D01*
X249173Y328538*
X249173D02*
X249445D01*
X249445D02*
X249855Y328350D01*
X250127Y327788*
X250127D02*
X250264Y326850D01*
Y325913*
X250264D02*
X250127Y325163D01*
X250127D02*
X249855Y324788D01*
X249855D02*
X249445Y324600D01*
X249309*
X248900Y324788*
X248900D02*
X248627Y325163D01*
X248627D02*
X248491Y325725D01*
Y325913*
X248491D02*
X248627Y326475D01*
X248900Y326850*
X249309Y327038*
X249309D02*
X249445D01*
X249445D02*
X249855Y326850D01*
X250127Y326475*
X250264Y325913*
X261595Y257094D02*
Y253156D01*
Y257094D02*
X260368D01*
X259959Y256906*
X259823Y256719*
X259686Y256344*
Y255969*
X259823Y255594*
X259959Y255406*
X260368Y255219*
X261595*
X260641D02*
X259686Y253156D01*
X258186Y257094D02*
X256686D01*
X257505Y255594*
X257095*
X256823Y255406*
X256686Y255219*
X256550Y254656*
Y254281*
X256686Y253719*
X256959Y253344*
X257368Y253156*
X257777*
X258186Y253344*
X258323Y253531*
X258459Y253906*
X290841Y276938D02*
Y273000D01*
X291795Y276938D02*
X289886D01*
X288659D02*
Y273000D01*
Y276938D02*
X287432D01*
X287432D02*
X287023Y276750D01*
X286886Y276563*
X286886D02*
X286750Y276188D01*
X286750D02*
Y275625D01*
X286886Y275250*
X287023Y275063*
X287023D02*
X287432Y274875D01*
X288659*
X283750Y275625D02*
X283886Y275063D01*
X283886D02*
X284159Y274688D01*
X284159D02*
X284568Y274500D01*
X284705*
X285114Y274688*
X285114D02*
X285386Y275063D01*
X285386D02*
X285523Y275625D01*
Y275813*
X285523D02*
X285386Y276375D01*
X285114Y276750*
X284705Y276938*
X284705D02*
X284568D01*
X284568D02*
X284159Y276750D01*
X283886Y276375*
X283750Y275625*
Y274688*
X283750D02*
X283886Y273750D01*
X284159Y273188*
X284159D02*
X284568Y273000D01*
X284841*
X285250Y273188*
X285250D02*
X285386Y273563D01*
X360059Y328538D02*
Y325538D01*
X360059D02*
X360195Y324975D01*
X360332Y324788*
X360332D02*
X360605Y324600D01*
X360877*
X361150Y324788*
X361150D02*
X361286Y324975D01*
X361423Y325538*
X361423D02*
Y325913D01*
X356923Y328538D02*
X358286Y324600D01*
X358832Y328538D02*
X356923D01*
X261527Y267094D02*
Y263156D01*
Y267094D02*
X260300D01*
X259891Y266906*
X259755Y266719*
X259618Y266344*
Y265969*
X259755Y265594*
X259891Y265406*
X260300Y265219*
X261527*
X260573D02*
X259618Y263156D01*
X256755Y266531D02*
X256891Y266906D01*
X257300Y267094*
X257573*
X257982Y266906*
X258255Y266344*
X258391Y265406*
Y264469*
X258255Y263719*
X257982Y263344*
X257573Y263156*
X257436*
X257027Y263344*
X256755Y263719*
X256618Y264281*
Y264469*
X256755Y265031*
X257027Y265406*
X257436Y265594*
X257573*
X257982Y265406*
X258255Y265031*
X258391Y264469*
X342841Y241938D02*
Y238000D01*
X343795Y241938D02*
X341886D01*
X340659D02*
Y238000D01*
Y241938D02*
X339432D01*
X339432D02*
X339023Y241750D01*
X338886Y241563*
X338886D02*
X338750Y241188D01*
X338750D02*
Y240625D01*
X338886Y240250*
X339023Y240063*
X339023D02*
X339432Y239875D01*
X340659*
X335886Y241375D02*
X336023Y241750D01*
X336432Y241938*
X336432D02*
X336705D01*
X336705D02*
X337114Y241750D01*
X337386Y241188*
X337386D02*
X337523Y240250D01*
Y239313*
X337523D02*
X337386Y238563D01*
X337386D02*
X337114Y238188D01*
X337114D02*
X336705Y238000D01*
X336568*
X336159Y238188*
X336159D02*
X335886Y238563D01*
X335886D02*
X335750Y239125D01*
Y239313*
X335750D02*
X335886Y239875D01*
X336159Y240250*
X336568Y240438*
X336568D02*
X336705D01*
X336705D02*
X337114Y240250D01*
X337386Y239875*
X337523Y239313*
X295909Y261938D02*
Y258000D01*
X296864Y261938D02*
X294955D01*
X293727D02*
Y258000D01*
Y261938D02*
X292500D01*
X292500D02*
X292091Y261750D01*
X291955Y261563*
X291955D02*
X291818Y261188D01*
X291818D02*
Y260625D01*
X291955Y260250*
X292091Y260063*
X292091D02*
X292500Y259875D01*
X293727*
X288682Y261938D02*
X290045Y258000D01*
X290591Y261938D02*
X288682D01*
X290409Y246938D02*
Y243000D01*
X291364Y246938D02*
X289455D01*
X288227D02*
Y243000D01*
Y246938D02*
X287000D01*
X287000D02*
X286591Y246750D01*
X286455Y246563*
X286455D02*
X286318Y246188D01*
X286318D02*
Y245625D01*
X286455Y245250*
X286591Y245063*
X286591D02*
X287000Y244875D01*
X288227*
X284409Y246938D02*
X284818Y246750D01*
X284955Y246375*
Y246000*
X284818Y245625*
X284545Y245438*
X284545D02*
X284000Y245250D01*
X283591Y245063*
X283591D02*
X283318Y244688D01*
X283318D02*
X283182Y244313D01*
X283182D02*
Y243750D01*
X283318Y243375*
X283455Y243188*
X283455D02*
X283864Y243000D01*
X284409*
X284818Y243188*
X284818D02*
X284955Y243375D01*
X285091Y243750*
Y244313*
X285091D02*
X284955Y244688D01*
X284955D02*
X284682Y245063D01*
X284682D02*
X284273Y245250D01*
X283727Y245438*
X283727D02*
X283455Y245625D01*
X283318Y246000*
Y246375*
X283455Y246750*
X283864Y246938*
X283864D02*
X284409D01*
X260764Y218694D02*
Y214756D01*
Y218694D02*
X259536D01*
X259127Y218506*
X258991Y218319*
X258855Y217944*
Y217569*
X258991Y217194*
X259127Y217006*
X259536Y216819*
X260764*
X259809D02*
X258855Y214756D01*
X256264Y218694D02*
X257627Y216069D01*
X255582*
X256264Y218694D02*
Y214756D01*
X260695Y233694D02*
Y229756D01*
Y233694D02*
X259468D01*
X259059Y233506*
X258923Y233319*
X258786Y232944*
Y232569*
X258923Y232194*
X259059Y232006*
X259468Y231819*
X260695*
X259741D02*
X258786Y229756D01*
X256877Y233694D02*
X257286Y233506D01*
X257423Y233131*
Y232756*
X257286Y232381*
X257014Y232194*
X256468Y232006*
X256059Y231819*
X255786Y231444*
X255650Y231069*
Y230506*
X255786Y230131*
X255923Y229944*
X256332Y229756*
X256877*
X257286Y229944*
X257423Y230131*
X257559Y230506*
Y231069*
X257423Y231444*
X257150Y231819*
X256741Y232006*
X256195Y232194*
X255923Y232381*
X255786Y232756*
Y233131*
X255923Y233506*
X256332Y233694*
X256877*
X343127Y313994D02*
Y310056D01*
Y313994D02*
X341900D01*
X341491Y313806*
X341355Y313619*
X341218Y313244*
Y312869*
X341355Y312494*
X341491Y312306*
X341900Y312119*
X343127*
X342173D02*
X341218Y310056D01*
X338218Y312681D02*
X338355Y312119D01*
X338627Y311744*
X339036Y311556*
X339173*
X339582Y311744*
X339855Y312119*
X339991Y312681*
Y312869*
X339855Y313431*
X339582Y313806*
X339173Y313994*
X339036*
X338627Y313806*
X338355Y313431*
X338218Y312681*
Y311744*
X338355Y310806*
X338627Y310244*
X339036Y310056*
X339309*
X339718Y310244*
X339855Y310619*
X326650Y286694D02*
Y282756D01*
Y286694D02*
X325423D01*
X325014Y286506*
X324877Y286319*
X324741Y285944*
Y285569*
X324877Y285194*
X325014Y285006*
X325423Y284819*
X326650*
X325695D02*
X324741Y282756D01*
X323514Y285944D02*
X323241Y286131D01*
X322832Y286694*
Y282756*
X320786Y286694D02*
X321195Y286506D01*
X321468Y285944*
X321605Y285006*
Y284444*
X321468Y283506*
X321195Y282944*
X320786Y282756*
X320514*
X320105Y282944*
X319832Y283506*
X319695Y284444*
Y285006*
X319832Y285944*
X320105Y286506*
X320514Y286694*
X320786*
X263936Y320094D02*
Y316156D01*
Y320094D02*
X262709D01*
X262300Y319906*
X262164Y319719*
X262027Y319344*
Y318969*
X262164Y318594*
X262300Y318406*
X262709Y318219*
X263936*
X262982D02*
X262027Y316156D01*
X260800Y319344D02*
X260527Y319531D01*
X260118Y320094*
Y316156*
X258891Y319344D02*
X258618Y319531D01*
X258209Y320094*
Y316156*
X264050Y327094D02*
Y323156D01*
Y327094D02*
X262823D01*
X262414Y326906*
X262277Y326719*
X262141Y326344*
Y325969*
X262277Y325594*
X262414Y325406*
X262823Y325219*
X264050*
X263095D02*
X262141Y323156D01*
X260914Y326344D02*
X260641Y326531D01*
X260232Y327094*
Y323156*
X258868Y326156D02*
Y326344D01*
X258732Y326719*
X258595Y326906*
X258323Y327094*
X257777*
X257505Y326906*
X257368Y326719*
X257232Y326344*
Y325969*
X257368Y325594*
X257641Y325031*
X259005Y323156*
X257095*
X289945Y328694D02*
Y324756D01*
X288309*
X287082Y327944D02*
X286809Y328131D01*
X286400Y328694*
Y324756*
X316886Y329156D02*
X317023Y329531D01*
X317295Y329906*
X317568Y330094*
X318114*
X318386Y329906*
X318659Y329531*
X318795Y329156*
X318932Y328594*
Y327656*
X318795Y327094*
X318659Y326719*
X318386Y326344*
X318114Y326156*
X317568*
X317295Y326344*
X317023Y326719*
X316886Y327094*
X313886Y330094D02*
X315250D01*
X315386Y328406*
X315250Y328594*
X314841Y328781*
X314432*
X314023Y328594*
X313750Y328219*
X313614Y327656*
X313750Y327281*
X313886Y326719*
X314159Y326344*
X314568Y326156*
X314977*
X315386Y326344*
X315523Y326531*
X315659Y326906*
X323150Y314756D02*
X323286Y315131D01*
X323559Y315506*
X323832Y315694*
X324377*
X324650Y315506*
X324923Y315131*
X325059Y314756*
X325195Y314194*
Y313256*
X325059Y312694*
X324923Y312319*
X324650Y311944*
X324377Y311756*
X323832*
X323559Y311944*
X323286Y312319*
X323150Y312694*
X320286Y315131D02*
X320423Y315506D01*
X320832Y315694*
X321105*
X321514Y315506*
X321786Y314944*
X321923Y314006*
Y313069*
X321786Y312319*
X321514Y311944*
X321105Y311756*
X320968*
X320559Y311944*
X320286Y312319*
X320150Y312881*
Y313069*
X320286Y313631*
X320559Y314006*
X320968Y314194*
X321105*
X321514Y314006*
X321786Y313631*
X321923Y313069*
X352218Y262994D02*
Y259056D01*
Y262994D02*
X350991D01*
X350582Y262806*
X350445Y262619*
X350309Y262244*
Y261869*
X350445Y261494*
X350582Y261306*
X350991Y261119*
X352218*
X351264D02*
X350309Y259056D01*
X349082Y262244D02*
X348809Y262431D01*
X348400Y262994*
Y259056*
X345809Y262994D02*
X347173Y260369D01*
X345127*
X345809Y262994D02*
Y259056D01*
X349795Y286938D02*
Y283000D01*
X350750Y286938D02*
X348841D01*
X347614D02*
Y283000D01*
Y286938D02*
X346386D01*
X346386D02*
X345977Y286750D01*
X345841Y286563*
X345841D02*
X345705Y286188D01*
X345705D02*
Y285625D01*
X345841Y285250*
X345977Y285063*
X345977D02*
X346386Y284875D01*
X347614*
X344477Y286188D02*
X344205Y286375D01*
X343795Y286938*
X343795D02*
Y283000D01*
X261482Y277094D02*
Y273156D01*
Y277094D02*
X260255D01*
X259845Y276906*
X259709Y276719*
X259573Y276344*
Y275969*
X259709Y275594*
X259845Y275406*
X260255Y275219*
X261482*
X260527D02*
X259573Y273156D01*
X258345Y276344D02*
X258073Y276531D01*
X257664Y277094*
Y273156*
X254800Y276531D02*
X254936Y276906D01*
X255345Y277094*
X255618*
X256027Y276906*
X256300Y276344*
X256436Y275406*
Y274469*
X256300Y273719*
X256027Y273344*
X255618Y273156*
X255482*
X255073Y273344*
X254800Y273719*
X254664Y274281*
Y274469*
X254800Y275031*
X255073Y275406*
X255482Y275594*
X255618*
X256027Y275406*
X256300Y275031*
X256436Y274469*
X273650Y298094D02*
Y294156D01*
Y298094D02*
X272423D01*
X272014Y297906*
X271877Y297719*
X271741Y297344*
Y296969*
X271877Y296594*
X272014Y296406*
X272423Y296219*
X273650*
X272695D02*
X271741Y294156D01*
X270514Y297344D02*
X270241Y297531D01*
X269832Y298094*
Y294156*
X266695Y298094D02*
X268059Y294156D01*
X268605Y298094D02*
X266695D01*
X222559Y328538D02*
Y325538D01*
X222559D02*
X222695Y324975D01*
X222832Y324788*
X222832D02*
X223105Y324600D01*
X223377*
X223650Y324788*
X223650D02*
X223786Y324975D01*
X223923Y325538*
X223923D02*
Y325913D01*
X221059Y328538D02*
X219559D01*
X219559D02*
X220377Y327038D01*
X220377D02*
X219968D01*
X219968D02*
X219695Y326850D01*
X219559Y326663*
X219559D02*
X219423Y326100D01*
Y325725*
X219559Y325163*
X219559D02*
X219832Y324788D01*
X219832D02*
X220241Y324600D01*
X220650*
X221059Y324788*
X221059D02*
X221195Y324975D01*
X221332Y325350*
X389627Y328538D02*
Y325538D01*
X389627D02*
X389764Y324975D01*
X389900Y324788*
X389900D02*
X390173Y324600D01*
X390445*
X390718Y324788*
X390718D02*
X390855Y324975D01*
X390991Y325538*
X390991D02*
Y325913D01*
X387036Y328538D02*
X388400Y325913D01*
X388400D02*
X386355D01*
X387036Y328538D02*
Y324600D01*
X281409Y221438D02*
Y217500D01*
X282364Y221438D02*
X280455D01*
X279227D02*
Y217500D01*
Y221438D02*
X278000D01*
X278000D02*
X277591Y221250D01*
X277455Y221063*
X277455D02*
X277318Y220688D01*
X277318D02*
Y220125D01*
X277455Y219750*
X277591Y219563*
X277591D02*
X278000Y219375D01*
X279227*
X275955Y220500D02*
Y220688D01*
X275955D02*
X275818Y221063D01*
X275818D02*
X275682Y221250D01*
X275409Y221438*
X275409D02*
X274864D01*
X274864D02*
X274591Y221250D01*
X274455Y221063*
X274455D02*
X274318Y220688D01*
X274318D02*
Y220313D01*
X274318D02*
X274455Y219938D01*
X274455D02*
X274727Y219375D01*
X276091Y217500*
X274182*
X280718Y297156D02*
X280855Y297531D01*
X281127Y297906*
X281400Y298094*
X281945*
X282218Y297906*
X282491Y297531*
X282627Y297156*
X282764Y296594*
Y295656*
X282627Y295094*
X282491Y294719*
X282218Y294344*
X281945Y294156*
X281400*
X281127Y294344*
X280855Y294719*
X280718Y295094*
X279218Y298094D02*
X277718D01*
X278536Y296594*
X278127*
X277855Y296406*
X277718Y296219*
X277582Y295656*
Y295281*
X277718Y294719*
X277991Y294344*
X278400Y294156*
X278809*
X279218Y294344*
X279355Y294531*
X279491Y294906*
X335764Y313994D02*
Y310056D01*
Y313994D02*
X334536D01*
X334127Y313806*
X333991Y313619*
X333855Y313244*
Y312869*
X333991Y312494*
X334127Y312306*
X334536Y312119*
X335764*
X334809D02*
X333855Y310056D01*
X330855Y313994D02*
X332218D01*
X332355Y312306*
X332218Y312494*
X331809Y312681*
X331400*
X330991Y312494*
X330718Y312119*
X330582Y311556*
X330718Y311181*
X330855Y310619*
X331127Y310244*
X331536Y310056*
X331945*
X332355Y310244*
X332491Y310431*
X332627Y310806*
X279595Y305094D02*
Y301156D01*
Y305094D02*
X278368D01*
X277959Y304906*
X277823Y304719*
X277686Y304344*
Y303969*
X277823Y303594*
X277959Y303406*
X278368Y303219*
X279595*
X278641D02*
X277686Y301156D01*
X274550Y305094D02*
X275914Y301156D01*
X276459Y305094D02*
X274550D01*
X313886Y304156D02*
X314023Y304531D01*
X314295Y304906*
X314568Y305094*
X315114*
X315386Y304906*
X315659Y304531*
X315795Y304156*
X315932Y303594*
Y302656*
X315795Y302094*
X315659Y301719*
X315386Y301344*
X315114Y301156*
X314568*
X314295Y301344*
X314023Y301719*
X313886Y302094*
X311295Y305094D02*
X312659Y302469D01*
X310614*
X311295Y305094D02*
Y301156D01*
X271409Y311938D02*
Y308000D01*
X272364Y311938D02*
X270455D01*
X269227D02*
Y308000D01*
Y311938D02*
X268000D01*
X268000D02*
X267591Y311750D01*
X267455Y311563*
X267455D02*
X267318Y311188D01*
X267318D02*
Y310625D01*
X267455Y310250*
X267591Y310063*
X267591D02*
X268000Y309875D01*
X269227*
X265818Y311938D02*
X264318D01*
X264318D02*
X265136Y310438D01*
X265136D02*
X264727D01*
X264727D02*
X264455Y310250D01*
X264318Y310063*
X264318D02*
X264182Y309500D01*
Y309125*
X264318Y308563*
X264318D02*
X264591Y308188D01*
X264591D02*
X265000Y308000D01*
X265409*
X265818Y308188*
X265818D02*
X265955Y308375D01*
X266091Y308750*
X323977Y301438D02*
Y297500D01*
X324932Y301438D02*
X323023D01*
X321795D02*
Y297500D01*
Y301438D02*
X320568D01*
X320568D02*
X320159Y301250D01*
X320023Y301063*
X320023D02*
X319886Y300688D01*
X319886D02*
Y300125D01*
X320023Y299750*
X320159Y299563*
X320159D02*
X320568Y299375D01*
X321795*
X317295Y301438D02*
X318659Y298813D01*
X318659D02*
X316614D01*
X317295Y301438D02*
Y297500D01*
X286682Y93313D02*
Y91063D01*
X286000Y92750D02*
X287364Y91625D01*
Y92750D02*
X286000Y91625D01*
X288727Y90875D02*
X288591Y90688D01*
X288591D02*
X288727Y90500D01*
X288864Y90688*
X288864D02*
X288727Y90875D01*
X290091Y93125D02*
Y89187D01*
Y92563D02*
X290364Y92938D01*
X290364D02*
X290636Y93125D01*
X291045*
X291318Y92938*
X291318D02*
X291591Y92563D01*
X291591D02*
X291727Y92000D01*
Y91625*
X291591Y91063*
X291591D02*
X291318Y90688D01*
X291318D02*
X291045Y90500D01*
X290636*
X290364Y90688*
X290364D02*
X290091Y91063D01*
X294591Y92563D02*
X294318Y92938D01*
X294318D02*
X294045Y93125D01*
X293636*
X293364Y92938*
X293364D02*
X293091Y92563D01*
X293091D02*
X292955Y92000D01*
Y91625*
X293091Y91063*
X293091D02*
X293364Y90688D01*
X293364D02*
X293636Y90500D01*
X294045*
X294318Y90688*
X294318D02*
X294591Y91063D01*
X295818Y94438D02*
Y90500D01*
Y92563D02*
X296091Y92938D01*
X296091D02*
X296364Y93125D01*
X296773*
X297045Y92938*
X297045D02*
X297318Y92563D01*
X297318D02*
X297455Y92000D01*
Y91625*
X297318Y91063*
X297318D02*
X297045Y90688D01*
X297045D02*
X296773Y90500D01*
X296364*
X296091Y90688*
X296091D02*
X295818Y91063D01*
X216000Y93688D02*
X216273Y93875D01*
X216682Y94438*
X216682D02*
Y90500D01*
X217909Y93688D02*
X218182Y93875D01*
X218591Y94438*
X218591D02*
Y90500D01*
X222273Y95188D02*
X219818Y89187D01*
X223500Y93688D02*
X223773Y93875D01*
X224182Y94438*
X224182D02*
Y90500D01*
X227864Y95188D02*
X225409Y89187D01*
X229227Y93500D02*
Y93688D01*
X229227D02*
X229364Y94063D01*
X229364D02*
X229500Y94250D01*
X229773Y94438*
X229773D02*
X230318D01*
X230318D02*
X230591Y94250D01*
X230727Y94063*
X230727D02*
X230864Y93688D01*
X230864D02*
Y93313D01*
X230864D02*
X230727Y92938D01*
X230727D02*
X230455Y92375D01*
X229091Y90500*
X231000*
X233045Y94438D02*
X232636Y94250D01*
X232364Y93688*
X232364D02*
X232227Y92750D01*
Y92188*
X232227D02*
X232364Y91250D01*
X232636Y90688*
X232636D02*
X233045Y90500D01*
X233318*
X233727Y90688*
X233727D02*
X234000Y91250D01*
X234136Y92188*
X234136D02*
Y92750D01*
X234000Y93688*
X234000D02*
X233727Y94250D01*
X233318Y94438*
X233318D02*
X233045D01*
X235364Y93688D02*
X235636Y93875D01*
X236045Y94438*
X236045D02*
Y90500D01*
X237273Y93688D02*
X237545Y93875D01*
X237955Y94438*
X237955D02*
Y90500D01*
X376000Y94438D02*
Y90500D01*
Y94438D02*
X376955D01*
X376955D02*
X377364Y94250D01*
X377636Y93875*
X377773Y93500*
X377909Y92938*
X377909D02*
Y92000D01*
X377773Y91438*
X377773D02*
X377636Y91063D01*
X377636D02*
X377364Y90688D01*
X377364D02*
X376955Y90500D01*
X376000*
X379273Y90875D02*
X379136Y90688D01*
X379136D02*
X379273Y90500D01*
X379409Y90688*
X379409D02*
X379273Y90875D01*
X385682Y93875D02*
X385409Y94250D01*
X385000Y94438*
X385000D02*
X384455D01*
X384455D02*
X384045Y94250D01*
X383773Y93875*
Y93500*
X383909Y93125*
X384045Y92938*
X384045D02*
X384318Y92750D01*
X385136Y92375*
X385409Y92188*
X385409D02*
X385545Y92000D01*
X385682Y91625*
Y91063*
X385682D02*
X385409Y90688D01*
X385409D02*
X385000Y90500D01*
X384455*
X384045Y90688*
X384045D02*
X383773Y91063D01*
X388545Y92563D02*
X388273Y92938D01*
X388273D02*
X388000Y93125D01*
X387591*
X387318Y92938*
X387318D02*
X387045Y92563D01*
X387045D02*
X386909Y92000D01*
Y91625*
X387045Y91063*
X387045D02*
X387318Y90688D01*
X387318D02*
X387591Y90500D01*
X388000*
X388273Y90688*
X388273D02*
X388545Y91063D01*
X389773Y94438D02*
Y90500D01*
Y92375D02*
X390182Y92938D01*
X390182D02*
X390455Y93125D01*
X390864*
X391136Y92938*
X391136D02*
X391273Y92375D01*
Y90500*
X392500Y93125D02*
Y90500D01*
Y92375D02*
X392909Y92938D01*
X392909D02*
X393182Y93125D01*
X393591*
X393864Y92938*
X393864D02*
X394000Y92375D01*
Y90500*
X395227Y92000D02*
X396864D01*
Y92375*
X396727Y92750*
X396591Y92938*
X396591D02*
X396318Y93125D01*
X395909*
X395636Y92938*
X395636D02*
X395364Y92563D01*
X395364D02*
X395227Y92000D01*
Y91625*
X395364Y91063*
X395364D02*
X395636Y90688D01*
X395636D02*
X395909Y90500D01*
X396318*
X396591Y90688*
X396591D02*
X396864Y91063D01*
X398091Y94438D02*
X398227Y94250D01*
X398364Y94438*
X398364D02*
X398227Y94625D01*
X398091Y94438*
X398227Y93125D02*
Y90500D01*
X401227Y94438D02*
Y90500D01*
Y92563D02*
X400955Y92938D01*
X400955D02*
X400682Y93125D01*
X400273*
X400000Y92938*
X400000D02*
X399727Y92563D01*
X399727D02*
X399591Y92000D01*
Y91625*
X399727Y91063*
X399727D02*
X400000Y90688D01*
X400000D02*
X400273Y90500D01*
X400682*
X400955Y90688*
X400955D02*
X401227Y91063D01*
X402455Y92000D02*
X404091D01*
Y92375*
X403955Y92750*
X403818Y92938*
X403818D02*
X403545Y93125D01*
X403136*
X402864Y92938*
X402864D02*
X402591Y92563D01*
X402591D02*
X402455Y92000D01*
Y91625*
X402591Y91063*
X402591D02*
X402864Y90688D01*
X402864D02*
X403136Y90500D01*
X403545*
X403818Y90688*
X403818D02*
X404091Y91063D01*
X405318Y93125D02*
Y90500D01*
Y92000D02*
X405455Y92563D01*
X405455D02*
X405727Y92938D01*
X405727D02*
X406000Y93125D01*
X406409*
X461000Y94438D02*
Y90500D01*
Y94438D02*
X461955D01*
X461955D02*
X462364Y94250D01*
X462636Y93875*
X462773Y93500*
X462909Y92938*
X462909D02*
Y92000D01*
X462773Y91438*
X462773D02*
X462636Y91063D01*
X462636D02*
X462364Y90688D01*
X462364D02*
X461955Y90500D01*
X461000*
X464273Y90875D02*
X464136Y90688D01*
X464136D02*
X464273Y90500D01*
X464409Y90688*
X464409D02*
X464273Y90875D01*
X470682Y93875D02*
X470409Y94250D01*
X470000Y94438*
X470000D02*
X469455D01*
X469455D02*
X469045Y94250D01*
X468773Y93875*
Y93500*
X468909Y93125*
X469045Y92938*
X469045D02*
X469318Y92750D01*
X470136Y92375*
X470409Y92188*
X470409D02*
X470545Y92000D01*
X470682Y91625*
Y91063*
X470682D02*
X470409Y90688D01*
X470409D02*
X470000Y90500D01*
X469455*
X469045Y90688*
X469045D02*
X468773Y91063D01*
X473545Y92563D02*
X473273Y92938D01*
X473273D02*
X473000Y93125D01*
X472591*
X472318Y92938*
X472318D02*
X472045Y92563D01*
X472045D02*
X471909Y92000D01*
Y91625*
X472045Y91063*
X472045D02*
X472318Y90688D01*
X472318D02*
X472591Y90500D01*
X473000*
X473273Y90688*
X473273D02*
X473545Y91063D01*
X474773Y94438D02*
Y90500D01*
Y92375D02*
X475182Y92938D01*
X475182D02*
X475455Y93125D01*
X475864*
X476136Y92938*
X476136D02*
X476273Y92375D01*
Y90500*
X477500Y93125D02*
Y90500D01*
Y92375D02*
X477909Y92938D01*
X477909D02*
X478182Y93125D01*
X478591*
X478864Y92938*
X478864D02*
X479000Y92375D01*
Y90500*
X480227Y92000D02*
X481864D01*
Y92375*
X481727Y92750*
X481591Y92938*
X481591D02*
X481318Y93125D01*
X480909*
X480636Y92938*
X480636D02*
X480364Y92563D01*
X480364D02*
X480227Y92000D01*
Y91625*
X480364Y91063*
X480364D02*
X480636Y90688D01*
X480636D02*
X480909Y90500D01*
X481318*
X481591Y90688*
X481591D02*
X481864Y91063D01*
X483091Y94438D02*
X483227Y94250D01*
X483364Y94438*
X483364D02*
X483227Y94625D01*
X483091Y94438*
X483227Y93125D02*
Y90500D01*
X486227Y94438D02*
Y90500D01*
Y92563D02*
X485955Y92938D01*
X485955D02*
X485682Y93125D01*
X485273*
X485000Y92938*
X485000D02*
X484727Y92563D01*
X484727D02*
X484591Y92000D01*
Y91625*
X484727Y91063*
X484727D02*
X485000Y90688D01*
X485000D02*
X485273Y90500D01*
X485682*
X485955Y90688*
X485955D02*
X486227Y91063D01*
X487455Y92000D02*
X489091D01*
Y92375*
X488955Y92750*
X488818Y92938*
X488818D02*
X488545Y93125D01*
X488136*
X487864Y92938*
X487864D02*
X487591Y92563D01*
X487591D02*
X487455Y92000D01*
Y91625*
X487591Y91063*
X487591D02*
X487864Y90688D01*
X487864D02*
X488136Y90500D01*
X488545*
X488818Y90688*
X488818D02*
X489091Y91063D01*
X490318Y93125D02*
Y90500D01*
Y92000D02*
X490455Y92563D01*
X490455D02*
X490727Y92938D01*
X490727D02*
X491000Y93125D01*
X491409*
X541136Y93500D02*
Y93688D01*
X541136D02*
X541273Y94063D01*
X541273D02*
X541409Y94250D01*
X541682Y94438*
X541682D02*
X542227D01*
X542227D02*
X542500Y94250D01*
X542636Y94063*
X542636D02*
X542773Y93688D01*
X542773D02*
Y93313D01*
X542773D02*
X542636Y92938D01*
X542636D02*
X542364Y92375D01*
X541000Y90500*
X542909*
X546591Y95188D02*
X544136Y89187D01*
X547818Y93688D02*
X548091Y93875D01*
X548500Y94438*
X548500D02*
Y90500D01*
X550409Y94438D02*
X550000Y94250D01*
X549864Y93875*
Y93500*
X550000Y93125*
X550273Y92938*
X550273D02*
X550818Y92750D01*
X551227Y92563*
X551227D02*
X551500Y92188D01*
X551500D02*
X551636Y91813D01*
X551636D02*
Y91250D01*
X551500Y90875*
X551364Y90688*
X551364D02*
X550955Y90500D01*
X550409*
X550000Y90688*
X550000D02*
X549864Y90875D01*
X549727Y91250*
Y91813*
X549727D02*
X549864Y92188D01*
X549864D02*
X550136Y92563D01*
X550136D02*
X550545Y92750D01*
X551091Y92938*
X551091D02*
X551364Y93125D01*
X551500Y93500*
Y93875*
X551364Y94250*
X550955Y94438*
X550955D02*
X550409D01*
X555318Y95188D02*
X552864Y89187D01*
X556682Y93500D02*
Y93688D01*
X556682D02*
X556818Y94063D01*
X556818D02*
X556955Y94250D01*
X557227Y94438*
X557227D02*
X557773D01*
X557773D02*
X558045Y94250D01*
X558182Y94063*
X558182D02*
X558318Y93688D01*
X558318D02*
Y93313D01*
X558318D02*
X558182Y92938D01*
X558182D02*
X557909Y92375D01*
X556545Y90500*
X558455*
X560500Y94438D02*
X560091Y94250D01*
X559818Y93688*
X559818D02*
X559682Y92750D01*
Y92188*
X559682D02*
X559818Y91250D01*
X560091Y90688*
X560091D02*
X560500Y90500D01*
X560773*
X561182Y90688*
X561182D02*
X561455Y91250D01*
X561591Y92188*
X561591D02*
Y92750D01*
X561455Y93688*
X561455D02*
X561182Y94250D01*
X560773Y94438*
X560773D02*
X560500D01*
X562818Y93688D02*
X563091Y93875D01*
X563500Y94438*
X563500D02*
Y90500D01*
X565000Y94438D02*
X566500D01*
X566500D02*
X565682Y92938D01*
X565682D02*
X566091D01*
X566091D02*
X566364Y92750D01*
X566500Y92563*
X566500D02*
X566636Y92000D01*
Y91625*
X566500Y91063*
X566500D02*
X566227Y90688D01*
X566227D02*
X565818Y90500D01*
X565409*
X565000Y90688*
X565000D02*
X564864Y90875D01*
X564727Y91250*
X692000Y94438D02*
Y90500D01*
Y94438D02*
X693227D01*
X693227D02*
X693636Y94250D01*
X693773Y94063*
X693773D02*
X693909Y93688D01*
X693909D02*
Y93125D01*
X693773Y92750*
X693636Y92563*
X693636D02*
X693227Y92375D01*
X692000*
X696227Y94438D02*
X695136Y90500D01*
X696227Y94438D02*
X697318Y90500D01*
X695545Y91813D02*
X696909D01*
X698545Y94438D02*
Y90500D01*
Y94438D02*
X699500D01*
X699500D02*
X699909Y94250D01*
X700182Y93875*
X700318Y93500*
X700455Y92938*
X700455D02*
Y92000D01*
X700318Y91438*
X700318D02*
X700182Y91063D01*
X700182D02*
X699909Y90688D01*
X699909D02*
X699500Y90500D01*
X698545*
X703182Y92563D02*
X703045Y92938D01*
X703045D02*
X702636Y93125D01*
X702227*
X701818Y92938*
X701818D02*
X701682Y92563D01*
X701682D02*
X701818Y92188D01*
X701818D02*
X702091Y92000D01*
X702773Y91813*
X702773D02*
X703045Y91625D01*
X703182Y91250*
Y91063*
X703182D02*
X703045Y90688D01*
X703045D02*
X702636Y90500D01*
X702227*
X701818Y90688*
X701818D02*
X701682Y91063D01*
X707545Y93125D02*
X708364Y90500D01*
X709182Y93125D02*
X708364Y90500D01*
X712182Y93125D02*
X712045Y92563D01*
X712045D02*
X711773Y92188D01*
X711773D02*
X711364Y92000D01*
X711227*
X710818Y92188*
X710818D02*
X710545Y92563D01*
X710545D02*
X710409Y93125D01*
Y93313*
X710409D02*
X710545Y93875D01*
X710818Y94250*
X711227Y94438*
X711227D02*
X711364D01*
X711364D02*
X711773Y94250D01*
X712045Y93875*
X712182Y93125*
Y92188*
X712182D02*
X712045Y91250D01*
X711773Y90688*
X711773D02*
X711364Y90500D01*
X711091*
X710682Y90688*
X710682D02*
X710545Y91063D01*
X713545Y90875D02*
X713409Y90688D01*
X713409D02*
X713545Y90500D01*
X713682Y90688*
X713682D02*
X713545Y90875D01*
X715182Y94438D02*
X716682D01*
X716682D02*
X715864Y92938D01*
X715864D02*
X716273D01*
X716273D02*
X716545Y92750D01*
X716682Y92563*
X716682D02*
X716818Y92000D01*
Y91625*
X716682Y91063*
X716682D02*
X716409Y90688D01*
X716409D02*
X716000Y90500D01*
X715591*
X715182Y90688*
X715182D02*
X715045Y90875D01*
X714909Y91250*
X254636Y208938D02*
X256000Y206313D01*
X256000D02*
X253955D01*
X254636Y208938D02*
Y205000D01*
X252455Y208938D02*
X250955D01*
X250955D02*
X251773Y207438D01*
X251773D02*
X251364D01*
X251364D02*
X251091Y207250D01*
X250955Y207063*
X250955D02*
X250818Y206500D01*
Y206125*
X250955Y205563*
X250955D02*
X251227Y205188D01*
X251227D02*
X251636Y205000D01*
X252045*
X252455Y205188*
X252455D02*
X252591Y205375D01*
X252727Y205750*
X248773Y208938D02*
X249182Y208750D01*
X249455Y208188*
X249455D02*
X249591Y207250D01*
Y206688*
X249591D02*
X249455Y205750D01*
X249182Y205188*
X249182D02*
X248773Y205000D01*
X248500*
X248091Y205188*
X248091D02*
X247818Y205750D01*
X247682Y206688*
X247682D02*
Y207250D01*
X247818Y208188*
X247818D02*
X248091Y208750D01*
X248500Y208938*
X248500D02*
X248773D01*
X246455D02*
Y205000D01*
Y208938D02*
X245227D01*
X245227D02*
X244818Y208750D01*
X244682Y208563*
X244682D02*
X244545Y208188D01*
X244545D02*
Y207813D01*
X244545D02*
X244682Y207438D01*
X244682D02*
X244818Y207250D01*
X245227Y207063*
X246455D02*
X245227D01*
X245227D02*
X244818Y206875D01*
X244682Y206688*
X244682D02*
X244545Y206313D01*
X244545D02*
Y205750D01*
X244682Y205375*
X244818Y205188*
X244818D02*
X245227Y205000D01*
X246455*
X242500Y208938D02*
X242773Y208750D01*
X243045Y208375*
X243182Y208000*
X243318Y207438*
X243318D02*
Y206500D01*
X243182Y205938*
X243182D02*
X243045Y205563D01*
X243045D02*
X242773Y205188D01*
X242773D02*
X242500Y205000D01*
X241955*
X241682Y205188*
X241682D02*
X241409Y205563D01*
X241409D02*
X241273Y205938D01*
X241273D02*
X241136Y206500D01*
Y207438*
X241136D02*
X241273Y208000D01*
X241409Y208375*
X241682Y208750*
X241955Y208938*
X241955D02*
X242500D01*
X239091D02*
X239364Y208750D01*
X239636Y208375*
X239773Y208000*
X239909Y207438*
X239909D02*
Y206500D01*
X239773Y205938*
X239773D02*
X239636Y205563D01*
X239636D02*
X239364Y205188D01*
X239364D02*
X239091Y205000D01*
X238545*
X238273Y205188*
X238273D02*
X238000Y205563D01*
X238000D02*
X237864Y205938D01*
X237864D02*
X237727Y206500D01*
Y207438*
X237727D02*
X237864Y208000D01*
X238000Y208375*
X238273Y208750*
X238545Y208938*
X238545D02*
X239091D01*
X234591Y208375D02*
X234864Y208750D01*
X235273Y208938*
X235273D02*
X235818D01*
X235818D02*
X236227Y208750D01*
X236500Y208375*
Y208000*
X236364Y207625*
X236227Y207438*
X236227D02*
X235955Y207250D01*
X235136Y206875*
X234864Y206688*
X234864D02*
X234727Y206500D01*
X234591Y206125*
Y205563*
X234591D02*
X234864Y205188D01*
X234864D02*
X235273Y205000D01*
X235818*
X236227Y205188*
X236227D02*
X236500Y205563D01*
X232409Y208938D02*
Y205000D01*
X233364Y208938D02*
X231455D01*
X230227Y206688D02*
X227773D01*
X224636Y208375D02*
X224909Y208750D01*
X225318Y208938*
X225318D02*
X225864D01*
X225864D02*
X226273Y208750D01*
X226545Y208375*
Y208000*
X226409Y207625*
X226273Y207438*
X226273D02*
X226000Y207250D01*
X225182Y206875*
X224909Y206688*
X224909D02*
X224773Y206500D01*
X224636Y206125*
Y205563*
X224636D02*
X224909Y205188D01*
X224909D02*
X225318Y205000D01*
X225864*
X226273Y205188*
X226273D02*
X226545Y205563D01*
X223409Y208938D02*
Y205000D01*
X221500Y208938D02*
Y205000D01*
X223409Y207063D02*
X221500D01*
X219182Y208938D02*
X220273Y205000D01*
X219182Y208938D02*
X218091Y205000D01*
X219864Y206313D02*
X218500D01*
X216864Y208938D02*
Y205000D01*
Y208938D02*
X215636D01*
X215636D02*
X215227Y208750D01*
X215091Y208563*
X215091D02*
X214955Y208188D01*
X214955D02*
Y207813D01*
X214955D02*
X215091Y207438D01*
X215091D02*
X215227Y207250D01*
X215636Y207063*
X215636D02*
X216864D01*
X215909D02*
X214955Y205000D01*
X213727Y208938D02*
Y205000D01*
Y208938D02*
X212500D01*
X212500D02*
X212091Y208750D01*
X211955Y208563*
X211955D02*
X211818Y208188D01*
X211818D02*
Y207625D01*
X211955Y207250*
X212091Y207063*
X212091D02*
X212500Y206875D01*
X213727*
X208818Y207625D02*
X208955Y207063D01*
X208955D02*
X209227Y206688D01*
X209227D02*
X209636Y206500D01*
X209773*
X210182Y206688*
X210182D02*
X210455Y207063D01*
X210455D02*
X210591Y207625D01*
Y207813*
X210591D02*
X210455Y208375D01*
X210182Y208750*
X209773Y208938*
X209773D02*
X209636D01*
X209636D02*
X209227Y208750D01*
X208955Y208375*
X208818Y207625*
Y206688*
X208818D02*
X208955Y205750D01*
X209227Y205188*
X209227D02*
X209636Y205000D01*
X209909*
X210318Y205188*
X210318D02*
X210455Y205563D01*
X205955Y208375D02*
X206091Y208750D01*
X206500Y208938*
X206500D02*
X206773D01*
X206773D02*
X207182Y208750D01*
X207455Y208188*
X207455D02*
X207591Y207250D01*
Y206313*
X207591D02*
X207455Y205563D01*
X207455D02*
X207182Y205188D01*
X207182D02*
X206773Y205000D01*
X206636*
X206227Y205188*
X206227D02*
X205955Y205563D01*
X205955D02*
X205818Y206125D01*
Y206313*
X205818D02*
X205955Y206875D01*
X206227Y207250*
X206636Y207438*
X206636D02*
X206773D01*
X206773D02*
X207182Y207250D01*
X207455Y206875*
X207591Y206313*
X223500Y215938D02*
Y212000D01*
Y215938D02*
X222273D01*
X222273D02*
X221864Y215750D01*
X221727Y215563*
X221727D02*
X221591Y215188D01*
X221591D02*
Y214813D01*
X221591D02*
X221727Y214438D01*
X221727D02*
X221864Y214250D01*
X222273Y214063*
X222273D02*
X223500D01*
X222545D02*
X221591Y212000D01*
X220364Y213500D02*
X218727D01*
Y213875*
X218864Y214250*
X219000Y214438*
X219000D02*
X219273Y214625D01*
X219682*
X219955Y214438*
X219955D02*
X220227Y214063D01*
X220227D02*
X220364Y213500D01*
Y213125*
X220227Y212563*
X220227D02*
X219955Y212188D01*
X219955D02*
X219682Y212000D01*
X219273*
X219000Y212188*
X219000D02*
X218727Y212563D01*
X217500Y214625D02*
X216682Y212000D01*
X215864Y214625D02*
X216682Y212000D01*
X211500Y215188D02*
X211227Y215375D01*
X210818Y215938*
X210818D02*
Y212000D01*
X209455Y212375D02*
X209591Y212188D01*
X209591D02*
X209455Y212000D01*
X209318Y212188*
X209318D02*
X209455Y212375D01*
X208091Y215188D02*
X207818Y215375D01*
X207409Y215938*
X207409D02*
Y212000D01*
X238500Y316938D02*
X237409Y313000D01*
X236318Y316938D02*
X237409Y313000D01*
X233045Y316000D02*
X233182Y316375D01*
X233455Y316750*
X233727Y316938*
X233727D02*
X234273D01*
X234273D02*
X234545Y316750D01*
X234818Y316375*
X234955Y316000*
X235091Y315438*
X235091D02*
Y314500D01*
X234955Y313938*
X234955D02*
X234818Y313563D01*
X234818D02*
X234545Y313188D01*
X234545D02*
X234273Y313000D01*
X233727*
X233455Y313188*
X233455D02*
X233182Y313563D01*
X233182D02*
X233045Y313938D01*
X229773Y316000D02*
X229909Y316375D01*
X230182Y316750*
X230455Y316938*
X230455D02*
X231000D01*
X231000D02*
X231273Y316750D01*
X231545Y316375*
X231682Y316000*
X231818Y315438*
X231818D02*
Y314500D01*
X231682Y313938*
X231682D02*
X231545Y313563D01*
X231545D02*
X231273Y313188D01*
X231273D02*
X231000Y313000D01*
X230455*
X230182Y313188*
X230182D02*
X229909Y313563D01*
X229909D02*
X229773Y313938D01*
X378955Y316000D02*
X379091Y316375D01*
X379364Y316750*
X379636Y316938*
X379636D02*
X380182D01*
X380182D02*
X380455Y316750D01*
X380727Y316375*
X380864Y316000*
X381000Y315438*
X381000D02*
Y314500D01*
X380864Y313938*
X380864D02*
X380727Y313563D01*
X380727D02*
X380455Y313188D01*
X380455D02*
X380182Y313000D01*
X379636*
X379364Y313188*
X379364D02*
X379091Y313563D01*
X379091D02*
X378955Y313938D01*
X378955D02*
Y314500D01*
X379636D02*
X378955D01*
X377727Y316938D02*
Y313000D01*
Y316938D02*
X375818Y313000D01*
Y316938D02*
Y313000D01*
X374591Y316938D02*
Y313000D01*
Y316938D02*
X373636D01*
X373636D02*
X373227Y316750D01*
X372955Y316375*
X372818Y316000*
X372682Y315438*
X372682D02*
Y314500D01*
X372818Y313938*
X372818D02*
X372955Y313563D01*
X372955D02*
X373227Y313188D01*
X373227D02*
X373636Y313000D01*
X374591*
X381000Y276938D02*
Y273000D01*
Y276938D02*
X379773D01*
X379773D02*
X379364Y276750D01*
X379227Y276563*
X379227D02*
X379091Y276188D01*
X379091D02*
Y275813D01*
X379091D02*
X379227Y275438D01*
X379227D02*
X379364Y275250D01*
X379773Y275063*
X379773D02*
X381000D01*
X380045D02*
X379091Y273000D01*
X375955Y276375D02*
X376227Y276750D01*
X376636Y276938*
X376636D02*
X377182D01*
X377182D02*
X377591Y276750D01*
X377864Y276375*
Y276000*
X377727Y275625*
X377591Y275438*
X377591D02*
X377318Y275250D01*
X376500Y274875*
X376227Y274688*
X376227D02*
X376091Y274500D01*
X375955Y274125*
Y273563*
X375955D02*
X376227Y273188D01*
X376227D02*
X376636Y273000D01*
X377182*
X377591Y273188*
X377591D02*
X377864Y273563D01*
X373773Y276938D02*
Y273000D01*
X374727Y276938D02*
X372818D01*
X341591Y235875D02*
X341864Y236250D01*
X342273Y236438*
X342273D02*
X342818D01*
X342818D02*
X343227Y236250D01*
X343500Y235875*
Y235500*
X343364Y235125*
X343227Y234938*
X343227D02*
X342955Y234750D01*
X342136Y234375*
X341864Y234188*
X341864D02*
X341727Y234000D01*
X341591Y233625*
Y233063*
X341591D02*
X341864Y232688D01*
X341864D02*
X342273Y232500D01*
X342818*
X343227Y232688*
X343227D02*
X343500Y233063D01*
X340364Y236438D02*
Y232500D01*
Y236438D02*
X339136D01*
X339136D02*
X338727Y236250D01*
X338591Y236063*
X338591D02*
X338455Y235688D01*
X338455D02*
Y235125D01*
X338591Y234750*
X338727Y234563*
X338727D02*
X339136Y234375D01*
X340364*
X337227Y236438D02*
Y232500D01*
X336000Y231750D02*
X333136D01*
X330409Y235875D02*
X330682Y236250D01*
X331091Y236438*
X331091D02*
X331636D01*
X331636D02*
X332045Y236250D01*
X332318Y235875*
Y235500*
X332182Y235125*
X332045Y234938*
X332045D02*
X331773Y234750D01*
X330955Y234375*
X330682Y234188*
X330682D02*
X330545Y234000D01*
X330409Y233625*
Y233063*
X330409D02*
X330682Y232688D01*
X330682D02*
X331091Y232500D01*
X331636*
X332045Y232688*
X332045D02*
X332318Y233063D01*
X329182Y236438D02*
Y232500D01*
X350500Y280938D02*
Y277000D01*
Y280938D02*
X348727D01*
X350500Y279063D02*
X349409D01*
X350500Y277000D02*
X348727D01*
X347500Y280938D02*
X345591Y277000D01*
Y280938D02*
X347500Y277000D01*
X343409Y280938D02*
Y277000D01*
X344364Y280938D02*
X342455D01*
X341227Y276250D02*
X338364D01*
X335500Y280000D02*
X335636Y280375D01*
X335909Y280750*
X336182Y280938*
X336182D02*
X336727D01*
X336727D02*
X337000Y280750D01*
X337273Y280375*
X337409Y280000*
X337545Y279438*
X337545D02*
Y278500D01*
X337409Y277938*
X337409D02*
X337273Y277563D01*
X337273D02*
X337000Y277188D01*
X337000D02*
X336727Y277000D01*
X336182*
X335909Y277188*
X335909D02*
X335636Y277563D01*
X335636D02*
X335500Y277938D01*
X333455Y280938D02*
X333727Y280750D01*
X334000Y280375*
X334136Y280000*
X334273Y279438*
X334273D02*
Y278500D01*
X334136Y277938*
X334136D02*
X334000Y277563D01*
X334000D02*
X333727Y277188D01*
X333727D02*
X333455Y277000D01*
X332909*
X332636Y277188*
X332636D02*
X332364Y277563D01*
X332364D02*
X332227Y277938D01*
X332227D02*
X332091Y278500D01*
Y279438*
X332091D02*
X332227Y280000D01*
X332364Y280375*
X332636Y280750*
X332909Y280938*
X332909D02*
X333455D01*
X330864D02*
Y277000D01*
Y280938D02*
X329773Y277000D01*
X328682Y280938D02*
X329773Y277000D01*
X328682Y280938D02*
Y277000D01*
X327455Y280938D02*
Y277000D01*
X326227Y280938D02*
Y277000D01*
Y280938D02*
X324318Y277000D01*
Y280938D02*
Y277000D01*
X291000Y271438D02*
Y267500D01*
Y271438D02*
X290045D01*
X290045D02*
X289636Y271250D01*
X289364Y270875*
X289227Y270500*
X289091Y269938*
X289091D02*
Y269000D01*
X289227Y268438*
X289227D02*
X289364Y268063D01*
X289364D02*
X289636Y267688D01*
X289636D02*
X290045Y267500D01*
X291000*
X287864Y271438D02*
Y267500D01*
X284727Y270875D02*
X285000Y271250D01*
X285409Y271438*
X285409D02*
X285955D01*
X285955D02*
X286364Y271250D01*
X286636Y270875*
Y270500*
X286500Y270125*
X286364Y269938*
X286364D02*
X286091Y269750D01*
X285273Y269375*
X285000Y269188*
X285000D02*
X284864Y269000D01*
X284727Y268625*
Y268063*
X284727D02*
X285000Y267688D01*
X285000D02*
X285409Y267500D01*
X285955*
X286364Y267688*
X286364D02*
X286636Y268063D01*
X283500Y271438D02*
Y267500D01*
Y271438D02*
X282273D01*
X282273D02*
X281864Y271250D01*
X281727Y271063*
X281727D02*
X281591Y270688D01*
X281591D02*
Y270125D01*
X281727Y269750*
X281864Y269563*
X281864D02*
X282273Y269375D01*
X283500*
X296591Y255875D02*
X296864Y256250D01*
X297273Y256438*
X297273D02*
X297818D01*
X297818D02*
X298227Y256250D01*
X298500Y255875*
Y255500*
X298364Y255125*
X298227Y254938*
X298227D02*
X297955Y254750D01*
X297136Y254375*
X296864Y254188*
X296864D02*
X296727Y254000D01*
X296591Y253625*
Y253063*
X296591D02*
X296864Y252688D01*
X296864D02*
X297273Y252500D01*
X297818*
X298227Y252688*
X298227D02*
X298500Y253063D01*
X295364Y256438D02*
Y252500D01*
Y256438D02*
X294136D01*
X294136D02*
X293727Y256250D01*
X293591Y256063*
X293591D02*
X293455Y255688D01*
X293455D02*
Y255125D01*
X293591Y254750*
X293727Y254563*
X293727D02*
X294136Y254375D01*
X295364*
X292227Y256438D02*
Y252500D01*
X291000Y251750D02*
X288136D01*
X285273Y255500D02*
X285409Y255875D01*
X285682Y256250*
X285955Y256438*
X285955D02*
X286500D01*
X286500D02*
X286773Y256250D01*
X287045Y255875*
X287182Y255500*
X287318Y254938*
X287318D02*
Y254000D01*
X287182Y253438*
X287182D02*
X287045Y253063D01*
X287045D02*
X286773Y252688D01*
X286773D02*
X286500Y252500D01*
X285955*
X285682Y252688*
X285682D02*
X285409Y253063D01*
X285409D02*
X285273Y253438D01*
X282136Y255875D02*
X282409Y256250D01*
X282818Y256438*
X282818D02*
X283364D01*
X283364D02*
X283773Y256250D01*
X284045Y255875*
Y255500*
X283909Y255125*
X283773Y254938*
X283773D02*
X283500Y254750D01*
X282682Y254375*
X282409Y254188*
X282409D02*
X282273Y254000D01*
X282136Y253625*
Y253063*
X282136D02*
X282409Y252688D01*
X282409D02*
X282818Y252500D01*
X283364*
X283773Y252688*
X283773D02*
X284045Y253063D01*
X288591Y240875D02*
X288864Y241250D01*
X289273Y241438*
X289273D02*
X289818D01*
X289818D02*
X290227Y241250D01*
X290500Y240875*
Y240500*
X290364Y240125*
X290227Y239938*
X290227D02*
X289955Y239750D01*
X289136Y239375*
X288864Y239188*
X288864D02*
X288727Y239000D01*
X288591Y238625*
Y238063*
X288591D02*
X288864Y237688D01*
X288864D02*
X289273Y237500D01*
X289818*
X290227Y237688*
X290227D02*
X290500Y238063D01*
X287364Y241438D02*
Y237500D01*
Y241438D02*
X286136D01*
X286136D02*
X285727Y241250D01*
X285591Y241063*
X285591D02*
X285455Y240688D01*
X285455D02*
Y240125D01*
X285591Y239750*
X285727Y239563*
X285727D02*
X286136Y239375D01*
X287364*
X284227Y241438D02*
Y237500D01*
X283000Y236750D02*
X280136D01*
X277273Y240500D02*
X277409Y240875D01*
X277682Y241250*
X277955Y241438*
X277955D02*
X278500D01*
X278500D02*
X278773Y241250D01*
X279045Y240875*
X279182Y240500*
X279318Y239938*
X279318D02*
Y239000D01*
X279182Y238438*
X279182D02*
X279045Y238063D01*
X279045D02*
X278773Y237688D01*
X278773D02*
X278500Y237500D01*
X277955*
X277682Y237688*
X277682D02*
X277409Y238063D01*
X277409D02*
X277273Y238438D01*
X276045Y241438D02*
Y237500D01*
X274409*
X273182Y241438D02*
Y237500D01*
X271273Y241438D02*
X273182Y238813D01*
X272500Y239750D02*
X271273Y237500D01*
X282000Y215938D02*
Y212000D01*
Y215938D02*
X280909Y212000D01*
X279818Y215938D02*
X280909Y212000D01*
X279818Y215938D02*
Y212000D01*
X277773Y215938D02*
X278045Y215750D01*
X278318Y215375*
X278455Y215000*
X278591Y214438*
X278591D02*
Y213500D01*
X278455Y212938*
X278455D02*
X278318Y212563D01*
X278318D02*
X278045Y212188D01*
X278045D02*
X277773Y212000D01*
X277227*
X276955Y212188*
X276955D02*
X276682Y212563D01*
X276682D02*
X276545Y212938D01*
X276545D02*
X276409Y213500D01*
Y214438*
X276409D02*
X276545Y215000D01*
X276682Y215375*
X276955Y215750*
X277227Y215938*
X277227D02*
X277773D01*
X275182D02*
Y212000D01*
Y215938D02*
X274227D01*
X274227D02*
X273818Y215750D01*
X273545Y215375*
X273409Y215000*
X273273Y214438*
X273273D02*
Y213500D01*
X273409Y212938*
X273409D02*
X273545Y212563D01*
X273545D02*
X273818Y212188D01*
X273818D02*
X274227Y212000D01*
X275182*
X272045Y215938D02*
Y212000D01*
Y215938D02*
X270273D01*
X272045Y214063D02*
X270955D01*
X272045Y212000D02*
X270273D01*
G54D36*
X308150Y292450D02*
X301850D01*
Y280750*
X308150*
Y292450*
X298150D02*
X291850D01*
Y280750*
X298150*
Y292450*
X295650Y278150D02*
Y271850D01*
X307350*
Y278150*
X295650*
X306350Y239850D02*
Y246150D01*
X294650*
Y239850*
X306350*
X262550Y258150D02*
Y251850D01*
X274250*
Y258150*
X262550*
Y268150D02*
Y261850D01*
X274250*
Y268150*
X262550*
X268150Y222450D02*
X261850D01*
Y210750*
X268150*
Y222450*
Y237450D02*
X261850D01*
Y225750*
X268150*
Y237450*
X336850Y295550D02*
X343150D01*
Y307250*
X336850*
Y295550*
X318150Y292450D02*
X311850D01*
Y280750*
X318150*
Y292450*
X265550Y321150D02*
Y314850D01*
X277250*
Y321150*
X265550*
Y328150D02*
Y321850D01*
X277250*
Y328150*
X265550*
X310350Y324850D02*
Y331150D01*
X298650*
Y324850*
X310350*
X318150Y320850D02*
X311850D01*
Y309150*
X318150*
Y320850*
X336850Y255550D02*
X343150D01*
Y267250*
X336850*
Y255550*
X262550Y278150D02*
Y271850D01*
X274250*
Y278150*
X262550*
X273150Y292450D02*
X266850D01*
Y280750*
X273150*
Y292450*
X276850Y280650D02*
X283150D01*
Y292350*
X276850*
Y280650*
X329850Y295550D02*
X336150D01*
Y307250*
X329850*
Y295550*
X281050Y306150D02*
Y299850D01*
X292750*
Y306150*
X281050*
X307350Y299850D02*
Y306150D01*
X295650*
Y299850*
X307350*
G54D38*
X235500Y250500D02*
X235354Y250727D01*
X235550Y250533D02*
X235241Y251011D01*
X232295Y255573D02*
X232181Y255749D01*
X235568Y250616D02*
X235129Y251296D01*
X232346Y255605D02*
X232134Y255933D01*
X235619Y250648D02*
X235016Y251580D01*
X232396Y255638D02*
X232087Y256117D01*
X235637Y250731D02*
X234937Y251815D01*
X232446Y255670D02*
X232040Y256300D01*
X235687Y250764D02*
X234824Y252099D01*
X232497Y255703D02*
X231992Y256484D01*
X235705Y250847D02*
X234744Y252333D01*
X232547Y255736D02*
X231945Y256668D01*
X235723Y250929D02*
X234697Y252517D01*
X232598Y255768D02*
X231898Y256852D01*
X235773Y250962D02*
X234617Y252751D01*
X232648Y255801D02*
X231851Y257035D01*
X235791Y251045D02*
X234538Y252985D01*
X232698Y255833D02*
X231803Y257219D01*
X235841Y251078D02*
X235565Y251506D01*
X235483Y251632D02*
X234458Y253220D01*
X232749Y255866D02*
X231789Y257353D01*
X235859Y251160D02*
X235582Y251589D01*
X235403Y251866D02*
X234378Y253454D01*
X232799Y255898D02*
X232555Y256276D01*
X232474Y256402D02*
X231741Y257536D01*
X235877Y251243D02*
X235600Y251672D01*
X235291Y252151D02*
X234331Y253638D01*
X232817Y255981D02*
X232606Y256309D01*
X232427Y256586D02*
X231694Y257720D01*
X235927Y251276D02*
X235651Y251704D01*
X235211Y252385D02*
X234251Y253872D01*
X232868Y256014D02*
X232623Y256392D01*
X232379Y256770D02*
X231647Y257904D01*
X235945Y251359D02*
X235669Y251787D01*
X235131Y252619D02*
X234204Y254055D01*
X232918Y256046D02*
X232674Y256424D01*
X232365Y256903D02*
X231632Y258037D01*
X235996Y251391D02*
X235719Y251820D01*
X235052Y252853D02*
X234156Y254239D01*
X232968Y256079D02*
X232724Y256457D01*
X232317Y257087D02*
X231585Y258221D01*
X236014Y251474D02*
X235737Y251903D01*
X234972Y253087D02*
X234109Y254423D01*
X232986Y256162D02*
X232775Y256489D01*
X232270Y257271D02*
X231538Y258405D01*
X236031Y251557D02*
X235755Y251986D01*
X234925Y253271D02*
X234062Y254607D01*
X233037Y256194D02*
X232792Y256572D01*
X232223Y257454D02*
X231523Y258538D01*
X236082Y251590D02*
X235805Y252018D01*
X234845Y253505D02*
X234015Y254791D01*
X233087Y256227D02*
X232843Y256605D01*
X232176Y257638D02*
X231476Y258722D01*
X236100Y251673D02*
X235823Y252101D01*
X234798Y253689D02*
X233967Y254974D01*
X233137Y256260D02*
X232861Y256688D01*
X232128Y257822D02*
X231461Y258855D01*
X236150Y251705D02*
X235873Y252134D01*
X234718Y253923D02*
X233920Y255158D01*
X233155Y256343D02*
X232911Y256720D01*
X232114Y257955D02*
X231414Y259039D01*
X236168Y251788D02*
X235891Y252217D01*
X234670Y254107D02*
X233905Y255291D01*
X233206Y256375D02*
X232962Y256753D01*
X232066Y258139D02*
X231399Y259172D01*
X236186Y251871D02*
X235909Y252300D01*
X234591Y254341D02*
X233858Y255475D01*
X233256Y256408D02*
X232979Y256836D01*
X232019Y258323D02*
X231384Y259306D01*
X236236Y251904D02*
X235959Y252332D01*
X234543Y254525D02*
X233844Y255608D01*
X233274Y256491D02*
X233030Y256869D01*
X232004Y258456D02*
X231337Y259489D01*
X236254Y251987D02*
X235977Y252415D01*
X234496Y254709D02*
X233796Y255792D01*
X233324Y256523D02*
X233048Y256952D01*
X231957Y258640D02*
X231322Y259623D01*
X236304Y252019D02*
X235995Y252498D01*
X234449Y254892D02*
X233782Y255926D01*
X233342Y256606D02*
X233098Y256984D01*
X231942Y258773D02*
X231275Y259807D01*
X236322Y252102D02*
X236045Y252531D01*
X234402Y255076D02*
X233734Y256109D01*
X233393Y256639D02*
X233116Y257067D01*
X231895Y258957D02*
X231260Y259940D01*
X236340Y252185D02*
X236063Y252614D01*
X234354Y255260D02*
X233720Y256243D01*
X233443Y256671D02*
X233166Y257100D01*
X231880Y259090D02*
X231246Y260073D01*
X236390Y252218D02*
X236081Y252697D01*
X234340Y255393D02*
X233705Y256376D01*
X233461Y256754D02*
X233184Y257183D01*
X231833Y259274D02*
X231231Y260207D01*
X236408Y252301D02*
X236132Y252729D01*
X234292Y255577D02*
X233690Y256509D01*
X233511Y256787D02*
X233234Y257215D01*
X231819Y259408D02*
X231216Y260340D01*
X236426Y252384D02*
X236149Y252812D01*
X234278Y255710D02*
X233676Y256643D01*
X233529Y256870D02*
X233285Y257248D01*
X231771Y259591D02*
X231169Y260524D01*
X236477Y252416D02*
X236167Y252895D01*
X234230Y255894D02*
X233661Y256776D01*
X233579Y256902D02*
X233303Y257331D01*
X231757Y259725D02*
X231154Y260657D01*
X236494Y252499D02*
X236218Y252928D01*
X234216Y256027D02*
X233321Y257414D01*
X231742Y259858D02*
X231140Y260790D01*
X236512Y252582D02*
X236236Y253011D01*
X234169Y256211D02*
X233371Y257446D01*
X231695Y260042D02*
X231125Y260924D01*
X236563Y252615D02*
X236253Y253094D01*
X234154Y256345D02*
X233389Y257529D01*
X231680Y260175D02*
X231110Y261057D01*
X236580Y252698D02*
X236304Y253126D01*
X234139Y256478D02*
X233439Y257562D01*
X231665Y260309D02*
X231096Y261191D01*
X236598Y252781D02*
X236322Y253209D01*
X234124Y256611D02*
X233457Y257645D01*
X231651Y260442D02*
X231081Y261324D01*
X236649Y252813D02*
X236340Y253292D01*
X234110Y256745D02*
X233475Y257727D01*
X231636Y260575D02*
X231066Y261457D01*
X236667Y252896D02*
X236390Y253325D01*
X234095Y256878D02*
X233525Y257760D01*
X231589Y260759D02*
X231051Y261591D01*
X236684Y252979D02*
X236408Y253408D01*
X234080Y257011D02*
X233543Y257843D01*
X231574Y260892D02*
X231037Y261724D01*
X236735Y253012D02*
X236426Y253491D01*
X234066Y257145D02*
X233594Y257876D01*
X231559Y261026D02*
X231022Y261857D01*
X236753Y253095D02*
X236443Y253573D01*
X234051Y257278D02*
X233644Y257908D01*
X231544Y261159D02*
X231007Y261991D01*
X236771Y253178D02*
X236494Y253606D01*
X234036Y257411D02*
X233727Y257890D01*
X231530Y261292D02*
X230993Y262124D01*
X236821Y253210D02*
X236512Y253689D01*
X234022Y257545D02*
X233810Y257872D01*
X231515Y261426D02*
X230978Y262257D01*
X236839Y253293D02*
X236530Y253772D01*
X234039Y257628D02*
X233893Y257855D01*
X231500Y261559D02*
X230963Y262391D01*
X236857Y253376D02*
X236580Y253805D01*
X234025Y257761D02*
X233976Y257837D01*
X231486Y261692D02*
X230949Y262524D01*
X236875Y253459D02*
X236598Y253887D01*
X231471Y261826D02*
X230966Y262607D01*
X236925Y253492D02*
X236616Y253970D01*
X231456Y261959D02*
X230952Y262740D01*
X236943Y253575D02*
X236634Y254053D01*
X231442Y262093D02*
X230937Y262874D01*
X236961Y253657D02*
X236684Y254086D01*
X231427Y262226D02*
X230922Y263007D01*
X237011Y253690D02*
X236702Y254169D01*
X231445Y262309D02*
X230908Y263141D01*
X237029Y253773D02*
X236720Y254252D01*
X231430Y262442D02*
X230925Y263223D01*
X237047Y253856D02*
X236738Y254335D01*
X231415Y262576D02*
X230911Y263357D01*
X237065Y253939D02*
X236788Y254367D01*
X231401Y262709D02*
X230896Y263490D01*
X237115Y253971D02*
X236806Y254450D01*
X231386Y262842D02*
X230914Y263573D01*
X237133Y254054D02*
X236824Y254533D01*
X231371Y262976D02*
X230899Y263706D01*
X237151Y254137D02*
X236841Y254616D01*
X235491Y256708D02*
X235474Y256733D01*
X231389Y263059D02*
X230917Y263789D01*
X237169Y254220D02*
X236859Y254699D01*
X235606Y256640D02*
X235492Y256816D01*
X231374Y263192D02*
X230902Y263923D01*
X237186Y254303D02*
X236910Y254732D01*
X235689Y256622D02*
X235510Y256899D01*
X231360Y263325D02*
X230888Y264056D01*
X237237Y254336D02*
X236928Y254815D01*
X235772Y256604D02*
X235528Y256982D01*
X231378Y263408D02*
X230906Y264139D01*
X237255Y254419D02*
X236945Y254898D01*
X235855Y256586D02*
X235546Y257065D01*
X231363Y263542D02*
X230891Y264272D01*
X237272Y254502D02*
X236963Y254981D01*
X235905Y256619D02*
X235564Y257148D01*
X231348Y263675D02*
X230909Y264355D01*
X237290Y254585D02*
X237014Y255013D01*
X235923Y256702D02*
X235581Y257231D01*
X231366Y263758D02*
X230894Y264489D01*
X237341Y254617D02*
X237032Y255096D01*
X235941Y256785D02*
X235599Y257314D01*
X231351Y263891D02*
X230912Y264572D01*
X237359Y254700D02*
X237049Y255179D01*
X235959Y256868D02*
X235617Y257397D01*
X231369Y263974D02*
X230897Y264705D01*
X237376Y254783D02*
X237067Y255262D01*
X235977Y256950D02*
X235635Y257480D01*
X231354Y264108D02*
X230915Y264788D01*
X237394Y254866D02*
X237085Y255345D01*
X235995Y257033D02*
X235685Y257512D01*
X233456Y260965D02*
X233407Y261040D01*
X231340Y264241D02*
X230900Y264921D01*
X237445Y254899D02*
X237135Y255377D01*
X236012Y257116D02*
X235703Y257595D01*
X233538Y260947D02*
X233359Y261224D01*
X231358Y264324D02*
X230918Y265004D01*
X237463Y254982D02*
X237153Y255460D01*
X236030Y257199D02*
X235721Y257678D01*
X233589Y260979D02*
X233345Y261358D01*
X231343Y264457D02*
X230903Y265138D01*
X237480Y255065D02*
X237171Y255543D01*
X236048Y257282D02*
X235739Y257761D01*
X233672Y260962D02*
X233330Y261491D01*
X231361Y264540D02*
X230921Y265221D01*
X237498Y255148D02*
X237189Y255626D01*
X236066Y257365D02*
X235757Y257844D01*
X233722Y260994D02*
X233315Y261624D01*
X231346Y264674D02*
X230907Y265354D01*
X237516Y255230D02*
X237207Y255709D01*
X236116Y257398D02*
X235775Y257927D01*
X233805Y260976D02*
X233301Y261758D01*
X231364Y264757D02*
X230924Y265437D01*
X237534Y255313D02*
X237225Y255792D01*
X236134Y257481D02*
X235792Y258010D01*
X233856Y261009D02*
X233286Y261891D01*
X231349Y264890D02*
X230942Y265520D01*
X237584Y255346D02*
X237275Y255825D01*
X236152Y257564D02*
X235810Y258093D01*
X233841Y261142D02*
X233271Y262024D01*
X231367Y264973D02*
X230928Y265653D01*
X237602Y255429D02*
X237293Y255908D01*
X236170Y257647D02*
X235828Y258176D01*
X233826Y261276D02*
X233257Y262158D01*
X231385Y265056D02*
X230945Y265736D01*
X237620Y255512D02*
X237311Y255991D01*
X236188Y257730D02*
X235846Y258259D01*
X233812Y261409D02*
X233242Y262291D01*
X231370Y265189D02*
X230963Y265819D01*
X237638Y255595D02*
X237329Y256074D01*
X236206Y257813D02*
X235864Y258342D01*
X233797Y261542D02*
X233227Y262424D01*
X231388Y265272D02*
X230949Y265953D01*
X237656Y255678D02*
X237347Y256157D01*
X236223Y257895D02*
X235882Y258425D01*
X233782Y261676D02*
X233212Y262558D01*
X231373Y265405D02*
X230966Y266035D01*
X237674Y255761D02*
X237364Y256240D01*
X236241Y257978D02*
X235900Y258508D01*
X233767Y261809D02*
X233198Y262691D01*
X231391Y265488D02*
X230984Y266118D01*
X237724Y255793D02*
X237382Y256323D01*
X236259Y258061D02*
X235917Y258591D01*
X233753Y261942D02*
X233216Y262774D01*
X231409Y265571D02*
X230970Y266252D01*
X237742Y255876D02*
X237433Y256355D01*
X236277Y258144D02*
X235935Y258674D01*
X233738Y262076D02*
X233201Y262907D01*
X231394Y265705D02*
X230987Y266335D01*
X237760Y255959D02*
X237450Y256438D01*
X236295Y258227D02*
X235953Y258757D01*
X233723Y262209D02*
X233186Y263041D01*
X231412Y265788D02*
X231005Y266418D01*
X237778Y256042D02*
X237468Y256521D01*
X236313Y258310D02*
X235971Y258839D01*
X233709Y262342D02*
X233172Y263174D01*
X231430Y265871D02*
X231023Y266501D01*
X237795Y256125D02*
X237486Y256604D01*
X236331Y258393D02*
X235989Y258922D01*
X233661Y262526D02*
X233157Y263307D01*
X231415Y266004D02*
X231008Y266634D01*
X237813Y256208D02*
X237504Y256687D01*
X236348Y258476D02*
X236007Y259005D01*
X233679Y262609D02*
X233142Y263441D01*
X231433Y266087D02*
X231026Y266717D01*
X237864Y256241D02*
X237522Y256770D01*
X236366Y258559D02*
X236025Y259088D01*
X233665Y262743D02*
X233160Y263524D01*
X231451Y266170D02*
X231044Y266800D01*
X237881Y256324D02*
X237540Y256853D01*
X236384Y258642D02*
X236042Y259171D01*
X233650Y262876D02*
X233145Y263657D01*
X231436Y266303D02*
X231062Y266883D01*
X237899Y256407D02*
X237558Y256936D01*
X236402Y258725D02*
X236060Y259254D01*
X233635Y263009D02*
X233131Y263790D01*
X231454Y266386D02*
X231080Y266966D01*
X237917Y256489D02*
X237575Y257019D01*
X236420Y258808D02*
X236078Y259337D01*
X233620Y263143D02*
X233116Y263924D01*
X231472Y266469D02*
X231065Y267099D01*
X237935Y256572D02*
X237593Y257102D01*
X236438Y258891D02*
X236096Y259420D01*
X233606Y263276D02*
X233101Y264057D01*
X231490Y266552D02*
X231083Y267182D01*
X237953Y256655D02*
X237644Y257134D01*
X236456Y258974D02*
X236114Y259503D01*
X233624Y263359D02*
X233119Y264140D01*
X231475Y266685D02*
X231101Y267265D01*
X237971Y256738D02*
X237662Y257217D01*
X236473Y259057D02*
X236132Y259586D01*
X233609Y263492D02*
X233104Y264273D01*
X231493Y266768D02*
X231119Y267348D01*
X237989Y256821D02*
X237679Y257300D01*
X236491Y259140D02*
X236149Y259669D01*
X233594Y263626D02*
X233122Y264356D01*
X231511Y266851D02*
X231104Y267481D01*
X238006Y256904D02*
X237697Y257383D01*
X236509Y259223D02*
X236167Y259752D01*
X233579Y263759D02*
X233107Y264490D01*
X231529Y266934D02*
X231122Y267564D01*
X238024Y256987D02*
X237715Y257466D01*
X236527Y259306D02*
X236185Y259835D01*
X233565Y263892D02*
X233093Y264623D01*
X231547Y267017D02*
X231140Y267647D01*
X238042Y257070D02*
X237733Y257549D01*
X236545Y259389D02*
X236203Y259918D01*
X233583Y263975D02*
X233111Y264706D01*
X231532Y267151D02*
X231158Y267730D01*
X238093Y257103D02*
X237751Y257632D01*
X236563Y259472D02*
X236221Y260001D01*
X233568Y264109D02*
X233096Y264839D01*
X231550Y267234D02*
X231175Y267813D01*
X238110Y257186D02*
X237769Y257715D01*
X236581Y259555D02*
X236239Y260084D01*
X233553Y264242D02*
X233081Y264973D01*
X231568Y267317D02*
X231193Y267896D01*
X238128Y257269D02*
X237786Y257798D01*
X236598Y259638D02*
X236257Y260167D01*
X233571Y264325D02*
X233099Y265056D01*
X231585Y267399D02*
X231211Y267979D01*
X238146Y257352D02*
X237804Y257881D01*
X236616Y259720D02*
X236274Y260250D01*
X233556Y264458D02*
X233084Y265189D01*
X231603Y267482D02*
X231229Y268062D01*
X238164Y257435D02*
X237822Y257964D01*
X236634Y259803D02*
X236292Y260333D01*
X233542Y264592D02*
X233102Y265272D01*
X231621Y267565D02*
X231247Y268145D01*
X238182Y257517D02*
X237840Y258047D01*
X236652Y259886D02*
X236310Y260416D01*
X233559Y264675D02*
X233088Y265405D01*
X231639Y267648D02*
X231265Y268228D01*
X238200Y257600D02*
X237858Y258130D01*
X236670Y259969D02*
X236295Y260549D01*
X233545Y264808D02*
X233105Y265488D01*
X231624Y267782D02*
X231250Y268361D01*
X238218Y257683D02*
X237876Y258213D01*
X236688Y260052D02*
X236313Y260632D01*
X233530Y264941D02*
X233091Y265622D01*
X231642Y267865D02*
X231268Y268444D01*
X238235Y257766D02*
X237894Y258296D01*
X236705Y260135D02*
X236331Y260715D01*
X233548Y265024D02*
X233109Y265705D01*
X231660Y267948D02*
X231286Y268527D01*
X238253Y257849D02*
X237911Y258379D01*
X236723Y260218D02*
X236349Y260798D01*
X233533Y265158D02*
X233094Y265838D01*
X231678Y268031D02*
X231303Y268610D01*
X238271Y257932D02*
X237929Y258461D01*
X236741Y260301D02*
X236367Y260881D01*
X233551Y265241D02*
X233112Y265921D01*
X231696Y268114D02*
X231321Y268693D01*
X238289Y258015D02*
X237947Y258544D01*
X236759Y260384D02*
X236385Y260964D01*
X233536Y265374D02*
X233097Y266054D01*
X231714Y268196D02*
X231339Y268776D01*
X238307Y258098D02*
X237965Y258627D01*
X236744Y260517D02*
X236403Y261047D01*
X233554Y265457D02*
X233115Y266137D01*
X231731Y268279D02*
X231357Y268859D01*
X238325Y258181D02*
X237983Y258710D01*
X236762Y260600D02*
X236420Y261130D01*
X233540Y265590D02*
X233100Y266271D01*
X231749Y268362D02*
X231375Y268942D01*
X238342Y258264D02*
X238001Y258793D01*
X236780Y260683D02*
X236406Y261263D01*
X233557Y265673D02*
X233118Y266354D01*
X231767Y268445D02*
X231393Y269025D01*
X238360Y258347D02*
X238019Y258876D01*
X236798Y260766D02*
X236424Y261346D01*
X233543Y265807D02*
X233136Y266437D01*
X231785Y268528D02*
X231411Y269108D01*
X238378Y258430D02*
X238036Y258959D01*
X236816Y260849D02*
X236441Y261429D01*
X233561Y265890D02*
X233121Y266570D01*
X231803Y268611D02*
X231428Y269191D01*
X238396Y258513D02*
X238054Y259042D01*
X236834Y260932D02*
X236459Y261512D01*
X233546Y266023D02*
X233139Y266653D01*
X231821Y268694D02*
X231446Y269274D01*
X238414Y258596D02*
X238072Y259125D01*
X236851Y261015D02*
X236477Y261595D01*
X233564Y266106D02*
X233124Y266786D01*
X231838Y268777D02*
X231464Y269357D01*
X238432Y258679D02*
X238090Y259208D01*
X236869Y261098D02*
X236495Y261678D01*
X233549Y266239D02*
X233142Y266869D01*
X231856Y268860D02*
X231482Y269440D01*
X238450Y258762D02*
X238108Y259291D01*
X236855Y261231D02*
X236480Y261811D01*
X233567Y266322D02*
X233160Y266952D01*
X231874Y268943D02*
X231500Y269523D01*
X238467Y258845D02*
X238126Y259374D01*
X236872Y261314D02*
X236498Y261894D01*
X233585Y266405D02*
X233178Y267035D01*
X231892Y269026D02*
X231518Y269606D01*
X238485Y258928D02*
X238144Y259457D01*
X236890Y261397D02*
X236516Y261977D01*
X233570Y266538D02*
X233163Y267168D01*
X231910Y269109D02*
X231536Y269689D01*
X238503Y259011D02*
X238161Y259540D01*
X236908Y261480D02*
X236534Y262060D01*
X233588Y266621D02*
X233181Y267251D01*
X231928Y269192D02*
X231586Y269721D01*
X238521Y259094D02*
X238179Y259623D01*
X236926Y261563D02*
X236552Y262143D01*
X233573Y266755D02*
X233199Y267334D01*
X231946Y269275D02*
X231604Y269804D01*
X238539Y259177D02*
X238197Y259706D01*
X236944Y261646D02*
X236537Y262276D01*
X233591Y266838D02*
X233217Y267417D01*
X231963Y269358D02*
X231622Y269887D01*
X229945Y272483D02*
X229929Y272508D01*
X238557Y259259D02*
X238215Y259789D01*
X236929Y261780D02*
X236555Y262359D01*
X233609Y266921D02*
X233202Y267551D01*
X231981Y269441D02*
X231639Y269970D01*
X230028Y272465D02*
X229914Y272641D01*
X238575Y259342D02*
X238200Y259922D01*
X236947Y261863D02*
X236573Y262442D01*
X233627Y267004D02*
X233220Y267634D01*
X231999Y269524D02*
X231657Y270053D01*
X230111Y272447D02*
X229900Y272775D01*
X238592Y259425D02*
X238218Y260005D01*
X236965Y261946D02*
X236590Y262525D01*
X233612Y267137D02*
X233238Y267717D01*
X232017Y269607D02*
X231675Y270136D01*
X230194Y272429D02*
X229885Y272908D01*
X238610Y259508D02*
X238236Y260088D01*
X236983Y262029D02*
X236576Y262659D01*
X233630Y267220D02*
X233223Y267850D01*
X232035Y269690D02*
X231693Y270219D01*
X230245Y272462D02*
X229838Y273092D01*
X238628Y259591D02*
X238254Y260171D01*
X237001Y262111D02*
X236594Y262741D01*
X233648Y267303D02*
X233241Y267933D01*
X232053Y269773D02*
X231711Y270302D01*
X230327Y272444D02*
X229823Y273225D01*
X238646Y259674D02*
X238272Y260254D01*
X236986Y262245D02*
X236611Y262824D01*
X233666Y267386D02*
X233259Y268016D01*
X232071Y269856D02*
X231729Y270385D01*
X230378Y272476D02*
X229808Y273359D01*
X238631Y259808D02*
X238289Y260337D01*
X237004Y262328D02*
X236629Y262907D01*
X233651Y267519D02*
X233277Y268099D01*
X232088Y269939D02*
X231747Y270468D01*
X230396Y272559D02*
X229794Y273492D01*
X238649Y259891D02*
X238307Y260420D01*
X237022Y262411D02*
X236615Y263041D01*
X233669Y267602D02*
X233294Y268182D01*
X232106Y270021D02*
X231764Y270551D01*
X230414Y272642D02*
X229779Y273625D01*
X238667Y259974D02*
X238325Y260503D01*
X237039Y262494D02*
X236632Y263124D01*
X233687Y267685D02*
X233312Y268265D01*
X232124Y270104D02*
X231782Y270634D01*
X230431Y272725D02*
X229764Y273759D01*
X238685Y260057D02*
X238343Y260586D01*
X237025Y262627D02*
X236650Y263207D01*
X233672Y267818D02*
X233330Y268348D01*
X232142Y270187D02*
X231833Y270666D01*
X230482Y272758D02*
X229749Y273892D01*
X238703Y260139D02*
X238328Y260719D01*
X237043Y262710D02*
X236668Y263290D01*
X233690Y267901D02*
X233315Y268481D01*
X232160Y270270D02*
X231851Y270749D01*
X230500Y272841D02*
X229735Y274025D01*
X238721Y260222D02*
X238346Y260802D01*
X237060Y262793D02*
X236653Y263423D01*
X233708Y267984D02*
X233333Y268564D01*
X232178Y270353D02*
X231868Y270832D01*
X230518Y272924D02*
X229720Y274159D01*
X238738Y260305D02*
X238364Y260885D01*
X237078Y262876D02*
X236671Y263506D01*
X233725Y268067D02*
X233351Y268647D01*
X232195Y270436D02*
X231886Y270915D01*
X230535Y273007D02*
X229705Y274292D01*
X238756Y260388D02*
X238382Y260968D01*
X237064Y263009D02*
X236689Y263589D01*
X233743Y268150D02*
X233369Y268730D01*
X232246Y270469D02*
X231904Y270998D01*
X230553Y273090D02*
X229691Y274425D01*
X238774Y260471D02*
X238400Y261051D01*
X237081Y263092D02*
X236674Y263722D01*
X233761Y268233D02*
X233387Y268813D01*
X232264Y270552D02*
X231922Y271081D01*
X230604Y273122D02*
X230294Y273601D01*
X230213Y273727D02*
X229676Y274559D01*
X238759Y260605D02*
X238418Y261134D01*
X237099Y263175D02*
X236692Y263805D01*
X233779Y268316D02*
X233405Y268896D01*
X232282Y270635D02*
X231940Y271164D01*
X230621Y273205D02*
X230312Y273684D01*
X230198Y273860D02*
X229694Y274642D01*
X238777Y260688D02*
X238403Y261267D01*
X237117Y263258D02*
X236678Y263939D01*
X233764Y268450D02*
X233422Y268979D01*
X232299Y270718D02*
X231990Y271196D01*
X230639Y273288D02*
X230330Y273767D01*
X230184Y273994D02*
X229679Y274775D01*
X238795Y260771D02*
X238421Y261350D01*
X237102Y263391D02*
X236695Y264021D01*
X233782Y268532D02*
X233440Y269062D01*
X232317Y270801D02*
X232008Y271279D01*
X230657Y273371D02*
X230348Y273850D01*
X230169Y274127D02*
X229664Y274908D01*
X238813Y260853D02*
X238439Y261433D01*
X237120Y263474D02*
X236713Y264104D01*
X233800Y268615D02*
X233458Y269145D01*
X232335Y270884D02*
X232026Y271362D01*
X230675Y273454D02*
X230366Y273933D01*
X230154Y274261D02*
X229682Y274991D01*
X238831Y260936D02*
X238456Y261516D01*
X237138Y263557D02*
X236699Y264238D01*
X233818Y268698D02*
X233476Y269228D01*
X232353Y270967D02*
X232044Y271445D01*
X230693Y273537D02*
X230416Y273965D01*
X230139Y274394D02*
X229667Y275125D01*
X238849Y261019D02*
X238442Y261649D01*
X237123Y263691D02*
X236716Y264321D01*
X233836Y268781D02*
X233494Y269311D01*
X232403Y270999D02*
X232062Y271528D01*
X230743Y273570D02*
X230434Y274048D01*
X230157Y274477D02*
X229685Y275208D01*
X238866Y261102D02*
X238460Y261732D01*
X237141Y263774D02*
X236734Y264404D01*
X233854Y268864D02*
X233512Y269394D01*
X232421Y271082D02*
X232079Y271611D01*
X230761Y273653D02*
X230452Y274131D01*
X230143Y274610D02*
X229671Y275341D01*
X238852Y261236D02*
X238477Y261815D01*
X237127Y263907D02*
X236720Y264537D01*
X233871Y268947D02*
X233530Y269476D01*
X232439Y271165D02*
X232130Y271644D01*
X230779Y273736D02*
X230470Y274214D01*
X230128Y274744D02*
X229656Y275474D01*
X238870Y261319D02*
X238495Y261898D01*
X237144Y263990D02*
X236737Y264620D01*
X233889Y269030D02*
X233547Y269559D01*
X232457Y271248D02*
X232148Y271727D01*
X230797Y273818D02*
X230520Y274247D01*
X230113Y274877D02*
X229674Y275557D01*
X238887Y261402D02*
X238513Y261981D01*
X237162Y264073D02*
X236723Y264753D01*
X233907Y269113D02*
X233565Y269642D01*
X232475Y271331D02*
X232166Y271810D01*
X230847Y273851D02*
X230538Y274330D01*
X230131Y274960D02*
X229659Y275691D01*
X238905Y261485D02*
X238498Y262115D01*
X237148Y264206D02*
X236741Y264836D01*
X233925Y269196D02*
X233583Y269725D01*
X232493Y271414D02*
X232183Y271893D01*
X230865Y273934D02*
X230556Y274413D01*
X230116Y275093D02*
X229677Y275774D01*
X238891Y261618D02*
X238516Y262198D01*
X237165Y264289D02*
X236758Y264919D01*
X233943Y269279D02*
X233601Y269808D01*
X232511Y271497D02*
X232201Y271976D01*
X230883Y274017D02*
X230574Y274496D01*
X230102Y275227D02*
X229662Y275907D01*
X238908Y261701D02*
X238534Y262281D01*
X237183Y264372D02*
X236744Y265053D01*
X233961Y269362D02*
X233619Y269891D01*
X232561Y271529D02*
X232252Y272008D01*
X230901Y274100D02*
X230624Y274528D01*
X230120Y275310D02*
X229680Y275990D01*
X238926Y261784D02*
X238552Y262363D01*
X237169Y264506D02*
X236762Y265136D01*
X233978Y269445D02*
X233637Y269974D01*
X232579Y271612D02*
X232270Y272091D01*
X230951Y274132D02*
X230642Y274611D01*
X230105Y275443D02*
X229665Y276123D01*
X238944Y261867D02*
X238537Y262497D01*
X237186Y264589D02*
X236747Y265269D01*
X233996Y269528D02*
X233655Y270057D01*
X232597Y271695D02*
X232287Y272174D01*
X230969Y274215D02*
X230660Y274694D01*
X230123Y275526D02*
X229683Y276206D01*
X238962Y261950D02*
X238555Y262580D01*
X237172Y264722D02*
X236765Y265352D01*
X234014Y269611D02*
X233672Y270140D01*
X232614Y271778D02*
X232305Y272257D01*
X230987Y274298D02*
X230678Y274777D01*
X230108Y275659D02*
X229669Y276340D01*
X238947Y262083D02*
X238573Y262663D01*
X237190Y264805D02*
X236750Y265485D01*
X234032Y269694D02*
X233690Y270223D01*
X232632Y271861D02*
X232323Y272340D01*
X231005Y274381D02*
X230728Y274810D01*
X230126Y275742D02*
X229686Y276423D01*
X238965Y262166D02*
X238558Y262796D01*
X237175Y264938D02*
X236768Y265568D01*
X234050Y269777D02*
X233708Y270306D01*
X232683Y271894D02*
X232373Y272373D01*
X231055Y274414D02*
X230746Y274893D01*
X230111Y275875D02*
X229704Y276506D01*
X238983Y262249D02*
X238576Y262879D01*
X237193Y265021D02*
X236753Y265702D01*
X234068Y269860D02*
X233726Y270389D01*
X232701Y271977D02*
X232391Y272455D01*
X231073Y274497D02*
X230764Y274976D01*
X230129Y275958D02*
X229722Y276588D01*
X239001Y262332D02*
X238594Y262962D01*
X237211Y265104D02*
X236771Y265785D01*
X234086Y269943D02*
X233744Y270472D01*
X232718Y272060D02*
X232409Y272538D01*
X231091Y274580D02*
X230814Y275008D01*
X230114Y276092D02*
X229707Y276722D01*
X238986Y262465D02*
X238579Y263095D01*
X237196Y265237D02*
X236756Y265918D01*
X234103Y270026D02*
X233762Y270555D01*
X232736Y272143D02*
X232427Y272621D01*
X231109Y274663D02*
X230832Y275091D01*
X230132Y276175D02*
X229725Y276805D01*
X239004Y262548D02*
X238597Y263178D01*
X237214Y265320D02*
X236742Y266051D01*
X234121Y270109D02*
X233779Y270638D01*
X232754Y272226D02*
X232445Y272704D01*
X231159Y274695D02*
X230882Y275124D01*
X230150Y276258D02*
X229743Y276888D01*
X239022Y262631D02*
X238615Y263261D01*
X237199Y265454D02*
X236760Y266134D01*
X234139Y270192D02*
X233797Y270721D01*
X232805Y272258D02*
X232495Y272737D01*
X231177Y274778D02*
X230900Y275207D01*
X230135Y276391D02*
X229761Y276971D01*
X239007Y262765D02*
X238600Y263395D01*
X237217Y265537D02*
X236745Y266268D01*
X234157Y270275D02*
X233815Y270804D01*
X232822Y272341D02*
X232513Y272820D01*
X231195Y274861D02*
X230951Y275239D01*
X230153Y276474D02*
X229746Y277104D01*
X239025Y262848D02*
X238618Y263478D01*
X237202Y265670D02*
X236763Y266350D01*
X234175Y270357D02*
X233866Y270836D01*
X232840Y272424D02*
X232531Y272903D01*
X231245Y274894D02*
X231001Y275272D01*
X230171Y276557D02*
X229764Y277187D01*
X239043Y262930D02*
X238636Y263561D01*
X237220Y265753D02*
X236748Y266484D01*
X234193Y270440D02*
X233883Y270919D01*
X232858Y272507D02*
X232549Y272986D01*
X231263Y274977D02*
X231019Y275355D01*
X230156Y276690D02*
X229782Y277270D01*
X239028Y263064D02*
X238621Y263694D01*
X237205Y265886D02*
X236766Y266567D01*
X234211Y270523D02*
X233901Y271002D01*
X232876Y272590D02*
X232599Y273018D01*
X231313Y275009D02*
X231069Y275387D01*
X230174Y276773D02*
X229800Y277353D01*
X239046Y263147D02*
X238639Y263777D01*
X237223Y265969D02*
X236751Y266700D01*
X234228Y270606D02*
X233919Y271085D01*
X232926Y272622D02*
X232617Y273101D01*
X231364Y275042D02*
X231120Y275420D01*
X230192Y276856D02*
X229818Y277436D01*
X239064Y263230D02*
X238657Y263860D01*
X237208Y266103D02*
X236736Y266833D01*
X234246Y270689D02*
X233937Y271168D01*
X232944Y272705D02*
X232635Y273184D01*
X231382Y275125D02*
X231138Y275503D01*
X230210Y276939D02*
X229836Y277519D01*
X239049Y263363D02*
X238642Y263993D01*
X237194Y266236D02*
X236754Y266916D01*
X234297Y270722D02*
X233955Y271251D01*
X232962Y272788D02*
X232653Y273267D01*
X231432Y275157D02*
X231188Y275535D01*
X230228Y277022D02*
X229853Y277602D01*
X239067Y263446D02*
X238660Y264076D01*
X237212Y266319D02*
X236740Y267050D01*
X234314Y270805D02*
X233973Y271334D01*
X232980Y272871D02*
X232703Y273300D01*
X231483Y275190D02*
X231238Y275568D01*
X230213Y277155D02*
X229871Y277685D01*
X239085Y263529D02*
X238645Y264209D01*
X237197Y266452D02*
X236725Y267183D01*
X234332Y270888D02*
X234023Y271367D01*
X233030Y272904D02*
X232721Y273383D01*
X231533Y275222D02*
X231289Y275600D01*
X230231Y277238D02*
X229889Y277768D01*
X239070Y263662D02*
X238663Y264292D01*
X237215Y266535D02*
X236743Y267266D01*
X234350Y270971D02*
X234041Y271450D01*
X233048Y272987D02*
X232739Y273466D01*
X231583Y275255D02*
X231339Y275633D01*
X230249Y277321D02*
X229907Y277851D01*
X239088Y263745D02*
X238649Y264426D01*
X237200Y266669D02*
X236728Y267400D01*
X234368Y271054D02*
X234059Y271532D01*
X233066Y273070D02*
X232789Y273498D01*
X231601Y275338D02*
X231390Y275665D01*
X230267Y277404D02*
X229925Y277934D01*
X239073Y263879D02*
X238666Y264509D01*
X237185Y266802D02*
X236713Y267533D01*
X234386Y271137D02*
X234077Y271615D01*
X233084Y273153D02*
X232807Y273581D01*
X231652Y275370D02*
X231440Y275698D01*
X230284Y277487D02*
X229943Y278017D01*
X239091Y263962D02*
X238652Y264642D01*
X237203Y266885D02*
X236731Y267616D01*
X234404Y271220D02*
X234127Y271648D01*
X233134Y273185D02*
X232825Y273664D01*
X231702Y275403D02*
X231490Y275731D01*
X230302Y277570D02*
X229960Y278099D01*
X239109Y264045D02*
X238670Y264725D01*
X237189Y267018D02*
X236716Y267749D01*
X234454Y271252D02*
X234177Y271681D01*
X233152Y273268D02*
X232843Y273747D01*
X231752Y275436D02*
X231541Y275763D01*
X230320Y277653D02*
X229978Y278182D01*
X239094Y264178D02*
X238655Y264858D01*
X237174Y267152D02*
X236702Y267883D01*
X234472Y271335D02*
X234293Y271612D01*
X233170Y273351D02*
X232893Y273780D01*
X231803Y275468D02*
X231591Y275796D01*
X230338Y277736D02*
X229996Y278265D01*
X239112Y264261D02*
X238673Y264941D01*
X237192Y267235D02*
X236687Y268016D01*
X234490Y271418D02*
X234376Y271594D01*
X233220Y273384D02*
X232911Y273863D01*
X231886Y275450D02*
X231642Y275828D01*
X230356Y277819D02*
X230014Y278348D01*
X239097Y264394D02*
X238658Y265075D01*
X237177Y267368D02*
X236705Y268099D01*
X234508Y271501D02*
X234459Y271577D01*
X233238Y273467D02*
X232962Y273895D01*
X231936Y275483D02*
X231692Y275861D01*
X230374Y277902D02*
X230064Y278381D01*
X239115Y264477D02*
X238676Y265158D01*
X237162Y267501D02*
X236690Y268232D01*
X233256Y273550D02*
X233077Y273827D01*
X231987Y275515D02*
X231742Y275893D01*
X230392Y277985D02*
X230082Y278464D01*
X239101Y264611D02*
X238661Y265291D01*
X237180Y267584D02*
X236676Y268366D01*
X233274Y273633D02*
X233160Y273809D01*
X232037Y275548D02*
X231793Y275926D01*
X230409Y278068D02*
X230100Y278547D01*
X239118Y264694D02*
X238679Y265374D01*
X237165Y267718D02*
X236661Y268499D01*
X233324Y273665D02*
X233243Y273791D01*
X232120Y275530D02*
X231876Y275908D01*
X230427Y278151D02*
X230118Y278630D01*
X239104Y264827D02*
X238664Y265507D01*
X237151Y267851D02*
X236646Y268632D01*
X232170Y275563D02*
X231926Y275941D01*
X230445Y278234D02*
X230136Y278713D01*
X239122Y264910D02*
X238650Y265641D01*
X237136Y267984D02*
X236631Y268766D01*
X232253Y275545D02*
X231977Y275973D01*
X230495Y278266D02*
X230154Y278796D01*
X239107Y265043D02*
X238667Y265724D01*
X237154Y268067D02*
X236649Y268849D01*
X232304Y275577D02*
X232059Y275955D01*
X230513Y278349D02*
X230204Y278828D01*
X239125Y265126D02*
X238653Y265857D01*
X237139Y268201D02*
X236635Y268982D01*
X232387Y275559D02*
X232110Y275988D01*
X230531Y278432D02*
X230222Y278911D01*
X239110Y265259D02*
X238638Y265990D01*
X237124Y268334D02*
X236620Y269115D01*
X234553Y272316D02*
X234537Y272341D01*
X232437Y275592D02*
X232160Y276020D01*
X230549Y278515D02*
X230240Y278994D01*
X239128Y265342D02*
X238656Y266073D01*
X237110Y268467D02*
X236605Y269249D01*
X234636Y272298D02*
X234554Y272424D01*
X232520Y275574D02*
X232243Y276003D01*
X230567Y278598D02*
X230290Y279027D01*
X239113Y265476D02*
X238641Y266207D01*
X237095Y268601D02*
X236590Y269382D01*
X234719Y272280D02*
X234540Y272557D01*
X232603Y275556D02*
X232294Y276035D01*
X230617Y278631D02*
X230308Y279110D01*
X239099Y265609D02*
X238627Y266340D01*
X237113Y268684D02*
X236576Y269515D01*
X234769Y272313D02*
X234525Y272691D01*
X232653Y275589D02*
X232377Y276017D01*
X230635Y278714D02*
X230326Y279193D01*
X239116Y265692D02*
X238644Y266423D01*
X237098Y268817D02*
X236561Y269649D01*
X234852Y272295D02*
X234543Y272774D01*
X232736Y275571D02*
X232460Y275999D01*
X230653Y278797D02*
X230376Y279225D01*
X239102Y265825D02*
X238630Y266556D01*
X237083Y268950D02*
X236546Y269782D01*
X234935Y272277D02*
X234528Y272907D01*
X232819Y275553D02*
X232510Y276032D01*
X230671Y278880D02*
X230394Y279308D01*
X239087Y265959D02*
X238615Y266690D01*
X237069Y269084D02*
X236532Y269915D01*
X234985Y272310D02*
X234546Y272990D01*
X232870Y275586D02*
X232593Y276014D01*
X230721Y278912D02*
X230412Y279391D01*
X239105Y266042D02*
X238600Y266823D01*
X237054Y269217D02*
X236517Y270049D01*
X235068Y272292D02*
X234531Y273123D01*
X232953Y275568D02*
X232643Y276047D01*
X230739Y278995D02*
X230462Y279424D01*
X239090Y266175D02*
X238586Y266956D01*
X237039Y269350D02*
X236502Y270182D01*
X235151Y272274D02*
X234549Y273206D01*
X233036Y275550D02*
X232596Y276230D01*
X230757Y279078D02*
X230480Y279507D01*
X239075Y266308D02*
X238603Y267039D01*
X237025Y269484D02*
X236488Y270315D01*
X235202Y272306D02*
X234534Y273340D01*
X233086Y275583D02*
X232516Y276465D01*
X230807Y279111D02*
X230531Y279539D01*
X239093Y266391D02*
X238589Y267173D01*
X237010Y269617D02*
X236473Y270449D01*
X235285Y272289D02*
X234520Y273473D01*
X233169Y275565D02*
X232469Y276648D01*
X230825Y279194D02*
X230548Y279622D01*
X239079Y266525D02*
X238574Y267306D01*
X236995Y269751D02*
X236458Y270582D01*
X235303Y272371D02*
X234538Y273556D01*
X233252Y275547D02*
X232422Y276832D01*
X230876Y279226D02*
X230599Y279655D01*
X239064Y266658D02*
X238559Y267439D01*
X236981Y269884D02*
X236443Y270716D01*
X235288Y272505D02*
X234523Y273689D01*
X233302Y275579D02*
X232375Y277016D01*
X230893Y279309D02*
X230617Y279738D01*
X239049Y266792D02*
X238545Y267573D01*
X236966Y270017D02*
X236429Y270849D01*
X235306Y272588D02*
X234541Y273772D01*
X233385Y275562D02*
X232327Y277200D01*
X230911Y279392D02*
X230667Y279770D01*
X239067Y266874D02*
X238530Y267706D01*
X236951Y270151D02*
X236382Y271033D01*
X235291Y272721D02*
X234526Y273906D01*
X233468Y275544D02*
X232280Y277383D01*
X230962Y279425D02*
X230685Y279853D01*
X239052Y267008D02*
X238515Y267839D01*
X236936Y270284D02*
X236367Y271166D01*
X235309Y272804D02*
X234544Y273989D01*
X233519Y275576D02*
X232265Y277517D01*
X230980Y279508D02*
X230735Y279886D01*
X239038Y267141D02*
X238501Y267973D01*
X236922Y270417D02*
X236352Y271299D01*
X235327Y272887D02*
X234529Y274122D01*
X233602Y275558D02*
X233325Y275987D01*
X233276Y276062D02*
X232218Y277700D01*
X231030Y279540D02*
X230753Y279969D01*
X239023Y267275D02*
X238486Y268106D01*
X236907Y270551D02*
X236337Y271433D01*
X235312Y273020D02*
X234515Y274255D01*
X233684Y275541D02*
X233375Y276019D01*
X233196Y276297D02*
X232203Y277834D01*
X231048Y279623D02*
X230804Y280001D01*
X239008Y267408D02*
X238471Y268240D01*
X236892Y270684D02*
X236290Y271616D01*
X235330Y273103D02*
X234532Y274338D01*
X233735Y275573D02*
X233458Y276001D01*
X233149Y276480D02*
X232156Y278018D01*
X231098Y279656D02*
X230854Y280034D01*
X238994Y267541D02*
X238456Y268373D01*
X236878Y270817D02*
X236275Y271750D01*
X235315Y273237D02*
X234518Y274472D01*
X233818Y275555D02*
X233541Y275984D01*
X233069Y276714D02*
X232141Y278151D01*
X231149Y279688D02*
X230872Y280117D01*
X239011Y267624D02*
X238442Y268506D01*
X236863Y270951D02*
X236261Y271883D01*
X235333Y273320D02*
X234536Y274555D01*
X233901Y275537D02*
X233592Y276016D01*
X233022Y276898D02*
X232127Y278284D01*
X231166Y279771D02*
X230922Y280149D01*
X238997Y267758D02*
X238427Y268640D01*
X236848Y271084D02*
X236246Y272017D01*
X235318Y273453D02*
X234521Y274688D01*
X233951Y275570D02*
X233674Y275998D01*
X232975Y277082D02*
X232079Y278468D01*
X231217Y279804D02*
X230940Y280232D01*
X238949Y267941D02*
X238380Y268823D01*
X236801Y271268D02*
X236231Y272150D01*
X235336Y273536D02*
X234539Y274771D01*
X234034Y275552D02*
X233757Y275980D01*
X232927Y277266D02*
X232065Y278601D01*
X231235Y279887D02*
X230991Y280265D01*
X238935Y268075D02*
X238365Y268957D01*
X236786Y271401D02*
X236184Y272334D01*
X235321Y273669D02*
X234524Y274904D01*
X234117Y275534D02*
X233808Y276013D01*
X232880Y277450D02*
X232050Y278735D01*
X231285Y279919D02*
X231041Y280297D01*
X238920Y268208D02*
X238318Y269140D01*
X236772Y271535D02*
X236169Y272467D01*
X235339Y273752D02*
X234509Y275038D01*
X234167Y275567D02*
X233891Y275995D01*
X232865Y277583D02*
X232035Y278868D01*
X231336Y279952D02*
X231059Y280380D01*
X238905Y268341D02*
X238303Y269274D01*
X236757Y271668D02*
X236155Y272600D01*
X235357Y273835D02*
X234527Y275121D01*
X234250Y275549D02*
X233974Y275977D01*
X232818Y277767D02*
X232021Y279001D01*
X231353Y280035D02*
X231109Y280413D01*
X238891Y268475D02*
X238256Y269458D01*
X236710Y271852D02*
X236107Y272784D01*
X235342Y273969D02*
X234512Y275254D01*
X234333Y275531D02*
X234024Y276010D01*
X232803Y277900D02*
X231973Y279185D01*
X231404Y280067D02*
X231160Y280445D01*
X238876Y268608D02*
X238241Y269591D01*
X236695Y271985D02*
X236093Y272918D01*
X235360Y274052D02*
X234530Y275337D01*
X234384Y275564D02*
X234107Y275992D01*
X232756Y278084D02*
X231959Y279319D01*
X231454Y280100D02*
X231210Y280478D01*
X238861Y268741D02*
X238194Y269775D01*
X236680Y272118D02*
X236078Y273051D01*
X235346Y274185D02*
X234516Y275470D01*
X234467Y275546D02*
X234190Y275974D01*
X232742Y278217D02*
X231944Y279452D01*
X231472Y280183D02*
X231228Y280561D01*
X238847Y268875D02*
X238147Y269958D01*
X236666Y272252D02*
X236031Y273235D01*
X235363Y274268D02*
X234240Y276007D01*
X232694Y278401D02*
X231929Y279585D01*
X231522Y280215D02*
X231278Y280593D01*
X238799Y269059D02*
X238099Y270142D01*
X236651Y272385D02*
X236016Y273368D01*
X235349Y274401D02*
X234323Y275989D01*
X232680Y278534D02*
X231947Y279668D01*
X231573Y280248D02*
X231329Y280626D01*
X238785Y269192D02*
X238052Y270326D01*
X236604Y272569D02*
X236001Y273501D01*
X235367Y274484D02*
X234406Y275971D01*
X232665Y278668D02*
X231932Y279802D01*
X231591Y280331D02*
X231379Y280658D01*
X238737Y269376D02*
X238005Y270510D01*
X236589Y272702D02*
X235954Y273685D01*
X235352Y274618D02*
X234457Y276004D01*
X232650Y278801D02*
X231918Y279935D01*
X231641Y280363D02*
X231397Y280741D01*
X238723Y269509D02*
X237958Y270693D01*
X236574Y272836D02*
X235939Y273818D01*
X235370Y274700D02*
X234507Y276036D01*
X232603Y278985D02*
X231903Y280068D01*
X231691Y280396D02*
X231447Y280774D01*
X238675Y269693D02*
X237878Y270928D01*
X236527Y273019D02*
X235925Y273952D01*
X235388Y274783D02*
X234525Y276119D01*
X232588Y279118D02*
X231888Y280202D01*
X231742Y280428D02*
X231498Y280807D01*
X238661Y269826D02*
X237765Y271212D01*
X236512Y273153D02*
X235975Y273984D01*
X235373Y274917D02*
X234510Y276252D01*
X232574Y279251D02*
X231874Y280335D01*
X231792Y280461D02*
X231548Y280839D01*
X238613Y270010D02*
X237686Y271446D01*
X236465Y273336D02*
X236026Y274017D01*
X235391Y275000D02*
X234528Y276335D01*
X232559Y279385D02*
X231599Y280872D01*
X238534Y270244D02*
X237671Y271580D01*
X236450Y273470D02*
X236109Y273999D01*
X235376Y275133D02*
X234513Y276469D01*
X232544Y279518D02*
X231649Y280904D01*
X238486Y270428D02*
X237721Y271612D01*
X236436Y273603D02*
X236159Y274032D01*
X235394Y275216D02*
X234499Y276602D01*
X232529Y279651D02*
X231699Y280937D01*
X238439Y270612D02*
X237772Y271645D01*
X236388Y273787D02*
X236209Y274064D01*
X235379Y275349D02*
X234517Y276685D01*
X232515Y279785D02*
X231750Y280969D01*
X238392Y270795D02*
X237822Y271677D01*
X236374Y273920D02*
X236292Y274046D01*
X235397Y275432D02*
X234502Y276818D01*
X232500Y279918D02*
X231768Y281052D01*
X238312Y271030D02*
X237873Y271710D01*
X235415Y275515D02*
X234520Y276901D01*
X232485Y280052D02*
X231818Y281085D01*
X238232Y271264D02*
X237923Y271742D01*
X235465Y275548D02*
X234505Y277035D01*
X232471Y280185D02*
X231836Y281168D01*
X238120Y271548D02*
X238006Y271725D01*
X235548Y275530D02*
X234523Y277118D01*
X232488Y280268D02*
X231821Y281301D01*
X235631Y275512D02*
X234508Y277251D01*
X232474Y280401D02*
X231806Y281434D01*
X235682Y275545D02*
X234494Y277384D01*
X232459Y280535D02*
X231824Y281517D01*
X235765Y275527D02*
X235488Y275955D01*
X235407Y276081D02*
X234511Y277467D01*
X232444Y280668D02*
X231810Y281651D01*
X235848Y275509D02*
X235538Y275988D01*
X235424Y276164D02*
X234497Y277601D01*
X232430Y280801D02*
X231795Y281784D01*
X235898Y275542D02*
X235621Y275970D01*
X235410Y276298D02*
X234515Y277684D01*
X232448Y280884D02*
X231813Y281867D01*
X235981Y275524D02*
X235704Y275952D01*
X235428Y276381D02*
X234500Y277817D01*
X232433Y281018D02*
X231798Y282000D01*
X236064Y275506D02*
X235755Y275985D01*
X235413Y276514D02*
X234518Y277900D01*
X232418Y281151D02*
X231816Y282083D01*
X236114Y275538D02*
X235838Y275967D01*
X235431Y276597D02*
X234503Y278033D01*
X232403Y281284D02*
X231801Y282217D01*
X236197Y275521D02*
X235921Y275949D01*
X235449Y276680D02*
X234488Y278167D01*
X232421Y281367D02*
X231787Y282350D01*
X236280Y275503D02*
X235971Y275982D01*
X235434Y276813D02*
X234506Y278250D01*
X232407Y281501D02*
X231804Y282433D01*
X236331Y275535D02*
X236054Y275964D01*
X235452Y276896D02*
X234491Y278383D01*
X232392Y281634D02*
X231790Y282566D01*
X236414Y275517D02*
X236137Y275946D01*
X235437Y277030D02*
X234509Y278466D01*
X232410Y281717D02*
X231775Y282700D01*
X236497Y275500D02*
X236187Y275978D01*
X235455Y277112D02*
X234495Y278599D01*
X232395Y281850D02*
X231793Y282783D01*
X236547Y275532D02*
X236270Y275961D01*
X235440Y277246D02*
X234512Y278682D01*
X232380Y281984D02*
X231778Y282916D01*
X236630Y275514D02*
X236353Y275943D01*
X235458Y277329D02*
X234498Y278816D01*
X232398Y282067D02*
X231796Y282999D01*
X236713Y275496D02*
X236404Y275975D01*
X235443Y277462D02*
X234483Y278949D01*
X232383Y282200D02*
X231781Y283132D01*
X236763Y275529D02*
X236487Y275957D01*
X235461Y277545D02*
X234501Y279032D01*
X232401Y282283D02*
X231799Y283215D01*
X236846Y275511D02*
X236569Y275940D01*
X235479Y277628D02*
X234486Y279165D01*
X232387Y282416D02*
X231784Y283349D01*
X236929Y275493D02*
X236620Y275972D01*
X235464Y277761D02*
X234504Y279248D01*
X232372Y282550D02*
X231802Y283432D01*
X236980Y275526D02*
X236638Y276055D01*
X235482Y277844D02*
X234489Y279382D01*
X232390Y282633D02*
X231820Y283515D01*
X237062Y275508D02*
X236688Y276088D01*
X235467Y277978D02*
X234507Y279465D01*
X232375Y282766D02*
X231805Y283648D01*
X237145Y275490D02*
X236706Y276171D01*
X235485Y278061D02*
X234492Y279598D01*
X232393Y282849D02*
X231823Y283731D01*
X237196Y275523D02*
X236724Y276253D01*
X235471Y278194D02*
X234478Y279731D01*
X232411Y282932D02*
X231809Y283864D01*
X237279Y275505D02*
X236742Y276336D01*
X235488Y278277D02*
X234496Y279814D01*
X232461Y282964D02*
X231826Y283947D01*
X237362Y275487D02*
X236792Y276369D01*
X235474Y278410D02*
X234481Y279948D01*
X232512Y282997D02*
X231812Y284081D01*
X239463Y272344D02*
X239447Y272369D01*
X237412Y275520D02*
X236810Y276452D01*
X235492Y278493D02*
X234499Y280031D01*
X232562Y283029D02*
X231830Y284164D01*
X239546Y272326D02*
X239399Y272553D01*
X237495Y275502D02*
X236828Y276535D01*
X235509Y278576D02*
X234484Y280164D01*
X232612Y283062D02*
X231815Y284297D01*
X239629Y272308D02*
X239320Y272787D01*
X237545Y275534D02*
X236846Y276618D01*
X235495Y278710D02*
X234502Y280247D01*
X232663Y283095D02*
X231833Y284380D01*
X239679Y272341D02*
X239272Y272971D01*
X237628Y275516D02*
X237352Y275945D01*
X237303Y276020D02*
X236863Y276701D01*
X235513Y278793D02*
X234487Y280380D01*
X232713Y283127D02*
X231851Y284463D01*
X239762Y272323D02*
X239225Y273155D01*
X237711Y275499D02*
X237435Y275927D01*
X237321Y276103D02*
X236881Y276784D01*
X235498Y278926D02*
X234473Y280514D01*
X232796Y283109D02*
X231836Y284596D01*
X239813Y272356D02*
X239145Y273389D01*
X237794Y275481D02*
X237485Y275959D01*
X237339Y276186D02*
X236932Y276816D01*
X235516Y279009D02*
X234490Y280597D01*
X232847Y283142D02*
X231854Y284679D01*
X239896Y272338D02*
X239098Y273573D01*
X237910Y275412D02*
X237568Y275942D01*
X237357Y276269D02*
X236950Y276899D01*
X235501Y279142D02*
X234476Y280730D01*
X232897Y283174D02*
X231839Y284812D01*
X239913Y272421D02*
X239018Y273807D01*
X237993Y275395D02*
X237618Y275974D01*
X237374Y276352D02*
X236967Y276982D01*
X235519Y279225D02*
X234494Y280813D01*
X232947Y283207D02*
X231857Y284895D01*
X239931Y272504D02*
X238938Y274041D01*
X238108Y275326D02*
X237701Y275956D01*
X237392Y276435D02*
X236985Y277065D01*
X235504Y279359D02*
X234479Y280946D01*
X233030Y283189D02*
X231875Y284978D01*
X239949Y272587D02*
X238859Y274275D01*
X238224Y275258D02*
X237784Y275938D01*
X237443Y276468D02*
X237003Y277148D01*
X235522Y279441D02*
X234497Y281029D01*
X233081Y283222D02*
X231893Y285061D01*
X239967Y272670D02*
X238779Y274509D01*
X238372Y275139D02*
X237867Y275921D01*
X237460Y276551D02*
X237021Y277231D01*
X235540Y279524D02*
X234482Y281163D01*
X233131Y283254D02*
X231878Y285195D01*
X239952Y272803D02*
X237950Y275903D01*
X237478Y276634D02*
X237039Y277314D01*
X235525Y279658D02*
X234467Y281296D01*
X233214Y283236D02*
X231896Y285278D01*
X239970Y272886D02*
X238066Y275835D01*
X237496Y276717D02*
X237057Y277397D01*
X235543Y279741D02*
X234485Y281379D01*
X233264Y283269D02*
X231914Y285361D01*
X239988Y272969D02*
X239646Y273498D01*
X239532Y273675D02*
X238149Y275817D01*
X237514Y276800D02*
X237075Y277480D01*
X235528Y279874D02*
X234470Y281512D01*
X233315Y283301D02*
X231899Y285494D01*
X240006Y273052D02*
X239631Y273632D01*
X239452Y273909D02*
X238232Y275799D01*
X237564Y276832D02*
X237092Y277563D01*
X235546Y279957D02*
X234488Y281595D01*
X233365Y283334D02*
X231917Y285577D01*
X240024Y273135D02*
X239649Y273715D01*
X239373Y274143D02*
X238347Y275731D01*
X237582Y276915D02*
X237110Y277646D01*
X235532Y280090D02*
X234539Y281628D01*
X233448Y283316D02*
X231935Y285660D01*
X240041Y273218D02*
X239667Y273797D01*
X239293Y274377D02*
X238495Y275612D01*
X237600Y276998D02*
X237161Y277678D01*
X235549Y280173D02*
X234589Y281660D01*
X233499Y283349D02*
X231920Y285793D01*
X240059Y273301D02*
X239685Y273880D01*
X239213Y274611D02*
X238643Y275493D01*
X237618Y277081D02*
X237179Y277761D01*
X235535Y280307D02*
X234672Y281642D01*
X233549Y283381D02*
X231938Y285876D01*
X240077Y273384D02*
X239703Y273963D01*
X239101Y274896D02*
X238856Y275274D01*
X237636Y277164D02*
X237196Y277844D01*
X235553Y280390D02*
X234755Y281624D01*
X233632Y283363D02*
X231956Y285959D01*
X240095Y273467D02*
X239721Y274046D01*
X237654Y277247D02*
X237214Y277927D01*
X235570Y280473D02*
X234805Y281657D01*
X233682Y283396D02*
X231973Y286042D01*
X240080Y273600D02*
X239706Y274180D01*
X237672Y277330D02*
X237232Y278010D01*
X235556Y280606D02*
X234888Y281639D01*
X233765Y283378D02*
X231959Y286175D01*
X240098Y273683D02*
X239724Y274263D01*
X237689Y277413D02*
X237250Y278093D01*
X235574Y280689D02*
X234971Y281621D01*
X233816Y283411D02*
X231977Y286258D01*
X240116Y273766D02*
X239742Y274346D01*
X237707Y277496D02*
X237268Y278176D01*
X235559Y280822D02*
X235022Y281654D01*
X233899Y283393D02*
X231994Y286341D01*
X240134Y273849D02*
X239727Y274479D01*
X237725Y277579D02*
X237286Y278259D01*
X235577Y280905D02*
X235105Y281636D01*
X233949Y283425D02*
X231980Y286475D01*
X240152Y273932D02*
X239745Y274562D01*
X237743Y277662D02*
X237271Y278392D01*
X235562Y281039D02*
X235188Y281618D01*
X234032Y283407D02*
X231998Y286558D01*
X240137Y274065D02*
X239763Y274645D01*
X237761Y277745D02*
X237289Y278475D01*
X235580Y281122D02*
X235238Y281651D01*
X234082Y283440D02*
X232015Y286641D01*
X240155Y274148D02*
X239781Y274728D01*
X237779Y277828D02*
X237307Y278558D01*
X235565Y281255D02*
X235321Y281633D01*
X234165Y283422D02*
X232033Y286724D01*
X240173Y274231D02*
X239766Y274861D01*
X237796Y277910D02*
X237324Y278641D01*
X235583Y281338D02*
X235404Y281615D01*
X234216Y283455D02*
X232051Y286807D01*
X240191Y274314D02*
X239784Y274944D01*
X237814Y277993D02*
X237342Y278724D01*
X235601Y281421D02*
X235454Y281648D01*
X234299Y283437D02*
X232069Y286889D01*
X240208Y274397D02*
X239769Y275077D01*
X237832Y278076D02*
X237360Y278807D01*
X235586Y281554D02*
X235537Y281630D01*
X234349Y283469D02*
X232054Y287023D01*
X240194Y274530D02*
X239787Y275160D01*
X237850Y278159D02*
X237378Y278890D01*
X234432Y283452D02*
X232072Y287106D01*
X240212Y274613D02*
X239805Y275243D01*
X237868Y278242D02*
X237396Y278973D01*
X234482Y283484D02*
X232090Y287189D01*
X240197Y274747D02*
X239790Y275377D01*
X237886Y278325D02*
X237414Y279056D01*
X234565Y283466D02*
X232108Y287272D01*
X240215Y274830D02*
X239808Y275460D01*
X237904Y278408D02*
X237432Y279139D01*
X234616Y283499D02*
X232126Y287355D01*
X240233Y274913D02*
X239793Y275593D01*
X237921Y278491D02*
X237449Y279222D01*
X234699Y283481D02*
X232144Y287438D01*
X240218Y275046D02*
X239811Y275676D01*
X237939Y278574D02*
X237435Y279355D01*
X234782Y283463D02*
X232129Y287571D01*
X240236Y275129D02*
X239796Y275809D01*
X237957Y278657D02*
X237453Y279438D01*
X234832Y283496D02*
X232147Y287654D01*
X240221Y275262D02*
X239782Y275943D01*
X237942Y278790D02*
X237470Y279521D01*
X234915Y283478D02*
X232165Y287737D01*
X240239Y275345D02*
X239799Y276026D01*
X237960Y278873D02*
X237488Y279604D01*
X234966Y283510D02*
X232182Y287820D01*
X240257Y275428D02*
X239785Y276159D01*
X237978Y278956D02*
X237506Y279687D01*
X235048Y283493D02*
X232200Y287903D01*
X240242Y275562D02*
X239770Y276292D01*
X237996Y279039D02*
X237524Y279770D01*
X235131Y283475D02*
X232218Y287986D01*
X240260Y275644D02*
X239788Y276375D01*
X238014Y279122D02*
X237509Y279903D01*
X235182Y283507D02*
X232203Y288119D01*
X240245Y275778D02*
X239773Y276509D01*
X238032Y279205D02*
X237527Y279986D01*
X235265Y283489D02*
X232221Y288202D01*
X240263Y275861D02*
X239758Y276642D01*
X238050Y279288D02*
X237545Y280069D01*
X235348Y283472D02*
X232239Y288285D01*
X240248Y275994D02*
X239744Y276775D01*
X238067Y279371D02*
X237563Y280152D01*
X235431Y283454D02*
X232257Y288368D01*
X240234Y276127D02*
X239729Y276909D01*
X238053Y279504D02*
X237548Y280286D01*
X235514Y283436D02*
X232275Y288451D01*
X240251Y276210D02*
X239714Y277042D01*
X238071Y279587D02*
X237566Y280369D01*
X235564Y283468D02*
X232293Y288534D01*
X240237Y276344D02*
X239700Y277175D01*
X238088Y279670D02*
X237584Y280452D01*
X235647Y283451D02*
X232864Y287760D01*
X232782Y287886D02*
X232310Y288617D01*
X240222Y276477D02*
X239685Y277309D01*
X238106Y279753D02*
X237602Y280535D01*
X235730Y283433D02*
X232914Y287793D01*
X232800Y287969D02*
X232328Y288700D01*
X240207Y276611D02*
X239638Y277493D01*
X238124Y279836D02*
X237587Y280668D01*
X235813Y283415D02*
X232965Y287825D01*
X232818Y288052D02*
X232346Y288783D01*
X240225Y276693D02*
X239623Y277626D01*
X238109Y279970D02*
X237605Y280751D01*
X235863Y283447D02*
X233015Y287858D01*
X232836Y288135D02*
X232364Y288866D01*
X240211Y276827D02*
X239608Y277759D01*
X238127Y280053D02*
X237623Y280834D01*
X235946Y283430D02*
X233098Y287840D01*
X232854Y288218D02*
X232382Y288949D01*
X240196Y276960D02*
X239561Y277943D01*
X238145Y280136D02*
X237641Y280917D01*
X236029Y283412D02*
X233148Y287872D01*
X232872Y288301D02*
X232400Y289032D01*
X240181Y277094D02*
X239514Y278127D01*
X238163Y280218D02*
X237626Y281050D01*
X236112Y283394D02*
X233199Y287905D01*
X232890Y288384D02*
X232418Y289115D01*
X240134Y277277D02*
X239434Y278361D01*
X238181Y280301D02*
X237644Y281133D01*
X236195Y283376D02*
X233249Y287937D01*
X232907Y288467D02*
X232435Y289197D01*
X240119Y277411D02*
X239354Y278595D01*
X238166Y280435D02*
X237629Y281266D01*
X236278Y283358D02*
X233332Y287920D01*
X232925Y288550D02*
X232453Y289280D01*
X240104Y277544D02*
X239274Y278829D01*
X238314Y280316D02*
X237647Y281349D01*
X236361Y283340D02*
X233383Y287952D01*
X232943Y288633D02*
X232471Y289363D01*
X240057Y277728D02*
X239097Y279215D01*
X238560Y280046D02*
X237665Y281432D01*
X236444Y283322D02*
X233433Y287985D01*
X232961Y288715D02*
X232489Y289446D01*
X240043Y277861D02*
X237650Y281566D01*
X236527Y283305D02*
X233516Y287967D01*
X232979Y288798D02*
X232507Y289529D01*
X239995Y278045D02*
X237668Y281649D01*
X236610Y283287D02*
X233566Y287999D01*
X232964Y288932D02*
X232525Y289612D01*
X239948Y278229D02*
X237686Y281732D01*
X236725Y283218D02*
X233649Y287982D01*
X232982Y289015D02*
X232543Y289695D01*
X239901Y278412D02*
X237671Y281865D01*
X236808Y283201D02*
X233700Y288014D01*
X233000Y289098D02*
X232560Y289778D01*
X239821Y278647D02*
X238405Y280839D01*
X238226Y281116D02*
X237689Y281948D01*
X236891Y283183D02*
X233750Y288047D01*
X233018Y289181D02*
X232578Y289861D01*
X239741Y278881D02*
X238553Y280720D01*
X238244Y281199D02*
X237674Y282081D01*
X237007Y283115D02*
X233833Y288029D01*
X233036Y289264D02*
X232596Y289944D01*
X239629Y279165D02*
X238799Y280451D01*
X238229Y281333D02*
X237692Y282164D01*
X237090Y283097D02*
X233883Y288061D01*
X233053Y289347D02*
X232614Y290027D01*
X238247Y281416D02*
X237710Y282247D01*
X237205Y283028D02*
X233966Y288043D01*
X233071Y289430D02*
X232632Y290110D01*
X238265Y281498D02*
X237695Y282381D01*
X237288Y283011D02*
X234017Y288076D01*
X233089Y289512D02*
X232650Y290193D01*
X238250Y281632D02*
X237713Y282463D01*
X237404Y282942D02*
X234100Y288058D01*
X233107Y289595D02*
X232667Y290276D01*
X238268Y281715D02*
X237698Y282597D01*
X237519Y282874D02*
X234150Y288091D01*
X233125Y289678D02*
X232685Y290359D01*
X238253Y281848D02*
X237716Y282680D01*
X237667Y282755D02*
X234233Y288073D01*
X233143Y289761D02*
X232736Y290391D01*
X238271Y281931D02*
X234284Y288105D01*
X233161Y289844D02*
X232754Y290474D01*
X238289Y282014D02*
X234366Y288088D01*
X233178Y289927D02*
X232771Y290557D01*
X238274Y282147D02*
X234417Y288120D01*
X233229Y289960D02*
X232789Y290640D01*
X238292Y282230D02*
X234500Y288102D01*
X233247Y290043D02*
X232807Y290723D01*
X238277Y282364D02*
X234550Y288135D01*
X233264Y290126D02*
X232825Y290806D01*
X238295Y282447D02*
X234633Y288117D01*
X233282Y290209D02*
X232843Y290889D01*
X238313Y282530D02*
X234684Y288150D01*
X233300Y290292D02*
X232861Y290972D01*
X238298Y282663D02*
X234767Y288132D01*
X233318Y290375D02*
X232879Y291055D01*
X238316Y282746D02*
X234849Y288114D01*
X233336Y290458D02*
X232896Y291138D01*
X238302Y282879D02*
X234900Y288146D01*
X233354Y290540D02*
X232947Y291171D01*
X238319Y282962D02*
X234983Y288129D01*
X233372Y290623D02*
X232965Y291253D01*
X238305Y283096D02*
X235033Y288161D01*
X233389Y290706D02*
X232982Y291336D01*
X238323Y283179D02*
X235116Y288143D01*
X233440Y290739D02*
X233000Y291419D01*
X238308Y283312D02*
X235199Y288125D01*
X233458Y290822D02*
X233018Y291502D01*
X238293Y283445D02*
X235250Y288158D01*
X233476Y290905D02*
X233069Y291535D01*
X238311Y283528D02*
X235333Y288140D01*
X233493Y290988D02*
X233086Y291618D01*
X238296Y283662D02*
X235415Y288122D01*
X233511Y291071D02*
X233104Y291701D01*
X238314Y283745D02*
X235498Y288104D01*
X233562Y291103D02*
X233122Y291784D01*
X238299Y283878D02*
X235549Y288137D01*
X233579Y291186D02*
X233173Y291816D01*
X238317Y283961D02*
X235632Y288119D01*
X233597Y291269D02*
X233190Y291899D01*
X238303Y284094D02*
X235715Y288101D01*
X233615Y291352D02*
X233208Y291982D01*
X238288Y284228D02*
X235798Y288083D01*
X233633Y291435D02*
X233259Y292015D01*
X238306Y284311D02*
X235848Y288116D01*
X233683Y291468D02*
X233277Y292098D01*
X238291Y284444D02*
X235931Y288098D01*
X233701Y291551D02*
X233294Y292181D01*
X238309Y284527D02*
X236014Y288080D01*
X233719Y291634D02*
X233345Y292213D01*
X238294Y284660D02*
X236097Y288062D01*
X233737Y291717D02*
X233363Y292296D01*
X238279Y284794D02*
X236180Y288045D01*
X233787Y291749D02*
X233380Y292379D01*
X238297Y284877D02*
X236263Y288027D01*
X233805Y291832D02*
X233431Y292412D01*
X238283Y285010D02*
X236346Y288009D01*
X233823Y291915D02*
X233449Y292495D01*
X238268Y285143D02*
X236429Y287991D01*
X233873Y291948D02*
X233499Y292527D01*
X238253Y285277D02*
X236512Y287973D01*
X233891Y292030D02*
X233517Y292610D01*
X238271Y285360D02*
X236595Y287955D01*
X233909Y292113D02*
X233535Y292693D01*
X238256Y285493D02*
X236678Y287937D01*
X233960Y292146D02*
X233585Y292726D01*
X238242Y285626D02*
X236793Y287869D01*
X233977Y292229D02*
X233603Y292809D01*
X238227Y285760D02*
X236876Y287851D01*
X234028Y292261D02*
X233653Y292841D01*
X238212Y285893D02*
X236959Y287833D01*
X234046Y292344D02*
X233671Y292924D01*
X238230Y285976D02*
X237042Y287816D01*
X234064Y292427D02*
X233722Y292957D01*
X238215Y286109D02*
X237157Y287747D01*
X234114Y292460D02*
X233740Y293040D01*
X238201Y286243D02*
X237240Y287729D01*
X234132Y292543D02*
X233790Y293072D01*
X238186Y286376D02*
X237356Y287661D01*
X234182Y292575D02*
X233808Y293155D01*
X238171Y286509D02*
X237471Y287593D01*
X234200Y292658D02*
X233858Y293188D01*
X238157Y286643D02*
X237457Y287726D01*
X234250Y292691D02*
X233909Y293220D01*
X238142Y286776D02*
X237410Y287910D01*
X234268Y292774D02*
X233926Y293303D01*
X238127Y286909D02*
X237395Y288043D01*
X234319Y292806D02*
X233977Y293336D01*
X238113Y287043D02*
X237380Y288177D01*
X234337Y292889D02*
X234027Y293368D01*
X238098Y287176D02*
X237365Y288310D01*
X234387Y292922D02*
X234045Y293451D01*
X238083Y287309D02*
X237318Y288494D01*
X234437Y292955D02*
X234096Y293484D01*
X238068Y287443D02*
X237303Y288627D01*
X234455Y293037D02*
X234146Y293516D01*
X238054Y287576D02*
X237289Y288761D01*
X234506Y293070D02*
X234164Y293599D01*
X238039Y287710D02*
X237274Y288894D01*
X234556Y293103D02*
X234214Y293632D01*
X238024Y287843D02*
X237227Y289078D01*
X234574Y293186D02*
X234265Y293664D01*
X238010Y287976D02*
X237212Y289211D01*
X234624Y293218D02*
X234315Y293697D01*
X237995Y288110D02*
X237197Y289344D01*
X234675Y293251D02*
X234365Y293729D01*
X237980Y288243D02*
X237150Y289528D01*
X234725Y293283D02*
X234416Y293762D01*
X237966Y288376D02*
X237103Y289712D01*
X234775Y293316D02*
X234466Y293795D01*
X237918Y288560D02*
X237088Y289845D01*
X234826Y293348D02*
X234517Y293827D01*
X237904Y288693D02*
X237041Y290029D01*
X234876Y293381D02*
X234567Y293860D01*
X237889Y288827D02*
X236994Y290213D01*
X234927Y293413D02*
X234617Y293892D01*
X237842Y289011D02*
X236946Y290397D01*
X234977Y293446D02*
X234668Y293925D01*
X237827Y289144D02*
X236899Y290580D01*
X235027Y293479D02*
X234718Y293957D01*
X237812Y289277D02*
X236852Y290764D01*
X235110Y293461D02*
X234769Y293990D01*
X237765Y289461D02*
X236805Y290948D01*
X235161Y293493D02*
X234819Y294022D01*
X237750Y289594D02*
X236725Y291182D01*
X235244Y293475D02*
X234869Y294055D01*
X237703Y289778D02*
X236678Y291366D01*
X235327Y293458D02*
X234952Y294037D01*
X237688Y289911D02*
X236565Y291650D01*
X235410Y293440D02*
X235003Y294070D01*
X237641Y290095D02*
X236485Y291885D01*
X235558Y293321D02*
X235086Y294052D01*
X237594Y290279D02*
X236341Y292220D01*
X235706Y293202D02*
X235136Y294084D01*
X237547Y290463D02*
X235219Y294067D01*
X237499Y290647D02*
X235302Y294049D01*
X237452Y290830D02*
X235385Y294031D01*
X237405Y291014D02*
X235435Y294063D01*
X237358Y291198D02*
X235518Y294046D01*
X237278Y291432D02*
X235634Y293977D01*
X237230Y291616D02*
X235749Y293909D01*
X237118Y291900D02*
X235832Y293891D01*
X237038Y292134D02*
X235980Y293773D01*
X236861Y292520D02*
X236161Y293603D01*
G54D52*
X373714Y215255D02*
X372550D01*
X373273Y212585*
X374394*
X374868Y210855*
X373708*
X374354Y208505*
X377330*
X377883Y208656*
X378243Y208913*
X378611Y209281*
X378830Y209993*
X378130Y212585*
X379290*
X378567Y215255*
X377409*
X377206Y216025*
X378175*
Y218745*
X380625*
Y213625*
X384808*
X384804Y213598*
X384088Y212739*
X383082Y211817*
X382296Y209775*
X382096Y209655*
X381988*
X381464Y209982*
X380796Y210567*
X379899Y210903*
X379351Y210492*
X378893Y209667*
X378332Y207825*
X377816Y206866*
X376951Y206001*
X376050Y205655*
X375040*
X375040*
X375215Y206354*
Y207013*
X375024Y207679*
X374642Y208253*
X374133Y208677*
X373559Y209251*
X373021Y209610*
X372290Y209935*
X371750Y210244*
X371264Y210535*
X371055*
Y213428*
X371367Y213615*
X371535Y213951*
Y216025*
X373511*
X373714Y215255*
X377037Y210855D02*
X376369D01*
X375007Y216025*
X375709*
X377037Y210855*
X375240Y217735D02*
X374561D01*
X374500Y217945*
X375187*
X375240Y217735*
X379271Y212654D02*
X383995D01*
X378382Y211654D02*
X383019D01*
X380565Y210654D02*
X382634D01*
X378175Y218654D02*
X380625D01*
X378175Y217654D02*
X380625D01*
X378175Y216654D02*
X380625D01*
X377304Y215654D02*
X380625D01*
X378730Y214654D02*
X380625D01*
X379001Y213654D02*
X380625D01*
X378652Y210654D02*
X379567D01*
X378726Y209654D02*
X378889D01*
X377875Y208654D02*
X378584D01*
X375032Y207654D02*
X378240D01*
X375215Y206654D02*
X377603D01*
X371055Y211654D02*
X374649D01*
X374161Y208654D02*
X374313D01*
X372923Y209654D02*
X374038D01*
X371055Y210654D02*
X373763D01*
X371535Y215654D02*
X373609D01*
X371055Y212654D02*
X373254D01*
X371386Y213654D02*
X372984D01*
X371535Y214654D02*
X372713D01*
X376106Y211854D02*
X376780D01*
X375842Y212854D02*
X376523D01*
X375579Y213854D02*
X376267D01*
X375315Y214854D02*
X376010D01*
X375052Y215854D02*
X375753D01*
X384055Y212709D02*
Y213625D01*
X383055Y211748D02*
Y213625D01*
X382055Y209655D02*
Y213625D01*
X381055Y210340D02*
Y213625D01*
X380055Y210845D02*
Y218745D01*
X379055Y213453D02*
Y218745D01*
Y209959D02*
Y212585D01*
X378055Y215255D02*
Y216025D01*
Y207310D02*
Y208778D01*
X377055Y206105D02*
Y208505D01*
X376055Y205657D02*
Y208505D01*
X375055Y207573D02*
Y208505D01*
Y205655D02*
Y205714D01*
X374055Y210855D02*
Y212585D01*
Y208755D02*
Y209593D01*
X373055Y215255D02*
Y216025D01*
Y209587D02*
Y213390D01*
X372055Y210069D02*
Y216025D01*
X377007Y210855D02*
Y210972D01*
X376007Y212230D02*
Y214866D01*
X0Y0D02*
M02*
