G75*
%MOIN*%
%OFA0B0*%
%FSLAX25Y25*%
%IPPOS*%
%LPD*%
%AMOC8*
5,1,8,0,0,1.08239X$1,22.5*
%
%ADD10C,0.00000*%
%ADD11C,0.01000*%
%ADD12C,0.00512*%
%ADD13C,0.00600*%
D10*
X-0015000Y0000000D02*
X0203000Y0000000D01*
D11*
X-0015000Y0000000D02*
X-0015000Y0259000D01*
X0215000Y0259000D01*
X0215000Y0000000D01*
X-0015000Y0000000D01*
D12*
X-0015000Y0266823D02*
X-0015000Y0277000D01*
X-0014744Y0274500D02*
X-0004764Y0273476D01*
X-0004764Y0273243D02*
X-0014744Y0274500D01*
X-0004764Y0275524D01*
X-0004764Y0275757D02*
X-0004764Y0273243D01*
X-0004764Y0273988D02*
X-0014744Y0274500D01*
X-0004764Y0275012D01*
X-0004764Y0275757D02*
X-0014744Y0274500D01*
X0214744Y0274500D01*
X0204764Y0273476D01*
X0204764Y0273243D02*
X0214744Y0274500D01*
X0204764Y0275524D01*
X0204764Y0275757D02*
X0204764Y0273243D01*
X0204764Y0273988D02*
X0214744Y0274500D01*
X0204764Y0275012D01*
X0204764Y0275757D02*
X0214744Y0274500D01*
X0215000Y0278000D02*
X0215000Y0266823D01*
D13*
X0112732Y0278129D02*
X0111664Y0277062D01*
X0109529Y0277062D01*
X0108462Y0278129D01*
X0112732Y0282400D01*
X0112732Y0278129D01*
X0108462Y0278129D02*
X0108462Y0282400D01*
X0109529Y0283467D01*
X0111664Y0283467D01*
X0112732Y0282400D01*
X0106286Y0282400D02*
X0106286Y0278129D01*
X0105219Y0277062D01*
X0103084Y0277062D01*
X0102016Y0278129D01*
X0106286Y0282400D01*
X0105219Y0283467D01*
X0103084Y0283467D01*
X0102016Y0282400D01*
X0102016Y0278129D01*
X0099841Y0278129D02*
X0099841Y0279197D01*
X0098773Y0280265D01*
X0097706Y0280265D01*
X0098773Y0280265D02*
X0099841Y0281332D01*
X0099841Y0282400D01*
X0098773Y0283467D01*
X0096638Y0283467D01*
X0095571Y0282400D01*
X0093395Y0282400D02*
X0093395Y0281332D01*
X0089125Y0277062D01*
X0093395Y0277062D01*
X0095571Y0278129D02*
X0096638Y0277062D01*
X0098773Y0277062D01*
X0099841Y0278129D01*
X0093395Y0282400D02*
X0092328Y0283467D01*
X0090193Y0283467D01*
X0089125Y0282400D01*
M02*
