G75*
%MOIN*%
%OFA0B0*%
%FSLAX25Y25*%
%IPPOS*%
%LPD*%
%AMOC8*
5,1,8,0,0,1.08239X$1,22.5*
%
%ADD10R,0.04737X0.05131*%
%ADD11R,0.07099X0.07898*%
%ADD12R,0.04737X0.18910*%
%ADD13R,0.07099X0.14186*%
%ADD14R,0.04343X0.05918*%
%ADD15C,0.01380*%
%ADD16R,0.02362X0.01181*%
%ADD17R,0.09646X0.06693*%
%ADD18R,0.01378X0.02992*%
%ADD19R,0.09068X0.07099*%
%ADD20R,0.02375X0.06115*%
%ADD21R,0.07887X0.08280*%
%ADD22R,0.08280X0.08280*%
%ADD23R,0.06706X0.06706*%
%ADD24R,0.04343X0.04343*%
%ADD25R,0.05131X0.04737*%
%ADD26OC8,0.09300*%
%ADD27R,0.03950X0.01587*%
%ADD28R,0.10446X0.13398*%
%ADD29R,0.04737X0.01981*%
%ADD30R,0.01981X0.04737*%
%ADD31R,0.11430X0.11430*%
%ADD32R,0.07099X0.05524*%
%ADD33C,0.06200*%
%ADD34C,0.04800*%
%ADD35C,0.05550*%
%ADD36R,0.08200X0.08200*%
%ADD37C,0.08200*%
%ADD38R,0.06706X0.05918*%
%ADD39C,0.03900*%
%ADD40C,0.03600*%
D10*
X0035654Y0046000D03*
X0042346Y0046000D03*
X0042346Y0054000D03*
X0035654Y0054000D03*
X0035654Y0064000D03*
X0042346Y0064000D03*
X0042346Y0072000D03*
X0035654Y0072000D03*
X0040000Y0107654D03*
X0040000Y0114346D03*
X0066000Y0114346D03*
X0066000Y0107654D03*
X0075000Y0107654D03*
X0075000Y0114346D03*
X0102000Y0114346D03*
X0102000Y0107654D03*
X0116000Y0104346D03*
X0122000Y0104346D03*
X0128000Y0104346D03*
X0128000Y0097654D03*
X0122000Y0097654D03*
X0116000Y0097654D03*
X0141100Y0097654D03*
X0141100Y0104346D03*
X0156654Y0102000D03*
X0156654Y0096000D03*
X0156654Y0090000D03*
X0156654Y0084000D03*
X0156654Y0078000D03*
X0163346Y0078000D03*
X0163346Y0084000D03*
X0163346Y0090000D03*
X0163346Y0096000D03*
X0163346Y0102000D03*
X0163346Y0108000D03*
X0156654Y0108000D03*
X0157654Y0120000D03*
X0164346Y0120000D03*
X0164346Y0130000D03*
X0157654Y0130000D03*
X0157654Y0140000D03*
X0164346Y0140000D03*
X0126000Y0145654D03*
X0126000Y0152346D03*
X0083950Y0152346D03*
X0083950Y0145654D03*
X0049000Y0145654D03*
X0049000Y0152346D03*
X0058000Y0200654D03*
X0058000Y0207346D03*
X0067000Y0207346D03*
X0067000Y0200654D03*
X0103654Y0204000D03*
X0110346Y0204000D03*
X0110346Y0211000D03*
X0103654Y0211000D03*
X0118678Y0221991D03*
X0125371Y0221991D03*
X0129654Y0253000D03*
X0136346Y0253000D03*
X0181154Y0205000D03*
X0187846Y0205000D03*
D11*
X0090598Y0190000D03*
X0079402Y0190000D03*
D12*
X0033937Y0229433D03*
X0026063Y0229433D03*
D13*
X0016614Y0249906D03*
X0043386Y0249906D03*
D14*
X0045772Y0109559D03*
X0060732Y0109559D03*
X0080772Y0108559D03*
X0095732Y0108559D03*
D15*
X0094937Y0125413D03*
X0092969Y0125413D03*
X0091000Y0125413D03*
X0089031Y0125413D03*
X0087063Y0125413D03*
X0087063Y0134587D03*
X0089031Y0134587D03*
X0091000Y0134587D03*
X0092969Y0134587D03*
X0094937Y0134587D03*
X0059937Y0134587D03*
X0057969Y0134587D03*
X0056000Y0134587D03*
X0054031Y0134587D03*
X0052063Y0134587D03*
X0052063Y0125413D03*
X0054031Y0125413D03*
X0056000Y0125413D03*
X0057969Y0125413D03*
X0059937Y0125413D03*
D16*
X0062398Y0128917D03*
X0062398Y0131083D03*
X0049602Y0131083D03*
X0049602Y0128917D03*
X0084602Y0128917D03*
X0084602Y0131083D03*
X0097398Y0131083D03*
X0097398Y0128917D03*
D17*
X0091000Y0130000D03*
X0056000Y0130000D03*
D18*
X0056000Y0123917D03*
X0054031Y0123917D03*
X0052063Y0123917D03*
X0057969Y0123917D03*
X0059937Y0123917D03*
X0059937Y0136083D03*
X0057969Y0136083D03*
X0056000Y0136083D03*
X0054031Y0136083D03*
X0052063Y0136083D03*
X0087063Y0136083D03*
X0089031Y0136083D03*
X0091000Y0136083D03*
X0092969Y0136083D03*
X0094937Y0136083D03*
X0094937Y0123917D03*
X0092969Y0123917D03*
X0091000Y0123917D03*
X0089031Y0123917D03*
X0087063Y0123917D03*
D19*
X0157795Y0242961D03*
X0182205Y0242961D03*
D20*
X0175118Y0242469D03*
X0172559Y0242469D03*
X0170000Y0242469D03*
X0167441Y0242469D03*
X0164882Y0242469D03*
D21*
X0154252Y0253000D03*
X0185748Y0253000D03*
D22*
X0174724Y0253000D03*
X0165276Y0253000D03*
D23*
X0101900Y0253500D03*
X0088120Y0253500D03*
D24*
X0095010Y0250941D03*
D25*
X0098007Y0152379D03*
X0104400Y0152346D03*
X0104400Y0145654D03*
X0098007Y0145686D03*
X0092008Y0145636D03*
X0092008Y0152329D03*
X0109354Y0137000D03*
X0116046Y0137000D03*
X0134000Y0145654D03*
X0134000Y0152346D03*
X0142017Y0152319D03*
X0142017Y0145626D03*
X0150028Y0145631D03*
X0150028Y0152324D03*
X0133995Y0104369D03*
X0133995Y0097676D03*
X0133000Y0083346D03*
X0133000Y0076654D03*
X0141000Y0076654D03*
X0141000Y0083346D03*
X0063630Y0145646D03*
X0057014Y0145665D03*
X0057014Y0152358D03*
X0063630Y0152339D03*
D26*
X0010000Y0020000D03*
X0109000Y0163500D03*
X0067000Y0192000D03*
X0151000Y0215000D03*
X0170000Y0220000D03*
X0190000Y0020000D03*
D27*
X0093646Y0200546D03*
X0093646Y0202120D03*
X0093646Y0203695D03*
X0093646Y0205270D03*
X0093646Y0206845D03*
X0093646Y0208420D03*
X0076323Y0208420D03*
X0076323Y0206845D03*
X0076323Y0205270D03*
X0076323Y0203695D03*
X0076323Y0202120D03*
X0076323Y0200546D03*
D28*
X0085000Y0204400D03*
D29*
X0126334Y0129721D03*
X0126334Y0127753D03*
X0126334Y0125784D03*
X0126334Y0123816D03*
X0126334Y0121847D03*
X0126334Y0119879D03*
X0143066Y0119879D03*
X0143066Y0121847D03*
X0143066Y0123816D03*
X0143066Y0125784D03*
X0143066Y0127753D03*
X0143066Y0129721D03*
D30*
X0139621Y0133166D03*
X0137653Y0133166D03*
X0135684Y0133166D03*
X0133716Y0133166D03*
X0131747Y0133166D03*
X0129779Y0133166D03*
X0129779Y0116434D03*
X0131747Y0116434D03*
X0133716Y0116434D03*
X0135684Y0116434D03*
X0137653Y0116434D03*
X0139621Y0116434D03*
D31*
X0134700Y0124800D03*
D32*
X0115600Y0129706D03*
X0115600Y0117894D03*
D33*
X0180000Y0183800D02*
X0180000Y0189200D01*
X0190000Y0189200D02*
X0190000Y0183800D01*
D34*
X0187000Y0161500D03*
X0197000Y0161500D03*
X0177000Y0161500D03*
D35*
X0027375Y0174500D02*
X0022625Y0174500D01*
X0022625Y0184500D02*
X0027375Y0184500D01*
X0027375Y0194500D02*
X0022625Y0194500D01*
X0007375Y0194500D02*
X0002625Y0194500D01*
X0002625Y0174500D02*
X0007375Y0174500D01*
D36*
X0010000Y0140000D03*
X0020000Y0140000D03*
X0180000Y0140000D03*
X0190000Y0140000D03*
D37*
X0190000Y0130000D03*
X0190000Y0120000D03*
X0190000Y0110000D03*
X0190000Y0100000D03*
X0190000Y0090000D03*
X0190000Y0080000D03*
X0190000Y0070000D03*
X0190000Y0060000D03*
X0190000Y0050000D03*
X0180000Y0050000D03*
X0180000Y0060000D03*
X0180000Y0070000D03*
X0180000Y0080000D03*
X0180000Y0090000D03*
X0180000Y0100000D03*
X0180000Y0110000D03*
X0180000Y0120000D03*
X0180000Y0130000D03*
X0020000Y0130000D03*
X0010000Y0130000D03*
X0010000Y0120000D03*
X0010000Y0110000D03*
X0010000Y0100000D03*
X0010000Y0090000D03*
X0020000Y0090000D03*
X0020000Y0100000D03*
X0020000Y0110000D03*
X0020000Y0120000D03*
X0020000Y0080000D03*
X0020000Y0070000D03*
X0020000Y0060000D03*
X0020000Y0050000D03*
X0010000Y0050000D03*
X0010000Y0060000D03*
X0010000Y0070000D03*
X0010000Y0080000D03*
D38*
X0040000Y0126260D03*
X0040000Y0133740D03*
X0076000Y0133740D03*
X0076000Y0126260D03*
D39*
X0081000Y0130000D03*
X0070000Y0129000D03*
X0062000Y0138000D03*
X0056000Y0141000D03*
X0046000Y0130000D03*
X0061673Y0118673D03*
X0065000Y0089000D03*
X0075000Y0089000D03*
X0085000Y0089000D03*
X0091000Y0082000D03*
X0095000Y0078000D03*
X0100000Y0089000D03*
X0116000Y0093000D03*
X0128000Y0093000D03*
X0127000Y0081000D03*
X0117000Y0081000D03*
X0116000Y0108000D03*
X0119650Y0110400D03*
X0111000Y0115000D03*
X0098000Y0119000D03*
X0103000Y0129000D03*
X0105000Y0139000D03*
X0097000Y0138000D03*
X0098000Y0157000D03*
X0104000Y0157000D03*
X0091000Y0159000D03*
X0084000Y0157000D03*
X0079000Y0173000D03*
X0067000Y0173000D03*
X0069000Y0153000D03*
X0045000Y0154000D03*
X0035000Y0154000D03*
X0000000Y0144500D03*
X0055000Y0089000D03*
X0061000Y0062000D03*
X0072000Y0062000D03*
X0030000Y0042000D03*
X0127000Y0136000D03*
X0132000Y0123000D03*
X0138000Y0123000D03*
X0142000Y0113000D03*
X0148000Y0128000D03*
X0146000Y0132000D03*
X0158000Y0124050D03*
X0170000Y0134000D03*
X0170000Y0149000D03*
X0162000Y0152000D03*
X0154000Y0152000D03*
X0140000Y0159000D03*
X0130000Y0159000D03*
X0130000Y0167000D03*
X0110000Y0185000D03*
X0120000Y0211000D03*
X0108000Y0223000D03*
X0110000Y0230000D03*
X0110000Y0240000D03*
X0100000Y0240000D03*
X0100000Y0230000D03*
X0090000Y0230000D03*
X0090000Y0240000D03*
X0080000Y0240000D03*
X0080000Y0230000D03*
X0070000Y0230000D03*
X0070000Y0240000D03*
X0070000Y0250000D03*
X0080000Y0250000D03*
X0060000Y0240000D03*
X0060000Y0230000D03*
X0063000Y0220000D03*
X0067000Y0217000D03*
X0072000Y0215000D03*
X0076000Y0219000D03*
X0085000Y0210000D03*
X0085000Y0205000D03*
X0085000Y0200000D03*
X0099000Y0211000D03*
X0130000Y0240000D03*
X0140000Y0240000D03*
X0150000Y0240000D03*
X0156000Y0220000D03*
X0162000Y0205000D03*
X0170000Y0210000D03*
X0180000Y0210000D03*
X0190000Y0210000D03*
X0200000Y0210000D03*
X0201000Y0180000D03*
X0204500Y0148500D03*
X0170500Y0113000D03*
X0167500Y0106500D03*
X0167500Y0095000D03*
X0167500Y0084000D03*
X0145000Y0089000D03*
X0143500Y0192000D03*
X0136500Y0211000D03*
X0050000Y0230000D03*
X0050000Y0240000D03*
X0020000Y0220000D03*
X0020000Y0210500D03*
X0010000Y0211500D03*
X0010000Y0220000D03*
X0010000Y0230000D03*
X0010000Y0240000D03*
D40*
X0032000Y0145000D03*
X0036000Y0145000D03*
X0035500Y0141000D03*
X0040000Y0102000D03*
X0036000Y0077000D03*
X0036000Y0042000D03*
M02*
