G75*
%MOIN*%
%OFA0B0*%
%FSLAX25Y25*%
%IPPOS*%
%LPD*%
%AMOC8*
5,1,8,0,0,1.08239X$1,22.5*
%
%ADD10R,0.03937X0.04331*%
%ADD11R,0.06299X0.07098*%
%ADD12R,0.03937X0.18110*%
%ADD13R,0.06299X0.13386*%
%ADD14R,0.03543X0.05118*%
%ADD15R,0.09449X0.06496*%
%ADD16C,0.00551*%
%ADD17C,0.00394*%
%ADD18R,0.08268X0.06299*%
%ADD19R,0.01575X0.05315*%
%ADD20R,0.07087X0.07480*%
%ADD21R,0.07480X0.07480*%
%ADD22R,0.05906X0.05906*%
%ADD23R,0.03543X0.03543*%
%ADD24R,0.04331X0.03937*%
%ADD25OC8,0.08500*%
%ADD26R,0.03150X0.00787*%
%ADD27R,0.09646X0.12598*%
%ADD28R,0.03937X0.01181*%
%ADD29R,0.01181X0.03937*%
%ADD30R,0.10630X0.10630*%
%ADD31R,0.06299X0.04724*%
%ADD32C,0.05400*%
%ADD33C,0.04000*%
%ADD34C,0.04750*%
%ADD35R,0.07400X0.07400*%
%ADD36C,0.07400*%
%ADD37R,0.05906X0.05118*%
%ADD38C,0.01000*%
%ADD39C,0.01600*%
%ADD40C,0.01200*%
%ADD41C,0.03100*%
%ADD42C,0.00800*%
%ADD43C,0.02800*%
%ADD44C,0.02400*%
%ADD45C,0.03200*%
%ADD46C,0.04000*%
D10*
X0035654Y0046000D03*
X0042346Y0046000D03*
X0042346Y0054000D03*
X0035654Y0054000D03*
X0035654Y0064000D03*
X0042346Y0064000D03*
X0042346Y0072000D03*
X0035654Y0072000D03*
X0040000Y0107654D03*
X0040000Y0114346D03*
X0066000Y0114346D03*
X0066000Y0107654D03*
X0075000Y0107654D03*
X0075000Y0114346D03*
X0102000Y0114346D03*
X0102000Y0107654D03*
X0116000Y0104346D03*
X0122000Y0104346D03*
X0128000Y0104346D03*
X0128000Y0097654D03*
X0122000Y0097654D03*
X0116000Y0097654D03*
X0141100Y0097654D03*
X0141100Y0104346D03*
X0156654Y0102000D03*
X0156654Y0096000D03*
X0156654Y0090000D03*
X0156654Y0084000D03*
X0156654Y0078000D03*
X0163346Y0078000D03*
X0163346Y0084000D03*
X0163346Y0090000D03*
X0163346Y0096000D03*
X0163346Y0102000D03*
X0163346Y0108000D03*
X0156654Y0108000D03*
X0157654Y0120000D03*
X0164346Y0120000D03*
X0164346Y0130000D03*
X0157654Y0130000D03*
X0157654Y0140000D03*
X0164346Y0140000D03*
X0126000Y0145654D03*
X0126000Y0152346D03*
X0083950Y0152346D03*
X0083950Y0145654D03*
X0049000Y0145654D03*
X0049000Y0152346D03*
X0058000Y0200654D03*
X0058000Y0207346D03*
X0067000Y0207346D03*
X0067000Y0200654D03*
X0103654Y0204000D03*
X0110346Y0204000D03*
X0110346Y0211000D03*
X0103654Y0211000D03*
X0118678Y0221991D03*
X0125371Y0221991D03*
X0129654Y0253000D03*
X0136346Y0253000D03*
X0181154Y0205000D03*
X0187846Y0205000D03*
D11*
X0090598Y0190000D03*
X0079402Y0190000D03*
D12*
X0033937Y0229433D03*
X0026063Y0229433D03*
D13*
X0016614Y0249906D03*
X0043386Y0249906D03*
D14*
X0045772Y0109559D03*
X0060732Y0109559D03*
X0080772Y0108559D03*
X0095732Y0108559D03*
D15*
X0091000Y0130000D03*
X0056000Y0130000D03*
D16*
X0055724Y0134409D02*
X0055724Y0137205D01*
X0056276Y0137205D01*
X0056276Y0134409D01*
X0055724Y0134409D01*
X0055724Y0134959D02*
X0056276Y0134959D01*
X0056276Y0135509D02*
X0055724Y0135509D01*
X0055724Y0136059D02*
X0056276Y0136059D01*
X0056276Y0136609D02*
X0055724Y0136609D01*
X0055724Y0137159D02*
X0056276Y0137159D01*
X0057693Y0137205D02*
X0057693Y0134409D01*
X0057693Y0137205D02*
X0058245Y0137205D01*
X0058245Y0134409D01*
X0057693Y0134409D01*
X0057693Y0134959D02*
X0058245Y0134959D01*
X0058245Y0135509D02*
X0057693Y0135509D01*
X0057693Y0136059D02*
X0058245Y0136059D01*
X0058245Y0136609D02*
X0057693Y0136609D01*
X0057693Y0137159D02*
X0058245Y0137159D01*
X0059661Y0137205D02*
X0059661Y0134409D01*
X0059661Y0137205D02*
X0060213Y0137205D01*
X0060213Y0134409D01*
X0059661Y0134409D01*
X0059661Y0134959D02*
X0060213Y0134959D01*
X0060213Y0135509D02*
X0059661Y0135509D01*
X0059661Y0136059D02*
X0060213Y0136059D01*
X0060213Y0136609D02*
X0059661Y0136609D01*
X0059661Y0137159D02*
X0060213Y0137159D01*
X0053755Y0137205D02*
X0053755Y0134409D01*
X0053755Y0137205D02*
X0054307Y0137205D01*
X0054307Y0134409D01*
X0053755Y0134409D01*
X0053755Y0134959D02*
X0054307Y0134959D01*
X0054307Y0135509D02*
X0053755Y0135509D01*
X0053755Y0136059D02*
X0054307Y0136059D01*
X0054307Y0136609D02*
X0053755Y0136609D01*
X0053755Y0137159D02*
X0054307Y0137159D01*
X0051787Y0137205D02*
X0051787Y0134409D01*
X0051787Y0137205D02*
X0052339Y0137205D01*
X0052339Y0134409D01*
X0051787Y0134409D01*
X0051787Y0134959D02*
X0052339Y0134959D01*
X0052339Y0135509D02*
X0051787Y0135509D01*
X0051787Y0136059D02*
X0052339Y0136059D01*
X0052339Y0136609D02*
X0051787Y0136609D01*
X0051787Y0137159D02*
X0052339Y0137159D01*
X0052339Y0125591D02*
X0052339Y0122795D01*
X0051787Y0122795D01*
X0051787Y0125591D01*
X0052339Y0125591D01*
X0052339Y0123345D02*
X0051787Y0123345D01*
X0051787Y0123895D02*
X0052339Y0123895D01*
X0052339Y0124445D02*
X0051787Y0124445D01*
X0051787Y0124995D02*
X0052339Y0124995D01*
X0052339Y0125545D02*
X0051787Y0125545D01*
X0054307Y0125591D02*
X0054307Y0122795D01*
X0053755Y0122795D01*
X0053755Y0125591D01*
X0054307Y0125591D01*
X0054307Y0123345D02*
X0053755Y0123345D01*
X0053755Y0123895D02*
X0054307Y0123895D01*
X0054307Y0124445D02*
X0053755Y0124445D01*
X0053755Y0124995D02*
X0054307Y0124995D01*
X0054307Y0125545D02*
X0053755Y0125545D01*
X0056276Y0125591D02*
X0056276Y0122795D01*
X0055724Y0122795D01*
X0055724Y0125591D01*
X0056276Y0125591D01*
X0056276Y0123345D02*
X0055724Y0123345D01*
X0055724Y0123895D02*
X0056276Y0123895D01*
X0056276Y0124445D02*
X0055724Y0124445D01*
X0055724Y0124995D02*
X0056276Y0124995D01*
X0056276Y0125545D02*
X0055724Y0125545D01*
X0058245Y0125591D02*
X0058245Y0122795D01*
X0057693Y0122795D01*
X0057693Y0125591D01*
X0058245Y0125591D01*
X0058245Y0123345D02*
X0057693Y0123345D01*
X0057693Y0123895D02*
X0058245Y0123895D01*
X0058245Y0124445D02*
X0057693Y0124445D01*
X0057693Y0124995D02*
X0058245Y0124995D01*
X0058245Y0125545D02*
X0057693Y0125545D01*
X0060213Y0125591D02*
X0060213Y0122795D01*
X0059661Y0122795D01*
X0059661Y0125591D01*
X0060213Y0125591D01*
X0060213Y0123345D02*
X0059661Y0123345D01*
X0059661Y0123895D02*
X0060213Y0123895D01*
X0060213Y0124445D02*
X0059661Y0124445D01*
X0059661Y0124995D02*
X0060213Y0124995D01*
X0060213Y0125545D02*
X0059661Y0125545D01*
X0087339Y0125591D02*
X0087339Y0122795D01*
X0086787Y0122795D01*
X0086787Y0125591D01*
X0087339Y0125591D01*
X0087339Y0123345D02*
X0086787Y0123345D01*
X0086787Y0123895D02*
X0087339Y0123895D01*
X0087339Y0124445D02*
X0086787Y0124445D01*
X0086787Y0124995D02*
X0087339Y0124995D01*
X0087339Y0125545D02*
X0086787Y0125545D01*
X0089307Y0125591D02*
X0089307Y0122795D01*
X0088755Y0122795D01*
X0088755Y0125591D01*
X0089307Y0125591D01*
X0089307Y0123345D02*
X0088755Y0123345D01*
X0088755Y0123895D02*
X0089307Y0123895D01*
X0089307Y0124445D02*
X0088755Y0124445D01*
X0088755Y0124995D02*
X0089307Y0124995D01*
X0089307Y0125545D02*
X0088755Y0125545D01*
X0091276Y0125591D02*
X0091276Y0122795D01*
X0090724Y0122795D01*
X0090724Y0125591D01*
X0091276Y0125591D01*
X0091276Y0123345D02*
X0090724Y0123345D01*
X0090724Y0123895D02*
X0091276Y0123895D01*
X0091276Y0124445D02*
X0090724Y0124445D01*
X0090724Y0124995D02*
X0091276Y0124995D01*
X0091276Y0125545D02*
X0090724Y0125545D01*
X0093245Y0125591D02*
X0093245Y0122795D01*
X0092693Y0122795D01*
X0092693Y0125591D01*
X0093245Y0125591D01*
X0093245Y0123345D02*
X0092693Y0123345D01*
X0092693Y0123895D02*
X0093245Y0123895D01*
X0093245Y0124445D02*
X0092693Y0124445D01*
X0092693Y0124995D02*
X0093245Y0124995D01*
X0093245Y0125545D02*
X0092693Y0125545D01*
X0095213Y0125591D02*
X0095213Y0122795D01*
X0094661Y0122795D01*
X0094661Y0125591D01*
X0095213Y0125591D01*
X0095213Y0123345D02*
X0094661Y0123345D01*
X0094661Y0123895D02*
X0095213Y0123895D01*
X0095213Y0124445D02*
X0094661Y0124445D01*
X0094661Y0124995D02*
X0095213Y0124995D01*
X0095213Y0125545D02*
X0094661Y0125545D01*
X0094661Y0134409D02*
X0094661Y0137205D01*
X0095213Y0137205D01*
X0095213Y0134409D01*
X0094661Y0134409D01*
X0094661Y0134959D02*
X0095213Y0134959D01*
X0095213Y0135509D02*
X0094661Y0135509D01*
X0094661Y0136059D02*
X0095213Y0136059D01*
X0095213Y0136609D02*
X0094661Y0136609D01*
X0094661Y0137159D02*
X0095213Y0137159D01*
X0092693Y0137205D02*
X0092693Y0134409D01*
X0092693Y0137205D02*
X0093245Y0137205D01*
X0093245Y0134409D01*
X0092693Y0134409D01*
X0092693Y0134959D02*
X0093245Y0134959D01*
X0093245Y0135509D02*
X0092693Y0135509D01*
X0092693Y0136059D02*
X0093245Y0136059D01*
X0093245Y0136609D02*
X0092693Y0136609D01*
X0092693Y0137159D02*
X0093245Y0137159D01*
X0090724Y0137205D02*
X0090724Y0134409D01*
X0090724Y0137205D02*
X0091276Y0137205D01*
X0091276Y0134409D01*
X0090724Y0134409D01*
X0090724Y0134959D02*
X0091276Y0134959D01*
X0091276Y0135509D02*
X0090724Y0135509D01*
X0090724Y0136059D02*
X0091276Y0136059D01*
X0091276Y0136609D02*
X0090724Y0136609D01*
X0090724Y0137159D02*
X0091276Y0137159D01*
X0088755Y0137205D02*
X0088755Y0134409D01*
X0088755Y0137205D02*
X0089307Y0137205D01*
X0089307Y0134409D01*
X0088755Y0134409D01*
X0088755Y0134959D02*
X0089307Y0134959D01*
X0089307Y0135509D02*
X0088755Y0135509D01*
X0088755Y0136059D02*
X0089307Y0136059D01*
X0089307Y0136609D02*
X0088755Y0136609D01*
X0088755Y0137159D02*
X0089307Y0137159D01*
X0086787Y0137205D02*
X0086787Y0134409D01*
X0086787Y0137205D02*
X0087339Y0137205D01*
X0087339Y0134409D01*
X0086787Y0134409D01*
X0086787Y0134959D02*
X0087339Y0134959D01*
X0087339Y0135509D02*
X0086787Y0135509D01*
X0086787Y0136059D02*
X0087339Y0136059D01*
X0087339Y0136609D02*
X0086787Y0136609D01*
X0086787Y0137159D02*
X0087339Y0137159D01*
D17*
X0086472Y0133051D02*
X0095528Y0133051D01*
X0095528Y0131427D01*
X0098283Y0131427D01*
X0098283Y0130738D01*
X0095528Y0130738D01*
X0095528Y0129262D01*
X0098283Y0129262D01*
X0098283Y0128573D01*
X0095528Y0128573D01*
X0095528Y0126949D01*
X0086472Y0126949D01*
X0086472Y0128573D01*
X0083717Y0128573D01*
X0083717Y0129262D01*
X0086472Y0129262D01*
X0086472Y0130738D01*
X0083717Y0130738D01*
X0083717Y0131329D01*
X0083717Y0131378D01*
X0083717Y0131427D01*
X0086472Y0131427D01*
X0086472Y0133051D01*
X0086472Y0132960D02*
X0095528Y0132960D01*
X0095528Y0132568D02*
X0086472Y0132568D01*
X0086472Y0132175D02*
X0095528Y0132175D01*
X0095528Y0131783D02*
X0086472Y0131783D01*
X0086472Y0130607D02*
X0095528Y0130607D01*
X0095528Y0130214D02*
X0086472Y0130214D01*
X0086472Y0129822D02*
X0095528Y0129822D01*
X0095528Y0129430D02*
X0086472Y0129430D01*
X0086472Y0128253D02*
X0095528Y0128253D01*
X0095528Y0127861D02*
X0086472Y0127861D01*
X0086472Y0127469D02*
X0095528Y0127469D01*
X0095528Y0127077D02*
X0086472Y0127077D01*
X0083717Y0128646D02*
X0098283Y0128646D01*
X0098283Y0129038D02*
X0083717Y0129038D01*
X0083717Y0130999D02*
X0098283Y0130999D01*
X0098283Y0131391D02*
X0083717Y0131391D01*
X0063283Y0131391D02*
X0048717Y0131391D01*
X0048717Y0131378D02*
X0048717Y0131329D01*
X0048717Y0130738D01*
X0051472Y0130738D01*
X0051472Y0129262D01*
X0048717Y0129262D01*
X0048717Y0128573D01*
X0051472Y0128573D01*
X0051472Y0126949D01*
X0060528Y0126949D01*
X0060528Y0128573D01*
X0063283Y0128573D01*
X0063283Y0129262D01*
X0060528Y0129262D01*
X0060528Y0130738D01*
X0063283Y0130738D01*
X0063283Y0131427D01*
X0060528Y0131427D01*
X0060528Y0133051D01*
X0051472Y0133051D01*
X0051472Y0131427D01*
X0048717Y0131427D01*
X0048717Y0131378D01*
X0048717Y0130999D02*
X0063283Y0130999D01*
X0063283Y0129038D02*
X0048717Y0129038D01*
X0048717Y0128646D02*
X0063283Y0128646D01*
X0060528Y0128253D02*
X0051472Y0128253D01*
X0051472Y0127861D02*
X0060528Y0127861D01*
X0060528Y0127469D02*
X0051472Y0127469D01*
X0051472Y0127077D02*
X0060528Y0127077D01*
X0060528Y0129430D02*
X0051472Y0129430D01*
X0051472Y0129822D02*
X0060528Y0129822D01*
X0060528Y0130214D02*
X0051472Y0130214D01*
X0051472Y0130607D02*
X0060528Y0130607D01*
X0060528Y0131783D02*
X0051472Y0131783D01*
X0051472Y0132175D02*
X0060528Y0132175D01*
X0060528Y0132568D02*
X0051472Y0132568D01*
X0051472Y0132960D02*
X0060528Y0132960D01*
D18*
X0157795Y0242961D03*
X0182205Y0242961D03*
D19*
X0175118Y0242469D03*
X0172559Y0242469D03*
X0170000Y0242469D03*
X0167441Y0242469D03*
X0164882Y0242469D03*
D20*
X0154252Y0253000D03*
X0185748Y0253000D03*
D21*
X0174724Y0253000D03*
X0165276Y0253000D03*
D22*
X0101900Y0253500D03*
X0088120Y0253500D03*
D23*
X0095010Y0250941D03*
D24*
X0098007Y0152379D03*
X0104400Y0152346D03*
X0104400Y0145654D03*
X0098007Y0145686D03*
X0092008Y0145636D03*
X0092008Y0152329D03*
X0109354Y0137000D03*
X0116046Y0137000D03*
X0134000Y0145654D03*
X0134000Y0152346D03*
X0142017Y0152319D03*
X0142017Y0145626D03*
X0150028Y0145631D03*
X0150028Y0152324D03*
X0133995Y0104369D03*
X0133995Y0097676D03*
X0133000Y0083346D03*
X0133000Y0076654D03*
X0141000Y0076654D03*
X0141000Y0083346D03*
X0063630Y0145646D03*
X0057014Y0145665D03*
X0057014Y0152358D03*
X0063630Y0152339D03*
D25*
X0067000Y0192000D03*
X0109000Y0163500D03*
X0151000Y0215000D03*
X0170000Y0220000D03*
X0190000Y0020000D03*
X0010000Y0020000D03*
D26*
X0076323Y0200546D03*
X0076323Y0202120D03*
X0076323Y0203695D03*
X0076323Y0205270D03*
X0076323Y0206845D03*
X0076323Y0208420D03*
X0093646Y0208420D03*
X0093646Y0206845D03*
X0093646Y0205270D03*
X0093646Y0203695D03*
X0093646Y0202120D03*
X0093646Y0200546D03*
D27*
X0085000Y0204400D03*
D28*
X0126334Y0129721D03*
X0126334Y0127753D03*
X0126334Y0125784D03*
X0126334Y0123816D03*
X0126334Y0121847D03*
X0126334Y0119879D03*
X0143066Y0119879D03*
X0143066Y0121847D03*
X0143066Y0123816D03*
X0143066Y0125784D03*
X0143066Y0127753D03*
X0143066Y0129721D03*
D29*
X0139621Y0133166D03*
X0137653Y0133166D03*
X0135684Y0133166D03*
X0133716Y0133166D03*
X0131747Y0133166D03*
X0129779Y0133166D03*
X0129779Y0116434D03*
X0131747Y0116434D03*
X0133716Y0116434D03*
X0135684Y0116434D03*
X0137653Y0116434D03*
X0139621Y0116434D03*
D30*
X0134700Y0124800D03*
D31*
X0115600Y0129706D03*
X0115600Y0117894D03*
D32*
X0180000Y0183800D02*
X0180000Y0189200D01*
X0190000Y0189200D02*
X0190000Y0183800D01*
D33*
X0187000Y0161500D03*
X0197000Y0161500D03*
X0177000Y0161500D03*
D34*
X0027375Y0174500D02*
X0022625Y0174500D01*
X0022625Y0184500D02*
X0027375Y0184500D01*
X0027375Y0194500D02*
X0022625Y0194500D01*
X0007375Y0194500D02*
X0002625Y0194500D01*
X0002625Y0174500D02*
X0007375Y0174500D01*
D35*
X0010000Y0140000D03*
X0020000Y0140000D03*
X0180000Y0140000D03*
X0190000Y0140000D03*
D36*
X0190000Y0130000D03*
X0190000Y0120000D03*
X0190000Y0110000D03*
X0190000Y0100000D03*
X0190000Y0090000D03*
X0190000Y0080000D03*
X0190000Y0070000D03*
X0190000Y0060000D03*
X0190000Y0050000D03*
X0180000Y0050000D03*
X0180000Y0060000D03*
X0180000Y0070000D03*
X0180000Y0080000D03*
X0180000Y0090000D03*
X0180000Y0100000D03*
X0180000Y0110000D03*
X0180000Y0120000D03*
X0180000Y0130000D03*
X0020000Y0130000D03*
X0010000Y0130000D03*
X0010000Y0120000D03*
X0010000Y0110000D03*
X0010000Y0100000D03*
X0010000Y0090000D03*
X0020000Y0090000D03*
X0020000Y0100000D03*
X0020000Y0110000D03*
X0020000Y0120000D03*
X0020000Y0080000D03*
X0020000Y0070000D03*
X0020000Y0060000D03*
X0020000Y0050000D03*
X0010000Y0050000D03*
X0010000Y0060000D03*
X0010000Y0070000D03*
X0010000Y0080000D03*
D37*
X0040000Y0126260D03*
X0040000Y0133740D03*
X0076000Y0133740D03*
X0076000Y0126260D03*
D38*
X-0013000Y0151500D02*
X-0013000Y0002000D01*
X0213000Y0002000D01*
X0213000Y0213000D01*
X0165000Y0213000D01*
X0165000Y0217151D01*
X0164450Y0217701D01*
X0164450Y0222299D01*
X0165000Y0222849D01*
X0165000Y0243050D01*
X0163229Y0243050D01*
X0163229Y0239273D01*
X0162468Y0238511D01*
X0153123Y0238511D01*
X0152361Y0239273D01*
X0152361Y0243050D01*
X0130000Y0243050D01*
X0130000Y0257000D01*
X0124687Y0257000D01*
X0124787Y0256900D01*
X0125900Y0255787D01*
X0125900Y0231037D01*
X0127037Y0229900D01*
X0148787Y0229900D01*
X0155837Y0222850D01*
X0156567Y0222850D01*
X0157614Y0222416D01*
X0158416Y0221614D01*
X0158850Y0220567D01*
X0158850Y0219433D01*
X0158416Y0218386D01*
X0157614Y0217584D01*
X0156567Y0217150D01*
X0156550Y0217150D01*
X0156550Y0212701D01*
X0153649Y0209800D01*
X0159746Y0209800D01*
X0160800Y0208746D01*
X0161696Y0207850D01*
X0162567Y0207850D01*
X0163614Y0207416D01*
X0164416Y0206614D01*
X0164850Y0205567D01*
X0164850Y0204652D01*
X0177152Y0192009D01*
X0177734Y0192591D01*
X0179204Y0193200D01*
X0180796Y0193200D01*
X0182266Y0192591D01*
X0183391Y0191466D01*
X0184000Y0189996D01*
X0184000Y0183004D01*
X0183391Y0181534D01*
X0182266Y0180409D01*
X0180796Y0179800D01*
X0179204Y0179800D01*
X0177734Y0180409D01*
X0176609Y0181534D01*
X0176000Y0183004D01*
X0176000Y0188030D01*
X0162262Y0202150D01*
X0161433Y0202150D01*
X0160386Y0202584D01*
X0159584Y0203386D01*
X0159150Y0204433D01*
X0159150Y0205304D01*
X0158254Y0206200D01*
X0129746Y0206200D01*
X0121746Y0198200D01*
X0104254Y0198200D01*
X0103200Y0199254D01*
X0102908Y0199546D01*
X0101920Y0200535D01*
X0101147Y0200535D01*
X0100385Y0201296D01*
X0100385Y0202300D01*
X0099296Y0202300D01*
X0098026Y0203570D01*
X0096520Y0203570D01*
X0096520Y0199613D01*
X0095759Y0198852D01*
X0094450Y0198852D01*
X0094450Y0198000D01*
X0099000Y0198000D01*
X0099000Y0178000D01*
X0100000Y0177000D01*
X0124000Y0177000D01*
X0124000Y0152000D01*
X0126000Y0150000D01*
X0144200Y0150000D01*
X0144200Y0157246D01*
X0145254Y0158300D01*
X0150254Y0163300D01*
X0174174Y0163300D01*
X0174202Y0163369D01*
X0175131Y0164298D01*
X0176344Y0164800D01*
X0177656Y0164800D01*
X0178869Y0164298D01*
X0179798Y0163369D01*
X0180300Y0162156D01*
X0180300Y0160844D01*
X0179798Y0159631D01*
X0178869Y0158702D01*
X0177656Y0158200D01*
X0176344Y0158200D01*
X0175131Y0158702D01*
X0174202Y0159631D01*
X0174174Y0159700D01*
X0151746Y0159700D01*
X0147800Y0155754D01*
X0147800Y0155593D01*
X0152731Y0155593D01*
X0153474Y0154850D01*
X0154567Y0154850D01*
X0155614Y0154416D01*
X0156416Y0153614D01*
X0156850Y0152567D01*
X0156850Y0151433D01*
X0156416Y0150386D01*
X0155614Y0149584D01*
X0154567Y0149150D01*
X0153433Y0149150D01*
X0153004Y0149328D01*
X0152838Y0149162D01*
X0153000Y0149000D01*
X0153000Y0148631D01*
X0153493Y0148138D01*
X0153493Y0143124D01*
X0153000Y0142631D01*
X0153000Y0138546D01*
X0154746Y0136800D01*
X0155800Y0135746D01*
X0155800Y0133465D01*
X0160161Y0133465D01*
X0160922Y0132704D01*
X0160922Y0127296D01*
X0160161Y0126535D01*
X0159449Y0126535D01*
X0159614Y0126466D01*
X0160416Y0125664D01*
X0160850Y0124617D01*
X0160850Y0123483D01*
X0160643Y0122983D01*
X0160922Y0122704D01*
X0160922Y0117296D01*
X0160161Y0116535D01*
X0155147Y0116535D01*
X0154385Y0117296D01*
X0154385Y0122569D01*
X0153650Y0123304D01*
X0150461Y0126494D01*
X0150416Y0126386D01*
X0149614Y0125584D01*
X0149153Y0125393D01*
X0153800Y0120746D01*
X0153800Y0111119D01*
X0154147Y0111465D01*
X0159161Y0111465D01*
X0159922Y0110704D01*
X0159922Y0105296D01*
X0159626Y0105000D01*
X0159922Y0104704D01*
X0159922Y0099296D01*
X0159626Y0099000D01*
X0159922Y0098704D01*
X0159922Y0093296D01*
X0159626Y0093000D01*
X0159922Y0092704D01*
X0159922Y0087296D01*
X0159626Y0087000D01*
X0159922Y0086704D01*
X0159922Y0081296D01*
X0159626Y0081000D01*
X0159922Y0080704D01*
X0159922Y0075296D01*
X0159161Y0074535D01*
X0154147Y0074535D01*
X0153385Y0075296D01*
X0153385Y0076200D01*
X0149254Y0076200D01*
X0148200Y0077254D01*
X0146200Y0079254D01*
X0146200Y0097000D01*
X0139453Y0097000D01*
X0139453Y0086615D01*
X0143704Y0086615D01*
X0144465Y0085853D01*
X0144465Y0080839D01*
X0143704Y0080078D01*
X0138296Y0080078D01*
X0137535Y0080839D01*
X0137535Y0081200D01*
X0137254Y0081200D01*
X0136908Y0081546D01*
X0136465Y0081546D01*
X0136465Y0080839D01*
X0135704Y0080078D01*
X0130296Y0080078D01*
X0129535Y0080839D01*
X0129535Y0085853D01*
X0130296Y0086615D01*
X0135704Y0086615D01*
X0135853Y0086466D01*
X0135853Y0097000D01*
X0131268Y0097000D01*
X0131268Y0094950D01*
X0130568Y0094249D01*
X0130850Y0093567D01*
X0130850Y0092433D01*
X0130416Y0091386D01*
X0129614Y0090584D01*
X0128567Y0090150D01*
X0127433Y0090150D01*
X0126386Y0090584D01*
X0125584Y0091386D01*
X0125150Y0092433D01*
X0125150Y0093567D01*
X0125432Y0094249D01*
X0124731Y0094950D01*
X0124731Y0097000D01*
X0113800Y0097000D01*
X0113800Y0080746D01*
X0116092Y0078454D01*
X0129535Y0078454D01*
X0129535Y0079161D01*
X0130296Y0079922D01*
X0135704Y0079922D01*
X0136465Y0079161D01*
X0136465Y0074147D01*
X0135704Y0073385D01*
X0130296Y0073385D01*
X0129535Y0074147D01*
X0129535Y0074854D01*
X0114601Y0074854D01*
X0111254Y0078200D01*
X0110200Y0079254D01*
X0110200Y0097000D01*
X0103000Y0097000D01*
X0103000Y0110881D01*
X0099493Y0110881D01*
X0098804Y0111570D01*
X0098804Y0105462D01*
X0098042Y0104700D01*
X0093422Y0104700D01*
X0092661Y0105462D01*
X0092661Y0111657D01*
X0093422Y0112418D01*
X0093932Y0112418D01*
X0093932Y0114522D01*
X0093454Y0115000D01*
X0089546Y0115000D01*
X0086800Y0112254D01*
X0086800Y0109254D01*
X0084305Y0106759D01*
X0083843Y0106759D01*
X0083843Y0105462D01*
X0083082Y0104700D01*
X0078462Y0104700D01*
X0077700Y0105462D01*
X0077700Y0109000D01*
X0063804Y0109000D01*
X0063804Y0106462D01*
X0063042Y0105700D01*
X0058422Y0105700D01*
X0057661Y0106462D01*
X0057661Y0109000D01*
X0050546Y0109000D01*
X0049305Y0107759D01*
X0048843Y0107759D01*
X0048843Y0106462D01*
X0048082Y0105700D01*
X0043462Y0105700D01*
X0042700Y0106462D01*
X0042700Y0109000D01*
X0036000Y0109000D01*
X0030000Y0115000D01*
X0029577Y0143795D01*
X0029300Y0144463D01*
X0029300Y0145537D01*
X0029542Y0146122D01*
X0029500Y0149000D01*
X0029500Y0151500D01*
X0023036Y0151500D01*
X0022500Y0150964D01*
X0022500Y0145000D01*
X0024238Y0145000D01*
X0025000Y0144238D01*
X0025000Y0135762D01*
X0024238Y0135000D01*
X0015762Y0135000D01*
X0015000Y0135762D01*
X0014238Y0135000D01*
X0005762Y0135000D01*
X0005000Y0135762D01*
X0005000Y0144238D01*
X0005762Y0145000D01*
X0014238Y0145000D01*
X0015000Y0144238D01*
X0015000Y0135762D01*
X0015000Y0144238D01*
X0015762Y0145000D01*
X0017500Y0145000D01*
X0017500Y0151500D01*
X-0013000Y0151500D01*
X-0013000Y0150775D02*
X0017500Y0150775D01*
X0017500Y0149777D02*
X-0013000Y0149777D01*
X-0013000Y0148778D02*
X0017500Y0148778D01*
X0017500Y0147780D02*
X-0013000Y0147780D01*
X-0013000Y0146781D02*
X0017500Y0146781D01*
X0017500Y0145783D02*
X-0013000Y0145783D01*
X-0013000Y0144784D02*
X0005546Y0144784D01*
X0005000Y0143786D02*
X-0013000Y0143786D01*
X-0013000Y0142787D02*
X0005000Y0142787D01*
X0005000Y0141789D02*
X-0013000Y0141789D01*
X-0013000Y0140790D02*
X0005000Y0140790D01*
X0005000Y0139792D02*
X-0013000Y0139792D01*
X-0013000Y0138793D02*
X0005000Y0138793D01*
X0005000Y0137795D02*
X-0013000Y0137795D01*
X-0013000Y0136796D02*
X0005000Y0136796D01*
X0005000Y0135798D02*
X-0013000Y0135798D01*
X-0013000Y0134799D02*
X0008520Y0134799D01*
X0009005Y0135000D02*
X0007168Y0134239D01*
X0005761Y0132832D01*
X0005000Y0130995D01*
X0005000Y0129005D01*
X0005761Y0127168D01*
X0007168Y0125761D01*
X0009005Y0125000D01*
X0010995Y0125000D01*
X0012832Y0125761D01*
X0014239Y0127168D01*
X0015000Y0129005D01*
X0015000Y0130995D01*
X0014239Y0132832D01*
X0012832Y0134239D01*
X0010995Y0135000D01*
X0009005Y0135000D01*
X0011480Y0134799D02*
X0029709Y0134799D01*
X0029724Y0133801D02*
X0013271Y0133801D01*
X0014251Y0132802D02*
X0029738Y0132802D01*
X0029753Y0131803D02*
X0014665Y0131803D01*
X0015000Y0130805D02*
X0029768Y0130805D01*
X0029782Y0129806D02*
X0015000Y0129806D01*
X0014918Y0128808D02*
X0029797Y0128808D01*
X0029812Y0127809D02*
X0014505Y0127809D01*
X0013882Y0126811D02*
X0029826Y0126811D01*
X0029841Y0125812D02*
X0012883Y0125812D01*
X0012832Y0124239D02*
X0010995Y0125000D01*
X0009005Y0125000D01*
X0007168Y0124239D01*
X0005761Y0122832D01*
X0005000Y0120995D01*
X0005000Y0119005D01*
X0005761Y0117168D01*
X0007168Y0115761D01*
X0009005Y0115000D01*
X0010995Y0115000D01*
X0012832Y0115761D01*
X0014239Y0117168D01*
X0015000Y0119005D01*
X0015000Y0120995D01*
X0014239Y0122832D01*
X0012832Y0124239D01*
X0013256Y0123815D02*
X0016744Y0123815D01*
X0017168Y0124239D02*
X0015761Y0122832D01*
X0015000Y0120995D01*
X0015000Y0119005D01*
X0015761Y0117168D01*
X0017168Y0115761D01*
X0019005Y0115000D01*
X0020995Y0115000D01*
X0022832Y0115761D01*
X0024239Y0117168D01*
X0025000Y0119005D01*
X0025000Y0120995D01*
X0024239Y0122832D01*
X0022832Y0124239D01*
X0020995Y0125000D01*
X0019005Y0125000D01*
X0017168Y0124239D01*
X0018556Y0124814D02*
X0011444Y0124814D01*
X0008556Y0124814D02*
X-0013000Y0124814D01*
X-0013000Y0125812D02*
X0007116Y0125812D01*
X0006118Y0126811D02*
X-0013000Y0126811D01*
X-0013000Y0127809D02*
X0005495Y0127809D01*
X0005082Y0128808D02*
X-0013000Y0128808D01*
X-0013000Y0129806D02*
X0005000Y0129806D01*
X0005000Y0130805D02*
X-0013000Y0130805D01*
X-0013000Y0131803D02*
X0005335Y0131803D01*
X0005749Y0132802D02*
X-0013000Y0132802D01*
X-0013000Y0133801D02*
X0006729Y0133801D01*
X0015000Y0135798D02*
X0015000Y0135798D01*
X0015000Y0136796D02*
X0015000Y0136796D01*
X0015000Y0137795D02*
X0015000Y0137795D01*
X0015000Y0138793D02*
X0015000Y0138793D01*
X0015000Y0139792D02*
X0015000Y0139792D01*
X0015000Y0140790D02*
X0015000Y0140790D01*
X0015000Y0141789D02*
X0015000Y0141789D01*
X0015000Y0142787D02*
X0015000Y0142787D01*
X0015000Y0143786D02*
X0015000Y0143786D01*
X0014454Y0144784D02*
X0015546Y0144784D01*
X0022500Y0145783D02*
X0029402Y0145783D01*
X0029300Y0144784D02*
X0024454Y0144784D01*
X0025000Y0143786D02*
X0029577Y0143786D01*
X0029591Y0142787D02*
X0025000Y0142787D01*
X0025000Y0141789D02*
X0029606Y0141789D01*
X0029621Y0140790D02*
X0025000Y0140790D01*
X0025000Y0139792D02*
X0029635Y0139792D01*
X0029650Y0138793D02*
X0025000Y0138793D01*
X0025000Y0137795D02*
X0029665Y0137795D01*
X0029679Y0136796D02*
X0025000Y0136796D01*
X0025000Y0135798D02*
X0029694Y0135798D01*
X0032000Y0137500D02*
X0032000Y0147000D01*
X0052000Y0147000D01*
X0052000Y0136000D01*
X0033500Y0136000D01*
X0032000Y0137500D01*
X0032000Y0137795D02*
X0052000Y0137795D01*
X0052063Y0138000D02*
X0051598Y0138465D01*
X0052000Y0138793D02*
X0032000Y0138793D01*
X0032000Y0139792D02*
X0052000Y0139792D01*
X0052063Y0139937D02*
X0049000Y0143000D01*
X0049000Y0145654D01*
X0052000Y0145783D02*
X0032000Y0145783D01*
X0032000Y0146781D02*
X0052000Y0146781D01*
X0052000Y0144784D02*
X0032000Y0144784D01*
X0032000Y0143786D02*
X0052000Y0143786D01*
X0052000Y0142787D02*
X0032000Y0142787D01*
X0032000Y0141789D02*
X0052000Y0141789D01*
X0052000Y0140790D02*
X0032000Y0140790D01*
X0032704Y0136796D02*
X0052000Y0136796D01*
X0052063Y0135807D02*
X0052063Y0138000D01*
X0052063Y0138937D01*
X0045000Y0146000D01*
X0037000Y0146000D01*
X0036000Y0145000D01*
X0031000Y0149000D02*
X0031000Y0155500D01*
X0060819Y0155500D01*
X0060165Y0154846D01*
X0060165Y0149832D01*
X0060926Y0149070D01*
X0066334Y0149070D01*
X0067095Y0149832D01*
X0067095Y0150239D01*
X0068219Y0150239D01*
X0068433Y0150150D01*
X0069567Y0150150D01*
X0070000Y0150329D01*
X0070000Y0143000D01*
X0068000Y0141000D01*
X0068000Y0133000D01*
X0071747Y0133000D01*
X0071747Y0130643D01*
X0072390Y0130000D01*
X0071747Y0129357D01*
X0071747Y0127000D01*
X0062024Y0127000D01*
X0062024Y0127076D01*
X0063903Y0127076D01*
X0064780Y0127953D01*
X0064780Y0129882D01*
X0064662Y0130000D01*
X0064780Y0130118D01*
X0064780Y0132047D01*
X0063903Y0132924D01*
X0062024Y0132924D01*
X0062024Y0133787D01*
X0061788Y0134023D01*
X0061788Y0134971D01*
X0061837Y0135020D01*
X0061837Y0135150D01*
X0062567Y0135150D01*
X0063614Y0135584D01*
X0064416Y0136386D01*
X0064850Y0137433D01*
X0064850Y0138567D01*
X0064416Y0139614D01*
X0063614Y0140416D01*
X0062567Y0140850D01*
X0061433Y0140850D01*
X0060768Y0140575D01*
X0060768Y0142022D01*
X0060774Y0142529D01*
X0060926Y0142377D01*
X0066334Y0142377D01*
X0067095Y0143139D01*
X0067095Y0148153D01*
X0066334Y0148914D01*
X0060926Y0148914D01*
X0060332Y0148320D01*
X0059718Y0148934D01*
X0058000Y0148934D01*
X0058000Y0149000D01*
X0051626Y0149000D01*
X0051507Y0149119D01*
X0046493Y0149119D01*
X0046374Y0149000D01*
X0031000Y0149000D01*
X0031000Y0149777D02*
X0060219Y0149777D01*
X0060165Y0150775D02*
X0031000Y0150775D01*
X0031000Y0151774D02*
X0060165Y0151774D01*
X0060165Y0152772D02*
X0031000Y0152772D01*
X0031000Y0153771D02*
X0060165Y0153771D01*
X0060165Y0154769D02*
X0031000Y0154769D01*
X0029500Y0150775D02*
X0022500Y0150775D01*
X0022500Y0149777D02*
X0029500Y0149777D01*
X0029503Y0148778D02*
X0022500Y0148778D01*
X0022500Y0147780D02*
X0029518Y0147780D01*
X0029533Y0146781D02*
X0022500Y0146781D01*
X0036500Y0160500D02*
X0036500Y0163000D01*
X0056000Y0184000D01*
X0083500Y0184000D01*
X0086000Y0181500D01*
X0086000Y0151000D01*
X0086100Y0150900D01*
X0086100Y0149119D01*
X0081881Y0149119D01*
X0081000Y0150000D01*
X0081000Y0156000D01*
X0078000Y0159500D01*
X0076500Y0161000D01*
X0036500Y0160500D01*
X0036500Y0160760D02*
X0057326Y0160760D01*
X0059874Y0148778D02*
X0060790Y0148778D01*
X0059000Y0145000D02*
X0057000Y0145651D01*
X0057014Y0145665D01*
X0065110Y0145665D01*
X0063630Y0145646D01*
X0067095Y0145783D02*
X0070000Y0145783D01*
X0070000Y0146781D02*
X0067095Y0146781D01*
X0067095Y0147780D02*
X0070000Y0147780D01*
X0070000Y0148778D02*
X0066470Y0148778D01*
X0067040Y0149777D02*
X0070000Y0149777D01*
X0073000Y0149777D02*
X0079000Y0149777D01*
X0079000Y0149000D02*
X0081000Y0147000D01*
X0083000Y0147000D01*
X0085000Y0145000D01*
X0085000Y0142000D01*
X0087000Y0140000D01*
X0087000Y0135000D01*
X0071000Y0135000D01*
X0071000Y0140000D01*
X0073000Y0142000D01*
X0073000Y0154000D01*
X0069000Y0158000D01*
X0069000Y0159000D01*
X0075000Y0159000D01*
X0079000Y0155000D01*
X0079000Y0149000D01*
X0079222Y0148778D02*
X0073000Y0148778D01*
X0073000Y0147780D02*
X0080220Y0147780D01*
X0081223Y0149777D02*
X0086100Y0149777D01*
X0086100Y0150775D02*
X0081000Y0150775D01*
X0081000Y0151774D02*
X0086000Y0151774D01*
X0086000Y0152772D02*
X0081000Y0152772D01*
X0081000Y0153771D02*
X0086000Y0153771D01*
X0086000Y0154769D02*
X0081000Y0154769D01*
X0081000Y0155768D02*
X0086000Y0155768D01*
X0086000Y0156766D02*
X0080343Y0156766D01*
X0079487Y0157765D02*
X0086000Y0157765D01*
X0086000Y0158763D02*
X0078631Y0158763D01*
X0077738Y0159762D02*
X0086000Y0159762D01*
X0086000Y0160760D02*
X0076740Y0160760D01*
X0075237Y0158763D02*
X0069000Y0158763D01*
X0069235Y0157765D02*
X0076235Y0157765D01*
X0077234Y0156766D02*
X0070234Y0156766D01*
X0071232Y0155768D02*
X0078232Y0155768D01*
X0079000Y0154769D02*
X0072231Y0154769D01*
X0073000Y0153771D02*
X0079000Y0153771D01*
X0079000Y0152772D02*
X0073000Y0152772D01*
X0073000Y0151774D02*
X0079000Y0151774D01*
X0079000Y0150775D02*
X0073000Y0150775D01*
X0073000Y0146781D02*
X0083219Y0146781D01*
X0084000Y0146000D02*
X0083950Y0145950D01*
X0083950Y0145654D01*
X0084217Y0145783D02*
X0073000Y0145783D01*
X0073000Y0144784D02*
X0085000Y0144784D01*
X0085000Y0143786D02*
X0073000Y0143786D01*
X0073000Y0142787D02*
X0085000Y0142787D01*
X0085211Y0141789D02*
X0072789Y0141789D01*
X0071790Y0140790D02*
X0086210Y0140790D01*
X0087000Y0139792D02*
X0071000Y0139792D01*
X0071000Y0138793D02*
X0087000Y0138793D01*
X0087063Y0138937D02*
X0084000Y0142000D01*
X0084000Y0146000D01*
X0089900Y0148905D02*
X0089900Y0149061D01*
X0094712Y0149061D01*
X0095473Y0149822D01*
X0095473Y0150000D01*
X0096000Y0150000D01*
X0097000Y0151000D01*
X0097000Y0167000D01*
X0098000Y0168000D01*
X0105651Y0168000D01*
X0103450Y0165799D01*
X0103450Y0161201D01*
X0104967Y0159684D01*
X0104567Y0159850D01*
X0103433Y0159850D01*
X0102386Y0159416D01*
X0101584Y0158614D01*
X0101150Y0157567D01*
X0101150Y0156433D01*
X0101550Y0155468D01*
X0100935Y0154853D01*
X0100935Y0149839D01*
X0101696Y0149078D01*
X0106900Y0149078D01*
X0106900Y0148922D01*
X0101696Y0148922D01*
X0101220Y0148446D01*
X0100711Y0148955D01*
X0095303Y0148955D01*
X0094982Y0148634D01*
X0094712Y0148905D01*
X0089900Y0148905D01*
X0092008Y0145636D02*
X0092000Y0145628D01*
X0092000Y0142000D01*
X0092969Y0141031D01*
X0092969Y0135807D01*
X0096788Y0134971D02*
X0096837Y0135020D01*
X0096837Y0135150D01*
X0097567Y0135150D01*
X0098614Y0135584D01*
X0099416Y0136386D01*
X0099850Y0137433D01*
X0099850Y0138163D01*
X0104072Y0142385D01*
X0107104Y0142385D01*
X0107865Y0143147D01*
X0107865Y0146165D01*
X0113762Y0140268D01*
X0113343Y0140268D01*
X0112581Y0139507D01*
X0112581Y0134493D01*
X0113343Y0133731D01*
X0113946Y0133731D01*
X0113946Y0133368D01*
X0111912Y0133368D01*
X0111150Y0132606D01*
X0111150Y0126805D01*
X0111912Y0126043D01*
X0116717Y0126043D01*
X0116807Y0125953D01*
X0123736Y0125953D01*
X0123827Y0125862D01*
X0128841Y0125862D01*
X0129602Y0126624D01*
X0129602Y0129898D01*
X0139798Y0129898D01*
X0139798Y0126624D01*
X0140559Y0125862D01*
X0145573Y0125862D01*
X0145664Y0125953D01*
X0146017Y0125953D01*
X0146354Y0125616D01*
X0145664Y0125616D01*
X0145573Y0125706D01*
X0140559Y0125706D01*
X0139798Y0124945D01*
X0139798Y0121000D01*
X0129602Y0121000D01*
X0129602Y0122976D01*
X0128841Y0123738D01*
X0123827Y0123738D01*
X0123736Y0123647D01*
X0122102Y0123647D01*
X0121254Y0122800D01*
X0119650Y0121195D01*
X0119288Y0121557D01*
X0111912Y0121557D01*
X0111355Y0121000D01*
X0100030Y0121000D01*
X0099614Y0121416D01*
X0098567Y0121850D01*
X0097433Y0121850D01*
X0097157Y0121735D01*
X0096837Y0122055D01*
X0096837Y0124980D01*
X0096788Y0125029D01*
X0096788Y0125977D01*
X0097024Y0126213D01*
X0097024Y0127076D01*
X0098903Y0127076D01*
X0099780Y0127953D01*
X0099780Y0129882D01*
X0099662Y0130000D01*
X0099780Y0130118D01*
X0099780Y0132047D01*
X0098903Y0132924D01*
X0097024Y0132924D01*
X0097024Y0133787D01*
X0096788Y0134023D01*
X0096788Y0134971D01*
X0096788Y0134799D02*
X0112581Y0134799D01*
X0112581Y0135798D02*
X0098828Y0135798D01*
X0099586Y0136796D02*
X0112581Y0136796D01*
X0112581Y0137795D02*
X0099850Y0137795D01*
X0100480Y0138793D02*
X0112581Y0138793D01*
X0112866Y0139792D02*
X0101479Y0139792D01*
X0102477Y0140790D02*
X0113240Y0140790D01*
X0112242Y0141789D02*
X0103476Y0141789D01*
X0107506Y0142787D02*
X0111243Y0142787D01*
X0110245Y0143786D02*
X0107865Y0143786D01*
X0107865Y0144784D02*
X0109246Y0144784D01*
X0108248Y0145783D02*
X0107865Y0145783D01*
X0101552Y0148778D02*
X0100887Y0148778D01*
X0100997Y0149777D02*
X0095428Y0149777D01*
X0095127Y0148778D02*
X0094838Y0148778D01*
X0096775Y0150775D02*
X0100935Y0150775D01*
X0100935Y0151774D02*
X0097000Y0151774D01*
X0097000Y0152772D02*
X0100935Y0152772D01*
X0100935Y0153771D02*
X0097000Y0153771D01*
X0097000Y0154769D02*
X0100935Y0154769D01*
X0101426Y0155768D02*
X0097000Y0155768D01*
X0097000Y0156766D02*
X0101150Y0156766D01*
X0101232Y0157765D02*
X0097000Y0157765D01*
X0097000Y0158763D02*
X0101733Y0158763D01*
X0103220Y0159762D02*
X0097000Y0159762D01*
X0097000Y0160760D02*
X0103891Y0160760D01*
X0103450Y0161759D02*
X0097000Y0161759D01*
X0097000Y0162757D02*
X0103450Y0162757D01*
X0103450Y0163756D02*
X0097000Y0163756D01*
X0097000Y0164754D02*
X0103450Y0164754D01*
X0103450Y0165753D02*
X0097000Y0165753D01*
X0097000Y0166751D02*
X0104403Y0166751D01*
X0105401Y0167750D02*
X0097750Y0167750D01*
X0099265Y0177735D02*
X0213000Y0177735D01*
X0213000Y0176737D02*
X0124000Y0176737D01*
X0124000Y0175738D02*
X0213000Y0175738D01*
X0213000Y0174739D02*
X0124000Y0174739D01*
X0124000Y0173741D02*
X0213000Y0173741D01*
X0213000Y0172742D02*
X0124000Y0172742D01*
X0124000Y0171744D02*
X0213000Y0171744D01*
X0213000Y0170745D02*
X0124000Y0170745D01*
X0124000Y0169747D02*
X0213000Y0169747D01*
X0213000Y0168748D02*
X0124000Y0168748D01*
X0124000Y0167750D02*
X0213000Y0167750D01*
X0213000Y0166751D02*
X0124000Y0166751D01*
X0124000Y0165753D02*
X0213000Y0165753D01*
X0213000Y0164754D02*
X0177767Y0164754D01*
X0176233Y0164754D02*
X0124000Y0164754D01*
X0124000Y0163756D02*
X0174589Y0163756D01*
X0177000Y0161500D02*
X0151000Y0161500D01*
X0146000Y0156500D01*
X0146000Y0146000D01*
X0145626Y0145626D01*
X0142017Y0145626D01*
X0135684Y0139293D01*
X0135684Y0133166D01*
X0133716Y0133166D02*
X0133716Y0145369D01*
X0134000Y0145654D01*
X0142017Y0145626D02*
X0150022Y0145626D01*
X0150028Y0145631D01*
X0153493Y0145783D02*
X0155854Y0145783D01*
X0155854Y0146781D02*
X0153493Y0146781D01*
X0153493Y0147780D02*
X0155854Y0147780D01*
X0155854Y0148399D02*
X0155854Y0143465D01*
X0155147Y0143465D01*
X0154385Y0142704D01*
X0154385Y0137296D01*
X0155147Y0136535D01*
X0160161Y0136535D01*
X0160922Y0137296D01*
X0160922Y0142704D01*
X0160161Y0143465D01*
X0159454Y0143465D01*
X0159454Y0146908D01*
X0161696Y0149150D01*
X0162567Y0149150D01*
X0163614Y0149584D01*
X0164416Y0150386D01*
X0164850Y0151433D01*
X0164850Y0152567D01*
X0164416Y0153614D01*
X0163614Y0154416D01*
X0162567Y0154850D01*
X0161433Y0154850D01*
X0160386Y0154416D01*
X0159584Y0153614D01*
X0159150Y0152567D01*
X0159150Y0151696D01*
X0155854Y0148399D01*
X0156233Y0148778D02*
X0153000Y0148778D01*
X0155807Y0149777D02*
X0157231Y0149777D01*
X0156577Y0150775D02*
X0158230Y0150775D01*
X0159150Y0151774D02*
X0156850Y0151774D01*
X0156765Y0152772D02*
X0159235Y0152772D01*
X0159740Y0153771D02*
X0156260Y0153771D01*
X0154762Y0154769D02*
X0161238Y0154769D01*
X0162762Y0154769D02*
X0213000Y0154769D01*
X0213000Y0153771D02*
X0164260Y0153771D01*
X0164765Y0152772D02*
X0213000Y0152772D01*
X0213000Y0151774D02*
X0164850Y0151774D01*
X0164577Y0150775D02*
X0213000Y0150775D01*
X0213000Y0149777D02*
X0163807Y0149777D01*
X0161324Y0148778D02*
X0213000Y0148778D01*
X0213000Y0147780D02*
X0160325Y0147780D01*
X0159454Y0146781D02*
X0213000Y0146781D01*
X0213000Y0145783D02*
X0159454Y0145783D01*
X0159454Y0144784D02*
X0175546Y0144784D01*
X0175762Y0145000D02*
X0175000Y0144238D01*
X0175000Y0141800D01*
X0167615Y0141800D01*
X0167615Y0142704D01*
X0166853Y0143465D01*
X0161839Y0143465D01*
X0161078Y0142704D01*
X0161078Y0137296D01*
X0161839Y0136535D01*
X0166853Y0136535D01*
X0167615Y0137296D01*
X0167615Y0138200D01*
X0175000Y0138200D01*
X0175000Y0135762D01*
X0175762Y0135000D01*
X0184238Y0135000D01*
X0185000Y0135762D01*
X0185000Y0144238D01*
X0184238Y0145000D01*
X0175762Y0145000D01*
X0175000Y0143786D02*
X0159454Y0143786D01*
X0160839Y0142787D02*
X0161161Y0142787D01*
X0161078Y0141789D02*
X0160922Y0141789D01*
X0160922Y0140790D02*
X0161078Y0140790D01*
X0161078Y0139792D02*
X0160922Y0139792D01*
X0160922Y0138793D02*
X0161078Y0138793D01*
X0161078Y0137795D02*
X0160922Y0137795D01*
X0160422Y0136796D02*
X0161578Y0136796D01*
X0161839Y0133465D02*
X0161078Y0132704D01*
X0161078Y0127296D01*
X0161839Y0126535D01*
X0166853Y0126535D01*
X0167615Y0127296D01*
X0167615Y0128200D01*
X0175334Y0128200D01*
X0175761Y0127168D01*
X0177168Y0125761D01*
X0179005Y0125000D01*
X0177168Y0124239D01*
X0175761Y0122832D01*
X0175334Y0121800D01*
X0167615Y0121800D01*
X0167615Y0122704D01*
X0166853Y0123465D01*
X0161839Y0123465D01*
X0161078Y0122704D01*
X0161078Y0117296D01*
X0161839Y0116535D01*
X0166853Y0116535D01*
X0167615Y0117296D01*
X0167615Y0118200D01*
X0175334Y0118200D01*
X0175761Y0117168D01*
X0177168Y0115761D01*
X0179005Y0115000D01*
X0180995Y0115000D01*
X0182832Y0115761D01*
X0184239Y0117168D01*
X0185000Y0119005D01*
X0185000Y0120995D01*
X0184239Y0122832D01*
X0182832Y0124239D01*
X0180995Y0125000D01*
X0179005Y0125000D01*
X0180995Y0125000D01*
X0182832Y0125761D01*
X0184239Y0127168D01*
X0185000Y0129005D01*
X0185761Y0127168D01*
X0187168Y0125761D01*
X0189005Y0125000D01*
X0190995Y0125000D01*
X0192832Y0125761D01*
X0194239Y0127168D01*
X0195000Y0129005D01*
X0195000Y0130995D01*
X0194239Y0132832D01*
X0192832Y0134239D01*
X0190995Y0135000D01*
X0189005Y0135000D01*
X0187168Y0134239D01*
X0185761Y0132832D01*
X0185000Y0130995D01*
X0185000Y0129005D01*
X0185000Y0130995D01*
X0184239Y0132832D01*
X0182832Y0134239D01*
X0180995Y0135000D01*
X0179005Y0135000D01*
X0177168Y0134239D01*
X0175761Y0132832D01*
X0175334Y0131800D01*
X0167615Y0131800D01*
X0167615Y0132704D01*
X0166853Y0133465D01*
X0161839Y0133465D01*
X0161176Y0132802D02*
X0160824Y0132802D01*
X0160922Y0131803D02*
X0161078Y0131803D01*
X0161078Y0130805D02*
X0160922Y0130805D01*
X0160922Y0129806D02*
X0161078Y0129806D01*
X0161078Y0128808D02*
X0160922Y0128808D01*
X0160922Y0127809D02*
X0161078Y0127809D01*
X0161563Y0126811D02*
X0160437Y0126811D01*
X0160268Y0125812D02*
X0177116Y0125812D01*
X0176118Y0126811D02*
X0167130Y0126811D01*
X0167615Y0127809D02*
X0175495Y0127809D01*
X0175335Y0131803D02*
X0167615Y0131803D01*
X0167517Y0132802D02*
X0175749Y0132802D01*
X0176729Y0133801D02*
X0155800Y0133801D01*
X0155800Y0134799D02*
X0178520Y0134799D01*
X0181480Y0134799D02*
X0188520Y0134799D01*
X0186729Y0133801D02*
X0183271Y0133801D01*
X0184251Y0132802D02*
X0185749Y0132802D01*
X0185335Y0131803D02*
X0184665Y0131803D01*
X0185000Y0130805D02*
X0185000Y0130805D01*
X0185000Y0129806D02*
X0185000Y0129806D01*
X0184918Y0128808D02*
X0185082Y0128808D01*
X0185495Y0127809D02*
X0184505Y0127809D01*
X0183882Y0126811D02*
X0186118Y0126811D01*
X0187116Y0125812D02*
X0182883Y0125812D01*
X0181444Y0124814D02*
X0188556Y0124814D01*
X0189005Y0125000D02*
X0187168Y0124239D01*
X0185761Y0122832D01*
X0185000Y0120995D01*
X0185000Y0119005D01*
X0185761Y0117168D01*
X0187168Y0115761D01*
X0189005Y0115000D01*
X0190995Y0115000D01*
X0192832Y0115761D01*
X0194239Y0117168D01*
X0195000Y0119005D01*
X0195000Y0120995D01*
X0194239Y0122832D01*
X0192832Y0124239D01*
X0190995Y0125000D01*
X0189005Y0125000D01*
X0191444Y0124814D02*
X0213000Y0124814D01*
X0213000Y0125812D02*
X0192883Y0125812D01*
X0193882Y0126811D02*
X0213000Y0126811D01*
X0213000Y0127809D02*
X0194505Y0127809D01*
X0194918Y0128808D02*
X0213000Y0128808D01*
X0213000Y0129806D02*
X0195000Y0129806D01*
X0195000Y0130805D02*
X0213000Y0130805D01*
X0213000Y0131803D02*
X0194665Y0131803D01*
X0194251Y0132802D02*
X0213000Y0132802D01*
X0213000Y0133801D02*
X0193271Y0133801D01*
X0191480Y0134799D02*
X0213000Y0134799D01*
X0213000Y0135798D02*
X0185000Y0135798D01*
X0185000Y0136796D02*
X0213000Y0136796D01*
X0213000Y0137795D02*
X0185000Y0137795D01*
X0185000Y0138793D02*
X0213000Y0138793D01*
X0213000Y0139792D02*
X0185000Y0139792D01*
X0185000Y0140790D02*
X0213000Y0140790D01*
X0213000Y0141789D02*
X0185000Y0141789D01*
X0185000Y0142787D02*
X0213000Y0142787D01*
X0213000Y0143786D02*
X0185000Y0143786D01*
X0184454Y0144784D02*
X0213000Y0144784D01*
X0213000Y0155768D02*
X0147813Y0155768D01*
X0148812Y0156766D02*
X0213000Y0156766D01*
X0213000Y0157765D02*
X0149810Y0157765D01*
X0150809Y0158763D02*
X0175070Y0158763D01*
X0178930Y0158763D02*
X0213000Y0158763D01*
X0213000Y0159762D02*
X0179852Y0159762D01*
X0180265Y0160760D02*
X0213000Y0160760D01*
X0213000Y0161759D02*
X0180300Y0161759D01*
X0180051Y0162757D02*
X0213000Y0162757D01*
X0213000Y0163756D02*
X0179411Y0163756D01*
X0177413Y0180731D02*
X0099000Y0180731D01*
X0099000Y0181729D02*
X0176528Y0181729D01*
X0176115Y0182728D02*
X0099000Y0182728D01*
X0099000Y0183726D02*
X0176000Y0183726D01*
X0176000Y0184725D02*
X0099000Y0184725D01*
X0099000Y0185723D02*
X0176000Y0185723D01*
X0176000Y0186722D02*
X0099000Y0186722D01*
X0099000Y0187720D02*
X0176000Y0187720D01*
X0175330Y0188719D02*
X0099000Y0188719D01*
X0099000Y0189717D02*
X0174358Y0189717D01*
X0173387Y0190716D02*
X0099000Y0190716D01*
X0099000Y0191714D02*
X0172415Y0191714D01*
X0171444Y0192713D02*
X0099000Y0192713D01*
X0099000Y0193711D02*
X0170472Y0193711D01*
X0169501Y0194710D02*
X0099000Y0194710D01*
X0099000Y0195708D02*
X0168529Y0195708D01*
X0167558Y0196707D02*
X0099000Y0196707D01*
X0099000Y0197705D02*
X0166586Y0197705D01*
X0165615Y0198704D02*
X0122249Y0198704D01*
X0123248Y0199702D02*
X0164643Y0199702D01*
X0163672Y0200701D02*
X0124246Y0200701D01*
X0125245Y0201699D02*
X0162700Y0201699D01*
X0160272Y0202698D02*
X0126243Y0202698D01*
X0127242Y0203696D02*
X0159455Y0203696D01*
X0159150Y0204695D02*
X0128240Y0204695D01*
X0129239Y0205693D02*
X0158761Y0205693D01*
X0159000Y0208000D02*
X0129000Y0208000D01*
X0121000Y0200000D01*
X0105000Y0200000D01*
X0103654Y0201346D01*
X0103654Y0204000D01*
X0106922Y0203696D02*
X0107078Y0203696D01*
X0107078Y0202698D02*
X0106922Y0202698D01*
X0106922Y0201800D02*
X0106922Y0206704D01*
X0106161Y0207465D01*
X0101147Y0207465D01*
X0100385Y0206704D01*
X0100385Y0206019D01*
X0099434Y0206970D01*
X0097374Y0206970D01*
X0098554Y0208150D01*
X0099567Y0208150D01*
X0100385Y0208489D01*
X0100385Y0208296D01*
X0101147Y0207535D01*
X0106161Y0207535D01*
X0106922Y0208296D01*
X0106922Y0213704D01*
X0106161Y0214465D01*
X0101147Y0214465D01*
X0100385Y0213704D01*
X0100385Y0213511D01*
X0099567Y0213850D01*
X0098433Y0213850D01*
X0097386Y0213416D01*
X0096584Y0212614D01*
X0096150Y0211567D01*
X0096150Y0210554D01*
X0095716Y0210120D01*
X0092941Y0210120D01*
X0092935Y0210113D01*
X0091532Y0210113D01*
X0090771Y0209352D01*
X0090771Y0203475D01*
X0090446Y0203150D01*
X0089450Y0202154D01*
X0089450Y0198000D01*
X0080000Y0198000D01*
X0080000Y0202000D01*
X0079198Y0201989D01*
X0079198Y0204627D01*
X0078555Y0205270D01*
X0079198Y0205913D01*
X0079198Y0209352D01*
X0078436Y0210113D01*
X0077033Y0210113D01*
X0077027Y0210120D01*
X0076700Y0210120D01*
X0076700Y0216205D01*
X0077614Y0216584D01*
X0078416Y0217386D01*
X0078850Y0218433D01*
X0078850Y0219567D01*
X0078416Y0220614D01*
X0077614Y0221416D01*
X0076567Y0221850D01*
X0075433Y0221850D01*
X0074386Y0221416D01*
X0073584Y0220614D01*
X0073150Y0219567D01*
X0073150Y0218433D01*
X0073300Y0218071D01*
X0073300Y0217546D01*
X0072567Y0217850D01*
X0071433Y0217850D01*
X0070386Y0217416D01*
X0069584Y0216614D01*
X0069150Y0215567D01*
X0069150Y0214433D01*
X0069584Y0213386D01*
X0070300Y0212669D01*
X0070300Y0207296D01*
X0071296Y0206300D01*
X0072451Y0205145D01*
X0073965Y0205145D01*
X0073448Y0204627D01*
X0073448Y0203820D01*
X0072416Y0203820D01*
X0070460Y0201864D01*
X0070268Y0201861D01*
X0070268Y0203357D01*
X0069507Y0204119D01*
X0064900Y0204119D01*
X0064900Y0217869D01*
X0065416Y0218386D01*
X0065850Y0219433D01*
X0065850Y0220567D01*
X0065416Y0221614D01*
X0064614Y0222416D01*
X0063567Y0222850D01*
X0062433Y0222850D01*
X0061386Y0222416D01*
X0060584Y0221614D01*
X0060150Y0220567D01*
X0060150Y0219433D01*
X0060584Y0218386D01*
X0061100Y0217869D01*
X0061100Y0203526D01*
X0060507Y0204119D01*
X0055493Y0204119D01*
X0054731Y0203357D01*
X0054731Y0201639D01*
X0045000Y0201500D01*
X0045000Y0239000D01*
X0043000Y0241000D01*
X0028000Y0241000D01*
X0027000Y0240000D01*
X0027000Y0208000D01*
X0025000Y0206000D01*
X0001000Y0206000D01*
X-0002000Y0209000D01*
X-0002000Y0257000D01*
X0012165Y0257000D01*
X0012165Y0242674D01*
X0012926Y0241913D01*
X0020302Y0241913D01*
X0021064Y0242674D01*
X0021064Y0257000D01*
X0038936Y0257000D01*
X0038936Y0242674D01*
X0039698Y0241913D01*
X0047074Y0241913D01*
X0047835Y0242674D01*
X0047835Y0257000D01*
X0083877Y0257000D01*
X0083868Y0256991D01*
X0083868Y0250009D01*
X0084629Y0249247D01*
X0091612Y0249247D01*
X0091939Y0249574D01*
X0091939Y0248631D01*
X0092700Y0247869D01*
X0097320Y0247869D01*
X0098082Y0248631D01*
X0098082Y0249574D01*
X0098409Y0249247D01*
X0105391Y0249247D01*
X0106153Y0250009D01*
X0106153Y0251600D01*
X0115713Y0251600D01*
X0116778Y0250535D01*
X0116778Y0225456D01*
X0116171Y0225456D01*
X0115410Y0224695D01*
X0115410Y0219287D01*
X0116171Y0218526D01*
X0121185Y0218526D01*
X0121947Y0219287D01*
X0121947Y0224695D01*
X0121185Y0225456D01*
X0120578Y0225456D01*
X0120578Y0252109D01*
X0119465Y0253222D01*
X0118400Y0254287D01*
X0117287Y0255400D01*
X0106153Y0255400D01*
X0106153Y0256100D01*
X0120213Y0256100D01*
X0122100Y0254213D01*
X0122100Y0229463D01*
X0124350Y0227213D01*
X0125463Y0226100D01*
X0147213Y0226100D01*
X0152763Y0220550D01*
X0148701Y0220550D01*
X0148419Y0220268D01*
X0145909Y0222778D01*
X0144796Y0223891D01*
X0128640Y0223891D01*
X0128640Y0224695D01*
X0127878Y0225456D01*
X0122864Y0225456D01*
X0122103Y0224695D01*
X0122103Y0219287D01*
X0122864Y0218526D01*
X0127878Y0218526D01*
X0128640Y0219287D01*
X0128640Y0220091D01*
X0143222Y0220091D01*
X0145732Y0217581D01*
X0145450Y0217299D01*
X0145450Y0212701D01*
X0148351Y0209800D01*
X0128254Y0209800D01*
X0120254Y0201800D01*
X0113615Y0201800D01*
X0113615Y0206704D01*
X0112853Y0207465D01*
X0112246Y0207465D01*
X0112246Y0207535D01*
X0112853Y0207535D01*
X0113615Y0208296D01*
X0113615Y0213704D01*
X0112853Y0214465D01*
X0112246Y0214465D01*
X0112246Y0221441D01*
X0110850Y0222837D01*
X0110850Y0223567D01*
X0110416Y0224614D01*
X0109614Y0225416D01*
X0108567Y0225850D01*
X0107433Y0225850D01*
X0106386Y0225416D01*
X0105584Y0224614D01*
X0105150Y0223567D01*
X0105150Y0222433D01*
X0105584Y0221386D01*
X0106386Y0220584D01*
X0107433Y0220150D01*
X0108163Y0220150D01*
X0108446Y0219867D01*
X0108446Y0214465D01*
X0107839Y0214465D01*
X0107078Y0213704D01*
X0107078Y0208296D01*
X0107839Y0207535D01*
X0108446Y0207535D01*
X0108446Y0207465D01*
X0107839Y0207465D01*
X0107078Y0206704D01*
X0107078Y0201800D01*
X0106922Y0201800D01*
X0106922Y0204695D02*
X0107078Y0204695D01*
X0107078Y0205693D02*
X0106922Y0205693D01*
X0106922Y0206692D02*
X0107078Y0206692D01*
X0107684Y0207690D02*
X0106316Y0207690D01*
X0106922Y0208689D02*
X0107078Y0208689D01*
X0107078Y0209687D02*
X0106922Y0209687D01*
X0106922Y0210686D02*
X0107078Y0210686D01*
X0107078Y0211684D02*
X0106922Y0211684D01*
X0106922Y0212683D02*
X0107078Y0212683D01*
X0107078Y0213681D02*
X0106922Y0213681D01*
X0108446Y0214680D02*
X0076700Y0214680D01*
X0076700Y0215678D02*
X0108446Y0215678D01*
X0108446Y0216677D02*
X0077707Y0216677D01*
X0078536Y0217675D02*
X0108446Y0217675D01*
X0108446Y0218674D02*
X0078850Y0218674D01*
X0078806Y0219672D02*
X0108446Y0219672D01*
X0106298Y0220671D02*
X0078359Y0220671D01*
X0077003Y0221670D02*
X0105466Y0221670D01*
X0105150Y0222668D02*
X0064006Y0222668D01*
X0065361Y0221670D02*
X0074997Y0221670D01*
X0073641Y0220671D02*
X0065807Y0220671D01*
X0065850Y0219672D02*
X0073194Y0219672D01*
X0073150Y0218674D02*
X0065536Y0218674D01*
X0064900Y0217675D02*
X0071012Y0217675D01*
X0069646Y0216677D02*
X0064900Y0216677D01*
X0064900Y0215678D02*
X0069196Y0215678D01*
X0069150Y0214680D02*
X0064900Y0214680D01*
X0064900Y0213681D02*
X0069461Y0213681D01*
X0070287Y0212683D02*
X0064900Y0212683D01*
X0064900Y0211684D02*
X0070300Y0211684D01*
X0070300Y0210686D02*
X0064900Y0210686D01*
X0064900Y0209687D02*
X0070300Y0209687D01*
X0070300Y0208689D02*
X0064900Y0208689D01*
X0064900Y0207690D02*
X0070300Y0207690D01*
X0070904Y0206692D02*
X0064900Y0206692D01*
X0064900Y0205693D02*
X0071902Y0205693D01*
X0073515Y0204695D02*
X0064900Y0204695D01*
X0069930Y0203696D02*
X0072292Y0203696D01*
X0071294Y0202698D02*
X0070268Y0202698D01*
X0073106Y0199702D02*
X0077000Y0199702D01*
X0077000Y0200000D02*
X0077000Y0197000D01*
X0080000Y0194000D01*
X0080000Y0186000D01*
X0055000Y0186000D01*
X0038500Y0168500D01*
X0019000Y0168500D01*
X0019000Y0178500D01*
X0032000Y0178500D01*
X0041500Y0188500D01*
X0051500Y0199500D01*
X0062595Y0199718D01*
X0063559Y0198754D01*
X0063731Y0198754D01*
X0063731Y0197950D01*
X0064493Y0197188D01*
X0069507Y0197188D01*
X0070268Y0197950D01*
X0070268Y0198300D01*
X0071704Y0198300D01*
X0072700Y0199296D01*
X0073332Y0199928D01*
X0077000Y0200000D01*
X0076323Y0200546D02*
X0076323Y0190000D01*
X0079402Y0190000D01*
X0080000Y0189717D02*
X0042606Y0189717D01*
X0041699Y0188719D02*
X0080000Y0188719D01*
X0080000Y0187720D02*
X0040759Y0187720D01*
X0039811Y0186722D02*
X0080000Y0186722D01*
X0080000Y0190716D02*
X0043514Y0190716D01*
X0044422Y0191714D02*
X0080000Y0191714D01*
X0080000Y0192713D02*
X0045330Y0192713D01*
X0046237Y0193711D02*
X0080000Y0193711D01*
X0079290Y0194710D02*
X0047145Y0194710D01*
X0048053Y0195708D02*
X0078292Y0195708D01*
X0077293Y0196707D02*
X0048961Y0196707D01*
X0049868Y0197705D02*
X0063976Y0197705D01*
X0063731Y0198704D02*
X0050776Y0198704D01*
X0054731Y0201699D02*
X0045000Y0201699D01*
X0045000Y0202698D02*
X0054731Y0202698D01*
X0055070Y0203696D02*
X0045000Y0203696D01*
X0045000Y0204695D02*
X0061100Y0204695D01*
X0061100Y0205693D02*
X0045000Y0205693D01*
X0045000Y0206692D02*
X0061100Y0206692D01*
X0061100Y0207690D02*
X0045000Y0207690D01*
X0045000Y0208689D02*
X0061100Y0208689D01*
X0061100Y0209687D02*
X0045000Y0209687D01*
X0045000Y0210686D02*
X0061100Y0210686D01*
X0061100Y0211684D02*
X0045000Y0211684D01*
X0045000Y0212683D02*
X0061100Y0212683D01*
X0061100Y0213681D02*
X0045000Y0213681D01*
X0045000Y0214680D02*
X0061100Y0214680D01*
X0061100Y0215678D02*
X0045000Y0215678D01*
X0045000Y0216677D02*
X0061100Y0216677D01*
X0061100Y0217675D02*
X0045000Y0217675D01*
X0045000Y0218674D02*
X0060464Y0218674D01*
X0060150Y0219672D02*
X0045000Y0219672D01*
X0045000Y0220671D02*
X0060193Y0220671D01*
X0060639Y0221670D02*
X0045000Y0221670D01*
X0045000Y0222668D02*
X0061994Y0222668D01*
X0072988Y0217675D02*
X0073300Y0217675D01*
X0076700Y0213681D02*
X0098026Y0213681D01*
X0096652Y0212683D02*
X0076700Y0212683D01*
X0076700Y0211684D02*
X0096199Y0211684D01*
X0096150Y0210686D02*
X0076700Y0210686D01*
X0078862Y0209687D02*
X0091106Y0209687D01*
X0090771Y0208689D02*
X0079198Y0208689D01*
X0079198Y0207690D02*
X0090771Y0207690D01*
X0090771Y0206692D02*
X0079198Y0206692D01*
X0078978Y0205693D02*
X0090771Y0205693D01*
X0090771Y0204695D02*
X0079130Y0204695D01*
X0079198Y0203696D02*
X0090771Y0203696D01*
X0089994Y0202698D02*
X0079198Y0202698D01*
X0080000Y0201699D02*
X0089450Y0201699D01*
X0089450Y0200701D02*
X0080000Y0200701D01*
X0080000Y0199702D02*
X0089450Y0199702D01*
X0089450Y0198704D02*
X0080000Y0198704D01*
X0077000Y0198704D02*
X0072108Y0198704D01*
X0072700Y0199296D02*
X0072700Y0199296D01*
X0070024Y0197705D02*
X0077000Y0197705D01*
X0083774Y0183726D02*
X0055746Y0183726D01*
X0054818Y0182728D02*
X0084772Y0182728D01*
X0085771Y0181729D02*
X0053891Y0181729D01*
X0052964Y0180731D02*
X0086000Y0180731D01*
X0086000Y0179732D02*
X0052037Y0179732D01*
X0051110Y0178734D02*
X0086000Y0178734D01*
X0086000Y0177735D02*
X0050183Y0177735D01*
X0049255Y0176737D02*
X0086000Y0176737D01*
X0086000Y0175738D02*
X0048328Y0175738D01*
X0047401Y0174739D02*
X0086000Y0174739D01*
X0086000Y0173741D02*
X0046474Y0173741D01*
X0045547Y0172742D02*
X0086000Y0172742D01*
X0086000Y0171744D02*
X0044619Y0171744D01*
X0043692Y0170745D02*
X0086000Y0170745D01*
X0086000Y0169747D02*
X0042765Y0169747D01*
X0041838Y0168748D02*
X0086000Y0168748D01*
X0086000Y0167750D02*
X0040911Y0167750D01*
X0039983Y0166751D02*
X0086000Y0166751D01*
X0086000Y0165753D02*
X0039056Y0165753D01*
X0038129Y0164754D02*
X0086000Y0164754D01*
X0086000Y0163756D02*
X0037202Y0163756D01*
X0036500Y0162757D02*
X0086000Y0162757D01*
X0086000Y0161759D02*
X0036500Y0161759D01*
X0038734Y0168748D02*
X0019000Y0168748D01*
X0019000Y0169747D02*
X0039676Y0169747D01*
X0040617Y0170745D02*
X0019000Y0170745D01*
X0019000Y0171744D02*
X0041559Y0171744D01*
X0042500Y0172742D02*
X0019000Y0172742D01*
X0019000Y0173741D02*
X0043441Y0173741D01*
X0044383Y0174739D02*
X0019000Y0174739D01*
X0019000Y0175738D02*
X0045324Y0175738D01*
X0046266Y0176737D02*
X0019000Y0176737D01*
X0019000Y0177735D02*
X0047207Y0177735D01*
X0048149Y0178734D02*
X0032222Y0178734D01*
X0033170Y0179732D02*
X0049090Y0179732D01*
X0050032Y0180731D02*
X0034119Y0180731D01*
X0035068Y0181729D02*
X0050973Y0181729D01*
X0051915Y0182728D02*
X0036016Y0182728D01*
X0036965Y0183726D02*
X0052856Y0183726D01*
X0053797Y0184725D02*
X0037913Y0184725D01*
X0038862Y0185723D02*
X0054739Y0185723D01*
X0061816Y0199702D02*
X0062611Y0199702D01*
X0061100Y0203696D02*
X0060930Y0203696D01*
X0040638Y0203696D02*
X0026696Y0203696D01*
X0026000Y0203000D02*
X0030000Y0207000D01*
X0030000Y0237000D01*
X0030469Y0237469D01*
X0030469Y0229917D01*
X0033453Y0229917D01*
X0033453Y0228949D01*
X0034421Y0228949D01*
X0034421Y0218878D01*
X0036103Y0218878D01*
X0036484Y0218980D01*
X0036827Y0219178D01*
X0037106Y0219457D01*
X0037303Y0219799D01*
X0037405Y0220180D01*
X0037405Y0228949D01*
X0034421Y0228949D01*
X0034421Y0229917D01*
X0037405Y0229917D01*
X0037405Y0238686D01*
X0037321Y0239000D01*
X0039000Y0239000D01*
X0041000Y0237000D01*
X0040500Y0191000D01*
X0031000Y0180500D01*
X0019000Y0180500D01*
X0019000Y0183127D01*
X0019191Y0182665D01*
X0019615Y0182030D01*
X0020155Y0181490D01*
X0020790Y0181066D01*
X0021495Y0180774D01*
X0022244Y0180625D01*
X0024713Y0180625D01*
X0024713Y0184213D01*
X0025287Y0184213D01*
X0025287Y0180625D01*
X0027756Y0180625D01*
X0028505Y0180774D01*
X0029210Y0181066D01*
X0029845Y0181490D01*
X0030385Y0182030D01*
X0030809Y0182665D01*
X0031101Y0183370D01*
X0031250Y0184118D01*
X0031250Y0184213D01*
X0025287Y0184213D01*
X0025287Y0184787D01*
X0024713Y0184787D01*
X0024713Y0188375D01*
X0022244Y0188375D01*
X0021495Y0188226D01*
X0020790Y0187934D01*
X0020155Y0187510D01*
X0019615Y0186970D01*
X0019191Y0186335D01*
X0019000Y0185873D01*
X0019000Y0193127D01*
X0019191Y0192665D01*
X0019615Y0192030D01*
X0020155Y0191490D01*
X0020790Y0191066D01*
X0021495Y0190774D01*
X0022244Y0190625D01*
X0024713Y0190625D01*
X0024713Y0194213D01*
X0025287Y0194213D01*
X0025287Y0190625D01*
X0027756Y0190625D01*
X0028505Y0190774D01*
X0029210Y0191066D01*
X0029845Y0191490D01*
X0030385Y0192030D01*
X0030809Y0192665D01*
X0031101Y0193370D01*
X0031250Y0194118D01*
X0031250Y0194213D01*
X0025287Y0194213D01*
X0025287Y0194787D01*
X0024713Y0194787D01*
X0024713Y0198375D01*
X0022244Y0198375D01*
X0021495Y0198226D01*
X0020790Y0197934D01*
X0020155Y0197510D01*
X0019615Y0196970D01*
X0019191Y0196335D01*
X0019000Y0195873D01*
X0019000Y0199000D01*
X0026000Y0203000D01*
X0025471Y0202698D02*
X0040627Y0202698D01*
X0040616Y0201699D02*
X0023724Y0201699D01*
X0021976Y0200701D02*
X0040605Y0200701D01*
X0040595Y0199702D02*
X0020229Y0199702D01*
X0019000Y0198704D02*
X0040584Y0198704D01*
X0040573Y0197705D02*
X0029552Y0197705D01*
X0029845Y0197510D02*
X0029210Y0197934D01*
X0028505Y0198226D01*
X0027756Y0198375D01*
X0025287Y0198375D01*
X0025287Y0194787D01*
X0031250Y0194787D01*
X0031250Y0194882D01*
X0031101Y0195630D01*
X0030809Y0196335D01*
X0030385Y0196970D01*
X0029845Y0197510D01*
X0030560Y0196707D02*
X0040562Y0196707D01*
X0040551Y0195708D02*
X0031068Y0195708D01*
X0031169Y0193711D02*
X0040529Y0193711D01*
X0040519Y0192713D02*
X0030829Y0192713D01*
X0030069Y0191714D02*
X0040508Y0191714D01*
X0040243Y0190716D02*
X0028211Y0190716D01*
X0027756Y0188375D02*
X0025287Y0188375D01*
X0025287Y0184787D01*
X0031250Y0184787D01*
X0031250Y0184882D01*
X0031101Y0185630D01*
X0030809Y0186335D01*
X0030385Y0186970D01*
X0029845Y0187510D01*
X0029210Y0187934D01*
X0028505Y0188226D01*
X0027756Y0188375D01*
X0029530Y0187720D02*
X0037533Y0187720D01*
X0038436Y0188719D02*
X0019000Y0188719D01*
X0019000Y0189717D02*
X0039339Y0189717D01*
X0036629Y0186722D02*
X0030551Y0186722D01*
X0031062Y0185723D02*
X0035726Y0185723D01*
X0034822Y0184725D02*
X0025287Y0184725D01*
X0025287Y0185723D02*
X0024713Y0185723D01*
X0024713Y0186722D02*
X0025287Y0186722D01*
X0025287Y0187720D02*
X0024713Y0187720D01*
X0024713Y0190716D02*
X0025287Y0190716D01*
X0025287Y0191714D02*
X0024713Y0191714D01*
X0024713Y0192713D02*
X0025287Y0192713D01*
X0025287Y0193711D02*
X0024713Y0193711D01*
X0025287Y0194710D02*
X0040540Y0194710D01*
X0033919Y0183726D02*
X0031172Y0183726D01*
X0030835Y0182728D02*
X0033015Y0182728D01*
X0032112Y0181729D02*
X0030084Y0181729D01*
X0031209Y0180731D02*
X0028286Y0180731D01*
X0025287Y0180731D02*
X0024713Y0180731D01*
X0024713Y0181729D02*
X0025287Y0181729D01*
X0025287Y0182728D02*
X0024713Y0182728D01*
X0024713Y0183726D02*
X0025287Y0183726D01*
X0021714Y0180731D02*
X0019000Y0180731D01*
X0019000Y0181729D02*
X0019916Y0181729D01*
X0019165Y0182728D02*
X0019000Y0182728D01*
X0019000Y0186722D02*
X0019449Y0186722D01*
X0019000Y0187720D02*
X0020470Y0187720D01*
X0021789Y0190716D02*
X0019000Y0190716D01*
X0019000Y0191714D02*
X0019931Y0191714D01*
X0019171Y0192713D02*
X0019000Y0192713D01*
X0019000Y0196707D02*
X0019440Y0196707D01*
X0019000Y0197705D02*
X0020448Y0197705D01*
X0024713Y0197705D02*
X0025287Y0197705D01*
X0025287Y0196707D02*
X0024713Y0196707D01*
X0024713Y0195708D02*
X0025287Y0195708D01*
X0027695Y0204695D02*
X0040649Y0204695D01*
X0040660Y0205693D02*
X0028693Y0205693D01*
X0029692Y0206692D02*
X0040671Y0206692D01*
X0040681Y0207690D02*
X0030000Y0207690D01*
X0030000Y0208689D02*
X0040692Y0208689D01*
X0040703Y0209687D02*
X0030000Y0209687D01*
X0030000Y0210686D02*
X0040714Y0210686D01*
X0040725Y0211684D02*
X0030000Y0211684D01*
X0030000Y0212683D02*
X0040736Y0212683D01*
X0040747Y0213681D02*
X0030000Y0213681D01*
X0030000Y0214680D02*
X0040757Y0214680D01*
X0040768Y0215678D02*
X0030000Y0215678D01*
X0030000Y0216677D02*
X0040779Y0216677D01*
X0040790Y0217675D02*
X0030000Y0217675D01*
X0030000Y0218674D02*
X0040801Y0218674D01*
X0040812Y0219672D02*
X0037230Y0219672D01*
X0037405Y0220671D02*
X0040823Y0220671D01*
X0040833Y0221670D02*
X0037405Y0221670D01*
X0037405Y0222668D02*
X0040844Y0222668D01*
X0040855Y0223667D02*
X0037405Y0223667D01*
X0037405Y0224665D02*
X0040866Y0224665D01*
X0040877Y0225664D02*
X0037405Y0225664D01*
X0037405Y0226662D02*
X0040888Y0226662D01*
X0040898Y0227661D02*
X0037405Y0227661D01*
X0037405Y0228659D02*
X0040909Y0228659D01*
X0040920Y0229658D02*
X0034421Y0229658D01*
X0033453Y0229658D02*
X0030000Y0229658D01*
X0030469Y0228949D02*
X0030469Y0220180D01*
X0030571Y0219799D01*
X0030768Y0219457D01*
X0031047Y0219178D01*
X0031390Y0218980D01*
X0031771Y0218878D01*
X0033453Y0218878D01*
X0033453Y0228949D01*
X0030469Y0228949D01*
X0030469Y0228659D02*
X0030000Y0228659D01*
X0030000Y0227661D02*
X0030469Y0227661D01*
X0030469Y0226662D02*
X0030000Y0226662D01*
X0030000Y0225664D02*
X0030469Y0225664D01*
X0030469Y0224665D02*
X0030000Y0224665D01*
X0030000Y0223667D02*
X0030469Y0223667D01*
X0030469Y0222668D02*
X0030000Y0222668D01*
X0030000Y0221670D02*
X0030469Y0221670D01*
X0030469Y0220671D02*
X0030000Y0220671D01*
X0030000Y0219672D02*
X0030644Y0219672D01*
X0033453Y0219672D02*
X0034421Y0219672D01*
X0034421Y0220671D02*
X0033453Y0220671D01*
X0033453Y0221670D02*
X0034421Y0221670D01*
X0034421Y0222668D02*
X0033453Y0222668D01*
X0033453Y0223667D02*
X0034421Y0223667D01*
X0034421Y0224665D02*
X0033453Y0224665D01*
X0033453Y0225664D02*
X0034421Y0225664D01*
X0034421Y0226662D02*
X0033453Y0226662D01*
X0033453Y0227661D02*
X0034421Y0227661D01*
X0034421Y0228659D02*
X0033453Y0228659D01*
X0030469Y0230656D02*
X0030000Y0230656D01*
X0030000Y0231655D02*
X0030469Y0231655D01*
X0030469Y0232653D02*
X0030000Y0232653D01*
X0030000Y0233652D02*
X0030469Y0233652D01*
X0030469Y0234650D02*
X0030000Y0234650D01*
X0030000Y0235649D02*
X0030469Y0235649D01*
X0030469Y0236647D02*
X0030000Y0236647D01*
X0027000Y0236647D02*
X-0002000Y0236647D01*
X-0002000Y0235649D02*
X0027000Y0235649D01*
X0027000Y0234650D02*
X-0002000Y0234650D01*
X-0002000Y0233652D02*
X0027000Y0233652D01*
X0027000Y0232653D02*
X-0002000Y0232653D01*
X-0002000Y0231655D02*
X0027000Y0231655D01*
X0027000Y0230656D02*
X-0002000Y0230656D01*
X-0002000Y0229658D02*
X0027000Y0229658D01*
X0027000Y0228659D02*
X-0002000Y0228659D01*
X-0002000Y0227661D02*
X0027000Y0227661D01*
X0027000Y0226662D02*
X-0002000Y0226662D01*
X-0002000Y0225664D02*
X0027000Y0225664D01*
X0027000Y0224665D02*
X-0002000Y0224665D01*
X-0002000Y0223667D02*
X0027000Y0223667D01*
X0027000Y0222668D02*
X-0002000Y0222668D01*
X-0002000Y0221670D02*
X0027000Y0221670D01*
X0027000Y0220671D02*
X-0002000Y0220671D01*
X-0002000Y0219672D02*
X0027000Y0219672D01*
X0027000Y0218674D02*
X-0002000Y0218674D01*
X-0002000Y0217675D02*
X0027000Y0217675D01*
X0027000Y0216677D02*
X-0002000Y0216677D01*
X-0002000Y0215678D02*
X0027000Y0215678D01*
X0027000Y0214680D02*
X-0002000Y0214680D01*
X-0002000Y0213681D02*
X0027000Y0213681D01*
X0027000Y0212683D02*
X-0002000Y0212683D01*
X-0002000Y0211684D02*
X0027000Y0211684D01*
X0027000Y0210686D02*
X-0002000Y0210686D01*
X-0002000Y0209687D02*
X0027000Y0209687D01*
X0027000Y0208689D02*
X-0001689Y0208689D01*
X-0000690Y0207690D02*
X0026690Y0207690D01*
X0025692Y0206692D02*
X0000308Y0206692D01*
X-0002000Y0237646D02*
X0027000Y0237646D01*
X0027000Y0238644D02*
X-0002000Y0238644D01*
X-0002000Y0239643D02*
X0027000Y0239643D01*
X0027641Y0240641D02*
X-0002000Y0240641D01*
X-0002000Y0241640D02*
X0116778Y0241640D01*
X0116778Y0242638D02*
X0047800Y0242638D01*
X0047835Y0243637D02*
X0116778Y0243637D01*
X0116778Y0244635D02*
X0047835Y0244635D01*
X0047835Y0245634D02*
X0116778Y0245634D01*
X0116778Y0246632D02*
X0047835Y0246632D01*
X0047835Y0247631D02*
X0116778Y0247631D01*
X0116778Y0248629D02*
X0098080Y0248629D01*
X0105772Y0249628D02*
X0116778Y0249628D01*
X0116687Y0250626D02*
X0106153Y0250626D01*
X0106153Y0255619D02*
X0120694Y0255619D01*
X0121693Y0254620D02*
X0118067Y0254620D01*
X0119065Y0253622D02*
X0122100Y0253622D01*
X0122100Y0252623D02*
X0120064Y0252623D01*
X0120578Y0251625D02*
X0122100Y0251625D01*
X0122100Y0250626D02*
X0120578Y0250626D01*
X0120578Y0249628D02*
X0122100Y0249628D01*
X0122100Y0248629D02*
X0120578Y0248629D01*
X0120578Y0247631D02*
X0122100Y0247631D01*
X0122100Y0246632D02*
X0120578Y0246632D01*
X0120578Y0245634D02*
X0122100Y0245634D01*
X0122100Y0244635D02*
X0120578Y0244635D01*
X0120578Y0243637D02*
X0122100Y0243637D01*
X0122100Y0242638D02*
X0120578Y0242638D01*
X0120578Y0241640D02*
X0122100Y0241640D01*
X0122100Y0240641D02*
X0120578Y0240641D01*
X0120578Y0239643D02*
X0122100Y0239643D01*
X0122100Y0238644D02*
X0120578Y0238644D01*
X0120578Y0237646D02*
X0122100Y0237646D01*
X0122100Y0236647D02*
X0120578Y0236647D01*
X0120578Y0235649D02*
X0122100Y0235649D01*
X0122100Y0234650D02*
X0120578Y0234650D01*
X0120578Y0233652D02*
X0122100Y0233652D01*
X0122100Y0232653D02*
X0120578Y0232653D01*
X0120578Y0231655D02*
X0122100Y0231655D01*
X0122100Y0230656D02*
X0120578Y0230656D01*
X0120578Y0229658D02*
X0122100Y0229658D01*
X0122904Y0228659D02*
X0120578Y0228659D01*
X0120578Y0227661D02*
X0123902Y0227661D01*
X0124901Y0226662D02*
X0120578Y0226662D01*
X0120578Y0225664D02*
X0147649Y0225664D01*
X0148648Y0224665D02*
X0128640Y0224665D01*
X0128640Y0219672D02*
X0143641Y0219672D01*
X0144639Y0218674D02*
X0128027Y0218674D01*
X0122716Y0218674D02*
X0121334Y0218674D01*
X0121947Y0219672D02*
X0122103Y0219672D01*
X0122103Y0220671D02*
X0121947Y0220671D01*
X0121947Y0221670D02*
X0122103Y0221670D01*
X0122103Y0222668D02*
X0121947Y0222668D01*
X0121947Y0223667D02*
X0122103Y0223667D01*
X0122103Y0224665D02*
X0121947Y0224665D01*
X0116778Y0225664D02*
X0109017Y0225664D01*
X0110365Y0224665D02*
X0115410Y0224665D01*
X0115410Y0223667D02*
X0110809Y0223667D01*
X0111019Y0222668D02*
X0115410Y0222668D01*
X0115410Y0221670D02*
X0112017Y0221670D01*
X0112246Y0220671D02*
X0115410Y0220671D01*
X0115410Y0219672D02*
X0112246Y0219672D01*
X0112246Y0218674D02*
X0116023Y0218674D01*
X0112246Y0217675D02*
X0145638Y0217675D01*
X0145450Y0216677D02*
X0112246Y0216677D01*
X0112246Y0215678D02*
X0145450Y0215678D01*
X0145450Y0214680D02*
X0112246Y0214680D01*
X0113615Y0213681D02*
X0145450Y0213681D01*
X0145468Y0212683D02*
X0113615Y0212683D01*
X0113615Y0211684D02*
X0146467Y0211684D01*
X0147465Y0210686D02*
X0113615Y0210686D01*
X0113615Y0209687D02*
X0128142Y0209687D01*
X0127143Y0208689D02*
X0113615Y0208689D01*
X0113009Y0207690D02*
X0126145Y0207690D01*
X0125146Y0206692D02*
X0113615Y0206692D01*
X0113615Y0205693D02*
X0124148Y0205693D01*
X0123149Y0204695D02*
X0113615Y0204695D01*
X0113615Y0203696D02*
X0122151Y0203696D01*
X0121152Y0202698D02*
X0113615Y0202698D01*
X0103751Y0198704D02*
X0094450Y0198704D01*
X0096520Y0199702D02*
X0102752Y0199702D01*
X0100980Y0200701D02*
X0096520Y0200701D01*
X0096520Y0201699D02*
X0100385Y0201699D01*
X0098898Y0202698D02*
X0096520Y0202698D01*
X0099712Y0206692D02*
X0100385Y0206692D01*
X0100991Y0207690D02*
X0098095Y0207690D01*
X0099000Y0211000D02*
X0103654Y0211000D01*
X0100385Y0213681D02*
X0099974Y0213681D01*
X0105191Y0223667D02*
X0045000Y0223667D01*
X0045000Y0224665D02*
X0105635Y0224665D01*
X0106983Y0225664D02*
X0045000Y0225664D01*
X0045000Y0226662D02*
X0116778Y0226662D01*
X0116778Y0227661D02*
X0045000Y0227661D01*
X0045000Y0228659D02*
X0116778Y0228659D01*
X0116778Y0229658D02*
X0045000Y0229658D01*
X0045000Y0230656D02*
X0116778Y0230656D01*
X0116778Y0231655D02*
X0045000Y0231655D01*
X0045000Y0232653D02*
X0116778Y0232653D01*
X0116778Y0233652D02*
X0045000Y0233652D01*
X0045000Y0234650D02*
X0116778Y0234650D01*
X0116778Y0235649D02*
X0045000Y0235649D01*
X0045000Y0236647D02*
X0116778Y0236647D01*
X0116778Y0237646D02*
X0045000Y0237646D01*
X0045000Y0238644D02*
X0116778Y0238644D01*
X0116778Y0239643D02*
X0044357Y0239643D01*
X0043359Y0240641D02*
X0116778Y0240641D01*
X0125900Y0240641D02*
X0152361Y0240641D01*
X0152361Y0239643D02*
X0125900Y0239643D01*
X0125900Y0238644D02*
X0152990Y0238644D01*
X0152361Y0241640D02*
X0125900Y0241640D01*
X0125900Y0242638D02*
X0152361Y0242638D01*
X0163229Y0242638D02*
X0165000Y0242638D01*
X0165000Y0241640D02*
X0163229Y0241640D01*
X0163229Y0240641D02*
X0165000Y0240641D01*
X0165000Y0239643D02*
X0163229Y0239643D01*
X0162601Y0238644D02*
X0165000Y0238644D01*
X0165000Y0237646D02*
X0125900Y0237646D01*
X0125900Y0236647D02*
X0165000Y0236647D01*
X0165000Y0235649D02*
X0125900Y0235649D01*
X0125900Y0234650D02*
X0165000Y0234650D01*
X0165000Y0233652D02*
X0125900Y0233652D01*
X0125900Y0232653D02*
X0165000Y0232653D01*
X0165000Y0231655D02*
X0125900Y0231655D01*
X0126281Y0230656D02*
X0165000Y0230656D01*
X0165000Y0229658D02*
X0149029Y0229658D01*
X0150028Y0228659D02*
X0165000Y0228659D01*
X0165000Y0227661D02*
X0151026Y0227661D01*
X0152025Y0226662D02*
X0165000Y0226662D01*
X0165000Y0225664D02*
X0153023Y0225664D01*
X0154022Y0224665D02*
X0165000Y0224665D01*
X0165000Y0223667D02*
X0155020Y0223667D01*
X0157006Y0222668D02*
X0164819Y0222668D01*
X0164450Y0221670D02*
X0158361Y0221670D01*
X0158807Y0220671D02*
X0164450Y0220671D01*
X0164450Y0219672D02*
X0158850Y0219672D01*
X0158536Y0218674D02*
X0164450Y0218674D01*
X0164476Y0217675D02*
X0157706Y0217675D01*
X0156550Y0216677D02*
X0165000Y0216677D01*
X0165000Y0215678D02*
X0156550Y0215678D01*
X0156550Y0214680D02*
X0165000Y0214680D01*
X0165000Y0213681D02*
X0156550Y0213681D01*
X0156532Y0212683D02*
X0213000Y0212683D01*
X0213000Y0211684D02*
X0155533Y0211684D01*
X0154535Y0210686D02*
X0213000Y0210686D01*
X0213000Y0209687D02*
X0159858Y0209687D01*
X0160857Y0208689D02*
X0213000Y0208689D01*
X0213000Y0207690D02*
X0191115Y0207690D01*
X0191115Y0207704D02*
X0191115Y0204277D01*
X0191800Y0203592D01*
X0191800Y0192784D01*
X0192266Y0192591D01*
X0193391Y0191466D01*
X0194000Y0189996D01*
X0194000Y0183004D01*
X0193391Y0181534D01*
X0192266Y0180409D01*
X0190796Y0179800D01*
X0189204Y0179800D01*
X0187734Y0180409D01*
X0186609Y0181534D01*
X0186000Y0183004D01*
X0186000Y0189996D01*
X0186609Y0191466D01*
X0187734Y0192591D01*
X0188200Y0192784D01*
X0188200Y0201535D01*
X0185339Y0201535D01*
X0184578Y0202296D01*
X0184578Y0207704D01*
X0185339Y0208465D01*
X0190353Y0208465D01*
X0191115Y0207704D01*
X0191115Y0206692D02*
X0213000Y0206692D01*
X0213000Y0205693D02*
X0191115Y0205693D01*
X0191115Y0204695D02*
X0213000Y0204695D01*
X0213000Y0203696D02*
X0191696Y0203696D01*
X0191800Y0202698D02*
X0213000Y0202698D01*
X0213000Y0201699D02*
X0191800Y0201699D01*
X0191800Y0200701D02*
X0213000Y0200701D01*
X0213000Y0199702D02*
X0191800Y0199702D01*
X0191800Y0198704D02*
X0213000Y0198704D01*
X0213000Y0197705D02*
X0191800Y0197705D01*
X0191800Y0196707D02*
X0213000Y0196707D01*
X0213000Y0195708D02*
X0191800Y0195708D01*
X0191800Y0194710D02*
X0213000Y0194710D01*
X0213000Y0193711D02*
X0191800Y0193711D01*
X0191972Y0192713D02*
X0213000Y0192713D01*
X0213000Y0191714D02*
X0193143Y0191714D01*
X0193702Y0190716D02*
X0213000Y0190716D01*
X0213000Y0189717D02*
X0194000Y0189717D01*
X0194000Y0188719D02*
X0213000Y0188719D01*
X0213000Y0187720D02*
X0194000Y0187720D01*
X0194000Y0186722D02*
X0213000Y0186722D01*
X0213000Y0185723D02*
X0194000Y0185723D01*
X0194000Y0184725D02*
X0213000Y0184725D01*
X0213000Y0183726D02*
X0194000Y0183726D01*
X0193885Y0182728D02*
X0213000Y0182728D01*
X0213000Y0181729D02*
X0193472Y0181729D01*
X0192587Y0180731D02*
X0213000Y0180731D01*
X0213000Y0179732D02*
X0099000Y0179732D01*
X0099000Y0178734D02*
X0213000Y0178734D01*
X0190000Y0186500D02*
X0190000Y0202846D01*
X0187846Y0205000D01*
X0184578Y0204695D02*
X0164850Y0204695D01*
X0164798Y0205693D02*
X0184578Y0205693D01*
X0184578Y0206692D02*
X0164339Y0206692D01*
X0162952Y0207690D02*
X0184578Y0207690D01*
X0184578Y0203696D02*
X0165780Y0203696D01*
X0166751Y0202698D02*
X0184578Y0202698D01*
X0185175Y0201699D02*
X0167723Y0201699D01*
X0168694Y0200701D02*
X0188200Y0200701D01*
X0188200Y0199702D02*
X0169666Y0199702D01*
X0170637Y0198704D02*
X0188200Y0198704D01*
X0188200Y0197705D02*
X0171609Y0197705D01*
X0172581Y0196707D02*
X0188200Y0196707D01*
X0188200Y0195708D02*
X0173552Y0195708D01*
X0174524Y0194710D02*
X0188200Y0194710D01*
X0188200Y0193711D02*
X0175495Y0193711D01*
X0176467Y0192713D02*
X0178028Y0192713D01*
X0181972Y0192713D02*
X0188028Y0192713D01*
X0186857Y0191714D02*
X0183143Y0191714D01*
X0183702Y0190716D02*
X0186298Y0190716D01*
X0186000Y0189717D02*
X0184000Y0189717D01*
X0184000Y0188719D02*
X0186000Y0188719D01*
X0186000Y0187720D02*
X0184000Y0187720D01*
X0184000Y0186722D02*
X0186000Y0186722D01*
X0186000Y0185723D02*
X0184000Y0185723D01*
X0184000Y0184725D02*
X0186000Y0184725D01*
X0186000Y0183726D02*
X0184000Y0183726D01*
X0183885Y0182728D02*
X0186115Y0182728D01*
X0186528Y0181729D02*
X0183472Y0181729D01*
X0182587Y0180731D02*
X0187413Y0180731D01*
X0180000Y0186500D02*
X0162000Y0205000D01*
X0159000Y0208000D01*
X0167323Y0216677D02*
X0178677Y0216677D01*
X0178000Y0216000D02*
X0180000Y0218000D01*
X0180000Y0235000D01*
X0176750Y0238000D01*
X0176750Y0244000D01*
X0175000Y0244000D01*
X0175000Y0239000D01*
X0167000Y0231000D01*
X0167000Y0217000D01*
X0168000Y0216000D01*
X0178000Y0216000D01*
X0179675Y0217675D02*
X0167000Y0217675D01*
X0167000Y0218674D02*
X0180000Y0218674D01*
X0180000Y0219672D02*
X0167000Y0219672D01*
X0167000Y0220671D02*
X0180000Y0220671D01*
X0180000Y0221670D02*
X0167000Y0221670D01*
X0167000Y0222668D02*
X0180000Y0222668D01*
X0180000Y0223667D02*
X0167000Y0223667D01*
X0167000Y0224665D02*
X0180000Y0224665D01*
X0180000Y0225664D02*
X0167000Y0225664D01*
X0167000Y0226662D02*
X0180000Y0226662D01*
X0180000Y0227661D02*
X0167000Y0227661D01*
X0167000Y0228659D02*
X0180000Y0228659D01*
X0180000Y0229658D02*
X0167000Y0229658D01*
X0167000Y0230656D02*
X0180000Y0230656D01*
X0180000Y0231655D02*
X0167655Y0231655D01*
X0168653Y0232653D02*
X0180000Y0232653D01*
X0180000Y0233652D02*
X0169652Y0233652D01*
X0170650Y0234650D02*
X0180000Y0234650D01*
X0179297Y0235649D02*
X0171649Y0235649D01*
X0172647Y0236647D02*
X0178216Y0236647D01*
X0177134Y0237646D02*
X0173646Y0237646D01*
X0174644Y0238644D02*
X0176750Y0238644D01*
X0176750Y0239643D02*
X0175000Y0239643D01*
X0175000Y0240641D02*
X0176750Y0240641D01*
X0176750Y0241640D02*
X0175000Y0241640D01*
X0175118Y0242469D02*
X0175118Y0225118D01*
X0170000Y0220000D01*
X0152642Y0220671D02*
X0148016Y0220671D01*
X0147017Y0221670D02*
X0151643Y0221670D01*
X0150645Y0222668D02*
X0146019Y0222668D01*
X0145020Y0223667D02*
X0149646Y0223667D01*
X0130000Y0243637D02*
X0125900Y0243637D01*
X0125900Y0244635D02*
X0130000Y0244635D01*
X0130000Y0245634D02*
X0125900Y0245634D01*
X0125900Y0246632D02*
X0130000Y0246632D01*
X0130000Y0247631D02*
X0125900Y0247631D01*
X0125900Y0248629D02*
X0130000Y0248629D01*
X0130000Y0249628D02*
X0125900Y0249628D01*
X0125900Y0250626D02*
X0130000Y0250626D01*
X0130000Y0251625D02*
X0125900Y0251625D01*
X0125900Y0252623D02*
X0130000Y0252623D01*
X0130000Y0253622D02*
X0125900Y0253622D01*
X0125900Y0254620D02*
X0130000Y0254620D01*
X0130000Y0255619D02*
X0125900Y0255619D01*
X0125070Y0256617D02*
X0130000Y0256617D01*
X0091940Y0248629D02*
X0047835Y0248629D01*
X0047835Y0249628D02*
X0084249Y0249628D01*
X0083868Y0250626D02*
X0047835Y0250626D01*
X0047835Y0251625D02*
X0083868Y0251625D01*
X0083868Y0252623D02*
X0047835Y0252623D01*
X0047835Y0253622D02*
X0083868Y0253622D01*
X0083868Y0254620D02*
X0047835Y0254620D01*
X0047835Y0255619D02*
X0083868Y0255619D01*
X0083868Y0256617D02*
X0047835Y0256617D01*
X0038936Y0256617D02*
X0021064Y0256617D01*
X0021064Y0255619D02*
X0038936Y0255619D01*
X0038936Y0254620D02*
X0021064Y0254620D01*
X0021064Y0253622D02*
X0038936Y0253622D01*
X0038936Y0252623D02*
X0021064Y0252623D01*
X0021064Y0251625D02*
X0038936Y0251625D01*
X0038936Y0250626D02*
X0021064Y0250626D01*
X0021064Y0249628D02*
X0038936Y0249628D01*
X0038936Y0248629D02*
X0021064Y0248629D01*
X0021064Y0247631D02*
X0038936Y0247631D01*
X0038936Y0246632D02*
X0021064Y0246632D01*
X0021064Y0245634D02*
X0038936Y0245634D01*
X0038936Y0244635D02*
X0021064Y0244635D01*
X0021064Y0243637D02*
X0038936Y0243637D01*
X0038972Y0242638D02*
X0021028Y0242638D01*
X0012200Y0242638D02*
X-0002000Y0242638D01*
X-0002000Y0243637D02*
X0012165Y0243637D01*
X0012165Y0244635D02*
X-0002000Y0244635D01*
X-0002000Y0245634D02*
X0012165Y0245634D01*
X0012165Y0246632D02*
X-0002000Y0246632D01*
X-0002000Y0247631D02*
X0012165Y0247631D01*
X0012165Y0248629D02*
X-0002000Y0248629D01*
X-0002000Y0249628D02*
X0012165Y0249628D01*
X0012165Y0250626D02*
X-0002000Y0250626D01*
X-0002000Y0251625D02*
X0012165Y0251625D01*
X0012165Y0252623D02*
X-0002000Y0252623D01*
X-0002000Y0253622D02*
X0012165Y0253622D01*
X0012165Y0254620D02*
X-0002000Y0254620D01*
X-0002000Y0255619D02*
X0012165Y0255619D01*
X0012165Y0256617D02*
X-0002000Y0256617D01*
X0037405Y0238644D02*
X0039356Y0238644D01*
X0040354Y0237646D02*
X0037405Y0237646D01*
X0037405Y0236647D02*
X0040996Y0236647D01*
X0040985Y0235649D02*
X0037405Y0235649D01*
X0037405Y0234650D02*
X0040974Y0234650D01*
X0040964Y0233652D02*
X0037405Y0233652D01*
X0037405Y0232653D02*
X0040953Y0232653D01*
X0040942Y0231655D02*
X0037405Y0231655D01*
X0037405Y0230656D02*
X0040931Y0230656D01*
X0104780Y0159762D02*
X0104889Y0159762D01*
X0124000Y0159762D02*
X0146716Y0159762D01*
X0145718Y0158763D02*
X0124000Y0158763D01*
X0124000Y0157765D02*
X0144719Y0157765D01*
X0144200Y0156766D02*
X0124000Y0156766D01*
X0124000Y0155768D02*
X0144200Y0155768D01*
X0144200Y0154769D02*
X0124000Y0154769D01*
X0124000Y0153771D02*
X0144200Y0153771D01*
X0144200Y0152772D02*
X0124000Y0152772D01*
X0124226Y0151774D02*
X0144200Y0151774D01*
X0144200Y0150775D02*
X0125225Y0150775D01*
X0124000Y0160760D02*
X0147715Y0160760D01*
X0148713Y0161759D02*
X0124000Y0161759D01*
X0124000Y0162757D02*
X0149712Y0162757D01*
X0150028Y0152324D02*
X0151324Y0152324D01*
X0154000Y0152000D01*
X0157654Y0147654D02*
X0162000Y0152000D01*
X0157654Y0147654D02*
X0157654Y0140000D01*
X0154385Y0139792D02*
X0153000Y0139792D01*
X0153000Y0140790D02*
X0154385Y0140790D01*
X0154385Y0141789D02*
X0153000Y0141789D01*
X0153156Y0142787D02*
X0154468Y0142787D01*
X0153493Y0143786D02*
X0155854Y0143786D01*
X0155854Y0144784D02*
X0153493Y0144784D01*
X0153000Y0138793D02*
X0154385Y0138793D01*
X0154385Y0137795D02*
X0153751Y0137795D01*
X0154750Y0136796D02*
X0154885Y0136796D01*
X0155748Y0135798D02*
X0175000Y0135798D01*
X0175000Y0136796D02*
X0167115Y0136796D01*
X0167615Y0137795D02*
X0175000Y0137795D01*
X0175000Y0142787D02*
X0167532Y0142787D01*
X0164346Y0140000D02*
X0180000Y0140000D01*
X0180000Y0130000D02*
X0164346Y0130000D01*
X0160768Y0124814D02*
X0178556Y0124814D01*
X0176744Y0123815D02*
X0160850Y0123815D01*
X0160809Y0122817D02*
X0161191Y0122817D01*
X0161078Y0121818D02*
X0160922Y0121818D01*
X0160922Y0120820D02*
X0161078Y0120820D01*
X0161078Y0119821D02*
X0160922Y0119821D01*
X0160922Y0118823D02*
X0161078Y0118823D01*
X0161078Y0117824D02*
X0160922Y0117824D01*
X0160452Y0116826D02*
X0161548Y0116826D01*
X0159000Y0119000D02*
X0158000Y0124050D01*
X0155450Y0124050D01*
X0152000Y0127500D01*
X0152000Y0134000D01*
X0150000Y0136000D01*
X0141000Y0136000D01*
X0139621Y0134621D01*
X0139621Y0133166D01*
X0137653Y0133166D02*
X0137653Y0136653D01*
X0139000Y0138000D01*
X0151000Y0138000D01*
X0154000Y0135000D01*
X0154000Y0131000D01*
X0155000Y0130000D01*
X0157654Y0130000D01*
X0152140Y0124814D02*
X0149732Y0124814D01*
X0149843Y0125812D02*
X0151142Y0125812D01*
X0150730Y0123815D02*
X0153139Y0123815D01*
X0154138Y0122817D02*
X0151729Y0122817D01*
X0152727Y0121818D02*
X0154385Y0121818D01*
X0154385Y0120820D02*
X0153726Y0120820D01*
X0153800Y0119821D02*
X0154385Y0119821D01*
X0154385Y0118823D02*
X0153800Y0118823D01*
X0153800Y0117824D02*
X0154385Y0117824D01*
X0154855Y0116826D02*
X0153800Y0116826D01*
X0153800Y0115827D02*
X0177102Y0115827D01*
X0176103Y0116826D02*
X0167145Y0116826D01*
X0167615Y0117824D02*
X0175489Y0117824D01*
X0177168Y0114239D02*
X0179005Y0115000D01*
X0180995Y0115000D01*
X0182832Y0114239D01*
X0184239Y0112832D01*
X0185761Y0112832D01*
X0185000Y0110995D01*
X0185000Y0109005D01*
X0185761Y0107168D01*
X0187168Y0105761D01*
X0189005Y0105000D01*
X0190995Y0105000D01*
X0192832Y0105761D01*
X0194239Y0107168D01*
X0195000Y0109005D01*
X0195000Y0110995D01*
X0194239Y0112832D01*
X0213000Y0112832D01*
X0213000Y0113830D02*
X0193241Y0113830D01*
X0192832Y0114239D02*
X0190995Y0115000D01*
X0189005Y0115000D01*
X0187168Y0114239D01*
X0185761Y0112832D01*
X0185347Y0111833D02*
X0184653Y0111833D01*
X0185000Y0110995D02*
X0184239Y0112832D01*
X0183241Y0113830D02*
X0186759Y0113830D01*
X0187102Y0115827D02*
X0182898Y0115827D01*
X0183897Y0116826D02*
X0186103Y0116826D01*
X0185489Y0117824D02*
X0184511Y0117824D01*
X0184924Y0118823D02*
X0185076Y0118823D01*
X0185000Y0119821D02*
X0185000Y0119821D01*
X0185000Y0120820D02*
X0185000Y0120820D01*
X0184659Y0121818D02*
X0185341Y0121818D01*
X0185755Y0122817D02*
X0184245Y0122817D01*
X0183256Y0123815D02*
X0186744Y0123815D01*
X0193256Y0123815D02*
X0213000Y0123815D01*
X0213000Y0122817D02*
X0194245Y0122817D01*
X0194659Y0121818D02*
X0213000Y0121818D01*
X0213000Y0120820D02*
X0195000Y0120820D01*
X0195000Y0119821D02*
X0213000Y0119821D01*
X0213000Y0118823D02*
X0194924Y0118823D01*
X0194511Y0117824D02*
X0213000Y0117824D01*
X0213000Y0116826D02*
X0193897Y0116826D01*
X0192898Y0115827D02*
X0213000Y0115827D01*
X0213000Y0114829D02*
X0191408Y0114829D01*
X0192832Y0114239D02*
X0194239Y0112832D01*
X0194653Y0111833D02*
X0213000Y0111833D01*
X0213000Y0110835D02*
X0195000Y0110835D01*
X0195000Y0109836D02*
X0213000Y0109836D01*
X0213000Y0108838D02*
X0194931Y0108838D01*
X0194517Y0107839D02*
X0213000Y0107839D01*
X0213000Y0106841D02*
X0193912Y0106841D01*
X0192913Y0105842D02*
X0213000Y0105842D01*
X0213000Y0104844D02*
X0191372Y0104844D01*
X0190995Y0105000D02*
X0189005Y0105000D01*
X0187168Y0104239D01*
X0185761Y0102832D01*
X0185000Y0100995D01*
X0185000Y0099005D01*
X0185761Y0097168D01*
X0187168Y0095761D01*
X0189005Y0095000D01*
X0190995Y0095000D01*
X0192832Y0095761D01*
X0194239Y0097168D01*
X0195000Y0099005D01*
X0195000Y0100995D01*
X0194239Y0102832D01*
X0192832Y0104239D01*
X0190995Y0105000D01*
X0188628Y0104844D02*
X0181372Y0104844D01*
X0180995Y0105000D02*
X0179005Y0105000D01*
X0180995Y0105000D01*
X0182832Y0105761D01*
X0184239Y0107168D01*
X0185000Y0109005D01*
X0185000Y0110995D01*
X0185000Y0110835D02*
X0185000Y0110835D01*
X0185000Y0109836D02*
X0185000Y0109836D01*
X0184931Y0108838D02*
X0185069Y0108838D01*
X0185483Y0107839D02*
X0184517Y0107839D01*
X0183912Y0106841D02*
X0186088Y0106841D01*
X0187087Y0105842D02*
X0182913Y0105842D01*
X0182832Y0104239D02*
X0180995Y0105000D01*
X0182832Y0104239D02*
X0184239Y0102832D01*
X0185000Y0100995D01*
X0185000Y0099005D01*
X0184239Y0097168D01*
X0182832Y0095761D01*
X0180995Y0095000D01*
X0179005Y0095000D01*
X0177168Y0094239D01*
X0175761Y0092832D01*
X0175334Y0091800D01*
X0166615Y0091800D01*
X0166615Y0092704D01*
X0165853Y0093465D01*
X0160839Y0093465D01*
X0160078Y0092704D01*
X0160078Y0087296D01*
X0160839Y0086535D01*
X0165853Y0086535D01*
X0166615Y0087296D01*
X0166615Y0088200D01*
X0175334Y0088200D01*
X0175761Y0087168D01*
X0177168Y0085761D01*
X0179005Y0085000D01*
X0180995Y0085000D01*
X0182832Y0085761D01*
X0184239Y0087168D01*
X0185000Y0089005D01*
X0185000Y0090995D01*
X0184239Y0092832D01*
X0182832Y0094239D01*
X0180995Y0095000D01*
X0179005Y0095000D01*
X0177168Y0095761D01*
X0175761Y0097168D01*
X0175000Y0099005D01*
X0175000Y0100200D01*
X0166615Y0100200D01*
X0166615Y0099296D01*
X0165853Y0098535D01*
X0160839Y0098535D01*
X0160078Y0099296D01*
X0160078Y0104704D01*
X0160839Y0105465D01*
X0165853Y0105465D01*
X0166615Y0104704D01*
X0166615Y0103800D01*
X0176729Y0103800D01*
X0177168Y0104239D01*
X0179005Y0105000D01*
X0177168Y0105761D01*
X0175761Y0107168D01*
X0175000Y0109005D01*
X0175000Y0110995D01*
X0175761Y0112832D01*
X0153800Y0112832D01*
X0153800Y0113830D02*
X0176759Y0113830D01*
X0177168Y0114239D02*
X0175761Y0112832D01*
X0175347Y0111833D02*
X0153800Y0111833D01*
X0153800Y0114829D02*
X0178592Y0114829D01*
X0181408Y0114829D02*
X0188592Y0114829D01*
X0180000Y0120000D02*
X0164346Y0120000D01*
X0167615Y0121818D02*
X0175341Y0121818D01*
X0175755Y0122817D02*
X0167502Y0122817D01*
X0158654Y0119346D02*
X0158500Y0119500D01*
X0158654Y0119346D02*
X0157654Y0120000D01*
X0152000Y0120000D02*
X0148184Y0123816D01*
X0143066Y0123816D01*
X0143066Y0125784D02*
X0135684Y0125784D01*
X0134700Y0124800D01*
X0133716Y0125784D01*
X0132000Y0125784D01*
X0130031Y0123816D01*
X0126334Y0123816D01*
X0126334Y0125784D02*
X0132000Y0125784D01*
X0129602Y0126811D02*
X0139798Y0126811D01*
X0139798Y0127809D02*
X0129602Y0127809D01*
X0129602Y0128808D02*
X0139798Y0128808D01*
X0139798Y0129806D02*
X0129602Y0129806D01*
X0126334Y0129721D02*
X0115616Y0129721D01*
X0115600Y0129706D01*
X0115941Y0130046D01*
X0116046Y0130046D01*
X0116046Y0130152D02*
X0115600Y0129706D01*
X0117553Y0127753D01*
X0126334Y0127753D01*
X0126334Y0121847D02*
X0122847Y0121847D01*
X0122000Y0121000D01*
X0118894Y0117894D01*
X0115600Y0117894D01*
X0116046Y0117448D01*
X0116000Y0113000D02*
X0120000Y0113000D01*
X0124000Y0117000D01*
X0129000Y0117000D01*
X0129000Y0114000D01*
X0126000Y0111000D01*
X0123000Y0111000D01*
X0119812Y0107812D01*
X0119493Y0107812D01*
X0118731Y0107050D01*
X0118731Y0106731D01*
X0116000Y0104000D01*
X0112000Y0104000D01*
X0112000Y0109000D01*
X0116000Y0113000D01*
X0112000Y0109000D01*
X0112000Y0105000D01*
X0113000Y0104000D01*
X0112000Y0104000D01*
X0112000Y0080000D01*
X0115346Y0076654D01*
X0133000Y0076654D01*
X0129535Y0078882D02*
X0115663Y0078882D01*
X0114665Y0079881D02*
X0130255Y0079881D01*
X0129535Y0080879D02*
X0113800Y0080879D01*
X0113800Y0081878D02*
X0129535Y0081878D01*
X0129535Y0082876D02*
X0113800Y0082876D01*
X0113800Y0083875D02*
X0129535Y0083875D01*
X0129535Y0084873D02*
X0113800Y0084873D01*
X0113800Y0085872D02*
X0129553Y0085872D01*
X0133000Y0083346D02*
X0141000Y0083346D01*
X0140654Y0083000D01*
X0138000Y0083000D01*
X0137653Y0083347D01*
X0137653Y0116434D01*
X0139621Y0116434D02*
X0139621Y0112379D01*
X0141000Y0111000D01*
X0141000Y0104446D01*
X0141100Y0104346D01*
X0141100Y0104100D01*
X0141000Y0104000D01*
X0134000Y0104374D02*
X0134000Y0110000D01*
X0135684Y0111684D01*
X0135684Y0116434D01*
X0133716Y0116434D02*
X0133716Y0112716D01*
X0128000Y0107000D01*
X0128000Y0104346D01*
X0127000Y0109000D02*
X0124000Y0109000D01*
X0122000Y0107000D01*
X0122000Y0104346D01*
X0119839Y0107839D02*
X0112000Y0107839D01*
X0112000Y0106841D02*
X0118731Y0106841D01*
X0117842Y0105842D02*
X0112000Y0105842D01*
X0112000Y0105000D02*
X0116000Y0104346D01*
X0116844Y0104844D02*
X0112000Y0104844D01*
X0112000Y0108838D02*
X0120838Y0108838D01*
X0121836Y0109836D02*
X0112836Y0109836D01*
X0113835Y0110835D02*
X0122835Y0110835D01*
X0120830Y0113830D02*
X0128830Y0113830D01*
X0129000Y0114829D02*
X0121829Y0114829D01*
X0122827Y0115827D02*
X0129000Y0115827D01*
X0129779Y0115779D02*
X0127000Y0113000D01*
X0116000Y0113000D01*
X0115832Y0112832D02*
X0127832Y0112832D01*
X0126833Y0111833D02*
X0114833Y0111833D01*
X0123826Y0116826D02*
X0129000Y0116826D01*
X0129779Y0116434D02*
X0129779Y0115779D01*
X0131747Y0116434D02*
X0131747Y0113747D01*
X0127000Y0109000D01*
X0133995Y0104369D02*
X0134000Y0104374D01*
X0135853Y0096856D02*
X0131268Y0096856D01*
X0131268Y0095857D02*
X0135853Y0095857D01*
X0135853Y0094859D02*
X0131177Y0094859D01*
X0130729Y0093860D02*
X0135853Y0093860D01*
X0135853Y0092862D02*
X0130850Y0092862D01*
X0130614Y0091863D02*
X0135853Y0091863D01*
X0135853Y0090865D02*
X0129895Y0090865D01*
X0126105Y0090865D02*
X0113800Y0090865D01*
X0113800Y0091863D02*
X0125386Y0091863D01*
X0125150Y0092862D02*
X0113800Y0092862D01*
X0113800Y0093860D02*
X0125271Y0093860D01*
X0124823Y0094859D02*
X0113800Y0094859D01*
X0113800Y0095857D02*
X0124731Y0095857D01*
X0124731Y0096856D02*
X0113800Y0096856D01*
X0110200Y0096856D02*
X0023927Y0096856D01*
X0024239Y0097168D02*
X0025000Y0099005D01*
X0025000Y0100995D01*
X0024239Y0102832D01*
X0022832Y0104239D01*
X0020995Y0105000D01*
X0022832Y0105761D01*
X0024239Y0107168D01*
X0025000Y0109005D01*
X0025000Y0110995D01*
X0024239Y0112832D01*
X0032168Y0112832D01*
X0031170Y0113830D02*
X0023241Y0113830D01*
X0022832Y0114239D02*
X0024239Y0112832D01*
X0024653Y0111833D02*
X0033167Y0111833D01*
X0034165Y0110835D02*
X0025000Y0110835D01*
X0025000Y0109836D02*
X0035164Y0109836D01*
X0038000Y0114000D02*
X0036000Y0116000D01*
X0036000Y0123000D01*
X0038000Y0125000D01*
X0052000Y0125000D01*
X0052000Y0123000D01*
X0043000Y0114000D01*
X0038000Y0114000D01*
X0037171Y0114829D02*
X0043829Y0114829D01*
X0044827Y0115827D02*
X0036173Y0115827D01*
X0036000Y0116826D02*
X0045826Y0116826D01*
X0046824Y0117824D02*
X0036000Y0117824D01*
X0036000Y0118823D02*
X0047823Y0118823D01*
X0048821Y0119821D02*
X0036000Y0119821D01*
X0036000Y0120820D02*
X0049820Y0120820D01*
X0050818Y0121818D02*
X0036000Y0121818D01*
X0036000Y0122817D02*
X0051817Y0122817D01*
X0052000Y0123815D02*
X0036815Y0123815D01*
X0037814Y0124814D02*
X0052000Y0124814D01*
X0052063Y0124193D02*
X0042657Y0124193D01*
X0044253Y0127000D02*
X0044253Y0129357D01*
X0043610Y0130000D01*
X0044253Y0130643D01*
X0044253Y0134000D01*
X0050189Y0134000D01*
X0049976Y0133787D01*
X0049976Y0132924D01*
X0048097Y0132924D01*
X0047220Y0132047D01*
X0047220Y0130118D01*
X0047338Y0130000D01*
X0047220Y0129882D01*
X0047220Y0127953D01*
X0048097Y0127076D01*
X0049976Y0127076D01*
X0049976Y0127000D01*
X0044253Y0127000D01*
X0044253Y0127809D02*
X0047363Y0127809D01*
X0047220Y0128808D02*
X0044253Y0128808D01*
X0043804Y0129806D02*
X0047220Y0129806D01*
X0047220Y0130805D02*
X0044253Y0130805D01*
X0044253Y0131803D02*
X0047220Y0131803D01*
X0047975Y0132802D02*
X0044253Y0132802D01*
X0044253Y0133801D02*
X0049990Y0133801D01*
X0046000Y0131000D02*
X0046000Y0129000D01*
X0070000Y0129000D01*
X0071747Y0128808D02*
X0064780Y0128808D01*
X0064780Y0129806D02*
X0072196Y0129806D01*
X0071747Y0130805D02*
X0064780Y0130805D01*
X0064780Y0131803D02*
X0071747Y0131803D01*
X0071747Y0132802D02*
X0064025Y0132802D01*
X0063000Y0133000D02*
X0063000Y0131000D01*
X0066000Y0131000D01*
X0063000Y0131000D02*
X0056000Y0131000D01*
X0056000Y0124193D01*
X0056000Y0104000D01*
X0057000Y0103000D01*
X0061346Y0103000D01*
X0066000Y0107654D01*
X0075000Y0107654D01*
X0077700Y0107839D02*
X0063804Y0107839D01*
X0063804Y0106841D02*
X0077700Y0106841D01*
X0077700Y0105842D02*
X0063185Y0105842D01*
X0063804Y0108838D02*
X0077700Y0108838D01*
X0080772Y0108559D02*
X0083559Y0108559D01*
X0085000Y0110000D01*
X0085000Y0113000D01*
X0089031Y0117031D01*
X0089031Y0124193D01*
X0087063Y0124193D02*
X0087063Y0121063D01*
X0079000Y0117000D01*
X0075000Y0117000D01*
X0075000Y0114346D01*
X0074170Y0113830D02*
X0078830Y0113830D01*
X0078000Y0113000D02*
X0075000Y0113000D01*
X0073000Y0115000D01*
X0073000Y0116000D01*
X0071000Y0118000D01*
X0071000Y0124000D01*
X0072000Y0125000D01*
X0087000Y0125000D01*
X0087000Y0120000D01*
X0085000Y0120000D01*
X0078000Y0113000D01*
X0079829Y0114829D02*
X0073171Y0114829D01*
X0073000Y0115827D02*
X0080827Y0115827D01*
X0081826Y0116826D02*
X0072174Y0116826D01*
X0071176Y0117824D02*
X0082824Y0117824D01*
X0083823Y0118823D02*
X0071000Y0118823D01*
X0071000Y0119821D02*
X0084821Y0119821D01*
X0087000Y0120820D02*
X0071000Y0120820D01*
X0071000Y0121818D02*
X0087000Y0121818D01*
X0087000Y0122817D02*
X0071000Y0122817D01*
X0071000Y0123815D02*
X0087000Y0123815D01*
X0087000Y0124814D02*
X0071814Y0124814D01*
X0071747Y0127809D02*
X0064637Y0127809D01*
X0059937Y0124193D02*
X0059937Y0120409D01*
X0061673Y0118673D01*
X0066000Y0114346D01*
X0061000Y0114000D02*
X0061000Y0109827D01*
X0060732Y0109559D01*
X0057661Y0108838D02*
X0050383Y0108838D01*
X0049385Y0107839D02*
X0057661Y0107839D01*
X0057661Y0106841D02*
X0048843Y0106841D01*
X0048224Y0105842D02*
X0058280Y0105842D01*
X0061000Y0114000D02*
X0057969Y0117031D01*
X0057969Y0124193D01*
X0054031Y0124193D02*
X0054031Y0118031D01*
X0051000Y0115000D01*
X0051000Y0112000D01*
X0048559Y0109559D01*
X0045772Y0109559D01*
X0042700Y0108838D02*
X0024931Y0108838D01*
X0024517Y0107839D02*
X0042700Y0107839D01*
X0042700Y0106841D02*
X0023912Y0106841D01*
X0022913Y0105842D02*
X0043319Y0105842D01*
X0030171Y0114829D02*
X0021408Y0114829D01*
X0020995Y0115000D02*
X0019005Y0115000D01*
X0017168Y0114239D01*
X0015761Y0112832D01*
X0014239Y0112832D01*
X0012832Y0114239D01*
X0010995Y0115000D01*
X0009005Y0115000D01*
X0007168Y0114239D01*
X0005761Y0112832D01*
X-0013000Y0112832D01*
X-0013000Y0113830D02*
X0006759Y0113830D01*
X0005761Y0112832D02*
X0005000Y0110995D01*
X0005000Y0109005D01*
X0005761Y0107168D01*
X0007168Y0105761D01*
X0009005Y0105000D01*
X0010995Y0105000D01*
X0012832Y0105761D01*
X0014239Y0107168D01*
X0015000Y0109005D01*
X0015000Y0110995D01*
X0014239Y0112832D01*
X0014653Y0111833D02*
X0015347Y0111833D01*
X0015000Y0110995D02*
X0015761Y0112832D01*
X0016759Y0113830D02*
X0013241Y0113830D01*
X0012898Y0115827D02*
X0017102Y0115827D01*
X0016103Y0116826D02*
X0013897Y0116826D01*
X0014511Y0117824D02*
X0015489Y0117824D01*
X0015076Y0118823D02*
X0014924Y0118823D01*
X0015000Y0119821D02*
X0015000Y0119821D01*
X0015000Y0120820D02*
X0015000Y0120820D01*
X0014659Y0121818D02*
X0015341Y0121818D01*
X0015755Y0122817D02*
X0014245Y0122817D01*
X0006744Y0123815D02*
X-0013000Y0123815D01*
X-0013000Y0122817D02*
X0005755Y0122817D01*
X0005341Y0121818D02*
X-0013000Y0121818D01*
X-0013000Y0120820D02*
X0005000Y0120820D01*
X0005000Y0119821D02*
X-0013000Y0119821D01*
X-0013000Y0118823D02*
X0005076Y0118823D01*
X0005489Y0117824D02*
X-0013000Y0117824D01*
X-0013000Y0116826D02*
X0006103Y0116826D01*
X0007102Y0115827D02*
X-0013000Y0115827D01*
X-0013000Y0114829D02*
X0008592Y0114829D01*
X0011408Y0114829D02*
X0018592Y0114829D01*
X0020995Y0115000D02*
X0022832Y0114239D01*
X0022898Y0115827D02*
X0029988Y0115827D01*
X0029973Y0116826D02*
X0023897Y0116826D01*
X0024511Y0117824D02*
X0029958Y0117824D01*
X0029944Y0118823D02*
X0024924Y0118823D01*
X0025000Y0119821D02*
X0029929Y0119821D01*
X0029914Y0120820D02*
X0025000Y0120820D01*
X0024659Y0121818D02*
X0029900Y0121818D01*
X0029885Y0122817D02*
X0024245Y0122817D01*
X0023256Y0123815D02*
X0029870Y0123815D01*
X0029856Y0124814D02*
X0021444Y0124814D01*
X0015000Y0110995D02*
X0015000Y0109005D01*
X0015761Y0107168D01*
X0017168Y0105761D01*
X0019005Y0105000D01*
X0020995Y0105000D01*
X0019005Y0105000D01*
X0017168Y0104239D01*
X0015761Y0102832D01*
X0015000Y0100995D01*
X0014239Y0102832D01*
X0012832Y0104239D01*
X0010995Y0105000D01*
X0009005Y0105000D01*
X0007168Y0104239D01*
X0005761Y0102832D01*
X0005000Y0100995D01*
X0005000Y0099005D01*
X0005761Y0097168D01*
X0007168Y0095761D01*
X0009005Y0095000D01*
X0010995Y0095000D01*
X0012832Y0095761D01*
X0014239Y0097168D01*
X0015000Y0099005D01*
X0015000Y0100995D01*
X0015000Y0099005D01*
X0015761Y0097168D01*
X0017168Y0095761D01*
X0019005Y0095000D01*
X0020995Y0095000D01*
X0022832Y0095761D01*
X0024239Y0097168D01*
X0024523Y0097854D02*
X0103000Y0097854D01*
X0103000Y0098853D02*
X0024937Y0098853D01*
X0025000Y0099851D02*
X0103000Y0099851D01*
X0103000Y0100850D02*
X0025000Y0100850D01*
X0024646Y0101848D02*
X0103000Y0101848D01*
X0103000Y0102847D02*
X0024224Y0102847D01*
X0023226Y0103845D02*
X0103000Y0103845D01*
X0103000Y0104844D02*
X0098186Y0104844D01*
X0098804Y0105842D02*
X0103000Y0105842D01*
X0103000Y0106841D02*
X0098804Y0106841D01*
X0098804Y0107839D02*
X0103000Y0107839D01*
X0103000Y0108838D02*
X0098804Y0108838D01*
X0098804Y0109836D02*
X0103000Y0109836D01*
X0103000Y0110835D02*
X0098804Y0110835D01*
X0095732Y0108559D02*
X0095732Y0115268D01*
X0093000Y0118000D01*
X0093000Y0124161D01*
X0092969Y0124193D01*
X0094937Y0124193D02*
X0094937Y0121409D01*
X0102000Y0114346D01*
X0102000Y0107654D02*
X0097346Y0103000D01*
X0093000Y0103000D01*
X0091000Y0105000D01*
X0091000Y0124193D01*
X0091000Y0129000D02*
X0081000Y0129000D01*
X0081000Y0131000D01*
X0104000Y0131000D01*
X0104000Y0129000D01*
X0099780Y0128808D02*
X0111150Y0128808D01*
X0111150Y0129806D02*
X0099780Y0129806D01*
X0099780Y0130805D02*
X0111150Y0130805D01*
X0111150Y0131803D02*
X0099780Y0131803D01*
X0099025Y0132802D02*
X0111346Y0132802D01*
X0113274Y0133801D02*
X0097010Y0133801D01*
X0099637Y0127809D02*
X0111150Y0127809D01*
X0111150Y0126811D02*
X0097024Y0126811D01*
X0096788Y0125812D02*
X0146157Y0125812D01*
X0146753Y0127753D02*
X0143066Y0127753D01*
X0143066Y0129721D02*
X0144721Y0129721D01*
X0146000Y0132000D01*
X0146753Y0127753D02*
X0148000Y0128000D01*
X0147153Y0121847D02*
X0143066Y0121847D01*
X0143066Y0119879D02*
X0146121Y0119879D01*
X0148000Y0118000D01*
X0148000Y0080000D01*
X0150000Y0078000D01*
X0156654Y0078000D01*
X0159922Y0077884D02*
X0160078Y0077884D01*
X0160078Y0078882D02*
X0159922Y0078882D01*
X0159922Y0079881D02*
X0160078Y0079881D01*
X0160078Y0080704D02*
X0160078Y0075296D01*
X0160839Y0074535D01*
X0165853Y0074535D01*
X0166615Y0075296D01*
X0166615Y0076200D01*
X0171746Y0076200D01*
X0173746Y0078200D01*
X0175334Y0078200D01*
X0175761Y0077168D01*
X0177168Y0075761D01*
X0179005Y0075000D01*
X0180995Y0075000D01*
X0182832Y0075761D01*
X0184239Y0077168D01*
X0185000Y0079005D01*
X0185761Y0077168D01*
X0187168Y0075761D01*
X0189005Y0075000D01*
X0190995Y0075000D01*
X0192832Y0075761D01*
X0194239Y0077168D01*
X0195000Y0079005D01*
X0195000Y0080995D01*
X0194239Y0082832D01*
X0192832Y0084239D01*
X0190995Y0085000D01*
X0192832Y0085761D01*
X0194239Y0087168D01*
X0195000Y0089005D01*
X0195000Y0090995D01*
X0194239Y0092832D01*
X0192832Y0094239D01*
X0190995Y0095000D01*
X0189005Y0095000D01*
X0187168Y0094239D01*
X0185761Y0092832D01*
X0185000Y0090995D01*
X0185000Y0089005D01*
X0185761Y0087168D01*
X0187168Y0085761D01*
X0189005Y0085000D01*
X0190995Y0085000D01*
X0189005Y0085000D01*
X0187168Y0084239D01*
X0185761Y0082832D01*
X0185000Y0080995D01*
X0185000Y0079005D01*
X0185000Y0080995D01*
X0184239Y0082832D01*
X0182832Y0084239D01*
X0180995Y0085000D01*
X0179005Y0085000D01*
X0177168Y0084239D01*
X0175761Y0082832D01*
X0175334Y0081800D01*
X0172254Y0081800D01*
X0170254Y0079800D01*
X0166615Y0079800D01*
X0166615Y0080704D01*
X0165853Y0081465D01*
X0160839Y0081465D01*
X0160078Y0080704D01*
X0160254Y0080879D02*
X0159746Y0080879D01*
X0159922Y0081878D02*
X0175366Y0081878D01*
X0175805Y0082876D02*
X0159922Y0082876D01*
X0159922Y0083875D02*
X0176804Y0083875D01*
X0177057Y0085872D02*
X0159922Y0085872D01*
X0159922Y0084873D02*
X0178700Y0084873D01*
X0181300Y0084873D02*
X0188700Y0084873D01*
X0187057Y0085872D02*
X0182943Y0085872D01*
X0183942Y0086870D02*
X0186058Y0086870D01*
X0185471Y0087869D02*
X0184529Y0087869D01*
X0184943Y0088868D02*
X0185057Y0088868D01*
X0185000Y0089866D02*
X0185000Y0089866D01*
X0185000Y0090865D02*
X0185000Y0090865D01*
X0184640Y0091863D02*
X0185360Y0091863D01*
X0185790Y0092862D02*
X0184209Y0092862D01*
X0183211Y0093860D02*
X0186789Y0093860D01*
X0187072Y0095857D02*
X0182928Y0095857D01*
X0183927Y0096856D02*
X0186073Y0096856D01*
X0185477Y0097854D02*
X0184523Y0097854D01*
X0184937Y0098853D02*
X0185063Y0098853D01*
X0185000Y0099851D02*
X0185000Y0099851D01*
X0185000Y0100850D02*
X0185000Y0100850D01*
X0184646Y0101848D02*
X0185354Y0101848D01*
X0185776Y0102847D02*
X0184224Y0102847D01*
X0183226Y0103845D02*
X0186774Y0103845D01*
X0193226Y0103845D02*
X0213000Y0103845D01*
X0213000Y0102847D02*
X0194224Y0102847D01*
X0194646Y0101848D02*
X0213000Y0101848D01*
X0213000Y0100850D02*
X0195000Y0100850D01*
X0195000Y0099851D02*
X0213000Y0099851D01*
X0213000Y0098853D02*
X0194937Y0098853D01*
X0194523Y0097854D02*
X0213000Y0097854D01*
X0213000Y0096856D02*
X0193927Y0096856D01*
X0192928Y0095857D02*
X0213000Y0095857D01*
X0213000Y0094859D02*
X0191336Y0094859D01*
X0193211Y0093860D02*
X0213000Y0093860D01*
X0213000Y0092862D02*
X0194209Y0092862D01*
X0194640Y0091863D02*
X0213000Y0091863D01*
X0213000Y0090865D02*
X0195000Y0090865D01*
X0195000Y0089866D02*
X0213000Y0089866D01*
X0213000Y0088868D02*
X0194943Y0088868D01*
X0194529Y0087869D02*
X0213000Y0087869D01*
X0213000Y0086870D02*
X0193942Y0086870D01*
X0192943Y0085872D02*
X0213000Y0085872D01*
X0213000Y0084873D02*
X0191300Y0084873D01*
X0193196Y0083875D02*
X0213000Y0083875D01*
X0213000Y0082876D02*
X0194195Y0082876D01*
X0194634Y0081878D02*
X0213000Y0081878D01*
X0213000Y0080879D02*
X0195000Y0080879D01*
X0195000Y0079881D02*
X0213000Y0079881D01*
X0213000Y0078882D02*
X0194949Y0078882D01*
X0194535Y0077884D02*
X0213000Y0077884D01*
X0213000Y0076885D02*
X0193956Y0076885D01*
X0192958Y0075887D02*
X0213000Y0075887D01*
X0213000Y0074888D02*
X0191264Y0074888D01*
X0190995Y0075000D02*
X0189005Y0075000D01*
X0187168Y0074239D01*
X0185761Y0072832D01*
X0185000Y0070995D01*
X0185000Y0069005D01*
X0185761Y0067168D01*
X0187168Y0065761D01*
X0189005Y0065000D01*
X0190995Y0065000D01*
X0192832Y0065761D01*
X0194239Y0067168D01*
X0195000Y0069005D01*
X0195000Y0070995D01*
X0194239Y0072832D01*
X0192832Y0074239D01*
X0190995Y0075000D01*
X0188736Y0074888D02*
X0181264Y0074888D01*
X0180995Y0075000D02*
X0179005Y0075000D01*
X0177168Y0074239D01*
X0175761Y0072832D01*
X0175000Y0070995D01*
X0175000Y0069005D01*
X0175761Y0067168D01*
X0177168Y0065761D01*
X0179005Y0065000D01*
X0180995Y0065000D01*
X0182832Y0065761D01*
X0184239Y0067168D01*
X0185000Y0069005D01*
X0185000Y0070995D01*
X0184239Y0072832D01*
X0182832Y0074239D01*
X0180995Y0075000D01*
X0182958Y0075887D02*
X0187042Y0075887D01*
X0186044Y0076885D02*
X0183956Y0076885D01*
X0184535Y0077884D02*
X0185465Y0077884D01*
X0185051Y0078882D02*
X0184949Y0078882D01*
X0185000Y0079881D02*
X0185000Y0079881D01*
X0185000Y0080879D02*
X0185000Y0080879D01*
X0184634Y0081878D02*
X0185366Y0081878D01*
X0185805Y0082876D02*
X0184195Y0082876D01*
X0183196Y0083875D02*
X0186804Y0083875D01*
X0180000Y0080000D02*
X0173000Y0080000D01*
X0171000Y0078000D01*
X0163346Y0078000D01*
X0160078Y0076885D02*
X0159922Y0076885D01*
X0159922Y0075887D02*
X0160078Y0075887D01*
X0160486Y0074888D02*
X0159514Y0074888D01*
X0153793Y0074888D02*
X0136465Y0074888D01*
X0136465Y0075887D02*
X0153385Y0075887D01*
X0148569Y0076885D02*
X0136465Y0076885D01*
X0136465Y0077884D02*
X0147571Y0077884D01*
X0146572Y0078882D02*
X0136465Y0078882D01*
X0135745Y0079881D02*
X0146200Y0079881D01*
X0146200Y0080879D02*
X0144465Y0080879D01*
X0144465Y0081878D02*
X0146200Y0081878D01*
X0146200Y0082876D02*
X0144465Y0082876D01*
X0144465Y0083875D02*
X0146200Y0083875D01*
X0146200Y0084873D02*
X0144465Y0084873D01*
X0144447Y0085872D02*
X0146200Y0085872D01*
X0146200Y0086870D02*
X0139453Y0086870D01*
X0139453Y0087869D02*
X0146200Y0087869D01*
X0146200Y0088868D02*
X0139453Y0088868D01*
X0139453Y0089866D02*
X0146200Y0089866D01*
X0146200Y0090865D02*
X0139453Y0090865D01*
X0139453Y0091863D02*
X0146200Y0091863D01*
X0146200Y0092862D02*
X0139453Y0092862D01*
X0139453Y0093860D02*
X0146200Y0093860D01*
X0146200Y0094859D02*
X0139453Y0094859D01*
X0139453Y0095857D02*
X0146200Y0095857D01*
X0146200Y0096856D02*
X0139453Y0096856D01*
X0135853Y0089866D02*
X0113800Y0089866D01*
X0113800Y0088868D02*
X0135853Y0088868D01*
X0135853Y0087869D02*
X0113800Y0087869D01*
X0113800Y0086870D02*
X0135853Y0086870D01*
X0136465Y0080879D02*
X0137535Y0080879D01*
X0136209Y0073890D02*
X0176819Y0073890D01*
X0175820Y0072891D02*
X0092437Y0072891D01*
X0091438Y0071893D02*
X0175372Y0071893D01*
X0175000Y0070894D02*
X0090440Y0070894D01*
X0089441Y0069896D02*
X0175000Y0069896D01*
X0175045Y0068897D02*
X0088443Y0068897D01*
X0087444Y0067899D02*
X0175458Y0067899D01*
X0176029Y0066900D02*
X0086446Y0066900D01*
X0085447Y0065902D02*
X0177027Y0065902D01*
X0177168Y0064239D02*
X0175761Y0062832D01*
X0175000Y0060995D01*
X0175000Y0059005D01*
X0175761Y0057168D01*
X0177168Y0055761D01*
X0179005Y0055000D01*
X0180995Y0055000D01*
X0182832Y0055761D01*
X0184239Y0057168D01*
X0185000Y0059005D01*
X0185761Y0057168D01*
X0187168Y0055761D01*
X0189005Y0055000D01*
X0190995Y0055000D01*
X0192832Y0055761D01*
X0194239Y0057168D01*
X0195000Y0059005D01*
X0195000Y0060995D01*
X0194239Y0062832D01*
X0192832Y0064239D01*
X0190995Y0065000D01*
X0189005Y0065000D01*
X0187168Y0064239D01*
X0185761Y0062832D01*
X0185000Y0060995D01*
X0185000Y0059005D01*
X0185000Y0060995D01*
X0184239Y0062832D01*
X0182832Y0064239D01*
X0180995Y0065000D01*
X0179005Y0065000D01*
X0177168Y0064239D01*
X0176834Y0063905D02*
X0083450Y0063905D01*
X0082452Y0062906D02*
X0175835Y0062906D01*
X0175378Y0061908D02*
X0081453Y0061908D01*
X0080455Y0060909D02*
X0175000Y0060909D01*
X0175000Y0059911D02*
X0079456Y0059911D01*
X0078458Y0058912D02*
X0175039Y0058912D01*
X0175452Y0057914D02*
X0077459Y0057914D01*
X0076461Y0056915D02*
X0176014Y0056915D01*
X0177012Y0055917D02*
X0075462Y0055917D01*
X0074464Y0054918D02*
X0178808Y0054918D01*
X0179005Y0055000D02*
X0177168Y0054239D01*
X0175761Y0052832D01*
X0175000Y0050995D01*
X0175000Y0049005D01*
X0175761Y0047168D01*
X0177168Y0045761D01*
X0179005Y0045000D01*
X0180995Y0045000D01*
X0182832Y0045761D01*
X0184239Y0047168D01*
X0185000Y0049005D01*
X0185761Y0047168D01*
X0187168Y0045761D01*
X0189005Y0045000D01*
X0190995Y0045000D01*
X0192832Y0045761D01*
X0194239Y0047168D01*
X0195000Y0049005D01*
X0195000Y0050995D01*
X0194239Y0052832D01*
X0192832Y0054239D01*
X0190995Y0055000D01*
X0189005Y0055000D01*
X0187168Y0054239D01*
X0185761Y0052832D01*
X0185000Y0050995D01*
X0185000Y0049005D01*
X0185000Y0050995D01*
X0184239Y0052832D01*
X0182832Y0054239D01*
X0180995Y0055000D01*
X0179005Y0055000D01*
X0181192Y0054918D02*
X0188808Y0054918D01*
X0187012Y0055917D02*
X0182988Y0055917D01*
X0183986Y0056915D02*
X0186014Y0056915D01*
X0185452Y0057914D02*
X0184548Y0057914D01*
X0184961Y0058912D02*
X0185039Y0058912D01*
X0185000Y0059911D02*
X0185000Y0059911D01*
X0185000Y0060909D02*
X0185000Y0060909D01*
X0184622Y0061908D02*
X0185378Y0061908D01*
X0185835Y0062906D02*
X0184165Y0062906D01*
X0183166Y0063905D02*
X0186834Y0063905D01*
X0187027Y0065902D02*
X0182973Y0065902D01*
X0183971Y0066900D02*
X0186029Y0066900D01*
X0185458Y0067899D02*
X0184542Y0067899D01*
X0184955Y0068897D02*
X0185045Y0068897D01*
X0185000Y0069896D02*
X0185000Y0069896D01*
X0185000Y0070894D02*
X0185000Y0070894D01*
X0184628Y0071893D02*
X0185372Y0071893D01*
X0185820Y0072891D02*
X0184180Y0072891D01*
X0183181Y0073890D02*
X0186819Y0073890D01*
X0193181Y0073890D02*
X0213000Y0073890D01*
X0213000Y0072891D02*
X0194180Y0072891D01*
X0194628Y0071893D02*
X0213000Y0071893D01*
X0213000Y0070894D02*
X0195000Y0070894D01*
X0195000Y0069896D02*
X0213000Y0069896D01*
X0213000Y0068897D02*
X0194955Y0068897D01*
X0194542Y0067899D02*
X0213000Y0067899D01*
X0213000Y0066900D02*
X0193971Y0066900D01*
X0192973Y0065902D02*
X0213000Y0065902D01*
X0213000Y0064903D02*
X0191228Y0064903D01*
X0193166Y0063905D02*
X0213000Y0063905D01*
X0213000Y0062906D02*
X0194165Y0062906D01*
X0194622Y0061908D02*
X0213000Y0061908D01*
X0213000Y0060909D02*
X0195000Y0060909D01*
X0195000Y0059911D02*
X0213000Y0059911D01*
X0213000Y0058912D02*
X0194961Y0058912D01*
X0194548Y0057914D02*
X0213000Y0057914D01*
X0213000Y0056915D02*
X0193986Y0056915D01*
X0192988Y0055917D02*
X0213000Y0055917D01*
X0213000Y0054918D02*
X0191192Y0054918D01*
X0193151Y0053920D02*
X0213000Y0053920D01*
X0213000Y0052921D02*
X0194150Y0052921D01*
X0194616Y0051923D02*
X0213000Y0051923D01*
X0213000Y0050924D02*
X0195000Y0050924D01*
X0195000Y0049926D02*
X0213000Y0049926D01*
X0213000Y0048927D02*
X0194968Y0048927D01*
X0194554Y0047929D02*
X0213000Y0047929D01*
X0213000Y0046930D02*
X0194001Y0046930D01*
X0193003Y0045932D02*
X0213000Y0045932D01*
X0213000Y0044933D02*
X0045615Y0044933D01*
X0045615Y0043934D02*
X0213000Y0043934D01*
X0213000Y0042936D02*
X0045255Y0042936D01*
X0045615Y0043296D02*
X0045615Y0048704D01*
X0044853Y0049465D01*
X0044146Y0049465D01*
X0044146Y0050535D01*
X0044853Y0050535D01*
X0045615Y0051296D01*
X0045615Y0052200D01*
X0071746Y0052200D01*
X0072800Y0053254D01*
X0094696Y0075150D01*
X0095567Y0075150D01*
X0096614Y0075584D01*
X0097416Y0076386D01*
X0097850Y0077433D01*
X0097850Y0078567D01*
X0097416Y0079614D01*
X0096614Y0080416D01*
X0095567Y0080850D01*
X0094433Y0080850D01*
X0093438Y0080438D01*
X0093850Y0081433D01*
X0093850Y0082567D01*
X0093416Y0083614D01*
X0092614Y0084416D01*
X0091567Y0084850D01*
X0090433Y0084850D01*
X0089386Y0084416D01*
X0088584Y0083614D01*
X0088150Y0082567D01*
X0088150Y0081696D01*
X0080254Y0073800D01*
X0045615Y0073800D01*
X0045615Y0074704D01*
X0044853Y0075465D01*
X0039839Y0075465D01*
X0039078Y0074704D01*
X0039078Y0069296D01*
X0039839Y0068535D01*
X0040546Y0068535D01*
X0040546Y0067465D01*
X0039839Y0067465D01*
X0039078Y0066704D01*
X0039078Y0061296D01*
X0039839Y0060535D01*
X0044853Y0060535D01*
X0045615Y0061296D01*
X0045615Y0066704D01*
X0044853Y0067465D01*
X0044146Y0067465D01*
X0044146Y0068535D01*
X0044853Y0068535D01*
X0045615Y0069296D01*
X0045615Y0070200D01*
X0081746Y0070200D01*
X0090696Y0079150D01*
X0091567Y0079150D01*
X0092562Y0079562D01*
X0092150Y0078567D01*
X0092150Y0077696D01*
X0070254Y0055800D01*
X0045615Y0055800D01*
X0045615Y0056704D01*
X0044853Y0057465D01*
X0039839Y0057465D01*
X0039078Y0056704D01*
X0039078Y0051296D01*
X0039839Y0050535D01*
X0040546Y0050535D01*
X0040546Y0049465D01*
X0039839Y0049465D01*
X0039078Y0048704D01*
X0039078Y0043296D01*
X0039839Y0042535D01*
X0044853Y0042535D01*
X0045615Y0043296D01*
X0045615Y0045932D02*
X0176997Y0045932D01*
X0175999Y0046930D02*
X0045615Y0046930D01*
X0045615Y0047929D02*
X0175446Y0047929D01*
X0175032Y0048927D02*
X0045392Y0048927D01*
X0044146Y0049926D02*
X0175000Y0049926D01*
X0175000Y0050924D02*
X0045243Y0050924D01*
X0045615Y0051923D02*
X0175384Y0051923D01*
X0175850Y0052921D02*
X0072467Y0052921D01*
X0073465Y0053920D02*
X0176849Y0053920D01*
X0183151Y0053920D02*
X0186849Y0053920D01*
X0185850Y0052921D02*
X0184150Y0052921D01*
X0184616Y0051923D02*
X0185384Y0051923D01*
X0185000Y0050924D02*
X0185000Y0050924D01*
X0185000Y0049926D02*
X0185000Y0049926D01*
X0184968Y0048927D02*
X0185032Y0048927D01*
X0185446Y0047929D02*
X0184554Y0047929D01*
X0184001Y0046930D02*
X0185999Y0046930D01*
X0186997Y0045932D02*
X0183003Y0045932D01*
X0181228Y0064903D02*
X0188772Y0064903D01*
X0178772Y0064903D02*
X0084449Y0064903D01*
X0082353Y0067899D02*
X0044146Y0067899D01*
X0045216Y0068897D02*
X0083352Y0068897D01*
X0084350Y0069896D02*
X0045615Y0069896D01*
X0045419Y0066900D02*
X0081355Y0066900D01*
X0080356Y0065902D02*
X0045615Y0065902D01*
X0045615Y0064903D02*
X0079358Y0064903D01*
X0078359Y0063905D02*
X0045615Y0063905D01*
X0045615Y0062906D02*
X0077361Y0062906D01*
X0076362Y0061908D02*
X0045615Y0061908D01*
X0045228Y0060909D02*
X0075364Y0060909D01*
X0074365Y0059911D02*
X0025000Y0059911D01*
X0025000Y0059005D02*
X0025000Y0060995D01*
X0024239Y0062832D01*
X0023871Y0063200D01*
X0024254Y0063200D01*
X0025254Y0062200D01*
X0032385Y0062200D01*
X0032385Y0061296D01*
X0033147Y0060535D01*
X0038161Y0060535D01*
X0038922Y0061296D01*
X0038922Y0066704D01*
X0038161Y0067465D01*
X0033147Y0067465D01*
X0032385Y0066704D01*
X0032385Y0065800D01*
X0026746Y0065800D01*
X0025746Y0066800D01*
X0023871Y0066800D01*
X0024239Y0067168D01*
X0025000Y0069005D01*
X0025000Y0070995D01*
X0024239Y0072832D01*
X0022832Y0074239D01*
X0020995Y0075000D01*
X0019005Y0075000D01*
X0017168Y0074239D01*
X0015761Y0072832D01*
X0015000Y0070995D01*
X0014239Y0072832D01*
X0012832Y0074239D01*
X0010995Y0075000D01*
X0012832Y0075761D01*
X0014239Y0077168D01*
X0015000Y0079005D01*
X0015000Y0080995D01*
X0014239Y0082832D01*
X0012832Y0084239D01*
X0010995Y0085000D01*
X0012832Y0085761D01*
X0014239Y0087168D01*
X0015000Y0089005D01*
X0015000Y0090995D01*
X0014239Y0092832D01*
X0012832Y0094239D01*
X0010995Y0095000D01*
X0009005Y0095000D01*
X0007168Y0094239D01*
X0005761Y0092832D01*
X0005000Y0090995D01*
X0005000Y0089005D01*
X0005761Y0087168D01*
X0007168Y0085761D01*
X0009005Y0085000D01*
X0010995Y0085000D01*
X0009005Y0085000D01*
X0007168Y0084239D01*
X0005761Y0082832D01*
X0005000Y0080995D01*
X0005000Y0079005D01*
X0005761Y0077168D01*
X0007168Y0075761D01*
X0009005Y0075000D01*
X0010995Y0075000D01*
X0009005Y0075000D01*
X0007168Y0074239D01*
X0005761Y0072832D01*
X0005000Y0070995D01*
X0005000Y0069005D01*
X0005761Y0067168D01*
X0007168Y0065761D01*
X0009005Y0065000D01*
X0010995Y0065000D01*
X0012832Y0065761D01*
X0014239Y0067168D01*
X0015000Y0069005D01*
X0015000Y0070995D01*
X0015000Y0069005D01*
X0015761Y0067168D01*
X0016129Y0066800D01*
X0014254Y0066800D01*
X0012027Y0064572D01*
X0010995Y0065000D01*
X0009005Y0065000D01*
X0007168Y0064239D01*
X0005761Y0062832D01*
X0005000Y0060995D01*
X0005000Y0059005D01*
X0005761Y0057168D01*
X0007168Y0055761D01*
X0009005Y0055000D01*
X0007168Y0054239D01*
X0005761Y0052832D01*
X0005000Y0050995D01*
X0005000Y0049005D01*
X0005761Y0047168D01*
X0007168Y0045761D01*
X0009005Y0045000D01*
X0010995Y0045000D01*
X0012832Y0045761D01*
X0014239Y0047168D01*
X0015000Y0049005D01*
X0015761Y0047168D01*
X0017168Y0045761D01*
X0019005Y0045000D01*
X0020995Y0045000D01*
X0022832Y0045761D01*
X0024239Y0047168D01*
X0025000Y0049005D01*
X0025000Y0050995D01*
X0024239Y0052832D01*
X0023871Y0053200D01*
X0024254Y0053200D01*
X0025254Y0052200D01*
X0032385Y0052200D01*
X0032385Y0051296D01*
X0033147Y0050535D01*
X0038161Y0050535D01*
X0038922Y0051296D01*
X0038922Y0056704D01*
X0038161Y0057465D01*
X0033147Y0057465D01*
X0032385Y0056704D01*
X0032385Y0055800D01*
X0026746Y0055800D01*
X0025746Y0056800D01*
X0023871Y0056800D01*
X0024239Y0057168D01*
X0025000Y0059005D01*
X0024961Y0058912D02*
X0073367Y0058912D01*
X0072368Y0057914D02*
X0024548Y0057914D01*
X0023986Y0056915D02*
X0032596Y0056915D01*
X0032385Y0055917D02*
X0026629Y0055917D01*
X0025000Y0055000D02*
X0015000Y0055000D01*
X0010000Y0050000D01*
X0014616Y0051923D02*
X0015384Y0051923D01*
X0014572Y0052027D02*
X0015000Y0050995D01*
X0015000Y0049005D01*
X0015000Y0050995D01*
X0015761Y0052832D01*
X0016129Y0053200D01*
X0015746Y0053200D01*
X0014572Y0052027D01*
X0015000Y0050924D02*
X0015000Y0050924D01*
X0015000Y0049926D02*
X0015000Y0049926D01*
X0014968Y0048927D02*
X0015032Y0048927D01*
X0015446Y0047929D02*
X0014554Y0047929D01*
X0014001Y0046930D02*
X0015999Y0046930D01*
X0016997Y0045932D02*
X0013003Y0045932D01*
X0006997Y0045932D02*
X-0013000Y0045932D01*
X-0013000Y0046930D02*
X0005999Y0046930D01*
X0005446Y0047929D02*
X-0013000Y0047929D01*
X-0013000Y0048927D02*
X0005032Y0048927D01*
X0005000Y0049926D02*
X-0013000Y0049926D01*
X-0013000Y0050924D02*
X0005000Y0050924D01*
X0005384Y0051923D02*
X-0013000Y0051923D01*
X-0013000Y0052921D02*
X0005850Y0052921D01*
X0006849Y0053920D02*
X-0013000Y0053920D01*
X-0013000Y0054918D02*
X0008808Y0054918D01*
X0009005Y0055000D02*
X0010995Y0055000D01*
X0012027Y0054572D01*
X0014254Y0056800D01*
X0016129Y0056800D01*
X0015761Y0057168D01*
X0015000Y0059005D01*
X0015000Y0060995D01*
X0015761Y0062832D01*
X0016129Y0063200D01*
X0015746Y0063200D01*
X0014572Y0062027D01*
X0015000Y0060995D01*
X0015000Y0059005D01*
X0014239Y0057168D01*
X0012832Y0055761D01*
X0010995Y0055000D01*
X0009005Y0055000D01*
X0011192Y0054918D02*
X0012373Y0054918D01*
X0012988Y0055917D02*
X0013371Y0055917D01*
X0013986Y0056915D02*
X0016014Y0056915D01*
X0015452Y0057914D02*
X0014548Y0057914D01*
X0014961Y0058912D02*
X0015039Y0058912D01*
X0015000Y0059911D02*
X0015000Y0059911D01*
X0015000Y0060909D02*
X0015000Y0060909D01*
X0014622Y0061908D02*
X0015378Y0061908D01*
X0015452Y0062906D02*
X0015835Y0062906D01*
X0015000Y0065000D02*
X0010000Y0060000D01*
X0006834Y0063905D02*
X-0013000Y0063905D01*
X-0013000Y0064903D02*
X0008772Y0064903D01*
X0007027Y0065902D02*
X-0013000Y0065902D01*
X-0013000Y0066900D02*
X0006029Y0066900D01*
X0005458Y0067899D02*
X-0013000Y0067899D01*
X-0013000Y0068897D02*
X0005045Y0068897D01*
X0005000Y0069896D02*
X-0013000Y0069896D01*
X-0013000Y0070894D02*
X0005000Y0070894D01*
X0005372Y0071893D02*
X-0013000Y0071893D01*
X-0013000Y0072891D02*
X0005820Y0072891D01*
X0006819Y0073890D02*
X-0013000Y0073890D01*
X-0013000Y0074888D02*
X0008736Y0074888D01*
X0007042Y0075887D02*
X-0013000Y0075887D01*
X-0013000Y0076885D02*
X0006044Y0076885D01*
X0005465Y0077884D02*
X-0013000Y0077884D01*
X-0013000Y0078882D02*
X0005051Y0078882D01*
X0005000Y0079881D02*
X-0013000Y0079881D01*
X-0013000Y0080879D02*
X0005000Y0080879D01*
X0005366Y0081878D02*
X-0013000Y0081878D01*
X-0013000Y0082876D02*
X0005805Y0082876D01*
X0006804Y0083875D02*
X-0013000Y0083875D01*
X-0013000Y0084873D02*
X0008700Y0084873D01*
X0007057Y0085872D02*
X-0013000Y0085872D01*
X-0013000Y0086870D02*
X0006058Y0086870D01*
X0005471Y0087869D02*
X-0013000Y0087869D01*
X-0013000Y0088868D02*
X0005057Y0088868D01*
X0005000Y0089866D02*
X-0013000Y0089866D01*
X-0013000Y0090865D02*
X0005000Y0090865D01*
X0005360Y0091863D02*
X-0013000Y0091863D01*
X-0013000Y0092862D02*
X0005790Y0092862D01*
X0006789Y0093860D02*
X-0013000Y0093860D01*
X-0013000Y0094859D02*
X0008664Y0094859D01*
X0007072Y0095857D02*
X-0013000Y0095857D01*
X-0013000Y0096856D02*
X0006073Y0096856D01*
X0005477Y0097854D02*
X-0013000Y0097854D01*
X-0013000Y0098853D02*
X0005063Y0098853D01*
X0005000Y0099851D02*
X-0013000Y0099851D01*
X-0013000Y0100850D02*
X0005000Y0100850D01*
X0005354Y0101848D02*
X-0013000Y0101848D01*
X-0013000Y0102847D02*
X0005776Y0102847D01*
X0006774Y0103845D02*
X-0013000Y0103845D01*
X-0013000Y0104844D02*
X0008628Y0104844D01*
X0007087Y0105842D02*
X-0013000Y0105842D01*
X-0013000Y0106841D02*
X0006088Y0106841D01*
X0005483Y0107839D02*
X-0013000Y0107839D01*
X-0013000Y0108838D02*
X0005069Y0108838D01*
X0005000Y0109836D02*
X-0013000Y0109836D01*
X-0013000Y0110835D02*
X0005000Y0110835D01*
X0005347Y0111833D02*
X-0013000Y0111833D01*
X0011372Y0104844D02*
X0018628Y0104844D01*
X0017087Y0105842D02*
X0012913Y0105842D01*
X0013912Y0106841D02*
X0016088Y0106841D01*
X0015483Y0107839D02*
X0014517Y0107839D01*
X0014931Y0108838D02*
X0015069Y0108838D01*
X0015000Y0109836D02*
X0015000Y0109836D01*
X0015000Y0110835D02*
X0015000Y0110835D01*
X0013226Y0103845D02*
X0016774Y0103845D01*
X0015776Y0102847D02*
X0014224Y0102847D01*
X0014646Y0101848D02*
X0015354Y0101848D01*
X0015000Y0100850D02*
X0015000Y0100850D01*
X0015000Y0099851D02*
X0015000Y0099851D01*
X0014937Y0098853D02*
X0015063Y0098853D01*
X0015477Y0097854D02*
X0014523Y0097854D01*
X0013927Y0096856D02*
X0016073Y0096856D01*
X0017072Y0095857D02*
X0012928Y0095857D01*
X0011336Y0094859D02*
X0018664Y0094859D01*
X0019005Y0095000D02*
X0017168Y0094239D01*
X0015761Y0092832D01*
X0015000Y0090995D01*
X0015000Y0089005D01*
X0015761Y0087168D01*
X0017168Y0085761D01*
X0019005Y0085000D01*
X0020995Y0085000D01*
X0022832Y0085761D01*
X0024239Y0087168D01*
X0025000Y0089005D01*
X0025000Y0090995D01*
X0024239Y0092832D01*
X0022832Y0094239D01*
X0020995Y0095000D01*
X0019005Y0095000D01*
X0021336Y0094859D02*
X0110200Y0094859D01*
X0110200Y0095857D02*
X0022928Y0095857D01*
X0023211Y0093860D02*
X0110200Y0093860D01*
X0110200Y0092862D02*
X0024209Y0092862D01*
X0024640Y0091863D02*
X0110200Y0091863D01*
X0110200Y0090865D02*
X0025000Y0090865D01*
X0025000Y0089866D02*
X0110200Y0089866D01*
X0110200Y0088868D02*
X0024943Y0088868D01*
X0024529Y0087869D02*
X0110200Y0087869D01*
X0110200Y0086870D02*
X0023942Y0086870D01*
X0022943Y0085872D02*
X0110200Y0085872D01*
X0110200Y0084873D02*
X0021300Y0084873D01*
X0020995Y0085000D02*
X0019005Y0085000D01*
X0017168Y0084239D01*
X0015761Y0082832D01*
X0015000Y0080995D01*
X0015000Y0079005D01*
X0015761Y0077168D01*
X0017168Y0075761D01*
X0019005Y0075000D01*
X0020995Y0075000D01*
X0022832Y0075761D01*
X0024239Y0077168D01*
X0025000Y0079005D01*
X0025000Y0080995D01*
X0024239Y0082832D01*
X0022832Y0084239D01*
X0020995Y0085000D01*
X0018700Y0084873D02*
X0011300Y0084873D01*
X0012943Y0085872D02*
X0017057Y0085872D01*
X0016058Y0086870D02*
X0013942Y0086870D01*
X0014529Y0087869D02*
X0015471Y0087869D01*
X0015057Y0088868D02*
X0014943Y0088868D01*
X0015000Y0089866D02*
X0015000Y0089866D01*
X0015000Y0090865D02*
X0015000Y0090865D01*
X0014640Y0091863D02*
X0015360Y0091863D01*
X0015790Y0092862D02*
X0014209Y0092862D01*
X0013211Y0093860D02*
X0016789Y0093860D01*
X0016804Y0083875D02*
X0013196Y0083875D01*
X0014195Y0082876D02*
X0015805Y0082876D01*
X0015366Y0081878D02*
X0014634Y0081878D01*
X0015000Y0080879D02*
X0015000Y0080879D01*
X0015000Y0079881D02*
X0015000Y0079881D01*
X0014949Y0078882D02*
X0015051Y0078882D01*
X0015465Y0077884D02*
X0014535Y0077884D01*
X0013956Y0076885D02*
X0016044Y0076885D01*
X0017042Y0075887D02*
X0012958Y0075887D01*
X0011264Y0074888D02*
X0018736Y0074888D01*
X0016819Y0073890D02*
X0013181Y0073890D01*
X0014180Y0072891D02*
X0015820Y0072891D01*
X0015372Y0071893D02*
X0014628Y0071893D01*
X0015000Y0070894D02*
X0015000Y0070894D01*
X0015000Y0069896D02*
X0015000Y0069896D01*
X0014955Y0068897D02*
X0015045Y0068897D01*
X0015458Y0067899D02*
X0014542Y0067899D01*
X0013971Y0066900D02*
X0016029Y0066900D01*
X0015000Y0065000D02*
X0025000Y0065000D01*
X0026000Y0064000D01*
X0035654Y0064000D01*
X0038922Y0063905D02*
X0039078Y0063905D01*
X0039078Y0064903D02*
X0038922Y0064903D01*
X0038922Y0065902D02*
X0039078Y0065902D01*
X0039274Y0066900D02*
X0038726Y0066900D01*
X0038161Y0068535D02*
X0038922Y0069296D01*
X0038922Y0074704D01*
X0038222Y0075404D01*
X0038289Y0075471D01*
X0038700Y0076463D01*
X0038700Y0077537D01*
X0038289Y0078529D01*
X0037529Y0079289D01*
X0036537Y0079700D01*
X0035463Y0079700D01*
X0034471Y0079289D01*
X0033711Y0078529D01*
X0033300Y0077537D01*
X0033300Y0076463D01*
X0033711Y0075471D01*
X0033716Y0075465D01*
X0033147Y0075465D01*
X0032385Y0074704D01*
X0032385Y0069296D01*
X0033147Y0068535D01*
X0038161Y0068535D01*
X0038523Y0068897D02*
X0039477Y0068897D01*
X0039078Y0069896D02*
X0038922Y0069896D01*
X0038922Y0070894D02*
X0039078Y0070894D01*
X0039078Y0071893D02*
X0038922Y0071893D01*
X0038922Y0072891D02*
X0039078Y0072891D01*
X0039078Y0073890D02*
X0038922Y0073890D01*
X0038738Y0074888D02*
X0039262Y0074888D01*
X0038461Y0075887D02*
X0082341Y0075887D01*
X0081343Y0074888D02*
X0045430Y0074888D01*
X0045615Y0073890D02*
X0080344Y0073890D01*
X0081000Y0072000D02*
X0091000Y0082000D01*
X0093621Y0080879D02*
X0110200Y0080879D01*
X0110200Y0079881D02*
X0097150Y0079881D01*
X0097719Y0078882D02*
X0110572Y0078882D01*
X0111571Y0077884D02*
X0097850Y0077884D01*
X0097623Y0076885D02*
X0112569Y0076885D01*
X0113568Y0075887D02*
X0096917Y0075887D01*
X0094434Y0074888D02*
X0114566Y0074888D01*
X0110200Y0081878D02*
X0093850Y0081878D01*
X0093722Y0082876D02*
X0110200Y0082876D01*
X0110200Y0083875D02*
X0093156Y0083875D01*
X0088844Y0083875D02*
X0023196Y0083875D01*
X0024195Y0082876D02*
X0088278Y0082876D01*
X0088150Y0081878D02*
X0024634Y0081878D01*
X0025000Y0080879D02*
X0087334Y0080879D01*
X0086335Y0079881D02*
X0025000Y0079881D01*
X0024949Y0078882D02*
X0034064Y0078882D01*
X0033444Y0077884D02*
X0024535Y0077884D01*
X0023956Y0076885D02*
X0033300Y0076885D01*
X0033539Y0075887D02*
X0022958Y0075887D01*
X0021264Y0074888D02*
X0032570Y0074888D01*
X0032385Y0073890D02*
X0023181Y0073890D01*
X0024180Y0072891D02*
X0032385Y0072891D01*
X0032385Y0071893D02*
X0024628Y0071893D01*
X0025000Y0070894D02*
X0032385Y0070894D01*
X0032385Y0069896D02*
X0025000Y0069896D01*
X0024955Y0068897D02*
X0032784Y0068897D01*
X0032581Y0066900D02*
X0023971Y0066900D01*
X0024542Y0067899D02*
X0040546Y0067899D01*
X0042346Y0064000D02*
X0042346Y0072000D01*
X0081000Y0072000D01*
X0082440Y0070894D02*
X0085349Y0070894D01*
X0086347Y0071893D02*
X0083438Y0071893D01*
X0084437Y0072891D02*
X0087346Y0072891D01*
X0088344Y0073890D02*
X0085435Y0073890D01*
X0086434Y0074888D02*
X0089343Y0074888D01*
X0090341Y0075887D02*
X0087432Y0075887D01*
X0088431Y0076885D02*
X0091340Y0076885D01*
X0092150Y0077884D02*
X0089429Y0077884D01*
X0090428Y0078882D02*
X0092281Y0078882D01*
X0095000Y0078000D02*
X0071000Y0054000D01*
X0042346Y0054000D01*
X0042346Y0046000D01*
X0039078Y0045932D02*
X0038922Y0045932D01*
X0038922Y0046930D02*
X0039078Y0046930D01*
X0039078Y0047929D02*
X0038922Y0047929D01*
X0038922Y0048704D02*
X0038161Y0049465D01*
X0033147Y0049465D01*
X0032385Y0048704D01*
X0032385Y0043296D01*
X0033147Y0042535D01*
X0033300Y0042535D01*
X0033300Y0041463D01*
X0033711Y0040471D01*
X0034471Y0039711D01*
X0035463Y0039300D01*
X0036537Y0039300D01*
X0037529Y0039711D01*
X0038289Y0040471D01*
X0038700Y0041463D01*
X0038700Y0042537D01*
X0038543Y0042917D01*
X0038922Y0043296D01*
X0038922Y0048704D01*
X0038699Y0048927D02*
X0039301Y0048927D01*
X0040546Y0049926D02*
X0025000Y0049926D01*
X0025000Y0050924D02*
X0032757Y0050924D01*
X0032385Y0051923D02*
X0024616Y0051923D01*
X0024533Y0052921D02*
X0024150Y0052921D01*
X0026000Y0054000D02*
X0025000Y0055000D01*
X0026000Y0054000D02*
X0035654Y0054000D01*
X0038922Y0053920D02*
X0039078Y0053920D01*
X0039078Y0054918D02*
X0038922Y0054918D01*
X0038922Y0055917D02*
X0039078Y0055917D01*
X0039289Y0056915D02*
X0038711Y0056915D01*
X0038535Y0060909D02*
X0039465Y0060909D01*
X0039078Y0061908D02*
X0038922Y0061908D01*
X0038922Y0062906D02*
X0039078Y0062906D01*
X0032772Y0060909D02*
X0025000Y0060909D01*
X0024622Y0061908D02*
X0032385Y0061908D01*
X0032385Y0065902D02*
X0026644Y0065902D01*
X0024548Y0062906D02*
X0024165Y0062906D01*
X0015850Y0052921D02*
X0015467Y0052921D01*
X0007012Y0055917D02*
X-0013000Y0055917D01*
X-0013000Y0056915D02*
X0006014Y0056915D01*
X0005452Y0057914D02*
X-0013000Y0057914D01*
X-0013000Y0058912D02*
X0005039Y0058912D01*
X0005000Y0059911D02*
X-0013000Y0059911D01*
X-0013000Y0060909D02*
X0005000Y0060909D01*
X0005378Y0061908D02*
X-0013000Y0061908D01*
X-0013000Y0062906D02*
X0005835Y0062906D01*
X0011228Y0064903D02*
X0012358Y0064903D01*
X0012973Y0065902D02*
X0013356Y0065902D01*
X0024968Y0048927D02*
X0032608Y0048927D01*
X0032385Y0047929D02*
X0024554Y0047929D01*
X0024001Y0046930D02*
X0032385Y0046930D01*
X0032385Y0045932D02*
X0023003Y0045932D01*
X0032385Y0044933D02*
X-0013000Y0044933D01*
X-0013000Y0043934D02*
X0032385Y0043934D01*
X0032745Y0042936D02*
X-0013000Y0042936D01*
X-0013000Y0041937D02*
X0033300Y0041937D01*
X0033517Y0040939D02*
X-0013000Y0040939D01*
X-0013000Y0039940D02*
X0034241Y0039940D01*
X0036000Y0042000D02*
X0035654Y0042346D01*
X0035654Y0046000D01*
X0038922Y0044933D02*
X0039078Y0044933D01*
X0039078Y0043934D02*
X0038922Y0043934D01*
X0038562Y0042936D02*
X0039438Y0042936D01*
X0038700Y0041937D02*
X0213000Y0041937D01*
X0213000Y0040939D02*
X0038483Y0040939D01*
X0037759Y0039940D02*
X0213000Y0039940D01*
X0213000Y0038942D02*
X-0013000Y0038942D01*
X-0013000Y0037943D02*
X0213000Y0037943D01*
X0213000Y0036945D02*
X-0013000Y0036945D01*
X-0013000Y0035946D02*
X0213000Y0035946D01*
X0213000Y0034948D02*
X-0013000Y0034948D01*
X-0013000Y0033949D02*
X0213000Y0033949D01*
X0213000Y0032951D02*
X-0013000Y0032951D01*
X-0013000Y0031952D02*
X0213000Y0031952D01*
X0213000Y0030954D02*
X-0013000Y0030954D01*
X-0013000Y0029955D02*
X0213000Y0029955D01*
X0213000Y0028957D02*
X-0013000Y0028957D01*
X-0013000Y0027958D02*
X0213000Y0027958D01*
X0213000Y0026960D02*
X-0013000Y0026960D01*
X-0013000Y0025961D02*
X0213000Y0025961D01*
X0213000Y0024963D02*
X-0013000Y0024963D01*
X-0013000Y0023964D02*
X0213000Y0023964D01*
X0213000Y0022966D02*
X-0013000Y0022966D01*
X-0013000Y0021967D02*
X0213000Y0021967D01*
X0213000Y0020969D02*
X-0013000Y0020969D01*
X-0013000Y0019970D02*
X0213000Y0019970D01*
X0213000Y0018972D02*
X-0013000Y0018972D01*
X-0013000Y0017973D02*
X0213000Y0017973D01*
X0213000Y0016975D02*
X-0013000Y0016975D01*
X-0013000Y0015976D02*
X0213000Y0015976D01*
X0213000Y0014978D02*
X-0013000Y0014978D01*
X-0013000Y0013979D02*
X0213000Y0013979D01*
X0213000Y0012981D02*
X-0013000Y0012981D01*
X-0013000Y0011982D02*
X0213000Y0011982D01*
X0213000Y0010984D02*
X-0013000Y0010984D01*
X-0013000Y0009985D02*
X0213000Y0009985D01*
X0213000Y0008987D02*
X-0013000Y0008987D01*
X-0013000Y0007988D02*
X0213000Y0007988D01*
X0213000Y0006990D02*
X-0013000Y0006990D01*
X-0013000Y0005991D02*
X0213000Y0005991D01*
X0213000Y0004993D02*
X-0013000Y0004993D01*
X-0013000Y0003994D02*
X0213000Y0003994D01*
X0213000Y0002996D02*
X-0013000Y0002996D01*
X0038550Y0050924D02*
X0039450Y0050924D01*
X0039078Y0051923D02*
X0038922Y0051923D01*
X0038922Y0052921D02*
X0039078Y0052921D01*
X0045615Y0055917D02*
X0070371Y0055917D01*
X0071370Y0056915D02*
X0045404Y0056915D01*
X0035654Y0072000D02*
X0036000Y0072346D01*
X0036000Y0077000D01*
X0037936Y0078882D02*
X0085337Y0078882D01*
X0084338Y0077884D02*
X0038556Y0077884D01*
X0038700Y0076885D02*
X0083340Y0076885D01*
X0093435Y0073890D02*
X0129791Y0073890D01*
X0150000Y0091000D02*
X0150000Y0119000D01*
X0147153Y0121847D01*
X0152000Y0120000D02*
X0152000Y0103000D01*
X0153000Y0102000D01*
X0156654Y0102000D01*
X0159922Y0101848D02*
X0160078Y0101848D01*
X0160078Y0100850D02*
X0159922Y0100850D01*
X0159922Y0099851D02*
X0160078Y0099851D01*
X0159773Y0098853D02*
X0160521Y0098853D01*
X0159922Y0097854D02*
X0175477Y0097854D01*
X0175063Y0098853D02*
X0166171Y0098853D01*
X0166615Y0099851D02*
X0175000Y0099851D01*
X0176073Y0096856D02*
X0159922Y0096856D01*
X0159922Y0095857D02*
X0177072Y0095857D01*
X0178664Y0094859D02*
X0159922Y0094859D01*
X0159922Y0093860D02*
X0176789Y0093860D01*
X0175790Y0092862D02*
X0166457Y0092862D01*
X0166615Y0091863D02*
X0175360Y0091863D01*
X0175471Y0087869D02*
X0166615Y0087869D01*
X0166189Y0086870D02*
X0176058Y0086870D01*
X0180000Y0090000D02*
X0163346Y0090000D01*
X0160078Y0089866D02*
X0159922Y0089866D01*
X0159922Y0088868D02*
X0160078Y0088868D01*
X0160078Y0087869D02*
X0159922Y0087869D01*
X0159755Y0086870D02*
X0160504Y0086870D01*
X0160078Y0090865D02*
X0159922Y0090865D01*
X0159922Y0091863D02*
X0160078Y0091863D01*
X0160236Y0092862D02*
X0159764Y0092862D01*
X0156654Y0090000D02*
X0151000Y0090000D01*
X0150000Y0091000D01*
X0159922Y0102847D02*
X0160078Y0102847D01*
X0160078Y0103845D02*
X0159922Y0103845D01*
X0159782Y0104844D02*
X0160218Y0104844D01*
X0159922Y0105842D02*
X0177087Y0105842D01*
X0176088Y0106841D02*
X0159922Y0106841D01*
X0159922Y0107839D02*
X0175483Y0107839D01*
X0175069Y0108838D02*
X0159922Y0108838D01*
X0159922Y0109836D02*
X0175000Y0109836D01*
X0175000Y0110835D02*
X0159791Y0110835D01*
X0166475Y0104844D02*
X0178628Y0104844D01*
X0176774Y0103845D02*
X0166615Y0103845D01*
X0163346Y0102000D02*
X0178000Y0102000D01*
X0180000Y0100000D01*
X0181336Y0094859D02*
X0188664Y0094859D01*
X0175465Y0077884D02*
X0173429Y0077884D01*
X0172431Y0076885D02*
X0176044Y0076885D01*
X0177042Y0075887D02*
X0166615Y0075887D01*
X0166207Y0074888D02*
X0178736Y0074888D01*
X0171334Y0080879D02*
X0166439Y0080879D01*
X0166615Y0079881D02*
X0170335Y0079881D01*
X0139798Y0121818D02*
X0129602Y0121818D01*
X0129602Y0122817D02*
X0139798Y0122817D01*
X0139798Y0123815D02*
X0096837Y0123815D01*
X0096837Y0122817D02*
X0121271Y0122817D01*
X0121254Y0122800D02*
X0121254Y0122800D01*
X0120273Y0121818D02*
X0098643Y0121818D01*
X0097357Y0121818D02*
X0097074Y0121818D01*
X0096837Y0124814D02*
X0139798Y0124814D01*
X0126334Y0119879D02*
X0123121Y0119879D01*
X0122000Y0121000D01*
X0116046Y0137000D02*
X0116000Y0137000D01*
X0093626Y0114829D02*
X0089374Y0114829D01*
X0088376Y0113830D02*
X0093932Y0113830D01*
X0093932Y0112832D02*
X0087377Y0112832D01*
X0086800Y0111833D02*
X0092837Y0111833D01*
X0092661Y0110835D02*
X0086800Y0110835D01*
X0086800Y0109836D02*
X0092661Y0109836D01*
X0092661Y0108838D02*
X0086383Y0108838D01*
X0085385Y0107839D02*
X0092661Y0107839D01*
X0092661Y0106841D02*
X0084386Y0106841D01*
X0083843Y0105842D02*
X0092661Y0105842D01*
X0093278Y0104844D02*
X0083225Y0104844D01*
X0078318Y0104844D02*
X0021372Y0104844D01*
X0046000Y0131000D02*
X0054000Y0131000D01*
X0054000Y0135807D01*
X0054000Y0137000D01*
X0054031Y0135807D02*
X0054000Y0135807D01*
X0054031Y0135807D02*
X0054031Y0132969D01*
X0056000Y0131000D01*
X0057969Y0135807D02*
X0058000Y0138000D01*
X0059000Y0139000D01*
X0058969Y0139031D01*
X0058969Y0142031D01*
X0059000Y0145000D01*
X0060768Y0141789D02*
X0068789Y0141789D01*
X0068000Y0140790D02*
X0062711Y0140790D01*
X0061289Y0140790D02*
X0060768Y0140790D01*
X0064239Y0139792D02*
X0068000Y0139792D01*
X0068000Y0138793D02*
X0064756Y0138793D01*
X0064850Y0137795D02*
X0068000Y0137795D01*
X0068000Y0136796D02*
X0064586Y0136796D01*
X0063828Y0135798D02*
X0068000Y0135798D01*
X0068000Y0134799D02*
X0061788Y0134799D01*
X0062010Y0133801D02*
X0068000Y0133801D01*
X0071000Y0135798D02*
X0087000Y0135798D01*
X0087063Y0135807D02*
X0087063Y0138000D01*
X0086598Y0138465D01*
X0087063Y0138000D02*
X0087063Y0138937D01*
X0087000Y0137795D02*
X0071000Y0137795D01*
X0071000Y0136796D02*
X0087000Y0136796D01*
X0084976Y0133000D02*
X0080253Y0133000D01*
X0080253Y0130643D01*
X0079610Y0130000D01*
X0080253Y0129357D01*
X0080253Y0127000D01*
X0084976Y0127000D01*
X0084976Y0127076D01*
X0083097Y0127076D01*
X0082220Y0127953D01*
X0082220Y0129882D01*
X0082338Y0130000D01*
X0082220Y0130118D01*
X0082220Y0132047D01*
X0083097Y0132924D01*
X0084976Y0132924D01*
X0084976Y0133000D01*
X0082975Y0132802D02*
X0080253Y0132802D01*
X0080253Y0131803D02*
X0082220Y0131803D01*
X0082220Y0130805D02*
X0080253Y0130805D01*
X0079804Y0129806D02*
X0082220Y0129806D01*
X0082220Y0128808D02*
X0080253Y0128808D01*
X0080253Y0127809D02*
X0082363Y0127809D01*
X0069787Y0142787D02*
X0066744Y0142787D01*
X0067095Y0143786D02*
X0070000Y0143786D01*
X0070000Y0144784D02*
X0067095Y0144784D01*
X0052063Y0139937D02*
X0052063Y0138937D01*
X0175000Y0242638D02*
X0176750Y0242638D01*
X0176750Y0243637D02*
X0175000Y0243637D01*
D39*
X0129654Y0253000D02*
X0127000Y0253000D01*
X0109000Y0163500D02*
X0109000Y0148000D01*
X0116000Y0141000D01*
X0116000Y0137000D01*
X0116046Y0137000D02*
X0116046Y0130046D01*
X0116000Y0130000D01*
X0109354Y0137000D02*
X0105000Y0137000D01*
X0098007Y0152379D02*
X0098007Y0156993D01*
X0098000Y0157000D01*
X0092000Y0161000D02*
X0091000Y0159000D01*
X0084000Y0157000D02*
X0083950Y0156950D01*
X0083950Y0152346D01*
X0069000Y0153000D02*
X0068339Y0152339D01*
X0063630Y0152339D01*
X0057014Y0152358D02*
X0035642Y0152358D01*
X0035000Y0153000D01*
X0036000Y0145000D02*
X0036000Y0144000D01*
X0035500Y0144000D01*
X0049000Y0152346D02*
X0057002Y0152346D01*
X0057014Y0152358D01*
X0025000Y0184500D02*
X0033937Y0193437D01*
X0033937Y0229433D01*
X0025000Y0194500D02*
X0025000Y0184500D01*
X0033000Y0108000D02*
X0033346Y0107654D01*
X0040000Y0107654D01*
X0040000Y0102000D01*
X0075000Y0102000D02*
X0075000Y0107654D01*
X0111000Y0115000D02*
X0113000Y0117000D01*
X0119000Y0117000D01*
X0119894Y0117894D01*
X0123000Y0121000D01*
X0127000Y0121000D01*
X0119894Y0117894D02*
X0118894Y0117894D01*
X0116000Y0097654D02*
X0116000Y0093000D01*
X0122000Y0093000D02*
X0122000Y0097654D01*
X0128000Y0097654D02*
X0128000Y0093000D01*
X0133000Y0094000D02*
X0133995Y0094005D01*
X0133995Y0097676D01*
X0141100Y0097654D02*
X0141100Y0094100D01*
X0141000Y0094000D01*
X0141000Y0104000D02*
X0141000Y0112000D01*
X0142000Y0113000D01*
X0156654Y0108000D02*
X0156654Y0102000D01*
X0156654Y0096000D02*
X0156654Y0090000D01*
X0156654Y0084000D02*
X0156654Y0078000D01*
X0163346Y0084000D02*
X0167500Y0084000D01*
X0167500Y0095000D02*
X0166500Y0096000D01*
X0163346Y0096000D01*
X0167500Y0106500D02*
X0166000Y0108000D01*
X0163346Y0108000D01*
X0141000Y0076654D02*
X0141000Y0072000D01*
X0142017Y0152319D02*
X0142017Y0156983D01*
X0142000Y0157000D01*
X0134000Y0157000D02*
X0134000Y0152346D01*
X0126000Y0152346D02*
X0126000Y0157000D01*
D40*
X0127000Y0136000D02*
X0129779Y0136000D01*
X0126334Y0125784D02*
X0124784Y0125784D01*
X0124000Y0125000D01*
X0109000Y0125000D01*
X0102000Y0115000D02*
X0098000Y0119000D01*
X0094937Y0121063D02*
X0102000Y0114000D01*
X0102000Y0114346D02*
X0102000Y0115000D01*
X0094937Y0121063D02*
X0094937Y0124193D01*
X0091000Y0124193D02*
X0091000Y0129000D01*
X0091000Y0130000D01*
X0089031Y0131969D01*
X0089031Y0135807D01*
X0091000Y0135807D02*
X0091000Y0140000D01*
X0088000Y0143000D01*
X0088000Y0151000D01*
X0089000Y0152000D01*
X0091000Y0152000D01*
X0092008Y0145636D02*
X0097957Y0145636D01*
X0098007Y0145686D01*
X0104400Y0145654D02*
X0104400Y0145400D01*
X0097000Y0138000D01*
X0094937Y0136937D01*
X0094937Y0135807D01*
X0104400Y0152346D02*
X0104400Y0156600D01*
X0104000Y0157000D01*
X0067000Y0200654D02*
X0064346Y0200654D01*
X0063000Y0202000D01*
X0063000Y0220000D01*
X0088000Y0253500D02*
X0092500Y0258000D01*
X0121000Y0258000D01*
X0124000Y0255000D01*
X0124000Y0230250D01*
X0126250Y0228000D01*
X0148000Y0228000D01*
X0156000Y0220000D01*
X0151000Y0215000D02*
X0144009Y0221991D01*
X0125371Y0221991D01*
X0118678Y0221991D02*
X0118678Y0251322D01*
X0116500Y0253500D01*
X0101900Y0253500D01*
X0088120Y0253500D02*
X0088000Y0253500D01*
X0108000Y0223000D02*
X0110346Y0220654D01*
X0110346Y0211000D01*
X0110346Y0204000D01*
X0162000Y0235000D02*
X0164882Y0237882D01*
X0164882Y0242469D01*
X0062000Y0138000D02*
X0061000Y0138000D01*
X0059937Y0136937D01*
X0059937Y0135807D01*
X0056000Y0135807D02*
X0056000Y0141000D01*
X0059937Y0124193D02*
X0059937Y0120063D01*
X0060673Y0119327D01*
X0061673Y0118673D01*
X0060673Y0119327D02*
X0066000Y0114000D01*
X0158000Y0120000D02*
X0158500Y0119500D01*
X0159000Y0119000D01*
X0158000Y0120000D02*
X0158000Y0124050D01*
D41*
X0158000Y0124050D03*
X0148000Y0128000D03*
X0146000Y0132000D03*
X0138000Y0123000D03*
X0132000Y0123000D03*
X0127000Y0136000D03*
X0111000Y0115000D03*
X0116000Y0108000D03*
X0119650Y0110400D03*
X0116000Y0093000D03*
X0128000Y0093000D03*
X0127000Y0081000D03*
X0117000Y0081000D03*
X0100000Y0089000D03*
X0091000Y0082000D03*
X0095000Y0078000D03*
X0085000Y0089000D03*
X0075000Y0089000D03*
X0065000Y0089000D03*
X0055000Y0089000D03*
X0061000Y0062000D03*
X0072000Y0062000D03*
X0030000Y0042000D03*
X0061673Y0118673D03*
X0070000Y0129000D03*
X0062000Y0138000D03*
X0056000Y0141000D03*
X0046000Y0130000D03*
X0045000Y0154000D03*
X0035000Y0154000D03*
X0067000Y0173000D03*
X0079000Y0173000D03*
X0091000Y0159000D03*
X0084000Y0157000D03*
X0098000Y0157000D03*
X0104000Y0157000D03*
X0105000Y0139000D03*
X0097000Y0138000D03*
X0103000Y0129000D03*
X0098000Y0119000D03*
X0081000Y0130000D03*
X0069000Y0153000D03*
X0085000Y0200000D03*
X0085000Y0205000D03*
X0085000Y0210000D03*
X0076000Y0219000D03*
X0072000Y0215000D03*
X0067000Y0217000D03*
X0063000Y0220000D03*
X0060000Y0230000D03*
X0060000Y0240000D03*
X0050000Y0240000D03*
X0050000Y0230000D03*
X0070000Y0230000D03*
X0070000Y0240000D03*
X0070000Y0250000D03*
X0080000Y0250000D03*
X0080000Y0240000D03*
X0080000Y0230000D03*
X0090000Y0230000D03*
X0090000Y0240000D03*
X0100000Y0240000D03*
X0100000Y0230000D03*
X0108000Y0223000D03*
X0110000Y0230000D03*
X0110000Y0240000D03*
X0130000Y0240000D03*
X0140000Y0240000D03*
X0150000Y0240000D03*
X0156000Y0220000D03*
X0162000Y0205000D03*
X0170000Y0210000D03*
X0180000Y0210000D03*
X0190000Y0210000D03*
X0200000Y0210000D03*
X0201000Y0180000D03*
X0204500Y0148500D03*
X0170000Y0149000D03*
X0162000Y0152000D03*
X0154000Y0152000D03*
X0140000Y0159000D03*
X0130000Y0159000D03*
X0130000Y0167000D03*
X0110000Y0185000D03*
X0120000Y0211000D03*
X0136500Y0211000D03*
X0143500Y0192000D03*
X0099000Y0211000D03*
X0170000Y0134000D03*
X0170500Y0113000D03*
X0167500Y0106500D03*
X0167500Y0095000D03*
X0167500Y0084000D03*
X0145000Y0089000D03*
X0142000Y0113000D03*
X0020000Y0210500D03*
X0020000Y0220000D03*
X0010000Y0220000D03*
X0010000Y0211500D03*
X0010000Y0230000D03*
X0010000Y0240000D03*
X0000000Y0144500D03*
D42*
X0032000Y0145000D02*
X0036000Y0145000D01*
X0051598Y0138472D02*
X0052063Y0138937D01*
X0051598Y0138472D02*
X0051598Y0138465D01*
X0088000Y0151000D02*
X0091000Y0151000D01*
X0092000Y0152000D01*
X0092000Y0158000D01*
X0091000Y0159000D01*
X0092000Y0161000D02*
X0092000Y0188598D01*
X0090598Y0190000D01*
X0090598Y0193898D01*
X0092750Y0195800D01*
X0092750Y0200100D01*
X0093646Y0200546D01*
X0093646Y0202120D02*
X0091820Y0202120D01*
X0091150Y0201450D01*
X0091150Y0197250D01*
X0089450Y0195550D01*
X0084952Y0195550D01*
X0079402Y0190000D01*
X0086000Y0190046D02*
X0097000Y0190046D01*
X0097000Y0190844D02*
X0086000Y0190844D01*
X0086000Y0191643D02*
X0097000Y0191643D01*
X0097000Y0192441D02*
X0086000Y0192441D01*
X0086000Y0193000D02*
X0086950Y0193950D01*
X0090113Y0193950D01*
X0090163Y0194000D01*
X0091000Y0194000D01*
X0093000Y0196000D01*
X0095000Y0196000D01*
X0097000Y0194000D01*
X0097000Y0177000D01*
X0099000Y0175000D01*
X0119000Y0175000D01*
X0122000Y0172000D01*
X0122000Y0150000D01*
X0124000Y0148000D01*
X0128000Y0148000D01*
X0129000Y0147000D01*
X0129000Y0144000D01*
X0132000Y0141000D01*
X0132000Y0135706D01*
X0131925Y0135632D01*
X0131925Y0133000D01*
X0128000Y0133000D01*
X0117000Y0144000D01*
X0117000Y0167500D01*
X0115000Y0169500D01*
X0096000Y0169500D01*
X0094000Y0167500D01*
X0094000Y0152000D01*
X0088000Y0152000D01*
X0088000Y0183000D01*
X0086000Y0185000D01*
X0086000Y0193000D01*
X0086240Y0193240D02*
X0097000Y0193240D01*
X0096962Y0194038D02*
X0091038Y0194038D01*
X0091837Y0194837D02*
X0096163Y0194837D01*
X0095365Y0195635D02*
X0092635Y0195635D01*
X0097000Y0189247D02*
X0086000Y0189247D01*
X0086000Y0188449D02*
X0097000Y0188449D01*
X0097000Y0187650D02*
X0086000Y0187650D01*
X0086000Y0186852D02*
X0097000Y0186852D01*
X0097000Y0186053D02*
X0086000Y0186053D01*
X0086000Y0185255D02*
X0097000Y0185255D01*
X0097000Y0184456D02*
X0086544Y0184456D01*
X0087342Y0183658D02*
X0097000Y0183658D01*
X0097000Y0182859D02*
X0088000Y0182859D01*
X0088000Y0182061D02*
X0097000Y0182061D01*
X0097000Y0181262D02*
X0088000Y0181262D01*
X0088000Y0180464D02*
X0097000Y0180464D01*
X0097000Y0179665D02*
X0088000Y0179665D01*
X0088000Y0178867D02*
X0097000Y0178867D01*
X0097000Y0178068D02*
X0088000Y0178068D01*
X0088000Y0177270D02*
X0097000Y0177270D01*
X0097529Y0176471D02*
X0088000Y0176471D01*
X0088000Y0175672D02*
X0098328Y0175672D01*
X0095784Y0169284D02*
X0088000Y0169284D01*
X0088000Y0168486D02*
X0094986Y0168486D01*
X0094187Y0167687D02*
X0088000Y0167687D01*
X0088000Y0166889D02*
X0094000Y0166889D01*
X0094000Y0166090D02*
X0088000Y0166090D01*
X0088000Y0165292D02*
X0094000Y0165292D01*
X0094000Y0164493D02*
X0088000Y0164493D01*
X0088000Y0163695D02*
X0094000Y0163695D01*
X0094000Y0162896D02*
X0088000Y0162896D01*
X0088000Y0162098D02*
X0094000Y0162098D01*
X0094000Y0161299D02*
X0088000Y0161299D01*
X0088000Y0160501D02*
X0094000Y0160501D01*
X0094000Y0159702D02*
X0088000Y0159702D01*
X0088000Y0158904D02*
X0094000Y0158904D01*
X0094000Y0158105D02*
X0088000Y0158105D01*
X0088000Y0157307D02*
X0094000Y0157307D01*
X0094000Y0156508D02*
X0088000Y0156508D01*
X0088000Y0155710D02*
X0094000Y0155710D01*
X0094000Y0154911D02*
X0088000Y0154911D01*
X0088000Y0154113D02*
X0094000Y0154113D01*
X0094000Y0153314D02*
X0088000Y0153314D01*
X0088000Y0152516D02*
X0094000Y0152516D01*
X0092008Y0152329D02*
X0091679Y0152000D01*
X0089000Y0152000D01*
X0088000Y0170083D02*
X0122000Y0170083D01*
X0122000Y0170881D02*
X0088000Y0170881D01*
X0088000Y0171680D02*
X0122000Y0171680D01*
X0121522Y0172478D02*
X0088000Y0172478D01*
X0088000Y0173277D02*
X0120723Y0173277D01*
X0119925Y0174075D02*
X0088000Y0174075D01*
X0088000Y0174874D02*
X0119126Y0174874D01*
X0122000Y0169284D02*
X0115216Y0169284D01*
X0116014Y0168486D02*
X0122000Y0168486D01*
X0122000Y0167687D02*
X0116813Y0167687D01*
X0117000Y0166889D02*
X0122000Y0166889D01*
X0122000Y0166090D02*
X0117000Y0166090D01*
X0117000Y0165292D02*
X0122000Y0165292D01*
X0122000Y0164493D02*
X0117000Y0164493D01*
X0117000Y0163695D02*
X0122000Y0163695D01*
X0122000Y0162896D02*
X0117000Y0162896D01*
X0117000Y0162098D02*
X0122000Y0162098D01*
X0122000Y0161299D02*
X0117000Y0161299D01*
X0117000Y0160501D02*
X0122000Y0160501D01*
X0122000Y0159702D02*
X0117000Y0159702D01*
X0117000Y0158904D02*
X0122000Y0158904D01*
X0122000Y0158105D02*
X0117000Y0158105D01*
X0117000Y0157307D02*
X0122000Y0157307D01*
X0122000Y0156508D02*
X0117000Y0156508D01*
X0117000Y0155710D02*
X0122000Y0155710D01*
X0122000Y0154911D02*
X0117000Y0154911D01*
X0117000Y0154113D02*
X0122000Y0154113D01*
X0122000Y0153314D02*
X0117000Y0153314D01*
X0117000Y0152516D02*
X0122000Y0152516D01*
X0122000Y0151717D02*
X0117000Y0151717D01*
X0117000Y0150919D02*
X0122000Y0150919D01*
X0122000Y0150120D02*
X0117000Y0150120D01*
X0117000Y0149322D02*
X0122678Y0149322D01*
X0123477Y0148523D02*
X0117000Y0148523D01*
X0117000Y0147725D02*
X0128275Y0147725D01*
X0129000Y0146926D02*
X0117000Y0146926D01*
X0117000Y0146128D02*
X0129000Y0146128D01*
X0129000Y0145329D02*
X0117000Y0145329D01*
X0117000Y0144531D02*
X0129000Y0144531D01*
X0129268Y0143732D02*
X0117268Y0143732D01*
X0118066Y0142934D02*
X0130066Y0142934D01*
X0130865Y0142135D02*
X0118865Y0142135D01*
X0119663Y0141337D02*
X0131663Y0141337D01*
X0132000Y0140538D02*
X0120462Y0140538D01*
X0121261Y0139739D02*
X0132000Y0139739D01*
X0132000Y0138941D02*
X0122059Y0138941D01*
X0122858Y0138142D02*
X0132000Y0138142D01*
X0132000Y0137344D02*
X0123656Y0137344D01*
X0124455Y0136545D02*
X0132000Y0136545D01*
X0132000Y0135747D02*
X0125253Y0135747D01*
X0126052Y0134948D02*
X0131925Y0134948D01*
X0131925Y0134150D02*
X0126850Y0134150D01*
X0127649Y0133351D02*
X0131925Y0133351D01*
X0129779Y0133166D02*
X0129779Y0136000D01*
X0129779Y0138221D01*
X0126000Y0142000D01*
X0126000Y0145654D01*
X0103754Y0204000D02*
X0103654Y0204000D01*
X0100000Y0204000D01*
X0098730Y0205270D01*
X0093646Y0205270D01*
X0093646Y0208420D02*
X0096420Y0208420D01*
X0099000Y0211000D01*
X0079000Y0205000D02*
X0078800Y0205000D01*
X0078550Y0205250D01*
X0071250Y0205250D01*
X0071000Y0205000D01*
X0070000Y0205000D01*
X0067000Y0208000D01*
X0072000Y0208000D02*
X0072000Y0215000D01*
X0075000Y0218000D02*
X0076000Y0219000D01*
X0075000Y0218000D02*
X0075000Y0209000D01*
X0075580Y0208420D01*
X0076323Y0208420D01*
X0076323Y0206845D02*
X0073155Y0206845D01*
X0072000Y0208000D01*
X0076323Y0205270D02*
X0078730Y0205270D01*
X0079000Y0205000D01*
X0076323Y0202120D02*
X0073120Y0202120D01*
X0071000Y0200000D01*
X0067654Y0200000D01*
X0067000Y0200654D01*
X0075000Y0200000D02*
X0075546Y0200546D01*
X0076323Y0200546D01*
D43*
X0036000Y0145000D03*
X0032000Y0145000D03*
X0035500Y0141000D03*
X0040000Y0102000D03*
X0036000Y0077000D03*
X0036000Y0042000D03*
D44*
X0116000Y0104346D02*
X0115000Y0107346D01*
X0116000Y0108000D01*
X0083950Y0145654D02*
X0082604Y0145000D01*
X0077000Y0145000D01*
X0077000Y0154000D01*
X0073000Y0158000D01*
X0026000Y0158000D01*
X0020000Y0152000D01*
X0020000Y0140000D01*
D45*
X0136346Y0253000D02*
X0154252Y0253000D01*
D46*
X0040000Y0140500D02*
X0035500Y0144000D01*
M02*
