G75*
%MOIN*%
%OFA0B0*%
%FSLAX25Y25*%
%IPPOS*%
%LPD*%
%AMOC8*
5,1,8,0,0,1.08239X$1,22.5*
%
%ADD10C,0.00000*%
D10*
X0110000Y0000000D02*
X0390000Y0000000D01*
X0500000Y0110000D02*
X0499968Y0112658D01*
X0499872Y0115314D01*
X0499711Y0117968D01*
X0499486Y0120617D01*
X0499198Y0123259D01*
X0498846Y0125894D01*
X0498430Y0128519D01*
X0497951Y0131134D01*
X0497409Y0133736D01*
X0496804Y0136325D01*
X0496136Y0138898D01*
X0495407Y0141454D01*
X0494616Y0143992D01*
X0493764Y0146510D01*
X0492852Y0149007D01*
X0491879Y0151480D01*
X0490847Y0153930D01*
X0489756Y0156354D01*
X0488607Y0158751D01*
X0487400Y0161120D01*
X0486136Y0163458D01*
X0484817Y0165766D01*
X0483441Y0168040D01*
X0482012Y0170281D01*
X0480528Y0172487D01*
X0478992Y0174656D01*
X0477404Y0176788D01*
X0475764Y0178880D01*
X0474075Y0180933D01*
X0472336Y0182943D01*
X0470550Y0184912D01*
X0468716Y0186836D01*
X0466836Y0188716D01*
X0464912Y0190550D01*
X0462943Y0192336D01*
X0460933Y0194075D01*
X0458880Y0195764D01*
X0456788Y0197404D01*
X0454656Y0198992D01*
X0452487Y0200528D01*
X0450281Y0202012D01*
X0448040Y0203441D01*
X0445766Y0204817D01*
X0443458Y0206136D01*
X0441120Y0207400D01*
X0438751Y0208607D01*
X0436354Y0209756D01*
X0433930Y0210847D01*
X0431480Y0211879D01*
X0429007Y0212852D01*
X0426510Y0213764D01*
X0423992Y0214616D01*
X0421454Y0215407D01*
X0418898Y0216136D01*
X0416325Y0216804D01*
X0413736Y0217409D01*
X0411134Y0217951D01*
X0408519Y0218430D01*
X0405894Y0218846D01*
X0403259Y0219198D01*
X0400617Y0219486D01*
X0397968Y0219711D01*
X0395314Y0219872D01*
X0392658Y0219968D01*
X0390000Y0220000D01*
X0110000Y0220000D01*
X0000000Y0110000D02*
X0000032Y0107342D01*
X0000128Y0104686D01*
X0000289Y0102032D01*
X0000514Y0099383D01*
X0000802Y0096741D01*
X0001154Y0094106D01*
X0001570Y0091481D01*
X0002049Y0088866D01*
X0002591Y0086264D01*
X0003196Y0083675D01*
X0003864Y0081102D01*
X0004593Y0078546D01*
X0005384Y0076008D01*
X0006236Y0073490D01*
X0007148Y0070993D01*
X0008121Y0068520D01*
X0009153Y0066070D01*
X0010244Y0063646D01*
X0011393Y0061249D01*
X0012600Y0058880D01*
X0013864Y0056542D01*
X0015183Y0054234D01*
X0016559Y0051960D01*
X0017988Y0049719D01*
X0019472Y0047513D01*
X0021008Y0045344D01*
X0022596Y0043212D01*
X0024236Y0041120D01*
X0025925Y0039067D01*
X0027664Y0037057D01*
X0029450Y0035088D01*
X0031284Y0033164D01*
X0033164Y0031284D01*
X0035088Y0029450D01*
X0037057Y0027664D01*
X0039067Y0025925D01*
X0041120Y0024236D01*
X0043212Y0022596D01*
X0045344Y0021008D01*
X0047513Y0019472D01*
X0049719Y0017988D01*
X0051960Y0016559D01*
X0054234Y0015183D01*
X0056542Y0013864D01*
X0058880Y0012600D01*
X0061249Y0011393D01*
X0063646Y0010244D01*
X0066070Y0009153D01*
X0068520Y0008121D01*
X0070993Y0007148D01*
X0073490Y0006236D01*
X0076008Y0005384D01*
X0078546Y0004593D01*
X0081102Y0003864D01*
X0083675Y0003196D01*
X0086264Y0002591D01*
X0088866Y0002049D01*
X0091481Y0001570D01*
X0094106Y0001154D01*
X0096741Y0000802D01*
X0099383Y0000514D01*
X0102032Y0000289D01*
X0104686Y0000128D01*
X0107342Y0000032D01*
X0110000Y0000000D01*
X0000000Y0110000D02*
X0000032Y0112658D01*
X0000128Y0115314D01*
X0000289Y0117968D01*
X0000514Y0120617D01*
X0000802Y0123259D01*
X0001154Y0125894D01*
X0001570Y0128519D01*
X0002049Y0131134D01*
X0002591Y0133736D01*
X0003196Y0136325D01*
X0003864Y0138898D01*
X0004593Y0141454D01*
X0005384Y0143992D01*
X0006236Y0146510D01*
X0007148Y0149007D01*
X0008121Y0151480D01*
X0009153Y0153930D01*
X0010244Y0156354D01*
X0011393Y0158751D01*
X0012600Y0161120D01*
X0013864Y0163458D01*
X0015183Y0165766D01*
X0016559Y0168040D01*
X0017988Y0170281D01*
X0019472Y0172487D01*
X0021008Y0174656D01*
X0022596Y0176788D01*
X0024236Y0178880D01*
X0025925Y0180933D01*
X0027664Y0182943D01*
X0029450Y0184912D01*
X0031284Y0186836D01*
X0033164Y0188716D01*
X0035088Y0190550D01*
X0037057Y0192336D01*
X0039067Y0194075D01*
X0041120Y0195764D01*
X0043212Y0197404D01*
X0045344Y0198992D01*
X0047513Y0200528D01*
X0049719Y0202012D01*
X0051960Y0203441D01*
X0054234Y0204817D01*
X0056542Y0206136D01*
X0058880Y0207400D01*
X0061249Y0208607D01*
X0063646Y0209756D01*
X0066070Y0210847D01*
X0068520Y0211879D01*
X0070993Y0212852D01*
X0073490Y0213764D01*
X0076008Y0214616D01*
X0078546Y0215407D01*
X0081102Y0216136D01*
X0083675Y0216804D01*
X0086264Y0217409D01*
X0088866Y0217951D01*
X0091481Y0218430D01*
X0094106Y0218846D01*
X0096741Y0219198D01*
X0099383Y0219486D01*
X0102032Y0219711D01*
X0104686Y0219872D01*
X0107342Y0219968D01*
X0110000Y0220000D01*
X0390000Y0000000D02*
X0392658Y0000032D01*
X0395314Y0000128D01*
X0397968Y0000289D01*
X0400617Y0000514D01*
X0403259Y0000802D01*
X0405894Y0001154D01*
X0408519Y0001570D01*
X0411134Y0002049D01*
X0413736Y0002591D01*
X0416325Y0003196D01*
X0418898Y0003864D01*
X0421454Y0004593D01*
X0423992Y0005384D01*
X0426510Y0006236D01*
X0429007Y0007148D01*
X0431480Y0008121D01*
X0433930Y0009153D01*
X0436354Y0010244D01*
X0438751Y0011393D01*
X0441120Y0012600D01*
X0443458Y0013864D01*
X0445766Y0015183D01*
X0448040Y0016559D01*
X0450281Y0017988D01*
X0452487Y0019472D01*
X0454656Y0021008D01*
X0456788Y0022596D01*
X0458880Y0024236D01*
X0460933Y0025925D01*
X0462943Y0027664D01*
X0464912Y0029450D01*
X0466836Y0031284D01*
X0468716Y0033164D01*
X0470550Y0035088D01*
X0472336Y0037057D01*
X0474075Y0039067D01*
X0475764Y0041120D01*
X0477404Y0043212D01*
X0478992Y0045344D01*
X0480528Y0047513D01*
X0482012Y0049719D01*
X0483441Y0051960D01*
X0484817Y0054234D01*
X0486136Y0056542D01*
X0487400Y0058880D01*
X0488607Y0061249D01*
X0489756Y0063646D01*
X0490847Y0066070D01*
X0491879Y0068520D01*
X0492852Y0070993D01*
X0493764Y0073490D01*
X0494616Y0076008D01*
X0495407Y0078546D01*
X0496136Y0081102D01*
X0496804Y0083675D01*
X0497409Y0086264D01*
X0497951Y0088866D01*
X0498430Y0091481D01*
X0498846Y0094106D01*
X0499198Y0096741D01*
X0499486Y0099383D01*
X0499711Y0102032D01*
X0499872Y0104686D01*
X0499968Y0107342D01*
X0500000Y0110000D01*
M02*
