G75*
%MOIN*%
%OFA0B0*%
%FSLAX25Y25*%
%IPPOS*%
%LPD*%
%AMOC8*
5,1,8,0,0,1.08239X$1,22.5*
%
%ADD10R,0.09000X0.09000*%
%ADD11C,0.09000*%
%ADD12C,0.11600*%
%ADD13C,0.08600*%
%ADD14C,0.08600*%
%ADD15C,0.18100*%
%ADD16R,0.06750X0.06750*%
%ADD17C,0.06750*%
%ADD18C,0.10100*%
D10*
X0160000Y0100000D03*
X0170000Y0100000D03*
X0330000Y0100000D03*
X0340000Y0100000D03*
X0400000Y0210000D03*
X0110000Y0210000D03*
D11*
X0110000Y0200000D03*
X0110000Y0190000D03*
X0160000Y0090000D03*
X0170000Y0090000D03*
X0170000Y0080000D03*
X0160000Y0080000D03*
X0160000Y0070000D03*
X0160000Y0060000D03*
X0170000Y0060000D03*
X0170000Y0070000D03*
X0170000Y0050000D03*
X0160000Y0050000D03*
X0160000Y0040000D03*
X0170000Y0040000D03*
X0170000Y0030000D03*
X0160000Y0030000D03*
X0160000Y0020000D03*
X0170000Y0020000D03*
X0170000Y0010000D03*
X0160000Y0010000D03*
X0330000Y0010000D03*
X0340000Y0010000D03*
X0340000Y0020000D03*
X0330000Y0020000D03*
X0330000Y0030000D03*
X0340000Y0030000D03*
X0340000Y0040000D03*
X0330000Y0040000D03*
X0330000Y0050000D03*
X0340000Y0050000D03*
X0340000Y0060000D03*
X0340000Y0070000D03*
X0330000Y0070000D03*
X0330000Y0060000D03*
X0330000Y0080000D03*
X0340000Y0080000D03*
X0340000Y0090000D03*
X0330000Y0090000D03*
X0400000Y0190000D03*
X0400000Y0200000D03*
D12*
X0116181Y0150512D03*
X0063819Y0150512D03*
X0063819Y0089488D03*
X0116181Y0089488D03*
D13*
X0099843Y0079646D03*
X0090000Y0079646D03*
X0080157Y0079646D03*
X0127992Y0110157D03*
X0127992Y0120000D03*
X0127992Y0129843D03*
D14*
X0057520Y0129295D02*
X0057520Y0136295D01*
X0039803Y0136295D02*
X0039803Y0129295D01*
X0039803Y0110705D02*
X0039803Y0103705D01*
X0057520Y0103705D02*
X0057520Y0110705D01*
D15*
X0141250Y0200000D03*
X0158750Y0200000D03*
X0341250Y0200000D03*
X0358750Y0200000D03*
D16*
X0375000Y0042795D03*
X0122126Y0029921D03*
D17*
X0122126Y0020079D03*
X0375000Y0017205D03*
D18*
X0429560Y0070641D03*
X0415641Y0084560D03*
X0464359Y0105440D03*
X0450440Y0119359D03*
X0429560Y0138141D03*
X0415641Y0152060D03*
X0464359Y0172940D03*
X0450440Y0186859D03*
M02*
