G75*
%MOIN*%
%OFA0B0*%
%FSLAX25Y25*%
%IPPOS*%
%LPD*%
%AMOC8*
5,1,8,0,0,1.08239X$1,22.5*
%
%ADD10C,0.01000*%
%ADD11R,0.09000X0.09000*%
%ADD12C,0.09000*%
%ADD13C,0.03000*%
%ADD14R,0.05143X0.04356*%
%ADD15R,0.02781X0.02978*%
%ADD16R,0.06915X0.04159*%
%ADD17R,0.03569X0.03372*%
%ADD18R,0.03372X0.03569*%
%ADD19R,0.06324X0.04553*%
%ADD20R,0.05537X0.07112*%
%ADD21R,0.04356X0.05143*%
%ADD22C,0.11600*%
%ADD23C,0.08600*%
%ADD24C,0.08600*%
%ADD25C,0.18100*%
%ADD26R,0.05537X0.05931*%
%ADD27R,0.04331X0.03150*%
%ADD28R,0.06750X0.06750*%
%ADD29C,0.06750*%
%ADD30R,0.05931X0.05537*%
%ADD31R,0.04750X0.05537*%
%ADD32R,0.07112X0.05537*%
%ADD33R,0.02781X0.07112*%
%ADD34R,0.11836X0.10655*%
%ADD35C,0.10100*%
%ADD36R,0.06324X0.06324*%
%ADD37R,0.07506X0.06718*%
%ADD38C,0.00500*%
D10*
X0135798Y0179425D02*
X0138382Y0177864D01*
X0141135Y0176625D01*
X0144017Y0175726D01*
X0146987Y0175182D01*
X0150000Y0175000D01*
X0153013Y0175182D01*
X0155983Y0175726D01*
X0158865Y0176625D01*
X0161618Y0177864D01*
X0164202Y0179425D01*
X0166578Y0181287D01*
X0168713Y0183422D01*
X0170575Y0185798D01*
X0172136Y0188382D01*
X0173375Y0191135D01*
X0174274Y0194017D01*
X0174818Y0196987D01*
X0175000Y0200000D01*
X0175000Y0220000D01*
X0125000Y0220000D01*
X0125000Y0200000D01*
X0125182Y0196987D01*
X0125726Y0194017D01*
X0126625Y0191135D01*
X0127864Y0188382D01*
X0129425Y0185798D01*
X0131287Y0183422D01*
X0133422Y0181287D01*
X0135798Y0179425D01*
X0135407Y0179732D02*
X0164593Y0179732D01*
X0165868Y0180731D02*
X0134132Y0180731D01*
X0132980Y0181729D02*
X0167020Y0181729D01*
X0168018Y0182728D02*
X0131982Y0182728D01*
X0131049Y0183726D02*
X0168951Y0183726D01*
X0169733Y0184725D02*
X0130267Y0184725D01*
X0129484Y0185723D02*
X0170516Y0185723D01*
X0171133Y0186722D02*
X0128867Y0186722D01*
X0128264Y0187720D02*
X0171736Y0187720D01*
X0172288Y0188719D02*
X0127712Y0188719D01*
X0127263Y0189717D02*
X0172737Y0189717D01*
X0173187Y0190716D02*
X0126813Y0190716D01*
X0126444Y0191714D02*
X0173556Y0191714D01*
X0173867Y0192713D02*
X0126133Y0192713D01*
X0125822Y0193711D02*
X0174178Y0193711D01*
X0174400Y0194710D02*
X0125600Y0194710D01*
X0125417Y0195708D02*
X0174583Y0195708D01*
X0174766Y0196707D02*
X0125234Y0196707D01*
X0125139Y0197705D02*
X0174861Y0197705D01*
X0174922Y0198704D02*
X0125078Y0198704D01*
X0125018Y0199702D02*
X0174982Y0199702D01*
X0175000Y0200701D02*
X0125000Y0200701D01*
X0125000Y0201699D02*
X0175000Y0201699D01*
X0175000Y0202698D02*
X0125000Y0202698D01*
X0125000Y0203696D02*
X0175000Y0203696D01*
X0175000Y0204695D02*
X0125000Y0204695D01*
X0125000Y0205693D02*
X0175000Y0205693D01*
X0175000Y0206692D02*
X0125000Y0206692D01*
X0125000Y0207690D02*
X0175000Y0207690D01*
X0175000Y0208689D02*
X0125000Y0208689D01*
X0125000Y0209687D02*
X0175000Y0209687D01*
X0175000Y0210686D02*
X0125000Y0210686D01*
X0125000Y0211684D02*
X0175000Y0211684D01*
X0175000Y0212683D02*
X0125000Y0212683D01*
X0125000Y0213681D02*
X0175000Y0213681D01*
X0175000Y0214680D02*
X0125000Y0214680D01*
X0125000Y0215678D02*
X0175000Y0215678D01*
X0175000Y0216677D02*
X0125000Y0216677D01*
X0125000Y0217675D02*
X0175000Y0217675D01*
X0175000Y0218674D02*
X0125000Y0218674D01*
X0125000Y0219672D02*
X0175000Y0219672D01*
X0163057Y0178734D02*
X0136943Y0178734D01*
X0138668Y0177735D02*
X0161332Y0177735D01*
X0159114Y0176737D02*
X0140886Y0176737D01*
X0143980Y0175738D02*
X0156020Y0175738D01*
X0325182Y0196987D02*
X0325000Y0200000D01*
X0325000Y0220000D01*
X0375000Y0220000D01*
X0375000Y0200000D01*
X0374818Y0196987D01*
X0374274Y0194017D01*
X0373375Y0191135D01*
X0372136Y0188382D01*
X0370575Y0185798D01*
X0368713Y0183422D01*
X0366578Y0181287D01*
X0364202Y0179425D01*
X0361618Y0177864D01*
X0358865Y0176625D01*
X0355983Y0175726D01*
X0353013Y0175182D01*
X0350000Y0175000D01*
X0346987Y0175182D01*
X0344017Y0175726D01*
X0341135Y0176625D01*
X0338382Y0177864D01*
X0335798Y0179425D01*
X0333422Y0181287D01*
X0331287Y0183422D01*
X0329425Y0185798D01*
X0327864Y0188382D01*
X0326625Y0191135D01*
X0325726Y0194017D01*
X0325182Y0196987D01*
X0325234Y0196707D02*
X0374766Y0196707D01*
X0374861Y0197705D02*
X0325139Y0197705D01*
X0325078Y0198704D02*
X0374922Y0198704D01*
X0374982Y0199702D02*
X0325018Y0199702D01*
X0325000Y0200701D02*
X0375000Y0200701D01*
X0375000Y0201699D02*
X0325000Y0201699D01*
X0325000Y0202698D02*
X0375000Y0202698D01*
X0375000Y0203696D02*
X0325000Y0203696D01*
X0325000Y0204695D02*
X0375000Y0204695D01*
X0375000Y0205693D02*
X0325000Y0205693D01*
X0325000Y0206692D02*
X0375000Y0206692D01*
X0375000Y0207690D02*
X0325000Y0207690D01*
X0325000Y0208689D02*
X0375000Y0208689D01*
X0375000Y0209687D02*
X0325000Y0209687D01*
X0325000Y0210686D02*
X0375000Y0210686D01*
X0375000Y0211684D02*
X0325000Y0211684D01*
X0325000Y0212683D02*
X0375000Y0212683D01*
X0375000Y0213681D02*
X0325000Y0213681D01*
X0325000Y0214680D02*
X0375000Y0214680D01*
X0375000Y0215678D02*
X0325000Y0215678D01*
X0325000Y0216677D02*
X0375000Y0216677D01*
X0375000Y0217675D02*
X0325000Y0217675D01*
X0325000Y0218674D02*
X0375000Y0218674D01*
X0375000Y0219672D02*
X0325000Y0219672D01*
X0325417Y0195708D02*
X0374583Y0195708D01*
X0374400Y0194710D02*
X0325600Y0194710D01*
X0325822Y0193711D02*
X0374178Y0193711D01*
X0373867Y0192713D02*
X0326133Y0192713D01*
X0326444Y0191714D02*
X0373556Y0191714D01*
X0373187Y0190716D02*
X0326813Y0190716D01*
X0327263Y0189717D02*
X0372737Y0189717D01*
X0372288Y0188719D02*
X0327712Y0188719D01*
X0328264Y0187720D02*
X0371736Y0187720D01*
X0371133Y0186722D02*
X0328867Y0186722D01*
X0329484Y0185723D02*
X0370516Y0185723D01*
X0369733Y0184725D02*
X0330267Y0184725D01*
X0331049Y0183726D02*
X0368951Y0183726D01*
X0368018Y0182728D02*
X0331982Y0182728D01*
X0332980Y0181729D02*
X0367020Y0181729D01*
X0365868Y0180731D02*
X0334132Y0180731D01*
X0335407Y0179732D02*
X0364593Y0179732D01*
X0363057Y0178734D02*
X0336943Y0178734D01*
X0338668Y0177735D02*
X0361332Y0177735D01*
X0359114Y0176737D02*
X0340886Y0176737D01*
X0343980Y0175738D02*
X0356020Y0175738D01*
D11*
X0400000Y0210000D03*
X0340000Y0100000D03*
X0330000Y0100000D03*
X0170000Y0100000D03*
X0160000Y0100000D03*
X0110000Y0210000D03*
D12*
X0110000Y0200000D03*
X0110000Y0190000D03*
X0160000Y0090000D03*
X0170000Y0090000D03*
X0170000Y0080000D03*
X0160000Y0080000D03*
X0160000Y0070000D03*
X0160000Y0060000D03*
X0170000Y0060000D03*
X0170000Y0070000D03*
X0170000Y0050000D03*
X0160000Y0050000D03*
X0160000Y0040000D03*
X0170000Y0040000D03*
X0170000Y0030000D03*
X0160000Y0030000D03*
X0160000Y0020000D03*
X0170000Y0020000D03*
X0170000Y0010000D03*
X0160000Y0010000D03*
X0330000Y0010000D03*
X0340000Y0010000D03*
X0340000Y0020000D03*
X0330000Y0020000D03*
X0330000Y0030000D03*
X0340000Y0030000D03*
X0340000Y0040000D03*
X0330000Y0040000D03*
X0330000Y0050000D03*
X0340000Y0050000D03*
X0340000Y0060000D03*
X0340000Y0070000D03*
X0330000Y0070000D03*
X0330000Y0060000D03*
X0330000Y0080000D03*
X0340000Y0080000D03*
X0340000Y0090000D03*
X0330000Y0090000D03*
X0400000Y0190000D03*
X0400000Y0200000D03*
D13*
X0292000Y0187000D03*
X0290000Y0187000D03*
X0288000Y0187000D03*
X0288000Y0185000D03*
X0288000Y0183000D03*
X0290000Y0183000D03*
X0292000Y0183000D03*
X0292000Y0185000D03*
D14*
X0309941Y0185000D03*
X0309941Y0190000D03*
X0315059Y0190000D03*
X0315059Y0185000D03*
X0319441Y0178500D03*
X0324559Y0178500D03*
X0324559Y0172500D03*
X0319441Y0172500D03*
X0322441Y0155000D03*
X0327559Y0155000D03*
X0327559Y0145000D03*
X0322441Y0145000D03*
X0357441Y0138500D03*
X0362559Y0138500D03*
X0362559Y0130500D03*
X0357441Y0130500D03*
X0357441Y0122500D03*
X0362559Y0122500D03*
X0374941Y0120000D03*
X0380059Y0120000D03*
X0387441Y0127500D03*
X0387441Y0132500D03*
X0392559Y0132500D03*
X0392559Y0127500D03*
X0399941Y0117500D03*
X0405059Y0117500D03*
X0414941Y0125000D03*
X0414941Y0130000D03*
X0420059Y0130000D03*
X0420059Y0125000D03*
X0385059Y0140000D03*
X0379941Y0140000D03*
X0392441Y0090000D03*
X0397559Y0090000D03*
X0385059Y0075500D03*
X0379941Y0075500D03*
X0409941Y0067500D03*
X0415059Y0067500D03*
X0405059Y0053000D03*
X0399941Y0053000D03*
X0285059Y0167500D03*
X0279941Y0167500D03*
X0257559Y0170000D03*
X0252441Y0170000D03*
X0250059Y0185000D03*
X0244941Y0185000D03*
X0240059Y0185000D03*
X0234941Y0185000D03*
X0230059Y0180000D03*
X0224941Y0180000D03*
X0224941Y0190000D03*
X0230059Y0190000D03*
X0230059Y0200000D03*
X0224941Y0200000D03*
X0249941Y0197500D03*
X0255059Y0197500D03*
X0264941Y0195000D03*
X0264941Y0190000D03*
X0264941Y0185000D03*
X0270059Y0185000D03*
X0270059Y0190000D03*
X0270059Y0195000D03*
X0177559Y0155000D03*
X0172441Y0155000D03*
X0172441Y0145000D03*
X0177559Y0145000D03*
X0119059Y0167000D03*
X0113941Y0167000D03*
X0108059Y0171000D03*
X0102941Y0171000D03*
X0065559Y0163000D03*
X0060441Y0163000D03*
X0023559Y0149000D03*
X0018441Y0149000D03*
X0018559Y0143000D03*
X0013441Y0143000D03*
X0124441Y0081000D03*
X0129559Y0081000D03*
X0139941Y0061000D03*
X0145059Y0061000D03*
X0145059Y0054000D03*
X0139941Y0054000D03*
X0139941Y0047000D03*
X0145059Y0047000D03*
D15*
X0237441Y0191654D03*
X0240000Y0191654D03*
X0242559Y0191654D03*
X0242559Y0198346D03*
X0240000Y0198346D03*
X0237441Y0198346D03*
D16*
X0240000Y0195000D03*
D17*
X0370276Y0133839D03*
X0370276Y0131280D03*
X0370276Y0128720D03*
X0370276Y0126161D03*
X0379724Y0126161D03*
X0379724Y0128720D03*
X0379724Y0131280D03*
X0379724Y0133839D03*
D18*
X0375000Y0134724D03*
X0375000Y0125276D03*
D19*
X0373898Y0067953D03*
X0373898Y0062047D03*
X0386102Y0062047D03*
X0386102Y0067953D03*
D20*
X0395000Y0075669D03*
X0391260Y0084331D03*
X0398740Y0084331D03*
X0402500Y0103169D03*
X0398760Y0111831D03*
X0406240Y0111831D03*
X0408760Y0061831D03*
X0416240Y0061831D03*
X0412500Y0053169D03*
D21*
X0422500Y0059941D03*
X0422500Y0065059D03*
X0405000Y0082441D03*
X0405000Y0087559D03*
X0392000Y0104941D03*
X0392000Y0110059D03*
X0412500Y0112441D03*
X0412500Y0117559D03*
X0427500Y0026059D03*
X0427500Y0020941D03*
X0427500Y0016059D03*
X0427500Y0010941D03*
X0140000Y0095441D03*
X0140000Y0100559D03*
X0115000Y0054059D03*
X0115000Y0048941D03*
X0105000Y0044559D03*
X0105000Y0039441D03*
X0105000Y0031059D03*
X0105000Y0025941D03*
X0045000Y0059941D03*
X0045000Y0065059D03*
X0025000Y0073941D03*
X0025000Y0079059D03*
D22*
X0063819Y0089488D03*
X0116181Y0089488D03*
X0116181Y0150512D03*
X0063819Y0150512D03*
D23*
X0127992Y0129843D03*
X0127992Y0120000D03*
X0127992Y0110157D03*
X0099843Y0079646D03*
X0090000Y0079646D03*
X0080157Y0079646D03*
D24*
X0057520Y0103705D02*
X0057520Y0110705D01*
X0039803Y0110705D02*
X0039803Y0103705D01*
X0039803Y0129295D02*
X0039803Y0136295D01*
X0057520Y0136295D02*
X0057520Y0129295D01*
D25*
X0141250Y0200000D03*
X0158750Y0200000D03*
X0341250Y0200000D03*
X0358750Y0200000D03*
D26*
X0386654Y0172500D03*
X0393346Y0172500D03*
X0365846Y0067500D03*
X0359154Y0067500D03*
X0359154Y0060000D03*
X0365846Y0060000D03*
D27*
X0132118Y0056740D03*
X0132118Y0053000D03*
X0132118Y0049260D03*
X0121882Y0049260D03*
X0121882Y0056740D03*
D28*
X0122126Y0029921D03*
X0375000Y0042795D03*
D29*
X0375000Y0017205D03*
X0122126Y0020079D03*
D30*
X0105346Y0019000D03*
X0098654Y0019000D03*
D31*
X0410000Y0031063D03*
X0410000Y0038937D03*
D32*
X0419331Y0023740D03*
X0419331Y0016260D03*
X0410669Y0020000D03*
X0090331Y0165500D03*
X0081669Y0161760D03*
X0081669Y0169240D03*
D33*
X0241142Y0163858D03*
X0243110Y0163858D03*
X0245079Y0163858D03*
X0247047Y0163858D03*
X0249016Y0163858D03*
X0250984Y0163858D03*
X0252953Y0163858D03*
X0254921Y0163858D03*
X0256890Y0163858D03*
X0258858Y0163858D03*
D34*
X0265453Y0157362D03*
X0234547Y0157362D03*
D35*
X0415641Y0152060D03*
X0429560Y0138141D03*
X0450440Y0119359D03*
X0464359Y0105440D03*
X0415641Y0084560D03*
X0429560Y0070641D03*
X0464359Y0172940D03*
X0450440Y0186859D03*
D36*
X0035634Y0060000D03*
X0027366Y0060000D03*
X0025134Y0086000D03*
X0016866Y0086000D03*
D37*
X0142500Y0111260D03*
X0142500Y0118740D03*
X0175000Y0121240D03*
X0175000Y0113760D03*
D38*
X0066300Y0018653D02*
X0066590Y0018031D01*
X0066984Y0017469D01*
X0067469Y0016984D01*
X0068031Y0016590D01*
X0068653Y0016300D01*
X0069316Y0016123D01*
X0070000Y0016063D01*
X0070684Y0016123D01*
X0071347Y0016300D01*
X0071969Y0016590D01*
X0072531Y0016984D01*
X0073016Y0017469D01*
X0073410Y0018031D01*
X0073700Y0018653D01*
X0073877Y0019316D01*
X0073937Y0020000D01*
X0073877Y0020684D01*
X0073700Y0021347D01*
X0073410Y0021969D01*
X0073016Y0022531D01*
X0072531Y0023016D01*
X0071969Y0023410D01*
X0071347Y0023700D01*
X0070684Y0023877D01*
X0070000Y0023937D01*
X0069316Y0023877D01*
X0068653Y0023700D01*
X0068031Y0023410D01*
X0067469Y0023016D01*
X0066984Y0022531D01*
X0066590Y0021969D01*
X0066300Y0021347D01*
X0066123Y0020684D01*
X0066063Y0020000D01*
X0066123Y0019316D01*
X0066300Y0018653D01*
X0066398Y0018445D02*
X0073602Y0018445D01*
X0073777Y0018943D02*
X0066223Y0018943D01*
X0066112Y0019442D02*
X0073888Y0019442D01*
X0073932Y0019940D02*
X0066068Y0019940D01*
X0066101Y0020439D02*
X0073899Y0020439D01*
X0073809Y0020937D02*
X0066191Y0020937D01*
X0066342Y0021436D02*
X0073658Y0021436D01*
X0073425Y0021934D02*
X0066575Y0021934D01*
X0066916Y0022433D02*
X0073084Y0022433D01*
X0072615Y0022932D02*
X0067385Y0022932D01*
X0068075Y0023430D02*
X0071925Y0023430D01*
X0070097Y0023929D02*
X0069903Y0023929D01*
X0066650Y0017946D02*
X0073350Y0017946D01*
X0072994Y0017448D02*
X0067006Y0017448D01*
X0067519Y0016949D02*
X0072481Y0016949D01*
X0071669Y0016451D02*
X0068331Y0016451D01*
X0085000Y0203563D02*
X0085684Y0203623D01*
X0086347Y0203800D01*
X0086969Y0204090D01*
X0087531Y0204484D01*
X0088016Y0204969D01*
X0088410Y0205531D01*
X0088700Y0206153D01*
X0088877Y0206816D01*
X0088937Y0207500D01*
X0088877Y0208184D01*
X0088700Y0208847D01*
X0088410Y0209469D01*
X0088016Y0210031D01*
X0087531Y0210516D01*
X0086969Y0210910D01*
X0086347Y0211200D01*
X0085684Y0211377D01*
X0085000Y0211437D01*
X0084316Y0211377D01*
X0083653Y0211200D01*
X0083031Y0210910D01*
X0082469Y0210516D01*
X0081984Y0210031D01*
X0081590Y0209469D01*
X0081300Y0208847D01*
X0081123Y0208184D01*
X0081063Y0207500D01*
X0081123Y0206816D01*
X0081300Y0206153D01*
X0081590Y0205531D01*
X0081984Y0204969D01*
X0082469Y0204484D01*
X0083031Y0204090D01*
X0083653Y0203800D01*
X0084316Y0203623D01*
X0085000Y0203563D01*
X0083459Y0203891D02*
X0086541Y0203891D01*
X0087396Y0204390D02*
X0082604Y0204390D01*
X0082065Y0204888D02*
X0087935Y0204888D01*
X0088308Y0205387D02*
X0081692Y0205387D01*
X0081426Y0205885D02*
X0088574Y0205885D01*
X0088761Y0206384D02*
X0081239Y0206384D01*
X0081117Y0206882D02*
X0088883Y0206882D01*
X0088927Y0207381D02*
X0081073Y0207381D01*
X0081096Y0207879D02*
X0088904Y0207879D01*
X0088825Y0208378D02*
X0081175Y0208378D01*
X0081314Y0208876D02*
X0088686Y0208876D01*
X0088453Y0209375D02*
X0081547Y0209375D01*
X0081874Y0209873D02*
X0088126Y0209873D01*
X0087675Y0210372D02*
X0082325Y0210372D01*
X0082975Y0210870D02*
X0087025Y0210870D01*
X0085715Y0211369D02*
X0084285Y0211369D01*
X0428563Y0200000D02*
X0428623Y0200684D01*
X0428800Y0201347D01*
X0429090Y0201969D01*
X0429484Y0202531D01*
X0429969Y0203016D01*
X0430531Y0203410D01*
X0431153Y0203700D01*
X0431816Y0203877D01*
X0432500Y0203937D01*
X0433184Y0203877D01*
X0433847Y0203700D01*
X0434469Y0203410D01*
X0435031Y0203016D01*
X0435516Y0202531D01*
X0435910Y0201969D01*
X0436200Y0201347D01*
X0436377Y0200684D01*
X0436437Y0200000D01*
X0436377Y0199316D01*
X0436200Y0198653D01*
X0435910Y0198031D01*
X0435516Y0197469D01*
X0435031Y0196984D01*
X0434469Y0196590D01*
X0433847Y0196300D01*
X0433184Y0196123D01*
X0432500Y0196063D01*
X0431816Y0196123D01*
X0431153Y0196300D01*
X0430531Y0196590D01*
X0429969Y0196984D01*
X0429484Y0197469D01*
X0429090Y0198031D01*
X0428800Y0198653D01*
X0428623Y0199316D01*
X0428563Y0200000D01*
X0428571Y0199903D02*
X0436429Y0199903D01*
X0436402Y0200402D02*
X0428598Y0200402D01*
X0428681Y0200900D02*
X0436319Y0200900D01*
X0436175Y0201399D02*
X0428825Y0201399D01*
X0429057Y0201897D02*
X0435943Y0201897D01*
X0435610Y0202396D02*
X0429390Y0202396D01*
X0429848Y0202894D02*
X0435152Y0202894D01*
X0434493Y0203393D02*
X0430507Y0203393D01*
X0431976Y0203891D02*
X0433024Y0203891D01*
X0436385Y0199405D02*
X0428615Y0199405D01*
X0428733Y0198906D02*
X0436267Y0198906D01*
X0436085Y0198408D02*
X0428915Y0198408D01*
X0429176Y0197909D02*
X0435824Y0197909D01*
X0435457Y0197410D02*
X0429543Y0197410D01*
X0430072Y0196912D02*
X0434928Y0196912D01*
X0434089Y0196413D02*
X0430911Y0196413D01*
M02*
