G75*
%MOIN*%
%OFA0B0*%
%FSLAX25Y25*%
%IPPOS*%
%LPD*%
%AMOC8*
5,1,8,0,0,1.08239X$1,22.5*
%
%ADD10R,0.07400X0.07400*%
%ADD11C,0.07400*%
%ADD12C,0.10000*%
%ADD13C,0.07000*%
%ADD14C,0.07000*%
%ADD15C,0.16500*%
%ADD16R,0.05150X0.05150*%
%ADD17C,0.05150*%
%ADD18C,0.08500*%
%ADD19C,0.03100*%
%ADD20C,0.00800*%
%ADD21C,0.03600*%
%ADD22C,0.01000*%
%ADD23C,0.02000*%
%ADD24C,0.03000*%
%ADD25C,0.01500*%
%ADD26C,0.01200*%
D10*
X0160000Y0100000D03*
X0170000Y0100000D03*
X0330000Y0100000D03*
X0340000Y0100000D03*
X0400000Y0210000D03*
X0110000Y0210000D03*
D11*
X0110000Y0200000D03*
X0110000Y0190000D03*
X0160000Y0090000D03*
X0170000Y0090000D03*
X0170000Y0080000D03*
X0160000Y0080000D03*
X0160000Y0070000D03*
X0160000Y0060000D03*
X0170000Y0060000D03*
X0170000Y0070000D03*
X0170000Y0050000D03*
X0160000Y0050000D03*
X0160000Y0040000D03*
X0170000Y0040000D03*
X0170000Y0030000D03*
X0160000Y0030000D03*
X0160000Y0020000D03*
X0170000Y0020000D03*
X0170000Y0010000D03*
X0160000Y0010000D03*
X0330000Y0010000D03*
X0340000Y0010000D03*
X0340000Y0020000D03*
X0330000Y0020000D03*
X0330000Y0030000D03*
X0340000Y0030000D03*
X0340000Y0040000D03*
X0330000Y0040000D03*
X0330000Y0050000D03*
X0340000Y0050000D03*
X0340000Y0060000D03*
X0340000Y0070000D03*
X0330000Y0070000D03*
X0330000Y0060000D03*
X0330000Y0080000D03*
X0340000Y0080000D03*
X0340000Y0090000D03*
X0330000Y0090000D03*
X0400000Y0190000D03*
X0400000Y0200000D03*
D12*
X0116181Y0150512D03*
X0063819Y0150512D03*
X0063819Y0089488D03*
X0116181Y0089488D03*
D13*
X0099843Y0079646D03*
X0090000Y0079646D03*
X0080157Y0079646D03*
X0127992Y0110157D03*
X0127992Y0120000D03*
X0127992Y0129843D03*
D14*
X0057520Y0129295D02*
X0057520Y0136295D01*
X0039803Y0136295D02*
X0039803Y0129295D01*
X0039803Y0110705D02*
X0039803Y0103705D01*
X0057520Y0103705D02*
X0057520Y0110705D01*
D15*
X0141250Y0200000D03*
X0158750Y0200000D03*
X0341250Y0200000D03*
X0358750Y0200000D03*
D16*
X0375000Y0042795D03*
X0122126Y0029921D03*
D17*
X0122126Y0020079D03*
X0375000Y0017205D03*
D18*
X0429560Y0070641D03*
X0415641Y0084560D03*
X0464359Y0105440D03*
X0450440Y0119359D03*
X0429560Y0138141D03*
X0415641Y0152060D03*
X0464359Y0172940D03*
X0450440Y0186859D03*
D19*
X0397500Y0157500D03*
X0345000Y0130000D03*
X0305000Y0127500D03*
X0282000Y0136000D03*
X0240000Y0127500D03*
X0180000Y0135000D03*
X0142500Y0125000D03*
X0135000Y0117000D03*
X0112500Y0140000D03*
X0133000Y0090000D03*
X0132000Y0069000D03*
X0113000Y0060500D03*
X0107000Y0054000D03*
X0097000Y0039000D03*
X0137000Y0043000D03*
X0139000Y0023500D03*
X0360000Y0082500D03*
X0368500Y0074000D03*
X0405000Y0017000D03*
X0275000Y0167000D03*
X0290000Y0169000D03*
X0290000Y0179000D03*
X0284000Y0179000D03*
X0284000Y0185000D03*
X0284000Y0191000D03*
X0290000Y0191000D03*
X0296000Y0191000D03*
X0296000Y0185000D03*
X0306000Y0185000D03*
X0306000Y0191000D03*
X0290000Y0201000D03*
X0274000Y0192000D03*
X0274000Y0185000D03*
X0257500Y0190000D03*
D20*
X0262500Y0197500D02*
X0217500Y0197500D01*
X0215000Y0200000D01*
X0212500Y0200000D01*
X0200000Y0187500D01*
X0187500Y0175000D01*
X0187500Y0162500D01*
X0192500Y0167500D02*
X0192500Y0175000D01*
X0197500Y0180000D01*
X0207500Y0182500D02*
X0207500Y0187500D01*
X0207500Y0182500D02*
X0210000Y0180000D01*
X0197500Y0167500D01*
X0212500Y0177500D02*
X0182500Y0147500D01*
X0192500Y0137500D02*
X0192500Y0052500D01*
X0187500Y0057500D02*
X0182500Y0052500D01*
X0187500Y0057500D02*
X0187500Y0130000D01*
X0182500Y0125000D02*
X0172500Y0135000D01*
X0160000Y0140000D02*
X0160000Y0110000D01*
X0162500Y0107500D01*
X0175000Y0107500D01*
X0177500Y0105000D01*
X0177500Y0090000D01*
X0182500Y0085000D01*
X0160000Y0090000D02*
X0133000Y0090000D01*
X0133000Y0075000D02*
X0105000Y0075000D01*
X0099000Y0069000D01*
X0068000Y0069000D01*
X0040000Y0097000D01*
X0040000Y0107008D01*
X0039803Y0107205D01*
X0127992Y0120000D02*
X0132000Y0120000D01*
X0135000Y0117000D01*
X0135000Y0147500D02*
X0100000Y0182500D01*
X0100000Y0195000D01*
X0105000Y0200000D01*
X0110000Y0200000D01*
X0117500Y0202500D02*
X0110000Y0210000D01*
X0117500Y0202500D02*
X0117500Y0172500D01*
X0130000Y0160000D01*
X0150000Y0160000D01*
X0197500Y0142500D02*
X0197500Y0057500D01*
X0200000Y0055000D01*
X0220000Y0045000D02*
X0255000Y0080000D01*
X0255000Y0107500D01*
X0270000Y0122500D01*
X0270000Y0140000D01*
X0267500Y0142500D02*
X0270000Y0145000D01*
X0300000Y0145000D01*
X0297500Y0140000D02*
X0265000Y0107500D01*
X0260000Y0095000D02*
X0260000Y0057500D01*
X0302500Y0015000D01*
X0335000Y0015000D01*
X0340000Y0010000D01*
X0335000Y0025000D02*
X0315000Y0025000D01*
X0310000Y0030000D01*
X0310000Y0082500D01*
X0315000Y0090000D02*
X0315000Y0065000D01*
X0325000Y0055000D01*
X0335000Y0055000D01*
X0340000Y0050000D01*
X0342500Y0045000D02*
X0335000Y0045000D01*
X0330000Y0040000D01*
X0342500Y0045000D02*
X0350000Y0052500D01*
X0350000Y0085000D01*
X0357500Y0092500D01*
X0352500Y0092500D02*
X0352500Y0095000D01*
X0355000Y0097500D01*
X0365000Y0097500D01*
X0367500Y0095000D01*
X0402500Y0095000D01*
X0415000Y0110000D02*
X0372000Y0110000D01*
X0370000Y0108000D01*
X0362000Y0108000D01*
X0361000Y0109000D01*
X0361000Y0112000D01*
X0358500Y0114500D01*
X0357500Y0114500D01*
X0357500Y0132500D01*
X0352500Y0137500D01*
X0340000Y0137500D01*
X0337500Y0135000D01*
X0332500Y0135000D01*
X0327500Y0140000D01*
X0297500Y0140000D01*
X0295000Y0127500D02*
X0292500Y0127500D01*
X0260000Y0095000D01*
X0272500Y0080000D02*
X0275000Y0080000D01*
X0310000Y0115000D01*
X0340000Y0115000D01*
X0352500Y0127500D01*
X0352500Y0132500D01*
X0344000Y0125000D02*
X0341500Y0127500D01*
X0321500Y0127500D01*
X0318000Y0131000D01*
X0312500Y0112500D02*
X0342500Y0112500D01*
X0352500Y0122500D01*
X0365000Y0112500D02*
X0385000Y0112500D01*
X0397500Y0125000D01*
X0397500Y0130000D01*
X0410000Y0135000D02*
X0425000Y0150000D01*
X0425000Y0160000D01*
X0405000Y0162500D02*
X0402500Y0165000D01*
X0377500Y0165000D01*
X0372500Y0170000D01*
X0372500Y0172500D01*
X0322500Y0160000D02*
X0320000Y0160000D01*
X0310000Y0150000D01*
X0242500Y0150000D01*
X0257500Y0142500D02*
X0267500Y0142500D01*
X0265000Y0167500D02*
X0265000Y0170000D01*
X0257500Y0177500D01*
X0212500Y0177500D01*
X0235000Y0202500D02*
X0263500Y0202500D01*
X0274000Y0192000D01*
X0275000Y0191000D01*
X0284000Y0191000D01*
X0284000Y0185000D02*
X0275000Y0185000D01*
X0262500Y0197500D01*
X0274000Y0185000D02*
X0275000Y0185000D01*
X0290000Y0191000D02*
X0290000Y0201000D01*
X0304000Y0201000D01*
X0312500Y0192500D01*
X0312500Y0165000D01*
X0306000Y0185000D02*
X0296000Y0185000D01*
X0296000Y0191000D02*
X0306000Y0191000D01*
X0370000Y0122500D02*
X0382500Y0135000D01*
X0410000Y0135000D01*
X0425000Y0133581D02*
X0429560Y0138141D01*
X0425000Y0133581D02*
X0425000Y0085000D01*
X0412500Y0072500D01*
X0407500Y0072500D01*
X0397500Y0062500D01*
X0397500Y0057500D01*
X0395000Y0055000D01*
X0365000Y0055000D01*
X0357500Y0047500D01*
X0357500Y0040000D01*
X0350000Y0035000D02*
X0347500Y0037500D01*
X0350000Y0035000D02*
X0417500Y0035000D01*
X0422500Y0040000D01*
X0430000Y0042500D02*
X0430000Y0052500D01*
X0435000Y0057500D01*
X0422500Y0052500D02*
X0410000Y0052500D01*
X0402500Y0062000D01*
X0430000Y0042500D02*
X0415000Y0027500D01*
X0392500Y0027500D01*
X0390000Y0025000D01*
X0375000Y0017205D02*
X0375000Y0017000D01*
X0405000Y0017000D01*
X0340000Y0030000D02*
X0335000Y0025000D01*
X0265000Y0060000D02*
X0315000Y0110000D01*
X0357500Y0110000D01*
X0350000Y0100000D02*
X0347500Y0097500D01*
X0347500Y0092500D01*
X0345000Y0090000D01*
X0340000Y0090000D01*
X0335000Y0085000D02*
X0345000Y0085000D01*
X0352500Y0092500D01*
X0350000Y0100000D02*
X0370000Y0100000D01*
X0370000Y0120000D02*
X0370000Y0122500D01*
X0330000Y0100000D02*
X0325000Y0100000D01*
X0322500Y0097500D01*
X0315000Y0097500D02*
X0322500Y0090000D01*
X0330000Y0090000D01*
X0335000Y0085000D02*
X0330000Y0080000D01*
X0312500Y0097500D02*
X0300000Y0085000D01*
X0300000Y0080000D01*
X0297500Y0077500D01*
X0295000Y0077500D01*
X0270000Y0070000D02*
X0312500Y0112500D01*
X0312500Y0097500D02*
X0315000Y0097500D01*
X0270000Y0070000D02*
X0267500Y0070000D01*
X0220000Y0045000D02*
X0165000Y0045000D01*
X0160000Y0040000D01*
X0165000Y0035000D02*
X0160000Y0030000D01*
X0165000Y0035000D02*
X0197500Y0035000D01*
X0160000Y0050000D02*
X0155000Y0055000D01*
X0149000Y0055000D01*
X0137000Y0043000D01*
X0132000Y0048000D01*
X0132000Y0069000D01*
X0133000Y0075000D02*
X0148000Y0060000D01*
X0160000Y0060000D01*
X0107000Y0054000D02*
X0107000Y0049000D01*
X0097000Y0039000D01*
X0182500Y0100000D02*
X0182500Y0125000D01*
X0415000Y0110000D02*
X0417500Y0112500D01*
D21*
X0417500Y0112500D03*
X0397500Y0130000D03*
X0397500Y0145000D03*
X0405000Y0162500D03*
X0425000Y0160000D03*
X0372500Y0172500D03*
X0322500Y0160000D03*
X0312500Y0165000D03*
X0300000Y0145000D03*
X0295000Y0127500D03*
X0270000Y0140000D03*
X0257500Y0142500D03*
X0242500Y0150000D03*
X0265000Y0167500D03*
X0237500Y0172500D03*
X0217500Y0172500D03*
X0197500Y0167500D03*
X0192500Y0167500D03*
X0187500Y0162500D03*
X0182500Y0147500D03*
X0192500Y0137500D03*
X0197500Y0142500D03*
X0187500Y0130000D03*
X0172500Y0135000D03*
X0160000Y0140000D03*
X0135000Y0147500D03*
X0127500Y0142500D03*
X0112500Y0160000D03*
X0097500Y0177500D03*
X0085000Y0155000D03*
X0110000Y0125000D03*
X0150000Y0160000D03*
X0197500Y0180000D03*
X0200000Y0187500D03*
X0207500Y0187500D03*
X0217500Y0187500D03*
X0212500Y0195000D03*
X0235000Y0202500D03*
X0247500Y0212500D03*
X0335000Y0140000D03*
X0352500Y0132500D03*
X0352500Y0122500D03*
X0344000Y0125000D03*
X0325000Y0120000D03*
X0318000Y0131000D03*
X0357500Y0110000D03*
X0365000Y0112500D03*
X0370000Y0120000D03*
X0370000Y0100000D03*
X0357500Y0092500D03*
X0322500Y0097500D03*
X0315000Y0090000D03*
X0310000Y0082500D03*
X0295000Y0077500D03*
X0272500Y0080000D03*
X0267500Y0070000D03*
X0265000Y0060000D03*
X0270000Y0097500D03*
X0265000Y0107500D03*
X0182500Y0100000D03*
X0182500Y0085000D03*
X0200000Y0055000D03*
X0192500Y0052500D03*
X0182500Y0052500D03*
X0197500Y0035000D03*
X0347500Y0037500D03*
X0357500Y0040000D03*
X0367500Y0050000D03*
X0402500Y0062000D03*
X0422500Y0052500D03*
X0435000Y0057500D03*
X0422500Y0040000D03*
X0390000Y0025000D03*
X0402500Y0095000D03*
X0052500Y0077500D03*
X0030000Y0077500D03*
D22*
X0037835Y0029247D02*
X0047330Y0021675D01*
X0057613Y0015213D01*
X0068555Y0009944D01*
X0080019Y0005933D01*
X0091859Y0003230D01*
X0103928Y0001870D01*
X0110000Y0001700D01*
X0390000Y0001700D01*
X0396072Y0001870D01*
X0408141Y0003230D01*
X0419981Y0005933D01*
X0431445Y0009944D01*
X0442387Y0015213D01*
X0452670Y0021675D01*
X0462165Y0029247D01*
X0470753Y0037835D01*
X0478325Y0047330D01*
X0484787Y0057613D01*
X0490056Y0068555D01*
X0494067Y0080019D01*
X0496770Y0091859D01*
X0498130Y0103928D01*
X0498300Y0110000D01*
X0498130Y0116072D01*
X0496770Y0128141D01*
X0494067Y0139981D01*
X0490056Y0151445D01*
X0484787Y0162387D01*
X0478325Y0172670D01*
X0470753Y0182165D01*
X0462165Y0190753D01*
X0452670Y0198325D01*
X0442387Y0204787D01*
X0431445Y0210056D01*
X0419981Y0214067D01*
X0408141Y0216770D01*
X0396072Y0218130D01*
X0390000Y0218300D01*
X0377200Y0218300D01*
X0377200Y0200834D01*
X0377251Y0200777D01*
X0377200Y0199933D01*
X0377200Y0199089D01*
X0377146Y0199034D01*
X0377060Y0197612D01*
X0377146Y0197486D01*
X0377006Y0196721D01*
X0376959Y0195944D01*
X0376845Y0195843D01*
X0376574Y0194367D01*
X0376645Y0194233D01*
X0376413Y0193490D01*
X0376273Y0192724D01*
X0376148Y0192638D01*
X0375702Y0191205D01*
X0375756Y0191063D01*
X0375436Y0190353D01*
X0375205Y0189610D01*
X0375070Y0189540D01*
X0374454Y0188171D01*
X0374491Y0188024D01*
X0374088Y0187358D01*
X0373769Y0186648D01*
X0373626Y0186594D01*
X0372850Y0185310D01*
X0372868Y0185159D01*
X0372388Y0184546D01*
X0371986Y0183880D01*
X0371838Y0183844D01*
X0370913Y0182663D01*
X0370913Y0182511D01*
X0370362Y0181960D01*
X0369883Y0181348D01*
X0369732Y0181329D01*
X0368670Y0180268D01*
X0368652Y0180117D01*
X0368040Y0179638D01*
X0367489Y0179087D01*
X0367337Y0179087D01*
X0366156Y0178162D01*
X0366120Y0178014D01*
X0365454Y0177612D01*
X0364841Y0177132D01*
X0364690Y0177150D01*
X0363406Y0176374D01*
X0363352Y0176231D01*
X0362642Y0175912D01*
X0361976Y0175509D01*
X0361829Y0175546D01*
X0360460Y0174930D01*
X0360390Y0174795D01*
X0359647Y0174564D01*
X0358937Y0174244D01*
X0358795Y0174298D01*
X0357362Y0173852D01*
X0357276Y0173727D01*
X0356510Y0173586D01*
X0355767Y0173355D01*
X0355633Y0173426D01*
X0354157Y0173155D01*
X0354056Y0173041D01*
X0353279Y0172994D01*
X0352514Y0172854D01*
X0352388Y0172940D01*
X0350891Y0172850D01*
X0350777Y0172749D01*
X0350000Y0172796D01*
X0349223Y0172749D01*
X0349109Y0172850D01*
X0347612Y0172940D01*
X0347486Y0172854D01*
X0346721Y0172994D01*
X0345944Y0173041D01*
X0345843Y0173155D01*
X0344367Y0173426D01*
X0344233Y0173355D01*
X0343490Y0173586D01*
X0342724Y0173727D01*
X0342638Y0173852D01*
X0341205Y0174298D01*
X0341063Y0174244D01*
X0340353Y0174564D01*
X0339610Y0174795D01*
X0339540Y0174930D01*
X0338171Y0175546D01*
X0338024Y0175509D01*
X0337358Y0175912D01*
X0336648Y0176231D01*
X0336594Y0176374D01*
X0335310Y0177150D01*
X0335159Y0177132D01*
X0334546Y0177612D01*
X0333880Y0178014D01*
X0333844Y0178162D01*
X0332663Y0179087D01*
X0332511Y0179087D01*
X0331960Y0179638D01*
X0331348Y0180117D01*
X0331329Y0180268D01*
X0330268Y0181329D01*
X0330117Y0181348D01*
X0329638Y0181960D01*
X0329087Y0182511D01*
X0329087Y0182663D01*
X0328162Y0183844D01*
X0328014Y0183880D01*
X0327612Y0184546D01*
X0327132Y0185159D01*
X0327150Y0185310D01*
X0326374Y0186594D01*
X0326231Y0186648D01*
X0325912Y0187358D01*
X0325509Y0188024D01*
X0325546Y0188171D01*
X0324930Y0189540D01*
X0324795Y0189610D01*
X0324564Y0190353D01*
X0324244Y0191063D01*
X0324298Y0191205D01*
X0323852Y0192638D01*
X0323727Y0192724D01*
X0323586Y0193490D01*
X0323355Y0194233D01*
X0323426Y0194367D01*
X0323155Y0195843D01*
X0323041Y0195944D01*
X0322994Y0196721D01*
X0322854Y0197486D01*
X0322940Y0197612D01*
X0322854Y0199034D01*
X0322800Y0199089D01*
X0322800Y0199934D01*
X0322749Y0200777D01*
X0322800Y0200834D01*
X0322800Y0218300D01*
X0110000Y0218300D01*
X0103928Y0218130D01*
X0091859Y0216770D01*
X0080019Y0214067D01*
X0068555Y0210056D01*
X0057613Y0204787D01*
X0047330Y0198325D01*
X0037835Y0190753D01*
X0029247Y0182165D01*
X0021675Y0172670D01*
X0015213Y0162387D01*
X0009944Y0151445D01*
X0005933Y0139981D01*
X0003230Y0128141D01*
X0001870Y0116072D01*
X0001700Y0110000D01*
X0001870Y0103928D01*
X0003230Y0091859D01*
X0005933Y0080019D01*
X0009944Y0068555D01*
X0015213Y0057613D01*
X0021675Y0047330D01*
X0029247Y0037835D01*
X0037835Y0029247D01*
X0038198Y0028957D02*
X0117851Y0028957D01*
X0117851Y0029955D02*
X0037126Y0029955D01*
X0036128Y0030954D02*
X0117851Y0030954D01*
X0117851Y0031952D02*
X0035129Y0031952D01*
X0034131Y0032951D02*
X0117851Y0032951D01*
X0117851Y0033200D02*
X0118847Y0034196D01*
X0125405Y0034196D01*
X0126401Y0033200D01*
X0126401Y0026642D01*
X0125405Y0025646D01*
X0118847Y0025646D01*
X0117851Y0026642D01*
X0117851Y0033200D01*
X0118600Y0033949D02*
X0033132Y0033949D01*
X0032134Y0034948D02*
X0157834Y0034948D01*
X0157960Y0035000D02*
X0156941Y0034578D01*
X0155422Y0033059D01*
X0154600Y0031074D01*
X0154600Y0028926D01*
X0155422Y0026941D01*
X0156941Y0025422D01*
X0157960Y0025000D01*
X0156941Y0024578D01*
X0155422Y0023059D01*
X0154600Y0021074D01*
X0154600Y0018926D01*
X0155422Y0016941D01*
X0156941Y0015422D01*
X0157960Y0015000D01*
X0156941Y0014578D01*
X0155422Y0013059D01*
X0154600Y0011074D01*
X0154600Y0008926D01*
X0155422Y0006941D01*
X0156941Y0005422D01*
X0158926Y0004600D01*
X0161074Y0004600D01*
X0163059Y0005422D01*
X0164578Y0006941D01*
X0165000Y0007960D01*
X0165422Y0006941D01*
X0166941Y0005422D01*
X0168926Y0004600D01*
X0171074Y0004600D01*
X0173059Y0005422D01*
X0174578Y0006941D01*
X0175400Y0008926D01*
X0175400Y0011074D01*
X0174578Y0013059D01*
X0173059Y0014578D01*
X0172040Y0015000D01*
X0173059Y0015422D01*
X0174578Y0016941D01*
X0175400Y0018926D01*
X0175400Y0021074D01*
X0174578Y0023059D01*
X0173059Y0024578D01*
X0172040Y0025000D01*
X0173059Y0025422D01*
X0174578Y0026941D01*
X0175400Y0028926D01*
X0175400Y0031074D01*
X0174644Y0032900D01*
X0194650Y0032900D01*
X0195517Y0032033D01*
X0196804Y0031500D01*
X0198196Y0031500D01*
X0199483Y0032033D01*
X0200467Y0033017D01*
X0201000Y0034304D01*
X0201000Y0035696D01*
X0200467Y0036983D01*
X0199483Y0037967D01*
X0198196Y0038500D01*
X0196804Y0038500D01*
X0195517Y0037967D01*
X0194650Y0037100D01*
X0174644Y0037100D01*
X0175400Y0038926D01*
X0175400Y0041074D01*
X0174644Y0042900D01*
X0220870Y0042900D01*
X0222100Y0044130D01*
X0222100Y0044130D01*
X0255870Y0077900D01*
X0257100Y0079130D01*
X0257100Y0106630D01*
X0272100Y0121630D01*
X0272100Y0137150D01*
X0272967Y0138017D01*
X0273500Y0139304D01*
X0273500Y0140696D01*
X0272967Y0141983D01*
X0272050Y0142900D01*
X0297150Y0142900D01*
X0297950Y0142100D01*
X0296630Y0142100D01*
X0265530Y0111000D01*
X0264304Y0111000D01*
X0263017Y0110467D01*
X0262033Y0109483D01*
X0261500Y0108196D01*
X0261500Y0106804D01*
X0262033Y0105517D01*
X0263017Y0104533D01*
X0264304Y0104000D01*
X0265696Y0104000D01*
X0266266Y0104236D01*
X0259130Y0097100D01*
X0257900Y0095870D01*
X0257900Y0056630D01*
X0300400Y0014130D01*
X0301630Y0012900D01*
X0325356Y0012900D01*
X0324600Y0011074D01*
X0324600Y0008926D01*
X0325422Y0006941D01*
X0326941Y0005422D01*
X0328926Y0004600D01*
X0331074Y0004600D01*
X0333059Y0005422D01*
X0334578Y0006941D01*
X0335000Y0007960D01*
X0335422Y0006941D01*
X0336941Y0005422D01*
X0338926Y0004600D01*
X0341074Y0004600D01*
X0343059Y0005422D01*
X0344578Y0006941D01*
X0345400Y0008926D01*
X0345400Y0011074D01*
X0344578Y0013059D01*
X0343059Y0014578D01*
X0342040Y0015000D01*
X0343059Y0015422D01*
X0344578Y0016941D01*
X0345400Y0018926D01*
X0345400Y0021074D01*
X0344578Y0023059D01*
X0343059Y0024578D01*
X0342040Y0025000D01*
X0343059Y0025422D01*
X0344578Y0026941D01*
X0345400Y0028926D01*
X0345400Y0031074D01*
X0344578Y0033059D01*
X0343059Y0034578D01*
X0342040Y0035000D01*
X0343059Y0035422D01*
X0344129Y0036492D01*
X0344533Y0035517D01*
X0345517Y0034533D01*
X0346804Y0034000D01*
X0348030Y0034000D01*
X0349130Y0032900D01*
X0417430Y0032900D01*
X0414130Y0029600D01*
X0391630Y0029600D01*
X0390530Y0028500D01*
X0389304Y0028500D01*
X0388017Y0027967D01*
X0387033Y0026983D01*
X0386500Y0025696D01*
X0386500Y0024304D01*
X0387033Y0023017D01*
X0388017Y0022033D01*
X0389304Y0021500D01*
X0390696Y0021500D01*
X0391983Y0022033D01*
X0392967Y0023017D01*
X0393500Y0024304D01*
X0393500Y0025400D01*
X0415870Y0025400D01*
X0430870Y0040400D01*
X0432100Y0041630D01*
X0432100Y0051630D01*
X0434470Y0054000D01*
X0435696Y0054000D01*
X0436983Y0054533D01*
X0437967Y0055517D01*
X0438500Y0056804D01*
X0438500Y0058196D01*
X0437967Y0059483D01*
X0437650Y0059800D01*
X0468037Y0059800D01*
X0469029Y0060211D01*
X0487289Y0078471D01*
X0487700Y0079463D01*
X0487700Y0133037D01*
X0487289Y0134029D01*
X0452289Y0169029D01*
X0451529Y0169789D01*
X0450537Y0170200D01*
X0419463Y0170200D01*
X0418471Y0169789D01*
X0412700Y0164018D01*
X0412700Y0195537D01*
X0412289Y0196529D01*
X0406529Y0202289D01*
X0405537Y0202700D01*
X0404727Y0202700D01*
X0404578Y0203059D01*
X0403059Y0204578D01*
X0402040Y0205000D01*
X0403871Y0205000D01*
X0404202Y0205089D01*
X0404498Y0205260D01*
X0404740Y0205502D01*
X0404911Y0205798D01*
X0405000Y0206129D01*
X0405000Y0209500D01*
X0400500Y0209500D01*
X0400500Y0210500D01*
X0399500Y0210500D01*
X0399500Y0215000D01*
X0396129Y0215000D01*
X0395798Y0214911D01*
X0395502Y0214740D01*
X0395260Y0214498D01*
X0395089Y0214202D01*
X0395000Y0213871D01*
X0395000Y0210500D01*
X0399500Y0210500D01*
X0399500Y0209500D01*
X0395000Y0209500D01*
X0395000Y0206129D01*
X0395089Y0205798D01*
X0395260Y0205502D01*
X0395502Y0205260D01*
X0395798Y0205089D01*
X0396129Y0205000D01*
X0397960Y0205000D01*
X0396941Y0204578D01*
X0395422Y0203059D01*
X0394600Y0201074D01*
X0394600Y0198926D01*
X0395422Y0196941D01*
X0396941Y0195422D01*
X0397960Y0195000D01*
X0396941Y0194578D01*
X0395422Y0193059D01*
X0394600Y0191074D01*
X0394600Y0188926D01*
X0395422Y0186941D01*
X0396941Y0185422D01*
X0398926Y0184600D01*
X0401074Y0184600D01*
X0403059Y0185422D01*
X0404578Y0186941D01*
X0405400Y0188926D01*
X0405400Y0191074D01*
X0404578Y0193059D01*
X0403059Y0194578D01*
X0402040Y0195000D01*
X0403059Y0195422D01*
X0404409Y0196772D01*
X0407300Y0193882D01*
X0407300Y0165150D01*
X0406983Y0165467D01*
X0405696Y0166000D01*
X0404470Y0166000D01*
X0403370Y0167100D01*
X0378370Y0167100D01*
X0375210Y0170260D01*
X0375467Y0170517D01*
X0376000Y0171804D01*
X0376000Y0173196D01*
X0375467Y0174483D01*
X0374483Y0175467D01*
X0373196Y0176000D01*
X0371804Y0176000D01*
X0370517Y0175467D01*
X0369533Y0174483D01*
X0369000Y0173196D01*
X0369000Y0171804D01*
X0369533Y0170517D01*
X0370400Y0169650D01*
X0370400Y0169130D01*
X0371630Y0167900D01*
X0376630Y0162900D01*
X0401500Y0162900D01*
X0401500Y0161804D01*
X0402033Y0160517D01*
X0403017Y0159533D01*
X0404304Y0159000D01*
X0405696Y0159000D01*
X0406983Y0159533D01*
X0407300Y0159850D01*
X0407300Y0158618D01*
X0397182Y0148500D01*
X0396804Y0148500D01*
X0395517Y0147967D01*
X0395250Y0147700D01*
X0354463Y0147700D01*
X0353471Y0147289D01*
X0351382Y0145200D01*
X0336963Y0145200D01*
X0335971Y0144789D01*
X0334682Y0143500D01*
X0334304Y0143500D01*
X0333017Y0142967D01*
X0332033Y0141983D01*
X0331500Y0140696D01*
X0331500Y0139304D01*
X0331736Y0138734D01*
X0328370Y0142100D01*
X0302050Y0142100D01*
X0302967Y0143017D01*
X0303500Y0144304D01*
X0303500Y0145696D01*
X0302967Y0146983D01*
X0302050Y0147900D01*
X0310870Y0147900D01*
X0320260Y0157290D01*
X0320517Y0157033D01*
X0321804Y0156500D01*
X0323196Y0156500D01*
X0324483Y0157033D01*
X0325467Y0158017D01*
X0326000Y0159304D01*
X0326000Y0160696D01*
X0325467Y0161983D01*
X0324483Y0162967D01*
X0323196Y0163500D01*
X0321804Y0163500D01*
X0320517Y0162967D01*
X0319650Y0162100D01*
X0319130Y0162100D01*
X0317900Y0160870D01*
X0309130Y0152100D01*
X0245350Y0152100D01*
X0244483Y0152967D01*
X0243196Y0153500D01*
X0241804Y0153500D01*
X0240517Y0152967D01*
X0239533Y0151983D01*
X0239000Y0150696D01*
X0239000Y0149304D01*
X0239533Y0148017D01*
X0240517Y0147033D01*
X0241804Y0146500D01*
X0243196Y0146500D01*
X0244483Y0147033D01*
X0245350Y0147900D01*
X0297950Y0147900D01*
X0297150Y0147100D01*
X0269130Y0147100D01*
X0267900Y0145870D01*
X0266630Y0144600D01*
X0260350Y0144600D01*
X0259483Y0145467D01*
X0258196Y0146000D01*
X0256804Y0146000D01*
X0255517Y0145467D01*
X0254533Y0144483D01*
X0254000Y0143196D01*
X0254000Y0141804D01*
X0254533Y0140517D01*
X0255517Y0139533D01*
X0256804Y0139000D01*
X0258196Y0139000D01*
X0259483Y0139533D01*
X0260350Y0140400D01*
X0266500Y0140400D01*
X0266500Y0139304D01*
X0267033Y0138017D01*
X0267900Y0137150D01*
X0267900Y0123370D01*
X0254130Y0109600D01*
X0252900Y0108370D01*
X0252900Y0080870D01*
X0219130Y0047100D01*
X0174644Y0047100D01*
X0175400Y0048926D01*
X0175400Y0051074D01*
X0174578Y0053059D01*
X0173059Y0054578D01*
X0172040Y0055000D01*
X0173059Y0055422D01*
X0174578Y0056941D01*
X0175400Y0058926D01*
X0175400Y0061074D01*
X0174578Y0063059D01*
X0173059Y0064578D01*
X0172040Y0065000D01*
X0173059Y0065422D01*
X0174578Y0066941D01*
X0175400Y0068926D01*
X0175400Y0071074D01*
X0174578Y0073059D01*
X0173059Y0074578D01*
X0172040Y0075000D01*
X0173059Y0075422D01*
X0174578Y0076941D01*
X0175400Y0078926D01*
X0175400Y0081074D01*
X0174578Y0083059D01*
X0173059Y0084578D01*
X0171491Y0085227D01*
X0171919Y0085366D01*
X0172621Y0085724D01*
X0173257Y0086186D01*
X0173814Y0086743D01*
X0174276Y0087379D01*
X0174634Y0088081D01*
X0174877Y0088829D01*
X0174983Y0089500D01*
X0170500Y0089500D01*
X0170500Y0090500D01*
X0174983Y0090500D01*
X0174877Y0091171D01*
X0174634Y0091919D01*
X0174276Y0092621D01*
X0173814Y0093257D01*
X0173257Y0093814D01*
X0172621Y0094276D01*
X0171985Y0094600D01*
X0174404Y0094600D01*
X0175400Y0095596D01*
X0175400Y0104130D01*
X0175400Y0089130D01*
X0176630Y0087900D01*
X0176630Y0087900D01*
X0179000Y0085530D01*
X0179000Y0084304D01*
X0179533Y0083017D01*
X0180517Y0082033D01*
X0181804Y0081500D01*
X0183196Y0081500D01*
X0184483Y0082033D01*
X0185400Y0082950D01*
X0185400Y0058370D01*
X0183030Y0056000D01*
X0181804Y0056000D01*
X0180517Y0055467D01*
X0179533Y0054483D01*
X0179000Y0053196D01*
X0179000Y0051804D01*
X0179533Y0050517D01*
X0180517Y0049533D01*
X0181804Y0049000D01*
X0183196Y0049000D01*
X0184483Y0049533D01*
X0185467Y0050517D01*
X0186000Y0051804D01*
X0186000Y0053030D01*
X0189600Y0056630D01*
X0189600Y0127150D01*
X0190400Y0127950D01*
X0190400Y0055350D01*
X0189533Y0054483D01*
X0189000Y0053196D01*
X0189000Y0051804D01*
X0189533Y0050517D01*
X0190517Y0049533D01*
X0191804Y0049000D01*
X0193196Y0049000D01*
X0194483Y0049533D01*
X0195467Y0050517D01*
X0196000Y0051804D01*
X0196000Y0053196D01*
X0195467Y0054483D01*
X0194600Y0055350D01*
X0194600Y0134650D01*
X0195400Y0135450D01*
X0195400Y0056630D01*
X0196500Y0055530D01*
X0196500Y0054304D01*
X0197033Y0053017D01*
X0198017Y0052033D01*
X0199304Y0051500D01*
X0200696Y0051500D01*
X0201983Y0052033D01*
X0202967Y0053017D01*
X0203500Y0054304D01*
X0203500Y0055696D01*
X0202967Y0056983D01*
X0201983Y0057967D01*
X0200696Y0058500D01*
X0199600Y0058500D01*
X0199600Y0139650D01*
X0200467Y0140517D01*
X0201000Y0141804D01*
X0201000Y0143196D01*
X0200467Y0144483D01*
X0199483Y0145467D01*
X0198196Y0146000D01*
X0196804Y0146000D01*
X0195517Y0145467D01*
X0194533Y0144483D01*
X0194000Y0143196D01*
X0194000Y0141804D01*
X0194533Y0140517D01*
X0195400Y0139650D01*
X0195400Y0139550D01*
X0194483Y0140467D01*
X0193196Y0141000D01*
X0191804Y0141000D01*
X0190517Y0140467D01*
X0189533Y0139483D01*
X0189000Y0138196D01*
X0189000Y0136804D01*
X0189533Y0135517D01*
X0190400Y0134650D01*
X0190400Y0132050D01*
X0189483Y0132967D01*
X0188196Y0133500D01*
X0186804Y0133500D01*
X0185517Y0132967D01*
X0184533Y0131983D01*
X0184000Y0130696D01*
X0184000Y0129304D01*
X0184533Y0128017D01*
X0185400Y0127150D01*
X0185400Y0102050D01*
X0184600Y0102850D01*
X0184600Y0125870D01*
X0176000Y0134470D01*
X0176000Y0135696D01*
X0175467Y0136983D01*
X0174483Y0137967D01*
X0173196Y0138500D01*
X0171804Y0138500D01*
X0170517Y0137967D01*
X0169533Y0136983D01*
X0169000Y0135696D01*
X0169000Y0134304D01*
X0169533Y0133017D01*
X0170517Y0132033D01*
X0171804Y0131500D01*
X0173030Y0131500D01*
X0180400Y0124130D01*
X0180400Y0102850D01*
X0179600Y0102050D01*
X0179600Y0105870D01*
X0178370Y0107100D01*
X0175870Y0109600D01*
X0163370Y0109600D01*
X0162100Y0110870D01*
X0162100Y0137150D01*
X0162967Y0138017D01*
X0163500Y0139304D01*
X0163500Y0140696D01*
X0162967Y0141983D01*
X0161983Y0142967D01*
X0160696Y0143500D01*
X0159304Y0143500D01*
X0158017Y0142967D01*
X0157033Y0141983D01*
X0156500Y0140696D01*
X0156500Y0139304D01*
X0157033Y0138017D01*
X0157900Y0137150D01*
X0157900Y0109130D01*
X0160400Y0106630D01*
X0161630Y0105400D01*
X0174130Y0105400D01*
X0174130Y0105400D01*
X0165596Y0105400D01*
X0165000Y0104804D01*
X0164404Y0105400D01*
X0155596Y0105400D01*
X0154600Y0104404D01*
X0154600Y0095596D01*
X0155596Y0094600D01*
X0156995Y0094600D01*
X0156941Y0094578D01*
X0155422Y0093059D01*
X0155025Y0092100D01*
X0135496Y0092100D01*
X0134841Y0092755D01*
X0133646Y0093250D01*
X0132354Y0093250D01*
X0131159Y0092755D01*
X0130245Y0091841D01*
X0129750Y0090646D01*
X0129750Y0089354D01*
X0130245Y0088159D01*
X0131159Y0087245D01*
X0132354Y0086750D01*
X0133646Y0086750D01*
X0134841Y0087245D01*
X0135496Y0087900D01*
X0155025Y0087900D01*
X0155422Y0086941D01*
X0156941Y0085422D01*
X0157960Y0085000D01*
X0156941Y0084578D01*
X0155422Y0083059D01*
X0154600Y0081074D01*
X0154600Y0078926D01*
X0155422Y0076941D01*
X0156941Y0075422D01*
X0157960Y0075000D01*
X0156941Y0074578D01*
X0155422Y0073059D01*
X0154600Y0071074D01*
X0154600Y0068926D01*
X0155422Y0066941D01*
X0156941Y0065422D01*
X0157960Y0065000D01*
X0156941Y0064578D01*
X0155422Y0063059D01*
X0155025Y0062100D01*
X0148870Y0062100D01*
X0135100Y0075870D01*
X0133870Y0077100D01*
X0104416Y0077100D01*
X0105043Y0078611D01*
X0105043Y0080680D01*
X0104251Y0082591D01*
X0103043Y0083800D01*
X0103043Y0100367D01*
X0122792Y0120117D01*
X0122792Y0118966D01*
X0123584Y0117054D01*
X0125047Y0115592D01*
X0126865Y0114838D01*
X0126150Y0114606D01*
X0125476Y0114263D01*
X0124865Y0113819D01*
X0124331Y0113284D01*
X0123887Y0112673D01*
X0123544Y0112000D01*
X0123310Y0111281D01*
X0123209Y0110642D01*
X0127508Y0110642D01*
X0127508Y0109673D01*
X0128476Y0109673D01*
X0128476Y0105374D01*
X0129116Y0105476D01*
X0129835Y0105709D01*
X0130508Y0106052D01*
X0131119Y0106496D01*
X0131653Y0107030D01*
X0132097Y0107642D01*
X0132440Y0108315D01*
X0132674Y0109033D01*
X0132775Y0109673D01*
X0128476Y0109673D01*
X0128476Y0110642D01*
X0132775Y0110642D01*
X0132674Y0111281D01*
X0132440Y0112000D01*
X0132097Y0112673D01*
X0131653Y0113284D01*
X0131119Y0113819D01*
X0130508Y0114263D01*
X0129835Y0114606D01*
X0129119Y0114838D01*
X0130938Y0115592D01*
X0131750Y0116404D01*
X0131750Y0116354D01*
X0132245Y0115159D01*
X0133159Y0114245D01*
X0134354Y0113750D01*
X0135646Y0113750D01*
X0136841Y0114245D01*
X0137755Y0115159D01*
X0138250Y0116354D01*
X0138250Y0117646D01*
X0137755Y0118841D01*
X0136841Y0119755D01*
X0135646Y0120250D01*
X0134720Y0120250D01*
X0134100Y0120870D01*
X0132870Y0122100D01*
X0132751Y0122100D01*
X0132400Y0122946D01*
X0130938Y0124408D01*
X0129699Y0124921D01*
X0130938Y0125434D01*
X0132400Y0126897D01*
X0133192Y0128808D01*
X0157900Y0128808D01*
X0157900Y0129806D02*
X0133192Y0129806D01*
X0133192Y0128808D02*
X0133192Y0130877D01*
X0133090Y0131122D01*
X0211768Y0209800D01*
X0245250Y0209800D01*
X0245517Y0209533D01*
X0246804Y0209000D01*
X0248196Y0209000D01*
X0249483Y0209533D01*
X0250467Y0210517D01*
X0251000Y0211804D01*
X0251000Y0213196D01*
X0250467Y0214483D01*
X0249483Y0215467D01*
X0248196Y0216000D01*
X0246804Y0216000D01*
X0245517Y0215467D01*
X0245250Y0215200D01*
X0210113Y0215200D01*
X0209120Y0214789D01*
X0153404Y0159073D01*
X0153500Y0159304D01*
X0153500Y0160696D01*
X0152967Y0161983D01*
X0151983Y0162967D01*
X0150696Y0163500D01*
X0149304Y0163500D01*
X0148017Y0162967D01*
X0147150Y0162100D01*
X0130870Y0162100D01*
X0119600Y0173370D01*
X0119600Y0203370D01*
X0115400Y0207570D01*
X0115400Y0214404D01*
X0114404Y0215400D01*
X0105596Y0215400D01*
X0104600Y0214404D01*
X0104600Y0205596D01*
X0105596Y0204600D01*
X0106995Y0204600D01*
X0106941Y0204578D01*
X0105422Y0203059D01*
X0105025Y0202100D01*
X0104130Y0202100D01*
X0102900Y0200870D01*
X0097900Y0195870D01*
X0097900Y0181630D01*
X0098766Y0180764D01*
X0098196Y0181000D01*
X0096804Y0181000D01*
X0095517Y0180467D01*
X0094533Y0179483D01*
X0094000Y0178196D01*
X0094000Y0176804D01*
X0094533Y0175517D01*
X0095517Y0174533D01*
X0096804Y0174000D01*
X0098196Y0174000D01*
X0099483Y0174533D01*
X0100467Y0175517D01*
X0101000Y0176804D01*
X0101000Y0178196D01*
X0100764Y0178766D01*
X0131500Y0148030D01*
X0131500Y0146804D01*
X0132033Y0145517D01*
X0133017Y0144533D01*
X0134304Y0144000D01*
X0135696Y0144000D01*
X0136983Y0144533D01*
X0137967Y0145517D01*
X0138500Y0146804D01*
X0138500Y0148196D01*
X0137967Y0149483D01*
X0136983Y0150467D01*
X0135696Y0151000D01*
X0134470Y0151000D01*
X0102100Y0183370D01*
X0102100Y0194130D01*
X0105272Y0197303D01*
X0105422Y0196941D01*
X0106941Y0195422D01*
X0107960Y0195000D01*
X0106941Y0194578D01*
X0105422Y0193059D01*
X0104600Y0191074D01*
X0104600Y0188926D01*
X0105422Y0186941D01*
X0106941Y0185422D01*
X0108926Y0184600D01*
X0111074Y0184600D01*
X0113059Y0185422D01*
X0114578Y0186941D01*
X0115400Y0188926D01*
X0115400Y0191074D01*
X0114578Y0193059D01*
X0113059Y0194578D01*
X0112040Y0195000D01*
X0113059Y0195422D01*
X0114578Y0196941D01*
X0115400Y0198926D01*
X0115400Y0201074D01*
X0115007Y0202023D01*
X0115400Y0201630D01*
X0115400Y0171630D01*
X0116630Y0170400D01*
X0129130Y0157900D01*
X0147150Y0157900D01*
X0148017Y0157033D01*
X0149304Y0156500D01*
X0150696Y0156500D01*
X0150927Y0156596D01*
X0129272Y0134941D01*
X0129026Y0135043D01*
X0126958Y0135043D01*
X0125047Y0134251D01*
X0123584Y0132788D01*
X0122792Y0130877D01*
X0122792Y0129168D01*
X0097130Y0103506D01*
X0096643Y0102329D01*
X0096643Y0083800D01*
X0095434Y0082591D01*
X0094921Y0081353D01*
X0094408Y0082591D01*
X0092946Y0084054D01*
X0091034Y0084846D01*
X0088966Y0084846D01*
X0087054Y0084054D01*
X0085592Y0082591D01*
X0084838Y0080773D01*
X0084606Y0081488D01*
X0084263Y0082161D01*
X0083819Y0082773D01*
X0083284Y0083307D01*
X0082673Y0083751D01*
X0082000Y0084094D01*
X0081281Y0084327D01*
X0080642Y0084429D01*
X0080642Y0080130D01*
X0079673Y0080130D01*
X0079673Y0079161D01*
X0080642Y0079161D01*
X0080642Y0074863D01*
X0081281Y0074964D01*
X0082000Y0075197D01*
X0082673Y0075540D01*
X0083284Y0075984D01*
X0083819Y0076519D01*
X0084263Y0077130D01*
X0084606Y0077803D01*
X0084838Y0078519D01*
X0085592Y0076700D01*
X0087054Y0075237D01*
X0088966Y0074446D01*
X0091034Y0074446D01*
X0092946Y0075237D01*
X0094408Y0076700D01*
X0094921Y0077938D01*
X0095434Y0076700D01*
X0096897Y0075237D01*
X0098808Y0074446D01*
X0100877Y0074446D01*
X0101899Y0074869D01*
X0098130Y0071100D01*
X0068870Y0071100D01*
X0042100Y0097870D01*
X0042100Y0099028D01*
X0042749Y0099296D01*
X0044211Y0100759D01*
X0045003Y0102670D01*
X0045003Y0111739D01*
X0044211Y0113650D01*
X0042749Y0115113D01*
X0040837Y0115905D01*
X0038769Y0115905D01*
X0036858Y0115113D01*
X0035395Y0113650D01*
X0034603Y0111739D01*
X0034603Y0102670D01*
X0035395Y0100759D01*
X0036858Y0099296D01*
X0037900Y0098865D01*
X0037900Y0096130D01*
X0039130Y0094900D01*
X0053030Y0081000D01*
X0051804Y0081000D01*
X0050517Y0080467D01*
X0050250Y0080200D01*
X0032250Y0080200D01*
X0031983Y0080467D01*
X0030696Y0081000D01*
X0029304Y0081000D01*
X0028017Y0080467D01*
X0027033Y0079483D01*
X0026500Y0078196D01*
X0026500Y0076804D01*
X0027033Y0075517D01*
X0028017Y0074533D01*
X0029304Y0074000D01*
X0030696Y0074000D01*
X0031983Y0074533D01*
X0032250Y0074800D01*
X0050250Y0074800D01*
X0050517Y0074533D01*
X0051804Y0074000D01*
X0053196Y0074000D01*
X0054483Y0074533D01*
X0055467Y0075517D01*
X0056000Y0076804D01*
X0056000Y0078030D01*
X0067130Y0066900D01*
X0099870Y0066900D01*
X0101100Y0068130D01*
X0105870Y0072900D01*
X0132130Y0072900D01*
X0132875Y0072155D01*
X0132646Y0072250D01*
X0131354Y0072250D01*
X0130159Y0071755D01*
X0129245Y0070841D01*
X0128750Y0069646D01*
X0128750Y0068354D01*
X0129245Y0067159D01*
X0129900Y0066504D01*
X0129900Y0047130D01*
X0133750Y0043280D01*
X0133750Y0042354D01*
X0134245Y0041159D01*
X0135159Y0040245D01*
X0136354Y0039750D01*
X0137646Y0039750D01*
X0138841Y0040245D01*
X0139755Y0041159D01*
X0140250Y0042354D01*
X0140250Y0043280D01*
X0149870Y0052900D01*
X0154130Y0052900D01*
X0154997Y0052033D01*
X0154600Y0051074D01*
X0154600Y0048926D01*
X0155422Y0046941D01*
X0156941Y0045422D01*
X0157960Y0045000D01*
X0156941Y0044578D01*
X0155422Y0043059D01*
X0154600Y0041074D01*
X0154600Y0038926D01*
X0155422Y0036941D01*
X0156941Y0035422D01*
X0157960Y0035000D01*
X0156417Y0035946D02*
X0098121Y0035946D01*
X0097646Y0035750D02*
X0098841Y0036245D01*
X0099755Y0037159D01*
X0100250Y0038354D01*
X0100250Y0039280D01*
X0109100Y0048130D01*
X0109100Y0051504D01*
X0109755Y0052159D01*
X0110250Y0053354D01*
X0110250Y0054646D01*
X0109755Y0055841D01*
X0108841Y0056755D01*
X0107646Y0057250D01*
X0106354Y0057250D01*
X0105159Y0056755D01*
X0104245Y0055841D01*
X0103750Y0054646D01*
X0103750Y0053354D01*
X0104245Y0052159D01*
X0104900Y0051504D01*
X0104900Y0049870D01*
X0097280Y0042250D01*
X0096354Y0042250D01*
X0095159Y0041755D01*
X0094245Y0040841D01*
X0093750Y0039646D01*
X0093750Y0038354D01*
X0094245Y0037159D01*
X0095159Y0036245D01*
X0096354Y0035750D01*
X0097646Y0035750D01*
X0095879Y0035946D02*
X0031135Y0035946D01*
X0030137Y0036945D02*
X0094459Y0036945D01*
X0093920Y0037943D02*
X0029160Y0037943D01*
X0028364Y0038942D02*
X0093750Y0038942D01*
X0093872Y0039940D02*
X0027568Y0039940D01*
X0026771Y0040939D02*
X0094343Y0040939D01*
X0095599Y0041937D02*
X0025975Y0041937D01*
X0025179Y0042936D02*
X0097966Y0042936D01*
X0098965Y0043934D02*
X0024382Y0043934D01*
X0023586Y0044933D02*
X0099963Y0044933D01*
X0100962Y0045932D02*
X0022790Y0045932D01*
X0021994Y0046930D02*
X0101960Y0046930D01*
X0102959Y0047929D02*
X0021299Y0047929D01*
X0020671Y0048927D02*
X0103957Y0048927D01*
X0104900Y0049926D02*
X0020044Y0049926D01*
X0019416Y0050924D02*
X0104900Y0050924D01*
X0104481Y0051923D02*
X0018789Y0051923D01*
X0018162Y0052921D02*
X0103929Y0052921D01*
X0103750Y0053920D02*
X0017534Y0053920D01*
X0016907Y0054918D02*
X0103863Y0054918D01*
X0104320Y0055917D02*
X0016279Y0055917D01*
X0015652Y0056915D02*
X0105545Y0056915D01*
X0108455Y0056915D02*
X0129900Y0056915D01*
X0129900Y0055917D02*
X0109680Y0055917D01*
X0110137Y0054918D02*
X0129900Y0054918D01*
X0129900Y0053920D02*
X0110250Y0053920D01*
X0110071Y0052921D02*
X0129900Y0052921D01*
X0129900Y0051923D02*
X0109519Y0051923D01*
X0109100Y0050924D02*
X0129900Y0050924D01*
X0129900Y0049926D02*
X0109100Y0049926D01*
X0109100Y0048927D02*
X0129900Y0048927D01*
X0129900Y0047929D02*
X0108898Y0047929D01*
X0107900Y0046930D02*
X0130100Y0046930D01*
X0131099Y0045932D02*
X0106901Y0045932D01*
X0105903Y0044933D02*
X0132097Y0044933D01*
X0133096Y0043934D02*
X0104904Y0043934D01*
X0103906Y0042936D02*
X0133750Y0042936D01*
X0133922Y0041937D02*
X0102907Y0041937D01*
X0101909Y0040939D02*
X0134465Y0040939D01*
X0135894Y0039940D02*
X0100910Y0039940D01*
X0100250Y0038942D02*
X0154600Y0038942D01*
X0154600Y0039940D02*
X0138106Y0039940D01*
X0139535Y0040939D02*
X0154600Y0040939D01*
X0154958Y0041937D02*
X0140078Y0041937D01*
X0140250Y0042936D02*
X0155371Y0042936D01*
X0156298Y0043934D02*
X0140904Y0043934D01*
X0141903Y0044933D02*
X0157798Y0044933D01*
X0156432Y0045932D02*
X0142901Y0045932D01*
X0143900Y0046930D02*
X0155433Y0046930D01*
X0155013Y0047929D02*
X0144898Y0047929D01*
X0145897Y0048927D02*
X0154600Y0048927D01*
X0154600Y0049926D02*
X0146895Y0049926D01*
X0147894Y0050924D02*
X0154600Y0050924D01*
X0154951Y0051923D02*
X0148892Y0051923D01*
X0148064Y0062906D02*
X0155359Y0062906D01*
X0156268Y0063905D02*
X0147065Y0063905D01*
X0146067Y0064903D02*
X0157727Y0064903D01*
X0156461Y0065902D02*
X0145068Y0065902D01*
X0144070Y0066900D02*
X0155463Y0066900D01*
X0155025Y0067899D02*
X0143071Y0067899D01*
X0142073Y0068897D02*
X0154612Y0068897D01*
X0154600Y0069896D02*
X0141074Y0069896D01*
X0140076Y0070894D02*
X0154600Y0070894D01*
X0154939Y0071893D02*
X0139077Y0071893D01*
X0138079Y0072891D02*
X0155353Y0072891D01*
X0156253Y0073890D02*
X0137080Y0073890D01*
X0136081Y0074888D02*
X0157691Y0074888D01*
X0156476Y0075887D02*
X0135083Y0075887D01*
X0134084Y0076885D02*
X0155478Y0076885D01*
X0155032Y0077884D02*
X0104741Y0077884D01*
X0105043Y0078882D02*
X0154618Y0078882D01*
X0154600Y0079881D02*
X0105043Y0079881D01*
X0104960Y0080879D02*
X0154600Y0080879D01*
X0154933Y0081878D02*
X0104546Y0081878D01*
X0103966Y0082876D02*
X0114635Y0082876D01*
X0114848Y0082788D02*
X0112386Y0083808D01*
X0110501Y0085693D01*
X0109481Y0088155D01*
X0109481Y0090821D01*
X0110501Y0093283D01*
X0112386Y0095168D01*
X0114848Y0096188D01*
X0117514Y0096188D01*
X0119976Y0095168D01*
X0121861Y0093283D01*
X0122881Y0090821D01*
X0122881Y0088155D01*
X0121861Y0085693D01*
X0119976Y0083808D01*
X0117514Y0082788D01*
X0114848Y0082788D01*
X0112319Y0083875D02*
X0103043Y0083875D01*
X0103043Y0084873D02*
X0111321Y0084873D01*
X0110427Y0085872D02*
X0103043Y0085872D01*
X0103043Y0086870D02*
X0110013Y0086870D01*
X0109600Y0087869D02*
X0103043Y0087869D01*
X0103043Y0088868D02*
X0109481Y0088868D01*
X0109481Y0089866D02*
X0103043Y0089866D01*
X0103043Y0090865D02*
X0109499Y0090865D01*
X0109913Y0091863D02*
X0103043Y0091863D01*
X0103043Y0092862D02*
X0110326Y0092862D01*
X0111078Y0093860D02*
X0103043Y0093860D01*
X0103043Y0094859D02*
X0112076Y0094859D01*
X0114049Y0095857D02*
X0103043Y0095857D01*
X0103043Y0096856D02*
X0154600Y0096856D01*
X0154600Y0097854D02*
X0103043Y0097854D01*
X0103043Y0098853D02*
X0154600Y0098853D01*
X0154600Y0099851D02*
X0103043Y0099851D01*
X0103525Y0100850D02*
X0154600Y0100850D01*
X0154600Y0101848D02*
X0104523Y0101848D01*
X0105522Y0102847D02*
X0154600Y0102847D01*
X0154600Y0103845D02*
X0106520Y0103845D01*
X0107519Y0104844D02*
X0155040Y0104844D01*
X0158192Y0108838D02*
X0132610Y0108838D01*
X0132198Y0107839D02*
X0159191Y0107839D01*
X0160189Y0106841D02*
X0131464Y0106841D01*
X0130096Y0105842D02*
X0161188Y0105842D01*
X0164960Y0104844D02*
X0165040Y0104844D01*
X0163134Y0109836D02*
X0180400Y0109836D01*
X0180400Y0108838D02*
X0176632Y0108838D01*
X0177631Y0107839D02*
X0180400Y0107839D01*
X0180400Y0106841D02*
X0178629Y0106841D01*
X0179600Y0105842D02*
X0180400Y0105842D01*
X0180400Y0104844D02*
X0179600Y0104844D01*
X0179600Y0103845D02*
X0180400Y0103845D01*
X0180397Y0102847D02*
X0179600Y0102847D01*
X0175400Y0102847D02*
X0175400Y0102847D01*
X0175400Y0103845D02*
X0175400Y0103845D01*
X0175400Y0104130D02*
X0175400Y0104130D01*
X0175400Y0101848D02*
X0175400Y0101848D01*
X0175400Y0100850D02*
X0175400Y0100850D01*
X0175400Y0099851D02*
X0175400Y0099851D01*
X0175400Y0098853D02*
X0175400Y0098853D01*
X0175400Y0097854D02*
X0175400Y0097854D01*
X0175400Y0096856D02*
X0175400Y0096856D01*
X0175400Y0095857D02*
X0175400Y0095857D01*
X0175400Y0094859D02*
X0174663Y0094859D01*
X0175400Y0093860D02*
X0173194Y0093860D01*
X0174101Y0092862D02*
X0175400Y0092862D01*
X0175400Y0091863D02*
X0174652Y0091863D01*
X0174925Y0090865D02*
X0175400Y0090865D01*
X0175400Y0089866D02*
X0170500Y0089866D01*
X0174526Y0087869D02*
X0176661Y0087869D01*
X0175663Y0088868D02*
X0174883Y0088868D01*
X0173907Y0086870D02*
X0177660Y0086870D01*
X0178658Y0085872D02*
X0172825Y0085872D01*
X0172345Y0084873D02*
X0179000Y0084873D01*
X0179178Y0083875D02*
X0173762Y0083875D01*
X0174653Y0082876D02*
X0179674Y0082876D01*
X0180891Y0081878D02*
X0175067Y0081878D01*
X0175400Y0080879D02*
X0185400Y0080879D01*
X0185400Y0079881D02*
X0175400Y0079881D01*
X0175382Y0078882D02*
X0185400Y0078882D01*
X0185400Y0077884D02*
X0174968Y0077884D01*
X0174522Y0076885D02*
X0185400Y0076885D01*
X0185400Y0075887D02*
X0173524Y0075887D01*
X0172309Y0074888D02*
X0185400Y0074888D01*
X0185400Y0073890D02*
X0173747Y0073890D01*
X0174647Y0072891D02*
X0185400Y0072891D01*
X0185400Y0071893D02*
X0175061Y0071893D01*
X0175400Y0070894D02*
X0185400Y0070894D01*
X0185400Y0069896D02*
X0175400Y0069896D01*
X0175388Y0068897D02*
X0185400Y0068897D01*
X0185400Y0067899D02*
X0174975Y0067899D01*
X0174537Y0066900D02*
X0185400Y0066900D01*
X0185400Y0065902D02*
X0173538Y0065902D01*
X0172273Y0064903D02*
X0185400Y0064903D01*
X0185400Y0063905D02*
X0173732Y0063905D01*
X0174641Y0062906D02*
X0185400Y0062906D01*
X0185400Y0061908D02*
X0175055Y0061908D01*
X0175400Y0060909D02*
X0185400Y0060909D01*
X0185400Y0059911D02*
X0175400Y0059911D01*
X0175394Y0058912D02*
X0185400Y0058912D01*
X0184944Y0057914D02*
X0174981Y0057914D01*
X0174552Y0056915D02*
X0183945Y0056915D01*
X0181603Y0055917D02*
X0173553Y0055917D01*
X0172237Y0054918D02*
X0179968Y0054918D01*
X0179300Y0053920D02*
X0173717Y0053920D01*
X0174635Y0052921D02*
X0179000Y0052921D01*
X0179000Y0051923D02*
X0175049Y0051923D01*
X0175400Y0050924D02*
X0179364Y0050924D01*
X0180125Y0049926D02*
X0175400Y0049926D01*
X0175400Y0048927D02*
X0220957Y0048927D01*
X0219959Y0047929D02*
X0174987Y0047929D01*
X0175042Y0041937D02*
X0272593Y0041937D01*
X0273591Y0040939D02*
X0175400Y0040939D01*
X0175400Y0039940D02*
X0274590Y0039940D01*
X0275588Y0038942D02*
X0175400Y0038942D01*
X0174993Y0037943D02*
X0195494Y0037943D01*
X0199506Y0037943D02*
X0276587Y0037943D01*
X0277585Y0036945D02*
X0200483Y0036945D01*
X0200896Y0035946D02*
X0278584Y0035946D01*
X0279582Y0034948D02*
X0201000Y0034948D01*
X0200853Y0033949D02*
X0280581Y0033949D01*
X0281579Y0032951D02*
X0200401Y0032951D01*
X0199288Y0031952D02*
X0282578Y0031952D01*
X0283576Y0030954D02*
X0175400Y0030954D01*
X0175400Y0029955D02*
X0284575Y0029955D01*
X0285573Y0028957D02*
X0175400Y0028957D01*
X0174999Y0027958D02*
X0286572Y0027958D01*
X0287570Y0026960D02*
X0174586Y0026960D01*
X0173598Y0025961D02*
X0288569Y0025961D01*
X0289567Y0024963D02*
X0172130Y0024963D01*
X0173672Y0023964D02*
X0290566Y0023964D01*
X0291564Y0022966D02*
X0174616Y0022966D01*
X0175030Y0021967D02*
X0292563Y0021967D01*
X0293561Y0020969D02*
X0175400Y0020969D01*
X0175400Y0019970D02*
X0294560Y0019970D01*
X0295558Y0018972D02*
X0175400Y0018972D01*
X0175005Y0017973D02*
X0296557Y0017973D01*
X0297555Y0016975D02*
X0174592Y0016975D01*
X0173613Y0015976D02*
X0298554Y0015976D01*
X0299552Y0014978D02*
X0172094Y0014978D01*
X0173658Y0013979D02*
X0300551Y0013979D01*
X0301549Y0012981D02*
X0174610Y0012981D01*
X0175024Y0011982D02*
X0324976Y0011982D01*
X0324600Y0010984D02*
X0175400Y0010984D01*
X0175400Y0009985D02*
X0324600Y0009985D01*
X0324600Y0008987D02*
X0175400Y0008987D01*
X0175012Y0007988D02*
X0324988Y0007988D01*
X0325402Y0006990D02*
X0174598Y0006990D01*
X0173628Y0005991D02*
X0326372Y0005991D01*
X0327978Y0004993D02*
X0172022Y0004993D01*
X0167978Y0004993D02*
X0162022Y0004993D01*
X0163628Y0005991D02*
X0166372Y0005991D01*
X0165402Y0006990D02*
X0164598Y0006990D01*
X0157978Y0004993D02*
X0084137Y0004993D01*
X0079852Y0005991D02*
X0156372Y0005991D01*
X0155402Y0006990D02*
X0076998Y0006990D01*
X0074145Y0007988D02*
X0154988Y0007988D01*
X0154600Y0008987D02*
X0071291Y0008987D01*
X0068470Y0009985D02*
X0154600Y0009985D01*
X0154600Y0010984D02*
X0066396Y0010984D01*
X0064323Y0011982D02*
X0154976Y0011982D01*
X0155390Y0012981D02*
X0062249Y0012981D01*
X0060176Y0013979D02*
X0156342Y0013979D01*
X0157906Y0014978D02*
X0058103Y0014978D01*
X0056399Y0015976D02*
X0156387Y0015976D01*
X0155408Y0016975D02*
X0124455Y0016975D01*
X0124596Y0017069D02*
X0125136Y0017609D01*
X0125560Y0018243D01*
X0125852Y0018948D01*
X0126001Y0019697D01*
X0126001Y0019791D01*
X0122413Y0019791D01*
X0122413Y0016204D01*
X0122508Y0016204D01*
X0123256Y0016353D01*
X0123961Y0016645D01*
X0124596Y0017069D01*
X0125379Y0017973D02*
X0154995Y0017973D01*
X0154600Y0018972D02*
X0125856Y0018972D01*
X0126001Y0020366D02*
X0126001Y0020460D01*
X0125852Y0021209D01*
X0125560Y0021914D01*
X0125136Y0022549D01*
X0124596Y0023088D01*
X0123961Y0023513D01*
X0123256Y0023805D01*
X0122508Y0023954D01*
X0122413Y0023954D01*
X0122413Y0020366D01*
X0121839Y0020366D01*
X0121839Y0023954D01*
X0121744Y0023954D01*
X0120996Y0023805D01*
X0120291Y0023513D01*
X0119656Y0023088D01*
X0119116Y0022549D01*
X0118692Y0021914D01*
X0118400Y0021209D01*
X0118251Y0020460D01*
X0118251Y0020366D01*
X0121838Y0020366D01*
X0121838Y0019791D01*
X0118251Y0019791D01*
X0118251Y0019697D01*
X0118400Y0018948D01*
X0118692Y0018243D01*
X0119116Y0017609D01*
X0119656Y0017069D01*
X0120291Y0016645D01*
X0120996Y0016353D01*
X0121744Y0016204D01*
X0121839Y0016204D01*
X0121839Y0019791D01*
X0122413Y0019791D01*
X0122413Y0020366D01*
X0126001Y0020366D01*
X0125900Y0020969D02*
X0154600Y0020969D01*
X0154600Y0019970D02*
X0122413Y0019970D01*
X0121838Y0019970D02*
X0050043Y0019970D01*
X0051632Y0018972D02*
X0118395Y0018972D01*
X0118873Y0017973D02*
X0053221Y0017973D01*
X0054810Y0016975D02*
X0119797Y0016975D01*
X0121839Y0016975D02*
X0122413Y0016975D01*
X0122413Y0017973D02*
X0121839Y0017973D01*
X0121839Y0018972D02*
X0122413Y0018972D01*
X0122413Y0020969D02*
X0121839Y0020969D01*
X0121839Y0021967D02*
X0122413Y0021967D01*
X0122413Y0022966D02*
X0121839Y0022966D01*
X0119533Y0022966D02*
X0045711Y0022966D01*
X0044459Y0023964D02*
X0156328Y0023964D01*
X0155384Y0022966D02*
X0124719Y0022966D01*
X0125524Y0021967D02*
X0154970Y0021967D01*
X0157870Y0024963D02*
X0043207Y0024963D01*
X0041955Y0025961D02*
X0118532Y0025961D01*
X0117851Y0026960D02*
X0040703Y0026960D01*
X0039451Y0027958D02*
X0117851Y0027958D01*
X0118728Y0021967D02*
X0046963Y0021967D01*
X0048454Y0020969D02*
X0118352Y0020969D01*
X0125720Y0025961D02*
X0156402Y0025961D01*
X0155414Y0026960D02*
X0126401Y0026960D01*
X0126401Y0027958D02*
X0155001Y0027958D01*
X0154600Y0028957D02*
X0126401Y0028957D01*
X0126401Y0029955D02*
X0154600Y0029955D01*
X0154600Y0030954D02*
X0126401Y0030954D01*
X0126401Y0031952D02*
X0154964Y0031952D01*
X0155377Y0032951D02*
X0126401Y0032951D01*
X0125652Y0033949D02*
X0156313Y0033949D01*
X0155421Y0036945D02*
X0099541Y0036945D01*
X0100080Y0037943D02*
X0155007Y0037943D01*
X0175036Y0031952D02*
X0195712Y0031952D01*
X0220906Y0042936D02*
X0271594Y0042936D01*
X0270596Y0043934D02*
X0221904Y0043934D01*
X0222903Y0044933D02*
X0269597Y0044933D01*
X0268599Y0045932D02*
X0223901Y0045932D01*
X0224900Y0046930D02*
X0267600Y0046930D01*
X0266602Y0047929D02*
X0225898Y0047929D01*
X0226897Y0048927D02*
X0265603Y0048927D01*
X0264605Y0049926D02*
X0227895Y0049926D01*
X0228894Y0050924D02*
X0263606Y0050924D01*
X0262608Y0051923D02*
X0229892Y0051923D01*
X0230891Y0052921D02*
X0261609Y0052921D01*
X0260611Y0053920D02*
X0231889Y0053920D01*
X0232888Y0054918D02*
X0259612Y0054918D01*
X0258614Y0055917D02*
X0233886Y0055917D01*
X0234885Y0056915D02*
X0257900Y0056915D01*
X0257900Y0057914D02*
X0235883Y0057914D01*
X0236882Y0058912D02*
X0257900Y0058912D01*
X0257900Y0059911D02*
X0237881Y0059911D01*
X0238879Y0060909D02*
X0257900Y0060909D01*
X0257900Y0061908D02*
X0239878Y0061908D01*
X0240876Y0062906D02*
X0257900Y0062906D01*
X0257900Y0063905D02*
X0241875Y0063905D01*
X0242873Y0064903D02*
X0257900Y0064903D01*
X0257900Y0065902D02*
X0243872Y0065902D01*
X0244870Y0066900D02*
X0257900Y0066900D01*
X0257900Y0067899D02*
X0245869Y0067899D01*
X0246867Y0068897D02*
X0257900Y0068897D01*
X0257900Y0069896D02*
X0247866Y0069896D01*
X0248864Y0070894D02*
X0257900Y0070894D01*
X0257900Y0071893D02*
X0249863Y0071893D01*
X0250861Y0072891D02*
X0257900Y0072891D01*
X0257900Y0073890D02*
X0251860Y0073890D01*
X0252858Y0074888D02*
X0257900Y0074888D01*
X0257900Y0075887D02*
X0253857Y0075887D01*
X0254855Y0076885D02*
X0257900Y0076885D01*
X0257900Y0077884D02*
X0255854Y0077884D01*
X0255870Y0077900D02*
X0255870Y0077900D01*
X0256852Y0078882D02*
X0257900Y0078882D01*
X0257900Y0079881D02*
X0257100Y0079881D01*
X0257100Y0080879D02*
X0257900Y0080879D01*
X0257900Y0081878D02*
X0257100Y0081878D01*
X0257100Y0082876D02*
X0257900Y0082876D01*
X0257900Y0083875D02*
X0257100Y0083875D01*
X0257100Y0084873D02*
X0257900Y0084873D01*
X0257900Y0085872D02*
X0257100Y0085872D01*
X0257100Y0086870D02*
X0257900Y0086870D01*
X0257900Y0087869D02*
X0257100Y0087869D01*
X0257100Y0088868D02*
X0257900Y0088868D01*
X0257900Y0089866D02*
X0257100Y0089866D01*
X0257100Y0090865D02*
X0257900Y0090865D01*
X0257900Y0091863D02*
X0257100Y0091863D01*
X0257100Y0092862D02*
X0257900Y0092862D01*
X0257900Y0093860D02*
X0257100Y0093860D01*
X0257100Y0094859D02*
X0257900Y0094859D01*
X0257900Y0095857D02*
X0257100Y0095857D01*
X0257100Y0096856D02*
X0258886Y0096856D01*
X0259884Y0097854D02*
X0257100Y0097854D01*
X0257100Y0098853D02*
X0260883Y0098853D01*
X0261881Y0099851D02*
X0257100Y0099851D01*
X0257100Y0100850D02*
X0262880Y0100850D01*
X0263878Y0101848D02*
X0257100Y0101848D01*
X0257100Y0102847D02*
X0264877Y0102847D01*
X0265875Y0103845D02*
X0257100Y0103845D01*
X0257100Y0104844D02*
X0262707Y0104844D01*
X0261898Y0105842D02*
X0257100Y0105842D01*
X0257311Y0106841D02*
X0261500Y0106841D01*
X0261500Y0107839D02*
X0258309Y0107839D01*
X0259308Y0108838D02*
X0261766Y0108838D01*
X0262387Y0109836D02*
X0260306Y0109836D01*
X0261305Y0110835D02*
X0263905Y0110835D01*
X0262303Y0111833D02*
X0266363Y0111833D01*
X0267362Y0112832D02*
X0263302Y0112832D01*
X0264300Y0113830D02*
X0268360Y0113830D01*
X0269359Y0114829D02*
X0265299Y0114829D01*
X0266297Y0115827D02*
X0270357Y0115827D01*
X0271356Y0116826D02*
X0267296Y0116826D01*
X0268294Y0117824D02*
X0272355Y0117824D01*
X0273353Y0118823D02*
X0269293Y0118823D01*
X0270291Y0119821D02*
X0274352Y0119821D01*
X0275350Y0120820D02*
X0271290Y0120820D01*
X0272100Y0121818D02*
X0276349Y0121818D01*
X0277347Y0122817D02*
X0272100Y0122817D01*
X0272100Y0123815D02*
X0278346Y0123815D01*
X0279344Y0124814D02*
X0272100Y0124814D01*
X0272100Y0125812D02*
X0280343Y0125812D01*
X0281341Y0126811D02*
X0272100Y0126811D01*
X0272100Y0127809D02*
X0282340Y0127809D01*
X0283338Y0128808D02*
X0272100Y0128808D01*
X0272100Y0129806D02*
X0284337Y0129806D01*
X0285335Y0130805D02*
X0272100Y0130805D01*
X0272100Y0131803D02*
X0286334Y0131803D01*
X0287332Y0132802D02*
X0272100Y0132802D01*
X0272100Y0133801D02*
X0288331Y0133801D01*
X0289329Y0134799D02*
X0272100Y0134799D01*
X0272100Y0135798D02*
X0290328Y0135798D01*
X0291326Y0136796D02*
X0272100Y0136796D01*
X0272744Y0137795D02*
X0292325Y0137795D01*
X0293323Y0138793D02*
X0273288Y0138793D01*
X0273500Y0139792D02*
X0294322Y0139792D01*
X0295320Y0140790D02*
X0273461Y0140790D01*
X0273048Y0141789D02*
X0296319Y0141789D01*
X0297263Y0142787D02*
X0272163Y0142787D01*
X0268811Y0146781D02*
X0243875Y0146781D01*
X0245229Y0147780D02*
X0297830Y0147780D01*
X0302170Y0147780D02*
X0395330Y0147780D01*
X0397460Y0148778D02*
X0311748Y0148778D01*
X0312747Y0149777D02*
X0398458Y0149777D01*
X0399457Y0150775D02*
X0313745Y0150775D01*
X0314744Y0151774D02*
X0400455Y0151774D01*
X0401454Y0152772D02*
X0315742Y0152772D01*
X0316741Y0153771D02*
X0402452Y0153771D01*
X0403451Y0154769D02*
X0317739Y0154769D01*
X0318738Y0155768D02*
X0404449Y0155768D01*
X0405448Y0156766D02*
X0323839Y0156766D01*
X0325215Y0157765D02*
X0406446Y0157765D01*
X0407300Y0158763D02*
X0325776Y0158763D01*
X0326000Y0159762D02*
X0402788Y0159762D01*
X0401932Y0160760D02*
X0325973Y0160760D01*
X0325560Y0161759D02*
X0401519Y0161759D01*
X0401500Y0162757D02*
X0324692Y0162757D01*
X0320308Y0162757D02*
X0315207Y0162757D01*
X0315467Y0163017D02*
X0314483Y0162033D01*
X0313196Y0161500D01*
X0311804Y0161500D01*
X0310517Y0162033D01*
X0309533Y0163017D01*
X0309000Y0164304D01*
X0309000Y0165696D01*
X0309533Y0166983D01*
X0310400Y0167850D01*
X0310400Y0191630D01*
X0305500Y0196530D01*
X0305500Y0194250D01*
X0306646Y0194250D01*
X0307841Y0193755D01*
X0308755Y0192841D01*
X0309250Y0191646D01*
X0309250Y0190354D01*
X0308755Y0189159D01*
X0307841Y0188245D01*
X0307250Y0188000D01*
X0307841Y0187755D01*
X0308755Y0186841D01*
X0309250Y0185646D01*
X0309250Y0184354D01*
X0308755Y0183159D01*
X0307841Y0182245D01*
X0306646Y0181750D01*
X0305500Y0181750D01*
X0305500Y0169793D01*
X0305207Y0169500D01*
X0280611Y0169500D01*
X0278250Y0167139D01*
X0278250Y0166354D01*
X0277755Y0165159D01*
X0276841Y0164245D01*
X0275646Y0163750D01*
X0274354Y0163750D01*
X0273159Y0164245D01*
X0272245Y0165159D01*
X0271750Y0166354D01*
X0271750Y0167646D01*
X0272245Y0168841D01*
X0273159Y0169755D01*
X0274354Y0170250D01*
X0274500Y0170250D01*
X0274500Y0181750D01*
X0273354Y0181750D01*
X0272159Y0182245D01*
X0271245Y0183159D01*
X0270750Y0184354D01*
X0270750Y0185646D01*
X0270936Y0186095D01*
X0261630Y0195400D01*
X0216630Y0195400D01*
X0215764Y0196266D01*
X0216000Y0195696D01*
X0216000Y0194304D01*
X0215467Y0193017D01*
X0215457Y0193008D01*
X0217465Y0191000D01*
X0218196Y0191000D01*
X0219483Y0190467D01*
X0220467Y0189483D01*
X0221000Y0188196D01*
X0221000Y0186804D01*
X0220467Y0185517D01*
X0219483Y0184533D01*
X0218196Y0184000D01*
X0216804Y0184000D01*
X0215517Y0184533D01*
X0214533Y0185517D01*
X0214000Y0186804D01*
X0214000Y0187535D01*
X0211112Y0190423D01*
X0211112Y0190423D01*
X0210423Y0191112D01*
X0210050Y0192013D01*
X0210050Y0192500D01*
X0209533Y0193017D01*
X0209227Y0193757D01*
X0206234Y0190764D01*
X0206804Y0191000D01*
X0208196Y0191000D01*
X0209483Y0190467D01*
X0210467Y0189483D01*
X0211000Y0188196D01*
X0211000Y0186804D01*
X0210467Y0185517D01*
X0209600Y0184650D01*
X0209600Y0183370D01*
X0210870Y0182100D01*
X0212100Y0180870D01*
X0212100Y0179600D01*
X0258370Y0179600D01*
X0259600Y0178370D01*
X0267100Y0170870D01*
X0267100Y0170350D01*
X0267967Y0169483D01*
X0268500Y0168196D01*
X0268500Y0166804D01*
X0267967Y0165517D01*
X0266983Y0164533D01*
X0265696Y0164000D01*
X0264304Y0164000D01*
X0263017Y0164533D01*
X0262033Y0165517D01*
X0261500Y0166804D01*
X0261500Y0168196D01*
X0262033Y0169483D01*
X0262290Y0169740D01*
X0256630Y0175400D01*
X0239550Y0175400D01*
X0240467Y0174483D01*
X0241000Y0173196D01*
X0241000Y0171804D01*
X0240467Y0170517D01*
X0239483Y0169533D01*
X0238196Y0169000D01*
X0236804Y0169000D01*
X0235517Y0169533D01*
X0234533Y0170517D01*
X0234000Y0171804D01*
X0234000Y0172700D01*
X0221000Y0172700D01*
X0221000Y0171804D01*
X0220467Y0170517D01*
X0219483Y0169533D01*
X0218196Y0169000D01*
X0216804Y0169000D01*
X0215517Y0169533D01*
X0214533Y0170517D01*
X0214000Y0171804D01*
X0214000Y0173196D01*
X0214533Y0174483D01*
X0215450Y0175400D01*
X0213370Y0175400D01*
X0186000Y0148030D01*
X0186000Y0146804D01*
X0185467Y0145517D01*
X0184483Y0144533D01*
X0183196Y0144000D01*
X0181804Y0144000D01*
X0180517Y0144533D01*
X0179533Y0145517D01*
X0179000Y0146804D01*
X0179000Y0148196D01*
X0179533Y0149483D01*
X0180517Y0150467D01*
X0181804Y0151000D01*
X0183030Y0151000D01*
X0196257Y0164227D01*
X0195517Y0164533D01*
X0195000Y0165050D01*
X0194483Y0164533D01*
X0193196Y0164000D01*
X0191804Y0164000D01*
X0190517Y0164533D01*
X0189600Y0165450D01*
X0189600Y0165350D01*
X0190467Y0164483D01*
X0191000Y0163196D01*
X0191000Y0161804D01*
X0190467Y0160517D01*
X0189483Y0159533D01*
X0188196Y0159000D01*
X0186804Y0159000D01*
X0185517Y0159533D01*
X0184533Y0160517D01*
X0184000Y0161804D01*
X0184000Y0163196D01*
X0184533Y0164483D01*
X0185400Y0165350D01*
X0185400Y0175870D01*
X0196500Y0186970D01*
X0196500Y0188196D01*
X0197033Y0189483D01*
X0198017Y0190467D01*
X0199304Y0191000D01*
X0200530Y0191000D01*
X0210400Y0200870D01*
X0211630Y0202100D01*
X0215870Y0202100D01*
X0218370Y0199600D01*
X0232950Y0199600D01*
X0232033Y0200517D01*
X0231500Y0201804D01*
X0231500Y0203196D01*
X0232033Y0204483D01*
X0233017Y0205467D01*
X0234304Y0206000D01*
X0235696Y0206000D01*
X0236983Y0205467D01*
X0237850Y0204600D01*
X0264370Y0204600D01*
X0273720Y0195250D01*
X0274500Y0195250D01*
X0274500Y0200207D01*
X0274793Y0200500D01*
X0286750Y0200500D01*
X0286750Y0201646D01*
X0287245Y0202841D01*
X0288159Y0203755D01*
X0289354Y0204250D01*
X0290646Y0204250D01*
X0291841Y0203755D01*
X0292496Y0203100D01*
X0304870Y0203100D01*
X0313370Y0194600D01*
X0314600Y0193370D01*
X0314600Y0167850D01*
X0315467Y0166983D01*
X0316000Y0165696D01*
X0316000Y0164304D01*
X0315467Y0163017D01*
X0315773Y0163756D02*
X0375774Y0163756D01*
X0374776Y0164754D02*
X0316000Y0164754D01*
X0315977Y0165753D02*
X0373777Y0165753D01*
X0372779Y0166751D02*
X0315563Y0166751D01*
X0314700Y0167750D02*
X0371780Y0167750D01*
X0370782Y0168748D02*
X0314600Y0168748D01*
X0314600Y0169747D02*
X0370303Y0169747D01*
X0369438Y0170745D02*
X0314600Y0170745D01*
X0314600Y0171744D02*
X0369025Y0171744D01*
X0369000Y0172742D02*
X0314600Y0172742D01*
X0314600Y0173741D02*
X0342714Y0173741D01*
X0343980Y0175738D02*
X0356020Y0175738D01*
X0355983Y0175726D02*
X0353013Y0175182D01*
X0350000Y0175000D01*
X0346987Y0175182D01*
X0344017Y0175726D01*
X0341135Y0176625D01*
X0338382Y0177864D01*
X0335798Y0179425D01*
X0333422Y0181287D01*
X0331287Y0183422D01*
X0329425Y0185798D01*
X0327864Y0188382D01*
X0326625Y0191135D01*
X0325726Y0194017D01*
X0325182Y0196987D01*
X0325000Y0200000D01*
X0325000Y0218300D01*
X0375000Y0218300D01*
X0375000Y0200000D01*
X0374818Y0196987D01*
X0374274Y0194017D01*
X0373375Y0191135D01*
X0372136Y0188382D01*
X0370575Y0185798D01*
X0368713Y0183422D01*
X0366578Y0181287D01*
X0364202Y0179425D01*
X0361618Y0177864D01*
X0358865Y0176625D01*
X0355983Y0175726D01*
X0357286Y0173741D02*
X0369226Y0173741D01*
X0369790Y0174739D02*
X0360210Y0174739D01*
X0359114Y0176737D02*
X0340886Y0176737D01*
X0339790Y0174739D02*
X0314600Y0174739D01*
X0314600Y0175738D02*
X0337646Y0175738D01*
X0335994Y0176737D02*
X0314600Y0176737D01*
X0314600Y0177735D02*
X0334342Y0177735D01*
X0333114Y0178734D02*
X0314600Y0178734D01*
X0314600Y0179732D02*
X0331840Y0179732D01*
X0330867Y0180731D02*
X0314600Y0180731D01*
X0314600Y0181729D02*
X0329819Y0181729D01*
X0329036Y0182728D02*
X0314600Y0182728D01*
X0314600Y0183726D02*
X0328254Y0183726D01*
X0327472Y0184725D02*
X0314600Y0184725D01*
X0314600Y0185723D02*
X0326900Y0185723D01*
X0326198Y0186722D02*
X0314600Y0186722D01*
X0314600Y0187720D02*
X0325693Y0187720D01*
X0325299Y0188719D02*
X0314600Y0188719D01*
X0314600Y0189717D02*
X0324762Y0189717D01*
X0324401Y0190716D02*
X0314600Y0190716D01*
X0314600Y0191714D02*
X0324140Y0191714D01*
X0323743Y0192713D02*
X0314600Y0192713D01*
X0314259Y0193711D02*
X0323517Y0193711D01*
X0323363Y0194710D02*
X0313260Y0194710D01*
X0312262Y0195708D02*
X0323180Y0195708D01*
X0322995Y0196707D02*
X0311263Y0196707D01*
X0310265Y0197705D02*
X0322935Y0197705D01*
X0322874Y0198704D02*
X0309266Y0198704D01*
X0308268Y0199702D02*
X0322800Y0199702D01*
X0322754Y0200701D02*
X0307269Y0200701D01*
X0306271Y0201699D02*
X0322800Y0201699D01*
X0322800Y0202698D02*
X0305272Y0202698D01*
X0305500Y0195708D02*
X0306322Y0195708D01*
X0305500Y0194710D02*
X0307320Y0194710D01*
X0307885Y0193711D02*
X0308319Y0193711D01*
X0308808Y0192713D02*
X0309317Y0192713D01*
X0309222Y0191714D02*
X0310316Y0191714D01*
X0310400Y0190716D02*
X0309250Y0190716D01*
X0308986Y0189717D02*
X0310400Y0189717D01*
X0310400Y0188719D02*
X0308315Y0188719D01*
X0307876Y0187720D02*
X0310400Y0187720D01*
X0310400Y0186722D02*
X0308805Y0186722D01*
X0309218Y0185723D02*
X0310400Y0185723D01*
X0310400Y0184725D02*
X0309250Y0184725D01*
X0308990Y0183726D02*
X0310400Y0183726D01*
X0310400Y0182728D02*
X0308324Y0182728D01*
X0310400Y0181729D02*
X0305500Y0181729D01*
X0305500Y0180731D02*
X0310400Y0180731D01*
X0310400Y0179732D02*
X0305500Y0179732D01*
X0305500Y0178734D02*
X0310400Y0178734D01*
X0310400Y0177735D02*
X0305500Y0177735D01*
X0305500Y0176737D02*
X0310400Y0176737D01*
X0310400Y0175738D02*
X0305500Y0175738D01*
X0305500Y0174739D02*
X0310400Y0174739D01*
X0310400Y0173741D02*
X0305500Y0173741D01*
X0305500Y0172742D02*
X0310400Y0172742D01*
X0310400Y0171744D02*
X0305500Y0171744D01*
X0305500Y0170745D02*
X0310400Y0170745D01*
X0310400Y0169747D02*
X0305454Y0169747D01*
X0309437Y0166751D02*
X0278250Y0166751D01*
X0278001Y0165753D02*
X0309023Y0165753D01*
X0309000Y0164754D02*
X0277351Y0164754D01*
X0275661Y0163756D02*
X0309227Y0163756D01*
X0309793Y0162757D02*
X0200727Y0162757D01*
X0199729Y0161759D02*
X0311179Y0161759D01*
X0313821Y0161759D02*
X0318789Y0161759D01*
X0317790Y0160760D02*
X0198730Y0160760D01*
X0197732Y0159762D02*
X0316792Y0159762D01*
X0315793Y0158763D02*
X0196733Y0158763D01*
X0195735Y0157765D02*
X0314795Y0157765D01*
X0313796Y0156766D02*
X0194736Y0156766D01*
X0193738Y0155768D02*
X0312798Y0155768D01*
X0311799Y0154769D02*
X0192739Y0154769D01*
X0191741Y0153771D02*
X0310801Y0153771D01*
X0309802Y0152772D02*
X0244677Y0152772D01*
X0240322Y0152772D02*
X0190742Y0152772D01*
X0189744Y0151774D02*
X0239446Y0151774D01*
X0239033Y0150775D02*
X0188745Y0150775D01*
X0187747Y0149777D02*
X0239000Y0149777D01*
X0239218Y0148778D02*
X0186748Y0148778D01*
X0186000Y0147780D02*
X0239771Y0147780D01*
X0241125Y0146781D02*
X0185991Y0146781D01*
X0185577Y0145783D02*
X0196279Y0145783D01*
X0194834Y0144784D02*
X0184734Y0144784D01*
X0180266Y0144784D02*
X0146752Y0144784D01*
X0145754Y0143786D02*
X0194244Y0143786D01*
X0194000Y0142787D02*
X0162163Y0142787D01*
X0163048Y0141789D02*
X0194006Y0141789D01*
X0193703Y0140790D02*
X0194420Y0140790D01*
X0195158Y0139792D02*
X0195259Y0139792D01*
X0191297Y0140790D02*
X0163461Y0140790D01*
X0163500Y0139792D02*
X0189842Y0139792D01*
X0189247Y0138793D02*
X0163288Y0138793D01*
X0162744Y0137795D02*
X0170345Y0137795D01*
X0169456Y0136796D02*
X0162100Y0136796D01*
X0162100Y0135798D02*
X0169042Y0135798D01*
X0169000Y0134799D02*
X0162100Y0134799D01*
X0162100Y0133801D02*
X0169208Y0133801D01*
X0169748Y0132802D02*
X0162100Y0132802D01*
X0162100Y0131803D02*
X0171071Y0131803D01*
X0173725Y0130805D02*
X0162100Y0130805D01*
X0162100Y0129806D02*
X0174724Y0129806D01*
X0175722Y0128808D02*
X0162100Y0128808D01*
X0162100Y0127809D02*
X0176721Y0127809D01*
X0177719Y0126811D02*
X0162100Y0126811D01*
X0162100Y0125812D02*
X0178718Y0125812D01*
X0179716Y0124814D02*
X0162100Y0124814D01*
X0162100Y0123815D02*
X0180400Y0123815D01*
X0180400Y0122817D02*
X0162100Y0122817D01*
X0162100Y0121818D02*
X0180400Y0121818D01*
X0180400Y0120820D02*
X0162100Y0120820D01*
X0162100Y0119821D02*
X0180400Y0119821D01*
X0180400Y0118823D02*
X0162100Y0118823D01*
X0162100Y0117824D02*
X0180400Y0117824D01*
X0180400Y0116826D02*
X0162100Y0116826D01*
X0162100Y0115827D02*
X0180400Y0115827D01*
X0180400Y0114829D02*
X0162100Y0114829D01*
X0162100Y0113830D02*
X0180400Y0113830D01*
X0180400Y0112832D02*
X0162100Y0112832D01*
X0162100Y0111833D02*
X0180400Y0111833D01*
X0180400Y0110835D02*
X0162135Y0110835D01*
X0157900Y0110835D02*
X0132745Y0110835D01*
X0132495Y0111833D02*
X0157900Y0111833D01*
X0157900Y0112832D02*
X0131982Y0112832D01*
X0131103Y0113830D02*
X0134160Y0113830D01*
X0135840Y0113830D02*
X0157900Y0113830D01*
X0157900Y0114829D02*
X0137425Y0114829D01*
X0138032Y0115827D02*
X0157900Y0115827D01*
X0157900Y0116826D02*
X0138250Y0116826D01*
X0138176Y0117824D02*
X0157900Y0117824D01*
X0157900Y0118823D02*
X0137763Y0118823D01*
X0136681Y0119821D02*
X0157900Y0119821D01*
X0157900Y0120820D02*
X0134150Y0120820D01*
X0134100Y0120870D02*
X0134100Y0120870D01*
X0133151Y0121818D02*
X0157900Y0121818D01*
X0157900Y0122817D02*
X0132454Y0122817D01*
X0131531Y0123815D02*
X0157900Y0123815D01*
X0157900Y0124814D02*
X0129959Y0124814D01*
X0131316Y0125812D02*
X0157900Y0125812D01*
X0157900Y0126811D02*
X0132314Y0126811D01*
X0132778Y0127809D02*
X0157900Y0127809D01*
X0157900Y0130805D02*
X0133192Y0130805D01*
X0133771Y0131803D02*
X0157900Y0131803D01*
X0157900Y0132802D02*
X0134770Y0132802D01*
X0135768Y0133801D02*
X0157900Y0133801D01*
X0157900Y0134799D02*
X0136767Y0134799D01*
X0137766Y0135798D02*
X0157900Y0135798D01*
X0157900Y0136796D02*
X0138764Y0136796D01*
X0139763Y0137795D02*
X0157256Y0137795D01*
X0156712Y0138793D02*
X0140761Y0138793D01*
X0141760Y0139792D02*
X0156500Y0139792D01*
X0156539Y0140790D02*
X0142758Y0140790D01*
X0143757Y0141789D02*
X0156952Y0141789D01*
X0157837Y0142787D02*
X0144755Y0142787D01*
X0147751Y0145783D02*
X0179423Y0145783D01*
X0179009Y0146781D02*
X0148749Y0146781D01*
X0149748Y0147780D02*
X0179000Y0147780D01*
X0179241Y0148778D02*
X0150746Y0148778D01*
X0151745Y0149777D02*
X0179827Y0149777D01*
X0181261Y0150775D02*
X0152743Y0150775D01*
X0153742Y0151774D02*
X0183804Y0151774D01*
X0184802Y0152772D02*
X0154740Y0152772D01*
X0155739Y0153771D02*
X0185801Y0153771D01*
X0186799Y0154769D02*
X0156737Y0154769D01*
X0157736Y0155768D02*
X0187798Y0155768D01*
X0188796Y0156766D02*
X0158734Y0156766D01*
X0159733Y0157765D02*
X0189795Y0157765D01*
X0190793Y0158763D02*
X0160731Y0158763D01*
X0161730Y0159762D02*
X0185288Y0159762D01*
X0184432Y0160760D02*
X0162728Y0160760D01*
X0163727Y0161759D02*
X0184019Y0161759D01*
X0184000Y0162757D02*
X0164725Y0162757D01*
X0165724Y0163756D02*
X0184232Y0163756D01*
X0184805Y0164754D02*
X0166722Y0164754D01*
X0167721Y0165753D02*
X0185400Y0165753D01*
X0185400Y0166751D02*
X0168719Y0166751D01*
X0169718Y0167750D02*
X0185400Y0167750D01*
X0185400Y0168748D02*
X0170716Y0168748D01*
X0171715Y0169747D02*
X0185400Y0169747D01*
X0185400Y0170745D02*
X0172713Y0170745D01*
X0173712Y0171744D02*
X0185400Y0171744D01*
X0185400Y0172742D02*
X0174710Y0172742D01*
X0175709Y0173741D02*
X0185400Y0173741D01*
X0185400Y0174739D02*
X0176707Y0174739D01*
X0177706Y0175738D02*
X0185400Y0175738D01*
X0186267Y0176737D02*
X0178704Y0176737D01*
X0179703Y0177735D02*
X0187265Y0177735D01*
X0188264Y0178734D02*
X0180701Y0178734D01*
X0181700Y0179732D02*
X0189262Y0179732D01*
X0190261Y0180731D02*
X0182699Y0180731D01*
X0183697Y0181729D02*
X0191259Y0181729D01*
X0192258Y0182728D02*
X0184696Y0182728D01*
X0185694Y0183726D02*
X0193256Y0183726D01*
X0194255Y0184725D02*
X0186693Y0184725D01*
X0187691Y0185723D02*
X0195253Y0185723D01*
X0196252Y0186722D02*
X0188690Y0186722D01*
X0189688Y0187720D02*
X0196500Y0187720D01*
X0196716Y0188719D02*
X0190687Y0188719D01*
X0191685Y0189717D02*
X0197267Y0189717D01*
X0198617Y0190716D02*
X0192684Y0190716D01*
X0193682Y0191714D02*
X0201244Y0191714D01*
X0202243Y0192713D02*
X0194681Y0192713D01*
X0195679Y0193711D02*
X0203241Y0193711D01*
X0204240Y0194710D02*
X0196678Y0194710D01*
X0197676Y0195708D02*
X0205238Y0195708D01*
X0206237Y0196707D02*
X0198675Y0196707D01*
X0199673Y0197705D02*
X0207235Y0197705D01*
X0208234Y0198704D02*
X0200672Y0198704D01*
X0201670Y0199702D02*
X0209232Y0199702D01*
X0210231Y0200701D02*
X0202669Y0200701D01*
X0203667Y0201699D02*
X0211229Y0201699D01*
X0216271Y0201699D02*
X0231543Y0201699D01*
X0231500Y0202698D02*
X0204666Y0202698D01*
X0205664Y0203696D02*
X0231707Y0203696D01*
X0232245Y0204695D02*
X0206663Y0204695D01*
X0207661Y0205693D02*
X0233563Y0205693D01*
X0236437Y0205693D02*
X0322800Y0205693D01*
X0322800Y0204695D02*
X0237755Y0204695D01*
X0232848Y0199702D02*
X0218268Y0199702D01*
X0217269Y0200701D02*
X0231957Y0200701D01*
X0216322Y0195708D02*
X0215995Y0195708D01*
X0216000Y0194710D02*
X0262320Y0194710D01*
X0263319Y0193711D02*
X0215755Y0193711D01*
X0215752Y0192713D02*
X0264317Y0192713D01*
X0265316Y0191714D02*
X0216751Y0191714D01*
X0218883Y0190716D02*
X0266314Y0190716D01*
X0267313Y0189717D02*
X0220233Y0189717D01*
X0220784Y0188719D02*
X0268312Y0188719D01*
X0269310Y0187720D02*
X0221000Y0187720D01*
X0220966Y0186722D02*
X0270309Y0186722D01*
X0270782Y0185723D02*
X0220552Y0185723D01*
X0219674Y0184725D02*
X0270750Y0184725D01*
X0271010Y0183726D02*
X0209600Y0183726D01*
X0209674Y0184725D02*
X0215326Y0184725D01*
X0214448Y0185723D02*
X0210552Y0185723D01*
X0210966Y0186722D02*
X0214034Y0186722D01*
X0213815Y0187720D02*
X0211000Y0187720D01*
X0210784Y0188719D02*
X0212817Y0188719D01*
X0211818Y0189717D02*
X0210233Y0189717D01*
X0210820Y0190716D02*
X0208883Y0190716D01*
X0210174Y0191714D02*
X0207184Y0191714D01*
X0208183Y0192713D02*
X0209838Y0192713D01*
X0209245Y0193711D02*
X0209181Y0193711D01*
X0210242Y0182728D02*
X0271676Y0182728D01*
X0274500Y0181729D02*
X0211241Y0181729D01*
X0212100Y0180731D02*
X0274500Y0180731D01*
X0274500Y0179732D02*
X0212100Y0179732D01*
X0212709Y0174739D02*
X0214790Y0174739D01*
X0214226Y0173741D02*
X0211711Y0173741D01*
X0210712Y0172742D02*
X0214000Y0172742D01*
X0214025Y0171744D02*
X0209714Y0171744D01*
X0208715Y0170745D02*
X0214438Y0170745D01*
X0215303Y0169747D02*
X0207717Y0169747D01*
X0206718Y0168748D02*
X0261729Y0168748D01*
X0261500Y0167750D02*
X0205720Y0167750D01*
X0204721Y0166751D02*
X0261522Y0166751D01*
X0261935Y0165753D02*
X0203723Y0165753D01*
X0202724Y0164754D02*
X0262796Y0164754D01*
X0267204Y0164754D02*
X0272649Y0164754D01*
X0271999Y0165753D02*
X0268065Y0165753D01*
X0268478Y0166751D02*
X0271750Y0166751D01*
X0271793Y0167750D02*
X0268500Y0167750D01*
X0268271Y0168748D02*
X0272206Y0168748D01*
X0273151Y0169747D02*
X0267703Y0169747D01*
X0267100Y0170745D02*
X0274500Y0170745D01*
X0274500Y0171744D02*
X0266226Y0171744D01*
X0265227Y0172742D02*
X0274500Y0172742D01*
X0274500Y0173741D02*
X0264229Y0173741D01*
X0263230Y0174739D02*
X0274500Y0174739D01*
X0274500Y0175738D02*
X0262232Y0175738D01*
X0261233Y0176737D02*
X0274500Y0176737D01*
X0274500Y0177735D02*
X0260235Y0177735D01*
X0259236Y0178734D02*
X0274500Y0178734D01*
X0284000Y0179000D02*
X0284000Y0176000D01*
X0275000Y0167000D01*
X0274339Y0163756D02*
X0201726Y0163756D01*
X0195786Y0163756D02*
X0190768Y0163756D01*
X0191000Y0162757D02*
X0194787Y0162757D01*
X0193789Y0161759D02*
X0190981Y0161759D01*
X0190568Y0160760D02*
X0192790Y0160760D01*
X0191792Y0159762D02*
X0189712Y0159762D01*
X0190195Y0164754D02*
X0190296Y0164754D01*
X0194704Y0164754D02*
X0195296Y0164754D01*
X0172066Y0177735D02*
X0119600Y0177735D01*
X0119600Y0176737D02*
X0171068Y0176737D01*
X0170069Y0175738D02*
X0119600Y0175738D01*
X0119600Y0174739D02*
X0169071Y0174739D01*
X0168072Y0173741D02*
X0119600Y0173741D01*
X0120227Y0172742D02*
X0167074Y0172742D01*
X0166075Y0171744D02*
X0121226Y0171744D01*
X0122224Y0170745D02*
X0165077Y0170745D01*
X0164078Y0169747D02*
X0123223Y0169747D01*
X0124221Y0168748D02*
X0163080Y0168748D01*
X0162081Y0167750D02*
X0125220Y0167750D01*
X0126218Y0166751D02*
X0161083Y0166751D01*
X0160084Y0165753D02*
X0127217Y0165753D01*
X0128215Y0164754D02*
X0159086Y0164754D01*
X0158087Y0163756D02*
X0129214Y0163756D01*
X0130212Y0162757D02*
X0147808Y0162757D01*
X0152192Y0162757D02*
X0157089Y0162757D01*
X0156090Y0161759D02*
X0153060Y0161759D01*
X0153473Y0160760D02*
X0155092Y0160760D01*
X0154093Y0159762D02*
X0153500Y0159762D01*
X0150099Y0155768D02*
X0129702Y0155768D01*
X0128704Y0156766D02*
X0148661Y0156766D01*
X0147285Y0157765D02*
X0127705Y0157765D01*
X0128267Y0158763D02*
X0126707Y0158763D01*
X0127268Y0159762D02*
X0125708Y0159762D01*
X0126270Y0160760D02*
X0124710Y0160760D01*
X0125271Y0161759D02*
X0123711Y0161759D01*
X0124273Y0162757D02*
X0122712Y0162757D01*
X0123274Y0163756D02*
X0121714Y0163756D01*
X0122276Y0164754D02*
X0120715Y0164754D01*
X0121277Y0165753D02*
X0119717Y0165753D01*
X0120279Y0166751D02*
X0118718Y0166751D01*
X0119280Y0167750D02*
X0117720Y0167750D01*
X0118282Y0168748D02*
X0116721Y0168748D01*
X0117283Y0169747D02*
X0115723Y0169747D01*
X0116285Y0170745D02*
X0114724Y0170745D01*
X0115400Y0171744D02*
X0113726Y0171744D01*
X0112727Y0172742D02*
X0115400Y0172742D01*
X0115400Y0173741D02*
X0111729Y0173741D01*
X0110730Y0174739D02*
X0115400Y0174739D01*
X0115400Y0175738D02*
X0109732Y0175738D01*
X0108733Y0176737D02*
X0115400Y0176737D01*
X0115400Y0177735D02*
X0107735Y0177735D01*
X0106736Y0178734D02*
X0115400Y0178734D01*
X0115400Y0179732D02*
X0105738Y0179732D01*
X0104739Y0180731D02*
X0115400Y0180731D01*
X0115400Y0181729D02*
X0103741Y0181729D01*
X0102742Y0182728D02*
X0115400Y0182728D01*
X0115400Y0183726D02*
X0102100Y0183726D01*
X0102100Y0184725D02*
X0108625Y0184725D01*
X0106640Y0185723D02*
X0102100Y0185723D01*
X0102100Y0186722D02*
X0105642Y0186722D01*
X0105099Y0187720D02*
X0102100Y0187720D01*
X0102100Y0188719D02*
X0104686Y0188719D01*
X0104600Y0189717D02*
X0102100Y0189717D01*
X0102100Y0190716D02*
X0104600Y0190716D01*
X0104865Y0191714D02*
X0102100Y0191714D01*
X0102100Y0192713D02*
X0105279Y0192713D01*
X0106074Y0193711D02*
X0102100Y0193711D01*
X0102680Y0194710D02*
X0107259Y0194710D01*
X0106655Y0195708D02*
X0103678Y0195708D01*
X0104677Y0196707D02*
X0105657Y0196707D01*
X0101732Y0199702D02*
X0049521Y0199702D01*
X0047932Y0198704D02*
X0100734Y0198704D01*
X0099735Y0197705D02*
X0046552Y0197705D01*
X0045300Y0196707D02*
X0098737Y0196707D01*
X0097900Y0195708D02*
X0044048Y0195708D01*
X0042796Y0194710D02*
X0097900Y0194710D01*
X0097900Y0193711D02*
X0041544Y0193711D01*
X0040292Y0192713D02*
X0097900Y0192713D01*
X0097900Y0191714D02*
X0039040Y0191714D01*
X0037797Y0190716D02*
X0097900Y0190716D01*
X0097900Y0189717D02*
X0036799Y0189717D01*
X0035800Y0188719D02*
X0097900Y0188719D01*
X0097900Y0187720D02*
X0034802Y0187720D01*
X0033803Y0186722D02*
X0097900Y0186722D01*
X0097900Y0185723D02*
X0032805Y0185723D01*
X0031806Y0184725D02*
X0097900Y0184725D01*
X0097900Y0183726D02*
X0030808Y0183726D01*
X0029809Y0182728D02*
X0097900Y0182728D01*
X0097900Y0181729D02*
X0028899Y0181729D01*
X0028103Y0180731D02*
X0096153Y0180731D01*
X0094782Y0179732D02*
X0027306Y0179732D01*
X0026510Y0178734D02*
X0094223Y0178734D01*
X0094000Y0177735D02*
X0025714Y0177735D01*
X0024918Y0176737D02*
X0094028Y0176737D01*
X0094441Y0175738D02*
X0024121Y0175738D01*
X0023325Y0174739D02*
X0095311Y0174739D01*
X0099689Y0174739D02*
X0104791Y0174739D01*
X0105789Y0173741D02*
X0022529Y0173741D01*
X0021732Y0172742D02*
X0106788Y0172742D01*
X0107786Y0171744D02*
X0021093Y0171744D01*
X0020465Y0170745D02*
X0108785Y0170745D01*
X0109783Y0169747D02*
X0019838Y0169747D01*
X0019211Y0168748D02*
X0110782Y0168748D01*
X0111780Y0167750D02*
X0018583Y0167750D01*
X0017956Y0166751D02*
X0112779Y0166751D01*
X0113777Y0165753D02*
X0017328Y0165753D01*
X0016701Y0164754D02*
X0114776Y0164754D01*
X0115774Y0163756D02*
X0016074Y0163756D01*
X0015446Y0162757D02*
X0116773Y0162757D01*
X0117771Y0161759D02*
X0014911Y0161759D01*
X0014430Y0160760D02*
X0118770Y0160760D01*
X0119768Y0159762D02*
X0013949Y0159762D01*
X0013468Y0158763D02*
X0120767Y0158763D01*
X0121765Y0157765D02*
X0012987Y0157765D01*
X0012507Y0156766D02*
X0061411Y0156766D01*
X0062486Y0157212D02*
X0060024Y0156192D01*
X0058139Y0154307D01*
X0057119Y0151845D01*
X0057119Y0149179D01*
X0058139Y0146717D01*
X0060024Y0144832D01*
X0062486Y0143812D01*
X0065152Y0143812D01*
X0067614Y0144832D01*
X0069499Y0146717D01*
X0070519Y0149179D01*
X0070519Y0151845D01*
X0069499Y0154307D01*
X0067614Y0156192D01*
X0065152Y0157212D01*
X0062486Y0157212D01*
X0059600Y0155768D02*
X0012026Y0155768D01*
X0011545Y0154769D02*
X0058601Y0154769D01*
X0057917Y0153771D02*
X0011064Y0153771D01*
X0010583Y0152772D02*
X0057503Y0152772D01*
X0057119Y0151774D02*
X0010102Y0151774D01*
X0009710Y0150775D02*
X0057119Y0150775D01*
X0057119Y0149777D02*
X0009360Y0149777D01*
X0009011Y0148778D02*
X0057285Y0148778D01*
X0057699Y0147780D02*
X0008661Y0147780D01*
X0008312Y0146781D02*
X0058112Y0146781D01*
X0059073Y0145783D02*
X0007963Y0145783D01*
X0007613Y0144784D02*
X0060139Y0144784D01*
X0058644Y0140977D02*
X0059362Y0140744D01*
X0060035Y0140401D01*
X0060647Y0139956D01*
X0061181Y0139422D01*
X0061625Y0138811D01*
X0061968Y0138138D01*
X0062201Y0137419D01*
X0062320Y0136673D01*
X0062320Y0133295D01*
X0058020Y0133295D01*
X0058020Y0132295D01*
X0062320Y0132295D01*
X0062320Y0128917D01*
X0062201Y0128171D01*
X0061968Y0127453D01*
X0061625Y0126780D01*
X0061181Y0126168D01*
X0060647Y0125634D01*
X0060035Y0125190D01*
X0059362Y0124847D01*
X0058644Y0124613D01*
X0058020Y0124515D01*
X0058020Y0132295D01*
X0057020Y0132295D01*
X0057020Y0124515D01*
X0056396Y0124613D01*
X0055677Y0124847D01*
X0055004Y0125190D01*
X0054393Y0125634D01*
X0053858Y0126168D01*
X0053414Y0126780D01*
X0053071Y0127453D01*
X0052838Y0128171D01*
X0052720Y0128917D01*
X0052720Y0132295D01*
X0057020Y0132295D01*
X0057020Y0133295D01*
X0052720Y0133295D01*
X0052720Y0136673D01*
X0052838Y0137419D01*
X0053071Y0138138D01*
X0053414Y0138811D01*
X0053858Y0139422D01*
X0054393Y0139956D01*
X0055004Y0140401D01*
X0055677Y0140744D01*
X0056396Y0140977D01*
X0057020Y0141076D01*
X0057020Y0133295D01*
X0058020Y0133295D01*
X0058020Y0141076D01*
X0058644Y0140977D01*
X0059219Y0140790D02*
X0121972Y0140790D01*
X0122970Y0141789D02*
X0006565Y0141789D01*
X0006914Y0142787D02*
X0123969Y0142787D01*
X0124000Y0142818D02*
X0109682Y0128500D01*
X0109304Y0128500D01*
X0108017Y0127967D01*
X0107033Y0126983D01*
X0106500Y0125696D01*
X0106500Y0124304D01*
X0107033Y0123017D01*
X0108017Y0122033D01*
X0109304Y0121500D01*
X0110696Y0121500D01*
X0111983Y0122033D01*
X0112967Y0123017D01*
X0113500Y0124304D01*
X0113500Y0124682D01*
X0127818Y0139000D01*
X0128196Y0139000D01*
X0129483Y0139533D01*
X0130467Y0140517D01*
X0131000Y0141804D01*
X0131000Y0143196D01*
X0130467Y0144483D01*
X0129483Y0145467D01*
X0128196Y0146000D01*
X0126804Y0146000D01*
X0125517Y0145467D01*
X0124533Y0144483D01*
X0124000Y0143196D01*
X0124000Y0142818D01*
X0124244Y0143786D02*
X0007264Y0143786D01*
X0006216Y0140790D02*
X0037066Y0140790D01*
X0036858Y0140704D02*
X0035395Y0139241D01*
X0034603Y0137330D01*
X0034603Y0128261D01*
X0035395Y0126350D01*
X0036858Y0124887D01*
X0038769Y0124095D01*
X0040837Y0124095D01*
X0042749Y0124887D01*
X0044211Y0126350D01*
X0045003Y0128261D01*
X0045003Y0137330D01*
X0044211Y0139241D01*
X0042749Y0140704D01*
X0040837Y0141495D01*
X0038769Y0141495D01*
X0036858Y0140704D01*
X0035946Y0139792D02*
X0005889Y0139792D01*
X0005661Y0138793D02*
X0035209Y0138793D01*
X0034796Y0137795D02*
X0005434Y0137795D01*
X0005206Y0136796D02*
X0034603Y0136796D01*
X0034603Y0135798D02*
X0004978Y0135798D01*
X0004750Y0134799D02*
X0034603Y0134799D01*
X0034603Y0133801D02*
X0004522Y0133801D01*
X0004294Y0132802D02*
X0034603Y0132802D01*
X0034603Y0131803D02*
X0004066Y0131803D01*
X0003838Y0130805D02*
X0034603Y0130805D01*
X0034603Y0129806D02*
X0003610Y0129806D01*
X0003382Y0128808D02*
X0034603Y0128808D01*
X0034790Y0127809D02*
X0003193Y0127809D01*
X0003080Y0126811D02*
X0035204Y0126811D01*
X0035932Y0125812D02*
X0002968Y0125812D01*
X0002855Y0124814D02*
X0037034Y0124814D01*
X0042572Y0124814D02*
X0055779Y0124814D01*
X0057020Y0124814D02*
X0058020Y0124814D01*
X0058020Y0125812D02*
X0057020Y0125812D01*
X0057020Y0126811D02*
X0058020Y0126811D01*
X0058020Y0127809D02*
X0057020Y0127809D01*
X0057020Y0128808D02*
X0058020Y0128808D01*
X0058020Y0129806D02*
X0057020Y0129806D01*
X0057020Y0130805D02*
X0058020Y0130805D01*
X0058020Y0131803D02*
X0057020Y0131803D01*
X0057020Y0132802D02*
X0045003Y0132802D01*
X0045003Y0133801D02*
X0052720Y0133801D01*
X0052720Y0134799D02*
X0045003Y0134799D01*
X0045003Y0135798D02*
X0052720Y0135798D01*
X0052739Y0136796D02*
X0045003Y0136796D01*
X0044811Y0137795D02*
X0052960Y0137795D01*
X0053405Y0138793D02*
X0044397Y0138793D01*
X0043661Y0139792D02*
X0054228Y0139792D01*
X0055820Y0140790D02*
X0042540Y0140790D01*
X0045003Y0131803D02*
X0052720Y0131803D01*
X0052720Y0130805D02*
X0045003Y0130805D01*
X0045003Y0129806D02*
X0052720Y0129806D01*
X0052737Y0128808D02*
X0045003Y0128808D01*
X0044816Y0127809D02*
X0052955Y0127809D01*
X0053398Y0126811D02*
X0044403Y0126811D01*
X0043674Y0125812D02*
X0054214Y0125812D01*
X0059261Y0124814D02*
X0106500Y0124814D01*
X0106548Y0125812D02*
X0060825Y0125812D01*
X0061641Y0126811D02*
X0106962Y0126811D01*
X0107860Y0127809D02*
X0062084Y0127809D01*
X0062302Y0128808D02*
X0109990Y0128808D01*
X0110988Y0129806D02*
X0062320Y0129806D01*
X0062320Y0130805D02*
X0111987Y0130805D01*
X0112985Y0131803D02*
X0062320Y0131803D01*
X0062320Y0133801D02*
X0114982Y0133801D01*
X0115981Y0134799D02*
X0062320Y0134799D01*
X0062320Y0135798D02*
X0116979Y0135798D01*
X0117978Y0136796D02*
X0062300Y0136796D01*
X0062080Y0137795D02*
X0118976Y0137795D01*
X0119975Y0138793D02*
X0061634Y0138793D01*
X0060812Y0139792D02*
X0120973Y0139792D01*
X0119861Y0144784D02*
X0124834Y0144784D01*
X0126279Y0145783D02*
X0120927Y0145783D01*
X0121861Y0146717D02*
X0122881Y0149179D01*
X0122881Y0151845D01*
X0121861Y0154307D01*
X0119976Y0156192D01*
X0117514Y0157212D01*
X0114848Y0157212D01*
X0112386Y0156192D01*
X0110501Y0154307D01*
X0109481Y0151845D01*
X0109481Y0149179D01*
X0110501Y0146717D01*
X0112386Y0144832D01*
X0114848Y0143812D01*
X0117514Y0143812D01*
X0119976Y0144832D01*
X0121861Y0146717D01*
X0121888Y0146781D02*
X0131509Y0146781D01*
X0131500Y0147780D02*
X0122301Y0147780D01*
X0122715Y0148778D02*
X0130752Y0148778D01*
X0129753Y0149777D02*
X0122881Y0149777D01*
X0122881Y0150775D02*
X0128755Y0150775D01*
X0127756Y0151774D02*
X0122881Y0151774D01*
X0122497Y0152772D02*
X0126758Y0152772D01*
X0125759Y0153771D02*
X0122083Y0153771D01*
X0121399Y0154769D02*
X0124761Y0154769D01*
X0123762Y0155768D02*
X0120400Y0155768D01*
X0118589Y0156766D02*
X0122764Y0156766D01*
X0130701Y0154769D02*
X0149101Y0154769D01*
X0148102Y0153771D02*
X0131699Y0153771D01*
X0132698Y0152772D02*
X0147103Y0152772D01*
X0146105Y0151774D02*
X0133696Y0151774D01*
X0136239Y0150775D02*
X0145106Y0150775D01*
X0144108Y0149777D02*
X0137673Y0149777D01*
X0138259Y0148778D02*
X0143109Y0148778D01*
X0142111Y0147780D02*
X0138500Y0147780D01*
X0138491Y0146781D02*
X0141112Y0146781D01*
X0140114Y0145783D02*
X0138077Y0145783D01*
X0137234Y0144784D02*
X0139115Y0144784D01*
X0138117Y0143786D02*
X0130756Y0143786D01*
X0131000Y0142787D02*
X0137118Y0142787D01*
X0136120Y0141789D02*
X0130994Y0141789D01*
X0130580Y0140790D02*
X0135121Y0140790D01*
X0134123Y0139792D02*
X0129741Y0139792D01*
X0127611Y0138793D02*
X0133124Y0138793D01*
X0132126Y0137795D02*
X0126613Y0137795D01*
X0125614Y0136796D02*
X0131127Y0136796D01*
X0130129Y0135798D02*
X0124616Y0135798D01*
X0123617Y0134799D02*
X0126370Y0134799D01*
X0124596Y0133801D02*
X0122619Y0133801D01*
X0123598Y0132802D02*
X0121620Y0132802D01*
X0120622Y0131803D02*
X0123176Y0131803D01*
X0122792Y0130805D02*
X0119623Y0130805D01*
X0118625Y0129806D02*
X0122792Y0129806D01*
X0122432Y0128808D02*
X0117626Y0128808D01*
X0116628Y0127809D02*
X0121434Y0127809D01*
X0120435Y0126811D02*
X0115629Y0126811D01*
X0114631Y0125812D02*
X0119437Y0125812D01*
X0118438Y0124814D02*
X0113632Y0124814D01*
X0113298Y0123815D02*
X0117440Y0123815D01*
X0116441Y0122817D02*
X0112767Y0122817D01*
X0111465Y0121818D02*
X0115443Y0121818D01*
X0114444Y0120820D02*
X0002405Y0120820D01*
X0002518Y0121818D02*
X0108535Y0121818D01*
X0107233Y0122817D02*
X0002630Y0122817D01*
X0002743Y0123815D02*
X0106702Y0123815D01*
X0112447Y0118823D02*
X0002180Y0118823D01*
X0002293Y0119821D02*
X0113445Y0119821D01*
X0111448Y0117824D02*
X0002068Y0117824D01*
X0001955Y0116826D02*
X0110450Y0116826D01*
X0109451Y0115827D02*
X0041024Y0115827D01*
X0043033Y0114829D02*
X0055041Y0114829D01*
X0055004Y0114810D02*
X0054393Y0114366D01*
X0053858Y0113832D01*
X0053414Y0113220D01*
X0053071Y0112547D01*
X0052838Y0111829D01*
X0052720Y0111082D01*
X0052720Y0107705D01*
X0057020Y0107705D01*
X0057020Y0115485D01*
X0056396Y0115387D01*
X0055677Y0115153D01*
X0055004Y0114810D01*
X0053857Y0113830D02*
X0044031Y0113830D01*
X0044551Y0112832D02*
X0053216Y0112832D01*
X0052839Y0111833D02*
X0044964Y0111833D01*
X0045003Y0110835D02*
X0052720Y0110835D01*
X0052720Y0109836D02*
X0045003Y0109836D01*
X0045003Y0108838D02*
X0052720Y0108838D01*
X0052720Y0107839D02*
X0045003Y0107839D01*
X0045003Y0106841D02*
X0057020Y0106841D01*
X0057020Y0106705D02*
X0052720Y0106705D01*
X0052720Y0103327D01*
X0052838Y0102581D01*
X0053071Y0101862D01*
X0053414Y0101189D01*
X0053858Y0100578D01*
X0054393Y0100043D01*
X0055004Y0099599D01*
X0055677Y0099256D01*
X0056396Y0099023D01*
X0057020Y0098924D01*
X0057020Y0106705D01*
X0058020Y0106705D01*
X0058020Y0107705D01*
X0062320Y0107705D01*
X0062320Y0111082D01*
X0062201Y0111829D01*
X0061968Y0112547D01*
X0061625Y0113220D01*
X0061181Y0113832D01*
X0060647Y0114366D01*
X0060035Y0114810D01*
X0059362Y0115153D01*
X0058644Y0115387D01*
X0058020Y0115485D01*
X0058020Y0107705D01*
X0057020Y0107705D01*
X0057020Y0106705D01*
X0057020Y0105842D02*
X0058020Y0105842D01*
X0058020Y0106705D02*
X0058020Y0098924D01*
X0058644Y0099023D01*
X0059362Y0099256D01*
X0060035Y0099599D01*
X0060647Y0100043D01*
X0061181Y0100578D01*
X0061625Y0101189D01*
X0061968Y0101862D01*
X0062201Y0102581D01*
X0062320Y0103327D01*
X0062320Y0106705D01*
X0058020Y0106705D01*
X0058020Y0106841D02*
X0100465Y0106841D01*
X0101463Y0107839D02*
X0062320Y0107839D01*
X0062320Y0108838D02*
X0102462Y0108838D01*
X0103460Y0109836D02*
X0062320Y0109836D01*
X0062320Y0110835D02*
X0104459Y0110835D01*
X0105457Y0111833D02*
X0062200Y0111833D01*
X0061823Y0112832D02*
X0106456Y0112832D01*
X0107454Y0113830D02*
X0061182Y0113830D01*
X0059999Y0114829D02*
X0108453Y0114829D01*
X0112511Y0109836D02*
X0127508Y0109836D01*
X0127508Y0109673D02*
X0123209Y0109673D01*
X0123310Y0109033D01*
X0123544Y0108315D01*
X0123887Y0107642D01*
X0124331Y0107030D01*
X0124865Y0106496D01*
X0125476Y0106052D01*
X0126150Y0105709D01*
X0126868Y0105476D01*
X0127508Y0105374D01*
X0127508Y0109673D01*
X0127508Y0108838D02*
X0128476Y0108838D01*
X0128476Y0109836D02*
X0157900Y0109836D01*
X0154600Y0095857D02*
X0118313Y0095857D01*
X0120286Y0094859D02*
X0155337Y0094859D01*
X0156223Y0093860D02*
X0121284Y0093860D01*
X0122036Y0092862D02*
X0131416Y0092862D01*
X0130267Y0091863D02*
X0122449Y0091863D01*
X0122863Y0090865D02*
X0129840Y0090865D01*
X0129750Y0089866D02*
X0122881Y0089866D01*
X0122881Y0088868D02*
X0129951Y0088868D01*
X0130535Y0087869D02*
X0122762Y0087869D01*
X0122349Y0086870D02*
X0132063Y0086870D01*
X0133937Y0086870D02*
X0155493Y0086870D01*
X0155038Y0087869D02*
X0135465Y0087869D01*
X0134584Y0092862D02*
X0155340Y0092862D01*
X0156491Y0085872D02*
X0121935Y0085872D01*
X0121042Y0084873D02*
X0157655Y0084873D01*
X0156238Y0083875D02*
X0120043Y0083875D01*
X0117727Y0082876D02*
X0155347Y0082876D01*
X0132139Y0072891D02*
X0105861Y0072891D01*
X0104863Y0071893D02*
X0130491Y0071893D01*
X0129298Y0070894D02*
X0103864Y0070894D01*
X0102866Y0069896D02*
X0128853Y0069896D01*
X0128750Y0068897D02*
X0101867Y0068897D01*
X0100869Y0067899D02*
X0128938Y0067899D01*
X0129504Y0066900D02*
X0099870Y0066900D01*
X0098923Y0071893D02*
X0068077Y0071893D01*
X0067079Y0072891D02*
X0099921Y0072891D01*
X0100920Y0073890D02*
X0066080Y0073890D01*
X0065081Y0074888D02*
X0079510Y0074888D01*
X0079673Y0074888D02*
X0080642Y0074888D01*
X0080805Y0074888D02*
X0087897Y0074888D01*
X0086405Y0075887D02*
X0083150Y0075887D01*
X0084085Y0076885D02*
X0085515Y0076885D01*
X0085101Y0077884D02*
X0084632Y0077884D01*
X0084804Y0080879D02*
X0084883Y0080879D01*
X0085296Y0081878D02*
X0084407Y0081878D01*
X0083715Y0082876D02*
X0085877Y0082876D01*
X0086875Y0083875D02*
X0082430Y0083875D01*
X0080642Y0083875D02*
X0079673Y0083875D01*
X0079673Y0084429D02*
X0079033Y0084327D01*
X0078315Y0084094D01*
X0077642Y0083751D01*
X0077030Y0083307D01*
X0076496Y0082773D01*
X0076052Y0082161D01*
X0075709Y0081488D01*
X0075476Y0080770D01*
X0075374Y0080130D01*
X0079673Y0080130D01*
X0079673Y0084429D01*
X0079673Y0082876D02*
X0080642Y0082876D01*
X0080642Y0081878D02*
X0079673Y0081878D01*
X0079673Y0080879D02*
X0080642Y0080879D01*
X0079673Y0079881D02*
X0060089Y0079881D01*
X0059090Y0080879D02*
X0075511Y0080879D01*
X0075908Y0081878D02*
X0058092Y0081878D01*
X0057093Y0082876D02*
X0062273Y0082876D01*
X0062486Y0082788D02*
X0065152Y0082788D01*
X0067614Y0083808D01*
X0069499Y0085693D01*
X0070519Y0088155D01*
X0070519Y0090821D01*
X0069499Y0093283D01*
X0067614Y0095168D01*
X0065152Y0096188D01*
X0062486Y0096188D01*
X0060024Y0095168D01*
X0058139Y0093283D01*
X0057119Y0090821D01*
X0057119Y0088155D01*
X0058139Y0085693D01*
X0060024Y0083808D01*
X0062486Y0082788D01*
X0059957Y0083875D02*
X0056095Y0083875D01*
X0055096Y0084873D02*
X0058958Y0084873D01*
X0058065Y0085872D02*
X0054098Y0085872D01*
X0053099Y0086870D02*
X0057651Y0086870D01*
X0057238Y0087869D02*
X0052101Y0087869D01*
X0051102Y0088868D02*
X0057119Y0088868D01*
X0057119Y0089866D02*
X0050104Y0089866D01*
X0049105Y0090865D02*
X0057137Y0090865D01*
X0057551Y0091863D02*
X0048107Y0091863D01*
X0047108Y0092862D02*
X0057964Y0092862D01*
X0058716Y0093860D02*
X0046110Y0093860D01*
X0045111Y0094859D02*
X0059714Y0094859D01*
X0061687Y0095857D02*
X0044113Y0095857D01*
X0043114Y0096856D02*
X0096643Y0096856D01*
X0096643Y0097854D02*
X0042116Y0097854D01*
X0042100Y0098853D02*
X0096643Y0098853D01*
X0096643Y0099851D02*
X0060382Y0099851D01*
X0061378Y0100850D02*
X0096643Y0100850D01*
X0096643Y0101848D02*
X0061961Y0101848D01*
X0062244Y0102847D02*
X0096857Y0102847D01*
X0097469Y0103845D02*
X0062320Y0103845D01*
X0062320Y0104844D02*
X0098468Y0104844D01*
X0099466Y0105842D02*
X0062320Y0105842D01*
X0058020Y0104844D02*
X0057020Y0104844D01*
X0057020Y0103845D02*
X0058020Y0103845D01*
X0058020Y0102847D02*
X0057020Y0102847D01*
X0057020Y0101848D02*
X0058020Y0101848D01*
X0058020Y0100850D02*
X0057020Y0100850D01*
X0057020Y0099851D02*
X0058020Y0099851D01*
X0054657Y0099851D02*
X0043303Y0099851D01*
X0044249Y0100850D02*
X0053661Y0100850D01*
X0053078Y0101848D02*
X0044663Y0101848D01*
X0045003Y0102847D02*
X0052796Y0102847D01*
X0052720Y0103845D02*
X0045003Y0103845D01*
X0045003Y0104844D02*
X0052720Y0104844D01*
X0052720Y0105842D02*
X0045003Y0105842D01*
X0037900Y0098853D02*
X0002442Y0098853D01*
X0002330Y0099851D02*
X0036303Y0099851D01*
X0035357Y0100850D02*
X0002217Y0100850D01*
X0002105Y0101848D02*
X0034944Y0101848D01*
X0034603Y0102847D02*
X0001992Y0102847D01*
X0001880Y0103845D02*
X0034603Y0103845D01*
X0034603Y0104844D02*
X0001845Y0104844D01*
X0001817Y0105842D02*
X0034603Y0105842D01*
X0034603Y0106841D02*
X0001789Y0106841D01*
X0001761Y0107839D02*
X0034603Y0107839D01*
X0034603Y0108838D02*
X0001733Y0108838D01*
X0001705Y0109836D02*
X0034603Y0109836D01*
X0034603Y0110835D02*
X0001723Y0110835D01*
X0001751Y0111833D02*
X0034642Y0111833D01*
X0035056Y0112832D02*
X0001779Y0112832D01*
X0001807Y0113830D02*
X0035575Y0113830D01*
X0036573Y0114829D02*
X0001835Y0114829D01*
X0001863Y0115827D02*
X0038582Y0115827D01*
X0057020Y0114829D02*
X0058020Y0114829D01*
X0058020Y0113830D02*
X0057020Y0113830D01*
X0057020Y0112832D02*
X0058020Y0112832D01*
X0058020Y0111833D02*
X0057020Y0111833D01*
X0057020Y0110835D02*
X0058020Y0110835D01*
X0058020Y0109836D02*
X0057020Y0109836D01*
X0057020Y0108838D02*
X0058020Y0108838D01*
X0058020Y0107839D02*
X0057020Y0107839D01*
X0037900Y0097854D02*
X0002555Y0097854D01*
X0002667Y0096856D02*
X0037900Y0096856D01*
X0038173Y0095857D02*
X0002780Y0095857D01*
X0002892Y0094859D02*
X0039172Y0094859D01*
X0040170Y0093860D02*
X0003005Y0093860D01*
X0003117Y0092862D02*
X0041169Y0092862D01*
X0042167Y0091863D02*
X0003230Y0091863D01*
X0003457Y0090865D02*
X0043166Y0090865D01*
X0044164Y0089866D02*
X0003685Y0089866D01*
X0003913Y0088868D02*
X0045163Y0088868D01*
X0046161Y0087869D02*
X0004141Y0087869D01*
X0004369Y0086870D02*
X0047160Y0086870D01*
X0048158Y0085872D02*
X0004597Y0085872D01*
X0004825Y0084873D02*
X0049157Y0084873D01*
X0050155Y0083875D02*
X0005052Y0083875D01*
X0005280Y0082876D02*
X0051154Y0082876D01*
X0052152Y0081878D02*
X0005508Y0081878D01*
X0005736Y0080879D02*
X0029013Y0080879D01*
X0027431Y0079881D02*
X0005981Y0079881D01*
X0006330Y0078882D02*
X0026784Y0078882D01*
X0026500Y0077884D02*
X0006680Y0077884D01*
X0007029Y0076885D02*
X0026500Y0076885D01*
X0026880Y0075887D02*
X0007378Y0075887D01*
X0007728Y0074888D02*
X0027662Y0074888D01*
X0030987Y0080879D02*
X0051513Y0080879D01*
X0056000Y0077884D02*
X0056146Y0077884D01*
X0056000Y0076885D02*
X0057145Y0076885D01*
X0058143Y0075887D02*
X0055620Y0075887D01*
X0054838Y0074888D02*
X0059142Y0074888D01*
X0060140Y0073890D02*
X0008077Y0073890D01*
X0008427Y0072891D02*
X0061139Y0072891D01*
X0062137Y0071893D02*
X0008776Y0071893D01*
X0009125Y0070894D02*
X0063136Y0070894D01*
X0064134Y0069896D02*
X0009475Y0069896D01*
X0009824Y0068897D02*
X0065133Y0068897D01*
X0066131Y0067899D02*
X0010260Y0067899D01*
X0010741Y0066900D02*
X0067130Y0066900D01*
X0077642Y0075540D02*
X0078315Y0075197D01*
X0079033Y0074964D01*
X0079673Y0074863D01*
X0079673Y0079161D01*
X0075374Y0079161D01*
X0075476Y0078522D01*
X0075709Y0077803D01*
X0076052Y0077130D01*
X0076496Y0076519D01*
X0077030Y0075984D01*
X0077642Y0075540D01*
X0077165Y0075887D02*
X0064083Y0075887D01*
X0063084Y0076885D02*
X0076230Y0076885D01*
X0075683Y0077884D02*
X0062086Y0077884D01*
X0061087Y0078882D02*
X0075419Y0078882D01*
X0076600Y0082876D02*
X0065365Y0082876D01*
X0067681Y0083875D02*
X0077885Y0083875D01*
X0079673Y0078882D02*
X0080642Y0078882D01*
X0080642Y0077884D02*
X0079673Y0077884D01*
X0079673Y0076885D02*
X0080642Y0076885D01*
X0080642Y0075887D02*
X0079673Y0075887D01*
X0092103Y0074888D02*
X0097739Y0074888D01*
X0096247Y0075887D02*
X0093595Y0075887D01*
X0094485Y0076885D02*
X0095357Y0076885D01*
X0094944Y0077884D02*
X0094899Y0077884D01*
X0094704Y0081878D02*
X0095139Y0081878D01*
X0095719Y0082876D02*
X0094123Y0082876D01*
X0093125Y0083875D02*
X0096643Y0083875D01*
X0096643Y0084873D02*
X0068679Y0084873D01*
X0069573Y0085872D02*
X0096643Y0085872D01*
X0096643Y0086870D02*
X0069987Y0086870D01*
X0070400Y0087869D02*
X0096643Y0087869D01*
X0096643Y0088868D02*
X0070519Y0088868D01*
X0070519Y0089866D02*
X0096643Y0089866D01*
X0096643Y0090865D02*
X0070501Y0090865D01*
X0070087Y0091863D02*
X0096643Y0091863D01*
X0096643Y0092862D02*
X0069674Y0092862D01*
X0068922Y0093860D02*
X0096643Y0093860D01*
X0096643Y0094859D02*
X0067924Y0094859D01*
X0065951Y0095857D02*
X0096643Y0095857D01*
X0108517Y0105842D02*
X0125888Y0105842D01*
X0127508Y0105842D02*
X0128476Y0105842D01*
X0128476Y0106841D02*
X0127508Y0106841D01*
X0127508Y0107839D02*
X0128476Y0107839D01*
X0124521Y0106841D02*
X0109516Y0106841D01*
X0110514Y0107839D02*
X0123786Y0107839D01*
X0123374Y0108838D02*
X0111513Y0108838D01*
X0113510Y0110835D02*
X0123240Y0110835D01*
X0123490Y0111833D02*
X0114508Y0111833D01*
X0115507Y0112832D02*
X0124002Y0112832D01*
X0124881Y0113830D02*
X0116505Y0113830D01*
X0117504Y0114829D02*
X0126836Y0114829D01*
X0124811Y0115827D02*
X0118502Y0115827D01*
X0119501Y0116826D02*
X0123812Y0116826D01*
X0123265Y0117824D02*
X0120499Y0117824D01*
X0121498Y0118823D02*
X0122851Y0118823D01*
X0122792Y0119821D02*
X0122496Y0119821D01*
X0129148Y0114829D02*
X0132575Y0114829D01*
X0131968Y0115827D02*
X0131173Y0115827D01*
X0113984Y0132802D02*
X0058020Y0132802D01*
X0058020Y0133801D02*
X0057020Y0133801D01*
X0057020Y0134799D02*
X0058020Y0134799D01*
X0058020Y0135798D02*
X0057020Y0135798D01*
X0057020Y0136796D02*
X0058020Y0136796D01*
X0058020Y0137795D02*
X0057020Y0137795D01*
X0057020Y0138793D02*
X0058020Y0138793D01*
X0058020Y0139792D02*
X0057020Y0139792D01*
X0057020Y0140790D02*
X0058020Y0140790D01*
X0067499Y0144784D02*
X0112501Y0144784D01*
X0111435Y0145783D02*
X0068565Y0145783D01*
X0069526Y0146781D02*
X0110474Y0146781D01*
X0110061Y0147780D02*
X0069939Y0147780D01*
X0070353Y0148778D02*
X0109647Y0148778D01*
X0109481Y0149777D02*
X0070519Y0149777D01*
X0070519Y0150775D02*
X0109481Y0150775D01*
X0109481Y0151774D02*
X0070519Y0151774D01*
X0070135Y0152772D02*
X0109865Y0152772D01*
X0110279Y0153771D02*
X0069721Y0153771D01*
X0069037Y0154769D02*
X0110963Y0154769D01*
X0111962Y0155768D02*
X0068038Y0155768D01*
X0066227Y0156766D02*
X0113773Y0156766D01*
X0128721Y0145783D02*
X0131923Y0145783D01*
X0132766Y0144784D02*
X0130166Y0144784D01*
X0174655Y0137795D02*
X0189000Y0137795D01*
X0189003Y0136796D02*
X0175544Y0136796D01*
X0175958Y0135798D02*
X0189417Y0135798D01*
X0190251Y0134799D02*
X0176000Y0134799D01*
X0176669Y0133801D02*
X0190400Y0133801D01*
X0190400Y0132802D02*
X0189648Y0132802D01*
X0185352Y0132802D02*
X0177668Y0132802D01*
X0178666Y0131803D02*
X0184459Y0131803D01*
X0184045Y0130805D02*
X0179665Y0130805D01*
X0180663Y0129806D02*
X0184000Y0129806D01*
X0184205Y0128808D02*
X0181662Y0128808D01*
X0182660Y0127809D02*
X0184741Y0127809D01*
X0185400Y0126811D02*
X0183659Y0126811D01*
X0184600Y0125812D02*
X0185400Y0125812D01*
X0185400Y0124814D02*
X0184600Y0124814D01*
X0184600Y0123815D02*
X0185400Y0123815D01*
X0185400Y0122817D02*
X0184600Y0122817D01*
X0184600Y0121818D02*
X0185400Y0121818D01*
X0185400Y0120820D02*
X0184600Y0120820D01*
X0184600Y0119821D02*
X0185400Y0119821D01*
X0185400Y0118823D02*
X0184600Y0118823D01*
X0184600Y0117824D02*
X0185400Y0117824D01*
X0185400Y0116826D02*
X0184600Y0116826D01*
X0184600Y0115827D02*
X0185400Y0115827D01*
X0185400Y0114829D02*
X0184600Y0114829D01*
X0184600Y0113830D02*
X0185400Y0113830D01*
X0185400Y0112832D02*
X0184600Y0112832D01*
X0184600Y0111833D02*
X0185400Y0111833D01*
X0185400Y0110835D02*
X0184600Y0110835D01*
X0184600Y0109836D02*
X0185400Y0109836D01*
X0185400Y0108838D02*
X0184600Y0108838D01*
X0184600Y0107839D02*
X0185400Y0107839D01*
X0185400Y0106841D02*
X0184600Y0106841D01*
X0184600Y0105842D02*
X0185400Y0105842D01*
X0185400Y0104844D02*
X0184600Y0104844D01*
X0184600Y0103845D02*
X0185400Y0103845D01*
X0185400Y0102847D02*
X0184603Y0102847D01*
X0189600Y0102847D02*
X0190400Y0102847D01*
X0190400Y0103845D02*
X0189600Y0103845D01*
X0189600Y0104844D02*
X0190400Y0104844D01*
X0190400Y0105842D02*
X0189600Y0105842D01*
X0189600Y0106841D02*
X0190400Y0106841D01*
X0190400Y0107839D02*
X0189600Y0107839D01*
X0189600Y0108838D02*
X0190400Y0108838D01*
X0190400Y0109836D02*
X0189600Y0109836D01*
X0189600Y0110835D02*
X0190400Y0110835D01*
X0190400Y0111833D02*
X0189600Y0111833D01*
X0189600Y0112832D02*
X0190400Y0112832D01*
X0190400Y0113830D02*
X0189600Y0113830D01*
X0189600Y0114829D02*
X0190400Y0114829D01*
X0190400Y0115827D02*
X0189600Y0115827D01*
X0189600Y0116826D02*
X0190400Y0116826D01*
X0190400Y0117824D02*
X0189600Y0117824D01*
X0189600Y0118823D02*
X0190400Y0118823D01*
X0190400Y0119821D02*
X0189600Y0119821D01*
X0189600Y0120820D02*
X0190400Y0120820D01*
X0190400Y0121818D02*
X0189600Y0121818D01*
X0189600Y0122817D02*
X0190400Y0122817D01*
X0190400Y0123815D02*
X0189600Y0123815D01*
X0189600Y0124814D02*
X0190400Y0124814D01*
X0190400Y0125812D02*
X0189600Y0125812D01*
X0189600Y0126811D02*
X0190400Y0126811D01*
X0190400Y0127809D02*
X0190259Y0127809D01*
X0194600Y0127809D02*
X0195400Y0127809D01*
X0195400Y0126811D02*
X0194600Y0126811D01*
X0194600Y0125812D02*
X0195400Y0125812D01*
X0195400Y0124814D02*
X0194600Y0124814D01*
X0194600Y0123815D02*
X0195400Y0123815D01*
X0195400Y0122817D02*
X0194600Y0122817D01*
X0194600Y0121818D02*
X0195400Y0121818D01*
X0195400Y0120820D02*
X0194600Y0120820D01*
X0194600Y0119821D02*
X0195400Y0119821D01*
X0195400Y0118823D02*
X0194600Y0118823D01*
X0194600Y0117824D02*
X0195400Y0117824D01*
X0195400Y0116826D02*
X0194600Y0116826D01*
X0194600Y0115827D02*
X0195400Y0115827D01*
X0195400Y0114829D02*
X0194600Y0114829D01*
X0194600Y0113830D02*
X0195400Y0113830D01*
X0195400Y0112832D02*
X0194600Y0112832D01*
X0194600Y0111833D02*
X0195400Y0111833D01*
X0195400Y0110835D02*
X0194600Y0110835D01*
X0194600Y0109836D02*
X0195400Y0109836D01*
X0195400Y0108838D02*
X0194600Y0108838D01*
X0194600Y0107839D02*
X0195400Y0107839D01*
X0195400Y0106841D02*
X0194600Y0106841D01*
X0194600Y0105842D02*
X0195400Y0105842D01*
X0195400Y0104844D02*
X0194600Y0104844D01*
X0194600Y0103845D02*
X0195400Y0103845D01*
X0195400Y0102847D02*
X0194600Y0102847D01*
X0194600Y0101848D02*
X0195400Y0101848D01*
X0195400Y0100850D02*
X0194600Y0100850D01*
X0194600Y0099851D02*
X0195400Y0099851D01*
X0195400Y0098853D02*
X0194600Y0098853D01*
X0194600Y0097854D02*
X0195400Y0097854D01*
X0195400Y0096856D02*
X0194600Y0096856D01*
X0194600Y0095857D02*
X0195400Y0095857D01*
X0195400Y0094859D02*
X0194600Y0094859D01*
X0194600Y0093860D02*
X0195400Y0093860D01*
X0195400Y0092862D02*
X0194600Y0092862D01*
X0194600Y0091863D02*
X0195400Y0091863D01*
X0195400Y0090865D02*
X0194600Y0090865D01*
X0194600Y0089866D02*
X0195400Y0089866D01*
X0195400Y0088868D02*
X0194600Y0088868D01*
X0194600Y0087869D02*
X0195400Y0087869D01*
X0195400Y0086870D02*
X0194600Y0086870D01*
X0194600Y0085872D02*
X0195400Y0085872D01*
X0195400Y0084873D02*
X0194600Y0084873D01*
X0194600Y0083875D02*
X0195400Y0083875D01*
X0195400Y0082876D02*
X0194600Y0082876D01*
X0194600Y0081878D02*
X0195400Y0081878D01*
X0195400Y0080879D02*
X0194600Y0080879D01*
X0194600Y0079881D02*
X0195400Y0079881D01*
X0195400Y0078882D02*
X0194600Y0078882D01*
X0194600Y0077884D02*
X0195400Y0077884D01*
X0195400Y0076885D02*
X0194600Y0076885D01*
X0194600Y0075887D02*
X0195400Y0075887D01*
X0195400Y0074888D02*
X0194600Y0074888D01*
X0194600Y0073890D02*
X0195400Y0073890D01*
X0195400Y0072891D02*
X0194600Y0072891D01*
X0194600Y0071893D02*
X0195400Y0071893D01*
X0195400Y0070894D02*
X0194600Y0070894D01*
X0194600Y0069896D02*
X0195400Y0069896D01*
X0195400Y0068897D02*
X0194600Y0068897D01*
X0194600Y0067899D02*
X0195400Y0067899D01*
X0195400Y0066900D02*
X0194600Y0066900D01*
X0194600Y0065902D02*
X0195400Y0065902D01*
X0195400Y0064903D02*
X0194600Y0064903D01*
X0194600Y0063905D02*
X0195400Y0063905D01*
X0195400Y0062906D02*
X0194600Y0062906D01*
X0194600Y0061908D02*
X0195400Y0061908D01*
X0195400Y0060909D02*
X0194600Y0060909D01*
X0194600Y0059911D02*
X0195400Y0059911D01*
X0195400Y0058912D02*
X0194600Y0058912D01*
X0194600Y0057914D02*
X0195400Y0057914D01*
X0195400Y0056915D02*
X0194600Y0056915D01*
X0194600Y0055917D02*
X0196114Y0055917D01*
X0196500Y0054918D02*
X0195032Y0054918D01*
X0195700Y0053920D02*
X0196659Y0053920D01*
X0197129Y0052921D02*
X0196000Y0052921D01*
X0196000Y0051923D02*
X0198284Y0051923D01*
X0195636Y0050924D02*
X0222954Y0050924D01*
X0221956Y0049926D02*
X0194875Y0049926D01*
X0190125Y0049926D02*
X0184875Y0049926D01*
X0185636Y0050924D02*
X0189364Y0050924D01*
X0189000Y0051923D02*
X0186000Y0051923D01*
X0186000Y0052921D02*
X0189000Y0052921D01*
X0189300Y0053920D02*
X0186889Y0053920D01*
X0187888Y0054918D02*
X0189968Y0054918D01*
X0190400Y0055917D02*
X0188886Y0055917D01*
X0189600Y0056915D02*
X0190400Y0056915D01*
X0190400Y0057914D02*
X0189600Y0057914D01*
X0189600Y0058912D02*
X0190400Y0058912D01*
X0190400Y0059911D02*
X0189600Y0059911D01*
X0189600Y0060909D02*
X0190400Y0060909D01*
X0190400Y0061908D02*
X0189600Y0061908D01*
X0189600Y0062906D02*
X0190400Y0062906D01*
X0190400Y0063905D02*
X0189600Y0063905D01*
X0189600Y0064903D02*
X0190400Y0064903D01*
X0190400Y0065902D02*
X0189600Y0065902D01*
X0189600Y0066900D02*
X0190400Y0066900D01*
X0190400Y0067899D02*
X0189600Y0067899D01*
X0189600Y0068897D02*
X0190400Y0068897D01*
X0190400Y0069896D02*
X0189600Y0069896D01*
X0189600Y0070894D02*
X0190400Y0070894D01*
X0190400Y0071893D02*
X0189600Y0071893D01*
X0189600Y0072891D02*
X0190400Y0072891D01*
X0190400Y0073890D02*
X0189600Y0073890D01*
X0189600Y0074888D02*
X0190400Y0074888D01*
X0190400Y0075887D02*
X0189600Y0075887D01*
X0189600Y0076885D02*
X0190400Y0076885D01*
X0190400Y0077884D02*
X0189600Y0077884D01*
X0189600Y0078882D02*
X0190400Y0078882D01*
X0190400Y0079881D02*
X0189600Y0079881D01*
X0189600Y0080879D02*
X0190400Y0080879D01*
X0190400Y0081878D02*
X0189600Y0081878D01*
X0189600Y0082876D02*
X0190400Y0082876D01*
X0190400Y0083875D02*
X0189600Y0083875D01*
X0189600Y0084873D02*
X0190400Y0084873D01*
X0190400Y0085872D02*
X0189600Y0085872D01*
X0189600Y0086870D02*
X0190400Y0086870D01*
X0190400Y0087869D02*
X0189600Y0087869D01*
X0189600Y0088868D02*
X0190400Y0088868D01*
X0190400Y0089866D02*
X0189600Y0089866D01*
X0189600Y0090865D02*
X0190400Y0090865D01*
X0190400Y0091863D02*
X0189600Y0091863D01*
X0189600Y0092862D02*
X0190400Y0092862D01*
X0190400Y0093860D02*
X0189600Y0093860D01*
X0189600Y0094859D02*
X0190400Y0094859D01*
X0190400Y0095857D02*
X0189600Y0095857D01*
X0189600Y0096856D02*
X0190400Y0096856D01*
X0190400Y0097854D02*
X0189600Y0097854D01*
X0189600Y0098853D02*
X0190400Y0098853D01*
X0190400Y0099851D02*
X0189600Y0099851D01*
X0189600Y0100850D02*
X0190400Y0100850D01*
X0190400Y0101848D02*
X0189600Y0101848D01*
X0199600Y0101848D02*
X0252900Y0101848D01*
X0252900Y0100850D02*
X0199600Y0100850D01*
X0199600Y0099851D02*
X0252900Y0099851D01*
X0252900Y0098853D02*
X0199600Y0098853D01*
X0199600Y0097854D02*
X0252900Y0097854D01*
X0252900Y0096856D02*
X0199600Y0096856D01*
X0199600Y0095857D02*
X0252900Y0095857D01*
X0252900Y0094859D02*
X0199600Y0094859D01*
X0199600Y0093860D02*
X0252900Y0093860D01*
X0252900Y0092862D02*
X0199600Y0092862D01*
X0199600Y0091863D02*
X0252900Y0091863D01*
X0252900Y0090865D02*
X0199600Y0090865D01*
X0199600Y0089866D02*
X0252900Y0089866D01*
X0252900Y0088868D02*
X0199600Y0088868D01*
X0199600Y0087869D02*
X0252900Y0087869D01*
X0252900Y0086870D02*
X0199600Y0086870D01*
X0199600Y0085872D02*
X0252900Y0085872D01*
X0252900Y0084873D02*
X0199600Y0084873D01*
X0199600Y0083875D02*
X0252900Y0083875D01*
X0252900Y0082876D02*
X0199600Y0082876D01*
X0199600Y0081878D02*
X0252900Y0081878D01*
X0252900Y0080879D02*
X0199600Y0080879D01*
X0199600Y0079881D02*
X0251911Y0079881D01*
X0250913Y0078882D02*
X0199600Y0078882D01*
X0199600Y0077884D02*
X0249914Y0077884D01*
X0248916Y0076885D02*
X0199600Y0076885D01*
X0199600Y0075887D02*
X0247917Y0075887D01*
X0246919Y0074888D02*
X0199600Y0074888D01*
X0199600Y0073890D02*
X0245920Y0073890D01*
X0244921Y0072891D02*
X0199600Y0072891D01*
X0199600Y0071893D02*
X0243923Y0071893D01*
X0242924Y0070894D02*
X0199600Y0070894D01*
X0199600Y0069896D02*
X0241926Y0069896D01*
X0240927Y0068897D02*
X0199600Y0068897D01*
X0199600Y0067899D02*
X0239929Y0067899D01*
X0238930Y0066900D02*
X0199600Y0066900D01*
X0199600Y0065902D02*
X0237932Y0065902D01*
X0236933Y0064903D02*
X0199600Y0064903D01*
X0199600Y0063905D02*
X0235935Y0063905D01*
X0234936Y0062906D02*
X0199600Y0062906D01*
X0199600Y0061908D02*
X0233938Y0061908D01*
X0232939Y0060909D02*
X0199600Y0060909D01*
X0199600Y0059911D02*
X0231941Y0059911D01*
X0230942Y0058912D02*
X0199600Y0058912D01*
X0202036Y0057914D02*
X0229944Y0057914D01*
X0228945Y0056915D02*
X0202995Y0056915D01*
X0203409Y0055917D02*
X0227947Y0055917D01*
X0226948Y0054918D02*
X0203500Y0054918D01*
X0203341Y0053920D02*
X0225950Y0053920D01*
X0224951Y0052921D02*
X0202871Y0052921D01*
X0201716Y0051923D02*
X0223953Y0051923D01*
X0263734Y0056736D02*
X0264304Y0056500D01*
X0265696Y0056500D01*
X0266983Y0057033D01*
X0267967Y0058017D01*
X0268500Y0059304D01*
X0268500Y0060530D01*
X0315870Y0107900D01*
X0354650Y0107900D01*
X0355517Y0107033D01*
X0356804Y0106500D01*
X0358196Y0106500D01*
X0359483Y0107033D01*
X0359740Y0107290D01*
X0361130Y0105900D01*
X0370870Y0105900D01*
X0372870Y0107900D01*
X0415870Y0107900D01*
X0416970Y0109000D01*
X0418196Y0109000D01*
X0419483Y0109533D01*
X0420467Y0110517D01*
X0421000Y0111804D01*
X0421000Y0113196D01*
X0420467Y0114483D01*
X0419483Y0115467D01*
X0418196Y0116000D01*
X0416804Y0116000D01*
X0415517Y0115467D01*
X0414533Y0114483D01*
X0414000Y0113196D01*
X0414000Y0112100D01*
X0387570Y0112100D01*
X0399600Y0124130D01*
X0399600Y0127150D01*
X0400467Y0128017D01*
X0401000Y0129304D01*
X0401000Y0130696D01*
X0400467Y0131983D01*
X0399550Y0132900D01*
X0410870Y0132900D01*
X0427100Y0149130D01*
X0427100Y0157150D01*
X0427967Y0158017D01*
X0428500Y0159304D01*
X0428500Y0160696D01*
X0427967Y0161983D01*
X0426983Y0162967D01*
X0425696Y0163500D01*
X0424304Y0163500D01*
X0423017Y0162967D01*
X0422033Y0161983D01*
X0421500Y0160696D01*
X0421500Y0159304D01*
X0422033Y0158017D01*
X0422900Y0157150D01*
X0422900Y0150870D01*
X0409130Y0137100D01*
X0381630Y0137100D01*
X0380400Y0135870D01*
X0380400Y0135870D01*
X0369130Y0124600D01*
X0367900Y0123370D01*
X0367900Y0122850D01*
X0367033Y0121983D01*
X0366500Y0120696D01*
X0366500Y0119304D01*
X0367033Y0118017D01*
X0368017Y0117033D01*
X0369304Y0116500D01*
X0370696Y0116500D01*
X0371983Y0117033D01*
X0372967Y0118017D01*
X0373500Y0119304D01*
X0373500Y0120696D01*
X0372967Y0121983D01*
X0372710Y0122240D01*
X0383370Y0132900D01*
X0395450Y0132900D01*
X0394533Y0131983D01*
X0394000Y0130696D01*
X0394000Y0129304D01*
X0394533Y0128017D01*
X0395400Y0127150D01*
X0395400Y0125870D01*
X0384130Y0114600D01*
X0367850Y0114600D01*
X0366983Y0115467D01*
X0365696Y0116000D01*
X0364304Y0116000D01*
X0363017Y0115467D01*
X0362033Y0114483D01*
X0361873Y0114097D01*
X0361870Y0114100D01*
X0359600Y0116370D01*
X0359600Y0133370D01*
X0354600Y0138370D01*
X0353370Y0139600D01*
X0339130Y0139600D01*
X0338264Y0138734D01*
X0338500Y0139304D01*
X0338500Y0139682D01*
X0338618Y0139800D01*
X0353037Y0139800D01*
X0354029Y0140211D01*
X0354789Y0140971D01*
X0356118Y0142300D01*
X0395250Y0142300D01*
X0395517Y0142033D01*
X0396804Y0141500D01*
X0398196Y0141500D01*
X0399483Y0142033D01*
X0400467Y0143017D01*
X0401000Y0144304D01*
X0401000Y0144682D01*
X0410492Y0154174D01*
X0410228Y0153360D01*
X0410091Y0152497D01*
X0410091Y0151624D01*
X0410228Y0150761D01*
X0410498Y0149930D01*
X0410894Y0149152D01*
X0411370Y0148497D01*
X0414934Y0152060D01*
X0415641Y0151353D01*
X0416348Y0152060D01*
X0419912Y0148497D01*
X0420388Y0149152D01*
X0420784Y0149930D01*
X0421054Y0150761D01*
X0421191Y0151624D01*
X0421191Y0152497D01*
X0421054Y0153360D01*
X0420784Y0154191D01*
X0420388Y0154969D01*
X0419912Y0155624D01*
X0416348Y0152060D01*
X0415641Y0152768D01*
X0419205Y0156331D01*
X0418550Y0156807D01*
X0417771Y0157204D01*
X0416941Y0157474D01*
X0416078Y0157610D01*
X0415204Y0157610D01*
X0414341Y0157474D01*
X0413528Y0157209D01*
X0421118Y0164800D01*
X0448882Y0164800D01*
X0482300Y0131382D01*
X0482300Y0081118D01*
X0466382Y0065200D01*
X0431973Y0065200D01*
X0432931Y0065597D01*
X0434605Y0067271D01*
X0435510Y0069457D01*
X0435510Y0071825D01*
X0434605Y0074011D01*
X0432931Y0075685D01*
X0430744Y0076591D01*
X0428377Y0076591D01*
X0426190Y0075685D01*
X0424516Y0074011D01*
X0423610Y0071825D01*
X0423610Y0069457D01*
X0424516Y0067271D01*
X0426190Y0065597D01*
X0428377Y0064691D01*
X0430744Y0064691D01*
X0430964Y0064782D01*
X0430211Y0064029D01*
X0425211Y0059029D01*
X0424800Y0058037D01*
X0424800Y0055150D01*
X0424483Y0055467D01*
X0423196Y0056000D01*
X0421804Y0056000D01*
X0420517Y0055467D01*
X0419650Y0054600D01*
X0411018Y0054600D01*
X0405905Y0061075D01*
X0406000Y0061304D01*
X0406000Y0062696D01*
X0405467Y0063983D01*
X0404483Y0064967D01*
X0403390Y0065420D01*
X0408370Y0070400D01*
X0413370Y0070400D01*
X0425870Y0082900D01*
X0427100Y0084130D01*
X0427100Y0132711D01*
X0427106Y0132717D01*
X0428377Y0132191D01*
X0430744Y0132191D01*
X0432931Y0133097D01*
X0434605Y0134771D01*
X0435510Y0136957D01*
X0435510Y0139325D01*
X0434605Y0141511D01*
X0432931Y0143185D01*
X0430744Y0144091D01*
X0428377Y0144091D01*
X0426190Y0143185D01*
X0424516Y0141511D01*
X0423610Y0139325D01*
X0423610Y0136957D01*
X0424137Y0135687D01*
X0422900Y0134450D01*
X0422900Y0085870D01*
X0421191Y0084161D01*
X0421191Y0084997D01*
X0421054Y0085860D01*
X0420784Y0086691D01*
X0420388Y0087469D01*
X0419912Y0088124D01*
X0416348Y0084560D01*
X0415641Y0085268D01*
X0419205Y0088831D01*
X0418550Y0089307D01*
X0417771Y0089704D01*
X0416941Y0089974D01*
X0416078Y0090110D01*
X0415204Y0090110D01*
X0414341Y0089974D01*
X0413511Y0089704D01*
X0412732Y0089307D01*
X0412077Y0088831D01*
X0415641Y0085268D01*
X0414934Y0084560D01*
X0415641Y0083853D01*
X0412077Y0080289D01*
X0412732Y0079814D01*
X0413511Y0079417D01*
X0414341Y0079147D01*
X0415204Y0079010D01*
X0416041Y0079010D01*
X0411630Y0074600D01*
X0406630Y0074600D01*
X0405400Y0073370D01*
X0395400Y0063370D01*
X0395400Y0058370D01*
X0394130Y0057100D01*
X0364130Y0057100D01*
X0362900Y0055870D01*
X0355400Y0048370D01*
X0355400Y0042850D01*
X0354533Y0041983D01*
X0354000Y0040696D01*
X0354000Y0039304D01*
X0354533Y0038017D01*
X0355450Y0037100D01*
X0351000Y0037100D01*
X0351000Y0038196D01*
X0350467Y0039483D01*
X0349483Y0040467D01*
X0348196Y0041000D01*
X0346804Y0041000D01*
X0345517Y0040467D01*
X0345400Y0040350D01*
X0345400Y0041074D01*
X0344578Y0043059D01*
X0344053Y0043583D01*
X0344600Y0044130D01*
X0352100Y0051630D01*
X0352100Y0084130D01*
X0356970Y0089000D01*
X0358196Y0089000D01*
X0359483Y0089533D01*
X0360467Y0090517D01*
X0361000Y0091804D01*
X0361000Y0093196D01*
X0360467Y0094483D01*
X0359550Y0095400D01*
X0364130Y0095400D01*
X0365400Y0094130D01*
X0366630Y0092900D01*
X0399650Y0092900D01*
X0400517Y0092033D01*
X0401804Y0091500D01*
X0403196Y0091500D01*
X0404483Y0092033D01*
X0405467Y0093017D01*
X0406000Y0094304D01*
X0406000Y0095696D01*
X0405467Y0096983D01*
X0404483Y0097967D01*
X0403196Y0098500D01*
X0401804Y0098500D01*
X0400517Y0097967D01*
X0399650Y0097100D01*
X0372050Y0097100D01*
X0372967Y0098017D01*
X0373500Y0099304D01*
X0373500Y0100696D01*
X0372967Y0101983D01*
X0371983Y0102967D01*
X0370696Y0103500D01*
X0369304Y0103500D01*
X0368017Y0102967D01*
X0367150Y0102100D01*
X0349130Y0102100D01*
X0347900Y0100870D01*
X0345400Y0098370D01*
X0345400Y0093370D01*
X0344728Y0092697D01*
X0344578Y0093059D01*
X0343059Y0094578D01*
X0342040Y0095000D01*
X0343871Y0095000D01*
X0344202Y0095089D01*
X0344498Y0095260D01*
X0344740Y0095502D01*
X0344911Y0095798D01*
X0345000Y0096129D01*
X0345000Y0099500D01*
X0340500Y0099500D01*
X0340500Y0100500D01*
X0339500Y0100500D01*
X0339500Y0105000D01*
X0336129Y0105000D01*
X0335798Y0104911D01*
X0335502Y0104740D01*
X0335283Y0104521D01*
X0334404Y0105400D01*
X0325596Y0105400D01*
X0324600Y0104404D01*
X0324600Y0102100D01*
X0324130Y0102100D01*
X0323030Y0101000D01*
X0321804Y0101000D01*
X0320517Y0100467D01*
X0319533Y0099483D01*
X0319000Y0098196D01*
X0319000Y0096804D01*
X0319236Y0096234D01*
X0315870Y0099600D01*
X0311630Y0099600D01*
X0310400Y0098370D01*
X0299130Y0087100D01*
X0297900Y0085870D01*
X0297900Y0080870D01*
X0297240Y0080210D01*
X0296983Y0080467D01*
X0295696Y0081000D01*
X0294304Y0081000D01*
X0293017Y0080467D01*
X0292033Y0079483D01*
X0291500Y0078196D01*
X0291500Y0076804D01*
X0292033Y0075517D01*
X0293017Y0074533D01*
X0294304Y0074000D01*
X0295696Y0074000D01*
X0296983Y0074533D01*
X0297850Y0075400D01*
X0298370Y0075400D01*
X0300870Y0077900D01*
X0302100Y0079130D01*
X0302100Y0084130D01*
X0313370Y0095400D01*
X0314130Y0095400D01*
X0316266Y0093264D01*
X0315696Y0093500D01*
X0314304Y0093500D01*
X0313017Y0092967D01*
X0312033Y0091983D01*
X0311500Y0090696D01*
X0311500Y0089304D01*
X0312033Y0088017D01*
X0312900Y0087150D01*
X0312900Y0084550D01*
X0311983Y0085467D01*
X0310696Y0086000D01*
X0309304Y0086000D01*
X0308017Y0085467D01*
X0307033Y0084483D01*
X0306500Y0083196D01*
X0306500Y0081804D01*
X0307033Y0080517D01*
X0307900Y0079650D01*
X0307900Y0029130D01*
X0312900Y0024130D01*
X0314130Y0022900D01*
X0325356Y0022900D01*
X0324600Y0021074D01*
X0324600Y0018926D01*
X0325356Y0017100D01*
X0303370Y0017100D01*
X0263734Y0056736D01*
X0264553Y0055917D02*
X0307900Y0055917D01*
X0307900Y0056915D02*
X0266698Y0056915D01*
X0267863Y0057914D02*
X0307900Y0057914D01*
X0307900Y0058912D02*
X0268338Y0058912D01*
X0268500Y0059911D02*
X0307900Y0059911D01*
X0307900Y0060909D02*
X0268879Y0060909D01*
X0269878Y0061908D02*
X0307900Y0061908D01*
X0307900Y0062906D02*
X0270876Y0062906D01*
X0271875Y0063905D02*
X0307900Y0063905D01*
X0307900Y0064903D02*
X0272873Y0064903D01*
X0273872Y0065902D02*
X0307900Y0065902D01*
X0307900Y0066900D02*
X0274870Y0066900D01*
X0275869Y0067899D02*
X0307900Y0067899D01*
X0307900Y0068897D02*
X0276867Y0068897D01*
X0277866Y0069896D02*
X0307900Y0069896D01*
X0307900Y0070894D02*
X0278864Y0070894D01*
X0279863Y0071893D02*
X0307900Y0071893D01*
X0307900Y0072891D02*
X0280861Y0072891D01*
X0281860Y0073890D02*
X0307900Y0073890D01*
X0307900Y0074888D02*
X0297338Y0074888D01*
X0298857Y0075887D02*
X0307900Y0075887D01*
X0307900Y0076885D02*
X0299855Y0076885D01*
X0300854Y0077884D02*
X0307900Y0077884D01*
X0307900Y0078882D02*
X0301852Y0078882D01*
X0302100Y0079881D02*
X0307669Y0079881D01*
X0306883Y0080879D02*
X0302100Y0080879D01*
X0302100Y0081878D02*
X0306500Y0081878D01*
X0306500Y0082876D02*
X0302100Y0082876D01*
X0302100Y0083875D02*
X0306781Y0083875D01*
X0307424Y0084873D02*
X0302843Y0084873D01*
X0303842Y0085872D02*
X0308995Y0085872D01*
X0311005Y0085872D02*
X0312900Y0085872D01*
X0312900Y0086870D02*
X0304840Y0086870D01*
X0305839Y0087869D02*
X0312181Y0087869D01*
X0311681Y0088868D02*
X0306837Y0088868D01*
X0307836Y0089866D02*
X0311500Y0089866D01*
X0311570Y0090865D02*
X0308834Y0090865D01*
X0309833Y0091863D02*
X0311983Y0091863D01*
X0312912Y0092862D02*
X0310831Y0092862D01*
X0311830Y0093860D02*
X0315670Y0093860D01*
X0314672Y0094859D02*
X0312828Y0094859D01*
X0309884Y0097854D02*
X0305824Y0097854D01*
X0304825Y0096856D02*
X0308886Y0096856D01*
X0307887Y0095857D02*
X0303827Y0095857D01*
X0302828Y0094859D02*
X0306889Y0094859D01*
X0305890Y0093860D02*
X0301830Y0093860D01*
X0300831Y0092862D02*
X0304892Y0092862D01*
X0303893Y0091863D02*
X0299833Y0091863D01*
X0298834Y0090865D02*
X0302895Y0090865D01*
X0301896Y0089866D02*
X0297836Y0089866D01*
X0296837Y0088868D02*
X0300898Y0088868D01*
X0299899Y0087869D02*
X0295839Y0087869D01*
X0294840Y0086870D02*
X0298901Y0086870D01*
X0299130Y0087100D02*
X0299130Y0087100D01*
X0297902Y0085872D02*
X0293842Y0085872D01*
X0292843Y0084873D02*
X0297900Y0084873D01*
X0297900Y0083875D02*
X0291845Y0083875D01*
X0290846Y0082876D02*
X0297900Y0082876D01*
X0297900Y0081878D02*
X0289848Y0081878D01*
X0288849Y0080879D02*
X0294013Y0080879D01*
X0292431Y0079881D02*
X0287851Y0079881D01*
X0286852Y0078882D02*
X0291784Y0078882D01*
X0291500Y0077884D02*
X0285854Y0077884D01*
X0284855Y0076885D02*
X0291500Y0076885D01*
X0291880Y0075887D02*
X0283857Y0075887D01*
X0282858Y0074888D02*
X0292662Y0074888D01*
X0295987Y0080879D02*
X0297900Y0080879D01*
X0312576Y0084873D02*
X0312900Y0084873D01*
X0318614Y0096856D02*
X0319000Y0096856D01*
X0319000Y0097854D02*
X0317616Y0097854D01*
X0316617Y0098853D02*
X0319272Y0098853D01*
X0319901Y0099851D02*
X0307821Y0099851D01*
X0306822Y0098853D02*
X0310883Y0098853D01*
X0308819Y0100850D02*
X0321441Y0100850D01*
X0323878Y0101848D02*
X0309818Y0101848D01*
X0310817Y0102847D02*
X0324600Y0102847D01*
X0324600Y0103845D02*
X0311815Y0103845D01*
X0312814Y0104844D02*
X0325040Y0104844D01*
X0315809Y0107839D02*
X0354711Y0107839D01*
X0355981Y0106841D02*
X0314811Y0106841D01*
X0313812Y0105842D02*
X0422900Y0105842D01*
X0422900Y0104844D02*
X0344319Y0104844D01*
X0344202Y0104911D02*
X0343871Y0105000D01*
X0340500Y0105000D01*
X0340500Y0100500D01*
X0345000Y0100500D01*
X0345000Y0103871D01*
X0344911Y0104202D01*
X0344740Y0104498D01*
X0344498Y0104740D01*
X0344202Y0104911D01*
X0345000Y0103845D02*
X0422900Y0103845D01*
X0422900Y0102847D02*
X0372103Y0102847D01*
X0373023Y0101848D02*
X0422900Y0101848D01*
X0422900Y0100850D02*
X0373436Y0100850D01*
X0373500Y0099851D02*
X0422900Y0099851D01*
X0422900Y0098853D02*
X0373313Y0098853D01*
X0372804Y0097854D02*
X0400404Y0097854D01*
X0404596Y0097854D02*
X0422900Y0097854D01*
X0422900Y0096856D02*
X0405520Y0096856D01*
X0405933Y0095857D02*
X0422900Y0095857D01*
X0422900Y0094859D02*
X0406000Y0094859D01*
X0405816Y0093860D02*
X0422900Y0093860D01*
X0422900Y0092862D02*
X0405311Y0092862D01*
X0404073Y0091863D02*
X0422900Y0091863D01*
X0422900Y0090865D02*
X0360611Y0090865D01*
X0361000Y0091863D02*
X0400927Y0091863D01*
X0399689Y0092862D02*
X0361000Y0092862D01*
X0360725Y0093860D02*
X0365670Y0093860D01*
X0364672Y0094859D02*
X0360091Y0094859D01*
X0359816Y0089866D02*
X0414010Y0089866D01*
X0412127Y0088868D02*
X0356837Y0088868D01*
X0355839Y0087869D02*
X0411185Y0087869D01*
X0411370Y0088124D02*
X0410894Y0087469D01*
X0410498Y0086691D01*
X0410228Y0085860D01*
X0410091Y0084997D01*
X0410091Y0084124D01*
X0410228Y0083261D01*
X0410498Y0082430D01*
X0410894Y0081652D01*
X0411370Y0080997D01*
X0414934Y0084560D01*
X0411370Y0088124D01*
X0411625Y0087869D02*
X0413040Y0087869D01*
X0412624Y0086870D02*
X0414038Y0086870D01*
X0413622Y0085872D02*
X0415037Y0085872D01*
X0415247Y0084873D02*
X0414621Y0084873D01*
X0414248Y0083875D02*
X0415619Y0083875D01*
X0416035Y0084873D02*
X0416661Y0084873D01*
X0416245Y0085872D02*
X0417660Y0085872D01*
X0417244Y0086870D02*
X0418658Y0086870D01*
X0418242Y0087869D02*
X0419657Y0087869D01*
X0420097Y0087869D02*
X0422900Y0087869D01*
X0422900Y0088868D02*
X0419155Y0088868D01*
X0417272Y0089866D02*
X0422900Y0089866D01*
X0422900Y0086870D02*
X0420693Y0086870D01*
X0421050Y0085872D02*
X0422900Y0085872D01*
X0421904Y0084873D02*
X0421191Y0084873D01*
X0424848Y0081878D02*
X0482300Y0081878D01*
X0482300Y0082876D02*
X0425846Y0082876D01*
X0426845Y0083875D02*
X0482300Y0083875D01*
X0482300Y0084873D02*
X0427100Y0084873D01*
X0427100Y0085872D02*
X0482300Y0085872D01*
X0482300Y0086870D02*
X0427100Y0086870D01*
X0427100Y0087869D02*
X0482300Y0087869D01*
X0482300Y0088868D02*
X0427100Y0088868D01*
X0427100Y0089866D02*
X0482300Y0089866D01*
X0482300Y0090865D02*
X0427100Y0090865D01*
X0427100Y0091863D02*
X0482300Y0091863D01*
X0482300Y0092862D02*
X0427100Y0092862D01*
X0427100Y0093860D02*
X0482300Y0093860D01*
X0482300Y0094859D02*
X0427100Y0094859D01*
X0427100Y0095857D02*
X0482300Y0095857D01*
X0482300Y0096856D02*
X0427100Y0096856D01*
X0427100Y0097854D02*
X0482300Y0097854D01*
X0482300Y0098853D02*
X0427100Y0098853D01*
X0427100Y0099851D02*
X0462303Y0099851D01*
X0463175Y0099490D02*
X0465543Y0099490D01*
X0467729Y0100395D01*
X0469403Y0102069D01*
X0470309Y0104256D01*
X0470309Y0106623D01*
X0469403Y0108810D01*
X0467729Y0110484D01*
X0465543Y0111390D01*
X0463175Y0111390D01*
X0460989Y0110484D01*
X0459315Y0108810D01*
X0458409Y0106623D01*
X0458409Y0104256D01*
X0459315Y0102069D01*
X0460989Y0100395D01*
X0463175Y0099490D01*
X0460534Y0100850D02*
X0427100Y0100850D01*
X0427100Y0101848D02*
X0459536Y0101848D01*
X0458993Y0102847D02*
X0427100Y0102847D01*
X0427100Y0103845D02*
X0458579Y0103845D01*
X0458409Y0104844D02*
X0427100Y0104844D01*
X0427100Y0105842D02*
X0458409Y0105842D01*
X0458499Y0106841D02*
X0427100Y0106841D01*
X0427100Y0107839D02*
X0458913Y0107839D01*
X0459343Y0108838D02*
X0427100Y0108838D01*
X0427100Y0109836D02*
X0460341Y0109836D01*
X0461836Y0110835D02*
X0427100Y0110835D01*
X0427100Y0111833D02*
X0482300Y0111833D01*
X0482300Y0110835D02*
X0466882Y0110835D01*
X0468377Y0109836D02*
X0482300Y0109836D01*
X0482300Y0108838D02*
X0469375Y0108838D01*
X0469805Y0107839D02*
X0482300Y0107839D01*
X0482300Y0106841D02*
X0470219Y0106841D01*
X0470309Y0105842D02*
X0482300Y0105842D01*
X0482300Y0104844D02*
X0470309Y0104844D01*
X0470139Y0103845D02*
X0482300Y0103845D01*
X0482300Y0102847D02*
X0469725Y0102847D01*
X0469182Y0101848D02*
X0482300Y0101848D01*
X0482300Y0100850D02*
X0468184Y0100850D01*
X0466415Y0099851D02*
X0482300Y0099851D01*
X0487700Y0099851D02*
X0497670Y0099851D01*
X0497558Y0098853D02*
X0487700Y0098853D01*
X0487700Y0097854D02*
X0497445Y0097854D01*
X0497333Y0096856D02*
X0487700Y0096856D01*
X0487700Y0095857D02*
X0497220Y0095857D01*
X0497108Y0094859D02*
X0487700Y0094859D01*
X0487700Y0093860D02*
X0496995Y0093860D01*
X0496883Y0092862D02*
X0487700Y0092862D01*
X0487700Y0091863D02*
X0496770Y0091863D01*
X0496543Y0090865D02*
X0487700Y0090865D01*
X0487700Y0089866D02*
X0496315Y0089866D01*
X0496087Y0088868D02*
X0487700Y0088868D01*
X0487700Y0087869D02*
X0495859Y0087869D01*
X0495631Y0086870D02*
X0487700Y0086870D01*
X0487700Y0085872D02*
X0495403Y0085872D01*
X0495175Y0084873D02*
X0487700Y0084873D01*
X0487700Y0083875D02*
X0494948Y0083875D01*
X0494720Y0082876D02*
X0487700Y0082876D01*
X0487700Y0081878D02*
X0494492Y0081878D01*
X0494264Y0080879D02*
X0487700Y0080879D01*
X0487700Y0079881D02*
X0494019Y0079881D01*
X0493670Y0078882D02*
X0487460Y0078882D01*
X0486702Y0077884D02*
X0493320Y0077884D01*
X0492971Y0076885D02*
X0485704Y0076885D01*
X0484705Y0075887D02*
X0492622Y0075887D01*
X0492272Y0074888D02*
X0483707Y0074888D01*
X0482708Y0073890D02*
X0491923Y0073890D01*
X0491573Y0072891D02*
X0481710Y0072891D01*
X0480711Y0071893D02*
X0491224Y0071893D01*
X0490875Y0070894D02*
X0479713Y0070894D01*
X0478714Y0069896D02*
X0490525Y0069896D01*
X0490176Y0068897D02*
X0477716Y0068897D01*
X0476717Y0067899D02*
X0489740Y0067899D01*
X0489259Y0066900D02*
X0475719Y0066900D01*
X0474720Y0065902D02*
X0488778Y0065902D01*
X0488297Y0064903D02*
X0473722Y0064903D01*
X0472723Y0063905D02*
X0487817Y0063905D01*
X0487336Y0062906D02*
X0471725Y0062906D01*
X0470726Y0061908D02*
X0486855Y0061908D01*
X0486374Y0060909D02*
X0469728Y0060909D01*
X0468304Y0059911D02*
X0485893Y0059911D01*
X0485412Y0058912D02*
X0438203Y0058912D01*
X0438500Y0057914D02*
X0484931Y0057914D01*
X0484348Y0056915D02*
X0438500Y0056915D01*
X0438133Y0055917D02*
X0483721Y0055917D01*
X0483093Y0054918D02*
X0437368Y0054918D01*
X0434389Y0053920D02*
X0482466Y0053920D01*
X0481838Y0052921D02*
X0433391Y0052921D01*
X0432392Y0051923D02*
X0481211Y0051923D01*
X0480584Y0050924D02*
X0432100Y0050924D01*
X0432100Y0049926D02*
X0479956Y0049926D01*
X0479329Y0048927D02*
X0432100Y0048927D01*
X0432100Y0047929D02*
X0478701Y0047929D01*
X0478006Y0046930D02*
X0432100Y0046930D01*
X0432100Y0045932D02*
X0477210Y0045932D01*
X0476414Y0044933D02*
X0432100Y0044933D01*
X0432100Y0043934D02*
X0475618Y0043934D01*
X0474821Y0042936D02*
X0432100Y0042936D01*
X0432100Y0041937D02*
X0474025Y0041937D01*
X0473229Y0040939D02*
X0431409Y0040939D01*
X0430410Y0039940D02*
X0472432Y0039940D01*
X0471636Y0038942D02*
X0429412Y0038942D01*
X0428413Y0037943D02*
X0470840Y0037943D01*
X0469863Y0036945D02*
X0427415Y0036945D01*
X0426416Y0035946D02*
X0468865Y0035946D01*
X0467866Y0034948D02*
X0425418Y0034948D01*
X0424419Y0033949D02*
X0466868Y0033949D01*
X0465869Y0032951D02*
X0423421Y0032951D01*
X0422422Y0031952D02*
X0464871Y0031952D01*
X0463872Y0030954D02*
X0421424Y0030954D01*
X0420425Y0029955D02*
X0462874Y0029955D01*
X0461802Y0028957D02*
X0419427Y0028957D01*
X0418428Y0027958D02*
X0460549Y0027958D01*
X0459297Y0026960D02*
X0417430Y0026960D01*
X0416431Y0025961D02*
X0458045Y0025961D01*
X0456793Y0024963D02*
X0393500Y0024963D01*
X0393359Y0023964D02*
X0455541Y0023964D01*
X0454289Y0022966D02*
X0392916Y0022966D01*
X0391824Y0021967D02*
X0453037Y0021967D01*
X0451546Y0020969D02*
X0377083Y0020969D01*
X0377421Y0020829D02*
X0375850Y0021480D01*
X0374150Y0021480D01*
X0372579Y0020829D01*
X0371376Y0019626D01*
X0370725Y0018055D01*
X0370725Y0016354D01*
X0371376Y0014783D01*
X0372579Y0013581D01*
X0374150Y0012930D01*
X0375850Y0012930D01*
X0377421Y0013581D01*
X0378624Y0014783D01*
X0378672Y0014900D01*
X0402504Y0014900D01*
X0403159Y0014245D01*
X0404354Y0013750D01*
X0405646Y0013750D01*
X0406841Y0014245D01*
X0407755Y0015159D01*
X0408250Y0016354D01*
X0408250Y0017646D01*
X0407755Y0018841D01*
X0406841Y0019755D01*
X0405646Y0020250D01*
X0404354Y0020250D01*
X0403159Y0019755D01*
X0402504Y0019100D01*
X0378842Y0019100D01*
X0378624Y0019626D01*
X0377421Y0020829D01*
X0378280Y0019970D02*
X0403678Y0019970D01*
X0406322Y0019970D02*
X0449957Y0019970D01*
X0448368Y0018972D02*
X0407624Y0018972D01*
X0408115Y0017973D02*
X0446779Y0017973D01*
X0445190Y0016975D02*
X0408250Y0016975D01*
X0408094Y0015976D02*
X0443601Y0015976D01*
X0441897Y0014978D02*
X0407574Y0014978D01*
X0406200Y0013979D02*
X0439824Y0013979D01*
X0437751Y0012981D02*
X0375973Y0012981D01*
X0374027Y0012981D02*
X0344610Y0012981D01*
X0345024Y0011982D02*
X0435677Y0011982D01*
X0433604Y0010984D02*
X0345400Y0010984D01*
X0345400Y0009985D02*
X0431530Y0009985D01*
X0428709Y0008987D02*
X0345400Y0008987D01*
X0345012Y0007988D02*
X0425855Y0007988D01*
X0423002Y0006990D02*
X0344598Y0006990D01*
X0343628Y0005991D02*
X0420148Y0005991D01*
X0415862Y0004993D02*
X0342022Y0004993D01*
X0337978Y0004993D02*
X0332022Y0004993D01*
X0333628Y0005991D02*
X0336372Y0005991D01*
X0335402Y0006990D02*
X0334598Y0006990D01*
X0342094Y0014978D02*
X0371295Y0014978D01*
X0370882Y0015976D02*
X0343613Y0015976D01*
X0344592Y0016975D02*
X0370725Y0016975D01*
X0370725Y0017973D02*
X0345005Y0017973D01*
X0345400Y0018972D02*
X0371105Y0018972D01*
X0371720Y0019970D02*
X0345400Y0019970D01*
X0345400Y0020969D02*
X0372917Y0020969D01*
X0372180Y0013979D02*
X0343658Y0013979D01*
X0345030Y0021967D02*
X0388176Y0021967D01*
X0387084Y0022966D02*
X0344616Y0022966D01*
X0343672Y0023964D02*
X0386641Y0023964D01*
X0386500Y0024963D02*
X0342130Y0024963D01*
X0343598Y0025961D02*
X0386610Y0025961D01*
X0387023Y0026960D02*
X0344586Y0026960D01*
X0344999Y0027958D02*
X0388009Y0027958D01*
X0390987Y0028957D02*
X0345400Y0028957D01*
X0345400Y0029955D02*
X0414486Y0029955D01*
X0415484Y0030954D02*
X0345400Y0030954D01*
X0345036Y0031952D02*
X0416483Y0031952D01*
X0403800Y0013979D02*
X0377820Y0013979D01*
X0397197Y0001997D02*
X0102803Y0001997D01*
X0093941Y0002996D02*
X0406059Y0002996D01*
X0411488Y0003994D02*
X0088512Y0003994D01*
X0129900Y0057914D02*
X0015069Y0057914D01*
X0014588Y0058912D02*
X0129900Y0058912D01*
X0129900Y0059911D02*
X0014107Y0059911D01*
X0013626Y0060909D02*
X0129900Y0060909D01*
X0129900Y0061908D02*
X0013145Y0061908D01*
X0012664Y0062906D02*
X0129900Y0062906D01*
X0129900Y0063905D02*
X0012183Y0063905D01*
X0011703Y0064903D02*
X0129900Y0064903D01*
X0129900Y0065902D02*
X0011222Y0065902D01*
X0184109Y0081878D02*
X0185400Y0081878D01*
X0185400Y0082876D02*
X0185326Y0082876D01*
X0199600Y0102847D02*
X0252900Y0102847D01*
X0252900Y0103845D02*
X0199600Y0103845D01*
X0199600Y0104844D02*
X0252900Y0104844D01*
X0252900Y0105842D02*
X0199600Y0105842D01*
X0199600Y0106841D02*
X0252900Y0106841D01*
X0252900Y0107839D02*
X0199600Y0107839D01*
X0199600Y0108838D02*
X0253368Y0108838D01*
X0254130Y0109600D02*
X0254130Y0109600D01*
X0254366Y0109836D02*
X0199600Y0109836D01*
X0199600Y0110835D02*
X0255365Y0110835D01*
X0256363Y0111833D02*
X0199600Y0111833D01*
X0199600Y0112832D02*
X0257362Y0112832D01*
X0258360Y0113830D02*
X0199600Y0113830D01*
X0199600Y0114829D02*
X0259359Y0114829D01*
X0260357Y0115827D02*
X0199600Y0115827D01*
X0199600Y0116826D02*
X0261356Y0116826D01*
X0262355Y0117824D02*
X0199600Y0117824D01*
X0199600Y0118823D02*
X0263353Y0118823D01*
X0264352Y0119821D02*
X0199600Y0119821D01*
X0199600Y0120820D02*
X0265350Y0120820D01*
X0266349Y0121818D02*
X0199600Y0121818D01*
X0199600Y0122817D02*
X0267347Y0122817D01*
X0267900Y0123815D02*
X0199600Y0123815D01*
X0199600Y0124814D02*
X0267900Y0124814D01*
X0267900Y0125812D02*
X0199600Y0125812D01*
X0199600Y0126811D02*
X0267900Y0126811D01*
X0267900Y0127809D02*
X0199600Y0127809D01*
X0199600Y0128808D02*
X0267900Y0128808D01*
X0267900Y0129806D02*
X0199600Y0129806D01*
X0199600Y0130805D02*
X0267900Y0130805D01*
X0267900Y0131803D02*
X0199600Y0131803D01*
X0199600Y0132802D02*
X0267900Y0132802D01*
X0267900Y0133801D02*
X0199600Y0133801D01*
X0199600Y0134799D02*
X0267900Y0134799D01*
X0267900Y0135798D02*
X0199600Y0135798D01*
X0199600Y0136796D02*
X0267900Y0136796D01*
X0267256Y0137795D02*
X0199600Y0137795D01*
X0199600Y0138793D02*
X0266712Y0138793D01*
X0266500Y0139792D02*
X0259741Y0139792D01*
X0255259Y0139792D02*
X0199741Y0139792D01*
X0200580Y0140790D02*
X0254420Y0140790D01*
X0254006Y0141789D02*
X0200994Y0141789D01*
X0201000Y0142787D02*
X0254000Y0142787D01*
X0254244Y0143786D02*
X0200756Y0143786D01*
X0200166Y0144784D02*
X0254834Y0144784D01*
X0256279Y0145783D02*
X0198721Y0145783D01*
X0195400Y0134799D02*
X0194749Y0134799D01*
X0194600Y0133801D02*
X0195400Y0133801D01*
X0195400Y0132802D02*
X0194600Y0132802D01*
X0194600Y0131803D02*
X0195400Y0131803D01*
X0195400Y0130805D02*
X0194600Y0130805D01*
X0194600Y0129806D02*
X0195400Y0129806D01*
X0195400Y0128808D02*
X0194600Y0128808D01*
X0258721Y0145783D02*
X0267813Y0145783D01*
X0266814Y0144784D02*
X0260166Y0144784D01*
X0288279Y0127809D02*
X0289840Y0127809D01*
X0289278Y0128808D02*
X0290838Y0128808D01*
X0291630Y0129600D02*
X0268264Y0106234D01*
X0268500Y0106804D01*
X0268500Y0108030D01*
X0298370Y0137900D01*
X0326630Y0137900D01*
X0331630Y0132900D01*
X0338370Y0132900D01*
X0339600Y0134130D01*
X0340870Y0135400D01*
X0350450Y0135400D01*
X0349533Y0134483D01*
X0349000Y0133196D01*
X0349000Y0131804D01*
X0349533Y0130517D01*
X0350400Y0129650D01*
X0350400Y0128370D01*
X0347500Y0125470D01*
X0347500Y0125696D01*
X0346967Y0126983D01*
X0345983Y0127967D01*
X0344696Y0128500D01*
X0343470Y0128500D01*
X0342370Y0129600D01*
X0322370Y0129600D01*
X0321500Y0130470D01*
X0321500Y0131696D01*
X0320967Y0132983D01*
X0319983Y0133967D01*
X0318696Y0134500D01*
X0317304Y0134500D01*
X0316017Y0133967D01*
X0315033Y0132983D01*
X0314500Y0131696D01*
X0314500Y0130304D01*
X0315033Y0129017D01*
X0316017Y0128033D01*
X0317304Y0127500D01*
X0318530Y0127500D01*
X0320630Y0125400D01*
X0340500Y0125400D01*
X0340500Y0124304D01*
X0341033Y0123017D01*
X0342017Y0122033D01*
X0343304Y0121500D01*
X0343530Y0121500D01*
X0339130Y0117100D01*
X0327050Y0117100D01*
X0327967Y0118017D01*
X0328500Y0119304D01*
X0328500Y0120696D01*
X0327967Y0121983D01*
X0326983Y0122967D01*
X0325696Y0123500D01*
X0324304Y0123500D01*
X0323017Y0122967D01*
X0322750Y0122700D01*
X0291963Y0122700D01*
X0290971Y0122289D01*
X0269682Y0101000D01*
X0269304Y0101000D01*
X0268734Y0100764D01*
X0292760Y0124790D01*
X0293017Y0124533D01*
X0294304Y0124000D01*
X0295696Y0124000D01*
X0296983Y0124533D01*
X0297967Y0125517D01*
X0298500Y0126804D01*
X0298500Y0128196D01*
X0297967Y0129483D01*
X0296983Y0130467D01*
X0295696Y0131000D01*
X0294304Y0131000D01*
X0293017Y0130467D01*
X0292150Y0129600D01*
X0291630Y0129600D01*
X0292357Y0129806D02*
X0290276Y0129806D01*
X0291275Y0130805D02*
X0293833Y0130805D01*
X0292273Y0131803D02*
X0314544Y0131803D01*
X0314500Y0130805D02*
X0296167Y0130805D01*
X0297643Y0129806D02*
X0314706Y0129806D01*
X0315242Y0128808D02*
X0298247Y0128808D01*
X0298500Y0127809D02*
X0316557Y0127809D01*
X0319219Y0126811D02*
X0298500Y0126811D01*
X0298089Y0125812D02*
X0320218Y0125812D01*
X0322867Y0122817D02*
X0290787Y0122817D01*
X0290500Y0121818D02*
X0289788Y0121818D01*
X0289502Y0120820D02*
X0288790Y0120820D01*
X0288503Y0119821D02*
X0287791Y0119821D01*
X0287504Y0118823D02*
X0286793Y0118823D01*
X0286506Y0117824D02*
X0285794Y0117824D01*
X0285507Y0116826D02*
X0284796Y0116826D01*
X0284509Y0115827D02*
X0283797Y0115827D01*
X0283510Y0114829D02*
X0282799Y0114829D01*
X0282512Y0113830D02*
X0281800Y0113830D01*
X0281513Y0112832D02*
X0280802Y0112832D01*
X0280515Y0111833D02*
X0279803Y0111833D01*
X0279516Y0110835D02*
X0278805Y0110835D01*
X0278518Y0109836D02*
X0277806Y0109836D01*
X0277519Y0108838D02*
X0276808Y0108838D01*
X0276521Y0107839D02*
X0275809Y0107839D01*
X0275522Y0106841D02*
X0274811Y0106841D01*
X0274524Y0105842D02*
X0273812Y0105842D01*
X0273525Y0104844D02*
X0272814Y0104844D01*
X0272527Y0103845D02*
X0271815Y0103845D01*
X0271528Y0102847D02*
X0270816Y0102847D01*
X0270530Y0101848D02*
X0269818Y0101848D01*
X0268941Y0100850D02*
X0268819Y0100850D01*
X0268871Y0106841D02*
X0268500Y0106841D01*
X0268500Y0107839D02*
X0269869Y0107839D01*
X0269308Y0108838D02*
X0270868Y0108838D01*
X0270306Y0109836D02*
X0271866Y0109836D01*
X0271305Y0110835D02*
X0272865Y0110835D01*
X0272303Y0111833D02*
X0273863Y0111833D01*
X0273302Y0112832D02*
X0274862Y0112832D01*
X0274300Y0113830D02*
X0275860Y0113830D01*
X0275299Y0114829D02*
X0276859Y0114829D01*
X0276297Y0115827D02*
X0277857Y0115827D01*
X0277296Y0116826D02*
X0278856Y0116826D01*
X0278294Y0117824D02*
X0279854Y0117824D01*
X0279293Y0118823D02*
X0280853Y0118823D01*
X0280291Y0119821D02*
X0281852Y0119821D01*
X0281290Y0120820D02*
X0282850Y0120820D01*
X0282288Y0121818D02*
X0283849Y0121818D01*
X0283287Y0122817D02*
X0284847Y0122817D01*
X0284285Y0123815D02*
X0285846Y0123815D01*
X0285284Y0124814D02*
X0286844Y0124814D01*
X0286282Y0125812D02*
X0287843Y0125812D01*
X0287281Y0126811D02*
X0288841Y0126811D01*
X0291785Y0123815D02*
X0340702Y0123815D01*
X0340500Y0124814D02*
X0297264Y0124814D01*
X0293272Y0132802D02*
X0314958Y0132802D01*
X0315851Y0133801D02*
X0294270Y0133801D01*
X0295269Y0134799D02*
X0329731Y0134799D01*
X0328733Y0135798D02*
X0296267Y0135798D01*
X0297266Y0136796D02*
X0327734Y0136796D01*
X0326736Y0137795D02*
X0298264Y0137795D01*
X0302737Y0142787D02*
X0332837Y0142787D01*
X0331952Y0141789D02*
X0328681Y0141789D01*
X0329680Y0140790D02*
X0331539Y0140790D01*
X0331500Y0139792D02*
X0330678Y0139792D01*
X0331677Y0138793D02*
X0331712Y0138793D01*
X0330730Y0133801D02*
X0320149Y0133801D01*
X0321042Y0132802D02*
X0349000Y0132802D01*
X0349000Y0131803D02*
X0321456Y0131803D01*
X0321500Y0130805D02*
X0349414Y0130805D01*
X0350244Y0129806D02*
X0322163Y0129806D01*
X0327133Y0122817D02*
X0341233Y0122817D01*
X0342535Y0121818D02*
X0328035Y0121818D01*
X0328449Y0120820D02*
X0342850Y0120820D01*
X0341852Y0119821D02*
X0328500Y0119821D01*
X0328301Y0118823D02*
X0340853Y0118823D01*
X0339855Y0117824D02*
X0327774Y0117824D01*
X0343162Y0128808D02*
X0350400Y0128808D01*
X0349840Y0127809D02*
X0346140Y0127809D01*
X0347038Y0126811D02*
X0348841Y0126811D01*
X0347843Y0125812D02*
X0347452Y0125812D01*
X0349250Y0133801D02*
X0339270Y0133801D01*
X0340269Y0134799D02*
X0349849Y0134799D01*
X0354177Y0138793D02*
X0410823Y0138793D01*
X0409825Y0137795D02*
X0355175Y0137795D01*
X0356174Y0136796D02*
X0381326Y0136796D01*
X0380328Y0135798D02*
X0357172Y0135798D01*
X0358171Y0134799D02*
X0379329Y0134799D01*
X0378331Y0133801D02*
X0359169Y0133801D01*
X0359600Y0132802D02*
X0377332Y0132802D01*
X0376334Y0131803D02*
X0359600Y0131803D01*
X0359600Y0130805D02*
X0375335Y0130805D01*
X0374337Y0129806D02*
X0359600Y0129806D01*
X0359600Y0128808D02*
X0373338Y0128808D01*
X0372340Y0127809D02*
X0359600Y0127809D01*
X0359600Y0126811D02*
X0371341Y0126811D01*
X0370343Y0125812D02*
X0359600Y0125812D01*
X0359600Y0124814D02*
X0369344Y0124814D01*
X0369130Y0124600D02*
X0369130Y0124600D01*
X0368346Y0123815D02*
X0359600Y0123815D01*
X0359600Y0122817D02*
X0367867Y0122817D01*
X0366965Y0121818D02*
X0359600Y0121818D01*
X0359600Y0120820D02*
X0366551Y0120820D01*
X0366500Y0119821D02*
X0359600Y0119821D01*
X0359600Y0118823D02*
X0366699Y0118823D01*
X0367226Y0117824D02*
X0359600Y0117824D01*
X0359600Y0116826D02*
X0368517Y0116826D01*
X0367621Y0114829D02*
X0384359Y0114829D01*
X0385357Y0115827D02*
X0366113Y0115827D01*
X0363887Y0115827D02*
X0360143Y0115827D01*
X0361141Y0114829D02*
X0362379Y0114829D01*
X0360189Y0106841D02*
X0359019Y0106841D01*
X0367897Y0102847D02*
X0345000Y0102847D01*
X0345000Y0101848D02*
X0348878Y0101848D01*
X0347880Y0100850D02*
X0345000Y0100850D01*
X0345000Y0098853D02*
X0345883Y0098853D01*
X0345400Y0097854D02*
X0345000Y0097854D01*
X0345000Y0096856D02*
X0345400Y0096856D01*
X0345400Y0095857D02*
X0344927Y0095857D01*
X0345400Y0094859D02*
X0342381Y0094859D01*
X0343777Y0093860D02*
X0345400Y0093860D01*
X0344892Y0092862D02*
X0344660Y0092862D01*
X0346881Y0099851D02*
X0340500Y0099851D01*
X0340500Y0100850D02*
X0339500Y0100850D01*
X0339500Y0101848D02*
X0340500Y0101848D01*
X0340500Y0102847D02*
X0339500Y0102847D01*
X0339500Y0103845D02*
X0340500Y0103845D01*
X0340500Y0104844D02*
X0339500Y0104844D01*
X0335681Y0104844D02*
X0334960Y0104844D01*
X0353842Y0085872D02*
X0410232Y0085872D01*
X0410091Y0084873D02*
X0352843Y0084873D01*
X0352100Y0083875D02*
X0410130Y0083875D01*
X0410353Y0082876D02*
X0352100Y0082876D01*
X0352100Y0081878D02*
X0410779Y0081878D01*
X0412251Y0081878D02*
X0413666Y0081878D01*
X0413250Y0082876D02*
X0414664Y0082876D01*
X0412667Y0080879D02*
X0352100Y0080879D01*
X0352100Y0079881D02*
X0412640Y0079881D01*
X0414914Y0077884D02*
X0352100Y0077884D01*
X0352100Y0078882D02*
X0415913Y0078882D01*
X0413916Y0076885D02*
X0352100Y0076885D01*
X0352100Y0075887D02*
X0412917Y0075887D01*
X0411919Y0074888D02*
X0352100Y0074888D01*
X0352100Y0073890D02*
X0405920Y0073890D01*
X0404921Y0072891D02*
X0352100Y0072891D01*
X0352100Y0071893D02*
X0403923Y0071893D01*
X0402924Y0070894D02*
X0352100Y0070894D01*
X0352100Y0069896D02*
X0401926Y0069896D01*
X0400927Y0068897D02*
X0352100Y0068897D01*
X0352100Y0067899D02*
X0399929Y0067899D01*
X0398930Y0066900D02*
X0352100Y0066900D01*
X0352100Y0065902D02*
X0397932Y0065902D01*
X0396933Y0064903D02*
X0352100Y0064903D01*
X0352100Y0063905D02*
X0395935Y0063905D01*
X0395400Y0062906D02*
X0352100Y0062906D01*
X0352100Y0061908D02*
X0395400Y0061908D01*
X0395400Y0060909D02*
X0352100Y0060909D01*
X0352100Y0059911D02*
X0395400Y0059911D01*
X0395400Y0058912D02*
X0352100Y0058912D01*
X0352100Y0057914D02*
X0394944Y0057914D01*
X0406037Y0060909D02*
X0427091Y0060909D01*
X0426092Y0059911D02*
X0406825Y0059911D01*
X0407613Y0058912D02*
X0425162Y0058912D01*
X0424800Y0057914D02*
X0408402Y0057914D01*
X0409190Y0056915D02*
X0424800Y0056915D01*
X0424800Y0055917D02*
X0423397Y0055917D01*
X0421603Y0055917D02*
X0409978Y0055917D01*
X0410766Y0054918D02*
X0419968Y0054918D01*
X0428089Y0061908D02*
X0406000Y0061908D01*
X0405913Y0062906D02*
X0429088Y0062906D01*
X0430086Y0063905D02*
X0405499Y0063905D01*
X0404546Y0064903D02*
X0427865Y0064903D01*
X0425885Y0065902D02*
X0403872Y0065902D01*
X0404870Y0066900D02*
X0424887Y0066900D01*
X0424256Y0067899D02*
X0405869Y0067899D01*
X0406867Y0068897D02*
X0423842Y0068897D01*
X0423610Y0069896D02*
X0407866Y0069896D01*
X0413864Y0070894D02*
X0423610Y0070894D01*
X0423639Y0071893D02*
X0414863Y0071893D01*
X0415861Y0072891D02*
X0424052Y0072891D01*
X0424466Y0073890D02*
X0416860Y0073890D01*
X0417858Y0074888D02*
X0425393Y0074888D01*
X0426677Y0075887D02*
X0418857Y0075887D01*
X0419855Y0076885D02*
X0478067Y0076885D01*
X0477068Y0075887D02*
X0432444Y0075887D01*
X0433728Y0074888D02*
X0476070Y0074888D01*
X0475071Y0073890D02*
X0434655Y0073890D01*
X0435069Y0072891D02*
X0474073Y0072891D01*
X0473074Y0071893D02*
X0435482Y0071893D01*
X0435510Y0070894D02*
X0472076Y0070894D01*
X0471077Y0069896D02*
X0435510Y0069896D01*
X0435278Y0068897D02*
X0470079Y0068897D01*
X0469080Y0067899D02*
X0434865Y0067899D01*
X0434234Y0066900D02*
X0468082Y0066900D01*
X0467083Y0065902D02*
X0433236Y0065902D01*
X0420854Y0077884D02*
X0479066Y0077884D01*
X0480064Y0078882D02*
X0421852Y0078882D01*
X0422851Y0079881D02*
X0481063Y0079881D01*
X0482061Y0080879D02*
X0423849Y0080879D01*
X0410589Y0086870D02*
X0354840Y0086870D01*
X0371811Y0106841D02*
X0422900Y0106841D01*
X0422900Y0107839D02*
X0372809Y0107839D01*
X0371483Y0116826D02*
X0386356Y0116826D01*
X0387354Y0117824D02*
X0372774Y0117824D01*
X0373301Y0118823D02*
X0388353Y0118823D01*
X0389352Y0119821D02*
X0373500Y0119821D01*
X0373449Y0120820D02*
X0390350Y0120820D01*
X0391349Y0121818D02*
X0373035Y0121818D01*
X0373287Y0122817D02*
X0392347Y0122817D01*
X0393346Y0123815D02*
X0374285Y0123815D01*
X0375284Y0124814D02*
X0394344Y0124814D01*
X0395343Y0125812D02*
X0376282Y0125812D01*
X0377281Y0126811D02*
X0395400Y0126811D01*
X0394741Y0127809D02*
X0378279Y0127809D01*
X0379278Y0128808D02*
X0394205Y0128808D01*
X0394000Y0129806D02*
X0380276Y0129806D01*
X0381275Y0130805D02*
X0394045Y0130805D01*
X0394459Y0131803D02*
X0382273Y0131803D01*
X0383272Y0132802D02*
X0395352Y0132802D01*
X0399648Y0132802D02*
X0422900Y0132802D01*
X0422900Y0133801D02*
X0411770Y0133801D01*
X0412769Y0134799D02*
X0423249Y0134799D01*
X0424091Y0135798D02*
X0413767Y0135798D01*
X0414766Y0136796D02*
X0423677Y0136796D01*
X0423610Y0137795D02*
X0415764Y0137795D01*
X0416763Y0138793D02*
X0423610Y0138793D01*
X0423804Y0139792D02*
X0417761Y0139792D01*
X0418760Y0140790D02*
X0424217Y0140790D01*
X0424793Y0141789D02*
X0419758Y0141789D01*
X0420757Y0142787D02*
X0425792Y0142787D01*
X0427640Y0143786D02*
X0421755Y0143786D01*
X0422754Y0144784D02*
X0468897Y0144784D01*
X0467899Y0145783D02*
X0423752Y0145783D01*
X0424751Y0146781D02*
X0466900Y0146781D01*
X0465902Y0147780D02*
X0425750Y0147780D01*
X0426748Y0148778D02*
X0464903Y0148778D01*
X0463905Y0149777D02*
X0427100Y0149777D01*
X0427100Y0150775D02*
X0462906Y0150775D01*
X0461908Y0151774D02*
X0427100Y0151774D01*
X0427100Y0152772D02*
X0460909Y0152772D01*
X0459911Y0153771D02*
X0427100Y0153771D01*
X0427100Y0154769D02*
X0458912Y0154769D01*
X0457914Y0155768D02*
X0427100Y0155768D01*
X0427100Y0156766D02*
X0456915Y0156766D01*
X0455917Y0157765D02*
X0427715Y0157765D01*
X0428276Y0158763D02*
X0454918Y0158763D01*
X0453920Y0159762D02*
X0428500Y0159762D01*
X0428473Y0160760D02*
X0452921Y0160760D01*
X0451923Y0161759D02*
X0428060Y0161759D01*
X0427192Y0162757D02*
X0450924Y0162757D01*
X0449926Y0163756D02*
X0420074Y0163756D01*
X0419076Y0162757D02*
X0422808Y0162757D01*
X0421940Y0161759D02*
X0418077Y0161759D01*
X0417079Y0160760D02*
X0421527Y0160760D01*
X0421500Y0159762D02*
X0416080Y0159762D01*
X0415082Y0158763D02*
X0421724Y0158763D01*
X0422285Y0157765D02*
X0414083Y0157765D01*
X0418606Y0156766D02*
X0422900Y0156766D01*
X0422900Y0155768D02*
X0418641Y0155768D01*
X0419057Y0154769D02*
X0417643Y0154769D01*
X0418058Y0153771D02*
X0416644Y0153771D01*
X0417060Y0152772D02*
X0415646Y0152772D01*
X0416061Y0151774D02*
X0416635Y0151774D01*
X0415641Y0151353D02*
X0419205Y0147789D01*
X0418550Y0147314D01*
X0417771Y0146917D01*
X0416941Y0146647D01*
X0416078Y0146510D01*
X0415204Y0146510D01*
X0414341Y0146647D01*
X0413511Y0146917D01*
X0412732Y0147314D01*
X0412077Y0147789D01*
X0415641Y0151353D01*
X0415221Y0151774D02*
X0414647Y0151774D01*
X0415063Y0150775D02*
X0413649Y0150775D01*
X0414064Y0149777D02*
X0412650Y0149777D01*
X0413066Y0148778D02*
X0411652Y0148778D01*
X0411165Y0148778D02*
X0405097Y0148778D01*
X0406095Y0149777D02*
X0410576Y0149777D01*
X0410225Y0150775D02*
X0407094Y0150775D01*
X0408092Y0151774D02*
X0410091Y0151774D01*
X0410135Y0152772D02*
X0409091Y0152772D01*
X0410089Y0153771D02*
X0410361Y0153771D01*
X0412091Y0147780D02*
X0404098Y0147780D01*
X0403100Y0146781D02*
X0413929Y0146781D01*
X0417353Y0146781D02*
X0418811Y0146781D01*
X0419191Y0147780D02*
X0419810Y0147780D01*
X0419630Y0148778D02*
X0418216Y0148778D01*
X0418632Y0149777D02*
X0417218Y0149777D01*
X0417633Y0150775D02*
X0416219Y0150775D01*
X0420116Y0148778D02*
X0420808Y0148778D01*
X0420706Y0149777D02*
X0421807Y0149777D01*
X0421057Y0150775D02*
X0422805Y0150775D01*
X0422900Y0151774D02*
X0421191Y0151774D01*
X0421147Y0152772D02*
X0422900Y0152772D01*
X0422900Y0153771D02*
X0420921Y0153771D01*
X0420490Y0154769D02*
X0422900Y0154769D01*
X0421073Y0164754D02*
X0448927Y0164754D01*
X0452570Y0168748D02*
X0460136Y0168748D01*
X0459315Y0169569D02*
X0460989Y0167895D01*
X0463175Y0166990D01*
X0465543Y0166990D01*
X0467729Y0167895D01*
X0469403Y0169569D01*
X0470309Y0171756D01*
X0470309Y0174123D01*
X0469403Y0176310D01*
X0467729Y0177984D01*
X0465543Y0178890D01*
X0463175Y0178890D01*
X0460989Y0177984D01*
X0459315Y0176310D01*
X0458409Y0174123D01*
X0458409Y0171756D01*
X0459315Y0169569D01*
X0459241Y0169747D02*
X0451571Y0169747D01*
X0453568Y0167750D02*
X0461340Y0167750D01*
X0458828Y0170745D02*
X0412700Y0170745D01*
X0412700Y0169747D02*
X0418429Y0169747D01*
X0417430Y0168748D02*
X0412700Y0168748D01*
X0412700Y0167750D02*
X0416432Y0167750D01*
X0415433Y0166751D02*
X0412700Y0166751D01*
X0412700Y0165753D02*
X0414435Y0165753D01*
X0413436Y0164754D02*
X0412700Y0164754D01*
X0407300Y0165753D02*
X0406293Y0165753D01*
X0407300Y0166751D02*
X0403718Y0166751D01*
X0407300Y0167750D02*
X0377720Y0167750D01*
X0376721Y0168748D02*
X0407300Y0168748D01*
X0407300Y0169747D02*
X0375723Y0169747D01*
X0375562Y0170745D02*
X0407300Y0170745D01*
X0407300Y0171744D02*
X0375975Y0171744D01*
X0376000Y0172742D02*
X0407300Y0172742D01*
X0407300Y0173741D02*
X0375774Y0173741D01*
X0375210Y0174739D02*
X0407300Y0174739D01*
X0407300Y0175738D02*
X0373829Y0175738D01*
X0371171Y0175738D02*
X0362354Y0175738D01*
X0364006Y0176737D02*
X0407300Y0176737D01*
X0407300Y0177735D02*
X0365658Y0177735D01*
X0366886Y0178734D02*
X0407300Y0178734D01*
X0407300Y0179732D02*
X0368160Y0179732D01*
X0369133Y0180731D02*
X0407300Y0180731D01*
X0407300Y0181729D02*
X0370181Y0181729D01*
X0370964Y0182728D02*
X0407300Y0182728D01*
X0407300Y0183726D02*
X0371746Y0183726D01*
X0372528Y0184725D02*
X0398625Y0184725D01*
X0396640Y0185723D02*
X0373100Y0185723D01*
X0373802Y0186722D02*
X0395642Y0186722D01*
X0395099Y0187720D02*
X0374307Y0187720D01*
X0374700Y0188719D02*
X0394686Y0188719D01*
X0394600Y0189717D02*
X0375238Y0189717D01*
X0375599Y0190716D02*
X0394600Y0190716D01*
X0394865Y0191714D02*
X0375860Y0191714D01*
X0376257Y0192713D02*
X0395279Y0192713D01*
X0396074Y0193711D02*
X0376483Y0193711D01*
X0376637Y0194710D02*
X0397259Y0194710D01*
X0396655Y0195708D02*
X0376820Y0195708D01*
X0377005Y0196707D02*
X0395657Y0196707D01*
X0395106Y0197705D02*
X0377065Y0197705D01*
X0377126Y0198704D02*
X0394692Y0198704D01*
X0394600Y0199702D02*
X0377200Y0199702D01*
X0377246Y0200701D02*
X0394600Y0200701D01*
X0394859Y0201699D02*
X0377200Y0201699D01*
X0377200Y0202698D02*
X0395273Y0202698D01*
X0396060Y0203696D02*
X0377200Y0203696D01*
X0377200Y0204695D02*
X0397223Y0204695D01*
X0395149Y0205693D02*
X0377200Y0205693D01*
X0377200Y0206692D02*
X0395000Y0206692D01*
X0395000Y0207690D02*
X0377200Y0207690D01*
X0377200Y0208689D02*
X0395000Y0208689D01*
X0395000Y0210686D02*
X0377200Y0210686D01*
X0377200Y0211684D02*
X0395000Y0211684D01*
X0395000Y0212683D02*
X0377200Y0212683D01*
X0377200Y0213681D02*
X0395000Y0213681D01*
X0395441Y0214680D02*
X0377200Y0214680D01*
X0377200Y0215678D02*
X0412923Y0215678D01*
X0417297Y0214680D02*
X0404559Y0214680D01*
X0404498Y0214740D02*
X0404202Y0214911D01*
X0403871Y0215000D01*
X0400500Y0215000D01*
X0400500Y0210500D01*
X0405000Y0210500D01*
X0405000Y0213871D01*
X0404911Y0214202D01*
X0404740Y0214498D01*
X0404498Y0214740D01*
X0405000Y0213681D02*
X0421084Y0213681D01*
X0423938Y0212683D02*
X0405000Y0212683D01*
X0405000Y0211684D02*
X0426791Y0211684D01*
X0429645Y0210686D02*
X0405000Y0210686D01*
X0405000Y0208689D02*
X0434284Y0208689D01*
X0436357Y0207690D02*
X0405000Y0207690D01*
X0405000Y0206692D02*
X0438431Y0206692D01*
X0440504Y0205693D02*
X0404851Y0205693D01*
X0403940Y0203696D02*
X0444122Y0203696D01*
X0445711Y0202698D02*
X0405542Y0202698D01*
X0407119Y0201699D02*
X0447300Y0201699D01*
X0448889Y0200701D02*
X0408118Y0200701D01*
X0409116Y0199702D02*
X0450479Y0199702D01*
X0452068Y0198704D02*
X0410115Y0198704D01*
X0411113Y0197705D02*
X0453448Y0197705D01*
X0454700Y0196707D02*
X0412112Y0196707D01*
X0412629Y0195708D02*
X0455952Y0195708D01*
X0457204Y0194710D02*
X0412700Y0194710D01*
X0412700Y0193711D02*
X0458456Y0193711D01*
X0459708Y0192713D02*
X0412700Y0192713D01*
X0412700Y0191714D02*
X0447744Y0191714D01*
X0447531Y0191606D02*
X0446876Y0191130D01*
X0450440Y0187566D01*
X0454003Y0191130D01*
X0453348Y0191606D01*
X0452570Y0192002D01*
X0451739Y0192272D01*
X0450876Y0192409D01*
X0450003Y0192409D01*
X0449140Y0192272D01*
X0448309Y0192002D01*
X0447531Y0191606D01*
X0447290Y0190716D02*
X0412700Y0190716D01*
X0412700Y0189717D02*
X0445667Y0189717D01*
X0445693Y0189768D02*
X0445296Y0188989D01*
X0445026Y0188159D01*
X0444890Y0187296D01*
X0444890Y0186422D01*
X0445026Y0185559D01*
X0445296Y0184729D01*
X0445693Y0183950D01*
X0446169Y0183295D01*
X0449732Y0186859D01*
X0450440Y0186152D01*
X0451147Y0186859D01*
X0450440Y0187566D01*
X0449732Y0186859D01*
X0446169Y0190423D01*
X0445693Y0189768D01*
X0445208Y0188719D02*
X0412700Y0188719D01*
X0412700Y0187720D02*
X0444957Y0187720D01*
X0444890Y0186722D02*
X0412700Y0186722D01*
X0412700Y0185723D02*
X0445000Y0185723D01*
X0445298Y0184725D02*
X0412700Y0184725D01*
X0412700Y0183726D02*
X0445856Y0183726D01*
X0446600Y0183726D02*
X0448014Y0183726D01*
X0447598Y0184725D02*
X0449012Y0184725D01*
X0448597Y0185723D02*
X0450011Y0185723D01*
X0450440Y0186152D02*
X0446876Y0182588D01*
X0447531Y0182112D01*
X0448309Y0181716D01*
X0449140Y0181446D01*
X0450003Y0181309D01*
X0450876Y0181309D01*
X0451739Y0181446D01*
X0452570Y0181716D01*
X0453348Y0182112D01*
X0454003Y0182588D01*
X0450440Y0186152D01*
X0450868Y0185723D02*
X0452283Y0185723D01*
X0451867Y0184725D02*
X0453281Y0184725D01*
X0452865Y0183726D02*
X0454280Y0183726D01*
X0454710Y0183295D02*
X0455186Y0183950D01*
X0455583Y0184729D01*
X0455853Y0185559D01*
X0455990Y0186422D01*
X0455990Y0187296D01*
X0455853Y0188159D01*
X0455583Y0188989D01*
X0455186Y0189768D01*
X0454710Y0190423D01*
X0451147Y0186859D01*
X0454710Y0183295D01*
X0455024Y0183726D02*
X0469192Y0183726D01*
X0468194Y0184725D02*
X0455581Y0184725D01*
X0455879Y0185723D02*
X0467195Y0185723D01*
X0466197Y0186722D02*
X0455990Y0186722D01*
X0455922Y0187720D02*
X0465198Y0187720D01*
X0464200Y0188719D02*
X0455671Y0188719D01*
X0455212Y0189717D02*
X0463201Y0189717D01*
X0462203Y0190716D02*
X0453589Y0190716D01*
X0454005Y0189717D02*
X0452591Y0189717D01*
X0453006Y0188719D02*
X0451592Y0188719D01*
X0452008Y0187720D02*
X0450594Y0187720D01*
X0450285Y0187720D02*
X0448871Y0187720D01*
X0449287Y0188719D02*
X0447873Y0188719D01*
X0448288Y0189717D02*
X0446874Y0189717D01*
X0449595Y0186722D02*
X0449870Y0186722D01*
X0451009Y0186722D02*
X0451284Y0186722D01*
X0453864Y0182728D02*
X0470191Y0182728D01*
X0471101Y0181729D02*
X0452596Y0181729D01*
X0448283Y0181729D02*
X0412700Y0181729D01*
X0412700Y0180731D02*
X0471897Y0180731D01*
X0472694Y0179732D02*
X0412700Y0179732D01*
X0412700Y0178734D02*
X0462799Y0178734D01*
X0460740Y0177735D02*
X0412700Y0177735D01*
X0412700Y0176737D02*
X0459741Y0176737D01*
X0459078Y0175738D02*
X0412700Y0175738D01*
X0412700Y0174739D02*
X0458664Y0174739D01*
X0458409Y0173741D02*
X0412700Y0173741D01*
X0412700Y0172742D02*
X0458409Y0172742D01*
X0458414Y0171744D02*
X0412700Y0171744D01*
X0412700Y0182728D02*
X0447015Y0182728D01*
X0453136Y0191714D02*
X0460960Y0191714D01*
X0465919Y0178734D02*
X0473490Y0178734D01*
X0474286Y0177735D02*
X0467978Y0177735D01*
X0468977Y0176737D02*
X0475082Y0176737D01*
X0475879Y0175738D02*
X0469640Y0175738D01*
X0470054Y0174739D02*
X0476675Y0174739D01*
X0477471Y0173741D02*
X0470309Y0173741D01*
X0470309Y0172742D02*
X0478268Y0172742D01*
X0478907Y0171744D02*
X0470304Y0171744D01*
X0469890Y0170745D02*
X0479535Y0170745D01*
X0480162Y0169747D02*
X0469477Y0169747D01*
X0468582Y0168748D02*
X0480789Y0168748D01*
X0481417Y0167750D02*
X0467378Y0167750D01*
X0460558Y0160760D02*
X0485570Y0160760D01*
X0486051Y0159762D02*
X0461557Y0159762D01*
X0462555Y0158763D02*
X0486532Y0158763D01*
X0487013Y0157765D02*
X0463554Y0157765D01*
X0464552Y0156766D02*
X0487493Y0156766D01*
X0487974Y0155768D02*
X0465551Y0155768D01*
X0466549Y0154769D02*
X0488455Y0154769D01*
X0488936Y0153771D02*
X0467548Y0153771D01*
X0468546Y0152772D02*
X0489417Y0152772D01*
X0489898Y0151774D02*
X0469545Y0151774D01*
X0470543Y0150775D02*
X0490290Y0150775D01*
X0490640Y0149777D02*
X0471542Y0149777D01*
X0472540Y0148778D02*
X0490989Y0148778D01*
X0491339Y0147780D02*
X0473539Y0147780D01*
X0474537Y0146781D02*
X0491688Y0146781D01*
X0492037Y0145783D02*
X0475536Y0145783D01*
X0476534Y0144784D02*
X0492387Y0144784D01*
X0492736Y0143786D02*
X0477533Y0143786D01*
X0478531Y0142787D02*
X0493086Y0142787D01*
X0493435Y0141789D02*
X0479530Y0141789D01*
X0480528Y0140790D02*
X0493784Y0140790D01*
X0494111Y0139792D02*
X0481527Y0139792D01*
X0482525Y0138793D02*
X0494339Y0138793D01*
X0494566Y0137795D02*
X0483524Y0137795D01*
X0484522Y0136796D02*
X0494794Y0136796D01*
X0495022Y0135798D02*
X0485521Y0135798D01*
X0486519Y0134799D02*
X0495250Y0134799D01*
X0495478Y0133801D02*
X0487384Y0133801D01*
X0487700Y0132802D02*
X0495706Y0132802D01*
X0495934Y0131803D02*
X0487700Y0131803D01*
X0487700Y0130805D02*
X0496162Y0130805D01*
X0496390Y0129806D02*
X0487700Y0129806D01*
X0487700Y0128808D02*
X0496618Y0128808D01*
X0496807Y0127809D02*
X0487700Y0127809D01*
X0487700Y0126811D02*
X0496920Y0126811D01*
X0497032Y0125812D02*
X0487700Y0125812D01*
X0487700Y0124814D02*
X0497145Y0124814D01*
X0497257Y0123815D02*
X0487700Y0123815D01*
X0487700Y0122817D02*
X0497370Y0122817D01*
X0497482Y0121818D02*
X0487700Y0121818D01*
X0487700Y0120820D02*
X0497595Y0120820D01*
X0497707Y0119821D02*
X0487700Y0119821D01*
X0487700Y0118823D02*
X0497820Y0118823D01*
X0497932Y0117824D02*
X0487700Y0117824D01*
X0487700Y0116826D02*
X0498045Y0116826D01*
X0498136Y0115827D02*
X0487700Y0115827D01*
X0487700Y0114829D02*
X0498165Y0114829D01*
X0498193Y0113830D02*
X0487700Y0113830D01*
X0487700Y0112832D02*
X0498221Y0112832D01*
X0498249Y0111833D02*
X0487700Y0111833D01*
X0487700Y0110835D02*
X0498277Y0110835D01*
X0498295Y0109836D02*
X0487700Y0109836D01*
X0487700Y0108838D02*
X0498267Y0108838D01*
X0498239Y0107839D02*
X0487700Y0107839D01*
X0487700Y0106841D02*
X0498211Y0106841D01*
X0498183Y0105842D02*
X0487700Y0105842D01*
X0487700Y0104844D02*
X0498155Y0104844D01*
X0498120Y0103845D02*
X0487700Y0103845D01*
X0487700Y0102847D02*
X0498008Y0102847D01*
X0497895Y0101848D02*
X0487700Y0101848D01*
X0487700Y0100850D02*
X0497783Y0100850D01*
X0482300Y0112832D02*
X0427100Y0112832D01*
X0427100Y0113830D02*
X0449868Y0113830D01*
X0450003Y0113809D02*
X0450876Y0113809D01*
X0451739Y0113946D01*
X0452570Y0114216D01*
X0453348Y0114612D01*
X0454003Y0115088D01*
X0450440Y0118652D01*
X0451147Y0119359D01*
X0450440Y0120066D01*
X0454003Y0123630D01*
X0453348Y0124106D01*
X0452570Y0124502D01*
X0451739Y0124772D01*
X0450876Y0124909D01*
X0450003Y0124909D01*
X0449140Y0124772D01*
X0448309Y0124502D01*
X0447531Y0124106D01*
X0446876Y0123630D01*
X0450440Y0120066D01*
X0449732Y0119359D01*
X0450440Y0118652D01*
X0446876Y0115088D01*
X0447531Y0114612D01*
X0448309Y0114216D01*
X0449140Y0113946D01*
X0450003Y0113809D01*
X0451011Y0113830D02*
X0482300Y0113830D01*
X0482300Y0114829D02*
X0453647Y0114829D01*
X0453264Y0115827D02*
X0454678Y0115827D01*
X0454710Y0115795D02*
X0455186Y0116450D01*
X0455583Y0117229D01*
X0455853Y0118059D01*
X0455990Y0118922D01*
X0455990Y0119796D01*
X0455853Y0120659D01*
X0455583Y0121489D01*
X0455186Y0122268D01*
X0454710Y0122923D01*
X0451147Y0119359D01*
X0454710Y0115795D01*
X0454734Y0115827D02*
X0482300Y0115827D01*
X0482300Y0116826D02*
X0455378Y0116826D01*
X0455777Y0117824D02*
X0482300Y0117824D01*
X0482300Y0118823D02*
X0455974Y0118823D01*
X0455986Y0119821D02*
X0482300Y0119821D01*
X0482300Y0120820D02*
X0455801Y0120820D01*
X0455415Y0121818D02*
X0482300Y0121818D01*
X0482300Y0122817D02*
X0454787Y0122817D01*
X0454605Y0122817D02*
X0453190Y0122817D01*
X0453606Y0121818D02*
X0452192Y0121818D01*
X0452608Y0120820D02*
X0451193Y0120820D01*
X0451609Y0119821D02*
X0450684Y0119821D01*
X0450195Y0119821D02*
X0449270Y0119821D01*
X0449732Y0119359D02*
X0446169Y0122923D01*
X0445693Y0122268D01*
X0445296Y0121489D01*
X0445026Y0120659D01*
X0444890Y0119796D01*
X0444890Y0118922D01*
X0445026Y0118059D01*
X0445296Y0117229D01*
X0445693Y0116450D01*
X0446169Y0115795D01*
X0449732Y0119359D01*
X0449196Y0118823D02*
X0450269Y0118823D01*
X0450611Y0118823D02*
X0451683Y0118823D01*
X0451267Y0117824D02*
X0452681Y0117824D01*
X0452266Y0116826D02*
X0453680Y0116826D01*
X0449612Y0117824D02*
X0448198Y0117824D01*
X0448614Y0116826D02*
X0447199Y0116826D01*
X0447615Y0115827D02*
X0446201Y0115827D01*
X0446145Y0115827D02*
X0427100Y0115827D01*
X0427100Y0114829D02*
X0447233Y0114829D01*
X0445501Y0116826D02*
X0427100Y0116826D01*
X0427100Y0117824D02*
X0445103Y0117824D01*
X0444905Y0118823D02*
X0427100Y0118823D01*
X0427100Y0119821D02*
X0444894Y0119821D01*
X0445079Y0120820D02*
X0427100Y0120820D01*
X0427100Y0121818D02*
X0445464Y0121818D01*
X0446092Y0122817D02*
X0427100Y0122817D01*
X0427100Y0123815D02*
X0447131Y0123815D01*
X0447689Y0122817D02*
X0446275Y0122817D01*
X0447273Y0121818D02*
X0448687Y0121818D01*
X0448272Y0120820D02*
X0449686Y0120820D01*
X0449403Y0124814D02*
X0427100Y0124814D01*
X0427100Y0125812D02*
X0482300Y0125812D01*
X0482300Y0124814D02*
X0451477Y0124814D01*
X0453748Y0123815D02*
X0482300Y0123815D01*
X0482300Y0126811D02*
X0427100Y0126811D01*
X0427100Y0127809D02*
X0482300Y0127809D01*
X0482300Y0128808D02*
X0427100Y0128808D01*
X0427100Y0129806D02*
X0482300Y0129806D01*
X0482300Y0130805D02*
X0427100Y0130805D01*
X0427100Y0131803D02*
X0481878Y0131803D01*
X0480880Y0132802D02*
X0432219Y0132802D01*
X0433634Y0133801D02*
X0479881Y0133801D01*
X0478883Y0134799D02*
X0434616Y0134799D01*
X0435030Y0135798D02*
X0477884Y0135798D01*
X0476886Y0136796D02*
X0435444Y0136796D01*
X0435510Y0137795D02*
X0475887Y0137795D01*
X0474889Y0138793D02*
X0435510Y0138793D01*
X0435317Y0139792D02*
X0473890Y0139792D01*
X0472892Y0140790D02*
X0434903Y0140790D01*
X0434327Y0141789D02*
X0471893Y0141789D01*
X0470895Y0142787D02*
X0433329Y0142787D01*
X0431481Y0143786D02*
X0469896Y0143786D01*
X0459560Y0161759D02*
X0485089Y0161759D01*
X0484554Y0162757D02*
X0458561Y0162757D01*
X0457562Y0163756D02*
X0483926Y0163756D01*
X0483299Y0164754D02*
X0456564Y0164754D01*
X0455565Y0165753D02*
X0482672Y0165753D01*
X0482044Y0166751D02*
X0454567Y0166751D01*
X0417813Y0145783D02*
X0402101Y0145783D01*
X0401103Y0144784D02*
X0416814Y0144784D01*
X0415816Y0143786D02*
X0400785Y0143786D01*
X0400237Y0142787D02*
X0414817Y0142787D01*
X0413819Y0141789D02*
X0398893Y0141789D01*
X0396107Y0141789D02*
X0355607Y0141789D01*
X0354608Y0140790D02*
X0412820Y0140790D01*
X0411822Y0139792D02*
X0338610Y0139792D01*
X0338323Y0138793D02*
X0338288Y0138793D01*
X0334967Y0143786D02*
X0303285Y0143786D01*
X0303500Y0144784D02*
X0335966Y0144784D01*
X0351964Y0145783D02*
X0303464Y0145783D01*
X0303051Y0146781D02*
X0352963Y0146781D01*
X0321161Y0156766D02*
X0319736Y0156766D01*
X0310300Y0167750D02*
X0278861Y0167750D01*
X0279860Y0168748D02*
X0310400Y0168748D01*
X0299500Y0175500D02*
X0286200Y0175500D01*
X0286200Y0176604D01*
X0286755Y0177159D01*
X0287250Y0178354D01*
X0287250Y0179646D01*
X0286755Y0180841D01*
X0285841Y0181755D01*
X0285250Y0182000D01*
X0285841Y0182245D01*
X0286755Y0183159D01*
X0287250Y0184354D01*
X0287250Y0185646D01*
X0286755Y0186841D01*
X0285841Y0187755D01*
X0285250Y0188000D01*
X0285841Y0188245D01*
X0286755Y0189159D01*
X0287000Y0189750D01*
X0287245Y0189159D01*
X0288159Y0188245D01*
X0289354Y0187750D01*
X0290646Y0187750D01*
X0291841Y0188245D01*
X0292755Y0189159D01*
X0293000Y0189750D01*
X0293245Y0189159D01*
X0294159Y0188245D01*
X0294750Y0188000D01*
X0294159Y0187755D01*
X0293245Y0186841D01*
X0292750Y0185646D01*
X0292750Y0184354D01*
X0293245Y0183159D01*
X0294159Y0182245D01*
X0295354Y0181750D01*
X0296646Y0181750D01*
X0297841Y0182245D01*
X0298496Y0182900D01*
X0299500Y0182900D01*
X0299500Y0175500D01*
X0299500Y0175738D02*
X0286200Y0175738D01*
X0286333Y0176737D02*
X0299500Y0176737D01*
X0299500Y0177735D02*
X0286994Y0177735D01*
X0287250Y0178734D02*
X0299500Y0178734D01*
X0299500Y0179732D02*
X0287215Y0179732D01*
X0286801Y0180731D02*
X0299500Y0180731D01*
X0299500Y0181729D02*
X0285867Y0181729D01*
X0286324Y0182728D02*
X0293676Y0182728D01*
X0293010Y0183726D02*
X0286990Y0183726D01*
X0287250Y0184725D02*
X0292750Y0184725D01*
X0292782Y0185723D02*
X0287218Y0185723D01*
X0286805Y0186722D02*
X0293195Y0186722D01*
X0294124Y0187720D02*
X0285876Y0187720D01*
X0286315Y0188719D02*
X0287685Y0188719D01*
X0287014Y0189717D02*
X0286986Y0189717D01*
X0292315Y0188719D02*
X0293685Y0188719D01*
X0293014Y0189717D02*
X0292986Y0189717D01*
X0298324Y0182728D02*
X0299500Y0182728D01*
X0290000Y0179000D02*
X0290000Y0169000D01*
X0262283Y0169747D02*
X0239697Y0169747D01*
X0240562Y0170745D02*
X0261285Y0170745D01*
X0260286Y0171744D02*
X0240975Y0171744D01*
X0241000Y0172742D02*
X0259288Y0172742D01*
X0258289Y0173741D02*
X0240774Y0173741D01*
X0240210Y0174739D02*
X0257291Y0174739D01*
X0235303Y0169747D02*
X0219697Y0169747D01*
X0220562Y0170745D02*
X0234438Y0170745D01*
X0234025Y0171744D02*
X0220975Y0171744D01*
X0188042Y0193711D02*
X0166533Y0193711D01*
X0167185Y0194364D02*
X0164386Y0191565D01*
X0160729Y0190050D01*
X0156771Y0190050D01*
X0153114Y0191565D01*
X0150315Y0194364D01*
X0149769Y0195680D01*
X0149622Y0195373D01*
X0149051Y0194465D01*
X0148382Y0193626D01*
X0147624Y0192868D01*
X0146785Y0192199D01*
X0145877Y0191628D01*
X0144910Y0191163D01*
X0143898Y0190809D01*
X0142852Y0190570D01*
X0141786Y0190450D01*
X0141750Y0190450D01*
X0141750Y0199500D01*
X0140750Y0199500D01*
X0131700Y0199500D01*
X0131700Y0199464D01*
X0131820Y0198398D01*
X0132059Y0197352D01*
X0132413Y0196340D01*
X0132878Y0195373D01*
X0133449Y0194465D01*
X0134118Y0193626D01*
X0134876Y0192868D01*
X0135715Y0192199D01*
X0136623Y0191628D01*
X0137590Y0191163D01*
X0138602Y0190809D01*
X0139648Y0190570D01*
X0140714Y0190450D01*
X0140750Y0190450D01*
X0140750Y0199500D01*
X0140750Y0200500D01*
X0140750Y0209550D01*
X0140714Y0209550D01*
X0139648Y0209430D01*
X0138602Y0209191D01*
X0137590Y0208837D01*
X0136623Y0208372D01*
X0135715Y0207801D01*
X0134876Y0207132D01*
X0134118Y0206374D01*
X0133449Y0205535D01*
X0132878Y0204627D01*
X0132413Y0203660D01*
X0132059Y0202648D01*
X0131820Y0201602D01*
X0131700Y0200536D01*
X0131700Y0200500D01*
X0140750Y0200500D01*
X0141750Y0200500D01*
X0141750Y0209550D01*
X0141786Y0209550D01*
X0142852Y0209430D01*
X0143898Y0209191D01*
X0144910Y0208837D01*
X0145877Y0208372D01*
X0146785Y0207801D01*
X0147624Y0207132D01*
X0148382Y0206374D01*
X0149051Y0205535D01*
X0149622Y0204627D01*
X0149769Y0204320D01*
X0150315Y0205636D01*
X0153114Y0208435D01*
X0156771Y0209950D01*
X0160729Y0209950D01*
X0164386Y0208435D01*
X0167185Y0205636D01*
X0168700Y0201979D01*
X0168700Y0198021D01*
X0167185Y0194364D01*
X0167328Y0194710D02*
X0189041Y0194710D01*
X0190039Y0195708D02*
X0167742Y0195708D01*
X0168156Y0196707D02*
X0191038Y0196707D01*
X0192036Y0197705D02*
X0168569Y0197705D01*
X0168700Y0198704D02*
X0193035Y0198704D01*
X0194034Y0199702D02*
X0168700Y0199702D01*
X0168700Y0200701D02*
X0195032Y0200701D01*
X0196031Y0201699D02*
X0168700Y0201699D01*
X0168402Y0202698D02*
X0197029Y0202698D01*
X0198028Y0203696D02*
X0167989Y0203696D01*
X0167575Y0204695D02*
X0199026Y0204695D01*
X0200025Y0205693D02*
X0167128Y0205693D01*
X0166130Y0206692D02*
X0201023Y0206692D01*
X0202022Y0207690D02*
X0165131Y0207690D01*
X0163774Y0208689D02*
X0203020Y0208689D01*
X0204019Y0209687D02*
X0161363Y0209687D01*
X0156137Y0209687D02*
X0115400Y0209687D01*
X0115400Y0208689D02*
X0137282Y0208689D01*
X0135576Y0207690D02*
X0115400Y0207690D01*
X0116278Y0206692D02*
X0134436Y0206692D01*
X0133575Y0205693D02*
X0117277Y0205693D01*
X0118275Y0204695D02*
X0132921Y0204695D01*
X0132430Y0203696D02*
X0119274Y0203696D01*
X0119600Y0202698D02*
X0132076Y0202698D01*
X0131842Y0201699D02*
X0119600Y0201699D01*
X0119600Y0200701D02*
X0131719Y0200701D01*
X0131786Y0198704D02*
X0119600Y0198704D01*
X0119600Y0199702D02*
X0140750Y0199702D01*
X0140750Y0198704D02*
X0141750Y0198704D01*
X0141750Y0197705D02*
X0140750Y0197705D01*
X0140750Y0196707D02*
X0141750Y0196707D01*
X0141750Y0195708D02*
X0140750Y0195708D01*
X0140750Y0194710D02*
X0141750Y0194710D01*
X0141750Y0193711D02*
X0140750Y0193711D01*
X0140750Y0192713D02*
X0141750Y0192713D01*
X0141750Y0191714D02*
X0140750Y0191714D01*
X0140750Y0190716D02*
X0141750Y0190716D01*
X0143490Y0190716D02*
X0155164Y0190716D01*
X0152964Y0191714D02*
X0146013Y0191714D01*
X0147429Y0192713D02*
X0151966Y0192713D01*
X0150967Y0193711D02*
X0148450Y0193711D01*
X0149205Y0194710D02*
X0150172Y0194710D01*
X0141750Y0200701D02*
X0140750Y0200701D01*
X0140750Y0201699D02*
X0141750Y0201699D01*
X0141750Y0202698D02*
X0140750Y0202698D01*
X0140750Y0203696D02*
X0141750Y0203696D01*
X0141750Y0204695D02*
X0140750Y0204695D01*
X0140750Y0205693D02*
X0141750Y0205693D01*
X0141750Y0206692D02*
X0140750Y0206692D01*
X0140750Y0207690D02*
X0141750Y0207690D01*
X0141750Y0208689D02*
X0140750Y0208689D01*
X0145218Y0208689D02*
X0153726Y0208689D01*
X0152369Y0207690D02*
X0146924Y0207690D01*
X0148064Y0206692D02*
X0151370Y0206692D01*
X0150372Y0205693D02*
X0148925Y0205693D01*
X0149579Y0204695D02*
X0149925Y0204695D01*
X0131978Y0197705D02*
X0119600Y0197705D01*
X0119600Y0196707D02*
X0132285Y0196707D01*
X0132717Y0195708D02*
X0119600Y0195708D01*
X0119600Y0194710D02*
X0133295Y0194710D01*
X0134050Y0193711D02*
X0119600Y0193711D01*
X0119600Y0192713D02*
X0135071Y0192713D01*
X0136487Y0191714D02*
X0119600Y0191714D01*
X0119600Y0190716D02*
X0139010Y0190716D01*
X0119600Y0189717D02*
X0184048Y0189717D01*
X0183050Y0188719D02*
X0119600Y0188719D01*
X0119600Y0187720D02*
X0182051Y0187720D01*
X0181053Y0186722D02*
X0119600Y0186722D01*
X0119600Y0185723D02*
X0180054Y0185723D01*
X0179056Y0184725D02*
X0119600Y0184725D01*
X0119600Y0183726D02*
X0178057Y0183726D01*
X0177059Y0182728D02*
X0119600Y0182728D01*
X0119600Y0181729D02*
X0176060Y0181729D01*
X0175062Y0180731D02*
X0119600Y0180731D01*
X0119600Y0179732D02*
X0174063Y0179732D01*
X0173065Y0178734D02*
X0119600Y0178734D01*
X0115400Y0184725D02*
X0111375Y0184725D01*
X0113360Y0185723D02*
X0115400Y0185723D01*
X0115400Y0186722D02*
X0114358Y0186722D01*
X0114901Y0187720D02*
X0115400Y0187720D01*
X0115400Y0188719D02*
X0115314Y0188719D01*
X0115400Y0189717D02*
X0115400Y0189717D01*
X0115400Y0190716D02*
X0115400Y0190716D01*
X0115400Y0191714D02*
X0115135Y0191714D01*
X0115400Y0192713D02*
X0114721Y0192713D01*
X0115400Y0193711D02*
X0113926Y0193711D01*
X0112741Y0194710D02*
X0115400Y0194710D01*
X0115400Y0195708D02*
X0113345Y0195708D01*
X0114343Y0196707D02*
X0115400Y0196707D01*
X0115400Y0197705D02*
X0114894Y0197705D01*
X0115308Y0198704D02*
X0115400Y0198704D01*
X0115400Y0199702D02*
X0115400Y0199702D01*
X0115400Y0200701D02*
X0115400Y0200701D01*
X0115331Y0201699D02*
X0115141Y0201699D01*
X0106060Y0203696D02*
X0055878Y0203696D01*
X0054289Y0202698D02*
X0105273Y0202698D01*
X0103729Y0201699D02*
X0052700Y0201699D01*
X0051111Y0200701D02*
X0102731Y0200701D01*
X0105501Y0204695D02*
X0057467Y0204695D01*
X0059496Y0205693D02*
X0104600Y0205693D01*
X0104600Y0206692D02*
X0061569Y0206692D01*
X0063643Y0207690D02*
X0104600Y0207690D01*
X0104600Y0208689D02*
X0065716Y0208689D01*
X0067790Y0209687D02*
X0104600Y0209687D01*
X0104600Y0210686D02*
X0070355Y0210686D01*
X0073209Y0211684D02*
X0104600Y0211684D01*
X0104600Y0212683D02*
X0076062Y0212683D01*
X0078916Y0213681D02*
X0104600Y0213681D01*
X0104876Y0214680D02*
X0082703Y0214680D01*
X0087077Y0215678D02*
X0246028Y0215678D01*
X0248972Y0215678D02*
X0322800Y0215678D01*
X0322800Y0214680D02*
X0250270Y0214680D01*
X0250799Y0213681D02*
X0322800Y0213681D01*
X0322800Y0212683D02*
X0251000Y0212683D01*
X0250951Y0211684D02*
X0322800Y0211684D01*
X0322800Y0210686D02*
X0250537Y0210686D01*
X0249637Y0209687D02*
X0322800Y0209687D01*
X0322800Y0208689D02*
X0210657Y0208689D01*
X0211655Y0209687D02*
X0245363Y0209687D01*
X0265274Y0203696D02*
X0288100Y0203696D01*
X0287185Y0202698D02*
X0266272Y0202698D01*
X0267271Y0201699D02*
X0286772Y0201699D01*
X0286750Y0200701D02*
X0268269Y0200701D01*
X0269268Y0199702D02*
X0274500Y0199702D01*
X0274500Y0198704D02*
X0270266Y0198704D01*
X0271265Y0197705D02*
X0274500Y0197705D01*
X0274500Y0196707D02*
X0272263Y0196707D01*
X0273262Y0195708D02*
X0274500Y0195708D01*
X0291900Y0203696D02*
X0322800Y0203696D01*
X0325000Y0203696D02*
X0332430Y0203696D01*
X0332413Y0203660D02*
X0332059Y0202648D01*
X0331820Y0201602D01*
X0331700Y0200536D01*
X0331700Y0200500D01*
X0340750Y0200500D01*
X0340750Y0209550D01*
X0340714Y0209550D01*
X0339648Y0209430D01*
X0338602Y0209191D01*
X0337590Y0208837D01*
X0336623Y0208372D01*
X0335715Y0207801D01*
X0334876Y0207132D01*
X0334118Y0206374D01*
X0333449Y0205535D01*
X0332878Y0204627D01*
X0332413Y0203660D01*
X0332076Y0202698D02*
X0325000Y0202698D01*
X0325000Y0201699D02*
X0331842Y0201699D01*
X0331719Y0200701D02*
X0325000Y0200701D01*
X0325018Y0199702D02*
X0340750Y0199702D01*
X0340750Y0199500D02*
X0331700Y0199500D01*
X0331700Y0199464D01*
X0331820Y0198398D01*
X0332059Y0197352D01*
X0332413Y0196340D01*
X0332878Y0195373D01*
X0333449Y0194465D01*
X0334118Y0193626D01*
X0334876Y0192868D01*
X0335715Y0192199D01*
X0336623Y0191628D01*
X0337590Y0191163D01*
X0338602Y0190809D01*
X0339648Y0190570D01*
X0340714Y0190450D01*
X0340750Y0190450D01*
X0340750Y0199500D01*
X0340750Y0200500D01*
X0341750Y0200500D01*
X0341750Y0209550D01*
X0341786Y0209550D01*
X0342852Y0209430D01*
X0343898Y0209191D01*
X0344910Y0208837D01*
X0345877Y0208372D01*
X0346785Y0207801D01*
X0347624Y0207132D01*
X0348382Y0206374D01*
X0349051Y0205535D01*
X0349622Y0204627D01*
X0349769Y0204320D01*
X0350315Y0205636D01*
X0353114Y0208435D01*
X0356771Y0209950D01*
X0360729Y0209950D01*
X0364386Y0208435D01*
X0367185Y0205636D01*
X0368700Y0201979D01*
X0368700Y0198021D01*
X0367185Y0194364D01*
X0364386Y0191565D01*
X0360729Y0190050D01*
X0356771Y0190050D01*
X0353114Y0191565D01*
X0350315Y0194364D01*
X0349769Y0195680D01*
X0349622Y0195373D01*
X0349051Y0194465D01*
X0348382Y0193626D01*
X0347624Y0192868D01*
X0346785Y0192199D01*
X0345877Y0191628D01*
X0344910Y0191163D01*
X0343898Y0190809D01*
X0342852Y0190570D01*
X0341786Y0190450D01*
X0341750Y0190450D01*
X0341750Y0199500D01*
X0340750Y0199500D01*
X0340750Y0198704D02*
X0341750Y0198704D01*
X0341750Y0197705D02*
X0340750Y0197705D01*
X0340750Y0196707D02*
X0341750Y0196707D01*
X0341750Y0195708D02*
X0340750Y0195708D01*
X0340750Y0194710D02*
X0341750Y0194710D01*
X0341750Y0193711D02*
X0340750Y0193711D01*
X0340750Y0192713D02*
X0341750Y0192713D01*
X0341750Y0191714D02*
X0340750Y0191714D01*
X0340750Y0190716D02*
X0341750Y0190716D01*
X0343490Y0190716D02*
X0355164Y0190716D01*
X0352964Y0191714D02*
X0346013Y0191714D01*
X0347429Y0192713D02*
X0351966Y0192713D01*
X0350967Y0193711D02*
X0348450Y0193711D01*
X0349205Y0194710D02*
X0350172Y0194710D01*
X0341750Y0200701D02*
X0340750Y0200701D01*
X0340750Y0201699D02*
X0341750Y0201699D01*
X0341750Y0202698D02*
X0340750Y0202698D01*
X0340750Y0203696D02*
X0341750Y0203696D01*
X0341750Y0204695D02*
X0340750Y0204695D01*
X0340750Y0205693D02*
X0341750Y0205693D01*
X0341750Y0206692D02*
X0340750Y0206692D01*
X0340750Y0207690D02*
X0341750Y0207690D01*
X0341750Y0208689D02*
X0340750Y0208689D01*
X0337282Y0208689D02*
X0325000Y0208689D01*
X0325000Y0209687D02*
X0356137Y0209687D01*
X0353726Y0208689D02*
X0345218Y0208689D01*
X0346924Y0207690D02*
X0352369Y0207690D01*
X0351370Y0206692D02*
X0348064Y0206692D01*
X0348925Y0205693D02*
X0350372Y0205693D01*
X0349925Y0204695D02*
X0349579Y0204695D01*
X0361363Y0209687D02*
X0375000Y0209687D01*
X0375000Y0208689D02*
X0363774Y0208689D01*
X0365131Y0207690D02*
X0375000Y0207690D01*
X0375000Y0206692D02*
X0366130Y0206692D01*
X0367128Y0205693D02*
X0375000Y0205693D01*
X0375000Y0204695D02*
X0367575Y0204695D01*
X0367989Y0203696D02*
X0375000Y0203696D01*
X0375000Y0202698D02*
X0368402Y0202698D01*
X0368700Y0201699D02*
X0375000Y0201699D01*
X0375000Y0200701D02*
X0368700Y0200701D01*
X0368700Y0199702D02*
X0374982Y0199702D01*
X0374922Y0198704D02*
X0368700Y0198704D01*
X0368569Y0197705D02*
X0374861Y0197705D01*
X0374766Y0196707D02*
X0368156Y0196707D01*
X0367742Y0195708D02*
X0374583Y0195708D01*
X0374400Y0194710D02*
X0367328Y0194710D01*
X0366533Y0193711D02*
X0374178Y0193711D01*
X0373867Y0192713D02*
X0365534Y0192713D01*
X0364536Y0191714D02*
X0373556Y0191714D01*
X0373187Y0190716D02*
X0362336Y0190716D01*
X0369733Y0184725D02*
X0330267Y0184725D01*
X0329484Y0185723D02*
X0370516Y0185723D01*
X0371133Y0186722D02*
X0328867Y0186722D01*
X0328264Y0187720D02*
X0371736Y0187720D01*
X0372288Y0188719D02*
X0327712Y0188719D01*
X0327263Y0189717D02*
X0372737Y0189717D01*
X0368951Y0183726D02*
X0331049Y0183726D01*
X0331982Y0182728D02*
X0368018Y0182728D01*
X0367020Y0181729D02*
X0332980Y0181729D01*
X0334132Y0180731D02*
X0365868Y0180731D01*
X0364593Y0179732D02*
X0335407Y0179732D01*
X0336943Y0178734D02*
X0363057Y0178734D01*
X0361332Y0177735D02*
X0338668Y0177735D01*
X0339010Y0190716D02*
X0326813Y0190716D01*
X0326444Y0191714D02*
X0336487Y0191714D01*
X0335071Y0192713D02*
X0326133Y0192713D01*
X0325822Y0193711D02*
X0334050Y0193711D01*
X0333295Y0194710D02*
X0325600Y0194710D01*
X0325417Y0195708D02*
X0332717Y0195708D01*
X0332285Y0196707D02*
X0325234Y0196707D01*
X0325139Y0197705D02*
X0331978Y0197705D01*
X0331786Y0198704D02*
X0325078Y0198704D01*
X0325000Y0204695D02*
X0332921Y0204695D01*
X0333575Y0205693D02*
X0325000Y0205693D01*
X0325000Y0206692D02*
X0334436Y0206692D01*
X0335576Y0207690D02*
X0325000Y0207690D01*
X0322800Y0207690D02*
X0209658Y0207690D01*
X0208660Y0206692D02*
X0322800Y0206692D01*
X0325000Y0210686D02*
X0375000Y0210686D01*
X0375000Y0211684D02*
X0325000Y0211684D01*
X0325000Y0212683D02*
X0375000Y0212683D01*
X0375000Y0213681D02*
X0325000Y0213681D01*
X0325000Y0214680D02*
X0375000Y0214680D01*
X0375000Y0215678D02*
X0325000Y0215678D01*
X0325000Y0216677D02*
X0375000Y0216677D01*
X0375000Y0217675D02*
X0325000Y0217675D01*
X0322800Y0217675D02*
X0099897Y0217675D01*
X0091452Y0216677D02*
X0322800Y0216677D01*
X0377200Y0216677D02*
X0408548Y0216677D01*
X0400500Y0214680D02*
X0399500Y0214680D01*
X0399500Y0213681D02*
X0400500Y0213681D01*
X0400500Y0212683D02*
X0399500Y0212683D01*
X0399500Y0211684D02*
X0400500Y0211684D01*
X0400500Y0210686D02*
X0399500Y0210686D01*
X0399500Y0209687D02*
X0377200Y0209687D01*
X0377200Y0217675D02*
X0400103Y0217675D01*
X0400500Y0209687D02*
X0432210Y0209687D01*
X0442533Y0204695D02*
X0402777Y0204695D01*
X0404343Y0196707D02*
X0404475Y0196707D01*
X0405473Y0195708D02*
X0403345Y0195708D01*
X0402741Y0194710D02*
X0406472Y0194710D01*
X0407300Y0193711D02*
X0403926Y0193711D01*
X0404721Y0192713D02*
X0407300Y0192713D01*
X0407300Y0191714D02*
X0405135Y0191714D01*
X0405400Y0190716D02*
X0407300Y0190716D01*
X0407300Y0189717D02*
X0405400Y0189717D01*
X0405314Y0188719D02*
X0407300Y0188719D01*
X0407300Y0187720D02*
X0404901Y0187720D01*
X0404358Y0186722D02*
X0407300Y0186722D01*
X0407300Y0185723D02*
X0403360Y0185723D01*
X0401375Y0184725D02*
X0407300Y0184725D01*
X0407212Y0159762D02*
X0407300Y0159762D01*
X0400541Y0131803D02*
X0422900Y0131803D01*
X0422900Y0130805D02*
X0400955Y0130805D01*
X0401000Y0129806D02*
X0422900Y0129806D01*
X0422900Y0128808D02*
X0400795Y0128808D01*
X0400259Y0127809D02*
X0422900Y0127809D01*
X0422900Y0126811D02*
X0399600Y0126811D01*
X0399600Y0125812D02*
X0422900Y0125812D01*
X0422900Y0124814D02*
X0399600Y0124814D01*
X0399285Y0123815D02*
X0422900Y0123815D01*
X0422900Y0122817D02*
X0398287Y0122817D01*
X0397288Y0121818D02*
X0422900Y0121818D01*
X0422900Y0120820D02*
X0396290Y0120820D01*
X0395291Y0119821D02*
X0422900Y0119821D01*
X0422900Y0118823D02*
X0394293Y0118823D01*
X0393294Y0117824D02*
X0422900Y0117824D01*
X0422900Y0116826D02*
X0392296Y0116826D01*
X0391297Y0115827D02*
X0416387Y0115827D01*
X0414879Y0114829D02*
X0390299Y0114829D01*
X0389300Y0113830D02*
X0414263Y0113830D01*
X0414000Y0112832D02*
X0388302Y0112832D01*
X0416808Y0108838D02*
X0422900Y0108838D01*
X0422900Y0109836D02*
X0419786Y0109836D01*
X0420599Y0110835D02*
X0422900Y0110835D01*
X0422900Y0111833D02*
X0421000Y0111833D01*
X0421000Y0112832D02*
X0422900Y0112832D01*
X0422900Y0113830D02*
X0420737Y0113830D01*
X0420121Y0114829D02*
X0422900Y0114829D01*
X0422900Y0115827D02*
X0418613Y0115827D01*
X0363945Y0056915D02*
X0352100Y0056915D01*
X0352100Y0055917D02*
X0362947Y0055917D01*
X0361948Y0054918D02*
X0352100Y0054918D01*
X0352100Y0053920D02*
X0360950Y0053920D01*
X0359951Y0052921D02*
X0352100Y0052921D01*
X0352100Y0051923D02*
X0358953Y0051923D01*
X0357954Y0050924D02*
X0351394Y0050924D01*
X0350395Y0049926D02*
X0356956Y0049926D01*
X0355957Y0048927D02*
X0349397Y0048927D01*
X0348398Y0047929D02*
X0355400Y0047929D01*
X0355400Y0046930D02*
X0347400Y0046930D01*
X0346401Y0045932D02*
X0355400Y0045932D01*
X0355400Y0044933D02*
X0345403Y0044933D01*
X0344404Y0043934D02*
X0355400Y0043934D01*
X0355400Y0042936D02*
X0344629Y0042936D01*
X0345042Y0041937D02*
X0354514Y0041937D01*
X0354101Y0040939D02*
X0348344Y0040939D01*
X0346656Y0040939D02*
X0345400Y0040939D01*
X0350009Y0039940D02*
X0354000Y0039940D01*
X0354150Y0038942D02*
X0350691Y0038942D01*
X0351000Y0037943D02*
X0354607Y0037943D01*
X0349079Y0032951D02*
X0344623Y0032951D01*
X0343687Y0033949D02*
X0348081Y0033949D01*
X0345102Y0034948D02*
X0342166Y0034948D01*
X0343583Y0035946D02*
X0344355Y0035946D01*
X0324970Y0021967D02*
X0298503Y0021967D01*
X0299501Y0020969D02*
X0324600Y0020969D01*
X0324600Y0019970D02*
X0300500Y0019970D01*
X0301498Y0018972D02*
X0324600Y0018972D01*
X0324995Y0017973D02*
X0302497Y0017973D01*
X0297504Y0022966D02*
X0314064Y0022966D01*
X0313066Y0023964D02*
X0296506Y0023964D01*
X0295507Y0024963D02*
X0312067Y0024963D01*
X0311069Y0025961D02*
X0294509Y0025961D01*
X0293510Y0026960D02*
X0310070Y0026960D01*
X0309072Y0027958D02*
X0292512Y0027958D01*
X0291513Y0028957D02*
X0308073Y0028957D01*
X0307900Y0029955D02*
X0290514Y0029955D01*
X0289516Y0030954D02*
X0307900Y0030954D01*
X0307900Y0031952D02*
X0288517Y0031952D01*
X0287519Y0032951D02*
X0307900Y0032951D01*
X0307900Y0033949D02*
X0286520Y0033949D01*
X0285522Y0034948D02*
X0307900Y0034948D01*
X0307900Y0035946D02*
X0284523Y0035946D01*
X0283525Y0036945D02*
X0307900Y0036945D01*
X0307900Y0037943D02*
X0282526Y0037943D01*
X0281528Y0038942D02*
X0307900Y0038942D01*
X0307900Y0039940D02*
X0280529Y0039940D01*
X0279531Y0040939D02*
X0307900Y0040939D01*
X0307900Y0041937D02*
X0278532Y0041937D01*
X0277534Y0042936D02*
X0307900Y0042936D01*
X0307900Y0043934D02*
X0276535Y0043934D01*
X0275537Y0044933D02*
X0307900Y0044933D01*
X0307900Y0045932D02*
X0274538Y0045932D01*
X0273540Y0046930D02*
X0307900Y0046930D01*
X0307900Y0047929D02*
X0272541Y0047929D01*
X0271543Y0048927D02*
X0307900Y0048927D01*
X0307900Y0049926D02*
X0270544Y0049926D01*
X0269546Y0050924D02*
X0307900Y0050924D01*
X0307900Y0051923D02*
X0268547Y0051923D01*
X0267549Y0052921D02*
X0307900Y0052921D01*
X0307900Y0053920D02*
X0266550Y0053920D01*
X0265552Y0054918D02*
X0307900Y0054918D01*
X0103792Y0175738D02*
X0100559Y0175738D01*
X0100972Y0176737D02*
X0102794Y0176737D01*
X0101795Y0177735D02*
X0101000Y0177735D01*
X0100797Y0178734D02*
X0100777Y0178734D01*
X0115400Y0210686D02*
X0205017Y0210686D01*
X0206016Y0211684D02*
X0115400Y0211684D01*
X0115400Y0212683D02*
X0207014Y0212683D01*
X0208013Y0213681D02*
X0115400Y0213681D01*
X0115124Y0214680D02*
X0209011Y0214680D01*
X0187044Y0192713D02*
X0165534Y0192713D01*
X0164536Y0191714D02*
X0186045Y0191714D01*
X0185047Y0190716D02*
X0162336Y0190716D01*
D23*
X0210650Y0212500D02*
X0127992Y0129843D01*
X0127500Y0142500D02*
X0110000Y0125000D01*
X0107500Y0155000D02*
X0085000Y0155000D01*
X0107500Y0155000D02*
X0112500Y0160000D01*
X0210650Y0212500D02*
X0247500Y0212500D01*
X0335000Y0140000D02*
X0337500Y0142500D01*
X0352500Y0142500D01*
X0355000Y0145000D01*
X0397500Y0145000D01*
X0410000Y0157500D01*
X0420000Y0167500D01*
X0450000Y0167500D01*
X0485000Y0132500D01*
X0485000Y0080000D01*
X0467500Y0062500D01*
X0432500Y0062500D01*
X0427500Y0057500D01*
X0427500Y0050000D01*
X0425000Y0047500D01*
X0395000Y0047500D01*
X0392500Y0050000D01*
X0367500Y0050000D01*
X0292500Y0120000D02*
X0270000Y0097500D01*
X0292500Y0120000D02*
X0325000Y0120000D01*
X0397500Y0145000D02*
X0405000Y0152500D01*
X0410000Y0157500D02*
X0410000Y0195000D01*
X0405000Y0200000D01*
X0400000Y0200000D01*
X0052500Y0077500D02*
X0030000Y0077500D01*
D24*
X0099843Y0079646D02*
X0099843Y0101693D01*
X0127992Y0129843D01*
D25*
X0212500Y0192500D02*
X0217500Y0187500D01*
X0212500Y0192500D02*
X0212500Y0195000D01*
D26*
X0220000Y0175000D02*
X0235000Y0175000D01*
X0237500Y0172500D01*
X0220000Y0175000D02*
X0217500Y0172500D01*
M02*
