G75*
%MOIN*%
%OFA0B0*%
%FSLAX24Y24*%
%IPPOS*%
%LPD*%
%AMOC8*
5,1,8,0,0,1.08239X$1,22.5*
%
%ADD10C,0.0060*%
%ADD11C,0.0040*%
%ADD12C,0.0050*%
%ADD13R,0.0160X0.0340*%
%ADD14R,0.0690X0.0290*%
%ADD15R,0.0150X0.0200*%
%ADD16C,0.0080*%
%ADD17R,0.0197X0.0374*%
%ADD18R,0.0669X0.0295*%
%ADD19R,0.0374X0.0197*%
%ADD20R,0.0295X0.0571*%
%ADD21R,0.0070X0.0010*%
%ADD22R,0.0080X0.0010*%
%ADD23R,0.0120X0.0010*%
%ADD24R,0.0110X0.0010*%
%ADD25R,0.0130X0.0010*%
%ADD26R,0.0100X0.0010*%
%ADD27R,0.0090X0.0010*%
%ADD28R,0.0140X0.0010*%
%ADD29R,0.0190X0.0010*%
%ADD30R,0.0180X0.0010*%
%ADD31R,0.0170X0.0010*%
%ADD32R,0.0270X0.0010*%
%ADD33R,0.0230X0.0010*%
%ADD34R,0.0220X0.0010*%
%ADD35R,0.0310X0.0010*%
%ADD36R,0.0210X0.0010*%
%ADD37R,0.0260X0.0010*%
%ADD38R,0.0250X0.0010*%
%ADD39R,0.0330X0.0010*%
%ADD40R,0.0240X0.0010*%
%ADD41R,0.0290X0.0010*%
%ADD42R,0.0280X0.0010*%
%ADD43R,0.0340X0.0010*%
%ADD44R,0.0350X0.0010*%
%ADD45R,0.0360X0.0010*%
%ADD46R,0.0370X0.0010*%
%ADD47R,0.0160X0.0010*%
%ADD48R,0.0380X0.0010*%
%ADD49R,0.0150X0.0010*%
%ADD50R,0.0320X0.0010*%
%ADD51R,0.0200X0.0010*%
%ADD52R,0.0300X0.0010*%
%ADD53R,0.6840X0.0010*%
%ADD54R,0.0720X0.0010*%
%ADD55R,0.1380X0.0010*%
%ADD56R,0.0920X0.0010*%
%ADD57R,0.0730X0.0010*%
%ADD58R,0.0420X0.0010*%
%ADD59R,0.0570X0.0010*%
%ADD60R,0.0020X0.0010*%
%ADD61R,0.0590X0.0010*%
%ADD62R,0.0540X0.0010*%
%ADD63R,0.0460X0.0010*%
%ADD64R,0.0400X0.0010*%
%ADD65R,0.0050X0.0010*%
%ADD66R,0.0390X0.0010*%
%ADD67R,0.0440X0.0010*%
%ADD68R,0.0410X0.0010*%
%ADD69R,0.1140X0.0010*%
%ADD70R,0.1040X0.0010*%
%ADD71R,0.1150X0.0010*%
%ADD72R,0.0530X0.0010*%
%ADD73R,0.0820X0.0010*%
%ADD74R,0.1110X0.0010*%
%ADD75R,0.0630X0.0010*%
%ADD76R,0.0450X0.0010*%
%ADD77R,0.1070X0.0010*%
%ADD78R,0.1920X0.0010*%
%ADD79R,0.1790X0.0010*%
%ADD80R,0.1720X0.0010*%
%ADD81R,0.1570X0.0010*%
%ADD82R,0.1410X0.0010*%
%ADD83R,0.1310X0.0010*%
%ADD84R,0.1120X0.0010*%
%ADD85R,0.0750X0.0010*%
%ADD86R,0.0430X0.0010*%
%ADD87R,0.0600X0.0010*%
%ADD88R,0.1290X0.0010*%
%ADD89R,0.1190X0.0010*%
%ADD90R,0.1060X0.0010*%
%ADD91R,0.0860X0.0010*%
%ADD92R,0.1000X0.0010*%
%ADD93R,0.0960X0.0010*%
%ADD94R,0.0910X0.0010*%
%ADD95R,0.0340X0.0160*%
D10*
X004068Y002830D02*
X004068Y003170D01*
X004238Y003000D01*
X004011Y003000D01*
X004380Y002887D02*
X004380Y003114D01*
X004436Y003170D01*
X004550Y003170D01*
X004607Y003114D01*
X004607Y002887D01*
X004550Y002830D01*
X004436Y002830D01*
X004380Y002887D01*
X004748Y002830D02*
X004918Y003000D01*
X004975Y002943D02*
X004748Y003170D01*
X004975Y003170D02*
X004975Y002830D01*
X004975Y004830D02*
X004975Y005170D01*
X004918Y005000D02*
X004748Y004830D01*
X004607Y004887D02*
X004550Y004830D01*
X004436Y004830D01*
X004380Y004887D01*
X004380Y005114D01*
X004436Y005170D01*
X004550Y005170D01*
X004607Y005114D01*
X004607Y004887D01*
X004748Y005170D02*
X004975Y004943D01*
X004238Y004887D02*
X004182Y004830D01*
X004068Y004830D01*
X004011Y004887D01*
X004011Y004943D01*
X004068Y005000D01*
X004125Y005000D01*
X004068Y005000D02*
X004011Y005057D01*
X004011Y005114D01*
X004068Y005170D01*
X004182Y005170D01*
X004238Y005114D01*
X004370Y005830D02*
X004484Y005830D01*
X004427Y005830D02*
X004427Y006170D01*
X004484Y006170D02*
X004370Y006170D01*
X004238Y006000D02*
X004011Y006000D01*
X004068Y005830D02*
X004068Y006170D01*
X004238Y006000D01*
X004625Y005830D02*
X004795Y006000D01*
X004852Y005943D02*
X004625Y006170D01*
X004852Y006170D02*
X004852Y005830D01*
X004761Y006830D02*
X004988Y007170D01*
X005130Y007170D02*
X005357Y007170D01*
X005243Y007170D02*
X005243Y006830D01*
X004988Y006830D02*
X004761Y007170D01*
X004748Y007830D02*
X004918Y008000D01*
X004975Y007943D02*
X004748Y008170D01*
X004607Y008114D02*
X004607Y007887D01*
X004550Y007830D01*
X004436Y007830D01*
X004380Y007887D01*
X004380Y008114D01*
X004436Y008170D01*
X004550Y008170D01*
X004607Y008114D01*
X004238Y008114D02*
X004182Y008170D01*
X004068Y008170D01*
X004011Y008114D01*
X004011Y008057D01*
X004238Y007830D01*
X004011Y007830D01*
X004975Y007830D02*
X004975Y008170D01*
X004975Y008830D02*
X004975Y009170D01*
X004918Y009000D02*
X004748Y008830D01*
X004607Y008887D02*
X004607Y009114D01*
X004550Y009170D01*
X004436Y009170D01*
X004380Y009114D01*
X004380Y008887D01*
X004436Y008830D01*
X004550Y008830D01*
X004607Y008887D01*
X004748Y009170D02*
X004975Y008943D01*
X004238Y008830D02*
X004011Y008830D01*
X004125Y008830D02*
X004125Y009170D01*
X004238Y009057D01*
X004182Y009830D02*
X004068Y009830D01*
X004011Y009887D01*
X004011Y009943D01*
X004068Y010000D01*
X004125Y010000D01*
X004068Y010000D02*
X004011Y010057D01*
X004011Y010114D01*
X004068Y010170D01*
X004182Y010170D01*
X004238Y010114D01*
X004380Y010170D02*
X004380Y009943D01*
X004493Y009830D01*
X004607Y009943D01*
X004607Y010170D01*
X004748Y010114D02*
X004748Y010057D01*
X004805Y010000D01*
X004748Y009943D01*
X004748Y009887D01*
X004805Y009830D01*
X004918Y009830D01*
X004975Y009887D01*
X004862Y010000D02*
X004805Y010000D01*
X004748Y010114D02*
X004805Y010170D01*
X004918Y010170D01*
X004975Y010114D01*
X004238Y009887D02*
X004182Y009830D01*
X005923Y007170D02*
X005866Y007114D01*
X005866Y007000D01*
X005923Y006943D01*
X006093Y006943D01*
X006093Y006830D02*
X006093Y007170D01*
X005923Y007170D01*
X005980Y006943D02*
X005866Y006830D01*
X006225Y006830D02*
X006339Y006830D01*
X006282Y006830D02*
X006282Y007170D01*
X006339Y007170D02*
X006225Y007170D01*
X008130Y013760D02*
X008470Y013760D01*
X008470Y014040D02*
X008130Y014040D01*
X007740Y015050D02*
X007740Y015350D01*
X008880Y015350D01*
X008880Y015050D01*
X007740Y015050D01*
X009630Y014940D02*
X009970Y014940D01*
X009970Y014660D02*
X009630Y014660D01*
X009070Y016970D02*
X009070Y017725D01*
X008430Y017725D02*
X008430Y016970D01*
X005420Y016770D02*
X005420Y017525D01*
X004780Y017525D02*
X004780Y016770D01*
X014730Y019260D02*
X015070Y019260D01*
X015070Y019540D02*
X014730Y019540D01*
X017430Y018440D02*
X017770Y018440D01*
X017770Y018160D02*
X017430Y018160D01*
X018560Y018480D02*
X018560Y018820D01*
X018840Y018820D02*
X018840Y018480D01*
X019958Y018337D02*
X020321Y018337D01*
X020321Y019063D01*
X019958Y019063D01*
X019958Y018337D01*
X020321Y018337D01*
X020321Y019063D01*
X019958Y019063D01*
X019958Y018337D01*
X019420Y022360D02*
X019080Y022360D01*
X019080Y022640D02*
X019420Y022640D01*
X019013Y010170D02*
X018900Y010170D01*
X018843Y010114D01*
X018843Y010000D02*
X018957Y010000D01*
X018843Y010000D02*
X018843Y009887D01*
X018900Y009830D01*
X019013Y009830D01*
X019070Y009887D01*
X019070Y010114D01*
X019013Y010170D01*
X018702Y010170D02*
X018702Y009830D01*
X018475Y009830D02*
X018475Y010170D01*
X018333Y010170D02*
X018333Y009830D01*
X018163Y009830D01*
X018107Y009887D01*
X018107Y010114D01*
X018163Y010170D01*
X018333Y010170D01*
X018475Y009830D02*
X018702Y010170D01*
X018320Y009170D02*
X018150Y009170D01*
X018093Y009114D01*
X018093Y009000D01*
X018150Y008943D01*
X018320Y008943D01*
X018320Y008830D02*
X018320Y009170D01*
X017952Y009170D02*
X017952Y008830D01*
X017838Y008943D01*
X017725Y008830D01*
X017725Y009170D01*
X017583Y009170D02*
X017470Y009057D01*
X017357Y009170D01*
X017357Y008830D01*
X017583Y008830D02*
X017583Y009170D01*
X017725Y008170D02*
X017952Y007830D01*
X018093Y007830D02*
X018207Y007943D01*
X018150Y007943D02*
X018320Y007943D01*
X018320Y007830D02*
X018320Y008170D01*
X018150Y008170D01*
X018093Y008114D01*
X018093Y008000D01*
X018150Y007943D01*
X017952Y008170D02*
X017725Y007830D01*
X016720Y007860D02*
X016380Y007860D01*
X016380Y008140D02*
X016720Y008140D01*
X018343Y003170D02*
X018343Y002830D01*
X018456Y002830D02*
X018229Y002830D01*
X018456Y003057D02*
X018343Y003170D01*
X018588Y003170D02*
X018702Y003170D01*
X018645Y003170D02*
X018645Y002830D01*
X018702Y002830D02*
X018588Y002830D01*
X018843Y002830D02*
X019013Y003000D01*
X019070Y002943D02*
X018843Y003170D01*
X019070Y003170D02*
X019070Y002830D01*
X019070Y002170D02*
X019070Y001830D01*
X019070Y001943D02*
X018843Y002170D01*
X018702Y002170D02*
X018588Y002170D01*
X018645Y002170D02*
X018645Y001830D01*
X018702Y001830D02*
X018588Y001830D01*
X018456Y001830D02*
X018229Y002057D01*
X018229Y002114D01*
X018286Y002170D01*
X018399Y002170D01*
X018456Y002114D01*
X018456Y001830D02*
X018229Y001830D01*
X018843Y001830D02*
X019013Y002000D01*
X019070Y001170D02*
X019070Y000830D01*
X019070Y000943D02*
X018843Y001170D01*
X018702Y001170D02*
X018588Y001170D01*
X018645Y001170D02*
X018645Y000830D01*
X018702Y000830D02*
X018588Y000830D01*
X018456Y000887D02*
X018399Y000830D01*
X018286Y000830D01*
X018229Y000887D01*
X018229Y000943D01*
X018286Y001000D01*
X018343Y001000D01*
X018286Y001000D02*
X018229Y001057D01*
X018229Y001114D01*
X018286Y001170D01*
X018399Y001170D01*
X018456Y001114D01*
X018843Y000830D02*
X019013Y001000D01*
D11*
X018907Y007870D02*
X019080Y008000D01*
X018907Y008130D01*
X018804Y008000D02*
X018630Y007870D01*
X018804Y008000D02*
X018630Y008130D01*
X018804Y008870D02*
X018630Y009000D01*
X018804Y009130D01*
X018907Y009000D02*
X019080Y008870D01*
X018907Y009000D02*
X019080Y009130D01*
X016730Y008650D02*
X016730Y008370D01*
X016730Y008463D02*
X016590Y008463D01*
X016543Y008510D01*
X016543Y008604D01*
X016590Y008650D01*
X016730Y008650D01*
X016637Y008463D02*
X016543Y008370D01*
X016435Y008417D02*
X016389Y008370D01*
X016295Y008370D01*
X016249Y008417D01*
X016249Y008463D01*
X016295Y008510D01*
X016435Y008510D01*
X016435Y008417D01*
X016435Y008510D02*
X016342Y008604D01*
X016249Y008650D01*
X010060Y014180D02*
X010060Y014460D01*
X009920Y014460D01*
X009873Y014414D01*
X009873Y014320D01*
X009920Y014273D01*
X010060Y014273D01*
X009967Y014273D02*
X009873Y014180D01*
X009765Y014227D02*
X009719Y014180D01*
X009625Y014180D01*
X009579Y014227D01*
X009579Y014414D01*
X009625Y014460D01*
X009719Y014460D01*
X009765Y014414D01*
X009765Y014367D01*
X009719Y014320D01*
X009579Y014320D01*
X008529Y013410D02*
X008389Y013410D01*
X008342Y013364D01*
X008342Y013270D01*
X008389Y013223D01*
X008529Y013223D01*
X008529Y013130D02*
X008529Y013410D01*
X008436Y013223D02*
X008342Y013130D01*
X008235Y013130D02*
X008235Y013177D01*
X008048Y013364D01*
X008048Y013410D01*
X008235Y013410D01*
X007496Y014530D02*
X007496Y014810D01*
X007589Y014810D02*
X007402Y014810D01*
X007295Y014717D02*
X007201Y014810D01*
X007201Y014530D01*
X007108Y014530D02*
X007295Y014530D01*
X004530Y017070D02*
X004530Y017350D01*
X004390Y017350D01*
X004343Y017304D01*
X004343Y017210D01*
X004390Y017163D01*
X004530Y017163D01*
X004437Y017163D02*
X004343Y017070D01*
X004235Y017070D02*
X004049Y017070D01*
X004142Y017070D02*
X004142Y017350D01*
X004235Y017257D01*
X005198Y019820D02*
X005385Y019820D01*
X005198Y020007D01*
X005198Y020054D01*
X005245Y020100D01*
X005338Y020100D01*
X005385Y020054D01*
X005492Y020054D02*
X005539Y020100D01*
X005633Y020100D01*
X005679Y020054D01*
X005679Y019867D01*
X005633Y019820D01*
X005539Y019820D01*
X005492Y019867D01*
X005990Y019620D02*
X005990Y020380D01*
X006610Y020380D02*
X006610Y019620D01*
X006980Y020060D02*
X006980Y020340D01*
X007315Y020340D02*
X007315Y020060D01*
X007688Y020044D02*
X007688Y019997D01*
X007735Y019950D01*
X007688Y019903D01*
X007688Y019857D01*
X007735Y019810D01*
X007828Y019810D01*
X007875Y019857D01*
X007982Y019857D02*
X008029Y019810D01*
X008123Y019810D01*
X008169Y019857D01*
X008169Y020044D01*
X008123Y020090D01*
X008029Y020090D01*
X007982Y020044D01*
X007875Y020044D02*
X007828Y020090D01*
X007735Y020090D01*
X007688Y020044D01*
X007735Y019950D02*
X007781Y019950D01*
X007847Y018670D02*
X007927Y018670D01*
X007968Y018630D01*
X007968Y018590D01*
X007927Y018550D01*
X007847Y018550D01*
X007807Y018510D01*
X007807Y018470D01*
X007847Y018430D01*
X007927Y018430D01*
X007968Y018470D01*
X007807Y018630D02*
X007847Y018670D01*
X007710Y018550D02*
X007670Y018590D01*
X007590Y018590D01*
X007550Y018550D01*
X007550Y018510D01*
X007710Y018510D01*
X007710Y018470D02*
X007710Y018550D01*
X007710Y018470D02*
X007670Y018430D01*
X007590Y018430D01*
X007412Y018470D02*
X007372Y018430D01*
X007412Y018470D02*
X007412Y018630D01*
X007452Y018590D02*
X007372Y018590D01*
X008317Y018590D02*
X008397Y018590D01*
X008357Y018630D02*
X008357Y018470D01*
X008317Y018430D01*
X008495Y018430D02*
X008495Y018550D01*
X008535Y018590D01*
X008655Y018590D01*
X008655Y018430D01*
X008753Y018510D02*
X008913Y018510D01*
X008913Y018470D02*
X008913Y018550D01*
X008873Y018590D01*
X008793Y018590D01*
X008753Y018550D01*
X008753Y018510D01*
X008793Y018430D02*
X008873Y018430D01*
X008913Y018470D01*
X009008Y018590D02*
X009048Y018590D01*
X009128Y018510D01*
X009128Y018430D02*
X009128Y018590D01*
X009222Y018590D02*
X009262Y018590D01*
X009343Y018510D01*
X009343Y018430D02*
X009343Y018590D01*
X009440Y018590D02*
X009440Y018430D01*
X009560Y018430D01*
X009600Y018470D01*
X009600Y018590D01*
X009698Y018630D02*
X009738Y018670D01*
X009818Y018670D01*
X009858Y018630D01*
X009858Y018470D01*
X009818Y018430D01*
X009738Y018430D01*
X009698Y018470D01*
X010214Y018430D02*
X010374Y018670D01*
X010472Y018670D02*
X010632Y018670D01*
X010552Y018670D02*
X010552Y018430D01*
X010374Y018430D02*
X010214Y018670D01*
X009860Y017540D02*
X009720Y017540D01*
X009673Y017494D01*
X009673Y017400D01*
X009720Y017353D01*
X009860Y017353D01*
X009860Y017260D02*
X009860Y017540D01*
X009767Y017353D02*
X009673Y017260D01*
X009565Y017260D02*
X009379Y017447D01*
X009379Y017494D01*
X009425Y017540D01*
X009519Y017540D01*
X009565Y017494D01*
X009565Y017260D02*
X009379Y017260D01*
X014700Y019990D02*
X015000Y019990D01*
X015000Y020510D02*
X014710Y020510D01*
X014730Y020810D02*
X015010Y020810D01*
X015010Y021145D02*
X014730Y021145D01*
X015688Y020770D02*
X015875Y020770D01*
X015781Y020770D02*
X015781Y021050D01*
X015875Y020957D01*
X015982Y021004D02*
X016029Y021050D01*
X016123Y021050D01*
X016169Y021004D01*
X016169Y020817D01*
X016123Y020770D01*
X016029Y020770D01*
X015982Y020817D01*
X016019Y020380D02*
X016113Y020380D01*
X016159Y020334D01*
X016159Y020147D01*
X016113Y020100D01*
X016019Y020100D01*
X015972Y020147D01*
X015865Y020240D02*
X015678Y020240D01*
X015725Y020100D02*
X015725Y020380D01*
X015865Y020240D01*
X015972Y020334D02*
X016019Y020380D01*
X016019Y019540D02*
X015972Y019494D01*
X015972Y019400D01*
X016019Y019353D01*
X016159Y019353D01*
X016159Y019260D02*
X016159Y019540D01*
X016019Y019540D01*
X015865Y019494D02*
X015818Y019540D01*
X015725Y019540D01*
X015678Y019494D01*
X015678Y019447D01*
X015725Y019400D01*
X015678Y019353D01*
X015678Y019307D01*
X015725Y019260D01*
X015818Y019260D01*
X015865Y019307D01*
X015972Y019260D02*
X016066Y019353D01*
X015771Y019400D02*
X015725Y019400D01*
X017388Y017930D02*
X017575Y017930D01*
X017575Y017790D01*
X017481Y017837D01*
X017435Y017837D01*
X017388Y017790D01*
X017388Y017697D01*
X017435Y017650D01*
X017528Y017650D01*
X017575Y017697D01*
X017682Y017650D02*
X017776Y017743D01*
X017729Y017743D02*
X017869Y017743D01*
X017869Y017650D02*
X017869Y017930D01*
X017729Y017930D01*
X017682Y017884D01*
X017682Y017790D01*
X017729Y017743D01*
X018445Y019370D02*
X018539Y019370D01*
X018585Y019417D01*
X018585Y019463D01*
X018539Y019510D01*
X018445Y019510D01*
X018399Y019463D01*
X018399Y019417D01*
X018445Y019370D01*
X018445Y019510D02*
X018399Y019557D01*
X018399Y019604D01*
X018445Y019650D01*
X018539Y019650D01*
X018585Y019604D01*
X018585Y019557D01*
X018539Y019510D01*
X018693Y019510D02*
X018693Y019604D01*
X018740Y019650D01*
X018880Y019650D01*
X018880Y019370D01*
X018880Y019463D02*
X018740Y019463D01*
X018693Y019510D01*
X018787Y019463D02*
X018693Y019370D01*
X020892Y018855D02*
X020939Y018901D01*
X021032Y018901D01*
X021079Y018855D01*
X021187Y018901D02*
X021374Y018901D01*
X021280Y018901D02*
X021280Y018621D01*
X021079Y018621D02*
X020892Y018808D01*
X020892Y018855D01*
X020892Y018621D02*
X021079Y018621D01*
X019559Y022800D02*
X019559Y023080D01*
X019419Y023080D01*
X019372Y023034D01*
X019372Y022940D01*
X019419Y022893D01*
X019559Y022893D01*
X019466Y022893D02*
X019372Y022800D01*
X019265Y022940D02*
X019078Y022940D01*
X019125Y022800D02*
X019125Y023080D01*
X019265Y022940D01*
X004432Y007000D02*
X004259Y007130D01*
X004156Y007000D02*
X003983Y006870D01*
X004156Y007000D02*
X003983Y007130D01*
X004259Y006870D02*
X004432Y007000D01*
X011179Y000902D02*
X011179Y000855D01*
X011225Y000809D01*
X011179Y000762D01*
X011179Y000715D01*
X011225Y000668D01*
X011319Y000668D01*
X011366Y000715D01*
X011272Y000809D02*
X011225Y000809D01*
X011179Y000902D02*
X011225Y000949D01*
X011319Y000949D01*
X011366Y000902D01*
X011473Y000949D02*
X011567Y000949D01*
X011520Y000949D02*
X011520Y000715D01*
X011567Y000668D01*
X011613Y000668D01*
X011660Y000715D01*
D12*
X002287Y000250D02*
X002237Y000300D01*
X002237Y000500D01*
X002437Y000300D01*
X002387Y000250D01*
X002287Y000250D01*
X002437Y000300D02*
X002437Y000500D01*
X002387Y000550D01*
X002287Y000550D01*
X002237Y000500D01*
X002559Y000250D02*
X002760Y000250D01*
X002659Y000250D02*
X002659Y000550D01*
X002760Y000450D01*
X002597Y010450D02*
X002397Y010450D01*
X002497Y010450D02*
X002497Y010750D01*
X002597Y010650D01*
X020257Y010700D02*
X020257Y010500D01*
X020307Y010450D01*
X020407Y010450D01*
X020457Y010500D01*
X020257Y010700D01*
X020307Y010750D01*
X020407Y010750D01*
X020457Y010700D01*
X020457Y010500D01*
X020579Y010450D02*
X020780Y010450D01*
X020579Y010650D01*
X020579Y010700D01*
X020629Y010750D01*
X020730Y010750D01*
X020780Y010700D01*
X020659Y000510D02*
X020659Y000210D01*
X020559Y000210D02*
X020760Y000210D01*
X020760Y000410D02*
X020659Y000510D01*
X020437Y000410D02*
X020337Y000510D01*
X020337Y000210D01*
X020437Y000210D02*
X020237Y000210D01*
D13*
X016800Y008000D03*
X016300Y008000D03*
X010050Y014800D03*
X009550Y014800D03*
X008550Y013900D03*
X008050Y013900D03*
X014650Y019400D03*
X015150Y019400D03*
X017350Y018300D03*
X017850Y018300D03*
X019000Y022500D03*
X019500Y022500D03*
D14*
X008750Y017870D03*
X008750Y016830D03*
X005100Y016630D03*
X005100Y017670D03*
D15*
X008305Y015470D03*
X007925Y014930D03*
X008685Y014930D03*
D16*
X014261Y002166D02*
X014261Y001637D01*
X008749Y001637D01*
X008749Y002126D01*
X008760Y001640D02*
X008570Y001640D01*
X008571Y001639D02*
X008571Y001253D01*
X014428Y001253D01*
X014428Y001639D01*
X014430Y001640D02*
X014250Y001640D01*
X012996Y001519D02*
X012839Y001519D01*
X012917Y001361D01*
X012996Y001519D01*
X012982Y001492D02*
X012852Y001492D01*
X012892Y001413D02*
X012943Y001413D01*
D17*
X014638Y020978D03*
X015098Y020978D03*
D18*
X006300Y020522D03*
X006300Y019478D03*
D19*
X007148Y019972D03*
X007148Y020432D03*
D20*
X014568Y020250D03*
X015138Y020250D03*
D21*
X012030Y023850D03*
X011380Y024140D03*
X011370Y024130D03*
X011370Y024120D03*
X011360Y024110D03*
X011350Y024090D03*
X011350Y024080D03*
X008770Y023050D03*
D22*
X009275Y023480D03*
X009275Y023490D03*
X009275Y023500D03*
X009715Y023390D03*
X009755Y023270D03*
X009765Y023240D03*
X009775Y023210D03*
X009785Y023180D03*
X009785Y023170D03*
X010075Y023150D03*
X010185Y023050D03*
X010305Y023280D03*
X010705Y024170D03*
X011345Y024070D03*
X011345Y024060D03*
X011345Y024050D03*
X011355Y024100D03*
X011385Y024150D03*
X011705Y023920D03*
D23*
X011715Y023930D03*
X011535Y024230D03*
X011505Y024220D03*
X010775Y024220D03*
X010675Y024120D03*
X010485Y023430D03*
X010475Y023420D03*
X010495Y023230D03*
X009835Y023090D03*
X009835Y023080D03*
X009835Y023070D03*
X009295Y023440D03*
X008845Y023440D03*
X008695Y023440D03*
X008645Y023710D03*
X008645Y023720D03*
X012205Y023430D03*
X012225Y023230D03*
X013495Y023220D03*
X013625Y023050D03*
X013745Y023140D03*
X013955Y023150D03*
X013945Y023410D03*
X013955Y023420D03*
X013735Y023440D03*
X014225Y023420D03*
X014235Y023400D03*
X014455Y023420D03*
X014445Y023170D03*
X014225Y023160D03*
X014725Y023420D03*
X014955Y023430D03*
X014935Y023250D03*
X014415Y024020D03*
X014425Y024030D03*
X014445Y024040D03*
X014395Y024010D03*
X014365Y024000D03*
X014355Y023990D03*
X013595Y023960D03*
D24*
X013510Y023430D03*
X013490Y023210D03*
X013490Y023150D03*
X013500Y023140D03*
X013750Y023150D03*
X013760Y023160D03*
X013920Y023220D03*
X013930Y023190D03*
X013940Y023170D03*
X013950Y023160D03*
X014090Y023050D03*
X014230Y023170D03*
X014240Y023180D03*
X014250Y023200D03*
X014260Y023240D03*
X014260Y023330D03*
X014250Y023370D03*
X014240Y023390D03*
X014230Y023410D03*
X014430Y023380D03*
X014430Y023370D03*
X014440Y023390D03*
X014440Y023400D03*
X014450Y023410D03*
X014420Y023340D03*
X014420Y023230D03*
X014430Y023200D03*
X014430Y023190D03*
X014440Y023180D03*
X014450Y023160D03*
X014590Y023050D03*
X014730Y023160D03*
X014740Y023170D03*
X014740Y023180D03*
X014750Y023190D03*
X014750Y023200D03*
X014760Y023230D03*
X014750Y023380D03*
X014740Y023390D03*
X014740Y023400D03*
X014730Y023410D03*
X014940Y023410D03*
X014940Y023420D03*
X014960Y023340D03*
X014930Y023240D03*
X014920Y023220D03*
X014920Y023180D03*
X014920Y023170D03*
X014920Y023160D03*
X014930Y023150D03*
X015200Y023260D03*
X013940Y023400D03*
X013930Y023380D03*
X013920Y023350D03*
X013750Y023370D03*
X013220Y023430D03*
X012470Y023310D03*
X012210Y023320D03*
X012190Y023380D03*
X012190Y023390D03*
X012190Y023400D03*
X012200Y023420D03*
X012210Y023220D03*
X012200Y023200D03*
X011450Y024190D03*
X011460Y024200D03*
X011480Y024210D03*
X010760Y024210D03*
X010680Y024130D03*
X010470Y023410D03*
X010470Y023400D03*
X010480Y023330D03*
X010490Y023320D03*
X010490Y023220D03*
X010480Y023210D03*
X010280Y023320D03*
X010190Y023390D03*
X010100Y023320D03*
X010100Y023120D03*
X010270Y023120D03*
X008850Y023130D03*
X008680Y023430D03*
X008770Y023510D03*
X008630Y023690D03*
X008630Y023700D03*
D25*
X008650Y023730D03*
X008660Y023740D03*
X008670Y023750D03*
X008770Y023060D03*
X011380Y023910D03*
X012050Y023860D03*
X012230Y023310D03*
X013510Y023130D03*
X013520Y023440D03*
X013630Y023520D03*
X013740Y023360D03*
X013970Y023430D03*
X014090Y023520D03*
X014210Y023430D03*
X014470Y023430D03*
X014590Y023520D03*
X014710Y023430D03*
X014720Y023150D03*
X014710Y023140D03*
X014940Y023140D03*
X014460Y023150D03*
X014220Y023150D03*
X013970Y023140D03*
X014300Y023960D03*
X014310Y023970D03*
X014340Y023980D03*
X014440Y024050D03*
D26*
X014935Y023400D03*
X014935Y023390D03*
X014945Y023360D03*
X014925Y023230D03*
X014915Y023210D03*
X014915Y023200D03*
X014915Y023190D03*
X014765Y023240D03*
X014765Y023250D03*
X014765Y023260D03*
X014765Y023270D03*
X014765Y023280D03*
X014765Y023290D03*
X014765Y023300D03*
X014765Y023310D03*
X014765Y023320D03*
X014765Y023330D03*
X014765Y023340D03*
X014755Y023350D03*
X014755Y023360D03*
X014755Y023370D03*
X014755Y023220D03*
X014755Y023210D03*
X014425Y023210D03*
X014425Y023220D03*
X014415Y023240D03*
X014415Y023250D03*
X014415Y023260D03*
X014415Y023270D03*
X014415Y023280D03*
X014415Y023290D03*
X014415Y023300D03*
X014415Y023310D03*
X014415Y023320D03*
X014415Y023330D03*
X014425Y023350D03*
X014425Y023360D03*
X014265Y023320D03*
X014265Y023310D03*
X014265Y023300D03*
X014265Y023290D03*
X014265Y023280D03*
X014265Y023270D03*
X014265Y023260D03*
X014265Y023250D03*
X014255Y023230D03*
X014255Y023220D03*
X014255Y023210D03*
X014245Y023190D03*
X014255Y023340D03*
X014255Y023350D03*
X014255Y023360D03*
X014245Y023380D03*
X013935Y023390D03*
X013925Y023370D03*
X013925Y023360D03*
X013915Y023340D03*
X013915Y023330D03*
X013915Y023320D03*
X013915Y023310D03*
X013915Y023300D03*
X013915Y023290D03*
X013915Y023280D03*
X013915Y023270D03*
X013915Y023260D03*
X013915Y023250D03*
X013915Y023240D03*
X013915Y023230D03*
X013925Y023210D03*
X013925Y023200D03*
X013935Y023180D03*
X013765Y023180D03*
X013765Y023170D03*
X013755Y023380D03*
X013755Y023390D03*
X013755Y023400D03*
X013755Y023410D03*
X013755Y023420D03*
X013745Y023430D03*
X013505Y023420D03*
X013505Y023410D03*
X013495Y023400D03*
X013495Y023390D03*
X013485Y023200D03*
X013485Y023190D03*
X013485Y023180D03*
X013485Y023170D03*
X013485Y023160D03*
X013215Y023160D03*
X013215Y023170D03*
X013215Y023180D03*
X013215Y023190D03*
X013215Y023200D03*
X013215Y023210D03*
X013215Y023220D03*
X013215Y023230D03*
X013215Y023240D03*
X013215Y023250D03*
X013215Y023260D03*
X013215Y023270D03*
X013215Y023280D03*
X013215Y023290D03*
X013215Y023300D03*
X013215Y023310D03*
X013215Y023320D03*
X013215Y023330D03*
X013215Y023340D03*
X013215Y023350D03*
X013215Y023360D03*
X013215Y023370D03*
X013215Y023380D03*
X013215Y023390D03*
X013215Y023400D03*
X013215Y023410D03*
X013215Y023420D03*
X013215Y023150D03*
X013215Y023140D03*
X013215Y023130D03*
X013215Y023120D03*
X013215Y023110D03*
X013215Y023100D03*
X013215Y023090D03*
X013215Y023080D03*
X013215Y023070D03*
X013215Y023060D03*
X012665Y023060D03*
X012665Y023070D03*
X012665Y023080D03*
X012665Y023090D03*
X012665Y023100D03*
X012665Y023110D03*
X012665Y023120D03*
X012665Y023130D03*
X012665Y023140D03*
X012665Y023150D03*
X012665Y023160D03*
X012665Y023170D03*
X012665Y023180D03*
X012665Y023190D03*
X012665Y023200D03*
X012665Y023210D03*
X012665Y023220D03*
X012665Y023230D03*
X012665Y023240D03*
X012665Y023250D03*
X012665Y023260D03*
X012665Y023270D03*
X012665Y023280D03*
X012665Y023290D03*
X012665Y023300D03*
X012665Y023310D03*
X012665Y023320D03*
X012665Y023330D03*
X012665Y023340D03*
X012665Y023350D03*
X012665Y023360D03*
X012665Y023370D03*
X012665Y023380D03*
X012665Y023390D03*
X012665Y023400D03*
X012665Y023410D03*
X012665Y023420D03*
X012665Y023430D03*
X012665Y023440D03*
X012665Y023450D03*
X012665Y023460D03*
X012665Y023470D03*
X012665Y023480D03*
X012665Y023490D03*
X012665Y023500D03*
X012665Y023510D03*
X012475Y023430D03*
X012475Y023420D03*
X012475Y023410D03*
X012475Y023400D03*
X012475Y023390D03*
X012475Y023380D03*
X012475Y023370D03*
X012475Y023360D03*
X012475Y023350D03*
X012475Y023340D03*
X012475Y023330D03*
X012475Y023320D03*
X012475Y023230D03*
X012475Y023220D03*
X012475Y023210D03*
X012475Y023200D03*
X012475Y023190D03*
X012475Y023180D03*
X012475Y023170D03*
X012475Y023160D03*
X012475Y023150D03*
X012475Y023140D03*
X012475Y023130D03*
X012475Y023120D03*
X012475Y023110D03*
X012475Y023100D03*
X012475Y023090D03*
X012475Y023080D03*
X012475Y023070D03*
X012475Y023060D03*
X012185Y023070D03*
X012185Y023080D03*
X012185Y023090D03*
X012185Y023100D03*
X012175Y023060D03*
X012195Y023140D03*
X012195Y023150D03*
X012195Y023160D03*
X012195Y023170D03*
X012195Y023180D03*
X012195Y023190D03*
X012205Y023210D03*
X012205Y023330D03*
X012195Y023340D03*
X012195Y023350D03*
X012195Y023360D03*
X012195Y023370D03*
X012195Y023410D03*
X011405Y023860D03*
X011395Y023890D03*
X011395Y023900D03*
X011425Y024180D03*
X010685Y024140D03*
X010745Y023430D03*
X010745Y023420D03*
X010745Y023410D03*
X010745Y023400D03*
X010745Y023390D03*
X010745Y023380D03*
X010745Y023370D03*
X010745Y023360D03*
X010745Y023350D03*
X010745Y023340D03*
X010745Y023330D03*
X010745Y023320D03*
X010745Y023310D03*
X010745Y023230D03*
X010745Y023220D03*
X010745Y023210D03*
X010745Y023200D03*
X010745Y023190D03*
X010745Y023180D03*
X010745Y023170D03*
X010745Y023160D03*
X010745Y023150D03*
X010745Y023140D03*
X010745Y023130D03*
X010745Y023120D03*
X010745Y023110D03*
X010745Y023100D03*
X010745Y023090D03*
X010745Y023080D03*
X010745Y023070D03*
X010745Y023060D03*
X010465Y023090D03*
X010465Y023100D03*
X010465Y023110D03*
X010465Y023120D03*
X010465Y023130D03*
X010465Y023140D03*
X010465Y023150D03*
X010465Y023160D03*
X010475Y023180D03*
X010475Y023190D03*
X010475Y023200D03*
X010455Y023070D03*
X010455Y023060D03*
X010285Y023130D03*
X010085Y023300D03*
X009945Y023360D03*
X009945Y023370D03*
X009935Y023340D03*
X009935Y023330D03*
X009925Y023310D03*
X009925Y023300D03*
X009835Y023060D03*
X009285Y023450D03*
X009035Y023150D03*
X009035Y023140D03*
X009035Y023130D03*
X009035Y023120D03*
X009035Y023110D03*
X009035Y023100D03*
X009035Y023090D03*
X009035Y023080D03*
X009035Y023070D03*
X009035Y023060D03*
X008865Y023140D03*
X008865Y023150D03*
X008875Y023170D03*
X008885Y023350D03*
X008875Y023400D03*
X008865Y023420D03*
X008855Y023430D03*
X008675Y023420D03*
X008665Y023400D03*
X008665Y023160D03*
X008675Y023140D03*
X008685Y023130D03*
X010465Y023350D03*
X010465Y023360D03*
X010465Y023370D03*
X010465Y023380D03*
X010465Y023390D03*
X010475Y023340D03*
X015205Y023340D03*
X015205Y023350D03*
X015205Y023360D03*
X015205Y023370D03*
X015205Y023380D03*
X015205Y023390D03*
X015205Y023400D03*
X015205Y023410D03*
X015205Y023420D03*
X015205Y023430D03*
X015205Y023250D03*
X015205Y023240D03*
X015205Y023230D03*
X015205Y023220D03*
X015205Y023210D03*
X015205Y023200D03*
X015205Y023190D03*
X015205Y023180D03*
X015205Y023170D03*
X015205Y023160D03*
X015205Y023150D03*
X015205Y023140D03*
D27*
X014950Y023350D03*
X014940Y023370D03*
X014940Y023380D03*
X013770Y023200D03*
X013770Y023190D03*
X013500Y023380D03*
X012190Y023130D03*
X012190Y023120D03*
X012190Y023110D03*
X011410Y023730D03*
X011410Y023740D03*
X011410Y023750D03*
X011410Y023760D03*
X011410Y023770D03*
X011410Y023780D03*
X011410Y023790D03*
X011410Y023800D03*
X011410Y023810D03*
X011410Y023820D03*
X011410Y023830D03*
X011410Y023840D03*
X011410Y023850D03*
X011400Y023870D03*
X011400Y023880D03*
X011340Y024040D03*
X011400Y024160D03*
X011410Y024170D03*
X010740Y024200D03*
X010730Y024190D03*
X010720Y024180D03*
X010700Y024160D03*
X010690Y024150D03*
X009950Y023390D03*
X009950Y023380D03*
X009940Y023350D03*
X009930Y023320D03*
X009920Y023290D03*
X009920Y023280D03*
X009910Y023270D03*
X009910Y023260D03*
X009910Y023250D03*
X009900Y023240D03*
X009900Y023230D03*
X009900Y023220D03*
X009890Y023210D03*
X009890Y023200D03*
X009890Y023190D03*
X009880Y023180D03*
X009880Y023170D03*
X009780Y023190D03*
X009780Y023200D03*
X009770Y023220D03*
X009770Y023230D03*
X009760Y023250D03*
X009760Y023260D03*
X009750Y023280D03*
X009750Y023290D03*
X009750Y023300D03*
X009740Y023310D03*
X009740Y023320D03*
X009740Y023330D03*
X009730Y023340D03*
X009730Y023350D03*
X009730Y023360D03*
X009720Y023370D03*
X009720Y023380D03*
X010070Y023270D03*
X010070Y023260D03*
X010080Y023280D03*
X010080Y023290D03*
X010090Y023310D03*
X010080Y023140D03*
X010090Y023130D03*
X010290Y023140D03*
X010300Y023150D03*
X010300Y023160D03*
X010310Y023170D03*
X010310Y023180D03*
X010310Y023190D03*
X010310Y023200D03*
X010310Y023260D03*
X010310Y023270D03*
X010300Y023290D03*
X010300Y023300D03*
X010290Y023310D03*
X010470Y023170D03*
X010460Y023080D03*
X009280Y023080D03*
X009280Y023090D03*
X009280Y023100D03*
X009280Y023110D03*
X009280Y023120D03*
X009280Y023130D03*
X009280Y023140D03*
X009280Y023150D03*
X009280Y023160D03*
X009280Y023170D03*
X009280Y023180D03*
X009280Y023190D03*
X009280Y023200D03*
X009280Y023210D03*
X009280Y023220D03*
X009280Y023230D03*
X009280Y023240D03*
X009280Y023250D03*
X009280Y023260D03*
X009280Y023270D03*
X009280Y023280D03*
X009280Y023290D03*
X009280Y023300D03*
X009280Y023310D03*
X009280Y023320D03*
X009280Y023330D03*
X009280Y023340D03*
X009280Y023460D03*
X009280Y023470D03*
X008880Y023390D03*
X008880Y023380D03*
X008880Y023370D03*
X008880Y023360D03*
X008890Y023340D03*
X008890Y023330D03*
X008890Y023320D03*
X008890Y023310D03*
X008890Y023300D03*
X008890Y023290D03*
X008890Y023280D03*
X008890Y023270D03*
X008890Y023260D03*
X008890Y023250D03*
X008890Y023240D03*
X008890Y023230D03*
X008890Y023220D03*
X008880Y023210D03*
X008880Y023200D03*
X008880Y023190D03*
X008880Y023180D03*
X008870Y023160D03*
X008670Y023150D03*
X008660Y023170D03*
X008660Y023180D03*
X008660Y023190D03*
X008660Y023200D03*
X008650Y023210D03*
X008650Y023220D03*
X008650Y023230D03*
X008650Y023240D03*
X008650Y023250D03*
X008650Y023260D03*
X008650Y023270D03*
X008650Y023280D03*
X008650Y023290D03*
X008650Y023300D03*
X008650Y023310D03*
X008650Y023320D03*
X008650Y023330D03*
X008650Y023340D03*
X008650Y023350D03*
X008650Y023360D03*
X008660Y023370D03*
X008660Y023380D03*
X008660Y023390D03*
X008670Y023410D03*
X008870Y023410D03*
X009280Y023070D03*
X009280Y023060D03*
D28*
X009305Y023430D03*
X009835Y023120D03*
X009835Y023110D03*
X009835Y023100D03*
X010185Y023060D03*
X010505Y023310D03*
X010795Y024230D03*
X011365Y024360D03*
X011555Y024240D03*
X012055Y023870D03*
X013505Y023230D03*
X013725Y023350D03*
X013735Y023130D03*
X014205Y023140D03*
X014475Y023140D03*
X014145Y023890D03*
X014245Y023940D03*
X014275Y023950D03*
X014415Y024060D03*
X008685Y023770D03*
X008685Y023760D03*
D29*
X008790Y023840D03*
X008810Y023850D03*
X008770Y023490D03*
X008770Y023080D03*
X010190Y023370D03*
X010880Y024270D03*
X011750Y023950D03*
X012310Y023930D03*
X012350Y023940D03*
X012890Y023270D03*
X012890Y023260D03*
X012890Y023250D03*
X012890Y023240D03*
X012890Y023230D03*
X012890Y023220D03*
X012890Y023210D03*
X012890Y023200D03*
X013540Y023250D03*
X013620Y023060D03*
X013630Y023510D03*
X014090Y023510D03*
X014590Y023510D03*
X015020Y023720D03*
X014290Y024110D03*
D30*
X014325Y024100D03*
X015055Y023710D03*
X014085Y023060D03*
X013705Y023340D03*
X012265Y023920D03*
X012215Y023910D03*
X010865Y024260D03*
X009835Y023160D03*
X010185Y023070D03*
X009325Y023420D03*
X008775Y023830D03*
D31*
X008760Y023820D03*
X008740Y023810D03*
X008770Y023070D03*
X011660Y024270D03*
X012100Y023880D03*
X012140Y023890D03*
X012170Y023900D03*
X014340Y024090D03*
X014500Y023130D03*
X014590Y023060D03*
X014680Y023130D03*
D32*
X014590Y023490D03*
X014750Y023790D03*
X014210Y023880D03*
X013630Y023300D03*
X013600Y023280D03*
X012550Y024170D03*
X012520Y024160D03*
X011310Y023950D03*
X010190Y023330D03*
X010190Y023110D03*
X008980Y023920D03*
X008770Y023120D03*
X015120Y023060D03*
D33*
X014590Y023070D03*
X014590Y023500D03*
X014090Y023500D03*
X013630Y023500D03*
X013620Y023070D03*
X014190Y024140D03*
X014920Y023750D03*
X012470Y023960D03*
X012300Y024110D03*
X012230Y024090D03*
X011330Y023940D03*
X010920Y024280D03*
X010190Y023350D03*
X008900Y023890D03*
X008870Y023880D03*
X008770Y023470D03*
X008770Y023100D03*
D34*
X010185Y023360D03*
X012145Y024070D03*
X012185Y024080D03*
X012255Y024100D03*
X013565Y023260D03*
X013685Y023330D03*
X014085Y023070D03*
D35*
X014090Y023100D03*
X014590Y023100D03*
X014590Y023470D03*
X014090Y023470D03*
X013630Y023460D03*
X013620Y023100D03*
X015100Y023070D03*
X015100Y023310D03*
X015100Y023500D03*
X010640Y023270D03*
D36*
X010190Y023080D03*
X009340Y023360D03*
X009340Y023370D03*
X009340Y023380D03*
X009340Y023390D03*
X009340Y023400D03*
X009340Y023410D03*
X008850Y023870D03*
X008770Y023480D03*
X008770Y023090D03*
X011700Y024280D03*
X011900Y024000D03*
X011980Y024020D03*
X012010Y024030D03*
X012040Y024040D03*
X012080Y024050D03*
X012120Y024060D03*
X012400Y023950D03*
X013560Y023970D03*
X014220Y024130D03*
X014250Y024120D03*
X014960Y023740D03*
X014990Y023730D03*
D37*
X014085Y023490D03*
X014085Y023080D03*
X013625Y023080D03*
X013615Y023290D03*
X013645Y023310D03*
X013625Y023490D03*
X012465Y024150D03*
X008945Y023910D03*
D38*
X008770Y023460D03*
X008770Y023450D03*
X008770Y023110D03*
X010190Y023100D03*
X010190Y023340D03*
X012410Y024140D03*
X012510Y023970D03*
X013580Y023270D03*
X014590Y023080D03*
X014140Y024150D03*
D39*
X014090Y023460D03*
X014590Y023460D03*
X014590Y023110D03*
X014090Y023110D03*
X013620Y023110D03*
X013630Y023450D03*
X012610Y023980D03*
X012670Y024190D03*
X012360Y023280D03*
X010630Y023260D03*
X010630Y023490D03*
X010190Y023250D03*
X010190Y023240D03*
X010190Y023230D03*
X010190Y023220D03*
X010190Y023210D03*
X015090Y023320D03*
X015090Y023490D03*
X015090Y023080D03*
D40*
X014875Y023760D03*
X014855Y023770D03*
X014805Y023780D03*
X013665Y023320D03*
X012375Y024130D03*
X012345Y024120D03*
X010185Y023090D03*
X008915Y023900D03*
D41*
X010650Y023510D03*
X013620Y023090D03*
X014090Y023480D03*
X014590Y023480D03*
X014590Y023090D03*
X015110Y023510D03*
D42*
X014715Y023800D03*
X014085Y024160D03*
X013625Y023480D03*
X014085Y023090D03*
X009005Y023930D03*
D43*
X009115Y023960D03*
X010625Y023480D03*
X010625Y023290D03*
X011265Y023970D03*
X012355Y023490D03*
X012355Y023290D03*
X012355Y023260D03*
X013625Y023120D03*
X014085Y023120D03*
X014645Y023810D03*
X015085Y023480D03*
X015085Y023330D03*
X015085Y023290D03*
X015085Y023090D03*
X013985Y024180D03*
D44*
X014090Y023450D03*
X014590Y023450D03*
X014590Y023120D03*
X015080Y023100D03*
X015080Y023280D03*
X015080Y023470D03*
X012710Y024200D03*
X012350Y023480D03*
X012350Y023300D03*
X012350Y023250D03*
X010620Y023250D03*
X010620Y023240D03*
X010620Y023300D03*
X010620Y023470D03*
X009140Y023970D03*
D45*
X010615Y023460D03*
X010725Y023730D03*
X012345Y023470D03*
X012345Y023240D03*
X014085Y023130D03*
X015075Y023110D03*
X015075Y023270D03*
X015075Y023440D03*
X015075Y023450D03*
X015075Y023460D03*
D46*
X015070Y023120D03*
X012340Y023450D03*
X012340Y023460D03*
X010610Y023450D03*
X010610Y023440D03*
D47*
X010185Y023380D03*
X009835Y023150D03*
X009835Y023140D03*
X009835Y023130D03*
X008725Y023800D03*
X008715Y023790D03*
X010835Y024250D03*
X011365Y023920D03*
X011635Y024260D03*
X013525Y023240D03*
X013985Y023440D03*
X014375Y024080D03*
X014695Y023440D03*
X015085Y023700D03*
D48*
X015065Y023130D03*
X013215Y023440D03*
X013215Y023450D03*
X013215Y023460D03*
X013215Y023470D03*
X013215Y023480D03*
X013215Y023490D03*
X013215Y023500D03*
X013215Y023510D03*
X013215Y024270D03*
X012335Y023440D03*
X009195Y023980D03*
D49*
X008700Y023780D03*
X008770Y023500D03*
X010810Y024240D03*
X011600Y024250D03*
X011730Y023940D03*
X014160Y023900D03*
X014180Y023910D03*
X014210Y023920D03*
X014230Y023930D03*
X014400Y024070D03*
X014490Y023440D03*
X014190Y023440D03*
X014960Y023260D03*
X015100Y023690D03*
D50*
X015095Y023300D03*
X012365Y023270D03*
X012365Y023500D03*
X011275Y023960D03*
X010635Y023500D03*
X010635Y023280D03*
X009075Y023950D03*
D51*
X008835Y023860D03*
X009335Y023350D03*
X011345Y023930D03*
X011785Y023960D03*
X011805Y023970D03*
X011845Y023980D03*
X011885Y023990D03*
X011945Y024010D03*
D52*
X012375Y023510D03*
X012605Y024180D03*
X013625Y023470D03*
X014055Y024170D03*
X009035Y023940D03*
D53*
X011945Y023680D03*
X011945Y023670D03*
X011945Y023660D03*
X011945Y023650D03*
X011945Y023640D03*
X011945Y023630D03*
X011945Y023620D03*
D54*
X011025Y024030D03*
X009885Y024000D03*
X009885Y023990D03*
X009875Y023950D03*
X009875Y023940D03*
X009855Y023830D03*
X009845Y023790D03*
X009845Y023780D03*
X009845Y023770D03*
X009845Y023760D03*
X009845Y023750D03*
X009845Y023740D03*
X009845Y023730D03*
X009845Y023720D03*
X009845Y023710D03*
X009845Y023700D03*
X009845Y023690D03*
D55*
X011235Y023710D03*
X011245Y023700D03*
X011245Y023690D03*
D56*
X011005Y023720D03*
D57*
X010900Y024040D03*
X009880Y023980D03*
X009880Y023970D03*
X009880Y023960D03*
X009870Y023930D03*
X009870Y023920D03*
X009870Y023910D03*
X009860Y023900D03*
X009860Y023890D03*
X009860Y023880D03*
X009860Y023870D03*
X009860Y023860D03*
X009860Y023850D03*
X009860Y023840D03*
X009850Y023820D03*
X009850Y023810D03*
X009850Y023800D03*
D58*
X014555Y023820D03*
D59*
X014440Y023830D03*
D60*
X012005Y023840D03*
D61*
X013240Y024260D03*
X014390Y023840D03*
D62*
X014345Y023850D03*
X011375Y024350D03*
D63*
X011155Y024000D03*
X010195Y024130D03*
X014295Y023860D03*
D64*
X014275Y023870D03*
D65*
X011690Y023910D03*
D66*
X011230Y023980D03*
D67*
X011185Y023990D03*
X009275Y024000D03*
X013445Y023980D03*
D68*
X013900Y024190D03*
X009250Y023990D03*
D69*
X013075Y023990D03*
D70*
X013065Y024000D03*
X009745Y024040D03*
D71*
X009680Y024010D03*
D72*
X011110Y024010D03*
D73*
X013045Y024010D03*
D74*
X009700Y024020D03*
D75*
X011060Y024020D03*
D76*
X013000Y024020D03*
X013850Y024200D03*
D77*
X009720Y024030D03*
D78*
X010235Y024050D03*
D79*
X010240Y024060D03*
D80*
X010235Y024070D03*
D81*
X010230Y024080D03*
D82*
X010230Y024090D03*
D83*
X010230Y024100D03*
D84*
X010245Y024110D03*
D85*
X010190Y024120D03*
X011390Y024340D03*
D86*
X012810Y024210D03*
D87*
X013715Y024210D03*
D88*
X013300Y024220D03*
D89*
X013290Y024230D03*
D90*
X013285Y024240D03*
D91*
X013265Y024250D03*
X011405Y024330D03*
D92*
X011345Y024300D03*
X011335Y024290D03*
D93*
X011365Y024310D03*
D94*
X011390Y024320D03*
D95*
X018700Y018900D03*
X018700Y018400D03*
M02*
