G75*
%MOIN*%
%OFA0B0*%
%FSLAX24Y24*%
%IPPOS*%
%LPD*%
%AMOC8*
5,1,8,0,0,1.08239X$1,22.5*
%
%ADD10R,0.0394X0.0433*%
%ADD11R,0.0710X0.0630*%
%ADD12R,0.0310X0.0350*%
%ADD13R,0.2000X0.0500*%
%ADD14R,0.0236X0.0866*%
%ADD15R,0.1339X0.1181*%
%ADD16R,0.0433X0.0394*%
%ADD17R,0.0709X0.0630*%
%ADD18R,0.0512X0.0591*%
%ADD19R,0.0217X0.0236*%
D10*
X007965Y013900D03*
X008635Y013900D03*
X009465Y014800D03*
X010135Y014800D03*
X014565Y019400D03*
X015235Y019400D03*
X017265Y018300D03*
X017935Y018300D03*
X018915Y022500D03*
X019585Y022500D03*
X007150Y020535D03*
X007150Y019865D03*
X016215Y008000D03*
X016885Y008000D03*
D11*
X008750Y016790D03*
X008750Y017910D03*
X005100Y017710D03*
X005100Y016590D03*
D12*
X007930Y014800D03*
X008690Y014800D03*
X008310Y015600D03*
D13*
X002500Y001000D03*
X002500Y002000D03*
X002500Y003000D03*
X002500Y004000D03*
X002500Y005000D03*
X002500Y006000D03*
X002500Y007000D03*
X002500Y008000D03*
X002500Y009000D03*
X002500Y010000D03*
X020500Y010000D03*
X020500Y009000D03*
X020500Y008000D03*
X020500Y007000D03*
X020500Y006000D03*
X020500Y005000D03*
X020500Y004000D03*
X020500Y003000D03*
X020500Y002000D03*
X020500Y001000D03*
D14*
X012878Y003932D03*
X012484Y003932D03*
X012091Y003932D03*
X011697Y003932D03*
X011303Y003932D03*
X010909Y003932D03*
X010516Y003932D03*
X010122Y003932D03*
D15*
X009100Y002800D03*
X013900Y002800D03*
D16*
X018700Y018315D03*
X018700Y018985D03*
X015205Y020980D03*
X014535Y020980D03*
D17*
X006300Y020551D03*
X006300Y019449D03*
D18*
X014476Y020250D03*
X015224Y020250D03*
D19*
X019775Y018956D03*
X019775Y018444D03*
X020504Y018700D03*
M02*
