G75*
%MOIN*%
%OFA0B0*%
%FSLAX24Y24*%
%IPPOS*%
%LPD*%
%AMOC8*
5,1,8,0,0,1.08239X$1,22.5*
%
%ADD10R,0.0394X0.0433*%
%ADD11R,0.0710X0.0630*%
%ADD12R,0.0310X0.0350*%
%ADD13R,0.2000X0.0500*%
%ADD14R,0.0236X0.0866*%
%ADD15R,0.1339X0.1181*%
%ADD16OC8,0.0600*%
%ADD17R,0.0433X0.0394*%
%ADD18R,0.0709X0.0630*%
%ADD19R,0.0512X0.0591*%
%ADD20OC8,0.0520*%
%ADD21OC8,0.0886*%
%ADD22C,0.0010*%
%ADD23R,0.0217X0.0236*%
%ADD24C,0.0554*%
%ADD25R,0.0554X0.0554*%
%ADD26C,0.0400*%
%ADD27C,0.0240*%
%ADD28C,0.0280*%
%ADD29C,0.0160*%
%ADD30C,0.0100*%
D10*
X007965Y013900D03*
X008635Y013900D03*
X009465Y014800D03*
X010135Y014800D03*
X014565Y019400D03*
X015235Y019400D03*
X017265Y018300D03*
X017935Y018300D03*
X018915Y022500D03*
X019585Y022500D03*
X007150Y020535D03*
X007150Y019865D03*
X016215Y008000D03*
X016885Y008000D03*
D11*
X008750Y016790D03*
X008750Y017910D03*
X005100Y017710D03*
X005100Y016590D03*
D12*
X007930Y014800D03*
X008690Y014800D03*
X008310Y015600D03*
D13*
X002500Y010000D03*
X002500Y009000D03*
X002500Y008000D03*
X002500Y007000D03*
X002500Y006000D03*
X002500Y005000D03*
X002500Y004000D03*
X002500Y003000D03*
X002500Y002000D03*
X002500Y001000D03*
X020500Y001000D03*
X020500Y002000D03*
X020500Y003000D03*
X020500Y004000D03*
X020500Y005000D03*
X020500Y006000D03*
X020500Y007000D03*
X020500Y008000D03*
X020500Y009000D03*
X020500Y010000D03*
D14*
X012878Y003932D03*
X012484Y003932D03*
X012091Y003932D03*
X011697Y003932D03*
X011303Y003932D03*
X010909Y003932D03*
X010516Y003932D03*
X010122Y003932D03*
D15*
X009100Y002800D03*
X013900Y002800D03*
D16*
X012990Y022000D03*
X011990Y022000D03*
X010990Y022000D03*
D17*
X014535Y020980D03*
X015205Y020980D03*
X018700Y018985D03*
X018700Y018315D03*
D18*
X006300Y019449D03*
X006300Y020551D03*
D19*
X014476Y020250D03*
X015224Y020250D03*
D20*
X009100Y020850D03*
X008100Y020850D03*
D21*
X001100Y021476D03*
X001100Y022850D03*
D22*
X000613Y023724D02*
X000490Y023724D01*
X000489Y023722D02*
X000494Y023737D01*
X000500Y023759D01*
X000504Y023780D01*
X000506Y023798D01*
X000504Y023813D01*
X000500Y023833D01*
X000494Y023848D01*
X000488Y023860D01*
X000726Y023860D01*
X000722Y023852D02*
X000492Y023852D01*
X000488Y023860D02*
X000477Y023877D01*
X000465Y023892D01*
X000452Y023908D01*
X000438Y023921D01*
X000420Y023936D01*
X000401Y023950D01*
X000384Y023959D01*
X000369Y023968D01*
X000356Y023975D01*
X000333Y023987D01*
X000307Y023998D01*
X000292Y024005D01*
X000490Y024005D01*
X000488Y024013D02*
X000269Y024013D01*
X000266Y024015D02*
X000262Y024020D01*
X000260Y024033D01*
X000257Y024052D01*
X000254Y024076D01*
X000250Y024110D01*
X000248Y024132D01*
X000249Y024151D01*
X000254Y024183D01*
X000511Y024183D01*
X000538Y024059D01*
X000539Y024033D01*
X000535Y024029D01*
X000529Y024027D01*
X000502Y024027D01*
X000484Y024029D01*
X000502Y023959D01*
X000509Y023946D01*
X000528Y023941D01*
X000550Y023935D01*
X000582Y023929D01*
X000612Y023925D01*
X000644Y023928D01*
X000654Y023931D01*
X000672Y023940D01*
X000685Y023954D01*
X000695Y023967D01*
X000701Y023982D01*
X000704Y024004D01*
X000704Y024034D01*
X000701Y024050D01*
X000685Y024128D01*
X000675Y024171D01*
X000674Y024183D01*
X001114Y024183D01*
X001104Y024161D01*
X001091Y024144D01*
X001075Y024128D01*
X001056Y024109D01*
X001043Y024097D01*
X001034Y024088D01*
X001024Y024077D01*
X001015Y024062D01*
X001005Y024039D01*
X000996Y024018D01*
X000987Y023998D01*
X000979Y023984D01*
X000964Y023966D01*
X000947Y023953D01*
X000940Y023949D01*
X000924Y023946D01*
X000903Y023949D01*
X000896Y023956D01*
X000889Y023962D01*
X000877Y023975D01*
X000864Y023988D01*
X000855Y023998D01*
X000849Y024000D01*
X000829Y024004D01*
X000810Y024001D01*
X000796Y023991D01*
X000784Y023979D01*
X000700Y023979D01*
X000697Y023971D02*
X000779Y023971D01*
X000784Y023979D02*
X000762Y023940D01*
X000749Y023914D01*
X000740Y023892D01*
X000731Y023870D01*
X000717Y023844D01*
X000705Y023819D01*
X000686Y023791D01*
X000660Y023761D01*
X000638Y023742D01*
X000615Y023725D01*
X000598Y023716D01*
X000492Y023716D01*
X000490Y023717D02*
X000489Y023722D01*
X000490Y023717D02*
X000497Y023712D01*
X000506Y023709D01*
X000520Y023706D01*
X000539Y023704D01*
X000567Y023706D01*
X000583Y023709D01*
X000598Y023716D01*
X000571Y023707D02*
X000514Y023707D01*
X000492Y023733D02*
X000625Y023733D01*
X000637Y023741D02*
X000495Y023741D01*
X000497Y023750D02*
X000647Y023750D01*
X000657Y023758D02*
X000499Y023758D01*
X000501Y023767D02*
X000665Y023767D01*
X000673Y023775D02*
X000503Y023775D01*
X000504Y023784D02*
X000680Y023784D01*
X000687Y023792D02*
X000505Y023792D01*
X000505Y023801D02*
X000693Y023801D01*
X000698Y023809D02*
X000504Y023809D01*
X000503Y023818D02*
X000704Y023818D01*
X000709Y023826D02*
X000501Y023826D01*
X000499Y023835D02*
X000713Y023835D01*
X000717Y023843D02*
X000496Y023843D01*
X000483Y023869D02*
X000731Y023869D01*
X000734Y023877D02*
X000477Y023877D01*
X000470Y023886D02*
X000737Y023886D01*
X000741Y023894D02*
X000463Y023894D01*
X000456Y023903D02*
X000744Y023903D01*
X000748Y023911D02*
X000448Y023911D01*
X000439Y023920D02*
X000752Y023920D01*
X000756Y023928D02*
X000645Y023928D01*
X000666Y023937D02*
X000760Y023937D01*
X000765Y023945D02*
X000677Y023945D01*
X000685Y023954D02*
X000770Y023954D01*
X000774Y023962D02*
X000692Y023962D01*
X000702Y023988D02*
X000792Y023988D01*
X000803Y023996D02*
X000703Y023996D01*
X000704Y024005D02*
X000990Y024005D01*
X000994Y024013D02*
X000704Y024013D01*
X000704Y024022D02*
X000997Y024022D01*
X001001Y024030D02*
X000704Y024030D01*
X000703Y024039D02*
X001005Y024039D01*
X001009Y024047D02*
X000702Y024047D01*
X000700Y024056D02*
X001012Y024056D01*
X001016Y024064D02*
X000698Y024064D01*
X000697Y024073D02*
X001022Y024073D01*
X001028Y024081D02*
X000695Y024081D01*
X000693Y024090D02*
X001036Y024090D01*
X001045Y024098D02*
X000691Y024098D01*
X000689Y024107D02*
X001054Y024107D01*
X001062Y024115D02*
X000688Y024115D01*
X000686Y024124D02*
X001070Y024124D01*
X001079Y024132D02*
X000684Y024132D01*
X000682Y024141D02*
X001088Y024141D01*
X001095Y024149D02*
X000680Y024149D01*
X000678Y024158D02*
X001102Y024158D01*
X001107Y024166D02*
X000676Y024166D01*
X000675Y024175D02*
X001110Y024175D01*
X001114Y024183D02*
X001120Y024201D01*
X001120Y024220D01*
X001083Y024219D01*
X000893Y024219D01*
X000893Y024326D01*
X000894Y024433D01*
X000893Y024542D01*
X000894Y024543D01*
X000679Y024542D01*
X000678Y024408D01*
X000666Y024401D01*
X000649Y024395D01*
X000628Y024393D01*
X000651Y024279D01*
X000721Y024279D01*
X000742Y024184D01*
X000674Y024183D01*
X000636Y024175D02*
X000550Y024175D01*
X000548Y024183D02*
X000634Y024183D01*
X000632Y024192D02*
X000546Y024192D01*
X000544Y024200D02*
X000631Y024200D01*
X000629Y024209D02*
X000542Y024209D01*
X000541Y024217D02*
X000627Y024217D01*
X000625Y024226D02*
X000539Y024226D01*
X000537Y024234D02*
X000623Y024234D01*
X000621Y024243D02*
X000535Y024243D01*
X000533Y024251D02*
X000619Y024251D01*
X000618Y024260D02*
X000531Y024260D01*
X000529Y024268D02*
X000616Y024268D01*
X000614Y024277D02*
X000527Y024277D01*
X000525Y024285D02*
X000612Y024285D01*
X000610Y024294D02*
X000523Y024294D01*
X000521Y024302D02*
X000608Y024302D01*
X000607Y024311D02*
X000520Y024311D01*
X000518Y024319D02*
X000605Y024319D01*
X000603Y024328D02*
X000516Y024328D01*
X000514Y024336D02*
X000601Y024336D01*
X000599Y024343D02*
X000599Y024343D01*
X000512Y024344D01*
X000582Y024033D01*
X000667Y024033D01*
X000599Y024343D01*
X000636Y024353D02*
X000893Y024353D01*
X000893Y024345D02*
X000637Y024345D01*
X000639Y024336D02*
X000893Y024336D01*
X000893Y024328D02*
X000641Y024328D01*
X000643Y024319D02*
X000893Y024319D01*
X000893Y024311D02*
X000644Y024311D01*
X000646Y024302D02*
X000893Y024302D01*
X000893Y024294D02*
X000648Y024294D01*
X000650Y024285D02*
X000893Y024285D01*
X000893Y024277D02*
X000721Y024277D01*
X000723Y024268D02*
X000893Y024268D01*
X000893Y024260D02*
X000725Y024260D01*
X000727Y024251D02*
X000893Y024251D01*
X000893Y024243D02*
X000729Y024243D01*
X000731Y024234D02*
X000893Y024234D01*
X000893Y024226D02*
X000733Y024226D01*
X000735Y024217D02*
X001120Y024217D01*
X001120Y024209D02*
X000736Y024209D01*
X000738Y024200D02*
X001120Y024200D01*
X001117Y024192D02*
X000740Y024192D01*
X000638Y024166D02*
X000552Y024166D01*
X000554Y024158D02*
X000640Y024158D01*
X000642Y024149D02*
X000556Y024149D01*
X000558Y024141D02*
X000644Y024141D01*
X000645Y024132D02*
X000560Y024132D01*
X000562Y024124D02*
X000647Y024124D01*
X000649Y024115D02*
X000563Y024115D01*
X000565Y024107D02*
X000651Y024107D01*
X000653Y024098D02*
X000567Y024098D01*
X000569Y024090D02*
X000655Y024090D01*
X000657Y024081D02*
X000571Y024081D01*
X000573Y024073D02*
X000658Y024073D01*
X000660Y024064D02*
X000575Y024064D01*
X000577Y024056D02*
X000662Y024056D01*
X000664Y024047D02*
X000579Y024047D01*
X000581Y024039D02*
X000666Y024039D01*
X000539Y024039D02*
X000259Y024039D01*
X000258Y024047D02*
X000538Y024047D01*
X000538Y024056D02*
X000256Y024056D01*
X000255Y024064D02*
X000537Y024064D01*
X000535Y024073D02*
X000254Y024073D01*
X000253Y024081D02*
X000533Y024081D01*
X000531Y024090D02*
X000252Y024090D01*
X000251Y024098D02*
X000530Y024098D01*
X000528Y024107D02*
X000250Y024107D01*
X000249Y024115D02*
X000526Y024115D01*
X000524Y024124D02*
X000248Y024124D01*
X000248Y024132D02*
X000522Y024132D01*
X000520Y024141D02*
X000248Y024141D01*
X000249Y024149D02*
X000518Y024149D01*
X000517Y024158D02*
X000250Y024158D01*
X000251Y024166D02*
X000515Y024166D01*
X000513Y024175D02*
X000252Y024175D01*
X000254Y024183D02*
X000256Y024186D01*
X000266Y024192D01*
X000276Y024200D01*
X000282Y024212D01*
X000291Y024229D01*
X000297Y024251D01*
X000301Y024291D01*
X000299Y024327D01*
X000296Y024349D01*
X000297Y024363D01*
X000304Y024367D01*
X000316Y024370D01*
X000335Y024373D01*
X000356Y024375D01*
X000393Y024379D01*
X000427Y024380D01*
X000467Y024380D01*
X000470Y024367D01*
X000476Y024336D01*
X000297Y024336D01*
X000298Y024328D02*
X000478Y024328D01*
X000476Y024336D02*
X000483Y024309D01*
X000487Y024292D01*
X000489Y024279D01*
X000419Y024279D01*
X000422Y024269D01*
X000442Y024183D01*
X000511Y024183D01*
X000440Y024192D02*
X000265Y024192D01*
X000276Y024200D02*
X000438Y024200D01*
X000436Y024209D02*
X000281Y024209D01*
X000285Y024217D02*
X000434Y024217D01*
X000432Y024226D02*
X000289Y024226D01*
X000293Y024234D02*
X000430Y024234D01*
X000428Y024243D02*
X000295Y024243D01*
X000297Y024251D02*
X000426Y024251D01*
X000424Y024260D02*
X000298Y024260D01*
X000299Y024268D02*
X000422Y024268D01*
X000420Y024277D02*
X000300Y024277D01*
X000301Y024285D02*
X000488Y024285D01*
X000486Y024294D02*
X000301Y024294D01*
X000300Y024302D02*
X000484Y024302D01*
X000482Y024311D02*
X000300Y024311D01*
X000299Y024319D02*
X000480Y024319D01*
X000475Y024345D02*
X000296Y024345D01*
X000296Y024353D02*
X000473Y024353D01*
X000471Y024362D02*
X000297Y024362D01*
X000319Y024370D02*
X000469Y024370D01*
X000467Y024379D02*
X000390Y024379D01*
X000493Y024404D02*
X000586Y024404D01*
X000586Y024398D02*
X000587Y024416D01*
X000586Y024431D01*
X000586Y024431D01*
X000580Y024443D01*
X000576Y024446D01*
X000573Y024449D01*
X000567Y024452D01*
X000557Y024459D01*
X000541Y024460D01*
X000522Y024459D01*
X000516Y024456D01*
X000509Y024449D01*
X000503Y024443D01*
X000500Y024440D01*
X000497Y024433D01*
X000493Y024424D01*
X000493Y024405D01*
X000496Y024392D01*
X000503Y024382D01*
X000516Y024372D01*
X000525Y024369D01*
X000542Y024368D01*
X000557Y024370D01*
X000570Y024376D01*
X000576Y024383D01*
X000583Y024389D01*
X000586Y024398D01*
X000585Y024396D02*
X000495Y024396D01*
X000500Y024387D02*
X000581Y024387D01*
X000572Y024379D02*
X000508Y024379D01*
X000522Y024370D02*
X000558Y024370D01*
X000587Y024413D02*
X000493Y024413D01*
X000493Y024421D02*
X000587Y024421D01*
X000586Y024430D02*
X000495Y024430D01*
X000499Y024438D02*
X000582Y024438D01*
X000576Y024447D02*
X000507Y024447D01*
X000515Y024455D02*
X000562Y024455D01*
X000629Y024387D02*
X000893Y024387D01*
X000893Y024379D02*
X000630Y024379D01*
X000632Y024370D02*
X000893Y024370D01*
X000893Y024362D02*
X000634Y024362D01*
X000652Y024396D02*
X000893Y024396D01*
X000894Y024404D02*
X000671Y024404D01*
X000678Y024413D02*
X000894Y024413D01*
X000894Y024421D02*
X000678Y024421D01*
X000678Y024430D02*
X000894Y024430D01*
X000894Y024438D02*
X000678Y024438D01*
X000678Y024447D02*
X000894Y024447D01*
X000894Y024455D02*
X000678Y024455D01*
X000678Y024464D02*
X000894Y024464D01*
X000893Y024472D02*
X000678Y024472D01*
X000678Y024481D02*
X000893Y024481D01*
X000893Y024489D02*
X000678Y024489D01*
X000678Y024498D02*
X000893Y024498D01*
X000893Y024506D02*
X000678Y024506D01*
X000678Y024515D02*
X000893Y024515D01*
X000893Y024523D02*
X000678Y024523D01*
X000678Y024532D02*
X000893Y024532D01*
X000893Y024540D02*
X000678Y024540D01*
X000536Y024030D02*
X000261Y024030D01*
X000262Y024022D02*
X000486Y024022D01*
X000493Y023996D02*
X000311Y023996D01*
X000292Y024005D02*
X000275Y024011D01*
X000266Y024015D01*
X000332Y023988D02*
X000495Y023988D01*
X000497Y023979D02*
X000348Y023979D01*
X000364Y023971D02*
X000499Y023971D01*
X000502Y023962D02*
X000379Y023962D01*
X000394Y023954D02*
X000505Y023954D01*
X000512Y023945D02*
X000408Y023945D01*
X000419Y023937D02*
X000544Y023937D01*
X000586Y023928D02*
X000429Y023928D01*
X000857Y023996D02*
X000986Y023996D01*
X000981Y023988D02*
X000865Y023988D01*
X000874Y023979D02*
X000975Y023979D01*
X000968Y023971D02*
X000881Y023971D01*
X000888Y023962D02*
X000960Y023962D01*
X000948Y023954D02*
X000898Y023954D01*
D23*
X019775Y018956D03*
X019775Y018444D03*
X020504Y018700D03*
D24*
X015500Y022500D03*
X014500Y022500D03*
D25*
X016500Y022500D03*
D26*
X009100Y020850D02*
X009100Y018260D01*
X008750Y017910D01*
X008750Y016790D02*
X008750Y016040D01*
X008310Y015600D01*
X007930Y014800D02*
X007900Y014770D01*
X007900Y013100D01*
X011000Y010000D01*
X020500Y010000D01*
X007930Y014800D02*
X006300Y016430D01*
X006300Y019449D01*
X006733Y019449D01*
X007150Y019865D01*
X007150Y020535D02*
X007785Y020535D01*
X008100Y020850D01*
X007150Y020535D02*
X006317Y020535D01*
X006300Y020551D01*
X005600Y020551D01*
X005100Y020051D01*
X005100Y017710D01*
X005100Y016590D02*
X005100Y010850D01*
X004250Y010000D01*
X002500Y010000D01*
X002025Y020551D02*
X005600Y020551D01*
X002025Y020551D02*
X001100Y021476D01*
D27*
X008690Y014800D02*
X008690Y013955D01*
X008635Y013900D01*
X008690Y014800D02*
X009465Y014800D01*
X010135Y014800D02*
X011200Y014800D01*
X012000Y015600D01*
X011990Y022000D01*
D28*
X012500Y020000D03*
X010600Y020100D03*
X008450Y022350D03*
X009400Y022700D03*
X006500Y022700D03*
X006500Y021100D03*
X007700Y019300D03*
X007450Y016750D03*
X006100Y015500D03*
X006600Y014000D03*
X006600Y011700D03*
X006600Y009800D03*
X008500Y008500D03*
X009000Y010000D03*
X011450Y008900D03*
X012700Y006900D03*
X010900Y005600D03*
X009400Y005600D03*
X009200Y006600D03*
X007000Y005550D03*
X005700Y006600D03*
X005700Y004100D03*
X004900Y001800D03*
X008400Y000700D03*
X010600Y002400D03*
X014900Y005000D03*
X015500Y002700D03*
X017000Y001400D03*
X018200Y004000D03*
X018100Y006100D03*
X016750Y009050D03*
X017700Y010000D03*
X018400Y010600D03*
X019200Y010600D03*
X020000Y011000D03*
X021000Y011000D03*
X021800Y010600D03*
X021800Y010000D03*
X021800Y009400D03*
X019200Y009400D03*
X018400Y009400D03*
X016700Y010800D03*
X017300Y011600D03*
X015700Y011600D03*
X014900Y011550D03*
X015700Y013700D03*
X017300Y013700D03*
X017300Y015700D03*
X015700Y015700D03*
X013700Y016600D03*
X015700Y018100D03*
X015950Y019050D03*
X015700Y019750D03*
X015800Y020600D03*
X017250Y020000D03*
X017100Y019050D03*
X019600Y020800D03*
X020700Y019900D03*
X020700Y017800D03*
X020700Y015700D03*
X020700Y013700D03*
X014900Y009150D03*
X014100Y008900D03*
X012000Y011350D03*
X011900Y014000D03*
X013700Y014300D03*
X010350Y016700D03*
X009200Y014000D03*
X003500Y010900D03*
X002500Y012600D03*
X002500Y014800D03*
X002500Y017200D03*
X001000Y019500D03*
X002900Y019900D03*
X004300Y021300D03*
X003800Y022700D03*
X002500Y022200D03*
X001700Y022200D03*
X015500Y023400D03*
X018000Y022300D03*
X018500Y023700D03*
X020150Y023800D03*
X020700Y024200D03*
X020700Y022100D03*
X022200Y006100D03*
X022200Y004000D03*
X022200Y001500D03*
X000800Y001800D03*
X000800Y005800D03*
D29*
X001282Y007000D02*
X000750Y007532D01*
X000750Y017750D01*
X002900Y019900D01*
X004300Y021300D02*
X005000Y022000D01*
X010990Y022000D01*
X012800Y023050D02*
X013650Y022200D01*
X013650Y019200D01*
X014150Y018700D01*
X015600Y018700D01*
X015950Y019050D01*
X015600Y019400D01*
X015235Y019400D01*
X014565Y019400D02*
X014565Y020161D01*
X014476Y020250D01*
X014535Y020309D01*
X014535Y020980D01*
X014535Y022500D01*
X014500Y022500D01*
X014500Y021015D02*
X014535Y020980D01*
X012990Y022000D02*
X012990Y012260D01*
X014400Y010850D01*
X016650Y010850D01*
X016700Y010800D01*
X016750Y009050D02*
X016800Y009000D01*
X020500Y009000D01*
X020500Y008000D02*
X016885Y008000D01*
X016215Y008000D02*
X015300Y008000D01*
X014900Y008400D01*
X014900Y009150D01*
X014900Y011550D02*
X014900Y016700D01*
X016500Y018300D01*
X016500Y022500D01*
X018500Y023700D02*
X018950Y023700D01*
X019550Y023100D01*
X019550Y022535D01*
X019585Y022500D01*
X020250Y023700D02*
X020150Y023800D01*
X020250Y023700D02*
X020250Y019550D01*
X020504Y019296D01*
X020504Y018700D01*
X019775Y018444D02*
X018829Y018444D01*
X018700Y018315D01*
X018615Y018300D01*
X018585Y018300D02*
X018700Y018315D01*
X018585Y018300D02*
X017935Y018300D01*
X017265Y018300D02*
X016500Y018300D01*
X017100Y019050D02*
X018535Y019050D01*
X018700Y018985D01*
X019775Y018985D01*
X019775Y018956D01*
X018700Y018985D02*
X018685Y019070D01*
X012800Y023050D02*
X009000Y023050D01*
X008450Y022500D01*
X008450Y022350D01*
X002500Y007000D02*
X001282Y007000D01*
D30*
X000190Y000190D02*
X000190Y023874D01*
X000206Y023870D01*
X000224Y023857D01*
X000236Y023859D01*
X000272Y023843D01*
X000277Y023840D01*
X000308Y023824D01*
X000325Y023814D01*
X000334Y023806D01*
X000339Y023801D01*
X000346Y023793D01*
X000348Y023791D01*
X000345Y023781D01*
X000338Y023767D01*
X000326Y023749D01*
X000326Y023745D01*
X000322Y023736D01*
X000326Y023722D01*
X000322Y023708D01*
X000342Y023668D01*
X000351Y023623D01*
X000359Y023617D01*
X000362Y023608D01*
X000377Y023601D01*
X000380Y023594D01*
X000380Y023594D01*
X000382Y023590D01*
X000402Y023583D01*
X000409Y023572D01*
X000435Y023566D01*
X000443Y023557D01*
X000453Y023556D01*
X000465Y023548D01*
X000476Y023550D01*
X000476Y023549D01*
X000480Y023551D01*
X000487Y023545D01*
X000499Y023546D01*
X000511Y023541D01*
X000511Y023542D02*
X000544Y023542D01*
X000548Y023541D02*
X000559Y023547D01*
X000572Y023546D01*
X000584Y023541D01*
X000609Y023552D01*
X000618Y023549D01*
X000630Y023556D01*
X000643Y023557D01*
X000648Y023562D01*
X000653Y023562D01*
X000657Y023565D01*
X000672Y023567D01*
X000683Y023583D01*
X000689Y023582D01*
X000698Y023590D01*
X000718Y023598D01*
X000721Y023607D01*
X000727Y023610D01*
X000737Y023611D01*
X000744Y023620D01*
X000747Y023621D01*
X000747Y023624D01*
X000760Y023638D01*
X000776Y023650D01*
X000778Y023650D01*
X000779Y023652D01*
X000781Y023654D01*
X000781Y023655D01*
X000789Y023666D01*
X000809Y023684D01*
X000810Y023690D01*
X000814Y023692D01*
X000828Y023718D01*
X000845Y023739D01*
X000844Y023748D01*
X000846Y023751D01*
X000853Y023754D01*
X000859Y023770D01*
X000869Y023785D01*
X000868Y023793D01*
X000873Y023793D01*
X000890Y023782D01*
X000926Y023789D01*
X000949Y023785D01*
X000957Y023782D01*
X000959Y023783D01*
X000962Y023783D01*
X000975Y023792D01*
X000976Y023792D01*
X000988Y023790D01*
X001007Y023804D01*
X001033Y023810D01*
X001039Y023818D01*
X001045Y023819D01*
X001061Y023838D01*
X001077Y023847D01*
X001078Y023850D01*
X001081Y023851D01*
X001089Y023865D01*
X001108Y023879D01*
X001110Y023891D01*
X001118Y023909D01*
X001140Y023938D01*
X001139Y023951D01*
X001153Y023975D01*
X001151Y023984D01*
X001151Y023984D01*
X001163Y023996D01*
X001173Y023998D01*
X001201Y024033D01*
X001224Y024043D01*
X001233Y024066D01*
X001245Y024078D01*
X001246Y024089D01*
X001266Y024114D01*
X001264Y024126D01*
X001275Y024137D01*
X001275Y024157D01*
X001276Y024157D01*
X001276Y024171D01*
X001281Y024185D01*
X001280Y024188D01*
X001288Y024209D01*
X001275Y024236D01*
X001275Y024284D01*
X001274Y024285D01*
X001274Y024286D01*
X001229Y024330D01*
X001184Y024375D01*
X001183Y024375D01*
X001182Y024375D01*
X001119Y024375D01*
X001056Y024375D01*
X001055Y024374D01*
X001049Y024374D01*
X001049Y024433D01*
X001049Y024479D01*
X001049Y024530D01*
X001058Y024581D01*
X001049Y024593D01*
X001049Y024607D01*
X001046Y024610D01*
X022810Y024610D01*
X022810Y000190D01*
X000190Y000190D01*
X000190Y000197D02*
X022810Y000197D01*
X022810Y000296D02*
X000190Y000296D01*
X000190Y000394D02*
X022810Y000394D01*
X022810Y000493D02*
X000190Y000493D01*
X000190Y000591D02*
X022810Y000591D01*
X022810Y000690D02*
X021650Y000690D01*
X021650Y000688D02*
X021650Y001312D01*
X021562Y001400D01*
X019438Y001400D01*
X019350Y001312D01*
X019350Y001200D01*
X012583Y001200D01*
X011503Y002280D01*
X011503Y003363D01*
X011517Y003349D01*
X011877Y003349D01*
X011891Y003363D01*
X011891Y002217D01*
X012708Y001400D01*
X015983Y001400D01*
X016100Y001517D01*
X016383Y001800D01*
X019350Y001800D01*
X019350Y001688D01*
X019438Y001600D01*
X021562Y001600D01*
X021650Y001688D01*
X021650Y002312D01*
X021562Y002400D01*
X019438Y002400D01*
X019350Y002312D01*
X019350Y002200D01*
X016217Y002200D01*
X015817Y001800D01*
X012873Y001800D01*
X012300Y002373D01*
X012300Y002383D01*
X012291Y002392D01*
X012291Y003363D01*
X012304Y003349D01*
X012664Y003349D01*
X012681Y003366D01*
X012698Y003349D01*
X013058Y003349D01*
X013081Y003372D01*
X013081Y002147D01*
X013169Y002059D01*
X014631Y002059D01*
X014719Y002147D01*
X014719Y003453D01*
X014631Y003541D01*
X013169Y003541D01*
X013146Y003518D01*
X013146Y003710D01*
X015907Y003710D01*
X016700Y002917D01*
X016817Y002800D01*
X019350Y002800D01*
X019350Y002688D01*
X019438Y002600D01*
X021562Y002600D01*
X021650Y002688D01*
X021650Y003312D01*
X021562Y003400D01*
X019438Y003400D01*
X019350Y003312D01*
X019350Y003200D01*
X016983Y003200D01*
X016073Y004110D01*
X013146Y004110D01*
X013146Y004427D01*
X013058Y004515D01*
X012700Y004515D01*
X012700Y006283D01*
X012583Y006400D01*
X009783Y009200D01*
X003650Y009200D01*
X003650Y009312D01*
X003562Y009400D01*
X001438Y009400D01*
X001350Y009312D01*
X001350Y008688D01*
X001438Y008600D01*
X003562Y008600D01*
X003650Y008688D01*
X003650Y008800D01*
X009617Y008800D01*
X012300Y006117D01*
X012300Y004511D01*
X012287Y004499D01*
X012271Y004515D01*
X011910Y004515D01*
X011900Y004505D01*
X011900Y005883D01*
X010100Y007683D01*
X009583Y008200D01*
X003650Y008200D01*
X003650Y008312D01*
X003562Y008400D01*
X001438Y008400D01*
X001350Y008312D01*
X001350Y007688D01*
X001438Y007600D01*
X003562Y007600D01*
X003650Y007688D01*
X003650Y007800D01*
X009417Y007800D01*
X009817Y007400D01*
X011500Y005717D01*
X011500Y004499D01*
X011483Y004515D01*
X011123Y004515D01*
X011106Y004499D01*
X011100Y004505D01*
X011100Y005390D01*
X011146Y005436D01*
X011190Y005542D01*
X011190Y005658D01*
X011146Y005764D01*
X011064Y005846D01*
X010958Y005890D01*
X010842Y005890D01*
X010736Y005846D01*
X010654Y005764D01*
X010610Y005658D01*
X010610Y005542D01*
X010654Y005436D01*
X010700Y005390D01*
X010700Y004511D01*
X010700Y004511D01*
X010700Y005283D01*
X010583Y005400D01*
X009783Y006200D01*
X003650Y006200D01*
X003650Y006312D01*
X003562Y006400D01*
X001438Y006400D01*
X001350Y006312D01*
X001350Y005688D01*
X001438Y005600D01*
X003562Y005600D01*
X003650Y005688D01*
X003650Y005800D01*
X009190Y005800D01*
X009154Y005764D01*
X009110Y005658D01*
X009110Y005593D01*
X008717Y005200D01*
X003650Y005200D01*
X003650Y005312D01*
X003562Y005400D01*
X001438Y005400D01*
X001350Y005312D01*
X001350Y004688D01*
X001438Y004600D01*
X003562Y004600D01*
X003650Y004688D01*
X003650Y004800D01*
X008883Y004800D01*
X009393Y005310D01*
X009458Y005310D01*
X009564Y005354D01*
X009646Y005436D01*
X009690Y005542D01*
X009690Y005658D01*
X009646Y005764D01*
X009610Y005800D01*
X009617Y005800D01*
X010300Y005117D01*
X010300Y004515D01*
X009942Y004515D01*
X009854Y004427D01*
X009854Y004132D01*
X007949Y004132D01*
X007017Y003200D01*
X003650Y003200D01*
X003650Y003312D01*
X003562Y003400D01*
X001438Y003400D01*
X001350Y003312D01*
X001350Y002688D01*
X001438Y002600D01*
X003562Y002600D01*
X003650Y002688D01*
X003650Y002800D01*
X007183Y002800D01*
X008115Y003732D01*
X009854Y003732D01*
X009854Y003518D01*
X009831Y003541D01*
X008369Y003541D01*
X008281Y003453D01*
X008281Y002147D01*
X008369Y002059D01*
X009831Y002059D01*
X009919Y002147D01*
X009919Y003372D01*
X009942Y003349D01*
X010302Y003349D01*
X010319Y003366D01*
X010336Y003349D01*
X010696Y003349D01*
X010713Y003366D01*
X010729Y003349D01*
X011090Y003349D01*
X011103Y003363D01*
X011103Y002286D01*
X011100Y002283D01*
X011100Y002117D01*
X011217Y002000D01*
X012417Y000800D01*
X019350Y000800D01*
X019350Y000688D01*
X019438Y000600D01*
X021562Y000600D01*
X021650Y000688D01*
X021650Y000788D02*
X022810Y000788D01*
X022810Y000887D02*
X021650Y000887D01*
X021650Y000985D02*
X022810Y000985D01*
X022810Y001084D02*
X021650Y001084D01*
X021650Y001182D02*
X022810Y001182D01*
X022810Y001281D02*
X021650Y001281D01*
X021583Y001379D02*
X022810Y001379D01*
X022810Y001478D02*
X016060Y001478D01*
X016159Y001576D02*
X022810Y001576D01*
X022810Y001675D02*
X021637Y001675D01*
X021650Y001773D02*
X022810Y001773D01*
X022810Y001872D02*
X021650Y001872D01*
X021650Y001970D02*
X022810Y001970D01*
X022810Y002069D02*
X021650Y002069D01*
X021650Y002167D02*
X022810Y002167D01*
X022810Y002266D02*
X021650Y002266D01*
X021598Y002364D02*
X022810Y002364D01*
X022810Y002463D02*
X014719Y002463D01*
X014719Y002561D02*
X022810Y002561D01*
X022810Y002660D02*
X021622Y002660D01*
X021650Y002758D02*
X022810Y002758D01*
X022810Y002857D02*
X021650Y002857D01*
X021650Y002955D02*
X022810Y002955D01*
X022810Y003054D02*
X021650Y003054D01*
X021650Y003152D02*
X022810Y003152D01*
X022810Y003251D02*
X021650Y003251D01*
X021613Y003349D02*
X022810Y003349D01*
X022810Y003448D02*
X016735Y003448D01*
X016637Y003546D02*
X022810Y003546D01*
X022810Y003645D02*
X021607Y003645D01*
X021650Y003688D02*
X021650Y004312D01*
X021562Y004400D01*
X019438Y004400D01*
X019350Y004312D01*
X019350Y003688D01*
X019438Y003600D01*
X021562Y003600D01*
X021650Y003688D01*
X021650Y003743D02*
X022810Y003743D01*
X022810Y003842D02*
X021650Y003842D01*
X021650Y003940D02*
X022810Y003940D01*
X022810Y004039D02*
X021650Y004039D01*
X021650Y004137D02*
X022810Y004137D01*
X022810Y004236D02*
X021650Y004236D01*
X021628Y004334D02*
X022810Y004334D01*
X022810Y004433D02*
X013141Y004433D01*
X013146Y004334D02*
X019372Y004334D01*
X019350Y004236D02*
X013146Y004236D01*
X013146Y004137D02*
X019350Y004137D01*
X019350Y004039D02*
X016144Y004039D01*
X016243Y003940D02*
X019350Y003940D01*
X019350Y003842D02*
X016341Y003842D01*
X016440Y003743D02*
X019350Y003743D01*
X019393Y003645D02*
X016538Y003645D01*
X016268Y003349D02*
X014719Y003349D01*
X014719Y003251D02*
X016367Y003251D01*
X016465Y003152D02*
X014719Y003152D01*
X014719Y003054D02*
X016564Y003054D01*
X016662Y002955D02*
X014719Y002955D01*
X014719Y002857D02*
X016761Y002857D01*
X016700Y002917D02*
X016700Y002917D01*
X016900Y003000D02*
X015990Y003910D01*
X012900Y003910D01*
X012878Y003932D01*
X013146Y003645D02*
X015973Y003645D01*
X016071Y003546D02*
X013146Y003546D01*
X013081Y003349D02*
X012291Y003349D01*
X012291Y003251D02*
X013081Y003251D01*
X013081Y003152D02*
X012291Y003152D01*
X012291Y003054D02*
X013081Y003054D01*
X013081Y002955D02*
X012291Y002955D01*
X012291Y002857D02*
X013081Y002857D01*
X013081Y002758D02*
X012291Y002758D01*
X012291Y002660D02*
X013081Y002660D01*
X013081Y002561D02*
X012291Y002561D01*
X012291Y002463D02*
X013081Y002463D01*
X013081Y002364D02*
X012309Y002364D01*
X012408Y002266D02*
X013081Y002266D01*
X013081Y002167D02*
X012506Y002167D01*
X012605Y002069D02*
X013160Y002069D01*
X012802Y001872D02*
X015889Y001872D01*
X015987Y001970D02*
X012703Y001970D01*
X012433Y001675D02*
X012108Y001675D01*
X012010Y001773D02*
X012335Y001773D01*
X012236Y001872D02*
X011911Y001872D01*
X011813Y001970D02*
X012138Y001970D01*
X012039Y002069D02*
X011714Y002069D01*
X011616Y002167D02*
X011941Y002167D01*
X011891Y002266D02*
X011517Y002266D01*
X011503Y002364D02*
X011891Y002364D01*
X011891Y002463D02*
X011503Y002463D01*
X011503Y002561D02*
X011891Y002561D01*
X011891Y002660D02*
X011503Y002660D01*
X011503Y002758D02*
X011891Y002758D01*
X011891Y002857D02*
X011503Y002857D01*
X011503Y002955D02*
X011891Y002955D01*
X011891Y003054D02*
X011503Y003054D01*
X011503Y003152D02*
X011891Y003152D01*
X011891Y003251D02*
X011503Y003251D01*
X011503Y003349D02*
X011891Y003349D01*
X011697Y003932D02*
X011700Y004335D01*
X011700Y005800D01*
X009900Y007600D01*
X009500Y008000D01*
X002500Y008000D01*
X002500Y009000D02*
X009700Y009000D01*
X012500Y006200D01*
X012500Y004348D01*
X012484Y003932D01*
X012091Y003932D02*
X012091Y002300D01*
X012791Y001600D01*
X015900Y001600D01*
X016300Y002000D01*
X020500Y002000D01*
X020500Y001000D02*
X012500Y001000D01*
X011300Y002200D01*
X011303Y002200D01*
X011303Y003932D01*
X010909Y003932D02*
X010900Y004342D01*
X010900Y005600D01*
X010633Y005713D02*
X010270Y005713D01*
X010368Y005615D02*
X010610Y005615D01*
X010621Y005516D02*
X010467Y005516D01*
X010565Y005418D02*
X010672Y005418D01*
X010664Y005319D02*
X010700Y005319D01*
X010700Y005221D02*
X010700Y005221D01*
X010700Y005122D02*
X010700Y005122D01*
X010700Y005024D02*
X010700Y005024D01*
X010700Y004925D02*
X010700Y004925D01*
X010700Y004827D02*
X010700Y004827D01*
X010700Y004728D02*
X010700Y004728D01*
X010700Y004630D02*
X010700Y004630D01*
X010700Y004531D02*
X010700Y004531D01*
X010500Y004348D02*
X010516Y003932D01*
X010122Y003932D02*
X008032Y003932D01*
X007100Y003000D01*
X002500Y003000D01*
X001350Y002955D02*
X000190Y002955D01*
X000190Y002857D02*
X001350Y002857D01*
X001350Y002758D02*
X000190Y002758D01*
X000190Y002660D02*
X001378Y002660D01*
X001438Y002400D02*
X001350Y002312D01*
X001350Y001688D01*
X001438Y001600D01*
X003562Y001600D01*
X003650Y001688D01*
X003650Y002312D01*
X003562Y002400D01*
X001438Y002400D01*
X001402Y002364D02*
X000190Y002364D01*
X000190Y002266D02*
X001350Y002266D01*
X001350Y002167D02*
X000190Y002167D01*
X000190Y002069D02*
X001350Y002069D01*
X001350Y001970D02*
X000190Y001970D01*
X000190Y001872D02*
X001350Y001872D01*
X001350Y001773D02*
X000190Y001773D01*
X000190Y001675D02*
X001363Y001675D01*
X001438Y001400D02*
X001350Y001312D01*
X001350Y000688D01*
X001438Y000600D01*
X003562Y000600D01*
X003650Y000688D01*
X003650Y001312D01*
X003562Y001400D01*
X001438Y001400D01*
X001417Y001379D02*
X000190Y001379D01*
X000190Y001281D02*
X001350Y001281D01*
X001350Y001182D02*
X000190Y001182D01*
X000190Y001084D02*
X001350Y001084D01*
X001350Y000985D02*
X000190Y000985D01*
X000190Y000887D02*
X001350Y000887D01*
X001350Y000788D02*
X000190Y000788D01*
X000190Y000690D02*
X001350Y000690D01*
X000190Y001478D02*
X011740Y001478D01*
X011641Y001576D02*
X000190Y001576D01*
X000190Y002463D02*
X008281Y002463D01*
X008281Y002561D02*
X000190Y002561D01*
X000190Y003054D02*
X001350Y003054D01*
X001350Y003152D02*
X000190Y003152D01*
X000190Y003251D02*
X001350Y003251D01*
X001387Y003349D02*
X000190Y003349D01*
X000190Y003448D02*
X007265Y003448D01*
X007363Y003546D02*
X000190Y003546D01*
X000190Y003645D02*
X001393Y003645D01*
X001350Y003688D02*
X001438Y003600D01*
X003562Y003600D01*
X003650Y003688D01*
X003650Y004312D01*
X003562Y004400D01*
X001438Y004400D01*
X001350Y004312D01*
X001350Y003688D01*
X001350Y003743D02*
X000190Y003743D01*
X000190Y003842D02*
X001350Y003842D01*
X001350Y003940D02*
X000190Y003940D01*
X000190Y004039D02*
X001350Y004039D01*
X001350Y004137D02*
X000190Y004137D01*
X000190Y004236D02*
X001350Y004236D01*
X001372Y004334D02*
X000190Y004334D01*
X000190Y004433D02*
X009859Y004433D01*
X009854Y004334D02*
X003628Y004334D01*
X003650Y004236D02*
X009854Y004236D01*
X009854Y004137D02*
X003650Y004137D01*
X003650Y004039D02*
X007856Y004039D01*
X007757Y003940D02*
X003650Y003940D01*
X003650Y003842D02*
X007659Y003842D01*
X007560Y003743D02*
X003650Y003743D01*
X003607Y003645D02*
X007462Y003645D01*
X007732Y003349D02*
X008281Y003349D01*
X008281Y003251D02*
X007633Y003251D01*
X007535Y003152D02*
X008281Y003152D01*
X008281Y003054D02*
X007436Y003054D01*
X007338Y002955D02*
X008281Y002955D01*
X008281Y002857D02*
X007239Y002857D01*
X007068Y003251D02*
X003650Y003251D01*
X003613Y003349D02*
X007166Y003349D01*
X007830Y003448D02*
X008281Y003448D01*
X008027Y003645D02*
X009854Y003645D01*
X009854Y003546D02*
X007929Y003546D01*
X008281Y002758D02*
X003650Y002758D01*
X003622Y002660D02*
X008281Y002660D01*
X008281Y002364D02*
X003598Y002364D01*
X003650Y002266D02*
X008281Y002266D01*
X008281Y002167D02*
X003650Y002167D01*
X003650Y002069D02*
X008360Y002069D01*
X009840Y002069D02*
X011149Y002069D01*
X011100Y002167D02*
X009919Y002167D01*
X009919Y002266D02*
X011100Y002266D01*
X011103Y002364D02*
X009919Y002364D01*
X009919Y002463D02*
X011103Y002463D01*
X011103Y002561D02*
X009919Y002561D01*
X009919Y002660D02*
X011103Y002660D01*
X011103Y002758D02*
X009919Y002758D01*
X009919Y002857D02*
X011103Y002857D01*
X011103Y002955D02*
X009919Y002955D01*
X009919Y003054D02*
X011103Y003054D01*
X011103Y003152D02*
X009919Y003152D01*
X009919Y003251D02*
X011103Y003251D01*
X011103Y003349D02*
X009919Y003349D01*
X010500Y004348D02*
X010500Y005200D01*
X009700Y006000D01*
X002500Y006000D01*
X002500Y005000D02*
X008800Y005000D01*
X009400Y005600D01*
X009133Y005713D02*
X003650Y005713D01*
X003577Y005615D02*
X009110Y005615D01*
X009033Y005516D02*
X000190Y005516D01*
X000190Y005418D02*
X008935Y005418D01*
X008836Y005319D02*
X003643Y005319D01*
X003650Y005221D02*
X008738Y005221D01*
X009008Y004925D02*
X010300Y004925D01*
X010300Y004827D02*
X008909Y004827D01*
X009106Y005024D02*
X010300Y005024D01*
X010295Y005122D02*
X009205Y005122D01*
X009303Y005221D02*
X010197Y005221D01*
X010098Y005319D02*
X009479Y005319D01*
X009628Y005418D02*
X010000Y005418D01*
X009901Y005516D02*
X009679Y005516D01*
X009690Y005615D02*
X009803Y005615D01*
X009704Y005713D02*
X009667Y005713D01*
X009974Y006009D02*
X011209Y006009D01*
X011110Y006107D02*
X009876Y006107D01*
X010073Y005910D02*
X011307Y005910D01*
X011406Y005812D02*
X011099Y005812D01*
X011167Y005713D02*
X011500Y005713D01*
X011500Y005615D02*
X011190Y005615D01*
X011179Y005516D02*
X011500Y005516D01*
X011500Y005418D02*
X011128Y005418D01*
X011100Y005319D02*
X011500Y005319D01*
X011500Y005221D02*
X011100Y005221D01*
X011100Y005122D02*
X011500Y005122D01*
X011500Y005024D02*
X011100Y005024D01*
X011100Y004925D02*
X011500Y004925D01*
X011500Y004827D02*
X011100Y004827D01*
X011100Y004728D02*
X011500Y004728D01*
X011500Y004630D02*
X011100Y004630D01*
X011100Y004531D02*
X011500Y004531D01*
X011900Y004531D02*
X012300Y004531D01*
X012300Y004630D02*
X011900Y004630D01*
X011900Y004728D02*
X012300Y004728D01*
X012300Y004827D02*
X011900Y004827D01*
X011900Y004925D02*
X012300Y004925D01*
X012300Y005024D02*
X011900Y005024D01*
X011900Y005122D02*
X012300Y005122D01*
X012300Y005221D02*
X011900Y005221D01*
X011900Y005319D02*
X012300Y005319D01*
X012300Y005418D02*
X011900Y005418D01*
X011900Y005516D02*
X012300Y005516D01*
X012300Y005615D02*
X011900Y005615D01*
X011900Y005713D02*
X012300Y005713D01*
X012300Y005812D02*
X011900Y005812D01*
X011873Y005910D02*
X012300Y005910D01*
X012300Y006009D02*
X011774Y006009D01*
X011676Y006107D02*
X012300Y006107D01*
X012212Y006206D02*
X011577Y006206D01*
X011479Y006304D02*
X012113Y006304D01*
X012015Y006403D02*
X011380Y006403D01*
X011282Y006501D02*
X011916Y006501D01*
X011818Y006600D02*
X011183Y006600D01*
X011085Y006698D02*
X011719Y006698D01*
X011621Y006797D02*
X010986Y006797D01*
X010888Y006895D02*
X011522Y006895D01*
X011424Y006994D02*
X010789Y006994D01*
X010691Y007092D02*
X011325Y007092D01*
X011227Y007191D02*
X010592Y007191D01*
X010494Y007289D02*
X011128Y007289D01*
X011030Y007388D02*
X010395Y007388D01*
X010297Y007486D02*
X010931Y007486D01*
X010833Y007585D02*
X010198Y007585D01*
X010100Y007683D02*
X010734Y007683D01*
X010636Y007782D02*
X010001Y007782D01*
X009903Y007880D02*
X010537Y007880D01*
X010439Y007979D02*
X009804Y007979D01*
X009706Y008077D02*
X010340Y008077D01*
X010242Y008176D02*
X009607Y008176D01*
X009848Y008570D02*
X000980Y008570D01*
X000980Y008668D02*
X001370Y008668D01*
X001350Y008767D02*
X000980Y008767D01*
X000980Y008865D02*
X001350Y008865D01*
X001350Y008964D02*
X000980Y008964D01*
X000980Y009062D02*
X001350Y009062D01*
X001350Y009161D02*
X000980Y009161D01*
X000980Y009259D02*
X001350Y009259D01*
X001395Y009358D02*
X000980Y009358D01*
X000980Y009456D02*
X022810Y009456D01*
X022810Y009358D02*
X021605Y009358D01*
X021562Y009400D02*
X021650Y009312D01*
X021650Y008688D01*
X021562Y008600D01*
X019438Y008600D01*
X019350Y008688D01*
X019350Y008770D01*
X016832Y008770D01*
X016808Y008760D01*
X016692Y008760D01*
X016586Y008804D01*
X016504Y008886D01*
X016460Y008992D01*
X016460Y009108D01*
X016504Y009214D01*
X016586Y009296D01*
X016692Y009340D01*
X016808Y009340D01*
X016914Y009296D01*
X016980Y009230D01*
X019350Y009230D01*
X019350Y009312D01*
X019438Y009400D01*
X021562Y009400D01*
X021650Y009259D02*
X022810Y009259D01*
X022810Y009161D02*
X021650Y009161D01*
X021650Y009062D02*
X022810Y009062D01*
X022810Y008964D02*
X021650Y008964D01*
X021650Y008865D02*
X022810Y008865D01*
X022810Y008767D02*
X021650Y008767D01*
X021630Y008668D02*
X022810Y008668D01*
X022810Y008570D02*
X015130Y008570D01*
X015130Y008495D02*
X015130Y008970D01*
X015146Y008986D01*
X015190Y009092D01*
X015190Y009208D01*
X015146Y009314D01*
X015064Y009396D01*
X014958Y009440D01*
X014842Y009440D01*
X014736Y009396D01*
X014654Y009314D01*
X014610Y009208D01*
X014610Y009092D01*
X014654Y008986D01*
X014670Y008970D01*
X014670Y008305D01*
X015070Y007905D01*
X015205Y007770D01*
X015869Y007770D01*
X015869Y007721D01*
X015956Y007633D01*
X016474Y007633D01*
X016550Y007709D01*
X016626Y007633D01*
X017144Y007633D01*
X017231Y007721D01*
X017231Y007770D01*
X019350Y007770D01*
X019350Y007688D01*
X019438Y007600D01*
X021562Y007600D01*
X021650Y007688D01*
X021650Y008312D01*
X021562Y008400D01*
X019438Y008400D01*
X019350Y008312D01*
X019350Y008230D01*
X017231Y008230D01*
X017231Y008279D01*
X017144Y008367D01*
X016626Y008367D01*
X016550Y008291D01*
X016474Y008367D01*
X015956Y008367D01*
X015869Y008279D01*
X015869Y008230D01*
X015395Y008230D01*
X015130Y008495D01*
X015154Y008471D02*
X022810Y008471D01*
X022810Y008373D02*
X021590Y008373D01*
X021650Y008274D02*
X022810Y008274D01*
X022810Y008176D02*
X021650Y008176D01*
X021650Y008077D02*
X022810Y008077D01*
X022810Y007979D02*
X021650Y007979D01*
X021650Y007880D02*
X022810Y007880D01*
X022810Y007782D02*
X021650Y007782D01*
X021645Y007683D02*
X022810Y007683D01*
X022810Y007585D02*
X011398Y007585D01*
X011300Y007683D02*
X015907Y007683D01*
X015869Y008274D02*
X015351Y008274D01*
X015253Y008373D02*
X019410Y008373D01*
X019350Y008274D02*
X017231Y008274D01*
X017193Y007683D02*
X019355Y007683D01*
X019438Y007400D02*
X019350Y007312D01*
X019350Y006688D01*
X019438Y006600D01*
X021562Y006600D01*
X021650Y006688D01*
X021650Y007312D01*
X021562Y007400D01*
X019438Y007400D01*
X019425Y007388D02*
X011595Y007388D01*
X011497Y007486D02*
X022810Y007486D01*
X022810Y007388D02*
X021575Y007388D01*
X021650Y007289D02*
X022810Y007289D01*
X022810Y007191D02*
X021650Y007191D01*
X021650Y007092D02*
X022810Y007092D01*
X022810Y006994D02*
X021650Y006994D01*
X021650Y006895D02*
X022810Y006895D01*
X022810Y006797D02*
X021650Y006797D01*
X021650Y006698D02*
X022810Y006698D01*
X022810Y006600D02*
X012383Y006600D01*
X012285Y006698D02*
X019350Y006698D01*
X019350Y006797D02*
X012186Y006797D01*
X012088Y006895D02*
X019350Y006895D01*
X019350Y006994D02*
X011989Y006994D01*
X011891Y007092D02*
X019350Y007092D01*
X019350Y007191D02*
X011792Y007191D01*
X011694Y007289D02*
X019350Y007289D01*
X019438Y006400D02*
X019350Y006312D01*
X019350Y005688D01*
X019438Y005600D01*
X021562Y005600D01*
X021650Y005688D01*
X021650Y006312D01*
X021562Y006400D01*
X019438Y006400D01*
X019350Y006304D02*
X012679Y006304D01*
X012700Y006206D02*
X019350Y006206D01*
X019350Y006107D02*
X012700Y006107D01*
X012700Y006009D02*
X019350Y006009D01*
X019350Y005910D02*
X012700Y005910D01*
X012700Y005812D02*
X019350Y005812D01*
X019350Y005713D02*
X012700Y005713D01*
X012700Y005615D02*
X019423Y005615D01*
X019438Y005400D02*
X019350Y005312D01*
X019350Y004688D01*
X019438Y004600D01*
X021562Y004600D01*
X021650Y004688D01*
X021650Y005312D01*
X021562Y005400D01*
X019438Y005400D01*
X019357Y005319D02*
X012700Y005319D01*
X012700Y005221D02*
X019350Y005221D01*
X019350Y005122D02*
X012700Y005122D01*
X012700Y005024D02*
X019350Y005024D01*
X019350Y004925D02*
X012700Y004925D01*
X012700Y004827D02*
X019350Y004827D01*
X019350Y004728D02*
X012700Y004728D01*
X012700Y004630D02*
X019408Y004630D01*
X019387Y003349D02*
X016834Y003349D01*
X016932Y003251D02*
X019350Y003251D01*
X019350Y002758D02*
X014719Y002758D01*
X014719Y002660D02*
X019378Y002660D01*
X019402Y002364D02*
X014719Y002364D01*
X014719Y002266D02*
X019350Y002266D01*
X019350Y001773D02*
X016356Y001773D01*
X016257Y001675D02*
X019363Y001675D01*
X019417Y001379D02*
X012404Y001379D01*
X012502Y001281D02*
X019350Y001281D01*
X019350Y000788D02*
X003650Y000788D01*
X003650Y000690D02*
X019350Y000690D01*
X020500Y003000D02*
X016900Y003000D01*
X016170Y003448D02*
X014719Y003448D01*
X014719Y002167D02*
X016184Y002167D01*
X016086Y002069D02*
X014640Y002069D01*
X012630Y001478D02*
X012305Y001478D01*
X012207Y001576D02*
X012532Y001576D01*
X012134Y001084D02*
X003650Y001084D01*
X003650Y001182D02*
X012035Y001182D01*
X011937Y001281D02*
X003650Y001281D01*
X003583Y001379D02*
X011838Y001379D01*
X011543Y001675D02*
X003637Y001675D01*
X003650Y001773D02*
X011444Y001773D01*
X011346Y001872D02*
X003650Y001872D01*
X003650Y001970D02*
X011247Y001970D01*
X012091Y002300D02*
X012100Y002300D01*
X012232Y000985D02*
X003650Y000985D01*
X003650Y000887D02*
X012331Y000887D01*
X012700Y004531D02*
X022810Y004531D01*
X022810Y004630D02*
X021592Y004630D01*
X021650Y004728D02*
X022810Y004728D01*
X022810Y004827D02*
X021650Y004827D01*
X021650Y004925D02*
X022810Y004925D01*
X022810Y005024D02*
X021650Y005024D01*
X021650Y005122D02*
X022810Y005122D01*
X022810Y005221D02*
X021650Y005221D01*
X021643Y005319D02*
X022810Y005319D01*
X022810Y005418D02*
X012700Y005418D01*
X012700Y005516D02*
X022810Y005516D01*
X022810Y005615D02*
X021577Y005615D01*
X021650Y005713D02*
X022810Y005713D01*
X022810Y005812D02*
X021650Y005812D01*
X021650Y005910D02*
X022810Y005910D01*
X022810Y006009D02*
X021650Y006009D01*
X021650Y006107D02*
X022810Y006107D01*
X022810Y006206D02*
X021650Y006206D01*
X021650Y006304D02*
X022810Y006304D01*
X022810Y006403D02*
X012580Y006403D01*
X012482Y006501D02*
X022810Y006501D01*
X019683Y009500D02*
X019800Y009617D01*
X019800Y010383D01*
X019683Y010500D01*
X011183Y010500D01*
X008450Y013233D01*
X008450Y013533D01*
X008894Y013533D01*
X008981Y013621D01*
X008981Y014179D01*
X008960Y014200D01*
X008960Y014528D01*
X008962Y014530D01*
X009119Y014530D01*
X009119Y014521D01*
X009206Y014433D01*
X009724Y014433D01*
X009800Y014509D01*
X009876Y014433D01*
X010394Y014433D01*
X010481Y014521D01*
X010481Y014530D01*
X011254Y014530D01*
X011353Y014571D01*
X012153Y015371D01*
X012153Y015371D01*
X012191Y015409D01*
X012229Y015447D01*
X012229Y015447D01*
X012229Y015447D01*
X012250Y015497D01*
X012270Y015546D01*
X012270Y015547D01*
X012270Y015600D01*
X012270Y015654D01*
X012261Y021634D01*
X012440Y021814D01*
X012440Y022186D01*
X012176Y022450D01*
X011804Y022450D01*
X011540Y022186D01*
X011540Y021814D01*
X011721Y021633D01*
X011730Y015712D01*
X011088Y015070D01*
X010481Y015070D01*
X010481Y015079D01*
X010394Y015167D01*
X009876Y015167D01*
X009800Y015091D01*
X009724Y015167D01*
X009206Y015167D01*
X009119Y015079D01*
X009119Y015070D01*
X008962Y015070D01*
X008907Y015125D01*
X008473Y015125D01*
X008415Y015067D01*
X008228Y015255D01*
X008240Y015250D01*
X008380Y015250D01*
X008440Y015275D01*
X008527Y015275D01*
X008615Y015363D01*
X008615Y015410D01*
X009047Y015842D01*
X009100Y015970D01*
X009100Y016325D01*
X009167Y016325D01*
X009255Y016413D01*
X009255Y017167D01*
X009167Y017255D01*
X008333Y017255D01*
X008245Y017167D01*
X008245Y016413D01*
X008333Y016325D01*
X008400Y016325D01*
X008400Y016185D01*
X008140Y015925D01*
X008093Y015925D01*
X008005Y015837D01*
X008005Y015778D01*
X007960Y015670D01*
X007960Y015530D01*
X007965Y015518D01*
X006800Y016683D01*
X006800Y018800D01*
X006833Y018800D01*
X006950Y018917D01*
X007383Y019350D01*
X007533Y019350D01*
X007650Y019467D01*
X007650Y020185D01*
X007854Y020185D01*
X007983Y020238D01*
X008185Y020440D01*
X008270Y020440D01*
X008510Y020680D01*
X008510Y021020D01*
X008270Y021260D01*
X007930Y021260D01*
X007690Y021020D01*
X007690Y020935D01*
X007640Y020885D01*
X007426Y020885D01*
X007409Y020901D01*
X006891Y020901D01*
X006874Y020885D01*
X006804Y020885D01*
X006804Y020928D01*
X006716Y021016D01*
X005884Y021016D01*
X005796Y020928D01*
X005796Y020901D01*
X002170Y020901D01*
X001693Y021378D01*
X001693Y021722D01*
X001346Y022069D01*
X000854Y022069D01*
X000507Y021722D01*
X000507Y021230D01*
X000854Y020883D01*
X001198Y020883D01*
X001728Y020353D01*
X001827Y020254D01*
X001955Y020201D01*
X004783Y020201D01*
X004750Y020121D01*
X004750Y018175D01*
X004683Y018175D01*
X004595Y018087D01*
X004595Y017333D01*
X004683Y017245D01*
X005517Y017245D01*
X005605Y017333D01*
X005605Y018087D01*
X005517Y018175D01*
X005450Y018175D01*
X005450Y019906D01*
X005600Y020056D01*
X005600Y018917D01*
X005717Y018800D01*
X005800Y018800D01*
X005800Y016217D01*
X007400Y014617D01*
X007400Y012917D01*
X010700Y009617D01*
X010817Y009500D01*
X019683Y009500D01*
X019737Y009555D02*
X022810Y009555D01*
X022810Y009653D02*
X019800Y009653D01*
X019800Y009752D02*
X022810Y009752D01*
X022810Y009850D02*
X019800Y009850D01*
X019800Y009949D02*
X022810Y009949D01*
X022810Y010047D02*
X019800Y010047D01*
X019800Y010146D02*
X022810Y010146D01*
X022810Y010244D02*
X019800Y010244D01*
X019800Y010343D02*
X022810Y010343D01*
X022810Y010441D02*
X019742Y010441D01*
X019400Y010100D02*
X019400Y009900D01*
X010983Y009900D01*
X007800Y013083D01*
X007800Y014783D01*
X006200Y016383D01*
X006200Y019083D01*
X006083Y019200D01*
X006000Y019200D01*
X006000Y019850D01*
X006833Y019850D01*
X006933Y019950D01*
X007250Y019950D01*
X007250Y019750D01*
X007217Y019750D01*
X006667Y019200D01*
X006517Y019200D01*
X006400Y019083D01*
X006400Y016517D01*
X008050Y014867D01*
X008050Y013067D01*
X008167Y012950D01*
X011017Y010100D01*
X019400Y010100D01*
X019400Y010047D02*
X010836Y010047D01*
X010934Y009949D02*
X019400Y009949D01*
X019395Y009358D02*
X015103Y009358D01*
X015169Y009259D02*
X016549Y009259D01*
X016482Y009161D02*
X015190Y009161D01*
X015177Y009062D02*
X016460Y009062D01*
X016472Y008964D02*
X015130Y008964D01*
X015130Y008865D02*
X016525Y008865D01*
X016677Y008767D02*
X015130Y008767D01*
X015130Y008668D02*
X019370Y008668D01*
X019350Y008767D02*
X016823Y008767D01*
X016951Y009259D02*
X019350Y009259D01*
X016946Y010636D02*
X016990Y010742D01*
X016990Y010858D01*
X016946Y010964D01*
X016864Y011046D01*
X016758Y011090D01*
X016642Y011090D01*
X016618Y011080D01*
X014495Y011080D01*
X013220Y012355D01*
X013220Y021594D01*
X013420Y021794D01*
X013420Y019105D01*
X013920Y018605D01*
X014055Y018470D01*
X015695Y018470D01*
X015985Y018760D01*
X016008Y018760D01*
X016114Y018804D01*
X016196Y018886D01*
X016240Y018992D01*
X016240Y019108D01*
X016196Y019214D01*
X016114Y019296D01*
X016008Y019340D01*
X015985Y019340D01*
X015695Y019630D01*
X015581Y019630D01*
X015581Y019679D01*
X015494Y019767D01*
X014976Y019767D01*
X014900Y019691D01*
X014824Y019767D01*
X014795Y019767D01*
X014795Y019806D01*
X014882Y019893D01*
X014882Y020607D01*
X014835Y020654D01*
X014902Y020721D01*
X014902Y021239D01*
X014814Y021327D01*
X014765Y021327D01*
X014765Y022161D01*
X014862Y022258D01*
X014927Y022415D01*
X014927Y022585D01*
X014862Y022742D01*
X014742Y022862D01*
X014585Y022927D01*
X014415Y022927D01*
X014258Y022862D01*
X014138Y022742D01*
X014073Y022585D01*
X014073Y022415D01*
X014138Y022258D01*
X014258Y022138D01*
X014305Y022118D01*
X014305Y021327D01*
X014257Y021327D01*
X014169Y021239D01*
X014169Y020721D01*
X014195Y020695D01*
X014158Y020695D01*
X014070Y020607D01*
X014070Y019893D01*
X014158Y019805D01*
X014335Y019805D01*
X014335Y019767D01*
X014306Y019767D01*
X014219Y019679D01*
X014219Y019121D01*
X014306Y019033D01*
X014824Y019033D01*
X014900Y019109D01*
X014900Y019109D01*
X014976Y019033D01*
X015494Y019033D01*
X015567Y019107D01*
X015625Y019050D01*
X015505Y018930D01*
X014245Y018930D01*
X013880Y019295D01*
X013880Y022295D01*
X013745Y022430D01*
X012895Y023280D01*
X008905Y023280D01*
X008770Y023145D01*
X008220Y022595D01*
X008220Y022530D01*
X008204Y022514D01*
X008160Y022408D01*
X008160Y022292D01*
X008186Y022230D01*
X004905Y022230D01*
X004265Y021590D01*
X004242Y021590D01*
X004136Y021546D01*
X004054Y021464D01*
X004010Y021358D01*
X004010Y021242D01*
X004054Y021136D01*
X004136Y021054D01*
X004242Y021010D01*
X004358Y021010D01*
X004464Y021054D01*
X004546Y021136D01*
X004590Y021242D01*
X004590Y021265D01*
X005095Y021770D01*
X010584Y021770D01*
X010804Y021550D01*
X011176Y021550D01*
X011440Y021814D01*
X011440Y022186D01*
X011176Y022450D01*
X010804Y022450D01*
X010584Y022230D01*
X008714Y022230D01*
X008740Y022292D01*
X008740Y022408D01*
X008723Y022448D01*
X009095Y022820D01*
X012705Y022820D01*
X013075Y022450D01*
X012804Y022450D01*
X012540Y022186D01*
X012540Y021814D01*
X012760Y021594D01*
X012760Y012165D01*
X014170Y010755D01*
X014305Y010620D01*
X016470Y010620D01*
X016536Y010554D01*
X016642Y010510D01*
X016758Y010510D01*
X016864Y010554D01*
X016946Y010636D01*
X016947Y010638D02*
X022810Y010638D01*
X022810Y010540D02*
X016829Y010540D01*
X016988Y010737D02*
X022810Y010737D01*
X022810Y010835D02*
X016990Y010835D01*
X016959Y010934D02*
X022810Y010934D01*
X022810Y011032D02*
X016878Y011032D01*
X016571Y010540D02*
X011143Y010540D01*
X011045Y010638D02*
X014287Y010638D01*
X014188Y010737D02*
X010946Y010737D01*
X010848Y010835D02*
X014090Y010835D01*
X013991Y010934D02*
X010749Y010934D01*
X010651Y011032D02*
X013893Y011032D01*
X013794Y011131D02*
X010552Y011131D01*
X010454Y011229D02*
X013696Y011229D01*
X013597Y011328D02*
X010355Y011328D01*
X010257Y011426D02*
X013499Y011426D01*
X013400Y011525D02*
X010158Y011525D01*
X010060Y011623D02*
X013302Y011623D01*
X013203Y011722D02*
X009961Y011722D01*
X009863Y011820D02*
X013105Y011820D01*
X013006Y011919D02*
X009764Y011919D01*
X009666Y012017D02*
X012908Y012017D01*
X012809Y012116D02*
X009567Y012116D01*
X009469Y012214D02*
X012760Y012214D01*
X012760Y012313D02*
X009370Y012313D01*
X009272Y012411D02*
X012760Y012411D01*
X012760Y012510D02*
X009173Y012510D01*
X009075Y012608D02*
X012760Y012608D01*
X012760Y012707D02*
X008976Y012707D01*
X008878Y012805D02*
X012760Y012805D01*
X012760Y012904D02*
X008779Y012904D01*
X008681Y013002D02*
X012760Y013002D01*
X012760Y013101D02*
X008582Y013101D01*
X008484Y013199D02*
X012760Y013199D01*
X012760Y013298D02*
X008450Y013298D01*
X008450Y013396D02*
X012760Y013396D01*
X012760Y013495D02*
X008450Y013495D01*
X008050Y013495D02*
X007800Y013495D01*
X007800Y013593D02*
X008050Y013593D01*
X008050Y013692D02*
X007800Y013692D01*
X007800Y013790D02*
X008050Y013790D01*
X008050Y013889D02*
X007800Y013889D01*
X007800Y013987D02*
X008050Y013987D01*
X008050Y014086D02*
X007800Y014086D01*
X007800Y014184D02*
X008050Y014184D01*
X008050Y014283D02*
X007800Y014283D01*
X007800Y014381D02*
X008050Y014381D01*
X008050Y014480D02*
X007800Y014480D01*
X007800Y014578D02*
X008050Y014578D01*
X008050Y014677D02*
X007800Y014677D01*
X007800Y014775D02*
X008050Y014775D01*
X008044Y014874D02*
X007709Y014874D01*
X007611Y014972D02*
X007945Y014972D01*
X007847Y015071D02*
X007512Y015071D01*
X007414Y015169D02*
X007748Y015169D01*
X007650Y015268D02*
X007315Y015268D01*
X007217Y015366D02*
X007551Y015366D01*
X007453Y015465D02*
X007118Y015465D01*
X007020Y015563D02*
X007354Y015563D01*
X007256Y015662D02*
X006921Y015662D01*
X006823Y015760D02*
X007157Y015760D01*
X007059Y015859D02*
X006724Y015859D01*
X006626Y015957D02*
X006960Y015957D01*
X006862Y016056D02*
X006527Y016056D01*
X006429Y016154D02*
X006763Y016154D01*
X006665Y016253D02*
X006330Y016253D01*
X006232Y016351D02*
X006566Y016351D01*
X006468Y016450D02*
X006200Y016450D01*
X006200Y016548D02*
X006400Y016548D01*
X006400Y016647D02*
X006200Y016647D01*
X006200Y016745D02*
X006400Y016745D01*
X006400Y016844D02*
X006200Y016844D01*
X006200Y016942D02*
X006400Y016942D01*
X006400Y017041D02*
X006200Y017041D01*
X006200Y017139D02*
X006400Y017139D01*
X006400Y017238D02*
X006200Y017238D01*
X006200Y017336D02*
X006400Y017336D01*
X006400Y017435D02*
X006200Y017435D01*
X006200Y017533D02*
X006400Y017533D01*
X006400Y017632D02*
X006200Y017632D01*
X006200Y017730D02*
X006400Y017730D01*
X006400Y017829D02*
X006200Y017829D01*
X006200Y017927D02*
X006400Y017927D01*
X006400Y018026D02*
X006200Y018026D01*
X006200Y018124D02*
X006400Y018124D01*
X006400Y018223D02*
X006200Y018223D01*
X006200Y018321D02*
X006400Y018321D01*
X006400Y018420D02*
X006200Y018420D01*
X006200Y018518D02*
X006400Y018518D01*
X006400Y018617D02*
X006200Y018617D01*
X006200Y018715D02*
X006400Y018715D01*
X006400Y018814D02*
X006200Y018814D01*
X006200Y018912D02*
X006400Y018912D01*
X006400Y019011D02*
X006200Y019011D01*
X006174Y019109D02*
X006426Y019109D01*
X006675Y019208D02*
X006000Y019208D01*
X006000Y019306D02*
X006773Y019306D01*
X006872Y019405D02*
X006000Y019405D01*
X006000Y019503D02*
X006970Y019503D01*
X007069Y019602D02*
X006000Y019602D01*
X006000Y019700D02*
X007167Y019700D01*
X007250Y019799D02*
X006000Y019799D01*
X005600Y019799D02*
X005450Y019799D01*
X005450Y019897D02*
X005600Y019897D01*
X005600Y019996D02*
X005539Y019996D01*
X005600Y019700D02*
X005450Y019700D01*
X005450Y019602D02*
X005600Y019602D01*
X005600Y019503D02*
X005450Y019503D01*
X005450Y019405D02*
X005600Y019405D01*
X005600Y019306D02*
X005450Y019306D01*
X005450Y019208D02*
X005600Y019208D01*
X005600Y019109D02*
X005450Y019109D01*
X005450Y019011D02*
X005600Y019011D01*
X005605Y018912D02*
X005450Y018912D01*
X005450Y018814D02*
X005704Y018814D01*
X005800Y018715D02*
X005450Y018715D01*
X005450Y018617D02*
X005800Y018617D01*
X005800Y018518D02*
X005450Y018518D01*
X005450Y018420D02*
X005800Y018420D01*
X005800Y018321D02*
X005450Y018321D01*
X005450Y018223D02*
X005800Y018223D01*
X005800Y018124D02*
X005568Y018124D01*
X005605Y018026D02*
X005800Y018026D01*
X005800Y017927D02*
X005605Y017927D01*
X005605Y017829D02*
X005800Y017829D01*
X005800Y017730D02*
X005605Y017730D01*
X005605Y017632D02*
X005800Y017632D01*
X005800Y017533D02*
X005605Y017533D01*
X005605Y017435D02*
X005800Y017435D01*
X005800Y017336D02*
X005605Y017336D01*
X005800Y017238D02*
X000980Y017238D01*
X000980Y017336D02*
X004595Y017336D01*
X004595Y017435D02*
X000980Y017435D01*
X000980Y017533D02*
X004595Y017533D01*
X004595Y017632D02*
X000980Y017632D01*
X000980Y017655D02*
X002935Y019610D01*
X002958Y019610D01*
X003064Y019654D01*
X003146Y019736D01*
X003190Y019842D01*
X003190Y019958D01*
X003146Y020064D01*
X003064Y020146D01*
X002958Y020190D01*
X002842Y020190D01*
X002736Y020146D01*
X002654Y020064D01*
X002610Y019958D01*
X002610Y019935D01*
X000655Y017980D01*
X000655Y017980D01*
X000520Y017845D01*
X000520Y007436D01*
X000655Y007302D01*
X001186Y006770D01*
X001350Y006770D01*
X001350Y006688D01*
X001438Y006600D01*
X003562Y006600D01*
X003650Y006688D01*
X003650Y007312D01*
X003562Y007400D01*
X001438Y007400D01*
X001350Y007312D01*
X001350Y007257D01*
X000980Y007627D01*
X000980Y017655D01*
X001055Y017730D02*
X004595Y017730D01*
X004595Y017829D02*
X001154Y017829D01*
X001252Y017927D02*
X004595Y017927D01*
X004595Y018026D02*
X001351Y018026D01*
X001449Y018124D02*
X004632Y018124D01*
X004750Y018223D02*
X001548Y018223D01*
X001646Y018321D02*
X004750Y018321D01*
X004750Y018420D02*
X001745Y018420D01*
X001843Y018518D02*
X004750Y018518D01*
X004750Y018617D02*
X001942Y018617D01*
X002040Y018715D02*
X004750Y018715D01*
X004750Y018814D02*
X002139Y018814D01*
X002237Y018912D02*
X004750Y018912D01*
X004750Y019011D02*
X002336Y019011D01*
X002434Y019109D02*
X004750Y019109D01*
X004750Y019208D02*
X002533Y019208D01*
X002631Y019306D02*
X004750Y019306D01*
X004750Y019405D02*
X002730Y019405D01*
X002828Y019503D02*
X004750Y019503D01*
X004750Y019602D02*
X002927Y019602D01*
X003110Y019700D02*
X004750Y019700D01*
X004750Y019799D02*
X003172Y019799D01*
X003190Y019897D02*
X004750Y019897D01*
X004750Y019996D02*
X003174Y019996D01*
X003116Y020094D02*
X004750Y020094D01*
X004780Y020193D02*
X000190Y020193D01*
X000190Y020291D02*
X001790Y020291D01*
X001691Y020390D02*
X000190Y020390D01*
X000190Y020488D02*
X001593Y020488D01*
X001494Y020587D02*
X000190Y020587D01*
X000190Y020685D02*
X001396Y020685D01*
X001297Y020784D02*
X000190Y020784D01*
X000190Y020882D02*
X001199Y020882D01*
X000757Y020981D02*
X000190Y020981D01*
X000190Y021079D02*
X000658Y021079D01*
X000560Y021178D02*
X000190Y021178D01*
X000190Y021276D02*
X000507Y021276D01*
X000507Y021375D02*
X000190Y021375D01*
X000190Y021473D02*
X000507Y021473D01*
X000507Y021572D02*
X000190Y021572D01*
X000190Y021670D02*
X000507Y021670D01*
X000554Y021769D02*
X000190Y021769D01*
X000190Y021867D02*
X000653Y021867D01*
X000751Y021966D02*
X000190Y021966D01*
X000190Y022064D02*
X000850Y022064D01*
X001350Y022064D02*
X004739Y022064D01*
X004837Y022163D02*
X000190Y022163D01*
X000190Y022261D02*
X008173Y022261D01*
X008160Y022360D02*
X000190Y022360D01*
X000190Y022458D02*
X008181Y022458D01*
X008220Y022557D02*
X000190Y022557D01*
X000190Y022655D02*
X008280Y022655D01*
X008378Y022754D02*
X000190Y022754D01*
X000190Y022852D02*
X008477Y022852D01*
X008575Y022951D02*
X000190Y022951D01*
X000190Y023049D02*
X008674Y023049D01*
X008772Y023148D02*
X000190Y023148D01*
X000190Y023246D02*
X008871Y023246D01*
X009029Y022754D02*
X012771Y022754D01*
X012870Y022655D02*
X008930Y022655D01*
X008832Y022557D02*
X012968Y022557D01*
X013067Y022458D02*
X008733Y022458D01*
X008740Y022360D02*
X010713Y022360D01*
X010615Y022261D02*
X008727Y022261D01*
X008930Y021260D02*
X008690Y021020D01*
X008690Y020680D01*
X008750Y020620D01*
X008750Y018405D01*
X008720Y018375D01*
X008333Y018375D01*
X008245Y018287D01*
X008245Y017533D01*
X006800Y017533D01*
X006800Y017435D02*
X011727Y017435D01*
X011727Y017533D02*
X009255Y017533D01*
X009255Y017920D01*
X009397Y018062D01*
X009450Y018190D01*
X009450Y020620D01*
X009510Y020680D01*
X009510Y021020D01*
X009270Y021260D01*
X008930Y021260D01*
X008848Y021178D02*
X008352Y021178D01*
X008451Y021079D02*
X008749Y021079D01*
X008690Y020981D02*
X008510Y020981D01*
X008510Y020882D02*
X008690Y020882D01*
X008690Y020784D02*
X008510Y020784D01*
X008510Y020685D02*
X008690Y020685D01*
X008750Y020587D02*
X008416Y020587D01*
X008318Y020488D02*
X008750Y020488D01*
X008750Y020390D02*
X008135Y020390D01*
X008036Y020291D02*
X008750Y020291D01*
X008750Y020193D02*
X007873Y020193D01*
X007650Y020094D02*
X008750Y020094D01*
X008750Y019996D02*
X007650Y019996D01*
X007650Y019897D02*
X008750Y019897D01*
X008750Y019799D02*
X007650Y019799D01*
X007650Y019700D02*
X008750Y019700D01*
X008750Y019602D02*
X007650Y019602D01*
X007650Y019503D02*
X008750Y019503D01*
X008750Y019405D02*
X007587Y019405D01*
X007339Y019306D02*
X008750Y019306D01*
X008750Y019208D02*
X007240Y019208D01*
X007142Y019109D02*
X008750Y019109D01*
X008750Y019011D02*
X007043Y019011D01*
X006945Y018912D02*
X008750Y018912D01*
X008750Y018814D02*
X006846Y018814D01*
X006800Y018715D02*
X008750Y018715D01*
X008750Y018617D02*
X006800Y018617D01*
X006800Y018518D02*
X008750Y018518D01*
X008750Y018420D02*
X006800Y018420D01*
X006800Y018321D02*
X008279Y018321D01*
X008245Y018223D02*
X006800Y018223D01*
X006800Y018124D02*
X008245Y018124D01*
X008245Y018026D02*
X006800Y018026D01*
X006800Y017927D02*
X008245Y017927D01*
X008245Y017829D02*
X006800Y017829D01*
X006800Y017730D02*
X008245Y017730D01*
X008245Y017632D02*
X006800Y017632D01*
X006800Y017336D02*
X011727Y017336D01*
X011727Y017238D02*
X009185Y017238D01*
X009255Y017139D02*
X011728Y017139D01*
X011728Y017041D02*
X009255Y017041D01*
X009255Y016942D02*
X011728Y016942D01*
X011728Y016844D02*
X009255Y016844D01*
X009255Y016745D02*
X011728Y016745D01*
X011728Y016647D02*
X009255Y016647D01*
X009255Y016548D02*
X011729Y016548D01*
X011729Y016450D02*
X009255Y016450D01*
X009193Y016351D02*
X011729Y016351D01*
X011729Y016253D02*
X009100Y016253D01*
X009100Y016154D02*
X011729Y016154D01*
X011729Y016056D02*
X009100Y016056D01*
X009094Y015957D02*
X011729Y015957D01*
X011730Y015859D02*
X009054Y015859D01*
X008965Y015760D02*
X011730Y015760D01*
X011680Y015662D02*
X008867Y015662D01*
X008768Y015563D02*
X011581Y015563D01*
X011483Y015465D02*
X008670Y015465D01*
X008615Y015366D02*
X011384Y015366D01*
X011286Y015268D02*
X008422Y015268D01*
X008314Y015169D02*
X011187Y015169D01*
X011089Y015071D02*
X010481Y015071D01*
X010440Y014480D02*
X012760Y014480D01*
X012760Y014578D02*
X011360Y014578D01*
X011458Y014677D02*
X012760Y014677D01*
X012760Y014775D02*
X011557Y014775D01*
X011655Y014874D02*
X012760Y014874D01*
X012760Y014972D02*
X011754Y014972D01*
X011852Y015071D02*
X012760Y015071D01*
X012760Y015169D02*
X011951Y015169D01*
X012049Y015268D02*
X012760Y015268D01*
X012760Y015366D02*
X012148Y015366D01*
X012236Y015465D02*
X012760Y015465D01*
X012760Y015563D02*
X012270Y015563D01*
X012270Y015547D02*
X012270Y015547D01*
X012270Y015654D02*
X012270Y015654D01*
X012270Y015662D02*
X012760Y015662D01*
X012760Y015760D02*
X012270Y015760D01*
X012270Y015859D02*
X012760Y015859D01*
X012760Y015957D02*
X012269Y015957D01*
X012269Y016056D02*
X012760Y016056D01*
X012760Y016154D02*
X012269Y016154D01*
X012269Y016253D02*
X012760Y016253D01*
X012760Y016351D02*
X012269Y016351D01*
X012269Y016450D02*
X012760Y016450D01*
X012760Y016548D02*
X012269Y016548D01*
X012268Y016647D02*
X012760Y016647D01*
X012760Y016745D02*
X012268Y016745D01*
X012268Y016844D02*
X012760Y016844D01*
X012760Y016942D02*
X012268Y016942D01*
X012268Y017041D02*
X012760Y017041D01*
X012760Y017139D02*
X012268Y017139D01*
X012267Y017238D02*
X012760Y017238D01*
X012760Y017336D02*
X012267Y017336D01*
X012267Y017435D02*
X012760Y017435D01*
X012760Y017533D02*
X012267Y017533D01*
X012267Y017632D02*
X012760Y017632D01*
X012760Y017730D02*
X012267Y017730D01*
X012267Y017829D02*
X012760Y017829D01*
X012760Y017927D02*
X012266Y017927D01*
X012266Y018026D02*
X012760Y018026D01*
X012760Y018124D02*
X012266Y018124D01*
X012266Y018223D02*
X012760Y018223D01*
X012760Y018321D02*
X012266Y018321D01*
X012266Y018420D02*
X012760Y018420D01*
X012760Y018518D02*
X012265Y018518D01*
X012265Y018617D02*
X012760Y018617D01*
X012760Y018715D02*
X012265Y018715D01*
X012265Y018814D02*
X012760Y018814D01*
X012760Y018912D02*
X012265Y018912D01*
X012265Y019011D02*
X012760Y019011D01*
X012760Y019109D02*
X012265Y019109D01*
X012264Y019208D02*
X012760Y019208D01*
X012760Y019306D02*
X012264Y019306D01*
X012264Y019405D02*
X012760Y019405D01*
X012760Y019503D02*
X012264Y019503D01*
X012264Y019602D02*
X012760Y019602D01*
X012760Y019700D02*
X012264Y019700D01*
X012263Y019799D02*
X012760Y019799D01*
X012760Y019897D02*
X012263Y019897D01*
X012263Y019996D02*
X012760Y019996D01*
X012760Y020094D02*
X012263Y020094D01*
X012263Y020193D02*
X012760Y020193D01*
X012760Y020291D02*
X012263Y020291D01*
X012263Y020390D02*
X012760Y020390D01*
X012760Y020488D02*
X012262Y020488D01*
X012262Y020587D02*
X012760Y020587D01*
X012760Y020685D02*
X012262Y020685D01*
X012262Y020784D02*
X012760Y020784D01*
X012760Y020882D02*
X012262Y020882D01*
X012262Y020981D02*
X012760Y020981D01*
X012760Y021079D02*
X012261Y021079D01*
X012261Y021178D02*
X012760Y021178D01*
X012760Y021276D02*
X012261Y021276D01*
X012261Y021375D02*
X012760Y021375D01*
X012760Y021473D02*
X012261Y021473D01*
X012261Y021572D02*
X012760Y021572D01*
X012684Y021670D02*
X012296Y021670D01*
X012395Y021769D02*
X012585Y021769D01*
X012540Y021867D02*
X012440Y021867D01*
X012440Y021966D02*
X012540Y021966D01*
X012540Y022064D02*
X012440Y022064D01*
X012440Y022163D02*
X012540Y022163D01*
X012615Y022261D02*
X012365Y022261D01*
X012267Y022360D02*
X012713Y022360D01*
X013225Y022951D02*
X019320Y022951D01*
X019320Y023005D02*
X019320Y022861D01*
X019238Y022779D01*
X019238Y022221D01*
X019326Y022133D01*
X019844Y022133D01*
X019931Y022221D01*
X019931Y022779D01*
X019844Y022867D01*
X019780Y022867D01*
X019780Y023195D01*
X019645Y023330D01*
X019045Y023930D01*
X018680Y023930D01*
X018664Y023946D01*
X018558Y023990D01*
X018442Y023990D01*
X018336Y023946D01*
X018254Y023864D01*
X018210Y023758D01*
X018210Y023642D01*
X018254Y023536D01*
X018336Y023454D01*
X018442Y023410D01*
X018558Y023410D01*
X018664Y023454D01*
X018680Y023470D01*
X018855Y023470D01*
X019320Y023005D01*
X019276Y023049D02*
X013126Y023049D01*
X013028Y023148D02*
X019177Y023148D01*
X019079Y023246D02*
X012929Y023246D01*
X013323Y022852D02*
X014248Y022852D01*
X014149Y022754D02*
X013422Y022754D01*
X013520Y022655D02*
X014102Y022655D01*
X014073Y022557D02*
X013619Y022557D01*
X013717Y022458D02*
X014073Y022458D01*
X014096Y022360D02*
X013816Y022360D01*
X013880Y022261D02*
X014137Y022261D01*
X014233Y022163D02*
X013880Y022163D01*
X013880Y022064D02*
X014305Y022064D01*
X014305Y021966D02*
X013880Y021966D01*
X013880Y021867D02*
X014305Y021867D01*
X014305Y021769D02*
X013880Y021769D01*
X013880Y021670D02*
X014305Y021670D01*
X014305Y021572D02*
X013880Y021572D01*
X013880Y021473D02*
X014305Y021473D01*
X014305Y021375D02*
X013880Y021375D01*
X013880Y021276D02*
X014206Y021276D01*
X014169Y021178D02*
X013880Y021178D01*
X013880Y021079D02*
X014169Y021079D01*
X014169Y020981D02*
X013880Y020981D01*
X013880Y020882D02*
X014169Y020882D01*
X014169Y020784D02*
X013880Y020784D01*
X013880Y020685D02*
X014148Y020685D01*
X014070Y020587D02*
X013880Y020587D01*
X013880Y020488D02*
X014070Y020488D01*
X014070Y020390D02*
X013880Y020390D01*
X013880Y020291D02*
X014070Y020291D01*
X014070Y020193D02*
X013880Y020193D01*
X013880Y020094D02*
X014070Y020094D01*
X014070Y019996D02*
X013880Y019996D01*
X013880Y019897D02*
X014070Y019897D01*
X013880Y019799D02*
X014335Y019799D01*
X014240Y019700D02*
X013880Y019700D01*
X013880Y019602D02*
X014219Y019602D01*
X014219Y019503D02*
X013880Y019503D01*
X013880Y019405D02*
X014219Y019405D01*
X014219Y019306D02*
X013880Y019306D01*
X013968Y019208D02*
X014219Y019208D01*
X014231Y019109D02*
X014066Y019109D01*
X014165Y019011D02*
X015585Y019011D01*
X015940Y018715D02*
X016270Y018715D01*
X016270Y018617D02*
X015842Y018617D01*
X015743Y018518D02*
X016270Y018518D01*
X016270Y018420D02*
X013220Y018420D01*
X013220Y018518D02*
X014007Y018518D01*
X013908Y018617D02*
X013220Y018617D01*
X013220Y018715D02*
X013810Y018715D01*
X013711Y018814D02*
X013220Y018814D01*
X013220Y018912D02*
X013613Y018912D01*
X013514Y019011D02*
X013220Y019011D01*
X013220Y019109D02*
X013420Y019109D01*
X013420Y019208D02*
X013220Y019208D01*
X013220Y019306D02*
X013420Y019306D01*
X013420Y019405D02*
X013220Y019405D01*
X013220Y019503D02*
X013420Y019503D01*
X013420Y019602D02*
X013220Y019602D01*
X013220Y019700D02*
X013420Y019700D01*
X013420Y019799D02*
X013220Y019799D01*
X013220Y019897D02*
X013420Y019897D01*
X013420Y019996D02*
X013220Y019996D01*
X013220Y020094D02*
X013420Y020094D01*
X013420Y020193D02*
X013220Y020193D01*
X013220Y020291D02*
X013420Y020291D01*
X013420Y020390D02*
X013220Y020390D01*
X013220Y020488D02*
X013420Y020488D01*
X013420Y020587D02*
X013220Y020587D01*
X013220Y020685D02*
X013420Y020685D01*
X013420Y020784D02*
X013220Y020784D01*
X013220Y020882D02*
X013420Y020882D01*
X013420Y020981D02*
X013220Y020981D01*
X013220Y021079D02*
X013420Y021079D01*
X013420Y021178D02*
X013220Y021178D01*
X013220Y021276D02*
X013420Y021276D01*
X013420Y021375D02*
X013220Y021375D01*
X013220Y021473D02*
X013420Y021473D01*
X013420Y021572D02*
X013220Y021572D01*
X013296Y021670D02*
X013420Y021670D01*
X013420Y021769D02*
X013395Y021769D01*
X014765Y021769D02*
X016270Y021769D01*
X016270Y021867D02*
X014765Y021867D01*
X014765Y021966D02*
X016270Y021966D01*
X016270Y022064D02*
X014765Y022064D01*
X014767Y022163D02*
X016073Y022163D01*
X016073Y022161D02*
X016161Y022073D01*
X016270Y022073D01*
X016270Y018395D01*
X014670Y016795D01*
X014670Y011730D01*
X014654Y011714D01*
X014610Y011608D01*
X014610Y011492D01*
X014654Y011386D01*
X014736Y011304D01*
X014842Y011260D01*
X014958Y011260D01*
X015064Y011304D01*
X015146Y011386D01*
X015190Y011492D01*
X015190Y011608D01*
X015146Y011714D01*
X015130Y011730D01*
X015130Y016605D01*
X016595Y018070D01*
X016919Y018070D01*
X016919Y018021D01*
X017006Y017933D01*
X017524Y017933D01*
X017600Y018009D01*
X017676Y017933D01*
X018194Y017933D01*
X018281Y018021D01*
X018281Y018070D01*
X018333Y018070D01*
X018333Y018056D01*
X018421Y017969D01*
X018979Y017969D01*
X019067Y018056D01*
X019067Y018214D01*
X019567Y018214D01*
X019605Y018176D01*
X019946Y018176D01*
X020033Y018264D01*
X020033Y018624D01*
X019958Y018700D01*
X020033Y018776D01*
X020033Y019136D01*
X019946Y019224D01*
X019605Y019224D01*
X019595Y019215D01*
X019067Y019215D01*
X019067Y019244D01*
X018979Y019331D01*
X018421Y019331D01*
X018370Y019280D01*
X017280Y019280D01*
X017264Y019296D01*
X017158Y019340D01*
X017042Y019340D01*
X016936Y019296D01*
X016854Y019214D01*
X016810Y019108D01*
X016810Y018992D01*
X016854Y018886D01*
X016936Y018804D01*
X017042Y018760D01*
X017158Y018760D01*
X017264Y018804D01*
X017280Y018820D01*
X018333Y018820D01*
X018333Y018726D01*
X018409Y018650D01*
X018333Y018574D01*
X018333Y018530D01*
X018281Y018530D01*
X018281Y018579D01*
X018194Y018667D01*
X017676Y018667D01*
X017600Y018591D01*
X017524Y018667D01*
X017006Y018667D01*
X016919Y018579D01*
X016919Y018530D01*
X016730Y018530D01*
X016730Y022073D01*
X016839Y022073D01*
X016927Y022161D01*
X016927Y022839D01*
X016839Y022927D01*
X016161Y022927D01*
X016073Y022839D01*
X016073Y022161D01*
X016073Y022261D02*
X014863Y022261D01*
X014904Y022360D02*
X016073Y022360D01*
X016073Y022458D02*
X014927Y022458D01*
X014927Y022557D02*
X016073Y022557D01*
X016073Y022655D02*
X014898Y022655D01*
X014851Y022754D02*
X016073Y022754D01*
X016086Y022852D02*
X014752Y022852D01*
X014765Y021670D02*
X016270Y021670D01*
X016270Y021572D02*
X014765Y021572D01*
X014765Y021473D02*
X016270Y021473D01*
X016270Y021375D02*
X014765Y021375D01*
X014865Y021276D02*
X016270Y021276D01*
X016270Y021178D02*
X014902Y021178D01*
X014902Y021079D02*
X016270Y021079D01*
X016270Y020981D02*
X014902Y020981D01*
X014902Y020882D02*
X016270Y020882D01*
X016270Y020784D02*
X014902Y020784D01*
X014866Y020685D02*
X016270Y020685D01*
X016270Y020587D02*
X014882Y020587D01*
X014882Y020488D02*
X016270Y020488D01*
X016270Y020390D02*
X014882Y020390D01*
X014882Y020291D02*
X016270Y020291D01*
X016270Y020193D02*
X014882Y020193D01*
X014882Y020094D02*
X016270Y020094D01*
X016270Y019996D02*
X014882Y019996D01*
X014882Y019897D02*
X016270Y019897D01*
X016270Y019799D02*
X014795Y019799D01*
X014891Y019700D02*
X014909Y019700D01*
X015560Y019700D02*
X016270Y019700D01*
X016270Y019602D02*
X015724Y019602D01*
X015822Y019503D02*
X016270Y019503D01*
X016270Y019405D02*
X015921Y019405D01*
X016090Y019306D02*
X016270Y019306D01*
X016270Y019208D02*
X016199Y019208D01*
X016239Y019109D02*
X016270Y019109D01*
X016270Y019011D02*
X016240Y019011D01*
X016270Y018912D02*
X016207Y018912D01*
X016270Y018814D02*
X016124Y018814D01*
X016196Y018321D02*
X013220Y018321D01*
X013220Y018223D02*
X016097Y018223D01*
X015999Y018124D02*
X013220Y018124D01*
X013220Y018026D02*
X015900Y018026D01*
X015802Y017927D02*
X013220Y017927D01*
X013220Y017829D02*
X015703Y017829D01*
X015605Y017730D02*
X013220Y017730D01*
X013220Y017632D02*
X015506Y017632D01*
X015408Y017533D02*
X013220Y017533D01*
X013220Y017435D02*
X015309Y017435D01*
X015211Y017336D02*
X013220Y017336D01*
X013220Y017238D02*
X015112Y017238D01*
X015014Y017139D02*
X013220Y017139D01*
X013220Y017041D02*
X014915Y017041D01*
X014817Y016942D02*
X013220Y016942D01*
X013220Y016844D02*
X014718Y016844D01*
X014670Y016745D02*
X013220Y016745D01*
X013220Y016647D02*
X014670Y016647D01*
X014670Y016548D02*
X013220Y016548D01*
X013220Y016450D02*
X014670Y016450D01*
X014670Y016351D02*
X013220Y016351D01*
X013220Y016253D02*
X014670Y016253D01*
X014670Y016154D02*
X013220Y016154D01*
X013220Y016056D02*
X014670Y016056D01*
X014670Y015957D02*
X013220Y015957D01*
X013220Y015859D02*
X014670Y015859D01*
X014670Y015760D02*
X013220Y015760D01*
X013220Y015662D02*
X014670Y015662D01*
X014670Y015563D02*
X013220Y015563D01*
X013220Y015465D02*
X014670Y015465D01*
X014670Y015366D02*
X013220Y015366D01*
X013220Y015268D02*
X014670Y015268D01*
X014670Y015169D02*
X013220Y015169D01*
X013220Y015071D02*
X014670Y015071D01*
X014670Y014972D02*
X013220Y014972D01*
X013220Y014874D02*
X014670Y014874D01*
X014670Y014775D02*
X013220Y014775D01*
X013220Y014677D02*
X014670Y014677D01*
X014670Y014578D02*
X013220Y014578D01*
X013220Y014480D02*
X014670Y014480D01*
X014670Y014381D02*
X013220Y014381D01*
X013220Y014283D02*
X014670Y014283D01*
X014670Y014184D02*
X013220Y014184D01*
X013220Y014086D02*
X014670Y014086D01*
X014670Y013987D02*
X013220Y013987D01*
X013220Y013889D02*
X014670Y013889D01*
X014670Y013790D02*
X013220Y013790D01*
X013220Y013692D02*
X014670Y013692D01*
X014670Y013593D02*
X013220Y013593D01*
X013220Y013495D02*
X014670Y013495D01*
X014670Y013396D02*
X013220Y013396D01*
X013220Y013298D02*
X014670Y013298D01*
X014670Y013199D02*
X013220Y013199D01*
X013220Y013101D02*
X014670Y013101D01*
X014670Y013002D02*
X013220Y013002D01*
X013220Y012904D02*
X014670Y012904D01*
X014670Y012805D02*
X013220Y012805D01*
X013220Y012707D02*
X014670Y012707D01*
X014670Y012608D02*
X013220Y012608D01*
X013220Y012510D02*
X014670Y012510D01*
X014670Y012411D02*
X013220Y012411D01*
X013263Y012313D02*
X014670Y012313D01*
X014670Y012214D02*
X013361Y012214D01*
X013460Y012116D02*
X014670Y012116D01*
X014670Y012017D02*
X013558Y012017D01*
X013657Y011919D02*
X014670Y011919D01*
X014670Y011820D02*
X013755Y011820D01*
X013854Y011722D02*
X014661Y011722D01*
X014616Y011623D02*
X013952Y011623D01*
X014051Y011525D02*
X014610Y011525D01*
X014637Y011426D02*
X014149Y011426D01*
X014248Y011328D02*
X014712Y011328D01*
X014445Y011131D02*
X022810Y011131D01*
X022810Y011229D02*
X014346Y011229D01*
X015088Y011328D02*
X022810Y011328D01*
X022810Y011426D02*
X015163Y011426D01*
X015190Y011525D02*
X022810Y011525D01*
X022810Y011623D02*
X015184Y011623D01*
X015139Y011722D02*
X022810Y011722D01*
X022810Y011820D02*
X015130Y011820D01*
X015130Y011919D02*
X022810Y011919D01*
X022810Y012017D02*
X015130Y012017D01*
X015130Y012116D02*
X022810Y012116D01*
X022810Y012214D02*
X015130Y012214D01*
X015130Y012313D02*
X022810Y012313D01*
X022810Y012411D02*
X015130Y012411D01*
X015130Y012510D02*
X022810Y012510D01*
X022810Y012608D02*
X015130Y012608D01*
X015130Y012707D02*
X022810Y012707D01*
X022810Y012805D02*
X015130Y012805D01*
X015130Y012904D02*
X022810Y012904D01*
X022810Y013002D02*
X015130Y013002D01*
X015130Y013101D02*
X022810Y013101D01*
X022810Y013199D02*
X015130Y013199D01*
X015130Y013298D02*
X022810Y013298D01*
X022810Y013396D02*
X015130Y013396D01*
X015130Y013495D02*
X022810Y013495D01*
X022810Y013593D02*
X015130Y013593D01*
X015130Y013692D02*
X022810Y013692D01*
X022810Y013790D02*
X015130Y013790D01*
X015130Y013889D02*
X022810Y013889D01*
X022810Y013987D02*
X015130Y013987D01*
X015130Y014086D02*
X022810Y014086D01*
X022810Y014184D02*
X015130Y014184D01*
X015130Y014283D02*
X022810Y014283D01*
X022810Y014381D02*
X015130Y014381D01*
X015130Y014480D02*
X022810Y014480D01*
X022810Y014578D02*
X015130Y014578D01*
X015130Y014677D02*
X022810Y014677D01*
X022810Y014775D02*
X015130Y014775D01*
X015130Y014874D02*
X022810Y014874D01*
X022810Y014972D02*
X015130Y014972D01*
X015130Y015071D02*
X022810Y015071D01*
X022810Y015169D02*
X015130Y015169D01*
X015130Y015268D02*
X022810Y015268D01*
X022810Y015366D02*
X015130Y015366D01*
X015130Y015465D02*
X022810Y015465D01*
X022810Y015563D02*
X015130Y015563D01*
X015130Y015662D02*
X022810Y015662D01*
X022810Y015760D02*
X015130Y015760D01*
X015130Y015859D02*
X022810Y015859D01*
X022810Y015957D02*
X015130Y015957D01*
X015130Y016056D02*
X022810Y016056D01*
X022810Y016154D02*
X015130Y016154D01*
X015130Y016253D02*
X022810Y016253D01*
X022810Y016351D02*
X015130Y016351D01*
X015130Y016450D02*
X022810Y016450D01*
X022810Y016548D02*
X015130Y016548D01*
X015172Y016647D02*
X022810Y016647D01*
X022810Y016745D02*
X015270Y016745D01*
X015369Y016844D02*
X022810Y016844D01*
X022810Y016942D02*
X015467Y016942D01*
X015566Y017041D02*
X022810Y017041D01*
X022810Y017139D02*
X015664Y017139D01*
X015763Y017238D02*
X022810Y017238D01*
X022810Y017336D02*
X015861Y017336D01*
X015960Y017435D02*
X022810Y017435D01*
X022810Y017533D02*
X016058Y017533D01*
X016157Y017632D02*
X022810Y017632D01*
X022810Y017730D02*
X016255Y017730D01*
X016354Y017829D02*
X022810Y017829D01*
X022810Y017927D02*
X016452Y017927D01*
X016551Y018026D02*
X016919Y018026D01*
X016956Y018617D02*
X016730Y018617D01*
X016730Y018715D02*
X018344Y018715D01*
X018333Y018814D02*
X017274Y018814D01*
X017574Y018617D02*
X017626Y018617D01*
X018244Y018617D02*
X018376Y018617D01*
X018364Y018026D02*
X018281Y018026D01*
X019036Y018026D02*
X022810Y018026D01*
X022810Y018124D02*
X019067Y018124D01*
X019992Y018223D02*
X022810Y018223D01*
X022810Y018321D02*
X020033Y018321D01*
X020033Y018420D02*
X022810Y018420D01*
X022810Y018518D02*
X020760Y018518D01*
X020762Y018520D02*
X020762Y018880D01*
X020734Y018909D01*
X020734Y019392D01*
X020480Y019645D01*
X020480Y023795D01*
X020440Y023835D01*
X020440Y023858D01*
X020396Y023964D01*
X020314Y024046D01*
X020208Y024090D01*
X020092Y024090D01*
X019986Y024046D01*
X019904Y023964D01*
X019860Y023858D01*
X019860Y023742D01*
X019904Y023636D01*
X019986Y023554D01*
X020020Y023540D01*
X020020Y019455D01*
X020155Y019320D01*
X020274Y019201D01*
X020274Y018909D01*
X020245Y018880D01*
X020245Y018520D01*
X020333Y018432D01*
X020674Y018432D01*
X020762Y018520D01*
X020762Y018617D02*
X022810Y018617D01*
X022810Y018715D02*
X020762Y018715D01*
X020762Y018814D02*
X022810Y018814D01*
X022810Y018912D02*
X020734Y018912D01*
X020734Y019011D02*
X022810Y019011D01*
X022810Y019109D02*
X020734Y019109D01*
X020734Y019208D02*
X022810Y019208D01*
X022810Y019306D02*
X020734Y019306D01*
X020721Y019405D02*
X022810Y019405D01*
X022810Y019503D02*
X020622Y019503D01*
X020524Y019602D02*
X022810Y019602D01*
X022810Y019700D02*
X020480Y019700D01*
X020480Y019799D02*
X022810Y019799D01*
X022810Y019897D02*
X020480Y019897D01*
X020480Y019996D02*
X022810Y019996D01*
X022810Y020094D02*
X020480Y020094D01*
X020480Y020193D02*
X022810Y020193D01*
X022810Y020291D02*
X020480Y020291D01*
X020480Y020390D02*
X022810Y020390D01*
X022810Y020488D02*
X020480Y020488D01*
X020480Y020587D02*
X022810Y020587D01*
X022810Y020685D02*
X020480Y020685D01*
X020480Y020784D02*
X022810Y020784D01*
X022810Y020882D02*
X020480Y020882D01*
X020480Y020981D02*
X022810Y020981D01*
X022810Y021079D02*
X020480Y021079D01*
X020480Y021178D02*
X022810Y021178D01*
X022810Y021276D02*
X020480Y021276D01*
X020480Y021375D02*
X022810Y021375D01*
X022810Y021473D02*
X020480Y021473D01*
X020480Y021572D02*
X022810Y021572D01*
X022810Y021670D02*
X020480Y021670D01*
X020480Y021769D02*
X022810Y021769D01*
X022810Y021867D02*
X020480Y021867D01*
X020480Y021966D02*
X022810Y021966D01*
X022810Y022064D02*
X020480Y022064D01*
X020480Y022163D02*
X022810Y022163D01*
X022810Y022261D02*
X020480Y022261D01*
X020480Y022360D02*
X022810Y022360D01*
X022810Y022458D02*
X020480Y022458D01*
X020480Y022557D02*
X022810Y022557D01*
X022810Y022655D02*
X020480Y022655D01*
X020480Y022754D02*
X022810Y022754D01*
X022810Y022852D02*
X020480Y022852D01*
X020480Y022951D02*
X022810Y022951D01*
X022810Y023049D02*
X020480Y023049D01*
X020480Y023148D02*
X022810Y023148D01*
X022810Y023246D02*
X020480Y023246D01*
X020480Y023345D02*
X022810Y023345D01*
X022810Y023443D02*
X020480Y023443D01*
X020480Y023542D02*
X022810Y023542D01*
X022810Y023640D02*
X020480Y023640D01*
X020480Y023739D02*
X022810Y023739D01*
X022810Y023837D02*
X020440Y023837D01*
X020408Y023936D02*
X022810Y023936D01*
X022810Y024034D02*
X020326Y024034D01*
X019974Y024034D02*
X001203Y024034D01*
X001139Y023936D02*
X018325Y023936D01*
X018243Y023837D02*
X001060Y023837D01*
X000845Y023739D02*
X018210Y023739D01*
X018211Y023640D02*
X000762Y023640D01*
X000584Y023542D02*
X018252Y023542D01*
X018363Y023443D02*
X000190Y023443D01*
X000190Y023345D02*
X018980Y023345D01*
X018882Y023443D02*
X018637Y023443D01*
X018675Y023936D02*
X019892Y023936D01*
X019860Y023837D02*
X019138Y023837D01*
X019237Y023739D02*
X019862Y023739D01*
X019902Y023640D02*
X019335Y023640D01*
X019434Y023542D02*
X020016Y023542D01*
X020020Y023443D02*
X019532Y023443D01*
X019631Y023345D02*
X020020Y023345D01*
X020020Y023246D02*
X019729Y023246D01*
X019780Y023148D02*
X020020Y023148D01*
X020020Y023049D02*
X019780Y023049D01*
X019780Y022951D02*
X020020Y022951D01*
X020020Y022852D02*
X019858Y022852D01*
X019931Y022754D02*
X020020Y022754D01*
X020020Y022655D02*
X019931Y022655D01*
X019931Y022557D02*
X020020Y022557D01*
X020020Y022458D02*
X019931Y022458D01*
X019931Y022360D02*
X020020Y022360D01*
X020020Y022261D02*
X019931Y022261D01*
X019873Y022163D02*
X020020Y022163D01*
X020020Y022064D02*
X016730Y022064D01*
X016730Y021966D02*
X020020Y021966D01*
X020020Y021867D02*
X016730Y021867D01*
X016730Y021769D02*
X020020Y021769D01*
X020020Y021670D02*
X016730Y021670D01*
X016730Y021572D02*
X020020Y021572D01*
X020020Y021473D02*
X016730Y021473D01*
X016730Y021375D02*
X020020Y021375D01*
X020020Y021276D02*
X016730Y021276D01*
X016730Y021178D02*
X020020Y021178D01*
X020020Y021079D02*
X016730Y021079D01*
X016730Y020981D02*
X020020Y020981D01*
X020020Y020882D02*
X016730Y020882D01*
X016730Y020784D02*
X020020Y020784D01*
X020020Y020685D02*
X016730Y020685D01*
X016730Y020587D02*
X020020Y020587D01*
X020020Y020488D02*
X016730Y020488D01*
X016730Y020390D02*
X020020Y020390D01*
X020020Y020291D02*
X016730Y020291D01*
X016730Y020193D02*
X020020Y020193D01*
X020020Y020094D02*
X016730Y020094D01*
X016730Y019996D02*
X020020Y019996D01*
X020020Y019897D02*
X016730Y019897D01*
X016730Y019799D02*
X020020Y019799D01*
X020020Y019700D02*
X016730Y019700D01*
X016730Y019602D02*
X020020Y019602D01*
X020020Y019503D02*
X016730Y019503D01*
X016730Y019405D02*
X020070Y019405D01*
X020169Y019306D02*
X019004Y019306D01*
X018396Y019306D02*
X017240Y019306D01*
X016960Y019306D02*
X016730Y019306D01*
X016730Y019208D02*
X016851Y019208D01*
X016811Y019109D02*
X016730Y019109D01*
X016730Y019011D02*
X016810Y019011D01*
X016843Y018912D02*
X016730Y018912D01*
X016730Y018814D02*
X016926Y018814D01*
X019973Y018715D02*
X020245Y018715D01*
X020245Y018617D02*
X020033Y018617D01*
X020033Y018518D02*
X020247Y018518D01*
X020245Y018814D02*
X020033Y018814D01*
X020033Y018912D02*
X020274Y018912D01*
X020274Y019011D02*
X020033Y019011D01*
X020033Y019109D02*
X020274Y019109D01*
X020267Y019208D02*
X019962Y019208D01*
X019297Y022163D02*
X016927Y022163D01*
X016927Y022261D02*
X019238Y022261D01*
X019238Y022360D02*
X016927Y022360D01*
X016927Y022458D02*
X019238Y022458D01*
X019238Y022557D02*
X016927Y022557D01*
X016927Y022655D02*
X019238Y022655D01*
X019238Y022754D02*
X016927Y022754D01*
X016914Y022852D02*
X019311Y022852D01*
X022810Y024133D02*
X001271Y024133D01*
X001277Y024231D02*
X022810Y024231D01*
X022810Y024330D02*
X001230Y024330D01*
X001049Y024428D02*
X022810Y024428D01*
X022810Y024527D02*
X001049Y024527D01*
X001049Y024479D02*
X001049Y024479D01*
X000283Y023837D02*
X000190Y023837D01*
X000272Y023843D02*
X000272Y023843D01*
X000323Y023739D02*
X000190Y023739D01*
X000190Y023640D02*
X000348Y023640D01*
X000190Y023542D02*
X000510Y023542D01*
X000511Y023541D02*
X000522Y023546D01*
X000527Y023545D01*
X000530Y023543D01*
X000535Y023544D01*
X000548Y023541D01*
X000550Y023542D02*
X000583Y023542D01*
X001449Y021966D02*
X004640Y021966D01*
X004542Y021867D02*
X001547Y021867D01*
X001646Y021769D02*
X004443Y021769D01*
X004345Y021670D02*
X001693Y021670D01*
X001693Y021572D02*
X004198Y021572D01*
X004063Y021473D02*
X001693Y021473D01*
X001696Y021375D02*
X004017Y021375D01*
X004010Y021276D02*
X001795Y021276D01*
X001893Y021178D02*
X004037Y021178D01*
X004111Y021079D02*
X001992Y021079D01*
X002090Y020981D02*
X005848Y020981D01*
X004995Y021670D02*
X010684Y021670D01*
X010782Y021572D02*
X004897Y021572D01*
X004798Y021473D02*
X011721Y021473D01*
X011721Y021375D02*
X004700Y021375D01*
X004601Y021276D02*
X011721Y021276D01*
X011721Y021178D02*
X009352Y021178D01*
X009451Y021079D02*
X011721Y021079D01*
X011722Y020981D02*
X009510Y020981D01*
X009510Y020882D02*
X011722Y020882D01*
X011722Y020784D02*
X009510Y020784D01*
X009510Y020685D02*
X011722Y020685D01*
X011722Y020587D02*
X009450Y020587D01*
X009450Y020488D02*
X011722Y020488D01*
X011723Y020390D02*
X009450Y020390D01*
X009450Y020291D02*
X011723Y020291D01*
X011723Y020193D02*
X009450Y020193D01*
X009450Y020094D02*
X011723Y020094D01*
X011723Y019996D02*
X009450Y019996D01*
X009450Y019897D02*
X011723Y019897D01*
X011723Y019799D02*
X009450Y019799D01*
X009450Y019700D02*
X011724Y019700D01*
X011724Y019602D02*
X009450Y019602D01*
X009450Y019503D02*
X011724Y019503D01*
X011724Y019405D02*
X009450Y019405D01*
X009450Y019306D02*
X011724Y019306D01*
X011724Y019208D02*
X009450Y019208D01*
X009450Y019109D02*
X011725Y019109D01*
X011725Y019011D02*
X009450Y019011D01*
X009450Y018912D02*
X011725Y018912D01*
X011725Y018814D02*
X009450Y018814D01*
X009450Y018715D02*
X011725Y018715D01*
X011725Y018617D02*
X009450Y018617D01*
X009450Y018518D02*
X011725Y018518D01*
X011726Y018420D02*
X009450Y018420D01*
X009450Y018321D02*
X011726Y018321D01*
X011726Y018223D02*
X009450Y018223D01*
X009423Y018124D02*
X011726Y018124D01*
X011726Y018026D02*
X009361Y018026D01*
X009262Y017927D02*
X011726Y017927D01*
X011727Y017829D02*
X009255Y017829D01*
X009255Y017730D02*
X011727Y017730D01*
X011727Y017632D02*
X009255Y017632D01*
X009255Y017533D02*
X009167Y017445D01*
X008333Y017445D01*
X008245Y017533D01*
X008315Y017238D02*
X006800Y017238D01*
X006800Y017139D02*
X008245Y017139D01*
X008245Y017041D02*
X006800Y017041D01*
X006800Y016942D02*
X008245Y016942D01*
X008245Y016844D02*
X006800Y016844D01*
X006800Y016745D02*
X008245Y016745D01*
X008245Y016647D02*
X006836Y016647D01*
X006935Y016548D02*
X008245Y016548D01*
X008245Y016450D02*
X007033Y016450D01*
X007132Y016351D02*
X008307Y016351D01*
X008400Y016253D02*
X007230Y016253D01*
X007329Y016154D02*
X008369Y016154D01*
X008271Y016056D02*
X007427Y016056D01*
X007526Y015957D02*
X008172Y015957D01*
X008026Y015859D02*
X007624Y015859D01*
X007723Y015760D02*
X007997Y015760D01*
X007960Y015662D02*
X007821Y015662D01*
X007920Y015563D02*
X007960Y015563D01*
X008412Y015071D02*
X008418Y015071D01*
X008962Y015071D02*
X009119Y015071D01*
X009160Y014480D02*
X008960Y014480D01*
X008960Y014381D02*
X012760Y014381D01*
X012760Y014283D02*
X008960Y014283D01*
X008976Y014184D02*
X012760Y014184D01*
X012760Y014086D02*
X008981Y014086D01*
X008981Y013987D02*
X012760Y013987D01*
X012760Y013889D02*
X008981Y013889D01*
X008981Y013790D02*
X012760Y013790D01*
X012760Y013692D02*
X008981Y013692D01*
X008953Y013593D02*
X012760Y013593D01*
X009830Y014480D02*
X009770Y014480D01*
X008050Y013396D02*
X007800Y013396D01*
X007800Y013298D02*
X008050Y013298D01*
X008050Y013199D02*
X007800Y013199D01*
X007800Y013101D02*
X008050Y013101D01*
X008115Y013002D02*
X007881Y013002D01*
X007979Y012904D02*
X008214Y012904D01*
X008312Y012805D02*
X008078Y012805D01*
X008176Y012707D02*
X008411Y012707D01*
X008509Y012608D02*
X008275Y012608D01*
X008373Y012510D02*
X008608Y012510D01*
X008706Y012411D02*
X008472Y012411D01*
X008570Y012313D02*
X008805Y012313D01*
X008903Y012214D02*
X008669Y012214D01*
X008767Y012116D02*
X009002Y012116D01*
X009100Y012017D02*
X008866Y012017D01*
X008964Y011919D02*
X009199Y011919D01*
X009297Y011820D02*
X009063Y011820D01*
X009161Y011722D02*
X009396Y011722D01*
X009494Y011623D02*
X009260Y011623D01*
X009358Y011525D02*
X009593Y011525D01*
X009691Y011426D02*
X009457Y011426D01*
X009555Y011328D02*
X009790Y011328D01*
X009888Y011229D02*
X009654Y011229D01*
X009752Y011131D02*
X009987Y011131D01*
X010085Y011032D02*
X009851Y011032D01*
X009949Y010934D02*
X010184Y010934D01*
X010282Y010835D02*
X010048Y010835D01*
X010146Y010737D02*
X010381Y010737D01*
X010479Y010638D02*
X010245Y010638D01*
X010343Y010540D02*
X010578Y010540D01*
X010676Y010441D02*
X010442Y010441D01*
X010540Y010343D02*
X010775Y010343D01*
X010873Y010244D02*
X010639Y010244D01*
X010737Y010146D02*
X010972Y010146D01*
X010566Y009752D02*
X004496Y009752D01*
X004448Y009703D02*
X005298Y010553D01*
X005397Y010652D01*
X005450Y010780D01*
X005450Y016125D01*
X005517Y016125D01*
X005605Y016213D01*
X005605Y016967D01*
X005517Y017055D01*
X004683Y017055D01*
X004595Y016967D01*
X004595Y016213D01*
X004683Y016125D01*
X004750Y016125D01*
X004750Y010995D01*
X004105Y010350D01*
X003612Y010350D01*
X003562Y010400D01*
X001438Y010400D01*
X001350Y010312D01*
X001350Y009688D01*
X001438Y009600D01*
X003562Y009600D01*
X003612Y009650D01*
X004320Y009650D01*
X004448Y009703D01*
X004327Y009653D02*
X010664Y009653D01*
X010763Y009555D02*
X000980Y009555D01*
X000980Y009653D02*
X001385Y009653D01*
X001350Y009752D02*
X000980Y009752D01*
X000980Y009850D02*
X001350Y009850D01*
X001350Y009949D02*
X000980Y009949D01*
X000980Y010047D02*
X001350Y010047D01*
X001350Y010146D02*
X000980Y010146D01*
X000980Y010244D02*
X001350Y010244D01*
X001380Y010343D02*
X000980Y010343D01*
X000980Y010441D02*
X004196Y010441D01*
X004295Y010540D02*
X000980Y010540D01*
X000980Y010638D02*
X004393Y010638D01*
X004492Y010737D02*
X000980Y010737D01*
X000980Y010835D02*
X004590Y010835D01*
X004689Y010934D02*
X000980Y010934D01*
X000980Y011032D02*
X004750Y011032D01*
X004750Y011131D02*
X000980Y011131D01*
X000980Y011229D02*
X004750Y011229D01*
X004750Y011328D02*
X000980Y011328D01*
X000980Y011426D02*
X004750Y011426D01*
X004750Y011525D02*
X000980Y011525D01*
X000980Y011623D02*
X004750Y011623D01*
X004750Y011722D02*
X000980Y011722D01*
X000980Y011820D02*
X004750Y011820D01*
X004750Y011919D02*
X000980Y011919D01*
X000980Y012017D02*
X004750Y012017D01*
X004750Y012116D02*
X000980Y012116D01*
X000980Y012214D02*
X004750Y012214D01*
X004750Y012313D02*
X000980Y012313D01*
X000980Y012411D02*
X004750Y012411D01*
X004750Y012510D02*
X000980Y012510D01*
X000980Y012608D02*
X004750Y012608D01*
X004750Y012707D02*
X000980Y012707D01*
X000980Y012805D02*
X004750Y012805D01*
X004750Y012904D02*
X000980Y012904D01*
X000980Y013002D02*
X004750Y013002D01*
X004750Y013101D02*
X000980Y013101D01*
X000980Y013199D02*
X004750Y013199D01*
X004750Y013298D02*
X000980Y013298D01*
X000980Y013396D02*
X004750Y013396D01*
X004750Y013495D02*
X000980Y013495D01*
X000980Y013593D02*
X004750Y013593D01*
X004750Y013692D02*
X000980Y013692D01*
X000980Y013790D02*
X004750Y013790D01*
X004750Y013889D02*
X000980Y013889D01*
X000980Y013987D02*
X004750Y013987D01*
X004750Y014086D02*
X000980Y014086D01*
X000980Y014184D02*
X004750Y014184D01*
X004750Y014283D02*
X000980Y014283D01*
X000980Y014381D02*
X004750Y014381D01*
X004750Y014480D02*
X000980Y014480D01*
X000980Y014578D02*
X004750Y014578D01*
X004750Y014677D02*
X000980Y014677D01*
X000980Y014775D02*
X004750Y014775D01*
X004750Y014874D02*
X000980Y014874D01*
X000980Y014972D02*
X004750Y014972D01*
X004750Y015071D02*
X000980Y015071D01*
X000980Y015169D02*
X004750Y015169D01*
X004750Y015268D02*
X000980Y015268D01*
X000980Y015366D02*
X004750Y015366D01*
X004750Y015465D02*
X000980Y015465D01*
X000980Y015563D02*
X004750Y015563D01*
X004750Y015662D02*
X000980Y015662D01*
X000980Y015760D02*
X004750Y015760D01*
X004750Y015859D02*
X000980Y015859D01*
X000980Y015957D02*
X004750Y015957D01*
X004750Y016056D02*
X000980Y016056D01*
X000980Y016154D02*
X004654Y016154D01*
X004595Y016253D02*
X000980Y016253D01*
X000980Y016351D02*
X004595Y016351D01*
X004595Y016450D02*
X000980Y016450D01*
X000980Y016548D02*
X004595Y016548D01*
X004595Y016647D02*
X000980Y016647D01*
X000980Y016745D02*
X004595Y016745D01*
X004595Y016844D02*
X000980Y016844D01*
X000980Y016942D02*
X004595Y016942D01*
X004668Y017041D02*
X000980Y017041D01*
X000980Y017139D02*
X005800Y017139D01*
X005800Y017041D02*
X005532Y017041D01*
X005605Y016942D02*
X005800Y016942D01*
X005800Y016844D02*
X005605Y016844D01*
X005605Y016745D02*
X005800Y016745D01*
X005800Y016647D02*
X005605Y016647D01*
X005605Y016548D02*
X005800Y016548D01*
X005800Y016450D02*
X005605Y016450D01*
X005605Y016351D02*
X005800Y016351D01*
X005800Y016253D02*
X005605Y016253D01*
X005546Y016154D02*
X005863Y016154D01*
X005962Y016056D02*
X005450Y016056D01*
X005450Y015957D02*
X006060Y015957D01*
X006159Y015859D02*
X005450Y015859D01*
X005450Y015760D02*
X006257Y015760D01*
X006356Y015662D02*
X005450Y015662D01*
X005450Y015563D02*
X006454Y015563D01*
X006553Y015465D02*
X005450Y015465D01*
X005450Y015366D02*
X006651Y015366D01*
X006750Y015268D02*
X005450Y015268D01*
X005450Y015169D02*
X006848Y015169D01*
X006947Y015071D02*
X005450Y015071D01*
X005450Y014972D02*
X007045Y014972D01*
X007144Y014874D02*
X005450Y014874D01*
X005450Y014775D02*
X007242Y014775D01*
X007341Y014677D02*
X005450Y014677D01*
X005450Y014578D02*
X007400Y014578D01*
X007400Y014480D02*
X005450Y014480D01*
X005450Y014381D02*
X007400Y014381D01*
X007400Y014283D02*
X005450Y014283D01*
X005450Y014184D02*
X007400Y014184D01*
X007400Y014086D02*
X005450Y014086D01*
X005450Y013987D02*
X007400Y013987D01*
X007400Y013889D02*
X005450Y013889D01*
X005450Y013790D02*
X007400Y013790D01*
X007400Y013692D02*
X005450Y013692D01*
X005450Y013593D02*
X007400Y013593D01*
X007400Y013495D02*
X005450Y013495D01*
X005450Y013396D02*
X007400Y013396D01*
X007400Y013298D02*
X005450Y013298D01*
X005450Y013199D02*
X007400Y013199D01*
X007400Y013101D02*
X005450Y013101D01*
X005450Y013002D02*
X007400Y013002D01*
X007414Y012904D02*
X005450Y012904D01*
X005450Y012805D02*
X007512Y012805D01*
X007611Y012707D02*
X005450Y012707D01*
X005450Y012608D02*
X007709Y012608D01*
X007808Y012510D02*
X005450Y012510D01*
X005450Y012411D02*
X007906Y012411D01*
X008005Y012313D02*
X005450Y012313D01*
X005450Y012214D02*
X008103Y012214D01*
X008202Y012116D02*
X005450Y012116D01*
X005450Y012017D02*
X008300Y012017D01*
X008399Y011919D02*
X005450Y011919D01*
X005450Y011820D02*
X008497Y011820D01*
X008596Y011722D02*
X005450Y011722D01*
X005450Y011623D02*
X008694Y011623D01*
X008793Y011525D02*
X005450Y011525D01*
X005450Y011426D02*
X008891Y011426D01*
X008990Y011328D02*
X005450Y011328D01*
X005450Y011229D02*
X009088Y011229D01*
X009187Y011131D02*
X005450Y011131D01*
X005450Y011032D02*
X009285Y011032D01*
X009384Y010934D02*
X005450Y010934D01*
X005450Y010835D02*
X009482Y010835D01*
X009581Y010737D02*
X005432Y010737D01*
X005383Y010638D02*
X009679Y010638D01*
X009778Y010540D02*
X005285Y010540D01*
X005186Y010441D02*
X009876Y010441D01*
X009975Y010343D02*
X005088Y010343D01*
X004989Y010244D02*
X010073Y010244D01*
X010172Y010146D02*
X004890Y010146D01*
X004792Y010047D02*
X010270Y010047D01*
X010369Y009949D02*
X004693Y009949D01*
X004595Y009850D02*
X010467Y009850D01*
X009822Y009161D02*
X014610Y009161D01*
X014623Y009062D02*
X009921Y009062D01*
X010019Y008964D02*
X014670Y008964D01*
X014670Y008865D02*
X010118Y008865D01*
X010216Y008767D02*
X014670Y008767D01*
X014670Y008668D02*
X010315Y008668D01*
X010413Y008570D02*
X014670Y008570D01*
X014670Y008471D02*
X010512Y008471D01*
X010610Y008373D02*
X014670Y008373D01*
X014701Y008274D02*
X010709Y008274D01*
X010807Y008176D02*
X014799Y008176D01*
X014898Y008077D02*
X010906Y008077D01*
X011004Y007979D02*
X014996Y007979D01*
X015095Y007880D02*
X011103Y007880D01*
X011201Y007782D02*
X015193Y007782D01*
X016524Y007683D02*
X016576Y007683D01*
X014631Y009259D02*
X003650Y009259D01*
X003605Y009358D02*
X014697Y009358D01*
X011012Y006206D02*
X003650Y006206D01*
X003650Y006304D02*
X010913Y006304D01*
X010815Y006403D02*
X000190Y006403D01*
X000190Y006501D02*
X010716Y006501D01*
X010618Y006600D02*
X000190Y006600D01*
X000190Y006698D02*
X001350Y006698D01*
X001160Y006797D02*
X000190Y006797D01*
X000190Y006895D02*
X001061Y006895D01*
X000963Y006994D02*
X000190Y006994D01*
X000190Y007092D02*
X000864Y007092D01*
X000766Y007191D02*
X000190Y007191D01*
X000190Y007289D02*
X000667Y007289D01*
X000569Y007388D02*
X000190Y007388D01*
X000190Y007486D02*
X000520Y007486D01*
X000520Y007585D02*
X000190Y007585D01*
X000190Y007683D02*
X000520Y007683D01*
X000520Y007782D02*
X000190Y007782D01*
X000190Y007880D02*
X000520Y007880D01*
X000520Y007979D02*
X000190Y007979D01*
X000190Y008077D02*
X000520Y008077D01*
X000520Y008176D02*
X000190Y008176D01*
X000190Y008274D02*
X000520Y008274D01*
X000520Y008373D02*
X000190Y008373D01*
X000190Y008471D02*
X000520Y008471D01*
X000520Y008570D02*
X000190Y008570D01*
X000190Y008668D02*
X000520Y008668D01*
X000520Y008767D02*
X000190Y008767D01*
X000190Y008865D02*
X000520Y008865D01*
X000520Y008964D02*
X000190Y008964D01*
X000190Y009062D02*
X000520Y009062D01*
X000520Y009161D02*
X000190Y009161D01*
X000190Y009259D02*
X000520Y009259D01*
X000520Y009358D02*
X000190Y009358D01*
X000190Y009456D02*
X000520Y009456D01*
X000520Y009555D02*
X000190Y009555D01*
X000190Y009653D02*
X000520Y009653D01*
X000520Y009752D02*
X000190Y009752D01*
X000190Y009850D02*
X000520Y009850D01*
X000520Y009949D02*
X000190Y009949D01*
X000190Y010047D02*
X000520Y010047D01*
X000520Y010146D02*
X000190Y010146D01*
X000190Y010244D02*
X000520Y010244D01*
X000520Y010343D02*
X000190Y010343D01*
X000190Y010441D02*
X000520Y010441D01*
X000520Y010540D02*
X000190Y010540D01*
X000190Y010638D02*
X000520Y010638D01*
X000520Y010737D02*
X000190Y010737D01*
X000190Y010835D02*
X000520Y010835D01*
X000520Y010934D02*
X000190Y010934D01*
X000190Y011032D02*
X000520Y011032D01*
X000520Y011131D02*
X000190Y011131D01*
X000190Y011229D02*
X000520Y011229D01*
X000520Y011328D02*
X000190Y011328D01*
X000190Y011426D02*
X000520Y011426D01*
X000520Y011525D02*
X000190Y011525D01*
X000190Y011623D02*
X000520Y011623D01*
X000520Y011722D02*
X000190Y011722D01*
X000190Y011820D02*
X000520Y011820D01*
X000520Y011919D02*
X000190Y011919D01*
X000190Y012017D02*
X000520Y012017D01*
X000520Y012116D02*
X000190Y012116D01*
X000190Y012214D02*
X000520Y012214D01*
X000520Y012313D02*
X000190Y012313D01*
X000190Y012411D02*
X000520Y012411D01*
X000520Y012510D02*
X000190Y012510D01*
X000190Y012608D02*
X000520Y012608D01*
X000520Y012707D02*
X000190Y012707D01*
X000190Y012805D02*
X000520Y012805D01*
X000520Y012904D02*
X000190Y012904D01*
X000190Y013002D02*
X000520Y013002D01*
X000520Y013101D02*
X000190Y013101D01*
X000190Y013199D02*
X000520Y013199D01*
X000520Y013298D02*
X000190Y013298D01*
X000190Y013396D02*
X000520Y013396D01*
X000520Y013495D02*
X000190Y013495D01*
X000190Y013593D02*
X000520Y013593D01*
X000520Y013692D02*
X000190Y013692D01*
X000190Y013790D02*
X000520Y013790D01*
X000520Y013889D02*
X000190Y013889D01*
X000190Y013987D02*
X000520Y013987D01*
X000520Y014086D02*
X000190Y014086D01*
X000190Y014184D02*
X000520Y014184D01*
X000520Y014283D02*
X000190Y014283D01*
X000190Y014381D02*
X000520Y014381D01*
X000520Y014480D02*
X000190Y014480D01*
X000190Y014578D02*
X000520Y014578D01*
X000520Y014677D02*
X000190Y014677D01*
X000190Y014775D02*
X000520Y014775D01*
X000520Y014874D02*
X000190Y014874D01*
X000190Y014972D02*
X000520Y014972D01*
X000520Y015071D02*
X000190Y015071D01*
X000190Y015169D02*
X000520Y015169D01*
X000520Y015268D02*
X000190Y015268D01*
X000190Y015366D02*
X000520Y015366D01*
X000520Y015465D02*
X000190Y015465D01*
X000190Y015563D02*
X000520Y015563D01*
X000520Y015662D02*
X000190Y015662D01*
X000190Y015760D02*
X000520Y015760D01*
X000520Y015859D02*
X000190Y015859D01*
X000190Y015957D02*
X000520Y015957D01*
X000520Y016056D02*
X000190Y016056D01*
X000190Y016154D02*
X000520Y016154D01*
X000520Y016253D02*
X000190Y016253D01*
X000190Y016351D02*
X000520Y016351D01*
X000520Y016450D02*
X000190Y016450D01*
X000190Y016548D02*
X000520Y016548D01*
X000520Y016647D02*
X000190Y016647D01*
X000190Y016745D02*
X000520Y016745D01*
X000520Y016844D02*
X000190Y016844D01*
X000190Y016942D02*
X000520Y016942D01*
X000520Y017041D02*
X000190Y017041D01*
X000190Y017139D02*
X000520Y017139D01*
X000520Y017238D02*
X000190Y017238D01*
X000190Y017336D02*
X000520Y017336D01*
X000520Y017435D02*
X000190Y017435D01*
X000190Y017533D02*
X000520Y017533D01*
X000520Y017632D02*
X000190Y017632D01*
X000190Y017730D02*
X000520Y017730D01*
X000520Y017829D02*
X000190Y017829D01*
X000190Y017927D02*
X000602Y017927D01*
X000700Y018026D02*
X000190Y018026D01*
X000190Y018124D02*
X000799Y018124D01*
X000897Y018223D02*
X000190Y018223D01*
X000190Y018321D02*
X000996Y018321D01*
X001094Y018420D02*
X000190Y018420D01*
X000190Y018518D02*
X001193Y018518D01*
X001291Y018617D02*
X000190Y018617D01*
X000190Y018715D02*
X001390Y018715D01*
X001488Y018814D02*
X000190Y018814D01*
X000190Y018912D02*
X001587Y018912D01*
X001685Y019011D02*
X000190Y019011D01*
X000190Y019109D02*
X001784Y019109D01*
X001882Y019208D02*
X000190Y019208D01*
X000190Y019306D02*
X001981Y019306D01*
X002079Y019405D02*
X000190Y019405D01*
X000190Y019503D02*
X002178Y019503D01*
X002276Y019602D02*
X000190Y019602D01*
X000190Y019700D02*
X002375Y019700D01*
X002473Y019799D02*
X000190Y019799D01*
X000190Y019897D02*
X002572Y019897D01*
X002626Y019996D02*
X000190Y019996D01*
X000190Y020094D02*
X002684Y020094D01*
X004489Y021079D02*
X007749Y021079D01*
X007690Y020981D02*
X006752Y020981D01*
X007848Y021178D02*
X004563Y021178D01*
X005094Y021769D02*
X010585Y021769D01*
X011198Y021572D02*
X011721Y021572D01*
X011684Y021670D02*
X011296Y021670D01*
X011395Y021769D02*
X011585Y021769D01*
X011540Y021867D02*
X011440Y021867D01*
X011440Y021966D02*
X011540Y021966D01*
X011540Y022064D02*
X011440Y022064D01*
X011440Y022163D02*
X011540Y022163D01*
X011615Y022261D02*
X011365Y022261D01*
X011267Y022360D02*
X011713Y022360D01*
X007250Y019897D02*
X006880Y019897D01*
X009651Y008767D02*
X003650Y008767D01*
X003630Y008668D02*
X009749Y008668D01*
X009946Y008471D02*
X000980Y008471D01*
X000980Y008373D02*
X001410Y008373D01*
X001350Y008274D02*
X000980Y008274D01*
X000980Y008176D02*
X001350Y008176D01*
X001350Y008077D02*
X000980Y008077D01*
X000980Y007979D02*
X001350Y007979D01*
X001350Y007880D02*
X000980Y007880D01*
X000980Y007782D02*
X001350Y007782D01*
X001355Y007683D02*
X000980Y007683D01*
X001022Y007585D02*
X009633Y007585D01*
X009534Y007683D02*
X003645Y007683D01*
X003650Y007782D02*
X009436Y007782D01*
X009731Y007486D02*
X001121Y007486D01*
X001219Y007388D02*
X001425Y007388D01*
X001350Y007289D02*
X001318Y007289D01*
X001350Y006304D02*
X000190Y006304D01*
X000190Y006206D02*
X001350Y006206D01*
X001350Y006107D02*
X000190Y006107D01*
X000190Y006009D02*
X001350Y006009D01*
X001350Y005910D02*
X000190Y005910D01*
X000190Y005812D02*
X001350Y005812D01*
X001350Y005713D02*
X000190Y005713D01*
X000190Y005615D02*
X001423Y005615D01*
X001357Y005319D02*
X000190Y005319D01*
X000190Y005221D02*
X001350Y005221D01*
X001350Y005122D02*
X000190Y005122D01*
X000190Y005024D02*
X001350Y005024D01*
X001350Y004925D02*
X000190Y004925D01*
X000190Y004827D02*
X001350Y004827D01*
X001350Y004728D02*
X000190Y004728D01*
X000190Y004630D02*
X001408Y004630D01*
X000190Y004531D02*
X010300Y004531D01*
X010300Y004630D02*
X003592Y004630D01*
X003650Y004728D02*
X010300Y004728D01*
X010171Y005812D02*
X010701Y005812D01*
X010519Y006698D02*
X003650Y006698D01*
X003650Y006797D02*
X010421Y006797D01*
X010322Y006895D02*
X003650Y006895D01*
X003650Y006994D02*
X010224Y006994D01*
X010125Y007092D02*
X003650Y007092D01*
X003650Y007191D02*
X010027Y007191D01*
X009928Y007289D02*
X003650Y007289D01*
X003575Y007388D02*
X009830Y007388D01*
X010143Y008274D02*
X003650Y008274D01*
X003590Y008373D02*
X010045Y008373D01*
M02*
