G75*
%MOIN*%
%OFA0B0*%
%FSLAX24Y24*%
%IPPOS*%
%LPD*%
%AMOC8*
5,1,8,0,0,1.08239X$1,22.5*
%
%ADD10R,0.0315X0.0315*%
%ADD11OC8,0.0600*%
%ADD12OC8,0.0520*%
%ADD13OC8,0.0886*%
%ADD14C,0.0010*%
%ADD15C,0.0554*%
%ADD16R,0.0554X0.0554*%
%ADD17C,0.0160*%
%ADD18C,0.0280*%
%ADD19C,0.0100*%
D10*
X018955Y023800D03*
X019545Y023800D03*
D11*
X012990Y022000D03*
X011990Y022000D03*
X010990Y022000D03*
D12*
X009100Y020850D03*
X008100Y020850D03*
D13*
X001100Y021476D03*
X001100Y022850D03*
D14*
X021780Y024151D02*
X021786Y024133D01*
X021796Y024111D01*
X021809Y024094D01*
X021825Y024078D01*
X021844Y024059D01*
X021857Y024047D01*
X021866Y024038D01*
X021876Y024027D01*
X021885Y024012D01*
X021895Y023989D01*
X021904Y023968D01*
X021913Y023948D01*
X021921Y023934D01*
X021936Y023916D01*
X021953Y023903D01*
X021960Y023899D01*
X021976Y023896D01*
X021997Y023899D01*
X022004Y023906D01*
X022011Y023912D01*
X022023Y023925D01*
X022036Y023938D01*
X022045Y023948D01*
X022051Y023950D01*
X022071Y023954D01*
X022090Y023951D01*
X022104Y023941D01*
X022116Y023929D01*
X022138Y023890D01*
X022151Y023864D01*
X022160Y023842D01*
X022169Y023820D01*
X022183Y023794D01*
X022195Y023769D01*
X022214Y023741D01*
X022395Y023741D01*
X022394Y023748D02*
X022396Y023763D01*
X022400Y023783D01*
X022406Y023798D01*
X022412Y023810D01*
X022423Y023827D01*
X022435Y023842D01*
X022448Y023858D01*
X022462Y023871D01*
X022480Y023886D01*
X022499Y023900D01*
X022516Y023909D01*
X022531Y023918D01*
X022544Y023925D01*
X022567Y023937D01*
X022593Y023948D01*
X022608Y023955D01*
X022625Y023961D01*
X022634Y023965D01*
X022638Y023970D01*
X022640Y023983D01*
X022643Y024002D01*
X022646Y024026D01*
X022650Y024060D01*
X022652Y024082D01*
X022651Y024101D01*
X022646Y024133D01*
X022644Y024136D01*
X022634Y024142D01*
X022624Y024150D01*
X022618Y024162D01*
X022609Y024179D01*
X022603Y024201D01*
X022599Y024241D01*
X022601Y024277D01*
X022604Y024299D01*
X022603Y024313D01*
X022596Y024317D01*
X022584Y024320D01*
X022565Y024323D01*
X022544Y024325D01*
X022507Y024329D01*
X022473Y024330D01*
X022433Y024330D01*
X022430Y024317D01*
X022424Y024286D01*
X022417Y024259D01*
X022413Y024242D01*
X022411Y024229D01*
X022481Y024229D01*
X022478Y024219D01*
X022458Y024133D01*
X022389Y024133D01*
X022362Y024009D01*
X022361Y023983D01*
X022365Y023979D01*
X022371Y023977D01*
X022398Y023977D01*
X022416Y023979D01*
X022639Y023979D01*
X022638Y023971D02*
X022414Y023971D01*
X022414Y023979D02*
X022366Y023979D01*
X022361Y023988D02*
X022641Y023988D01*
X022642Y023996D02*
X022362Y023996D01*
X022362Y024005D02*
X022643Y024005D01*
X022645Y024013D02*
X022363Y024013D01*
X022365Y024022D02*
X022646Y024022D01*
X022647Y024030D02*
X022367Y024030D01*
X022368Y024039D02*
X022648Y024039D01*
X022649Y024047D02*
X022370Y024047D01*
X022372Y024056D02*
X022650Y024056D01*
X022651Y024064D02*
X022374Y024064D01*
X022376Y024073D02*
X022651Y024073D01*
X022652Y024081D02*
X022378Y024081D01*
X022380Y024090D02*
X022652Y024090D01*
X022651Y024098D02*
X022381Y024098D01*
X022383Y024107D02*
X022650Y024107D01*
X022649Y024115D02*
X022385Y024115D01*
X022387Y024124D02*
X022648Y024124D01*
X022647Y024132D02*
X022389Y024132D01*
X022353Y024141D02*
X022267Y024141D01*
X022269Y024149D02*
X022355Y024149D01*
X022357Y024158D02*
X022271Y024158D01*
X022273Y024166D02*
X022359Y024166D01*
X022361Y024175D02*
X022275Y024175D01*
X022277Y024183D02*
X022363Y024183D01*
X022365Y024192D02*
X022278Y024192D01*
X022280Y024200D02*
X022367Y024200D01*
X022369Y024209D02*
X022282Y024209D01*
X022284Y024217D02*
X022371Y024217D01*
X022373Y024226D02*
X022286Y024226D01*
X022288Y024234D02*
X022374Y024234D01*
X022376Y024243D02*
X022290Y024243D01*
X022291Y024251D02*
X022378Y024251D01*
X022380Y024260D02*
X022293Y024260D01*
X022295Y024268D02*
X022382Y024268D01*
X022384Y024277D02*
X022297Y024277D01*
X022299Y024285D02*
X022386Y024285D01*
X022388Y024294D02*
X022373Y024294D01*
X022388Y024294D02*
X022301Y024293D01*
X022301Y024293D01*
X022233Y023983D01*
X022318Y023983D01*
X022388Y024294D01*
X022375Y024319D02*
X022358Y024318D01*
X022343Y024320D01*
X022330Y024326D01*
X022324Y024333D01*
X022317Y024339D01*
X022314Y024348D01*
X022313Y024366D01*
X022314Y024381D01*
X022314Y024381D01*
X022320Y024393D01*
X022324Y024396D01*
X022327Y024399D01*
X022333Y024402D01*
X022343Y024409D01*
X022359Y024410D01*
X022378Y024409D01*
X022384Y024406D01*
X022391Y024399D01*
X022397Y024393D01*
X022400Y024390D01*
X022403Y024383D01*
X022407Y024374D01*
X022407Y024355D01*
X022404Y024342D01*
X022397Y024332D01*
X022384Y024322D01*
X022375Y024319D01*
X022347Y024319D01*
X022329Y024328D02*
X022391Y024328D01*
X022400Y024336D02*
X022320Y024336D01*
X022316Y024345D02*
X022405Y024345D01*
X022407Y024353D02*
X022314Y024353D01*
X022313Y024362D02*
X022407Y024362D01*
X022407Y024370D02*
X022313Y024370D01*
X022314Y024379D02*
X022405Y024379D01*
X022401Y024387D02*
X022318Y024387D01*
X022323Y024396D02*
X022394Y024396D01*
X022386Y024404D02*
X022336Y024404D01*
X022272Y024343D02*
X022251Y024345D01*
X022234Y024351D01*
X022222Y024358D01*
X022221Y024492D01*
X022006Y024493D01*
X022007Y024492D01*
X022006Y024383D01*
X022007Y024276D01*
X022007Y024169D01*
X021817Y024169D01*
X021780Y024170D01*
X021780Y024151D01*
X021781Y024149D02*
X022161Y024149D01*
X022160Y024141D02*
X021784Y024141D01*
X021787Y024132D02*
X022226Y024132D01*
X022226Y024133D02*
X022158Y024134D01*
X022179Y024229D01*
X022249Y024229D01*
X022272Y024343D01*
X022271Y024336D02*
X022007Y024336D01*
X022007Y024328D02*
X022269Y024328D01*
X022268Y024319D02*
X022007Y024319D01*
X022007Y024311D02*
X022266Y024311D01*
X022264Y024302D02*
X022007Y024302D01*
X022007Y024294D02*
X022262Y024294D01*
X022261Y024285D02*
X022007Y024285D01*
X022007Y024277D02*
X022259Y024277D01*
X022257Y024268D02*
X022007Y024268D01*
X022007Y024260D02*
X022255Y024260D01*
X022254Y024251D02*
X022007Y024251D01*
X022007Y024243D02*
X022252Y024243D01*
X022250Y024234D02*
X022007Y024234D01*
X022007Y024226D02*
X022179Y024226D01*
X022177Y024217D02*
X022007Y024217D01*
X022007Y024209D02*
X022175Y024209D01*
X022173Y024200D02*
X022007Y024200D01*
X022007Y024192D02*
X022171Y024192D01*
X022169Y024183D02*
X022007Y024183D01*
X022007Y024175D02*
X022167Y024175D01*
X022165Y024166D02*
X021780Y024166D01*
X021780Y024158D02*
X022163Y024158D01*
X022226Y024133D02*
X022225Y024121D01*
X022215Y024078D01*
X022199Y024000D01*
X022196Y023984D01*
X022196Y023954D01*
X022199Y023932D01*
X022205Y023917D01*
X022215Y023904D01*
X022228Y023890D01*
X022246Y023881D01*
X022256Y023878D01*
X022288Y023875D01*
X022318Y023879D01*
X022350Y023885D01*
X022372Y023891D01*
X022391Y023896D01*
X022398Y023909D01*
X022416Y023979D01*
X022412Y023962D02*
X022629Y023962D01*
X022606Y023954D02*
X022409Y023954D01*
X022407Y023945D02*
X022587Y023945D01*
X022566Y023937D02*
X022405Y023937D01*
X022403Y023928D02*
X022550Y023928D01*
X022534Y023920D02*
X022400Y023920D01*
X022398Y023911D02*
X022519Y023911D01*
X022504Y023903D02*
X022394Y023903D01*
X022385Y023894D02*
X022491Y023894D01*
X022479Y023886D02*
X022352Y023886D01*
X022306Y023877D02*
X022469Y023877D01*
X022460Y023869D02*
X022149Y023869D01*
X022144Y023877D02*
X022265Y023877D01*
X022236Y023886D02*
X022140Y023886D01*
X022136Y023894D02*
X022224Y023894D01*
X022216Y023903D02*
X022131Y023903D01*
X022126Y023911D02*
X022209Y023911D01*
X022204Y023920D02*
X022122Y023920D01*
X022117Y023928D02*
X022200Y023928D01*
X022198Y023937D02*
X022109Y023937D01*
X022099Y023945D02*
X022197Y023945D01*
X022196Y023954D02*
X021910Y023954D01*
X021907Y023962D02*
X022196Y023962D01*
X022196Y023971D02*
X021903Y023971D01*
X021899Y023979D02*
X022196Y023979D01*
X022197Y023988D02*
X021895Y023988D01*
X021891Y023996D02*
X022198Y023996D01*
X022200Y024005D02*
X021888Y024005D01*
X021884Y024013D02*
X022201Y024013D01*
X022203Y024022D02*
X021879Y024022D01*
X021873Y024030D02*
X022205Y024030D01*
X022207Y024039D02*
X021865Y024039D01*
X021856Y024047D02*
X022209Y024047D01*
X022210Y024056D02*
X021847Y024056D01*
X021839Y024064D02*
X022212Y024064D01*
X022214Y024073D02*
X021831Y024073D01*
X021822Y024081D02*
X022216Y024081D01*
X022218Y024090D02*
X021813Y024090D01*
X021805Y024098D02*
X022220Y024098D01*
X022222Y024107D02*
X021799Y024107D01*
X021794Y024115D02*
X022224Y024115D01*
X022225Y024124D02*
X021790Y024124D01*
X021914Y023945D02*
X022042Y023945D01*
X022034Y023937D02*
X021919Y023937D01*
X021926Y023928D02*
X022025Y023928D01*
X022018Y023920D02*
X021933Y023920D01*
X021942Y023911D02*
X022011Y023911D01*
X022001Y023903D02*
X021953Y023903D01*
X022153Y023860D02*
X022451Y023860D01*
X022443Y023852D02*
X022156Y023852D01*
X022160Y023843D02*
X022436Y023843D01*
X022429Y023835D02*
X022163Y023835D01*
X022166Y023826D02*
X022422Y023826D01*
X022417Y023818D02*
X022170Y023818D01*
X022174Y023809D02*
X022412Y023809D01*
X022408Y023801D02*
X022179Y023801D01*
X022183Y023792D02*
X022404Y023792D01*
X022400Y023784D02*
X022188Y023784D01*
X022192Y023775D02*
X022398Y023775D01*
X022397Y023767D02*
X022197Y023767D01*
X022202Y023758D02*
X022395Y023758D01*
X022395Y023750D02*
X022208Y023750D01*
X022214Y023741D02*
X022240Y023711D01*
X022262Y023692D01*
X022285Y023675D01*
X022302Y023666D01*
X022317Y023659D01*
X022333Y023656D01*
X022361Y023654D01*
X022380Y023656D01*
X022394Y023659D01*
X022403Y023662D01*
X022410Y023667D01*
X022411Y023672D01*
X022406Y023687D01*
X022400Y023709D01*
X022396Y023730D01*
X022394Y023748D01*
X022396Y023733D02*
X022221Y023733D01*
X022228Y023724D02*
X022398Y023724D01*
X022399Y023716D02*
X022236Y023716D01*
X022244Y023707D02*
X022401Y023707D01*
X022403Y023699D02*
X022254Y023699D01*
X022264Y023690D02*
X022405Y023690D01*
X022408Y023682D02*
X022276Y023682D01*
X022288Y023673D02*
X022411Y023673D01*
X022407Y023665D02*
X022304Y023665D01*
X022337Y023656D02*
X022382Y023656D01*
X022319Y023988D02*
X022234Y023988D01*
X022236Y023996D02*
X022321Y023996D01*
X022323Y024005D02*
X022238Y024005D01*
X022240Y024013D02*
X022325Y024013D01*
X022327Y024022D02*
X022241Y024022D01*
X022243Y024030D02*
X022329Y024030D01*
X022331Y024039D02*
X022245Y024039D01*
X022247Y024047D02*
X022332Y024047D01*
X022334Y024056D02*
X022249Y024056D01*
X022251Y024064D02*
X022336Y024064D01*
X022338Y024073D02*
X022253Y024073D01*
X022254Y024081D02*
X022340Y024081D01*
X022342Y024090D02*
X022256Y024090D01*
X022258Y024098D02*
X022344Y024098D01*
X022346Y024107D02*
X022260Y024107D01*
X022262Y024115D02*
X022348Y024115D01*
X022350Y024124D02*
X022264Y024124D01*
X022265Y024132D02*
X022352Y024132D01*
X022460Y024141D02*
X022637Y024141D01*
X022625Y024149D02*
X022462Y024149D01*
X022464Y024158D02*
X022620Y024158D01*
X022615Y024166D02*
X022466Y024166D01*
X022468Y024175D02*
X022611Y024175D01*
X022608Y024183D02*
X022470Y024183D01*
X022472Y024192D02*
X022605Y024192D01*
X022603Y024200D02*
X022474Y024200D01*
X022476Y024209D02*
X022602Y024209D01*
X022601Y024217D02*
X022477Y024217D01*
X022480Y024226D02*
X022600Y024226D01*
X022599Y024234D02*
X022412Y024234D01*
X022414Y024243D02*
X022599Y024243D01*
X022599Y024251D02*
X022415Y024251D01*
X022417Y024260D02*
X022600Y024260D01*
X022601Y024268D02*
X022419Y024268D01*
X022421Y024277D02*
X022601Y024277D01*
X022602Y024285D02*
X022423Y024285D01*
X022425Y024294D02*
X022603Y024294D01*
X022604Y024302D02*
X022427Y024302D01*
X022428Y024311D02*
X022603Y024311D01*
X022586Y024319D02*
X022430Y024319D01*
X022432Y024328D02*
X022520Y024328D01*
X022252Y024345D02*
X022007Y024345D01*
X022006Y024353D02*
X022231Y024353D01*
X022222Y024362D02*
X022006Y024362D01*
X022006Y024370D02*
X022222Y024370D01*
X022222Y024379D02*
X022006Y024379D01*
X022006Y024387D02*
X022222Y024387D01*
X022222Y024396D02*
X022006Y024396D01*
X022006Y024404D02*
X022222Y024404D01*
X022222Y024413D02*
X022006Y024413D01*
X022007Y024421D02*
X022222Y024421D01*
X022222Y024430D02*
X022007Y024430D01*
X022007Y024438D02*
X022222Y024438D01*
X022222Y024447D02*
X022007Y024447D01*
X022007Y024455D02*
X022222Y024455D01*
X022222Y024464D02*
X022007Y024464D01*
X022007Y024472D02*
X022222Y024472D01*
X022222Y024481D02*
X022007Y024481D01*
X022007Y024489D02*
X022222Y024489D01*
D15*
X015500Y022500D03*
X014500Y022500D03*
D16*
X016500Y022500D03*
D17*
X018500Y023700D02*
X018600Y023800D01*
X018955Y023800D01*
X019545Y023800D02*
X020150Y023800D01*
X017100Y019050D02*
X015950Y019050D01*
X008450Y022350D02*
X008100Y022000D01*
X008100Y020850D01*
X004300Y021300D02*
X002900Y019900D01*
X014900Y011550D02*
X014900Y009150D01*
X016700Y009100D02*
X016700Y010800D01*
X016700Y009100D02*
X016750Y009050D01*
D18*
X016750Y009050D03*
X017700Y010000D03*
X018400Y010600D03*
X019200Y010600D03*
X020000Y011000D03*
X021000Y011000D03*
X021800Y010600D03*
X021800Y010000D03*
X021800Y009400D03*
X019200Y009400D03*
X018400Y009400D03*
X016700Y010800D03*
X017300Y011600D03*
X015700Y011600D03*
X014900Y011550D03*
X015700Y013700D03*
X017300Y013700D03*
X017300Y015700D03*
X015700Y015700D03*
X013700Y016600D03*
X015700Y018100D03*
X015950Y019050D03*
X015700Y019750D03*
X015800Y020600D03*
X017250Y020000D03*
X017100Y019050D03*
X019600Y020800D03*
X020700Y019900D03*
X020700Y017800D03*
X020700Y015700D03*
X020700Y013700D03*
X014900Y009150D03*
X014100Y008900D03*
X012700Y006900D03*
X010900Y005600D03*
X009400Y005600D03*
X009200Y006600D03*
X008500Y008500D03*
X009000Y010000D03*
X006600Y009800D03*
X006600Y011700D03*
X006600Y014000D03*
X006100Y015500D03*
X007450Y016750D03*
X007700Y019300D03*
X006500Y021100D03*
X006500Y022700D03*
X008450Y022350D03*
X009400Y022700D03*
X010600Y020100D03*
X012500Y020000D03*
X010350Y016700D03*
X009200Y014000D03*
X011900Y014000D03*
X013700Y014300D03*
X012000Y011350D03*
X011450Y008900D03*
X014900Y005000D03*
X015500Y002700D03*
X017000Y001400D03*
X018200Y004000D03*
X018100Y006100D03*
X022200Y006100D03*
X022200Y004000D03*
X022200Y001500D03*
X010600Y002400D03*
X008400Y000700D03*
X004900Y001800D03*
X005700Y004100D03*
X007000Y005550D03*
X005700Y006600D03*
X003500Y010900D03*
X002500Y012600D03*
X002500Y014800D03*
X002500Y017200D03*
X001000Y019500D03*
X002900Y019900D03*
X004300Y021300D03*
X003800Y022700D03*
X002500Y022200D03*
X001700Y022200D03*
X015500Y023400D03*
X018000Y022300D03*
X018500Y023700D03*
X020150Y023800D03*
X020700Y024200D03*
X020700Y022100D03*
X000800Y005800D03*
X000800Y001800D03*
D19*
X000190Y000190D02*
X000190Y024610D01*
X021899Y024610D01*
X021887Y024594D01*
X021851Y024557D01*
X021851Y024543D01*
X021842Y024531D01*
X021851Y024480D01*
X021851Y024429D01*
X021851Y024429D01*
X021851Y024383D01*
X021851Y024324D01*
X021845Y024324D01*
X021844Y024325D01*
X021781Y024325D01*
X021718Y024325D01*
X021717Y024325D01*
X021716Y024325D01*
X021671Y024280D01*
X021626Y024236D01*
X021626Y024235D01*
X021625Y024234D01*
X021625Y024186D01*
X021612Y024159D01*
X021620Y024138D01*
X021619Y024135D01*
X021624Y024121D01*
X021624Y024107D01*
X021625Y024107D01*
X021625Y024087D01*
X021636Y024076D01*
X021634Y024064D01*
X021654Y024039D01*
X021655Y024028D01*
X021667Y024016D01*
X021676Y023993D01*
X021699Y023983D01*
X021727Y023948D01*
X021737Y023946D01*
X021749Y023934D01*
X021747Y023925D01*
X021761Y023901D01*
X021760Y023888D01*
X021782Y023859D01*
X021790Y023841D01*
X021792Y023829D01*
X021811Y023815D01*
X021819Y023801D01*
X021822Y023800D01*
X021823Y023797D01*
X021839Y023788D01*
X021855Y023769D01*
X021861Y023768D01*
X021867Y023760D01*
X021893Y023754D01*
X021912Y023740D01*
X021924Y023742D01*
X021925Y023742D01*
X021938Y023733D01*
X021941Y023733D01*
X021943Y023732D01*
X021951Y023735D01*
X021974Y023739D01*
X022010Y023732D01*
X022027Y023743D01*
X022032Y023743D01*
X022031Y023735D01*
X022041Y023720D01*
X022047Y023704D01*
X022054Y023701D01*
X022056Y023698D01*
X022055Y023689D01*
X022072Y023668D01*
X022086Y023642D01*
X022090Y023640D01*
X020398Y023640D01*
X020396Y023636D02*
X020440Y023742D01*
X020440Y023858D01*
X020396Y023964D01*
X020314Y024046D01*
X020208Y024090D01*
X020092Y024090D01*
X019986Y024046D01*
X019970Y024030D01*
X019842Y024030D01*
X019765Y024107D01*
X019326Y024107D01*
X019250Y024032D01*
X019174Y024107D01*
X018735Y024107D01*
X018658Y024030D01*
X018505Y024030D01*
X018465Y023990D01*
X018442Y023990D01*
X018336Y023946D01*
X018254Y023864D01*
X018210Y023758D01*
X018210Y023642D01*
X018254Y023536D01*
X018336Y023454D01*
X018442Y023410D01*
X018558Y023410D01*
X018664Y023454D01*
X018719Y023509D01*
X018735Y023493D01*
X019174Y023493D01*
X019250Y023568D01*
X019326Y023493D01*
X019765Y023493D01*
X019842Y023570D01*
X019970Y023570D01*
X019986Y023554D01*
X020092Y023510D01*
X020208Y023510D01*
X020314Y023554D01*
X020396Y023636D01*
X020438Y023739D02*
X021930Y023739D01*
X022020Y023739D02*
X022031Y023739D01*
X022090Y023640D02*
X022091Y023634D01*
X022111Y023616D01*
X022119Y023605D01*
X022119Y023604D01*
X022121Y023602D01*
X022122Y023600D01*
X022124Y023600D01*
X022140Y023588D01*
X022153Y023574D01*
X022153Y023571D01*
X022156Y023570D01*
X022163Y023561D01*
X022173Y023560D01*
X022179Y023557D01*
X022182Y023548D01*
X022202Y023540D01*
X022211Y023532D01*
X022217Y023533D01*
X022228Y023517D01*
X022243Y023515D01*
X022247Y023512D01*
X022252Y023512D01*
X022257Y023507D01*
X022270Y023506D01*
X022282Y023499D01*
X022291Y023502D01*
X022316Y023491D01*
X022328Y023496D01*
X022341Y023497D01*
X022352Y023491D01*
X022365Y023494D01*
X022370Y023493D01*
X022373Y023495D01*
X022378Y023496D01*
X022389Y023491D01*
X022401Y023496D01*
X022413Y023495D01*
X022420Y023501D01*
X022424Y023499D01*
X022424Y023500D01*
X022435Y023498D01*
X022447Y023506D01*
X022457Y023507D01*
X022465Y023516D01*
X022491Y023522D01*
X022498Y023533D01*
X022518Y023540D01*
X022520Y023544D01*
X022523Y023551D01*
X022538Y023558D01*
X022541Y023567D01*
X022549Y023573D01*
X022558Y023618D01*
X022578Y023658D01*
X022574Y023672D01*
X022578Y023686D01*
X022574Y023695D01*
X022574Y023699D01*
X022562Y023717D01*
X022555Y023731D01*
X022552Y023741D01*
X022554Y023743D01*
X022561Y023751D01*
X022566Y023756D01*
X022575Y023764D01*
X022592Y023774D01*
X022623Y023790D01*
X022628Y023793D01*
X022628Y023793D01*
X022664Y023809D01*
X022676Y023807D01*
X022694Y023820D01*
X022734Y023830D01*
X022742Y023843D01*
X022755Y023849D01*
X022764Y023870D01*
X022780Y023881D01*
X022782Y023894D01*
X022782Y023894D01*
X022786Y023916D01*
X022788Y023917D01*
X022788Y023919D01*
X022804Y023946D01*
X022800Y023962D01*
X022802Y023968D01*
X022797Y023979D01*
X022797Y023980D01*
X022798Y023980D01*
X022800Y024002D01*
X022803Y024021D01*
X022810Y024028D01*
X022810Y000190D01*
X000190Y000190D01*
X000190Y000197D02*
X022810Y000197D01*
X022810Y000296D02*
X000190Y000296D01*
X000190Y000394D02*
X022810Y000394D01*
X022810Y000493D02*
X000190Y000493D01*
X000190Y000591D02*
X022810Y000591D01*
X022810Y000690D02*
X000190Y000690D01*
X000190Y000788D02*
X022810Y000788D01*
X022810Y000887D02*
X000190Y000887D01*
X000190Y000985D02*
X022810Y000985D01*
X022810Y001084D02*
X000190Y001084D01*
X000190Y001182D02*
X022810Y001182D01*
X022810Y001281D02*
X000190Y001281D01*
X000190Y001379D02*
X022810Y001379D01*
X022810Y001478D02*
X000190Y001478D01*
X000190Y001576D02*
X022810Y001576D01*
X022810Y001675D02*
X000190Y001675D01*
X000190Y001773D02*
X022810Y001773D01*
X022810Y001872D02*
X000190Y001872D01*
X000190Y001970D02*
X022810Y001970D01*
X022810Y002069D02*
X000190Y002069D01*
X000190Y002167D02*
X022810Y002167D01*
X022810Y002266D02*
X000190Y002266D01*
X000190Y002364D02*
X022810Y002364D01*
X022810Y002463D02*
X000190Y002463D01*
X000190Y002561D02*
X022810Y002561D01*
X022810Y002660D02*
X000190Y002660D01*
X000190Y002758D02*
X022810Y002758D01*
X022810Y002857D02*
X000190Y002857D01*
X000190Y002955D02*
X022810Y002955D01*
X022810Y003054D02*
X000190Y003054D01*
X000190Y003152D02*
X022810Y003152D01*
X022810Y003251D02*
X000190Y003251D01*
X000190Y003349D02*
X022810Y003349D01*
X022810Y003448D02*
X000190Y003448D01*
X000190Y003546D02*
X022810Y003546D01*
X022810Y003645D02*
X000190Y003645D01*
X000190Y003743D02*
X022810Y003743D01*
X022810Y003842D02*
X000190Y003842D01*
X000190Y003940D02*
X022810Y003940D01*
X022810Y004039D02*
X000190Y004039D01*
X000190Y004137D02*
X022810Y004137D01*
X022810Y004236D02*
X000190Y004236D01*
X000190Y004334D02*
X022810Y004334D01*
X022810Y004433D02*
X000190Y004433D01*
X000190Y004531D02*
X022810Y004531D01*
X022810Y004630D02*
X000190Y004630D01*
X000190Y004728D02*
X022810Y004728D01*
X022810Y004827D02*
X000190Y004827D01*
X000190Y004925D02*
X022810Y004925D01*
X022810Y005024D02*
X000190Y005024D01*
X000190Y005122D02*
X022810Y005122D01*
X022810Y005221D02*
X000190Y005221D01*
X000190Y005319D02*
X009321Y005319D01*
X009342Y005310D02*
X009458Y005310D01*
X009564Y005354D01*
X009610Y005400D01*
X010690Y005400D01*
X010736Y005354D01*
X010842Y005310D01*
X010958Y005310D01*
X011064Y005354D01*
X011146Y005436D01*
X011190Y005542D01*
X011190Y005658D01*
X011146Y005764D01*
X011064Y005846D01*
X010958Y005890D01*
X010842Y005890D01*
X010736Y005846D01*
X010690Y005800D01*
X009610Y005800D01*
X009564Y005846D01*
X009458Y005890D01*
X009342Y005890D01*
X009236Y005846D01*
X009154Y005764D01*
X009110Y005658D01*
X009110Y005542D01*
X009154Y005436D01*
X009236Y005354D01*
X009342Y005310D01*
X009479Y005319D02*
X010821Y005319D01*
X010979Y005319D02*
X022810Y005319D01*
X022810Y005418D02*
X011128Y005418D01*
X011179Y005516D02*
X022810Y005516D01*
X022810Y005615D02*
X011190Y005615D01*
X011167Y005713D02*
X022810Y005713D01*
X022810Y005812D02*
X011099Y005812D01*
X010900Y005600D02*
X009400Y005600D01*
X009133Y005713D02*
X000190Y005713D01*
X000190Y005615D02*
X009110Y005615D01*
X009121Y005516D02*
X000190Y005516D01*
X000190Y005418D02*
X009172Y005418D01*
X009201Y005812D02*
X000190Y005812D01*
X000190Y005910D02*
X022810Y005910D01*
X022810Y006009D02*
X000190Y006009D01*
X000190Y006107D02*
X022810Y006107D01*
X022810Y006206D02*
X000190Y006206D01*
X000190Y006304D02*
X022810Y006304D01*
X022810Y006403D02*
X000190Y006403D01*
X000190Y006501D02*
X022810Y006501D01*
X022810Y006600D02*
X000190Y006600D01*
X000190Y006698D02*
X022810Y006698D01*
X022810Y006797D02*
X000190Y006797D01*
X000190Y006895D02*
X022810Y006895D01*
X022810Y006994D02*
X000190Y006994D01*
X000190Y007092D02*
X022810Y007092D01*
X022810Y007191D02*
X000190Y007191D01*
X000190Y007289D02*
X022810Y007289D01*
X022810Y007388D02*
X000190Y007388D01*
X000190Y007486D02*
X022810Y007486D01*
X022810Y007585D02*
X000190Y007585D01*
X000190Y007683D02*
X022810Y007683D01*
X022810Y007782D02*
X000190Y007782D01*
X000190Y007880D02*
X022810Y007880D01*
X022810Y007979D02*
X000190Y007979D01*
X000190Y008077D02*
X022810Y008077D01*
X022810Y008176D02*
X000190Y008176D01*
X000190Y008274D02*
X022810Y008274D01*
X022810Y008373D02*
X000190Y008373D01*
X000190Y008471D02*
X022810Y008471D01*
X022810Y008570D02*
X000190Y008570D01*
X000190Y008668D02*
X022810Y008668D01*
X022810Y008767D02*
X016823Y008767D01*
X016808Y008760D02*
X016914Y008804D01*
X016996Y008886D01*
X017040Y008992D01*
X017040Y009108D01*
X016996Y009214D01*
X016930Y009280D01*
X016930Y010620D01*
X016946Y010636D01*
X016990Y010742D01*
X016990Y010858D01*
X016946Y010964D01*
X016864Y011046D01*
X016758Y011090D01*
X016642Y011090D01*
X016536Y011046D01*
X016454Y010964D01*
X016410Y010858D01*
X016410Y010742D01*
X016454Y010636D01*
X016470Y010620D01*
X016470Y009132D01*
X016460Y009108D01*
X016460Y008992D01*
X016504Y008886D01*
X016586Y008804D01*
X016692Y008760D01*
X016808Y008760D01*
X016677Y008767D02*
X000190Y008767D01*
X000190Y008865D02*
X014830Y008865D01*
X014842Y008860D02*
X014958Y008860D01*
X015064Y008904D01*
X015146Y008986D01*
X015190Y009092D01*
X015190Y009208D01*
X015146Y009314D01*
X015130Y009330D01*
X015130Y011370D01*
X015146Y011386D01*
X015190Y011492D01*
X015190Y011608D01*
X015146Y011714D01*
X015064Y011796D01*
X014958Y011840D01*
X014842Y011840D01*
X014736Y011796D01*
X014654Y011714D01*
X014610Y011608D01*
X014610Y011492D01*
X014654Y011386D01*
X014670Y011370D01*
X014670Y009330D01*
X014654Y009314D01*
X014610Y009208D01*
X014610Y009092D01*
X014654Y008986D01*
X014736Y008904D01*
X014842Y008860D01*
X014970Y008865D02*
X016525Y008865D01*
X016472Y008964D02*
X015124Y008964D01*
X015177Y009062D02*
X016460Y009062D01*
X016470Y009161D02*
X015190Y009161D01*
X015169Y009259D02*
X016470Y009259D01*
X016470Y009358D02*
X015130Y009358D01*
X015130Y009456D02*
X016470Y009456D01*
X016470Y009555D02*
X015130Y009555D01*
X015130Y009653D02*
X016470Y009653D01*
X016470Y009752D02*
X015130Y009752D01*
X015130Y009850D02*
X016470Y009850D01*
X016470Y009949D02*
X015130Y009949D01*
X015130Y010047D02*
X016470Y010047D01*
X016470Y010146D02*
X015130Y010146D01*
X015130Y010244D02*
X016470Y010244D01*
X016470Y010343D02*
X015130Y010343D01*
X015130Y010441D02*
X016470Y010441D01*
X016470Y010540D02*
X015130Y010540D01*
X015130Y010638D02*
X016453Y010638D01*
X016412Y010737D02*
X015130Y010737D01*
X015130Y010835D02*
X016410Y010835D01*
X016441Y010934D02*
X015130Y010934D01*
X015130Y011032D02*
X016522Y011032D01*
X016878Y011032D02*
X022810Y011032D01*
X022810Y010934D02*
X016959Y010934D01*
X016990Y010835D02*
X022810Y010835D01*
X022810Y010737D02*
X016988Y010737D01*
X016947Y010638D02*
X022810Y010638D01*
X022810Y010540D02*
X016930Y010540D01*
X016930Y010441D02*
X022810Y010441D01*
X022810Y010343D02*
X016930Y010343D01*
X016930Y010244D02*
X022810Y010244D01*
X022810Y010146D02*
X016930Y010146D01*
X016930Y010047D02*
X022810Y010047D01*
X022810Y009949D02*
X016930Y009949D01*
X016930Y009850D02*
X022810Y009850D01*
X022810Y009752D02*
X016930Y009752D01*
X016930Y009653D02*
X022810Y009653D01*
X022810Y009555D02*
X016930Y009555D01*
X016930Y009456D02*
X022810Y009456D01*
X022810Y009358D02*
X016930Y009358D01*
X016951Y009259D02*
X022810Y009259D01*
X022810Y009161D02*
X017018Y009161D01*
X017040Y009062D02*
X022810Y009062D01*
X022810Y008964D02*
X017028Y008964D01*
X016975Y008865D02*
X022810Y008865D01*
X022810Y011131D02*
X015130Y011131D01*
X015130Y011229D02*
X022810Y011229D01*
X022810Y011328D02*
X015130Y011328D01*
X015163Y011426D02*
X022810Y011426D01*
X022810Y011525D02*
X015190Y011525D01*
X015184Y011623D02*
X022810Y011623D01*
X022810Y011722D02*
X015139Y011722D01*
X015006Y011820D02*
X022810Y011820D01*
X022810Y011919D02*
X000190Y011919D01*
X000190Y012017D02*
X022810Y012017D01*
X022810Y012116D02*
X000190Y012116D01*
X000190Y012214D02*
X022810Y012214D01*
X022810Y012313D02*
X000190Y012313D01*
X000190Y012411D02*
X022810Y012411D01*
X022810Y012510D02*
X000190Y012510D01*
X000190Y012608D02*
X022810Y012608D01*
X022810Y012707D02*
X000190Y012707D01*
X000190Y012805D02*
X022810Y012805D01*
X022810Y012904D02*
X000190Y012904D01*
X000190Y013002D02*
X022810Y013002D01*
X022810Y013101D02*
X000190Y013101D01*
X000190Y013199D02*
X022810Y013199D01*
X022810Y013298D02*
X000190Y013298D01*
X000190Y013396D02*
X022810Y013396D01*
X022810Y013495D02*
X000190Y013495D01*
X000190Y013593D02*
X022810Y013593D01*
X022810Y013692D02*
X000190Y013692D01*
X000190Y013790D02*
X022810Y013790D01*
X022810Y013889D02*
X000190Y013889D01*
X000190Y013987D02*
X022810Y013987D01*
X022810Y014086D02*
X000190Y014086D01*
X000190Y014184D02*
X022810Y014184D01*
X022810Y014283D02*
X000190Y014283D01*
X000190Y014381D02*
X022810Y014381D01*
X022810Y014480D02*
X000190Y014480D01*
X000190Y014578D02*
X022810Y014578D01*
X022810Y014677D02*
X000190Y014677D01*
X000190Y014775D02*
X022810Y014775D01*
X022810Y014874D02*
X000190Y014874D01*
X000190Y014972D02*
X022810Y014972D01*
X022810Y015071D02*
X000190Y015071D01*
X000190Y015169D02*
X022810Y015169D01*
X022810Y015268D02*
X000190Y015268D01*
X000190Y015366D02*
X022810Y015366D01*
X022810Y015465D02*
X000190Y015465D01*
X000190Y015563D02*
X022810Y015563D01*
X022810Y015662D02*
X000190Y015662D01*
X000190Y015760D02*
X022810Y015760D01*
X022810Y015859D02*
X000190Y015859D01*
X000190Y015957D02*
X022810Y015957D01*
X022810Y016056D02*
X000190Y016056D01*
X000190Y016154D02*
X022810Y016154D01*
X022810Y016253D02*
X000190Y016253D01*
X000190Y016351D02*
X022810Y016351D01*
X022810Y016450D02*
X000190Y016450D01*
X000190Y016548D02*
X022810Y016548D01*
X022810Y016647D02*
X000190Y016647D01*
X000190Y016745D02*
X022810Y016745D01*
X022810Y016844D02*
X000190Y016844D01*
X000190Y016942D02*
X022810Y016942D01*
X022810Y017041D02*
X000190Y017041D01*
X000190Y017139D02*
X022810Y017139D01*
X022810Y017238D02*
X000190Y017238D01*
X000190Y017336D02*
X022810Y017336D01*
X022810Y017435D02*
X000190Y017435D01*
X000190Y017533D02*
X022810Y017533D01*
X022810Y017632D02*
X000190Y017632D01*
X000190Y017730D02*
X022810Y017730D01*
X022810Y017829D02*
X000190Y017829D01*
X000190Y017927D02*
X022810Y017927D01*
X022810Y018026D02*
X000190Y018026D01*
X000190Y018124D02*
X022810Y018124D01*
X022810Y018223D02*
X000190Y018223D01*
X000190Y018321D02*
X022810Y018321D01*
X022810Y018420D02*
X000190Y018420D01*
X000190Y018518D02*
X022810Y018518D01*
X022810Y018617D02*
X000190Y018617D01*
X000190Y018715D02*
X022810Y018715D01*
X022810Y018814D02*
X017274Y018814D01*
X017264Y018804D02*
X017346Y018886D01*
X017390Y018992D01*
X017390Y019108D01*
X017346Y019214D01*
X017264Y019296D01*
X017158Y019340D01*
X017042Y019340D01*
X016936Y019296D01*
X016920Y019280D01*
X016130Y019280D01*
X016114Y019296D01*
X016008Y019340D01*
X015892Y019340D01*
X015786Y019296D01*
X015704Y019214D01*
X015660Y019108D01*
X015660Y018992D01*
X015704Y018886D01*
X015786Y018804D01*
X015892Y018760D01*
X016008Y018760D01*
X016114Y018804D01*
X016130Y018820D01*
X016920Y018820D01*
X016936Y018804D01*
X017042Y018760D01*
X017158Y018760D01*
X017264Y018804D01*
X017357Y018912D02*
X022810Y018912D01*
X022810Y019011D02*
X017390Y019011D01*
X017389Y019109D02*
X022810Y019109D01*
X022810Y019208D02*
X017349Y019208D01*
X017240Y019306D02*
X022810Y019306D01*
X022810Y019405D02*
X000190Y019405D01*
X000190Y019503D02*
X022810Y019503D01*
X022810Y019602D02*
X000190Y019602D01*
X000190Y019700D02*
X002690Y019700D01*
X002654Y019736D02*
X002736Y019654D01*
X002842Y019610D01*
X002958Y019610D01*
X003064Y019654D01*
X003146Y019736D01*
X003190Y019842D01*
X003190Y019865D01*
X004335Y021010D01*
X004358Y021010D01*
X004464Y021054D01*
X004546Y021136D01*
X004590Y021242D01*
X004590Y021358D01*
X004546Y021464D01*
X004464Y021546D01*
X004358Y021590D01*
X004242Y021590D01*
X004136Y021546D01*
X004054Y021464D01*
X004010Y021358D01*
X004010Y021335D01*
X002865Y020190D01*
X002842Y020190D01*
X002736Y020146D01*
X002654Y020064D01*
X002610Y019958D01*
X002610Y019842D01*
X002654Y019736D01*
X002628Y019799D02*
X000190Y019799D01*
X000190Y019897D02*
X002610Y019897D01*
X002626Y019996D02*
X000190Y019996D01*
X000190Y020094D02*
X002684Y020094D01*
X002867Y020193D02*
X000190Y020193D01*
X000190Y020291D02*
X002966Y020291D01*
X003064Y020390D02*
X000190Y020390D01*
X000190Y020488D02*
X003163Y020488D01*
X003261Y020587D02*
X000190Y020587D01*
X000190Y020685D02*
X003360Y020685D01*
X003458Y020784D02*
X000190Y020784D01*
X000190Y020882D02*
X003557Y020882D01*
X003655Y020981D02*
X001443Y020981D01*
X001346Y020883D02*
X001693Y021230D01*
X001693Y021722D01*
X001346Y022069D01*
X000854Y022069D01*
X000507Y021722D01*
X000507Y021230D01*
X000854Y020883D01*
X001346Y020883D01*
X001542Y021079D02*
X003754Y021079D01*
X003852Y021178D02*
X001640Y021178D01*
X001693Y021276D02*
X003951Y021276D01*
X004017Y021375D02*
X001693Y021375D01*
X001693Y021473D02*
X004063Y021473D01*
X004198Y021572D02*
X001693Y021572D01*
X001693Y021670D02*
X007870Y021670D01*
X007870Y021572D02*
X004402Y021572D01*
X004537Y021473D02*
X007870Y021473D01*
X007870Y021375D02*
X004583Y021375D01*
X004590Y021276D02*
X007870Y021276D01*
X007870Y021200D02*
X007690Y021020D01*
X007690Y020680D01*
X007930Y020440D01*
X008270Y020440D01*
X008510Y020680D01*
X008510Y021020D01*
X008330Y021200D01*
X008330Y021905D01*
X008485Y022060D01*
X008508Y022060D01*
X008614Y022104D01*
X008696Y022186D01*
X008740Y022292D01*
X008740Y022408D01*
X008696Y022514D01*
X008614Y022596D01*
X008508Y022640D01*
X008392Y022640D01*
X008286Y022596D01*
X008204Y022514D01*
X008160Y022408D01*
X008160Y022385D01*
X007870Y022095D01*
X007870Y021200D01*
X007848Y021178D02*
X004563Y021178D01*
X004489Y021079D02*
X007749Y021079D01*
X007690Y020981D02*
X004306Y020981D01*
X004207Y020882D02*
X007690Y020882D01*
X007690Y020784D02*
X004109Y020784D01*
X004010Y020685D02*
X007690Y020685D01*
X007784Y020587D02*
X003912Y020587D01*
X003813Y020488D02*
X007882Y020488D01*
X008318Y020488D02*
X008882Y020488D01*
X008930Y020440D02*
X009270Y020440D01*
X009510Y020680D01*
X009510Y021020D01*
X009270Y021260D01*
X008930Y021260D01*
X008690Y021020D01*
X008690Y020680D01*
X008930Y020440D01*
X008784Y020587D02*
X008416Y020587D01*
X008510Y020685D02*
X008690Y020685D01*
X008690Y020784D02*
X008510Y020784D01*
X008510Y020882D02*
X008690Y020882D01*
X008690Y020981D02*
X008510Y020981D01*
X008451Y021079D02*
X008749Y021079D01*
X008848Y021178D02*
X008352Y021178D01*
X008330Y021276D02*
X022810Y021276D01*
X022810Y021178D02*
X009352Y021178D01*
X009451Y021079D02*
X022810Y021079D01*
X022810Y020981D02*
X009510Y020981D01*
X009510Y020882D02*
X022810Y020882D01*
X022810Y020784D02*
X009510Y020784D01*
X009510Y020685D02*
X022810Y020685D01*
X022810Y020587D02*
X009416Y020587D01*
X009318Y020488D02*
X022810Y020488D01*
X022810Y020390D02*
X003715Y020390D01*
X003616Y020291D02*
X022810Y020291D01*
X022810Y020193D02*
X003518Y020193D01*
X003419Y020094D02*
X022810Y020094D01*
X022810Y019996D02*
X003321Y019996D01*
X003222Y019897D02*
X022810Y019897D01*
X022810Y019799D02*
X003172Y019799D01*
X003110Y019700D02*
X022810Y019700D01*
X022810Y021375D02*
X008330Y021375D01*
X008330Y021473D02*
X022810Y021473D01*
X022810Y021572D02*
X013198Y021572D01*
X013176Y021550D02*
X013440Y021814D01*
X013440Y022186D01*
X013176Y022450D01*
X012804Y022450D01*
X012540Y022186D01*
X012540Y021814D01*
X012804Y021550D01*
X013176Y021550D01*
X013296Y021670D02*
X022810Y021670D01*
X022810Y021769D02*
X013395Y021769D01*
X013440Y021867D02*
X022810Y021867D01*
X022810Y021966D02*
X013440Y021966D01*
X013440Y022064D02*
X022810Y022064D01*
X022810Y022163D02*
X016927Y022163D01*
X016927Y022161D02*
X016927Y022839D01*
X016839Y022927D01*
X016161Y022927D01*
X016073Y022839D01*
X016073Y022161D01*
X016161Y022073D01*
X016839Y022073D01*
X016927Y022161D01*
X016927Y022261D02*
X022810Y022261D01*
X022810Y022360D02*
X016927Y022360D01*
X016927Y022458D02*
X022810Y022458D01*
X022810Y022557D02*
X016927Y022557D01*
X016927Y022655D02*
X022810Y022655D01*
X022810Y022754D02*
X016927Y022754D01*
X016914Y022852D02*
X022810Y022852D01*
X022810Y022951D02*
X000190Y022951D01*
X000190Y023049D02*
X022810Y023049D01*
X022810Y023148D02*
X000190Y023148D01*
X000190Y023246D02*
X022810Y023246D01*
X022810Y023345D02*
X000190Y023345D01*
X000190Y023443D02*
X018363Y023443D01*
X018252Y023542D02*
X000190Y023542D01*
X000190Y023640D02*
X018211Y023640D01*
X018210Y023739D02*
X000190Y023739D01*
X000190Y023837D02*
X018243Y023837D01*
X018325Y023936D02*
X000190Y023936D01*
X000190Y024034D02*
X018662Y024034D01*
X019248Y024034D02*
X019252Y024034D01*
X019223Y023542D02*
X019277Y023542D01*
X019814Y023542D02*
X020016Y023542D01*
X020284Y023542D02*
X022197Y023542D01*
X022519Y023542D02*
X022810Y023542D01*
X022810Y023640D02*
X022569Y023640D01*
X022553Y023739D02*
X022810Y023739D01*
X022810Y023837D02*
X022739Y023837D01*
X022798Y023936D02*
X022810Y023936D01*
X022520Y023544D02*
X022520Y023544D01*
X022810Y023443D02*
X018637Y023443D01*
X019838Y024034D02*
X019974Y024034D01*
X020326Y024034D02*
X021654Y024034D01*
X021619Y024133D02*
X000190Y024133D01*
X000190Y024231D02*
X021625Y024231D01*
X021851Y024330D02*
X000190Y024330D01*
X000190Y024428D02*
X021851Y024428D01*
X021843Y024527D02*
X000190Y024527D01*
X000190Y022852D02*
X014248Y022852D01*
X014258Y022862D02*
X014138Y022742D01*
X014073Y022585D01*
X014073Y022415D01*
X014138Y022258D01*
X014258Y022138D01*
X014415Y022073D01*
X014585Y022073D01*
X014742Y022138D01*
X014862Y022258D01*
X014927Y022415D01*
X014927Y022585D01*
X014862Y022742D01*
X014742Y022862D01*
X014585Y022927D01*
X014415Y022927D01*
X014258Y022862D01*
X014149Y022754D02*
X000190Y022754D01*
X000190Y022655D02*
X014102Y022655D01*
X014073Y022557D02*
X008654Y022557D01*
X008719Y022458D02*
X014073Y022458D01*
X014096Y022360D02*
X013267Y022360D01*
X013365Y022261D02*
X014137Y022261D01*
X014233Y022163D02*
X013440Y022163D01*
X012713Y022360D02*
X012267Y022360D01*
X012176Y022450D02*
X011804Y022450D01*
X011540Y022186D01*
X011540Y021814D01*
X011804Y021550D01*
X012176Y021550D01*
X012440Y021814D01*
X012440Y022186D01*
X012176Y022450D01*
X012365Y022261D02*
X012615Y022261D01*
X012540Y022163D02*
X012440Y022163D01*
X012440Y022064D02*
X012540Y022064D01*
X012540Y021966D02*
X012440Y021966D01*
X012440Y021867D02*
X012540Y021867D01*
X012585Y021769D02*
X012395Y021769D01*
X012296Y021670D02*
X012684Y021670D01*
X012782Y021572D02*
X012198Y021572D01*
X011782Y021572D02*
X011198Y021572D01*
X011176Y021550D02*
X011440Y021814D01*
X011440Y022186D01*
X011176Y022450D01*
X010804Y022450D01*
X010540Y022186D01*
X010540Y021814D01*
X010804Y021550D01*
X011176Y021550D01*
X011296Y021670D02*
X011684Y021670D01*
X011585Y021769D02*
X011395Y021769D01*
X011440Y021867D02*
X011540Y021867D01*
X011540Y021966D02*
X011440Y021966D01*
X011440Y022064D02*
X011540Y022064D01*
X011540Y022163D02*
X011440Y022163D01*
X011365Y022261D02*
X011615Y022261D01*
X011713Y022360D02*
X011267Y022360D01*
X010713Y022360D02*
X008740Y022360D01*
X008727Y022261D02*
X010615Y022261D01*
X010540Y022163D02*
X008673Y022163D01*
X008517Y022064D02*
X010540Y022064D01*
X010540Y021966D02*
X008391Y021966D01*
X008330Y021867D02*
X010540Y021867D01*
X010585Y021769D02*
X008330Y021769D01*
X008330Y021670D02*
X010684Y021670D01*
X010782Y021572D02*
X008330Y021572D01*
X007870Y021769D02*
X001646Y021769D01*
X001547Y021867D02*
X007870Y021867D01*
X007870Y021966D02*
X001449Y021966D01*
X001350Y022064D02*
X007870Y022064D01*
X007937Y022163D02*
X000190Y022163D01*
X000190Y022261D02*
X008036Y022261D01*
X008134Y022360D02*
X000190Y022360D01*
X000190Y022458D02*
X008181Y022458D01*
X008246Y022557D02*
X000190Y022557D01*
X000190Y022064D02*
X000850Y022064D01*
X000751Y021966D02*
X000190Y021966D01*
X000190Y021867D02*
X000653Y021867D01*
X000554Y021769D02*
X000190Y021769D01*
X000190Y021670D02*
X000507Y021670D01*
X000507Y021572D02*
X000190Y021572D01*
X000190Y021473D02*
X000507Y021473D01*
X000507Y021375D02*
X000190Y021375D01*
X000190Y021276D02*
X000507Y021276D01*
X000560Y021178D02*
X000190Y021178D01*
X000190Y021079D02*
X000658Y021079D01*
X000757Y020981D02*
X000190Y020981D01*
X000190Y019306D02*
X015810Y019306D01*
X015701Y019208D02*
X000190Y019208D01*
X000190Y019109D02*
X015661Y019109D01*
X015660Y019011D02*
X000190Y019011D01*
X000190Y018912D02*
X015693Y018912D01*
X015776Y018814D02*
X000190Y018814D01*
X000190Y011820D02*
X014794Y011820D01*
X014661Y011722D02*
X000190Y011722D01*
X000190Y011623D02*
X014616Y011623D01*
X014610Y011525D02*
X000190Y011525D01*
X000190Y011426D02*
X014637Y011426D01*
X014670Y011328D02*
X000190Y011328D01*
X000190Y011229D02*
X014670Y011229D01*
X014670Y011131D02*
X000190Y011131D01*
X000190Y011032D02*
X014670Y011032D01*
X014670Y010934D02*
X000190Y010934D01*
X000190Y010835D02*
X014670Y010835D01*
X014670Y010737D02*
X000190Y010737D01*
X000190Y010638D02*
X014670Y010638D01*
X014670Y010540D02*
X000190Y010540D01*
X000190Y010441D02*
X014670Y010441D01*
X014670Y010343D02*
X000190Y010343D01*
X000190Y010244D02*
X014670Y010244D01*
X014670Y010146D02*
X000190Y010146D01*
X000190Y010047D02*
X014670Y010047D01*
X014670Y009949D02*
X000190Y009949D01*
X000190Y009850D02*
X014670Y009850D01*
X014670Y009752D02*
X000190Y009752D01*
X000190Y009653D02*
X014670Y009653D01*
X014670Y009555D02*
X000190Y009555D01*
X000190Y009456D02*
X014670Y009456D01*
X014670Y009358D02*
X000190Y009358D01*
X000190Y009259D02*
X014631Y009259D01*
X014610Y009161D02*
X000190Y009161D01*
X000190Y009062D02*
X014623Y009062D01*
X014676Y008964D02*
X000190Y008964D01*
X009599Y005812D02*
X010701Y005812D01*
X016124Y018814D02*
X016926Y018814D01*
X016960Y019306D02*
X016090Y019306D01*
X016073Y022163D02*
X014767Y022163D01*
X014863Y022261D02*
X016073Y022261D01*
X016073Y022360D02*
X014904Y022360D01*
X014927Y022458D02*
X016073Y022458D01*
X016073Y022557D02*
X014927Y022557D01*
X014898Y022655D02*
X016073Y022655D01*
X016073Y022754D02*
X014851Y022754D01*
X014752Y022852D02*
X016086Y022852D01*
X020408Y023936D02*
X021748Y023936D01*
X021749Y023934D02*
X021749Y023934D01*
X021791Y023837D02*
X020440Y023837D01*
M02*
