G75*
%MOIN*%
%OFA0B0*%
%FSLAX24Y24*%
%IPPOS*%
%LPD*%
%AMOC8*
5,1,8,0,0,1.08239X$1,22.5*
%
%ADD10R,0.0315X0.0276*%
%ADD11R,0.0276X0.0315*%
%ADD12R,0.0591X0.0768*%
%ADD13R,0.0768X0.0591*%
%ADD14R,0.0394X0.0433*%
%ADD15R,0.0354X0.0276*%
%ADD16R,0.0319X0.0120*%
%ADD17R,0.0472X0.0630*%
%ADD18R,0.0433X0.0394*%
%ADD19R,0.0276X0.0354*%
%ADD20R,0.1969X0.1969*%
%ADD21C,0.0110*%
%ADD22R,0.0984X0.0984*%
%ADD23C,0.0138*%
%ADD24R,0.0394X0.0472*%
%ADD25R,0.0165X0.0630*%
%ADD26R,0.0827X0.0827*%
%ADD27R,0.0591X0.0787*%
%ADD28R,0.0451X0.0767*%
%ADD29R,0.0217X0.0236*%
%ADD30R,0.1024X0.0315*%
%ADD31R,0.0228X0.0098*%
%ADD32R,0.0098X0.0228*%
%ADD33R,0.0098X0.0315*%
%ADD34R,0.0660X0.0140*%
%ADD35R,0.0591X0.0591*%
%ADD36R,0.1200X0.1000*%
D10*
X012467Y011746D03*
X012940Y011746D03*
X015924Y011587D03*
X016396Y011587D03*
X016395Y010167D03*
X015923Y010167D03*
X019872Y021500D03*
X020344Y021500D03*
X020549Y026015D03*
X021022Y026015D03*
X019044Y028700D03*
X018572Y028700D03*
G36*
X015269Y024382D02*
X015048Y024161D01*
X014853Y024356D01*
X015074Y024577D01*
X015269Y024382D01*
G37*
G36*
X014935Y024048D02*
X014714Y023827D01*
X014519Y024022D01*
X014740Y024243D01*
X014935Y024048D01*
G37*
G36*
X014354Y023559D02*
X014133Y023780D01*
X014328Y023975D01*
X014549Y023754D01*
X014354Y023559D01*
G37*
G36*
X014688Y023225D02*
X014467Y023446D01*
X014662Y023641D01*
X014883Y023420D01*
X014688Y023225D01*
G37*
G36*
X014062Y023159D02*
X013841Y022938D01*
X013646Y023133D01*
X013867Y023354D01*
X014062Y023159D01*
G37*
G36*
X013728Y022825D02*
X013507Y022604D01*
X013312Y022799D01*
X013533Y023020D01*
X013728Y022825D01*
G37*
G36*
X014619Y025516D02*
X014840Y025295D01*
X014645Y025100D01*
X014424Y025321D01*
X014619Y025516D01*
G37*
G36*
X014285Y025850D02*
X014506Y025629D01*
X014311Y025434D01*
X014090Y025655D01*
X014285Y025850D01*
G37*
X006894Y023475D03*
X006422Y023475D03*
X005944Y024100D03*
X005472Y024100D03*
X005564Y017992D03*
X006036Y017992D03*
D11*
X006708Y021624D03*
X006708Y022096D03*
X008158Y022036D03*
X008158Y021564D03*
X008758Y022854D03*
X008758Y023326D03*
X007708Y025914D03*
X007708Y026386D03*
X009958Y028314D03*
X009958Y028786D03*
X010458Y027036D03*
X010458Y026564D03*
X012172Y021875D03*
X012172Y021403D03*
X014192Y021544D03*
X014192Y022016D03*
X017358Y024864D03*
X017358Y025336D03*
X018820Y022324D03*
X018820Y021851D03*
D12*
X021020Y027219D03*
X021020Y028301D03*
X009346Y027261D03*
X009346Y026179D03*
D13*
X018717Y027788D03*
X019799Y027788D03*
D14*
X008358Y026545D03*
X008358Y025875D03*
D15*
X006914Y024725D03*
X006402Y024725D03*
X005964Y024737D03*
X005452Y024737D03*
X005502Y025475D03*
X006014Y025475D03*
X006352Y024075D03*
X006864Y024075D03*
X005914Y023475D03*
X005402Y023475D03*
X005545Y017541D03*
X006057Y017541D03*
X012763Y021855D03*
X013275Y021855D03*
X018052Y023130D03*
X018564Y023130D03*
X018614Y023830D03*
X018614Y024300D03*
X018621Y024785D03*
X018110Y024785D03*
X018102Y024300D03*
X018102Y023830D03*
X018110Y026625D03*
X018621Y026625D03*
X020527Y026435D03*
X021039Y026435D03*
X013314Y027750D03*
X013314Y028194D03*
X012802Y028194D03*
X012802Y027750D03*
X017187Y011996D03*
X017699Y011996D03*
X017699Y009752D03*
X017187Y009752D03*
X017362Y002350D03*
X017874Y002350D03*
X016024Y002350D03*
X015512Y002350D03*
D16*
X004604Y024906D03*
X004604Y025103D03*
X004604Y025300D03*
X004131Y025300D03*
X004131Y025103D03*
X004131Y024906D03*
D17*
X020675Y023348D03*
X021856Y023348D03*
D18*
X021374Y022495D03*
X020704Y022495D03*
X020380Y025502D03*
X021049Y025502D03*
X012574Y012636D03*
X011904Y012636D03*
X012915Y002197D03*
X012905Y001484D03*
X013574Y001484D03*
X013584Y002197D03*
D19*
X014658Y021494D03*
X015123Y021494D03*
X015123Y022006D03*
X014658Y022006D03*
X017371Y022394D03*
X017371Y022906D03*
X017885Y022347D03*
X018368Y022346D03*
X018368Y021834D03*
X017885Y021835D03*
X017359Y023684D03*
X017359Y024196D03*
X011552Y028100D03*
X011144Y028098D03*
X011144Y028610D03*
X011552Y028612D03*
X009508Y028806D03*
X009508Y028294D03*
X008358Y027656D03*
X008358Y027144D03*
X006058Y022116D03*
X006058Y021604D03*
X005408Y021604D03*
X005408Y022116D03*
D20*
G36*
X011958Y026091D02*
X013349Y024700D01*
X011958Y023309D01*
X010567Y024700D01*
X011958Y026091D01*
G37*
D21*
X011446Y026465D02*
X011296Y026615D01*
X011435Y026754D02*
X011585Y026604D01*
X011724Y026744D02*
X011574Y026894D01*
X011713Y027033D02*
X011863Y026883D01*
X012053Y026883D02*
X012203Y027033D01*
X012342Y026894D02*
X012192Y026744D01*
X012331Y026604D02*
X012481Y026754D01*
X012620Y026615D02*
X012470Y026465D01*
X012610Y026326D02*
X012760Y026476D01*
X012899Y026337D02*
X012749Y026187D01*
X012888Y026048D02*
X013038Y026198D01*
X013177Y026058D02*
X013027Y025908D01*
X013166Y025769D02*
X013316Y025919D01*
X013456Y025780D02*
X013306Y025630D01*
X013445Y025491D02*
X013595Y025641D01*
X013734Y025502D02*
X013584Y025352D01*
X013723Y025212D02*
X013873Y025362D01*
X014012Y025223D02*
X013862Y025073D01*
X014002Y024934D02*
X014152Y025084D01*
X014291Y024945D02*
X014141Y024795D01*
X014141Y024605D02*
X014291Y024455D01*
X014152Y024316D02*
X014002Y024466D01*
X013862Y024327D02*
X014012Y024177D01*
X013873Y024038D02*
X013723Y024188D01*
X013584Y024048D02*
X013734Y023898D01*
X013595Y023759D02*
X013445Y023909D01*
X013306Y023770D02*
X013456Y023620D01*
X013316Y023481D02*
X013166Y023631D01*
X013027Y023492D02*
X013177Y023342D01*
X013038Y023203D02*
X012888Y023353D01*
X012749Y023213D02*
X012899Y023063D01*
X012760Y022924D02*
X012610Y023074D01*
X012470Y022935D02*
X012620Y022785D01*
X012481Y022646D02*
X012331Y022796D01*
X012192Y022657D02*
X012342Y022507D01*
X012203Y022367D02*
X012053Y022517D01*
X011863Y022517D02*
X011713Y022367D01*
X011574Y022507D02*
X011724Y022657D01*
X011585Y022796D02*
X011435Y022646D01*
X011296Y022785D02*
X011446Y022935D01*
X011306Y023074D02*
X011156Y022924D01*
X011017Y023063D02*
X011167Y023213D01*
X011028Y023353D02*
X010878Y023203D01*
X010739Y023342D02*
X010889Y023492D01*
X010750Y023631D02*
X010600Y023481D01*
X010460Y023620D02*
X010610Y023770D01*
X010471Y023909D02*
X010321Y023759D01*
X010182Y023898D02*
X010332Y024048D01*
X010193Y024188D02*
X010043Y024038D01*
X009904Y024177D02*
X010054Y024327D01*
X009915Y024466D02*
X009765Y024316D01*
X009625Y024455D02*
X009775Y024605D01*
X009775Y024795D02*
X009625Y024945D01*
X009765Y025084D02*
X009915Y024934D01*
X010054Y025073D02*
X009904Y025223D01*
X010043Y025362D02*
X010193Y025212D01*
X010332Y025352D02*
X010182Y025502D01*
X010321Y025641D02*
X010471Y025491D01*
X010610Y025630D02*
X010460Y025780D01*
X010600Y025919D02*
X010750Y025769D01*
X010889Y025908D02*
X010739Y026058D01*
X010878Y026198D02*
X011028Y026048D01*
X011167Y026187D02*
X011017Y026337D01*
X011156Y026476D02*
X011306Y026326D01*
D22*
X016158Y026850D03*
D23*
X016286Y026191D02*
X016286Y026053D01*
X016542Y026053D02*
X016542Y026191D01*
X016817Y026466D02*
X016955Y026466D01*
X016955Y026722D02*
X016817Y026722D01*
X016817Y026978D02*
X016955Y026978D01*
X016955Y027234D02*
X016817Y027234D01*
X016542Y027509D02*
X016542Y027647D01*
X016286Y027647D02*
X016286Y027509D01*
X016030Y027509D02*
X016030Y027647D01*
X015774Y027647D02*
X015774Y027509D01*
X015499Y027234D02*
X015361Y027234D01*
X015361Y026978D02*
X015499Y026978D01*
X015499Y026722D02*
X015361Y026722D01*
X015361Y026466D02*
X015499Y026466D01*
X015774Y026191D02*
X015774Y026053D01*
X016030Y026053D02*
X016030Y026191D01*
D24*
X014542Y027710D03*
X014542Y028410D03*
X013794Y028410D03*
X013794Y027710D03*
X015504Y001760D03*
X016252Y001760D03*
X017234Y001760D03*
X017982Y001760D03*
D25*
X005620Y027538D03*
X005364Y027538D03*
X005108Y027538D03*
X004852Y027538D03*
X004596Y027538D03*
D26*
X003828Y027794D03*
X006387Y027794D03*
D27*
X006899Y028818D03*
X003317Y028818D03*
D28*
X004708Y028830D03*
X005508Y028810D03*
D29*
X019333Y026806D03*
X019333Y026294D03*
X020062Y026550D03*
X019333Y025156D03*
X019333Y024644D03*
X019333Y023806D03*
X019333Y023294D03*
X020062Y023550D03*
X020733Y024244D03*
X020733Y024756D03*
X020062Y024900D03*
X021462Y024500D03*
D30*
G36*
X010875Y021969D02*
X010151Y021245D01*
X009929Y021467D01*
X010653Y022191D01*
X010875Y021969D01*
G37*
G36*
X010458Y022386D02*
X009734Y021662D01*
X009512Y021884D01*
X010236Y022608D01*
X010458Y022386D01*
G37*
G36*
X010040Y022804D02*
X009316Y022080D01*
X009094Y022302D01*
X009818Y023026D01*
X010040Y022804D01*
G37*
D31*
X020952Y021697D03*
X020952Y021500D03*
X020952Y021303D03*
X021464Y021303D03*
X021464Y021500D03*
X021464Y021697D03*
D32*
X021208Y021717D03*
X021208Y021283D03*
D33*
X008408Y024247D03*
X008211Y024247D03*
X008014Y024247D03*
X008014Y024700D03*
X008211Y024700D03*
X008408Y024700D03*
D34*
X011348Y011244D03*
X011348Y010994D03*
X011348Y010734D03*
X011348Y010474D03*
X011348Y010224D03*
X011348Y009964D03*
X011348Y009714D03*
X011348Y009454D03*
X011348Y009194D03*
X011348Y008944D03*
X013568Y008944D03*
X013568Y009194D03*
X013568Y009454D03*
X013568Y009714D03*
X013568Y009964D03*
X013568Y010224D03*
X013568Y010474D03*
X013568Y010734D03*
X013568Y010994D03*
X013568Y011244D03*
D35*
X010380Y002199D03*
X011639Y002199D03*
D36*
X017535Y010878D03*
M02*
